<svg xmlns="http://www.w3.org/2000/svg" width="970" height="287" viewBox="0 0 970 287">
  <g fill="none" fill-rule="evenodd" transform="translate(0 -2392)">
    <polygon fill="#FFC331" points="0 2376 970 2376 970 2876 0 2876"/>
    <g fill="#FFF" transform="translate(-3 2366)">
      <path d="M-1.00974196e-28,-5.68434189e-14 L-1.00974196e-28,215.615452 C-1.00974196e-28,227.394974 9.54284599,237.03274 21.2061546,237.03274 L24.2197559,237.03274 C35.8831544,237.03274 45.4259105,227.394974 45.4259105,215.615452 L45.4259105,153.462941 C49.1034769,156.552674 53.8200115,158.418845 58.9487709,158.418845 L67.249638,158.418845 C78.9130365,158.418845 88.4557926,148.780988 88.4557926,137.001557 L88.4557926,125.672325 C88.4557926,100.998319 108.260922,80.9960957 132.691601,80.9960957 C157.122549,80.9960957 176.927679,100.998319 176.927679,125.672325 L176.927679,137.001557 C176.927679,148.780988 186.470435,158.418845 198.133833,158.418845 L199.340119,158.418845 C211.003428,158.418845 220.546274,148.780988 220.546274,137.001557 L220.546274,100.649547 C220.546274,89.7952106 229.258736,80.9960957 240.00589,80.9960957 C250.753133,80.9960957 259.465686,89.7952106 259.465686,100.649547 L259.465686,153.252189 C259.465686,158.694339 263.311019,163.564798 268.653128,164.278959 C275.118899,165.143307 280.694407,160.024504 280.694407,153.654443 L280.694407,214.185496 C280.694407,231.643346 294.837268,245.926925 312.122837,245.926925 C329.408586,245.926925 343.551626,231.643346 343.551626,214.185496 L343.551626,112.41908 C343.551626,95.0646549 357.481497,80.9960957 374.664931,80.9960957 L374.664931,-5.68434189e-14 L-1.00974196e-28,-5.68434189e-14 Z" transform="matrix(-1 0 0 1 663.19 .127)"/>
      <path d="M-1.00974196e-28,-5.68434189e-14 L-1.00974196e-28,215.615452 C-1.00974196e-28,227.394974 9.54284599,237.03274 21.2061546,237.03274 L24.2197559,237.03274 C35.8831544,237.03274 45.4259105,227.394974 45.4259105,215.615452 L45.4259105,153.462941 C49.1034769,156.552674 53.8200115,158.418845 58.9487709,158.418845 L67.249638,158.418845 C78.9130365,158.418845 88.4557926,148.780988 88.4557926,137.001557 L88.4557926,125.672325 C88.4557926,100.998319 108.260922,80.9960957 132.691601,80.9960957 C157.122549,80.9960957 176.927679,100.998319 176.927679,125.672325 L176.927679,137.001557 C176.927679,148.780988 186.470435,158.418845 198.133833,158.418845 L199.340119,158.418845 C211.003428,158.418845 220.546274,148.780988 220.546274,137.001557 L220.546274,100.649547 C220.546274,89.7952106 229.258736,80.9960957 240.00589,80.9960957 C250.753133,80.9960957 259.465686,89.7952106 259.465686,100.649547 L259.465686,153.252189 C259.465686,158.694339 263.311019,163.564798 268.653128,164.278959 C275.118899,165.143307 280.694407,160.024504 280.694407,153.654443 L280.694407,214.185496 C280.694407,231.643346 294.837268,245.926925 312.122837,245.926925 C329.408586,245.926925 343.551626,231.643346 343.551626,214.185496 L343.551626,112.41908 C343.551626,95.0646549 357.481497,80.9960957 374.664931,80.9960957 L374.664931,-5.68434189e-14 L-1.00974196e-28,-5.68434189e-14 Z" transform="matrix(-1 0 0 1 374.775 .127)"/>
      <path d="M-1.00974196e-28,-5.68434189e-14 L-1.00974196e-28,215.615452 C-1.00974196e-28,227.394974 9.02055691,237.03274 20.0455215,237.03274 L22.8941855,237.03274 C33.9192351,237.03274 42.939707,227.394974 42.939707,215.615452 L42.939707,153.462941 C46.4159966,156.552674 50.8743908,158.418845 55.7224483,158.418845 L63.569001,158.418845 C74.5940506,158.418845 83.6145225,148.780988 83.6145225,137.001557 L83.6145225,125.672325 C83.6145225,100.998319 102.335699,80.9960957 125.429263,80.9960957 C148.523082,80.9960957 167.244258,100.998319 167.244258,125.672325 L167.244258,137.001557 C167.244258,148.780988 176.26473,158.418845 187.289779,158.418845 L188.430044,158.418845 C199.455008,158.418845 208.475565,148.780988 208.475565,137.001557 L208.475565,100.649547 C208.475565,89.7952106 216.711186,80.9960957 226.870138,80.9960957 C237.029175,80.9960957 245.264881,89.7952106 245.264881,100.649547 L245.264881,153.252189 C245.264881,158.694339 248.899755,163.564798 253.949486,164.278959 C260.061378,165.143307 265.331734,160.024504 265.331734,153.654443 L265.331734,214.185496 C265.331734,231.643346 278.700542,245.926925 295.040056,245.926925 C311.379739,245.926925 324.748717,231.643346 324.748717,214.185496 L324.748717,112.41908 C324.748717,95.0646549 337.916193,80.9960957 354.159161,80.9960957 L354.159161,-5.68434189e-14 L-1.00974196e-28,-5.68434189e-14 Z" transform="translate(621.577 .127)"/>
    </g>
  </g>
</svg>
