<svg xmlns="http://www.w3.org/2000/svg" xmlns:xlink="http://www.w3.org/1999/xlink" width="172" height="110" viewBox="0 0 172 110">
  <defs>
    <path id="cat_tit-a" d="M0,69.5850519 C0,47.8760713 17.6002699,30.2774653 39.3073614,30.2774653 L131.733758,30.2774653 C153.442615,30.2774653 171.04112,47.8712981 171.04112,69.5850519 L171.04112,69.5850519 C171.04112,91.2940325 153.44085,108.892638 131.733758,108.892638 L39.3073614,108.892638 C17.5985052,108.892638 0,91.2988057 0,69.5850519 L0,69.5850519 Z"/>
  </defs>
  <g fill="none" fill-rule="evenodd" transform="translate(0 .502)">
    <path fill="#F5F5F5" d="M109.470517,2.3467916 C105.871393,-0.673291576 99.5232378,0.966783984 95.2915856,6.00986023 C91.9960125,9.9373601 90.9561168,14.7706969 92.3574144,18.1433049 C92.5750529,18.6672775 92.4742456,19.2693381 92.0967446,19.6928795 L85.8381121,26.7344993 L81.3879938,21.7423533 C80.9566286,21.258478 80.884935,20.5459054 81.227003,19.9953016 C82.5113188,17.9282241 82.3923059,15.1879942 80.7429019,13.2224011 L80.7053625,13.1776397 L78.8576539,10.9756007 L69.9544833,0.365249918 C69.5915015,-0.0673189769 68.9466353,-0.123741007 68.5139912,0.239240718 L68.4981931,0.252481088 C68.0656242,0.615462812 68.0092021,1.26040423 68.3721086,1.69304835 L76.6332718,11.5382412 C76.9878278,11.9608045 76.9326847,12.5907753 76.5101965,12.9453313 L76.4947745,12.958346 C76.0721359,13.3129021 75.4421651,13.2577589 75.0876091,12.8351955 L66.8264459,2.98992751 C66.4634642,2.55735862 65.818598,2.50093659 65.3860291,2.86391831 L65.3701557,2.87723391 C64.9375868,3.24021563 64.8811648,3.88515705 65.2441465,4.31772594 L73.5053097,14.1629188 C73.8598657,14.5855574 73.8047226,15.2155281 73.3821592,15.5700089 L73.3667372,15.5830236 C72.9441738,15.9375797 72.314203,15.8824365 71.9595717,15.4599484 L63.6984838,5.61468033 C63.3355021,5.18211144 62.6905607,5.12568941 62.2579918,5.48867113 L62.2421184,5.5019115 C61.8095495,5.86489323 61.7531275,6.50983464 62.1161092,6.94240354 L70.3772723,16.7875963 C70.7318284,17.210235 70.6767605,17.8402057 70.2541218,18.1947618 L70.2386998,18.2077012 C69.8161364,18.5623325 69.1861657,18.5071893 68.8316096,18.084626 L60.5704465,8.23935792 C60.2074648,7.80678903 59.5625234,7.750367 59.1299545,8.11334873 L59.1141563,8.12666432 C58.6815874,8.48964605 58.6251654,9.13458746 58.9881471,9.56715636 L67.8912425,20.1775071 L69.7389511,22.3795461 L69.7765658,22.4243076 C71.4258946,24.3899006 74.1037593,24.9829338 76.362446,24.0770969 C76.9641305,23.8357611 77.6533821,24.0301538 78.0550317,24.5390052 L82.6337922,30.3397165 L67.7328846,47.1050336 C66.6072275,48.4465238 66.7822111,50.4464967 68.1237012,51.5721538 L68.1727508,51.6133043 C69.5143162,52.7389614 71.5142891,52.5639779 72.6399462,51.2224877 L85.8985966,34.4759027 L99.3301993,51.4921098 C100.455856,52.8335999 102.455829,53.0085835 103.797319,51.8829263 L103.846369,51.8417759 C105.187859,50.7161188 105.362843,48.7161459 104.237261,47.3746557 L89.1162321,30.4118615 L95.404881,22.4687681 C95.7564279,22.0234102 96.3318574,21.8196139 96.8856208,21.94299 C100.450365,22.737337 105.029652,20.8739054 108.325225,16.9463303 C112.556877,11.9032541 113.069641,5.36679955 109.470517,2.3467916"/>
    <use fill="#FFC331" xlink:href="#cat_tit-a"/>
    <path stroke="#F5F5F5" stroke-width="8" d="M4,69.5850519 C4,50.0858424 19.8087767,34.2774653 39.3073614,34.2774653 L131.733758,34.2774653 C151.235194,34.2774653 167.04112,50.0821556 167.04112,69.5850519 C167.04112,89.0842614 151.232343,104.892638 131.733758,104.892638 L39.3073614,104.892638 C19.8059255,104.892638 4,89.0879482 4,69.5850519 Z"/>
    <path fill="#FFF" d="M42.0610334,49.6405819 L44.4850334,49.6405819 L44.4850334,51.9445819 L47.8690334,51.9445819 L47.8690334,54.1525819 L44.4850334,54.1525819 L44.4850334,56.3125819 L48.6850334,56.3125819 L48.6850334,58.5685819 L46.9090334,58.5685819 C46.7410334,59.5045819 46.5250334,60.4165819 46.2850334,61.2805819 L47.9410334,61.2805819 L47.9410334,63.4885819 L44.4850334,63.4885819 L44.4850334,65.6725819 L48.7090334,65.6725819 L48.7090334,67.9285819 L44.4850334,67.9285819 L44.4850334,71.8165819 L42.0610334,71.8165819 L42.0610334,67.9285819 L37.7410334,67.9285819 L37.7410334,65.6725819 L42.0610334,65.6725819 L42.0610334,63.4885819 L38.5330334,63.4885819 L38.5330334,61.2805819 L40.2850334,61.2805819 C40.0930334,60.3205819 39.9010334,59.4325819 39.7090334,58.5685819 L37.8610334,58.5685819 L37.8610334,56.3125819 L42.0610334,56.3125819 L42.0610334,54.1525819 L38.6290334,54.1525819 L38.6290334,51.9445819 L42.0610334,51.9445819 L42.0610334,49.6405819 Z M44.0050334,61.2805819 C44.2690334,60.4165819 44.4850334,59.5045819 44.6290334,58.5685819 L41.9170334,58.5685819 C42.1090334,59.4085819 42.2770334,60.3205819 42.4690334,61.2805819 L44.0050334,61.2805819 Z M51.5890334,61.2325819 L51.5890334,69.6565819 C52.5970334,69.0325819 53.4850334,68.2885819 54.2290334,67.3765819 C53.0050334,65.4805819 52.2370334,63.4405819 51.9490334,61.2325819 L51.5890334,61.2325819 Z M54.1810334,61.2325819 C54.3970334,62.6965819 54.8530334,64.0405819 55.5730334,65.2645819 C56.1490334,64.0645819 56.5570334,62.7205819 56.8450334,61.2325819 L54.1810334,61.2325819 Z M51.5890334,70.0645819 L51.5890334,71.8405819 L49.2130334,71.8405819 L49.2130334,50.3845819 L58.8610334,50.3845819 C58.8610334,53.2645819 58.6930334,55.2085819 58.4050334,56.1685819 C58.1170334,57.0805819 57.2290334,57.5605819 55.7410334,57.5605819 L54.1570334,57.5605819 L53.4850334,55.4005819 C53.7730334,55.4005819 54.1570334,55.4245819 54.6130334,55.4245819 C55.0930334,55.4245819 55.4290334,55.4005819 55.6690334,55.3525819 C55.8850334,55.2805819 56.0530334,55.1365819 56.1970334,54.8965819 C56.2930334,54.5845819 56.3890334,53.8405819 56.4370334,52.6405819 L51.5890334,52.6405819 L51.5890334,58.9525819 L59.0770334,58.9525819 L59.0770334,61.1125819 C58.7410334,63.5605819 58.0930334,65.6725819 57.1330334,67.4245819 C57.9490334,68.3605819 58.9090334,69.2005819 60.0370334,69.9685819 L58.3810334,71.8885819 C57.3730334,71.0725819 56.5090334,70.2565819 55.7410334,69.3925819 C54.8290334,70.4005819 53.7970334,71.2405819 52.6210334,71.9125819 L51.5890334,70.0645819 Z M69.6610334,70.5445819 L69.6610334,71.7925819 L67.1410334,71.7925819 L67.1410334,63.6085819 C65.8450334,63.9925819 64.4530334,64.3765819 63.0130334,64.7125819 L61.7170334,62.3125819 C65.6770334,61.5925819 68.9650334,60.6325819 71.6050334,59.4325819 C70.5970334,58.6165819 69.3010334,57.7765819 67.7410334,56.8885819 L69.9250334,55.5445819 C71.5090334,56.5525819 72.8050334,57.4645819 73.7890334,58.2805819 C75.8770334,57.0085819 77.4370334,55.5445819 78.4450334,53.9125819 L70.3810334,53.9125819 C68.7490334,55.4005819 66.7090334,56.7445819 64.2130334,57.9445819 L62.5330334,55.7605819 C66.5650334,54.0805819 69.3010334,51.9925819 70.7170334,49.5445819 L73.4770334,49.8805819 C73.1890334,50.4565819 72.8530334,51.0085819 72.4690334,51.5605819 L81.3010334,51.5605819 L81.3010334,53.7685819 C79.8130334,56.7445819 77.1010334,59.2165819 73.2130334,61.2085819 L82.1170334,61.2085819 L82.1170334,71.7925819 L79.5730334,71.7925819 L79.5730334,70.5445819 L69.6610334,70.5445819 Z M79.5730334,68.1205819 L79.5730334,63.5365819 L69.6610334,63.5365819 L69.6610334,68.1205819 L79.5730334,68.1205819 Z M86.0530334,52.9285819 L86.0530334,55.3525819 L92.5810334,55.3525819 C92.5570334,56.0965819 92.5090334,57.0565819 92.4610334,58.2565819 C92.3410334,60.5125819 91.8850334,62.5525819 91.0930334,64.3525819 C90.2770334,66.1525819 88.5970334,68.1205819 86.0530334,70.2325819 L87.8770334,72.0085819 C90.0130334,70.2805819 91.6690334,68.3605819 92.8450334,66.2725819 C93.6850334,64.7605819 94.2610334,63.1045819 94.5970334,61.2805819 L102.229033,61.2805819 C102.181033,64.5925819 102.109033,66.6085819 101.965033,67.3525819 C101.677033,68.6965819 101.077033,69.3925819 100.141033,69.4405819 C99.2530334,69.4405819 98.1730334,69.3925819 96.9010334,69.3205819 L97.6450334,71.6005819 C98.7010334,71.6725819 99.6130334,71.7205819 100.405033,71.7205819 C102.277033,71.6725819 103.501033,70.7365819 104.053033,68.8645819 C104.437033,67.5685819 104.677033,64.2325819 104.773033,58.9045819 L94.8850334,58.9045819 C94.9810334,57.4405819 95.0290334,56.2645819 95.0770334,55.3525819 L107.509033,55.3525819 L107.509033,52.9285819 L98.6530334,52.9285819 C98.1250334,51.6085819 97.5250334,50.4565819 96.9010334,49.4965819 L94.5250334,50.3845819 C95.1250334,51.2005819 95.6290334,52.0405819 96.0610334,52.9285819 L86.0530334,52.9285819 Z M110.221033,53.6485819 L121.621033,53.6485819 C121.549033,52.3525819 121.525033,51.0325819 121.525033,49.6645819 L124.117033,49.6645819 C124.117033,51.0565819 124.141033,52.4005819 124.213033,53.6485819 L127.645033,53.6485819 C127.045033,52.5685819 126.397033,51.5845819 125.725033,50.7205819 L127.789033,49.7125819 C128.509033,50.6725819 129.181033,51.7285819 129.853033,52.8805819 L128.317033,53.6485819 L131.317033,53.6485819 L131.317033,56.0965819 L124.357033,56.0965819 C124.621033,59.6005819 125.149033,62.5765819 125.917033,64.9765819 C126.925033,67.6645819 127.717033,69.0085819 128.341033,69.0085819 C128.677033,69.0085819 129.037033,67.7365819 129.445033,65.2405819 L131.701033,66.3925819 C130.981033,70.0165819 129.925033,71.8405819 128.509033,71.8405819 C126.133033,71.6965819 124.237033,68.9365819 122.797033,63.6085819 C122.293033,61.4485819 121.957033,58.9285819 121.765033,56.0965819 L110.221033,56.0965819 L110.221033,53.6485819 Z M110.557033,59.3845819 L120.925033,59.3845819 L120.925033,61.7365819 L116.989033,61.7365819 L116.989033,66.9925819 C118.621033,66.6565819 120.253033,66.2725819 121.861033,65.8405819 L121.861033,68.2885819 C118.333033,69.1285819 114.565033,69.8485819 110.557033,70.4485819 L109.981033,68.0725819 C111.493033,67.9045819 113.005033,67.6885819 114.493033,67.4485819 L114.493033,61.7365819 L110.557033,61.7365819 L110.557033,59.3845819 Z M55.5520334,76.1125819 C54.7840334,77.1525819 54.2080334,78.2405819 53.7920334,79.3925819 C53.2960334,80.7365819 53.0560334,82.1285819 53.0560334,83.6005819 C53.0560334,85.0405819 53.2960334,86.4485819 53.7920334,87.7925819 C54.2080334,88.9125819 54.7840334,90.0005819 55.5520334,91.0565819 L57.0720334,91.0565819 C56.4000334,89.9365819 55.8880334,88.8325819 55.5360334,87.7445819 C55.0560334,86.3525819 54.8320334,84.9605819 54.8320334,83.5845819 C54.8320334,82.1925819 55.0560334,80.8005819 55.5360334,79.4245819 C55.8880334,78.3205819 56.4000334,77.2165819 57.0720334,76.1125819 L55.5520334,76.1125819 Z M63.7440334,76.5445819 L72.6080334,76.5445819 L72.6080334,80.3845819 L69.0240334,80.3845819 L69.0240334,81.0085819 L72.0640334,81.0085819 L72.0640334,82.4165819 L69.0240334,82.4165819 L69.0240334,83.0405819 L72.8640334,83.0405819 L72.8640334,84.5125819 L71.0400334,84.5125819 C70.9440334,84.8645819 70.8480334,85.2005819 70.7200334,85.5205819 L72.2880334,85.5205819 L72.2880334,86.8965819 L69.0720334,86.8965819 L69.0720334,87.6005819 L73.0080334,87.6005819 L73.0080334,89.0725819 L69.0720334,89.0725819 L69.0720334,90.8965819 L67.4400334,90.8965819 L67.4400334,89.0725819 L63.2320334,89.0725819 L63.2320334,87.6005819 L67.4400334,87.6005819 L67.4400334,86.8965819 L63.8880334,86.8965819 L63.8880334,85.5205819 L65.5840334,85.5205819 C65.4720334,85.1685819 65.3600334,84.8325819 65.2480334,84.5125819 L63.5040334,84.5125819 L63.5040334,83.0405819 L67.4080334,83.0405819 L67.4080334,82.4165819 L64.2720334,82.4165819 L64.2720334,81.0085819 L67.4080334,81.0085819 L67.4080334,80.3845819 L63.7440334,80.3845819 L63.7440334,76.5445819 Z M69.1200334,85.5205819 C69.2480334,85.1845819 69.3440334,84.8485819 69.4240334,84.5125819 L66.8640334,84.5125819 L67.1520334,85.5205819 L69.1200334,85.5205819 Z M71.1360334,79.0405819 L71.1360334,77.8885819 L70.0480334,77.8885819 L70.0480334,79.0405819 L71.1360334,79.0405819 Z M68.7200334,79.0405819 L68.7200334,77.8885819 L67.6320334,77.8885819 L67.6320334,79.0405819 L68.7200334,79.0405819 Z M66.2880334,79.0405819 L66.2880334,77.8885819 L65.2320334,77.8885819 L65.2320334,79.0405819 L66.2880334,79.0405819 Z M60.3040334,90.8325819 L58.9600334,90.8325819 L58.5920334,89.2485819 C58.9920334,89.3125819 59.3760334,89.3445819 59.7280334,89.3445819 C60.0480334,89.3445819 60.2240334,89.1525819 60.2240334,88.7685819 L60.2240334,85.5685819 C59.7120334,85.7605819 59.2160334,85.9525819 58.7040334,86.1125819 L58.2880334,84.4645819 C58.9280334,84.3045819 59.5840334,84.1285819 60.2240334,83.9045819 L60.2240334,80.6405819 L58.4480334,80.6405819 L58.4480334,79.0885819 L60.2240334,79.0885819 L60.2240334,76.3045819 L61.8560334,76.3045819 L61.8560334,79.0885819 L63.2480334,79.0885819 L63.2480334,80.6405819 L61.8560334,80.6405819 L61.8560334,83.2325819 L63.1520334,82.5605819 L63.1520334,84.2245819 C62.7040334,84.4485819 62.2720334,84.6725819 61.8560334,84.8645819 L61.8560334,89.2005819 C61.8560334,90.2885819 61.3280334,90.8325819 60.3040334,90.8325819 Z M74.4480334,82.6405819 L74.4480334,84.3045819 L88.9920334,84.3045819 L88.9920334,82.6405819 L74.4480334,82.6405819 Z M93.2800334,76.2085819 L94.8960334,76.2085819 L94.8960334,77.7445819 L97.1520334,77.7445819 L97.1520334,79.2165819 L94.8960334,79.2165819 L94.8960334,80.6565819 L97.6960334,80.6565819 L97.6960334,82.1605819 L96.5120334,82.1605819 C96.4000334,82.7845819 96.2560334,83.3925819 96.0960334,83.9685819 L97.2000334,83.9685819 L97.2000334,85.4405819 L94.8960334,85.4405819 L94.8960334,86.8965819 L97.7120334,86.8965819 L97.7120334,88.4005819 L94.8960334,88.4005819 L94.8960334,90.9925819 L93.2800334,90.9925819 L93.2800334,88.4005819 L90.4000334,88.4005819 L90.4000334,86.8965819 L93.2800334,86.8965819 L93.2800334,85.4405819 L90.9280334,85.4405819 L90.9280334,83.9685819 L92.0960334,83.9685819 C91.9680334,83.3285819 91.8400334,82.7365819 91.7120334,82.1605819 L90.4800334,82.1605819 L90.4800334,80.6565819 L93.2800334,80.6565819 L93.2800334,79.2165819 L90.9920334,79.2165819 L90.9920334,77.7445819 L93.2800334,77.7445819 L93.2800334,76.2085819 Z M94.5760334,83.9685819 C94.7520334,83.3925819 94.8960334,82.7845819 94.9920334,82.1605819 L93.1840334,82.1605819 C93.3120334,82.7205819 93.4240334,83.3285819 93.5520334,83.9685819 L94.5760334,83.9685819 Z M99.6320334,83.9365819 L99.6320334,89.5525819 C100.304033,89.1365819 100.896033,88.6405819 101.392033,88.0325819 C100.576033,86.7685819 100.064033,85.4085819 99.8720334,83.9365819 L99.6320334,83.9365819 Z M101.360033,83.9365819 C101.504033,84.9125819 101.808033,85.8085819 102.288033,86.6245819 C102.672033,85.8245819 102.944033,84.9285819 103.136033,83.9365819 L101.360033,83.9365819 Z M99.6320334,89.8245819 L99.6320334,91.0085819 L98.0480334,91.0085819 L98.0480334,76.7045819 L104.480033,76.7045819 C104.480033,78.6245819 104.368033,79.9205819 104.176033,80.5605819 C103.984033,81.1685819 103.392033,81.4885819 102.400033,81.4885819 L101.344033,81.4885819 L100.896033,80.0485819 C101.088033,80.0485819 101.344033,80.0645819 101.648033,80.0645819 C101.968033,80.0645819 102.192033,80.0485819 102.352033,80.0165819 C102.496033,79.9685819 102.608033,79.8725819 102.704033,79.7125819 C102.768033,79.5045819 102.832033,79.0085819 102.864033,78.2085819 L99.6320334,78.2085819 L99.6320334,82.4165819 L104.624033,82.4165819 L104.624033,83.8565819 C104.400033,85.4885819 103.968033,86.8965819 103.328033,88.0645819 C103.872033,88.6885819 104.512033,89.2485819 105.264033,89.7605819 L104.160033,91.0405819 C103.488033,90.4965819 102.912033,89.9525819 102.400033,89.3765819 C101.792033,90.0485819 101.104033,90.6085819 100.320033,91.0565819 L99.6320334,89.8245819 Z M111.680033,90.1445819 L111.680033,90.9765819 L110.000033,90.9765819 L110.000033,85.5205819 C109.136033,85.7765819 108.208033,86.0325819 107.248033,86.2565819 L106.384033,84.6565819 C109.024033,84.1765819 111.216033,83.5365819 112.976033,82.7365819 C112.304033,82.1925819 111.440033,81.6325819 110.400033,81.0405819 L111.856033,80.1445819 C112.912033,80.8165819 113.776033,81.4245819 114.432033,81.9685819 C115.824033,81.1205819 116.864033,80.1445819 117.536033,79.0565819 L112.160033,79.0565819 C111.072033,80.0485819 109.712033,80.9445819 108.048033,81.7445819 L106.928033,80.2885819 C109.616033,79.1685819 111.440033,77.7765819 112.384033,76.1445819 L114.224033,76.3685819 C114.032033,76.7525819 113.808033,77.1205819 113.552033,77.4885819 L119.440033,77.4885819 L119.440033,78.9605819 C118.448033,80.9445819 116.640033,82.5925819 114.048033,83.9205819 L119.984033,83.9205819 L119.984033,90.9765819 L118.288033,90.9765819 L118.288033,90.1445819 L111.680033,90.1445819 Z M118.288033,88.5285819 L118.288033,85.4725819 L111.680033,85.4725819 L111.680033,88.5285819 L118.288033,88.5285819 Z M122.384033,76.1125819 C123.040033,77.2165819 123.552033,78.3205819 123.920033,79.4245819 C124.384033,80.8005819 124.624033,82.1925819 124.624033,83.5845819 C124.624033,84.9605819 124.384033,86.3525819 123.920033,87.7445819 C123.552033,88.8325819 123.040033,89.9365819 122.384033,91.0565819 L123.904033,91.0565819 C124.656033,90.0005819 125.248033,88.9125819 125.664033,87.7925819 C126.144033,86.4485819 126.400033,85.0405819 126.400033,83.6005819 C126.400033,82.1285819 126.144033,80.7365819 125.664033,79.3925819 C125.248033,78.2405819 124.656033,77.1525819 123.904033,76.1125819 L122.384033,76.1125819 Z"/>
  </g>
</svg>
