<svg xmlns="http://www.w3.org/2000/svg" xmlns:xlink="http://www.w3.org/1999/xlink" width="850" height="44" viewBox="0 0 850 44">
  <defs>
    <polygon id="date-a" points="30.859 .4 30.859 39.024 .257 39.024 .257 .4 30.859 .4"/>
    <polygon id="date-c" points="0 43.007 849.307 43.007 849.307 0 0 0"/>
  </defs>
  <g fill="none" fill-rule="evenodd">
    <path fill="#231814" d="M589.277463 4.96547244L608.903954 4.96547244 613.279207 4.96547244C613.751535 4.96547244 614.184663 4.98459505 614.579544 5.01901575 614.972514 5.05439258 615.268915 5.21406637 615.465877 5.49803712 615.622683 5.67587739 615.710647 5.91491001 615.731682 6.21609111 615.750804 6.51727222 615.761322 6.82801462 615.761322 7.14640607L615.761322 9.32829584 615.761322 10.3389258C615.761322 10.6582733 615.702998 10.9604106 615.584438 11.2434252 615.465877 11.4566423 615.317677 11.6612542 615.140793 11.8553487 614.962953 12.0503993 614.775551 12.2368448 614.579544 12.414685 614.420827 12.5561924 614.283144 12.663279 614.164584 12.7330765 614.085225 12.8755399 613.978138 12.9988808 613.839499 13.1059674 613.701817 13.2120979 613.573695 13.3182283 613.456091 13.425315 613.218971 13.7102418 612.961772 13.9923003 612.687362 14.2762711 612.41104 14.5602418 612.155754 14.8442126 611.919589 15.1281834 609.947092 17.6112542 608.253785 20.3065861 606.834888 23.215135 606.361603 24.2085546 605.938037 25.2277897 605.563234 26.2737964 605.189387 27.3207593 604.804066 28.3753712 604.411097 29.4405006 604.213178 29.9367323 604.065934 30.4157537 603.967452 30.8766085 603.868971 31.3374634 603.759972 31.7983183 603.642368 32.2601294 603.444449 32.8280709 603.307722 33.3950562 603.229319 33.9620416 603.149961 34.5299831 603.0314 35.115135 602.874595 35.7174972 602.834438 35.8962936 602.814359 36.0636164 602.814359 36.2232902 602.814359 36.382964 602.775157 36.551243 602.696755 36.7290832 602.656597 37.1191845 602.617396 37.4825141 602.578195 37.819072 602.538993 38.1575422 602.479713 38.5208718 602.40131 38.9100169 602.362109 39.0878571 602.351592 39.2475309 602.37167 39.3890382 602.390793 39.5305456 602.381232 39.6902193 602.34203 39.8680596L602.34203 40.5067548C602.22347 40.896856 602.115427 41.2162036 602.016946 41.4638414 601.918465 41.7124353 601.651704 41.9084421 601.218577 42.0489933 600.982413 42.120703 600.706091 42.1474747 600.391524 42.1293082 600.075045 42.1120979 599.760478 42.1025366 599.445911 42.1025366L595.780107 42.1025366C595.346024 42.1025366 594.942537 42.0843701 594.567733 42.0489933 594.193886 42.0145726 593.908003 41.8548988 593.71104 41.5699719 593.593436 41.3940439 593.523639 41.1100731 593.504516 40.7199719 593.483481 40.3289145 593.514078 39.9923566 593.593436 39.7083858 593.671839 39.4951687 593.71104 39.2647413 593.71104 39.0161474 593.71104 38.7685096 593.750242 38.5208718 593.829601 38.2713217 593.986406 37.7397132 594.095405 37.1994994 594.154685 36.6487683 594.213965 36.0999494 594.34113 35.5578234 594.539049 35.0262148 594.814415 34.1398819 595.071614 33.2525928 595.307778 32.3653037 595.543943 31.4789708 595.819308 30.6289708 596.134831 29.8114792 596.213234 29.6355512 596.282075 29.4481496 596.342312 29.253099 596.400636 29.0590045 596.468521 28.8725591 596.54788 28.6947188 596.864359 27.98527 597.178926 27.2949438 597.494449 26.6199156 597.809972 25.9458436 598.124539 25.2555174 598.440062 24.5451125 598.991749 23.3748088 599.613234 22.2389258 600.302604 21.1393757 600.991974 20.0407818 601.710984 18.9584421 602.460591 17.8942688 602.932919 17.2555737 603.406204 16.6178346 603.878532 15.9791395 604.352773 15.3414004 604.844224 14.7027053 605.35671 14.0640101 605.435112 13.9225028 605.612953 13.7006805 605.889274 13.3985433 606.16464 13.0973622 606.263121 12.8229528 606.184719 12.5734027 606.10536 12.3257649 605.967677 12.1746963 605.770714 12.121153 605.572795 12.0685658 605.336631 12.0064173 605.061265 11.9356637L604.529657 11.9356637C604.370939 11.86491 604.184494 11.8381384 603.967452 11.8553487 603.751367 11.8744713 603.543886 11.8821204 603.346924 11.8821204L601.041693 11.8821204 591.996699 11.8821204C591.445011 11.8821204 590.765202 11.8916817 589.957272 11.908892 589.148386 11.9270585 588.587137 11.8467435 588.27257 11.6698594 587.996249 11.527396 587.819364 11.3323453 587.740962 11.0837514 587.661603 10.9068673 587.622402 10.6936502 587.622402 10.4450562L587.622402 9.70118673 587.622402 7.30607987 587.622402 6.34899325C587.622402 6.02964567 587.700804 5.76384139 587.858566 5.5506243 588.016327 5.30394263 588.310816 5.12514623 588.744899 5.01901575 588.823301 4.98459505 588.912222 4.97503375 589.011659 4.99224409 589.109184 5.01041057 589.198105 5.00084927 589.277463 4.96547244zM635.506946 3.36978628L637.635292 3.36978628C637.831299 3.36978628 638.037823 3.3611811 638.255821 3.34301462 638.471907 3.32580427 638.678431 3.33440945 638.875394 3.36978628L639.112514 3.36978628C639.349634 3.44053993 639.555202 3.51129359 639.733043 3.58300337 639.909927 3.65375703 640.038048 3.77805399 640.117407 3.95493813 640.19581 4.09740157 640.215889 4.24751406 640.176687 4.40718785 640.137486 4.56686164 640.097328 4.71793026 640.059083 4.85943757 639.978768 5.10707537 639.890804 5.34706412 639.792323 5.57749156 639.693841 5.80887514 639.585799 6.04790776 639.467238 6.29650169 639.38788 6.50876265 639.309477 6.71337458 639.231074 6.90746907 639.151715 7.10251969 639.072357 7.30617548 638.993954 7.51939258 638.639229 8.33592801 638.304584 9.14194601 637.990017 9.94031496 637.673538 10.7386839 637.318813 11.545658 636.924888 12.3612373 636.609364 13.106063 636.31392 13.8508886 636.038555 14.5957143 635.763189 15.3414961 635.447666 16.0853656 635.091985 16.8301912 635.012627 16.9726547 634.96482 17.1055568 634.944741 17.2288976 634.924663 17.3541507 634.8759 17.4870529 634.797497 17.6285602 634.481018 18.3026322 634.206609 18.9671429 633.969488 19.6230484 633.733324 20.2808661 633.456046 20.9453768 633.141479 21.6184927 632.825956 22.2571879 632.550591 22.9216985 632.314426 23.613937 632.077306 24.3052193 631.80194 24.9888526 631.486417 25.6619685 630.69761 27.3648369 629.969038 29.0858718 629.299747 30.8231609 628.629499 32.5614061 627.899972 34.2814848 627.11212 35.9833971 626.757396 36.7645557 626.432312 37.5447582 626.136867 38.3249606 625.841423 39.1051631 625.535461 39.8853656 625.219938 40.6665242 625.022019 41.0566254 624.854696 41.4467267 624.71797 41.8358718 624.579331 42.2269291 624.313526 42.5281102 623.919601 42.7413273 623.604078 42.9172553 623.150872 43.0071316 622.559983 43.0071316L620.845641 43.0071316 619.751828 43.0071316C619.377025 43.0071316 619.05194 42.9535883 618.776575 42.8474578 618.540411 42.7413273 618.382649 42.5902587 618.304246 42.394252 618.224888 42.1992013 618.204809 41.9878965 618.24401 41.7565129 618.283211 41.5260855 618.353009 41.295658 618.45149 41.0652306 618.549972 40.8348031 618.637936 40.6311474 618.717295 40.4533071 619.151378 39.5306412 619.545304 38.5821597 619.900028 37.6069066 620.254753 36.6316535 620.647722 35.6831721 621.081805 34.7605062 621.200366 34.5472891 621.289286 34.3264229 621.34761 34.0950394 621.407846 33.8655681 621.49581 33.6427897 621.61437 33.4295726 621.889736 32.8281665 622.136417 32.2152868 622.353459 31.5947582 622.569544 30.9742295 622.835349 30.3441395 623.150872 29.7054443 623.347835 29.2445894 623.535236 28.7837345 623.713076 28.3228796 623.890917 27.8620247 624.076406 27.4011699 624.274325 26.9384027 625.062177 25.2020697 625.791704 23.445658 626.461952 21.672036 627.131243 19.8984139 627.859814 18.1611249 628.648622 16.4573003 628.767182 16.2106187 628.856102 15.9792351 628.914426 15.766018 628.974663 15.5528009 629.062627 15.3414961 629.181187 15.128279 629.417351 14.5957143 629.643954 14.0459393 629.860996 13.4779978 630.077081 12.9110124 630.30464 12.3612373 630.540804 11.8296288 630.659364 11.5810349 630.767407 11.3324409 630.865889 11.083847 630.963414 10.8371654 631.072413 10.5876153 631.190973 10.3390214 631.50554 9.63052868 631.791423 8.92872891 632.048622 8.2384027 632.303909 7.54616423 632.588836 6.84627672 632.905315 6.1368279 633.101322 5.74577053 633.289679 5.30308211 633.466564 4.80589426 633.644404 4.30966254 633.910208 3.93772778 634.264933 3.68913386 634.383493 3.58300337 634.639736 3.49408324 635.033661 3.42332958 635.112064 3.38795276 635.190467 3.37934758 635.269826 3.3956018 635.348228 3.41472441 635.426631 3.4051631 635.506946 3.36978628M656.787447 4.22035996C659.939809 4.15056243 662.590202 4.66496063 664.738628 5.76355456 666.887053 6.86406074 668.551676 8.26383577 669.733453 9.96670416 669.930416 10.251631 670.088178 10.5346457 670.206738 10.8176603 670.325298 11.1025872 670.462981 11.3856018 670.620742 11.6695726 670.856907 12.2375141 671.043352 12.8848144 671.182947 13.6114736 671.319674 14.3390889 671.398076 15.0925197 671.419111 15.8727222 671.438234 16.6529246 671.388515 17.4159168 671.270911 18.1607424 671.152351 18.9046119 670.954432 19.5624297 670.679066 20.1294151 670.285141 21.052081 669.772655 21.9374578 669.142565 22.7893701 668.354713 23.8181665 667.447345 24.7044994 666.42333 25.4493251 665.398358 26.1941507 664.334184 26.921766 663.23081 27.6302587 662.915287 27.8090551 662.590202 28.0031496 662.255557 28.2163667 661.919955 28.4286277 661.594871 28.6236783 661.280304 28.8015186 660.413093 29.2987064 659.575523 29.7949381 658.767593 30.2911699 657.959663 30.7883577 657.16225 31.3017998 656.373442 31.8343645 656.09712 32.0112486 655.851395 32.1890889 655.634353 32.365973 655.417312 32.5438133 655.191665 32.7216535 654.954544 32.8975816 654.915343 32.9339145 654.885703 32.9692913 654.865624 33.003712 654.846502 33.0410011 654.796783 33.076378 654.71838 33.1107987 654.482216 33.2886389 654.235534 33.4922947 653.979291 33.721766 653.723048 33.9541057 653.515568 34.2103487 653.358763 34.4943195 653.318605 34.5650731 653.269843 34.6453881 653.211519 34.7333521 653.151282 34.8222722 653.141721 34.9561305 653.181879 35.1320585 653.260281 35.3108549 653.397964 35.4341957 653.594927 35.5049494 653.79189 35.5766592 653.988853 35.6302025 654.185816 35.6646232L654.482216 35.6646232C654.679179 35.736333 654.904826 35.7621485 655.162025 35.7449381 655.417312 35.7267717 655.643915 35.7172103 655.841834 35.7172103L658.501789 35.7172103 667.487503 35.7172103C668.03919 35.7172103 668.708481 35.7095613 669.497289 35.6913948 670.285141 35.6732283 670.836828 35.7707537 671.152351 35.9839708 671.349314 36.1254781 671.486997 36.3386952 671.566355 36.6226659 671.644758 36.9066367 671.694477 37.2336333 671.7136 37.6065242 671.733678 37.9794151 671.733678 38.3513498 671.7136 38.7242407 671.694477 39.0971316 671.684916 39.4422947 671.684916 39.7616423 671.684916 39.9748594 671.694477 40.2052868 671.7136 40.4538808 671.733678 40.7015186 671.704994 40.9147357 671.625636 41.0916198 671.586434 41.4473003 671.388515 41.7121485 671.033791 41.8890326 670.797627 42.0314961 670.492621 42.1022497 670.117818 42.1022497L669.024961 42.1022497 664.945152 42.1022497 649.04279 42.1022497 644.491609 42.1022497C644.136884 42.1022497 643.75252 42.111811 643.339471 42.1290214 642.924511 42.1471879 642.579348 42.1022497 642.304938 41.9961192 641.9091 41.818279 641.663375 41.5352643 641.564893 41.144207 641.466412 40.7550619 641.475973 40.3295838 641.594533 39.8677728 641.594533 39.7616423 641.604094 39.6469066 641.624173 39.5216535 641.643296 39.3983127 641.653813 39.2826209 641.653813 39.1764904 641.732216 38.8925197 641.810619 38.5903825 641.889978 38.2710349 641.96838 37.9516873 642.047739 37.6514623 642.127098 37.3674916 642.717987 35.8070866 643.465681 34.4407762 644.373048 33.2704724 645.357863 32.0294151 646.521474 30.9212598 647.861012 29.9450506 649.199595 28.9697975 650.560169 28.0222722 651.939865 27.0986502 653.04324 26.4255343 654.137053 25.7600675 655.220349 25.104162 656.304601 24.4473003 657.398414 23.7646232 658.501789 23.0551744 658.777154 22.8782902 659.023836 22.7004499 659.240877 22.5235658 659.456963 22.3457255 659.683566 22.1688414 659.920686 21.9910011 660.472373 21.601856 660.984859 21.1314398 661.458144 20.5807087 661.930472 20.0318898 662.305276 19.4562992 662.581597 18.8520247 662.66 18.6751406 662.718324 18.5059055 662.758481 18.3462317 662.796727 18.1865579 662.856007 18.0192351 662.936322 17.8413948 663.014724 17.5574241 663.073048 17.1673228 663.113206 16.670135 663.151451 16.1748594 663.132328 15.7493813 663.053926 15.3937008 663.014724 15.2168166 662.974567 15.021766 662.936322 14.8085489 662.896164 14.596288 662.836884 14.4002812 662.758481 14.2233971 662.205838 12.9460067 661.358706 12.0070866 660.21613 11.4037683 659.979966 11.262261 659.722767 11.1465692 659.447402 11.057649 659.17108 10.969685 658.876592 10.8903262 658.560112 10.8176603 658.36315 10.7469066 658.156625 10.7210911 657.94054 10.7383015 657.723498 10.7564679 657.496895 10.7306524 657.260731 10.6579865 656.984409 10.5872328 656.668886 10.5786277 656.315118 10.632171 655.960394 10.6857143 655.663993 10.7469066 655.427829 10.8176603 653.891327 11.2440945 652.746839 12.0070866 651.999145 13.1056805 651.644421 13.6028684 651.368099 14.1258718 651.171136 14.6756468 650.974173 15.226378 650.77721 15.8191789 650.580247 16.457874 650.462643 16.9187289 650.392846 17.388189 650.373723 17.8672103 650.353645 18.3462317 650.127042 18.7105174 649.693915 18.9581552 649.495996 19.0642857 649.230191 19.1273903 648.895546 19.1446007 648.5609 19.1627672 648.215737 19.1713723 647.861012 19.1713723L644.846333 19.1713723C644.41225 19.1713723 644.027885 19.1627672 643.69324 19.1446007 643.357638 19.1273903 643.072711 19.029865 642.835591 18.8520247 642.638628 18.7449381 642.500945 18.5508436 642.422542 18.2659168 642.343183 17.9838583 642.343183 17.7170979 642.422542 17.4685039L642.422542 16.9894826C642.461744 16.7772216 642.490427 16.5553993 642.510506 16.3249719 642.530585 16.0945444 642.560225 15.8727222 642.599426 15.6595051 642.717987 15.1986502 642.816468 14.7473566 642.895827 14.3027559 642.974229 13.8600675 643.110956 13.4431946 643.308875 13.0521372 643.426479 12.7327897 643.545039 12.4325647 643.6636 12.1485939 643.781204 11.8646232 643.899764 11.5806524 644.01928 11.2966817 644.136884 11.0844207 644.274567 10.8625984 644.432328 10.632171 644.589134 10.4017435 644.746895 10.1789651 644.904657 9.96670416 645.692508 8.79640045 646.62856 7.82975253 647.713768 7.06771654 648.797064 6.30568054 650.086884 5.63925759 651.586097 5.07227222 652.136828 4.89538808 652.688515 4.76152981 653.240202 4.6735658 653.79189 4.58464567 654.363656 4.46991001 654.954544 4.32649044 655.151507 4.32649044 655.34847 4.31979753 655.546389 4.30067492 655.742396 4.28250844 655.939359 4.25669291 656.137278 4.22035996 656.215681 4.22035996 656.323723 4.22992126 656.462362 4.24713161 656.600045 4.26625422 656.708088 4.25669291 656.787447 4.22035996M691.074573 5.01872891L693.320523 5.01872891C693.517486 5.01872891 693.714449 5.01012373 693.912368 4.99291339 694.108375 4.97474691 694.305337 5.00056243 694.503256 5.07227222L694.798701 5.07227222C694.995664 5.10764904 695.183065 5.15258718 695.359949 5.20517435 695.53779 5.25871766 695.664955 5.33807649 695.744314 5.44420697 695.941277 5.6928009 696.049319 6.02170979 696.069398 6.42902137 696.088521 6.83633296 696.099038 7.27137233 696.099038 7.73222722L696.099038 12.6802025 696.099038 32.1001687 696.099038 38.8571429C696.099038 39.3179978 696.1086 39.8237908 696.128678 40.3735658 696.148757 40.924297 696.059837 41.3402137 695.862874 41.6232283 695.705112 41.8020247 695.516755 41.9167604 695.300669 41.9693476 695.083628 42.0228909 694.817823 42.0850394 694.503256 42.155793L693.025079 42.155793 690.659612 42.155793C690.462649 42.155793 690.256125 42.1643982 690.040039 42.1816085 689.822042 42.199775 689.616474 42.1902137 689.419511 42.155793L689.12311 42.155793C688.926147 42.0850394 688.739702 42.0228909 688.561862 41.9693476 688.384978 41.9167604 688.236777 41.818279 688.118217 41.6767717 687.920298 41.4635546 687.822773 41.1805399 687.822773 40.8248594L687.822773 39.708099 687.822773 35.7172103 687.822773 24.3851519 687.822773 20.9803712C687.822773 20.6964004 687.831378 20.3684477 687.852413 19.9955568 687.871535 19.6226659 687.841895 19.3128796 687.763493 19.0642857 687.565574 18.4628796 687.191727 18.1339708 686.640039 18.0804274 686.088352 18.0268841 685.418105 18.0010686 684.631209 18.0010686L680.374516 18.0010686C679.820917 18.0010686 679.290264 17.9838583 678.778735 17.9475253 678.266249 17.9121485 677.891445 17.7524747 677.655281 17.4685039 677.575922 17.3269966 677.536721 17.1940945 677.536721 17.0697975 677.536721 16.9464567 677.515686 16.7953881 677.477441 16.6175478 677.398082 16.4397075 677.368442 16.2542182 677.389477 16.0591676 677.4086 15.864117 677.418161 15.6776715 677.418161 15.4998313L677.418161 14.0637233C677.418161 13.5665354 677.515686 13.1773903 677.713605 12.8924634 677.910568 12.6457818 678.195495 12.5033183 678.571254 12.4679415 678.945101 12.4325647 679.329466 12.3790214 679.724348 12.3082677L680.315236 12.3082677C680.5514 12.2375141 680.797126 12.1935321 681.054325 12.1744094 681.309612 12.1571991 681.556294 12.1304274 681.793414 12.0950506 682.265742 11.9535433 682.709387 11.8292463 683.123391 11.7231159 683.53644 11.6160292 683.960006 11.4745219 684.394089 11.2966817 685.300501 10.9429134 686.078791 10.4820585 686.72896 9.91316085 687.380084 9.34617548 687.941333 8.70748031 688.414618 7.9980315 688.650782 7.60888639 688.865911 7.12030371 689.06383 6.53515186 689.261749 5.95 689.537115 5.55129359 689.891839 5.33807649 690.088802 5.19752531 690.305844 5.10764904 690.542008 5.07227222 690.620411 5.03785152 690.709331 5.02829021 690.808768 5.04550056 690.906294 5.06366704 690.995214 5.05410574 691.074573 5.01872891M726.189038 24.6511474C726.386001 24.7926547 726.52464 25.0154331 726.603999 25.315658 726.682402 25.6187514 726.730208 25.9543532 726.751243 26.3272441 726.770366 26.700135 726.770366 27.081631 726.751243 27.4707762 726.730208 27.8618335 726.721603 28.2165579 726.721603 28.5349494L726.721603 29.36009C726.721603 29.6258943 726.682402 29.8649269 726.603999 30.078144 726.40608 30.4692013 726.090557 30.6900675 725.65743 30.7436108 725.223346 30.7971541 724.711817 30.8229696 724.120928 30.8229696L713.065191 30.8229696C712.552705 30.8229696 711.942694 30.8325309 711.232289 30.8497413 710.523796 30.8679078 710.01131 30.7885489 709.695787 30.6097525 709.459623 30.4692013 709.291344 30.2473791 709.193819 29.9452418 709.094381 29.6450169 709.036057 29.3065467 709.015979 28.9336558 708.9959 28.561721 708.9959 28.1725759 709.015979 27.7643082 709.036057 27.3560405 709.045619 26.9917548 709.045619 26.6724072 709.045619 26.3540157 709.05518 26.0346682 709.076215 25.7153206 709.094381 25.395973 709.163223 25.1492913 709.281783 24.9704949 709.438588 24.7926547 709.695787 24.633937 710.050512 24.4914736 710.128915 24.4914736 710.217835 24.4828684 710.316316 24.465658 710.414798 24.4474916 710.503718 24.4379303 710.583076 24.4379303L724.474696 24.4379303C724.829421 24.4379303 725.154505 24.4474916 725.450906 24.465658 725.74635 24.4828684 725.992075 24.5450169 726.189038 24.6511474M733.874511 4.96547244L753.501001 4.96547244 757.876254 4.96547244C758.348583 4.96547244 758.78171 4.98459505 759.176592 5.01901575 759.569561 5.05439258 759.865962 5.21406637 760.062925 5.49803712 760.21973 5.67587739 760.307694 5.91491001 760.328729 6.21609111 760.347852 6.51727222 760.358369 6.82801462 760.358369 7.14640607L760.358369 9.32829584 760.358369 10.3389258C760.358369 10.6582733 760.300045 10.9604106 760.181485 11.2434252 760.062925 11.4566423 759.914724 11.6612542 759.73784 11.8553487 759.56 12.0503993 759.372598 12.2368448 759.176592 12.414685 759.017874 12.5561924 758.880191 12.663279 758.761631 12.7330765 758.682272 12.8755399 758.575186 12.9988808 758.436547 13.1059674 758.298864 13.2120979 758.170742 13.3182283 758.053138 13.425315 757.816018 13.7102418 757.558819 13.9923003 757.284409 14.2762711 757.008088 14.5602418 756.752801 14.8442126 756.516637 15.1281834 754.544139 17.6112542 752.850832 20.3065861 751.431935 23.215135 750.95865 24.2085546 750.535084 25.2277897 750.160281 26.2737964 749.786434 27.3207593 749.401114 28.3753712 749.008144 29.4405006 748.810225 29.9367323 748.662981 30.4157537 748.564499 30.8766085 748.466018 31.3374634 748.357019 31.7983183 748.239415 32.2601294 748.041496 32.8280709 747.904769 33.3950562 747.826367 33.9620416 747.747008 34.5299831 747.628448 35.115135 747.471642 35.7174972 747.431485 35.8962936 747.411406 36.0636164 747.411406 36.2232902 747.411406 36.382964 747.372205 36.551243 747.293802 36.7290832 747.253645 37.1191845 747.214443 37.4825141 747.175242 37.819072 747.13604 38.1575422 747.07676 38.5208718 746.998358 38.9100169 746.959156 39.0878571 746.948639 39.2475309 746.968718 39.3890382 746.98784 39.5305456 746.978279 39.6902193 746.939078 39.8680596L746.939078 40.5067548C746.820517 40.896856 746.712475 41.2162036 746.613993 41.4638414 746.515512 41.7124353 746.248751 41.9084421 745.815624 42.0489933 745.57946 42.120703 745.303138 42.1474747 744.988571 42.1293082 744.672092 42.1120979 744.357525 42.1025366 744.042958 42.1025366L740.377154 42.1025366C739.943071 42.1025366 739.539584 42.0843701 739.164781 42.0489933 738.790934 42.0145726 738.505051 41.8548988 738.308088 41.5699719 738.190484 41.3940439 738.120686 41.1100731 738.101564 40.7199719 738.080529 40.3289145 738.111125 39.9923566 738.190484 39.7083858 738.268886 39.4951687 738.308088 39.2647413 738.308088 39.0161474 738.308088 38.7685096 738.347289 38.5208718 738.426648 38.2713217 738.583453 37.7397132 738.692452 37.1994994 738.751732 36.6487683 738.811012 36.0999494 738.938178 35.5578234 739.136097 35.0262148 739.411462 34.1398819 739.668661 33.2525928 739.904826 32.3653037 740.14099 31.4789708 740.416355 30.6289708 740.731879 29.8114792 740.810281 29.6355512 740.879123 29.4481496 740.939359 29.253099 740.997683 29.0590045 741.065568 28.8725591 741.144927 28.6947188 741.461406 27.98527 741.775973 27.2949438 742.091496 26.6199156 742.407019 25.9458436 742.721586 25.2555174 743.037109 24.5451125 743.588796 23.3748088 744.210281 22.2389258 744.899651 21.1393757 745.589021 20.0407818 746.308031 18.9584421 747.057638 17.8942688 747.529966 17.2555737 748.003251 16.6178346 748.475579 15.9791395 748.94982 15.3414004 749.441271 14.7027053 749.953757 14.0640101 750.03216 13.9225028 750.21 13.7006805 750.486322 13.3985433 750.761687 13.0973622 750.860169 12.8229528 750.781766 12.5734027 750.702407 12.3257649 750.564724 12.1746963 750.367762 12.121153 750.169843 12.0685658 749.933678 12.0064173 749.658313 11.9356637L749.126704 11.9356637C748.967987 11.86491 748.781541 11.8381384 748.564499 11.8553487 748.348414 11.8744713 748.140934 11.8821204 747.943971 11.8821204L745.63874 11.8821204 736.593746 11.8821204C736.042058 11.8821204 735.36225 11.8916817 734.554319 11.908892 733.745433 11.9270585 733.184184 11.8467435 732.869618 11.6698594 732.593296 11.527396 732.416412 11.3323453 732.338009 11.0837514 732.25865 10.9068673 732.219449 10.6936502 732.219449 10.4450562L732.219449 9.70118673 732.219449 7.30607987 732.219449 6.34899325C732.219449 6.02964567 732.297852 5.76384139 732.455613 5.5506243 732.613375 5.30394263 732.907863 5.12514623 733.341946 5.01901575 733.420349 4.98459505 733.509269 4.97503375 733.608706 4.99224409 733.706232 5.01041057 733.795152 5.00084927 733.874511 4.96547244M780.103993 3.36978628L782.23234 3.36978628C782.428346 3.36978628 782.634871 3.3611811 782.852868 3.34301462 783.068954 3.32580427 783.275478 3.33440945 783.472441 3.36978628L783.709561 3.36978628C783.946682 3.44053993 784.15225 3.51129359 784.33009 3.58300337 784.506974 3.65375703 784.635096 3.77805399 784.714454 3.95493813 784.792857 4.09740157 784.812936 4.24751406 784.773735 4.40718785 784.734533 4.56686164 784.694376 4.71793026 784.65613 4.85943757 784.575816 5.10707537 784.487852 5.34706412 784.38937 5.57749156 784.290889 5.80887514 784.182846 6.04790776 784.064286 6.29650169 783.984927 6.50876265 783.906524 6.71337458 783.828121 6.90746907 783.748763 7.10251969 783.669404 7.30617548 783.591001 7.51939258 783.236277 8.33592801 782.901631 9.14194601 782.587064 9.94031496 782.270585 10.7386839 781.915861 11.545658 781.521935 12.3612373 781.206412 13.106063 780.910967 13.8508886 780.635602 14.5957143 780.360236 15.3414961 780.044713 16.0853656 779.689033 16.8301912 779.609674 16.9726547 779.561867 17.1055568 779.541789 17.2288976 779.52171 17.3541507 779.472947 17.4870529 779.394544 17.6285602 779.078065 18.3026322 778.803656 18.9671429 778.566535 19.6230484 778.330371 20.2808661 778.053093 20.9453768 777.738526 21.6184927 777.423003 22.2571879 777.147638 22.9216985 776.911474 23.613937 776.674353 24.3052193 776.398988 24.9888526 776.083465 25.6619685 775.294657 27.3648369 774.566085 29.0858718 773.896794 30.8231609 773.226547 32.5614061 772.497019 34.2814848 771.709168 35.9833971 771.354443 36.7645557 771.029359 37.5447582 770.733915 38.3249606 770.43847 39.1051631 770.132508 39.8853656 769.816985 40.6665242 769.619066 41.0566254 769.451744 41.4467267 769.315017 41.8358718 769.176378 42.2269291 768.910574 42.5281102 768.516648 42.7413273 768.201125 42.9172553 767.747919 43.0071316 767.15703 43.0071316L765.442688 43.0071316 764.348875 43.0071316C763.974072 43.0071316 763.648988 42.9535883 763.373622 42.8474578 763.137458 42.7413273 762.979696 42.5902587 762.901294 42.394252 762.821935 42.1992013 762.801856 41.9878965 762.841057 41.7565129 762.880259 41.5260855 762.950056 41.295658 763.048538 41.0652306 763.147019 40.8348031 763.234983 40.6311474 763.314342 40.4533071 763.748425 39.5306412 764.142351 38.5821597 764.497075 37.6069066 764.8518 36.6316535 765.244769 35.6831721 765.678853 34.7605062 765.797413 34.5472891 765.886333 34.3264229 765.944657 34.0950394 766.004893 33.8655681 766.092857 33.6427897 766.211417 33.4295726 766.486783 32.8281665 766.733465 32.2152868 766.950506 31.5947582 767.166592 30.9742295 767.432396 30.3441395 767.747919 29.7054443 767.944882 29.2445894 768.132283 28.7837345 768.310124 28.3228796 768.487964 27.8620247 768.673453 27.4011699 768.871372 26.9384027 769.659224 25.2020697 770.388751 23.445658 771.058999 21.672036 771.72829 19.8984139 772.456862 18.1611249 773.245669 16.4573003 773.364229 16.2106187 773.45315 15.9792351 773.511474 15.766018 773.57171 15.5528009 773.659674 15.3414961 773.778234 15.128279 774.014398 14.5957143 774.241001 14.0459393 774.458043 13.4779978 774.674128 12.9110124 774.901687 12.3612373 775.137852 11.8296288 775.256412 11.5810349 775.364454 11.3324409 775.462936 11.083847 775.560461 10.8371654 775.66946 10.5876153 775.78802 10.3390214 776.102587 9.63052868 776.38847 8.92872891 776.645669 8.2384027 776.900956 7.54616423 777.185883 6.84627672 777.502362 6.1368279 777.698369 5.74577053 777.886727 5.30308211 778.063611 4.80589426 778.241451 4.30966254 778.507255 3.93772778 778.86198 3.68913386 778.98054 3.58300337 779.236783 3.49408324 779.630709 3.42332958 779.709111 3.38795276 779.787514 3.37934758 779.866873 3.3956018 779.945276 3.41472441 780.023678 3.4051631 780.103993 3.36978628M801.384398 4.22035996C804.53676 4.15056243 807.187154 4.66496063 809.335579 5.76355456 811.484004 6.86406074 813.148628 8.26383577 814.330405 9.96670416 814.527368 10.251631 814.685129 10.5346457 814.80369 10.8176603 814.92225 11.1025872 815.059933 11.3856018 815.217694 11.6695726 815.453858 12.2375141 815.640304 12.8848144 815.779899 13.6114736 815.916625 14.3390889 815.995028 15.0925197 816.016063 15.8727222 816.035186 16.6529246 815.985467 17.4159168 815.867863 18.1607424 815.749303 18.9046119 815.551384 19.5624297 815.276018 20.1294151 814.882092 21.052081 814.369606 21.9374578 813.739516 22.7893701 812.951665 23.8181665 812.044297 24.7044994 811.020281 25.4493251 809.995309 26.1941507 808.931136 26.921766 807.827762 27.6302587 807.512238 27.8090551 807.187154 28.0031496 806.852508 28.2163667 806.516907 28.4286277 806.191822 28.6236783 805.877255 28.8015186 805.010045 29.2987064 804.172475 29.7949381 803.364544 30.2911699 802.556614 30.7883577 801.759201 31.3017998 800.970394 31.8343645 800.694072 32.0112486 800.448346 32.1890889 800.231305 32.365973 800.014263 32.5438133 799.788616 32.7216535 799.551496 32.8975816 799.512295 32.9339145 799.482655 32.9692913 799.462576 33.003712 799.443453 33.0410011 799.393735 33.076378 799.315332 33.1107987 799.079168 33.2886389 798.832486 33.4922947 798.576243 33.721766 798.32 33.9541057 798.11252 34.2103487 797.955714 34.4943195 797.915557 34.5650731 797.866794 34.6453881 797.80847 34.7333521 797.748234 34.8222722 797.738673 34.9561305 797.77883 35.1320585 797.857233 35.3108549 797.994916 35.4341957 798.191879 35.5049494 798.388841 35.5766592 798.585804 35.6302025 798.782767 35.6646232L799.079168 35.6646232C799.27613 35.736333 799.501777 35.7621485 799.758976 35.7449381 800.014263 35.7267717 800.240866 35.7172103 800.438785 35.7172103L803.09874 35.7172103 812.084454 35.7172103C812.636142 35.7172103 813.305433 35.7095613 814.094241 35.6913948 814.882092 35.6732283 815.43378 35.7707537 815.749303 35.9839708 815.946265 36.1254781 816.083948 36.3386952 816.163307 36.6226659 816.24171 36.9066367 816.291429 37.2336333 816.310551 37.6065242 816.33063 37.9794151 816.33063 38.3513498 816.310551 38.7242407 816.291429 39.0971316 816.281867 39.4422947 816.281867 39.7616423 816.281867 39.9748594 816.291429 40.2052868 816.310551 40.4538808 816.33063 40.7015186 816.301946 40.9147357 816.222587 41.0916198 816.183386 41.4473003 815.985467 41.7121485 815.630742 41.8890326 815.394578 42.0314961 815.089573 42.1022497 814.714769 42.1022497L813.621912 42.1022497 809.542103 42.1022497 793.639741 42.1022497 789.08856 42.1022497C788.733836 42.1022497 788.349471 42.111811 787.936423 42.1290214 787.521462 42.1471879 787.176299 42.1022497 786.90189 41.9961192 786.506052 41.818279 786.260326 41.5352643 786.161845 41.144207 786.063363 40.7550619 786.072925 40.3295838 786.191485 39.8677728 786.191485 39.7616423 786.201046 39.6469066 786.221125 39.5216535 786.240247 39.3983127 786.250765 39.2826209 786.250765 39.1764904 786.329168 38.8925197 786.40757 38.5903825 786.486929 38.2710349 786.565332 37.9516873 786.644691 37.6514623 786.724049 37.3674916 787.314938 35.8070866 788.062632 34.4407762 788.97 33.2704724 789.954814 32.0294151 791.118425 30.9212598 792.457964 29.9450506 793.796547 28.9697975 795.15712 28.0222722 796.536817 27.0986502 797.640191 26.4255343 798.734004 25.7600675 799.8173 25.104162 800.901552 24.4473003 801.995366 23.7646232 803.09874 23.0551744 803.374106 22.8782902 803.620787 22.7004499 803.837829 22.5235658 804.053915 22.3457255 804.280517 22.1688414 804.517638 21.9910011 805.069325 21.601856 805.581811 21.1314398 806.055096 20.5807087 806.527424 20.0318898 806.902227 19.4562992 807.178549 18.8520247 807.256952 18.6751406 807.315276 18.5059055 807.355433 18.3462317 807.393678 18.1865579 807.452958 18.0192351 807.533273 17.8413948 807.611676 17.5574241 807.67 17.1673228 807.710157 16.670135 807.748403 16.1748594 807.72928 15.7493813 807.650877 15.3937008 807.611676 15.2168166 807.571519 15.021766 807.533273 14.8085489 807.493116 14.596288 807.433836 14.4002812 807.355433 14.2233971 806.80279 12.9460067 805.955658 12.0070866 804.813082 11.4037683 804.576918 11.262261 804.319719 11.1465692 804.044353 11.057649 803.768031 10.969685 803.473543 10.8903262 803.157064 10.8176603 802.960101 10.7469066 802.753577 10.7210911 802.537492 10.7383015 802.32045 10.7564679 802.093847 10.7306524 801.857683 10.6579865 801.581361 10.5872328 801.265838 10.5786277 800.91207 10.632171 800.557345 10.6857143 800.260945 10.7469066 800.024781 10.8176603 798.488279 11.2440945 797.343791 12.0070866 796.596097 13.1056805 796.241372 13.6028684 795.965051 14.1258718 795.768088 14.6756468 795.571125 15.226378 795.374162 15.8191789 795.177199 16.457874 795.059595 16.9187289 794.989798 17.388189 794.970675 17.8672103 794.950596 18.3462317 794.723993 18.7105174 794.290866 18.9581552 794.092947 19.0642857 793.827143 19.1273903 793.492497 19.1446007 793.157852 19.1627672 792.812688 19.1713723 792.457964 19.1713723L789.443285 19.1713723C789.009201 19.1713723 788.624837 19.1627672 788.290191 19.1446007 787.954589 19.1273903 787.669663 19.029865 787.432542 18.8520247 787.235579 18.7449381 787.097897 18.5508436 787.019494 18.2659168 786.940135 17.9838583 786.940135 17.7170979 787.019494 17.4685039L787.019494 16.9894826C787.058695 16.7772216 787.087379 16.5553993 787.107458 16.3249719 787.127537 16.0945444 787.157177 15.8727222 787.196378 15.6595051 787.314938 15.1986502 787.41342 14.7473566 787.492778 14.3027559 787.571181 13.8600675 787.707908 13.4431946 787.905827 13.0521372 788.023431 12.7327897 788.141991 12.4325647 788.260551 12.1485939 788.378155 11.8646232 788.496715 11.5806524 788.616232 11.2966817 788.733836 11.0844207 788.871519 10.8625984 789.02928 10.632171 789.186085 10.4017435 789.343847 10.1789651 789.501609 9.96670416 790.28946 8.79640045 791.225512 7.82975253 792.31072 7.06771654 793.394016 6.30568054 794.683836 5.63925759 796.183048 5.07227222 796.73378 4.89538808 797.285467 4.76152981 797.837154 4.6735658 798.388841 4.58464567 798.960607 4.46991001 799.551496 4.32649044 799.748459 4.32649044 799.945422 4.31979753 800.143341 4.30067492 800.339348 4.28250844 800.53631 4.25669291 800.734229 4.22035996 800.812632 4.22035996 800.920675 4.22992126 801.059314 4.24713161 801.196997 4.26625422 801.305039 4.25669291 801.384398 4.22035996"/>
    <g transform="translate(818.448 3.806)">
      <mask id="date-b" fill="#fff">
        <use xlink:href="#date-a"/>
      </mask>
      <path fill="#231814" d="M15.0362036,0.414578178 C17.0067885,0.344780652 18.7402531,0.530269966 20.2385096,0.973914511 C21.7358099,1.41755906 23.0763048,1.97593926 24.2590382,2.65001125 C24.4952025,2.79151856 24.7208493,2.94258718 24.9378909,3.10226097 C25.1539764,3.26193476 25.3815354,3.43021372 25.6176997,3.60709786 C26.7612317,4.35192351 27.6466085,5.38071991 28.2786108,6.69253093 C28.3570135,6.90574803 28.4554949,7.11896513 28.5740551,7.3312261 C28.6916592,7.54444319 28.7901406,7.77487064 28.8694994,8.02346457 C29.1056637,8.66215973 29.2433465,9.45957255 29.2825478,10.4176153 C29.3217492,11.375658 29.2433465,12.2094038 29.0463836,12.9178965 C28.7308605,13.9466929 28.3178121,14.8167717 27.8043701,15.5252643 C27.686766,15.6667717 27.5682058,15.7910686 27.4506018,15.8971991 C27.3320416,16.0042857 27.2134814,16.1104162 27.0958774,16.2165467 C26.9381159,16.4297638 26.8195557,16.5712711 26.741153,16.6429809 C26.1502643,16.9977053 25.6559449,17.3524297 25.2629753,17.706198 C25.1836164,17.7779078 25.1052137,17.8572666 25.026811,17.9461867 C24.9474522,18.0351069 24.9283296,18.1507987 24.9684871,18.2913498 C24.9684871,18.4701462 25.1252925,18.6642407 25.4408155,18.8774578 C25.7161811,19.054342 25.9925028,19.2140157 26.2678684,19.3564792 C26.543234,19.4979865 26.8396344,19.6576603 27.1551575,19.8355006 C28.4937402,20.7218335 29.4995894,21.9275141 30.1698369,23.4525422 C30.3266423,23.7718898 30.4452025,24.118009 30.5245613,24.4899438 C30.602964,24.8618785 30.6813667,25.2443307 30.7607255,25.6344319 C30.8391282,25.8113161 30.8496457,26.0063667 30.7913217,26.2186277 C30.7310855,26.4318448 30.7406468,26.6450619 30.8200056,26.8573228 C30.859207,26.9997863 30.8697244,27.195793 30.8496457,27.4434308 C30.8295669,27.6910686 30.7999269,27.8861192 30.7607255,28.0285827 C30.7607255,28.3479303 30.7406468,28.5783577 30.7024016,28.719865 C30.6230427,29.0038358 30.5542013,29.2878065 30.4949213,29.5708211 C30.4356412,29.855748 30.3667998,30.1387627 30.2883971,30.4227334 C29.5387908,32.4439933 28.485135,34.0225647 27.1255174,35.1574916 C25.7658999,36.2924184 24.0219179,37.2504612 21.8935714,38.0306637 C21.4594882,38.172171 21.0263611,38.2878628 20.593234,38.3758268 C20.1581946,38.4647469 19.706901,38.5622722 19.2336164,38.6693588 C19.0366535,38.7401125 18.8291732,38.7754893 18.6121316,38.7754893 C18.3960461,38.7754893 18.1885658,38.80991 17.9925591,38.8816198 C17.6760799,38.8816198 17.3710742,38.890225 17.0756299,38.9083915 C16.7801856,38.9256018 16.4742238,38.9523735 16.1596569,38.9887064 C16.0018954,39.0231271 15.7743363,39.0326884 15.4798481,39.0145219 C15.1834477,38.9973116 14.9568448,38.9695838 14.8000394,38.9351631 L13.7941901,38.9351631 C13.6765861,38.8997863 13.5379471,38.890225 13.3811417,38.9083915 C13.2233802,38.9256018 13.0856974,38.9169966 12.9671372,38.8816198 C12.6516142,38.80991 12.3360911,38.7573228 12.0215242,38.721946 C11.7060011,38.6865692 11.4096007,38.633982 11.1342351,38.5622722 C10.9764736,38.4905624 10.8292295,38.4561417 10.6915467,38.4561417 C10.5529078,38.4561417 10.4257424,38.4379753 10.3071822,38.4025984 C9.87309899,38.2964679 9.46961192,38.1817323 9.09480877,38.0574353 C8.72000562,37.9331384 8.35667604,37.8002362 8.00195163,37.6577728 C6.50273903,37.0554106 5.20240157,36.2484364 4.09998313,35.2378065 C2.99565242,34.2262205 2.10836333,33.0473116 1.43907199,31.6991676 C1.24115298,31.3100225 1.08434758,30.9017548 0.966743532,30.4753206 C0.848183352,30.0498425 0.710500562,29.606198 0.552739033,29.1453431 C0.473380202,28.9684589 0.443740157,28.7820135 0.464775028,28.5869629 C0.482941507,28.3928684 0.454257593,28.2054668 0.375854893,28.0285827 C0.295539933,27.7799888 0.257294713,27.4874128 0.257294713,27.1498988 C0.257294713,26.8133408 0.295539933,26.5207649 0.375854893,26.272171 C0.612019123,25.8113161 1.1445838,25.5722835 1.97163667,25.554117 C2.79868954,25.5359505 3.58654106,25.5283015 4.33614736,25.5283015 C4.61151294,25.5283015 4.90695726,25.5196963 5.22248031,25.5005737 C5.53800337,25.4833633 5.81336895,25.510135 6.05144544,25.5808886 L6.70065804,25.5808886 C7.13378515,25.6525984 7.4301856,25.7396063 7.58794713,25.8466929 C7.90251406,26.0245332 8.08991564,26.2989426 8.14919573,26.6718335 C8.20751969,27.0447244 8.31651856,27.4252643 8.47428009,27.8153656 C8.67124297,28.3125534 8.84812711,28.763847 9.00588864,29.1721147 C9.16269404,29.5803825 9.3998144,29.9790889 9.71629359,30.3691901 C10.4257424,31.3262767 11.5090382,32.0548481 12.9671372,32.5501237 C13.2033015,32.6227897 13.4404218,32.6658155 13.6765861,32.683982 C13.9127503,32.7021485 14.1489145,32.7451744 14.3860349,32.8168841 L14.6814792,32.8168841 C15.0754049,32.8885939 15.5094882,32.9048481 15.9818166,32.8694713 C16.4551012,32.8350506 16.849027,32.7633408 17.1645501,32.6572103 C17.5584758,32.5855006 17.8931215,32.515703 18.1694432,32.4439933 C18.9572947,32.1600225 19.6466648,31.7794826 20.2385096,31.3004612 C20.8303543,30.8214398 21.2816479,30.2276828 21.5981271,29.5172778 C21.7157312,29.3050169 21.8046513,29.0755456 21.8648875,28.8259955 C21.9232115,28.5783577 21.9910967,28.3125534 22.0704556,28.0285827 C22.1488583,27.8507424 22.1985771,27.5667717 22.2186558,27.1766704 C22.2377784,26.7865692 22.2090945,26.4853881 22.1306918,26.272171 C22.1306918,26.2023735 22.1201744,26.1306637 22.1010517,26.0589539 C22.0800169,25.9891564 22.0704556,25.9184027 22.0704556,25.8466929 C22.0312542,25.6698088 21.9910967,25.4833633 21.9528515,25.2883127 C21.912694,25.0942182 21.8543701,24.9068166 21.7759674,24.7299325 C21.3810855,23.9133971 20.8590382,23.2842632 20.2088695,22.8406187 C19.5577447,22.3969741 18.7211305,22.0336445 17.6961586,21.7496738 C17.4198369,21.6789201 17.13491,21.6435433 16.8394657,21.6435433 C16.5430652,21.6435433 16.2380596,21.6091226 15.9234927,21.5374128 C15.8049325,21.5029921 15.676811,21.4838695 15.5381721,21.4838695 L15.2140439,21.4838695 L14.6814792,21.4838695 C14.5638751,21.4494488 14.4347975,21.4398875 14.2980709,21.4570979 C14.1584758,21.4752643 14.0504331,21.4666592 13.9720304,21.4303262 C13.6565073,21.3595726 13.4002643,21.2706524 13.2033015,21.1645219 C13.0063386,21.0583915 12.8676997,20.8987177 12.789297,20.6855006 C12.7099381,20.5095726 12.6621316,20.2963555 12.6420529,20.0468054 C12.6219741,19.7991676 12.6124128,19.5333633 12.6124128,19.2493926 C12.6124128,18.7894938 12.6219741,18.3104724 12.6420529,17.8123285 C12.6621316,17.3170529 12.7692182,16.9269516 12.9671372,16.6429809 C13.0856974,16.5005174 13.3113442,16.394387 13.646946,16.3236333 C13.9806355,16.2519235 14.3458774,16.1993363 14.7398031,16.1639595 C15.134685,16.1285827 15.5180934,16.101811 15.8928965,16.0836445 C16.2676997,16.0664342 16.5727053,16.0224522 16.8088695,15.9507424 C17.9132002,15.6667717 18.8090945,15.3216085 19.4994207,14.9133408 C20.1887908,14.5060292 20.7309168,13.8405624 21.1248425,12.9178965 C21.2032452,12.7046794 21.2816479,12.386288 21.3610067,11.9598538 C21.4403656,11.5353318 21.4403656,11.1452306 21.3610067,10.7905062 C21.2816479,10.5065354 21.2032452,10.2139595 21.1248425,9.9127784 C21.0454837,9.61064117 20.908757,9.33623172 20.7117942,9.08668166 C20.0013892,7.98808774 18.9180934,7.22509561 17.4599944,6.79961755 C17.2620754,6.72886389 17.0756299,6.69253093 16.8977897,6.69253093 C16.7209055,6.69253093 16.5335039,6.65811024 16.3365411,6.58640045 C16.021018,6.51660292 15.6366535,6.49843645 15.1834477,6.53285714 C14.731198,6.5691901 14.3659561,6.62273341 14.0905906,6.69253093 C13.8926715,6.76519685 13.7253487,6.80822272 13.5876659,6.8263892 C13.449027,6.84455568 13.2817042,6.88853768 13.0856974,6.95929134 C11.902964,7.3847694 10.9764736,8.05884139 10.3071822,8.98055118 C10.071018,9.29989876 9.88266029,9.63741282 9.74593363,9.99213723 C9.60633858,10.3468616 9.47917323,10.7187964 9.36061305,11.1098538 C9.24205287,11.499955 9.14452756,11.8632846 9.06516873,12.1998425 C8.9858099,12.5373566 8.78980315,12.7935996 8.47428009,12.9714398 C8.35667604,13.0431496 8.09947694,13.1129471 7.70555118,13.1837008 L7.05538245,13.1837008 C6.85746344,13.2200337 6.62129921,13.2286389 6.34593363,13.2104724 C6.06961192,13.1932621 5.81336895,13.1837008 5.57720472,13.1837008 C4.94615861,13.1837008 4.24818335,13.2028234 3.47849831,13.2372441 C2.7097694,13.2726209 2.12844207,13.1492801 1.73547244,12.8643532 C1.57771091,12.7582227 1.45915073,12.5545669 1.38074803,12.2533858 C1.3013892,11.9512486 1.3013892,11.6596288 1.38074803,11.375658 C1.45915073,11.1978178 1.49835208,11.0209336 1.49835208,10.8430934 C1.49835208,10.6662092 1.53755343,10.488369 1.61691226,10.3114848 C1.73547244,9.88505062 1.85307649,9.46913386 1.97163667,9.06086614 C2.09019685,8.65355456 2.24700225,8.25389201 2.44396513,7.86379078 C3.27197413,6.16092238 4.31606862,4.76975253 5.57720472,3.68741282 C6.83834083,2.60507312 8.47428009,1.72734533 10.4840664,1.05327334 C10.9171935,0.91272216 11.3809168,0.805635546 11.873324,0.733925759 C12.3657312,0.664128234 12.8676997,0.593374578 13.3811417,0.520708661 C13.6966648,0.486287964 13.9806355,0.460472441 14.2378346,0.441349831 C14.4940776,0.424139483 14.7598819,0.414578178 15.0362036,0.414578178" mask="url(#date-b)"/>
    </g>
    <mask id="date-d" fill="#fff">
      <use xlink:href="#date-c"/>
    </mask>
    <path fill="#231814" d="M232.434364,31.7267042 L240.245951,31.7267042 L240.245951,29.1585377 L232.434364,29.1585377 L232.434364,31.7267042 Z M227.305681,15.3185489 L244.942463,15.3185489 L244.942463,12.8373903 L227.305681,12.8373903 L227.305681,15.3185489 Z M244.942463,20.3229359 L244.942463,18.5827784 L227.305681,18.5827784 L227.305681,19.7578628 L222.800394,20.2808661 L222.800394,21.019955 L248.87216,21.019955 L251.268223,19.3228234 L244.942463,20.3229359 Z M253.377447,1.87152981 L257.93054,5.61382452 L255.821316,7.57197975 L247.769741,7.57197975 L253.856468,11.794252 L252.131609,13.186378 L252.131609,18.7137683 L252.178459,18.6697863 L258.64955,23.0220922 L256.588133,24.8932396 L256.588133,36.2090439 C256.588133,39.3853093 255.054499,40.9963892 252.035039,40.9963892 L247.960967,40.9963892 C247.960967,38.3842407 246.331721,37.1221485 243.073228,37.1221485 L243.121035,35.7730484 L240.245951,36.2090439 L240.245951,34.8159618 L232.433408,34.8159618 L232.433408,36.4260855 L225.675478,37.2101125 L225.675478,24.4142182 L232.433408,25.1542632 L232.433408,26.1113498 L240.437177,26.1113498 L242.497638,24.4142182 L248.488751,28.5485264 L246.811699,29.8106187 L246.811699,34.2939145 C247.386333,34.2939145 247.960967,34.2499325 248.488751,34.2499325 C249.159955,34.2499325 249.495557,33.8148931 249.495557,32.9448144 L249.495557,24.3272103 L222.800394,24.3272103 L222.800394,40.43036 L215.803431,41.2134308 L215.803431,18.7567942 L220.164342,19.1918335 L220.164342,7.7459955 L227.305681,8.48604049 L227.305681,9.48615298 L245.181496,9.48615298 L247.098538,7.57197975 L215.180034,7.57197975 L214.221035,4.17771654 L232.624634,4.17771654 L232.624634,0.304431946 L240.677165,1.21849269 L240.677165,4.17771654 L250.549213,4.17771654 L253.377447,1.87152981 Z" mask="url(#date-d)"/>
    <path fill="#231814" d="M285.437458,36.034072 L288.504724,36.034072 L288.504724,29.4195613 L285.437458,29.4195613 L285.437458,36.034072 Z M285.437458,26.112306 L288.504724,26.112306 L288.504724,19.7578628 L285.437458,19.7578628 L285.437458,26.112306 Z M285.437458,16.4936333 L288.504724,16.4936333 L288.504724,10.4872216 L285.437458,10.4872216 L285.437458,16.4936333 Z M274.942013,6.17889764 L278.919516,9.44408324 C279.638526,6.65791901 280.213161,3.65566929 280.644376,0.478447694 L287.690101,1.56652418 C287.306693,3.56866142 286.827672,5.48283465 286.299888,7.22394826 L289.175928,7.22394826 L290.278346,0.870461192 L297.227503,1.87152981 L294.208043,7.22394826 L295.119235,7.22394826 L297.8509,4.9168054 L302.403037,8.57304837 L300.246963,10.4872216 L294.974859,10.4872216 L294.974859,16.4945894 L295.453881,16.4945894 L297.898706,14.6655118 L301.971822,17.9306974 L300.054781,19.7578628 L294.974859,19.7578628 L294.974859,26.1113498 L295.119235,26.1113498 L297.706524,24.0661867 L301.971822,27.5044319 L299.959168,29.4195613 L294.974859,29.4195613 L294.974859,36.034072 L295.166085,36.034072 L297.994319,33.6408774 L302.690832,37.3831721 L300.485996,39.2983015 L285.437458,39.2983015 L285.437458,40.6474016 L278.776097,41.3434646 L278.776097,36.1650619 L274.078628,39.0812598 C273.887402,38.0362092 273.695219,37.0791226 273.503993,36.2090439 C269.046513,37.6011699 264.781215,38.7762542 260.660292,39.7773228 L259.844713,33.5529134 C260.803712,33.5529134 261.761755,33.5098875 262.672947,33.4238358 C265.643645,27.3304162 267.896288,21.0629809 269.334308,14.6224859 L275.900056,15.7105624 C274.8464,19.6268729 273.40838,23.0660742 271.586952,26.024342 C270.38892,28.5925084 269.046513,30.9426772 267.513836,33.0308661 C269.382115,32.8578065 271.060124,32.6398088 272.497188,32.3348031 C272.065973,30.9426772 271.634758,29.6805849 271.25135,28.5055006 L274.27081,26.7213611 C276.043476,29.2445894 277.530259,31.8997638 278.776097,34.641946 L278.776097,21.6729921 C278.104893,22.456063 277.385883,23.1951519 276.666873,23.892171 L274.509843,21.1509449 C276.235658,17.9306974 277.625872,14.3174803 278.72829,10.2271541 L277.194657,11.4882902 L269.334308,11.4882902 C266.698256,20.4099438 263.63099,27.0254106 260.180315,31.3337345 L257.496457,29.6805849 C258.742295,26.9814286 260.084702,22.7170866 261.521766,16.8856468 C261.953937,15.1445332 262.337345,13.3164117 262.720754,11.4882902 L258.454499,11.4882902 L257.544263,8.35600675 L263.343195,8.35600675 C263.774409,5.83086614 264.158774,3.26365579 264.542182,0.60848144 L271.779134,1.69655793 C271.25135,4.04672666 270.723566,6.26590551 270.196738,8.35600675 L272.449381,8.35600675 L274.942013,6.17889764 Z" mask="url(#date-d)"/>
    <path fill="#231814" d="M334.367435,11.8803037 L337.722497,11.8803037 L337.722497,8.48508436 L334.367435,8.48508436 L334.367435,11.8803037 Z M334.367435,17.1896963 C334.319629,17.9727672 334.271822,18.6258043 334.176209,19.1488076 L337.722497,19.1488076 L337.722497,15.0575253 L334.367435,15.0575253 L334.367435,17.1896963 Z M328.185096,19.1488076 C328.376322,18.3657368 328.471935,17.5817098 328.471935,16.7546569 L328.471935,15.0575253 L325.59685,15.0575253 L325.59685,19.1488076 L328.185096,19.1488076 Z M325.59685,11.8812598 L328.471935,11.8812598 L328.471935,8.48604049 L325.59685,8.48604049 L325.59685,11.8812598 Z M330.437739,25.6763105 C328.520697,27.3304162 325.884646,28.5485264 322.433971,29.3315973 L330.868954,29.3315973 L330.868954,25.2412711 C330.677728,25.4152868 330.533352,25.5893026 330.437739,25.6763105 L330.437739,25.6763105 Z M325.59685,4.13373453 L325.59685,5.43980877 L326.555849,5.43980877 C327.034871,3.82872891 327.466085,2.08857143 327.849494,0.260449944 L335.901069,1.74053993 C334.655231,3.17664792 333.409393,4.39475816 332.258211,5.43980877 L337.146907,5.43980877 L340.26198,2.87164229 L346.253093,7.09391451 L344.240439,8.83407199 L344.240439,22.9781102 L337.722497,23.7181552 L337.722497,22.3250731 L333.073791,22.3250731 C332.785996,22.9350844 332.450394,23.4131496 332.162598,23.8051631 L338.345894,24.4582002 L338.345894,29.3315973 L339.495163,29.3315973 L342.179021,26.852351 L346.875534,30.6806974 L344.623847,32.465793 L338.345894,32.465793 L338.345894,40.5173678 L330.868954,41.3874466 L330.868954,32.465793 L318.120866,32.465793 L317.209674,29.3315973 L320.469123,29.3315973 L318.983296,27.1994263 C321.954949,26.1983577 324.15883,24.9802475 325.644657,23.5441395 C326.028065,23.152126 326.411474,22.7601125 326.699269,22.3250731 L325.59685,22.3250731 L325.59685,23.5441395 L319.174522,24.2841845 L319.174522,3.43767154 L325.59685,4.13373453 Z M308.822497,29.0275478 L310.787345,29.0275478 L310.787345,8.00797525 L308.822497,8.00797525 L308.822497,29.0275478 Z M308.822497,3.34970754 L308.822497,4.43874016 L310.740495,4.43874016 L312.896569,2.34959505 L318.839876,6.26590551 L317.018448,7.92001125 L317.018448,35.0769854 L310.787345,35.6430146 L310.787345,32.5958268 L308.822497,32.5958268 L308.822497,36.5561192 L302.544544,37.2521822 L302.544544,2.65460067 L308.822497,3.34970754 Z" mask="url(#date-d)"/>
    <path fill="#231814" d="M379.224297,18.7135771 C379.224297,19.2796063 379.559899,19.5396738 380.278909,19.5396738 L380.949156,19.5396738 L380.949156,13.1861867 L379.224297,13.1861867 L379.224297,18.7135771 Z M372.658549,10.0089651 L374.144376,10.0089651 L374.144376,5.61267717 L372.658549,5.61267717 L372.658549,10.0089651 Z M365.709393,35.0777503 L380.949156,35.0777503 L380.949156,30.7254443 L365.709393,30.7254443 L365.709393,35.0777503 Z M367.626434,17.0594713 L367.626434,13.1861867 L365.709393,13.1861867 L365.709393,23.4129584 C366.955231,21.4987852 367.626434,19.40964 367.626434,17.0594713 L367.626434,17.0594713 Z M380.949156,27.5912486 L380.949156,24.2839933 L377.498481,24.2839933 C375.245838,24.2839933 374.144376,23.021901 374.144376,20.4977165 L374.144376,13.1861867 L372.658549,13.1861867 L372.658549,16.3634083 C372.658549,20.4537345 370.884927,23.8489539 367.338639,26.4601462 L365.709393,25.2410799 L365.709393,27.5912486 L380.949156,27.5912486 Z M357.992463,6.00564679 L352.721316,10.923982 C351.187683,7.61577053 349.55748,4.8735883 347.832621,2.78539933 L350.420866,0.608290214 C353.583746,2.43736783 356.123228,4.22150731 357.992463,6.00564679 L357.992463,6.00564679 Z M358.951462,13.5782002 L358.951462,7.6587964 L365.709393,8.35581552 L365.709393,10.0089651 L367.626434,10.0089651 L367.626434,5.6136333 L357.89685,5.6136333 L356.938808,2.47943757 L383.393982,2.47943757 L386.07784,0.000191226097 L390.774353,3.78646794 L388.52171,5.6136333 L379.224297,5.6136333 L379.224297,10.0089651 L380.710124,10.0089651 L383.92081,7.52876265 L390.10315,11.8370866 L387.947075,13.6652081 L387.947075,40.2551969 L380.949156,41.0392238 L380.949156,38.2109899 L365.709393,38.2109899 L365.709393,40.6902362 L358.951462,41.4742632 L358.951462,16.1454106 L352.912542,29.8104274 C354.686164,31.4645332 356.555399,33.683712 358.568054,36.4689201 L351.475478,41.4742632 C350.516479,36.8609336 348.982846,32.8576153 346.874578,29.462396 L357.465636,12.9251631 L358.951462,13.5782002 Z M355.548594,15.1452981 L350.37306,19.8886614 C348.790664,16.7544657 347.113611,14.1872553 345.387795,12.1851181 L348.216029,9.79192351 C351.283296,11.576063 353.727165,13.3602025 355.548594,15.1452981 L355.548594,15.1452981 Z" mask="url(#date-d)"/>
    <path fill="#231814" d="M424.463515,31.4216029 C425.085956,31.4216029 425.422514,31.0295894 425.422514,30.2465186 L425.422514,17.62464 L421.539668,17.62464 L421.539668,31.3336389 C422.546474,31.4216029 423.504516,31.4216029 424.463515,31.4216029 L424.463515,31.4216029 Z M404.622852,32.682739 C403.855079,31.8996682 403.089218,31.1605793 402.370208,30.4635602 L404.622852,28.5924128 C404.909691,28.7234027 405.149679,28.8534364 405.388712,28.9404443 L405.388712,27.3303206 L399.541974,27.3303206 L399.541974,33.4237402 C401.459016,33.2057424 403.136069,32.9447188 404.622852,32.682739 L404.622852,32.682739 Z M399.541974,24.153099 L405.388712,24.153099 L405.388712,22.4119854 L399.541974,22.4119854 L399.541974,24.153099 Z M399.541974,19.4097357 L405.388712,19.4097357 L405.388712,17.6695782 L399.541974,17.6695782 L399.541974,19.4097357 Z M430.070264,2.91552868 L434.433088,6.39679978 L432.37167,8.13791339 L424.799117,8.13791339 C426.33275,9.05197413 427.674201,9.96603487 428.825382,10.8361136 L423.122064,14.3173847 C422.019646,12.4892632 420.726001,10.7491057 419.240174,9.095 C417.99338,10.4010742 416.699736,11.5321766 415.453898,12.4892632 L421.539668,13.0992745 L421.539668,14.4914004 L424.89473,14.4914004 L428.058566,11.7501744 L434.193099,15.9284646 L432.276057,17.712604 L432.276057,33.2057424 C432.276057,36.1649663 430.789274,37.6450562 427.818577,37.6450562 L423.792312,37.6450562 C423.792312,36.1209843 423.026451,35.0768898 421.539668,34.5538864 L421.539668,40.4302643 L414.351479,41.2563611 L414.351479,35.2948875 L409.798386,39.5162036 C408.840343,37.9491057 407.881344,36.6000056 406.922345,35.3818954 C402.897036,37.5140664 397.960534,39.3412317 392.113796,40.8653037 L389.813346,34.3368448 C390.771389,34.2498369 391.778195,34.206811 392.736237,34.118847 L392.736237,12.9682846 L389.90896,11.5321766 C393.407441,8.00787964 395.755697,4.3086108 397.001535,0.435326209 L404.239443,2.39348144 C403.616046,3.39455006 402.992649,4.3086108 402.370208,5.09168166 L406.683313,5.09168166 L409.319364,2.87250281 L413.728082,6.39679978 L411.667621,8.13791339 L404.286294,8.13791339 C405.724314,9.095 406.971108,10.0090607 408.024764,10.8800956 L402.178026,14.4483746 C401.219027,12.4892632 400.117565,10.7051237 398.870771,9.095 C397.43275,10.531108 395.94788,11.7501744 394.414246,12.751243 L399.541974,13.2732902 L399.541974,14.5353825 L404.766271,14.5353825 L407.976957,11.9241901 L414.11149,16.2325141 L412.003223,18.0166535 L412.003223,28.2883633 L405.533088,29.0274522 C409.079376,30.7245838 412.051029,32.3786895 414.351479,34.0318391 L414.351479,13.2302643 L410.852998,11.4451687 C413.968071,7.91991564 416.077295,4.22160292 417.130951,0.347362205 L424.320096,2.30647357 C423.696699,3.35056805 423.073301,4.2646288 422.498667,5.09168166 L427.482975,5.09168166 L430.070264,2.91552868 Z" mask="url(#date-d)"/>
    <polygon fill="#231814" points="78.55 31.895 78.55 5.394 68.083 5.394 68.083 38.857 70.908 38.857 78.55 38.857 86.572 38.857 86.572 31.895" mask="url(#date-d)"/>
    <polygon fill="#231814" points="61.578 12.164 61.619 5.394 43.324 5.417 43.324 38.876 45.917 38.876 53.742 38.876 61.578 38.876 61.578 31.92 53.742 31.92 53.742 25.484 61.578 25.484 61.578 18.553 53.742 18.553 53.742 12.164" mask="url(#date-d)"/>
    <polygon fill="#231814" points="107.93 12.15 107.93 5.394 89.636 5.394 89.636 38.857 92.253 38.857 100.097 38.857 107.93 38.857 107.93 31.895 100.097 31.895 100.097 25.484 107.93 25.484 107.93 18.525 100.097 18.525 100.097 12.15" mask="url(#date-d)"/>
    <polygon fill="#231814" points="159.181 12.15 159.154 5.417 140.897 5.394 140.897 38.857 143.536 38.857 151.34 38.857 159.181 38.857 159.181 31.895 151.34 31.895 151.34 25.484 159.181 25.484 159.181 18.525 151.34 18.525 151.34 12.15" mask="url(#date-d)"/>
    <polygon fill="#231814" points="27.573 25.598 38.293 25.598 38.293 18.64 27.573 18.64" mask="url(#date-d)"/>
    <path fill="#231814" d="M19.0758549,5.39410574 L9.56130484e-05,5.39410574 L9.56130484e-05,13.2238583 L10.5863723,13.2085602 C10.5863723,13.2085602 12.928892,8.23668166 19.0758549,5.39410574" mask="url(#date-d)"/>
    <path fill="#231814" d="M16.5679246,29.065793 L16.5679246,39.4034758 L7.3986333,39.4034758 L7.3986333,30.7103375 C7.3986333,30.7103375 7.3986333,30.4913836 7.41201912,30.113712 C7.45886952,25.4841282 9.48969066,7.5796288 24.8403656,4.85848144 L24.8384533,14.1530259 C24.8384533,14.1530259 17.4494769,14.9858155 16.5679246,29.065793" mask="url(#date-d)"/>
    <polygon fill="#231814" points="136.815 5.612 129.528 5.612 125.345 29.08 121.675 5.612 111.892 5.648 117.101 38.622 126.864 38.622 126.851 38.612 131.544 38.578" mask="url(#date-d)"/>
    <path fill="#231814" d="M182.619488 4.90667042C178.169657 5.16769404 175.136811 7.59435321 175.136811 7.59435321L175.136811 5.75093363 164.685349 5.75093363 164.685349 39.3684814 175.136811 39.3684814 175.136811 14.986198 175.136811 14.7825422C175.314651 13.2087514 179.964314 11.2352981 180.084786 15.8534083L180.084786 39.3684814 190.553459 39.3684814 190.553459 10.025793C190.455934 7.01302587 186.732762 4.61218223 182.619488 4.90667042M194.360579 37.6280371L195.240219 37.6280371 195.240219 35.619207 195.943931 35.619207C196.455461 35.619207 196.789151 35.6622328 196.986114 35.7922666 197.282514 35.9959224 197.457486 36.3640326 197.457486 36.9444038L197.457486 37.3651012 197.457486 37.5305118 197.457486 37.5936164 197.457486 37.6280371 198.330433 37.6280371 198.284539 37.5936164C198.284539 37.5305118 198.284539 37.4224691 198.273065 37.2962598L198.273065 36.9444038 198.273065 36.5456974C198.273065 36.2971035 198.176496 36.0246063 197.97284 35.7635827 197.755799 35.5035152 197.457486 35.340973 197.083639 35.267351 197.399162 35.2157199 197.661142 35.150703 197.843763 34.9900731 198.176496 34.7806805 198.330433 34.45464 198.330433 33.9832677 198.330433 33.3617829 198.062717 32.9305681 197.547362 32.6762373 197.248093 32.593054 196.789151 32.5098706 196.13707 32.5098706L194.360579 32.5098706 194.360579 37.6280371zM196.924921 34.8552587C196.684933 34.9441789 196.455461 34.9900731 196.097868 34.9900731L195.240219 34.9900731 195.240219 33.1466535 196.016597 33.1466535C196.514741 33.1466535 196.883808 33.2193195 197.15248 33.3436164 197.359961 33.4688695 197.457486 33.7012092 197.457486 34.073144 197.457486 34.4852362 197.282514 34.7233127 196.924921 34.8552587L196.924921 34.8552587zM199.271265 32.0882171C198.424134 31.2535152 197.43167 30.8261249 196.261367 30.8261249 195.062379 30.8261249 194.078521 31.2535152 193.252424 32.0882171 192.383301 32.8923228 191.966429 33.9106018 191.966429 35.1009843 191.966429 36.2779809 192.383301 37.2895669 193.210354 38.1223566 194.046969 38.9561024 195.062379 39.4026153 196.261367 39.4026153 197.43167 39.4026153 198.424134 38.9561024 199.271265 38.1223566 200.10788 37.2895669 200.510411 36.2779809 200.510411 35.1009843 200.510411 33.9106018 200.10788 32.8923228 199.271265 32.0882171L199.271265 32.0882171zM198.834314 32.4735377C199.53707 33.2193195 199.915697 34.073144 199.915697 35.1009843 199.915697 36.1278684 199.53707 36.9807368 198.834314 37.6949663 198.122953 38.4350112 197.248093 38.7534027 196.261367 38.7534027 195.204843 38.7534027 194.360579 38.4350112 193.635832 37.6949663 192.933076 36.9807368 192.586957 36.1278684 192.586957 35.1009843 192.586957 34.073144 192.933076 33.2193195 193.635832 32.4735377 194.360579 31.7803431 195.240219 31.4323116 196.261367 31.4323116 197.248093 31.4323116 198.122953 31.7803431 198.834314 32.4735377L198.834314 32.4735377z" mask="url(#date-d)"/>
    <polygon fill="#231814" points="487 10.433 483.817 13.756 487.305 17.084 486.651 17.084 483.168 13.761 483.168 17.084 482.654 17.084 482.654 10.433 483.168 10.433 483.168 13.743 486.359 10.433" mask="url(#date-d)"/>
    <path fill="#231814" d="M491.524404 14.3568729L490.09212 11.2245894 488.663661 14.3568729 491.524404 14.3568729zM490.237452 10.386063L493.312368 17.0847132 492.77311 17.0847132 491.720411 14.7842632 488.468611 14.7842632 487.420692 17.0847132 486.881434 17.0847132 489.954438 10.386063 490.237452 10.386063zM497.128571 16.6939426C497.95658 16.6939426 498.656468 16.410928 499.225366 15.8439426 499.795219 15.2779134 500.080146 14.5837627 500.080146 13.7614904 500.080146 12.9363498 499.795219 12.2402868 499.225366 11.6742576 498.656468 11.1072722 497.95658 10.8242576 497.128571 10.8242576 496.297694 10.8242576 495.593982 11.1072722 495.017435 11.6742576 494.440889 12.2402868 494.154049 12.9363498 494.154049 13.7614904 494.154049 14.5837627 494.440889 15.2779134 495.017435 15.8439426 495.593982 16.410928 496.297694 16.6939426 497.128571 16.6939426M497.109449 10.3481046C498.094263 10.3481046 498.928009 10.6789258 499.611642 11.3405681 500.296232 12.0022103 500.63757 12.8101406 500.63757 13.7614904 500.63757 14.710928 500.296232 15.5159899 499.611642 16.1776322 498.928009 16.8383183 498.094263 17.1700956 497.109449 17.1700956 496.129415 17.1700956 495.298538 16.8383183 494.617773 16.1776322 493.937008 15.5159899 493.596625 14.710928 493.596625 13.7614904 493.596625 12.8101406 493.937008 12.0022103 494.617773 11.3405681 495.298538 10.6789258 496.129415 10.3481046 497.109449 10.3481046" mask="url(#date-d)"/>
    <polygon fill="#231814" points="507.125 10.433 507.125 17.084 506.606 17.084 506.606 13.933 502.169 13.933 502.169 17.084 501.655 17.084 501.655 10.433 502.169 10.433 502.169 13.504 506.606 13.504 506.606 10.433" mask="url(#date-d)"/>
    <path fill="#231814" d="M511.551704,10.7666985 L511.551704,11.3336839 C510.974201,10.9933015 510.477013,10.8250225 510.061097,10.8250225 C509.661434,10.8250225 509.327745,10.9454949 509.060028,11.1883521 C508.790399,11.4312092 508.657497,11.7323903 508.657497,12.0909393 C508.657497,12.3471822 508.736856,12.5795219 508.895574,12.78509 C509.054291,12.9916142 509.385112,13.1895332 509.889949,13.3798031 C510.394786,13.5710292 510.762897,13.7297469 510.99428,13.8559561 C511.225664,13.9831215 511.422627,14.1676547 511.584213,14.4095557 C511.746755,14.6505006 511.82707,14.9631552 511.82707,15.3465636 C511.82707,15.8571372 511.640624,16.2893082 511.265821,16.6421204 C510.891974,16.9939764 510.433988,17.1699044 509.89473,17.1699044 C509.342087,17.1699044 508.774145,16.9758099 508.189949,16.5895332 L508.189949,15.9843026 C508.834381,16.4575872 509.392762,16.6937514 509.866046,16.6937514 C510.259016,16.6937514 510.591749,16.5656299 510.86329,16.3112992 C511.134831,16.0550562 511.270602,15.7414454 511.270602,15.3695107 C511.270602,15.0884083 511.186462,14.8331215 511.018183,14.6065186 C510.849904,14.3789595 510.508566,14.1676547 509.995124,13.9697357 C509.480726,13.7727728 509.113571,13.6140551 508.893661,13.4935827 C508.671839,13.3731102 508.485394,13.2000506 508.331457,12.9772722 C508.17752,12.7535377 508.100073,12.4647863 508.100073,12.1129303 C508.100073,11.6243476 508.287475,11.2084308 508.662278,10.86518 C509.036125,10.5200169 509.487418,10.3488695 510.014246,10.3488695 C510.531513,10.3488695 511.043999,10.4875084 511.551704,10.7666985" mask="url(#date-d)"/>
    <polygon fill="#231814" points="512.746 17.085 513.259 17.085 513.259 10.434 512.746 10.434" mask="url(#date-d)"/>
    <path fill="#231814" d="M519.442649,10.4333915 L519.957047,10.4333915 L519.957047,14.0609505 C519.957047,15.0543701 519.698892,15.8211867 519.181625,16.3604443 C518.664359,16.900658 517.994111,17.1702868 517.171839,17.1702868 C516.353391,17.1702868 515.685056,16.9035264 515.16779,16.3700056 C514.650523,15.8364848 514.392368,15.1069573 514.392368,14.1804668 L514.392368,10.4333915 L514.911547,10.4333915 L514.911547,14.1613442 C514.911547,14.9549325 515.120939,15.5754612 515.541637,16.0229303 C515.962334,16.4694432 516.506372,16.6941339 517.171839,16.6941339 C517.844955,16.6941339 518.390906,16.4684871 518.812559,16.0152812 C519.2323,15.5630315 519.442649,14.9214679 519.442649,14.0896344 L519.442649,10.4333915 Z" mask="url(#date-d)"/>
    <polygon fill="#231814" points="527.087 10.433 527.087 17.084 526.663 17.084 521.607 11.272 521.607 17.084 521.093 17.084 521.093 10.433 521.529 10.433 526.573 16.247 526.573 10.433" mask="url(#date-d)"/>
    <path fill="#231814" d="M533.941412,10.9142295 L533.941412,11.4946007 C533.154516,11.0480877 532.368577,10.8243532 531.58455,10.8243532 C530.744111,10.8243532 530.044224,11.1035433 529.485844,11.6619235 C528.927463,12.2203037 528.648273,12.9211474 528.648273,13.7615861 C528.648273,14.6020247 528.923639,15.3019123 529.476282,15.8583802 C530.02797,16.4158043 530.778532,16.6940382 531.72797,16.6940382 C532.412559,16.6940382 533.020658,16.5573116 533.55131,16.2838583 L533.55131,14.4892013 L532.146755,14.4892013 L532.146755,14.0608549 L534.070489,14.0608549 L534.070489,16.6079865 C533.285506,16.9827897 532.498611,17.1701912 531.708847,17.1701912 C530.677182,17.1701912 529.816665,16.8431946 529.126339,16.1892013 C528.436012,15.5352081 528.090849,14.7196288 528.090849,13.7424634 C528.090849,12.7710349 528.429319,11.9631046 529.107216,11.3167604 C529.784156,10.6713723 530.636069,10.3482002 531.66104,10.3482002 C532.359972,10.3482002 533.120096,10.5365579 533.941412,10.9142295" mask="url(#date-d)"/>
    <polygon fill="#231814" points="482.674 27.14 483.187 27.14 483.187 20.489 482.674 20.489" mask="url(#date-d)"/>
    <polygon fill="#231814" points="490.452 20.49 490.452 27.14 490.028 27.14 484.972 21.328 484.972 27.14 484.458 27.14 484.458 20.49 484.893 20.49 489.937 26.303 489.937 20.49" mask="url(#date-d)"/>
    <polygon fill="#231814" points="496.515 20.49 496.515 20.918 494.021 20.918 494.021 27.14 493.501 27.14 493.501 20.918 491.007 20.918 491.007 20.49" mask="url(#date-d)"/>
    <polygon fill="#231814" points="500.722 20.49 500.722 20.918 497.609 20.918 497.609 23.579 500.641 23.579 500.641 24.013 497.609 24.013 497.609 26.712 500.799 26.712 500.799 27.14 497.095 27.14 497.095 20.49" mask="url(#date-d)"/>
    <path fill="#231814" d="M502.136114,20.9181271 L502.136114,23.5226265 L503.239488,23.5226265 C503.801693,23.5226265 504.230996,23.408847 504.528352,23.1822441 C504.824753,22.9556412 504.972953,22.6343813 504.972953,22.2175084 C504.972953,21.8092407 504.82284,21.4898931 504.520703,21.2604218 C504.219522,21.0328628 503.786395,20.9181271 503.221322,20.9181271 L502.136114,20.9181271 Z M501.621715,20.4897807 L503.32554,20.4897807 C504.039769,20.4897807 504.586676,20.6446738 504.963391,20.9544601 C505.342019,21.2632902 505.530377,21.6820754 505.530377,22.2089033 C505.530377,22.976676 505.107767,23.5159336 504.26446,23.826676 C504.482458,23.9318504 504.777902,24.2703206 505.148881,24.8411305 L506.65383,27.1406243 L506.044775,27.1406243 L504.886901,25.3182396 C504.499668,24.7082283 504.197531,24.3276884 503.982402,24.1766198 C503.766316,24.0265073 503.450793,23.950973 503.034876,23.950973 L502.136114,23.950973 L502.136114,27.1406243 L501.621715,27.1406243 L501.621715,20.4897807 Z" mask="url(#date-d)"/>
    <polygon fill="#231814" points="512.95 20.49 512.95 27.14 512.527 27.14 507.471 21.328 507.471 27.14 506.956 27.14 506.956 20.49 507.392 20.49 512.436 26.303 512.436 20.49" mask="url(#date-d)"/>
    <path fill="#231814" d="M518.150343,24.4130709 L516.71806,21.2807874 L515.289601,24.4130709 L518.150343,24.4130709 Z M516.863391,20.442261 L519.938307,27.1409111 L519.399049,27.1409111 L518.34635,24.8404612 L515.09455,24.8404612 L514.046631,27.1409111 L513.507373,27.1409111 L516.580377,20.442261 L516.863391,20.442261 Z" mask="url(#date-d)"/>
    <polygon fill="#231814" points="525.274 20.49 525.274 20.918 522.779 20.918 522.779 27.14 522.26 27.14 522.26 20.918 519.765 20.918 519.765 20.49" mask="url(#date-d)"/>
    <polygon fill="#231814" points="525.834 27.14 526.348 27.14 526.348 20.489 525.834 20.489" mask="url(#date-d)"/>
    <path fill="#231814" d="M530.883515,26.7501406 C531.711524,26.7501406 532.411412,26.467126 532.980309,25.9001406 C533.550163,25.3341114 533.83509,24.6399606 533.83509,23.8176884 C533.83509,22.9925478 533.550163,22.2964848 532.980309,21.7304556 C532.411412,21.1634702 531.711524,20.8804556 530.883515,20.8804556 C530.052638,20.8804556 529.348926,21.1634702 528.772379,21.7304556 C528.195832,22.2964848 527.908993,22.9925478 527.908993,23.8176884 C527.908993,24.6399606 528.195832,25.3341114 528.772379,25.9001406 C529.348926,26.467126 530.052638,26.7501406 530.883515,26.7501406 M530.864393,20.4043026 C531.849207,20.4043026 532.682953,20.7351237 533.366586,21.396766 C534.051175,22.0584083 534.392514,22.8663386 534.392514,23.8176884 C534.392514,24.767126 534.051175,25.5721879 533.366586,26.2338301 C532.682953,26.8945163 531.849207,27.2262936 530.864393,27.2262936 C529.884359,27.2262936 529.053481,26.8945163 528.372717,26.2338301 C527.691952,25.5721879 527.351569,24.767126 527.351569,23.8176884 C527.351569,22.8663386 527.691952,22.0584083 528.372717,21.396766 C529.053481,20.7351237 529.884359,20.4043026 530.864393,20.4043026" mask="url(#date-d)"/>
    <polygon fill="#231814" points="541.394 20.49 541.394 27.14 540.971 27.14 535.915 21.328 535.915 27.14 535.4 27.14 535.4 20.49 535.836 20.49 540.88 26.303 540.88 20.49" mask="url(#date-d)"/>
    <path fill="#231814" d="M546.594269,24.4130709 L545.161985,21.2807874 L543.733526,24.4130709 L546.594269,24.4130709 Z M545.307317,20.442261 L548.382233,27.1409111 L547.842975,27.1409111 L546.790276,24.8404612 L543.538476,24.8404612 L542.490557,27.1409111 L541.951299,27.1409111 L545.024303,20.442261 L545.307317,20.442261 Z" mask="url(#date-d)"/>
    <polygon fill="#231814" points="549.457 20.49 549.457 26.712 552.746 26.712 552.746 27.14 548.943 27.14 548.943 20.49" mask="url(#date-d)"/>
    <path fill="#231814" d="M483.206738,34.0592801 L483.206738,36.7679978 L484.581654,36.7679978 C485.150551,36.7679978 485.581766,36.645613 485.87721,36.4017998 C486.172655,36.1570304 486.319899,35.8309899 486.319899,35.4208099 C486.319899,34.5134421 485.665906,34.0592801 484.358875,34.0592801 L483.206738,34.0592801 Z M483.206738,30.973847 L483.206738,33.626153 L483.920967,33.626153 C485.130472,33.626153 485.734747,33.1853768 485.734747,32.3028684 C485.734747,31.4165354 485.12378,30.973847 483.901845,30.973847 L483.206738,30.973847 Z M482.69234,30.5455006 L484.077773,30.5455006 C484.804432,30.5455006 485.355163,30.6984814 485.729966,31.0034871 C486.103813,31.3075366 486.292171,31.728234 486.292171,32.2646232 C486.292171,32.9061867 485.972823,33.3995501 485.335084,33.7456693 C486.360056,33.9674916 486.872542,34.5287402 486.872542,35.4303712 C486.872542,35.9696288 486.671755,36.3989314 486.27018,36.718279 C485.868605,37.0366704 485.325523,37.1963442 484.639021,37.1963442 L482.69234,37.1963442 L482.69234,30.5455006 Z" mask="url(#date-d)"/>
    <polygon fill="#231814" points="491.251 30.546 491.251 30.974 488.138 30.974 488.138 33.635 491.169 33.635 491.169 34.069 488.138 34.069 488.138 36.768 491.327 36.768 491.327 37.197 487.623 37.197 487.623 30.546" mask="url(#date-d)"/>
    <polygon fill="#231814" points="495.787 30.546 495.787 30.974 492.674 30.974 492.674 33.635 495.706 33.635 495.706 34.069 492.674 34.069 492.674 36.768 495.863 36.768 495.863 37.197 492.159 37.197 492.159 30.546" mask="url(#date-d)"/>
    <path fill="#231814" d="M497.200472 30.9743251L497.200472 33.5788245 498.303847 33.5788245C498.866052 33.5788245 499.295354 33.465045 499.592711 33.2384421 499.889111 33.0118391 500.037312 32.6905793 500.037312 32.2737064 500.037312 31.8654387 499.887199 31.5460911 499.585062 31.3166198 499.283881 31.0890607 498.850754 30.9743251 498.285681 30.9743251L497.200472 30.9743251zM496.686074 30.5459786L498.389899 30.5459786C499.104128 30.5459786 499.651035 30.7008718 500.02775 31.010658 500.406378 31.3194882 500.594736 31.7382733 500.594736 32.2651012 500.594736 33.032874 500.172126 33.5721316 499.328819 33.882874 499.546817 33.9880484 499.842261 34.3265186 500.21324 34.8973285L501.718189 37.1968223 501.109134 37.1968223 499.95126 35.3744376C499.564027 34.7644263 499.26189 34.3838864 499.04676 34.2328178 498.830675 34.0827053 498.515152 34.007171 498.099235 34.007171L497.200472 34.007171 497.200472 37.1968223 496.686074 37.1968223 496.686074 30.5459786zM506.10721 33.4533802C506.937132 33.1082171 507.352092 32.6559674 507.352092 32.0975872 507.352092 31.8279584 507.256479 31.6023116 507.066209 31.4216029 506.875939 31.2418504 506.635951 31.151018 506.347199 31.151018 506.048886 31.151018 505.799336 31.2418504 505.597593 31.4244713 505.395849 31.6061361 505.294499 31.8317829 505.294499 32.0975872 505.294499 32.5106355 505.56604 32.9619291 506.10721 33.4533802M507.652317 35.7911192L505.966659 34.0356637C505.471384 34.2479246 505.10901 34.4783521 504.878583 34.7259899 504.649111 34.9736277 504.53342 35.276721 504.53342 35.63527 504.53342 36.0033802 504.647199 36.2911755 504.873802 36.4976997 505.100405 36.7032677 505.415928 36.8065298 505.819415 36.8065298 506.485838 36.8065298 507.096805 36.4680596 507.652317 35.7911192M508.675377 33.8826828L509.22324 33.8826828C509.015759 34.5318954 508.709798 35.1600731 508.304398 35.7681721L509.661147 37.196631 509.002373 37.196631 508.002261 36.1554049C507.352092 36.9069235 506.5891 37.2826828 505.714241 37.2826828 505.19315 37.2826828 504.773408 37.137351 504.454061 36.8466873 504.135669 36.5560236 503.975996 36.1764398 503.975996 35.7060236 503.975996 34.8340326 504.525771 34.1580484 505.623408 33.6780709 505.071721 33.1043926 504.795399 32.587126 504.795399 32.1262711 504.795399 31.7208718 504.947424 31.3766648 505.25243 31.0955624 505.557435 30.8154162 505.931282 30.674865 506.375883 30.674865 506.794668 30.674865 507.141744 30.8048988 507.416153 31.0668785 507.690562 31.3279021 507.828245 31.6548988 507.828245 32.0478684 507.828245 32.7525366 507.365478 33.3376884 506.443768 33.8071485L507.942981 35.386676C508.246074 34.9353825 508.489888 34.4334139 508.675377 33.8826828" mask="url(#date-d)"/>
    <polygon fill="#231814" points="515.753 33.634 518.28 30.546 518.8 30.546 518.8 37.197 518.281 37.197 518.281 31.299 515.75 34.407 513.21 31.299 513.21 37.197 512.697 37.197 512.697 30.546 513.21 30.546" mask="url(#date-d)"/>
    <path fill="#231814" d="M524.986102 30.5456918L525.500501 30.5456918 525.500501 34.1732508C525.500501 35.1666704 525.242345 35.9334871 524.725079 36.4727447 524.207812 37.0129584 523.537565 37.2825872 522.715292 37.2825872 521.896845 37.2825872 521.22851 37.0158268 520.711243 36.482306 520.193976 35.9487852 519.935821 35.2192576 519.935821 34.2927672L519.935821 30.5456918 520.455 30.5456918 520.455 34.2736445C520.455 35.0672328 520.664393 35.6877615 521.08509 36.1352306 521.505787 36.5817435 522.049826 36.8064342 522.715292 36.8064342 523.388408 36.8064342 523.934359 36.5807874 524.356012 36.1275816 524.775754 35.6753318 524.986102 35.0337683 524.986102 34.2019348L524.986102 30.5456918zM529.775169 30.8790945L529.775169 31.4460799C529.197666 31.1056974 528.700478 30.9374184 528.284561 30.9374184 527.884899 30.9374184 527.551209 31.0578909 527.283493 31.300748 527.013864 31.5436052 526.880962 31.8447863 526.880962 32.2033352 526.880962 32.4595782 526.960321 32.6919179 527.119038 32.8974859 527.277756 33.1040101 527.608577 33.3019291 528.113414 33.4921991 528.618251 33.6834252 528.986361 33.8421429 529.217745 33.9683521 529.449128 34.0955174 529.646091 34.2800506 529.807677 34.5219516 529.970219 34.7628965 530.050534 35.0755512 530.050534 35.4589595 530.050534 35.9695332 529.864089 36.4017042 529.489286 36.7545163 529.115439 37.1063723 528.657452 37.2823003 528.118195 37.2823003 527.565551 37.2823003 526.99761 37.0882058 526.413414 36.7019291L526.413414 36.0966985C527.057846 36.5699831 527.616226 36.8061474 528.089511 36.8061474 528.48248 36.8061474 528.815214 36.6780259 529.086755 36.4236952 529.358296 36.1674522 529.494066 35.8538414 529.494066 35.4819066 529.494066 35.2008043 529.409927 34.9455174 529.241648 34.7189145 529.073369 34.4913555 528.73203 34.2800506 528.218588 34.0821316 527.70419 33.8851687 527.337036 33.7264511 527.117126 33.6059786 526.895304 33.4855062 526.708858 33.3124466 526.554921 33.0896682 526.400984 32.8659336 526.323538 32.5771822 526.323538 32.2253262 526.323538 31.7367435 526.510939 31.3208268 526.885742 30.9775759 527.259589 30.6324128 527.710883 30.4612655 528.237711 30.4612655 528.754978 30.4612655 529.267463 30.5999044 529.775169 30.8790945" mask="url(#date-d)"/>
    <polygon fill="#231814" points="530.97 37.197 531.483 37.197 531.483 30.546 530.97 30.546" mask="url(#date-d)"/>
    <path fill="#231814" d="M538.298211,31.0172553 L538.298211,31.5794601 C537.492193,31.1511136 536.70243,30.9369404 535.927964,30.9369404 C535.102823,30.9369404 534.412497,31.2170866 533.856985,31.7792913 C533.301474,32.3414961 533.02324,33.0423397 533.02324,33.8827784 C533.02324,34.7337345 533.30243,35.433622 533.861766,35.9824409 C534.420146,36.532216 535.132463,36.8066254 535.999674,36.8066254 C536.723465,36.8066254 537.511316,36.5790664 538.365141,36.1258605 L538.365141,36.6584252 C537.578245,37.074342 536.793262,37.2827784 536.008279,37.2827784 C534.996693,37.2827784 534.15243,36.957694 533.478358,36.3084814 C532.804286,35.6592688 532.466772,34.8513386 532.466772,33.8827784 C532.466772,32.9094376 532.811935,32.0948144 533.499393,31.4408211 C534.188763,30.787784 535.009123,30.4607874 535.961429,30.4607874 C536.710079,30.4607874 537.489325,30.6462767 538.298211,31.0172553" mask="url(#date-d)"/>
    <polygon fill="#231814" points="544.996 30.546 544.996 30.974 542.086 30.974 542.086 33.503 544.71 33.503 544.71 33.93 542.086 33.93 542.086 37.197 541.573 37.197 541.573 30.546" mask="url(#date-d)"/>
    <polygon fill="#231814" points="549.245 30.546 549.245 30.974 546.132 30.974 546.132 33.635 549.164 33.635 549.164 34.069 546.132 34.069 546.132 36.768 549.322 36.768 549.322 37.197 545.618 37.197 545.618 30.546" mask="url(#date-d)"/>
    <path fill="#231814" d="M553.272267,30.8790945 L553.272267,31.4460799 C552.694764,31.1056974 552.197576,30.9374184 551.781659,30.9374184 C551.381997,30.9374184 551.048307,31.0578909 550.780591,31.300748 C550.510962,31.5436052 550.37806,31.8447863 550.37806,32.2033352 C550.37806,32.4595782 550.457418,32.6919179 550.616136,32.8974859 C550.774854,33.1040101 551.105675,33.3019291 551.610512,33.4921991 C552.115349,33.6834252 552.483459,33.8421429 552.714843,33.9683521 C552.946226,34.0955174 553.143189,34.2800506 553.304775,34.5219516 C553.467317,34.7628965 553.547632,35.0755512 553.547632,35.4589595 C553.547632,35.9695332 553.361187,36.4017042 552.986384,36.7545163 C552.612537,37.1063723 552.15455,37.2823003 551.615292,37.2823003 C551.062649,37.2823003 550.494708,37.0882058 549.910512,36.7019291 L549.910512,36.0966985 C550.554944,36.5699831 551.113324,36.8061474 551.586609,36.8061474 C551.979578,36.8061474 552.312312,36.6780259 552.583853,36.4236952 C552.855394,36.1674522 552.991164,35.8538414 552.991164,35.4819066 C552.991164,35.2008043 552.907025,34.9455174 552.738746,34.7189145 C552.570467,34.4913555 552.229128,34.2800506 551.715686,34.0821316 C551.201288,33.8851687 550.834134,33.7264511 550.614224,33.6059786 C550.392402,33.4855062 550.205956,33.3124466 550.052019,33.0896682 C549.898082,32.8659336 549.820636,32.5771822 549.820636,32.2253262 C549.820636,31.7367435 550.008037,31.3208268 550.38284,30.9775759 C550.756687,30.6324128 551.207981,30.4612655 551.734809,30.4612655 C552.252075,30.4612655 552.764561,30.5999044 553.272267,30.8790945" mask="url(#date-d)"/>
    <polygon fill="#231814" points="559.25 30.546 559.25 30.974 556.755 30.974 556.755 37.197 556.236 37.197 556.236 30.974 553.742 30.974 553.742 30.546" mask="url(#date-d)"/>
    <polygon fill="#231814" points="559.812 37.197 560.325 37.197 560.325 30.546 559.812 30.546" mask="url(#date-d)"/>
    <polygon fill="#231814" points="566.598 30.546 563.812 37.263 563.66 37.263 560.863 30.546 561.384 30.546 563.74 36.173 566.08 30.546" mask="url(#date-d)"/>
    <path fill="#231814" d="M571.065281,34.4692688 L569.632998,31.3369854 L568.204539,34.4692688 L571.065281,34.4692688 Z M569.77833,30.4984589 L572.853245,37.1971091 L572.313988,37.1971091 L571.261288,34.8966592 L568.009488,34.8966592 L566.961569,37.1971091 L566.422312,37.1971091 L569.495315,30.4984589 L569.77833,30.4984589 Z" mask="url(#date-d)"/>
    <polygon fill="#231814" points="573.928 30.546 573.928 36.768 577.217 36.768 577.217 37.197 573.414 37.197 573.414 30.546" mask="url(#date-d)"/>
    <path fill="#231814" d="M441.371344,23.56527 C441.371344,13.3404106 449.658127,5.05553993 459.88203,5.05553993 C470.104021,5.05553993 478.392717,13.3404106 478.392717,23.56527 C478.392717,33.7843926 470.104021,42.075 459.88203,42.075 C449.658127,42.075 441.371344,33.7843926 441.371344,23.56527" mask="url(#date-d)"/>
    <path fill="#FFF000" d="M447.871024 19.4624184C447.871024 20.1900337 448.078504 20.7895276 448.492508 21.2589876 448.908425 21.7284477 449.456288 21.9636558 450.138009 21.9636558 450.779573 21.9636558 451.312137 21.7265354 451.734747 21.2532508 452.157357 20.7799663 452.369618 20.213937 452.369618 19.5561192 452.369618 18.7730484 452.155444 18.1362655 451.72901 17.6476828 451.302576 17.158144 450.748976 16.9133746 450.067255 16.9133746 449.409438 16.9133746 448.879741 17.1476265 448.476254 17.6180427 448.072767 18.0884589 447.871024 18.7022947 447.871024 19.4624184M450.067255 14.2237795C451.100832 14.2237795 452.029235 14.4656805 452.850551 14.9513948 453.672823 15.4371091 454.306738 16.1207424 454.753251 17.0013386 455.199764 17.8828909 455.422542 18.8944769 455.422542 20.038009 455.422542 21.76 454.900495 23.6206299 453.855444 25.6170304 452.809438 27.6134308 451.418268 29.4262542 449.680022 31.0545444L446.097402 31.0545444C447.028673 30.2485264 448.014443 29.1508886 449.056625 27.7606749 450.098808 26.3704612 450.835028 25.1466142 451.265287 24.09009 450.678223 24.3405962 450.051001 24.4648931 449.385534 24.4648931 448.086153 24.4648931 447.011462 24.0011699 446.162418 23.0737233 445.312418 22.1462767 444.88694 20.9568504 444.88694 19.5092688 444.88694 18.5540945 445.110675 17.6706299 445.557188 16.8598313 446.003701 16.0499888 446.625186 15.4084252 447.424511 14.9341845 448.22288 14.4608999 449.103476 14.2237795 450.067255 14.2237795M461.15225 16.5072103L461.15225 20.0898313 464.182227 20.0898313 464.182227 21.0287514 461.15225 21.0287514 461.15225 27.4539483C461.15225 28.4875253 461.236389 29.1673341 461.404668 29.4924184 461.572947 29.8175028 462.025197 29.980045 462.761417 29.980045 463.324578 29.980045 463.983352 29.8031609 464.734871 29.4513048L464.734871 30.5546794C463.974747 30.9227897 463.230877 31.1073228 462.503262 31.1073228 461.789989 31.1073228 461.195276 30.903667 460.71721 30.4963555 460.240101 30.0890439 460.001069 29.525883 460.001069 28.8049606L460.001069 21.0287514 457.087739 21.0287514 457.087739 20.0898313 460.001069 20.0898313 460.001069 17.5178403 460.787964 16.5072103 461.15225 16.5072103zM466.846102 14.4875759L466.846102 21.969297 466.893909 21.969297C467.793628 20.5752587 468.979229 19.8791957 470.45167 19.8791957 471.674561 19.8791957 472.648858 20.2702531 473.37743 21.0523678 474.105045 21.8363948 474.469331 22.9129978 474.469331 24.2831327L474.469331 30.8957312 473.319106 30.8957312 473.319106 24.7411192C473.319106 22.2513555 472.339072 21.0055174 470.381873 21.0055174 468.979229 21.0055174 467.801277 21.7771147 466.846102 23.3193532L466.846102 30.8957312 465.695877 30.8957312 465.695877 14.4875759 466.846102 14.4875759z" mask="url(#date-d)"/>
  </g>
</svg>
