<svg xmlns="http://www.w3.org/2000/svg" width="260" height="25" viewBox="0 0 260 25">
  <g fill="#E50012" fill-rule="evenodd">
    <path d="M138.913714,18.9610857 L143.582286,18.9610857 L143.582286,17.4262286 L138.913714,17.4262286 L138.913714,18.9610857 Z M135.848571,9.15537143 L146.389143,9.15537143 L146.389143,7.67251429 L135.848571,7.67251429 L135.848571,9.15537143 Z M146.389143,12.1462286 L146.389143,11.1062286 L135.848571,11.1062286 L135.848571,11.8079429 L133.156,12.1205143 L133.156,12.5622286 L148.737714,12.5622286 L150.169714,11.5479429 L146.389143,12.1462286 Z M151.430286,1.11822857 L154.151429,3.3548 L152.890857,4.52565714 L148.078857,4.52565714 L151.716571,7.04851429 L150.685714,7.88051429 L150.685714,11.1839429 L150.713714,11.1576571 L154.581143,13.7588 L153.349143,14.8770857 L153.349143,21.6399429 C153.349143,23.5382286 152.432571,24.5010857 150.628,24.5010857 L148.193143,24.5010857 C148.193143,22.9405143 147.219429,22.1856571 145.272,22.1856571 L145.300571,21.3793714 L143.582286,21.6399429 L143.582286,20.8073714 L138.913143,20.8073714 L138.913143,21.7702286 L134.874286,22.2382286 L134.874286,14.5908 L138.913143,15.0336571 L138.913143,15.6056571 L143.696571,15.6056571 L144.928,14.5908 L148.508571,17.0616571 L147.506286,17.8165143 L147.506286,20.4953714 C147.849714,20.4953714 148.193143,20.4690857 148.508571,20.4690857 C148.909714,20.4690857 149.110286,20.2090857 149.110286,19.6890857 L149.110286,14.5388 L133.156,14.5388 L133.156,24.1628 L128.974286,24.6313714 L128.974286,11.2096571 L131.580571,11.4696571 L131.580571,4.62965714 L135.848571,5.07137143 L135.848571,5.66965714 L146.532,5.66965714 L147.677714,4.52565714 L128.601714,4.52565714 L128.028571,2.49651429 L139.027429,2.49651429 L139.027429,0.181657143 L143.84,0.727942857 L143.84,2.49651429 L149.74,2.49651429 L151.430286,1.11822857 Z"/>
    <path d="M170.590857,21.5359429 L172.424,21.5359429 L172.424,17.5828 L170.590857,17.5828 L170.590857,21.5359429 Z M170.590857,15.6056571 L172.424,15.6056571 L172.424,11.8079429 L170.590857,11.8079429 L170.590857,15.6056571 Z M170.590857,9.85765714 L172.424,9.85765714 L172.424,6.26794286 L170.590857,6.26794286 L170.590857,9.85765714 Z M164.318286,3.69308571 L166.695429,5.64394286 C167.125143,3.97937143 167.468571,2.18451429 167.726286,0.285657143 L171.937143,0.936514286 C171.708,2.13251429 171.421714,3.27651429 171.106286,4.31765714 L172.825143,4.31765714 L173.484,0.519942857 L177.637143,1.11822857 L175.832571,4.31765714 L176.377143,4.31765714 L178.009714,2.9388 L180.730286,5.12394286 L179.441714,6.26794286 L176.290857,6.26794286 L176.290857,9.85765714 L176.577143,9.85765714 L178.038286,8.76508571 L180.472571,10.7159429 L179.326857,11.8079429 L176.290857,11.8079429 L176.290857,15.6056571 L176.377143,15.6056571 L177.923429,14.3833714 L180.472571,16.4382286 L179.269714,17.5828 L176.290857,17.5828 L176.290857,21.5359429 L176.405143,21.5359429 L178.095429,20.1056571 L180.902286,22.3422286 L179.584571,23.4868 L170.590857,23.4868 L170.590857,24.2930857 L166.609714,24.7085143 L166.609714,21.6136571 L163.802286,23.3565143 C163.688,22.7319429 163.573143,22.1599429 163.458857,21.6399429 C160.794857,22.4719429 158.245714,23.1748 155.782857,23.7730857 L155.295429,20.0530857 C155.868571,20.0530857 156.441143,20.0273714 156.985714,19.9753714 C158.761143,16.3336571 160.107429,12.5879429 160.966857,8.7388 L164.890857,9.38965714 C164.261143,11.7296571 163.401714,13.7850857 162.313143,15.5536571 C161.597143,17.0879429 160.794857,18.4925143 159.878857,19.7410857 C160.995429,19.6370857 161.998286,19.5073714 162.857143,19.3245143 C162.599429,18.4925143 162.341714,17.7382286 162.112571,17.0365143 L163.917143,15.9696571 C164.976571,17.4782286 165.865143,19.0645143 166.609714,20.7039429 L166.609714,12.9525143 C166.208571,13.4205143 165.778857,13.8628 165.349143,14.2788 L164.06,12.6405143 C165.091429,10.7159429 165.922286,8.55708571 166.581143,6.11194286 L165.664571,6.86622857 L160.966857,6.86622857 C159.391429,12.1982286 157.558286,16.1519429 155.496,18.7268 L153.892,17.7382286 C154.636571,16.1256571 155.438857,13.5770857 156.297714,10.0913714 C156.556,9.05137143 156.785143,7.9588 157.014286,6.86622857 L154.464571,6.86622857 L153.920571,4.99365714 L157.386286,4.99365714 C157.644,3.48508571 157.873714,1.95022857 158.102857,0.363942857 L162.428,1.01365714 C162.112571,2.41822857 161.797143,3.74508571 161.482286,4.99365714 L162.828571,4.99365714 L164.318286,3.69308571 Z"/>
    <path d="M199.833714,7.10051429 L201.838857,7.10051429 L201.838857,5.07137143 L199.833714,5.07137143 L199.833714,7.10051429 Z M199.833714,10.2736571 C199.805143,10.7416571 199.776571,11.1319429 199.719429,11.4439429 L201.838857,11.4439429 L201.838857,8.9988 L199.833714,8.9988 L199.833714,10.2736571 Z M196.138857,11.4439429 C196.253143,10.9759429 196.310286,10.5079429 196.310286,10.0136571 L196.310286,8.9988 L194.592,8.9988 L194.592,11.4439429 L196.138857,11.4439429 Z M194.592,7.10051429 L196.310286,7.10051429 L196.310286,5.07137143 L194.592,5.07137143 L194.592,7.10051429 Z M197.485143,15.3456571 C196.339429,16.3336571 194.764,17.0616571 192.701714,17.5302286 L197.742857,17.5302286 L197.742857,15.0850857 C197.628571,15.1890857 197.542286,15.2936571 197.485143,15.3456571 L197.485143,15.3456571 Z M194.592,2.47022857 L194.592,3.25137143 L195.165143,3.25137143 C195.451429,2.28851429 195.709143,1.24851429 195.938286,0.155942857 L200.750286,1.03994286 C200.005714,1.89822857 199.261143,2.6268 198.573143,3.25137143 L201.494857,3.25137143 L203.356571,1.71651429 L206.937143,4.23937143 L205.734286,5.27937143 L205.734286,13.7325143 L201.838857,14.1753714 L201.838857,13.3428 L199.060571,13.3428 C198.888571,13.7068 198.688,13.9925143 198.516,14.2273714 L202.211429,14.6170857 L202.211429,17.5302286 L202.898286,17.5302286 L204.502286,16.0479429 L207.309143,18.3365143 L205.963429,19.4028 L202.211429,19.4028 L202.211429,24.2148 L197.742857,24.7348 L197.742857,19.4028 L190.124,19.4028 L189.579429,17.5302286 L191.527429,17.5302286 L190.639429,16.2553714 C192.415429,15.6570857 193.732571,14.9290857 194.620571,14.0708 C194.849714,13.8370857 195.078857,13.6028 195.250857,13.3428 L194.592,13.3428 L194.592,14.0708 L190.753714,14.5136571 L190.753714,2.0548 L194.592,2.47022857 Z M184.566857,17.3479429 L185.741143,17.3479429 L185.741143,4.78565714 L184.566857,4.78565714 L184.566857,17.3479429 Z M184.566857,2.00222857 L184.566857,2.65308571 L185.713143,2.65308571 L187.001714,1.40394286 L190.553714,3.74508571 L189.465143,4.73308571 L189.465143,20.9639429 L185.741143,21.3016571 L185.741143,19.4810857 L184.566857,19.4810857 L184.566857,21.8473714 L180.814857,22.2639429 L180.814857,1.58622857 L184.566857,2.00222857 Z"/>
    <path d="M226.642286,11.1841143 C226.642286,11.5224 226.842857,11.6778286 227.272571,11.6778286 L227.673143,11.6778286 L227.673143,7.88068571 L226.642286,7.88068571 L226.642286,11.1841143 Z M222.718286,5.98182857 L223.606286,5.98182857 L223.606286,3.3544 L222.718286,3.3544 L222.718286,5.98182857 Z M218.565143,20.9641143 L227.673143,20.9641143 L227.673143,18.3629714 L218.565143,18.3629714 L218.565143,20.9641143 Z M219.710857,10.1955429 L219.710857,7.88068571 L218.565143,7.88068571 L218.565143,13.9926857 C219.309714,12.8486857 219.710857,11.6001143 219.710857,10.1955429 L219.710857,10.1955429 Z M227.673143,16.4898286 L227.673143,14.5132571 L225.610857,14.5132571 C224.264571,14.5132571 223.606286,13.7589714 223.606286,12.2504 L223.606286,7.88068571 L222.718286,7.88068571 L222.718286,9.77954286 C222.718286,12.2241143 221.658286,14.2532571 219.538857,15.8138286 L218.565143,15.0852571 L218.565143,16.4898286 L227.673143,16.4898286 Z M213.953143,3.58925714 L210.802857,6.52868571 C209.886286,4.55154286 208.912,2.91268571 207.881143,1.66468571 L209.428,0.363542857 C211.318286,1.45668571 212.836,2.52297143 213.953143,3.58925714 L213.953143,3.58925714 Z M214.526286,8.11497143 L214.526286,4.57725714 L218.565143,4.99382857 L218.565143,5.98182857 L219.710857,5.98182857 L219.710857,3.35497143 L213.896,3.35497143 L213.323429,1.48182857 L229.134286,1.48182857 L230.738286,0.000114285714 L233.545143,2.26297143 L232.198857,3.35497143 L226.642286,3.35497143 L226.642286,5.98182857 L227.530286,5.98182857 L229.449143,4.49954286 L233.144,7.0744 L231.855429,8.16697143 L231.855429,24.0584 L227.673143,24.5269714 L227.673143,22.8366857 L218.565143,22.8366857 L218.565143,24.3184 L214.526286,24.7869714 L214.526286,9.64925714 L210.917143,17.8161143 C211.977143,18.8046857 213.094286,20.1309714 214.297143,21.7955429 L210.058286,24.7869714 C209.485143,22.0298286 208.568571,19.6372571 207.308571,17.6081143 L213.638286,7.72468571 L214.526286,8.11497143 Z M212.492571,9.05154286 L209.399429,11.8864 C208.453714,10.0132571 207.451429,8.47897143 206.42,7.2824 L208.110286,5.85211429 C209.943429,6.9184 211.404,7.98468571 212.492571,9.05154286 L212.492571,9.05154286 Z"/>
    <path d="M253.679371,18.7790286 C254.051371,18.7790286 254.252514,18.5447429 254.252514,18.0767429 L254.252514,10.5333143 L251.931943,10.5333143 L251.931943,18.7264571 C252.533657,18.7790286 253.106229,18.7790286 253.679371,18.7790286 L253.679371,18.7790286 Z M241.821657,19.5327429 C241.3628,19.0647429 240.905086,18.6230286 240.475371,18.2064571 L241.821657,17.0881714 C241.993086,17.1664571 242.136514,17.2441714 242.279371,17.2961714 L242.279371,16.3338857 L238.785086,16.3338857 L238.785086,19.9756 C239.9308,19.8453143 240.933086,19.6893143 241.821657,19.5327429 L241.821657,19.5327429 Z M238.785086,14.4350286 L242.279371,14.4350286 L242.279371,13.3944571 L238.785086,13.3944571 L238.785086,14.4350286 Z M238.785086,11.6001714 L242.279371,11.6001714 L242.279371,10.5601714 L238.785086,10.5601714 L238.785086,11.6001714 Z M257.030229,1.74245714 L259.637657,3.82302857 L258.405657,4.8636 L253.879943,4.8636 C254.796514,5.40988571 255.598229,5.95617143 256.286229,6.47617143 L252.877657,8.55674286 C252.2188,7.46417143 251.445657,6.42417143 250.557657,5.4356 C249.812514,6.21617143 249.039371,6.89217143 248.2948,7.46417143 L251.931943,7.82874286 L251.931943,8.66074286 L253.937086,8.66074286 L255.827943,7.02245714 L259.494229,9.5196 L258.348514,10.5858857 L258.348514,19.8453143 C258.348514,21.6138857 257.459943,22.4984571 255.684514,22.4984571 L253.278229,22.4984571 C253.278229,21.5876 252.820514,20.9636 251.931943,20.6510286 L251.931943,24.1630286 L247.635943,24.6567429 L247.635943,21.0938857 L244.9148,23.6167429 C244.342229,22.6801714 243.769086,21.8738857 243.195943,21.1458857 C240.790229,22.4201714 237.839943,23.5121714 234.345657,24.4230286 L232.9708,20.5213143 C233.543371,20.4693143 234.145086,20.4436 234.717657,20.3910286 L234.717657,7.75045714 L233.027943,6.89217143 C235.1188,4.78588571 236.522229,2.57502857 237.2668,0.260171429 L241.592514,1.43045714 C241.219943,2.02874286 240.847371,2.57502857 240.475371,3.04302857 L243.053086,3.04302857 L244.628514,1.71674286 L247.263371,3.82302857 L246.031943,4.8636 L241.620514,4.8636 C242.479943,5.4356 243.225086,5.98188571 243.8548,6.50245714 L240.360514,8.63502857 C239.787371,7.46417143 239.129086,6.39788571 238.383943,5.4356 C237.524514,6.29388571 236.637086,7.02245714 235.720514,7.62074286 L238.785086,7.93274286 L238.785086,8.68702857 L241.907371,8.68702857 L243.826229,7.12645714 L247.492514,9.70131429 L246.232514,10.7676 L246.232514,16.9064571 L242.365657,17.3481714 C244.485086,18.3624571 246.261086,19.3510286 247.635943,20.3390286 L247.635943,7.90702857 L245.545086,6.84017143 C247.4068,4.73331429 248.667371,2.52302857 249.297086,0.2076 L253.593657,1.37845714 C253.221086,2.00245714 252.848514,2.54874286 252.505086,3.04302857 L255.483943,3.04302857 L257.030229,1.74245714 Z"/>
    <polygon points="46.945 19.062 46.945 3.224 40.69 3.224 40.69 23.223 42.378 23.223 46.945 23.223 51.739 23.223 51.739 19.062"/>
    <polygon points="36.802 7.27 36.826 3.224 25.892 3.238 25.892 23.234 27.442 23.234 32.119 23.234 36.802 23.234 36.802 19.077 32.119 19.077 32.119 15.231 36.802 15.231 36.802 11.088 32.119 11.088 32.119 7.27"/>
    <polygon points="64.504 7.261 64.504 3.224 53.571 3.224 53.571 23.223 55.135 23.223 59.823 23.223 64.504 23.223 64.504 19.062 59.823 19.062 59.823 15.23 64.504 15.23 64.504 11.071 59.823 11.071 59.823 7.261"/>
    <polygon points="95.134 7.261 95.118 3.238 84.207 3.224 84.207 23.223 85.784 23.223 90.448 23.223 95.134 23.223 95.134 19.062 90.448 19.062 90.448 15.23 95.134 15.23 95.134 11.071 90.448 11.071 90.448 7.261"/>
    <polygon points="16.479 15.299 22.886 15.299 22.886 11.141 16.479 11.141"/>
    <path d="M11.4006286,3.22377143 L5.71428571e-05,3.22377143 L5.71428571e-05,7.9032 L6.32691429,7.89405714 C6.32691429,7.89405714 7.72691429,4.92262857 11.4006286,3.22377143"/>
    <path d="M9.90177143,17.3710857 L9.90177143,23.5493714 L4.42177143,23.5493714 L4.42177143,18.3539429 C4.42177143,18.3539429 4.42177143,18.2230857 4.42977143,17.9973714 C4.45777143,15.2305143 5.67148571,4.52994286 14.8457714,2.90365714 L14.8446286,8.45851429 C14.8446286,8.45851429 10.4286286,8.95622857 9.90177143,17.3710857"/>
    <polygon points="81.767 3.354 77.412 3.354 74.912 17.379 72.718 3.354 66.872 3.375 69.985 23.082 75.82 23.082 75.812 23.076 78.617 23.056"/>
    <path d="M109.142 2.93245714C106.482571 3.08845714 104.67 4.53874286 104.67 4.53874286L104.67 3.43702857 98.4237143 3.43702857 98.4237143 23.5284571 104.67 23.5284571 104.67 8.95645714 104.67 8.83474286C104.776286 7.89417143 107.555143 6.71474286 107.627143 9.47474286L107.627143 23.5284571 113.883714 23.5284571 113.883714 5.99188571C113.825429 4.19131429 111.600286 2.75645714 109.142 2.93245714M116.159029 22.4882857L116.684743 22.4882857 116.684743 21.2877143 117.105314 21.2877143C117.411029 21.2877143 117.610457 21.3134286 117.728171 21.3911429 117.905314 21.5128571 118.009886 21.7328571 118.009886 22.0797143L118.009886 22.3311429 118.009886 22.43 118.009886 22.4677143 118.009886 22.4882857 118.5316 22.4882857 118.504171 22.4677143C118.504171 22.43 118.504171 22.3654286 118.497314 22.29L118.497314 22.0797143 118.497314 21.8414286C118.497314 21.6928571 118.4396 21.53 118.317886 21.374 118.188171 21.2185714 118.009886 21.1214286 117.786457 21.0774286 117.975029 21.0465714 118.1316 21.0077143 118.240743 20.9117143 118.4396 20.7865714 118.5316 20.5917143 118.5316 20.31 118.5316 19.9385714 118.3716 19.6808571 118.0636 19.5288571 117.884743 19.4791429 117.610457 19.4294286 117.220743 19.4294286L116.159029 19.4294286 116.159029 22.4882857zM117.6916 20.8311429C117.548171 20.8842857 117.411029 20.9117143 117.197314 20.9117143L116.684743 20.9117143 116.684743 19.81 117.148743 19.81C117.446457 19.81 117.667029 19.8534286 117.8276 19.9277143 117.9516 20.0025714 118.009886 20.1414286 118.009886 20.3637143 118.009886 20.61 117.905314 20.7522857 117.6916 20.8311429L117.6916 20.8311429zM119.093886 19.1774286C118.5876 18.6785714 117.994457 18.4231429 117.295029 18.4231429 116.578457 18.4231429 115.990457 18.6785714 115.496743 19.1774286 114.977314 19.658 114.728171 20.2665714 114.728171 20.978 114.728171 21.6814286 114.977314 22.286 115.4716 22.7837143 115.9716 23.282 116.578457 23.5488571 117.295029 23.5488571 117.994457 23.5488571 118.5876 23.282 119.093886 22.7837143 119.593886 22.286 119.834457 21.6814286 119.834457 20.978 119.834457 20.2665714 119.593886 19.658 119.093886 19.1774286L119.093886 19.1774286zM118.832743 19.4077143C119.252743 19.8534286 119.479029 20.3637143 119.479029 20.978 119.479029 21.5917143 119.252743 22.1014286 118.832743 22.5282857 118.4076 22.9705714 117.884743 23.1608571 117.295029 23.1608571 116.6636 23.1608571 116.159029 22.9705714 115.725886 22.5282857 115.305886 22.1014286 115.099029 21.5917143 115.099029 20.978 115.099029 20.3637143 115.305886 19.8534286 115.725886 19.4077143 116.159029 18.9934286 116.684743 18.7854286 117.295029 18.7854286 117.884743 18.7854286 118.4076 18.9934286 118.832743 19.4077143L118.832743 19.4077143z"/>
  </g>
</svg>
