<svg xmlns="http://www.w3.org/2000/svg" width="395" height="399" viewBox="0 0 395 399">
  <g fill="none" fill-rule="evenodd" transform="translate(-8)">
    <path fill="#FFC331" d="M402.748649,335.696623 C401.731002,331.053179 397.498576,327.567851 392.43777,327.567851 L367.383349,327.567851 C363.886044,327.567851 360.778242,329.236418 358.866382,331.802387 C356.940807,329.236418 353.835748,327.567851 350.3357,327.567851 L325.297737,327.567851 C319.477124,327.567851 314.742732,332.167386 314.742732,337.826241 L314.742732,360.939178 C314.742732,366.595288 319.477124,371.197567 325.297737,371.197567 L329.297008,371.197567 C329.039168,371.889144 328.729211,372.539556 328.375366,373.137824 L24.4252471,373.137824 C15.3761411,373.137824 8.03865741,365.793937 8.03865741,356.745807 L8.03865741,61.8132759 C8.03865741,67.4721307 12.7730487,72.0744098 18.5772041,72.0744098 L43.6179101,72.0744098 C47.1316733,72.0744098 50.2367318,70.4030992 52.151335,67.8398739 C54.0769102,70.4030992 57.1847117,72.0744098 60.682017,72.0744098 L85.722723,72.0744098 C91.5405932,72.0744098 96.2612696,67.4721307 96.2612696,61.8132759 L96.2612696,38.7140609 C96.2612696,33.0552061 91.5405932,28.4556713 85.722723,28.4556713 L81.7207085,28.4556713 C82.1815299,27.2207127 82.7795006,26.1339491 83.4981625,25.2255684 C83.8629795,24.7645172 84.2826561,24.3309095 84.7599354,23.8945574 L386.362059,23.8945574 C395.408422,23.8945574 402.748649,31.2384447 402.748649,40.2893192 L402.748649,335.696623 Z M89.484452,61.8193134 C89.484452,63.7376158 87.8002595,65.2909193 85.7238202,65.2909193 L60.6803712,65.2909193 C58.6039319,65.2909193 56.9197394,63.7376158 56.9197394,61.8193134 L56.9197394,43.7944062 C56.9197394,35.0234557 57.7481207,28.143364 59.4103693,23.1513868 C61.072618,18.1594096 64.1639616,13.6669046 68.6816571,9.67387167 C72.8455077,5.99643932 78.0050616,3.04351604 84.1685479,0.817846166 C85.0709899,0.491268219 86.0941231,0.883710626 86.5110567,1.69329461 L91.267392,10.9554843 C91.7336993,11.8583763 91.259163,12.9369068 90.2470017,13.2936726 C84.7418317,15.2311855 80.7206163,17.8053881 78.1833556,21.0107918 C75.3635675,24.5784501 73.8768699,29.3179468 73.7232627,35.2347708 L85.7238202,35.2347708 C87.8002595,35.2347708 89.484452,36.7908187 89.484452,38.7091211 L89.484452,61.8193134 Z M47.3862222,61.8193134 C47.3862222,63.7376158 45.7020297,65.2909193 43.6255904,65.2909193 L18.5821414,65.2909193 C16.5057021,65.2909193 14.8215096,63.7376158 14.8215096,61.8193134 L14.8215096,43.7944062 C14.8215096,35.0234557 15.6498909,28.143364 17.3121396,23.1513868 C18.9743882,18.1594096 22.0657318,13.6669046 26.5834274,9.67387167 C30.7472779,5.99643932 35.9068319,3.04351604 42.0703182,0.817846166 C42.9727601,0.491268219 43.9986363,0.883710626 44.412827,1.69329461 L49.1691622,10.9554843 C49.6354696,11.8583763 49.1609333,12.9369068 48.148772,13.2936726 C42.643602,15.2311855 38.6223866,17.8053881 36.0878689,21.0107918 C33.2653378,24.5784501 31.7786401,29.3179468 31.625033,35.2347708 L43.6255904,35.2347708 C45.7020297,35.2347708 47.3862222,36.7908187 47.3862222,38.7091211 L47.3862222,61.8193134 Z M321.530522,337.823496 C321.530522,335.907938 323.214715,334.351891 325.291154,334.351891 L350.334603,334.351891 C352.411042,334.351891 354.095235,335.907938 354.095235,337.823496 L354.095235,355.851148 C354.095235,364.622099 353.266853,371.499446 351.604605,376.494167 C349.942356,381.4834 346.851012,385.975905 342.333317,389.971683 C338.169466,393.649115 333.009912,396.599294 326.846426,398.827708 C325.943984,399.154286 324.918108,398.761844 324.503917,397.95226 L319.747582,388.69007 C319.281275,387.784434 319.755811,386.705903 320.767972,386.349137 C326.273142,384.411624 330.294358,381.840166 332.828875,378.632018 C335.651406,375.067104 337.135361,370.324863 337.291711,364.408039 L325.291154,364.408039 C323.214715,364.408039 321.530522,362.851991 321.530522,360.936433 L321.530522,337.823496 Z M363.629026,337.823496 C363.629026,335.907938 365.313219,334.351891 367.389658,334.351891 L392.433107,334.351891 C394.509546,334.351891 396.193739,335.907938 396.193739,337.823496 L396.193739,355.851148 C396.193739,364.622099 395.365357,371.499446 393.703109,376.494167 C392.04086,381.4834 388.949516,385.975905 384.431821,389.971683 C380.26797,393.649115 375.108416,396.599294 368.94493,398.827708 C368.042488,399.154286 367.016612,398.761844 366.602421,397.95226 L361.846086,388.69007 C361.379779,387.784434 361.854315,386.705903 362.866476,386.349137 C368.371646,384.411624 372.392862,381.840166 374.927379,378.632018 C377.747168,375.067104 379.233865,370.324863 379.390215,364.408039 L367.389658,364.408039 C365.313219,364.408039 363.629026,362.851991 363.629026,360.936433 L363.629026,337.823496 Z"/>
    <g fill="#FFF" transform="matrix(-1 0 0 1 98.882 291.02)">
      <path d="M35.1284665 34.8898544C36.3780584 36.1405554 36.3853235 38.1788698 35.1320991 39.4405099 33.8716096 40.7021499 31.8446553 40.7021499 30.5877984 39.4405099 29.334574 38.1788698 29.334574 36.1405554 30.5877984 34.8898544 31.8446553 33.6318607 33.8716096 33.6318607 35.1284665 34.8898544M39.6586003 30.3282599C40.9154572 31.5971926 40.9154572 33.6318607 39.6658654 34.8898544 38.4090084 36.1478481 36.3784216 36.1405554 35.1288298 34.8898544 33.8719728 33.6318607 33.8719728 31.5898999 35.1288298 30.3282599 36.3784216 29.0739125 38.4053759 29.0739125 39.6586003 30.3282599M35.4724675 56.2480349C33.0749948 55.3911407 30.7501727 54.3665139 28.4980013 53.2434355 30.4087145 49.0027205 28.7486462 42.8914236 23.9537007 38.0782303 21.9013187 36.0143914 19.0570442 33.7463564 15.4463049 34.6178361 14.9450151 34.7418123 14.5490688 35.1319726 14.3965024 35.6315237 14.2584661 36.1383676 14.3965024 36.681675 14.7670209 37.0499572 14.8106113 37.0973599 18.6138749 40.9916708 17.5967653 43.9999166L8.63893522 35.0079964C8.07589237 34.4391645 7.16412622 34.4391645 6.60108337 35.0079964 2.59439782 39.0226372 3.93480305 46.6836365 9.66694248 52.4193585 11.8609933 54.621759 14.3347493 56.1714614 16.77218 57.032002 19.2749962 58.1368487 21.6761015 58.9609257 24.200713 59.7303074 27.4663615 60.7111778 30.7901306 61.4222177 34.1175322 61.9108298 40.790498 62.8698221 47.5724399 62.7276141 54.002026 61.3711687L53.7804414 59.4021351C47.4598314 59.4495377 41.2663601 58.2972884 35.4724675 56.2480349M56.4129391 35.2245901C55.555661 32.8179935 54.5349188 30.4916167 53.4160982 28.2235817 49.2023582 30.1452127 43.1033328 28.4751805 38.3192848 23.6656335 36.2523727 21.5981482 33.9929362 18.7503422 34.8720096 15.1258618 34.9918832 14.6226644 35.3841969 14.2179186 35.8818542 14.0684179 36.3758789 13.9298562 36.9316566 14.0757106 37.2912776 14.4403464 37.3385005 14.4877491 41.2180473 18.3018401 44.2076232 17.2808597L35.2570582 8.29623228C34.6867503 7.73104671 34.6867503 6.808518 35.2570582 6.24697878 39.2601113 2.22869167 46.8811686 3.57055161 52.5951454 9.32085903 54.8000938 11.526906 56.3366559 14.0027834 57.1903015 16.4604291 58.3018571 18.9727701 59.1264424 21.3757204 59.8892747 23.9099396 60.8627939 27.1843695 61.5784032 30.5207876 62.0578977 33.8717911 63.0059893 40.562859 62.8679529 47.3742568 61.5275477 53.8210187L59.5514489 53.6095299C59.5986719 47.2612197 58.4616886 41.040532 56.4129391 35.2245901"/>
      <path d="M60.0807092,41.7158376 C72.6056882,54.2848355 92.3121878,82.2159419 87.3029227,87.2552095 C82.2827601,92.2835379 54.4539133,72.5056891 41.9289344,59.9330449 C29.4112205,47.3567543 30.1159322,39.9181828 35.1288298,34.8898544 C40.1417274,29.8578796 47.5557303,29.1468397 60.0807092,41.7158376"/>
      <path d="M88.3214854,89.2504968 C89.7454389,93.1521005 88.2669974,97.2797784 85.015879,98.4611985 C81.7756582,99.6462651 78.00872,97.4402181 76.588399,93.5386145 C75.1789756,89.6406572 77.8561535,82.3953428 79.0403598,81.9650725 C80.2173009,81.5311558 86.912062,85.3379541 88.3214854,89.2504968"/>
      <path d="M89.2899191,88.2783777 C93.176731,89.7041039 97.2887601,88.2200359 98.4620687,84.9638377 C99.6462749,81.7076396 97.4522241,77.919073 93.5617797,76.5006396 C89.6713352,75.0822061 82.4498566,77.7768651 82.0284826,78.9582852 C81.5998436,80.136059 85.3994747,86.8599442 89.2899191,88.2783777"/>
      <path d="M93.1033538 84.4467841C96.0275441 87.3893954 96.4271229 91.7504403 93.9824272 94.2080859 91.5449965 96.6511461 87.1968527 96.2573394 84.2726625 93.3110817 81.3412071 90.3794095 80.7382064 82.6819466 81.6209123 81.7849424 82.4999856 80.8952309 90.1718985 81.5041728 93.1033538 84.4467841M31.7298672 38.2973765C29.8155216 36.3101111 27.5524526 34.4140046 25.2385281 32.7330333 22.8919108 31.0484157 20.4217874 29.5315305 17.8281577 28.2407196 12.6590611 25.6663905 6.96687959 24.0291755 1.10396892 23.810394.933239797 23.810394.802468555 23.6645396.802468555 23.4895144.806101089 23.3290746.940504866 23.190513 1.10760145 23.1868667 7.05769296 22.9498534 13.0550074 24.2042007 18.6164177 26.4868211 21.3916741 27.6135459 24.0833821 29.0101013 26.6552166 30.5889745 29.227051 32.1970186 31.6572166 33.9180999 33.9929362 36.0220487 34.6540575 36.6164052 34.7085455 37.6373856 34.1164424 38.2973765 33.5243393 38.9610137 32.5108622 39.0084164 31.8497409 38.4213527 31.8170481 38.3958282 31.7916203 38.3703036 31.7661926 38.3484255L31.7298672 38.2973765zM36.260001 33.746721C34.1640286 31.4021125 32.4458398 28.9626986 30.8475246 26.3774304 29.2746372 23.7958085 27.8979066 21.1084423 26.7609233 18.3116853 24.4905893 12.7291104 23.2482625 6.70167969 23.4734796.732590756 23.4807447.550272829 23.6296786.42265028 23.8004077.429942997 23.9638718.437235714 24.0910105.568504622 24.1019081.732590756 24.3016975 6.61416709 25.9399705 12.3243646 28.5081724 17.5204255 29.7940896 20.1239255 31.305224 22.5961566 32.9834549 24.9517042 34.6580533 27.2817273 36.5469712 29.5607014 38.5339676 31.4677469L38.5593954 31.5078569C39.209619 32.1277378 39.2241492 33.1487182 38.6066183 33.786831 37.999985 34.4285901 36.9792428 34.4468218 36.3399168 33.8305873 36.3217541 33.8014164 36.2926938 33.7758919 36.260001 33.746721M48.736304 79.0910127C48.2459118 79.0910127 47.7627847 78.9779756 47.3014529 78.7446086 45.7176678 77.9533488 45.0783418 76.0207788 45.8666017 74.4346128L50.4072699 65.3223628C51.2027949 63.7252578 53.1207731 63.0907914 54.7154558 63.8784048 56.2847107 64.6769574 56.9313018 66.605881 56.1466744 68.2029861L51.6096388 77.3188824C51.053861 78.4383145 49.9096126 79.0910127 48.736304 79.0910127M56.6683063 84.7815198C56.1924443 84.7815198 55.6947871 84.6684827 55.2334552 84.4387621 53.6569352 83.643856 53.0067115 81.7076396 53.8058691 80.1214736L58.3356397 71.0165163C59.1420623 69.4230576 61.0709381 68.7776522 62.6474581 69.568912 64.2312431 70.3711109 64.8742017 72.3073272 64.0786767 73.8971396L59.5452736 82.9948041C58.9894959 84.1215289 57.8525126 84.7815198 56.6683063 84.7815198M64.6144755 90.4716623C64.1313484 90.4716623 63.6554864 90.3695643 63.1796244 90.1361973 61.6031044 89.3339985 60.9674109 87.4050748 61.7447733 85.8152625L66.2854414 76.7030125C67.0773339 75.1095538 69.0025772 74.471441 70.5863622 75.2736399 72.1774123 76.0612534 72.8167384 77.9938234 72.0284784 79.5836357L67.4841778 88.6958857C66.9284 89.8262569 65.7986818 90.4716623 64.6144755 90.4716623M66.8884421 56.3158572C65.7115009 56.3158572 64.5854153 55.663159 64.0187399 54.543727 63.2232148 52.9466219 63.8625409 51.0213446 65.453591 50.2227921L74.5276622 45.6684903C76.1078147 44.8662914 78.0366905 45.5153432 78.8249505 47.1124482 79.6241081 48.7022606 78.9775169 50.6348306 77.3900993 51.4333831L68.3269258 55.9803922C67.8692264 56.2101128 67.3788343 56.3158572 66.8884421 56.3158572M72.5606447 64.2922665C71.380071 64.2922665 70.2503528 63.635922 69.6909425 62.5019045 68.89905 60.9084458 69.538376 58.9831685 71.1221611 58.1809696L80.1998648 53.6376069C81.7763847 52.8427007 83.7052606 53.4844598 84.4935206 55.0815648 85.2926781 56.6677308 84.646087 58.6039472 83.062302 59.395207L73.9918633 63.9458625C73.534164 64.1792294 73.0365068 64.2922665 72.5606447 64.2922665M78.2292148 72.2577368C77.0522736 72.2577368 75.9261879 71.6013922 75.35588 70.4783138 74.5639875 68.8885015 75.2069461 66.9559314 76.7907312 66.1573789L85.8684349 61.6103698C87.4485874 60.8081709 89.3774632 61.4572228 90.1657232 63.0397424 90.9612482 64.6368474 90.3182896 66.5657711 88.7272395 67.3643236L79.6640659 71.9222718C79.2063666 72.1519924 78.7159744 72.2613831 78.2292148 72.2577368"/>
    </g>
    <g fill="#FFF" transform="rotate(-15 1269.361 -72.056)">
      <path d="M98.8351683,8.73911545 C97.1686719,7.16204699 94.7736904,6.76397888 92.6978548,7.46059807 C93.4291151,5.48960805 93.0128379,3.21868476 91.3505043,1.64161631 C89.0387782,-0.547758308 85.300609,-0.546376127 82.995821,1.64299849 C81.7594777,2.81508793 81.2377436,4.37142367 81.3223866,5.90564451 C81.6859354,10.9768664 78.6845768,15.0584467 76.3908894,17.229853 C70.2036227,23.0985933 51.1270264,24.5954952 51.1270264,24.5954952 L51.1311892,24.6162279 C50.0044656,24.7641213 48.901331,25.0364109 47.81346,25.3639878 C47.5414922,25.44139 47.2806251,25.540907 47.0142077,25.6293666 C46.6367831,25.7592916 46.2510329,25.8712482 45.8805462,26.021906 C38.3029136,29.0143277 32.9717903,36.1007694 32.9717903,44.3717401 C32.9717903,55.3462568 42.3532907,64.2433556 53.9271844,64.2433556 C65.0514986,64.2433556 74.1249539,56.0152324 74.8131989,45.6295248 C75.3030184,41.422166 77.2442577,27.8989077 82.4463351,22.9686682 C84.7636114,20.7654718 89.1483979,17.8573631 94.6071795,18.2941323 C94.6390941,18.2982788 94.6626832,18.2982788 94.6932102,18.2982788 C94.7320627,18.3024254 94.7653649,18.2982788 94.8111554,18.299661 L94.8111554,18.2775461 C96.2681255,18.2416094 97.7153826,17.7219094 98.8351683,16.6617766 C101.137181,14.4737842 101.141344,10.9298722 98.8351683,8.73911545"/>
      <path d="M81.0959318,34.3351714 C80.0788279,38.266094 79.3975209,42.42093 79.1172276,45.4631102 L79.108902,45.5584807 L79.0908633,45.6497046 C79.085313,45.6953166 79.0728247,45.7381642 79.0658867,45.782394 C78.5885555,58.9117308 66.9411196,69.3499613 52.841811,68.7514769 C38.4746973,68.1419351 27.7791486,55.5958787 28.9599882,42.0048935 C29.7037368,33.4464291 34.5103508,27.8872974 38.8646103,24.9294301 C43.1716917,22.0047353 48.4153968,20.8506142 48.4153968,20.8506142 L44.6952662,20.8506142 C19.8976337,21.4656847 0.000971313457,38.4457776 0.000971313457,59.3526465 C0.000971313457,80.6520548 10.2857932,78.5635794 46.0717562,78.5635794 C84.7883106,78.5635794 92.1536417,80.6520548 92.1536417,59.3526465 C92.1536417,49.7976297 87.9797691,41.0705392 81.0959318,34.3351714"/>
    </g>
  </g>
</svg>
