<svg xmlns="http://www.w3.org/2000/svg" width="395" height="399" viewBox="0 0 395 399">
  <g fill="none" fill-rule="evenodd" transform="translate(-15)">
    <path fill="#FFC331" d="M409.720215,334.993159 C408.702566,330.349724 404.470135,326.864403 399.409321,326.864403 L374.354862,326.864403 C370.857552,326.864403 367.749746,328.532966 365.837883,331.098931 C363.912305,328.532966 360.807241,326.864403 357.307188,326.864403 L332.269188,326.864403 C326.448566,326.864403 321.714167,331.463929 321.714167,337.122772 L321.714167,360.235662 C321.714167,365.891761 326.448566,370.49403 332.269188,370.49403 L336.268465,370.49403 C336.010624,371.185606 335.700666,371.836016 335.346821,372.434284 L31.3962481,372.434284 C22.3471286,372.434284 15.0096339,365.090411 15.0096339,356.0423 L15.0096339,61.1103693 C15.0096339,66.7692127 19.7440323,71.3714824 25.5481963,71.3714824 L50.5889397,71.3714824 C54.1027082,71.3714824 57.2077714,69.7001752 59.1223774,67.1369552 C61.0479555,69.7001752 64.1557616,71.3714824 67.6530721,71.3714824 L92.6938156,71.3714824 C98.5116945,71.3714824 103.232378,66.7692127 103.232378,61.1103693 L103.232378,38.0112015 C103.232378,32.3523581 98.5116945,27.7528327 92.6938156,27.7528327 L88.6917951,27.7528327 C89.1526172,26.5178766 89.7505887,25.4311152 90.4692518,24.5227364 C90.8340693,24.0616861 91.2537465,23.6280793 91.7310265,23.1917282 L393.333601,23.1917282 C402.379978,23.1917282 409.720215,30.5356005 409.720215,39.5864566 L409.720215,334.993159 Z M96.4555502,61.1164069 C96.4555502,63.0347054 94.7713552,64.5880057 92.6949128,64.5880057 L67.6514264,64.5880057 C65.5749839,64.5880057 63.8907889,63.0347054 63.8907889,61.1164069 L63.8907889,43.0915364 C63.8907889,34.3206037 64.7191715,27.440526 66.3814226,22.448559 C68.0436737,17.456592 71.1350219,12.9640961 75.6527243,8.97107137 C79.816581,5.29364652 84.9761427,2.34072925 91.1396382,0.115063913 C92.0420815,-0.211513369 93.0652162,0.180928239 93.4821505,0.990510575 L98.2384928,10.2526814 C98.7048009,11.1555715 98.2302639,12.2340998 97.218101,12.5908649 C91.7129228,14.5283739 87.6917015,17.1025713 85.154437,20.3079684 C82.3346446,23.8756194 80.8479448,28.6151065 80.6943374,34.5319184 L92.6949128,34.5319184 C94.7713552,34.5319184 96.4555502,36.0879631 96.4555502,38.0062616 L96.4555502,61.1164069 Z M54.3572575,61.1164069 C54.3572575,63.0347054 52.6730625,64.5880057 50.5966201,64.5880057 L25.5531337,64.5880057 C23.4766913,64.5880057 21.7924963,63.0347054 21.7924963,61.1164069 L21.7924963,43.0915364 C21.7924963,34.3206037 22.6208788,27.440526 24.28313,22.448559 C25.9453811,17.456592 29.0367293,12.9640961 33.5544316,8.97107137 C37.7182884,5.29364652 42.87785,2.34072925 49.0413455,0.115063913 C49.9437888,-0.211513369 50.9696666,0.180928239 51.3838578,0.990510575 L56.1402002,10.2526814 C56.6065082,11.1555715 56.1319712,12.2340998 55.1198084,12.5908649 C49.6146302,14.5283739 45.5934088,17.1025713 43.0588873,20.3079684 C40.236352,23.8756194 38.7496521,28.6151065 38.5960447,34.5319184 L50.5966201,34.5319184 C52.6730625,34.5319184 54.3572575,36.0879631 54.3572575,38.0062616 L54.3572575,61.1164069 Z M328.501967,337.120028 C328.501967,335.204474 330.186162,333.648429 332.262604,333.648429 L357.306091,333.648429 C359.382533,333.648429 361.066728,335.204474 361.066728,337.120028 L361.066728,355.147642 C361.066728,363.918575 360.238346,370.795909 358.576095,375.79062 C356.913843,380.779843 353.822495,385.272338 349.304793,389.268108 C345.140936,392.945532 339.981374,395.895705 333.817879,398.124115 C332.915436,398.450692 331.889558,398.058251 331.475367,397.248668 L326.719024,387.986498 C326.252716,387.080863 326.727253,386.002335 327.739416,385.64557 C333.244594,383.708061 337.265816,381.136608 339.800337,377.928466 C342.622873,374.36356 344.106829,369.621328 344.26318,363.704516 L332.262604,363.704516 C330.186162,363.704516 328.501967,362.148471 328.501967,360.232917 L328.501967,337.120028 Z M370.600534,337.120028 C370.600534,335.204474 372.284729,333.648429 374.361171,333.648429 L399.404658,333.648429 C401.4811,333.648429 403.165295,335.204474 403.165295,337.120028 L403.165295,355.147642 C403.165295,363.918575 402.336913,370.795909 400.674661,375.79062 C399.01241,380.779843 395.921062,385.272338 391.40336,389.268108 C387.239503,392.945532 382.079941,395.895705 375.916446,398.124115 C375.014003,398.450692 373.988125,398.058251 373.573934,397.248668 L368.817591,387.986498 C368.351283,387.080863 368.82582,386.002335 369.837983,385.64557 C375.343161,383.708061 379.364383,381.136608 381.898904,377.928466 C384.718696,374.36356 386.205396,369.621328 386.361747,363.704516 L374.361171,363.704516 C372.284729,363.704516 370.600534,362.148471 370.600534,360.232917 L370.600534,337.120028 Z"/>
    <g fill="#FFF" transform="rotate(20 -772.3 231.848)">
      <path d="M8.36717279,48.565672 C9.25157861,48.7113389 10.2920561,49.3529666 10.80189,50.2269677 C11.3776209,51.2154213 11.3706843,51.829303 11.3047874,53.7854006 L11.0862872,63.7323649 L10.9753029,68.7197202 C10.9475568,69.6145308 11.1001602,70.9602149 11.4227082,72.0006924 C11.7452562,73.0793206 12.2550902,74.092052 12.9071227,75.0146087 C14.18691,76.8701268 16.0979202,78.2574301 18.2655815,78.9892325 C19.399702,79.3360584 20.3916238,79.519876 21.7303714,79.519876 L22.3477214,79.4990665 L23.3014924,79.3915505 C23.9361836,79.2805662 24.4494858,79.1626454 25.0113436,78.9718912 C27.2102193,78.2678348 29.1212296,76.7903569 30.470382,74.8966879 C31.8021931,73.0446381 32.5097178,70.5301509 32.4472891,68.4006404 C32.3120271,64.5820882 32.0935268,62.0502597 32.9744644,59.5565821 C33.2970124,58.561192 33.8033781,57.6108893 34.3860454,56.6779279 C30.7096918,55.4293549 28.899261,53.9033213 28.4275779,53.4247017 L28.3547445,53.3518683 C27.6056007,54.6628699 26.9431634,56.0501731 26.5026947,57.5553972 C25.2610582,61.4571876 25.8437256,65.7162086 26.0171385,68.4838786 C26.2044245,70.6584765 24.9662563,72.5382724 23.0240317,73.3047574 C22.8089997,73.4088052 22.5072613,73.4816386 22.3269118,73.526726 L22.0494512,73.5926229 L21.4321012,73.634242 C21.1095532,73.6515832 20.4401794,73.6099641 19.9754328,73.4816386 C18.9904475,73.1903049 18.0366765,72.6041693 17.3915805,71.7336365 C17.0655642,71.3139773 16.7950401,70.8492307 16.6112224,70.3393967 C16.4378095,69.7983484 16.3580396,69.4792687 16.3198887,68.7197202 L16.2054362,63.7323649 L15.9834677,53.7854006 C15.9453168,52.9530186 16.0181503,52.2004066 15.8169913,50.9344924 C15.6262371,49.7899672 15.1823001,48.6939976 14.537204,47.7540996 C13.2088612,45.8430894 11.1903349,44.5771752 8.77989551,44.3031828 C6.68506758,44.0361269 4.21913604,44.7575246 2.606396,46.293963 C0.934695571,47.7367583 -0.0433532269,50.1125152 0.00173412907,52.1206366 L0.0121389035,52.3391369 C0.0364167106,53.3726778 0.868798667,54.2050598 1.91274437,54.2224011 C2.98096788,54.2501472 3.87231022,53.4004239 3.89658803,52.3217956 C3.94514365,49.8558641 6.08852718,48.1564176 8.36717279,48.565672"/>
      <path d="M37.0479336 57.4211756C36.8953302 61.2397278 37.1797274 64.8467163 37.3011164 68.2733553 37.6097914 74.0930925 37.6236644 80.0134092 35.0675582 83.3013179 31.8871654 87.3938625 27.2223582 88.9961978 22.5957018 86.6100362 21.4615814 86.0516466 20.3968262 85.3302489 19.4187774 84.4631844 18.2569109 83.3741513 16.699663 82.188007 14.8614862 81.5116967 12.9886268 80.8076403 10.6787668 80.8319181 8.86486783 81.5949349 7.97352549 81.9868481 7.1272705 82.4411899 6.43361887 82.9995794 5.67407033 83.557969 5.01856954 84.2065333 4.54688643 84.7094307L4.47752127 84.7753276C3.77693313 85.5140666 3.75612358 86.6828696 4.45671172 87.4424181 5.18504593 88.2262445 6.41627758 88.2817366 7.20704044 87.5534024 9.32961442 85.600773 11.379355 84.8897801 13.1759127 85.8054003 14.1400885 86.2701469 15.0140895 86.9742033 15.9643923 88.0250855 17.1540048 89.2701902 18.5239668 90.3730963 20.0361273 91.2679069 23.0327024 93.0887424 26.9448976 94.0633229 30.7322355 93.2760283 34.5438512 92.5095433 37.6756883 90.3280089 40.0861277 87.8065852 42.8746072 84.7822641 44.0052594 81.1648709 44.6399506 77.8388113 45.2607689 74.4746009 45.3821579 71.2803351 45.4896739 68.2074584 45.5902534 64.8016289 45.6943011 61.4963789 46.0584682 58.4443117 42.3890511 58.3888196 39.4444999 57.9865017 37.0479336 57.4211756M89.007643 84.7080434C88.5324917 84.205146 87.8769909 83.5565817 87.1209106 83.0016604 86.427259 82.4432708 85.5844722 81.9854608 84.6931299 81.5935476 82.8653578 80.833999 80.5624344 80.806253 78.6999798 81.5103094 76.8513982 82.1866197 75.2941503 83.372764 74.1357521 84.4617971 73.1611715 85.3288616 72.0894798 86.0537276 70.9553594 86.6086489 66.3356395 88.9948105 61.6638958 87.3924752 58.4835031 83.2999306 55.9273968 80.0120219 55.9482063 74.0917052 56.2568813 68.2754363 56.3748021 64.845329 56.6661358 61.2383405 56.5100642 57.4197883 54.1065613 57.9851144 51.1654784 58.3909006 47.4995295 58.4429244 47.8567601 61.4949916 47.9677443 64.8037099 48.0648556 68.2095394 48.1793081 71.2789478 48.2972289 74.4766819 48.9076423 77.837424 49.5527383 81.1634836 50.6868587 84.7808768 53.4684018 87.8086662 55.8788412 90.3300899 59.00721 92.5116242 62.8188257 93.2781093 66.6061636 94.0619356 70.5218271 93.0873551 73.5149339 91.2665196 75.0305627 90.371709 76.4005247 89.2688029 77.5866689 88.0271664 78.5439082 86.972816 79.414441 86.2722278 80.382085 85.804013 82.1751745 84.8918611 84.224915 85.602854 86.3405525 87.5520151 87.0896963 88.2352619 88.2584993 88.2456667 89.007643 87.5312055 89.7914694 86.7820618 89.8122789 85.5473619 89.0735399 84.7739403L89.007643 84.7080434z"/>
      <path d="M90.9481335 46.2932693C89.3319252 44.7672357 86.8694619 44.0354333 84.774634 44.3024891 82.3607263 44.5764815 80.3422 45.845864 79.0242619 47.753406 78.3722294 48.7037087 77.9248241 49.7892735 77.7306017 50.9337987 77.5398475 52.2031812 77.6092126 52.952325 77.5710618 53.7847069L77.3490933 63.7420761 77.2415773 68.7190265C77.1930216 69.4820433 77.1236565 69.7976548 76.9398388 70.3387031 76.7629576 70.8520053 76.4889652 71.3132836 76.162949 71.7329428 75.5143847 72.6034756 74.5606137 73.1896113 73.5686919 73.4809449 73.1108818 73.6092705 72.455381 73.6543579 72.1258965 73.6335483L71.5050783 73.5919292 71.2241494 73.5260323C71.0472682 73.4809449 70.748998 73.4081115 70.5270295 73.307532 68.5917414 72.5375787 67.3535733 70.6577828 67.537391 68.4831849 67.7073356 65.7155149 68.2934712 61.4599622 67.0553031 57.5581718 66.6044295 56.0494795 65.9489287 54.6691127 65.199785 53.3546429L65.1234833 53.4274763C64.6518002 53.9026277 62.8413694 55.4286613 59.168484 56.6807025 59.7546197 57.6101956 60.2575171 58.5604984 60.5800651 59.5593567 61.4644709 62.0495661 61.2425024 64.5813945 61.1072403 68.403415 61.04828 70.5294573 61.7592729 73.0439444 63.0876157 74.8959943 64.4298316 76.7896632 66.3408419 78.2706094 68.5466541 78.9711976 69.1015754 79.1654201 69.6218141 79.2798726 70.2565053 79.3908568L71.2033398 79.5018411 71.8276263 79.5191824C73.1594374 79.5191824 74.161764 79.3353647 75.2924162 78.9885389 77.4496727 78.2567364 79.3710878 76.8694332 80.650875 75.0173833 81.295971 74.0913584 81.805805 73.078627 82.128353 72.003467 82.4578375 70.9595213 82.6035044 69.6173054 82.5757583 68.7190265L82.4717105 63.7420761 82.2462738 53.7847069C82.1803769 51.8286093 82.1734403 51.2147276 82.7491712 50.2297423 83.2590051 49.352273 84.3064191 48.7141135 85.1908249 48.5649784 87.462534 48.1591922 89.6059176 49.8551704 89.6544732 52.3245702 89.6822192 53.3546429 90.5111329 54.1939614 91.5481421 54.2251757 92.6198339 54.2494535 93.5181128 53.3997303 93.5423906 52.3315067L93.5527953 52.1234113C93.6048192 50.1118215 92.6128974 47.7360647 90.9481335 46.2932693M31.18519 25.3363194C31.18519 20.5119723 33.3008275 12.6355581 36.4812202 6.26089961L18.220841 21.9096804C17.5410624 22.4923478 17.3433717 23.4599918 17.7456896 24.2576912 17.9711264 24.7155012 21.6821626 31.8393035 30.0614743 36.6254997 30.6892291 32.7445188 31.18519 28.6519742 31.18519 25.3363194M75.3309138 21.9086399L57.0740029 6.25985913C60.2509274 12.6379859 62.3700331 20.5109319 62.3700331 25.335279 62.3700331 28.6613385 62.8694623 32.7434784 63.4902805 36.634864 71.8730605 31.8417312 75.5840967 24.7144607 75.8060652 24.2566507 76.2083832 23.4624196 76.0141607 22.4913073 75.3309138 21.9086399M58.4741388 25.3363194C58.4741388 15.5974506 50.6740262.00069365163 46.775704.00069365163 42.8808501.00069365163 35.0807375 15.5974506 35.0807375 25.3363194 35.0807375 35.0821248 31.1858836 50.6788817 31.1858836 50.6788817 31.1858836 50.6788817 35.0807375 54.5702674 46.775704 54.5702674 58.4741388 54.5702674 62.3689927 50.6788817 62.3689927 50.6788817 62.3689927 50.6788817 58.4741388 35.0821248 58.4741388 25.3363194"/>
    </g>
    <g fill="#FFF" transform="matrix(-1 0 0 1 188.805 305.723)">
      <path d="M6.11545151,5.43860772 C4.72376879,11.0716092 1.23793492,32.044047 20.3547957,51.187416 C50.8039301,81.6895668 78.8849948,87.3358225 87.6371328,88.3696439 C86.3824093,79.7323749 80.11321,52.4421394 49.4740999,22.4745715 C41.3316515,14.5132627 28.2321617,5.01447584 12.0665519,5.01447584 C10.0961059,5.01447584 8.0947336,5.16027118 6.11545151,5.43860772 M90.4072441,93.6182759 L90.398408,93.6182759 C88.966963,93.6094398 55.0010684,92.9467337 16.8822159,54.7704467 C-7.24028459,30.5993477 1.45000086,3.54326839 1.83437037,2.40341397 C2.12596104,1.5418961 2.85051966,0.90128024 3.74296382,0.746648826 C6.5086571,0.247410262 9.30969471,-3.55271368e-15 12.0665519,-3.55271368e-15 C29.8977629,-3.55271368e-15 44.1150169,10.2586898 52.9024993,18.8694505 C88.6842084,53.8603304 92.4483788,84.9235724 92.8415844,90.2694013 C92.9255272,90.5344837 92.9829617,90.8128202 92.9829617,91.113247 C92.9829617,92.5049297 91.8740335,93.6182759 90.5088591,93.6182759 C90.4823508,93.6226939 90.4425885,93.6226939 90.4072441,93.6182759"/>
      <path d="M45.7916632 43.9215067C48.4336514 45.9405512 50.2980644 47.8005462 52.3126909 49.8505169 54.2698828 51.8739794 56.1122056 53.9637126 57.8617496 56.1064621 61.3608376 60.3919613 64.5109004 64.8983625 67.3782086 69.5240508 68.1116033 70.7036676 67.7625781 72.2543998 66.5962154 73.0010486 65.5800662 73.6505005 64.2723262 73.4428526 63.4682428 72.5857528 59.880794 68.7729839 56.1122056 65.1943712 52.1448053 61.9603657 50.1611052 60.3477809 48.1243886 58.8103029 46.0611637 57.3876939 44.0553734 56.0225194 41.7579924 54.5822382 39.9510138 53.7383925 37.0969598 52.4085623 35.8466543 48.9889991 37.1588123 46.0907646 38.4577162 43.1925301 41.8330991 41.9201344 44.6915712 43.2455466 45.0538505 43.4222682 45.3984576 43.625498 45.7165566 43.8640722L45.7916632 43.9215067zM116.247037 82.4415173L89.1865396 87.5885344C88.1836444 87.7608379 87.4016513 88.5560852 87.2116755 89.5633984L82.0558224 116.173256C81.79074 117.534012 82.6566759 118.850588 83.9953421 119.124507 84.1543916 119.155433 84.3222771 119.168687 84.4813266 119.168687 85.625599 119.168687 86.6594205 118.346932 86.8935766 117.162897 87.7506764 112.96134 91.0288624 101.001705 95.8666166 96.2302214 101.689594 90.4779328 117.020194 87.3985586 117.179243 87.3676323 118.504656 87.1025499 119.37501 85.7859739 119.127599 84.4384716 118.875771 83.0777151 117.550359 82.185271 116.247037 82.4415173M19.188433 45.2698927C19.0028753 45.2698927 18.8305718 45.2654746 18.6626862 45.2610566 8.81929223 44.9120314 3.82690659 35.1569982 3.62809477 34.7372844L8.03288104 32.4619936C8.0726434 32.5415183 11.9516829 40.0345148 18.8659161 40.2509988 24.322196 40.3481957 33.1406046 36.2924346 45.2637074 15.6778581L49.5006081 18.2491576C38.9547457 36.1819836 28.7579085 45.2698927 19.188433 45.2698927"/>
      <path d="M48.0435384,18.3110102 C52.8547844,17.3302052 57.5202351,16.9149094 62.3314811,16.9855981 C67.0985466,17.0960491 71.9672271,17.736665 76.5840794,19.5436435 L76.6150056,19.5657337 C77.4986137,19.9103408 78.0066884,20.8337113 77.860893,21.7526637 C77.0391375,27.1735992 76.5575711,32.7933466 76.5840794,38.2982249 C76.6150056,41.0506641 76.7828912,43.8075213 77.2467854,46.4450914 C77.7239338,49.0561533 78.5280171,51.6893054 80.0743313,53.3769968 L80.1229297,53.4344313 C80.6530946,54.0176126 80.6177502,54.936565 80.0389869,55.479984 C79.4690597,56.0145669 78.5854517,55.9836406 78.0508688,55.4269675 C75.7004713,52.966119 74.8256993,49.9397614 74.1762473,47.0768712 C73.5577217,44.1830547 73.3014753,41.2759842 73.1645161,38.3865857 C72.9480321,32.5989528 73.2440408,26.9129348 73.9111649,21.1473921 L75.1879786,23.3519943 C71.1454716,21.9161312 66.7274312,21.461073 62.3138089,21.5185075 C57.9266948,21.6024503 53.3849493,22.1767955 49.2054831,23.1929448 L49.1127042,23.210617 C47.778456,23.537552 46.4486258,22.7069604 46.1305269,21.35504 C45.8168461,20.0031197 46.6386016,18.6556174 47.9640137,18.3331004 C47.9816859,18.3242643 48.0214482,18.3154282 48.0435384,18.3110102"/>
      <path d="M57.2290862 26.339915C63.0211372 26.2206279 68.5525237 26.7596288 74.0794923 27.7846142 74.8614854 27.9215735 75.3739781 28.6814764 75.2370188 29.4723056 75.1044776 30.2012823 74.4417716 30.7005209 73.7348851 30.6563405 68.366966 30.3647498 62.8709238 30.5503075 57.7239067 31.3278826L57.6488 31.3411367C56.2968797 31.5443666 55.0333201 30.5944879 54.8256722 29.2248954 54.6312785 27.8508848 55.567903 26.5696531 56.9154053 26.3620052 57.0258563 26.3487511 57.1363074 26.339915 57.2290862 26.339915M60.1759191 34.4403921C65.1329605 34.4094658 69.9662967 34.3785395 75.0293709 35.2621476 75.8113641 35.3902707 76.3238568 36.1457557 76.1957336 36.9321668 76.0852826 37.6478894 75.4446667 38.155964 74.7510344 38.1294558L74.6582555 38.1294558C70.1253461 38.0013326 65.2699197 38.7126371 60.6353953 39.4416138L60.5735428 39.4460318C59.2172044 39.6536797 57.9580629 38.7170552 57.7415789 37.3474626 57.533931 35.9734521 58.4528834 34.6878023 59.8180579 34.4713183 59.9285089 34.4536462 60.0610501 34.4403921 60.1759191 34.4403921M95.6452728 57.335561C84.6001718 51.3535343 78.26912 53.1958571 77.7477912 53.3637427 77.0320687 53.5978988 76.4533054 54.1501539 76.1793869 54.8658764 75.9143044 55.586017 75.9894111 56.3856823 76.3737806 57.0439703L81.3440761 65.4603373C81.7991342 66.2290763 82.6120537 66.6841344 83.4647355 66.6841344 83.6414571 66.6841344 83.8181787 66.6620442 84.0037364 66.6222819 85.050812 66.3881257 85.8107149 65.5045177 85.925584 64.4265158 86.0846334 62.7741687 89.7913693 62.0186838 93.1667522 62.0186838 93.8382943 62.0186838 94.2712623 62.045192 94.3066066 62.045192 95.4685512 62.1291348 96.537717 61.3780679 96.8513978 60.2426316 97.1783328 59.1027771 96.6746762 57.8922341 95.6452728 57.335561M64.0372864 82.4176599L55.4309438 77.6019959C54.7814918 77.2264624 54.0171708 77.182282 53.3279565 77.4606186 52.6519964 77.725701 52.1085774 78.3044643 51.8876754 79.0113507 51.6711914 79.6873109 49.9216474 85.9653463 56.0759777 96.758619 56.5221997 97.5494482 57.3483733 98.0000883 58.2187273 98.0000883 58.4528834 98.0000883 58.7091297 97.9691621 58.952122 97.8896373 60.0610501 97.5406121 60.7767726 96.4670283 60.6751577 95.2918296 60.4984361 93.1888424 60.7502644 87.3437749 63.0785717 87.1052007 64.1565735 86.9991678 65.0445997 86.1950844 65.2522476 85.1126645 65.4775676 84.0346627 64.9871651 82.9478247 64.0372864 82.4176599M27.1828771 58.3684988L22.3893033 56.31411C21.2494489 55.8192895 19.9107826 56.2743477 19.292257 57.3656037L14.4721749 65.8614953C14.2424368 66.259119 14.1452399 66.7141771 14.149658 67.1736533 14.1805842 68.9011071 15.466234 72.4267033 20.060996 73.4030903 20.9269319 73.588648 21.7751957 73.6814268 22.579279 73.6814268 25.7072516 73.6814268 27.2535658 72.27649 27.5319023 71.9981534 27.9692883 71.5475133 28.2255346 70.9554959 28.2564609 70.3325522L28.6850108 60.789585C28.7336093 59.7469274 28.1371738 58.7837946 27.1828771 58.3684988M12.4058574 16.6303876C12.0745044 16.6303876 11.7343153 16.559699 11.4029622 16.4183217 10.1570749 15.8572306 9.59598373 14.372769 10.1482388 13.1136275 10.824199 11.5584773 10.9169778 10.2021389 10.4398294 8.94299736 9.4943688 6.46889474 6.56078998 5.06837594 6.52544566 5.05070378 5.27955827 4.49844873 4.7140491 3.01398715 5.26188611 1.7504276 5.80972311.482450011 7.25884036-.0918952401 8.51356383.464777849 9.00396632.685679869 13.3601541 2.73565061 15.0478456 7.1316008 16.0065603 9.64546578 15.8828552 12.3493065 14.6634761 15.13709 14.2525983 16.0737146 13.3557361 16.6303876 12.4058574 16.6303876"/>
      <path d="M51.1887414,20.6684766 C43.3599738,13.0208486 28.2988741,3.58391437 11.3159269,3.21279897 C14.9740643,6.36727981 18.4775703,9.45990809 21.830863,12.508356 C21.8706253,12.4818477 21.8794614,12.4376673 21.9148058,12.3979049 C23.8587435,10.4672213 27.0264785,10.4672213 28.9792523,12.3979049 C30.9010999,14.3020804 30.9187721,17.3151839 29.0897033,19.2591217 C74.0830267,61.6811455 89.7273077,91.8077629 89.7273077,91.8077629 C91.1189904,78.253215 75.1831187,44.1326891 51.1887414,20.6684766"/>
      <path d="M27.2217559,17.6421189 C26.2453689,18.6096697 24.6504564,18.6096697 23.6696514,17.6421189 C22.6976825,16.6789861 22.7109366,15.1194178 23.6829055,14.151867 C24.6504564,13.1887342 26.2321148,13.1887342 27.2129198,14.151867 C28.2025608,15.1194178 28.2025608,16.6789861 27.2217559,17.6421189"/>
    </g>
  </g>
</svg>
