<svg xmlns="http://www.w3.org/2000/svg" width="40" height="40" viewBox="0 0 40 40">
  <path fill="#FFC331" fill-rule="evenodd" d="M150.596837,1829.21426 C150.289888,1829.21426 150.039606,1829.46455 150.039606,1829.77228 L150.039606,1830.32873 C150.039606,1830.63646 150.296184,1830.88675 150.596837,1830.88675 L162.86773,1830.88675 C163.168383,1830.88675 163.425748,1830.63017 163.425748,1830.32873 L163.425748,1829.77228 C163.425748,1829.47084 163.174679,1829.21426 162.86773,1829.21426 L150.596837,1829.21426 Z M150.596837,1825.86773 C150.289888,1825.86773 150.039606,1826.11801 150.039606,1826.42575 L150.039606,1826.98219 C150.039606,1827.28993 150.296971,1827.54021 150.596837,1827.54021 L162.86773,1827.54021 C163.168383,1827.54021 163.425748,1827.28363 163.425748,1826.98219 L163.425748,1826.42575 C163.425748,1826.12431 163.174679,1825.86773 162.86773,1825.86773 L150.596837,1825.86773 Z M147.80832,1833.11882 L165.656247,1833.11882 L165.656247,1823.63566 L147.80832,1823.63566 L147.80832,1833.11882 Z M147.80832,1814.71366 L165.656247,1814.71366 L165.656247,1805.23207 L147.80832,1805.23207 L147.80832,1814.71366 Z M142.230499,1809.13505 C141.001914,1809.13505 140,1810.13775 140,1811.36713 L140,1826.98219 C140,1828.21235 141.004275,1829.21426 142.230499,1829.21426 L145.577034,1829.21426 L145.577034,1834.7913 C145.577034,1835.09904 145.828103,1835.34932 146.135053,1835.34932 L167.329514,1835.34932 C167.636464,1835.34932 167.887533,1835.09904 167.887533,1834.7913 L167.887533,1829.21426 L171.234068,1829.21426 C172.460291,1829.21426 173.464567,1828.21078 173.464567,1826.98219 L173.464567,1811.36713 C173.464567,1810.1409 172.462653,1809.13505 171.234068,1809.13505 L167.887533,1809.13505 L167.887533,1803.55802 C167.887533,1803.25107 167.636464,1803 167.329514,1803 L146.135053,1803 C145.827316,1803 145.577034,1803.25107 145.577034,1803.55802 L145.577034,1809.13505 L142.230499,1809.13505 Z M170.954665,1813.03961 C170.954665,1813.81013 170.330535,1814.43426 169.5608,1814.43426 C168.790279,1814.43426 168.166148,1813.81013 168.166148,1813.03961 C168.166148,1812.26987 168.790279,1811.64574 169.5608,1811.64574 C170.330535,1811.64574 170.954665,1812.26987 170.954665,1813.03961 L170.954665,1813.03961 Z" transform="translate(-137 -1799)"/>
</svg>
