<svg xmlns="http://www.w3.org/2000/svg" xmlns:xlink="http://www.w3.org/1999/xlink" width="40" height="40" viewBox="0 0 40 40">
  <defs>
    <polygon id="icon_email-a" points="33.464 .189 0 .189 0 33.465 33.464 33.465 33.464 .189"/>
  </defs>
  <g fill="none" fill-rule="evenodd" transform="translate(3 3)">
    <g transform="translate(0 .42)">
      <mask id="icon_email-b" fill="#fff">
        <use xlink:href="#icon_email-a"/>
      </mask>
      <path fill="#FFC331" d="M25.3191696,19.7412348 C24.9401074,22.6039764 23.6964424,23.5367251 22.7198855,23.8153937 C21.3198497,24.2151432 19.7579671,23.4491088 18.9998425,22.5248783 C18.8282606,22.3149642 18.680408,22.0867967 18.5544596,21.8458518 C18.0530995,22.7712992 17.4251825,23.4399821 16.7139084,23.788622 C16.0026342,24.137262 15.2317323,24.1597745 14.4845598,23.8543343 C13.5390336,23.4673622 12.8356693,22.7128883 12.5052827,21.7290301 C12.0854545,20.4811059 12.3209234,19.0050143 13.1672727,17.5733393 C14.7072513,14.9704044 17.7032427,15.014821 19.0716392,15.4017931 C19.456786,15.5113135 19.6916464,15.9007194 19.6088976,16.2919506 C19.3947244,17.3037974 19.0783321,20.2231246 20.1753615,21.5598819 C20.5659843,22.0356872 21.5236793,22.5753794 22.3024911,22.3526879 C23.2784395,22.0740193 23.6617609,20.6703329 23.8108304,19.5416643 C24.0688117,17.5958518 23.5163422,15.8331818 22.2562491,14.5785648 C20.7655548,13.0951718 18.4473729,12.4459592 15.8991983,12.7945991 C13.8183107,13.0799606 12.137781,14.0759878 11.0395347,15.6755941 C9.78370079,17.5045848 9.39855404,19.978529 9.98387974,22.4628168 C10.4791553,24.5674338 12.0434717,26.2144989 14.2746457,26.9799248 C16.844116,27.8633894 19.6825197,27.4125304 21.6788332,25.8044059 C22.0055691,25.5409485 22.4844166,25.592058 22.7484825,25.9194023 C23.0119399,26.2467466 22.9602219,26.7255941 22.6328776,26.9890515 C21.0399642,28.2722656 19.0095777,28.9445991 16.9292985,28.9445991 C15.8754689,28.9452076 14.8094703,28.7724087 13.780587,28.4189012 C11.0450107,27.4794596 9.12110236,25.4350787 8.50292054,22.8108482 C7.82024338,19.910383 8.28753042,16.9959234 9.78552613,14.8146421 C11.1332355,12.8524016 13.175791,11.632466 15.6923264,11.2874767 C18.7156979,10.873733 21.4999499,11.6793164 23.3289406,13.5003973 C24.9340229,15.0975698 25.6404295,17.314141 25.3191696,19.7412348 M31.9129062,10.9522226 L31.9518468,10.9522226 L18.0652684,0.778994273 C16.9816249,-0.00711882606 15.2359914,-0.0205046528 14.185204,0.8106335 L1.47779528,10.8232319 C0.594939155,11.3610988 -0.000121689334,12.299932 -0.000121689334,13.4085218 L-0.000121689334,30.4000036 C-0.000121689334,32.0920938 1.372534,33.4647495 3.06462419,33.4647495 L30.3996994,33.4647495 C32.0917895,33.4647495 33.4644452,32.0920938 33.4644452,30.4000036 L33.4644452,13.4085218 C33.4644452,12.2695097 32.8359198,11.5606693 31.9129062,10.9522226" mask="url(#icon_email-b)"/>
    </g>
    <path fill="#FFC331" d="M17.5160236,17.1499213 C16.5741482,17.1499213 15.270247,17.4267645 14.4768325,18.767781 C13.8586507,19.8130923 13.6706407,20.8413672 13.9474839,21.6645956 C14.1348855,22.2225412 14.5303758,22.6490623 15.0603329,22.8662777 C15.4047137,23.0062205 15.7259735,22.9983107 16.0447996,22.8425483 C16.764592,22.4896492 17.437534,21.4029635 17.8451933,19.9353901 C17.8610129,19.8788046 17.882917,19.8252613 17.9096886,19.7759771 C17.8287652,18.7702147 17.9090802,17.8119112 17.9930458,17.1730422 C17.8494524,17.1596564 17.6888225,17.1499213 17.5160236,17.1499213"/>
  </g>
</svg>
