<svg xmlns="http://www.w3.org/2000/svg" width="88" height="19" viewBox="0 0 88 19">
  <path fill="#4A4A4A" fill-rule="evenodd" d="M910.364,1968.258 C911.068,1968.258 911.42,1968.588 911.42,1969.204 C911.42,1969.578 911.046,1970.172 910.342,1970.964 C909.99,1971.404 909.682,1971.712 909.418,1971.91 C910.298,1971.778 911.046,1971.69 911.662,1971.646 C912.212,1971.712 912.498,1971.954 912.498,1972.372 C912.454,1972.724 912.19,1972.9 911.75,1972.944 C910.694,1973.12 909.748,1973.274 908.956,1973.384 C909,1973.516 909.044,1973.648 909.044,1973.802 C909.022,1974 909,1974.176 909,1974.33 C909.924,1974.198 910.694,1974.132 911.31,1974.088 C911.838,1974.154 912.124,1974.396 912.124,1974.792 C912.058,1975.122 911.816,1975.298 911.376,1975.342 C910.43,1975.474 909.616,1975.562 908.934,1975.65 C908.89,1976.112 908.868,1976.508 908.868,1976.86 L908.934,1976.86 C910.76,1976.596 912.234,1976.464 913.378,1976.42 C913.906,1976.464 914.192,1976.706 914.192,1977.146 C914.148,1977.476 913.884,1977.674 913.444,1977.718 C911.332,1977.938 909.55,1978.136 908.12,1978.268 C908.538,1978.444 908.758,1978.73 908.758,1979.126 C908.67,1979.434 908.604,1979.698 908.538,1979.962 C910.826,1979.698 912.674,1979.566 914.038,1979.522 C914.896,1979.522 915.336,1979.808 915.336,1980.358 C915.336,1980.754 915.094,1980.93 914.61,1980.93 C913.29,1980.93 911.794,1980.996 910.166,1981.084 C909.792,1981.128 909.462,1981.172 909.154,1981.172 C910.298,1982.206 911.31,1982.91 912.19,1983.284 C912.85,1983.658 913.532,1983.988 914.258,1984.252 C915.27,1984.56 915.798,1984.802 915.798,1984.978 C915.666,1985.462 914.896,1985.792 913.488,1985.968 C912.564,1985.968 911.86,1985.814 911.376,1985.506 C910.98,1985.132 910.562,1984.714 910.144,1984.186 C909.374,1983.24 908.648,1982.36 907.988,1981.568 C906.822,1984.472 905.128,1985.968 902.928,1986.144 C902.532,1986.144 902.334,1986.056 902.334,1985.924 C902.334,1985.902 902.598,1985.726 903.17,1985.396 C904.842,1984.384 905.964,1983.042 906.58,1981.392 C905.172,1981.48 904.072,1981.546 903.258,1981.546 C902.51,1981.524 902.048,1981.37 901.85,1981.106 C901.85,1980.996 902.07,1980.886 902.532,1980.776 C904.16,1980.534 905.634,1980.336 906.954,1980.16 C907.02,1979.874 907.064,1979.588 907.108,1979.324 C907.108,1979.082 906.976,1978.906 906.756,1978.796 C906.844,1978.62 906.976,1978.466 907.13,1978.378 C905.788,1978.51 904.776,1978.576 904.116,1978.62 C903.17,1978.62 902.664,1978.4 902.598,1977.938 C902.796,1977.74 904.446,1977.432 907.548,1977.036 C907.548,1976.574 907.526,1976.156 907.526,1975.804 C906.69,1975.892 906.052,1975.958 905.634,1975.98 C904.71,1975.98 904.226,1975.76 904.16,1975.32 C904.292,1975.144 905.414,1974.902 907.526,1974.572 L907.526,1974.242 C907.482,1973.978 907.438,1973.758 907.35,1973.626 C906.316,1973.78 905.546,1973.868 905.062,1973.912 C904.116,1973.912 903.61,1973.692 903.544,1973.23 C903.72,1973.01 905.304,1972.636 908.318,1972.108 C908.362,1972.108 908.428,1972.086 908.472,1972.086 C908.428,1972.042 908.406,1971.976 908.406,1971.888 C908.406,1971.8 908.626,1971.382 909.022,1970.678 C909.33,1970.018 909.506,1969.468 909.55,1969.072 C909.55,1968.852 909.506,1968.676 909.44,1968.544 C909.44,1968.368 909.748,1968.258 910.364,1968.258 Z M907.24,1969.402 C907.394,1969.402 907.482,1969.556 907.482,1969.842 C907.46,1970.282 907.306,1970.7 907.042,1971.14 C906.756,1971.536 906.426,1971.734 906.074,1971.778 C905.26,1971.712 904.82,1971.228 904.776,1970.326 C904.776,1970.106 904.864,1969.974 905.062,1969.974 C905.282,1969.974 905.546,1969.996 905.832,1970.018 C906.272,1969.974 906.756,1969.754 907.24,1969.402 Z M932.175428,1970.92 C931.559428,1971.778 930.657428,1972.9 929.469428,1974.286 C928.149428,1975.76 927.049428,1976.596 926.147428,1976.772 C925.399428,1976.75 924.915428,1976.53 924.673428,1976.134 C924.673428,1976.046 924.783428,1975.958 925.047428,1975.848 C927.401428,1974.55 929.513428,1972.482 931.361428,1969.644 C931.537428,1969.38 931.625428,1969.16 931.669428,1968.94 C931.603428,1968.786 931.559428,1968.654 931.537428,1968.522 C931.559428,1968.302 931.801428,1968.17 932.263428,1968.17 C932.791428,1968.39 933.077428,1968.764 933.077428,1969.336 C933.033428,1969.534 932.923428,1969.798 932.725428,1970.128 C933.605428,1970.568 934.639428,1971.206 935.827428,1972.042 C937.895428,1973.186 939.501428,1973.758 940.667428,1973.78 C940.821428,1973.846 940.909428,1973.978 940.909428,1974.154 C940.491428,1975.298 939.853428,1975.892 938.995428,1975.98 C938.511428,1975.98 937.323428,1975.144 935.475428,1973.428 C934.067428,1972.196 932.967428,1971.36 932.175428,1970.92 Z M934.221428,1974.594 C935.453428,1974.594 936.069428,1975.034 936.069428,1975.87 C936.069428,1976.728 935.805428,1977.674 935.299428,1978.73 C935.321428,1978.796 935.343428,1978.862 935.343428,1978.928 C935.343428,1979.874 933.825428,1980.336 930.811428,1980.336 C930.679428,1980.336 930.569428,1980.314 930.503428,1980.292 C930.437428,1981.48 930.393428,1982.668 930.349428,1983.834 C930.349428,1984.406 930.371428,1984.692 930.459428,1984.692 C930.767428,1984.67 931.097428,1984.56 931.493428,1984.362 C932.043428,1984.12 932.505428,1983.944 932.857428,1983.856 C933.055428,1983.856 933.165428,1983.966 933.165428,1984.186 C933.121428,1984.648 932.835428,1985.088 932.263428,1985.572 C931.735428,1986.1 931.009428,1986.408 930.085428,1986.474 C929.425428,1986.474 928.985428,1986.188 928.765428,1985.616 C928.765428,1985.33 928.831428,1985.022 928.963428,1984.714 C929.095428,1984.362 929.161428,1984.01 929.161428,1983.636 C929.205428,1981.766 929.271428,1979.896 929.315428,1978.026 C929.315428,1977.476 929.161428,1977.102 928.875428,1976.882 C928.875428,1976.618 929.007428,1976.486 929.315428,1976.486 C929.997428,1976.574 930.415428,1976.926 930.547428,1977.52 C931.383428,1977.278 932.175428,1977.08 932.923428,1976.948 C933.231428,1976.948 933.385428,1977.102 933.385428,1977.366 C933.385428,1977.938 932.637428,1978.224 931.141428,1978.224 C930.921428,1978.224 930.723428,1978.18 930.569428,1978.136 C930.569428,1978.598 930.547428,1979.06 930.525428,1979.5 C931.625428,1979.192 932.681428,1978.95 933.649428,1978.73 C933.957428,1978.092 934.155428,1977.366 934.221428,1976.53 C934.221428,1976.178 934.111428,1975.958 933.913428,1975.914 C932.197428,1976.288 931.097428,1976.486 930.657428,1976.486 C929.821428,1976.486 929.403428,1976.398 929.381428,1976.222 C929.381428,1975.892 930.129428,1975.496 931.669428,1975.056 C932.615428,1974.748 933.473428,1974.594 934.221428,1974.594 Z M936.201428,1979.698 C936.993428,1979.786 937.455428,1980.138 937.543428,1980.754 C937.543428,1981.128 937.301428,1981.502 936.839428,1981.854 C936.377428,1982.206 935.959428,1982.426 935.585428,1982.536 L935.607428,1982.536 C937.587428,1983.658 938.577428,1984.538 938.577428,1985.154 C938.577428,1985.792 938.269428,1986.122 937.697428,1986.122 C937.235428,1986.034 936.113428,1985.132 934.331428,1983.416 C932.813428,1982.316 931.999428,1981.678 931.867428,1981.524 C931.867428,1981.238 931.977428,1981.084 932.219428,1981.084 C932.593428,1981.084 933.429428,1981.414 934.727428,1982.074 C935.453428,1981.326 935.827428,1980.776 935.827428,1980.468 C935.827428,1980.16 935.761428,1979.962 935.651428,1979.83 C935.695428,1979.742 935.871428,1979.698 936.201428,1979.698 Z M933.209428,1972.878 C933.891428,1972.878 934.243428,1973.032 934.243428,1973.34 C934.155428,1973.758 933.847428,1974.044 933.275428,1974.176 C933.077428,1974.198 932.835428,1974.242 932.549428,1974.286 C932.241428,1974.374 932.021428,1974.396 931.911428,1974.396 C930.943428,1974.308 930.459428,1974 930.437428,1973.472 C930.437428,1973.406 930.679428,1973.34 931.207428,1973.252 C932.175428,1973.032 932.835428,1972.922 933.209428,1972.878 Z M949.806856,1973.384 C950.334856,1973.428 950.620856,1973.692 950.664856,1974.154 C950.664856,1974.286 950.598856,1974.44 950.510856,1974.594 C950.312856,1974.858 950.180856,1975.056 950.136856,1975.188 C950.136856,1975.364 950.202856,1975.452 950.334856,1975.452 C950.752856,1975.32 951.126856,1975.188 951.456856,1975.056 C951.456856,1974.748 951.478856,1974.44 951.500856,1974.176 C951.500856,1973.516 951.500856,1972.46 951.544856,1971.03 C951.500856,1970.612 951.346856,1970.326 951.082856,1970.194 C951.170856,1969.798 951.478856,1969.6 951.962856,1969.578 C952.490856,1969.622 952.776856,1969.908 952.776856,1970.414 C952.666856,1970.678 952.622856,1971.03 952.622856,1971.426 C952.666856,1972.262 952.688856,1973.318 952.710856,1974.638 C953.084856,1974.528 953.348856,1974.462 953.524856,1974.418 C954.030856,1974.462 954.316856,1974.682 954.382856,1975.1 C954.382856,1975.54 954.140856,1975.76 953.656856,1975.76 C953.326856,1975.76 953.018856,1975.782 952.732856,1975.804 C952.732856,1976.442 952.754856,1977.124 952.754856,1977.828 C953.260856,1977.63 953.788856,1977.41 954.338856,1977.146 C954.602856,1977.146 954.734856,1977.278 954.734856,1977.52 C954.690856,1977.872 954.052856,1978.444 952.776856,1979.236 L952.776856,1982.096 C952.688856,1984.054 952.402856,1985.044 951.896856,1985.11 C951.522856,1985.044 951.302856,1984.032 951.258856,1982.052 C951.280856,1981.392 951.302856,1980.732 951.324856,1980.05 C950.400856,1980.534 949.652856,1980.754 949.102856,1980.754 C947.914856,1980.688 947.298856,1980.402 947.254856,1979.918 C947.254856,1979.654 947.496856,1979.478 947.980856,1979.39 C948.816856,1979.258 949.938856,1978.928 951.390856,1978.356 C951.390856,1977.762 951.412856,1977.168 951.456856,1976.552 L951.456856,1975.98 C951.192856,1976.046 950.928856,1976.112 950.708856,1976.2 C949.696856,1976.86 949.080856,1977.19 948.860856,1977.19 C948.486856,1977.168 948.288856,1977.014 948.266856,1976.706 C948.266856,1976.574 948.442856,1976.134 948.838856,1975.43 C949.146856,1974.858 949.322856,1974.418 949.388856,1974.154 C949.388856,1974 949.322856,1973.89 949.190856,1973.846 C949.102856,1973.846 949.080856,1973.824 949.080856,1973.736 C949.080856,1973.516 949.322856,1973.384 949.806856,1973.384 Z M962.214856,1977.19 C962.962856,1977.19 963.358856,1977.454 963.358856,1977.938 C963.358856,1978.29 963.138856,1978.444 962.720856,1978.444 C962.236856,1978.444 961.708856,1978.466 961.180856,1978.51 C961.180856,1981.15 961.158856,1982.47 961.136856,1982.47 C960.938856,1984.846 960.366856,1986.012 959.420856,1986.012 C958.584856,1986.012 958.034856,1985.506 957.792856,1984.494 C957.792856,1984.362 957.858856,1984.296 958.034856,1984.296 C958.254856,1984.296 958.584856,1984.296 959.068856,1984.252 C959.442856,1984.054 959.662856,1983.482 959.750856,1982.514 C959.838856,1980.886 959.882856,1979.588 959.926856,1978.642 C958.276856,1978.95 957.066856,1979.104 956.318856,1979.104 C955.658856,1979.082 955.240856,1978.95 955.064856,1978.708 C955.064856,1978.62 955.262856,1978.532 955.680856,1978.422 C957.352856,1977.982 958.782856,1977.674 959.970856,1977.454 C959.970856,1977.212 959.992856,1977.036 959.992856,1976.904 C959.970856,1976.64 959.948856,1976.442 959.904856,1976.31 L959.860856,1976.31 C958.496856,1976.574 957.528856,1976.706 956.912856,1976.706 C956.186856,1976.684 955.724856,1976.53 955.504856,1976.266 C955.504856,1976.178 955.724856,1976.068 956.186856,1975.936 C956.868856,1975.716 957.506856,1975.54 958.078856,1975.386 C958.034856,1974.638 958.012856,1973.978 958.012856,1973.384 C956.934856,1973.538 956.142856,1973.626 955.636856,1973.648 C954.690856,1973.648 954.184856,1973.428 954.118856,1972.966 C954.272856,1972.79 955.570856,1972.482 957.990856,1972.086 C957.968856,1971.514 957.968856,1971.008 957.968856,1970.612 C957.902856,1970.084 957.726856,1969.732 957.418856,1969.556 C957.682856,1969.16 958.078856,1968.962 958.584856,1968.962 C959.376856,1969.05 959.794856,1969.446 959.794856,1970.106 C959.728856,1970.722 959.684856,1971.294 959.640856,1971.8 C960.696856,1971.624 961.576856,1971.536 962.280856,1971.492 C962.830856,1971.558 963.116856,1971.8 963.116856,1972.218 C963.050856,1972.57 962.786856,1972.746 962.346856,1972.79 C961.246856,1972.966 960.322856,1973.098 959.530856,1973.186 C959.464856,1973.934 959.420856,1974.55 959.398856,1975.056 C960.102856,1974.902 960.718856,1974.814 961.202856,1974.792 C962.038856,1974.792 962.478856,1975.078 962.478856,1975.628 C962.478856,1976.024 962.236856,1976.2 961.774856,1976.2 C961.510856,1976.2 961.268856,1976.222 961.048856,1976.222 C961.114856,1976.508 961.158856,1976.86 961.180856,1977.278 C961.576856,1977.234 961.906856,1977.212 962.214856,1977.19 Z M955.614856,1979.808 C957.022856,1979.874 957.726856,1980.248 957.726856,1980.908 C957.682856,1981.436 957.440856,1981.722 956.978856,1981.766 C956.516856,1981.744 956.164856,1981.568 955.900856,1981.26 C955.504856,1980.886 955.306856,1980.49 955.262856,1980.05 C955.262856,1979.896 955.372856,1979.808 955.614856,1979.808 Z M977.404285,1976.244 C977.668285,1976.244 977.822285,1976.398 977.822285,1976.662 C977.778285,1977.102 977.096285,1977.872 975.732285,1978.994 C975.644285,1979.06 975.578285,1979.104 975.534285,1979.148 C975.468285,1981.48 975.380285,1982.954 975.248285,1983.592 C974.984285,1984.736 974.522285,1985.308 973.862285,1985.308 C973.158285,1985.308 972.762285,1984.758 972.674285,1983.636 C972.674285,1983.372 972.718285,1983.218 972.828285,1983.218 C973.048285,1983.262 973.268285,1983.306 973.532285,1983.35 C973.796285,1983.35 973.972285,1983.02 974.060285,1982.316 C974.148285,1982.096 974.214285,1981.326 974.280285,1980.006 C973.796285,1980.27 973.378285,1980.402 973.048285,1980.402 C971.816285,1980.314 971.156285,1980.028 971.112285,1979.522 C971.112285,1979.258 971.354285,1979.06 971.882285,1978.972 C972.498285,1978.84 973.312285,1978.51 974.324285,1977.982 C974.324285,1977.344 974.346285,1976.64 974.346285,1975.892 C973.972285,1975.98 973.686285,1976.024 973.510285,1976.046 C972.454285,1976.046 971.882285,1975.804 971.794285,1975.276 C971.882285,1975.1 972.740285,1974.792 974.368285,1974.374 L974.368285,1971.734 C974.368285,1971.184 974.258285,1970.832 974.038285,1970.678 C973.818285,1970.524 973.730285,1970.392 973.730285,1970.304 C973.906285,1969.996 974.214285,1969.82 974.698285,1969.732 C975.556285,1969.82 975.996285,1970.304 975.996285,1971.228 C975.842285,1971.712 975.732285,1972.658 975.666285,1974.044 C976.018285,1973.978 976.348285,1973.934 976.612285,1973.912 C977.228285,1973.978 977.558285,1974.242 977.558285,1974.726 C977.492285,1975.1 977.206285,1975.32 976.700285,1975.364 C976.282285,1975.474 975.930285,1975.562 975.622285,1975.606 C975.600285,1976.222 975.578285,1976.794 975.578285,1977.3 C976.150285,1976.992 976.766285,1976.64 977.404285,1976.244 Z M982.046285,1969.006 C982.728285,1969.028 983.102285,1969.358 983.146285,1970.018 C982.926285,1971.052 982.816285,1973.736 982.772285,1978.07 C983.498285,1977.916 984.048285,1977.828 984.422285,1977.828 C984.994285,1977.916 985.302285,1978.312 985.368285,1978.972 C985.368285,1979.72 984.730285,1980.776 983.476285,1982.14 C984.840285,1982.888 986.204285,1983.394 987.524285,1983.658 C988.008285,1983.79 988.250285,1983.9 988.250285,1983.988 C988.074285,1984.956 987.348285,1985.462 986.028285,1985.572 C985.412285,1985.572 984.224285,1984.736 982.486285,1983.042 C981.056285,1984.098 979.758285,1984.692 978.570285,1984.802 C978.042285,1984.802 977.800285,1984.648 977.800285,1984.34 C977.800285,1984.164 977.976285,1984.01 978.328285,1983.878 C979.164285,1983.658 980.176285,1983.086 981.408285,1982.118 C980.308285,1981.26 979.296285,1980.732 978.350285,1980.534 C978.174285,1980.534 978.086285,1980.468 978.086285,1980.336 C978.218285,1979.984 978.504285,1979.786 978.966285,1979.764 C979.582285,1979.852 980.682285,1980.38 982.266285,1981.37 C982.992285,1980.644 983.366285,1980.05 983.410285,1979.566 C983.410285,1979.346 983.322285,1979.214 983.168285,1979.214 C982.002285,1979.39 980.836285,1979.544 979.692285,1979.698 C979.340285,1979.698 979.032285,1979.61 978.768285,1979.39 C978.768285,1979.28 978.768285,1979.214 978.812285,1979.17 C979.736285,1978.884 980.572285,1978.642 981.276285,1978.444 C981.518285,1977.366 981.650285,1974.99 981.650285,1971.294 C981.650285,1970.458 981.452285,1969.886 981.100285,1969.622 C981.232285,1969.226 981.540285,1969.006 982.046285,1969.006 Z M980.000285,1969.996 C980.616285,1970.04 980.968285,1970.348 981.056285,1970.898 C981.056285,1971.58 980.528285,1972.064 979.494285,1972.35 C979.494285,1972.438 979.516285,1972.482 979.516285,1972.526 C979.494285,1972.988 979.472285,1973.428 979.472285,1973.868 C979.604285,1973.824 979.714285,1973.78 979.846285,1973.736 C980.132285,1973.648 980.374285,1973.582 980.572285,1973.56 C981.034285,1973.604 981.276285,1973.824 981.276285,1974.176 C981.232285,1974.484 981.012285,1974.638 980.638285,1974.66 C980.374285,1974.726 980.198285,1974.748 980.110285,1974.748 C979.824285,1974.748 979.604285,1974.726 979.450285,1974.682 L979.450285,1975.452 C979.494285,1975.958 979.670285,1976.2 980.000285,1976.2 C980.220285,1976.2 980.396285,1976.134 980.572285,1976.002 C980.990285,1976.002 981.210285,1976.178 981.210285,1976.486 C981.210285,1976.882 981.078285,1977.102 980.858285,1977.168 C980.594285,1977.344 980.286285,1977.41 979.934285,1977.41 C978.856285,1977.344 978.306285,1976.794 978.284285,1975.782 C978.240285,1974.528 978.218285,1973.494 978.218285,1972.702 C978.130285,1972.24 977.998285,1971.954 977.800285,1971.822 C977.976285,1971.624 978.240285,1971.514 978.636285,1971.514 C978.768285,1971.558 978.878285,1971.602 978.966285,1971.646 C979.142285,1971.426 979.296285,1971.206 979.406285,1971.008 C979.560285,1970.788 979.648285,1970.502 979.648285,1970.15 C979.648285,1970.062 979.758285,1969.996 980.000285,1969.996 Z M984.862285,1970.348 C985.918285,1970.502 986.468285,1970.964 986.556285,1971.756 C986.556285,1973.45 986.424285,1974.726 986.182285,1975.606 C985.896285,1976.75 985.654285,1977.3 985.478285,1977.3 C984.950285,1977.3 984.642285,1977.124 984.554285,1976.75 C984.532285,1976.794 984.510285,1976.794 984.488285,1976.794 C983.476285,1976.772 982.970285,1976.552 982.948285,1976.112 C982.948285,1976.046 983.058285,1975.98 983.278285,1975.936 C983.476285,1975.892 983.718285,1975.826 984.004285,1975.694 C984.268285,1975.606 984.510285,1975.54 984.730285,1975.496 C984.774285,1975.276 984.818285,1975.034 984.884285,1974.814 C984.928285,1974.55 984.950285,1974.308 984.994285,1974.066 C984.928285,1974.11 984.884285,1974.11 984.840285,1974.11 C984.752285,1974.132 984.664285,1974.154 984.576285,1974.154 C983.608285,1974.132 983.124285,1973.912 983.102285,1973.494 C983.102285,1973.45 983.212285,1973.406 983.454285,1973.362 C983.674285,1973.318 983.938285,1973.252 984.246285,1973.164 C984.598285,1973.076 984.884285,1973.032 985.126285,1972.988 C985.148285,1972.636 985.170285,1972.35 985.170285,1972.13 C985.170285,1971.69 984.994285,1971.448 984.642285,1971.448 C984.466285,1971.492 984.312285,1971.492 984.158285,1971.492 C983.542285,1971.47 983.234285,1971.382 983.234285,1971.25 C983.234285,1971.008 983.476285,1970.766 983.982285,1970.546 C984.180285,1970.458 984.466285,1970.392 984.862285,1970.348 Z" transform="translate(-901 -1968)"/>
</svg>
