<svg xmlns="http://www.w3.org/2000/svg" width="61" height="13" viewBox="0 0 61 13">
  <path fill="#4A4A4A" fill-rule="evenodd" d="M249.28044,1970.25522 C249.583372,1970.30066 249.749984,1970.51271 249.780278,1970.90652 C249.749984,1971.30034 249.583372,1971.72444 249.265293,1972.19398 C249.053241,1972.61809 248.916922,1972.92102 248.826042,1973.08763 C248.826042,1973.14822 248.841189,1973.16337 248.886628,1973.16337 L249.871157,1972.84529 C250.325555,1972.11825 250.567901,1971.61841 250.567901,1971.34577 C250.537608,1971.31548 250.522461,1971.2549 250.507314,1971.16402 C250.507314,1971.01255 250.643634,1970.92167 250.931419,1970.92167 C251.264644,1970.92167 251.431257,1971.14887 251.431257,1971.60327 C251.431257,1971.87591 251.067738,1972.43633 250.340702,1973.28454 C249.704545,1974.13275 249.356173,1974.67803 249.295587,1974.92037 C249.295587,1974.98096 249.32588,1975.01125 249.416759,1975.01125 C249.628812,1974.98096 249.871157,1974.90523 250.174089,1974.75376 C250.143796,1974.60229 250.113503,1974.42053 250.098356,1974.23878 C250.098356,1974.1176 250.143796,1974.04187 250.264969,1974.04187 C250.567901,1974.10246 250.840539,1974.23878 251.098032,1974.48112 C251.340377,1974.69317 251.46155,1974.90523 251.46155,1975.13242 C251.431257,1975.63226 251.249498,1975.87461 250.901126,1975.87461 C250.734513,1975.87461 250.567901,1975.73829 250.401288,1975.4505 C250.113503,1975.61712 249.719691,1975.84431 249.235,1976.11695 C248.629136,1976.41989 248.235325,1976.5865 248.023272,1976.60164 C247.705194,1976.60164 247.553728,1976.46532 247.553728,1976.19269 C247.553728,1976.02607 247.947539,1975.4505 248.735162,1974.48112 C248.856335,1974.32965 248.962361,1974.17819 249.068388,1974.02672 C248.659429,1974.20848 248.295911,1974.29936 247.992979,1974.31451 C247.72034,1974.31451 247.553728,1974.17819 247.523435,1973.8904 C247.523435,1973.67835 247.796073,1973.16337 248.341351,1972.34545 C248.826042,1971.679 249.083534,1971.10343 249.113827,1970.63388 C249.113827,1970.58845 249.098681,1970.55815 249.083534,1970.52786 C249.038094,1970.49757 249.022948,1970.45213 249.022948,1970.40669 C249.022948,1970.31581 249.098681,1970.25522 249.28044,1970.25522 Z M247.85666,1977.20751 C247.553728,1977.60132 247.265942,1977.82852 246.993304,1977.88911 C246.826691,1977.87396 246.675225,1977.85881 246.523759,1977.85881 C246.402586,1977.85881 246.342,1977.93454 246.342,1978.07086 C246.372293,1978.64644 246.644932,1978.96451 247.159916,1978.99481 C247.371969,1978.96451 247.553728,1978.7979 247.735487,1978.49497 C247.9021,1978.16174 247.992979,1977.82852 248.008126,1977.49529 C248.008126,1977.31353 247.947539,1977.20751 247.85666,1977.20751 Z M250.264969,1976.41989 C251.098032,1976.46532 251.522136,1976.70767 251.522136,1977.16207 C251.491843,1977.55588 251.310084,1977.76793 250.976859,1977.79823 C250.70422,1977.78308 250.507314,1977.66191 250.370995,1977.44985 C250.143796,1977.19236 250.022623,1976.90458 250.007477,1976.5865 C250.007477,1976.48047 250.08321,1976.41989 250.264969,1976.41989 Z M248.765456,1977.05604 C248.583696,1977.05604 248.492817,1977.11663 248.492817,1977.2378 C248.507963,1977.57103 248.61399,1977.87396 248.795749,1978.1466 C248.916922,1978.3738 249.083534,1978.49497 249.310733,1978.52526 C249.674251,1978.49497 249.856011,1978.26777 249.871157,1977.84367 C249.871157,1977.35897 249.492492,1977.10148 248.765456,1977.05604 Z M252.188587,1971.40636 C252.703571,1971.43665 252.961063,1972.30001 252.961063,1974.01158 C252.961063,1977.43471 252.764157,1979.14627 252.385492,1979.14627 C252.052267,1979.14627 251.855362,1978.76761 251.794775,1978.01028 C252.037121,1976.19269 252.188587,1974.46597 252.21888,1972.86043 C252.21888,1972.11825 252.158293,1971.69415 252.037121,1971.57297 C252.037121,1971.46695 252.082561,1971.40636 252.188587,1971.40636 Z M256.444781,1969.63421 C257.701948,1969.81597 258.353252,1970.22493 258.398692,1970.86108 L258.307812,1971.54268 C258.322959,1973.75408 258.353252,1975.95034 258.383545,1978.1466 C258.383545,1979.41891 258.05032,1980.03992 257.38387,1980.03992 C256.838592,1979.99448 256.505367,1979.69155 256.369048,1979.08569 C256.369048,1978.93422 256.414487,1978.85849 256.520514,1978.85849 L257.050645,1978.85849 C257.29299,1978.78275 257.429309,1978.3435 257.429309,1977.52559 C257.459603,1975.58682 257.505042,1973.64806 257.535336,1971.72444 C257.535336,1970.81564 257.262697,1970.3461 256.747713,1970.3461 C255.626864,1970.54301 254.506016,1970.73991 253.400314,1970.93682 C252.824744,1970.87623 252.552105,1970.78535 252.552105,1970.64903 C252.552105,1970.58845 252.597545,1970.51271 252.703571,1970.45213 C254.218231,1970.02802 255.475398,1969.75538 256.444781,1969.63421 Z M254.763508,1971.679 C254.839241,1971.679 254.884681,1971.75473 254.884681,1971.9062 C254.869534,1972.16369 254.778655,1972.42118 254.596896,1972.67868 C254.415137,1972.92102 254.218231,1973.04219 254.006178,1973.05734 C253.612367,1973.02705 253.400314,1972.79985 253.370021,1972.34545 C253.370021,1972.23942 253.415461,1972.17884 253.521487,1972.17884 C253.627513,1972.17884 253.748686,1972.19398 253.885006,1972.19398 C254.157644,1972.16369 254.460576,1971.98193 254.763508,1971.679 Z M256.308461,1971.10343 C256.717419,1971.10343 256.929472,1971.30034 256.929472,1971.66385 C256.929472,1971.9062 256.702273,1972.28486 256.263021,1972.79985 C256.172142,1972.92102 256.081262,1973.02705 256.005529,1973.10278 C256.308461,1973.05734 256.5811,1973.02705 256.823446,1973.0119 C257.126378,1973.04219 257.29299,1973.17851 257.29299,1973.40571 C257.262697,1973.58747 257.111231,1973.6935 256.868885,1973.72379 C256.384194,1973.81467 255.960089,1973.87526 255.596571,1973.9207 C255.626864,1974.01158 255.657158,1974.10246 255.657158,1974.19334 C255.596571,1974.43568 255.551131,1974.64773 255.520838,1974.81435 C255.91465,1974.75376 256.247875,1974.72347 256.520514,1974.70832 C256.974912,1974.70832 257.202111,1974.85979 257.202111,1975.14757 C257.202111,1975.35962 257.065791,1975.4505 256.823446,1975.4505 C256.49022,1975.4505 256.111555,1975.46565 255.717744,1975.49594 C255.142173,1975.55653 254.702922,1975.60197 254.384843,1975.63226 C254.566603,1975.81402 254.657482,1976.11695 254.657482,1976.52591 C254.657482,1976.54106 254.642336,1976.5562 254.642336,1976.5562 C254.702922,1976.7834 254.824095,1976.88943 254.990707,1976.88943 C255.293639,1976.82884 255.702597,1976.69252 256.217582,1976.45018 C256.641686,1976.48047 256.868885,1976.66223 256.914325,1976.99546 C256.914325,1977.19236 256.808299,1977.29839 256.62654,1977.31353 C256.384194,1977.31353 256.050969,1977.32868 255.626864,1977.35897 C255.414812,1977.40441 255.081587,1977.48015 254.642336,1977.60132 C254.097058,1977.60132 253.824419,1977.35897 253.824419,1976.84399 C253.869859,1976.70767 253.900152,1976.57135 253.930445,1976.43503 C253.930445,1975.98063 253.854712,1975.708 253.73354,1975.61712 C253.491194,1975.58682 253.324582,1975.52624 253.248849,1975.40506 C253.248849,1975.35962 253.370021,1975.29904 253.612367,1975.23845 C254.021325,1975.14757 254.39999,1975.05669 254.733215,1974.96581 C254.733215,1974.73861 254.748362,1974.55685 254.748362,1974.43568 C254.733215,1974.26907 254.702922,1974.1479 254.642336,1974.05702 C254.384843,1974.08731 254.187938,1974.1176 254.051618,1974.1176 C253.521487,1974.1176 253.233702,1973.99643 253.203409,1973.73894 C253.279142,1973.64806 253.915299,1973.48145 255.127027,1973.26939 C255.187613,1973.11793 255.308786,1972.90587 255.475398,1972.61809 C255.687451,1972.19398 255.808624,1971.84561 255.838917,1971.58812 C255.838917,1971.46695 255.808624,1971.36092 255.77833,1971.27004 C255.77833,1971.16402 255.944943,1971.10343 256.308461,1971.10343 Z M263.933691,1971.679 C264.191183,1971.679 264.448675,1971.95164 264.721314,1972.46662 C264.766754,1972.76956 264.82734,1973.05734 264.903073,1973.36027 C264.933366,1973.48145 264.96366,1973.58747 264.993953,1973.67835 C265.175712,1973.61776 265.387764,1973.55718 265.63011,1973.48145 C265.917895,1973.39057 266.160241,1973.34513 266.342,1973.31483 L266.357147,1973.31483 C266.372293,1973.19366 266.402586,1973.07249 266.448026,1972.93617 C266.508613,1972.61809 266.554052,1972.22428 266.554052,1971.76988 C266.538906,1971.64871 266.493466,1971.57297 266.417733,1971.57297 C266.29656,1971.60327 266.175387,1971.64871 266.039068,1971.72444 C265.917895,1971.83047 265.811869,1971.87591 265.705843,1971.87591 C265.024246,1971.87591 264.675874,1971.72444 264.675874,1971.43665 C264.675874,1971.33063 264.903073,1971.20946 265.357471,1971.05799 C265.751283,1970.89138 266.099654,1970.8005 266.38744,1970.78535 C267.235649,1970.87623 267.674901,1971.17916 267.72034,1971.72444 C267.72034,1972.25457 267.599168,1972.75441 267.356822,1973.20881 C267.114476,1973.81467 266.902424,1974.1176 266.735812,1974.1176 C266.614639,1974.1176 266.538906,1974.10246 266.493466,1974.05702 C266.448026,1974.07216 266.417733,1974.07216 266.38744,1974.07216 C266.357147,1974.08731 266.326853,1974.08731 266.326853,1974.08731 C266.372293,1974.17819 266.402586,1974.28421 266.402586,1974.40539 C266.38744,1974.67803 266.372293,1974.92037 266.372293,1975.16272 C266.614639,1975.07184 266.841838,1975.01125 267.069037,1974.95067 C267.341675,1974.95067 267.493141,1975.08698 267.493141,1975.32933 L267.493141,1975.40506 C267.508288,1975.40506 267.523435,1975.38992 267.538581,1975.38992 C268.083859,1975.17786 268.720016,1974.70832 269.447053,1974.01158 C269.598518,1973.8904 269.719691,1973.75408 269.840864,1973.61776 C269.235,1973.34513 268.674576,1973.16337 268.159592,1973.07249 C268.023272,1973.07249 267.962686,1973.02705 267.962686,1972.92102 C268.053566,1972.64838 268.265618,1972.51206 268.629136,1972.48177 C268.992655,1972.51206 269.568225,1972.69382 270.370995,1973.02705 C270.70422,1972.61809 270.976859,1972.20913 271.173765,1971.80017 C271.173765,1971.64871 271.113178,1971.55783 270.992005,1971.55783 C270.840539,1971.57297 270.507314,1971.679 270.022623,1971.86076 C269.522786,1972.05767 269.204707,1972.16369 269.068388,1972.17884 C268.735162,1972.17884 268.583696,1972.04252 268.583696,1971.76988 C268.583696,1971.64871 268.841189,1971.30034 269.356173,1970.70962 C269.840864,1970.13405 270.098356,1969.70994 270.098356,1969.4373 C270.068063,1969.34642 270.052916,1969.27069 270.03777,1969.19496 C270.03777,1969.10408 270.128649,1969.05864 270.310409,1969.05864 C270.613341,1969.11923 270.764807,1969.31613 270.7951,1969.61906 C270.7951,1969.70994 270.74966,1969.87656 270.65878,1970.08861 C270.477021,1970.45213 270.370995,1970.70962 270.310409,1970.87623 C270.310409,1970.96711 270.325555,1970.9974 270.386142,1970.9974 C271.219204,1970.73991 271.688749,1970.60359 271.779629,1970.60359 C272.370346,1970.67932 272.673278,1970.89138 272.688424,1971.23975 C272.688424,1971.4518 272.430932,1971.83047 271.915948,1972.39089 C271.673602,1972.75441 271.41611,1973.07249 271.173765,1973.37542 C271.355524,1973.4663 271.522136,1973.54203 271.703896,1973.61776 C272.764157,1974.04187 273.839566,1974.32965 274.899828,1974.48112 C275.248199,1974.54171 275.429959,1974.60229 275.429959,1974.64773 C275.308786,1975.34448 274.763508,1975.72314 273.824419,1975.79887 C273.354875,1975.79887 272.446079,1975.31418 271.098032,1974.3448 C270.916272,1974.22363 270.74966,1974.1176 270.598194,1974.02672 C270.264969,1974.37509 269.94689,1974.69317 269.613665,1974.98096 C269.007801,1975.708 268.507963,1976.05637 268.114152,1976.05637 C267.659754,1976.05637 267.371969,1975.98063 267.265942,1975.79887 C267.129623,1975.88975 266.963011,1975.92005 266.750958,1975.92005 C266.569199,1975.9049 266.43288,1975.88975 266.342,1975.85946 C266.311707,1976.48047 266.29656,1976.99546 266.281414,1977.40441 C266.569199,1977.31353 266.872131,1977.22265 267.175063,1977.10148 C267.341675,1977.10148 267.432555,1977.19236 267.432555,1977.37412 C267.402262,1977.58617 266.932717,1977.94969 266.023921,1978.46468 C265.236298,1978.90393 264.630434,1979.11598 264.20633,1979.11598 C263.388413,1979.05539 262.949162,1978.85849 262.918869,1978.52526 C262.918869,1978.3435 263.085482,1978.22233 263.433853,1978.16174 C263.615612,1978.1466 263.812518,1978.1163 264.054864,1978.05572 C263.933691,1977.11663 263.782225,1976.34415 263.585319,1975.708 C263.585319,1975.55653 263.630759,1975.46565 263.751932,1975.42021 C264.100304,1975.42021 264.388089,1975.6777 264.615288,1976.17754 C264.7819,1976.32901 264.87278,1976.87428 264.903073,1977.82852 C265.084832,1977.79823 265.266592,1977.73764 265.448351,1977.67705 C265.418058,1976.31386 265.402911,1975.31418 265.402911,1974.67803 C265.372618,1974.51141 265.342325,1974.39024 265.296885,1974.29936 C265.175712,1974.29936 265.069686,1974.28421 265.009099,1974.25392 C264.948513,1974.40539 264.87278,1974.48112 264.751607,1974.48112 C264.539555,1974.48112 264.327503,1974.32965 264.11545,1973.99643 C263.903398,1973.6935 263.782225,1973.28454 263.721639,1972.79985 C263.721639,1972.1031 263.782225,1971.73959 263.933691,1971.679 Z M268.659429,1976.48047 C268.901775,1976.48047 269.159267,1976.73796 269.401613,1977.22265 C269.477346,1977.58617 269.568225,1977.93454 269.674251,1978.28292 C269.734838,1978.43438 269.780278,1978.5707 269.810571,1978.67673 C270.068063,1978.61614 270.416435,1978.55556 270.855686,1978.46468 C271.113178,1978.40409 271.340377,1978.3738 271.537283,1978.3435 C271.55243,1978.17689 271.582723,1977.99513 271.643309,1977.81337 C271.703896,1977.52559 271.734189,1977.17722 271.734189,1976.76826 C271.719042,1976.61679 271.658456,1976.54106 271.55243,1976.54106 C271.385817,1976.57135 271.188911,1976.61679 270.976859,1976.67738 C270.7951,1976.76826 270.628487,1976.8137 270.461875,1976.8137 C269.674251,1976.79855 269.265293,1976.63194 269.250147,1976.31386 C269.250147,1976.19269 269.553079,1976.05637 270.158943,1975.9049 C270.689074,1975.75343 271.143471,1975.66256 271.522136,1975.63226 C272.491519,1975.72314 272.991356,1976.08666 273.051943,1976.72282 C273.051943,1977.20751 272.915623,1977.67705 272.658131,1978.1163 C272.582398,1978.28292 272.521812,1978.40409 272.461225,1978.49497 C272.521812,1978.58585 272.567252,1978.67673 272.567252,1978.78275 C272.521812,1979.0251 272.340053,1979.14627 272.037121,1979.17657 C271.143471,1979.29774 270.552754,1979.35833 270.280115,1979.35833 C270.098356,1979.35833 269.931744,1979.35833 269.810571,1979.32803 C269.749984,1979.46435 269.674251,1979.54008 269.553079,1979.54008 C269.32588,1979.54008 269.098681,1979.35833 268.886628,1978.96451 C268.659429,1978.601 268.52311,1978.13145 268.462524,1977.54073 C268.462524,1976.88943 268.52311,1976.54106 268.659429,1976.48047 Z M282.085806,1969.64936 C282.69167,1969.6948 283.009749,1970.04317 283.009749,1970.70962 C282.918869,1970.98226 282.843136,1971.4518 282.797696,1972.14854 C283.085482,1972.1031 283.342974,1972.07281 283.555026,1972.05767 C283.979131,1972.1031 284.20633,1972.28486 284.20633,1972.61809 C284.16089,1972.89073 283.963984,1973.04219 283.615612,1973.07249 C283.282387,1973.13307 282.994602,1973.19366 282.73711,1973.2391 L282.73711,1973.36027 C282.721963,1973.87526 282.706817,1974.35995 282.706817,1974.78405 C283.009749,1974.63259 283.327827,1974.46597 283.661052,1974.28421 C283.842811,1974.28421 283.933691,1974.37509 283.933691,1974.54171 C283.903398,1974.81435 283.49444,1975.2536 282.676523,1975.87461 C282.631084,1977.465 282.570497,1978.47982 282.479618,1978.90393 C282.297858,1979.66126 282.010073,1980.03992 281.616262,1980.03992 C281.101277,1980.03992 280.798345,1979.66126 280.737759,1978.90393 C280.737759,1978.70702 280.768052,1978.601 280.843785,1978.601 C281.010398,1978.61614 281.192157,1978.63129 281.404209,1978.66158 C281.510235,1978.66158 281.585968,1978.43438 281.616262,1977.97998 C281.676848,1977.84367 281.722288,1977.34383 281.767728,1976.49562 C281.358769,1976.72282 281.025544,1976.82884 280.768052,1976.82884 C279.950136,1976.76826 279.526031,1976.57135 279.495738,1976.23813 C279.495738,1976.05637 279.66235,1975.93519 279.995576,1975.87461 C280.449974,1975.78373 281.055837,1975.57168 281.813167,1975.20816 C281.813167,1974.67803 281.828314,1974.07216 281.828314,1973.39057 C281.434502,1973.45115 281.146717,1973.49659 280.964958,1973.51174 C280.222775,1973.51174 279.828963,1973.34513 279.783523,1972.98161 C279.859256,1972.84529 280.540853,1972.63324 281.843461,1972.3606 L281.843461,1971.07314 C281.843461,1970.67932 281.767728,1970.43698 281.616262,1970.31581 C281.464796,1970.20978 281.389063,1970.1189 281.389063,1970.04317 C281.510235,1969.83112 281.752581,1969.6948 282.085806,1969.64936 Z M287.477995,1969.74024 C288.250471,1969.74024 288.644283,1970.07346 288.644283,1970.72476 C288.56855,1971.33063 288.492817,1971.95164 288.417084,1972.5878 C288.43223,1972.93617 288.583696,1973.10278 288.886628,1973.10278 C288.947215,1973.10278 289.144121,1973.07249 289.462199,1973.0119 C289.749984,1973.02705 289.931744,1973.05734 289.99233,1973.11793 C290.08321,1973.17851 290.143796,1973.26939 290.174089,1973.39057 C290.174089,1973.73894 289.94689,1973.95099 289.507639,1974.02672 L288.598843,1974.02672 C287.871806,1973.95099 287.523435,1973.51174 287.523435,1972.72412 C287.538581,1972.22428 287.568874,1971.69415 287.629461,1971.14887 C287.629461,1970.81564 287.477995,1970.63388 287.205356,1970.63388 C286.478319,1970.70962 285.978482,1970.73991 285.720989,1970.73991 C285.418058,1970.70962 285.266592,1970.60359 285.266592,1970.43698 C285.448351,1970.10375 286.190534,1969.86141 287.477995,1969.74024 Z M285.493791,1971.19431 C285.978482,1971.19431 286.220827,1971.4518 286.220827,1971.96679 C285.948188,1973.48145 285.296885,1974.29936 284.266916,1974.43568 C284.16089,1974.42053 284.11545,1974.37509 284.11545,1974.31451 C284.11545,1974.29936 284.145743,1974.22363 284.221476,1974.10246 C284.903073,1973.29969 285.251445,1972.61809 285.251445,1972.05767 C285.251445,1971.87591 285.206005,1971.75473 285.130272,1971.69415 C285.054539,1971.63356 285.024246,1971.58812 285.024246,1971.52753 C285.084832,1971.33063 285.236298,1971.2246 285.493791,1971.19431 Z M288.189885,1974.25392 C288.61399,1974.25392 288.841189,1974.51141 288.841189,1975.01125 C288.659429,1975.95034 288.220178,1976.76826 287.523435,1977.44985 C288.250471,1977.97998 289.128974,1978.43438 290.143796,1978.81305 C290.870833,1979.05539 291.249498,1979.2523 291.249498,1979.41891 C291.249498,1979.9036 290.689074,1980.20653 289.598518,1980.32771 C289.159267,1980.32771 288.371644,1979.7067 287.235649,1978.43438 C287.084183,1978.31321 286.947864,1978.19204 286.841838,1978.08601 C285.751283,1979.11598 284.797047,1979.63096 283.994277,1979.63096 C283.691345,1979.63096 283.555026,1979.55523 283.555026,1979.40376 C283.555026,1979.34318 283.600466,1979.26745 283.721639,1979.20686 C284.751607,1978.63129 285.569524,1978.05572 286.175387,1977.51044 C285.357471,1976.8137 284.842487,1976.41989 284.645581,1976.31386 C284.524408,1976.31386 284.418382,1976.34415 284.357796,1976.37445 C284.282063,1976.37445 284.25177,1976.31386 284.25177,1976.17754 C284.25177,1975.87461 284.433529,1975.708 284.797047,1975.708 C285.206005,1975.84431 285.872455,1976.23813 286.781251,1976.90458 C287.235649,1976.38959 287.508288,1975.88975 287.614314,1975.40506 C287.614314,1975.34448 287.568874,1975.29904 287.477995,1975.29904 C286.872131,1975.34448 286.281414,1975.38992 285.720989,1975.4505 C285.327178,1975.4505 285.099979,1975.35962 285.069686,1975.19301 C285.069686,1975.11728 285.115126,1975.07184 285.236298,1975.05669 C286.311707,1974.52656 287.296236,1974.25392 288.189885,1974.25392 Z M303.449,1968.786 C303.888251,1968.83144 304.11545,1969.02835 304.11545,1969.36157 C304.07001,1969.63421 303.873105,1969.77053 303.509586,1969.80082 C303.35812,1969.83112 303.221801,1969.84626 303.100628,1969.86141 C303.176361,1970.01287 303.221801,1970.17949 303.221801,1970.39154 C303.206654,1970.48242 303.206654,1970.5733 303.206654,1970.64903 C303.49444,1970.61874 303.782225,1970.60359 304.054864,1970.58845 C304.933366,1970.67932 305.387764,1970.9974 305.433204,1971.54268 C305.433204,1972.08796 305.266592,1972.5878 304.96366,1973.07249 C304.645581,1973.70864 304.388089,1974.01158 304.176037,1974.01158 C303.903398,1974.01158 303.751932,1973.8904 303.721639,1973.61776 C301.813167,1973.87526 300.556,1974.02672 299.934989,1974.05702 C299.813816,1974.05702 299.722937,1974.05702 299.632057,1974.04187 C299.601764,1974.26907 299.510884,1974.39024 299.344272,1974.40539 C299.071633,1974.40539 298.783848,1974.19334 298.496062,1973.76923 C298.223424,1973.36027 298.041664,1972.83014 297.965932,1972.19398 C297.965932,1971.679 298.011371,1971.40636 298.117397,1971.37607 C298.223424,1971.37607 298.32945,1971.43665 298.420329,1971.54268 C298.723261,1971.42151 299.238246,1971.28519 299.995576,1971.14887 C299.934989,1970.87623 299.889549,1970.58845 299.84411,1970.28551 C299.722937,1970.31581 299.616911,1970.31581 299.541178,1970.31581 C298.798994,1970.31581 298.405183,1970.14919 298.344596,1969.78568 C298.450623,1969.63421 299.450298,1969.40701 301.343623,1969.07379 C302.206979,1968.90717 302.903722,1968.81629 303.449,1968.786 Z M300.162188,1972.07281 C299.828963,1972.1334 299.526031,1972.14854 299.223099,1972.14854 C299.026193,1972.14854 298.874727,1972.14854 298.768701,1972.11825 C298.889874,1972.45148 299.056487,1972.7847 299.238246,1973.10278 C299.329125,1973.2391 299.404858,1973.34513 299.465445,1973.43601 C299.722937,1973.37542 300.056162,1973.31483 300.46512,1973.2391 C300.374241,1972.99675 300.268214,1972.60294 300.162188,1972.07281 Z M303.963984,1972.76956 C304.085157,1972.43633 304.145743,1972.05767 304.145743,1971.60327 C304.130597,1971.4518 304.100304,1971.36092 304.07001,1971.36092 C303.767078,1971.39121 303.433853,1971.43665 303.100628,1971.48209 C302.994602,1972.11825 302.858283,1972.57265 302.706817,1972.87558 C303.191508,1972.81499 303.585319,1972.76956 303.918544,1972.75441 C303.933691,1972.75441 303.948838,1972.76956 303.963984,1972.76956 Z M300.919518,1973.16337 C301.207303,1973.11793 301.525382,1973.07249 301.873754,1973.0119 C301.919193,1973.0119 301.964633,1972.99675 302.02522,1972.98161 C302.070659,1972.49692 302.116099,1972.05767 302.146392,1971.64871 C301.93434,1971.679 301.737434,1971.72444 301.540529,1971.75473 C301.343623,1971.83047 301.161864,1971.89105 300.980104,1971.92135 C300.995251,1972.19398 301.010398,1972.48177 301.010398,1972.7847 C300.980104,1972.95131 300.949811,1973.07249 300.919518,1973.16337 Z M300.889225,1970.9974 C301.343623,1970.90652 301.767728,1970.83079 302.176686,1970.7702 L302.176686,1970.49757 C302.176686,1970.30066 302.131246,1970.16434 302.055513,1970.10375 C302.010073,1970.07346 301.97978,1970.05831 301.964633,1970.02802 C301.449649,1970.10375 301.010398,1970.16434 300.646879,1970.19463 C300.707466,1970.31581 300.768052,1970.45213 300.798345,1970.58845 C300.828638,1970.67932 300.858932,1970.81564 300.889225,1970.9974 Z M303.49444,1974.43568 C302.873429,1974.46597 301.767728,1974.58715 300.177335,1974.7992 C299.329125,1974.89008 298.889874,1974.95067 298.874727,1975.01125 C298.889874,1975.37477 299.238246,1975.58682 299.904696,1975.64741 C300.207628,1975.64741 300.768052,1975.58682 301.616262,1975.46565 C302.388738,1975.38992 303.024895,1975.34448 303.524733,1975.31418 C303.918544,1975.2233 304.145743,1975.04154 304.20633,1974.75376 C304.20633,1974.54171 303.963984,1974.43568 303.49444,1974.43568 Z M301.26789,1977.19236 C299.874403,1977.34383 298.814141,1977.41956 298.087104,1977.41956 C297.541827,1977.40441 297.208602,1977.29839 297.057136,1977.08634 C297.057136,1977.02575 297.223748,1976.95002 297.556973,1976.85914 C301.101277,1976.25327 303.706492,1975.92005 305.402911,1975.87461 C306.023921,1975.87461 306.342,1976.08666 306.342,1976.49562 C306.342,1976.7834 306.160241,1976.91972 305.811869,1976.91972 C304.903073,1976.91972 303.903398,1976.96516 302.78255,1977.0409 C302.570497,1977.07119 302.388738,1977.08634 302.222125,1977.10148 C302.313005,1977.37412 302.373591,1977.73764 302.388738,1978.17689 C302.388738,1979.29774 302.373591,1979.84302 302.358445,1979.84302 C302.237272,1980.60035 301.919193,1980.97901 301.373916,1980.97901 C300.949811,1980.97901 300.662026,1980.57005 300.540853,1979.76728 C300.540853,1979.6764 300.601439,1979.61582 300.722612,1979.61582 C300.813492,1979.61582 300.949811,1979.63096 301.13157,1979.63096 C301.237597,1979.58552 301.298183,1979.4492 301.328476,1979.20686 C301.358769,1978.41924 301.389063,1977.96484 301.389063,1977.82852 C301.358769,1977.54073 301.328476,1977.32868 301.26789,1977.19236 Z M299.934989,1978.02542 C300.041015,1978.02542 300.101602,1978.13145 300.101602,1978.32836 C300.071309,1978.64644 299.950136,1978.96451 299.70779,1979.26745 C299.465445,1979.55523 299.177659,1979.7067 298.874727,1979.73699 C298.32945,1979.69155 298.026518,1979.35833 297.981078,1978.73731 C297.981078,1978.58585 298.041664,1978.49497 298.19313,1978.49497 C298.344596,1978.49497 298.526356,1978.51012 298.708115,1978.52526 C299.101926,1978.47982 299.510884,1978.31321 299.934989,1978.02542 Z M303.812518,1977.64676 C304.993953,1977.70735 305.58467,1978.08601 305.58467,1978.76761 C305.569524,1979.16142 305.387764,1979.37347 305.039393,1979.40376 C304.645581,1979.37347 304.327503,1979.20686 304.11545,1978.93422 C303.782225,1978.601 303.585319,1978.22233 303.555026,1977.81337 C303.555026,1977.70735 303.630759,1977.64676 303.812518,1977.64676 Z" transform="translate(-246 -1968)"/>
</svg>
