<svg xmlns="http://www.w3.org/2000/svg" width="61" height="13" viewBox="0 0 61 13">
  <path fill="#4A4A4A" fill-rule="evenodd" d="M495,3.13550136 L497.777778,12.8102981 L499.363144,12.8102981 L501.327913,5.34417344 L501.382114,5.34417344 L503.346883,12.8102981 L504.918699,12.8102981 L507.710027,3.13550136 L506.04336,3.13550136 L504.159892,10.6693767 L504.105691,10.6693767 L502.127371,3.13550136 L500.582656,3.13550136 L498.604336,10.6693767 L498.550136,10.6693767 L496.666667,3.13550136 L495,3.13550136 Z M509.607046,3 C509.322493,3 509.092141,3.08130081 508.902439,3.27100271 C508.712737,3.44715447 508.617886,3.67750678 508.617886,3.96205962 C508.617886,4.23306233 508.712737,4.47696477 508.902439,4.66666667 C509.092141,4.84281843 509.322493,4.93766938 509.607046,4.93766938 C509.878049,4.93766938 510.121951,4.84281843 510.311653,4.66666667 C510.501355,4.47696477 510.609756,4.24661247 510.609756,3.96205962 C510.609756,3.67750678 510.514905,3.44715447 510.325203,3.27100271 C510.135501,3.08130081 509.891599,3 509.607046,3 Z M508.888889,5.80487805 L508.888889,12.8102981 L510.325203,12.8102981 L510.325203,5.80487805 L508.888889,5.80487805 Z M515.813008,5.61517615 C515.379404,5.61517615 514.98645,5.69647696 514.634146,5.88617886 C514.281843,6.06233062 513.97019,6.3197832 513.699187,6.67208672 L513.699187,5.80487805 L512.262873,5.80487805 L512.262873,12.8102981 L513.699187,12.8102981 L513.699187,8.59620596 C513.753388,8.02710027 513.95664,7.5799458 514.281843,7.25474255 C514.579946,6.95663957 514.945799,6.82113821 515.352304,6.82113821 C516.436314,6.82113821 516.99187,7.41734417 516.99187,8.6097561 L516.99187,12.8102981 L518.428184,12.8102981 L518.428184,8.48780488 C518.428184,6.56368564 517.547425,5.61517615 515.813008,5.61517615 Z M523.617886,5.61517615 C523.184282,5.61517615 522.791328,5.69647696 522.439024,5.88617886 C522.086721,6.06233062 521.775068,6.3197832 521.504065,6.67208672 L521.504065,5.80487805 L520.067751,5.80487805 L520.067751,12.8102981 L521.504065,12.8102981 L521.504065,8.59620596 C521.558266,8.02710027 521.761518,7.5799458 522.086721,7.25474255 C522.384824,6.95663957 522.750678,6.82113821 523.157182,6.82113821 C524.241192,6.82113821 524.796748,7.41734417 524.796748,8.6097561 L524.796748,12.8102981 L526.233062,12.8102981 L526.233062,8.48780488 C526.233062,6.56368564 525.352304,5.61517615 523.617886,5.61517615 Z M530.840108,5.61517615 C531.97832,5.61517615 532.859079,5.99457995 533.455285,6.7804878 C533.99729,7.48509485 534.281843,8.46070461 534.295393,9.70731707 L528.98374,9.70731707 C529.03794,10.3848238 529.214092,10.9132791 529.539295,11.2791328 C529.864499,11.6314363 530.311653,11.8211382 530.880759,11.8211382 C531.382114,11.8211382 531.788618,11.699187 532.100271,11.4688347 C532.344173,11.2791328 532.547425,10.9674797 532.737127,10.5609756 L534.173442,10.5609756 C534.01084,11.2113821 533.699187,11.7669377 533.211382,12.200542 C532.601626,12.7289973 531.829268,13 530.894309,13 C529.864499,13 529.03794,12.6747967 528.441734,12.0379404 C527.791328,11.3604336 527.466125,10.4525745 527.466125,9.30081301 C527.466125,8.25745257 527.764228,7.3902439 528.387534,6.68563686 C528.98374,5.96747967 529.810298,5.61517615 530.840108,5.61517615 Z M530.880759,6.79403794 C530.338753,6.79403794 529.918699,6.94308943 529.593496,7.26829268 C529.295393,7.5799458 529.092141,8.02710027 529.01084,8.62330623 L532.791328,8.62330623 C532.655827,7.40379404 532.01897,6.79403794 530.880759,6.79403794 Z M538.766938,5.61517615 C538.333333,5.61517615 537.95393,5.73712737 537.628726,6.00813008 C537.357724,6.19783198 537.127371,6.48238482 536.95122,6.86178862 L536.95122,5.80487805 L535.514905,5.80487805 L535.514905,12.8102981 L536.95122,12.8102981 L536.95122,9.09756098 C536.95122,8.48780488 537.127371,7.98644986 537.493225,7.60704607 C537.831978,7.25474255 538.224932,7.07859079 538.658537,7.07859079 C538.98374,7.07859079 539.322493,7.11924119 539.674797,7.22764228 L539.674797,5.79132791 C539.430894,5.66937669 539.119241,5.61517615 538.766938,5.61517615 Z" transform="translate(-487 -1)"/>
</svg>
