<svg xmlns="http://www.w3.org/2000/svg" width="61" height="14" viewBox="0 0 61 14">
  <path fill="#4A4A4A" fill-rule="evenodd" d="M773.8225,1970.85719 C773.408525,1970.90319 773.163207,1971.10251 773.101878,1971.45516 C773.991156,1971.54715 774.819105,1972.06845 775.616389,1972.98839 C774.08315,1976.22353 772.703236,1977.83343 771.491977,1977.83343 C771.246659,1977.86409 771.124,1977.97142 771.124,1978.15541 C771.261991,1978.63071 771.660633,1978.8607 772.335258,1978.8607 C773.43919,1978.70737 774.696446,1977.17414 776.07636,1974.24565 C776.153022,1974.15366 776.229684,1974.031 776.291014,1973.89301 C776.536332,1974.29165 776.796982,1974.75162 777.057633,1975.25759 C778.498877,1977.83343 779.786797,1979.10602 780.952058,1979.10602 C781.887334,1979.10602 782.423967,1978.84537 782.561959,1978.30873 C782.561959,1978.14008 782.393303,1977.95609 782.071322,1977.7721 C780.844732,1977.60344 779.050843,1976.02421 776.658991,1973.04972 C775.800377,1971.66981 774.865102,1970.93385 773.8225,1970.85719 Z M792.841227,1969.38528 C793.485187,1969.38528 793.807167,1969.61527 793.807167,1970.04458 C793.807167,1970.28989 793.715173,1970.56588 793.531184,1970.85719 C793.546517,1970.90319 793.561849,1970.94919 793.561849,1970.99518 C793.531184,1971.16384 793.393193,1971.25583 793.17854,1971.27117 C792.672571,1971.36316 792.335258,1971.40916 792.181935,1971.42449 C792.028611,1971.42449 791.921284,1971.42449 791.844622,1971.39383 L791.844622,1971.53182 C791.844622,1971.99179 791.997946,1972.22178 792.304594,1972.22178 C793.009883,1972.19111 793.362528,1972.05312 793.362528,1971.79247 C793.377861,1971.51649 793.423858,1971.36316 793.50052,1971.36316 C793.883829,1971.48582 794.098483,1971.71581 794.129147,1972.03779 C794.129147,1972.58975 793.546517,1972.86574 792.381256,1972.8964 C791.50731,1972.88107 791.078003,1972.45176 791.078003,1971.60848 C791.108668,1971.16384 791.154665,1970.78053 791.215994,1970.45855 C791.215994,1970.16724 791.154665,1969.96791 791.047338,1969.84526 C791.047338,1969.78393 791.093335,1969.73793 791.18533,1969.73793 C791.307989,1969.73793 791.399983,1969.78393 791.491977,1969.86059 C791.614636,1969.76859 791.783293,1969.69193 791.997946,1969.59994 C792.304594,1969.46195 792.595909,1969.38528 792.841227,1969.38528 Z M791.76796,1970.27456 C791.798625,1970.32056 791.82929,1970.53521 791.844622,1970.91852 C791.997946,1970.87253 792.197267,1970.82653 792.442585,1970.7652 C792.565244,1970.73453 792.672571,1970.7192 792.779898,1970.68854 C792.810562,1970.59654 792.841227,1970.50455 792.856559,1970.38189 C792.856559,1970.1979 792.79523,1970.10591 792.672571,1970.07524 C792.273929,1970.1979 792.013278,1970.27456 791.921284,1970.27456 L791.76796,1970.27456 Z M795.984366,1968.87932 C796.628326,1968.87932 796.950306,1969.1093 796.950306,1969.55394 C796.950306,1969.84526 796.796982,1970.16724 796.520999,1970.53521 C796.520999,1970.58121 796.536332,1970.61187 796.536332,1970.62721 C796.505667,1970.79586 796.383008,1970.88786 796.168354,1970.91852 C795.693051,1971.01052 795.386403,1971.07185 795.233079,1971.07185 C795.095088,1971.07185 794.987761,1971.07185 794.911099,1971.04118 L794.911099,1971.16384 C794.911099,1971.59315 795.095088,1971.8078 795.49373,1971.8078 C796.383008,1971.79247 796.827647,1971.62381 796.827647,1971.2865 C796.842979,1970.97985 796.888977,1970.8112 796.980971,1970.8112 C797.42561,1970.94919 797.670928,1971.20984 797.716925,1971.59315 C797.716925,1972.23711 796.996303,1972.55909 795.570391,1972.58975 C794.589119,1972.57442 794.098483,1972.11445 794.098483,1971.22517 C794.129147,1970.7652 794.175144,1970.36656 794.236474,1970.02924 C794.236474,1969.7226 794.175144,1969.50794 794.067818,1969.38528 C794.067818,1969.30862 794.113815,1969.26262 794.221142,1969.26262 C794.343801,1969.26262 794.451127,1969.30862 794.543122,1969.40062 C794.665781,1969.30862 794.865102,1969.21663 795.125752,1969.09397 C795.4324,1968.95598 795.723715,1968.87932 795.984366,1968.87932 Z M794.803772,1969.78393 C794.819105,1969.81459 794.834437,1969.82992 794.834437,1969.82992 C794.865102,1969.87592 794.895767,1970.12124 794.911099,1970.56588 C795.064423,1970.51988 795.233079,1970.47388 795.447732,1970.41255 C795.601056,1970.38189 795.723715,1970.35122 795.846374,1970.32056 C795.923036,1970.18257 795.969033,1970.04458 795.999698,1969.89125 C795.999698,1969.70726 795.938369,1969.61527 795.81571,1969.5846 C795.401735,1969.70726 795.141085,1969.78393 795.033758,1969.78393 L794.803772,1969.78393 Z M793.607846,1976.76016 C793.699841,1976.76016 793.745838,1976.85216 793.745838,1977.03614 C793.715173,1977.31213 793.592514,1977.60344 793.347196,1977.87942 C793.101878,1978.15541 792.810562,1978.2934 792.503915,1978.30873 C792.013278,1978.27807 791.76796,1977.98675 791.737295,1977.45012 C791.737295,1977.31213 791.783293,1977.23546 791.905952,1977.23546 C792.043943,1977.23546 792.197267,1977.2508 792.350591,1977.26613 C792.749233,1977.23546 793.17854,1977.06681 793.607846,1976.76016 Z M795.187082,1972.71241 C795.677718,1972.74308 795.938369,1973.00373 795.969033,1973.4637 C795.953701,1973.49436 795.938369,1973.52503 795.938369,1973.55569 C796.214352,1973.52503 796.475002,1973.5097 796.689656,1973.49436 C797.026968,1973.52503 797.210957,1973.67835 797.210957,1973.939 C797.164959,1974.15366 797.011636,1974.26098 796.735653,1974.29165 C796.367675,1974.35298 796.030363,1974.39897 795.708383,1974.42964 C795.616389,1974.70562 795.539727,1974.99694 795.447732,1975.27292 C796.153022,1975.18093 796.750985,1975.13493 797.241621,1975.1196 C797.793587,1975.1196 798.06957,1975.30358 798.06957,1975.67156 C798.06957,1975.91688 797.916246,1976.03954 797.609599,1976.03954 C796.888977,1976.03954 796.091693,1976.08554 795.217747,1976.14687 C793.531184,1976.39218 792.289261,1976.51484 791.522642,1976.51484 C791.047338,1976.51484 790.74069,1976.42285 790.618031,1976.23886 C790.618031,1976.17753 790.756023,1976.10087 791.06267,1976.02421 C791.706631,1975.90155 792.319926,1975.77889 792.902557,1975.67156 C792.810562,1975.45691 792.7339,1975.18093 792.641906,1974.82828 C792.427253,1974.85895 792.243264,1974.87428 792.120605,1974.87428 C791.537974,1974.87428 791.215994,1974.73629 791.18533,1974.44497 C791.246659,1974.36831 791.675966,1974.24565 792.457917,1974.09233 C792.396588,1973.87767 792.335258,1973.61702 792.273929,1973.34104 C792.273929,1973.27971 792.365923,1973.23371 792.565244,1973.23371 C792.917889,1973.23371 793.163207,1973.4177 793.285866,1973.77035 C793.316531,1973.83168 793.331863,1973.87767 793.362528,1973.939 C793.684508,1973.89301 794.037153,1973.83168 794.420463,1973.77035 C794.573786,1973.73968 794.72711,1973.72435 794.865102,1973.69368 C794.865102,1973.61702 794.880434,1973.54036 794.880434,1973.47903 C794.880434,1973.29504 794.803772,1973.14172 794.650448,1972.98839 C794.650448,1972.80441 794.819105,1972.71241 795.187082,1972.71241 Z M794.803772,1974.56763 C794.297804,1974.64429 793.868497,1974.70562 793.50052,1974.73629 C793.50052,1974.95094 793.515852,1975.18093 793.531184,1975.42624 C793.515852,1975.48757 793.50052,1975.53357 793.50052,1975.56423 C793.914494,1975.50291 794.297804,1975.44158 794.665781,1975.38025 C794.72711,1975.10426 794.773107,1974.82828 794.803772,1974.56763 Z M789.115458,1970.07524 C788.548159,1970.07524 788.180182,1970.16724 788.011526,1970.32056 C788.302841,1971.04118 788.778145,1971.48582 789.45277,1971.63914 C789.83608,1971.63914 790.035401,1971.47049 790.035401,1971.11784 C790.004736,1970.53521 789.698088,1970.1979 789.115458,1970.07524 Z M788.48683,1972.34443 C787.888867,1972.34443 787.505557,1972.4211 787.321569,1972.55909 C787.643549,1973.29504 788.180182,1973.75501 788.916137,1973.90834 C789.284114,1973.90834 789.468102,1973.75501 789.468102,1973.4177 C789.422105,1972.81974 789.100125,1972.46709 788.48683,1972.34443 Z M787.873535,1974.70562 C788.686151,1974.79762 789.100125,1975.1196 789.100125,1975.70223 C789.054128,1975.84022 789.008131,1975.99354 788.977466,1976.14687 C789.008131,1976.36152 789.146122,1976.54551 789.376108,1976.6835 C789.77475,1976.86749 789.974071,1977.12814 789.974071,1977.48078 C789.958739,1977.64944 789.928074,1977.80276 789.882077,1977.94075 C790.219389,1977.98675 790.832685,1978.17074 791.737295,1978.47739 C793.224537,1978.92203 794.619784,1979.13668 795.907704,1979.13668 C797.088298,1979.13668 798.084903,1979.10602 798.912851,1979.01402 C799.020178,1979.06002 799.081508,1979.15201 799.081508,1979.27467 C799.004846,1979.65798 798.667533,1980.02596 798.084903,1980.36327 C797.686261,1980.60859 797.226289,1980.74658 796.704988,1980.74658 C795.631721,1980.74658 793.837832,1980.20995 791.323321,1979.16735 C790.403378,1978.7687 789.820747,1978.53872 789.560097,1978.50805 L789.560097,1978.52339 C789.19212,1978.99869 788.839475,1979.25934 788.48683,1979.29 C788.149517,1979.25934 787.980861,1979.12135 787.965529,1978.90669 C787.965529,1978.56938 788.195515,1978.32406 788.686151,1978.14008 C788.885472,1978.04808 788.992799,1977.92542 788.992799,1977.74143 C788.962134,1977.45012 788.824142,1977.2508 788.563492,1977.12814 C788.226179,1976.94415 788.057523,1976.69883 788.042191,1976.39218 C788.057523,1976.23886 788.072856,1976.08554 788.10352,1975.93221 C788.10352,1975.74822 788.011526,1975.57957 787.84287,1975.42624 C787.505557,1975.34958 787.321569,1975.22692 787.275572,1975.0736 C787.290904,1974.87428 787.490225,1974.75162 787.873535,1974.70562 Z M796.07636,1976.6835 C796.628326,1976.77549 796.934974,1977.08214 796.965638,1977.60344 C796.965638,1977.92542 796.78165,1978.07875 796.413673,1978.07875 C795.769712,1977.94075 795.294409,1977.54211 795.003093,1976.89815 C795.156417,1976.76016 795.524394,1976.6835 796.07636,1976.6835 Z M807.658881,1976.85216 C807.52089,1976.91348 807.45956,1977.26613 807.45956,1977.94075 C807.52089,1978.60005 807.689546,1979.13668 807.965529,1979.55065 C808.241512,1979.99529 808.502162,1980.20995 808.762813,1980.20995 C808.916137,1980.17928 809.008131,1980.07196 809.038796,1979.87263 C809.161455,1979.9033 809.314779,1979.9033 809.498767,1979.9033 C809.897409,1979.88797 810.710026,1979.81131 811.936616,1979.67331 C812.258596,1979.64265 812.442585,1979.50466 812.488582,1979.27467 C812.488582,1979.12135 812.427253,1978.99869 812.304594,1978.89136 C812.381256,1978.7687 812.47325,1978.61538 812.565244,1978.41606 C812.917889,1977.84876 813.101878,1977.2508 813.101878,1976.62217 C813.040548,1976.00887 812.549912,1975.6409 811.599304,1975.5489 C810.955344,1975.57957 810.204057,1975.68689 809.330111,1975.90155 C808.916137,1975.99354 808.578824,1976.0702 808.333506,1976.13153 C808.624821,1975.91688 808.931469,1975.65623 809.253449,1975.34958 C810.970676,1973.43303 811.921284,1972.14511 812.120605,1971.47049 C812.120605,1971.13318 811.859954,1970.91852 811.353986,1970.8112 C810.74069,1970.8112 810.173392,1970.93385 809.682756,1971.16384 C809.468102,1971.22517 809.284114,1971.27117 809.100125,1971.31716 C809.498767,1970.7652 809.698088,1970.33589 809.698088,1970.01391 C809.698088,1969.56927 809.437438,1969.33929 808.946801,1969.33929 C808.517495,1969.33929 808.302841,1969.41595 808.302841,1969.53861 C808.348838,1969.64593 808.379503,1969.76859 808.379503,1969.90659 C808.287509,1970.48922 807.873535,1971.25583 807.122248,1972.20644 C806.186972,1973.21838 805.696336,1973.80101 805.665671,1973.939 C805.665671,1974.07699 805.727001,1974.15366 805.880325,1974.18432 C806.416958,1974.18432 807.183577,1973.60169 808.180182,1972.43643 C808.318174,1972.2831 808.456165,1972.12978 808.594157,1971.96112 L808.655486,1971.96112 C809.253449,1971.77714 809.851412,1971.66981 810.464707,1971.66981 C810.587367,1971.66981 810.664028,1971.74647 810.664028,1971.88446 C810.602699,1972.43643 810.066065,1973.18772 809.084793,1974.12299 L809.084793,1974.09233 C809.084793,1973.73968 808.609489,1973.54036 807.658881,1973.5097 C807.474893,1973.5097 807.382898,1973.57102 807.382898,1973.67835 C807.413563,1973.95433 807.551554,1974.21499 807.812205,1974.44497 C807.950196,1974.59829 808.149517,1974.70562 808.394836,1974.73629 C807.413563,1975.73289 806.263634,1976.51484 804.975714,1977.06681 C804.546407,1977.23546 804.347086,1977.35812 804.347086,1977.43479 C804.362418,1977.61877 804.561739,1977.71077 804.929717,1977.71077 C805.78833,1977.66477 806.75427,1977.26613 807.827537,1976.49951 C807.888867,1976.74483 808.287509,1976.88282 808.992799,1976.89815 C809.391441,1976.89815 809.805415,1976.82149 810.234722,1976.66817 C810.771355,1976.56084 811.231327,1976.48418 811.614636,1976.43818 C811.706631,1976.43818 811.76796,1976.51484 811.783293,1976.66817 C811.783293,1977.22013 811.691298,1977.69544 811.537974,1978.09408 C811.384651,1978.37006 811.277324,1978.60005 811.231327,1978.8147 C811.016673,1978.8607 810.756023,1978.90669 810.464707,1978.95269 C809.790083,1979.07535 809.284114,1979.16735 808.931469,1979.24401 C808.900804,1979.15201 808.839475,1979.02935 808.778145,1978.87603 C808.624821,1978.44672 808.502162,1978.03275 808.410168,1977.60344 C808.16485,1977.11281 807.904199,1976.85216 807.658881,1976.85216 Z M827.674214,1972.23711 C828.624821,1972.40576 829.115458,1972.81974 829.161455,1973.4637 C829.06946,1974.32231 828.854807,1975.08893 828.532827,1975.74822 C828.287509,1976.30019 828.011526,1976.57617 827.720211,1976.5915 C827.474893,1976.5915 827.290904,1976.48418 827.183577,1976.25419 L827.183577,1976.23886 C826.861597,1976.26952 826.570282,1976.30019 826.324964,1976.31552 L826.324964,1977.08214 C827.490225,1976.97481 828.778145,1976.88282 830.188725,1976.79083 C830.756023,1976.95948 831.06267,1977.18947 831.124,1977.46545 C831.124,1977.7261 830.848017,1977.84876 830.326716,1977.84876 C828.348838,1977.92542 827.014921,1977.97142 826.309631,1978.00208 L826.309631,1980.08729 C826.217637,1980.82324 826.018316,1981.19122 825.711668,1981.19122 C825.481683,1981.12989 825.328359,1980.65459 825.236364,1979.78064 C825.267029,1979.21334 825.282362,1978.66138 825.313026,1978.10941 C823.871782,1978.26273 822.599194,1978.32406 821.495263,1978.32406 C821.035291,1978.2474 820.820638,1978.10941 820.820638,1977.92542 C820.820638,1977.83343 821.602589,1977.6801 823.166492,1977.46545 C823.825785,1977.37346 824.546407,1977.28146 825.328359,1977.18947 C825.328359,1976.92882 825.343691,1976.66817 825.343691,1976.39218 C825.190367,1976.40752 825.052376,1976.42285 824.960381,1976.42285 C824.699731,1976.42285 824.50041,1976.40752 824.377751,1976.36152 L824.377751,1976.37685 C824.377751,1976.65283 824.285757,1976.80616 824.101768,1976.82149 C823.825785,1976.82149 823.565134,1976.5915 823.289152,1976.10087 C823.028501,1975.6409 822.859845,1975.05827 822.783183,1974.33764 C822.783183,1973.63235 822.844512,1973.26438 822.997836,1973.20305 C823.258487,1973.20305 823.519137,1973.4637 823.779788,1973.985 C823.871782,1974.4603 823.994441,1974.93561 824.132433,1975.39558 C824.193762,1975.57957 824.255092,1975.73289 824.285757,1975.85555 C824.531075,1975.79422 824.88372,1975.73289 825.359023,1975.6409 C825.359023,1975.38025 825.374356,1975.1196 825.374356,1974.87428 C825.251697,1974.90494 825.14437,1974.90494 825.083041,1974.90494 C824.485078,1974.90494 824.163097,1974.76695 824.132433,1974.47564 C824.17843,1974.39897 824.592404,1974.29165 825.374356,1974.13832 L825.374356,1974.10766 C825.374356,1973.87767 825.313026,1973.66302 825.190367,1973.4637 C824.960381,1973.5097 824.684399,1973.54036 824.377751,1973.54036 C823.948444,1973.49436 823.749123,1973.3717 823.749123,1973.17238 C823.871782,1972.72774 825.175035,1972.4211 827.674214,1972.23711 Z M826.263634,1973.17238 C826.355628,1973.29504 826.401626,1973.4637 826.43229,1973.66302 C826.416958,1973.69368 826.401626,1973.78568 826.401626,1973.939 C826.585614,1973.90834 826.75427,1973.89301 826.892262,1973.87767 C827.244907,1973.90834 827.428895,1974.06166 827.428895,1974.33764 C827.398231,1974.5523 827.229574,1974.65962 826.953591,1974.69029 C826.738938,1974.72095 826.539617,1974.75162 826.355628,1974.76695 C826.340296,1974.9816 826.340296,1975.21159 826.340296,1975.47224 C826.708273,1975.41091 827.014921,1975.38025 827.260239,1975.36491 C827.321569,1975.36491 827.367566,1975.38025 827.413563,1975.39558 C827.45956,1975.27292 827.505557,1975.13493 827.566887,1974.99694 C827.766208,1974.41431 827.873535,1973.96967 827.873535,1973.63235 C827.84287,1973.26438 827.536222,1973.06506 826.953591,1973.03439 C826.708273,1973.06506 826.478288,1973.11105 826.263634,1973.17238 Z M826.17164,1969.61527 C826.048981,1969.66127 825.987651,1969.99858 825.987651,1970.61187 C826.048981,1971.01052 826.186972,1971.31716 826.416958,1971.56248 C826.631611,1971.83847 826.861597,1971.96112 827.091583,1971.96112 C827.183577,1971.96112 827.260239,1971.8998 827.306236,1971.77714 C827.428895,1971.8078 827.566887,1971.8078 827.750875,1971.8078 C827.888867,1971.8078 828.180182,1971.74647 828.640154,1971.65448 C828.931469,1971.62381 829.100125,1971.50115 829.13079,1971.2865 C829.13079,1971.22517 829.115458,1971.14851 829.084793,1971.07185 C829.146122,1970.97985 829.238117,1970.85719 829.330111,1970.68854 C829.575429,1970.33589 829.713421,1969.95258 829.713421,1969.55394 C829.667423,1969.00197 829.222784,1968.67999 828.364171,1968.588 C828.026858,1968.61866 827.643549,1968.71066 827.19891,1968.89465 C826.677609,1969.04797 826.43229,1969.2013 826.43229,1969.32395 C826.43229,1969.59994 826.784935,1969.75326 827.474893,1969.75326 C827.612884,1969.75326 827.750875,1969.69193 827.904199,1969.56927 C828.088188,1969.47728 828.241512,1969.41595 828.379503,1969.38528 C828.471497,1969.38528 828.517495,1969.46195 828.517495,1969.59994 C828.517495,1969.92192 828.471497,1970.1979 828.410168,1970.42789 C828.318174,1970.58121 828.272177,1970.73453 828.256844,1970.87253 C828.134185,1970.90319 827.996194,1970.94919 827.84287,1970.97985 C827.582219,1971.04118 827.367566,1971.10251 827.19891,1971.16384 C827.168245,1971.13318 827.152912,1971.08718 827.13758,1971.04118 C827.030253,1970.79586 826.938259,1970.55055 826.861597,1970.30523 C826.631611,1969.84526 826.401626,1969.61527 826.17164,1969.61527 Z M822.384541,1970.16724 C822.599194,1970.16724 822.82918,1970.39722 823.059166,1970.84186 C823.135828,1971.08718 823.227822,1971.3325 823.350481,1971.57781 C823.365813,1971.60848 823.381146,1971.62381 823.381146,1971.62381 C823.565134,1971.56248 823.779788,1971.50115 824.040438,1971.40916 C824.163097,1971.37849 824.285757,1971.3325 824.377751,1971.30183 C824.377751,1971.17917 824.408416,1971.04118 824.43908,1970.88786 C824.469745,1970.6732 824.50041,1970.42789 824.50041,1970.1519 C824.485078,1970.01391 824.43908,1969.93725 824.362418,1969.93725 C824.239759,1969.96791 824.1171,1970.02924 823.979109,1970.10591 C823.85645,1970.22857 823.733791,1970.27456 823.626464,1970.27456 C822.936507,1970.27456 822.583862,1970.12124 822.583862,1969.84526 C822.583862,1969.7226 822.813848,1969.5846 823.273819,1969.43128 C823.687794,1969.26262 824.040438,1969.17063 824.331754,1969.13997 C825.190367,1969.23196 825.635006,1969.55394 825.681004,1970.10591 C825.681004,1970.47388 825.573677,1970.8112 825.359023,1971.13318 C825.297694,1971.22517 825.251697,1971.31716 825.221032,1971.37849 C825.297694,1971.47049 825.343691,1971.56248 825.343691,1971.68514 C825.313026,1971.91513 825.14437,1972.03779 824.853055,1972.06845 C824.393083,1972.20644 824.086436,1972.2831 823.933112,1972.29844 C823.779788,1972.29844 823.641796,1972.29844 823.53447,1972.26777 C823.488473,1972.4211 823.411811,1972.49776 823.319816,1972.49776 C823.089831,1972.49776 822.859845,1972.3751 822.629859,1972.09912 C822.399873,1971.8538 822.261882,1971.53182 822.200552,1971.13318 C822.200552,1970.53521 822.261882,1970.21323 822.384541,1970.16724 Z" transform="translate(-771 -1968)"/>
</svg>
