<svg xmlns="http://www.w3.org/2000/svg" width="61" height="14" viewBox="0 0 61 14">
  <path fill="#4A4A4A" fill-rule="evenodd" d="M646.855764,1968.23208 C647.352365,1968.23208 647.600665,1968.46486 647.600665,1968.89938 C647.600665,1969.1632 647.336846,1969.58221 646.840245,1970.14088 C646.591945,1970.45126 646.374682,1970.66852 646.188457,1970.80819 C646.809208,1970.71508 647.336846,1970.653 647.771372,1970.62197 C648.159341,1970.66852 648.361085,1970.83923 648.361085,1971.13409 C648.330047,1971.38239 648.143822,1971.50654 647.833447,1971.53757 C647.088546,1971.66172 646.421239,1971.77035 645.862563,1971.84795 C645.8936,1971.94106 645.924638,1972.03417 645.924638,1972.14281 C645.909119,1972.28247 645.8936,1972.40662 645.8936,1972.51526 C646.545389,1972.42214 647.088546,1972.37559 647.523071,1972.34455 C647.895522,1972.39111 648.097266,1972.56181 648.097266,1972.84115 C648.05071,1973.07393 647.880003,1973.19808 647.569628,1973.22912 C646.902321,1973.32223 646.328126,1973.38431 645.847044,1973.44638 C645.816007,1973.77228 645.800488,1974.05161 645.800488,1974.29991 L645.847044,1974.29991 C647.135102,1974.11369 648.17486,1974.02058 648.981836,1973.98954 C649.354286,1974.02058 649.55603,1974.19128 649.55603,1974.50166 C649.524993,1974.73444 649.338767,1974.87411 649.028392,1974.90515 C647.53859,1975.06033 646.28157,1975.2 645.27285,1975.29312 C645.567706,1975.41727 645.722894,1975.61901 645.722894,1975.89835 C645.660819,1976.11561 645.614263,1976.30184 645.567706,1976.48806 C647.181658,1976.30184 648.485235,1976.20872 649.447399,1976.17769 C650.052631,1976.17769 650.363006,1976.37943 650.363006,1976.7674 C650.363006,1977.04674 650.1923,1977.17089 649.850887,1977.17089 C648.919761,1977.17089 647.864484,1977.21744 646.716095,1977.27952 C646.452276,1977.31056 646.219495,1977.34159 646.002232,1977.34159 C646.809208,1978.07098 647.523071,1978.56758 648.143822,1978.8314 C648.609385,1979.09521 649.090467,1979.328 649.602587,1979.51422 C650.31645,1979.73148 650.688901,1979.90219 650.688901,1980.02634 C650.595788,1980.36775 650.052631,1980.60054 649.05943,1980.72469 C648.407641,1980.72469 647.911041,1980.61605 647.569628,1980.39879 C647.29029,1980.13497 646.995433,1979.84012 646.700576,1979.46766 C646.15742,1978.80036 645.6453,1978.17961 645.179737,1977.62093 C644.357242,1979.66941 643.162297,1980.72469 641.61042,1980.84884 C641.331082,1980.84884 641.191413,1980.78676 641.191413,1980.69365 C641.191413,1980.67813 641.377638,1980.55398 641.781126,1980.3212 C642.960553,1979.60733 643.75201,1978.66069 644.186536,1977.49678 C643.193334,1977.55886 642.417396,1977.60541 641.843201,1977.60541 C641.315563,1977.58989 640.989669,1977.48126 640.85,1977.29504 C640.85,1977.21744 641.005188,1977.13985 641.331082,1977.06226 C642.479471,1976.89155 643.519229,1976.75188 644.450355,1976.62773 C644.496911,1976.42599 644.527949,1976.22424 644.558986,1976.03802 C644.558986,1975.86731 644.465874,1975.74316 644.310686,1975.66557 C644.372761,1975.54142 644.465874,1975.43278 644.574505,1975.37071 C643.62786,1975.46382 642.913996,1975.51038 642.448433,1975.54142 C641.781126,1975.54142 641.424195,1975.38623 641.377638,1975.06033 C641.517307,1974.92067 642.681215,1974.7034 644.869362,1974.42406 C644.869362,1974.09817 644.853843,1973.80331 644.853843,1973.55501 C644.26413,1973.61709 643.814085,1973.66364 643.519229,1973.67916 C642.86744,1973.67916 642.526027,1973.52398 642.479471,1973.2136 C642.572584,1973.08945 643.364041,1972.91874 644.853843,1972.68596 L644.853843,1972.45318 C644.822805,1972.26696 644.791768,1972.11177 644.729693,1972.01866 C644.00031,1972.12729 643.457153,1972.18936 643.11574,1972.2204 C642.448433,1972.2204 642.091502,1972.06521 642.044945,1971.73932 C642.169095,1971.58413 643.286447,1971.32031 645.412519,1970.94786 C645.443556,1970.94786 645.490112,1970.93234 645.52115,1970.93234 C645.490112,1970.9013 645.474594,1970.85475 645.474594,1970.79267 C645.474594,1970.7306 645.629781,1970.43574 645.909119,1969.93914 C646.126382,1969.47358 646.250532,1969.08561 646.28157,1968.80627 C646.28157,1968.65108 646.250532,1968.52693 646.203976,1968.43382 C646.203976,1968.30967 646.421239,1968.23208 646.855764,1968.23208 Z M644.652099,1969.03905 C644.76073,1969.03905 644.822805,1969.14768 644.822805,1969.34943 C644.807286,1969.6598 644.698655,1969.95466 644.51243,1970.26503 C644.310686,1970.54437 644.077904,1970.68404 643.829604,1970.71508 C643.255409,1970.66852 642.945034,1970.32711 642.913996,1969.69084 C642.913996,1969.53565 642.976072,1969.44254 643.11574,1969.44254 C643.270928,1969.44254 643.457153,1969.45806 643.658897,1969.47358 C643.969273,1969.44254 644.310686,1969.28735 644.652099,1969.03905 Z M662.241516,1970.10985 C661.806991,1970.71508 661.170721,1971.50654 660.332708,1972.48422 C659.401581,1973.52398 658.625643,1974.11369 657.989373,1974.23784 C657.461735,1974.22232 657.120322,1974.06713 656.949616,1973.78779 C656.949616,1973.72572 657.02721,1973.66364 657.213435,1973.58605 C658.873943,1972.67044 660.363745,1971.21168 661.667322,1969.20976 C661.791472,1969.02353 661.853547,1968.86834 661.884585,1968.71316 C661.838028,1968.60453 661.806991,1968.51141 661.791472,1968.4183 C661.806991,1968.26311 661.977697,1968.17 662.303592,1968.17 C662.676042,1968.32519 662.877786,1968.58901 662.877786,1968.99249 C662.846748,1969.13216 662.769155,1969.31839 662.629486,1969.55117 C663.250237,1969.86155 663.979619,1970.31159 664.817632,1970.9013 C666.276397,1971.70828 667.409267,1972.11177 668.231762,1972.12729 C668.340393,1972.17384 668.402468,1972.26696 668.402468,1972.39111 C668.107612,1973.19808 667.657567,1973.61709 667.052335,1973.67916 C666.710922,1973.67916 665.872909,1973.08945 664.569332,1971.87899 C663.576131,1971.00994 662.800192,1970.42022 662.241516,1970.10985 Z M663.684762,1972.70148 C664.553813,1972.70148 664.988339,1973.01186 664.988339,1973.60157 C664.988339,1974.2068 664.802114,1974.87411 664.445182,1975.61901 C664.460701,1975.66557 664.476219,1975.71212 664.476219,1975.75868 C664.476219,1976.42599 663.405424,1976.75188 661.279353,1976.75188 C661.18624,1976.75188 661.108646,1976.73636 661.06209,1976.72084 C661.015534,1977.55886 660.984496,1978.39687 660.953458,1979.21936 C660.953458,1979.62285 660.968977,1979.8246 661.031052,1979.8246 C661.248315,1979.80908 661.481097,1979.73148 661.760435,1979.59182 C662.148404,1979.42111 662.474298,1979.29696 662.722598,1979.23488 C662.862267,1979.23488 662.939861,1979.31248 662.939861,1979.46766 C662.908824,1979.79356 662.70708,1980.10393 662.303592,1980.44535 C661.931141,1980.8178 661.419022,1981.03506 660.767233,1981.08162 C660.30167,1981.08162 659.991295,1980.87987 659.836107,1980.47639 C659.836107,1980.27464 659.882663,1980.05738 659.975776,1979.84012 C660.068889,1979.59182 660.115445,1979.34351 660.115445,1979.0797 C660.146482,1977.7606 660.193039,1976.4415 660.224076,1975.12241 C660.224076,1974.73444 660.115445,1974.47062 659.913701,1974.31543 C659.913701,1974.12921 660.006813,1974.0361 660.224076,1974.0361 C660.705158,1974.09817 661.000015,1974.34647 661.093127,1974.76548 C661.682841,1974.59477 662.241516,1974.4551 662.769155,1974.36199 C662.986417,1974.36199 663.095049,1974.47062 663.095049,1974.65685 C663.095049,1975.06033 662.567411,1975.26208 661.512134,1975.26208 C661.356947,1975.26208 661.217278,1975.23104 661.108646,1975.2 C661.108646,1975.5259 661.093127,1975.85179 661.077609,1976.16217 C661.853547,1975.9449 662.598448,1975.7742 663.281274,1975.61901 C663.498537,1975.16897 663.638206,1974.65685 663.684762,1974.06713 C663.684762,1973.81883 663.607168,1973.66364 663.467499,1973.63261 C662.257035,1973.89643 661.481097,1974.0361 661.170721,1974.0361 C660.581008,1974.0361 660.286151,1973.97402 660.270633,1973.84987 C660.270633,1973.61709 660.798271,1973.33775 661.884585,1973.02738 C662.551892,1972.81011 663.157124,1972.70148 663.684762,1972.70148 Z M665.081451,1976.30184 C665.640127,1976.36391 665.966021,1976.61221 666.028096,1977.04674 C666.028096,1977.31056 665.85739,1977.57437 665.531496,1977.82268 C665.205602,1978.07098 664.910745,1978.22616 664.646926,1978.30376 L664.662445,1978.30376 C666.059134,1979.09521 666.757479,1979.71597 666.757479,1980.15049 C666.757479,1980.60054 666.540216,1980.83332 666.136728,1980.83332 C665.810834,1980.77124 665.019376,1980.13497 663.762356,1978.92451 C662.691561,1978.14857 662.117366,1977.69853 662.024254,1977.58989 C662.024254,1977.38815 662.101847,1977.27952 662.272554,1977.27952 C662.536373,1977.27952 663.126086,1977.5123 664.041694,1977.97786 C664.553813,1977.45022 664.817632,1977.06226 664.817632,1976.84499 C664.817632,1976.62773 664.771076,1976.48806 664.693482,1976.39495 C664.72452,1976.33287 664.84867,1976.30184 665.081451,1976.30184 Z M662.970899,1971.49102 C663.451981,1971.49102 663.700281,1971.59965 663.700281,1971.81691 C663.638206,1972.11177 663.420943,1972.31351 663.017455,1972.40662 C662.877786,1972.42214 662.70708,1972.45318 662.505336,1972.48422 C662.288073,1972.54629 662.132885,1972.56181 662.055291,1972.56181 C661.372465,1972.49974 661.031052,1972.28247 661.015534,1971.91002 C661.015534,1971.86347 661.18624,1971.81691 661.558691,1971.75484 C662.241516,1971.59965 662.70708,1971.52205 662.970899,1971.49102 Z M683.245064,1972.63941 C683.819258,1972.73252 684.114115,1973.05841 684.114115,1973.63261 C684.05204,1974.33095 683.586477,1974.85859 682.732944,1975.2 C682.546719,1975.2 682.453606,1975.15345 682.453606,1975.06033 C682.562238,1974.51718 682.639832,1974.11369 682.686388,1973.83435 C682.686388,1973.64813 682.608794,1973.55501 682.453606,1973.55501 C682.298419,1973.55501 681.988043,1973.63261 681.553518,1973.75676 L681.553518,1975.32415 C681.491443,1976.47254 681.27418,1977.04674 680.932767,1977.04674 C680.653429,1977.04674 680.51376,1976.53462 680.498241,1975.49486 C680.529279,1975.01378 680.544798,1974.5327 680.575835,1974.05161 C680.234422,1974.17576 679.861972,1974.29991 679.489521,1974.42406 C679.458484,1975.01378 679.458484,1975.63453 679.458484,1976.30184 C679.567115,1977.72956 680.374091,1978.42791 681.894931,1978.42791 C683.53992,1978.42791 684.362415,1978.17961 684.362415,1977.65197 C684.362415,1977.46574 684.346896,1977.27952 684.346896,1977.12433 C684.346896,1977.0157 684.408971,1976.95362 684.564159,1976.95362 C685.091797,1977.12433 685.402173,1977.48126 685.495285,1978.0089 C685.495285,1978.94003 684.346896,1979.43663 682.081156,1979.46766 C679.75334,1979.46766 678.558395,1978.44343 678.527357,1976.36391 C678.527357,1975.74316 678.558395,1975.2 678.589432,1974.71892 C678.418726,1974.74996 678.263538,1974.76548 678.123869,1974.76548 C677.7359,1974.76548 677.534156,1974.65685 677.518637,1974.43958 C677.518637,1974.36199 677.891088,1974.17576 678.635989,1973.89643 C678.635989,1973.72572 678.651508,1973.57053 678.667026,1973.41534 C678.667026,1972.76356 678.558395,1972.36007 678.37217,1972.17384 C678.37217,1972.00314 678.511839,1971.91002 678.806695,1971.91002 C679.303296,1971.91002 679.567115,1972.23592 679.567115,1972.87219 C679.536077,1973.08945 679.520559,1973.33775 679.520559,1973.58605 C679.567115,1973.57053 679.613671,1973.55501 679.675746,1973.52398 C680.017159,1973.39983 680.312016,1973.30671 680.591354,1973.2136 C680.606873,1972.717 680.622391,1972.2204 680.622391,1971.7238 C680.575835,1970.35815 680.405129,1969.59773 680.125791,1969.44254 C680.296497,1969.11665 680.560316,1968.94594 680.917248,1968.94594 C681.39833,1969.03905 681.64663,1969.30287 681.64663,1969.7374 C681.553518,1969.95466 681.52248,1970.28055 681.52248,1970.69956 C681.52248,1971.42894 681.537999,1972.17384 681.537999,1972.93426 C682.267381,1972.74804 682.841576,1972.63941 683.245064,1972.63941 Z M676.835811,1973.30671 C677.09963,1973.30671 677.239299,1973.43086 677.239299,1973.66364 C677.239299,1974.11369 676.882368,1974.42406 676.184023,1974.59477 C676.137467,1975.18448 676.106429,1975.68108 676.075392,1976.10009 C676.618549,1975.83627 677.130668,1975.63453 677.596231,1975.51038 C677.813494,1975.51038 677.922125,1975.60349 677.922125,1975.75868 C677.766938,1976.20872 677.177224,1976.75188 676.168504,1977.40367 C675.423603,1977.86923 674.771815,1978.13305 674.182102,1978.16409 C673.592388,1978.16409 673.297532,1977.90027 673.297532,1977.37263 C673.297532,1977.21744 673.359607,1977.13985 673.499276,1977.13985 C673.545832,1977.17089 673.607907,1977.17089 673.669982,1977.17089 C674.290733,1976.95362 674.787334,1976.75188 675.190822,1976.56565 C675.175303,1975.88283 675.175303,1975.2776 675.175303,1974.73444 C674.895965,1974.76548 674.616627,1974.76548 674.306252,1974.76548 C673.732057,1974.71892 673.406163,1974.57925 673.31305,1974.34647 C673.328569,1974.34647 673.359607,1974.31543 673.421682,1974.26888 C674.026914,1974.05161 674.601108,1973.86539 675.159784,1973.7102 L675.159784,1971.78587 C675.128747,1971.41342 675.004596,1971.16512 674.787334,1971.05649 C674.973559,1970.77715 675.252897,1970.63748 675.59431,1970.63748 C676.152985,1970.69956 676.447842,1970.96338 676.447842,1971.42894 C676.385767,1972.17384 676.323692,1972.84115 676.277136,1973.43086 C676.463361,1973.38431 676.649586,1973.33775 676.835811,1973.30671 Z M694.735604,1975.78972 C694.797679,1975.78972 694.844236,1975.80524 694.906311,1975.83627 C695.030461,1975.7742 695.185649,1975.71212 695.402912,1975.65005 C695.759843,1975.5259 696.070219,1975.4483 696.349557,1975.41727 C696.954789,1975.47934 697.280683,1975.71212 697.31172,1976.10009 C697.31172,1976.28632 697.218608,1976.47254 697.06342,1976.64325 C697.016864,1976.70532 696.985826,1976.73636 696.970307,1976.7674 C696.985826,1976.82947 697.001345,1976.87603 697.001345,1976.90707 C696.970307,1977.06226 696.846157,1977.15537 696.659932,1977.17089 C696.256444,1977.29504 695.977106,1977.35711 695.852956,1977.35711 C695.728806,1977.35711 695.635693,1977.35711 695.573618,1977.34159 C695.54258,1977.40367 695.496024,1977.45022 695.433949,1977.45022 C695.263243,1977.45022 695.092536,1977.37263 694.906311,1977.20192 C694.735604,1977.04674 694.626973,1976.82947 694.595935,1976.58117 C694.595935,1976.08457 694.642492,1975.82075 694.735604,1975.78972 Z M695.496024,1976.89155 C695.651212,1976.84499 695.821918,1976.79844 696.023662,1976.73636 C696.147813,1976.70532 696.240925,1976.67429 696.334038,1976.64325 C696.334038,1976.59669 696.349557,1976.53462 696.380594,1976.45702 C696.411632,1976.36391 696.42715,1976.25528 696.42715,1976.13113 C696.42715,1976.03802 696.396113,1975.97594 696.349557,1975.97594 C696.225406,1976.00698 696.070219,1976.06905 695.899512,1976.13113 C695.759843,1976.23976 695.620174,1976.28632 695.496024,1976.28632 C695.402912,1976.28632 695.325318,1976.28632 695.263243,1976.2708 C695.263243,1976.30184 695.278761,1976.33287 695.29428,1976.33287 C695.340836,1976.50358 695.402912,1976.67429 695.464987,1976.82947 L695.496024,1976.89155 Z M693.633772,1970.59093 C693.757922,1970.59093 693.882072,1970.66852 693.990703,1970.79267 C694.176929,1970.71508 694.502823,1970.62197 694.968386,1970.52885 C695.682249,1970.35815 696.287481,1970.26503 696.799601,1970.24952 C697.560021,1970.31159 697.963509,1970.59093 697.994546,1971.08753 C697.994546,1971.30479 697.885915,1971.52205 697.684171,1971.70828 C697.622096,1971.77035 697.591058,1971.81691 697.560021,1971.84795 C697.575539,1971.8945 697.591058,1971.94106 697.591058,1971.98762 C697.560021,1972.15832 697.43587,1972.25144 697.218608,1972.26696 C696.877195,1972.32903 696.566819,1972.39111 696.287481,1972.43766 C696.349557,1972.56181 696.380594,1972.68596 696.380594,1972.81011 C696.349557,1972.90323 696.318519,1972.99634 696.287481,1973.05841 C696.923751,1972.9653 697.637614,1972.85667 698.444591,1972.74804 C698.894635,1972.74804 699.127416,1972.88771 699.127416,1973.15153 C699.127416,1973.44638 698.848079,1973.61709 698.32044,1973.64813 C696.644413,1973.83435 695.014942,1974.05161 693.463065,1974.29991 C692.904389,1974.29991 692.594014,1974.17576 692.547458,1973.89643 C692.547458,1973.74124 693.463065,1973.52398 695.29428,1973.2136 L695.29428,1973.12049 C695.263243,1972.90323 695.216686,1972.73252 695.123574,1972.62389 C695.014942,1972.63941 694.92183,1972.65492 694.859755,1972.65492 L694.689048,1972.65492 C694.673529,1972.79459 694.611454,1972.87219 694.502823,1972.88771 C694.28556,1972.88771 694.083816,1972.74804 693.866553,1972.4687 C693.64929,1972.2204 693.52514,1971.8945 693.463065,1971.49102 C693.463065,1970.93234 693.509622,1970.63748 693.633772,1970.59093 Z M694.580417,1972.14281 C694.875273,1972.04969 695.325318,1971.95658 695.915031,1971.83243 C696.240925,1971.77035 696.520263,1971.70828 696.753045,1971.67724 C696.753045,1971.61517 696.784082,1971.55309 696.830638,1971.49102 C696.861676,1971.3979 696.892714,1971.27375 696.892714,1971.11857 C696.877195,1970.99442 696.846157,1970.91682 696.81512,1970.91682 C696.504744,1970.96338 696.116775,1971.04097 695.682249,1971.13409 C695.340836,1971.27375 694.983905,1971.33583 694.642492,1971.33583 C694.487304,1971.33583 694.378673,1971.33583 694.28556,1971.30479 C694.347635,1971.55309 694.425229,1971.78587 694.518342,1972.00314 C694.549379,1972.06521 694.564898,1972.11177 694.580417,1972.14281 Z M697.420352,1974.26888 C698.382515,1974.29991 698.863597,1974.71892 698.894635,1975.55693 C698.894635,1976.64325 698.786004,1977.43471 698.599778,1977.90027 C698.444591,1978.41239 698.180771,1978.67621 697.82384,1978.70725 C697.497946,1978.70725 697.280683,1978.56758 697.156533,1978.2572 C696.0547,1978.44343 695.325318,1978.53654 694.952867,1978.56758 C694.782161,1978.56758 694.658011,1978.56758 694.564898,1978.53654 C694.518342,1978.72276 694.425229,1978.8314 694.28556,1978.8314 C694.052779,1978.8314 693.819997,1978.53654 693.587215,1977.94683 C693.354434,1977.38815 693.199246,1976.67429 693.137171,1975.80524 C693.137171,1975.24656 693.183727,1974.93618 693.307878,1974.88963 C693.385471,1974.88963 693.463065,1974.92067 693.540659,1974.98274 L693.556178,1974.96722 C694.40971,1974.68788 695.697768,1974.4551 697.420352,1974.26888 Z M694.53386,1978.0089 C694.875273,1977.91579 695.387393,1977.80716 696.070219,1977.66749 C696.628894,1977.54334 697.094458,1977.48126 697.451389,1977.46574 C697.544502,1977.48126 697.622096,1977.49678 697.668652,1977.5123 C697.82384,1977.27952 697.901434,1976.75188 697.932471,1975.91387 C697.932471,1975.66557 697.870396,1975.43278 697.761765,1975.21552 C697.715208,1975.07585 697.560021,1974.99826 697.31172,1974.99826 C696.737526,1975.07585 696.17885,1975.15345 695.651212,1975.23104 C695.433949,1975.29312 695.185649,1975.35519 694.875273,1975.38623 C694.658011,1975.43278 694.394191,1975.4483 694.099335,1975.4483 C694.006222,1975.4483 693.944147,1975.43278 693.882072,1975.41727 C693.91311,1975.46382 693.928628,1975.49486 693.944147,1975.5259 C694.03726,1976.08457 694.16141,1976.64325 694.316598,1977.20192 C694.425229,1977.52782 694.502823,1977.79164 694.53386,1978.0089 Z M698.07214,1968.89938 C699.903355,1968.99249 700.818962,1969.6598 700.85,1970.93234 C700.85,1971.2272 700.834481,1973.58605 700.803444,1978.02442 C700.803444,1979.76252 700.415474,1980.63157 699.670573,1980.63157 C699.406754,1980.58502 699.173973,1980.41431 698.972229,1980.13497 C698.910154,1980.04186 698.848079,1979.93323 698.786004,1979.84012 C698.754966,1979.85563 698.723928,1979.85563 698.70841,1979.85563 C695.666731,1980.04186 693.64929,1980.15049 692.687127,1980.18153 C692.469864,1980.18153 692.283639,1980.16601 692.14397,1980.13497 C692.097413,1980.47639 691.880151,1980.66261 691.476663,1980.66261 C691.166287,1980.60054 691.011099,1979.48318 690.995581,1977.29504 C691.057656,1975.49486 691.119731,1973.69468 691.197325,1971.8945 C691.197325,1971.33583 691.181806,1971.00994 691.166287,1970.9013 C691.119731,1970.80819 691.042137,1970.68404 690.933506,1970.49782 C690.933506,1970.34263 691.011099,1970.26503 691.166287,1970.26503 C691.833594,1970.42022 692.175007,1971.04097 692.206045,1972.09625 C692.14397,1973.58605 692.081895,1975.07585 692.035338,1976.56565 C692.035338,1977.90027 692.066376,1978.87795 692.112932,1979.4987 C692.795758,1979.39007 693.990703,1979.2504 695.713287,1979.0797 C696.923751,1978.95555 697.901434,1978.87795 698.646335,1978.84691 C699.018785,1978.89347 699.236048,1979.03314 699.282604,1979.26592 C699.59298,1979.0797 699.748167,1978.78484 699.748167,1978.35031 C699.779205,1977.37263 699.794724,1975.74316 699.794724,1973.4619 L699.794724,1970.96338 C699.794724,1970.12537 699.096379,1969.69084 697.69969,1969.69084 C696.566819,1969.76843 695.651212,1969.83051 694.937348,1969.89258 C694.192447,1970.00121 693.385471,1970.10985 692.51642,1970.21848 C692.081895,1970.21848 691.818076,1970.12537 691.740482,1969.93914 C692.423308,1969.52013 694.53386,1969.17872 698.07214,1968.89938 Z" transform="translate(-640 -1968)"/>
</svg>
