<svg xmlns="http://www.w3.org/2000/svg" width="61" height="13" viewBox="0 0 61 13">
  <path fill="#4A4A4A" fill-rule="evenodd" d="M390,1 L390,9.61184211 L391.314693,9.61184211 L391.314693,3.46052632 L391.362939,3.46052632 L394.004386,9.61184211 L395.138158,9.61184211 L397.779605,3.46052632 L397.827851,3.46052632 L397.827851,9.61184211 L399.142544,9.61184211 L399.142544,1 L397.586623,1 L394.595395,7.89912281 L394.559211,7.89912281 L391.555921,1 L390,1 Z M403.520833,3.20723684 C404.4375,3.20723684 405.112939,3.43640351 405.547149,3.89473684 C405.921053,4.29276316 406.114035,4.87171053 406.114035,5.63157895 L406.114035,9.61184211 L404.932018,9.61184211 L404.932018,8.73135965 C404.690789,9.04495614 404.389254,9.29824561 404.027412,9.47916667 C403.617325,9.67214912 403.134868,9.78070175 402.580044,9.78070175 C401.928728,9.78070175 401.422149,9.61184211 401.060307,9.28618421 C400.662281,8.96052632 400.469298,8.53837719 400.469298,8.01973684 C400.469298,7.32017544 400.746711,6.77741228 401.301535,6.40350877 C401.808114,6.04166667 402.531798,5.86074561 403.448465,5.83662281 L404.847588,5.8004386 L404.847588,5.54714912 C404.847588,4.67872807 404.377193,4.24451754 403.436404,4.24451754 C403.038377,4.24451754 402.712719,4.31688596 402.471491,4.46162281 C402.182018,4.63048246 402.001096,4.88377193 401.928728,5.23355263 L400.662281,5.125 C400.794956,4.4495614 401.132675,3.94298246 401.663377,3.62938596 C402.121711,3.33991228 402.748904,3.20723684 403.520833,3.20723684 Z M404.847588,6.72916667 L403.532895,6.76535088 C402.362939,6.78947368 401.783991,7.1995614 401.783991,7.97149123 C401.783991,8.2127193 401.880482,8.40570175 402.085526,8.5625 C402.278509,8.71929825 402.54386,8.80372807 402.869518,8.80372807 C403.412281,8.80372807 403.870614,8.63486842 404.256579,8.30921053 C404.642544,7.98355263 404.847588,7.57346491 404.847588,7.09100877 L404.847588,6.72916667 Z M410.697368,3.20723684 C411.614035,3.20723684 412.325658,3.53289474 412.85636,4.18421053 C413.338816,4.7872807 413.580044,5.55921053 413.580044,6.52412281 C413.580044,7.44078947 413.338816,8.20065789 412.868421,8.80372807 C412.361842,9.45504386 411.650219,9.78070175 410.757675,9.78070175 C409.985746,9.78070175 409.358553,9.41885965 408.851974,8.69517544 L408.851974,12 L407.573465,12 L407.573465,3.37609649 L408.767544,3.37609649 L408.767544,4.12390351 C409.201754,3.50877193 409.85307,3.20723684 410.697368,3.20723684 Z M410.504386,4.24451754 C409.949561,4.24451754 409.515351,4.46162281 409.213816,4.90789474 C408.948465,5.29385965 408.815789,5.8125 408.815789,6.45175439 L408.815789,6.56030702 C408.815789,7.22368421 408.972588,7.76644737 409.310307,8.17653509 C409.599781,8.5504386 409.985746,8.74342105 410.468202,8.74342105 C411.095395,8.74342105 411.553728,8.53837719 411.855263,8.12828947 C412.120614,7.74232456 412.265351,7.21162281 412.265351,6.52412281 C412.265351,5.83662281 412.132675,5.30592105 411.891447,4.91995614 C411.589912,4.46162281 411.131579,4.24451754 410.504386,4.24451754 Z" transform="translate(-371)"/>
</svg>
