<svg xmlns="http://www.w3.org/2000/svg" xmlns:xlink="http://www.w3.org/1999/xlink" width="930" height="37" viewBox="0 0 930 37">
  <defs>
    <polygon id="warning-a" points="0 36.156 929.532 36.156 929.532 0 0 0"/>
  </defs>
  <g fill="none" fill-rule="evenodd">
    <path fill="#FFF" d="M30.1955994 30.4274015C31.6272411 31.3181426 32.8660779 32.1303659 33.8728508 32.8274296 33.8728508 32.8274296 33.7952054 32.9434615 33.6399146 33.1362664 32.7893049 34.2983302 32.3626914 34.9168762 32.3626914 34.9168762 30.8141454 33.7556848 29.1888265 32.6721388 27.4849897 31.7438837 26.0917345 30.9691745 24.9305432 30.4274015 24.0398021 30.0793058 24.0398021 29.9624015 24.4271567 29.382242 25.2009934 28.3745966 25.3170253 28.2210507 25.4330572 28.1434053 25.5499615 28.1434053 27.4082167 28.9556285 28.9567627 29.7303377 30.1955994 30.4274015zM25.085834 5.14815197L25.085834 1.19957786C25.085834 1.00590056 25.2402523.890741088 25.5499615.890741088 27.3305713.890741088 28.2596989 1.04515947 28.2596989 1.35486867 28.2596989 1.66457786 28.1427946 1.85825516 27.9499897 1.85825516 27.7179259 1.89664165 27.6394081 2.12870544 27.6394081 2.55531895L27.6394081 5.14815197 33.9888827 5.14815197C34.18256 5.14815197 34.2985919 5.30344278 34.2985919 5.57476548L34.2985919 6.81360225C34.2985919 7.20008443 34.18256 7.39376173 33.9888827 7.39376173L28.1811811 7.39376173C28.9175038 8.59421201 29.5753086 9.52246717 30.1563405 10.1418856 30.9301773 11.1093996 31.8593049 11.9617542 32.9437233 12.7364634 33.8335919 13.3942683 34.724333 13.8976548 35.6534606 14.2064916 35.6534606 14.3617824 35.5374287 14.4778143 35.342879 14.5554597 34.8787514 15.0204597 34.4538827 15.4845872 34.1433011 15.9103283 33.9888827 16.1040056 33.9121098 16.181651 33.8728508 16.181651 32.4787233 15.4069418 31.3175319 14.5554597 30.4669221 13.6647186 29.4592767 12.7364634 28.6470535 11.728818 27.9499897 10.645272 27.7946989 10.4899812 27.7179259 10.3364353 27.6394081 10.1811445L27.6394081 17.0715197C27.6394081 17.3812289 27.4466032 17.5365197 27.0592486 17.5365197L25.5499615 17.5365197C25.2402523 17.5365197 25.085834 17.3812289 25.085834 17.0715197L25.085834 10.9942402C24.8912842 11.2646904 24.7359934 11.4976266 24.581575 11.652045 23.7684794 12.6972045 22.8786107 13.6647186 21.9494831 14.5170732 20.8659371 15.4845872 19.7806463 16.2976829 18.7363593 16.9171013 18.465909 16.9171013 18.2713593 16.8787148 18.1553274 16.723424 17.6911998 16.2592964 17.2654587 15.8710694 16.8781041 15.4845872 16.8004587 15.3292964 16.7620722 15.214137 16.7620722 15.1364916 17.7688452 14.5947186 18.6203274 14.0904597 19.2781323 13.5870732 20.2465188 12.8908818 21.2524193 11.9617542 22.2975788 10.8005629 22.9169972 10.1034991 23.7300929 8.98069418 24.8145113 7.39376173L18.8916501 7.39376173C18.6587139 7.39376173 18.5810685 7.20008443 18.5810685 6.81360225L18.5810685 5.57476548C18.5810685 5.30344278 18.6587139 5.14815197 18.8916501 5.14815197L25.085834 5.14815197zM29.4592767 18.73697C29.7698583 18.73697 29.9234043 18.9681614 29.9234043 19.3563884L29.9234043 20.5559662C29.9234043 20.9817073 29.7698583 21.1753846 29.4592767 21.1753846L6.34886398 21.1753846C6.03915478 21.1753846 5.88386398 20.9817073 5.88386398 20.5559662L5.88386398 19.3563884C5.88386398 18.9681614 6.03915478 18.73697 6.34886398 18.73697L29.4592767 18.73697zM33.2534325 23.885122C33.5622692 23.885122 33.71756 24.1171857 33.71756 24.5045403L33.71756 25.7041182C33.71756 26.1298593 33.5622692 26.3235366 33.2534325 26.3235366L19.9359371 26.3235366 19.9359371 33.0987523C19.9359371 35.0337805 18.1945863 36.002167 14.7877852 36.002167L13.8970441 36.002167C13.7042392 36.002167 13.6265938 35.7308443 13.6265938 35.2658443 13.5489484 34.6856848 13.3552711 34.0270075 13.0071754 33.2531707L13.0071754 33.0987523C13.5489484 33.2915572 14.0915938 33.4075891 14.6333668 33.4075891 16.3354587 33.4075891 17.2270722 32.9434615 17.2270722 32.0527205L17.2270722 26.3235366 2.86441745 26.3235366C2.55470826 26.3235366 2.40028987 26.1298593 2.40028987 25.7041182L2.40028987 24.5045403C2.40028987 24.1171857 2.55470826 23.885122 2.86441745 23.885122L33.2534325 23.885122zM11.9236295 29.1109193C12.1164343 29.3429831 12.2324662 29.4982739 12.2324662 29.6526923 12.2324662 29.7303377 12.1164343 29.7687242 11.9236295 29.7687242 11.5746614 29.8463696 11.3425976 29.924015 11.1881792 30.0400469 10.3750835 30.9299156 9.52360131 31.7438837 8.6319878 32.440075 7.54844184 33.2531707 6.15431426 34.0662664 4.52899531 34.9168762 4.22015854 34.9168762 3.98722233 34.8017167 3.90957692 34.6080394 3.36780394 34.2215572 2.90367636 33.8725891 2.51632176 33.5628799 2.32264447 33.4852345 2.24587148 33.3692026 2.24587148 33.2531707 2.24587148 33.1755253 2.28425797 33.1362664 2.43867636 33.0594934 3.21338555 32.8274296 3.83193152 32.5177205 4.3737045 32.2080113 5.45899531 31.5885929 6.42563696 30.8915291 7.27711914 30.1176923 7.97418293 29.4982739 8.71050563 28.6851782 9.5619878 27.7176642 9.63963321 27.6016323 9.71640619 27.5239869 9.79405159 27.5239869L11.9236295 29.1109193zM8.59360131 4.99373358L8.59360131 1.04515947C8.59360131.851482176 8.74889212.735450281 9.05772889.735450281 10.8392111.735450281 11.7683386.890741088 11.7683386 1.19957786 11.7683386 1.51015947 11.6523068 1.70296435 11.4586295 1.70296435 11.2649522 1.74222326 11.1881792 1.97428705 11.1881792 2.40002814L11.1881792 4.99373358 16.6076538 4.99373358C16.8004587 4.99373358 16.9164906 5.14815197 16.9164906 5.45873358L16.9164906 6.65831144C16.9164906 7.04479362 16.8004587 7.23934334 16.6076538 7.23934334L11.4586295 7.23934334C12.0387889 8.05243902 12.5814343 8.67185741 13.0455619 9.13598499 13.7042392 9.87143527 14.5164625 10.5292402 15.4464625 11.1093996 16.2194268 11.652045 16.994136 12.0001407 17.8464906 12.2330769 17.8464906 12.4258818 17.7295863 12.5427861 17.4975225 12.6195591 17.0325225 13.0845591 16.6076538 13.5486867 16.2970722 13.9360413 16.1819128 14.1297186 16.1042674 14.2064916 16.026622 14.2064916 14.7877852 13.5870732 13.8193987 12.8908818 13.0455619 12.1554315 12.3101116 11.5360131 11.6906932 10.8782083 11.1881792 10.1418856L11.1881792 17.0715197C11.1881792 17.3812289 10.955243 17.5365197 10.5678884 17.5365197L9.05772889 17.5365197C8.74889212 17.5365197 8.59360131 17.3812289 8.59360131 17.0715197L8.59360131 10.6068856C8.44005535 10.8005629 8.28476454 10.9558537 8.20711914 11.0326266 7.35476454 11.9617542 6.42563696 12.8516229 5.42060882 13.6263321 4.25854503 14.5170732 3.09648124 15.251651 1.93528987 15.8710694 1.7040985 15.8710694 1.50954878 15.7942964 1.35425797 15.639878.928516886 15.214137.503648218 14.7875235.0779071295 14.4010413.000261726079 14.2457505.000261726079 14.1297186.000261726079 14.0520732 1.08380769 13.5870732 1.97454878 13.1229456 2.67074015 12.658818 3.67751313 12.0393996 4.76193152 11.2263039 5.88386398 10.1418856 6.50415478 9.52246717 7.31637805 8.5549531 8.40079644 7.23934334L2.09058068 7.23934334C1.85851689 7.23934334 1.78087148 7.04479362 1.78087148 6.65831144L1.78087148 5.45873358C1.78087148 5.14815197 1.85851689 4.99373358 2.09058068 4.99373358L8.59360131 4.99373358zM89.9291679 1.1996651C89.9291679 1.54776079 89.813136 1.74231051 89.5810722 1.780697 89.3097495 1.81908349 89.1928452 2.09040619 89.1928452 2.55540619L89.1928452 14.3618696 101.580341 14.3618696C101.890922 14.3618696 102.046213 14.5171604 102.046213 14.8259972L102.046213 16.3361567C102.046213 16.7235113 101.890922 16.9171886 101.580341 16.9171886L89.1928452 16.9171886 89.1928452 31.4333893 103.400209 31.4333893C103.710791 31.4333893 103.866082 31.5886801 103.866082 31.8983893L103.866082 33.4076764C103.866082 33.795031 103.710791 34.0270947 103.400209 34.0270947L69.8382017 34.0270947C69.5276201 34.0270947 69.3732017 33.795031 69.3732017 33.4076764L69.3732017 31.8983893C69.3732017 31.5886801 69.5276201 31.4333893 69.8382017 31.4333893L74.9863537 31.4333893 74.9863537 9.05842683C74.9863537 8.78710413 75.180031 8.63268574 75.5665131 8.63268574 77.5809315 8.63268574 78.5868321 8.78710413 78.5868321 9.05842683 78.5868321 9.40652251 78.4699278 9.60019981 78.2387364 9.63945872 77.9674137 9.67784522 77.8513818 9.9482955 77.8513818 10.4141679L77.8513818 31.4333893 86.3286895 31.4333893 86.3286895 1.1996651C86.3286895.89082833 86.5232392.735537523 86.9097214.735537523 88.9223949.735537523 89.9291679.89082833 89.9291679 1.1996651M164.180246 17.536258C164.180246 18.5421585 165.689533 19.0848039 168.708979 19.1615769L168.708979 12.388106 164.180246 12.388106 164.180246 17.536258zM161.624927 4.52934428L159.032094 4.52934428C159.032094 6.54201782 158.993707 8.2458546 158.954448 9.63910976 158.954448 9.79352814 158.915189 9.91043246 158.915189 9.98807786L161.624927 9.98807786 161.624927 4.52934428zM152.528201 30.8528809L168.708979 30.8528809 168.708979 27.0595976 152.528201 27.0595976 152.528201 30.8528809zM154.424842 18.4645131C154.812197 17.9227402 155.160293 17.1881623 155.431615 16.2590347 155.62442 15.6003574 155.81897 14.7488752 155.974261 13.7037158 156.051034 13.2779747 156.090293 12.8522336 156.166193 12.388106L152.529073 12.388106 152.529073 20.0139315C153.302038 19.5881904 153.921456 19.0848039 154.424842 18.4645131L154.424842 18.4645131zM168.708979 24.658697L168.708979 21.7168959C163.986568 21.5624775 161.624927 20.4004137 161.624927 18.3109672L161.624927 12.388106 158.722385 12.388106C158.643867 13.0075244 158.567094 13.6269428 158.490321 14.1687158 158.257385 15.5619709 157.946803 16.8008077 157.521934 17.9619991 157.057807 19.1615769 156.516034 20.1299634 155.857356 20.9038002 155.315583 21.5232186 154.696165 22.0649916 154.03836 22.5299916 153.805424 22.5299916 153.651006 22.4139597 153.612619 22.1042505 153.225265 21.6392505 152.83791 21.1367364 152.529073 20.517318L152.529073 24.658697 168.708979 24.658697zM172.348717 2.12931614C172.658426 2.12931614 172.812844 2.32299343 172.812844 2.70947561L172.812844 3.94831238C172.812844 4.33566698 172.658426 4.52934428 172.348717 4.52934428L164.180246 4.52934428 164.180246 9.98807786 170.83943 9.98807786C171.225912 9.98807786 171.457976 10.1416238 171.457976 10.4138189L171.457976 35.3824869C171.457976 35.6921961 171.225912 35.8466144 170.83943 35.8466144L169.32927 35.8466144C168.903529 35.8466144 168.708979 35.6921961 168.708979 35.3824869L168.708979 33.2537814 152.529073 33.2537814 152.529073 35.3824869C152.529073 35.6921961 152.334523 35.8466144 151.948041 35.8466144L150.437882 35.8466144C150.012141 35.8466144 149.818463 35.6921961 149.818463 35.3824869L149.818463 10.5682373C149.818463 10.1808827 150.012141 9.98807786 150.437882 9.98807786L156.360743 9.98807786 156.360743 9.91043246C156.437516 8.70998218 156.476775 6.92937242 156.476775 4.52934428L149.043754 4.52934428C148.734045 4.52934428 148.618013 4.33566698 148.618013 3.94831238L148.618013 2.70947561C148.618013 2.32299343 148.734045 2.12931614 149.043754 2.12931614L172.348717 2.12931614zM144.592666 3.44579831C145.598567 4.18037617 146.489308 4.83818105 147.263144 5.45847186 147.263144 5.49685835 147.186371 5.57450375 147.07034 5.72979456 146.29563 6.73569512 145.909148 7.23908161 145.869889 7.23908161 144.747084 6.30995403 143.586765 5.45847186 142.347929 4.68463508 141.340283 4.0652167 140.488801 3.59934428 139.830996 3.328894 139.830996 3.2128621 140.179092 2.67108912 140.914542 1.74196154 140.992188 1.58754315 141.109092 1.50989775 141.185865 1.50989775 142.57912 2.20696154 143.701925 2.86476642 144.592666 3.44579831L144.592666 3.44579831zM146.450921 19.510545C147.07034 20.8261548 147.379176 21.5624775 147.379176 21.6392505 147.379176 21.8721867 147.302403 22.0649916 147.186371 22.2202824 145.869889 25.2789878 144.631053 27.8726932 143.469861 30.0013987 142.811184 31.2402355 142.037347 32.5174587 141.147478 33.9883593 140.992188 34.3373274 140.914542 34.801455 140.914542 35.3824869 140.914542 35.6921961 140.79851 35.8466144 140.604833 35.8466144 140.412028 35.8466144 139.637319 35.0727777 138.281578 33.5242317 138.127159 33.4465863 138.050386 33.2921679 138.011128 33.0984906 138.011128 32.8655544 138.050386 32.7120084 138.205677 32.5567176 138.940255 31.7820084 139.714964 30.8528809 140.488801 29.6916895 141.572347 28.1038846 142.618379 26.3232749 143.62428 24.3114737 144.475762 22.5692505 145.250471 20.9814456 145.909148 19.510545 145.985921 19.3168677 146.101953 19.2008358 146.179598 19.2008358 146.29563 19.2008358 146.373276 19.3168677 146.450921 19.510545L146.450921 19.510545zM142.539861 12.5809109C143.62428 13.2779747 144.515021 13.9357795 145.288857 14.5168114 145.288857 14.5551979 145.212084 14.6328433 145.096053 14.7881341 144.320471 15.8332936 143.933989 16.3358077 143.933989 16.3358077 142.772797 15.445939 141.572347 14.5944568 140.295124 13.8197477 139.249964 13.2387158 138.398482 12.8138471 137.701418 12.5425244 137.701418 12.4264925 138.050386 11.923106 138.785837 10.9939784 138.86261 10.8386876 138.978642 10.7226557 139.094674 10.7226557 140.488801 11.4197195 141.611606 12.0391379 142.539861 12.5809109L142.539861 12.5809109z"/>
    <mask id="warning-b" fill="#fff">
      <use xlink:href="#warning-a"/>
    </mask>
    <path fill="#FFF" d="M229.489278,9.98781614 L237.966585,9.98781614 L237.966585,5.14850094 L229.489278,5.14850094 L229.489278,9.98781614 Z M229.836501,30.0395235 C230.766501,31.5112964 231.501079,32.9429381 232.082111,34.4923565 C232.082111,34.7235478 231.889306,34.8788386 231.501079,34.9172251 L229.798114,35.2278068 C229.60531,35.2278068 229.489278,35.1117749 229.450019,34.8788386 C229.178696,33.6400019 228.676182,32.1691013 227.979118,30.3884916 C227.979118,30.2340732 228.055891,30.1564278 228.288827,30.0787824 L229.489278,29.7690732 C229.566051,29.7690732 229.682083,29.8859775 229.836501,30.0395235 L229.836501,30.0395235 Z M240.096163,2.86450469 C240.482645,2.86450469 240.676323,3.0197955 240.676323,3.32863227 L240.676323,11.8068124 C240.676323,12.1165216 240.482645,12.2325535 240.096163,12.2325535 L227.398086,12.2325535 C226.972345,12.2325535 226.778668,12.1165216 226.778668,11.8068124 L226.778668,3.32863227 C226.778668,3.0197955 226.972345,2.86450469 227.398086,2.86450469 L240.096163,2.86450469 Z M224.030544,30.466137 C224.649962,32.2467467 225.036445,33.7560338 225.269381,35.0725159 C225.269381,35.2278068 225.075704,35.3429662 224.727608,35.4206116 L222.985385,35.5366435 C222.830094,35.5366435 222.714062,35.4206116 222.714062,35.1894203 C222.637289,33.7176473 222.404353,32.2467467 222.094644,30.6982008 C222.094644,30.466137 222.211548,30.3108462 222.443612,30.3108462 L223.604803,30.2340732 C223.759221,30.2340732 223.914512,30.3108462 224.030544,30.466137 L224.030544,30.466137 Z M217.721201,30.2340732 C217.991651,30.2340732 218.146069,30.3501051 218.146069,30.5429099 C218.340619,32.0146829 218.455779,33.5623565 218.455779,35.2278068 C218.455779,35.4206116 218.30136,35.5366435 218.030038,35.5366435 L216.597523,35.5366435 C216.133396,35.5366435 215.901332,35.4206116 215.901332,35.2278068 C216.05575,33.8336792 216.171782,32.2860056 216.171782,30.5429099 C216.171782,30.3501051 216.249428,30.2340732 216.482364,30.2340732 L217.721201,30.2340732 Z M214.237627,26.5952083 L223.604803,26.5952083 L223.604803,24.5048893 L214.237627,24.5048893 L214.237627,26.5952083 Z M214.237627,22.3753114 L223.604803,22.3753114 L223.604803,20.400152 L214.237627,20.400152 L214.237627,22.3753114 Z M214.236754,18.3107054 L223.603931,18.3107054 L223.603931,16.335546 L214.236754,16.335546 L214.236754,18.3107054 Z M226.31454,18.3107054 L236.456426,18.3107054 C236.650976,18.3107054 236.767008,18.4651238 236.767008,18.7364465 L236.767008,19.9752833 C236.767008,20.2849925 236.650976,20.400152 236.456426,20.400152 L226.31454,20.400152 L226.31454,22.3753114 L236.456426,22.3753114 C236.650976,22.3753114 236.767008,22.5297298 236.767008,22.839439 L236.767008,24.0398893 C236.767008,24.3495985 236.650976,24.5048893 236.456426,24.5048893 L226.31454,24.5048893 L226.31454,26.5943358 L240.521904,26.5943358 C240.831614,26.5943358 240.986032,26.7496266 240.986032,27.0593358 C240.909259,29.459364 240.753968,31.1623283 240.521904,32.2083602 C240.212195,33.447197 239.824841,34.3754522 239.359841,34.9948705 C238.895713,35.6535478 237.61849,36.0016435 235.528171,36.0016435 C234.599043,36.0016435 234.134043,35.7311932 234.134043,35.2278068 C234.05727,34.6083884 233.86272,33.9113246 233.59227,33.0982289 L233.59227,32.8277786 C234.289334,32.982197 234.908752,33.0982289 235.528171,33.0982289 C236.456426,33.0982289 237.076717,32.9045516 237.348039,32.5564559 C237.656876,32.2467467 237.889812,31.6665872 238.082617,30.7758462 C238.237036,30.3108462 238.35394,29.6530413 238.431585,28.7230413 L212.107176,28.7230413 C211.681435,28.7230413 211.48863,28.5694953 211.48863,28.2589137 L211.48863,14.6718405 C211.48863,14.3621313 211.681435,14.2068405 212.107176,14.2068405 L237.812167,14.2068405 C238.005844,14.2068405 238.121004,14.3621313 238.121004,14.6718405 L238.121004,15.8714184 C238.121004,16.182 238.005844,16.335546 237.812167,16.335546 L226.31454,16.335546 L226.31454,18.3107054 Z M211.797467,30.1564278 C212.107176,30.1564278 212.262467,30.3108462 212.262467,30.5429099 C211.604662,32.5948424 210.829953,34.2978068 209.900826,35.6142889 C209.784794,35.7695797 209.707148,35.8472251 209.707148,35.8472251 C209.28228,35.8472251 208.971698,35.7695797 208.81728,35.6919343 C208.390666,35.498257 207.926538,35.3429662 207.384765,35.1894203 C207.191088,35.0725159 207.113443,34.9172251 207.113443,34.7628068 C208.429925,33.2535197 209.359053,31.7817467 209.824053,30.3108462 C209.862439,30.0787824 210.055244,29.9234916 210.442598,29.9234916 L211.797467,30.1564278 Z M217.294587,0.774185741 C217.759587,0.774185741 217.991651,0.928604128 217.991651,1.19992683 C217.991651,1.66492683 217.797974,1.8961182 217.488265,1.9737636 C217.101782,2.01302251 216.946492,2.2450863 216.946492,2.70921388 C216.907233,2.94215009 216.907233,3.17421388 216.907233,3.32863227 L224.224221,3.32863227 C224.494672,3.32863227 224.649962,3.48392308 224.649962,3.79363227 C224.572317,6.19366041 224.456285,7.89662477 224.224221,8.90339775 C223.914512,10.1814934 223.527158,11.1097486 223.06303,11.729167 C222.59803,12.3878443 221.359193,12.6966811 219.384906,12.6966811 C218.224587,12.6966811 217.643555,12.4654897 217.643555,12.0004897 C217.56591,11.4578443 217.332974,10.8384259 216.946492,10.1422345 L216.946492,9.83252533 C217.797974,9.94855722 218.611069,9.98781614 219.384906,9.98781614 C220.314034,9.98781614 220.894193,9.79326642 221.165516,9.40678424 C221.475225,9.09707505 221.708161,8.51604315 221.901839,7.58778799 C222.056257,7.12278799 222.172289,6.46498311 222.249934,5.57424203 L216.597523,5.57424203 C216.404719,6.50336961 216.171782,7.23969231 215.939719,7.78146529 C215.243527,9.32913884 214.429559,10.5679756 213.423659,11.4578443 C212.301726,12.5038762 210.907598,13.3160994 209.243021,13.8971313 C208.971698,13.8971313 208.778021,13.8578724 208.701248,13.7427129 C208.35228,13.4330038 207.926538,13.1625535 207.462411,12.8519719 C207.229475,12.6966811 207.113443,12.5431351 207.113443,12.3878443 C207.113443,12.27094 207.229475,12.194167 207.539184,12.1165216 C209.08773,11.4578443 210.249794,10.7616529 211.062889,9.98781614 C211.991144,9.29075235 212.688208,8.43927017 213.190722,7.39323827 C213.501304,6.8907242 213.732495,6.27130582 213.966304,5.57424203 L209.707148,5.57424203 C209.398311,5.57424203 209.243021,5.38143715 209.243021,4.99321013 L209.243021,3.79363227 C209.243021,3.48392308 209.398311,3.32863227 209.707148,3.32863227 L214.391173,3.32863227 C214.468818,2.6324409 214.508077,1.85860413 214.508077,1.04550844 C214.508077,0.774185741 214.662495,0.619767355 214.971332,0.619767355 L217.294587,0.774185741 Z" mask="url(#warning-b)"/>
    <polygon fill="#FFF" points="290.695 20.711 295.34 20.711 295.34 16.065 290.695 16.065" mask="url(#warning-b)"/>
    <path fill="#FFF" d="M372.068485 13.4714775C372.068485 13.7044137 371.952453 13.8579597 371.758776 13.8579597 371.448194 14.0525094 371.332162 14.3622186 371.332162 14.8263462L371.332162 17.2263743C371.332162 17.7690197 371.293776 18.3107927 371.293776 18.8133068 371.409808 20.2850797 371.603485 21.48553 371.873935 22.4530441 372.223776 23.8855582 372.72629 25.3171998 373.345708 26.7889728 373.887481 27.9885507 374.739836 29.2273874 375.823382 30.5046107 377.062219 31.8594794 378.533119 33.0983161 380.236083 34.3371529 380.236083 34.4924437 380.120052 34.6084756 379.927247 34.6852486 379.462247 34.9949578 378.997247 35.3430535 378.455474 35.7312805 378.301055 35.8848265 378.068119 36.0017308 377.836055 36.0017308 376.752509 35.1502486 375.70735 34.221121 374.701449 33.1367026 373.384095 31.8202205 372.415708 30.4653518 371.720389 29.149742 371.21613 28.2590009 370.752003 27.2138415 370.364648 26.0526501 370.170971 26.7497139 369.978166 27.3691323 369.746102 27.9885507 369.125811 29.6138696 368.351975 31.0472561 367.384461 32.3236069 366.609751 33.4080253 365.44856 34.5692167 363.900014 35.84644 363.744723 35.84644 363.628691 35.7312805 363.473401 35.4983443 363.086918 35.0726032 362.700436 34.7236351 362.273823 34.4147983 362.042631 34.2595075 361.925727 34.1434756 361.925727 34.0274437 363.590305 32.6341886 364.751496 31.4729972 365.370915 30.5429972 366.067978 29.5370966 366.687397 28.4526782 367.151524 27.2138415 367.615652 25.9750047 367.965492 24.3496857 368.274329 22.3361398 368.468007 20.7108208 368.584038 19.0078565 368.584038 17.2263743L368.584038 13.3161867C368.584038 13.0073499 368.623297 12.8520591 368.739329 12.8520591 370.94568 13.1626407 372.068485 13.3938321 372.068485 13.4714775L372.068485 13.4714775zM370.093326 1.66501407C370.093326 1.85781895 369.900521 2.05149625 369.590811 2.24517355 369.281102 2.36120544 369.125811 2.63252814 369.049038 3.01988274 368.893748 4.18107411 368.623297 5.49668386 368.235943 6.96845685L378.107378 6.96845685C378.49386 6.96845685 378.726796 7.04522983 378.842828 7.12287523 379.346215 7.58787523 379.616665 7.93597092 379.616665 8.16803471L375.9778 16.6846013C375.901027 16.8390197 375.784995 16.9166651 375.70735 16.9166651 374.274836 16.5301829 373.577772 16.1812148 373.577772 15.8715056L376.482059 9.36848499 367.615652 9.36848499C367.461234 9.83261257 367.345202 10.2583537 367.22917 10.6457083 366.571365 12.7360272 365.603851 14.9807645 364.365014 17.3807927 364.248982 17.3807927 364.054432 17.3424062 363.744723 17.2263743 363.242209 17.1103424 362.700436 16.9943105 362.081018 16.8782786 361.887341 16.8006332 361.809695 16.6462148 361.809695 16.3356332 362.545145 15.0967964 363.164564 13.8579597 363.706337 12.6967683 364.481046 10.9554174 365.216496 8.7874531 365.835042 6.19374765 366.222397 4.4131379 366.416074 2.63252814 366.492847.890304878 366.492847.735014071 366.571365.619854597 366.765042.619854597 368.970521 1.04559568 370.093326 1.39369137 370.093326 1.66501407L370.093326 1.66501407zM357.241703 6.96845685C356.235802 6.15448874 355.151384 5.18697467 354.066965 4.06504221 353.486806 4.87726548 352.945033 5.57432927 352.441646 6.11610225 352.20871 6.42581144 351.93826 6.69713415 351.706196 6.96845685L357.241703 6.96845685zM349.538232 22.3753987L357.70583 22.3753987 357.70583 19.2006614 349.538232 19.2006614 349.538232 22.3753987zM349.538232 16.9166651L357.70583 16.9166651 357.70583 13.8972186 349.538232 13.8972186 349.538232 16.9166651zM349.538232 31.7434475C349.886327 31.6658021 350.235295 31.5497702 350.62265 31.4337383 352.750483 30.8919653 354.764029 30.3109334 356.69993 29.6138696 356.350962 28.8400328 355.964479 28.1037101 355.577997 27.3691323 355.577997 27.2138415 356.235802 26.8273593 357.550539 26.1695544 358.402894 27.8725188 359.139217 29.4201923 359.68099 30.8143199 360.222763 32.1308021 360.648504 33.4464118 361.035858 34.9173124 361.035858 34.9949578 360.222763 35.2654081 358.597444 35.6920216 358.442153 34.7236351 358.131571 33.5624437 357.667444 32.1691886 357.589798 32.0147702 357.550539 31.8978659 357.512153 31.7434475 353.912547 32.9822842 350.312941 34.0658302 346.673204 35.0726032 346.285849 35.769667 345.977012 36.1561492 345.744076 36.1561492 345.512885 36.1561492 345.008626 35.0726032 344.234789 32.9822842 345.086271 32.8278659 345.977012 32.6341886 346.982913 32.4012523L346.982913 12.0773499C346.982913 11.8068996 347.098945 11.6524812 347.408654 11.6524812L359.68099 11.6524812C360.067472 11.6524812 360.261149 11.8068996 360.261149 12.0773499L360.261149 24.0399765C360.261149 24.4657176 360.067472 24.6585225 359.68099 24.6585225L349.538232 24.6585225 349.538232 31.7434475zM356.428607 1.35443246C356.661543 1.50972326 356.816834 1.66501407 356.816834 1.81943246 356.816834 2.12914165 356.544639 2.28443246 356.041252 2.28443246 355.809189 2.28443246 355.616384 2.32281895 355.461093 2.36120544 356.622284 3.60004221 357.589798 4.45152439 358.402894 4.95491088 359.641731 5.88403846 361.190277 6.77390713 363.010145 7.54861632 363.010145 7.8190666 362.893241 8.0127439 362.738823 8.09038931 362.389855 8.43848499 361.925727 8.8650985 361.345568 9.36848499 361.228663 9.36848499 361.112631 9.32922608 360.996599 9.25158068 359.912181 8.82671201 358.90628 8.24568011 357.90038 7.51022983 357.861121 7.51022983 357.861121 7.47097092 357.861121 7.47097092L357.861121 8.63216229C357.861121 9.01951689 357.745089 9.21319418 357.550539 9.21319418L350.583391 9.21319418C350.388841 9.21319418 350.312941 9.01951689 350.312941 8.63216229L350.312941 8.32332552 350.15765 8.4777439C349.266909 9.32922608 348.37704 10.0655488 347.486299 10.6849672 346.557172 11.342772 345.860108 11.8068996 345.318335 12.0773499 345.047012 12.0773499 344.854207 11.9621904 344.738175 11.7292542 344.389207 11.2267402 344.002725 10.7617402 343.576984 10.3743856 343.305661 10.2190947 343.189629 10.1039353 343.189629 9.98790338 343.189629 9.91025797 343.228016 9.87099906 343.344048 9.79335366 344.582885 9.25158068 345.588785 8.6714212 346.44114 8.09038931 347.563945 7.31568011 348.68675 6.34903846 349.847068 5.14858818 350.62265 4.37387899 351.241196 3.60004221 351.744583 2.86459193 352.286356 2.08988274 352.750483 1.23927298 353.216356.309272983 353.370774.115595685 353.486806.000436210131 353.642097.000436210131L356.428607 1.35443246zM439.350495 17.536258C439.350495 18.5421585 440.859782 19.0848039 443.880101 19.1615769L443.880101 12.388106 439.350495 12.388106 439.350495 17.536258zM436.796049 4.52934428L434.203216 4.52934428C434.203216 6.54201782 434.163957 8.2458546 434.124698 9.63910976 434.124698 9.79352814 434.086311 9.91043246 434.086311 9.98807786L436.796049 9.98807786 436.796049 4.52934428zM427.69845 30.8528809L443.880101 30.8528809 443.880101 27.0595976 427.69845 27.0595976 427.69845 30.8528809zM429.595092 18.4645131C429.983319 17.9227402 430.331415 17.1881623 430.602737 16.2590347 430.795542 15.6003574 430.98922 14.7488752 431.14451 13.7037158 431.222156 13.2779747 431.260542 12.8522336 431.337315 12.388106L427.699323 12.388106 427.699323 20.0139315C428.472287 19.5881904 429.092578 19.0848039 429.595092 18.4645131L429.595092 18.4645131zM443.880101 24.658697L443.880101 21.7168959C439.15769 21.5624775 436.796049 20.4004137 436.796049 18.3109672L436.796049 12.388106 433.892634 12.388106C433.814989 13.0075244 433.737343 13.6269428 433.661443 14.1687158 433.427634 15.5619709 433.117925 16.8008077 432.693056 17.9619991 432.228056 19.1615769 431.686283 20.1299634 431.028478 20.9038002 430.486705 21.5232186 429.866415 22.0649916 429.20861 22.5299916 428.976546 22.5299916 428.822128 22.4139597 428.782869 22.1042505 428.395514 21.6392505 428.009032 21.1367364 427.699323 20.517318L427.699323 24.658697 443.880101 24.658697zM447.518966 2.12931614C447.829548 2.12931614 447.983966 2.32299343 447.983966 2.70947561L447.983966 3.94831238C447.983966 4.33566698 447.829548 4.52934428 447.518966 4.52934428L439.350495 4.52934428 439.350495 9.98807786 446.009679 9.98807786C446.396161 9.98807786 446.629098 10.1416238 446.629098 10.4138189L446.629098 35.3824869C446.629098 35.6921961 446.396161 35.8466144 446.009679 35.8466144L444.49952 35.8466144C444.073779 35.8466144 443.880101 35.6921961 443.880101 35.3824869L443.880101 33.2537814 427.699323 33.2537814 427.699323 35.3824869C427.699323 35.6921961 427.505645 35.8466144 427.118291 35.8466144L425.608131 35.8466144C425.18239 35.8466144 424.989585 35.6921961 424.989585 35.3824869L424.989585 10.5682373C424.989585 10.1808827 425.18239 9.98807786 425.608131 9.98807786L431.530992 9.98807786 431.530992 9.91043246C431.608638 8.70998218 431.647024 6.92937242 431.647024 4.52934428L424.214004 4.52934428C423.905167 4.52934428 423.789135 4.33566698 423.789135 3.94831238L423.789135 2.70947561C423.789135 2.32299343 423.905167 2.12931614 424.214004 2.12931614L447.518966 2.12931614zM419.762916 3.44579831C420.768816 4.18037617 421.66043 4.83818105 422.433394 5.45847186 422.433394 5.49685835 422.356621 5.57450375 422.240589 5.72979456 421.46588 6.73569512 421.079398 7.23908161 421.040139 7.23908161 419.918206 6.30995403 418.757015 5.45847186 417.518178 4.68463508 416.510533 4.0652167 415.659923 3.59934428 415.001246 3.328894 415.001246 3.2128621 415.350214 2.67108912 416.084792 1.74196154 416.16331 1.58754315 416.279341 1.50989775 416.356987 1.50989775 417.74937 2.20696154 418.872174 2.86476642 419.762916 3.44579831L419.762916 3.44579831zM421.621171 19.510545C422.240589 20.8261548 422.550298 21.5624775 422.550298 21.6392505 422.550298 21.8721867 422.472653 22.0649916 422.356621 22.2202824 421.040139 25.2789878 419.801302 27.8726932 418.640983 30.0013987 417.982306 31.2402355 417.207597 32.5174587 416.3186 33.9883593 416.16331 34.3373274 416.084792 34.801455 416.084792 35.3824869 416.084792 35.6921961 415.96876 35.8466144 415.775955 35.8466144 415.582278 35.8466144 414.807568 35.0727777 413.4527 33.5242317 413.298281 33.4465863 413.220636 33.2921679 413.18225 33.0984906 413.18225 32.8655544 413.220636 32.7120084 413.375927 32.5567176 414.111377 31.7820084 414.885214 30.8528809 415.659923 29.6916895 416.743469 28.1038846 417.788629 26.3232749 418.795402 24.3114737 419.646884 22.5692505 420.421593 20.9814456 421.079398 19.510545 421.157043 19.3168677 421.273075 19.2008358 421.349848 19.2008358 421.46588 19.2008358 421.544398 19.3168677 421.621171 19.510545L421.621171 19.510545zM417.710983 12.5809109C418.795402 13.2779747 419.68527 13.9357795 420.459979 14.5168114 420.459979 14.5551979 420.382334 14.6328433 420.266302 14.7881341 419.491593 15.8332936 419.105111 16.3358077 419.105111 16.3358077 417.943919 15.445939 416.743469 14.5944568 415.466246 13.8197477 414.421086 13.2387158 413.568732 12.8138471 412.87254 12.5425244 412.87254 12.4264925 413.220636 11.923106 413.956959 10.9939784 414.032859 10.8386876 414.149764 10.7226557 414.265795 10.7226557 415.659923 11.4197195 416.781856 12.0391379 417.710983 12.5809109L417.710983 12.5809109zM504.969934 13.6258086L509.498668 13.6258086 509.498668 9.67723452 504.969934 9.67723452 504.969934 13.6258086zM501.639906 25.0841764L507.09864 25.0841764 507.09864 21.0195704 501.639906 21.0195704 501.639906 25.0841764zM509.188086 18.7364465C509.576313 18.7364465 509.807505 18.8908649 509.807505 19.2005741L509.807505 26.9049174C509.807505 27.2137542 509.576313 27.369045 509.188086 27.369045L499.511201 27.369045C499.123846 27.369045 498.931041 27.2137542 498.931041 26.9049174L498.931041 19.2005741C498.931041 18.8908649 499.123846 18.7364465 499.511201 18.7364465L509.188086 18.7364465zM502.259325 13.6266811L502.259325 7.85823827C502.259325 7.54852908 502.453002 7.39323827 502.840356 7.39323827L509.498668 7.39323827 509.498668 3.79363227 498.77575 3.79363227 498.77575 13.6266811 502.259325 13.6266811zM511.627373 1.50963602C512.014728 1.50963602 512.246792 1.66492683 512.246792 1.9737636L512.246792 13.6266811 515.110947 13.6266811C515.57682 13.6266811 515.84727 13.7819719 515.84727 14.0524221L515.84727 29.1496548C515.84727 29.7690732 515.343884 30.2724597 514.37637 30.5812964 513.447242 30.891878 512.208405 31.0855553 510.698246 31.1623283 510.426923 31.1623283 510.273377 31.0079099 510.234118 30.6982008 510.156473 30.1564278 509.88515 29.3424597 509.343377 28.2589137 509.343377 28.1812683 509.421023 28.1428818 509.653959 28.1428818 511.318537 28.1428818 512.285178 28.1044953 512.59576 27.9884634 512.943856 27.8724315 513.137533 27.6394953 513.137533 27.3306585L513.137533 15.8714184 495.601013 15.8714184 495.601013 30.0787824C495.601013 30.3884916 495.368949 30.5429099 494.981595 30.5429099L493.472308 30.5429099C493.084081 30.5429099 492.891276 30.3884916 492.891276 30.0787824L492.891276 14.0524221C492.891276 13.7819719 493.084081 13.6266811 493.472308 13.6266811L496.065141 13.6266811 496.065141 1.9737636C496.065141 1.66492683 496.258818 1.50963602 496.646173 1.50963602L511.627373 1.50963602zM488.477702 2.59318199C489.484475 3.29024578 490.335957 3.87127767 491.07228 4.37379174 491.07228 4.45143715 490.994634 4.56746904 490.87773 4.72275985 490.103893 5.80630582 489.716538 6.34895122 489.716538 6.34895122 488.594606 5.49659662 487.394156 4.76201876 486.155319 4.06495497 485.149418 3.52318199 484.297064 3.09656848 483.639259 2.86450469 483.639259 2.7484728 484.026614 2.1674409 484.838837 1.16154034 484.955741 1.00624953 485.071773.890217636 485.149418.890217636 486.503415 1.50963602 487.627092 2.0897955 488.477702 2.59318199L488.477702 2.59318199zM487.200478 10.9160713C488.207251 11.652394 489.09712 12.3101989 489.833443 12.8519719 489.833443 12.8912308 489.755797 13.0072627 489.678152 13.1625535 488.903443 14.2844859 488.516961 14.8262589 488.477702 14.8262589 487.31651 13.9355178 486.116932 13.0849081 484.878096 12.3101989 483.832936 11.729167 482.980582 11.3042983 482.28439 11.0321032 482.28439 10.9160713 482.671745 10.3359118 483.483968 9.32913884 483.6 9.17472045 483.716904 9.05781614 483.793677 9.05781614 485.187805 9.75487992 486.31061 10.3742983 487.200478 10.9160713L487.200478 10.9160713zM489.407702 18.0001238C489.871829 18.0001238 490.14228 18.1554146 490.14228 18.4651238L490.14228 27.5234634C490.14228 27.9884634 490.181538 28.6078818 490.259184 29.3424597 490.723311 30.3501051 491.381116 31.2007148 492.194212 31.8977786 493.239371 32.5948424 494.78879 32.982197 496.878236 32.982197L507.446735 32.982197C508.375863 32.982197 509.924409 32.8661651 512.169146 32.6341013 514.221079 32.4011651 515.808011 32.2083602 516.891557 31.9370375 517.046848 31.9370375 517.202139 31.8977786 517.35743 31.8977786 517.550235 31.8977786 517.666266 32.0146829 517.666266 32.2083602 517.202139 33.05897 516.776398 33.8729381 516.466689 34.5691295 516.389043 35.1117749 516.156979 35.3822251 515.691979 35.3822251L496.878236 35.3822251C494.169371 35.3822251 492.000535 34.6851614 490.375216 33.3695516 489.600507 32.5948424 488.942702 31.5889418 488.323283 30.2340732 487.007674 31.5112964 485.883996 32.6341013 484.878096 33.7176473 484.258677 34.0666154 483.948968 34.4923565 483.910582 35.0341295 483.910582 35.4598705 483.793677 35.6919343 483.639259 35.6919343 483.522355 35.6919343 483.368809 35.5759024 483.174259 35.3429662L481.239231 32.517197C481.858649 32.4395516 483.677645 31.2399737 486.619447 28.8783321 487.04606 28.6855272 487.278124 28.2205272 487.278124 27.5234634L487.278124 20.400152 482.594099 20.400152C482.28439 20.400152 482.129972 20.2073471 482.129972 19.8199925L482.129972 18.5811557C482.129972 18.1938011 482.28439 18.0001238 482.594099 18.0001238L489.407702 18.0001238zM569.542992 25.2394672L577.246463 25.2394672 577.246463 22.839439 569.542992 22.839439 569.542992 25.2394672zM569.542992 21.0195704L577.246463 21.0195704 577.246463 18.7364465 569.542992 18.7364465 569.542992 21.0195704zM559.866107 25.2394672L566.794869 25.2394672 566.794869 22.839439 559.866107 22.839439 559.866107 25.2394672zM559.866107 21.0195704L566.794869 21.0195704 566.794869 18.7364465 559.866107 18.7364465 559.866107 21.0195704zM559.245816 9.98694371L577.981914 9.98694371 577.981914 7.85823827 559.245816 7.85823827 559.245816 9.98694371zM559.245816 6.03836961L577.981914 6.03836961 577.981914 3.94805066 559.245816 3.94805066 559.245816 6.03836961zM580.111492 2.12905441C580.498846 2.12905441 580.730038 2.28434522 580.730038 2.5547955L580.730038 11.3426848C580.730038 11.652394 580.498846 11.8068124 580.111492 11.8068124L557.117111 11.8068124C556.729756 11.8068124 556.536079 11.652394 556.536079 11.3426848L556.536079 2.5547955C556.536079 2.28434522 556.729756 2.12905441 557.117111 2.12905441L580.111492 2.12905441zM579.376041 16.9165779C579.763396 16.9165779 579.957073 17.0718687 579.957073 17.3815779L579.957073 26.5943358C579.957073 26.9049174 579.763396 27.0593358 579.376041 27.0593358L569.542992 27.0593358 569.542992 28.8783321 581.46636 28.8783321C581.660038 28.8783321 581.776069 29.0336229 581.776069 29.3424597L581.776069 30.2340732C581.776069 30.6589418 581.660038 30.8526191 581.46636 30.8526191L569.542992 30.8526191 569.542992 32.982197 585.105225 32.982197C585.298902 32.982197 585.414062 33.0982289 585.414062 33.4079381L585.414062 34.3370657C585.414062 34.7235478 585.298902 34.9172251 585.105225 34.9172251L551.232636 34.9172251C550.9997 34.9172251 550.922927 34.7235478 550.922927 34.3370657L550.922927 33.4079381C550.922927 33.0982289 550.9997 32.982197 551.232636 32.982197L566.794869 32.982197 566.794869 30.8526191 556.071951 30.8526191C555.839015 30.8526191 555.76137 30.6589418 555.76137 30.2340732L555.76137 29.3424597C555.76137 29.0336229 555.839015 28.8783321 556.071951 28.8783321L566.794869 28.8783321 566.794869 27.0593358 557.736529 27.0593358C557.310788 27.0593358 557.117111 26.9049174 557.117111 26.5943358L557.117111 17.3815779C557.117111 17.0718687 557.310788 16.9165779 557.736529 16.9165779L579.376041 16.9165779zM585.105225 13.4713902C585.298902 13.4713902 585.414062 13.6266811 585.414062 13.8971313L585.414062 14.8262589C585.414062 15.2136135 585.298902 15.4072908 585.105225 15.4072908L551.232636 15.4072908C550.9997 15.4072908 550.922927 15.2136135 550.922927 14.8262589L550.922927 13.8971313C550.922927 13.6266811 550.9997 13.4713902 551.232636 13.4713902L585.105225 13.4713902z" mask="url(#warning-b)"/>
    <polygon fill="#FFF" points="634.659 20.711 639.303 20.711 639.303 16.065 634.659 16.065" mask="url(#warning-b)"/>
    <path fill="#FFF" d="M699.8503 26.7496266L716.18637 26.7496266 716.18637 21.9103114 699.8503 21.9103114 699.8503 26.7496266zM699.8503 19.5102833L716.18637 19.5102833 716.18637 14.9815497 699.8503 14.9815497 699.8503 19.5102833zM700.625009 5.57424203C701.166782 4.29614634 701.669296 2.9037636 702.134296 1.35434522 702.288715 1.04550844 702.483265.890217636 702.715328.890217636L705.733902 2.01302251C706.044484 2.2450863 706.199775 2.40037711 706.199775 2.5547955 706.199775 2.86450469 706.044484 3.09656848 705.773161 3.17421388 705.07697 3.17421388 704.688743 3.44553659 704.534325 3.90966417 704.263874 4.52908255 704.030938 5.07085553 703.798874 5.57424203L722.380553 5.57424203C722.690263 5.57424203 722.845553 5.80630582 722.845553 6.19366041L722.845553 7.39323827C722.845553 7.81985178 722.690263 8.01265666 722.380553 8.01265666L702.637683 8.01265666C701.863846 9.56207505 701.127523 10.8384259 700.508105 11.8068124 700.353687 12.0388762 700.237655 12.2325535 700.121623 12.3878443L718.161529 12.3878443C718.625657 12.3878443 718.896107 12.6199081 718.896107 13.0072627L718.896107 33.4079381C718.896107 34.2594203 718.238302 34.9172251 717.000338 35.3822251 715.761501 35.7695797 714.173696 36.0016435 712.238668 36.1560619 711.967345 36.1560619 711.812054 36.0016435 711.773668 35.6919343 711.696023 35.1501614 711.425572 34.3370657 710.882927 33.2535197 710.882927 33.1366154 710.999831 33.0982289 711.308668 33.0982289 713.631923 33.0982289 714.986792 32.982197 715.450919 32.8277786 715.915047 32.6341013 716.18637 32.3627786 716.18637 31.8977786L716.18637 29.1889137 699.8503 29.1889137 699.8503 35.5366435C699.8503 35.8472251 699.657495 36.0016435 699.269268 36.0016435L697.721595 36.0016435C697.33424 36.0016435 697.140563 35.8472251 697.140563 35.5366435L697.140563 16.4908368C696.908499 16.800546 696.638049 17.1102552 696.405113 17.4199644 694.934212 18.9685103 693.346407 20.400152 691.682702 21.6389887 691.295347 21.6389887 690.985638 21.6006023 690.753574 21.4854428 690.211801 21.2525066 689.629897 21.0195704 689.088124 20.8267655 688.895319 20.7491201 688.817674 20.6714747 688.817674 20.5554428 688.817674 20.3626379 688.895319 20.2073471 689.127383 20.0913152 691.721088 18.2714465 694.043471 16.0267092 696.095403 13.3553583 697.33424 11.8068124 698.3794 10.1814934 699.269268 8.43927017 699.346914 8.28397936 699.424559 8.16794747 699.502205 8.01265666L688.972964 8.01265666C688.662383 8.01265666 688.507964 7.81985178 688.507964 7.39323827L688.507964 6.19366041C688.507964 5.80630582 688.662383 5.57424203 688.972964 5.57424203L700.625009 5.57424203zM790.437447 1.81899625C790.670384 1.81899625 790.863189 1.97428705 791.018479 2.28399625 791.90922 3.25238274 792.373348 3.79415572 792.373348 3.94770169 790.399061 6.85198874 789.082579 8.86466229 788.385515 9.94820826 788.618451 10.1034991 788.812129 10.2587899 789.04332 10.3748218 789.740384 10.9165947 790.399061 11.4199812 790.940834 11.9617542 790.97922 12.0001407 791.018479 12.0393996 791.018479 12.0777861 791.018479 12.2330769 790.437447 12.658818 789.353902 13.3166229 789.276256 13.3166229 789.160224 13.3166229 789.082579 13.2389775 788.231097 12.4258818 787.301969 11.728818 786.295196 11.1486585 785.675778 10.7613039 785.017973 10.4140807 784.359295 10.0651126 783.43104 9.67775797 782.462654 9.29040338 781.456753 8.86466229L781.339849 8.78701689C781.339849 8.70937148 781.728076 8.2452439 782.50104 7.39376173 782.656331 7.31611632 782.811622 7.23934334 783.004427 7.23934334 783.817523 7.54818011 784.708264 7.93640713 785.637391 8.40053471 785.792682 8.47818011 785.908714 8.5549531 786.063132 8.6325985L789.701997 3.94770169 782.578686 3.94770169C782.347494 3.94770169 782.269849 3.79415572 782.269849 3.48357411L782.269849 2.28399625C782.269849 1.97428705 782.347494 1.81899625 782.578686 1.81899625L790.437447 1.81899625zM791.946735 13.6263321C792.179671 13.6263321 792.334962 13.6647186 792.411735 13.742364 792.799089 14.1681051 792.992766 14.4778143 792.992766 14.6714916L790.747157 20.0909662C790.670384 20.2069981 790.631125 20.246257 790.592738 20.246257 789.353902 19.9758068 788.77287 19.7428705 788.77287 19.5099343L790.359802 15.8710694 787.418001 15.8710694 787.418001 22.9943809 790.863189 22.9943809C791.172898 22.9943809 791.328189 23.1880582 791.328189 23.5745403L791.328189 24.8133771C791.328189 25.2016041 791.172898 25.394409 790.863189 25.394409L787.418001 25.394409 787.418001 33.2139118C787.882129 33.2139118 788.347129 33.2531707 788.812129 33.2531707 789.509192 33.2531707 790.747157 33.0594934 792.527766 32.6721388 792.527766 32.7113977 792.450993 32.8658161 792.373348 33.0987523 792.140412 33.7172983 791.946735 34.3367167 791.792316 34.9945216 791.715543 35.2274578 791.560252 35.3827486 791.328189 35.3827486 790.940834 35.460394 790.128611 35.5362946 788.812129 35.5362946 786.798583 35.5362946 785.327682 35.4211351 784.398554 35.1890713 783.934427 34.9945216 783.508686 34.7240713 783.198104 34.3367167 782.772363 33.8725891 782.385881 33.2915572 782.076172 32.5177205 781.959267 32.2463977 781.843235 31.9366886 781.766462 31.549334 781.533526 32.2856567 781.262204 32.8658161 780.991753 33.4075891 780.527626 34.2215572 779.830562 35.1498124 778.939821 36.1557129 778.785402 36.1557129 778.630984 36.002167 778.553339 35.7692308 778.165984 35.3827486 777.778629 34.9945216 777.392147 34.6464259 777.19847 34.4920075 777.120825 34.3367167 777.120825 34.1822983 777.275243 33.988621 777.546566 33.7556848 777.856275 33.446848 778.165984 33.0594934 778.475693 32.6337523 778.708629 32.2463977 779.017466 31.7822702 779.250402 31.2788837 779.443207 30.6987242 779.676144 30.0793058 779.869821 29.3429831 780.101012 28.4915009 780.256303 27.7560507 780.372335 26.942955 780.527626 26.0522139 780.604399 25.1239587 780.682044 24.1564447 780.759689 23.1880582 780.798076 22.0268668 780.798076 20.5943527 780.759689 18.8905159L783.934427 19.2010976C783.934427 19.3947749 783.817523 19.5491932 783.663104 19.6268386 783.315008 19.8205159 783.159718 20.0133208 783.159718 20.246257 783.120459 22.336576 783.082072 23.885122 783.004427 24.9686679 782.966913 25.317636 782.927654 25.6264728 782.927654 25.8977955 782.966913 26.8269231 783.082072 27.6400188 783.237363 28.4138555 783.353395 29.3045966 783.508686 30.0400469 783.739877 30.6594653 783.895168 31.2404972 784.050459 31.7046248 784.282523 32.014334 784.4762 32.3240432 784.708264 32.5177205 784.978714 32.7113977L784.978714 15.8710694 780.294689 15.8710694C780.062626 15.8710694 779.985853 15.6782645 779.985853 15.251651L779.985853 14.0520732C779.985853 13.7816229 780.062626 13.6263321 780.294689 13.6263321L791.946735 13.6263321zM778.51408 4.72241088C777.972307 5.10976548 777.352888 5.45873358 776.695083 5.76757036 775.881988 6.15492495 775.030506 6.50302064 774.100506 6.81360225 773.520346 7.00640713 772.861669 7.20008443 772.127091 7.35537523L772.127091 9.05833959C772.127091 9.36804878 772.16635 9.52246717 772.281509 9.52246717L776.811115 9.52246717C777.314502 9.52246717 777.817016 8.67098499 778.320402 6.96802064L780.294689 8.1675985C779.520853 10.4899812 778.553339 11.652045 777.430534 11.652045L771.507673 11.652045C770.384868 11.652045 769.843095 11.1486585 769.843095 10.1418856L769.843095.890741088C769.843095.735450281 769.919868.619418386 770.152804.619418386 771.662091.69706379 772.4368.851482176 772.4368 1.04515947 772.4368 1.23883677 772.319896 1.43251407 772.127091 1.66457786L772.127091 5.18653846C772.708123 5.0329925 773.249896 4.87770169 773.791669 4.68402439 774.643151 4.3743152 775.456247 3.9869606 776.230956 3.48357411 776.772729 3.17473734 777.314502 2.74812383 777.778629 2.28399625L777.856275 2.28399625C777.972307 2.28399625 778.089211 2.40002814 778.242757 2.55531895 779.172757 3.79415572 779.676144 4.4519606 779.676144 4.52873358 779.676144 4.76166979 779.559239 4.83844278 779.404821 4.83844278L778.630984 4.68402439C778.553339 4.68402439 778.51408 4.72241088 778.51408 4.72241088L778.51408 4.72241088zM773.636378 13.3166229C773.94696 13.4710413 774.100506 13.5870732 774.100506 13.742364 774.100506 14.0136867 773.985346 14.2064916 773.753282 14.3233959 773.443573 14.3233959 773.288282 14.5170732 773.210637 14.9035553 773.094605 15.3292964 772.978573 15.716651 772.900928 16.0263602L778.939821 16.0263602C779.133498 16.0263602 779.250402 16.181651 779.250402 16.4904878L779.250402 17.6909381C779.250402 18.0006473 779.133498 18.1559381 778.939821 18.1559381L775.959633 18.1559381C775.920374 18.2327111 775.920374 18.2710976 775.920374 18.3103565 775.920374 20.2069981 775.842729 21.8331895 775.765956 23.1487992L779.095112 23.1487992C779.288789 23.1487992 779.404821 23.3040901 779.404821 23.5745403L779.404821 24.8133771C779.404821 25.1239587 779.288789 25.2399906 779.095112 25.2399906L775.99802 25.2399906C776.230956 26.0914728 776.501406 26.7492777 776.772729 27.2526642 777.120825 28.1041463 777.740243 29.0332739 778.630984 30.1176923 778.708629 30.1944653 778.785402 30.3104972 778.785402 30.3881426 778.785402 30.465788 778.669371 30.5818199 778.51408 30.6987242 778.282016 31.0468199 777.93392 31.3949156 777.508179 31.7822702 777.352888 31.975075 777.19847 32.0527205 777.120825 32.0527205 777.043179 32.0527205 776.927147 32.014334 776.850374 31.8983021 776.230956 31.0468199 775.688311 30.0793058 775.262569 28.9948874 775.146538 28.7628236 775.030506 28.4915009 774.95286 28.2210507 774.488733 29.8856285 773.791669 31.3181426 772.861669 32.5561069 772.049446 33.6405253 771.081059 34.6080394 769.997513 35.5362946L769.571772 35.5362946C768.874708 35.3051032 768.216903 35.072167 767.597485 34.8409756 767.482326 34.7633302 767.443067 34.6464259 767.443067 34.4920075 768.836322 33.5628799 769.997513 32.5944934 770.849868 31.5885929 771.778123 30.5818199 772.475187 29.2662101 772.939314 27.6792777 773.17225 27.0598593 773.327541 26.2458912 773.48196 25.2399906L769.571772 25.2399906C769.339708 25.2399906 769.262935 25.1239587 769.262935 24.8133771L769.262935 23.5745403C769.262935 23.3040901 769.339708 23.1487992 769.571772 23.1487992L773.675637 23.1487992C773.753282 21.9876079 773.791669 20.6711257 773.791669 19.2010976 773.791669 18.9681614 773.753282 18.6200657 773.753282 18.1559381L772.243995 18.1559381C771.778123 19.5491932 771.313995 20.6711257 770.888254 21.5627392 770.694577 21.9099625 770.539286 22.0652533 770.462513 22.0652533 770.308095 22.0652533 770.113545 22.0268668 769.881481 21.871576 769.417354 21.6787711 768.991613 21.4850938 768.604258 21.2905441 768.410581 21.2521576 768.332935 21.2137711 768.332935 21.1753846 768.332935 21.0977392 768.372194 20.9424484 768.44984 20.78803 769.223676 19.4322889 769.766322 18.2327111 770.152804 17.1875516 770.694577 15.8710694 771.120318 14.5170732 771.352382 13.1622045 771.430027 12.7748499 771.546932 12.5427861 771.662091 12.5427861L773.636378 13.3166229zM762.449333 27.9881144L765.313489 27.9881144 765.313489 17.3812289 762.449333 17.3812289 762.449333 27.9881144zM767.907194 3.48357411C768.062485 3.48357411 768.178517 3.63886492 768.178517 3.94770169L768.178517 5.14815197C768.178517 5.53550657 768.062485 5.72918386 767.907194 5.72918386L763.997007 5.72918386C763.572138 8.05243902 763.146397 10.1034991 762.719783 11.9617542 762.410074 13.1229456 762.101237 14.1681051 761.790656 15.1364916L767.133357 15.1364916C767.51984 15.1364916 767.752776 15.2909099 767.752776 15.5622326L767.752776 31.4333021C767.752776 31.7438837 767.51984 31.8983021 767.133357 31.8983021L765.932907 31.8983021C765.507166 31.8983021 765.313489 31.7438837 765.313489 31.4333021L765.313489 30.2337242 762.449333 30.2337242 762.449333 35.072167C762.449333 35.3827486 762.216397 35.5362946 761.829915 35.5362946L760.629464 35.5362946C760.242982 35.5362946 760.049305 35.3827486 760.049305 35.072167L760.049305 19.7428705C759.66195 20.6327392 759.235337 21.4458349 758.810468 22.2205441 758.539145 22.2205441 758.345468 22.1812852 758.19105 22.0268668 757.649277 21.7939306 757.106631 21.5234803 756.564858 21.2137711 756.332795 21.2137711 756.255149 21.1753846 756.255149 21.0200938 757.339568 19.1618386 758.229436 17.3428424 758.9265 15.5622326 759.584305 13.8583959 760.087691 12.2330769 760.474174 10.6068856 760.784755 9.56172608 761.132851 7.93640713 761.520205 5.72918386L757.920599 5.72918386C757.687663 5.72918386 757.610018 5.53550657 757.610018 5.14815197L757.610018 3.94770169C757.610018 3.63886492 757.687663 3.48357411 757.920599 3.48357411L767.907194 3.48357411zM853.151989 14.9815497L856.636435 14.9815497 856.636435 11.8068124 853.151989 11.8068124 853.151989 14.9815497zM853.151989 9.52281614L856.636435 9.52281614 856.636435 6.34895122 853.151989 6.34895122 853.151989 9.52281614zM850.443124 4.06495497L850.443124 1.35434522C850.443124 1.04550844 850.635929.890217636 851.062542.890217636 852.958311.890217636 853.926698 1.04550844 853.926698 1.35434522 853.926698 1.70331332 853.771407 1.8961182 853.539343 1.93537711 853.268893 1.9737636 853.151989 2.2450863 853.151989 2.70921388L853.151989 4.06495497 858.766013 4.06495497C859.152495 4.06495497 859.385432 4.22024578 859.385432 4.52908255L859.385432 9.52281614 861.47575 9.52281614C861.669428 9.52281614 861.78546 9.67723452 861.78546 9.98781614L861.78546 11.187394C861.78546 11.6131351 861.669428 11.8068124 861.47575 11.8068124L859.385432 11.8068124 859.385432 16.6461276C859.385432 17.0326098 859.2694 17.2262871 859.07485 17.2262871L853.151989 17.2262871 853.151989 20.400152 859.385432 20.400152C859.53985 20.400152 859.655882 20.5554428 859.655882 20.8660244L859.655882 22.0656023C859.655882 22.4913433 859.53985 22.6850206 859.385432 22.6850206L853.151989 22.6850206 853.151989 26.0141764 860.739428 26.0141764C860.933105 26.0141764 861.050009 26.1694672 861.050009 26.4783039L861.050009 27.6787542C861.050009 28.0661088 860.933105 28.2589137 860.739428 28.2589137L853.151989 28.2589137 853.151989 30.8526191C853.151989 31.1623283 852.958311 31.3176191 852.571829 31.3176191L851.062542 31.3176191C850.635929 31.3176191 850.443124 31.1623283 850.443124 30.8526191L850.443124 28.2589137 844.713068 28.2589137C844.481004 28.2589137 844.404231 28.0661088 844.404231 27.6787542L844.404231 26.4783039C844.404231 26.1694672 844.481004 26.0141764 844.713068 26.0141764L850.443124 26.0141764 850.443124 22.6850206 845.913518 22.6850206C845.681454 22.6850206 845.603809 22.4913433 845.603809 22.0656023L845.603809 20.8660244C845.603809 20.5554428 845.681454 20.400152 845.913518 20.400152L850.443124 20.400152 850.443124 17.2262871 845.758227 17.2262871C845.526163 17.2262871 845.448518 17.0326098 845.448518 16.6461276L845.448518 15.4072908C845.448518 15.1359681 845.526163 14.9815497 845.758227 14.9815497L850.443124 14.9815497 850.443124 11.8068124 844.404231 11.8068124C844.171295 11.8068124 844.093649 11.6131351 844.093649 11.187394L844.093649 9.98781614C844.093649 9.67723452 844.171295 9.52281614 844.404231 9.52281614L850.443124 9.52281614 850.443124 6.34895122 845.603809 6.34895122C845.371745 6.34895122 845.294099 6.1544015 845.294099 5.72953283L845.294099 4.52908255C845.294099 4.22024578 845.371745 4.06495497 845.603809 4.06495497L850.443124 4.06495497zM841.693621 4.06495497C842.00333 4.06495497 842.235394 4.14260038 842.313039 4.25863227 842.777167 4.72275985 843.04849 5.07085553 843.04849 5.30379174L839.061529 14.3621313 842.120235 14.3621313C842.313039 14.3621313 842.506717 14.4389043 842.739653 14.5941951 843.126135 14.9815497 843.358199 15.252 843.358199 15.4072908 843.165394 17.5743827 842.970844 19.316606 842.816426 20.7107336 842.584362 22.2200206 842.27378 23.6917936 841.926557 25.1243077 841.732008 26.0525629 841.423171 27.0977223 841.034944 28.2589137 840.803752 29.0336229 840.53243 29.7306867 840.22272 30.3501051 840.416398 30.5812964 840.610075 30.7365872 840.803752 30.8526191 841.345525 31.3176191 842.080976 31.6665872 842.932458 31.8977786 843.629522 32.1307148 844.326585 32.2860056 845.062036 32.3235197 846.842645 32.4395516 849.397092 32.517197 852.687861 32.517197 854.390826 32.517197 857.371886 32.3235197 861.630169 31.8977786 861.630169 31.975424 861.552523 32.1691013 861.436492 32.4011651 861.127655 33.05897 860.894719 33.7560338 860.701041 34.530743 860.624268 34.7628068 860.430591 34.9172251 860.120009 34.9172251 859.07485 34.9948705 856.597176 35.0725159 852.687861 35.0725159 848.196642 35.0725159 844.868358 34.9172251 842.777167 34.6467749 841.732008 34.4147111 840.842139 34.0666154 840.106689 33.6016154 839.680947 33.3302927 839.293593 33.05897 838.983884 32.7501332 838.75182 33.0982289 838.48137 33.447197 838.248433 33.7952927 837.784306 34.4147111 837.087242 35.1501614 836.234887 36.0016435 836.003696 36.0016435 835.848405 35.8847392 835.693114 35.6535478 835.228987 35.2661932 834.764859 34.9172251 834.299859 34.6083884 834.145441 34.4530976 834.106182 34.3754522 834.106182 34.3370657 834.106182 34.1817749 834.145441 34.1041295 834.223086 34.0666154 835.151341 33.3695516 835.926051 32.6724878 836.545469 31.8977786 836.815919 31.5889418 837.087242 31.2007148 837.358565 30.8142326 836.815919 30.0395235 836.351792 29.1112683 835.964437 28.0661088 835.306632 26.5175629 834.841632 24.311212 834.57031 21.4854428 834.57031 21.1748612 834.7256 21.0195704 835.03531 21.0195704L836.351792 21.0195704C836.739146 21.0195704 836.931951 21.1748612 836.97121 21.4854428 837.125629 23.1884071 837.435338 24.7753396 837.939597 26.2078537 838.132402 26.9424315 838.403724 27.6011088 838.712561 28.1812683 839.061529 27.4083039 839.331979 26.6335947 839.564916 25.897272 839.913011 24.6200488 840.22272 23.2660525 840.53243 21.8335385 840.68772 20.5554428 840.919784 18.8908649 841.151848 16.800546L837.977983 16.800546 837.280919 18.3883508C837.164887 18.6195422 837.009597 18.7364465 836.854306 18.7364465 835.422664 18.4267373 834.7256 18.1170281 834.7256 17.8465779L839.951398 6.50336961 835.615469 6.50336961C835.306632 6.50336961 835.189728 6.30969231 835.189728 5.88395122L835.189728 4.68437336C835.189728 4.29614634 835.306632 4.06495497 835.615469 4.06495497L841.693621 4.06495497zM835.926051 3.0197955C835.926051 3.25185929 835.809146 3.36789118 835.615469 3.36789118 835.151341 3.40627767 834.880891 3.56156848 834.7256 3.79363227 833.912505 6.50336961 833.100281 8.70972045 832.287186 10.4903302L832.287186 35.6919343C832.287186 36.0016435 832.092636 36.1560619 831.706154 36.1560619L830.196867 36.1560619C829.770253 36.1560619 829.577448 36.0016435 829.577448 35.6919343L829.577448 15.3296454C828.95803 16.258773 828.22258 17.3039325 827.447871 18.4651238 827.138161 18.4651238 826.906098 18.3490919 826.673161 18.0777692 826.286679 17.7689325 825.860938 17.4583508 825.473583 17.1102552 825.279906 16.9549644 825.203133 16.800546 825.203133 16.6461276 826.054615 15.4456773 826.906098 14.168454 827.796839 12.8135854 828.919644 11.0713621 829.886285 9.13546154 830.73864 6.96836961 831.473218 5.07085553 832.05425 3.21260038 832.441604 1.35434522 832.51925 1.16154034 832.596895 1.04550844 832.751313 1.04550844 834.841632 2.1674409 835.926051 2.8261182 835.926051 3.0197955L835.926051 3.0197955zM915.01531 19.5102833L922.71878 19.5102833 922.71878 16.4908368 915.01531 16.4908368 915.01531 19.5102833zM915.01531 14.0524221L922.71878 14.0524221 922.71878 11.187394 915.01531 11.187394 915.01531 14.0524221zM905.95697 24.7753396C906.886098 25.4724034 907.660807 26.0525629 908.356998 26.5943358 908.356998 26.6719812 908.280225 26.7496266 908.164193 26.9049174 907.389484 27.910818 907.003002 28.4142045 907.003002 28.4142045 905.995356 27.5618499 904.911811 26.7888856 903.828265 26.0525629 902.899137 25.4724034 902.163687 25.0466623 901.544268 24.8137261 901.544268 24.6584353 901.892364 24.1559212 902.589428 23.2267936 902.70546 23.0723752 902.821492 22.9947298 902.899137 22.9947298 904.137101 23.6525347 905.183133 24.2335666 905.95697 24.7753396L905.95697 24.7753396zM915.75076 1.50963602C915.75076 1.85860413 915.596341 2.05140901 915.364278 2.0897955 915.131341 2.12905441 915.01531 2.40037711 915.01531 2.86450469L915.01531 3.94805066 928.448837 3.94805066C928.641642 3.94805066 928.757674 4.10334146 928.757674 4.37379174L928.757674 5.57424203C928.757674 6.00085553 928.641642 6.19366041 928.448837 6.19366041L915.01531 6.19366041 915.01531 8.78736585 924.848358 8.78736585C925.235713 8.78736585 925.42939 8.94265666 925.42939 9.21310694L925.42939 14.0524221 928.912964 14.0524221C929.222674 14.0524221 929.377092 14.2844859 929.377092 14.6718405L929.377092 15.8714184C929.377092 16.2971595 929.222674 16.4908368 928.912964 16.4908368L925.42939 16.4908368 925.42939 21.330152C925.42939 21.7166341 925.235713 21.9103114 924.848358 21.9103114L915.596341 21.9103114C916.487083 23.381212 917.415338 24.6976942 918.383724 25.7812402 918.771079 26.2462402 919.118302 26.6335947 919.46727 26.9424315 921.248752 25.936531 922.758039 24.9690169 924.073649 24.0006304 924.345844 23.846212 924.616295 23.7301801 924.848358 23.7301801 925.002777 23.7301801 925.158068 23.846212 925.351745 24.0398893 926.822645 25.1243077 927.558096 25.7812402 927.558096 26.0141764 927.558096 26.3238856 927.402805 26.4783039 927.093968 26.4783039L926.203227 26.3238856C925.893518 26.3238856 925.583809 26.4399174 925.196454 26.5943358 924.073649 27.1361088 922.796426 27.8331726 921.325525 28.6078818 921.673621 28.917591 922.021717 29.1889137 922.409944 29.4201051 924.22894 30.891878 926.435291 32.0530694 929.068255 32.982197 929.377092 33.0205835 929.532383 33.0982289 929.532383 33.2535197 929.532383 33.4079381 929.454737 33.6016154 929.300319 33.7560338 928.719287 34.1817749 928.215901 34.6083884 927.790159 35.0725159 927.635741 35.2661932 927.518837 35.3822251 927.402805 35.3822251 925.42939 34.6083884 923.802326 33.7560338 922.525976 32.8277786 920.706107 31.6665872 919.041529 30.1948143 917.532242 28.4918499 916.718274 27.6394953 915.867664 26.5943358 915.01531 25.3554991L915.01531 33.2535197C915.01531 35.1894203 913.428377 36.1560619 910.331285 36.1560619L909.247739 36.1560619C909.054062 36.1560619 908.976417 35.8847392 908.976417 35.4206116 908.898771 34.8404522 908.705966 34.1817749 908.356998 33.4079381L908.356998 33.2535197C908.976417 33.447197 909.556576 33.5623565 910.175994 33.5623565 911.570122 33.5623565 912.267186 33.0982289 912.267186 32.2083602L912.267186 29.5753959C909.092448 31.3176191 905.917711 32.8661651 902.743846 34.3370657 902.318977 35.0341295 901.970009 35.3822251 901.699559 35.3822251 901.466623 35.3822251 900.963236 34.2594203 900.1894 32.0530694 901.892364 31.5889418 903.944296 30.7758462 906.344325 29.6914278 908.434644 28.8006867 910.408931 27.8331726 912.267186 26.7496266L912.267186 21.9103114 903.828265 21.9103114C903.518555 21.9103114 903.363265 21.7166341 903.363265 21.330152L903.363265 20.0913152C903.363265 19.7039606 903.518555 19.5102833 903.828265 19.5102833L912.267186 19.5102833 912.267186 16.4908368 901.699559 16.4908368C901.388977 16.4908368 901.233687 16.2971595 901.233687 15.8714184L901.233687 14.6718405C901.233687 14.2844859 901.388977 14.0524221 901.699559 14.0524221L912.267186 14.0524221 912.267186 11.187394 903.982683 11.187394C903.672974 11.187394 903.518555 10.9937167 903.518555 10.5679756L903.518555 9.36839775C903.518555 8.98104315 903.672974 8.78736585 903.982683 8.78736585L912.267186 8.78736585 912.267186 6.19366041 899.7244 6.19366041 899.7244 14.6718405C899.7244 19.2005741 899.492336 22.7617936 899.104981 25.394758 898.833659 27.6394953 898.331144 29.8467186 897.557308 32.0146829 897.130694 33.3302927 896.549662 34.6083884 895.814212 35.8472251 895.621407 35.8472251 895.466116 35.8079662 895.388471 35.7695797 894.963602 35.3429662 894.498602 34.9948705 893.995216 34.6851614 893.879184 34.530743 893.840797 34.3754522 893.840797 34.1817749 894.460216 33.0205835 895.040375 31.5496829 895.543762 29.6137824 896.047148 27.5618499 896.43363 25.4331445 896.666567 23.1884071 896.89863 20.8660244 897.014662 18.0393827 897.014662 14.6718405L897.014662 4.37379174C897.014662 4.10334146 897.20834 3.94805066 897.634081 3.94805066L912.267186 3.94805066 912.267186 1.50963602C912.267186 1.19992683 912.460863 1.04550844 912.886604 1.04550844 914.784118 1.04550844 915.75076 1.19992683 915.75076 1.50963602L915.75076 1.50963602z" mask="url(#warning-b)"/>
  </g>
</svg>
