<?xml version="1.0" encoding="UTF-8"?>
<svg width="34px" height="34px" viewBox="0 0 34 34" version="1.1" xmlns="http://www.w3.org/2000/svg" xmlns:xlink="http://www.w3.org/1999/xlink">
    <!-- Generator: Sketch 41.1 (35376) - http://www.bohemiancoding.com/sketch -->
    <title>bottom_tab_1</title>
    <desc>Created with Sketch.</desc>
    <defs></defs>
    <g id="Page-1" stroke="none" stroke-width="1" fill="none" fill-rule="evenodd">
        <g id="Artboard-3" transform="translate(-29.000000, -47.000000)">
            <g id="Group" transform="translate(31.000000, 49.000000)">
                <g id="puzzle">
                    <path d="M15,10.3110352 L15,15 L10.3110937,15 C10.5025781,15.3849023 10.6117383,15.8176758 10.6117383,16.276582 C10.6117383,17.8627734 9.32554687,19.1489063 7.73941406,19.1489063 C6.15328125,19.1489063 4.86708984,17.8627148 4.86708984,16.276582 C4.86708984,15.8176172 4.97625,15.3849023 5.16773437,15 L0.478710937,15 L0.478710937,0.478710938 L15,0.478710938 L15,5.16767578 C14.6150977,4.97619141 14.1823242,4.86703125 13.723418,4.86703125 C12.1372266,4.86703125 10.8510937,6.15322266 10.8510937,7.73935547 C10.8510937,9.32548828 12.1372852,10.6116797 13.723418,10.6116797 C14.1823242,10.6116797 14.6150977,10.5025781 15,10.3110352 L15,10.3110352 Z" id="Shape" fill="#CDE2A3"></path>
                    <path d="M16.276582,19.3883203 C17.8627734,19.3883203 19.1489062,20.6745117 19.1489062,22.2606445 C19.1489062,23.8467773 17.8627148,25.1329688 16.276582,25.1329688 C15.8176172,25.1329688 15.3849023,25.0238086 15,24.8323242 L15,29.5212891 L0.478710937,29.5212891 L0.478710937,15 L5.16767578,15 C4.97619141,15.3849023 4.86703125,15.8176758 4.86703125,16.276582 C4.86703125,17.8627734 6.15322266,19.1489063 7.73935547,19.1489063 C9.32548828,19.1489063 10.6116797,17.8627148 10.6116797,16.276582 C10.6116797,15.8176172 10.5025195,15.3849023 10.3110352,15 L15,15 L15,19.6889648 C15.3849023,19.4974219 15.8176758,19.3883203 16.276582,19.3883203 L16.276582,19.3883203 Z" id="Shape" fill="#B23451"></path>
                    <path d="M29.5212891,15 L29.5212891,29.5212891 L15,29.5212891 L15,24.8323242 C15.3849023,25.0238086 15.8176758,25.1329688 16.276582,25.1329688 C17.8627734,25.1329688 19.1489063,23.8467773 19.1489063,22.2606445 C19.1489063,20.6745117 17.8627148,19.3883203 16.276582,19.3883203 C15.8176172,19.3883203 15.3849023,19.4974805 15,19.6889648 L15,15 L19.6889648,15 C19.4974805,14.6150977 19.3883203,14.1823242 19.3883203,13.723418 C19.3883203,12.1372266 20.6745117,10.8510938 22.2606445,10.8510938 C23.8467773,10.8510938 25.1329688,12.1372852 25.1329688,13.723418 C25.1329688,14.1823828 25.0238086,14.6150977 24.8323242,15 L29.5212891,15 L29.5212891,15 Z" id="Shape" fill="#EE5F80"></path>
                    <path d="M29.5212891,0.478710938 L29.5212891,15 L24.8323242,15 C25.0238086,14.6150977 25.1329688,14.1823242 25.1329688,13.723418 C25.1329688,12.1372266 23.8467773,10.8510938 22.2606445,10.8510938 C20.6745117,10.8510938 19.3883203,12.1372852 19.3883203,13.723418 C19.3883203,14.1823828 19.4974805,14.6150977 19.6889648,15 L15,15 L15,10.3110938 C14.6150977,10.5025781 14.1823242,10.6117383 13.723418,10.6117383 C12.1372266,10.6117383 10.8510938,9.32554688 10.8510938,7.73941406 C10.8510938,6.15328125 12.1372852,4.86708984 13.723418,4.86708984 C14.1823828,4.86708984 14.6150977,4.97625 15,5.16773438 L15,0.478710938 L29.5212891,0.478710938 L29.5212891,0.478710938 Z" id="Shape" fill="#AECE71"></path>
                    <circle id="Oval" fill="#700019" cx="26.6170313" cy="26.6170313" r="0.478710937"></circle>
                    <ellipse id="Oval" fill="#700019" cx="24.7021289" cy="24.7021289" rx="0.478710938" ry="0.478710938"></ellipse>
                    <circle id="Oval" fill="#700019" cx="3.38296875" cy="3.38296875" r="0.478710938"></circle>
                    <circle id="Oval" fill="#700019" cx="26.6170313" cy="26.6170313" r="0.478710937"></circle>
                    <ellipse id="Oval" fill="#700019" cx="24.7021289" cy="24.7021289" rx="0.478710938" ry="0.478710938"></ellipse>
                    <circle id="Oval" fill="#700019" cx="3.38296875" cy="3.38296875" r="0.478710938"></circle>
                    <path d="M29.5212891,0 L23.2180664,0 C22.9536328,0 22.7393555,0.214277344 22.7393555,0.478710937 C22.7393555,0.743144531 22.9536328,0.957421875 23.2180664,0.957421875 L29.0425195,0.957421875 L29.0425195,14.5212891 L25.5156445,14.5212891 C25.5794531,14.2620117 25.6116211,13.9954688 25.6116211,13.723418 C25.6116211,11.8756641 24.1082812,10.3723828 22.2605859,10.3723828 C20.4128906,10.3723828 18.9095508,11.8757227 18.9095508,13.723418 C18.9095508,13.9954102 18.9417187,14.2620117 19.0055273,14.5212891 L15.4787109,14.5212891 L15.4787109,10.3112695 C15.4787109,10.1455078 15.3929883,9.99152344 15.2520703,9.90427734 C15.1112695,9.81703125 14.9351953,9.80876953 14.7868359,9.88265625 C14.4528516,10.0488281 14.0950195,10.1329687 13.723418,10.1329687 C12.4035352,10.1329687 11.3298047,9.05923828 11.3298047,7.73935547 C11.3298047,6.41947266 12.4035352,5.34574219 13.723418,5.34574219 C14.0951367,5.34574219 14.4529102,5.42994141 14.7867773,5.59605469 C14.9350195,5.66988281 15.1111523,5.66179688 15.2520703,5.57443359 C15.3929883,5.4871875 15.4787109,5.33320313 15.4787109,5.16744141 L15.4787109,0.957421875 L21.3031641,0.957421875 C21.5675977,0.957421875 21.781875,0.743144531 21.781875,0.478710937 C21.781875,0.214277344 21.5676563,0 21.3031641,0 L0.478710937,0 C0.214277344,0 0,0.214277344 0,0.478710937 L0,29.5212891 C0,29.7857227 0.214277344,30 0.478710937,30 L29.5212891,30 C29.7857227,30 30,29.7857227 30,29.5212891 L30,0.478710937 C30,0.214277344 29.7857227,0 29.5212891,0 L29.5212891,0 Z M14.5212891,0.957421875 L14.5212891,4.48429687 C14.2620117,4.42048828 13.9954688,4.38832031 13.723418,4.38832031 C11.8756641,4.38832031 10.3723828,5.89166016 10.3723828,7.73935547 C10.3723828,9.58705078 11.8757227,11.0903906 13.723418,11.0903906 C13.9954102,11.0903906 14.2620117,11.0582227 14.5212891,10.9944141 L14.5212891,14.5212891 L10.3112695,14.5212891 C10.1455078,14.5212891 9.99152344,14.6070117 9.90427734,14.7479297 C9.81703125,14.8887891 9.80876953,15.0648633 9.88265625,15.2131641 C10.0488281,15.5471484 10.1329688,15.9049219 10.1329688,16.276582 C10.1329688,17.5964648 9.05923828,18.6701953 7.73935547,18.6701953 C6.41947266,18.6701953 5.34574219,17.5964648 5.34574219,16.276582 C5.34574219,15.9048633 5.42994141,15.5470898 5.59605469,15.2132227 C5.66982422,15.0648633 5.66167969,14.8888477 5.57443359,14.7479297 C5.4871875,14.6070117 5.33320313,14.5212891 5.16744141,14.5212891 L0.957421875,14.5212891 L0.957421875,0.957421875 L14.5212891,0.957421875 L14.5212891,0.957421875 Z M0.957421875,15.4787109 L4.48429688,15.4787109 C4.42048828,15.7379883 4.38832031,16.0045313 4.38832031,16.276582 C4.38832031,18.1243359 5.89166016,19.6276172 7.73935547,19.6276172 C9.58705078,19.6276172 11.0903906,18.1242773 11.0903906,16.276582 C11.0903906,16.0045898 11.0582227,15.7379883 10.9944141,15.4787109 L14.5212891,15.4787109 L14.5212891,19.6887305 C14.5212891,19.8544922 14.6070117,20.0084766 14.7479297,20.0957227 C14.8887891,20.1830273 15.0649219,20.1912891 15.2131641,20.1173438 C15.5471484,19.9511719 15.9049219,19.8670313 16.276582,19.8670313 C17.5964648,19.8670313 18.6701953,20.9407617 18.6701953,22.2606445 C18.6701953,23.5805273 17.5964648,24.6542578 16.276582,24.6542578 C15.9048633,24.6542578 15.5470898,24.5700586 15.2132227,24.4039453 C15.0649219,24.3301172 14.8889063,24.3382617 14.7479297,24.4255664 C14.6070117,24.5128125 14.5212891,24.6667969 14.5212891,24.8325586 L14.5212891,29.0425781 L0.957421875,29.0425781 L0.957421875,15.4787109 L0.957421875,15.4787109 Z M15.4787109,29.0425781 L15.4787109,25.5157031 C15.7379883,25.5795117 16.0045312,25.6116797 16.276582,25.6116797 C18.1243359,25.6116797 19.6276172,24.1083398 19.6276172,22.2606445 C19.6276172,20.4129492 18.1242773,18.9096094 16.276582,18.9096094 C16.0045898,18.9096094 15.7379883,18.9417773 15.4787109,19.0055859 L15.4787109,15.4787109 L19.6887305,15.4787109 C19.8544922,15.4787109 20.0084766,15.3929883 20.0957227,15.2520703 C20.1829687,15.1112109 20.1912305,14.9351367 20.1173437,14.7868359 C19.9511719,14.4528516 19.8670312,14.0950195 19.8670312,13.723418 C19.8670312,12.4035352 20.9407617,11.3298047 22.2606445,11.3298047 C23.5805273,11.3298047 24.6542578,12.4035352 24.6542578,13.723418 C24.6542578,14.0951367 24.5700586,14.4529102 24.4039453,14.7867773 C24.3301758,14.9351367 24.3383203,15.1111523 24.4255664,15.2520703 C24.5128125,15.3929883 24.6667969,15.4787109 24.8325586,15.4787109 L29.0425781,15.4787109 L29.0425781,29.0425781 L15.4787109,29.0425781 L15.4787109,29.0425781 Z" id="Shape" fill="#700019"></path>
                </g>
            </g>
        </g>
    </g>
</svg>