<?xml version="1.0" encoding="UTF-8"?>
<svg width="34px" height="34px" viewBox="0 0 34 34" version="1.1" xmlns="http://www.w3.org/2000/svg" xmlns:xlink="http://www.w3.org/1999/xlink">
    <!-- Generator: Sketch 41.1 (35376) - http://www.bohemiancoding.com/sketch -->
    <title>bottom_tab_2</title>
    <desc>Created with Sketch.</desc>
    <defs></defs>
    <g id="Page-1" stroke="none" stroke-width="1" fill="none" fill-rule="evenodd">
        <g id="Artboard-3" transform="translate(-105.000000, -45.000000)">
            <g id="Page-1" transform="translate(107.000000, 45.000000)">
                <polygon id="Fill-1" fill="#FFB957" points="2.67857143 32.6071429 27.3214286 32.6071429 27.3214286 12.25 2.67857143 12.25"></polygon>
                <path d="M2.14285714,33.1428571 L27.8576786,33.1428571 L27.8576786,11.7142857 L2.14285714,11.7142857 L2.14285714,33.1428571 Z M3.21428571,32.0714286 L26.7857143,32.0714286 L26.7857143,12.7857143 L3.21428571,12.7857143 L3.21428571,32.0714286 Z" id="Fill-2" fill="#700019"></path>
                <polygon id="Fill-3" fill="#67DDE0" points="0.535714286 12.25 29.4642857 12.25 29.4642857 6.89285714 0.535714286 6.89285714"></polygon>
                <path d="M0,12.7857143 L30,12.7857143 L30,6.35660714 L0,6.35660714 L0,12.7857143 Z M1.07142857,11.7142857 L28.9285714,11.7142857 L28.9285714,7.42857143 L1.07142857,7.42857143 L1.07142857,11.7142857 Z" id="Fill-4" fill="#700019"></path>
                <polygon id="Fill-5" fill="#F28C13" points="3.21428571 32.0714286 26.7857143 32.0714286 26.7857143 29.9285714 3.21428571 29.9285714"></polygon>
                <g id="Group-16" transform="translate(4.000000, 0.000000)">
                    <path d="M7.88696429,1.07196429 C7.595,1.07196429 7.33571429,1.19035714 7.09410714,1.43303571 C6.29428571,2.235 7.31321429,3.58553571 7.62982143,3.90321429 C8.20892857,4.485 9.55678571,4.7175 10.4342857,4.79142857 C10.3598214,3.90910714 10.1278571,2.55160714 9.54928571,1.97089286 C8.98035714,1.39928571 8.37446429,1.07196429 7.88696429,1.07196429 Z M11.5405357,5.89821429 L10.9951786,5.89285714 C10.6957143,5.89017857 8.03803571,5.83125 6.87071429,4.65964286 C6.00017857,3.78535714 5.08464286,1.93125 6.335,0.676607143 C6.78178571,0.228214286 7.30410714,0.000535714285 7.88696429,0.000535714285 C8.94178571,0.000535714285 9.85678571,0.76125 10.3083929,1.21446429 C11.4746429,2.385 11.5330357,5.05232143 11.5357143,5.35178571 L11.5405357,5.89821429 Z" id="Fill-6" fill="#700019"></path>
                    <path d="M14.1133036,1.07142857 C13.6258036,1.07142857 13.0199107,1.39875 12.4509821,1.97035714 C11.8708036,2.55321429 11.639375,3.90910714 11.5654464,4.79089286 C12.4440179,4.71589286 13.7929464,4.48285714 14.3704464,3.90267857 C14.6870536,3.585 15.7059821,2.23446429 14.9061607,1.4325 C14.6645536,1.18982143 14.4052679,1.07142857 14.1133036,1.07142857 L14.1133036,1.07142857 Z M10.4597321,5.89821429 L10.4645536,5.35178571 C10.4672321,5.05178571 10.525625,2.38446429 11.691875,1.21392857 C12.1440179,0.760714286 13.0590179,0 14.1133036,0 C14.6966964,0 15.2184821,0.227678571 15.6652679,0.676071429 C16.915625,1.93071429 16.0000893,3.78482143 15.1295536,4.65910714 C13.9627679,5.83071429 11.3045536,5.88964286 11.005625,5.89285714 L10.4597321,5.89821429 Z" id="Fill-8" fill="#700019"></path>
                    <polygon id="Fill-10" fill="#FFFFFF" points="8.85714286 10.7142857 13.1428571 10.7142857 13.1428571 6.42857143 8.85714286 6.42857143"></polygon>
                    <polygon id="Fill-12" fill="#FFFFFF" points="9.39285714 31.0714286 12.6071429 31.0714286 12.6071429 11.7857143 9.39285714 11.7857143"></polygon>
                    <polygon id="Fill-13" fill="#700019" points="0.285714286 13.9285714 4.57142857 13.9285714 4.57142857 12.8571429 0.285714286 12.8571429"></polygon>
                    <polygon id="Fill-14" fill="#700019" points="0.285714286 16.0714286 2.42857143 16.0714286 2.42857143 15 0.285714286 15"></polygon>
                    <polygon id="Fill-15" fill="#700019" points="5.64285714 13.9285714 6.71428571 13.9285714 6.71428571 12.8571429 5.64285714 12.8571429"></polygon>
                </g>
            </g>
        </g>
    </g>
</svg>