<?xml version="1.0" encoding="UTF-8"?>
<svg width="108px" height="36px" viewBox="0 0 108 36" version="1.1" xmlns="http://www.w3.org/2000/svg" xmlns:xlink="http://www.w3.org/1999/xlink">
    <!-- Generator: Sketch 41.1 (35376) - http://www.bohemiancoding.com/sketch -->
    <title>btn_logo_cht</title>
    <desc>Created with Sketch.</desc>
    <defs>
        <polygon id="path-1" points="35.1043855 35.3454545 0 35.3454545 0 0.242312727 35.1043855 0.242312727 35.1043855 35.3454545"></polygon>
        <polygon id="path-3" points="14.0131636 13.3969091 14.0131636 0.282974926 0.0580845876 0.282974926 0.0580845876 13.3969091 14.0131636 13.3969091"></polygon>
    </defs>
    <g id="Page-1" stroke="none" stroke-width="1" fill="none" fill-rule="evenodd">
        <g id="Artboard" transform="translate(-87.000000, -252.000000)">
            <g id="btn_logo_cht" transform="translate(87.000000, 252.000000)">
                <g id="Group-3" transform="translate(0.000000, 0.412298)">
                    <mask id="mask-2" fill="white">
                        <use xlink:href="#path-1"></use>
                    </mask>
                    <g id="Clip-2"></g>
                    <path d="M5.14845818,16.9587491 L0.01944,16.9587491 C0.00765818182,17.2349673 -0.000196363636,17.5177309 -0.000196363636,17.7932945 C-0.000196363636,18.0721309 0.00765818182,18.3509673 0.01944,18.6317673 L5.46787636,18.6317673 C5.32387636,18.0865309 5.21653091,17.52624 5.14845818,16.9587491 L5.14845818,16.9587491 Z M6.01638545,10.2719127 L1.68787636,10.2719127 C1.43129455,10.8119127 1.20416727,11.3695855 1.00060364,11.9436218 L5.46787636,11.9436218 C5.61187636,11.3695855 5.79842182,10.8119127 6.01638545,10.2719127 L6.01638545,10.2719127 Z M5.04504,15.2863855 C5.04504,14.7195491 5.08104,14.1612218 5.14845818,13.6133673 L0.500530909,13.6133673 C0.36504,14.1612218 0.259658182,14.7195491 0.181112727,15.2863855 L5.04504,15.2863855 Z M6.01638545,20.3028218 L0.181112727,20.3028218 C0.259658182,20.8683491 0.36504,21.4247127 0.500530909,21.9725673 L6.83456727,21.9725673 C6.52365818,21.4345309 6.24744,20.8768582 6.01638545,20.3028218 L6.01638545,20.3028218 Z M7.97478545,23.6429673 L1.00060364,23.6429673 C1.20416727,24.2170036 1.43129455,24.7700945 1.68787636,25.3179491 L9.57449455,25.3179491 C8.99522182,24.8034764 8.45980364,24.2444945 7.97478545,23.6429673 L7.97478545,23.6429673 Z M35.1043855,17.7932945 C35.1043855,17.5177309 35.0958764,17.2349673 35.0814764,16.9587491 L29.0262764,16.9587491 C28.7886764,16.3794764 28.5150764,15.8224582 28.2054764,15.2863855 L34.9217673,15.2863855 C34.8412582,14.7195491 34.7319491,14.1612218 34.5997309,13.6133673 L27.0574036,13.6133673 C26.5743491,13.0098764 26.0369673,12.4535127 25.4544218,11.9436218 L34.10424,11.9436218 C33.90264,11.3695855 33.6683127,10.8119127 33.4136945,10.2719127 L14.1628582,10.2719127 L14.1628582,18.6317673 L20.9216945,18.6317673 L20.9216945,26.9903127 L2.59573091,26.9903127 C2.95376727,27.5695855 3.34649455,28.1266036 3.76802182,28.65744 L14.1550036,28.65744 L14.1550036,30.3317673 L5.27085818,30.3317673 C5.88678545,30.9359127 6.54853091,31.4962036 7.24824,31.99824 L14.1550036,31.99824 L14.1550036,33.6732218 L10.0667127,33.6732218 C12.3406036,34.7492945 14.8750036,35.3455855 17.55144,35.3455855 C20.2278764,35.3455855 22.7622764,34.7492945 25.0328945,33.6732218 L23.1445309,33.6732218 C23.9895491,33.20064 24.7756582,32.6416582 25.4976218,31.99824 L27.8552945,31.99824 C28.5543491,31.4962036 29.2160945,30.9359127 29.8333309,30.3317673 L27.0862036,30.3317673 C27.5051127,29.8048582 27.8847491,29.2458764 28.2264218,28.65744 L31.3328945,28.65744 C31.7550764,28.1266036 32.1471491,27.5695855 32.5032218,26.9903127 L29.0387127,26.9903127 C29.2560218,26.4457309 29.4419127,25.8893673 29.5872218,25.3179491 L33.4136945,25.3179491 C33.6683127,24.7700945 33.90264,24.2170036 34.10424,23.6429673 L29.9040218,23.6429673 C29.9688218,23.1003491 30.0048218,22.5511855 30.0048218,21.9895855 L30.0048218,21.9725673 L34.5997309,21.9725673 C34.7319491,21.4247127 34.8412582,20.8683491 34.9217673,20.3028218 L29.8987855,20.3028218 C29.8248218,19.7314036 29.71944,19.17504 29.5787127,18.6317673 L35.0814764,18.6317673 C35.0958764,18.3509673 35.1043855,18.0721309 35.1043855,17.7932945 L35.1043855,17.7932945 Z M20.9216945,5.25416727 L29.8333309,5.25416727 C29.2160945,4.65002182 28.5543491,4.08907636 27.8552945,3.58376727 L20.9216945,3.58376727 L20.9216945,5.25416727 Z M7.97478545,6.92718545 L3.76802182,6.92718545 C3.34649455,7.46064 2.95376727,8.02027636 2.59573091,8.59824 L6.83325818,8.59824 C7.17165818,8.01373091 7.55456727,7.45147636 7.97478545,6.92718545 L7.97478545,6.92718545 Z M20.9216945,8.59824 L32.5032218,8.59824 C32.1471491,8.02027636 31.7550764,7.46064 31.3361673,6.92718545 L20.9216945,6.92718545 L20.9216945,8.59824 Z M11.9374036,3.58376727 L7.24627636,3.58376727 C6.54460364,4.08907636 5.88547636,4.65002182 5.27085818,5.25416727 L9.57449455,5.25416727 C10.2958036,4.61729455 11.08584,4.05504 11.9374036,3.58376727 L11.9374036,3.58376727 Z M17.55144,0.242312727 C14.8750036,0.242312727 12.3406036,0.840567273 10.0667127,1.90944 L25.0328945,1.90944 C22.7622764,0.840567273 20.2278764,0.242312727 17.55144,0.242312727 L17.55144,0.242312727 Z" id="Fill-1" fill="#000000" mask="url(#mask-2)"></path>
                </g>
                <path d="M106.8012,29.4915927 L105.910364,29.4915927 L105.910364,27.0678109 C105.910364,26.70192 105.769636,26.4257018 105.367745,26.4257018 C105.043091,26.4257018 104.754436,26.6508655 104.599309,26.7726109 L104.599309,29.4915927 L103.716982,29.4915927 L103.716982,27.0678109 C103.716982,26.70192 103.600473,26.4257018 103.181564,26.4257018 C102.875891,26.4257018 102.5676,26.6613382 102.410509,26.7785018 L102.410509,29.4915927 L101.518364,29.4915927 L101.518364,26.0578473 L102.360109,25.8300655 L102.391527,26.2201745 C102.5676,26.0617745 102.984545,25.7462836 103.533055,25.7462836 C104.0292,25.7462836 104.296909,25.9223564 104.478218,26.2378473 C104.666727,26.0617745 105.078436,25.7462836 105.710073,25.7462836 C106.445782,25.7462836 106.8012,26.2201745 106.8012,26.8537745 L106.8012,29.4915927 Z M97.7193818,27.6608291 C97.7193818,28.4161745 98.1265091,28.9790836 98.7522545,28.9790836 C99.3282545,28.9790836 99.7759636,28.4161745 99.7759636,27.6608291 C99.7759636,26.8982836 99.3282545,26.3340655 98.7522545,26.3340655 C98.0780727,26.3340655 97.7193818,26.8910836 97.7193818,27.6608291 L97.7193818,27.6608291 Z M100.748618,27.6608291 C100.748618,28.8298473 99.8793818,29.5721018 98.7522545,29.5721018 C97.6375636,29.5721018 96.7657091,28.8298473 96.7657091,27.6608291 C96.7657091,26.4852655 97.6375636,25.7462836 98.7522545,25.7462836 C99.8793818,25.7462836 100.748618,26.4852655 100.748618,27.6608291 L100.748618,27.6608291 Z M95.1908727,25.7462836 C95.9062909,25.7462836 96.2388,25.88832 96.4358182,25.9740655 L96.2473091,26.5265018 C96.0561818,26.4505745 95.8225091,26.3530473 95.3073818,26.3530473 C94.8236727,26.3530473 94.2005455,26.7837382 94.2005455,27.6608291 C94.2005455,28.4816291 94.8236727,28.9620655 95.3073818,28.9620655 C95.8225091,28.9620655 96.0633818,28.8638836 96.2630182,28.7964655 L96.4718182,29.33712 C96.2800364,29.4398836 95.9331273,29.5721018 95.1810545,29.5721018 C93.9996,29.5721018 93.2436,28.7918836 93.2436,27.6608291 C93.2436,26.50032 94.1861455,25.7462836 95.1908727,25.7462836 L95.1908727,25.7462836 Z M90.9991636,26.3465018 C90.5167636,26.3465018 90.2778545,26.7261382 90.2176364,27.1993745 L91.7584364,27.1993745 C91.7113091,26.6508655 91.4449091,26.3465018 90.9991636,26.3465018 L90.9991636,26.3465018 Z M91.3585091,28.9620655 C91.9318909,28.9620655 92.1982909,28.8468655 92.3658545,28.7715927 L92.5648364,29.2644655 C92.3475273,29.3626473 91.9953818,29.5721018 91.0940727,29.5721018 C89.9702182,29.5721018 89.2534909,28.8638836 89.2534909,27.6889745 C89.2534909,26.5742836 90.0363273,25.7462836 91.0292727,25.7462836 C91.9214182,25.7462836 92.7016364,26.3465018 92.7016364,27.7485382 L90.2019273,27.7485382 C90.2019273,28.4979927 90.5874545,28.9620655 91.3585091,28.9620655 L91.3585091,28.9620655 Z M87.5830909,24.1825745 L88.4837455,23.9430109 L88.4837455,29.4915927 L87.5830909,29.4915927 L87.5830909,24.1825745 Z M85.1377091,26.3465018 C84.6559636,26.3465018 84.4131273,26.7261382 84.3568364,27.1993745 L85.8989455,27.1993745 C85.8531273,26.6508655 85.5795273,26.3465018 85.1377091,26.3465018 L85.1377091,26.3465018 Z M85.4950909,28.9620655 C86.0678182,28.9620655 86.3368364,28.8468655 86.5024364,28.7715927 L86.7040364,29.2644655 C86.4847636,29.3626473 86.1352364,29.5721018 85.2326182,29.5721018 C84.1061455,29.5721018 83.394,28.8638836 83.394,27.6889745 C83.394,26.5742836 84.1722545,25.7462836 85.1665091,25.7462836 C86.0606182,25.7462836 86.8447636,26.3465018 86.8447636,27.7485382 L84.3391636,27.7485382 C84.3391636,28.4979927 84.7240364,28.9620655 85.4950909,28.9620655 L85.4950909,28.9620655 Z M79.7560364,23.9430109 L84.2475273,23.9430109 L84.2475273,24.6564655 L82.4868,24.6564655 L82.4868,29.4915927 L81.5285455,29.4915927 L81.5285455,24.6564655 L79.7560364,24.6564655 L79.7560364,23.9430109 Z M54.4794545,25.8300655 L54.4794545,28.2505745 C54.4794545,28.6138473 54.6044727,28.8789382 55.0318909,28.8789382 C55.4364,28.8789382 55.7604,28.6400291 55.9194545,28.5228655 L55.9194545,25.8300655 L56.8076727,25.8300655 L56.8076727,29.2592291 L55.9600364,29.4915927 L55.9345091,29.1054109 C55.7689091,29.2369745 55.3382182,29.5721018 54.6489818,29.5721018 C53.9381455,29.5721018 53.586,29.1322473 53.586,28.4482473 L53.586,25.8300655 L54.4794545,25.8300655 Z M77.6006182,27.8061382 L77.0861455,27.8473745 C76.6030909,27.8912291 76.2306545,28.0614109 76.2306545,28.4652655 C76.2306545,28.8298473 76.5265091,28.9574836 76.8433091,28.9574836 C77.1712364,28.9574836 77.4363273,28.7545745 77.6006182,28.6400291 L77.6006182,27.8061382 Z M76.5356727,29.5721018 C75.8392364,29.5721018 75.4059273,29.1656291 75.4059273,28.5555927 C75.4059273,27.9226473 75.9027273,27.3747927 76.8276,27.3257018 L77.6006182,27.2903564 L77.6006182,26.98272 C77.6006182,26.6613382 77.4926182,26.3340655 76.9297091,26.3340655 C76.4263636,26.3340655 76.0774909,26.50032 75.9027273,26.5742836 L75.6965455,26.1017018 C75.9223636,25.9950109 76.4361818,25.7462836 77.1954545,25.7462836 C78.0332727,25.7462836 78.4809818,26.1861382 78.4809818,26.82432 L78.4809818,28.9129745 C78.4908,29.1054109 78.5569091,29.3790109 78.6145091,29.4915927 L77.6863636,29.4915927 C77.6320364,29.3888291 77.6006182,29.2448291 77.6104364,29.1656291 C77.4193091,29.3070109 77.0625818,29.5721018 76.5356727,29.5721018 L76.5356727,29.5721018 Z M71.9623636,25.8300655 L72.7864364,25.8300655 L73.5843273,28.2309382 L74.4156,25.8300655 L75.1657091,25.8300655 L73.7433818,29.5505018 L73.2590182,29.5505018 L72.6025091,27.67392 L71.8805455,29.5505018 L71.3981455,29.5505018 L70.0844727,25.8300655 L70.9432364,25.8300655 L71.7666545,28.3062109 L72.3230182,26.8642473 L71.9623636,25.8300655 Z M62.8373455,26.9270836 C62.8373455,27.2785745 63.0788727,27.5547927 63.5062909,27.5547927 C63.9526909,27.5547927 64.1686909,27.2785745 64.1686909,26.9270836 C64.1686909,26.6174836 63.9670909,26.2777745 63.5062909,26.2777745 C63.0788727,26.2777745 62.8373455,26.6174836 62.8373455,26.9270836 L62.8373455,26.9270836 Z M62.3654182,30.3431564 C62.3811273,30.7574836 63.0225818,30.9093382 63.5370545,30.9093382 C64.1110909,30.9093382 64.6668,30.5617745 64.7165455,30.1762473 C64.7839636,29.7566836 64.4822182,29.5721018 64.1196,29.5721018 L62.9263636,29.5721018 C62.7391636,29.6866473 62.3536364,29.9792291 62.3654182,30.3431564 L62.3654182,30.3431564 Z M63.1953818,28.1000291 C62.9721818,28.1000291 62.5611273,28.1648291 62.5611273,28.4652655 C62.5611273,28.7918836 62.9453455,28.8206836 63.1881818,28.8206836 L64.2328364,28.8206836 C65.0326909,28.8206836 65.6158909,29.2880291 65.5209818,30.0924655 C65.4214909,30.9198109 64.4822182,31.4846836 63.6103636,31.4846836 C62.6632364,31.4846836 61.6159636,31.2549382 61.6159636,30.4413382 C61.6159636,29.8856291 62.0473091,29.5793018 62.2803273,29.4641018 C62.1147273,29.3691927 61.8228,29.1603927 61.8228,28.6642473 C61.8228,28.2237382 62.154,27.8473745 62.4708,27.7439564 C62.2803273,27.62352 62.0230909,27.3846109 62.0230909,26.9198836 C62.0230909,26.37072 62.4786545,25.7462836 63.4028727,25.7462836 C63.7988727,25.7462836 63.9926182,25.7979927 64.1268,25.8300655 L65.5386545,25.8300655 L65.5386545,26.3013382 L64.7499273,26.3013382 C64.8245455,26.3772655 65.0058545,26.5991564 65.0058545,26.9198836 C65.0058545,27.6968291 64.2996,28.1000291 63.5612727,28.1000291 L63.1953818,28.1000291 Z M60.1851273,29.4915927 L60.1851273,27.0678109 C60.1851273,26.70192 60.0339273,26.4374836 59.5993091,26.4374836 C59.1849818,26.4374836 58.8367636,26.6849018 58.6672364,26.79552 L58.6672364,29.4915927 L57.7790182,29.4915927 L57.7790182,26.0578473 L58.6292727,25.8300655 L58.6541455,26.21232 C58.8210545,26.0781382 59.2170545,25.7462836 59.9560364,25.7462836 C60.6747273,25.7462836 61.0746545,26.1985745 61.0746545,26.8681745 L61.0746545,29.4915927 L60.1851273,29.4915927 Z M68.6510182,29.4915927 L68.6510182,27.0678109 C68.6510182,26.70192 68.5030909,26.4374836 68.0593091,26.4374836 C67.6593818,26.4374836 67.2980727,26.6849018 67.1370545,26.79552 L67.1370545,29.4915927 L66.2468727,29.4915927 L66.2468727,24.1865018 L67.1370545,23.9430109 L67.1370545,26.21232 C67.3013455,26.0722473 67.6678909,25.7462836 68.4507273,25.7462836 C69.1720364,25.7462836 69.5385818,26.20512 69.5385818,26.8681745 L69.5385818,29.4915927 L68.6510182,29.4915927 Z M51.7611273,29.4915927 L51.7611273,27.0678109 C51.7611273,26.70192 51.6112364,26.4374836 51.1694182,26.4374836 C50.7714545,26.4374836 50.4068727,26.6849018 50.2484727,26.79552 L50.2484727,29.4915927 L49.3563273,29.4915927 L49.3563273,24.1865018 L50.2484727,23.9430109 L50.2484727,26.21232 C50.4140727,26.0722473 50.7812727,25.7462836 51.5641091,25.7462836 C52.2847636,25.7462836 52.6519636,26.20512 52.6519636,26.8681745 L52.6519636,29.4915927 L51.7611273,29.4915927 Z M48.6670909,29.1374836 C48.2920364,29.3626473 47.7520364,29.5923927 46.7158909,29.5923927 C45.0252,29.5923927 43.8699273,28.2793745 43.8699273,26.72352 C43.8699273,25.15392 45.0252,23.8310836 46.7158909,23.8310836 C47.8279636,23.8310836 48.3424364,24.1053382 48.5833091,24.2499927 L48.3103636,24.91632 C48.1264364,24.8266473 47.6617091,24.5733382 46.7878909,24.5733382 C45.7995273,24.5733382 44.8942909,25.4720291 44.8942909,26.72352 C44.8942909,27.9435927 45.8152364,28.8534109 46.8409091,28.8534109 C47.7042545,28.8534109 48.0943636,28.6400291 48.3620727,28.5058473 L48.6670909,29.1374836 Z" id="Fill-4" fill="#000000"></path>
                <g id="Group-8" transform="translate(93.600000, 6.957753)">
                    <mask id="mask-4" fill="white">
                        <use xlink:href="#path-3"></use>
                    </mask>
                    <g id="Clip-7"></g>
                    <path d="M5.04268364,0.641127273 C4.83257455,0.641127273 4.69184727,0.7092 4.58384727,0.816545455 C4.47846545,0.9252 4.42217455,1.05414545 4.42217455,1.26098182 C4.42217455,1.46454545 4.48239273,1.59741818 4.58384727,1.70476364 C4.68726545,1.80294545 4.83650182,1.87887273 5.04268364,1.87887273 L12.4914109,1.87887273 C12.7021745,1.87887273 12.8409382,1.80818182 12.9417382,1.70476364 C13.0536655,1.59414545 13.1014473,1.46061818 13.1014473,1.25770909 C13.1014473,1.05414545 13.04712,0.9252 12.9384655,0.812618182 C12.8402836,0.712472727 12.7100291,0.641127273 12.4953382,0.641127273 L5.04268364,0.641127273 Z M4.13482909,2.5956 C3.91293818,2.5956 3.79053818,2.65843636 3.67533818,2.77429091 C3.57192,2.88163636 3.51039273,3.05967273 3.51039273,3.21545455 C3.51039273,3.36927273 3.57192,3.54665455 3.67533818,3.65465455 C3.78922909,3.76723636 3.91293818,3.82941818 4.13482909,3.82941818 L13.4038473,3.82941818 C13.6133018,3.82941818 13.75272,3.75676364 13.8515564,3.65465455 C13.9602109,3.54469091 14.0132291,3.36469091 14.0132291,3.21283636 C14.0132291,3.05967273 13.9562836,2.88229091 13.8515564,2.77429091 C13.7487927,2.67283636 13.6061018,2.5956 13.4090836,2.5956 L4.13482909,2.5956 Z M5.04268364,4.57756364 C4.83257455,4.57756364 4.70624727,4.6332 4.58384727,4.75429091 C4.47846545,4.86752727 4.42217455,5.04163636 4.42217455,5.1948 C4.42217455,5.35058182 4.47715636,5.526 4.58384727,5.634 C4.70166545,5.74985455 4.83257455,5.81596364 5.04268364,5.81596364 L12.4914109,5.81596364 C12.6851564,5.81596364 12.8291564,5.73283636 12.9417382,5.62352727 C13.0484291,5.51552727 13.1014473,5.35058182 13.1014473,5.1948 C13.1014473,5.04163636 13.0536655,4.87930909 12.9417382,4.77196364 C12.8376655,4.662 12.6851564,4.57756364 12.4953382,4.57756364 L5.04268364,4.57756364 Z M5.04268364,6.53007273 C4.85744727,6.53007273 4.69839273,6.59683636 4.58384727,6.70941818 C4.47257455,6.81938182 4.42217455,7.00592727 4.42217455,7.14207273 C4.42217455,7.28345455 4.46995636,7.47196364 4.58384727,7.58781818 C4.70166545,7.70563636 4.86137455,7.76847273 5.04268364,7.76847273 L12.4914109,7.76847273 C12.6930109,7.76847273 12.8468291,7.68927273 12.9417382,7.58781818 C13.0484291,7.47785455 13.1014473,7.30309091 13.1014473,7.14207273 C13.1014473,6.98301818 13.0536655,6.80301818 12.9417382,6.69501818 C12.84552,6.59487273 12.6995564,6.53007273 12.4953382,6.53007273 L5.04268364,6.53007273 Z M5.94661091,9.84076364 C5.75679273,9.84076364 5.69199273,9.88658182 5.64748364,9.92781818 C5.60297455,9.97494545 5.55388364,10.0665818 5.55388364,10.1994545 L5.55388364,11.5589455 C5.55388364,11.7094909 5.59381091,11.7952364 5.64552,11.8436727 C5.71621091,11.9143636 5.81570182,11.9497091 5.95839273,11.9497091 L11.55672,11.9497091 C11.7138109,11.9497091 11.8316291,11.9091273 11.8866109,11.8502182 C11.9442109,11.7952364 11.9684291,11.6970545 11.9684291,11.5628727 L11.9684291,10.242 C11.9684291,10.1025818 11.9442109,10.0116 11.8925018,9.95661818 C11.8146109,9.87872727 11.7170836,9.84076364 11.5730836,9.84076364 L5.94661091,9.84076364 Z M5.10617455,8.60498182 L12.2819564,8.60498182 C12.5771564,8.60498182 12.8154109,8.67894545 12.9973745,8.85894545 C13.1747564,9.0396 13.2591927,9.19734545 13.2591927,9.44018182 L13.2591927,12.1990909 C13.2591927,12.4563273 13.1472655,12.6821455 12.9417382,12.8863636 C12.7545382,13.0761818 12.5280655,13.1926909 12.2819564,13.1926909 L5.10486545,13.1926909 C4.85286545,13.1926909 4.66697455,13.0899273 4.50726545,12.8961818 C4.32922909,12.6932727 4.26704727,12.4635273 4.26704727,12.1990909 L4.26704727,9.44018182 C4.26704727,9.21698182 4.36064727,9.00229091 4.51119273,8.84716364 C4.66108364,8.70054545 4.87446545,8.60498182 5.10617455,8.60498182 L5.10617455,8.60498182 Z M3.01032,0.295527273 C3.20799273,0.339381818 3.33301091,0.454581818 3.40501091,0.550145455 C3.49861091,0.6804 3.53199273,0.881345455 3.49402909,1.09210909 C3.26690182,2.19043636 3.00639273,3.14803636 2.71053818,3.90207273 L2.71053818,12.7057091 C2.71053818,12.9099273 2.64704727,13.0761818 2.51875636,13.2031636 C2.40093818,13.3236 2.24712,13.3851273 2.06122909,13.3969091 C1.88515636,13.3969091 1.73264727,13.338 1.60173818,13.2169091 C1.48392,13.0899273 1.42042909,12.9204 1.42042909,12.7057091 L1.42042909,6.37167273 C1.10101091,6.8364 0.894174545,6.89269091 0.744283636,6.91363636 C0.613374545,6.93261818 0.423556364,6.89923636 0.291338182,6.78141818 C0.164356364,6.67407273 0.0694472727,6.49603636 0.0589745455,6.35007273 C0.0491563636,6.20607273 0.121156364,5.99923636 0.246174545,5.83036364 C1.29672,4.30330909 1.96501091,2.63683636 2.23075636,0.873490909 C2.26086545,0.660109091 2.37475636,0.485345455 2.50304727,0.3996 C2.60646545,0.328909091 2.83555636,0.252327273 3.01032,0.295527273 L3.01032,0.295527273 Z" id="Fill-6" fill="#000000" mask="url(#mask-4)"></path>
                </g>
                <path d="M70.2744873,14.0113964 L70.2744873,13.8340145 L68.2643782,13.8340145 L68.2643782,15.0292145 L73.3213964,15.0292145 C73.4994327,15.0292145 73.6349236,15.0743782 73.7429236,15.1823782 C73.8574691,15.2936509 73.9078691,15.4991782 73.9078691,15.6176509 C73.9078691,15.7374327 73.8535418,15.9193964 73.7468509,16.0300145 C73.6316509,16.1406327 73.5020509,16.2106691 73.3213964,16.2106691 L68.2643782,16.2106691 L68.2643782,17.1879055 L73.6853236,17.1879055 C73.86336,17.1879055 74.0047418,17.2428873 74.1048873,17.3463055 C74.2102691,17.4529964 74.2691782,17.6303782 74.2691782,17.7809236 C74.2691782,17.9295055 74.20176,18.0970691 74.1068509,18.2155418 C74.0086691,18.33336 73.86336,18.3713236 73.6853236,18.3713236 L68.2643782,18.3713236 L68.2643782,19.6666691 C68.2643782,19.8676145 68.2080873,20.0391055 68.08176,20.1673964 C67.9645964,20.2832509 67.80096,20.3545964 67.6183418,20.3545964 C67.4370327,20.3545964 67.2760145,20.2884873 67.1562327,20.1615055 C67.0292509,20.0391055 66.9781964,19.8721964 66.9781964,19.6666691 L66.9781964,18.3713236 L61.5572509,18.3713236 C61.3726691,18.3713236 61.2404509,18.3183055 61.12656,18.2057236 C61.0172509,18.0970691 60.9642327,17.88696 60.9642327,17.7809236 C60.9642327,17.6663782 61.0172509,17.4667418 61.12656,17.3561236 C61.2319418,17.25336 61.3726691,17.1879055 61.5611782,17.1879055 L66.9781964,17.1879055 L66.9781964,16.2106691 L61.9198691,16.2106691 C61.73856,16.2106691 61.5886691,16.1550327 61.4780509,16.04376 C61.3667782,15.9390327 61.3301236,15.7426691 61.3301236,15.6248509 C61.3301236,15.5089964 61.3726691,15.3152509 61.4891782,15.1974327 C61.5867055,15.1018691 61.73856,15.0292145 61.9251055,15.0292145 L63.6838691,15.0292145 L63.6838691,13.8340145 L61.1756509,13.8340145 C60.9982691,13.8340145 60.8562327,13.7777236 60.7469236,13.6716873 C60.6376145,13.5617236 60.5813236,13.3889236 60.5813236,13.2403418 C60.5813236,13.0943782 60.6448145,12.9392509 60.7469236,12.8227418 C60.8477236,12.7114691 60.9982691,12.6538691 61.1789236,12.6538691 L63.6838691,12.6538691 L63.6838691,12.5151055 C63.6838691,12.3121964 63.7355782,12.1400509 63.8592873,12.0183055 C63.9856145,11.8926327 64.1387782,11.8278327 64.3240145,11.8278327 C64.5072873,11.8278327 64.6715782,11.8972145 64.7887418,12.0183055 C64.9124509,12.1400509 64.9700509,12.3121964 64.9700509,12.5151055 L64.9733236,12.6538691 L66.9781964,12.6538691 L66.9781964,11.4023782 L61.9251055,11.4023782 C61.73856,11.4023782 61.59456,11.3329964 61.49376,11.2367782 C61.3837964,11.1287782 61.3301236,10.9160509 61.3301236,10.8054327 C61.3301236,10.70136 61.3916509,10.4879782 61.4904873,10.3897964 C61.5919418,10.2903055 61.73856,10.2241964 61.9251055,10.2241964 L73.3213964,10.2241964 C73.4994327,10.2241964 73.64016,10.2713236 73.7416145,10.3740873 C73.8496145,10.4807782 73.9078691,10.6699418 73.9078691,10.8054327 C73.9078691,10.9494327 73.8430691,11.10456 73.7468509,11.2177964 C73.6434327,11.3401964 73.5020509,11.4023782 73.3213964,11.4023782 L71.5626327,11.4023782 L71.5626327,12.6538691 L74.0636509,12.6538691 C74.2567418,12.6538691 74.37456,12.6990327 74.4792873,12.8057236 C74.6016873,12.9248509 74.6448873,13.0884873 74.6448873,13.2403418 C74.6448873,13.3987418 74.60496,13.5289964 74.4851782,13.6527055 C74.37456,13.7679055 74.2606691,13.8340145 74.0636509,13.8340145 L71.5626327,13.8340145 L71.5600145,14.0113964 C71.5534691,14.1940145 71.4952145,14.3504509 71.3787055,14.4715418 C71.2615418,14.58936 71.0952873,14.6633236 70.9146327,14.6633236 C70.7307055,14.6633236 70.5736145,14.5952509 70.4512145,14.4676145 C70.3320873,14.3504509 70.28496,14.1953236 70.2764509,14.0113964 L70.2744873,14.0113964 Z M68.2643782,12.6538691 L70.2744873,12.6538691 L70.2744873,11.4023782 L68.2643782,11.4023782 L68.2643782,12.6538691 Z M64.9733236,15.0292145 L66.9781964,15.0292145 L66.9781964,13.8340145 L64.9733236,13.8340145 L64.9733236,15.0292145 Z M74.2698327,8.59830545 C74.2698327,8.74165091 74.2102691,8.91183273 74.1127418,9.01001455 C74.00016,9.12128727 73.8640145,9.19197818 73.6853236,9.19197818 L70.7477236,9.19197818 L70.7477236,9.23648727 C70.7477236,9.44136 70.6907782,9.61154182 70.5637964,9.73590545 C70.4459782,9.85896 70.28496,9.92572364 70.1023418,9.92572364 C69.9190691,9.92572364 69.7606691,9.86288727 69.63696,9.73590545 C69.5086691,9.61154182 69.4589236,9.44136 69.4589236,9.23648727 L69.4589236,9.19197818 L65.7751418,9.19197818 L65.7751418,9.23648727 C65.7751418,9.44136 65.72016,9.61154182 65.59056,9.73917818 C65.47536,9.85896 65.3130327,9.93161455 65.1317236,9.93161455 C64.9458327,9.93161455 64.7887418,9.86288727 64.6637236,9.73590545 C64.5387055,9.61154182 64.4856873,9.44332364 64.4856873,9.23648727 L64.4856873,9.19197818 L61.5572509,9.19197818 C61.3667782,9.19197818 61.2260509,9.12586909 61.1219782,9.02572364 C61.0126691,8.91968727 60.9570327,8.74165091 60.9570327,8.59830545 C60.9570327,8.45168727 61.0218327,8.27823273 61.1219782,8.18070545 C61.2234327,8.07728727 61.3667782,8.01183273 61.5572509,8.01183273 L64.4837236,8.01183273 L64.4837236,7.71925091 C64.4837236,7.51045091 64.5387055,7.34485091 64.6637236,7.21525091 C64.7861236,7.09677818 64.9458327,7.02543273 65.1317236,7.02543273 C65.30976,7.02543273 65.4714327,7.10397818 65.5892509,7.21525091 C65.72016,7.34485091 65.7718691,7.51437818 65.7718691,7.71925091 L65.7718691,8.01183273 L69.4589236,8.01183273 L69.4589236,7.71925091 C69.4589236,7.51437818 69.50736,7.34485091 69.63696,7.21525091 C69.7606691,7.09677818 69.9190691,7.03001455 70.1023418,7.03001455 C70.28496,7.03001455 70.4459782,7.10397818 70.5637964,7.21525091 C70.6907782,7.34485091 70.7451055,7.51961455 70.7451055,7.71925091 L70.7451055,8.01183273 L73.6853236,8.01183273 C73.86336,8.01183273 74.0086691,8.08317818 74.1094691,8.18332364 C74.2102691,8.28674182 74.2698327,8.45692364 74.2698327,8.59830545 L74.2698327,8.59830545 Z" id="Fill-9" fill="#000000"></path>
                <path d="M55.4519782,10.0726036 C55.5711055,10.0726036 55.6817236,10.1171127 55.7687782,10.2048218 C55.8479782,10.28664 55.8898691,10.3782764 55.8898691,10.5019855 L55.8898691,16.2155127 C55.8898691,16.3254764 55.8244145,16.4459127 55.76616,16.4989309 C55.7111782,16.5565309 55.6247782,16.6160945 55.4866691,16.6160945 L51.25176,16.6160945 L51.25176,10.0726036 L55.4519782,10.0726036 Z M45.3372873,16.4956582 C45.2593964,16.4164582 45.2188145,16.3287491 45.2188145,16.2155127 L45.2188145,10.5019855 C45.2188145,10.3822036 45.2620145,10.2977673 45.3438327,10.20024 C45.4361236,10.1059855 45.5356145,10.0726036 45.6416509,10.0726036 L49.8582327,10.0726036 L49.8582327,16.6160945 L45.6495055,16.6160945 C45.5297236,16.6160945 45.4276145,16.5781309 45.3372873,16.4956582 L45.3372873,16.4956582 Z M50.03496,7.21551273 C49.9164873,7.33529455 49.8582327,7.51987636 49.8582327,7.73325818 L49.8582327,8.72554909 L45.1343782,8.72554909 C44.7874691,8.72554909 44.4876873,8.84336727 44.2428873,9.07769455 C44.00136,9.32511273 43.8743782,9.61900364 43.8743782,9.95020364 L43.8743782,16.7411127 C43.8743782,17.0605309 44.00136,17.3491855 44.2546691,17.5959491 C44.5092873,17.8296218 44.8071055,17.9585673 45.1343782,17.9585673 L49.8582327,17.9585673 L49.8582327,19.59624 C49.8582327,19.8528218 49.9387418,20.05704 50.0467418,20.1604582 C50.1403418,20.25144 50.3131418,20.3548582 50.5559782,20.3548582 C50.7935782,20.3548582 50.9552509,20.25144 51.0468873,20.1604582 C51.1522691,20.05704 51.25176,19.8488945 51.25176,19.59624 L51.25176,17.9585673 L55.9887055,17.9585673 C56.3454327,17.9585673 56.6897236,17.7720218 56.8795418,17.5815491 C57.0667418,17.3917309 57.23496,17.0297673 57.23496,16.7051127 L57.23496,9.98424 C57.23496,9.64584 57.1151782,9.35391273 56.9070327,9.11107636 C56.67336,8.84598545 56.3611418,8.72554909 55.9847782,8.72554909 L51.25176,8.72554909 L51.25176,7.73325818 C51.25176,7.51987636 51.1849964,7.33529455 51.0671782,7.21551273 C50.9532873,7.10424 50.7320509,7.02569455 50.5559782,7.02569455 C50.37336,7.02569455 50.1606327,7.09638545 50.03496,7.21551273 L50.03496,7.21551273 Z" id="Fill-11" fill="#000000"></path>
                <path d="M89.6506691,10.4043273 C89.7252873,10.4043273 89.8116873,10.4462182 89.8594691,10.4946545 C89.9079055,10.5437455 89.9353964,10.6275273 89.9386691,10.7145818 L89.9386691,12.6114545 C89.9386691,12.8189455 90.0289964,13.0120364 90.1369964,13.1154545 C90.2449964,13.2267273 90.4177964,13.2784364 90.5703055,13.2784364 C90.70056,13.2784364 90.9139418,13.1841818 90.9990327,13.0938545 C91.0972145,13.0002545 91.1777236,12.7953818 91.1777236,12.6114545 L91.1777236,10.3532727 C91.1960509,10.0842545 91.0782327,9.82570909 90.8890691,9.63065455 C90.70056,9.4428 90.4321964,9.32563636 90.1729964,9.33218182 L84.9091418,9.33218182 L84.9091418,8.67043636 L89.41176,8.67043636 C89.5714691,8.67043636 89.7010691,8.59058182 89.7900873,8.50418182 C89.8791055,8.41516364 89.9367055,8.24956364 89.9367055,8.12781818 C89.9367055,8.01196364 89.8791055,7.82869091 89.7900873,7.7364 C89.6977964,7.64672727 89.5642691,7.59894545 89.41176,7.59894545 L79.1857964,7.59894545 C79.0260873,7.59894545 78.8964873,7.65261818 78.7963418,7.74949091 C78.6896509,7.85225455 78.6431782,7.97792727 78.6431782,8.12781818 C78.6431782,8.28687273 78.7066691,8.42956364 78.7963418,8.52185455 C78.8820873,8.6076 79.0175782,8.67043636 79.1857964,8.67043636 L83.6713964,8.67043636 L83.6713964,9.33218182 L78.4049236,9.33218182 C78.15096,9.32563636 77.8793236,9.4428 77.6940873,9.63065455 C77.5036145,9.82570909 77.3884145,10.0842545 77.4041236,10.3532727 L77.4041236,12.6114545 C77.4041236,12.7953818 77.4820145,13.0002545 77.5815055,13.0938545 C77.6665964,13.1841818 77.8793236,13.2784364 78.0102327,13.2784364 C78.1627418,13.2784364 78.3355418,13.2267273 78.4448509,13.1154545 C78.5554691,13.0120364 78.6431782,12.8189455 78.6431782,12.6114545 L78.6431782,10.7145818 C78.6464509,10.6275273 78.6739418,10.5437455 78.7223782,10.4946545 C78.7727782,10.4462182 78.8519782,10.4043273 78.92856,10.4043273 L83.6713964,10.4043273 L83.6713964,12.7227273 C83.6713964,12.9374182 83.7460145,13.1128364 83.8527055,13.2214909 C83.9587418,13.3294909 84.1420145,13.3870909 84.2886327,13.3870909 C84.4424509,13.3870909 84.6355418,13.3196727 84.72456,13.2136364 C84.82536,13.1010545 84.9091418,12.9374182 84.9091418,12.7227273 L84.9091418,10.4043273 L89.6506691,10.4043273 Z M90.0316145,19.0803273 L85.4988873,19.0803273 C85.3332873,19.0803273 85.14936,19.0495636 85.0302327,18.9356727 C84.9176509,18.8158909 84.93336,18.5835273 84.93336,18.2902909 L89.1767782,18.2902909 C89.39016,18.2902909 89.5930691,18.2058545 89.7743782,18.0304364 C89.9530691,17.8504364 90.0532145,17.6436 90.0591055,17.4118909 L90.0591055,14.4677455 C90.0532145,14.2504364 89.9713964,14.0737091 89.8273964,13.9369091 C89.64216,13.7850545 89.4248509,13.7058545 89.1787418,13.7058545 L79.2663055,13.7058545 C79.0535782,13.7058545 78.87096,13.7804727 78.72696,13.9264364 C78.5783782,14.0828727 78.5089964,14.2648364 78.5220873,14.4677455 L78.5220873,17.4092727 C78.5089964,17.6396727 78.5816509,17.8465091 78.7328509,18.0284727 C78.8604873,18.1849091 79.0378691,18.2706545 79.2591055,18.2902909 L83.6478327,18.2902909 L83.6478327,18.7530545 C83.6478327,19.2668727 83.9292873,19.6543636 84.1721236,19.854 C84.4411418,20.0745818 84.8063782,20.1505091 85.09176,20.1505091 L90.0316145,20.1505091 C90.3268145,20.1505091 90.5644145,19.9089818 90.5644145,19.6124727 C90.5644145,19.3153091 90.3268145,19.0803273 90.0316145,19.0803273 L90.0316145,19.0803273 Z M88.82136,16.5125455 L88.82136,16.9360364 C88.82136,17.0440364 88.7899418,17.1291273 88.7369236,17.1808364 C88.6819418,17.2358182 88.6001236,17.2639636 88.4836145,17.2672364 L84.93336,17.2672364 L84.93336,16.5125455 L88.82136,16.5125455 Z M88.4875418,14.7262909 C88.6060145,14.7262909 88.6937236,14.7629455 88.7539418,14.8323273 C88.8010691,14.8807636 88.82136,14.9645455 88.82136,15.0777818 L88.82136,15.4914545 L84.93336,15.4914545 L84.93336,14.7262909 L88.4875418,14.7262909 Z M83.6478327,16.5125455 L83.6478327,17.2672364 L80.0897236,17.2672364 C79.9732145,17.2672364 79.8894327,17.2384364 79.8364145,17.1808364 C79.7833964,17.1291273 79.7572145,17.0499273 79.7572145,16.9399636 L79.7572145,16.5125455 L83.6478327,16.5125455 Z M79.7598327,15.0365455 C79.7598327,14.9468727 79.7833964,14.8709455 79.8403418,14.8054909 C79.8809236,14.7550909 79.96536,14.7262909 80.0897236,14.7262909 L83.6478327,14.7262909 L83.6478327,15.4914545 L79.7572145,15.4914545 C79.7572145,15.4914545 79.7598327,15.0535636 79.7598327,15.0365455 L79.7598327,15.0365455 Z M88.90776,12.2946545 C89.04456,12.2946545 89.1486327,12.3352364 89.23176,12.4157455 C89.3148873,12.4975636 89.35416,12.6075273 89.35416,12.7430182 C89.35416,12.8726182 89.3148873,12.9760364 89.23176,13.0637455 C89.1486327,13.1560364 89.04456,13.2018545 88.90776,13.2018545 L86.6273236,13.2018545 C86.4833236,13.2018545 86.3707418,13.1560364 86.2902327,13.0637455 C86.2097236,12.9884727 86.1652145,12.8765455 86.1652145,12.7430182 C86.1652145,12.6160364 86.2097236,12.5080364 86.2902327,12.4157455 C86.3707418,12.3352364 86.4833236,12.2946545 86.6273236,12.2946545 L88.90776,12.2946545 Z M88.1249236,10.9109455 C88.2630327,10.9109455 88.3684145,10.9495636 88.4521964,11.0313818 C88.5320509,11.1118909 88.5726327,11.2244727 88.5726327,11.3593091 C88.5726327,11.4836727 88.5320509,11.5903636 88.4521964,11.6833091 C88.3684145,11.7703636 88.2630327,11.8188 88.1249236,11.8188 L85.8457964,11.8188 C85.7044145,11.8188 85.5865964,11.7703636 85.50936,11.6833091 C85.4268873,11.6014909 85.3856509,11.4934909 85.3856509,11.3593091 C85.3856509,11.2329818 85.4268873,11.1223636 85.50936,11.0313818 C85.5865964,10.9495636 85.7044145,10.9109455 85.8457964,10.9109455 L88.1249236,10.9109455 Z M82.7543782,12.2946545 C82.8872509,12.2946545 82.9945964,12.3352364 83.07576,12.4157455 C83.15496,12.4975636 83.2007782,12.6075273 83.2007782,12.7430182 C83.2007782,12.8726182 83.15496,12.9760364 83.07576,13.0637455 C82.9945964,13.1560364 82.8872509,13.2018545 82.7543782,13.2018545 L80.4732873,13.2018545 C80.3286327,13.2018545 80.2147418,13.1560364 80.1342327,13.0637455 C80.0537236,12.9884727 80.0144509,12.8765455 80.0144509,12.7430182 C80.0144509,12.6160364 80.0537236,12.5080364 80.1342327,12.4157455 C80.2147418,12.3352364 80.3286327,12.2946545 80.4732873,12.2946545 L82.7543782,12.2946545 Z M81.9715418,10.9109455 C82.1057236,10.9109455 82.21176,10.9495636 82.2955418,11.0313818 C82.3747418,11.1118909 82.4153236,11.2244727 82.4153236,11.3593091 C82.4153236,11.4836727 82.3747418,11.5903636 82.2955418,11.6833091 C82.21176,11.7703636 82.1057236,11.8188 81.9715418,11.8188 L79.6897964,11.8188 C79.5457964,11.8188 79.4332145,11.7703636 79.3527055,11.6833091 C79.2708873,11.6014909 79.2316145,11.4934909 79.2316145,11.3593091 C79.2316145,11.2329818 79.2708873,11.1223636 79.3527055,11.0313818 C79.4332145,10.9495636 79.5457964,10.9109455 79.6897964,10.9109455 L81.9715418,10.9109455 Z" id="Fill-13" fill="#000000"></path>
            </g>
        </g>
    </g>
</svg>