<?xml version="1.0" encoding="UTF-8"?>
<svg width="399px" height="5px" viewBox="0 0 399 5" version="1.1" xmlns="http://www.w3.org/2000/svg" xmlns:xlink="http://www.w3.org/1999/xlink">
    <!-- Generator: Sketch 41.1 (35376) - http://www.bohemiancoding.com/sketch -->
    <title>devider_bottom</title>
    <desc>Created with Sketch.</desc>
    <defs>
        <polygon id="path-1" points="1.04438642 0.6245 1.04438642 0.1245 0.450294838 0.1245 0.450294838 0.6245 1.04438642 0.6245"></polygon>
        <polygon id="path-3" points="0 0.3994 0 0.8994 1.10558747 0.8994 1.10558747 0.3994 0 0.3994"></polygon>
        <polygon id="path-5" points="0.0868929504 0.5 1.22214099 0.5 1.22214099 0.13685 0.0868929504 0.13685"></polygon>
        <polygon id="path-7" points="0.489310024 0.5 2.46443864 0.5 2.46443864 0.288680824 0.489310024 0.288680824"></polygon>
    </defs>
    <g id="Page-1" stroke="none" stroke-width="1" fill="none" fill-rule="evenodd">
        <g id="Artboard-3" transform="translate(-862.000000, -190.000000)">
            <g id="Group-2" transform="translate(862.000000, 190.000000)">
                <g id="Group">
                    <g id="devider_bottom">
                        <path d="M0,2.42925 L398.955614,2.42925 L0,2.42925 Z" id="Fill-1" fill="#FEFEFE"></path>
                        <g id="Group-168" transform="translate(0.000000, 0.358400)">
                            <g id="Group-4" transform="translate(397.911227, 0.500000)">
                                <mask id="mask-2" fill="white">
                                    <use xlink:href="#path-1"></use>
                                </mask>
                                <g id="Clip-3"></g>
                                <path d="M0.578276762,0.3535 C1.16626632,0.372 0.955300261,0.1625 1.04407311,0.1245 C0.0592167102,0.171 0.60229765,0.408 0.578276762,0.3535" id="Fill-2" fill="#231815" mask="url(#mask-2)"></path>
                            </g>
                            <polygon id="Fill-5" fill="#231815" points="388.765744 1.3291 388.938068 1.2436 387.50517 1.4531"></polygon>
                            <path d="M379.674256,1.3252 C380.532742,1.6822 382.968251,1.2677 384.588094,1.3947 L384.855457,1.4757 L385.586527,1.1887 C383.616815,1.2342 381.060157,1.4247 379.674256,1.3252" id="Fill-7" fill="#231815"></path>
                            <path d="M374.825587,0.5532 C375.125326,0.6922 373.777023,0.6727 375.956658,0.5967 C375.846997,0.5817 375.814621,0.5727 375.751958,0.5617 C375.555614,0.5637 375.285117,0.5632 374.825587,0.5532" id="Fill-9" fill="#231815"></path>
                            <path d="M375.751645,0.5615 C376.709347,0.5515 375.125013,0.445 375.751645,0.5615" id="Fill-11" fill="#231815"></path>
                            <path d="M371.329399,0.6411 L372.591018,0.5171 C372.326789,0.4351 371.205117,0.4166 371.621828,0.3571 C370.327833,0.4246 370.594151,0.5061 371.329399,0.6411" id="Fill-13" fill="#231815"></path>
                            <path d="M370.133995,0.9016 L370.787781,0.8491 C370.672898,0.8146 370.500574,0.8026 370.133995,0.9016" id="Fill-15" fill="#231815"></path>
                            <path d="M372.173786,0.7383 L370.787885,0.8493 C370.970653,0.9068 370.989452,1.0223 371.422872,0.8093 C371.310078,0.9148 371.584752,0.8133 372.173786,0.7383" id="Fill-17" fill="#231815"></path>
                            <path d="M372.95812,0.7927 C373.666214,0.8702 374.580052,0.9192 373.314256,1.0427 C375.725744,0.9937 375.371697,0.7427 372.95812,0.7927" id="Fill-19" fill="#231815"></path>
                            <path d="M379.209191,1.69435 L380.155405,1.79885 L380.973159,1.67935 C380.564804,1.73835 379.150705,1.58235 379.209191,1.69435" id="Fill-21" fill="#231815"></path>
                            <path d="M363.471958,0.4563 C363.393629,0.5323 363.895979,0.6588 363.989974,0.7558 L364.922611,0.6688 C364.443238,0.6168 363.53671,0.5688 363.471958,0.4563" id="Fill-23" fill="#231815"></path>
                            <path d="M363.990078,0.75585 L362.596867,0.88635 C363.841775,0.90185 364.069452,0.83935 363.990078,0.75585" id="Fill-25" fill="#231815"></path>
                            <polygon id="Fill-27" fill="#231815" points="369.908616 1.29785 372.197911 1.02385 369.466841 1.30135"></polygon>
                            <polygon id="Fill-29" fill="#231815" points="358.149034 0.4468 358.93859 0.2708 357.530757 0.5368"></polygon>
                            <path d="M354.617128,0.47755 C355.203029,0.33205 353.815039,0.23105 354.433316,0.14155 C353.474569,0.16755 352.65577,0.29255 351.918433,0.40505 C352.701723,0.34205 353.537232,0.35855 354.617128,0.47755" id="Fill-31" fill="#231815"></path>
                            <path d="M350.679269,0.56885 C351.070914,0.53385 351.47718,0.47135 351.918956,0.40485 C351.502245,0.43885 351.092846,0.48685 350.679269,0.56885" id="Fill-33" fill="#231815"></path>
                            <path d="M360.222559,0.84865 C360.113943,0.80265 359.90611,0.68265 359.124909,0.63165 L359.673211,0.84565 C359.841358,0.84665 360.029347,0.84765 360.222559,0.84865" id="Fill-35" fill="#231815"></path>
                            <path d="M359.692219,0.8523 L359.672376,0.8453 C359.07812,0.8408 358.665587,0.8358 358.489086,0.8333 C358.640522,0.8353 359.002924,0.8408 359.692219,0.8523" id="Fill-37" fill="#231815"></path>
                            <path d="M360.360209,0.8496 C360.309034,0.8491 360.27248,0.8486 360.22235,0.8486 C360.274569,0.8696 360.306945,0.8766 360.360209,0.8496" id="Fill-39" fill="#231815"></path>
                            <path d="M366.254308,1.1045 C365.435509,1.224 363.727937,1.352 365.380157,1.534 C365.968146,1.388 365.021932,1.284 366.254308,1.1045" id="Fill-41" fill="#231815"></path>
                            <path d="M361.041567,1.1167 L362.521462,1.1657 C362.493264,1.1092 362.225901,1.0267 362.631123,0.9677 L361.041567,1.1167 Z" id="Fill-43" fill="#231815"></path>
                            <polygon id="Fill-45" fill="#231815" points="360.316345 1.18455 361.041149 1.11655 360.492846 1.09855"></polygon>
                            <path d="M353.21577,0.7688 C352.576606,0.8618 351.876867,0.8698 351.086266,0.8843 C351.933264,0.9263 352.80846,0.9493 353.640836,0.9488 C353.758851,0.8818 354.123342,0.7613 353.21577,0.7688" id="Fill-47" fill="#231815"></path>
                            <path d="M356.363238,0.82815 C356.319373,0.83315 356.261932,0.83565 356.221201,0.84015 C356.307885,0.85865 356.378903,0.86415 356.363238,0.82815" id="Fill-49" fill="#231815"></path>
                            <path d="M343.306319,0.88305 C343.350183,0.89455 343.386736,0.90955 343.431645,0.92205 C343.441044,0.90955 343.448355,0.89755 343.459843,0.88505 L343.306319,0.88305 Z" id="Fill-51" fill="#231815"></path>
                            <path d="M353.782872,0.98855 C354.418903,1.03005 354.800104,0.97755 355.162507,0.91155 C354.686266,0.93305 354.182872,0.94705 353.640836,0.94855 C353.587572,0.97905 353.578172,0.99905 353.782872,0.98855" id="Fill-53" fill="#231815"></path>
                            <path d="M348.50893,0.6687 C348.84,0.7132 349.217023,0.7512 349.611802,0.7862 C349.288042,0.7187 348.625901,0.6132 348.50893,0.6687" id="Fill-55" fill="#231815"></path>
                            <path d="M356.006266,0.78125 C356.038642,0.77775 356.067885,0.77375 356.10235,0.77175 C355.893473,0.72575 355.919582,0.74825 356.006266,0.78125" id="Fill-57" fill="#231815"></path>
                            <path d="M356.006266,0.78125 C355.679373,0.81225 355.42141,0.86475 355.162402,0.91175 C355.549869,0.89475 355.909138,0.87175 356.22141,0.84025 C356.143081,0.82525 356.063708,0.80225 356.006266,0.78125" id="Fill-59" fill="#231815"></path>
                            <path d="M340.949347,2.25465 C341.061097,2.05665 342.735248,1.87365 344.180679,2.08615 C345.602089,1.93765 344.67154,1.28615 343.431854,0.92165 C343.386945,1.00815 343.386945,1.08815 341.924804,1.20515 C342.436554,1.31315 345.170757,1.45815 343.935248,1.63715 C341.997911,1.73915 342.347781,1.56715 341.405744,1.46265 C342.206789,1.70915 338.939948,1.82165 339.36188,2.18415 L341.061097,2.05665 C341.093473,2.11315 340.477285,2.20315 340.949347,2.25465" id="Fill-61" fill="#231815"></path>
                            <path d="M346.219217,0.94215 L346.820783,0.91765 C346.134621,0.88315 345.64376,0.80415 344.739321,0.64915 C343.737755,0.74565 343.529922,0.81915 343.459948,0.88515 L346.424961,0.91265 L346.219217,0.94215 Z" id="Fill-63" fill="#231815"></path>
                            <path d="M349.5247,0.91675 C349.054726,1.13225 347.608251,1.22375 348.49389,1.45725 C350.260992,1.44225 349.731488,1.27725 350.787363,1.18375 C347.936188,1.23725 351.606162,1.06325 349.546632,0.94125 C350.107467,0.90475 350.610862,0.89375 351.086057,0.88475 C350.573264,0.85825 350.078225,0.82575 349.611384,0.78625 C349.637493,0.79125 349.656292,0.79475 349.67718,0.79975 L349.690757,0.79875 C349.690757,0.80025 349.687624,0.80075 349.687624,0.80225 C349.809817,0.82925 349.850548,0.84525 349.712689,0.82975 C349.70329,0.83275 349.668825,0.83325 349.653159,0.83425 C349.633316,0.86425 349.581097,0.89025 349.5247,0.91575 C348.69859,0.87125 349.394151,0.85975 349.653159,0.83425 C349.662559,0.82375 349.684491,0.81325 349.687624,0.80225 C349.684491,0.80125 349.680313,0.80025 349.67718,0.79975 L346.820783,0.91725 C347.425483,0.94775 348.182663,0.94125 349.5247,0.91675" id="Fill-65" fill="#231815"></path>
                            <path d="M363.857546,1.99755 C363.768773,1.97855 363.77295,1.96305 363.76564,1.94755 C363.580783,1.97405 363.510809,1.99205 363.857546,1.99755" id="Fill-67" fill="#231815"></path>
                            <path d="M362.681567,1.86745 C362.889399,1.83745 363.062768,1.75145 363.738486,1.77345 C364.323342,1.83795 363.735352,1.87695 363.76564,1.94745 C364.17295,1.89045 365.189138,1.79295 363.913943,1.68845 L363.711332,1.71745 C362.562507,1.64345 361.0847,1.37495 361.285222,1.34545 C361.62047,1.53895 361.917076,1.67745 362.681567,1.86745" id="Fill-69" fill="#231815"></path>
                            <path d="M356.021514,1.447 L353.643446,1.5525 L354.85389,1.739 L354.792272,1.627 C356.144752,1.671 355.853368,1.533 356.021514,1.447" id="Fill-71" fill="#231815"></path>
                            <polygon id="Fill-73" fill="#231815" points="343.034047 0.7759 343.350496 0.5484 341.976084 0.8694"></polygon>
                            <polygon id="Fill-75" fill="#231815" points="339.943708 0.8032 340.057546 0.6052 339.24188 0.7247"></polygon>
                            <path d="M165.531697,3.2583 L164.833003,3.3143 C165.163029,3.2973 165.376084,3.2783 165.531697,3.2583" id="Fill-77" fill="#231815"></path>
                            <path d="M170.591436,3.27175 L170.715718,3.17425 C170.480731,3.22825 170.384648,3.26775 170.591436,3.27175" id="Fill-79" fill="#231815"></path>
                            <path d="M264.036031,0.82545 C263.017755,0.64045 261.881462,0.35395 262.0047,0.57645 L262.316971,0.79345 C263.028198,0.75445 263.573368,0.77895 264.036031,0.82545" id="Fill-81" fill="#231815"></path>
                            <path d="M212.050235,2.1206 C212.147363,2.1416 212.247624,2.1641 212.347885,2.1866 C212.59436,2.1121 212.828303,2.0436 213.035091,1.9791 C212.73953,2.0236 212.403238,2.0706 212.050235,2.1206" id="Fill-83" fill="#231815"></path>
                            <path d="M211.332219,3.0183 L209.990183,2.8783 C210.29201,2.9273 210.723342,2.9738 211.332219,3.0183" id="Fill-85" fill="#231815"></path>
                            <path d="M137.899321,3.4883 L137.083655,3.7093 C138.359896,3.7078 137.798016,3.5968 137.899321,3.4883" id="Fill-87" fill="#231815"></path>
                            <path d="M308.288773,0.88305 C307.410444,0.79855 306.710705,0.76255 306.096606,0.75205 C307.155614,0.87655 308.008877,1.06355 308.288773,0.88305" id="Fill-89" fill="#231815"></path>
                            <path d="M167.522507,0.9563 C167.095352,0.9958 166.912585,1.0398 166.925117,1.0883 C167.364804,1.0508 167.613368,1.0093 167.522507,0.9563" id="Fill-91" fill="#231815"></path>
                            <path d="M303.559478,0.75295 C303.714047,0.77445 303.866527,0.78545 304.02423,0.80395 C304.666527,0.76745 305.313003,0.73845 306.097337,0.75245 C305.316136,0.65945 304.420052,0.60245 303.559478,0.75295" id="Fill-93" fill="#231815"></path>
                            <path d="M37.6845953,3.3086 C37.6114883,3.2986 37.5237598,3.2941 37.4579634,3.2826 C37.4360313,3.3121 37.5362924,3.3136 37.6845953,3.3086" id="Fill-95" fill="#231815"></path>
                            <path d="M8.48866841,1.11965 C8.77587467,1.10615 9.24480418,1.10615 9.68762402,1.10315 C9.47143603,1.08815 9.11007833,1.08965 8.48866841,1.11965" id="Fill-97" fill="#231815"></path>
                            <path d="M327.50799,0.7085 C328.163864,0.6945 327.612428,0.6845 327.50799,0.7085" id="Fill-99" fill="#231815"></path>
                            <path d="M330.696188,1.5664 C330.55624,1.5909 330.450757,1.6219 330.434047,1.6719 C330.488355,1.6194 330.579217,1.5864 330.696188,1.5664" id="Fill-101" fill="#231815"></path>
                            <path d="M297.029974,2.10305 C297.011175,2.10305 296.996554,2.10255 296.973577,2.10255 C297.168877,2.14455 297.135457,2.13655 297.029974,2.10305" id="Fill-103" fill="#231815"></path>
                            <path d="M328.494204,0.80715 C328.248773,0.78065 327.9647,0.75815 327.655561,0.74265 C327.791332,0.75965 328.046162,0.78065 328.494204,0.80715" id="Fill-105" fill="#231815"></path>
                            <path d="M328.361567,0.7046 C328.588198,0.7146 328.765744,0.7196 328.934935,0.7256 C329.017441,0.6896 328.944334,0.6666 328.361567,0.7046" id="Fill-107" fill="#231815"></path>
                            <path d="M326.595091,0.7202 C326.968982,0.7167 327.318851,0.7272 327.656188,0.7427 C327.527728,0.7282 327.47342,0.7157 327.507885,0.7087 C327.315718,0.7117 327.044178,0.7162 326.595091,0.7202" id="Fill-109" fill="#231815"></path>
                            <path d="M91.3802611,2.72805 C91.3363969,2.72105 91.2873107,2.71705 91.2392689,2.70755 C90.5781723,2.79755 90.8685117,2.78305 91.3802611,2.72805" id="Fill-111" fill="#231815"></path>
                            <path d="M246.975979,3.0781 C247.006266,3.0761 247.022977,3.0701 247.050131,3.0676 C247.019843,3.0656 246.981201,3.0626 246.954047,3.0601 L246.975979,3.0781 Z" id="Fill-113" fill="#231815"></path>
                            <path d="M244.620992,3.23975 C245.623603,2.96975 246.193838,3.00275 246.953107,3.06025 L246.173995,2.43475 L244.620992,3.23975 Z" id="Fill-115" fill="#231815"></path>
                            <path d="M84.3785901,1.1045 L84.8099217,1.1675 C83.8355091,1.237 84.108094,1.1745 84.3785901,1.1045 M322.541514,1.0095 C322.762924,0.976 322.748303,0.9425 322.654308,0.9085 C322.498695,0.9695 322.001567,0.974 321.434465,0.957 C321.591123,1.02 321.878329,1.0635 322.541514,1.0095 M320.323238,0.905 C320.30235,0.9085 320.287728,0.9115 320.272063,0.9165 C319.203655,0.8225 319.582768,0.8595 320.323238,0.905 M215.688251,2.584 C215.332115,2.664 214.781723,2.6245 214.160313,2.533 C214.611488,2.5135 215.121149,2.5225 215.688251,2.584 M178.126893,3.165 C177.64752,3.2155 176.69295,3.372 176.343081,3.2295 C176.888251,2.953 177.310183,3.0855 178.126893,3.165 M153.41671,3.321 L155.071018,3.5155 C153.075196,3.8365 151.631854,3.726 153.182768,4 C153.41671,3.321 159.609922,3.9305 159.839687,3.252 L160.930026,3.395 C160.617755,3.388 160.567624,3.428 160.258486,3.4215 C162.37859,3.7465 161.83342,2.9305 164.564491,3.027 C165.515927,3.079 166.181201,3.1775 165.531593,3.2585 L167.652742,3.0905 C168.269974,3.1035 168.118538,3.2215 167.504439,3.2085 L170.738903,3.1545 L170.714883,3.1745 C171.176501,3.0675 172.222977,2.903 172.733681,2.833 C173.555614,2.9305 172.321149,2.905 172.53107,2.99 L174.323238,2.825 C175.052219,3.001 173.567102,3.172 172.330548,3.1465 C174.002611,3.8245 173.81671,2.976 177.42611,3.372 L175.735248,3.458 C176.825587,3.8435 178.145692,3.7035 180.057963,3.944 C179.603655,3.8185 176.229243,3.3385 178.17389,3.1695 C178.721149,3.2205 179.443864,3.245 180.492428,3.1085 C180.501828,3.35 181.526371,3.2905 182.806789,3.277 L182.720104,3.5965 C184.104961,3.5045 183.9953,3.3415 184.810966,3.1975 C186.354569,3.229 186.674151,3.477 187.037598,3.6855 C189.510705,3.7365 185.33107,3.2885 188.257441,3.228 C190.313838,3.3505 191.75718,3.2195 194.21671,3.0285 C195.655875,3.1385 193.966057,3.224 194.481984,3.3155 L195.758225,3.0605 C196.069452,3.0665 195.969191,3.145 195.918016,3.1845 C196.992689,3.0855 196.006789,2.865 197.696606,2.778 C198.151958,2.4255 201.166057,3.2925 203.257963,2.8925 C203.772846,2.9835 203.008355,3.0885 203.166057,3.2125 C206.036031,2.95 205.626632,3.0215 207.982768,2.6685 L209.990078,2.8785 C208.515405,2.638 210.400522,2.354 212.050653,2.1205 C211.527415,2.0045 211.080418,1.903 210.780679,1.8545 L213.413577,1.683 C213.732115,1.7355 213.466841,1.8455 213.035509,1.979 C213.215144,1.9525 213.385379,1.9265 213.518016,1.9025 C214.460052,2.0205 213.971279,2.205 213.296606,2.384 C212.975979,2.321 212.657441,2.2535 212.348303,2.1865 C211.69765,2.381 211.088773,2.596 211.224543,2.783 C211.395822,2.7465 211.724804,2.7145 212.088251,2.697 C211.918016,2.7495 211.808355,2.7965 211.887728,2.8285 C211.976501,2.8625 212.252219,2.7915 212.682507,2.71 L213.28094,3.0665 L213.427154,2.925 L216.873629,3.148 C219.338381,2.789 221.483551,2.261 225.397911,2.1135 C224.426632,2.375 225.189034,2.5405 225.13577,2.8505 C224.067363,2.5225 222.104961,2.99 220.075718,2.923 C221.134726,2.9575 220.901828,3.105 220.632376,3.1565 L224.250131,2.8585 C224.168668,3.112 225.018799,3.0485 225.963969,3.153 C225.248564,2.6525 228.660574,2.8195 230.132115,2.666 C230.222977,2.834 229.869974,3.006 228.074674,2.9655 C230.055875,3.3425 230.635509,2.377 232.580157,2.6975 C232.141514,2.7015 231.904439,2.676 231.73107,2.761 C232.755614,2.612 235.259008,2.73 234.671018,2.8765 L234.23342,2.88 C237.144125,2.9395 243.093995,2.884 243.52846,2.4585 C243.558747,2.5135 243.147258,2.971 242.971802,3.057 L248.165535,1.626 C247.708094,1.9915 249.464752,2.8615 247.050131,3.0675 C247.743603,3.1195 248.601044,3.1805 250.062141,3.0515 C249.589034,2.9995 248.884073,2.5235 249.529504,2.49 C251.303916,2.8965 250.760836,2.7075 252.947781,3.054 C252.238642,2.976 253.02611,2.403 254.145692,2.4215 C253.971279,2.507 254.239687,2.987 253.830287,3.0465 L256.617755,2.484 C255.921149,2.5855 256.494517,2.9605 257.11906,3.1195 C256.829765,3.0095 259.529504,3.13 260.271018,3.074 L259.090862,2.944 C262.237598,3.029 262.198956,2.153 265.321671,2.1825 C264.943603,2.299 264.38799,2.8975 265.975457,2.9685 C266.704439,2.68 269.198433,1.583 271.96188,1.3615 L272.491384,1.526 L274.611488,1.3385 C273.291384,1.7715 269.586945,2.6835 267.565013,3.0385 C268.742037,3.1685 267.891906,3.2325 269.656919,3.2175 C270.279373,3.372 268.695039,3.4515 268.175979,3.4605 L272.282507,3.5605 C272.100783,3.224 275.422977,3.223 275.267363,2.943 L270.805744,3.2915 C270.62611,2.956 273.385379,2.3375 276.295039,2.3965 C277.035509,2.5305 275.741514,2.995 275.803133,3.107 C276.180157,2.9915 278.564491,2.886 278.831854,2.9685 L277.596345,3.148 C279.217232,3.2745 280.241775,2.7025 282.187467,3.023 C282.859008,3.0445 284.193734,3.456 284.309661,3.257 C283.214099,2.8735 283,1.687 283.730026,1.399 C283.966057,1.425 287.257963,1.7655 288.025587,1.955 C289.131593,2.256 286.365013,2.672 287.306005,2.93 C287.346736,2.8385 287.957702,2.725 288.212533,2.6885 C288.918538,2.767 287.921149,2.973 289.454308,2.9315 C289.710183,2.591 292.572846,2.9605 290.179112,2.6435 C291.678851,2.546 291.77389,2.7135 293.533681,2.6985 C292.97389,2.4785 295.115927,1.949 296.617755,1.852 C296.528982,1.9385 296.867363,2.0515 297.030287,2.103 C300.104961,2.134 301.755091,2.2885 304.621932,2.2915 C304.886162,2.374 306.26893,2.474 305.68094,2.6205 C306.093473,2.5605 306.472585,2.445 307.356136,2.4365 C309.066841,2.731 305.385379,2.4825 306.689817,2.8365 C306.800522,2.6385 308.975979,2.563 310.235509,2.4395 C309.848042,2.1335 307.324804,2.381 306.06423,2.5045 C306.057963,2.0825 308.254308,1.6405 311.250653,1.4455 C313.631854,1.341 312.282507,1.7185 312.697128,1.658 C317.169191,1.732 316.50705,0.9215 320.221932,1.226 C321.695561,1.4945 320.287728,1.7605 320.615666,1.9545 C318.674151,2.0565 317.636031,1.784 316.321149,1.7945 L317.939948,1.922 C317.322715,2.011 316.028721,2.079 315.322715,2.001 C316.558225,2.2425 322.879896,2.0475 326.330548,2.2705 C326.943603,2.1805 328.002611,2.087 327.50235,1.979 L326.410966,2.0165 C325.406266,1.8 328.46423,1.717 327.082507,1.6155 C328.547781,1.463 330.189556,1.2235 332.251175,1.346 L332.638642,1.653 C332.594778,1.563 331.291384,1.47 330.711749,1.5635 C331.571279,1.4275 333.874151,1.9785 334.815144,1.577 L333.370757,1.365 C334.841253,1.2105 336.658486,0.8855 338.486162,0.982 C337.65483,0.679 338.065274,1.0165 336.767102,0.6625 C337.89295,1.103 332.091384,0.644 333.900261,1.107 C332.567624,0.696 331.593211,0.9325 329.852219,0.582 C329.905483,0.683 330.468407,0.7755 328.935248,0.7255 C328.865274,0.755 328.70235,0.7925 328.597911,0.8145 C328.550914,0.812 328.534204,0.8105 328.494517,0.807 C328.524804,0.811 328.547781,0.8155 328.579112,0.819 C328.512272,0.834 328.506005,0.8375 328.610444,0.8235 C328.975979,0.8675 329.272585,0.9205 329.391645,0.977 C328.631332,1.209 326.191645,1.202 325.36658,1.322 C324.455875,1.274 325.746736,1.206 325.249608,1.098 L324.017232,1.278 C323.895039,1.053 321.598433,0.905 323.743603,0.773 L321.812533,0.763 C320.67624,0.637 319.112794,0.587 318.148825,0.6815 C317.23812,0.633 315.849086,0.93 316.64282,0.7545 L313.616188,0.8935 L313.586945,0.8375 C310.601044,0.809 307.439687,1.209 304.024543,0.804 C303.018799,0.8605 301.979634,0.93 300.297128,0.866 L299.969191,0.672 C298.678329,0.74 296.091384,0.4775 295.536815,0.68 C294.144648,0.157 289.27154,0.566 287.001044,0.473 L286.915405,0.727 C285.351958,0.7125 283.854308,0.7845 281.913838,0.886 L282.032898,1.1105 C280.360836,1.2945 277.732115,0.951 275.086684,0.974 C275.267363,0.888 275.936815,0.9105 276.413055,0.9625 C273.251697,0.456 269.743603,1.331 266.877807,0.962 C266.162402,1.0435 265.645431,1.0155 265.144125,0.959 C265.210966,0.9585 265.27154,0.9545 265.321671,0.9475 C265.248564,0.945 265.139948,0.9445 265.028198,0.945 C264.712794,0.9065 264.38799,0.8615 264.036031,0.8255 C264.33577,0.88 264.621932,0.925 264.87154,0.9455 C264.320104,0.95 263.484595,0.978 262.664752,1.034 L262.315927,0.7935 C262.250131,0.7965 262.195822,0.796 262.127937,0.8005 C261.32376,0.7115 261.481462,0.9145 261.909661,1.0955 C261.497128,1.135 261.120104,1.1825 260.826632,1.2405 C260.17389,0.852 258.677285,1.3715 257.787467,0.957 C257.234987,1.159 253.669452,1.109 253.232898,1.5345 C253.2047,1.479 252.963446,1.4525 253.405222,1.449 C252.492428,1.4005 251.579634,1.3525 250.760836,1.472 L250.373368,1.166 L248.380679,1.5775 C247.169191,1.391 246.666841,1.2825 247.86893,1.047 C244.965535,1.4095 245.513838,1.1835 243.04282,1.5425 L243.163969,1.3445 C242.281462,1.3525 240.869452,1.6175 240.337859,1.454 C238.362924,1.0775 230.56658,1.402 225.498172,1.0525 C226.48094,1.635 223.140992,0.791 222.939426,1.2425 C222.644909,1.105 221.937859,1.027 222.759791,0.907 C220.172846,1.0425 218.872585,0.6885 217.086684,1.0695 C216.791123,0.931 217.640209,0.8675 217.377023,0.7855 C217.169191,0.8155 216.555091,0.9055 216.28564,0.8235 C216.02141,0.741 216.664752,0.7075 217.074151,0.6475 C214.431854,0.6705 214.164491,1.0955 213.971279,1.494 C212.632376,1.3055 211.965013,1.332 210.997911,1.5935 C210.532115,1.463 209.753003,1.3265 211.395822,1.28 C210.47154,1.2605 205.751958,1.0885 205.657963,1.408 C205.368668,1.327 204.367102,1.3845 204.12376,1.4215 C202.050653,1.4025 201.86893,1.3735 199.83342,1.404 L200.397389,1.456 C199.594256,1.8415 198.705483,1.542 197.064752,1.5885 L197.111749,1.549 C193.348825,1.271 195.487728,1.682 191.775979,1.365 L191.977546,1.6045 C191.630809,2.1205 188.688773,1.3005 186.534204,1.4975 L187.312272,1.6345 C186.135248,1.811 184.023499,0.933 182.841253,0.8685 C182.584334,0.8235 183.248564,0.7965 183.607833,0.7635 C180.51436,0.459 183.206789,1.0775 180.901828,1.1505 C180.476762,0.981 181.450131,0.7195 179.898172,0.688 C179.125326,0.551 175.397911,1.2385 173.28094,0.9135 C173.747781,1.044 174.210444,1.1745 173.139948,1.2725 C171.498172,1.319 168.703394,0.779 167.22141,1.1905 C167.012533,1.155 166.933159,1.1205 166.924804,1.088 C165.670496,1.1945 162.84752,1.2645 162.092428,1.488 C160.933159,0.6595 154.29295,1.8905 154.321149,1.1265 L150.462141,1.1675 L150.563446,1.0895 C148.096606,1.039 147.224543,1.222 146.356658,1.4055 C145.786423,1.3535 146.203133,1.282 146.250131,1.242 C142.646997,1.088 142.287728,1.1205 139.266319,1.501 L138.951958,1.2535 C138.133159,1.3975 133.741514,0.865 130.206266,1.154 C130.241775,1.1255 130.313838,1.0775 130.594778,1.0425 C126.617755,1.3335 121.074151,0.355 119.616188,1.258 L116.992689,1.48 C120.38799,1.5505 116.486162,1.872 117.883551,2.0215 C116.547781,2.0745 114.430809,1.7495 116.07154,1.703 L116.32846,1.7485 C116.93107,1.278 112.109138,1.5815 112.201044,1.261 C105.51906,1.2845 99.0073107,1.024 92.7493473,1.004 L93.4699739,1.3695 L91.2872063,1.3485 C90.7138381,1.2635 90.5174935,1.0625 92.075718,1.0775 C91.2558747,0.8705 89.4637076,1.251 89.418799,1.331 C86.3691906,1.1825 90.6093995,0.9045 89.6746736,0.8955 L88.4046997,0.923 L88.6908616,0.9655 C87.662141,1.115 87.570235,1.2735 85.6986945,1.2555 C84.5143603,1.182 85.0908616,1.03 84.6250653,1.0155 C84.627154,0.99 84.4694517,0.9775 83.9096606,1.005 L81.1587467,0.974 L82.2584856,1.2625 C81.0396867,1.405 79.6725849,1.2475 80.9415144,1.5745 C79.0793734,1.0705 70.6825065,1.3935 69.5389034,1.237 C67.8313316,1.4475 66.1456919,1.444 64.0579634,1.4185 C64.5770235,1.4785 64.8872063,1.803 63.0866841,1.7635 C63.7456919,1.0935 59.7895561,1.4725 58.3347258,0.9905 C59.6349869,1.3105 53.2151436,1.0695 55.2558747,1.5235 C53.7530026,1.469 55.1639687,1.2725 54.0245431,1.115 C50.448564,1.3745 46.1436031,0.9465 41.7227154,1.034 C41.6537859,1.122 42.3942559,1.2565 41.445953,1.387 L39.1117493,0.9475 C38.2396867,0.9905 38.3086162,1.455 36.7138381,1.15 C36.9383812,1.224 37.2746736,1.3355 36.6887728,1.3635 C28.029765,0.935 18.9937337,1.7145 10.2,0.9095 C11.3906005,1.08 10.5968668,1.0965 9.68720627,1.103 C10.278329,1.144 9.67362924,1.3205 9.79060052,1.4395 L6.10809399,1.1085 C5.43759791,1.439 2.1613577,1.131 1.7770235,1.447 L2.94255875,1.39 C1.3926893,1.7635 5.11279373,2.2195 4.88511749,2.6985 C6.62193211,2.2745 9.46370757,3.327 12.3117493,2.7195 C12.94047,2.8175 11.7749347,2.874 12.1122715,2.985 C12.8339426,2.78 13.7060052,2.737 15.321671,2.829 L15.1389034,2.88 C19.6788512,2.83 21.6255875,3.032 26.7253264,3.167 L26.3472585,2.93 C27.4428198,2.962 27.6746736,3.036 28.1874674,3.0955 C29.4449086,2.7365 25.1096606,3.075 26.2553525,2.679 C27.7091384,3.161 33.983812,2.6865 34.9655352,3.234 C36.6522193,3.237 34.4715405,2.96 36.1571802,2.963 L36.6041775,3.1115 L37.0302872,2.9205 C38.135248,2.952 38.6929504,3.137 38.7336815,3.2625 C38.4663185,3.248 37.9712794,3.298 37.6851175,3.3085 C39.1180157,3.483 41.7258486,3.249 42.2177546,3.306 L40.5989556,3.2145 C45.1994778,3.076 50.8172324,3.2705 55.262141,2.969 L54.9248042,2.8575 C58.3190601,2.6505 57.643342,2.98 61.3707572,2.8845 L61.2349869,2.911 C61.9817232,2.8 62.9770235,2.7435 63.997389,2.7565 C63.0563969,2.887 65.7686684,3.011 64.5342037,3.1555 C68.2146214,2.9335 66.3545692,2.981 68.7859008,2.566 L69.3456919,2.751 C70.1749347,2.5835 70.2438642,2.495 72.1060052,2.447 C70.5791123,2.606 73.2934726,2.7295 71.583812,2.94 C75.4887728,3.3455 77.3832898,2.5305 79.1754569,3.1235 C80.9686684,2.6105 75.7947781,2.8385 76.7994778,2.729 C75.9577023,2.561 78.2804178,2.345 79.505483,2.3965 C80.7535248,2.408 81.6276762,3.053 84.7660574,3.0435 C84.4537859,3.041 84.4328982,3.08 84.1206266,3.0775 C85.2955614,3.2085 86.4224543,2.9005 87.8637076,3.113 C88.6710183,2.8025 89.7342037,3.131 89.9671018,2.735 L87.0877285,2.8265 C88.7201044,2.723 90.2501305,2.26 92.9394256,2.4845 C92.7305483,2.5645 91.9295039,2.6695 91.3801567,2.728 C92.1665796,2.8445 92.894517,2.6505 93.7091384,2.7705 C93.4762402,3.167 90.2104439,2.8565 88.4610966,3.1585 C89.3049608,3.326 91.7697128,2.872 90.8903394,3.301 C92.154047,2.7555 93.9827676,3.3695 96.1091384,2.953 L95.9691906,3.1905 C96.3044386,3.153 97.0020888,3.041 97.6214099,3.047 L96.4997389,3.3545 C98.2208877,3.0925 99.8177546,3.584 101.467885,3.4415 C98.0120104,3.4485 100.69295,3.1555 99.2318538,2.9825 C103.493995,2.665 101.681984,3.603 106.45483,3.4895 C105.809399,3.5225 104.028721,3.3465 105.039687,3.237 C105.948303,3.2855 107.148303,3.3765 107.704961,3.501 C110.867363,3.452 107.220366,3.257 108.565535,3.1115 C109.642298,3.4005 110.118538,2.9935 111.504439,2.901 L111.513838,3.1425 C115.118016,3.297 112.469452,2.6395 115.713316,2.8265 L114.342037,3.161 L116.033943,3.0745 L115.685117,3.349 C117.524282,3.1455 118.09765,3.198 119.900261,3.275 C119.481462,3.105 120.135248,2.8375 121.73107,2.83 C122.820366,2.973 121.122193,3.059 123.384334,3.0245 C122.873629,3.1755 122.313838,3.365 121.328982,3.143 C121.228721,3.2215 120.825587,3.294 120.722193,3.372 C121.893995,3.5365 123.667363,3.4095 124.486162,3.407 C124.171802,3.398 123.794778,3.3855 123.601567,3.351 L126.879896,3.0165 C127.395822,3.107 126.986423,3.18 126.581201,3.251 C127.245431,3.225 127.704961,3.1145 128.681462,3.0935 C128.428721,3.2895 128.489295,3.492 127.107572,3.584 L130.231332,3.3665 C130.440209,3.452 131.834465,3.601 131.429243,3.673 C133.16188,3.7885 135.678851,3.2925 137.974413,3.445 C138.094517,3.4065 138.333681,3.3705 138.82141,3.3425 C140.980157,3.3865 142.892428,3.627 145.451175,3.3585 L146.901828,3.71 C148.906005,3.63 144.937337,3.267 148.273107,3.1345 C150.634465,3.0225 149.154569,3.4345 149.982768,3.532 C151.157702,3.355 153.199478,2.9945 155.369713,3.2805 C154.651175,3.3465 154.088251,3.2945 153.41671,3.321" id="Fill-117" fill="#231815"></path>
                            <path d="M211.429138,2.9143 C211.293368,2.8733 211.25577,2.8288 211.224439,2.7833 C211.036449,2.8238 211.032272,2.8708 211.429138,2.9143" id="Fill-119" fill="#231815"></path>
                            <path d="M138.050235,3.4475 C138.02517,3.4455 138.000104,3.4465 137.975039,3.445 C137.933264,3.459 137.911332,3.474 137.898799,3.4885 L138.050235,3.4475 Z" id="Fill-121" fill="#231815"></path>
                            <path d="M288.187467,3.0547 C287.73107,3.0202 287.475196,2.9757 287.306005,2.9302 C287.281984,2.9892 287.488773,3.0392 288.187467,3.0547" id="Fill-123" fill="#231815"></path>
                            <path d="M334.292428,0.5996 L332.872063,0.6621 C333.559269,0.6506 333.8047,0.7031 334.151436,0.7416 C334.120104,0.6851 333.848564,0.6036 334.292428,0.5996" id="Fill-125" fill="#231815"></path>
                            <path d="M346.623081,2.0923 C346.830914,2.0628 347.063812,2.0893 347.267467,2.0593 L347.21107,1.9468 C346.32752,1.9543 345.709243,2.0448 346.623081,2.0923" id="Fill-127" fill="#231815"></path>
                            <path d="M335.608042,1.4011 C335.719791,1.6041 336.611697,1.5351 337.606997,1.4976 C337.546423,1.4981 337.490026,1.5001 337.430496,1.4976 C337.723969,1.2136 336.663916,1.3076 335.608042,1.4011" id="Fill-129" fill="#231815"></path>
                            <path d="M337.837598,1.4907 C338.144648,1.4812 338.457963,1.4757 338.757702,1.4857 C338.873629,1.3717 338.383812,1.4617 337.837598,1.4907" id="Fill-131" fill="#231815"></path>
                            <path d="M325.353943,0.875 C325.824961,0.927 325.649504,0.6155 325.916867,0.698 C326.443238,0.44 322.770131,1.0105 325.353943,0.875" id="Fill-133" fill="#231815"></path>
                            <polygon id="Fill-135" fill="#231815" points="336.413786 2.0696 336.056606 1.8191 335.498903 2.0211"></polygon>
                            <path d="M328.556449,1.88575 L330.146005,1.95525 C330.121984,1.91325 330.324595,1.88825 330.573159,1.86975 C329.59248,1.86125 328.518851,1.81175 328.556449,1.88575" id="Fill-137" fill="#231815"></path>
                            <path d="M330.572742,1.86965 C331.082402,1.87465 331.568042,1.86915 331.853159,1.82815 C331.576397,1.83065 330.982141,1.83915 330.572742,1.86965" id="Fill-139" fill="#231815"></path>
                            <polygon id="Fill-141" fill="#231815" points="334.240418 2.1448 333.770444 2.0928 332.647728 2.0743"></polygon>
                            <path d="M311.463812,1.8374 L309.729086,1.9094 C309.55154,1.9949 310.024648,2.0474 310.671123,2.0134 C311.086789,1.9534 311.730131,1.9204 311.463812,1.8374" id="Fill-143" fill="#231815"></path>
                            <path d="M316.712272,2.52345 C316.243342,2.47145 316.21201,2.41545 315.946736,2.33295 L315.894517,2.64345 L316.712272,2.52345 Z" id="Fill-145" fill="#231815"></path>
                            <path d="M311.651384,2.59595 C311.478016,2.68195 309.133368,2.84345 311.331802,2.82395 C311.508303,2.73845 313.246162,2.66695 311.651384,2.59595" id="Fill-147" fill="#231815"></path>
                            <polygon id="Fill-149" fill="#231815" points="285.504021 2.20315 285.945796 2.19915 285.881044 1.69015"></polygon>
                            <path d="M262.458172,3.4214 C264.514569,3.5434 262.946945,3.1074 264.804909,3.2594 C265.287415,3.1394 263.285326,3.1354 263.78141,3.0314 C262.539634,3.1584 261.887937,3.0864 262.458172,3.4214" id="Fill-151" fill="#231815"></path>
                            <path d="M263.780992,3.03125 C263.979426,3.01125 264.190392,2.98675 264.41389,2.95375 C264.054621,2.98575 263.885431,3.01025 263.780992,3.03125" id="Fill-153" fill="#231815"></path>
                            <polygon id="Fill-155" fill="#231815" points="3.64417755 0.8462 2.32198433 0.7402 3.17524804 0.9112"></polygon>
                            <g id="Group-159" transform="translate(0.000000, 0.500000)">
                                <mask id="mask-4" fill="white">
                                    <use xlink:href="#path-3"></use>
                                </mask>
                                <g id="Clip-158"></g>
                                <path d="M1.10558747,0.7239 L0.794360313,0.3994 L-0.000417754569,0.6929 C0.299321149,0.6789 0.878955614,0.6509 1.10558747,0.7239" id="Fill-157" fill="#231815" mask="url(#mask-4)"></path>
                            </g>
                            <g id="Group-162" transform="translate(180.678851, 3.500000)">
                                <mask id="mask-6" fill="white">
                                    <use xlink:href="#path-5"></use>
                                </mask>
                                <g id="Clip-161"></g>
                                <path d="M1.12083551,0.31885 L1.22214099,0.24085 C1.01639687,0.15635 0.707258486,0.14985 0.0868929504,0.13685 L1.12083551,0.31885 Z" id="Fill-160" fill="#231815" mask="url(#mask-6)"></path>
                            </g>
                            <polygon id="Fill-163" fill="#231815" points="163.865692 3.57595 164.17483 3.58245 163.597285 3.28895"></polygon>
                            <g id="Group-167" transform="translate(148.302872, 3.500000)">
                                <mask id="mask-8" fill="white">
                                    <use xlink:href="#path-7"></use>
                                </mask>
                                <g id="Clip-166"></g>
                                <path d="M0.511436031,0.4502 C1.12553525,0.4622 1.84720627,0.3972 2.46443864,0.4092 C1.12553525,0.4622 0.34537859,0.0842 0.511436031,0.4502" id="Fill-165" fill="#231815" mask="url(#mask-8)"></path>
                            </g>
                        </g>
                    </g>
                </g>
            </g>
        </g>
    </g>
</svg>