<?xml version="1.0" encoding="UTF-8"?>
<svg width="66px" height="55px" viewBox="0 0 66 55" version="1.1" xmlns="http://www.w3.org/2000/svg" xmlns:xlink="http://www.w3.org/1999/xlink">
    <!-- Generator: Sketch 41.1 (35376) - http://www.bohemiancoding.com/sketch -->
    <title>footer_man</title>
    <desc>Created with Sketch.</desc>
    <defs>
        <polygon id="path-1" points="0 54.6010246 65.7676438 54.6010246 65.7676438 0.450819672 0 0.450819672"></polygon>
    </defs>
    <g id="Page-1" stroke="none" stroke-width="1" fill="none" fill-rule="evenodd">
        <g id="Artboard" transform="translate(-602.000000, -528.000000)">
            <g id="footer_man" transform="translate(602.000000, 528.000000)">
                <path d="M35.0746151,13.5189549 C35.0746151,14.6189549 34.076026,15.5102254 32.8437247,15.5102254 C31.6118753,15.5102254 30.6132863,14.6189549 30.6132863,13.5189549 C30.6132863,12.4189549 31.6118753,11.5267828 32.8437247,11.5267828 C34.076026,11.5267828 35.0746151,12.4189549 35.0746151,13.5189549 Z" id="Fill-1" fill="#EFCBB0"></path>
                <path d="M15.1828932,13.5189549 C15.1828932,14.6189549 14.1847562,15.5102254 12.9524548,15.5102254 C11.7206055,15.5102254 10.7224685,14.6189549 10.7224685,13.5189549 C10.7224685,12.4189549 11.7206055,11.5267828 12.9524548,11.5267828 C14.1847562,11.5267828 15.1828932,12.4189549 15.1828932,13.5189549" id="Fill-3" fill="#EFCBB0"></path>
                <path d="M12.855489,9.47127049 C12.855489,9.47127049 12.129489,24.0444672 22.1913247,25.1467213 C22.1913247,25.1467213 28.579311,25.9126639 31.4792425,19.0809426 C34.3800781,12.2492213 32.5858726,4.78905738 28.8564205,3.26032787 C28.8564205,3.26032787 23.9448452,1.10135246 18.8099548,3.11065574 C13.6755164,5.12040984 12.855489,9.47127049 12.855489,9.47127049" id="Fill-5" fill="#F0D8B6"></path>
                <path d="M28.1560521,18.3525082 L28.5895726,19.2920164 C28.6506,19.4218525 28.8178603,19.4831639 28.9620658,19.4299672 C29.1076274,19.3763197 29.1772438,19.2275492 29.1162164,19.0968115 L28.6826959,18.1577541 C28.6225726,18.0292705 28.4562164,17.9670574 28.3115589,18.0202541 C28.1664493,18.0739016 28.0959288,18.2226721 28.1560521,18.3525082" id="Fill-7" fill="#F2A188"></path>
                <path d="M27.3053753,18.6659631 L27.7393479,19.6050205 C27.7994712,19.7353074 27.9667315,19.7970697 28.1100329,19.7434221 C28.2564986,19.6902254 28.325211,19.5419057 28.2641836,19.4107172 L27.830663,18.4721107 C27.7705397,18.343627 27.6055397,18.2805123 27.459526,18.3350615 C27.3148685,18.3873566 27.2452521,18.5365779 27.3053753,18.6659631" id="Fill-9" fill="#F2A188"></path>
                <path d="M16.7668479,17.8840615 L17.2008205,18.8235697 C17.2613959,18.9538566 17.4286562,19.0147172 17.5733137,18.9610697 C17.7184233,18.9074221 17.7880397,18.7591025 17.7274644,18.6283648 L17.2939438,17.6897582 C17.2338205,17.560373 17.0679164,17.4986107 16.9228068,17.5518074 C16.7772452,17.6054549 16.7071767,17.7542254 16.7668479,17.8840615" id="Fill-11" fill="#F2A188"></path>
                <path d="M15.9165781,18.1970656 L16.3500986,19.1365738 C16.410674,19.2668607 16.5774822,19.3290738 16.7212356,19.2754262 C16.8677014,19.2213279 16.9359616,19.073459 16.8753863,18.9422705 L16.4414137,18.0036639 C16.3817425,17.8742787 16.2162904,17.8120656 16.0702767,17.8661639 C15.9260712,17.918459 15.8564548,18.0681311 15.9165781,18.1970656" id="Fill-13" fill="#F2A188"></path>
                <g id="Group-17" transform="translate(12.205479, 0.051844)" fill="#1C100C">
                    <path d="M20.8746247,11.5528852 C20.8746247,11.5528852 17.148789,9.1617377 16.3084192,4.56878689 C16.3084192,4.56878689 7.43865205,7.75608197 0.196282192,8.45936066 C0.196282192,8.45936066 1.40326849,1.94456557 8.85584384,0.631778689 C16.3084192,-0.680106557 20.9795014,3.63198361 20.8746247,11.5528852" id="Fill-15"></path>
                </g>
                <path d="M12.9270041,12.027373 C12.9270041,12.027373 15.2356479,8.55831557 15.8314562,6.96466803 L13.1019493,7.05888934 C13.1019493,7.05888934 12.2615795,9.74577459 12.9270041,12.027373" id="Fill-18" fill="#1C100C"></path>
                <path d="M29.2323493,12.8422746 C29.2499795,13.9715779 28.346774,14.901168 27.2121164,14.9192008 C26.0788151,14.9381352 25.1453219,14.0360451 25.1272397,12.9058402 C25.1100616,11.7774385 26.0132671,10.8451434 27.1470205,10.8271107 C28.280774,10.808627 29.2138151,11.7107172 29.2323493,12.8422746" id="Fill-20" fill="#FFFFFF"></path>
                <path d="M28.3361507,12.9078689 C28.3474521,13.5579508 27.827589,14.0917213 27.1766301,14.1029918 C26.5265753,14.1129098 25.9890822,13.5944672 25.9777808,12.9461885 C25.9687397,12.2970082 26.4872466,11.7609836 27.1395616,11.752418 C27.7900685,11.7406967 28.3266575,12.2586885 28.3361507,12.9078689" id="Fill-22" fill="#000000"></path>
                <path d="M20.8485863,12.9616066 C20.8657644,14.090459 19.9612027,15.0214016 18.8269973,15.0407869 C17.6941479,15.0583689 16.7615589,14.1558279 16.7416685,13.0265246 C16.7253945,11.8963197 17.6295041,10.965377 18.7619014,10.9459918 C19.8956548,10.9284098 20.8286959,11.8300492 20.8485863,12.9616066" id="Fill-24" fill="#FFFFFF"></path>
                <path d="M19.9523877,13.0285082 C19.963237,13.6758852 19.443374,14.2119098 18.791963,14.2227295 C18.1414562,14.234 17.603963,13.7142049 17.5940178,13.064123 C17.5827164,12.4162951 18.1030315,11.8820738 18.7539904,11.8726066 C19.4044973,11.8595328 19.9428945,12.3797787 19.9523877,13.0285082" id="Fill-26" fill="#000000"></path>
                <path d="M22.9450808,14.8397213 C23.0675877,16.5961148 22.4197932,17.9562377 22.4130123,17.9706639 C22.361026,18.077959 22.4084918,18.2010328 22.5196973,18.2483689 C22.6309027,18.293 22.7638068,18.242959 22.8157932,18.1365656 C22.8433685,18.0770574 23.5187384,16.6659918 23.3889986,14.7973443 C23.3813137,14.6819344 23.2755329,14.5967295 23.153026,14.6084508 C23.0300671,14.6201721 22.9373959,14.7238607 22.9450808,14.8397213" id="Fill-28" fill="#C4950B"></path>
                <mask id="mask-2" fill="white">
                    <use xlink:href="#path-1"></use>
                </mask>
                <g id="Clip-31"></g>
                <polygon id="Fill-30" fill="#603813" mask="url(#mask-2)" points="21.2361781 15.8100931 24.9104795 15.8100931 24.9104795 15.4297541 21.2361781 15.4297541"></polygon>
                <path d="M17.2824616,15.2509139 C17.2417767,15.2509139 17.2010918,15.2378402 17.1671877,15.2103402 L12.6918452,11.6195615 C12.6122836,11.5559959 12.599626,11.4401352 12.6633658,11.360791 C12.7266534,11.2814467 12.8432836,11.2688238 12.9223932,11.3328402 L17.3986397,14.9236189 C17.4777493,14.9871844 17.4904068,15.1034959 17.4262151,15.1823893 C17.3900507,15.2274713 17.3367082,15.2509139 17.2824616,15.2509139" id="Fill-32" fill="#603813" mask="url(#mask-2)"></path>
                <path d="M26.8003397,17.5195287 C25.7366548,17.5195287 24.8754904,16.7499795 24.8754904,15.8005533 C24.8754904,14.8515779 25.7366548,14.0824795 26.8003397,14.0824795 C27.8631205,14.0824795 28.724737,14.8524795 28.724737,15.8010041 C28.724737,16.7508811 27.8631205,17.5199795 26.8003397,17.5195287 M26.8003397,13.8016189 C25.5635178,13.8016189 24.5608603,14.6973975 24.5608603,15.8005533 C24.5608603,16.9059631 25.5635178,17.8008402 26.8003397,17.8008402 C28.0362575,17.8008402 29.0393671,16.9059631 29.0393671,15.8005533 C29.0393671,14.6973975 28.0362575,13.8016189 26.8003397,13.8016189" id="Fill-33" fill="#603813" mask="url(#mask-2)"></path>
                <path d="M26.8003397,14.0824795 C25.7366548,14.0824795 24.8754904,14.8515779 24.8754904,15.8010041 C24.8754904,16.7499795 25.7366548,17.5195287 26.8003397,17.5195287 C27.8631205,17.5199795 28.724737,16.7508811 28.724737,15.8014549 C28.724737,14.8524795 27.8631205,14.0824795 26.8003397,14.0824795" id="Fill-34" fill="#603813" mask="url(#mask-2)"></path>
                <path d="M19.2421192,17.5195287 C18.1793384,17.5195287 17.3177219,16.7499795 17.3177219,15.8005533 C17.3177219,14.8515779 18.1793384,14.0824795 19.2421192,14.0824795 C20.3053521,14.0824795 21.1669685,14.8524795 21.1669685,15.8010041 C21.1669685,16.7508811 20.3053521,17.5199795 19.2421192,17.5195287 M19.2421192,13.8016189 C18.0057493,13.8016189 17.0030918,14.6973975 17.0030918,15.8005533 C17.0030918,16.9059631 18.0057493,17.8008402 19.2421192,17.8008402 C20.4789411,17.8008402 21.4811466,16.9059631 21.4811466,15.8005533 C21.4811466,14.6973975 20.4789411,13.8016189 19.2421192,13.8016189" id="Fill-35" fill="#603813" mask="url(#mask-2)"></path>
                <path d="M19.2421192,14.0824795 C18.1793384,14.0824795 17.3177219,14.8515779 17.3177219,15.8010041 C17.3177219,16.7499795 18.1793384,17.5195287 19.2421192,17.5195287 C20.3053521,17.5199795 21.1669685,16.7508811 21.1669685,15.8014549 C21.1669685,14.8524795 20.3053521,14.0824795 19.2421192,14.0824795" id="Fill-36" fill="#603813" mask="url(#mask-2)"></path>
                <path d="M28.9233247,15.6563811 C28.8735986,15.6563811 28.8238726,15.6365451 28.7872562,15.596873 C28.7185438,15.5220369 28.7235164,15.4057254 28.7985575,15.3372008 L33.1107082,11.3839631 C33.1857493,11.3158893 33.3019274,11.3208484 33.3710918,11.3952336 C33.4398041,11.4700697 33.4348315,11.5863811 33.3597904,11.6549057 L29.0480918,15.6081434 C29.0123795,15.6401516 28.9680781,15.6563811 28.9233247,15.6563811" id="Fill-37" fill="#603813" mask="url(#mask-2)"></path>
                <path d="M22.3411356,21.2405492 C21.5387384,21.2405492 21.107026,21.1201803 21.0767384,21.1120656 C20.9686973,21.080959 20.9094781,20.9772705 20.9442863,20.8807951 C20.9790945,20.7843197 21.0948205,20.7297705 21.2028616,20.7613279 C21.214163,20.7649344 22.3556014,21.0755492 24.4260123,20.6341967 C24.5376699,20.6094016 24.6484233,20.6716148 24.6750945,20.7707951 C24.7017658,20.8695246 24.6326014,20.9691557 24.5218479,20.9925984 C23.6258753,21.1832951 22.8949027,21.2405492 22.3411356,21.2405492" id="Fill-38" fill="#BE1E2D" mask="url(#mask-2)"></path>
                <polygon id="Fill-39" fill="#D08225" mask="url(#mask-2)" points="39.7956041 25.7756148 44.7460562 20.7976639 45.7134534 21.4197951 40.1192753 26.8106967"></polygon>
                <path d="M63.1090644,21.3611885 C59.1056671,25.534877 50.0962151,26.9982377 44.8831192,22.1731148 C39.8196534,17.1933607 40.8896671,8.15081967 44.8944205,3.97893443 C48.907763,-0.235778689 56.4652151,0.0554508197 61.5982973,4.75254098 C66.529311,9.65836066 67.1545027,17.1771311 63.1090644,21.3611885" id="Fill-40" fill="#D08225" mask="url(#mask-2)"></path>
                <path d="M53.5571918,24.1220082 C52.1653151,25.5727459 48.1619178,25.249959 45.2231096,22.4981557 C42.3367397,19.6922541 41.8403836,15.7191803 43.2286438,14.2688934 C44.6223288,12.8010246 48.1456438,13.7581148 51.0320137,16.4431967 C53.8519315,19.2017623 54.9653425,22.6703689 53.5571918,24.1220082" id="Fill-41" fill="#BD761F" mask="url(#mask-2)"></path>
                <path d="M58.2053548,24.3535943 C58.734711,24.1719139 59.2455329,23.9613811 59.7391767,23.7265041 L47.3058616,23.3500697 L63.9509712,20.3444549 C64.1286288,20.0951516 64.295889,19.8381844 64.4491356,19.5722008 L47.2276562,22.6810533 L65.7415603,15.1221598 C65.7578342,14.8778156 65.7646151,14.6330205 65.7646151,14.3864221 L47.0106699,22.0422418 L64.9242452,9.87416803 C64.8428753,9.66047951 64.7565329,9.44814344 64.6652178,9.2362582 L45.9121767,21.9750697 L62.018437,5.19015164 C61.8832726,5.04138115 61.7431356,4.89621721 61.5984781,4.75240574 C61.5803959,4.73707787 61.5641219,4.72355328 61.5464918,4.70822541 L46.0423685,20.8687582 L57.6389301,2.1687582 C57.4305329,2.07634016 57.2185192,1.99023361 57.0074096,1.90818443 L45.4461082,20.5500287 L52.4746562,1.01736475 C52.2319027,1.0137582 51.9927658,1.0137582 51.7536288,1.02502869 L44.7969575,20.3624877 L47.2715055,2.19580738 C47.0192589,2.3269959 46.7733411,2.46720082 46.5323959,2.62228279 L44.1247521,20.3133484 L43.0936151,6.54486475 C42.8825055,6.95511066 42.6867658,7.38203689 42.5127247,7.82429098 L43.4552589,20.4219959 C43.8621082,21.0445779 44.3358616,21.6333484 44.8828479,22.1729795 C45.7277384,22.9547008 46.6720808,23.5678156 47.6783548,24.0344139 L58.2053548,24.3535943 Z" id="Fill-42" fill="#D49E44" mask="url(#mask-2)"></path>
                <polygon id="Fill-43" fill="#316975" mask="url(#mask-2)" points="16.3028589 54.4678074 11.4319685 52.708709 16.2671466 39.3942008 21.138037 41.1528484"></polygon>
                <polygon id="Fill-44" fill="#316975" mask="url(#mask-2)" points="24.8711507 54.2408197 30.0516986 54.2408197 30.0516986 40.0796721 24.8711507 40.0796721"></polygon>
                <path d="M10.6632041,31.76525 C11.7359301,31.4045943 12.9356836,32.0848811 13.3411767,33.2881189 C13.748026,34.4895533 13.2078205,35.7563566 12.1350945,36.1161107 L2.9073,39.2222582 C1.83457397,39.5838156 0.634368493,38.9017254 0.227519178,37.700291 C-0.177521918,36.4988566 0.362683562,35.2316025 1.43540959,34.8713975 L10.6632041,31.76525 Z" id="Fill-45" fill="#1E4E58" mask="url(#mask-2)"></path>
                <path d="M2.81449315,39.1980492 C1.74131507,39.5591557 0.542013699,38.8779672 0.134712329,37.676082 C-0.270780822,36.4750984 0.269876712,35.2069426 1.34260274,34.8467377 L2.81449315,39.1980492 Z" id="Fill-46" fill="#FBDDB4" mask="url(#mask-2)"></path>
                <path d="M17.7747041,26.6103074 C18.705937,25.9656352 20.0471836,26.288873 20.7718274,27.331168 C21.4978274,28.3725615 21.3319233,29.7394467 20.4006904,30.3832172 L12.4002247,35.9215369 C11.4708,36.566209 10.1277452,36.2429713 9.40310137,35.2006762 C8.67710137,34.1597336 8.8448137,32.7928484 9.77423836,32.1481762 L17.7747041,26.6103074 Z" id="Fill-47" fill="#1E4E58" mask="url(#mask-2)"></path>
                <path d="M33.0523027,31.516082 C32.4564945,32.2946475 32.6843301,33.4667787 33.5617685,34.1344426 C34.4373986,34.8021066 35.6326315,34.7119426 36.2284397,33.9324754 L41.3551932,27.2364508 C41.9510014,26.4574344 41.7231658,25.2839508 40.8452753,24.6162869 C39.9696452,23.9490738 38.7744123,24.0401393 38.1790562,24.8178033 L33.0523027,31.516082 Z" id="Fill-48" fill="#1E4E58" mask="url(#mask-2)"></path>
                <path d="M41.3614315,27.1527336 C41.9572397,26.3737172 41.7294041,25.2024877 40.8519658,24.5334713 C39.9763356,23.8662582 38.7811027,23.9555205 38.1852945,24.736791 L41.3614315,27.1527336 Z" id="Fill-49" fill="#FBDDB4" mask="url(#mask-2)"></path>
                <path d="M28.0717438,27.1998443 C27.1879767,26.772918 26.0808945,27.2305 25.6003603,28.2209508 C25.1202781,29.2114016 25.4475658,30.3609918 26.3331411,30.7861148 L33.938963,34.4557869 C34.8236342,34.8818115 35.9307164,34.4246803 36.4089904,33.4324262 C36.8913329,32.4437787 36.562237,31.2941885 35.6780178,30.8677131 L28.0717438,27.1998443 Z" id="Fill-50" fill="#1E4E58" mask="url(#mask-2)"></path>
                <path d="M16.7650849,54.6012049 C17.2288932,53.3267377 16.3252356,51.8300164 14.7462082,51.2597295 C13.168989,50.6898934 11.5149205,51.2628852 11.0520164,52.5373525 L16.7650849,54.6012049 Z" id="Fill-51" fill="#5F1600" mask="url(#mask-2)"></path>
                <path d="M30.5320068,54.2098033 C30.5320068,52.8523852 29.1708699,51.7532869 27.4919384,51.7532869 C25.8152671,51.7532869 24.4545822,52.8523852 24.4545822,54.2098033 L30.5320068,54.2098033 Z" id="Fill-52" fill="#5F1600" mask="url(#mask-2)"></path>
                <path d="M23.4483082,24.7709631 C23.0636096,24.7547336 23.000774,25.4404303 23.000774,25.4404303 C22.935226,24.8340779 22.5677055,24.7709631 22.5677055,24.7709631 L20.6966507,24.7709631 L20.6966507,26.1103484 L25.302637,26.1103484 L25.302637,24.7709631 L23.4483082,24.7709631 Z" id="Fill-53" fill="#316975" mask="url(#mask-2)"></path>
                <path d="M30.0516986,39.983918 C30.0516986,44.1062131 26.7010685,47.4476885 22.5674795,47.4476885 C18.4356986,47.4476885 15.0850685,44.1062131 15.0850685,39.983918 L15.0850685,32.5210492 C15.0850685,28.3996557 18.4356986,25.0581803 22.5674795,25.0581803 C26.7010685,25.0581803 30.0516986,28.3996557 30.0516986,32.5210492 L30.0516986,39.983918 Z" id="Fill-54" fill="#316975" mask="url(#mask-2)"></path>
                <path d="M23.7626671,40.0001926 C23.3684753,39.954209 22.6537767,39.7306025 22.4715986,38.706791 L22.4715986,38.5728975 C22.4697904,38.5972418 22.4634616,38.6170779 22.4598452,38.6400697 C22.4566808,38.6170779 22.4503521,38.5972418 22.4485438,38.5728975 L22.4485438,38.706791 C22.2659137,39.7306025 21.5512151,39.954209 21.1574753,40.0001926 L15.0850233,40.0001926 L12.3627493,50.004332 L30.0516534,51.6259303 L30.0516534,40.0001926 L23.7626671,40.0001926 Z" id="Fill-55" fill="#1E4E58" mask="url(#mask-2)"></path>
                <path d="M22.3186233,26.626627 L22.3593082,26.5923648 C22.3443904,26.6036352 22.3312808,26.6153566 22.3186233,26.626627 L22.3186233,26.626627 Z M24.2267466,26.5824467 C24.2267466,26.5824467 24.2231301,26.589209 24.221774,26.5923648 L24.2267466,26.5824467 Z M23.5522808,27.1865451 C23.5491164,27.1951107 23.5441438,27.2036762 23.5409795,27.2126926 L23.5522808,27.1865451 Z M23.430226,25.7903566 C23.5165685,25.8683484 23.4012945,25.9851107 23.3357466,26.046873 C23.2937055,26.0874467 23.2498562,26.1257664 23.2105274,26.154168 C23.1535685,26.0973648 23.0934452,26.0437172 23.0414589,25.9819549 C23.1273493,25.9233484 23.3131438,25.6848648 23.430226,25.7903566 L23.430226,25.7903566 Z M22.4696096,25.9251516 C22.4375137,25.8620369 22.4338973,25.7822418 22.4989932,25.7533893 C22.6409384,25.6898238 22.7711301,25.9026107 22.8407466,25.9819549 C22.7905685,26.0419139 22.7318014,26.0937582 22.6671575,26.139291 C22.6002534,26.0761762 22.5202397,26.0175697 22.4696096,25.9251516 L22.4696096,25.9251516 Z M23.2105274,26.3358484 C23.2837603,26.3795779 23.323089,26.4575697 23.3981301,26.4999467 C23.3425274,26.5603566 23.2805959,26.6135533 23.2186644,26.6672008 C23.1485959,26.6239221 23.1011301,26.5585533 23.0414589,26.5044549 C23.0884726,26.4399877 23.1553767,26.3935533 23.2105274,26.3358484 L23.2105274,26.3358484 Z M22.844363,26.4999467 C22.7837877,26.5585533 22.7250205,26.6171598 22.6621849,26.6721598 C22.5934726,26.621668 22.5396781,26.5558484 22.4750342,26.4999467 C22.5333493,26.4413402 22.5934726,26.3863402 22.6535959,26.3313402 C22.7250205,26.3746189 22.7806233,26.4472008 22.844363,26.4999467 L22.844363,26.4999467 Z M22.9388425,26.406627 C22.8850479,26.3475697 22.8244726,26.2970779 22.7693219,26.2384713 C22.8213082,26.1785123 22.8850479,26.1311762 22.9388425,26.074373 C23.000774,26.1302746 23.0559247,26.1938402 23.1210205,26.2474877 C23.0577329,26.2984303 23.0039384,26.3570369 22.9388425,26.406627 L22.9388425,26.406627 Z M22.9288973,26.5923648 C22.9989658,26.63925 23.0509521,26.7019139 23.1110753,26.7564631 C23.0721986,26.8213811 22.9971575,26.876832 22.9487877,26.9147008 C22.8832397,26.8682664 22.8294452,26.8083074 22.7611849,26.7663811 C22.8086507,26.6996598 22.8814315,26.6581844 22.9288973,26.5923648 L22.9288973,26.5923648 Z M23.0559247,27.0125287 C23.1110753,26.9624877 23.1684863,26.91425 23.2186644,26.8587992 C23.2254452,26.8597008 23.2304178,26.8606025 23.2331301,26.8633074 C23.2873767,26.9115451 23.4483082,27.05175 23.4397192,27.1347008 C23.4320342,27.1982664 23.3425274,27.2307254 23.2575411,27.2095369 C23.1811438,27.1527336 23.1223767,27.0797008 23.0559247,27.0125287 L23.0559247,27.0125287 Z M22.6621849,26.8587992 C22.7318014,26.9025287 22.7806233,26.9660943 22.8457192,27.0125287 C22.7675137,27.1062992 22.6323493,27.2663402 22.4750342,27.1761762 C22.3999932,27.0125287 22.5853356,26.9440041 22.6621849,26.8587992 L22.6621849,26.8587992 Z M23.9008151,26.2776926 L23.9039795,26.2776926 L23.9057877,26.2776926 L23.9008151,26.2776926 Z M23.7837329,26.6545779 C23.7543493,26.6360943 23.7249658,26.6103975 23.6973904,26.5923648 C23.6517329,26.5648648 23.6110479,26.5351107 23.5902534,26.5044549 C23.6517329,26.4503566 23.7263219,26.3475697 23.8149247,26.3133074 C23.9672671,26.2515451 24.1254863,26.3538811 24.1187055,26.4999467 C24.1123767,26.6122008 23.9722397,26.7059713 23.8420479,26.6784713 L23.7837329,26.6545779 Z M21.9194589,26.7947828 C21.8982123,26.7920779 21.878774,26.7889221 21.8588836,26.7826107 L21.9194589,26.7947828 Z M22.0351849,26.681627 C21.8801301,26.7140861 21.7210068,26.589209 21.7680205,26.4106844 C21.7811301,26.3619959 21.8511986,26.3133074 21.8851027,26.2939221 C21.9244315,26.2727336 21.9976644,26.2565041 22.0546233,26.2803975 C22.1454863,26.3187172 22.2128425,26.4251107 22.2874315,26.4805615 C22.2580479,26.5229385 22.2128425,26.5553975 22.1721575,26.5923648 C22.1310205,26.6297828 22.0889795,26.6703566 22.0351849,26.681627 L22.0351849,26.681627 Z M24.0346233,26.159127 C23.9301986,26.1131434 23.8049795,26.1555205 23.734911,26.1960943 C23.6404315,26.2497418 23.5671986,26.3507254 23.4840205,26.4138402 L23.454637,26.3863402 C23.4076233,26.3372008 23.3606096,26.2903156 23.3131438,26.2434303 C23.3981301,26.1275697 23.6223493,26.0599467 23.6078836,25.8458074 C23.6065274,25.8074877 23.5834726,25.7497828 23.5653904,25.7204795 C23.5215411,25.6483484 23.4157603,25.5924467 23.2950616,25.62175 C23.2218288,25.6397828 23.1648699,25.7010943 23.1110753,25.7484303 C23.0541164,25.796668 23.0021301,25.846709 22.9438151,25.8877336 C22.8213082,25.801627 22.7661575,25.6262582 22.5916644,25.6032664 C22.4257603,25.5811762 22.3118425,25.6898238 22.3018973,25.8228156 C22.2937603,25.9283074 22.3543356,26.0062992 22.4144589,26.0698648 C22.4271164,26.0824877 22.4791027,26.1284713 22.5184315,26.166791 L22.5446507,26.1960943 C22.5577603,26.2109713 22.564089,26.2226926 22.564089,26.2285533 C22.564089,26.2335123 22.5301849,26.2547008 22.5166233,26.2659713 C22.4696096,26.3115041 22.4225959,26.3669549 22.381911,26.39175 C22.2548836,26.2889631 22.1572397,26.1185533 21.9325685,26.14425 C21.7698288,26.1640861 21.6265274,26.3160123 21.6283356,26.4949877 C21.6296918,26.6356434 21.7065411,26.7046189 21.7874589,26.7749467 C21.9063493,26.8276926 22.0302123,26.8258893 22.1472945,26.7749467 C22.2223356,26.7122828 22.3037055,26.6563811 22.381911,26.5973238 C22.448363,26.644209 22.5071301,26.7028156 22.564089,26.7614221 C22.4989932,26.8362582 22.3850753,26.8971189 22.3344452,26.9949467 C22.2205274,27.2144959 22.4406781,27.3970779 22.6567603,27.3344139 C22.7819795,27.3001516 22.8588288,27.1685123 22.9582808,27.1112582 C23.075363,27.18925 23.1485959,27.3831025 23.3651301,27.3537992 C23.5034589,27.3344139 23.5929658,27.2126926 23.5753356,27.0873648 C23.5554452,26.9372418 23.3963219,26.8651107 23.3276096,26.7614221 C23.3913493,26.7158893 23.430226,26.6460123 23.495774,26.601832 C23.5961301,26.6784713 23.7005548,26.8010943 23.8370753,26.8258893 C24.057226,26.8669139 24.2574863,26.679373 24.2638151,26.4756025 C24.2674315,26.3408074 24.156226,26.2123238 24.0346233,26.159127 L24.0346233,26.159127 Z" id="Fill-56" fill="#FFFFFF" mask="url(#mask-2)"></path>
                <path d="M22.3186233,31.218 L22.3593082,31.1841885 L22.3593082,31.1846393 C22.3443904,31.1950082 22.3312808,31.2067295 22.3186233,31.218 L22.3186233,31.218 Z M24.2267466,31.1738197 C24.2231301,31.1783279 24.2231301,31.1814836 24.221774,31.1846393 L24.2267466,31.1738197 Z M23.5522808,31.777918 C23.5491164,31.7873852 23.5441438,31.7959508 23.5409795,31.8040656 L23.5522808,31.777918 Z M23.430226,30.3821803 C23.5165685,30.4597213 23.4012945,30.5764836 23.3357466,30.6386967 C23.2937055,30.6792705 23.2498562,30.718041 23.2105274,30.7464426 C23.1535685,30.6896393 23.0934452,30.6350902 23.0414589,30.5733279 C23.1273493,30.515623 23.3131438,30.2762377 23.430226,30.3821803 L23.430226,30.3821803 Z M22.4696096,30.5174262 C22.4375137,30.4543115 22.4338973,30.3736148 22.4989932,30.3447623 C22.6409384,30.2811967 22.7711301,30.4948852 22.8407466,30.5733279 C22.7905685,30.6332869 22.7318014,30.6851311 22.6671575,30.7320164 C22.6002534,30.6684508 22.5202397,30.6098443 22.4696096,30.5174262 L22.4696096,30.5174262 Z M23.2105274,30.9272213 C23.2837603,30.9714016 23.323089,31.0489426 23.3981301,31.0913197 C23.3425274,31.1517295 23.2805959,31.205377 23.2186644,31.2594754 C23.1485959,31.2161967 23.1011301,31.1499262 23.0414589,31.0962787 C23.0884726,31.0313607 23.1553767,30.9858279 23.2105274,30.9272213 L23.2105274,30.9272213 Z M22.844363,31.0913197 C22.7837877,31.1499262 22.7250205,31.2085328 22.6621849,31.2635328 C22.5934726,31.213041 22.5396781,31.1485738 22.4750342,31.0913197 C22.5333493,31.0340656 22.5934726,30.9777131 22.6535959,30.9236148 C22.7250205,30.9668934 22.7806233,31.0394754 22.844363,31.0913197 L22.844363,31.0913197 Z M22.9388425,30.9989016 C22.8850479,30.9398443 22.8244726,30.8889016 22.7693219,30.8302951 C22.8213082,30.7698852 22.8850479,30.7225492 22.9388425,30.6666475 C23.000774,30.7225492 23.0559247,30.7861148 23.1210205,30.8397623 C23.0577329,30.8898033 23.0039384,30.9484098 22.9388425,30.9989016 L22.9388425,30.9989016 Z M22.9288973,31.1846393 C22.9989658,31.2310738 23.0509521,31.2941885 23.1110753,31.3478361 C23.0721986,31.4136557 22.9971575,31.4682049 22.9487877,31.5069754 C22.8832397,31.4600902 22.8294452,31.3996803 22.7611849,31.3577541 C22.8086507,31.2910328 22.8814315,31.250459 22.9288973,31.1846393 L22.9288973,31.1846393 Z M23.0559247,31.6043525 C23.1110753,31.5538607 23.1684863,31.505623 23.2186644,31.4510738 C23.2254452,31.4519754 23.2304178,31.4519754 23.2331301,31.4546803 C23.2873767,31.5038197 23.4483082,31.643123 23.4397192,31.7260738 C23.4320342,31.790541 23.3425274,31.8220984 23.2575411,31.8009098 C23.1811438,31.7441066 23.1223767,31.6710738 23.0559247,31.6043525 L23.0559247,31.6043525 Z M22.6621849,31.4510738 C22.7318014,31.4939016 22.7806233,31.5574672 22.8457192,31.6043525 C22.7675137,31.6985738 22.6323493,31.8586148 22.4750342,31.7684508 C22.3999932,31.6043525 22.5853356,31.5362787 22.6621849,31.4510738 L22.6621849,31.4510738 Z M23.9008151,30.8699672 L23.9039795,30.8699672 L23.9057877,30.8699672 L23.9008151,30.8699672 Z M23.7837329,31.2468525 C23.7543493,31.2283689 23.7249658,31.2026721 23.6973904,31.1846393 C23.6517329,31.1562377 23.6110479,31.1273852 23.5902534,31.0962787 C23.6517329,31.0426311 23.7263219,30.9398443 23.8149247,30.9046803 C23.9672671,30.842918 24.1254863,30.9452541 24.1187055,31.0913197 C24.1123767,31.2044754 23.9722397,31.2986967 23.8420479,31.2707459 L23.7837329,31.2468525 Z M21.9194589,31.3870574 C21.8982123,31.3843525 21.878774,31.3802951 21.8588836,31.3748852 L21.9194589,31.3870574 Z M22.0351849,31.273 C21.8801301,31.3063607 21.7210068,31.180582 21.7680205,31.0020574 C21.7811301,30.9542705 21.8511986,30.9046803 21.8851027,30.8861967 C21.9244315,30.8641066 21.9976644,30.847877 22.0546233,30.8717705 C22.1454863,30.9109918 22.2128425,31.0169344 22.2874315,31.0728361 C22.2580479,31.1143115 22.2128425,31.1467705 22.1721575,31.1846393 C22.1310205,31.2211557 22.0889795,31.2621803 22.0351849,31.273 L22.0351849,31.273 Z M24.0346233,30.7505 C23.9301986,30.7049672 23.8049795,30.7473443 23.734911,30.787918 C23.6404315,30.8420164 23.5671986,30.9420984 23.4840205,31.0052131 L23.454637,30.9786148 C23.4076233,30.9299262 23.3606096,30.8821393 23.3131438,30.8348033 C23.3981301,30.7198443 23.6223493,30.6513197 23.6078836,30.438082 C23.6065274,30.3997623 23.5834726,30.3416066 23.5653904,30.3118525 C23.5215411,30.240623 23.4157603,30.1847213 23.2950616,30.2135738 C23.2218288,30.2311557 23.1648699,30.2933689 23.1110753,30.3398033 C23.0541164,30.3884918 23.0021301,30.4385328 22.9438151,30.4800082 C22.8213082,30.3934508 22.7661575,30.2176311 22.5916644,30.1950902 C22.4257603,30.1734508 22.3118425,30.2811967 22.3018973,30.4141885 C22.2937603,30.5196803 22.3543356,30.5985738 22.4144589,30.6621393 C22.4271164,30.6747623 22.4791027,30.7198443 22.5184315,30.7590656 L22.5446507,30.787918 C22.5577603,30.8023443 22.564089,30.8140656 22.564089,30.8199262 C22.564089,30.8199262 22.5301849,30.8469754 22.5166233,30.8573443 C22.4696096,30.9033279 22.4225959,30.9583279 22.381911,30.9840246 C22.2548836,30.8812377 22.1572397,30.7099262 21.9325685,30.7369754 C21.7698288,30.755459 21.6265274,30.9082869 21.6283356,31.0863607 C21.6296918,31.2274672 21.7065411,31.2959918 21.7874589,31.3672213 C21.9063493,31.4190656 22.0302123,31.4177131 22.1472945,31.3672213 C22.2223356,31.3045574 22.3037055,31.2486557 22.381911,31.1900492 C22.448363,31.2364836 22.5071301,31.2941885 22.564089,31.3527951 C22.4989932,31.4285328 22.3850753,31.4893934 22.3344452,31.5863197 C22.2205274,31.8067705 22.4406781,31.9893525 22.6567603,31.9266885 C22.7819795,31.8919754 22.8588288,31.7603361 22.9582808,31.7035328 C23.075363,31.7815246 23.1485959,31.975377 23.3651301,31.9451721 C23.5034589,31.9266885 23.5929658,31.8049672 23.5753356,31.6787377 C23.5554452,31.5295164 23.3963219,31.4573852 23.3276096,31.3527951 C23.3913493,31.3072623 23.430226,31.2373852 23.495774,31.1936557 C23.5961301,31.2707459 23.7005548,31.3933689 23.8370753,31.4177131 C24.057226,31.4582869 24.2574863,31.2716475 24.2638151,31.067877 C24.2674315,30.9321803 24.156226,30.8041475 24.0346233,30.7505 L24.0346233,30.7505 Z" id="Fill-57" fill="#FFFFFF" mask="url(#mask-2)"></path>
                <path d="M22.3186233,35.809418 L22.3593082,35.7765082 L22.3593082,35.7774098 C22.3443904,35.786877 22.3312808,35.7985984 22.3186233,35.809418 L22.3186233,35.809418 Z M24.2267466,35.7665902 C24.2267466,35.7665902 24.2231301,35.7738033 24.221774,35.7774098 L24.2267466,35.7665902 Z M23.5522808,36.3697869 C23.5491164,36.3797049 23.5441438,36.3873689 23.5409795,36.3959344 L23.5522808,36.3697869 Z M23.430226,34.9735984 C23.5165685,35.052041 23.4012945,35.1692541 23.3357466,35.2310164 C23.2937055,35.2706885 23.2498562,35.309459 23.2105274,35.3387623 C23.1535685,35.281959 23.0934452,35.2274098 23.0414589,35.1647459 C23.1273493,35.1079426 23.3131438,34.8676557 23.430226,34.9735984 L23.430226,34.9735984 Z M22.4696096,35.1097459 C22.4375137,35.0466311 22.4338973,34.9654836 22.4989932,34.9366311 C22.6409384,34.8726148 22.7711301,35.0867541 22.8407466,35.1647459 C22.7905685,35.2256066 22.7318014,35.277 22.6671575,35.3243361 C22.6002534,35.2607705 22.5202397,35.2021639 22.4696096,35.1097459 L22.4696096,35.1097459 Z M23.2105274,35.519541 C23.2837603,35.5637213 23.323089,35.6408115 23.3981301,35.6831885 C23.3425274,35.7435984 23.2805959,35.7976967 23.2186644,35.8517951 C23.1485959,35.8080656 23.1011301,35.7413443 23.0414589,35.6876967 C23.0884726,35.6227787 23.1553767,35.5772459 23.2105274,35.519541 L23.2105274,35.519541 Z M22.844363,35.6840902 C22.7837877,35.7413443 22.7250205,35.7999508 22.6621849,35.8554016 C22.5934726,35.804459 22.5396781,35.7399918 22.4750342,35.6831885 C22.5333493,35.6263852 22.5934726,35.5691311 22.6535959,35.5159344 C22.7250205,35.5592131 22.7806233,35.6308934 22.844363,35.6840902 L22.844363,35.6840902 Z M22.9388425,35.5903197 C22.8850479,35.5321639 22.8244726,35.4803197 22.7693219,35.4226148 C22.8213082,35.3622049 22.8850479,35.3148689 22.9388425,35.2589672 C23.000774,35.314418 23.0559247,35.3775328 23.1210205,35.4311803 C23.0577329,35.4812213 23.0039384,35.5407295 22.9388425,35.5903197 L22.9388425,35.5903197 Z M22.9288973,35.7774098 C22.9989658,35.8233934 23.0509521,35.8860574 23.1110753,35.9392541 C23.0721986,36.0064262 22.9971575,36.059623 22.9487877,36.0988443 C22.8832397,36.0515082 22.8294452,35.992 22.7611849,35.9491721 C22.8086507,35.8824508 22.8814315,35.841877 22.9288973,35.7774098 L22.9288973,35.7774098 Z M23.0559247,36.1966721 C23.1110753,36.1466311 23.1684863,36.097041 23.2186644,36.0433934 C23.2254452,36.0433934 23.2304178,36.0442951 23.2331301,36.0474508 C23.2873767,36.0952377 23.4483082,36.2354426 23.4397192,36.3179426 C23.4320342,36.3824098 23.3425274,36.4135164 23.2575411,36.3923279 C23.1811438,36.3364262 23.1223767,36.2624918 23.0559247,36.1966721 L23.0559247,36.1966721 Z M22.6621849,36.0433934 C22.7318014,36.0853197 22.7806233,36.1488852 22.8457192,36.1966721 C22.7675137,36.2899918 22.6323493,36.4509344 22.4750342,36.3603197 C22.3999932,36.1957705 22.5853356,36.1276967 22.6621849,36.0433934 L22.6621849,36.0433934 Z M23.9008151,35.4618361 L23.9039795,35.4618361 L23.9057877,35.4618361 L23.9008151,35.4618361 Z M23.7837329,35.8387213 C23.7543493,35.8206885 23.7249658,35.7949918 23.6973904,35.7774098 C23.6517329,35.7476557 23.6110479,35.7188033 23.5902534,35.6876967 C23.6517329,35.6340492 23.7263219,35.5321639 23.8149247,35.4965492 C23.9672671,35.4352377 24.1254863,35.537123 24.1187055,35.6831885 C24.1123767,35.7967951 23.9722397,35.8910164 23.8420479,35.8630656 L23.7837329,35.8387213 Z M21.9194589,35.9784754 C21.8982123,35.9766721 21.878774,35.9717131 21.8588836,35.9672049 L21.9194589,35.9784754 Z M22.0351849,35.8657705 C21.8801301,35.8986803 21.7210068,35.7724508 21.7680205,35.594377 C21.7811301,35.5465902 21.8511986,35.4965492 21.8851027,35.4785164 C21.9244315,35.4564262 21.9976644,35.4401967 22.0546233,35.4636393 C22.1454863,35.5024098 22.2128425,35.6092541 22.2874315,35.6651557 C22.2580479,35.7061803 22.2128425,35.7381885 22.1721575,35.7774098 C22.1310205,35.8130246 22.0889795,35.8535984 22.0351849,35.8657705 L22.0351849,35.8657705 Z M24.0346233,35.341918 C23.9301986,35.2972869 23.8049795,35.3396639 23.734911,35.3793361 C23.6404315,35.4343361 23.5671986,35.5335164 23.4840205,35.5966311 L23.454637,35.5709344 C23.4076233,35.5222459 23.3606096,35.4735574 23.3131438,35.4262213 C23.3981301,35.3112623 23.6223493,35.2427377 23.6078836,35.0299508 C23.6065274,34.9916311 23.5834726,34.9330246 23.5653904,34.9032705 C23.5215411,34.832041 23.4157603,34.777041 23.2950616,34.8058934 C23.2218288,34.8230246 23.1648699,34.8856885 23.1110753,34.932123 C23.0541164,34.9808115 23.0021301,35.0299508 22.9438151,35.0723279 C22.8213082,34.9848689 22.7661575,34.8095 22.5916644,34.7865082 C22.4257603,34.7657705 22.3118425,34.8726148 22.3018973,35.0060574 C22.2937603,35.1110984 22.3543356,35.1908934 22.4144589,35.254459 C22.4271164,35.2675328 22.4791027,35.3117131 22.5184315,35.3513852 L22.5446507,35.3793361 C22.5577603,35.3937623 22.564089,35.4059344 22.564089,35.4126967 C22.564089,35.4176557 22.5301849,35.4397459 22.5166233,35.4501148 C22.4696096,35.4956475 22.4225959,35.5506475 22.381911,35.5754426 C22.2548836,35.4735574 22.1572397,35.3013443 21.9325685,35.3292951 C21.7698288,35.3477787 21.6265274,35.4997049 21.6283356,35.6782295 C21.6296918,35.8188852 21.7065411,35.8874098 21.7874589,35.9590902 C21.9063493,36.0109344 22.0302123,36.0091311 22.1472945,35.9590902 C22.2223356,35.896877 22.3037055,35.8400738 22.381911,35.781918 C22.448363,35.8292541 22.5071301,35.8860574 22.564089,35.9442131 C22.4989932,36.0208525 22.3850753,36.0808115 22.3344452,36.1777377 C22.2205274,36.3990902 22.4406781,36.5807705 22.6567603,36.5190082 C22.7819795,36.4833934 22.8588288,36.3517541 22.9582808,36.2949508 C23.075363,36.3729426 23.1485959,36.5681475 23.3651301,36.537041 C23.5034589,36.5190082 23.5929658,36.3972869 23.5753356,36.2710574 C23.5554452,36.1209344 23.3963219,36.0497049 23.3276096,35.9442131 C23.3913493,35.8986803 23.430226,35.8292541 23.495774,35.7859754 C23.5961301,35.8630656 23.7005548,35.9852377 23.8370753,36.0100328 C24.057226,36.0506066 24.2574863,35.8630656 24.2638151,35.6601967 C24.2674315,35.5235984 24.156226,35.3955656 24.0346233,35.341918 L24.0346233,35.341918 Z" id="Fill-58" fill="#FFFFFF" mask="url(#mask-2)"></path>
            </g>
        </g>
    </g>
</svg>