<?xml version="1.0" encoding="UTF-8"?>
<svg width="38px" height="57px" viewBox="0 0 38 57" version="1.1" xmlns="http://www.w3.org/2000/svg" xmlns:xlink="http://www.w3.org/1999/xlink">
    <!-- Generator: Sketch 41.1 (35376) - http://www.bohemiancoding.com/sketch -->
    <title>footer_woman</title>
    <desc>Created with Sketch.</desc>
    <defs>
        <polygon id="path-1" points="0 56.9756371 37.9874878 56.9756371 37.9874878 0 0 0"></polygon>
    </defs>
    <g id="Page-1" stroke="none" stroke-width="1" fill="none" fill-rule="evenodd">
        <g id="Artboard" transform="translate(-720.000000, -526.000000)">
            <g id="footer_woman" transform="translate(720.000000, 526.000000)">
                <path d="M30.9743561,19.444125 C30.779722,20.6048105 29.6383317,21.3844234 28.4241854,21.1844637 C27.210039,20.984504 26.3837707,19.8803589 26.5784049,18.7196734 C26.773039,17.5585282 27.9144293,16.779375 29.129039,16.9793347 C30.342722,17.1792944 31.1689902,18.2834395 30.9743561,19.444125 Z" id="Fill-1" fill="#F0D8B6"></path>
                <path d="M12.9862683,16.4290548 C12.7916341,17.5902 11.6502439,18.3698129 10.436561,18.1693935 C9.22195122,17.9694339 8.39660976,16.8657484 8.59078049,15.7046032 C8.78541463,14.5439177 9.92634146,13.7647645 11.1409512,13.9647242 C12.3546341,14.1646839 13.1809024,15.2683694 12.9862683,16.4290548" id="Fill-3" fill="#F0D8B6"></path>
                <path d="M11.4037073,9.48521371 C11.4037073,9.48521371 8.0054878,24.9326734 17.873439,27.1763589 C17.873439,27.1763589 24.1309268,28.6716895 27.7710488,21.7094153 C31.4111707,14.7466815 30.4597805,6.61544758 26.9267073,4.59240726 C26.9267073,4.59240726 22.2035854,0.796391129 17.2116829,3.16143145 C12.2846585,5.49613306 11.4037073,9.48521371 11.4037073,9.48521371" id="Fill-5" fill="#F0D8B6"></path>
                <path d="M26.8240146,17.188396 C26.621039,18.5375492 25.3137463,19.4610411 23.9031122,19.2514282 C22.4934049,19.0418153 21.5146732,17.775404 21.7171854,16.4276298 C21.920161,15.0784766 23.2279171,14.1549847 24.6385512,14.3641379 C26.0482585,14.5742105 27.0269902,15.8401621 26.8240146,17.188396" id="Fill-7" fill="#FFFFFF"></path>
                <path d="M25.7378634,17.0276927 C25.6215463,17.8004105 24.8703512,18.3308782 24.059839,18.2118218 C23.2507171,18.0900073 22.6867415,17.3637169 22.803522,16.5887008 C22.9207659,15.8136847 23.6714976,15.2836766 24.4820098,15.4031927 C25.2920585,15.5250073 25.8546439,16.2512976 25.7378634,17.0276927" id="Fill-9" fill="#000000"></path>
                <path d="M18.2983439,15.5950161 C18.0949049,16.944629 16.7866854,17.8676613 15.3765146,17.6580484 C13.9677341,17.4493548 12.9890024,16.1829435 13.1905878,14.8347097 C13.3935634,13.4850968 14.7017829,12.5616048 16.1119537,12.7707581 C17.5221244,12.9812903 18.5003927,14.2467823 18.2983439,15.5950161" id="Fill-11" fill="#FFFFFF"></path>
                <path d="M17.2108488,15.4345427 C17.0954585,16.2081798 16.3438,16.7377282 15.5332878,16.6186718 C14.7241659,16.4977766 14.1606537,15.7714863 14.278361,14.9964702 C14.3932878,14.2205347 15.1458732,13.6905266 15.9549951,13.8109621 C16.7645805,13.9318573 17.3285561,14.6581476 17.2108488,15.4345427" id="Fill-13" fill="#000000"></path>
                <path d="M19.1826317,17.3508919 C19.1789244,17.3656016 18.8809488,18.891271 18.5111439,19.518271 C18.4467293,19.6276742 18.4875098,19.7678758 18.6024366,19.8313113 C18.7173634,19.8952065 18.863339,19.8570532 18.9268268,19.7471903 C19.336022,19.0535371 19.6386317,17.5048839 19.6516073,17.4386903 C19.6757049,17.3145774 19.5899732,17.1936823 19.4606805,17.1702387 C19.3299976,17.1454161 19.205339,17.226779 19.1826317,17.3508919" id="Fill-15" fill="#C76B6B"></path>
                <path d="M24.1648024,21.2361315 L24.2588756,22.3214298 C24.2713878,22.4717444 24.409022,22.584825 24.5642659,22.5742524 C24.7209,22.5632202 24.8362902,22.4331315 24.8233146,22.2818976 L24.7292415,21.1975185 C24.7162659,21.0476637 24.5795585,20.9341234 24.422461,20.9456153 C24.2672171,20.9557282 24.1509,21.0867363 24.1648024,21.2361315" id="Fill-17" fill="#F2A188"></path>
                <path d="M23.2474732,21.2990153 L23.3420098,22.3843137 C23.354522,22.5350879 23.4926195,22.6481685 23.6483268,22.6371363 C23.8054244,22.6265637 23.9208146,22.496475 23.9083024,22.3452411 L23.8137659,21.2599427 C23.8003268,21.1110073 23.6631561,20.9974669 23.5074488,21.0084992 C23.3517415,21.0186121 23.234961,21.1500798 23.2474732,21.2990153" id="Fill-19" fill="#F2A188"></path>
                <path d="M14.0045293,19.2908226 L14.0986024,20.376121 C14.111578,20.5268952 14.2487488,20.6395161 14.4044561,20.6284839 C14.5610902,20.6179113 14.6769439,20.4882823 14.6644317,20.3370484 L14.5689683,19.2522097 C14.5564561,19.1023548 14.4197488,18.9892742 14.2631146,18.9998468 C14.1069439,19.0104194 13.9915537,19.1414274 14.0045293,19.2908226" id="Fill-21" fill="#F2A188"></path>
                <path d="M13.0876634,19.3536605 L13.1817366,20.4389589 C13.1951756,20.5897331 13.3332732,20.702354 13.4885171,20.6917815 C13.6451512,20.6812089 13.7610049,20.5506605 13.7480293,20.400346 L13.6539561,19.3145879 C13.6405171,19.1656524 13.5033463,19.0521121 13.3471756,19.0626847 C13.1914683,19.0737169 13.0751512,19.204725 13.0876634,19.3536605" id="Fill-23" fill="#F2A188"></path>
                <path d="M10.5601537,13.9957984 L15.549739,7.19349194 L27.272739,9.22664516 L29.7014951,16.9984113 C29.7014951,16.9984113 30.8975683,13.0267984 29.9781537,8.70675 C29.0592024,4.38716129 25.0210073,2.31631452 20.8233976,2.06441129 C17.105422,1.84100806 10.5360561,4.94337097 10.5601537,13.9957984" id="Fill-25" fill="#231F1F"></path>
                <path d="M16.415722,4.92300726 C16.415722,4.92300726 14.8618927,8.54020887 14.2538927,11.0849831 C14.2538927,11.0849831 22.1055268,13.1645637 27.2058683,13.320854 C27.2058683,13.320854 27.4690878,8.69144274 27.2346,7.05637016 L16.415722,4.92300726 Z" id="Fill-27" fill="#231F1F"></path>
                <path d="M16.6963195,4.28129758 C16.3603439,6.28457177 14.4510756,7.63924113 12.4310512,7.30643468 C10.4114902,6.97316855 9.04580732,5.07929758 9.38178293,3.07556371 C9.71683171,1.07228952 11.6270268,-0.282379839 13.6461244,0.0504266129 C15.6666122,0.383692742 17.0318317,2.27756371 16.6963195,4.28129758" id="Fill-29" fill="#231F1F"></path>
                <path d="M35.6469659,7.4043 C35.3109902,9.40803387 33.401722,10.7622435 31.382161,10.4294371 C29.3616732,10.096171 27.9964537,8.2023 28.3324293,6.19856613 C28.667478,4.19529194 30.5776732,2.84062258 32.5976976,3.17342903 C34.6167951,3.50669516 35.982478,5.40102581 35.6469659,7.4043" id="Fill-31" fill="#231F1F"></path>
                <path d="M19.1604805,23.1516073 C17.9597732,22.9534863 17.4949683,22.1674379 17.4685537,22.1205508 C17.415261,22.027696 17.4486268,21.9100185 17.5422366,21.8571556 C17.6363098,21.8052121 17.7540171,21.8373895 17.8068463,21.9297847 C17.8392854,21.9858653 18.6386756,23.298704 21.0150659,22.6087282 C21.1193341,22.5783895 21.2268463,22.6381476 21.2565049,22.740196 C21.2870902,22.8422444 21.2277732,22.9498089 21.1244317,22.9796879 C20.3204073,23.213204 19.6730171,23.2361879 19.1604805,23.1516073" id="Fill-33" fill="#BE1E2D"></path>
                <path d="M26.182278,42.3651581 C26.182278,46.5895935 22.7303024,50.0137306 18.4719854,50.0137306 C14.2132049,50.0137306 10.7616927,46.5895935 10.7616927,42.3651581 L10.7616927,34.7165855 C10.7616927,30.4930694 14.2132049,27.0684726 18.4719854,27.0684726 C22.7303024,27.0684726 26.182278,30.4930694 26.182278,34.7165855 L26.182278,42.3651581 Z" id="Fill-35" fill="#E73F30"></path>
                <mask id="mask-2" fill="white">
                    <use xlink:href="#path-1"></use>
                </mask>
                <g id="Clip-38"></g>
                <polygon id="Fill-37" fill="#E73F30" mask="url(#mask-2)" points="10.7614146 56.9756371 16.0999512 56.9756371 16.0999512 42.4631613 10.7614146 42.4631613"></polygon>
                <polygon id="Fill-39" fill="#E73F30" mask="url(#mask-2)" points="20.8439268 56.9756371 26.1824634 56.9756371 26.1824634 42.4631613 20.8439268 42.4631613"></polygon>
                <path d="M33.4774439,28.7324129 C33.9422488,29.7951871 35.2921756,30.2360177 36.4938098,29.7193403 C37.6968341,29.2017435 38.2937122,27.9215419 37.8312244,26.8601468 L33.8384439,17.7272758 C33.373639,16.6663403 32.0237122,16.2255097 30.822078,16.7417274 C29.6199805,17.2588645 29.0217122,18.5386065 29.4860537,19.6004613 L33.4774439,28.7324129 Z" id="Fill-40" fill="#CA3528" mask="url(#mask-2)"></path>
                <path d="M36.6394146,29.8829395 C37.7020244,29.4071734 38.1265122,28.0603185 37.5870976,26.8757298 C37.0472195,25.6916008 35.7482683,25.1179234 34.6856585,25.5927702 L25.5406341,29.6903347 C24.4761707,30.1651815 24.0516829,31.512496 24.5906341,32.6957056 C25.129122,33.880754 26.4294634,34.4544315 27.4943902,33.9786653 L36.6394146,29.8829395 Z" id="Fill-41" fill="#CA3528" mask="url(#mask-2)"></path>
                <path d="M33.7548439,17.6740911 C33.2918927,16.6122363 31.9419659,16.1704863 30.7394049,16.6885427 C29.5377707,17.2047605 28.9395024,18.4849621 29.4038439,19.5463573 L33.7548439,17.6740911 Z" id="Fill-42" fill="#E9BF85" mask="url(#mask-2)"></path>
                <path d="M4.51041463,28.7324129 C4.04607317,29.7951871 2.69568293,30.2360177 1.49312195,29.7193403 C0.29102439,29.2017435 -0.306780488,27.9215419 0.157097561,26.8601468 L4.14987805,17.7272758 C4.61329268,16.6663403 5.96460976,16.2255097 7.16578049,16.7417274 C8.36834146,17.2588645 8.96660976,18.5386065 8.50180488,19.6004613 L4.51041463,28.7324129 Z" id="Fill-43" fill="#CA3528" mask="url(#mask-2)"></path>
                <path d="M1.34932439,29.8829395 C0.285787805,29.4071734 -0.1387,28.0603185 0.401178049,26.8757298 C0.939202439,25.6916008 2.2395439,25.1179234 3.30215366,25.5927702 L12.4481049,29.6903347 C13.511178,30.1651815 13.9356659,31.512496 13.3976415,32.6957056 C12.8577634,33.880754 11.5592756,34.4544315 10.4948122,33.9786653 L1.34932439,29.8829395 Z" id="Fill-44" fill="#CA3528" mask="url(#mask-2)"></path>
                <path d="M4.23116098,17.6740911 C4.69596585,16.6122363 6.0463561,16.1704863 7.24938049,16.6885427 C8.45055122,17.2047605 9.04881951,18.4849621 8.58494146,19.5463573 L4.23116098,17.6740911 Z" id="Fill-45" fill="#E9BF85" mask="url(#mask-2)"></path>
                <path d="M16.594461,56.9424024 C16.594461,55.5527976 15.1926317,54.4261282 13.4636317,54.4261282 C11.7350951,54.4261282 10.3332659,55.5527976 10.3332659,56.9424024 L16.594461,56.9424024 Z" id="Fill-46" fill="#5F1600" mask="url(#mask-2)"></path>
                <path d="M26.6769268,56.9424024 C26.6769268,55.5527976 25.2764878,54.4261282 23.5460976,54.4261282 C21.817561,54.4261282 20.4152683,55.5527976 20.4152683,56.9424024 L26.6769268,56.9424024 Z" id="Fill-47" fill="#5F1600" mask="url(#mask-2)"></path>
                <path d="M19.3786098,26.7747387 C18.9828537,26.7581903 18.9175122,27.4610371 18.9175122,27.4610371 C18.8512439,26.8395532 18.4721707,26.7747387 18.4721707,26.7747387 L16.5443659,26.7747387 L16.5443659,28.1464161 L21.2897317,28.1464161 L21.2897317,26.7747387 L19.3786098,26.7747387 Z" id="Fill-48" fill="#E73F30" mask="url(#mask-2)"></path>
                <path d="M19.7026293,42.3817524 C19.296678,42.3348653 18.5603122,42.1045669 18.3735561,41.0560427 L18.3735561,40.9185992 C18.3698488,40.9425024 18.3638244,40.9641073 18.3605805,40.9875508 C18.3578,40.9641073 18.3517756,40.9425024 18.3480683,40.9185992 L18.3480683,41.0560427 C18.1613122,42.1045669 17.4249463,42.3348653 17.0189951,42.3817524 L10.7615073,42.3817524 L10.7615073,54.2952121 L26.1834829,54.2952121 L26.1834829,42.3817524 L19.7026293,42.3817524 Z" id="Fill-49" fill="#A90001" mask="url(#mask-2)"></path>
                <path d="M18.2137244,28.6758266 L18.2563585,28.6413508 L18.2554317,28.6413508 C18.2424561,28.6528427 18.2285537,28.6647944 18.2137244,28.6758266 L18.2137244,28.6758266 Z M20.1799927,28.6312379 C20.178139,28.635375 20.1772122,28.6381331 20.1772122,28.6381331 L20.1799927,28.6312379 Z M19.486261,29.249504 C19.4830171,29.2591573 19.4783829,29.2678911 19.4737488,29.2761653 L19.486261,29.249504 Z M19.3602122,27.8189879 C19.4487244,27.8994315 19.3314805,28.0184879 19.2642854,28.0823831 C19.2197976,28.1242137 19.1739195,28.1623669 19.1336024,28.1917863 C19.0742854,28.1338669 19.013578,28.078246 18.959822,28.0148105 C19.049261,27.9559718 19.2397244,27.7109637 19.3602122,27.8189879 L19.3602122,27.8189879 Z M18.3717488,27.9578105 C18.3365293,27.892996 18.3342122,27.8107137 18.4009439,27.7808347 C18.5473829,27.7155605 18.6808463,27.9352863 18.7526756,28.0148105 C18.7012366,28.0777863 18.6400659,28.1301895 18.5747244,28.1770766 C18.5056756,28.1122621 18.4241146,28.0529637 18.3717488,27.9578105 L18.3717488,27.9578105 Z M19.1336024,28.3779556 C19.2086756,28.423004 19.2499195,28.5029879 19.3263829,28.5461976 C19.2698463,28.608254 19.206822,28.6629556 19.1428707,28.7176573 C19.0710415,28.6726089 19.0219195,28.6064153 18.959822,28.5503347 C19.0094073,28.4846008 19.0766024,28.437254 19.1336024,28.3779556 L19.1336024,28.3779556 Z M18.7559195,28.5466573 C18.6942854,28.6064153 18.6331146,28.6661734 18.5700902,28.7227137 C18.4977976,28.6707702 18.4426512,28.6041169 18.3768463,28.5461976 C18.4357,28.4873589 18.4977976,28.4289798 18.5598951,28.3738185 C18.6331146,28.4188669 18.6915049,28.4924153 18.7559195,28.5466573 L18.7559195,28.5466573 Z M18.8537,28.4505847 C18.7990171,28.3908266 18.7359927,28.3379637 18.6799195,28.2782056 C18.7336756,28.2170685 18.7990171,28.1688024 18.8537,28.1108831 C18.918578,28.1683427 18.9760415,28.2326976 19.0427732,28.2873992 C18.9774317,28.3398024 18.9204317,28.4000202 18.8537,28.4505847 L18.8537,28.4505847 Z M18.8444317,28.6413508 C18.9157976,28.6891573 18.9690902,28.7539718 19.0330415,28.8095927 C18.9927244,28.8767056 18.9157976,28.9314073 18.8634317,28.9723185 C18.7962366,28.9231331 18.7420171,28.8615363 18.6706512,28.8187863 C18.7202366,28.750754 18.7943829,28.708004 18.8444317,28.6413508 L18.8444317,28.6413508 Z M18.9751146,29.0720685 C19.0321146,29.0210444 19.0905049,28.9695605 19.1428707,28.9148589 C19.1488951,28.9148589 19.1544561,28.9148589 19.1581634,28.9194556 C19.2128463,28.9677218 19.3806024,29.1120605 19.3699439,29.1966411 C19.3625293,29.2628347 19.2698463,29.2945524 19.182261,29.2729476 C19.1044073,29.2150282 19.0427732,29.1401008 18.9751146,29.0720685 L18.9751146,29.0720685 Z M18.5700902,28.9148589 C18.6400659,28.9576089 18.6915049,29.0224234 18.7577732,29.0720685 C18.6785293,29.1681411 18.5395049,29.3327056 18.3768463,29.2398508 C18.2989927,29.0711492 18.4894561,29.0008185 18.5700902,28.9148589 L18.5700902,28.9148589 Z M19.8454073,28.3191169 L19.8481878,28.3191169 L19.849578,28.3191169 L19.8454073,28.3191169 Z M19.7244561,28.7047863 C19.6943341,28.6859395 19.6642122,28.6597379 19.6359439,28.6413508 C19.589139,28.6119315 19.5474317,28.5825121 19.5237976,28.5503347 C19.589139,28.4951734 19.6660659,28.3894476 19.7555049,28.3545121 C19.9149195,28.2915363 20.0771146,28.3963427 20.0687732,28.5461976 C20.0627488,28.6611169 19.9200171,28.7571895 19.7847,28.7291492 L19.7244561,28.7047863 Z M17.8036024,28.8486653 C17.7822854,28.8468266 17.7623585,28.8417702 17.7415049,28.836254 L17.8036024,28.8486653 Z M17.9231634,28.7323669 C17.7623585,28.7663831 17.5987732,28.6381331 17.6478951,28.4551815 C17.662261,28.4050766 17.7340902,28.3545121 17.7693098,28.3356653 C17.8091634,28.3131411 17.8847,28.2965927 17.9430902,28.3214153 C18.0380902,28.3609476 18.107139,28.4708105 18.1840659,28.5268911 C18.1534805,28.5701008 18.107139,28.6022782 18.063578,28.6413508 C18.0218707,28.6785847 17.9778463,28.720875 17.9231634,28.7323669 L17.9231634,28.7323669 Z M19.9816512,28.1968427 C19.8750659,28.1504153 19.7462366,28.193625 19.6744073,28.234996 C19.5770902,28.2896976 19.5006268,28.3926653 19.4162854,28.4579395 L19.3852366,28.4308185 C19.3375049,28.378875 19.2879195,28.3310685 19.2397244,28.2832621 C19.3273098,28.163746 19.5590171,28.0957137 19.5441878,27.8764476 C19.5404805,27.837375 19.5177732,27.7766976 19.5006268,27.7468185 C19.4556756,27.6728105 19.3467732,27.6158105 19.2207244,27.6466089 C19.1447244,27.6640766 19.0877244,27.7275121 19.0330415,27.7757782 C18.9741878,27.8254234 18.9204317,27.8764476 18.859261,27.9187379 C18.7336756,27.8304798 18.6757488,27.6502863 18.4968707,27.6268427 C18.3254073,27.6052379 18.2077,27.7155605 18.1988951,27.8520847 C18.1900902,27.9596492 18.2521878,28.0410121 18.3142854,28.1058266 C18.3263341,28.1191573 18.3805537,28.1655847 18.4208707,28.2055766 L18.4496024,28.234996 C18.4611878,28.2501653 18.4695293,28.2625766 18.4686024,28.2680927 C18.4676756,28.2731492 18.4329195,28.294754 18.4199439,28.306246 C18.3698951,28.3526734 18.3230902,28.4101331 18.2809195,28.435875 C18.1493098,28.3306089 18.0487488,28.1554718 17.8170415,28.1821331 C17.6506756,28.2018992 17.5028463,28.3572702 17.5037732,28.5402218 C17.5051634,28.6859395 17.5848707,28.7558105 17.6673585,28.8284395 C17.7910902,28.8813024 17.917139,28.8799234 18.0380902,28.8284395 C18.1168707,28.763625 18.2002854,28.706625 18.2809195,28.6464073 C18.3499683,28.6942137 18.4102122,28.7539718 18.4686024,28.8137298 C18.4009439,28.8914153 18.2837,28.9530121 18.232261,29.0532218 C18.1136268,29.2793831 18.3407,29.4660121 18.5649927,29.4021169 C18.6924317,29.3658024 18.7712122,29.2306573 18.8740902,29.1731976 C18.9955049,29.2531815 19.070578,29.4517621 19.2934805,29.4209637 C19.4352854,29.4021169 19.5275049,29.2761653 19.5098951,29.148375 C19.4890415,28.9939234 19.3249927,28.9212944 19.2550171,28.8137298 C19.3203585,28.7673024 19.3602122,28.6951331 19.4278707,28.651004 C19.5316756,28.7296089 19.6391878,28.8551008 19.7805293,28.8803831 C20.0066756,28.9222137 20.2128951,28.7296089 20.2189195,28.5218347 C20.2226268,28.3825524 20.1090902,28.250625 19.9816512,28.1968427 L19.9816512,28.1968427 Z" id="Fill-50" fill="#FFFFFF" mask="url(#mask-2)"></path>
                <path d="M18.2137244,33.1500508 L18.2563585,33.1151153 L18.2554317,33.1151153 C18.2424561,33.1266073 18.2285537,33.1385589 18.2137244,33.1500508 L18.2137244,33.1500508 Z M20.1799927,33.1050024 C20.178139,33.1086798 20.1772122,33.1118976 20.1772122,33.1118976 L20.1799927,33.1050024 Z M19.486261,33.7237282 C19.4830171,33.7338411 19.4783829,33.7416556 19.4737488,33.7503895 L19.486261,33.7237282 Z M19.3602122,32.2932121 C19.4487244,32.3727363 19.3314805,32.4927121 19.2642854,32.5566073 C19.2197976,32.5979782 19.1739195,32.6370508 19.1336024,32.6660105 C19.0742854,32.6076315 19.013578,32.5524702 18.959822,32.4894944 C19.049261,32.430196 19.2397244,32.1851879 19.3602122,32.2932121 L19.3602122,32.2932121 Z M18.3717488,32.4320347 C18.3365293,32.3667605 18.3342122,32.2844782 18.4009439,32.2550589 C18.5473829,32.189325 18.6808463,32.4090508 18.7526756,32.4894944 C18.7012366,32.5515508 18.6400659,32.603954 18.5747244,32.6517605 C18.5056756,32.5864863 18.4241146,32.5271879 18.3717488,32.4320347 L18.3717488,32.4320347 Z M19.1336024,32.8526395 C19.2086756,32.8972282 19.2499195,32.9767524 19.3263829,33.0208815 C19.2698463,33.0824782 19.206822,33.1367202 19.1428707,33.1923411 C19.0710415,33.1477524 19.0219195,33.0806395 18.959822,33.0250185 C19.0094073,32.9583653 19.0766024,32.9110185 19.1336024,32.8526395 L19.1336024,32.8526395 Z M18.7559195,33.0208815 C18.6942854,33.0806395 18.6331146,33.1403976 18.5700902,33.1964782 C18.4977976,33.1449944 18.4426512,33.0774218 18.3768463,33.0208815 C18.4357,32.9611234 18.4977976,32.903204 18.5598951,32.8485024 C18.6331146,32.8930911 18.6915049,32.9661798 18.7559195,33.0208815 L18.7559195,33.0208815 Z M18.8537,32.9248089 C18.7990171,32.8650508 18.7359927,32.8121879 18.6799195,32.7524298 C18.7336756,32.6908331 18.7990171,32.6425669 18.8537,32.5851073 C18.918578,32.6421073 18.9760415,32.7064621 19.0427732,32.7620831 C18.9774317,32.8135669 18.9204317,32.8737847 18.8537,32.9248089 L18.8537,32.9248089 Z M18.8444317,33.1151153 C18.9157976,33.1633815 18.9690902,33.228196 19.0330415,33.2828976 C18.9927244,33.3509298 18.9157976,33.4065508 18.8634317,33.4451637 C18.7962366,33.3968976 18.7420171,33.3357605 18.6706512,33.2930105 C18.7202366,33.2245185 18.7943829,33.1831476 18.8444317,33.1151153 L18.8444317,33.1151153 Z M18.9751146,33.5462927 C19.0321146,33.4948089 19.0905049,33.4437847 19.1428707,33.3890831 C19.1488951,33.3890831 19.1544561,33.3895427 19.1544561,33.3895427 C19.2128463,33.441946 19.3806024,33.585825 19.3699439,33.6708653 C19.3625293,33.7365992 19.2698463,33.7683169 19.182261,33.7476315 C19.1044073,33.6887927 19.0427732,33.614325 18.9751146,33.5462927 L18.9751146,33.5462927 Z M18.5700902,33.3890831 C18.6400659,33.4318331 18.6915049,33.4975669 18.7577732,33.5462927 C18.6785293,33.6423653 18.5395049,33.8064702 18.3768463,33.714075 C18.2989927,33.5462927 18.4894561,33.4750427 18.5700902,33.3890831 L18.5700902,33.3890831 Z M19.8454073,32.7938008 L19.8481878,32.7938008 L19.849578,32.7938008 L19.8454073,32.7938008 Z M19.7244561,33.1790105 C19.6943341,33.159704 19.6642122,33.1335024 19.6359439,33.1151153 C19.589139,33.087075 19.5474317,33.0562766 19.5237976,33.0250185 C19.589139,32.9689379 19.6660659,32.8632121 19.7555049,32.8287363 C19.9149195,32.7653008 20.0771146,32.8701073 20.0687732,33.0208815 C20.0627488,33.1353411 19.9200171,33.2314137 19.7847,33.2029137 L19.7244561,33.1790105 Z M17.8036024,33.3224298 C17.7822854,33.3205911 17.7623585,33.3155347 17.7415049,33.3109379 L17.8036024,33.3224298 Z M17.9231634,33.2065911 C17.7623585,33.2401476 17.5987732,33.1118976 17.6478951,32.928946 C17.662261,32.8788411 17.7340902,32.8287363 17.7693098,32.8103492 C17.8091634,32.7869056 17.8847,32.7708169 17.9430902,32.7956395 C18.0380902,32.8347121 18.107139,32.944575 18.1840659,33.0011153 C18.1534805,33.044325 18.107139,33.0774218 18.063578,33.1151153 C18.0218707,33.1523492 17.9778463,33.1950992 17.9231634,33.2065911 L17.9231634,33.2065911 Z M19.9816512,32.6710669 C19.8750659,32.6246395 19.7462366,32.6678492 19.6744073,32.7092202 C19.5770902,32.7639218 19.5006268,32.8668895 19.4162854,32.931704 L19.3852366,32.9041234 C19.3375049,32.8540185 19.2879195,32.8052927 19.2397244,32.7574863 C19.3273098,32.6388895 19.5590171,32.5699379 19.5441878,32.3502121 C19.5404805,32.3111395 19.5177732,32.2518411 19.5006268,32.2201234 C19.4556756,32.1470347 19.3467732,32.0904944 19.2207244,32.1208331 C19.1447244,32.1387605 19.0877244,32.2017363 19.0330415,32.2500024 C18.9741878,32.2996476 18.9204317,32.3511315 18.859261,32.3925024 C18.7336756,32.304704 18.6757488,32.1249702 18.4968707,32.1015266 C18.3254073,32.0794621 18.2077,32.189325 18.1988951,32.3263089 C18.1900902,32.4338734 18.2521878,32.5152363 18.3142854,32.5800508 C18.3263341,32.5929218 18.3805537,32.6398089 18.4208707,32.6793411 L18.4496024,32.7092202 C18.4611878,32.7230105 18.4695293,32.7358815 18.4695293,32.7358815 C18.4676756,32.7473734 18.4329195,32.7689782 18.4199439,32.7804702 C18.3698951,32.8278169 18.3230902,32.8838976 18.2809195,32.9100992 C18.1493098,32.8043734 18.0487488,32.6292363 17.8170415,32.6563573 C17.6506756,32.6761234 17.5028463,32.8310347 17.5037732,33.0149056 C17.5051634,33.159704 17.5848707,33.229575 17.6673585,33.3026637 C17.7910902,33.3555266 17.917139,33.3536879 18.0380902,33.3026637 C18.1168707,33.2378492 18.2002854,33.1813089 18.2809195,33.1206315 C18.3499683,33.1693573 18.4102122,33.228196 18.4686024,33.2874944 C18.4009439,33.3656395 18.2837,33.427696 18.232261,33.5269863 C18.1136268,33.7531476 18.3407,33.9402363 18.5649927,33.8758815 C18.6924317,33.8395669 18.7712122,33.7053411 18.8740902,33.6465024 C18.9955049,33.726946 19.070578,33.9255266 19.2934805,33.8951879 C19.4352854,33.8758815 19.5275049,33.7513089 19.5098951,33.6225992 C19.4890415,33.4690669 19.3249927,33.3955185 19.2550171,33.2874944 C19.3203585,33.2410669 19.3602122,33.1698169 19.4278707,33.1252282 C19.5316756,33.2038331 19.6391878,33.329325 19.7805293,33.3555266 C20.0066756,33.3968976 20.2128951,33.2038331 20.2189195,32.9960589 C20.2226268,32.8563169 20.1090902,32.7257685 19.9816512,32.6710669 L19.9816512,32.6710669 Z" id="Fill-51" fill="#FFFFFF" mask="url(#mask-2)"></path>
                <path d="M18.2137244,37.631446 L18.2563585,37.5978895 L18.2554317,37.5978895 C18.2424561,37.6080024 18.2285537,37.619954 18.2137244,37.631446 L18.2137244,37.631446 Z M20.1799927,37.5873169 C20.178139,37.5909944 20.1772122,37.5942121 20.1772122,37.5942121 L20.1799927,37.5873169 Z M19.486261,38.2051234 C19.4830171,38.2143169 19.4783829,38.2225911 19.4737488,38.232704 L19.486261,38.2051234 Z M19.3602122,36.7746073 C19.4487244,36.8550508 19.3314805,36.9741073 19.2642854,37.0370831 C19.2197976,37.0789137 19.1739195,37.118446 19.1336024,37.148325 C19.0742854,37.0904056 19.013578,37.0347847 18.959822,36.9708895 C19.049261,36.9115911 19.2397244,36.6656637 19.3602122,36.7746073 L19.3602122,36.7746073 Z M18.3717488,36.9129702 C18.3365293,36.8481556 18.3342122,36.7654137 18.4009439,36.736454 C18.5473829,36.6707202 18.6808463,36.8899863 18.7526756,36.9708895 C18.7012366,37.032946 18.6400659,37.0853492 18.5747244,37.1336153 C18.5056756,37.0678815 18.4241146,37.0076637 18.3717488,36.9129702 L18.3717488,36.9129702 Z M19.1336024,37.3340347 C19.2086756,37.3786234 19.2499195,37.4581476 19.3263829,37.5013573 C19.2698463,37.5638734 19.206822,37.6190347 19.1428707,37.6737363 C19.0710415,37.6296073 19.0219195,37.5620347 18.959822,37.5064137 C19.0094073,37.4402202 19.0766024,37.3924137 19.1336024,37.3340347 L19.1336024,37.3340347 Z M18.7559195,37.5022766 C18.6942854,37.5620347 18.6331146,37.6217927 18.5700902,37.6792524 C18.4977976,37.6263895 18.4426512,37.5597363 18.3768463,37.5013573 C18.4357,37.4425185 18.4977976,37.3855185 18.5598951,37.3289782 C18.6331146,37.3744863 18.6915049,37.4484944 18.7559195,37.5022766 L18.7559195,37.5022766 Z M18.8537,37.406204 C18.7990171,37.3455266 18.7359927,37.2926637 18.6799195,37.233825 C18.7336756,37.1731476 18.7990171,37.1239621 18.8537,37.0665024 C18.918578,37.1235024 18.9760415,37.1878573 19.0427732,37.2434782 C18.9774317,37.2954218 18.9204317,37.3551798 18.8537,37.406204 L18.8537,37.406204 Z M18.8444317,37.5978895 C18.9157976,37.645696 18.9690902,37.7095911 19.0330415,37.7647524 C18.9927244,37.832325 18.9157976,37.887946 18.8634317,37.9274782 C18.7962366,37.8792121 18.7420171,37.818075 18.6706512,37.7748653 C18.7202366,37.7068331 18.7943829,37.6636234 18.8444317,37.5978895 L18.8444317,37.5978895 Z M18.9751146,38.0276879 C19.0321146,37.976204 19.0905049,37.9260992 19.1428707,37.8704782 L19.1544561,37.8718573 C19.2128463,37.9242605 19.3806024,38.0681395 19.3699439,38.1522605 C19.3625293,38.2179944 19.2698463,38.2501718 19.182261,38.2290266 C19.1044073,38.1701879 19.0427732,38.0948008 18.9751146,38.0276879 L18.9751146,38.0276879 Z M18.5700902,37.8704782 C18.6400659,37.9141476 18.6915049,37.9789621 18.7577732,38.0276879 C18.6785293,38.1228411 18.5395049,38.2874056 18.3768463,38.1954702 C18.2989927,38.0267685 18.4894561,37.9573573 18.5700902,37.8704782 L18.5700902,37.8704782 Z M19.8454073,37.275196 L19.8481878,37.2742766 L19.849578,37.275196 L19.8454073,37.275196 Z M19.7244561,37.6604056 C19.6943341,37.6410992 19.6642122,37.6158169 19.6359439,37.5978895 C19.589139,37.5675508 19.5474317,37.5381315 19.5237976,37.5064137 C19.589139,37.4517121 19.6660659,37.3455266 19.7555049,37.3101315 C19.9149195,37.2476153 20.0771146,37.3524218 20.0687732,37.5013573 C20.0627488,37.6176556 19.9200171,37.7137282 19.7847,37.6852282 L19.7244561,37.6604056 Z M17.8036024,37.803825 C17.7822854,37.802446 17.7623585,37.7978492 17.7415049,37.7918734 L17.8036024,37.803825 Z M17.9231634,37.6889056 C17.7623585,37.7215427 17.5987732,37.5932927 17.6478951,37.4103411 C17.662261,37.360696 17.7340902,37.3101315 17.7693098,37.290825 C17.8091634,37.2692202 17.8847,37.2522121 17.9430902,37.2774944 C18.0380902,37.3165669 18.107139,37.4250508 18.1840659,37.4825105 C18.1534805,37.5257202 18.107139,37.5578976 18.063578,37.5978895 C18.0218707,37.634204 17.9778463,37.6774137 17.9231634,37.6889056 L17.9231634,37.6889056 Z M19.9816512,37.1515427 C19.8750659,37.1060347 19.7462366,37.1492444 19.6744073,37.1906153 C19.5770902,37.2462363 19.5006268,37.3482847 19.4162854,37.4135589 L19.3852366,37.3855185 C19.3375049,37.3354137 19.2879195,37.2866879 19.2397244,37.2379621 C19.3273098,37.1202847 19.5590171,37.0504137 19.5441878,36.8316073 C19.5404805,36.792075 19.5177732,36.7323169 19.5006268,36.7024379 C19.4556756,36.6293492 19.3467732,36.5723492 19.2207244,36.6031476 C19.1447244,36.6215347 19.0877244,36.6840508 19.0330415,36.7313976 C18.9741878,36.7819621 18.9204317,36.8316073 18.859261,36.8748169 C18.7336756,36.7870185 18.6757488,36.6063653 18.4968707,36.5833815 C18.3254073,36.5608573 18.2077,36.6707202 18.1988951,36.8086234 C18.1900902,36.9152685 18.2521878,36.9957121 18.3142854,37.0623653 C18.3263341,37.0752363 18.3805537,37.121204 18.4208707,37.1616556 L18.4496024,37.1906153 C18.4611878,37.205325 18.4695293,37.218196 18.4695293,37.218196 C18.4676756,37.2296879 18.4329195,37.2512927 18.4199439,37.2627847 C18.3698951,37.3092121 18.3230902,37.3657524 18.2809195,37.3914944 C18.1493098,37.2857685 18.0487488,37.1101718 17.8170415,37.1377524 C17.6506756,37.1584379 17.5028463,37.3124298 17.5037732,37.4963008 C17.5051634,37.6406395 17.5848707,37.7118895 17.6673585,37.7840589 C17.7910902,37.8378411 17.917139,37.8350831 18.0380902,37.7840589 C18.1168707,37.7201637 18.2002854,37.6617847 18.2809195,37.602946 C18.3499683,37.6507524 18.4102122,37.7095911 18.4686024,37.7693492 C18.4009439,37.8461153 18.2837,37.9090911 18.232261,38.0083815 C18.1136268,38.2345427 18.3407,38.4216315 18.5649927,38.3577363 C18.6924317,38.3218815 18.7712122,38.1876556 18.8740902,38.1278976 C18.9955049,38.2083411 19.070578,38.4069218 19.2934805,38.3765831 C19.4352854,38.3577363 19.5275049,38.232704 19.5098951,38.1039944 C19.4890415,37.9504621 19.3249927,37.8769137 19.2550171,37.7693492 C19.3203585,37.7224621 19.3602122,37.6507524 19.4278707,37.6066234 C19.5316756,37.6852282 19.6391878,37.8116395 19.7805293,37.8360024 C20.0066756,37.8778331 20.2128951,37.6852282 20.2189195,37.477454 C20.2226268,37.3390911 20.1090902,37.2062444 19.9816512,37.1515427 L19.9816512,37.1515427 Z" id="Fill-52" fill="#FFFFFF" mask="url(#mask-2)"></path>
            </g>
        </g>
    </g>
</svg>