<?xml version="1.0" encoding="UTF-8"?>
<svg width="207px" height="86px" viewBox="0 0 207 86" version="1.1" xmlns="http://www.w3.org/2000/svg" xmlns:xlink="http://www.w3.org/1999/xlink">
    <!-- Generator: Sketch 41.1 (35376) - http://www.bohemiancoding.com/sketch -->
    <title>Group 5</title>
    <desc>Created with Sketch.</desc>
    <defs>
        <polygon id="path-1" points="40.9955892 0.568683035 0.152325296 0.568683035 0.152325296 42.1750576 40.9955892 42.1750576 40.9955892 0.568683035"></polygon>
        <filter x="-50%" y="-50%" width="200%" height="200%" filterUnits="objectBoundingBox" id="filter-3">
            <feOffset dx="0" dy="1" in="SourceAlpha" result="shadowOffsetOuter1"></feOffset>
            <feGaussianBlur stdDeviation="0.5" in="shadowOffsetOuter1" result="shadowBlurOuter1"></feGaussianBlur>
            <feColorMatrix values="0 0 0 0 0   0 0 0 0 0   0 0 0 0 0  0 0 0 0.5 0" type="matrix" in="shadowBlurOuter1" result="shadowMatrixOuter1"></feColorMatrix>
            <feMerge>
                <feMergeNode in="shadowMatrixOuter1"></feMergeNode>
                <feMergeNode in="SourceGraphic"></feMergeNode>
            </feMerge>
        </filter>
    </defs>
    <g id="Page-1" stroke="none" stroke-width="1" fill="none" fill-rule="evenodd">
        <g id="Artboard" transform="translate(-70.000000, -430.000000)">
            <g id="img_slogain" transform="translate(67.000000, 424.000000)">
                <g id="Group-5" transform="translate(3.000000, 0.000000)">
                    <g id="Group-2" transform="translate(0.000000, 45.000000)">
                        <g id="Page-1" transform="translate(0.000000, 1.383295)">
                            <path d="M35.3553414,16.3452837 C36.5862149,14.2066001 37.1010803,12.4379687 37.1010803,10.9944933 C36.9990079,10.6693372 36.3295327,10.5305677 35.047623,10.5768242 C34.4832224,10.6693372 33.9188219,10.7618503 33.4039565,10.8557238 C32.8905921,11.3686269 32.3787289,12.1590691 31.967437,13.1358979 C31.3520002,14.1127266 30.7365635,15.0895554 30.2216981,15.9262541 C31.1463543,16.3915402 32.2241192,16.8105698 33.4039565,17.0908299 C34.2265403,17.1833429 34.841977,16.9969564 35.3553414,16.3452837 M35.9197419,22.8579289 C34.7909408,22.4388993 33.1472743,22.6252858 30.9932456,23.3245755 C30.1196256,23.4170885 29.6572975,24.2075308 29.6572975,25.6033891 C29.5552251,27.045504 29.8629435,27.8359462 30.5819537,27.9298197 C32.3261916,27.8359462 33.6621397,27.6971766 34.6363311,27.5107901 C35.2532689,27.2318905 35.7651322,26.4414483 36.2274603,25.04559 C36.5862149,23.6959881 36.5351787,22.9504419 35.9197419,22.8579289 M41.0533852,12.2053256 C39.8720468,15.8337411 38.6396722,18.5315843 37.3067262,20.2539592 C37.7165171,20.3002157 38.127809,20.3940892 38.5375998,20.4866023 C42.0275766,21.5096875 43.1563777,22.5327728 41.9765404,23.4170885 C40.1797652,25.2768725 38.9999279,27.4645336 38.6396722,29.9773507 C38.5375998,30.6276629 38.2298814,30.860306 37.7675533,30.7677929 C37.25569,30.6739194 36.7918608,30.6276629 36.4331062,30.6276629 C34.7909408,30.4888934 33.0962381,30.6276629 31.3520002,31.092949 C31.0442818,31.1854621 30.6855272,31.3718486 30.3778088,31.5582352 C30.0160521,31.8371347 29.6062613,31.6970047 29.2985429,31.092949 C27.6053413,28.4876189 26.3729666,25.9748017 25.8085661,23.5109621 C25.1916283,22.8579289 25.1916283,22.4388993 25.8085661,22.3463863 C26.2693931,22.2538732 26.8848299,22.1137432 27.7074137,21.9287172 C28.6831061,21.6960741 30.3778088,21.2770445 32.8905921,20.7192453 C33.6096024,20.5328588 34.2775765,20.3940892 34.8930132,20.3002157 C34.4321862,19.8811861 33.9188219,19.5546696 33.4549927,19.3696435 C32.3261916,18.8104839 31.1463543,17.8812721 29.8629435,16.6241833 C29.7593699,16.7166963 29.7083337,16.8105698 29.7593699,16.8105698 C28.3228505,19.0431269 27.2976229,20.3940892 26.6296488,20.7192453 C25.5518839,21.463431 24.679765,21.7885871 24.1153645,21.6960741 C23.5494628,21.6022006 23.4984266,21.4171745 24.0643282,21.1369145 C25.2952018,20.1151897 26.3204294,18.5792013 27.2465866,16.5779268 C28.220778,14.4854997 28.7341424,13.0420244 28.7851786,12.2053256 C28.1697418,12.4842252 27.6563775,12.7631248 27.2465866,13.0420244 C26.8337937,13.2746674 26.4750391,13.1358979 26.2183569,12.4379687 C25.8596023,11.786296 25.5518839,11.2284969 25.346238,10.8094673 C25.0385196,10.3441812 25.7049926,10.1115381 27.3996953,10.1115381 C28.9908245,9.74012549 30.9422094,9.27483937 33.3529203,8.53065368 C35.6630597,7.87762053 37.7675533,7.7851075 39.7684733,8.2517541 C42.0786128,9.27483937 42.9522328,9.92515155 42.3878323,10.2979246 C41.7708944,10.6693372 41.3100674,11.2747534 41.0533852,12.2053256 M34.5852949,35.6056802 C41.002349,36.2110964 45.6211269,37.0015386 48.4446307,38.1184973 C49.2657134,38.3973969 49.2657134,38.5837835 48.4446307,38.7688095 C44.8510804,39.8857683 41.2064939,40.4435675 37.6144446,40.5360805 C33.9188219,40.629954 32.0184732,40.3973109 31.967437,39.7918948 C31.5576462,38.3511404 30.1706618,37.2341816 27.8620234,36.582509 C25.6539564,35.6995537 24.1153645,35.2342676 23.3948531,35.2342676 C22.5737704,35.2342676 21.0351785,34.5349779 18.7760752,33.0942235 C16.4659357,31.7432612 13.5403595,30.9990755 10.1524551,30.8140495 L9.94680916,30.8140495 C9.63909077,31.1854621 9.33137239,31.5582352 9.023654,31.8833912 C7.74174424,33.0942235 7.12330534,33.9771788 7.32895129,34.4424649 C7.43252479,34.9091115 7.27791507,35.2805241 6.97019668,35.4669107 C5.48264098,36.3498659 4.45591232,36.8614085 3.83897448,37.1403081 C3.11996421,37.4192077 2.09473662,37.6055942 0.656716065,37.6055942 C-0.11333043,37.6981073 -0.215402869,37.4654642 0.4000339,36.8614085 C2.91581933,35.0478811 4.7636307,33.4656361 6.04704153,32.0235213 C8.35718101,29.6508342 9.53701833,27.185634 9.63909077,24.5803038 C9.63909077,24.1150177 10.2034913,24.0225047 11.3337935,24.3014043 C12.4625946,24.5803038 12.9249227,24.8129469 12.8213492,24.997973 C12.6172043,25.230616 12.3079849,25.8822887 11.898194,26.9067344 C12.3079849,27.3706601 13.1816049,27.8359462 14.6706616,28.3012323 C14.7727341,26.952991 14.9273438,24.6728169 15.184026,21.2770445 C14.6706616,21.3695575 14.2083335,21.5096875 13.8480779,21.6484571 C9.74266428,22.8579289 6.61144208,23.9748877 4.45591232,25.04559 C4.04612149,25.370746 3.27457393,24.9517164 2.24784527,23.8823747 C1.11904418,22.8116724 1.47929985,22.3001298 3.32561015,22.3926428 C6.14911397,21.3695575 9.48598211,20.3002157 13.4893232,18.9968704 C14.0026876,18.8581009 14.5670881,18.7179708 15.184026,18.5792013 C15.184026,17.7411421 15.184026,16.9030829 15.2860984,15.8799976 L15.2860984,15.741228 C13.2836773,16.1588972 12.1548762,16.5779268 11.8471578,16.9969564 C11.4358659,17.508499 10.8714654,16.9969564 10.1014189,15.2296854 C9.28033617,13.5998235 9.12572644,12.8569983 9.69012699,12.9495113 C9.89577294,12.9957678 11.7450854,12.5767382 15.3371346,11.6475265 C15.3371346,6.85453526 15.184026,3.87779248 14.97838,2.76219418 C14.8748065,2.10916103 15.184026,1.83026145 15.9015352,1.92277448 C17.0303363,2.06290451 17.9549925,2.25065154 18.8781476,2.52955112 C19.8538401,2.90096372 20.0069487,3.41250636 19.4425482,3.97030551 C18.519393,4.52810466 18.1096022,6.29673611 18.2116747,9.27483937 C18.2116747,9.78638201 18.1606384,10.3904377 18.1606384,10.9482368 C20.3672044,10.2040511 21.4975066,10.1115381 21.5485428,10.5768242 C21.5485428,11.0421103 21.599579,11.693783 21.7016515,12.5304817 C21.805225,13.3209239 21.3428969,13.9263401 20.2125947,14.2528567 C19.4950855,14.5317562 18.7760752,14.8106558 18.058566,15.0432989 C17.9549925,15.9262541 17.9039563,16.9030829 17.9549925,17.8812721 L18.8781476,17.7411421 C20.5728504,17.3697295 21.5485428,17.1370864 21.805225,16.9969564 C22.0093698,16.9030829 22.266052,17.0445734 22.5737704,17.323473 C22.7794163,17.6948856 23.0360985,17.9737851 23.4458893,18.0676586 C23.7551088,18.2064282 23.9097185,18.6717143 24.1153645,19.4159 C24.2174369,20.2539592 23.9607547,20.5791153 23.4458893,20.3940892 C21.599579,20.3002157 19.7502666,20.4403458 17.8529201,20.7192453 C17.7493465,21.4171745 17.6983103,22.1599997 17.6983103,22.8116724 C18.2116747,23.2320625 18.8271114,23.370832 19.4950855,23.0919325 C20.4182406,22.9041854 21.3939331,22.7654159 22.3696255,22.5327728 C22.8814888,22.4388993 23.1907082,22.8579289 23.3438169,23.7422446 C23.4458893,24.7190734 23.2927807,25.1843595 22.9340261,25.2768725 C22.1129434,25.4632591 21.2408244,25.7421587 20.2636309,26.0224187 C19.2894395,26.3013183 18.4173206,26.7203479 17.7493465,27.185634 C17.8529201,28.0223327 17.9549925,28.6740054 18.1606384,29.185548 L18.1606384,29.5120646 C18.9817212,29.9773507 21.3939331,30.9065625 25.3972742,32.3024208 C29.5041888,34.3485914 32.5318375,35.4206541 34.5852949,35.6056802" id="Fill-1" fill="#000000"></path>
                            <path d="M85.117748,25.7889594 C84.5518464,25.3236732 84.7064561,25.0910302 85.6311123,24.9985172 C88.7623345,25.3699298 91.4807638,26.0229629 93.9965492,26.9059181 C94.3042676,26.9997917 94.40634,27.8827469 94.3553038,29.4187353 C94.2532313,30.9533632 93.945513,31.882575 93.5342211,32.1165785 C93.0223578,32.3492216 92.6110659,32.2567085 92.3033475,31.882575 C91.8935567,31.5111623 91.3786913,30.9996197 90.9163632,30.3016905 C88.4020788,28.3942895 86.452195,26.8596616 85.117748,25.7889594 L85.117748,25.7889594 Z M83.8853734,15.6941552 C83.7817999,16.9961401 83.7307637,18.3457419 83.7817999,19.7878568 C84.9616372,19.6014703 86.0409031,19.4150837 87.0165956,19.1838011 C87.3753502,19.0436711 87.7341048,18.5321285 88.0418232,17.6015562 C88.3495416,16.7172405 88.2985053,16.2519544 87.8887145,16.1594414 C86.7088772,15.7404118 85.3233939,15.6016422 83.8853734,15.6941552 L83.8853734,15.6941552 Z M81.2675155,20.1606299 L81.2675155,17.6015562 C81.163942,17.0900136 81.1129058,16.6247275 81.2149782,16.1594414 C79.830996,16.4845975 78.3929755,16.9498836 76.956456,17.5090432 C76.4430917,17.6491732 76.2374457,18.2069724 76.2884819,19.1361841 C76.2884819,20.1143734 76.4941279,20.625916 77.1095646,20.625916 C78.5986214,20.4871465 79.9841047,20.3470164 81.2675155,20.1606299 L81.2675155,20.1606299 Z M83.6797274,22.7183431 C83.372009,27.8827469 83.5251177,31.2785193 84.1930918,32.8607642 C84.3987377,33.5124369 83.7307637,34.0239795 82.3452804,34.3028791 C80.9072598,34.5817786 80.4464328,34.1164925 80.9072598,32.8145077 C81.0108333,31.882575 81.1129058,29.7901479 81.2149782,26.5807621 C80.3428593,26.8134051 79.2140582,27.5113343 77.9306474,28.5806761 C76.1353733,29.8840214 73.9273062,30.8608502 71.3604846,31.6036754 C70.8471203,31.6975489 70.3862932,31.6975489 70.0770738,31.6036754 C69.7183192,31.5111623 69.8729289,31.2322628 70.5904381,30.7207201 C73.3118695,28.9534492 75.7751176,27.0460482 77.9816836,25.0447737 C78.7532311,24.2543315 79.4197041,23.5564023 80.0351409,22.9047296 C79.2140582,23.0924766 78.4950479,23.3237592 77.8285749,23.6040193 C77.5193555,23.6502758 77.2116371,23.7890453 76.9039187,24.0216884 C76.4941279,24.2543315 76.1864095,24.1155619 75.9297273,23.6040193 C74.2350246,21.6027448 72.9005776,19.6477268 72.0794949,17.6954298 C71.5661305,17.0437571 71.5661305,16.7172405 72.1320321,16.5771105 C72.5928592,16.530854 73.1572597,16.3920844 73.87627,16.2056979 C75.3653268,15.8342853 77.8285749,15.2288691 81.2149782,14.4384269 C81.1129058,13.3677246 81.0618696,12.4385129 81.163942,11.5079406 C78.1873295,12.0194833 76.3395182,12.5772824 75.7240814,13.1813381 C75.3142906,13.6928807 74.7483889,13.0888251 74.1329522,11.2752976 C73.4139419,9.50666614 73.3118695,8.71622393 73.9273062,8.85635396 C74.2350246,8.94886699 76.5451641,8.66996742 81.0618696,7.92442123 C80.8562236,5.134065 80.703115,3.31917704 80.5485052,2.4362218 C80.4464328,1.78318865 80.703115,1.50428907 81.4716604,1.59816259 C82.6019626,1.69067562 83.577655,1.87706216 84.6028826,2.10970522 C85.6821485,2.52873483 85.8877945,3.04027746 85.1687842,3.59807661 C84.3987377,4.10961925 83.9364096,5.41296458 83.8853734,7.45913512 C84.9616372,7.32036557 86.2465491,7.13397903 87.6320323,6.90133597 C89.4288075,6.43604985 90.3519627,6.43604985 90.4555362,6.80882294 C90.4555362,7.18023554 90.4555362,7.69177818 90.5065724,8.34481133 C90.5065724,9.04138002 90.0442443,9.46040962 89.1721253,9.64679617 C87.5284588,10.2045953 85.784221,10.716138 83.8853734,11.088911 L83.8853734,13.8792673 C86.6053037,13.3677246 88.7623345,13.3677246 90.3519627,13.8792673 C93.6377946,14.903713 94.7665957,15.8342853 93.6377946,16.670984 C92.0466654,18.0205858 91.0709729,19.6477268 90.7122183,21.5564883 C90.6086448,22.2068004 90.3009264,22.4857 89.8911356,22.3469305 C89.3777713,22.2530569 88.9664794,22.2068004 88.658761,22.2068004 C87.0676318,22.0204139 85.3744301,22.0680309 83.6797274,22.2530569 L83.6797274,22.7183431 Z M61.8137093,14.67107 C61.2493088,12.8099255 61.1967715,11.2752976 61.6590996,10.1583388 C62.6873293,8.43732436 63.6104845,8.06455127 64.5336396,8.9951235 C64.7392856,9.22776656 64.9959677,9.69305268 65.4072596,10.5297514 C65.714978,11.3215541 66.0737326,12.0657398 66.6906705,12.6697955 C67.2025337,13.2752116 67.6138256,13.8792673 67.921544,14.4384269 C68.1271899,14.7173265 67.9725802,15.0900996 67.5627894,15.4615122 C67.0494251,15.9267983 66.2793786,16.0669283 65.4072596,15.7866683 C64.380531,15.5553857 63.5594483,15.4152557 62.9440115,15.3227426 C62.2250012,15.2288691 61.8137093,15.0438431 61.8137093,14.67107 L61.8137093,14.67107 Z M64.2259212,29.6513784 C62.1214277,26.9059181 61.0436628,24.300588 60.9926266,21.6952578 C60.9926266,21.3238452 60.8890531,20.9510721 60.6849082,20.533403 C60.3771898,20.1143734 60.4282261,19.8341133 60.8890531,19.6953438 C61.1967715,19.6014703 61.4534537,19.5089572 61.8647455,19.3688272 C62.173965,19.2763142 62.5327196,19.4150837 63.0460839,19.7878568 C63.4558748,20.1606299 64.174885,20.5796595 65.3547223,20.9510721 C66.3304148,21.3238452 66.3829521,21.9741574 65.5618694,22.8122166 C64.2259212,24.2080749 64.174885,25.6025728 65.4072596,26.9997917 C66.4850245,28.4405461 67.255071,29.4649918 67.7669343,30.2091775 C67.921544,30.7207201 68.1271899,31.1860063 68.4349083,31.5574189 C68.4349083,31.7438054 68.5369808,31.930192 68.795164,32.0240655 C69.0008099,32.070322 69.2049548,32.1165785 69.461637,32.210452 C70.7450478,32.6281211 72.1830684,33.0008942 73.9273062,33.2797938 C74.9014976,33.6512064 76.9039187,34.3491356 79.9330685,35.2334513 C82.8076085,36.2565366 85.9898669,36.8143357 89.3777713,36.9544658 C92.7146394,37.1408523 96.6654433,37.932655 101.285722,39.1883833 C101.90266,39.3734094 101.953696,39.6060524 101.540903,39.932569 C99.3358384,40.6291377 97.486526,41.1420408 96.0500065,41.4209404 C94.5609497,41.69984 92.6110659,41.83997 90.3009264,41.7460965 C87.8887145,41.6535835 86.1444766,41.607327 85.0652107,41.5148139 C83.9874458,41.4671969 83.1663631,40.9093978 82.7565723,39.8386955 C81.3185517,37.7911645 79.163022,36.6293097 76.3395182,36.4429231 C74.2860608,36.4429231 72.4907867,36.1640235 70.9506938,35.6524809 C69.3595645,35.1871948 67.5627894,34.8606782 65.5618694,34.6742917 C63.4558748,34.5355221 61.7101358,34.9082952 60.5302985,35.885124 C59.8127893,36.6293097 58.9917066,36.3966666 58.0670504,35.0484252 C57.0913579,33.7913364 56.9382493,33.0008942 57.7067947,32.7219946 C58.425805,32.4430951 60.2225801,32.1641955 63.1481564,31.930192 C63.8161304,31.8363184 64.5336396,31.7900619 65.3036861,31.7900619 C65.4072596,31.6975489 65.4582959,31.6036754 65.5618694,31.4649058 C65.714978,31.0921327 65.3036861,30.5343336 64.2259212,29.6513784 L64.2259212,29.6513784 Z" id="Fill-3" fill="#000000"></path>
                            <g id="Group-7" transform="translate(165.546426, 0.792347)">
                                <mask id="mask-2" fill="white">
                                    <use xlink:href="#path-1"></use>
                                </mask>
                                <g id="Clip-6"></g>
                                <path d="M20.2583722,24.0200558 C20.1562997,21.6473687 20.1037624,19.5549416 20.2073359,17.7400537 C19.8996175,17.7863102 19.5918992,17.8325667 19.3862532,17.8788232 C17.1781862,18.2053398 15.5360207,18.5767524 14.4087207,18.855652 C15.1262299,19.1808081 15.3318759,19.5549416 15.1262299,19.9726108 C14.8185115,20.2052538 14.6128656,20.6242834 14.6128656,21.1820826 C14.5107932,21.7861382 14.3051472,22.5316844 14.0995013,23.4622567 C13.7902818,24.1601858 13.5861369,24.717985 13.4825634,25.0431411 C15.588558,24.717985 17.8476613,24.3914684 20.2583722,24.0200558 M7.01597415,13.7864822 C9.99258662,9.97031968 11.9950077,7.13234644 12.9707002,5.22630593 C13.7902818,3.31754445 14.254111,2.10943313 14.4087207,1.45776046 C14.5107932,0.433314705 15.1772661,0.294545161 16.460677,1.03737037 C17.6930516,1.82917306 18.5141343,2.3883327 19.1295711,2.66723227 C19.6429354,3.03864488 19.4883257,3.45767448 18.7197802,3.8753436 C18.1553797,4.15424318 17.5909791,4.6671463 17.1781862,5.41133199 C16.7683954,5.87661811 16.3060672,6.52829078 15.7416667,7.31873299 C17.2292224,7.17860296 20.8242738,6.62080381 26.5718528,5.69023157 C28.5742739,5.17868893 29.5484652,5.13243242 29.5484652,5.55146202 C29.5484652,5.96913114 29.5484652,6.52829078 29.6010025,7.22485947 C29.6010025,7.97040565 29.1386744,8.48194829 28.164483,8.66833483 C26.7774987,9.13362095 25.2374057,9.55129007 23.6973127,9.83018965 L23.6973127,14.3905378 C25.5976614,14.1116382 27.9078009,13.7388652 30.6787674,13.273579 C31.0900593,13.0871925 31.3977777,13.7388652 31.6034236,15.1347235 C31.8075685,16.5768384 31.3467415,17.088381 30.1128658,16.5305819 C28.0098733,16.6707119 25.8543436,16.903355 23.6462765,17.1822545 C23.6462765,18.995782 23.5952403,20.5780269 23.5952403,21.9262683 C23.4916668,22.3929149 23.4406306,22.950714 23.4916668,23.6010262 C26.622889,23.2758701 29.6520388,23.0432271 32.7322247,22.9044575 C36.0165556,22.810584 37.9679405,22.6255579 38.5833772,22.2990414 C38.8910956,22.2065283 39.1477778,22.4854279 39.4554962,23.0432271 C39.6611421,23.6010262 39.9688605,24.0200558 40.4311886,24.2064424 C40.8424805,24.4390854 40.9955892,25.1356541 40.9955892,26.2063564 C40.8935167,27.3233152 40.4837259,27.6947278 39.8667881,27.2770587 C35.0423642,26.2539734 29.497429,26.0213303 23.3895944,26.5791295 C23.2875219,29.6960023 23.1329122,33.7897038 23.0308397,38.9064907 C23.0308397,40.0710665 23.1839484,40.9077652 23.4916668,41.3267948 C23.7993852,41.7444639 23.542703,42.0233635 22.7741576,42.0709805 C21.8510024,42.20975 20.9263462,42.20975 20.0527262,42.0709805 C19.4372894,42.0709805 19.335217,41.8845939 19.8485813,41.4655643 C20.2583722,41.1404083 20.4129819,40.3962226 20.4129819,39.3255203 C20.3094084,34.6277631 20.2583722,30.4864445 20.3094084,26.8580291 C12.7650542,27.7409843 6.91240064,28.8116866 2.70491463,30.1136714 C2.1915503,30.3939315 1.47254002,29.8347718 0.598920024,28.440274 C-0.324235131,27.0906721 0.189129199,26.625386 2.08947786,27.0444156 C4.29604384,26.5791295 6.70825576,26.1600999 9.37714985,25.7424308 C9.78694068,24.9968846 10.1471963,23.9737993 10.6590596,22.5316844 C10.9697801,21.4609822 11.173925,20.5780269 11.2774985,19.9263543 C10.5569872,20.2052538 10.0946591,20.1589973 9.99258662,19.7399677 C9.83947796,19.1345516 9.47922229,18.4842394 9.06943147,17.8325667 C8.55606714,17.1822545 8.55606714,16.855738 9.12046769,16.8094814 C9.53175958,16.8094814 9.99258662,16.7632249 10.6080234,16.6707119 C12.714018,16.2516823 15.7927029,15.7387792 19.8996175,15.04085 C19.8996175,15.04085 20.00169,15.04085 20.2073359,14.948337 C20.1037624,12.5756499 20.0527262,11.0872785 20.0527262,10.4369663 C18.1553797,10.7621224 16.9740413,11.1797915 16.5627494,11.5988211 C16.2039948,12.1103637 15.6395943,11.4600516 15.0241575,9.73767662 C14.8185115,9.36626401 14.6639018,9.03974744 14.6639018,8.76084786 C14.4597569,8.94723441 14.3051472,9.17987747 14.254111,9.36626401 C12.714018,11.273665 10.9697801,12.9470625 9.06943147,14.3905378 C7.83855793,15.18098 6.96493793,15.5061361 6.4515736,15.3673666 C5.83613683,15.2734931 5.98924549,14.7619504 7.01597415,13.7864822" id="Fill-5" fill="#000000" mask="url(#mask-2)"></path>
                            </g>
                        </g>
                        <g id="Page-1" filter="url(#filter-3)" transform="translate(109.860489, 0.128383)" fill="#BA0017">
                            <path d="M30.2220991,17.4563882 C30.3562907,17.9258026 30.7260858,18.3464953 31.4287991,18.5245167 C32.8178358,18.8749378 34.2242867,19.1663308 35.6256157,19.4858324 C35.5682514,17.2867994 33.757177,15.4990896 31.9194691,15.4559897 C30.8018887,15.4297549 29.9383504,16.4679009 30.2220991,17.4563882 Z M24.1449611,12.7770484 C24.67763,12.7667419 25.6159469,13.6409208 25.6630676,14.1787328 C25.7112126,14.7165449 24.880454,15.3218177 24.1029622,16.3243594 C23.3408359,15.3143221 22.5070041,14.6921841 22.5725634,14.1618677 C22.6381226,13.6165599 23.5743907,12.7882919 24.1449611,12.7770484 Z M42.3929697,16.8827845 C42.469797,18.4296969 42.6797915,19.9466268 42.5927206,21.4495023 C42.3181912,26.1689438 40.4702397,30.0582433 35.3924706,32.0726961 C30.4970382,34.0150035 24.4102712,31.6229578 23.3705424,27.2539375 C23.8939921,27.4806805 24.2975912,27.6708824 24.7472867,27.8367234 C28.3817279,29.1850014 31.2612132,27.3204613 31.0655598,23.7384829 C30.9641479,21.890808 29.8916395,20.0909178 29.4818941,18.2394951 C28.5200169,13.9013942 32.3470384,15.6216433 33.3734505,12.4003926 C34.2390375,9.67947576 31.7969553,6.80770921 30.5175255,4.17299223 C30.412016,4.44002436 30.4079186,5.48285508 30.3587491,6.12185828 C30.3464568,6.28207755 30.138511,6.3598448 30.0053438,6.25490586 C28.2659748,4.87851922 27.0121541,1.89525505 26.8492803,1.92242674 C26.9127908,2.26066743 26.9568385,3.29975033 26.9496679,3.97154695 C26.9465948,4.22171389 26.6423589,4.36225711 26.4139259,4.22358779 C24.6397286,3.15545929 22.8798724,0.57977047 22.7825578,0.611626934 L23.2322534,2.83220988 C23.2906421,3.11704414 22.9935767,3.36533717 22.6924139,3.2735156 C20.7174413,2.6719906 19.9973139,1.27124313 18.8418321,0.130969107 C18.7875408,0.398001233 19.0169982,1.68818803 19.1747501,2.58016903 C19.2249439,2.8668772 18.9237811,3.10298982 18.6226183,3.01023129 C16.1733655,2.2634783 14.7372081,0.574148741 14.674722,0.630366031 L15.8670809,3.36627413 C15.9500543,3.555539 15.7810344,3.75417343 15.5577232,3.73543433 C13.9781549,3.59395415 12.5020473,3.02897039 11.5053418,2.11450248 C12.6987251,4.15987487 13.891084,6.2043103 15.0998328,8.27591742 C0.78640374,12.4406816 -2.18527432,24.9293525 1.36414467,32.8466208 C4.87668658,40.6823741 15.2524629,46.1944793 22.6688535,43.856777 C22.0562842,43.7921271 21.593272,43.752775 21.1333329,43.690936 C12.867745,42.5881402 6.31694144,37.1678565 4.41469871,29.8614827 C2.55855233,22.7331304 5.64086163,15.4089545 12.1517151,10.9218779 C16.0279059,8.25061964 23.2803984,8.74158397 24.7380675,11.4662486 C21.6588313,11.353814 20.4603261,12.5503053 20.318964,14.9826401 C20.2779895,15.6853562 16.6988639,16.9736691 17.9455141,19.5502949 C18.6615441,21.0344313 21.1210405,20.7692731 21.6455145,20.7692731 C21.1077238,24.5845532 20.8454868,28.2564791 23.5119045,31.4458734 C26.2961241,34.7758108 30.0135387,35.5712855 34.381424,34.7027283 C30.0032951,37.7215968 25.1396179,38.5957756 19.9174136,37.758138 C14.7208183,36.9251852 10.6971191,34.2558009 7.4386193,30.5107924 C11.5852421,39.9468645 23.6921925,43.9991941 33.6100784,39.3884394 C44.815589,34.1789706 45.9659491,22.3218072 42.3929697,16.8827845" id="Combined-Shape"></path>
                        </g>
                    </g>
                    <g id="Group-4" transform="translate(32.000000, 0.000000)">
                        <path d="M24.8790079,29.1110852 C25.3382777,28.0567995 25.7329444,27.0036852 26.035992,25.9329995 C26.1287856,25.7010566 26.2098333,25.4620852 26.2920555,25.2242852 C26.3084999,25.5440852 26.3284682,25.8627138 26.3296428,26.1883709 C26.3308174,26.3816566 26.343738,26.5046566 26.3648809,26.5749423 C26.0195476,27.5249709 25.5144682,28.3637138 24.8790079,29.1110852 L24.8790079,29.1110852 Z M13.4360237,33.1911709 C12.4810714,33.1665709 11.5601825,32.9521995 10.6663095,32.5738281 C11.5836745,32.8854281 12.5362777,33.0845709 13.4994523,33.1888281 C13.4794841,33.1899995 13.4571666,33.1899995 13.4360237,33.1911709 L13.4360237,33.1911709 Z M3.43427771,27.2285995 C3.4671666,27.2672566 3.50005549,27.3059138 3.53294438,27.3433995 C4.89783327,30.0306566 7.20945231,32.1298566 9.93100787,33.2204566 C10.2199602,33.3879709 10.5159602,33.5425995 10.8178333,33.6890281 C7.48313485,32.6792566 4.73103961,30.4324566 3.43427771,27.2285995 L3.43427771,27.2285995 Z M7.70865866,12.3479423 C8.51913485,11.6872566 9.33078565,11.0253995 10.1412618,10.3623709 C12.5304047,9.42991377 15.1391983,9.45919948 17.520119,10.1643995 C14.6388174,9.65717091 11.6400555,10.0788852 9.14402374,11.7540281 C9.11230946,11.7751138 9.08529358,11.8020566 9.05240469,11.8231423 C8.48154755,12.1675423 7.95180152,12.5505995 7.45611898,12.9723138 L7.70865866,12.3479423 Z M25.7634841,14.7399995 C25.4980237,14.4717423 25.2208174,14.2081709 24.9353888,13.9516281 C24.544246,13.3014852 24.0884999,12.6876566 23.5634523,12.1241995 C24.4220872,12.9020281 25.1585634,13.7759138 25.7634841,14.7399995 L25.7634841,14.7399995 Z M2.40415073,19.8743709 C2.30548406,20.4565709 2.23735707,21.0434566 2.22326184,21.6385423 C2.01653168,19.9938566 2.27376977,18.3690852 2.81056342,16.7548566 C2.86224596,16.5967138 2.93389676,16.4455995 2.99262692,16.2909709 C2.62967453,17.4342852 2.42764279,18.6408566 2.40415073,19.8743709 L2.40415073,19.8743709 Z M27.5923412,16.9469709 C26.3249444,12.3690281 23.0689444,8.4142852 18.1755476,7.16437091 C15.8968174,6.58334234 13.7989761,6.86682805 11.9231349,7.69619948 C6.54462692,8.51971377 0.0878332651,13.1831709 0.000912630203,19.0719423 C-0.0390238777,21.7556852 1.23542057,24.5132281 3.10186501,26.8221138 C3.54586501,28.2137709 4.17427771,29.5281138 5.06580152,30.7405423 C7.85078565,34.5265995 12.9978968,36.3704281 17.588246,35.4485138 C19.7013571,35.0244566 21.3234841,34.1704852 22.5944047,32.8409138 C25.8633253,30.6960281 27.0367539,27.9771423 27.4842777,24.1442281 C27.5206904,23.8279423 27.0438015,22.2160566 26.9768491,22.8579995 C26.9756745,23.0149709 26.9592301,23.1590566 26.9521825,23.3113423 C26.9463095,23.1473423 26.9380872,22.9903709 26.9286904,22.8392566 C27.0191349,22.3531138 27.0931349,21.8587709 27.1483412,21.3538852 C27.1671349,21.1793423 27.0625952,21.1758281 26.9263412,21.2390852 C26.9263412,21.2367423 26.9275158,21.2320566 26.9275158,21.2297138 C26.9897698,21.1652852 27.0402777,21.0821138 27.0308809,20.9766852 C26.9451349,19.9645709 26.7830396,18.9512852 26.5434206,17.9579138 C27.0990079,19.2640566 27.4466904,20.6510281 27.5711983,22.1258566 C27.7074523,22.9247709 28.2184047,23.7822566 28.6165952,24.4745709 C28.563738,24.3820281 29.1862777,25.6541995 29.2755476,25.1293995 C29.8005952,22.0438566 29.3859602,19.5475423 27.5923412,16.9469709 L27.5923412,16.9469709 Z" id="Page-1" fill="#BA0016"></path>
                        <path d="M62.4668038,29.1110404 C62.9260736,28.0567547 63.3207403,27.0036404 63.6237879,25.9329547 C63.7165815,25.7010119 63.7976291,25.4620404 63.8798514,25.2242404 C63.8962958,25.5440404 63.9162641,25.862669 63.9174387,26.1883261 C63.9186133,26.3816119 63.9315339,26.5046119 63.9526768,26.5748976 C63.6073434,27.5249261 63.1022641,28.363669 62.4668038,29.1110404 L62.4668038,29.1110404 Z M51.0238196,33.1911261 C50.0688672,33.1665261 49.1479784,32.9521547 48.2541053,32.5737833 C49.1714704,32.8853833 50.1240736,33.0845261 51.0872482,33.1887833 C51.0672799,33.1899547 51.0449625,33.1899547 51.0238196,33.1911261 L51.0238196,33.1911261 Z M41.0220736,27.2285547 C41.0549625,27.2672119 41.0878514,27.305869 41.1207403,27.3433547 C42.4856291,30.0306119 44.7972482,32.1298119 47.5188038,33.2204119 C47.8077561,33.3879261 48.1037561,33.5425547 48.4056291,33.6889833 C45.0709307,32.6792119 42.3188355,30.4324119 41.0220736,27.2285547 L41.0220736,27.2285547 Z M45.2964545,12.3478976 C46.1069307,11.6872119 46.9185815,11.0253547 47.7290577,10.3623261 C50.1182006,9.429869 52.7269942,9.45915472 55.1079149,10.1643547 C52.2266133,9.65712615 49.2278514,10.0788404 46.7318196,11.7539833 C46.7001053,11.775069 46.6730895,11.8020119 46.6402006,11.8230976 C46.0693434,12.1674976 45.5395974,12.5505547 45.0439149,12.972269 L45.2964545,12.3478976 Z M63.3512799,14.7399547 C63.0858196,14.4716976 62.8086133,14.2081261 62.5231847,13.9515833 C62.1320418,13.3014404 61.6762958,12.6876119 61.1512482,12.1241547 C62.0098831,12.9019833 62.7463593,13.775869 63.3512799,14.7399547 L63.3512799,14.7399547 Z M39.9919466,19.8743261 C39.8932799,20.4565261 39.825153,21.0434119 39.8110577,21.6384976 C39.6043276,19.9938119 39.8615657,18.3690404 40.3983593,16.7548119 C40.4500418,16.596669 40.5216926,16.4455547 40.5804228,16.2909261 C40.2174704,17.4342404 40.0154387,18.6408119 39.9919466,19.8743261 L39.9919466,19.8743261 Z M65.1801371,16.9469261 C63.9127403,12.3689833 60.6567403,8.41424043 55.7633434,7.16432615 C53.4846133,6.58329757 51.386772,6.86678329 49.5109307,7.69615472 C44.1324228,8.519669 37.6756291,13.1831261 37.5887085,19.0718976 C37.548772,21.7556404 38.8232164,24.5131833 40.6896609,26.822069 C41.1336609,28.2137261 41.7620736,29.528069 42.6535974,30.7404976 C45.4385815,34.5265547 50.5856926,36.3703833 55.1760418,35.448469 C57.289153,35.0244119 58.9112799,34.1704404 60.1822006,32.840869 C63.4511212,30.6959833 64.6245498,27.9770976 65.0720736,24.1441833 C65.1084863,23.8278976 64.6315974,22.2160119 64.564645,22.8579547 C64.5634704,23.0149261 64.547026,23.1590119 64.5399784,23.3112976 C64.5341053,23.1472976 64.5258831,22.9903261 64.5164863,22.8392119 C64.6069307,22.353069 64.6809307,21.8587261 64.7361371,21.3538404 C64.7549307,21.1792976 64.6503911,21.1757833 64.5141371,21.2390404 C64.5141371,21.2366976 64.5153117,21.2320119 64.5153117,21.229669 C64.5775657,21.1652404 64.6280736,21.082069 64.6186768,20.9766404 C64.5329307,19.9645261 64.3708355,18.9512404 64.1312164,17.957869 C64.6868038,19.2640119 65.0344863,20.6509833 65.1589942,22.1258119 C65.2952482,22.9247261 65.8062006,23.7822119 66.2043911,24.4745261 C66.1515339,24.3819833 66.7740736,25.6541547 66.8633434,25.1293547 C67.3883911,22.0438119 66.9737561,19.5474976 65.1801371,16.9469261 L65.1801371,16.9469261 Z" id="Page-1-Copy" fill="#BA0016" transform="translate(52.331210, 21.270491) rotate(-56.000000) translate(-52.331210, -21.270491) "></path>
                        <path d="M100.053611,29.1110852 C100.512881,28.0567995 100.907548,27.0036852 101.210595,25.9329995 C101.303389,25.7010566 101.384436,25.4620852 101.466659,25.2242852 C101.483103,25.5440852 101.503071,25.8627138 101.504246,26.1883709 C101.505421,26.3816566 101.518341,26.5046566 101.539484,26.5749423 C101.194151,27.5249709 100.689071,28.3637138 100.053611,29.1110852 L100.053611,29.1110852 Z M88.6106269,33.1911709 C87.6556745,33.1665709 86.7347856,32.9521995 85.8409126,32.5738281 C86.7582777,32.8854281 87.7108809,33.0845709 88.6740555,33.1888281 C88.6540872,33.1899995 88.6317698,33.1899995 88.6106269,33.1911709 L88.6106269,33.1911709 Z M78.6088809,27.2285995 C78.6417698,27.2672566 78.6746587,27.3059138 78.7075476,27.3433995 C80.0724364,30.0306566 82.3840555,32.1298566 85.105611,33.2204566 C85.3945634,33.3879709 85.6905634,33.5425995 85.9924364,33.6890281 C82.657738,32.6792566 79.9056428,30.4324566 78.6088809,27.2285995 L78.6088809,27.2285995 Z M82.8832618,12.3479423 C83.693738,11.6872566 84.5053888,11.0253995 85.315865,10.3623709 C87.7050079,9.42991377 90.3138015,9.45919948 92.6947222,10.1643995 C89.8134206,9.65717091 86.8146587,10.0788852 84.3186269,11.7540281 C84.2869126,11.7751138 84.2598968,11.8020566 84.2270079,11.8231423 C83.6561507,12.1675423 83.1264047,12.5505995 82.6307222,12.9723138 L82.8832618,12.3479423 Z M100.938087,14.7399995 C100.672627,14.4717423 100.395421,14.2081709 100.109992,13.9516281 C99.7188491,13.3014852 99.2631031,12.6876566 98.7380555,12.1241995 C99.5966904,12.9020281 100.333167,13.7759138 100.938087,14.7399995 L100.938087,14.7399995 Z M77.5787539,19.8743709 C77.4800872,20.4565709 77.4119602,21.0434566 77.397865,21.6385423 C77.1911349,19.9938566 77.4483729,18.3690852 77.9851666,16.7548566 C78.0368491,16.5967138 78.1084999,16.4455995 78.1672301,16.2909709 C77.8042777,17.4342852 77.602246,18.6408566 77.5787539,19.8743709 L77.5787539,19.8743709 Z M102.766944,16.9469709 C101.499548,12.3690281 98.2435476,8.4142852 93.3501507,7.16437091 C91.0714206,6.58334234 88.9735793,6.86682805 87.097738,7.69619948 C81.7192301,8.51971377 75.2624364,13.1831709 75.1755158,19.0719423 C75.1355793,21.7556852 76.4100237,24.5132281 78.2764682,26.8221138 C78.7204682,28.2137709 79.3488809,29.5281138 80.2404047,30.7405423 C83.0253888,34.5265995 88.1724999,36.3704281 92.7628491,35.4485138 C94.8759602,35.0244566 96.4980872,34.1704852 97.7690079,32.8409138 C101.037929,30.6960281 102.211357,27.9771423 102.658881,24.1442281 C102.695294,23.8279423 102.218405,22.2160566 102.151452,22.8579995 C102.150278,23.0149709 102.133833,23.1590566 102.126786,23.3113423 C102.120913,23.1473423 102.11269,22.9903709 102.103294,22.8392566 C102.193738,22.3531138 102.267738,21.8587709 102.322944,21.3538852 C102.341738,21.1793423 102.237198,21.1758281 102.100944,21.2390852 C102.100944,21.2367423 102.102119,21.2320566 102.102119,21.2297138 C102.164373,21.1652852 102.214881,21.0821138 102.205484,20.9766852 C102.119738,19.9645709 101.957643,18.9512852 101.718024,17.9579138 C102.273611,19.2640566 102.621294,20.6510281 102.745802,22.1258566 C102.882055,22.9247709 103.393008,23.7822566 103.791198,24.4745709 C103.738341,24.3820281 104.360881,25.6541995 104.450151,25.1293995 C104.975198,22.0438566 104.560563,19.5475423 102.766944,16.9469709 L102.766944,16.9469709 Z" id="Page-1-Copy-3" fill="#BA0016"></path>
                        <path d="M137.641407,29.1110404 C138.100677,28.0567547 138.495343,27.0036404 138.798391,25.9329547 C138.891185,25.7010119 138.972232,25.4620404 139.054455,25.2242404 C139.070899,25.5440404 139.090867,25.862669 139.092042,26.1883261 C139.093216,26.3816119 139.106137,26.5046119 139.12728,26.5748976 C138.781947,27.5249261 138.276867,28.363669 137.641407,29.1110404 L137.641407,29.1110404 Z M126.198423,33.1911261 C125.24347,33.1665261 124.322582,32.9521547 123.428709,32.5737833 C124.346074,32.8853833 125.298677,33.0845261 126.261851,33.1887833 C126.241883,33.1899547 126.219566,33.1899547 126.198423,33.1911261 L126.198423,33.1911261 Z M116.196677,27.2285547 C116.229566,27.2672119 116.262455,27.305869 116.295343,27.3433547 C117.660232,30.0306119 119.971851,32.1298119 122.693407,33.2204119 C122.982359,33.3879261 123.278359,33.5425547 123.580232,33.6889833 C120.245534,32.6792119 117.493439,30.4324119 116.196677,27.2285547 L116.196677,27.2285547 Z M120.471058,12.3478976 C121.281534,11.6872119 122.093185,11.0253547 122.903661,10.3623261 C125.292804,9.429869 127.901597,9.45915472 130.282518,10.1643547 C127.401216,9.65712615 124.402455,10.0788404 121.906423,11.7539833 C121.874709,11.775069 121.847693,11.8020119 121.814804,11.8230976 C121.243947,12.1674976 120.714201,12.5505547 120.218518,12.972269 L120.471058,12.3478976 Z M138.525883,14.7399547 C138.260423,14.4716976 137.983216,14.2081261 137.697788,13.9515833 C137.306645,13.3014404 136.850899,12.6876119 136.325851,12.1241547 C137.184486,12.9019833 137.920962,13.775869 138.525883,14.7399547 L138.525883,14.7399547 Z M115.16655,19.8743261 C115.067883,20.4565261 114.999756,21.0434119 114.985661,21.6384976 C114.778931,19.9938119 115.036169,18.3690404 115.572962,16.7548119 C115.624645,16.596669 115.696296,16.4455547 115.755026,16.2909261 C115.392074,17.4342404 115.190042,18.6408119 115.16655,19.8743261 L115.16655,19.8743261 Z M140.35474,16.9469261 C139.087343,12.3689833 135.831343,8.41424043 130.937947,7.16432615 C128.659216,6.58329757 126.561375,6.86678329 124.685534,7.69615472 C119.307026,8.519669 112.850232,13.1831261 112.763312,19.0718976 C112.723375,21.7556404 113.99782,24.5131833 115.864264,26.822069 C116.308264,28.2137261 116.936677,29.528069 117.828201,30.7404976 C120.613185,34.5265547 125.760296,36.3703833 130.350645,35.448469 C132.463756,35.0244119 134.085883,34.1704404 135.356804,32.840869 C138.625724,30.6959833 139.799153,27.9770976 140.246677,24.1441833 C140.283089,23.8278976 139.806201,22.2160119 139.739248,22.8579547 C139.738074,23.0149261 139.721629,23.1590119 139.714582,23.3112976 C139.708709,23.1472976 139.700486,22.9903261 139.691089,22.8392119 C139.781534,22.353069 139.855534,21.8587261 139.91074,21.3538404 C139.929534,21.1792976 139.824994,21.1757833 139.68874,21.2390404 C139.68874,21.2366976 139.689915,21.2320119 139.689915,21.229669 C139.752169,21.1652404 139.802677,21.082069 139.79328,20.9766404 C139.707534,19.9645261 139.545439,18.9512404 139.30582,17.957869 C139.861407,19.2640119 140.209089,20.6509833 140.333597,22.1258119 C140.469851,22.9247261 140.980804,23.7822119 141.378994,24.4745261 C141.326137,24.3819833 141.948677,25.6541547 142.037947,25.1293547 C142.562994,22.0438119 142.148359,19.5474976 140.35474,16.9469261 L140.35474,16.9469261 Z" id="Page-1-Copy-2" fill="#BA0016" transform="translate(127.505813, 21.270491) rotate(-56.000000) translate(-127.505813, -21.270491) "></path>
                        <g id="Page-1" transform="translate(2.349206, 8.028571)" fill="#FFFFFF">
                            <path d="M5.36699025,7.66779759 C5.06197002,7.0817051 5.39794752,6.87731517 6.37492276,6.99435898 C8.94164521,6.93496362 11.1723902,6.6423541 13.1582084,6.05538816 C15.0520654,5.55751525 16.5789875,5.26490574 17.7107491,5.17668616 C18.1377775,5.17668616 18.3817936,5.52869103 18.4427977,6.1444812 C18.4427977,6.84761749 18.2597855,7.22844659 17.923808,7.31666617 C16.0599979,7.96128056 14.3791998,8.57619727 12.8522777,9.16316321 C11.2943983,9.7492557 10.1945044,9.92482141 9.61360022,9.66103612 C8.94164521,9.45577273 7.99471675,9.54311885 6.74276805,9.98334331 C6.19191062,10.2174309 5.88597989,10.0418652 5.85593312,9.45577273 C5.79492907,8.84085602 5.64287421,8.25389007 5.36699025,7.66779759 M0.326417169,18.1606874 C-0.34553784,17.1343704 0.0204864332,16.8120632 1.42631101,17.1343704 C4.69503524,16.5482779 8.63662499,15.9333612 13.279306,15.3463953 C15.4190001,15.1114342 17.4348652,14.9655662 19.4215939,14.9070443 C21.3154509,14.87822 22.4453915,14.7900005 22.842373,14.6135613 C23.0872997,14.5559129 23.2703119,14.7314786 23.453324,15.1114342 C23.5762426,15.5516587 23.7592547,15.8154439 24.064275,15.9910097 C24.3092016,16.1665754 24.4312097,16.6661952 24.4312097,17.4278534 C24.3702057,18.2192093 24.0952322,18.4829945 23.6363361,18.1606874 C20.5815813,17.4278534 17.0069263,17.2522877 12.9132817,17.6034191 C8.08576756,18.0427701 4.35905773,18.6585603 1.79233528,19.4499161 C1.42631101,19.6551795 0.907321364,19.2446527 0.326417169,18.1606874" id="Fill-1"></path>
                            <path d="M55.541053,6.02665128 C54.9601488,5.58730028 54.1051816,5.4405588 53.0662918,5.5576026 C52.8222756,5.5576026 52.5773489,5.58730028 52.4243836,5.6161245 L52.4243836,5.67551987 C51.7533391,7.14031435 51.6003737,7.99019213 51.966398,8.13693361 C52.1494101,8.34132354 52.5773489,8.48806503 53.3722226,8.48806503 C53.6772428,8.54746039 53.8602549,8.69420188 53.9831735,8.86976759 C54.4111123,8.69420188 54.9000552,8.40071891 55.4800489,7.99019213 C56.213008,7.40409964 56.213008,6.78830947 55.541053,6.02665128 M48.8497286,24.0802215 C47.719788,22.6145535 46.8338636,21.4720662 46.2229126,20.6510127 C45.9479392,20.3287055 46.03899,20.1828374 46.6499409,20.2404859 C47.2007984,20.4466227 47.719788,20.6221884 48.2706454,20.8571495 C48.330739,20.7401057 48.4227003,20.6510127 48.5756657,20.5636665 C49.7056063,18.7171695 50.1645024,17.7502479 50.011537,17.6323307 C49.8585716,17.4567649 48.9116432,17.7205502 47.3228065,18.3651646 C45.6429189,19.0691744 44.7260372,19.5670473 44.5730719,19.8605303 C44.3900597,20.1531398 44.1760903,20.1243155 43.9320741,19.7723107 C43.6871474,19.4203058 43.473178,19.0691744 43.2291618,18.6298234 C42.9842352,18.2192966 43.1372005,17.9843355 43.7181047,17.837594 C44.756084,17.6035064 45.7949738,17.3397211 46.8948676,16.9885897 C47.9647147,16.6662825 49.0946553,16.3727996 50.2865105,16.1378385 C50.9584655,16.0207947 51.6604672,16.0793166 52.4553409,16.2557558 C53.1882999,16.4898434 53.586192,16.6951068 53.6772428,16.8121506 C53.6772428,17.0174139 53.249304,17.6035064 52.4243836,18.5119061 C51.6604672,19.3626574 50.5605734,20.2998813 49.1256126,21.2379786 C49.8585716,21.6188077 50.5305266,21.9996368 51.1724349,22.4101636 C51.355447,22.5272074 51.294443,23.054778 51.0495163,23.9920019 C50.7444961,24.9309727 50.4085186,25.4288456 50.1025878,25.4873675 C49.7666103,25.5755871 49.5225941,25.4873675 49.4615901,25.2235822 C49.3386715,24.9597969 49.1256126,24.5789678 48.8497286,24.0802215 M38.7685825,9.45586007 C39.4405375,8.75272378 40.2654578,8.04871403 41.2733904,7.22853393 C41.396309,7.14031435 41.4873598,7.11061667 41.5793211,7.17001203 C41.6403251,7.22853393 41.6403251,7.31675352 41.6093679,7.43292386 C41.181429,8.75272378 40.9984169,9.77816727 41.120425,10.5398255 C41.2433436,11.2726594 41.0603315,11.6246643 40.6323926,11.5373182 C40.1434498,11.4490986 39.6244601,11.1267914 39.0135091,10.6289185 C38.4016477,10.1004745 38.1876783,9.80699149 38.3716009,9.71964536 C38.4626517,9.66112346 38.5855703,9.57377734 38.7685825,9.45586007 M41.3043476,16.0207947 C43.1071538,14.7900878 45.1239293,12.533064 47.4138573,9.28029437 C47.4138573,9.220899 47.4138573,9.16325056 47.4757718,9.07415752 C47.4138573,9.01650907 47.3838105,8.95711371 47.4448145,8.86976759 C47.3838105,8.04871403 47.3228065,7.28705584 47.3228065,6.67126567 C47.108837,6.73066103 46.8948676,6.78830947 46.7428128,6.78830947 C46.2538699,6.84683138 45.8559778,6.93505096 45.4899536,7.02327055 C45.4289495,7.28705584 45.3979922,7.55084113 45.3979922,7.7858022 C45.2149801,8.2836751 45.2450269,8.98681139 45.4899536,9.77816727 C45.5509576,10.0122549 45.2450269,10.3057379 44.6031186,10.6577427 C43.9921677,11.0385718 43.2901659,11.2726594 42.4342882,11.3023571 C41.6093679,11.3600056 41.4564025,11.2726594 42.0373067,10.9800499 C43.2291618,10.2175183 43.8392023,9.28029437 43.9320741,8.13693361 C43.9320741,7.87314832 43.9011169,7.66788493 43.8710701,7.55084113 C43.5032248,7.72640684 43.2291618,7.90197254 42.9842352,8.04871403 C42.6792149,8.2251532 42.4342882,8.04871403 42.2813229,7.46349501 C42.068264,6.96474864 42.0983107,6.70008989 42.3732842,6.70008989 C42.801223,6.61274377 43.3511699,6.43717806 44.0540822,6.17339277 C44.7260372,5.90960748 45.6429189,5.58730028 46.8948676,5.1182516 C46.9558717,5.0597297 47.0787903,5.03003202 47.2618024,4.97151011 L47.2618024,4.91298821 C47.2007984,4.35659341 47.108837,3.97489085 47.047833,3.74080324 C46.9258249,3.74080324 46.8338636,3.74080324 46.8029063,3.71197902 C46.375878,3.53553985 45.7339697,3.62375944 44.8790026,3.94606663 C44.4820211,4.15133002 44.2370944,4.00458853 44.2070476,3.47701795 C44.084129,3.00796927 43.9320741,2.51009637 43.7481515,2.07074537 C43.5032248,1.60169669 43.7791088,1.42525752 44.5730719,1.48377942 C46.2839167,1.39555984 47.7817026,1.16147223 49.0946553,0.78064313 C50.3475145,0.399814033 51.3244897,0.164852962 52.1193634,0.076633378 C52.5172554,0.076633378 52.7303143,0.399814033 52.7913184,0.985906519 C52.8523224,1.63052091 52.7002675,2.01135 52.3943368,2.12839381 C51.355447,2.450701 50.4385653,2.7730082 49.6755595,3.06649117 C49.6136449,3.18353498 49.5535514,3.30145224 49.5225941,3.35910068 C49.4615901,3.38879836 49.400586,3.79932514 49.3696288,4.53215912 C50.2555532,4.41424185 51.3244897,4.32689573 52.6083062,4.23867614 C53.8001614,4.18015424 54.7771366,4.29807151 55.541053,4.56098334 C56.0909999,4.6789006 57.1908937,5.90960748 58.8407345,8.25397742 C59.2067587,8.781548 59.2067587,9.04533329 58.8407345,9.04533329 C58.4437529,9.07415752 57.8628487,9.16325056 57.1599364,9.33881627 C56.3659733,9.48555776 55.2961263,9.5432062 53.9831735,9.48555776 C53.8602549,9.74934305 53.6162387,10.0122549 53.249304,10.2175183 C52.8222756,10.4516059 52.2723287,10.4516059 51.5694164,10.2175183 C51.0495163,9.98343066 50.683492,9.68994768 50.5305266,9.36764049 C50.3475145,9.13355288 50.3475145,8.51863617 50.5915307,7.55084113 C50.7135388,6.87740252 50.683492,6.34895848 50.5605734,5.99782706 C50.4385653,6.02665128 50.3475145,6.0554755 50.3174677,6.08517318 C49.9496224,6.17339277 49.6136449,6.26161235 49.2476207,6.32013425 C49.1866166,7.05296823 49.1256126,7.96136791 49.0946553,8.98681139 C49.0946553,9.13355288 49.0646085,9.25059668 49.002694,9.33881627 L49.0345618,9.36764049 C49.6446022,9.98343066 50.2865105,10.5398255 51.0495163,10.9503522 C51.7533391,11.4194009 52.7603611,12.1819326 54.1361389,13.2370737 C55.3880876,14.3498633 56.7939122,15.1420927 58.3818384,15.6399656 C59.8796243,16.1666627 61.1324835,16.7824529 62.140416,17.3991165 C62.6594056,17.6620283 62.9043323,17.9258136 62.8433283,18.1895989 C62.7814137,18.4830819 61.7734812,18.6001257 59.8177097,18.4830819 C58.2598303,18.3363404 56.9769243,18.1607747 56.0299958,17.9546378 C55.0521101,17.7205502 54.5941245,17.3397211 54.6551285,16.8121506 C54.5331204,15.5805702 53.9831735,14.7018682 53.0362451,14.2031219 C52.0283125,13.705249 51.2643962,13.265898 50.8055001,12.9147665 C50.2555532,12.533064 49.7365635,12.1522349 49.2175739,11.8299277 C48.5137511,11.5949666 47.9346679,11.7417081 47.5367759,12.1819326 C47.3537637,12.3278006 47.2308451,12.4745421 47.108837,12.5924594 C47.108837,12.6212836 47.108837,12.6501078 47.1707516,12.6798055 C47.8727534,13.3244199 48.6366697,13.8808147 49.4916369,14.3210391 C49.8585716,14.4677806 49.9496224,14.7315659 49.8895289,15.0241754 C49.7975676,15.3464826 49.5835982,15.4932241 49.2776674,15.4932241 C49.0345618,15.4643999 48.6066229,15.4347022 48.0858123,15.4347022 C47.4757718,15.4347022 46.9859184,15.2888342 46.5898474,14.9953512 C46.3449207,15.0241754 46.2229126,14.6721705 46.2229126,13.94021 C46.1619086,13.705249 46.1619086,13.5296833 46.2229126,13.3829418 C44.7870413,14.7018682 43.7181047,15.6111414 43.0452392,16.1378385 C42.1602253,16.8121506 41.6093679,17.3991165 41.4564025,17.9546378 C41.4564025,18.3948623 41.0293742,18.7756914 40.2044538,19.0691744 C39.3795334,19.3320862 38.3406436,19.4500035 37.1187417,19.3320862 C35.8968398,19.2744378 35.7438744,19.0979986 36.6297988,18.7468672 C38.6456639,17.6908526 40.2044538,16.7824529 41.3043476,16.0207947" id="Fill-3"></path>
                            <path d="M75.1774486,12.9145919 C74.5355404,11.8594507 74.8715179,11.5074458 76.2773425,11.8882749 C79.5160199,11.3021824 83.3647379,10.7457876 87.8863213,10.2173436 C89.9941476,10.0129536 91.9799659,9.89590984 93.8747333,9.83738794 C95.7385435,9.8068168 96.8384373,9.71947067 97.2663762,9.57360265 C97.4493883,9.51420728 97.6324004,9.69064645 97.8154126,10.0714755 C97.9374207,10.5108265 98.1513901,10.7746118 98.4573208,10.9501775 C98.701337,11.1266167 98.7932983,11.6244896 98.7932983,12.3870213 C98.7322943,13.1783771 98.4573208,13.4421624 97.968378,13.1486795 C95.0046739,12.3870213 91.4919335,12.1817579 87.4893397,12.4743674 C82.7838337,12.8848942 79.1481746,13.4421624 76.6433667,14.2038206 C76.2773425,14.3802598 75.7883996,13.9688596 75.1774486,12.9145919" id="Fill-5"></path>
                            <path d="M133.586099,11.7127092 C132.02822,10.9213533 128.545526,11.0392706 123.137108,12.0350164 C122.557114,12.123236 122.007167,12.2105821 121.518224,12.2988017 C121.427174,15.3463079 121.641143,17.1639807 122.313098,17.8085951 C122.771084,19.2445654 125.092879,19.7136141 129.247528,19.2157412 C129.920394,18.9807801 130.286418,19.2157412 130.378379,19.8603556 C130.378379,20.5346676 129.981398,21.0325405 129.186524,21.3260235 C125.092879,22.1165059 122.465153,21.8832918 121.335212,20.6220138 C120.601343,20.1826628 120.143357,19.5956968 119.960345,18.9222582 C119.471402,17.8085951 119.28839,15.6983128 119.410398,12.6796308 C117.577545,13.0316357 116.263682,13.295421 115.530723,13.5006843 C114.277864,13.8518158 113.116966,14.3208644 112.078076,14.8781327 C111.589133,15.141918 111.253156,15.0240007 111.101101,14.4973036 C110.918089,14.0273815 110.703209,13.4124648 110.459192,12.7381527 C110.154172,12.0350164 110.520197,11.829753 111.528129,11.9764945 C114.52279,11.6541873 116.630617,11.3021824 117.943569,10.9501775 C118.432512,10.8043095 118.922366,10.6863923 119.501449,10.5396508 C119.624367,6.81783246 119.624367,4.59050633 119.532406,3.88737004 C119.043463,2.97897036 119.501449,2.56844358 120.93732,2.65666316 C122.313098,2.77370697 122.771084,3.12571184 122.435106,3.68210665 C122.069082,4.79576972 121.793198,6.93487627 121.641143,10.0129536 C121.763151,9.98412943 121.916116,9.95355828 122.099129,9.92473406 C123.840931,9.63125109 125.673784,9.39716348 127.720606,9.13337819 C129.675467,8.89841712 131.356265,8.72285141 132.731132,8.6058076 C133.311126,8.4887638 133.739065,9.07398282 134.044995,10.3064366 C134.258054,11.5659677 134.136046,12.0350164 133.586099,11.7127092" id="Fill-7"></path>
                        </g>
                    </g>
                </g>
            </g>
        </g>
    </g>
</svg>