<?xml version="1.0" encoding="UTF-8"?>
<svg width="70px" height="118px" viewBox="0 0 70 118" version="1.1" xmlns="http://www.w3.org/2000/svg" xmlns:xlink="http://www.w3.org/1999/xlink">
    <!-- Generator: Sketch 41.1 (35376) - http://www.bohemiancoding.com/sketch -->
    <title>img_lantern</title>
    <desc>Created with Sketch.</desc>
    <defs>
        <polygon id="path-1" points="0 117.290038 69.975 117.290038 69.975 0 0 0"></polygon>
    </defs>
    <g id="Page-1" stroke="none" stroke-width="1" fill="none" fill-rule="evenodd" opacity="0.8">
        <g id="Artboard" transform="translate(-936.000000, -152.000000)">
            <g id="img_lantern" transform="translate(936.000000, 152.000000)">
                <path d="M40.2019375,94.6145663 L37.6531875,94.019714 C35.4300625,102.179916 23.7963125,109.507698 23.7963125,109.507698 C23.7963125,109.507698 34.3975625,118.935546 38.4475625,115.132607 C42.4975625,111.330291 40.2019375,94.6145663 40.2019375,94.6145663 Z" id="Fill-1" fill="#EEA74E"></path>
                <polygon id="Fill-3" fill="#E04444" points="39.201875 43.3032536 39.201875 79.4028083 38.645625 81.0663994 29.41125 79.4040553 17.76125 71.7975527 14.74375 61.1419644 17.34125 52.2023441 25.313125 44.7454899 28.735 43.3032536"></polygon>
                <polygon id="Fill-5" fill="#E04444" points="39.201875 43.3032536 39.201875 79.4028083 39.758125 81.0663994 48.991875 79.4040553 60.6425 71.7975527 63.66 61.1419644 61.0625 52.2023441 53.090625 44.7454899 49.66875 43.3032536"></polygon>
                <path d="M60.642625,98.2580056 C60.642625,100.358071 62.348875,102.060945 64.4545,102.060945 C66.5595,102.060945 68.26575,100.358071 68.26575,98.2580056 C68.26575,96.15794 66.5595,94.4550661 64.4545,94.4550661 C62.348875,94.4550661 60.642625,96.15794 60.642625,98.2580056" id="Fill-7" fill="#ECECE9"></path>
                <mask id="mask-2" fill="white">
                    <use xlink:href="#path-1"></use>
                </mask>
                <g id="Clip-10"></g>
                <polygon id="Fill-9" fill="#C6C29B" mask="url(#mask-2)" points="27.184375 43.3032536 51.219375 43.3032536 51.219375 37.757534 27.184375 37.757534"></polygon>
                <path d="M30.4455,79.7462513 L30.4405,79.7462513 L30.4405,82.9811505 C30.4405,83.6738978 31.003625,84.2357028 31.697375,84.2357028 L46.706125,84.2357028 C47.4005,84.2357028 47.963625,83.6738978 47.963625,82.9811505 L47.963625,79.7462513 L47.958625,79.7462513 C42.328,81.5058669 36.08425,81.5089845 30.4455,79.7462513" id="Fill-11" fill="#C6C29B" mask="url(#mask-2)"></path>
                <path d="M37.6534375,93.4433183 C37.6534375,95.4847717 40.7503125,95.4866423 40.7503125,93.4433183 C40.7503125,91.4024885 37.6534375,91.3999944 37.6534375,93.4433183" id="Fill-12" fill="#EEA74E" mask="url(#mask-2)"></path>
                <path d="M27.4480625,66.9665288 C27.3349375,66.5705842 27.2311875,66.1677806 27.1374375,65.7568711 C26.9805625,65.0672414 26.2893125,64.6376259 25.6018125,64.791639 C24.9105625,64.9487698 24.4774375,65.6346582 24.6343125,66.3242879 C24.7380625,66.7807154 24.8536875,67.229037 24.9793125,67.6686292 C25.1749375,68.352647 25.8886875,68.7423563 26.5655625,68.5490605 C27.2474375,68.3551411 27.6424375,67.6461819 27.4480625,66.9665288 L27.4480625,66.9665288 Z M51.8949375,68.5983197 C53.0586875,68.5983197 53.2155625,67.4628626 53.4749375,66.3242879 C53.8518125,64.665685 51.3449375,64.1151036 50.9711875,65.7568711 C50.8774375,66.1671571 50.7736875,66.5699606 50.6605625,66.9659053 C50.4268125,67.781489 51.0411875,68.5983197 51.8949375,68.5983197 L51.8949375,68.5983197 Z M67.5774375,54.1441566 C68.4636875,54.1441566 69.0868125,53.2643488 68.7855625,52.4294355 L68.3086875,51.1087886 C68.0693125,50.4428533 67.3324375,50.0974149 66.6668125,50.3380994 C65.9993125,50.5775368 65.6530625,51.3108139 65.8936875,51.9761256 C66.3055625,53.1184416 66.4699375,54.1441566 67.5774375,54.1441566 L67.5774375,54.1441566 Z M67.1543125,57.4027501 C68.3336875,65.5629517 64.9505625,71.039459 64.9061875,71.110542 C64.5268125,71.7060178 64.7018125,72.4960366 65.2980625,72.8770164 C65.8924375,73.2555021 66.6861875,73.0871477 67.0711875,72.4873071 C67.2330625,72.2347754 71.0186875,66.1977103 69.6949375,57.0373586 C69.4530625,55.3588026 66.9124375,55.7291824 67.1543125,57.4027501 L67.1543125,57.4027501 Z M9.4793125,67.8126657 C10.1243125,67.5189808 10.4086875,66.7595152 10.1143125,66.1160272 L9.5580625,64.9013812 C8.8511875,63.3562616 6.5205625,64.4281181 7.2230625,65.9651317 L7.7786875,67.1797778 C8.0724375,67.8201481 8.8324375,68.1075977 9.4793125,67.8126657 L9.4793125,67.8126657 Z M9.2749375,61.1021828 C8.6949375,51.7728533 12.9755625,48.0777853 13.1755625,47.911925 C14.4880625,46.8381978 12.8643125,44.8653333 11.5536875,45.9259662 C11.3286875,46.1074149 6.0443125,50.5052068 6.7124375,61.2605607 C6.8186875,62.9684229 9.3799375,62.7944566 9.2749375,61.1021828 L9.2749375,61.1021828 Z M31.7236875,81.4350333 L31.7236875,82.9813999 C34.2043125,82.9770352 24.9555625,82.9932471 46.7061875,82.9552114 L46.6936875,81.4312921 C41.8993125,82.634091 36.5861875,82.6509264 31.7236875,81.4350333 L31.7236875,81.4350333 Z M30.9711875,78.5655256 C29.5055625,76.8495574 27.8049375,74.4969602 26.4474375,71.5831814 C26.1486875,70.941564 26.4280625,70.1802278 27.0705625,69.8821782 C27.7118125,69.5841285 28.4761875,69.8628486 28.7755625,70.5038425 C31.0486875,75.3823797 34.4511875,78.618526 35.4899375,79.5363694 C36.2949375,79.6411233 37.1055625,79.7128298 37.9186875,79.7489948 L37.9186875,48.9812874 C37.9186875,47.2890136 40.4855625,47.2865195 40.4855625,48.9812874 L40.4855625,79.7489948 C41.1818125,79.7178181 41.8761875,79.6623235 42.5674375,79.5812639 C43.5443125,78.7251505 47.0230625,75.4615687 49.3330625,70.5038425 C50.0468125,68.9699466 52.3761875,70.0467914 51.6611875,71.5831814 C50.2724375,74.5630549 48.5255625,76.9549348 47.0386875,78.680256 C55.5149375,76.2216578 62.3768125,69.5828814 62.3768125,61.1420891 C62.3768125,54.1366742 57.5799375,47.8109123 49.8411875,44.5841191 L48.4749375,44.5841191 C52.2424375,50.062497 54.1286875,55.6393933 54.0774375,61.1932189 C54.0618125,62.8861163 51.4949375,62.8624219 51.5105625,61.1695246 C51.5618125,55.6718172 49.4718125,50.0942972 45.3111875,44.5841191 L32.7974375,44.5841191 C28.6361875,50.0936737 26.5468125,55.6711936 26.5974375,61.1695246 C26.6043125,61.8766132 26.0349375,62.4552536 25.3255625,62.461489 L25.3136875,62.461489 C24.6105625,62.461489 24.0368125,61.8965663 24.0305625,61.1932189 C23.9793125,55.6387698 25.8655625,50.0618734 29.6336875,44.5841191 L28.5630625,44.5841191 C10.7168125,52.0247614 12.3336875,72.8795105 30.9711875,78.5655256 L30.9711875,78.5655256 Z M28.4680625,42.0226376 L49.9361875,42.0226376 L49.9361875,39.0377759 L28.4680625,39.0377759 L28.4680625,42.0226376 Z M39.1124375,96.2595762 C38.8180625,96.2502232 38.5374375,96.1922344 38.2724375,96.0993277 C35.7011875,102.223688 28.9199375,107.509393 25.9218125,109.620059 C26.4036875,110.005404 26.9318125,110.40696 27.4868125,110.80914 C31.5468125,108.098634 31.5193125,105.135596 33.3161875,106.294124 C33.9111875,106.678221 34.0811875,107.471358 33.6955625,108.064963 C32.3918125,110.073369 30.8886875,111.463852 29.7549375,112.335554 C30.6168125,112.8693 31.4955625,113.356904 32.3474375,113.755343 C32.9918125,113.093149 34.0199375,111.909056 34.5618125,110.60275 C35.2111875,109.03643 37.5818125,110.019121 36.9336875,111.582323 C36.4405625,112.770781 35.6743125,113.842014 34.9855625,114.659468 C36.0555625,114.859623 36.9674375,114.763599 37.5680625,114.199923 C39.9699375,111.944597 39.8218125,102.569126 39.1124375,96.2595762 L39.1124375,96.2595762 Z M39.2018125,93.1793136 C38.7155625,93.1793136 38.9699375,93.9761913 39.3911875,93.6263882 C39.5555625,93.4580338 39.4343125,93.1793136 39.2018125,93.1793136 L39.2018125,93.1793136 Z M39.4036875,35.7504998 C40.9793125,32.986993 42.3968125,27.829112 39.2668125,27.6083807 C39.2280625,27.6058865 39.1893125,27.6046395 39.1505625,27.6046395 C36.8686875,27.6046395 36.2899375,32.1919859 39.4036875,35.7504998 L39.4036875,35.7504998 Z M49.2468125,80.6649677 L49.2468125,82.9813999 C49.2468125,84.3787417 48.1074375,85.5160694 46.7061875,85.5160694 L40.4855625,85.5160694 L40.4855625,90.9395762 C42.0305625,91.730842 42.4855625,93.641353 41.5493125,95.0224829 C41.9699375,98.3833361 43.4211875,112.221447 39.3274375,116.06554 C35.3349375,119.812985 27.0293125,114.098287 22.9424375,110.463702 C22.6418125,110.196829 22.4843125,109.803378 22.5174375,109.403069 C22.5505625,109.002136 22.7705625,108.639862 23.1105625,108.425366 C23.2224375,108.354283 34.2993125,101.293997 36.3993125,93.7336362 C36.2674375,92.4641191 36.9511875,91.4352865 37.9186875,90.9395762 L37.9186875,85.5160694 L31.6974375,85.5160694 C30.2961875,85.5160694 29.1568125,84.3787417 29.1568125,82.9813999 L29.1568125,80.6649677 C9.8036875,73.8821547 7.9486875,51.8825954 25.9005625,42.9909873 L25.9005625,37.7576587 C25.9005625,37.0505701 26.4755625,36.4775415 27.1843125,36.4775415 L36.7061875,36.4775415 C32.9149375,31.2030595 34.8199375,24.7251552 39.4480625,25.0537581 C43.0886875,25.3106545 45.5211875,29.649834 41.9318125,36.4775415 L51.2193125,36.4775415 C51.9280625,36.4775415 52.5024375,37.0505701 52.5024375,37.7576587 L52.5024375,42.9909873 C70.4805625,51.8950661 68.5661875,73.8946254 49.2468125,80.6649677 L49.2468125,80.6649677 Z M66.9824375,98.2580056 C66.9824375,96.8675227 65.8480625,95.7358068 64.4536875,95.7358068 C63.0599375,95.7358068 61.9261875,96.8675227 61.9261875,98.2580056 C61.9261875,99.649112 63.0599375,100.780204 64.4536875,100.780204 C65.8480625,100.780204 66.9824375,99.649112 66.9824375,98.2580056 L66.9824375,98.2580056 Z M69.5493125,98.2580056 C69.5493125,101.061419 67.2643125,103.341062 64.4536875,103.341062 C61.6443125,103.341062 59.3593125,101.061419 59.3593125,98.2580056 C59.3593125,95.4552161 61.6443125,93.1749489 64.4536875,93.1749489 C67.2643125,93.1749489 69.5493125,95.4552161 69.5493125,98.2580056 L69.5493125,98.2580056 Z M61.8211875,88.1174571 C61.8211875,87.2975087 60.5761875,87.2968851 60.5761875,88.1174571 C60.5761875,88.9380291 61.8211875,88.9380291 61.8211875,88.1174571 L61.8211875,88.1174571 Z M61.1980625,91.2993558 C59.4399375,91.2993558 58.0093125,89.8720844 58.0093125,88.1174571 C58.0093125,86.3628298 59.4399375,84.9355584 61.1980625,84.9355584 C62.9568125,84.9355584 64.3880625,86.3628298 64.3880625,88.1174571 C64.3880625,89.8720844 62.9568125,91.2993558 61.1980625,91.2993558 L61.1980625,91.2993558 Z M16.6099375,89.2535377 L12.8774375,89.2535377 C12.1686875,89.2535377 11.5943125,89.8265663 11.5943125,90.5336549 C11.5943125,91.2413671 12.1686875,91.8143957 12.8774375,91.8143957 L16.6099375,91.8143957 C17.3186875,91.8143957 17.8930625,91.2413671 17.8930625,90.5336549 C17.8930625,89.8265663 17.3186875,89.2535377 16.6099375,89.2535377 L16.6099375,89.2535377 Z M5.0155625,89.2535377 L1.2836875,89.2535377 C0.5743125,89.2535377 -6.25e-05,89.8265663 -6.25e-05,90.5336549 C-6.25e-05,91.2413671 0.5743125,91.8143957 1.2836875,91.8143957 L5.0155625,91.8143957 C5.7249375,91.8143957 6.2993125,91.2413671 6.2993125,90.5336549 C6.2993125,89.8265663 5.7249375,89.2535377 5.0155625,89.2535377 L5.0155625,89.2535377 Z M8.9468125,93.1749489 C8.2380625,93.1749489 7.6630625,93.7479775 7.6630625,94.4550661 L7.6630625,98.1788167 C7.6630625,98.8859053 8.2380625,99.4595574 8.9468125,99.4595574 C9.6555625,99.4595574 10.2299375,98.8859053 10.2299375,98.1788167 L10.2299375,94.4550661 C10.2299375,93.7479775 9.6555625,93.1749489 8.9468125,93.1749489 L8.9468125,93.1749489 Z M10.2299375,82.8891167 L10.2299375,86.6122438 C10.2299375,87.3193324 9.6555625,87.8929845 8.9468125,87.8929845 C8.2380625,87.8929845 7.6630625,87.3193324 7.6630625,86.6122438 L7.6630625,82.8891167 C7.6630625,82.1814046 8.2380625,81.608376 8.9468125,81.608376 C9.6555625,81.608376 10.2299375,82.1814046 10.2299375,82.8891167 L10.2299375,82.8891167 Z" id="Fill-13" fill="#000000" mask="url(#mask-2)"></path>
                <path d="M39.447875,26.3009526 C38.757875,26.3009526 38.197875,25.7422654 38.197875,25.0538828 L38.197875,1.24669573 C38.197875,0.558313174 38.757875,-0.000374120956 39.447875,-0.000374120956 C40.137875,-0.000374120956 40.697875,0.558313174 40.697875,1.24669573 L40.697875,25.0538828 C40.697875,25.7422654 40.137875,26.3009526 39.447875,26.3009526" id="Fill-14" fill="#000000" mask="url(#mask-2)"></path>
            </g>
        </g>
    </g>
</svg>