<?xml version="1.0" encoding="UTF-8"?>
<svg width="130px" height="134px" viewBox="0 0 130 134" version="1.1" xmlns="http://www.w3.org/2000/svg" xmlns:xlink="http://www.w3.org/1999/xlink">
    <!-- Generator: Sketch 41.1 (35376) - http://www.bohemiancoding.com/sketch -->
    <title>index-chicken</title>
    <desc>Created with Sketch.</desc>
    <defs>
        <linearGradient x1="100.075556%" y1="50.017307%" x2="-256.564581%" y2="50.017307%" id="linearGradient-1" offset="0%">
            <stop stop-color="#A2CBEF"></stop>
            <stop stop-color="#009BDE"></stop>
        </linearGradient>
        <linearGradient x1="100.001872%" y1="50.066644%" x2="-0.00402103299%" y2="50.066644%" id="linearGradient-2">
            <stop stop-color="#BFDE95" offset="0%"></stop>
            <stop stop-color="#77BC1F" offset="80%"></stop>
            <stop stop-color="#77BC1F" offset="100%"></stop>
        </linearGradient>
        <linearGradient x1="202.643204%" y1="50.0473975%" x2="-0.0070348537%" y2="50.0473975%" id="linearGradient-3">
            <stop stop-color="#FFC289" offset="0%"></stop>
            <stop stop-color="#FF8300" offset="80%"></stop>
            <stop stop-color="#FF8300" offset="100%"></stop>
        </linearGradient>
    </defs>
    <g id="Page-1" stroke="none" stroke-width="1" fill="none" fill-rule="evenodd">
        <g id="Artboard" transform="translate(-913.000000, -651.000000)">
            <g id="index-chicken" transform="translate(913.000000, 651.000000)">
                <g id="color" transform="translate(2.941176, 4.706164)">
                    <path d="M27.9058824,112.418502 C27.5419461,112.789169 27.3797687,113.31299 27.4705882,113.824469 C27.7039855,114.26383 28.1119786,114.584263 28.5941176,114.706875 C28.8418731,113.757228 28.8519745,112.761178 28.6235294,111.806701 C28.353617,111.971605 28.1114215,112.178079 27.9058824,112.418502 L27.9058824,112.418502 Z" id="Shape" fill="#FFF125"></path>
                    <path d="M33.5294118,109.800698 C33.6483227,109.377348 33.7115998,108.940314 33.7176471,108.50062 C32.9261418,107.776752 32.0490349,107.152467 31.1058824,106.641685 C31.1245092,107.443693 31.0832179,108.245972 30.9823529,109.041829 C31.864719,109.165171 32.7234124,109.42101 33.5294118,109.800698 L33.5294118,109.800698 Z" id="Shape" fill="#FFF125"></path>
                    <path d="M9.52941176,43.5967305 C9.88235294,44.1379394 10.2294118,44.6673829 10.5823529,45.2027091 C11.1594243,44.7735858 11.7625418,44.3806518 12.3882353,44.026168 C14.9935348,42.5024492 17.9709285,41.7325981 20.9882353,41.8025053 C20.1764706,40.3671252 19.3647059,38.9199796 18.5588235,37.4375378 L18.5,37.3022356 C18.0204123,35.9316492 16.9350175,34.8592149 15.5588235,34.3961791 C15.4653759,34.3684677 15.3679608,34.3565386 15.2705882,34.3608829 C14.0941176,34.3608829 11.7411765,35.3079984 9.38823529,36.7139651 C7.62352941,37.772852 7.84705882,39.3082382 8.21176471,40.79068 L8.30588235,41.1612904 C8.54337705,42.0138983 8.94280433,42.8128007 9.48235294,43.5143726 L9.52941176,43.5967305 Z" id="Shape" fill="#B28146"></path>
                    <path d="M29.9,106.100476 C29.3459823,105.892658 28.7725265,105.74091 28.1882353,105.647508 C27.9291706,105.606739 27.6679376,105.581204 27.4058824,105.571033 C27.8146448,107.103139 27.6385025,108.732553 26.9117647,110.141895 C27.59826,109.602758 28.4059327,109.239283 29.2647059,109.083008 C29.4352941,109.053595 29.6058824,109.041829 29.7764706,109.030064 C29.9102588,108.059645 29.9516208,107.078715 29.9,106.100476 L29.9,106.100476 Z" id="Shape" fill="#FFF125"></path>
                    <path d="M34.2588235,112.812643 C33.8882353,112.606749 33.5235294,112.412619 33.1647059,112.224373 C33.3608697,113.291401 33.2921946,114.390267 32.9647059,115.424565 L33.6176471,115.483392 L35.3470588,115.659873 C35.5663077,114.917298 35.5560557,114.125795 35.3176471,113.389149 L34.2588235,112.812643 Z" id="Shape" fill="#FFF125"></path>
                    <path d="M34.6117647,110.330142 L35.4,110.753697 L36.1705882,111.183134 C35.7176471,110.594863 35.2588235,110.06542 34.7941176,109.571273 C34.7484764,109.82763 34.687584,110.081037 34.6117647,110.330142 L34.6117647,110.330142 Z" id="Shape" fill="#FFF125"></path>
                    <path d="M29.7352941,111.394911 C30.0442227,112.581079 30.0442227,113.826608 29.7352941,115.012775 C30.4058824,115.136312 31.0764706,115.230435 31.7588235,115.306911 C32.1877828,114.124972 32.2002348,112.831967 31.7941176,111.641985 C31.1383875,111.392433 30.4314459,111.307595 29.7352941,111.394911 Z" id="Shape" fill="#FFF125"></path>
                    <path d="M58.9352941,83.6403069 C58.1070679,83.4614155 57.2447234,83.5268105 56.4529412,83.8285534 C58.3425219,85.0874227 60.1519038,86.4627139 61.8705882,87.9464473 C62.8235294,88.7288471 63.7882353,89.5230124 64.7588235,90.2642333 L64.4941176,89.8171477 C62.8882353,87.0640415 61.2235294,84.2050466 58.9352941,83.6403069 Z" id="Shape" fill="#FFFFFF"></path>
                    <path d="M103.529412,40.2024094 C103.125034,38.0639791 101.246691,36.5225555 99.0705882,36.5433666 L97.2352941,36.5433666 L97.9764706,34.8667955 C98.0588235,34.6903144 99.5235294,31.401882 97.7470588,28.425233 C96.9710767,31.8866824 95.5954301,35.1856449 93.6823529,38.172876 C93.5820447,38.3328002 93.4592136,38.4774327 93.3176471,38.6023135 C96.1174099,40.5150326 98.6359216,42.8099461 100.8,45.4203692 C102.011765,44.7085618 104.188235,42.9437502 103.529412,40.2024094 Z" id="Shape" fill="url(#linearGradient-1)"></path>
                    <path d="M69.0117647,37.113989 L69.0117647,37.113989 C69.5647059,37.113989 70.7176471,36.6080764 71.8294118,36.1139291 C74.0705882,35.1256346 77.1235294,33.7608469 80.5352941,33.7608469 C81.5897252,33.7591984 82.6398313,33.8956611 83.6588235,34.1667536 C84.758943,34.4363599 85.8366451,34.7903709 86.8823529,35.2256406 C89.8262048,36.3195047 92.5765154,37.8764526 95.0294118,39.8376817 C95.8910878,38.8275651 96.6314308,37.7199456 97.2352941,36.5374839 L97.9764706,34.8609128 C98.0823529,34.63737 100.494118,29.2193982 95.2647059,25.9956756 C94.4555656,25.5426661 93.5449348,25.3018404 92.6176471,25.2956337 C90.1470588,25.2956337 87.9882353,26.9604393 86.9529412,27.7604873 C86.3647059,28.2134556 86.0764706,28.4369984 85.5941176,28.4369984 L85.0352941,28.4369984 L84.6647059,28.0016782 C84.2705882,27.5192964 84.3588235,27.0722107 84.5352941,26.1721568 C84.8764706,24.4426414 85.6764706,20.4012227 83.7470588,18.0540232 C82.5294118,16.5715814 80.2941176,15.9303665 77.1411765,16.1539093 C73.6705882,16.5656987 71,18.0069616 69.2705882,20.4365189 C65.4117647,25.848608 67.2352941,34.4961851 67.2529412,34.5550121 C67.3705882,35.2491714 67.9235294,36.9904522 69.0117647,37.113989 Z" id="Shape" fill="url(#linearGradient-2)"></path>
                    <path d="M84.3882353,27.1604513 C84.4138232,26.8357257 84.4629722,26.5132887 84.5352941,26.1956876 C84.8764706,24.4661722 85.6764706,20.4247535 83.7470588,18.077554 C82.5294118,16.5951122 80.2941176,15.9538973 77.1411765,16.1774401 C73.6705882,16.5892295 71,18.0304924 69.2705882,20.4600497 C65.4117647,25.8721388 67.2352941,34.5197159 67.2529412,34.578543 C67.3705882,35.2256406 67.9235294,36.9669214 69.0176471,37.0845755 L69.0176471,37.0845755 C69.5705882,37.0845755 70.7235294,36.5786628 71.8352941,36.0845156 C74.0764706,35.096221 77.1294118,33.7314334 80.5411765,33.7314334 C81.3289259,33.7672177 82.1142924,33.8437956 82.8941176,33.9608589 C83.6024755,31.7454384 84.1026808,29.4687771 84.3882353,27.1604513 L84.3882353,27.1604513 Z" id="Shape" fill="url(#linearGradient-3)"></path>
                    <path d="M25.9470588,105.723983 C25.382653,105.895155 24.8720375,106.209243 24.4647059,106.635803 C23.9495386,107.11222 23.7029563,107.812379 23.8058824,108.506503 C23.9588235,109.094774 24.5411765,109.6301 25.5705882,110.118364 C26.4055535,108.791398 26.6325171,107.170438 26.1941176,105.665156 C26.1235294,105.688687 26.0294118,105.700453 25.9470588,105.723983 Z" id="Shape" fill="#FFF125"></path>
                    <path d="M53.7823529,82.4814139 C55.8529412,81.3048728 57.7294118,80.9224969 59.4941176,81.3578171 C62.7529412,82.1578651 64.6705882,85.4404148 66.5529412,88.611193 C67.8,90.7466151 69.0882353,92.946747 70.5294118,93.6762025 C73.8905862,94.9426264 77.4552899,95.5826368 81.0470588,95.5645509 C81.9117647,95.5645509 82.6882353,95.5292547 83.3647059,95.4645449 C83.3941176,95.3174773 83.4352941,95.1704097 83.4705882,95.023342 C84.0882353,92.7114388 86.6117647,90.428949 90.9647059,88.2464653 C96.7411765,85.3521742 105.923529,82.7637838 109.9,83.2873445 C110.429736,74.8577018 109.06913,66.4162113 105.917647,58.5799814 C104.330207,54.6544215 102.19317,50.9742987 99.5705882,47.6499146 C99.0705882,47.061644 93.1411765,40.3965387 86.0411765,37.4375378 C85.0789157,37.0597623 84.0971181,36.7337859 83.1,36.4610087 C82.2767301,36.2419067 81.4283937,36.1311615 80.5764706,36.1315772 C77.6764706,36.1315772 74.9882353,37.3081183 72.8235294,38.2787647 C71.3058824,38.9493931 70.1058824,39.4553058 69.0941176,39.4553058 L68.7882353,39.4553058 C67.0823529,39.2611765 66.0352941,37.9316851 65.4647059,36.6316072 C53.3058824,39.7670892 41.7117647,48.5793821 34.9470588,59.6859301 C40.2639507,67.427362 45.9774572,74.8887455 52.0647059,82.040211 C52.6516392,82.124152 53.2276194,82.272101 53.7823529,82.4814139 L53.7823529,82.4814139 Z" id="Shape" fill="#FFFFFF"></path>
                    <path d="M15.2588235,32.0078007 C15.6373169,32.0018545 16.0138259,32.0636137 16.3705882,32.1901645 C16.4941176,32.2372262 16.6058824,32.2901705 16.7235294,32.3431149 C17.4352941,27.0486799 17.8411765,22.2601576 15.9529412,16.7539453 C15.1133459,14.5102104 14.0511838,12.3561979 12.7823529,10.3241482 C10.7117647,6.79452486 8.47058824,3.35902484 6.1,0.023530822 L4.21176471,5.4473853 C2.35294118,10.8653571 0.376470588,16.4715754 0.558823529,22.2307441 C0.741176471,27.9899128 3.35294118,32.9431508 7.30588235,35.3256466 C7.57771081,35.095013 7.86899438,34.8883467 8.17647059,34.7079625 C9.22941176,34.0608649 12.8470588,32.0078007 15.2588235,32.0078007 Z" id="Shape" fill="#DBDCDC"></path>
                    <path d="M0.735294118,24.3132219 C1.1,26.1250951 1.59411765,28.3428751 2.94117647,29.6900147 C3.74705882,27.7899008 3.96470588,21.3895172 4.35294118,22.4248734 C4.81764706,23.6484761 6.11764706,30.3724085 7.47647059,30.4371183 C8.34117647,30.4782972 7.86470588,22.8543109 7.81764706,21.9895532 C7.76470588,20.9483143 10,23.9426114 10.5882353,24.8014864 C11.4352941,26.0721508 11.3529412,24.689715 11.3764706,23.6249453 C11.3312777,21.7158462 11.1464706,19.8126124 10.8235294,17.9304864 C10.7,16.9245437 13.5529412,22.9425515 14.3941176,25.4838802 C14.5647059,26.007441 14.8117647,27.2486919 15.3,27.6369505 C16.3823529,28.4781774 16.5647059,25.4427013 16.6,24.6250052 C16.6647059,23.1425635 16.7647059,21.6836525 16.8529412,20.1894453 C16.6319615,19.0200034 16.3272556,17.8679495 15.9411765,16.7421799 C15.1015812,14.498445 14.0394191,12.3444325 12.7705882,10.3123828 C10.7,6.78275945 8.45882353,3.34725943 6.08823529,0.011765411 L4.2,5.43561989 C2.35294118,10.8653571 0.376470588,16.4715754 0.558823529,22.2307441 C0.58068552,22.9275414 0.63959226,23.6226826 0.735294118,24.3132219 L0.735294118,24.3132219 Z" id="Shape" fill="#E51373"></path>
                    <path d="M29.0588235,57.5387425 C30.1445328,58.3433795 30.7489646,59.6430964 30.6647059,60.9918907 C30.8529412,64.1626689 29.0411765,66.4157452 26.9823529,67.8628907 C31.8705882,73.9926698 36.8470588,79.7283077 41.9470588,85.1698103 C43.5470588,83.4991219 46.0647059,82.3814079 49.0058824,82.0637418 C41.9424559,73.674998 35.3988589,64.8619282 29.4117647,55.6739249 C29.0439047,56.184734 28.6174684,56.650683 28.1411765,57.0622434 C28.4664381,57.1805823 28.7749122,57.3407611 29.0588235,57.5387425 L29.0588235,57.5387425 Z" id="Shape" fill="#B28146"></path>
                    <path d="M41.0941176,114.836294 L39.6058824,113.459741 C39.6058824,113.459741 40.9294118,111.789053 41.0882353,111.600806 C40.6059646,111.298817 40.145962,110.962641 39.7117647,110.594863 C39.3577273,110.958683 39.0238934,111.341633 38.7117647,111.741991 L37.9823529,110.947826 C37.9823529,110.947826 38.2,111.41256 37.9411765,111.665516 C37.6823529,111.918472 37.0117647,111.665516 37.0117647,111.665516 C37.0117647,111.665516 38.6764706,113.006773 38.2411765,113.78329 L38.1352941,113.971536 C37.8968116,114.38075 37.3792238,114.53086 36.9588235,114.312733 L36.7,114.171548 C36.7473386,114.730147 36.701619,115.292731 36.5647059,115.836354 C37.4121662,115.948011 38.2527007,116.107094 39.0823529,116.312853 C39.0823529,116.312853 39.9,115.659873 40.2941176,115.330441 C40.5273879,115.116945 40.798787,114.949306 41.0941176,114.836294 L41.0941176,114.836294 Z" id="Shape" fill="#FFF125"></path>
                    <path d="M89.6058824,116.836414 C89.244869,116.836081 88.8872411,116.906013 88.5529412,117.042309 C88.5529412,117.042309 87.3117647,117.042309 87.0588235,116.301088 C86.9492823,116.102554 86.9990008,115.853946 87.1764706,115.712817 C86.2588235,115.971656 85.3176471,116.212847 84.3588235,116.418742 L85.2882353,117.354092 L86.1529412,118.224733 C86.4673734,118.540184 86.7510101,118.884902 87,119.254206 C87.1764706,119.130669 87.3588235,119.007132 87.5411765,118.889478 L88.8411765,118.989484 C89.3620861,119.253163 89.9720217,119.276789 90.5117647,119.054194 C90.9843576,118.841928 91.3074249,118.393197 91.3588235,117.877653 C91.3863221,117.450729 91.154237,117.049197 90.7705882,116.859945 C90.3878049,116.77452 89.9918033,116.766519 89.6058824,116.836414 L89.6058824,116.836414 Z" id="Shape" fill="#FFF125"></path>
                    <path d="M83.6176471,119.02478 L78.4882353,113.842117 C76.8040205,114.218542 75.0991119,114.495508 73.3823529,114.671578 C76.2411765,117.083488 79.1490196,119.489514 82.1058824,121.889658 C82.6828461,122.443685 83.4196884,122.801836 84.2117647,122.913249 C84.534974,122.914281 84.8407512,122.766805 85.0411765,122.513225 C85.3058824,122.21909 86.0058824,121.43669 84.4529412,119.895421 L83.6176471,119.02478 Z" id="Shape" fill="#B28146"></path>
                    <path d="M80.5470588,123.65447 C80.6721627,123.872039 80.7860374,124.095875 80.8882353,124.325098 L81.1411765,124.119203 C80.9117647,123.954488 80.7294118,123.801537 80.5941176,123.689766 L80.5470588,123.65447 Z" id="Shape" fill="#0873B7"></path>
                    <path d="M74.1176471,118.495337 C73.4772728,118.779492 72.8730175,119.138907 72.3176471,119.565989 C72.0737007,119.757215 71.8437053,119.965599 71.6294118,120.189556 C72.9814444,121.209726 74.0422362,122.566728 74.7058824,124.125086 C74.6853645,123.048877 74.9886735,121.991331 75.5764706,121.08961 C75.7388374,120.846566 75.9197698,120.616453 76.1176471,120.401334 C75.5429349,119.676007 74.8697695,119.034481 74.1176471,118.495337 Z" id="Shape" fill="#FFF125"></path>
                    <path d="M77.7294118,122.183793 C77.6705882,122.254386 77.6117647,122.324978 77.5647059,122.401453 C77.1828181,122.992141 77.0165887,123.69658 77.0941176,124.395691 C77.1167764,124.914059 77.3884653,125.389543 77.8235294,125.672238 C78.4764706,125.972256 79.5,125.354572 80.0941176,124.931017 L79.9,125.007492 C79.4660604,123.875407 78.7118178,122.89422 77.7294118,122.183793 L77.7294118,122.183793 Z" id="Shape" fill="#FFF125"></path>
                    <path d="M107.117647,96.4763703 C106.7521,95.9792289 106.289919,95.5610404 105.758824,95.2468848 C102.188235,93.2997093 96.5,93.1585244 92.1411765,95.2057059 C92.4320262,95.4031866 92.700302,95.6320238 92.9411765,95.8880997 C93.7352941,96.8058018 94.5941176,98.5117864 94.1764706,101.435491 C93.5,106.688747 88.5647059,110.894881 81.1470588,113.142075 L82.4470588,114.459801 C97.9705882,111.771405 104.458824,102.794396 107.117647,96.4763703 Z" id="Shape" fill="#FFFFFF"></path>
                    <path d="M96.7588235,95.0056939 C96.2223052,96.5820693 95.356004,98.0259912 94.2176471,99.2412419 C94.2798448,99.9768267 94.2561558,100.717153 94.1470588,101.447256 C93.4705882,106.700512 88.5352941,110.906647 81.1176471,113.15384 L82.4176471,114.471566 C97.7470588,111.800818 104.264706,103.053235 107,96.7352093 C104.452941,99.5942042 99.7294118,97.4587821 96.7588235,95.0056939 Z" id="Shape" fill="#0873B7"></path>
                    <path d="M114.805882,101.364899 C114.541176,100.941344 114.276471,100.517789 114.011765,100.100117 C112.694118,98.0294045 112.370588,95.023342 112.058824,92.1172855 C111.758824,89.3171177 111.417647,86.1404567 110.111765,85.7463154 L110.017647,85.7110192 C108.176471,84.975681 98.9941176,86.8404987 92,90.3465911 C88.8294118,91.9349216 86.7058824,93.5703138 85.9647059,95.0174593 C86.1686836,94.9656751 86.3660511,94.8906709 86.5529412,94.7939165 C87.303506,94.373565 88.1516013,94.1584849 89.0117647,94.1703497 L89.1705882,94.1703497 C94.4647059,90.6407264 102.2,90.5877821 106.905882,93.1526417 C109.141176,94.3703617 110.4,97.1117025 111.611765,99.7530373 C112.570588,101.829632 112.952941,103.482673 114.088235,104.659214 C115.223529,105.835755 115.888235,106.059298 115.447059,106.571093 C115.005882,107.082888 113.823529,106.62992 113.823529,106.62992 C111.8,105.800459 110.670588,103.341488 109.470588,100.747214 C109.188235,100.158944 108.882353,99.5118463 108.605882,98.9118104 C105.960102,104.320925 101.753533,108.812573 96.5294118,111.806701 C97.5200335,112.157537 98.4301649,112.703648 99.2058824,113.412679 C100.811765,114.948066 107.911765,115.177491 109.688235,114.112721 C110.676471,113.524451 112.3,113.406797 114.352941,113.277377 C117.329412,113.089131 121.258824,112.842057 123.764706,110.877233 C119.182353,108.388849 116.958824,104.823929 114.805882,101.364899 Z" id="Shape" fill="#E50020"></path>
                    <path d="M42.4411765,104.994528 L42.4411765,104.994528 C41.6793175,104.182521 41.0321388,103.270083 40.5176471,102.282601 C39.1207263,99.6862065 39.2956465,96.5260956 40.9705882,94.0997573 C39.6,91.028985 39.8941176,88.7464953 40.5764706,87.1875783 C36.4588235,82.8461416 32.7058824,78.6164764 29.2117647,74.4515209 C27.4470588,83.5991279 28.4529412,91.4643052 32.3117647,97.8646888 C36.6294118,105.023941 44.3058824,110.118364 55.1411765,112.995007 C56.9058824,113.459741 58.6705882,113.853882 60.4705882,114.171548 C54.1941176,112.877353 48.5117647,110.153661 44.7058824,107.06524 C43.8448414,106.500906 43.080173,105.801738 42.4411765,104.994528 L42.4411765,104.994528 Z" id="Shape" fill="#FFFFFF"></path>
                    <path d="M44.7058824,107.06524 C43.8448414,106.500906 43.080173,105.801738 42.4411765,104.994528 L42.4411765,104.994528 C41.6793175,104.182521 41.0321388,103.270083 40.5176471,102.282601 C39.1207263,99.6862065 39.2956465,96.5260956 40.9705882,94.0997573 C40.7335201,93.5541238 40.5369111,92.9917883 40.3823529,92.4173035 C37.5294118,91.4054781 36.0176471,88.4582427 36.2647059,85.3286434 C30.9058824,86.0580988 29.5705882,81.1578051 28.8764706,76.5045851 C27.6470588,84.7580209 28.7705882,91.9290389 32.3529412,97.8470407 C36.6705882,105.006293 44.3470588,110.100716 55.1823529,112.977359 C56.9470588,113.442093 58.7117647,113.836234 60.5117647,114.1539 C54.1941176,112.877353 48.5117647,110.153661 44.7058824,107.06524 Z" id="Shape" fill="#0873B7"></path>
                    <g id="ci" transform="translate(38.235294, 93.535018)" fill="#FFFFFF">
                        <path d="M9.41176471,1.47067638 C8.22396762,0.905322428 6.93238209,0.59091765 5.61764706,0.547091612 L12.7294118,3.68257365 C11.7436142,2.77934176 10.6246202,2.03330106 9.41176471,1.47067638 L9.41176471,1.47067638 Z M6.70588235,1.817756 L4.05882353,0.69415925 C3.6698526,0.77846501 3.29116893,0.904700468 2.92941176,1.0706524 L5.47647059,2.10600857 C5.86938853,1.94743187 6.2837432,1.84829802 6.70588235,1.8118733 L6.70588235,1.817756 Z M11.1764706,5.84740927 L15.6470588,7.51221493 C15.5117647,7.24161048 15.3647059,6.97100602 15.2117647,6.70628428 L11.1294118,5.11795379 L11.1764706,5.84740927 Z M4.62941176,2.58839042 L2.05294118,1.58244778 C1.80924602,1.75656338 1.58272831,1.95354711 1.37647059,2.17071833 L4.02941176,3.15901286 C4.20679187,2.94255999 4.4103025,2.74891691 4.63529412,2.58250772 L4.62941176,2.58839042 Z M11.1,4.39438101 L14.6294118,5.84152657 C14.3901961,5.50425145 14.1333333,5.17678084 13.8588235,4.85911475 L11.0294118,3.68257365 L11.1,4.39438101 Z M16.6882353,11.2536156 L16.6882353,10.9477149 L14.6117647,10.3594444 C14.5125951,10.1068638 14.4006868,9.8594728 14.2764706,9.6182235 L16.6294118,10.3300309 C16.5941176,10.1123708 16.5470588,9.89471066 16.4941176,9.67705056 L13.7823529,8.82405826 C13.5819478,8.51754601 13.3639347,8.222916 13.1294118,7.94165243 L16.2529412,9.00053942 C16.1745098,8.7613094 16.0882353,8.52404028 15.9941176,8.28873206 L8.08823529,5.47679883 L8.36470588,9.31820552 L11.4411765,10.1535497 L11.6529412,13.6243459 L2.28823529,11.8595343 C2.53921569,12.1928876 2.80588235,12.5164364 3.08823529,12.8301807 L8.68235294,13.7949444 L8.73529412,14.5243999 L4.02941176,13.7949444 C4.40345195,14.1380134 4.79621067,14.4600948 5.20588235,14.7597081 L8.73529412,15.2538554 L8.78823529,15.9774282 L6.77058824,15.7303545 C7.89380861,16.3292404 9.11851008,16.7142266 10.3823529,16.8657167 C11.3954081,16.9925061 12.4240558,16.8837971 13.3882353,16.5480506 L12.6588235,16.45981 C12.9708671,16.319618 13.2634864,16.1396858 13.5294118,15.9244838 L14.4,16.0480206 C14.6387479,15.8939237 14.8631783,15.7186999 15.0705882,15.5244598 L14.0882353,15.3715095 C14.2336908,15.1877291 14.3616957,14.9907866 14.4705882,14.7832389 L15.5588235,14.9714855 C15.6927689,14.7997399 15.8146304,14.6189022 15.9235294,14.4302766 L14.7470588,14.2067338 C14.8161264,14.014889 14.8711731,13.8182818 14.9117647,13.6184632 L16.2176471,13.883185 C16.2960049,13.6912665 16.3627913,13.4948241 16.4176471,13.2949144 L14.9941176,12.9772483 C15.0061377,12.7715291 15.0061377,12.5652835 14.9941176,12.3595643 L14.9941176,12.3595643 L16.5470588,12.7301747 C16.5823529,12.5419281 16.6058824,12.3477989 16.6235294,12.1419042 L14.9235294,11.706584 C14.8862606,11.480625 14.8371737,11.2567751 14.7764706,11.0359555 L16.6470588,11.5418682 C16.6823529,11.4477449 16.6823529,11.3477389 16.6764706,11.2477329 L16.6882353,11.2536156 Z M5.33529412,10.8418262 L1.11176471,9.90647607 C1.27647059,10.2359076 1.45294118,10.5594564 1.64705882,10.8712398 L6.27058824,11.8183554 C5.93393641,11.5117666 5.6175823,11.1836032 5.32352941,10.8359435 L5.33529412,10.8418262 Z M4.07058824,8.94171237 L0.382352941,8.00047949 C0.470588235,8.31814558 0.570588235,8.63581168 0.688235294,8.94759507 L4.61764706,9.88294525 C4.41528411,9.57813059 4.23066399,9.26190059 4.06470588,8.93582966 L4.07058824,8.94171237 Z M3.26470588,6.24743325 C3.24374969,5.96741587 3.24374969,5.68622374 3.26470588,5.40620636 L0.252941176,4.43555995 C0.19066543,4.71467207 0.147428564,4.99769398 0.123529412,5.28266954 L3.28235294,6.24743325 L3.26470588,6.24743325 Z M3.62352941,3.89435104 L0.864705882,2.91193923 C0.718199713,3.15186426 0.592260113,3.40375855 0.488235294,3.66492553 L3.36470588,4.64145464 C3.42148844,4.37444271 3.50627107,4.11416416 3.61764706,3.86493752 L3.62352941,3.89435104 Z M3.4,7.14748719 L0.0882352941,6.1944889 C0.0882352941,6.34155653 0.0882352941,6.49450688 0.117647059,6.64745722 C0.147058824,6.80040756 0.152941176,6.95335791 0.176470588,7.10630825 L3.66470588,8.05342384 C3.55459625,7.74774979 3.46421446,7.43532444 3.39411765,7.11807366 L3.4,7.14748719 Z" id="Shape"></path>
                    </g>
                    <path d="M42.3,110.371321 C41.7941176,110.085029 41.3,109.790894 40.8176471,109.488915 L40.5294118,109.735988 C40.965013,110.103736 41.4292276,110.436181 41.9176471,110.730166 L42.3,110.371321 Z" id="Shape" fill="#FFF125"></path>
                    <path d="M68.0176471,114.942183 C66.6988833,114.939217 65.3812548,114.864593 64.0705882,114.71864 C66.2117647,114.995127 68.3411765,115.171608 70.4411765,115.242201 L70.0411765,114.901004 C69.3764706,114.930417 68.7,114.942183 68.0176471,114.942183 Z" id="Shape" fill="#0873B7"></path>
                    <path d="M41.9764706,116.395211 C41.8097688,116.236801 41.6329237,116.089421 41.4470588,115.954008 C41.2895275,116.016426 41.1441823,116.106027 41.0176471,116.21873 C40.5813795,116.594859 40.2338393,117.062961 40,117.5894 C40.1926392,118.024465 40.5379019,118.373934 40.9705882,118.571812 C41.4392307,118.769975 41.9775064,118.707433 42.3882353,118.407096 C42.7194632,118.131381 42.8518276,117.683173 42.7235294,117.271734 C42.5347004,116.933182 42.2808146,116.635298 41.9764706,116.395211 L41.9764706,116.395211 Z" id="Shape" fill="#FFF125"></path>
                    <path d="M70.9411765,121.124906 C70.9411765,121.166085 70.8882353,121.207264 70.8705882,121.248443 C70.6101027,121.777786 70.4905652,122.365379 70.5235294,122.954428 C70.5179796,123.65845 70.8616834,124.319458 71.4411765,124.719239 C71.9529412,125.001609 72.6647059,124.96043 73.6352941,124.595703 C73.0574051,123.222364 72.1282398,122.025332 70.9411765,121.124906 L70.9411765,121.124906 Z" id="Shape" fill="#FFF125"></path>
                    <path d="M82.3529412,70.6983548 C81.6705882,68.2217357 78.1588235,67.4099224 75.9647059,67.1687315 C74.2,66.9687195 71.5352941,67.2863856 70.8941176,69.27474 C70.8106471,69.5389069 70.8106471,69.8223865 70.8941176,70.0865534 C70.8584351,70.5939936 71.0020879,71.0978495 71.3,71.5101681 C72.7411765,73.6338248 75.3,74.6456502 77.8117647,74.7868351 C80.1117647,74.9103719 83.1117647,73.5338188 82.3529412,70.6983548 Z" id="Shape" fill="#F9DBE8"></path>
                    <path d="M40.5176471,55.0797716 C40.4215874,55.0010141 40.3192904,54.9301888 40.2117647,54.8679942 C39.962074,54.3892058 39.5069403,54.0510863 38.9764706,53.9502922 C38.1634145,53.7593475 37.3084105,53.979156 36.6882353,54.5385627 C36.1874333,55.0148229 35.8973578,55.6712374 35.8823529,56.3622014 C35.9498282,57.2629264 36.2881746,58.1221725 36.8529412,58.8270551 C37.8882353,60.2977314 39.6117647,61.5860439 41.5,60.9095328 C42.0894434,60.7304804 42.5656528,60.293365 42.7944426,59.7213563 C43.0232324,59.1493476 42.9798319,58.5043757 42.6764706,57.96818 C42.1272961,56.8890172 41.3971019,55.9120503 40.5176471,55.0797716 Z" id="Shape" fill="#F9DBE8"></path>
                    <path d="M23.8411765,69.4688693 C23.6117647,69.5453445 22.6117647,69.415925 22.5,68.6452905 C22.410191,67.9935137 22.7768296,67.3646058 23.3882353,67.1216698 C24.203976,66.800616 24.9797439,66.3860587 25.7,65.8863017 C27.5529412,64.5862237 28.4294118,62.9802451 28.3117647,61.1036621 L28.3117647,61.0271869 C28.3117647,59.885942 27.8588235,59.5623932 27.7235294,59.4565045 C26.8,58.8035242 24.9176471,59.1211903 23.8470588,59.4094429 C23.5588235,59.5035662 23.3,59.5800414 23.0823529,59.6388684 C22.6294118,59.7624052 21.7823529,60.0212443 21.4529412,59.0505979 C21.1235294,58.0799515 22.1470588,57.4328538 22.5647059,57.3151997 C22.6764706,57.2740208 22.8882353,57.2034283 23.1823529,57.1269532 C24.5588235,56.6681021 26.6705882,55.7151038 27.7058824,53.973823 C28.4411765,52.7384549 28.5294118,51.3030747 27.9705882,49.579442 C27.1764706,47.1204711 25.7176471,45.4615481 23.6352941,44.6556175 C20.8058824,43.5967305 16.9529412,44.1202913 13.5294118,46.0674668 C6.85882353,49.8676946 5.81176471,56.6151578 10.4176471,66.1216099 C15.0235294,75.628062 21.4176471,81.4931194 26.0294118,83.6403069 C25.9750885,79.7682385 26.405892,75.9046091 27.3117647,72.1396176 C26.4686275,71.112105 25.6411765,70.0885143 24.8294118,69.0688453 C24.5058824,69.2217957 24.1647059,69.3570979 23.8411765,69.4688693 Z" id="Shape" fill="#FFFFFF"></path>
                    <path d="M33.9,56.9269412 C33.8235294,55.4562648 33.4647059,53.1325961 32.3058824,52.2678384 C31.825963,51.9292866 31.221216,51.8195217 30.6529412,51.9678204 C30.6377889,52.3333705 30.5945239,52.697212 30.5235294,53.056121 C31.5039216,54.5895462 32.4843137,56.0974797 33.4647059,57.5799215 L33.9,56.9269412 Z" id="Shape" fill="#FFFFFF"></path>
                    <path d="M58.9352941,83.6403069 C58.1070679,83.4614155 57.2447234,83.5268105 56.4529412,83.8285534 C58.3425219,85.0874227 60.1519038,86.4627139 61.8705882,87.9464473 C62.8235294,88.7288471 63.7882353,89.5230124 64.7588235,90.2642333 L64.4941176,89.8171477 C62.8882353,87.0640415 61.2235294,84.2050466 58.9352941,83.6403069 Z" id="Shape" fill="#FFFFFF"></path>
                    <path d="M91.8117647,101.12959 C92.0470588,99.4941982 91.8117647,98.2235338 91.1294118,97.441134 C90.579537,96.8475729 89.8031034,96.5160181 88.9941176,96.5293146 C88.5564135,96.5195557 88.1233596,96.6207426 87.7352941,96.8234499 C86.6,97.4940783 84.0294118,97.9117504 81.0235294,97.9117504 C77.3325299,97.9224351 73.6672394,97.297587 70.1882353,96.0645809 L70.1882353,96.0645809 C69.9583538,95.9909997 69.7342156,95.9005526 69.5176471,95.7939764 C68.9294118,95.5645509 68.3764706,95.3115946 67.8117647,95.0292247 C65.3,93.7762085 62.7941176,91.7172615 60.3764706,89.7347898 C57.2176471,87.1405166 53.9470588,84.4403548 51.4117647,84.3285834 L50.7294118,84.3285834 C47.2705882,84.3285834 44.2588235,85.6051305 43.0294118,87.5817196 C42.0411765,89.1818155 42.1705882,91.228997 43.4,93.6703198 L43.4764706,93.8232701 C44.3882353,95.7175013 49.6882353,99.7059756 57.2176471,101.435491 C57.6352941,101.529614 58.9823529,102.064941 58.8176471,102.91205 C58.6529412,103.75916 57.1764706,103.653271 56.7588235,103.559148 C49.9470588,102.047292 44.7705882,98.9235758 42.4294118,96.3528335 C41.7301062,97.9153595 41.8085881,99.7161916 42.6411765,101.211948 C43.4280963,102.661204 44.4935988,103.940684 45.7764706,104.97688 C48.9058824,107.329962 54.0882353,108.294726 56.7235294,108.324139 C57.3411765,108.324139 58.4882353,108.612392 58.4882353,109.435971 C58.4882353,110.259549 57.0117647,110.300728 56.9,110.300728 C56.4235294,110.300728 55.8941176,110.300728 55.3235294,110.241901 C59.387649,111.73732 63.6758443,112.532951 68.0058824,112.594983 C80.9470588,112.589101 90.9588235,107.771165 91.8117647,101.12959 Z" id="Shape" fill="#FFFFFF"></path>
                </g>
                <path d="M118.606571,105.118065 L117.800689,103.823869 C116.777159,102.217891 116.483042,99.4941982 116.200689,96.8587461 C115.865395,93.7409122 115.547748,90.7642632 113.977159,89.2818215 C115.030101,76.2633942 111.535983,62.3272648 104.071277,52.2796038 C106.135983,50.9442297 108.506571,48.320543 107.647748,44.6320867 C107.145912,41.9794149 105.096092,39.8900056 102.45363,39.3376517 C103.230101,36.396299 103.041865,31.8548503 98.2653947,28.9193803 C97.0899058,28.2692282 95.7674925,27.9310103 94.4242182,27.9369684 C92.4809211,28.0034787 90.5954651,28.6150146 88.9830418,29.7017801 C89.3065712,27.3486979 89.371277,23.9779076 87.371277,21.554233 C85.8418653,19.695298 83.4065712,18.7481824 80.1301006,18.7481824 C79.6948065,18.7481824 79.2418653,18.7481824 78.7242182,18.8011268 C74.5065712,19.3011568 71.2830418,21.0718511 69.15363,24.0955617 C65.3359829,29.4547065 66.2124535,37.0375139 66.6183359,39.3905961 C55.5418653,42.2495909 44.9242182,49.6147382 37.6889241,59.1153076 C37.419752,57.6497365 36.6530615,56.3219733 35.5183359,55.3562588 C34.5598095,54.6668452 33.3628905,54.3951877 32.2006888,54.6032725 C32.1418653,54.3561989 32.0771594,54.1150079 31.9948065,53.8620516 C30.9889241,50.7442177 29.0065712,48.5323204 26.271277,47.4675507 C26.1183359,47.4087237 25.9653947,47.3557793 25.8065712,47.3087177 C24.6889241,45.3615421 23.571277,43.3849531 22.471277,41.349537 C22.0849016,40.3497772 21.4822861,39.4478086 20.7065712,38.7082022 C21.5418653,32.6666637 22.171277,27.3604633 19.9771594,20.9600797 C19.0897211,18.5641901 17.9624243,16.2641302 16.6124535,14.0949624 C14.1105649,9.86291477 11.3973307,5.75944196 8.48304176,1.80010788 L7.15951234,0 L3.79480646,9.66528514 C1.93010058,15.0244299 -0.181664127,21.1012646 0.0124535205,27.3134017 C0.21245352,33.7490815 3.20657117,39.431775 7.74186529,42.2495909 C7.30895627,43.6061662 7.30895627,45.0638539 7.74186529,46.4204291 L7.83010058,46.7557434 C8.12944879,47.8971634 8.64679906,48.9698806 9.35362999,49.9147562 L10.6301006,51.7678084 C7.01245352,55.5209746 5.13598293,61.7684078 10.15363,72.1396176 C15.171277,82.5108274 22.4359829,89.1994636 28.0301006,91.2525278 C28.4156196,95.7780798 29.8235577,100.15703 32.1477476,104.059178 C34.3306306,107.625373 37.2166977,110.709767 40.6301006,113.124427 C40.236552,113.490579 39.868995,113.883711 39.5301006,114.300968 C36.7359829,110.836054 33.6477476,108.818286 30.3830418,108.300608 C29.2932876,108.104425 28.1733126,108.156707 27.1065712,108.453559 C26.1529969,108.740995 25.2898251,109.269871 24.6006888,109.988945 C23.5196854,111.05009 23.0540334,112.589051 23.3653947,114.071542 C23.85363,115.965774 25.6301006,116.93642 27.071277,117.507042 C26.8620233,118.1754 26.8620233,118.89175 27.071277,119.560107 C27.5418653,120.960191 28.871277,121.877893 31.0242182,122.283799 C32.4301006,122.548521 33.85363,122.683823 35.2301006,122.80736 C36.6991335,122.918061 38.160446,123.114486 39.6065712,123.395631 C40.0298532,124.450639 40.8520721,125.296159 41.8948065,125.748713 C42.3613694,125.940272 42.8610439,126.038214 43.3653947,126.036965 C44.2200766,126.047198 45.0517792,125.760243 45.7183359,125.225152 C46.8461141,124.292811 47.2552815,122.745924 46.7359829,121.377863 C46.4322442,120.717985 45.9839148,120.134921 45.4242182,119.671878 C45.0468104,119.307693 44.6212841,118.996941 44.1595123,118.748293 C44.7965823,117.944151 45.5118494,117.205194 46.2948065,116.542279 C49.5186679,118.10951 52.8900892,119.352932 56.3595123,120.254266 C61.7390833,121.678686 67.2668986,122.468422 72.8301006,122.607348 L72.7065712,122.695589 C71.8177916,123.358219 71.0899233,124.212812 70.5771594,125.195739 C70.1361283,126.089886 69.9335059,127.082795 69.9889241,128.078264 C70.0238131,129.593386 70.8288101,130.986137 72.1242182,131.772603 C72.7110246,132.089666 73.3690591,132.251653 74.0359829,132.24322 C75.1267794,132.196001 76.1944008,131.913025 77.1653947,131.413758 C77.5123337,132.019953 78.0355048,132.506224 78.6653947,132.807959 C79.0919064,133.002611 79.5553938,133.102939 80.0242182,133.102095 C81.2451268,133.024616 82.4103644,132.563434 83.35363,131.784369 C84.0418653,131.278456 84.7006888,130.737247 85.3359829,130.190156 C85.5628369,130.234122 85.7931629,130.257747 86.0242182,130.260748 C87.015332,130.263721 87.9584049,129.834049 88.6065712,129.084207 C89.2433272,128.414375 89.5991075,127.525923 89.6006888,126.601705 C89.7418653,126.495816 89.8771594,126.384045 90.0183359,126.284039 C90.5170253,126.470093 91.0448975,126.565714 91.5771594,126.566409 C92.1672897,126.568909 92.751063,126.444524 93.2889241,126.201681 C94.5423497,125.636448 95.3911205,124.43639 95.5065712,123.066199 C95.5892751,121.611158 94.7418614,120.263241 93.3948065,119.707174 C93.1590038,119.620106 92.9144269,119.558958 92.6653947,119.52481 C93.4497084,119.230675 94.1967672,118.916931 94.9065712,118.583578 C96.5350576,118.514742 98.129531,119.063072 99.371277,120.118964 C100.806571,121.489634 104.165395,122.172028 107.265395,122.172028 C109.488924,122.172028 111.577159,121.824948 112.712454,121.124906 C113.200689,120.824888 114.847748,120.724882 116.294806,120.630759 C120.183042,120.383685 125.506571,120.042489 128.477159,116.277557 L129.412454,115.101016 L128.030101,114.512745 C123.065395,112.271435 120.900689,108.794756 118.606571,105.118065 Z M27.3948065,115.118664 C26.3477476,114.630399 25.7653947,114.112721 25.6301006,113.506803 C25.5271745,112.812679 25.7737568,112.11252 26.2889241,111.636102 C26.6962557,111.209543 27.2068712,110.895455 27.771277,110.724283 C27.85363,110.724283 27.9477476,110.683104 28.0301006,110.665456 C28.4632505,112.170595 28.2320441,113.789137 27.3948065,115.112781 L27.3948065,115.118664 Z M71.0771594,25.4544667 C72.8065712,23.0249093 75.4771594,21.5836465 78.9477476,21.1718571 C82.1006888,20.9483143 84.3359829,21.5895292 85.55363,23.071971 C87.4830418,25.4250532 86.6830418,29.4605892 86.3418653,31.1901046 C86.1653947,32.0901585 85.9301006,33.9961551 85.9301006,33.9961551 C85.9301006,33.9961551 87.9065712,33.6373101 88.75363,32.7784351 C89.7889241,31.9783871 91.95363,30.3135815 94.4183359,30.3135815 C95.3560333,30.3083991 96.2794524,30.5433181 97.1006888,30.9959753 C102.330101,34.2196979 99.9183359,39.6376697 99.8124535,39.8612125 L99.071277,41.5377836 L100.924218,41.5377836 C103.082618,41.5397267 104.934815,43.0759077 105.335983,45.1968264 C105.977159,47.9440499 103.800689,49.679448 102.583042,50.4206689 C98.891181,45.8914005 94.1021155,42.3819087 88.671277,40.2259402 C87.6255692,39.7906706 86.5478672,39.4366596 85.4477476,39.1670533 C84.4287554,38.8959608 83.3786493,38.7594981 82.3242182,38.7611466 C78.9301006,38.7611466 75.85363,40.1200515 73.6183359,41.1142288 C72.5065712,41.608376 71.35363,42.1142887 70.8006888,42.1142887 L70.8006888,42.1142887 C69.7124535,41.9907519 69.1595123,40.2494711 69.0359829,39.6082562 C69.0418653,39.5141329 67.2183359,30.8783212 71.0771594,25.4544667 Z M67.2301006,41.6260242 C67.8183359,42.9261021 68.8418653,44.2555935 70.55363,44.4497228 L70.8595123,44.4497228 C71.871277,44.4497228 73.071277,43.9202793 74.5889241,43.2731817 C76.75363,42.3201834 79.4477476,41.1259942 82.3418653,41.1259942 C83.1937884,41.1255785 84.0421248,41.2363237 84.8653947,41.4554257 C85.8625128,41.7282029 86.8443104,42.0541792 87.8065712,42.4319548 C94.9359829,45.3733076 100.865395,52.0678264 101.335983,52.6443316 C103.958234,55.959288 106.097175,59.6293758 107.688924,63.5449849 C110.840407,71.3812147 112.201013,79.8227052 111.671277,88.252348 C107.694806,87.7287872 98.5124535,90.3171776 92.7359829,93.2114687 C88.3830418,95.3939525 85.8595123,97.6764422 85.2418653,99.9883455 C85.2006888,100.135413 85.1653947,100.282481 85.1359829,100.429548 C84.4595123,100.488375 83.6830418,100.529554 82.8183359,100.529554 C79.226567,100.54764 75.6618632,99.9076299 72.3006888,98.6412059 C70.8595123,97.9117504 69.571277,95.6998532 68.3242182,93.5761965 C66.471277,90.4054182 64.55363,87.1052204 61.2653947,86.3228206 C59.5006888,85.8933831 57.6301006,86.2639935 55.55363,87.4464173 C54.9837663,87.2337431 54.391821,87.0857479 53.7889241,87.0052144 C47.7016754,79.853749 41.9881689,72.3923655 36.671277,64.6509335 C43.4771594,53.573799 55.071277,44.7556235 67.2301006,41.6260242 L67.2301006,41.6260242 Z M66.5595123,95.2410021 C65.5948065,94.4997812 64.6242182,93.705616 63.671277,92.9232162 C61.9525926,91.4394828 60.1432107,90.0641915 58.25363,88.8053223 C59.0454122,88.5035794 59.9077567,88.4381844 60.7359829,88.6170757 C63.0301006,89.2053463 64.6889241,92.0231622 66.2948065,94.7703857 L66.5595123,95.2410021 Z M32.4418653,56.9622374 C33.0101401,56.8139386 33.6148872,56.9237036 34.0948065,57.2622554 C35.271277,58.1270131 35.6183359,60.4506818 35.6889241,61.9213581 L35.271277,62.5684558 C34.2791202,61.086014 33.298728,59.5780805 32.3301006,58.0446552 C32.4007964,57.6876808 32.44406,57.3258174 32.4595123,56.9622374 L32.4418653,56.9622374 Z M31.2183359,60.6683419 C37.1976303,69.8577159 43.7333625,78.6727409 50.7889241,87.0640415 C47.8477476,87.3817076 45.3595123,88.4935389 43.7301006,90.17011 C38.6301006,84.7227247 33.65363,78.9929695 28.7653947,72.8631904 C30.8242182,71.4160448 32.6418653,69.1629686 32.4477476,65.9921904 C32.6030639,64.2652187 31.5769515,62.6499003 29.9477476,62.0566604 C30.4240396,61.6451 30.8504759,61.179151 31.2183359,60.6683419 L31.2183359,60.6683419 Z M9.11245352,40.3200635 C5.15951234,37.9375678 2.54186529,32.9431508 2.3653947,27.2251611 C2.18892411,21.5071713 4.13010058,15.859774 6.01833587,10.4359196 L7.90657117,4.99441697 C10.2595123,8.32402829 12.5183359,11.7830591 14.5889241,15.2950343 C15.857755,17.3270841 16.919917,19.4810965 17.7595123,21.7248314 C19.6477476,27.2545746 19.2359829,32.0548623 18.5242182,37.3492973 C18.4065712,37.3022356 18.2948065,37.2434086 18.171277,37.1963469 C17.8145147,37.0697961 17.4380057,37.0080369 17.0595123,37.013983 C14.6477476,37.013983 11.0301006,39.0670473 10.0006888,39.6964967 C9.68688889,39.8778864 9.38966344,40.0865472 9.11245352,40.3200635 L9.11245352,40.3200635 Z M10.1359829,46.1733555 L10.0418653,45.7792142 C9.65362999,44.2967725 9.45362999,42.767269 11.2183359,41.7024993 C13.571277,40.2965327 15.9242182,39.3494171 17.1006888,39.3494171 C17.1980614,39.3450729 17.2954765,39.357002 17.3889241,39.3847134 C18.7651181,39.8477492 19.8505128,40.9201834 20.3301006,42.2907699 L20.3889241,42.4260721 C21.1948065,43.9085139 22.0065712,45.3674249 22.8183359,46.7910396 C19.8010291,46.7211323 16.8236354,47.4909834 14.2183359,49.0147023 C13.5926424,49.3691861 12.9895249,49.7621201 12.4124535,50.1912434 C12.0595123,49.6559172 11.7124535,49.1264737 11.3595123,48.5852648 L11.2889241,48.5264377 C10.7577276,47.8229977 10.3663463,47.0242126 10.1359829,46.1733555 L10.1359829,46.1733555 Z M27.8595123,88.652372 C23.2418653,86.4993017 16.8124535,80.5577692 12.2477476,71.133675 C7.68304176,61.7095807 8.68892411,54.8621115 15.3359829,51.0618838 C18.7595123,49.1147083 22.6124535,48.5911475 25.4183359,49.7029788 C27.5006888,50.5147922 28.9477476,52.1678324 29.75363,54.6268033 C30.3124535,56.350436 30.2242182,57.7858162 29.4889241,59.0211843 C28.4477476,60.785996 26.3418653,61.7154635 24.9653947,62.1743145 C24.671277,62.2566724 24.4595123,62.3272648 24.3477476,62.3625611 C23.9301006,62.4802152 22.9065712,63.1508436 23.2359829,64.0979592 C23.5653947,65.0450748 24.4124535,64.780353 24.8653947,64.6862297 C25.0889241,64.6274027 25.3477476,64.5509275 25.6301006,64.4568042 C26.7006888,64.1685516 28.571277,63.8685337 29.5065712,64.5038659 C29.65363,64.6097546 30.0948065,64.9333034 30.0948065,66.0745482 L30.0948065,66.1510234 C30.2183359,68.0276065 29.3359829,69.6335851 27.4830418,70.933663 C26.7603702,71.429728 25.9826297,71.8403364 25.1653947,72.1572657 C24.553989,72.4002017 24.1873504,73.0291096 24.2771594,73.6808865 C24.3889241,74.4515209 25.3889241,74.5868231 25.6183359,74.5044652 C25.9359829,74.3926938 26.2771594,74.2573916 26.6301006,74.1044412 C27.4418653,75.1241102 28.2693163,76.147701 29.1124535,77.1752135 C28.2198925,80.9280767 27.798995,84.7776421 27.8595123,88.6347238 L27.8595123,88.652372 Z M32.9065712,111.65375 C33.8497237,112.164532 34.7268306,112.788817 35.5183359,113.512685 C35.5122887,113.952379 35.4490115,114.389413 35.3301006,114.812763 C34.5237749,114.435104 33.6650938,114.181253 32.7830418,114.059777 C32.8850829,113.25614 32.9263764,112.445951 32.9065712,111.636102 L32.9065712,111.65375 Z M30.4065712,119.707174 C29.9244321,119.584563 29.516439,119.26413 29.2830418,118.824768 C29.1922222,118.31329 29.3543997,117.789469 29.7183359,117.418802 C29.9274454,117.186267 30.1715585,116.987789 30.4418653,116.830531 C30.6644758,117.777984 30.6523601,118.765469 30.4065712,119.707174 L30.4065712,119.707174 Z M28.7183359,115.136312 C29.4450736,113.72697 29.621216,112.097556 29.2124535,110.56545 C29.4745088,110.575621 29.7357418,110.601156 29.9948065,110.641925 C30.5790976,110.735327 31.1525535,110.887075 31.7065712,111.094893 C31.7647869,112.076482 31.7293325,113.061385 31.6006888,114.036246 C31.4301006,114.036246 31.2595123,114.036246 31.0889241,114.089191 C30.2229712,114.238328 29.4069058,114.597903 28.7124535,115.136312 L28.7183359,115.136312 Z M33.571277,120.295445 C32.8889241,120.21897 32.2124535,120.124846 31.5477476,120.00131 C31.8566763,118.815142 31.8566763,117.569613 31.5477476,116.383446 C32.2414897,116.295233 32.9462779,116.378035 33.6006888,116.624637 C34.0100861,117.815737 33.9997075,119.111058 33.571277,120.295445 L33.571277,120.295445 Z M37.1595123,120.65429 L35.4301006,120.477809 L34.7771594,120.418982 C35.1046482,119.384684 35.1733232,118.285818 34.9771594,117.21879 C35.3359829,117.395271 35.6948065,117.595283 36.071277,117.80706 L37.1242182,118.395331 C37.3614165,119.130163 37.3716661,119.919428 37.15363,120.660173 L37.1595123,120.65429 Z M37.2124535,115.742231 L36.4242182,115.318676 C36.5002653,115.067642 36.5611594,114.812264 36.6065712,114.553924 C37.071277,115.048072 37.5301006,115.583398 37.9830418,116.165786 L37.2124535,115.742231 Z M38.3477476,120.801358 C38.4846608,120.257734 38.5303803,119.695151 38.4830418,119.136552 L38.7418653,119.277737 C39.1622656,119.495863 39.6798534,119.345754 39.9183359,118.93654 L40.0242182,118.748293 C40.4595123,117.971776 38.7948065,116.630519 38.7948065,116.630519 C38.7948065,116.630519 39.4653947,116.907007 39.7242182,116.630519 C39.9830418,116.354032 39.7653947,115.912829 39.7653947,115.912829 L40.4948065,116.706995 C40.8069351,116.306637 41.140769,115.923687 41.4948065,115.559867 C41.9305054,115.931923 42.3924901,116.272043 42.8771594,116.577575 C42.7124535,116.759939 41.3948065,118.43651 41.3948065,118.43651 L42.8830418,119.813063 C42.5811961,119.916339 42.3017276,120.076044 42.0595123,120.283679 C41.6653947,120.613111 40.8477476,121.266091 40.8477476,121.266091 C40.0216269,121.066699 39.1850353,120.913511 38.3418653,120.80724 L38.3477476,120.801358 Z M42.3359829,114.730405 L42.6242182,114.483332 C43.1065712,114.785311 43.6006888,115.079446 44.1065712,115.365738 L43.7242182,115.724583 C43.2360048,115.432479 42.7717961,115.102006 42.3359829,114.736288 L42.3359829,114.730405 Z M44.5183359,122.260269 C44.6466341,122.671707 44.5142697,123.119915 44.1830418,123.395631 C43.7723129,123.695968 43.2340372,123.75851 42.7653947,123.560346 C42.33816,123.361588 41.9974939,123.014631 41.8065712,122.583817 C42.0438205,122.056236 42.3954498,121.588038 42.8359829,121.213147 C42.9625182,121.100444 43.1078634,121.010842 43.2653947,120.948425 C43.4512595,121.083838 43.6281047,121.231218 43.7948065,121.389628 C44.0900798,121.630251 44.3358066,121.92594 44.5183359,122.260269 L44.5183359,122.260269 Z M56.971277,117.971776 C46.1418653,115.095133 38.4595123,110.00071 34.1595123,102.841458 C30.3006888,96.4410741 29.2653947,88.5758968 31.0595123,79.4282897 C34.5359829,83.5932452 38.2771594,87.8287932 42.3948065,92.1643471 C41.7124535,93.7232641 41.4242182,96.0116365 42.7889241,99.0765261 C41.1139824,101.502864 40.9390622,104.662975 42.3359829,107.259369 C42.8504747,108.246852 43.4976534,109.15929 44.2595123,109.971297 L44.2595123,109.971297 C44.893534,110.783843 45.6542512,111.488988 46.5124535,112.059657 C50.3183359,115.148078 56.0065712,117.877653 62.3065712,119.160083 C60.5124535,118.830651 58.7242182,118.442393 56.971277,117.971776 L56.971277,117.971776 Z M65.871277,119.736588 C67.1819436,119.882541 68.4995721,119.957165 69.8183359,119.960131 C70.5006888,119.960131 71.1771594,119.960131 71.8477476,119.918952 L72.2477476,120.260149 C70.1477476,120.166025 68.0124535,119.995427 65.8771594,119.707174 L65.871277,119.736588 Z M69.8183359,117.607048 C65.4882978,117.545016 61.2001025,116.749385 57.1359829,115.253966 C57.7242182,115.295145 58.2359829,115.312793 58.7124535,115.312793 C58.8242182,115.312793 60.3006888,115.277497 60.3006888,114.448036 C60.3006888,113.618574 59.1242182,113.342087 58.5359829,113.336204 C55.9006888,113.306791 50.7183359,112.34791 47.5889241,109.988945 C46.3060524,108.952749 45.2405498,107.673269 44.45363,106.224013 C43.6210416,104.728257 43.5425597,102.927425 44.2418653,101.364899 C46.5948065,103.935641 51.7595123,107.059357 58.571277,108.571213 C58.9830418,108.665336 60.4477476,108.771225 60.6301006,107.924115 C60.8124535,107.077006 59.45363,106.541679 59.0301006,106.447556 C51.5006888,104.747454 46.1948065,100.735449 45.2889241,98.8353352 L45.2124535,98.6823848 C43.9830418,96.2469448 43.8595123,94.1938805 44.8418653,92.5937847 C46.0595123,90.6171956 49.0771594,89.3406485 52.5418653,89.3406485 L53.2242182,89.3406485 C55.7595123,89.4641853 59.0301006,92.146699 62.1889241,94.7468549 C64.6124535,96.7352093 67.1183359,98.7941563 69.6242182,100.04129 C70.2124535,100.32366 70.7595123,100.576616 71.3301006,100.806042 C71.5466692,100.912618 71.7708073,101.003065 72.0006888,101.076646 L72.0006888,101.076646 C75.4796929,102.309652 79.1449834,102.9345 82.8359829,102.923816 C85.8418653,102.923816 88.4124535,102.506143 89.5477476,101.835515 C89.9358131,101.632808 90.368867,101.531621 90.8065712,101.54138 C91.615557,101.528083 92.3919905,101.859638 92.9418653,102.453199 C93.6183359,103.235599 93.85363,104.506263 93.6242182,106.141655 C92.7653947,112.765582 82.75363,117.583518 69.8242182,117.583518 L69.8183359,117.607048 Z M73.2418653,129.707774 C72.6623722,129.307992 72.3186684,128.646984 72.3242182,127.942962 C72.291254,127.353913 72.4107916,126.766321 72.671277,126.236977 C72.671277,126.195798 72.7242182,126.15462 72.7418653,126.113441 C73.9289286,127.013867 74.8580939,128.210898 75.4359829,129.584237 C74.4653947,129.954847 73.75363,129.990144 73.2418653,129.707774 Z M76.4418653,129.184213 L76.5242182,129.148917 L76.5242182,129.378342 L76.4418653,129.184213 Z M77.3948065,126.107558 C76.8073808,127.001289 76.5001426,128.050058 76.5124535,129.119503 C75.8532177,127.550435 74.7920855,126.182852 73.4359829,125.15456 C73.6502765,124.930602 73.8802719,124.722218 74.1242182,124.530993 C74.6795886,124.103911 75.283844,123.744495 75.9242182,123.46034 C76.6758517,124.007127 77.3470944,124.656628 77.9183359,125.389868 C77.7253098,125.615024 77.550262,125.854992 77.3948065,126.107558 L77.3948065,126.107558 Z M79.6242182,130.666655 C79.1891541,130.38396 78.9174652,129.908476 78.8948065,129.390108 C78.8172776,128.690997 78.9835069,127.986558 79.3653947,127.39587 C79.4183359,127.319395 79.4771594,127.248803 79.5301006,127.17821 C80.5125066,127.888637 81.2667492,128.869824 81.7006888,130.001909 L81.8948065,129.925434 C81.3065712,130.354871 80.2830418,130.966673 79.6301006,130.666655 L79.6242182,130.666655 Z M82.6889241,129.319515 C82.5867262,129.090292 82.4728515,128.866455 82.3477476,128.648887 L82.3948065,128.684183 C82.5242182,128.795954 82.7124535,128.948905 82.9418653,129.11362 L82.6889241,129.319515 Z M86.8477476,127.501759 C86.6473224,127.755339 86.3415452,127.902815 86.0183359,127.901783 C85.2262596,127.790371 84.4894172,127.432219 83.9124535,126.878192 C80.9477476,124.470205 78.0399045,122.064178 75.1889241,119.660113 C76.905683,119.484042 78.6105917,119.207076 80.2948065,118.830651 L85.4242182,124.013315 L86.2889241,124.883955 C87.8124535,126.431107 87.1006888,127.213507 86.85363,127.507642 L86.8477476,127.501759 Z M93.15363,122.907366 C93.1022313,123.42291 92.7791641,123.871641 92.3065712,124.083907 C91.7668281,124.306502 91.1568925,124.282877 90.6359829,124.019197 L89.3359829,123.919191 C89.15363,124.036846 88.971277,124.160382 88.7948065,124.283919 C88.5458166,123.914615 88.2621799,123.569897 87.9477476,123.254446 L87.1006888,122.360275 L86.171277,121.424924 C87.1301006,121.21903 88.071277,120.977839 88.9889241,120.719 C88.8114544,120.860128 88.7617358,121.108736 88.871277,121.30727 C89.1301006,122.072022 90.3653947,122.048491 90.3653947,122.048491 C90.6996946,121.912195 91.0573225,121.842264 91.4183359,121.842596 C91.7989157,121.787408 92.1866238,121.807394 92.5595123,121.901423 C92.9413399,122.087257 93.175214,122.483246 93.15363,122.907366 L93.15363,122.907366 Z M84.2242182,119.465983 L82.9242182,118.148257 C90.3418653,115.901064 95.2771594,111.677281 95.95363,106.441673 C96.371277,103.500321 95.5124535,101.806101 94.7183359,100.894282 C94.4882476,100.629572 94.2298421,100.390878 93.9477476,100.182475 C98.3065712,98.1352932 103.994806,98.2764782 107.565395,100.223654 C108.098173,100.54297 108.560477,100.967274 108.924218,101.470787 C106.265395,107.788813 99.7771594,116.765822 84.2242182,119.465983 L84.2242182,119.465983 Z M116.147748,118.289442 C114.094806,118.418862 112.471277,118.518868 111.483042,119.124786 C109.718336,120.213087 102.606571,119.960131 101.000689,118.424745 C100.224971,117.715713 99.31484,117.169602 98.3242182,116.818766 C103.548339,113.824638 107.754909,109.33299 110.400689,103.923875 C110.694806,104.512146 110.988924,105.141595 111.265395,105.75928 C112.441865,108.365318 113.618336,110.830172 115.618336,111.641985 C115.618336,111.641985 116.794806,112.094953 117.241865,111.583158 C117.688924,111.071363 117.024218,110.84782 115.883042,109.671279 C114.741865,108.494738 114.359512,106.841697 113.406571,104.765102 C112.188924,102.117885 110.930101,99.3824268 108.700689,98.1647068 C103.994806,95.5998472 96.2418653,95.623378 90.9653947,99.1824148 L90.8065712,99.1824148 C89.9464078,99.1705499 89.0983125,99.3856301 88.3477476,99.8059816 C88.1608576,99.902736 87.9634901,99.9777401 87.7595123,100.029524 C88.5183359,98.5823789 90.6242182,96.9469867 93.7948065,95.3586562 C100.788924,91.8290329 109.971277,89.9877461 111.812454,90.7230843 L111.906571,90.7583805 C113.212454,91.1525218 113.55363,94.3291828 113.85363,97.1293506 C114.165395,100.035407 114.488924,103.012056 115.806571,105.112182 C116.077159,105.535737 116.341865,105.959292 116.600689,106.376964 C118.759512,109.835994 120.977159,113.400914 125.55363,115.889298 C123.05363,117.836474 119.124218,118.083548 116.147748,118.271794 L116.147748,118.289442 Z" id="Shape" fill="#000000"></path>
                <path d="M61.1764706,59.8977075 C58.1823529,59.8977075 52.4411765,61.7919386 50.9470588,62.8390602 C52.2529412,64.3744463 58.6411765,68.357038 61.4058824,68.357038 C61.4919478,68.3655324 61.5786404,68.3655324 61.6647059,68.357038 C62.5235294,65.7215859 62.4647059,61.4742725 61.8058824,59.9682999 C61.5989667,59.92378 61.3881071,59.9001308 61.1764706,59.8977075 L61.1764706,59.8977075 Z" id="Shape" fill="#FFF125"></path>
                <path d="M52.7941176,72.3925739 C54.7433549,73.3232056 56.5594401,74.5102605 58.1941176,75.9221972 C59.4702793,74.3861836 60.4298872,72.612802 61.0176471,70.7042375 C59.3941176,70.5807007 57.0352941,69.6512332 54.8,68.4511613 C54.4033897,69.8865659 53.7211381,71.2271405 52.7941176,72.3925739 L52.7941176,72.3925739 Z" id="Shape" fill="#B01948"></path>
                <path d="M49.6941176,75.7574815 C50.0547449,77.2901272 51.1355952,78.5530219 52.5941176,79.1459199 C52.9989939,79.3300097 53.4376355,79.4281591 53.8823529,79.4341724 C55.2235294,79.4341724 56.2823529,78.4517606 56.8235294,77.8164284 C55.6470588,76.5575294 51.2058824,73.9750217 49.6823529,73.6985346 C49.5118717,74.3747736 49.5159198,75.083235 49.6941176,75.7574815 L49.6941176,75.7574815 Z" id="Shape" fill="#FFF125"></path>
                <path d="M61.1764706,57.5446253 C58.2352941,57.5446253 49.5352941,59.7506398 48.5352941,62.0801912 C48.3003608,62.6980196 48.4100192,63.3940567 48.8235294,63.9097126 C49.4117647,64.8332974 50.8705882,66.0157212 52.6058824,67.1393179 C52.7117647,68.4335131 51.4823529,70.333627 50.5352941,71.4866373 C50.1859957,71.3790048 49.8240805,71.3176931 49.4588235,71.3042734 C49.062325,71.2904531 48.6727368,71.4106524 48.3529412,71.6454703 C47.3058824,72.4455183 47.1176471,74.169151 47.2823529,75.5104079 C47.6018845,78.0920301 49.2814644,80.3039088 51.6823529,81.3048728 C52.3821318,81.6179125 53.1393012,81.782176 53.9058824,81.7872546 C56.7882353,81.7872546 58.6411765,79.4341724 59.1411765,78.6870688 C59.2516485,78.5215571 59.3276687,78.3354964 59.3647059,78.1399772 C60.4,77.1222692 62.8588235,74.2397435 63.8764706,69.1276724 C64.9764706,65.8274746 64.9235294,60.6448111 63.7647059,58.6035122 C63.1411765,57.5446253 61.6470588,57.5446253 61.1764706,57.5446253 Z M53.8823529,79.4165243 C53.4376355,79.410511 52.9989939,79.3123616 52.5941176,79.1282717 C51.1355952,78.5353738 50.0547449,77.2724791 49.6941176,75.7398334 C49.5177498,75.0608636 49.5177498,74.3480909 49.6941176,73.669121 C51.2176471,73.9632563 55.6411765,76.5398813 56.8352941,77.7870149 C56.2823529,78.4458779 55.2235294,79.4165243 53.8823529,79.4165243 Z M58.2,75.886901 C56.5653224,74.4749643 54.7492372,73.2879094 52.8,72.3572777 C53.7305189,71.1888509 54.4148543,69.8441113 54.8117647,68.4040996 C57.0470588,69.5806407 59.4058824,70.533639 61.0294118,70.6571758 C60.4413078,72.5703564 59.4796172,74.3478912 58.2,75.886901 Z M61.6470588,68.3099763 C61.5609934,68.3184708 61.4743007,68.3184708 61.3882353,68.3099763 C58.6235294,68.3099763 52.2352941,64.3273847 50.9294118,62.7919986 C52.4235294,61.744877 58.1647059,59.8506458 61.1588235,59.8506458 C61.3696714,59.8453187 61.5805237,59.8610843 61.7882353,59.8977075 C62.4411765,61.4507417 62.5,65.6980551 61.6411765,68.3335071 L61.6470588,68.3099763 Z" id="Shape" fill="#000000"></path>
                <path d="M81.7176471,63.4685097 C82.4764706,61.1154275 81.8058824,58.7270491 80.0058824,58.1740747 C78.2058824,57.6211004 75.9588235,59.0388324 75.2,61.4154455 C74.4411765,63.7920585 75.4705882,65.6215799 77.2647059,66.198085 C79.0588235,66.7745902 80.9647059,65.8510054 81.7176471,63.4685097 Z" id="Shape" fill="#231815"></path>
                <path d="M55.5764706,55.8504061 C57.4470588,54.1973658 58.5882353,52.4854985 57.3411765,51.0677665 C56.5235294,49.9559351 54.2,50.0147622 51.5470588,51.8678144 C49.6764706,53.5208547 49.1,54.4797357 50.3705882,55.8974677 C51.6411765,57.3151997 53.7058824,57.5034463 55.5764706,55.8504061 Z" id="Shape" fill="#231815"></path>
                <ellipse id="Oval" fill="#FFFFFF" transform="translate(80.044984, 60.644317) rotate(-78.250000) translate(-80.044984, -60.644317) " cx="80.0449845" cy="60.6443168" rx="0.805882353" ry="0.688276544"></ellipse>
                <ellipse id="Oval" fill="#FFFFFF" transform="translate(56.027609, 52.515590) rotate(-29.440000) translate(-56.027609, -52.515590) " cx="56.0276094" cy="52.5155897" rx="0.911764706" ry="0.564739728"></ellipse>
                <polygon id="Shape" fill="#231815" points="83.3823529 59.0153016 84.0470588 56.3857323 76.9529412 57.0151818 79.0705882 54.4620876 87.1352941 53.7502802 86.4764706 56.3563187 91.7294118 55.8504061 93.8235294 55.6386287 91.9470588 58.1917229"></polygon>
                <polygon id="Shape" fill="#231815" points="59.2294118 50.9206989 58.1176471 46.0204052 55.5352941 48.6323264 53.8882353 43.9379274 55.4882353 41.3142408 55.9352941 42.6613803 56.5058824 44.3026552 59.4588235 41.3142408 61.0529412 48.3440738"></polygon>
                <path d="M92.0117647,103.394432 C91.9512639,103.386128 91.8899125,103.386128 91.8294118,103.394432 C91.7077508,103.395317 91.5875873,103.421354 91.4764706,103.470907 L92.2117647,105.600447 C92.3870836,105.434965 92.4958705,105.211102 92.5176471,104.970997 C92.6278552,104.39365 92.4373173,103.799845 92.0117647,103.394432 Z" id="Shape" fill="#9E9E9F"></path>
                <path d="M90.9882353,103.835635 C90.8685514,103.982199 90.7732165,104.147059 90.7058824,104.323899 C90.4529412,105.000411 90.6470588,105.723983 91.1352941,105.906347 C91.3260603,105.970899 91.5327632,105.970899 91.7235294,105.906347 L90.9882353,103.835635 Z" id="Shape" fill="#9E9E9F"></path>
                <path d="M92.5882353,102.359076 L92.4823529,102.306131 C92.2735562,102.227948 92.0523642,102.188091 91.8294118,102.188477 C90.8055653,102.249376 89.923381,102.930892 89.6058824,103.906227 C89.1176471,105.200423 89.6058824,106.594624 90.7235294,107.006413 C90.9326628,107.082716 91.1538667,107.120582 91.3764706,107.118185 C92.5620245,107.11193 93.557748,106.224548 93.7,105.047472 C93.8564086,104.014521 93.4285111,102.979807 92.5882353,102.359076 L92.5882353,102.359076 Z M91.1352941,105.888699 C90.6529412,105.706335 90.4529412,104.982762 90.7058824,104.306251 C90.7732165,104.129411 90.8685514,103.964551 90.9882353,103.817987 L91.7,105.871051 C91.5165175,105.937452 91.3166467,105.943634 91.1294118,105.888699 L91.1352941,105.888699 Z M92.5235294,104.929818 C92.5017528,105.169923 92.392966,105.393786 92.2176471,105.559268 L91.4823529,103.429728 C91.5934697,103.380175 91.7136331,103.354138 91.8352941,103.353253 C91.8957949,103.344949 91.9571463,103.344949 92.0176471,103.353253 C92.451062,103.76359 92.6422829,104.368418 92.5235294,104.953349 L92.5235294,104.929818 Z" id="Shape" fill="#000000"></path>
            </g>
        </g>
    </g>
</svg>