<?xml version="1.0" encoding="UTF-8"?>
<svg width="309px" height="70px" viewBox="0 0 309 70" version="1.1" xmlns="http://www.w3.org/2000/svg" xmlns:xlink="http://www.w3.org/1999/xlink">
    <!-- Generator: Sketch 41.2 (35397) - http://www.bohemiancoding.com/sketch -->
    <title>nav_character_act</title>
    <desc>Created with Sketch.</desc>
    <defs>
        <polygon id="path-1" points="0.323281061 33.1442611 21.8039343 33.1442611 21.8039343 0.284486557 0.323281061 0.284486557"></polygon>
        <polygon id="path-3" points="29.7599826 21.1406611 29.7599826 0.19467767 0.354822305 0.19467767 0.354822305 21.1406611 29.7599826 21.1406611"></polygon>
        <polygon id="path-5" points="0.623308163 1 1.62330816 1 1.62330816 0.528 0.623308163 0.528 0.623308163 1"></polygon>
        <polygon id="path-7" points="0.845691237 1 1.84569124 1 1.84569124 0.0714 0.845691237 0.0714 0.845691237 1"></polygon>
        <polygon id="path-9" points="0.8962 1 2.1442 1 2.1442 0.6655 0.8962 0.6655"></polygon>
        <polygon id="path-11" points="0.6077 1 1.6077 1 1.6077 0.3582 0.6077 0.3582"></polygon>
        <polygon id="path-13" points="0.345 1 1.345 1 1.345 0.4585 0.345 0.4585 0.345 1"></polygon>
        <polygon id="path-15" points="0.1769 1 1.1769 1 1.1769 0.0672 0.1769 0.0672"></polygon>
        <polygon id="path-17" points="303.9901 5 0 5 0 0.63 303.9901 0.63"></polygon>
        <polygon id="path-19" points="0.0871 1 1.0871 1 1.0871 0.4492 0.0871 0.4492 0.0871 1"></polygon>
        <polygon id="path-21" points="0.480589013 1 1.48058901 1 1.48058901 0.2708 0.480589013 0.2708 0.480589013 1"></polygon>
        <polygon id="path-23" points="0.1444 1 1.1444 1 1.1444 0.7218 0.1444 0.7218"></polygon>
    </defs>
    <g id="Page-1" stroke="none" stroke-width="1" fill="none" fill-rule="evenodd">
        <g id="Artboard-2" transform="translate(-129.000000, -428.000000)">
            <g id="nav_character_act" transform="translate(131.000000, 428.000000)">
                <g id="Page-1" transform="translate(82.000000, 16.000000)">
                    <path d="M8.29144677,13.3388901 C7.20267561,8.8512284 7.76791,8.0849901 13.2837566,7.03435266 C11.1885403,9.13455837 11.3923953,12.4372236 8.29144677,13.3388901 M14.3557774,19.7008063 C15.7068515,19.463807 15.8636631,18.2474482 14.6669058,17.5770788 C13.7524093,17.0645901 12.5403272,17.0838352 11.2633822,16.8268781 C11.0192551,15.5338955 12.5089649,15.394547 13.2552454,14.760173 C14.596697,13.6190125 14.7282048,12.6870529 13.4940266,11.532706 C15.8543969,8.22113104 15.8543969,8.22113104 14.5321904,6.97198443 C14.8946389,5.98692273 15.6451961,4.87462984 15.3725578,4.49222347 C14.8165895,3.71244236 13.7092861,3.32575931 12.4141652,2.51924896 C12.1561389,1.10794494 10.0277784,-0.486543498 8.28396258,0.140346344 C7.76470249,0.327094655 7.20873424,0.907297419 7.05655575,1.42192444 C6.97280412,1.70418525 7.64709382,2.28510079 8.06727752,2.62295842 C8.53593025,2.99966255 9.10365936,3.25376855 9.6282653,3.56133304 C9.57231209,3.71564987 9.51635887,3.86961031 9.46004927,4.02357075 C7.86377889,4.44268527 6.25254013,4.81404355 4.67836592,5.30443606 C4.06965196,5.49403549 3.0902925,5.93916648 3.07924442,6.29234888 C3.05893019,6.95309576 3.59707895,7.64520496 3.95097412,8.29846765 C4.26281529,8.87368096 4.85014585,9.37904184 4.9474403,9.97528215 C5.18158846,11.4111771 5.20012074,12.8819982 5.30561215,14.3389201 C4.77958065,14.8624569 4.29239565,15.5502894 4.40608403,16.1176622 C4.79490542,18.0574924 6.23436424,18.1191479 8.01132431,17.7787955 C7.78394755,18.3739666 7.49313339,18.869705 7.06653467,19.0578789 C5.27995208,19.8462133 3.42886291,20.4894971 1.6536848,21.3002842 C1.02608217,21.5868216 0.547094143,22.1980303 3.56389905e-05,22.6609808 C0.554934721,23.302839 1.081679,23.9728521 1.68005765,24.5708743 C1.900663,24.7914797 2.29126634,24.8417306 2.64979458,24.9885633 C2.48514244,26.5481255 1.60093909,28.2046258 3.90143593,29.6326801 C4.14983969,28.5125467 4.53901747,27.6229975 4.50622959,26.748773 C4.3861262,23.5708442 4.62633299,23.2076829 7.97390337,22.6050276 C7.97390337,23.7429806 7.8737578,24.8709546 7.99706871,25.973625 C8.18951926,27.6967702 7.81816098,28.8639471 5.80919109,28.8735696 C5.75323787,28.873926 5.69871022,29.052121 5.61495859,29.1971717 C6.18874633,30.2171596 6.76787993,31.2464136 7.41187649,32.3907816 C8.16849225,31.7749398 8.64462917,31.1594545 9.2647476,30.9245935 C11.2487702,30.1729672 11.637948,28.6240967 11.5976759,26.7836992 C11.5795,25.9533108 11.6561239,25.1118742 11.5474249,24.2943157 C11.2387913,21.9813453 11.4968176,20.2022469 14.3557774,19.7008063" id="Fill-1" fill="#000000"></path>
                    <g id="Group-5" transform="translate(12.117257, 1.688397)">
                        <mask id="mask-2" fill="white">
                            <use xlink:href="#path-1"></use>
                        </mask>
                        <g id="Clip-4"></g>
                        <path d="M20.791003,10.4212328 C20.127405,10.1083225 19.1890304,10.0705452 18.4634205,10.2654905 C17.3290314,10.5702038 16.3215172,11.1365074 15.0926848,10.4394087 C14.7288107,10.233059 13.6938544,10.4522388 13.5363301,10.7640799 C12.5708698,12.6729043 10.6969717,11.9772312 8.97382652,12.7898001 C9.3840313,10.613327 9.64775983,8.80749935 10.1018006,7.05085351 C10.2404362,6.51413032 10.8149368,5.88759686 11.3374044,5.68730574 C13.5466654,4.8412361 15.8093849,4.13451492 18.057136,3.38966002 C18.9915904,3.07960081 19.9998174,2.77381827 19.5978096,1.48475598 C19.2382122,0.33254742 17.7324648,0.0128656756 16.5039888,0.512880712 C14.3161112,1.4027863 12.1264516,2.47409436 9.83522092,2.86149018 C8.15270418,3.14553294 7.53116019,3.8989412 7.32766155,5.27389345 C6.77133691,9.03059943 6.27096549,12.7958588 5.80516388,16.5650384 C5.55569095,18.5818489 5.42275751,20.6132713 5.21533859,22.8820495 C3.87495616,21.0323859 2.67499135,20.3445533 1.18635071,20.6710065 C0.811072145,20.7533326 0.23265133,21.7277026 0.335291622,21.8699021 C0.911574098,22.6721358 1.55129398,23.5905526 2.39593805,23.9886401 C3.14150573,24.3400406 4.18358981,24.0620564 5.0913149,24.0620564 C5.21213108,25.1216036 5.36145845,26.4306238 5.51078582,27.7396439 C8.07608035,24.04887 7.68761536,19.6969929 8.67232066,16.0767842 C10.1884033,16.1669509 11.5430413,16.2478514 13.1560621,16.3437203 C13.1884935,21.7102395 12.6040141,27.1925854 13.5327662,33.1442968 C14.2109762,32.0651481 14.4650822,31.2650528 15.0121407,30.8651833 C16.6789763,29.6459735 16.8821185,27.9566853 16.8764163,26.1251976 C16.8639426,22.3884495 16.872496,18.6513449 16.872496,14.8532977 C18.1925642,14.4320448 19.4769934,14.1430126 20.6409628,13.5973797 C21.177686,13.345412 21.7792722,12.604121 21.8031503,12.0609828 C21.8270284,11.5075093 21.3013533,10.661796 20.791003,10.4212328" id="Fill-3" fill="#000000" mask="url(#mask-2)"></path>
                    </g>
                    <path d="M93.9339367,15.5276943 C94.2500545,18.0961964 93.0397544,20.086634 90.7752529,20.7224336 C90.3953413,17.0452025 91.0190236,16.019156 93.9339367,15.5276943 M100.527506,12.7874123 C100.665073,15.892994 98.8538993,18.2569282 96.1350007,18.4664855 C97.2554906,17.0815543 97.5202883,15.8060348 95.6011286,14.8227551 C97.3460136,14.1021347 98.9127036,13.4549306 100.527506,12.7874123 M114.994798,25.7899416 C114.732851,25.3565715 114.654446,24.7991777 114.554657,24.2852634 C114.452016,23.755668 114.423149,23.211817 114.36185,22.6743811 C113.827621,23.0689047 113.507583,23.4726945 113.49903,23.8832556 C113.450917,26.2072742 111.976176,27.2065915 110.011754,27.772895 C104.430689,29.3819955 98.7548229,29.3253295 93.0882234,28.4913771 C90.7342681,28.1449661 90.1569164,26.9863425 90.3721759,24.3925368 C93.6602292,23.1615661 96.9347397,21.9491276 100.195707,20.7003374 C100.731005,20.4954132 101.401374,20.25485 101.673656,19.8200543 C102.708612,18.1685435 103.736441,16.4881651 104.519786,14.7097795 C105.403989,12.7018788 103.935663,10.7638305 101.713215,10.7043133 C101.061022,10.6868502 100.412392,10.5211289 99.2648168,10.3482798 C100.962302,9.28160484 102.223209,8.52677103 103.442776,7.71028175 C104.510876,6.99536361 104.511589,6.05591982 103.756755,5.12146549 C103.067854,4.26826805 102.470188,3.18056607 101.012197,3.98600725 C99.9947034,4.54803413 98.8841924,4.94041941 97.8759654,5.3823429 C97.8759654,6.2540726 98.1628593,7.17854802 97.8264272,7.70457952 C96.3206798,10.0606732 94.6121466,12.264232 91.4987244,12.596031 C91.0336356,12.6455692 90.582446,12.8472858 90.1177136,12.8797173 C88.9205999,12.9627562 88.2420335,13.612455 88.1073181,14.7539718 C87.7263373,17.9924869 87.1917524,21.2306456 87.0894685,24.4809215 C86.9073533,30.2704755 89.8671715,33.3703549 95.6513796,33.5781302 C99.0859091,33.7014411 102.537545,33.6640202 105.968867,33.4701441 C108.740155,33.3133325 111.465112,32.8824571 113.999045,31.4465622 C115.66196,30.5035545 115.952418,28.9842643 116.284573,27.4902779 C116.382937,27.0472852 115.371146,26.4129112 114.994798,25.7899416" id="Fill-6" fill="#000000"></path>
                    <path d="M92.3060188,9.11634685 C93.8980126,7.44844209 95.5042619,5.78410124 96.9651041,4.00393366 C97.8389721,2.93868424 97.4309057,1.27149226 96.274064,0.398336996 C94.9311869,-0.615592282 94.3442127,0.633910723 93.7198176,1.38731898 C91.5661534,3.98611417 89.4349418,6.60664914 87.3817795,9.28527566 C85.9255704,11.1851902 84.6090661,13.1920218 83.2301935,15.1510971 C83.4308411,15.3574469 83.6314886,15.5637966 83.8321361,15.76979 C85.3528518,14.8449582 86.9765642,14.0509215 88.3661285,12.9585864 C89.8005978,11.8313251 91.0386963,10.4442556 92.3060188,9.11634685" id="Fill-8" fill="#000000"></path>
                    <path d="M159.493499,12.20361 C156.401817,9.91095378 153.238856,7.71487918 150.122939,5.45465441 C147.977116,3.89829969 145.91932,2.21507017 143.724671,0.732844561 C142.165465,-0.320287607 140.71781,-0.0665379952 139.290468,1.35474494 C134.35233,6.27114368 129.929531,11.5963216 126.090855,17.4076154 C125.690629,18.0131219 125.440087,18.7173483 125.120049,19.3759569 C125.256546,19.4725385 125.392687,19.5691202 125.528828,19.6657019 C126.140393,19.2294806 126.754097,18.7961105 127.363524,18.3563253 C129.258805,16.9885009 131.38966,15.8473404 132.99092,14.1936913 C135.291061,11.8179962 137.188124,9.05454884 139.28833,6.48177011 C142.014713,3.14239671 142.584224,4.28961581 145.0565,6.45005141 C147.943259,8.97222277 150.792239,11.5378737 153.715349,14.0162091 C154.769194,14.9096786 155.958824,15.6506132 157.371197,14.4545687 C157.619245,14.2450114 158.170936,14.4221372 158.572944,14.359769 C159.307463,14.2460806 160.034855,14.0871307 160.765098,13.9470694 C160.347409,13.3572442 160.045191,12.6123893 159.493499,12.20361" id="Fill-10" fill="#000000"></path>
                    <path d="M147.507465,10.9624822 C147.014578,10.5668894 146.110417,10.2019461 145.641764,10.4025937 C145.225857,10.5807886 144.971751,11.5572969 144.958921,12.1877507 C144.893345,15.4483619 144.928628,18.7111115 144.928628,21.9727919 C144.970325,21.9731483 145.012023,21.9735047 145.053721,21.9735047 C145.053721,25.5937133 145.014161,29.2149912 145.092567,32.8337743 C145.105753,33.4439138 145.628577,34.0430052 145.915471,34.6474425 C146.441503,34.2286843 146.984997,33.829884 147.483231,33.38012 C147.642537,33.2361385 147.652872,32.9396221 147.779034,32.7428948 C149.223839,30.4840956 148.84464,27.9384025 148.901306,25.4728972 C148.982206,21.9745739 148.792251,18.4562927 149.112645,14.9829167 C149.279792,13.1735252 148.758394,11.9667889 147.507465,10.9624822" id="Fill-12" fill="#000000"></path>
                    <path d="M137.138051,12.6473511 C136.440596,12.8437219 135.894607,13.780671 135.419896,14.4827591 C135.180402,14.8373671 135.214971,15.397612 135.18254,15.8691158 C134.909545,19.8278949 134.57739,23.784892 134.434477,27.7486605 C134.395631,28.8288783 134.9377,29.9301231 135.213546,31.021389 C135.50436,31.073422 135.795174,31.1250985 136.085988,31.176775 C136.727134,30.2743958 137.804144,29.4304645 137.933514,28.4600148 C138.518349,24.0821212 138.831972,19.6682322 139.248592,15.2678861 C139.342323,14.2792605 138.012632,12.4014421 137.138051,12.6473511" id="Fill-14" fill="#000000"></path>
                    <path d="M63.3063585,20.3459076 C62.1537935,20.5344379 60.6647965,20.7778522 58.9352363,21.0608258 C59.0692389,19.3319784 58.3614485,17.6120407 60.7243136,17.0332635 C61.168019,16.9245645 61.6723108,15.453387 61.4802166,14.8101032 C61.2891916,14.1689578 60.258512,13.7779981 59.3522125,13.0933731 C59.2160715,10.4981418 59.2456519,10.5726273 61.5539893,9.66169468 C62.8280832,9.15918491 63.2653736,9.7069562 63.2853315,10.7618703 C63.3437794,13.8877662 63.3063585,17.0158004 63.3063585,20.3459076 L63.3063585,20.3459076 Z M55.7583767,14.2894176 C54.9461641,15.5531762 52.1420883,13.970805 52.526633,16.633394 C52.740467,18.114194 53.6888205,18.9673915 55.4312107,18.4035826 L55.4312107,21.3954759 C53.8873297,21.6431669 52.352002,21.8890759 50.6901558,22.1556556 C50.8908034,19.1252722 51.0326465,16.2499185 51.3181149,13.3888203 C51.3651583,12.9176728 51.9613986,12.3018311 52.4435942,12.1154392 C53.4190333,11.738735 54.4903414,11.6107911 55.7583767,11.3271047 L55.7583767,14.2894176 Z M67.5085518,9.07864079 C67.4622211,7.76284927 66.0705186,6.83801746 65.0587276,7.04365444 C63.1652281,7.42891192 61.2588985,7.74930645 59.3579147,8.09678661 L59.1765123,7.52335525 C60.9320889,6.59282121 62.7368474,5.73998017 64.4150875,4.68542244 C64.93114,4.36110762 65.531657,3.25736809 65.3456215,2.90846237 C64.8587929,1.99396588 63.9817173,0.67674879 63.2197557,0.649663157 C61.7389557,0.596561061 60.2307136,1.31682506 58.5321593,1.7708658 C60.0350555,3.15437141 59.1244793,3.96587122 58.1030659,4.8386701 C56.9772302,5.80127923 56.0691487,7.09889487 54.8164382,7.8109619 C53.6713574,8.46208626 52.1474342,8.90971198 50.8719147,8.75931544 C48.9737821,8.53585897 48.2863059,8.81099197 48.2870187,10.8124777 C48.2877315,12.1172211 48.4955068,13.4376457 48.3554456,14.7235005 C47.7788067,20.0212364 47.0884795,25.3064987 46.484755,30.6017399 C46.4031417,31.3177272 46.575278,32.0625821 46.630162,32.7942506 C46.8846244,32.8184851 47.1394432,32.8423632 47.3946184,32.8665978 C48.0885095,30.8861391 48.7674323,28.9003345 49.4884091,26.9298547 C49.6569815,26.469399 49.8918425,25.7658853 50.226849,25.6789262 C51.9086529,25.2434177 53.6339365,24.9754125 55.3877312,24.640406 C55.5056962,27.3126175 55.6136824,29.7456914 55.7291527,32.3594549 C58.5460585,30.1266722 59.0015248,27.3532459 58.7181948,24.2059667 C60.4744843,24.0452348 62.0297698,23.9030353 63.5665231,23.7626176 C64.4407475,28.9790967 63.8594756,29.9352908 59.5200721,30.3258941 C59.7353316,30.8572715 59.8967763,31.2243531 60.0346991,31.599988 C61.127747,34.5765565 61.6081606,34.7608101 64.185216,33.1973276 C64.5893621,32.9517749 64.9824602,32.611779 65.4236709,32.5162665 C67.2679886,32.1185354 68.0210405,30.7906266 67.9993007,29.1462435 C67.9119852,22.4557359 67.7437692,15.7655846 67.5085518,9.07864079 L67.5085518,9.07864079 Z" id="Fill-16" fill="#000000"></path>
                    <path d="M57.5217939,0.635906507 C57.1832235,0.168322952 55.7876006,-0.0750913529 55.2430369,0.234967864 C51.3345088,2.46169199 47.5100887,4.83809987 43.6913709,7.21842805 C43.1407485,7.56163152 42.763688,8.18281913 42.3064397,8.67570637 C42.3901914,8.80828341 42.473943,8.94086046 42.558051,9.07308111 C43.4158815,8.79082031 44.3018668,8.57306607 45.1272658,8.215607 C48.9816226,6.54663308 52.8313464,4.86661107 56.6550537,3.12921028 C57.723867,2.64345084 58.1839664,1.54969022 57.5217939,0.635906507" id="Fill-18" fill="#000000"></path>
                    <g id="Group-22" transform="translate(171.067154, 1.688397)">
                        <mask id="mask-4" fill="white">
                            <use xlink:href="#path-3"></use>
                        </mask>
                        <g id="Clip-21"></g>
                        <path d="M4.9995445,13.9525935 C3.98525883,15.4487183 2.96776565,16.6975085 2.25890613,18.1016848 C1.90251623,18.8069804 1.75283247,20.0832126 2.15448389,20.577169 C2.57751871,21.0974983 3.80171803,21.2168889 4.61642535,21.0989239 C5.44823939,20.9784641 6.21340852,20.3683246 6.99675353,19.9524175 C8.08516829,19.3747095 9.16360415,18.7784692 9.82435103,18.4192282 C10.8967283,18.792012 11.554624,19.0208143 12.211807,19.2492603 C12.488722,18.3037578 12.7649241,17.3582554 13.095654,16.2277866 C17.9019282,14.1478952 19.5202948,9.18552213 22.387808,5.2253175 C22.2513106,5.09024573 22.1148133,4.95517396 21.9786723,4.82045857 C23.2463512,4.46977091 24.5143865,4.11908324 25.9638243,3.7181446 C26.2785165,6.36041935 25.7439317,8.5511481 24.7481783,10.6702425 C23.3083631,13.7351956 22.7958744,13.9893017 19.6289937,13.1781582 C20.1375621,13.8267879 20.924471,14.4148312 21.1147832,15.1557658 C21.5823668,16.9769182 21.8097435,17.1590335 23.6508538,16.6333584 C26.3569223,15.8610614 27.5853983,13.7359084 28.5743803,11.4019109 C29.586884,9.01302941 30.1022238,6.52257676 29.5088346,3.93589883 C29.240473,2.76551438 28.6734567,1.87026294 27.1709169,2.05665486 C26.0846404,2.19137025 24.9712784,2.09942165 23.8707463,2.12294338 C21.2131468,2.18032216 18.5498451,2.17034324 15.9029372,2.36920881 C15.340554,2.41161921 14.8359059,3.22632653 14.3045285,3.68500034 C14.7760324,4.22136714 15.1516673,5.01148356 15.741849,5.23494003 C16.6164298,5.56566986 17.6431891,5.49546105 18.7038055,5.60629831 C16.5868495,9.04225338 14.5322617,12.3773501 12.7132476,15.3300405 C11.575651,14.776567 10.4783265,14.2426949 9.38100199,13.7088228 C9.25911664,14.4144748 9.1368749,15.1204832 8.98897309,15.9772445 C8.21418144,16.244537 7.28970603,16.5635059 6.36523061,16.8824749 C6.59438932,15.9857979 7.00388132,15.3578389 7.48750242,14.7940301 C9.03352183,12.9917663 10.6294358,11.2322693 12.163338,9.42038307 C13.5136993,7.82518186 13.715416,6.26205574 12.58566,5.70002886 C11.0603112,4.94091836 10.3293555,6.2599174 9.60802236,7.2235957 C8.55845409,8.62563359 7.61829752,10.108572 6.60329907,11.5982818 C6.01668129,11.2151626 5.5786781,10.9293379 4.95998522,10.5255482 C5.53127824,9.64063203 6.02131436,8.77745568 6.61185243,7.98876483 C7.64253203,6.61345618 8.8086398,5.33472921 9.77802034,3.92021767 C10.5770465,2.7544663 10.8411314,1.28435794 9.49575954,0.441139424 C8.20063862,-0.370716779 7.40161246,1.01065049 6.87237345,1.87418323 C5.51381513,4.09021566 4.3922561,6.45022961 3.09998631,8.70902882 C2.79028348,9.25074148 2.17943118,9.61853586 1.71541153,10.0750713 C1.22359346,10.5586924 0.28771357,11.1349749 0.358635161,11.5234399 C0.47660022,12.1699312 1.1337832,12.9315364 1.75996027,13.2216378 C2.67588232,13.6460982 3.76572265,13.6970619 4.9995445,13.9525935" id="Fill-20" fill="#000000" mask="url(#mask-4)"></path>
                    </g>
                    <path d="M190.777512,28.4557025 C190.577933,27.5298015 190.279991,26.5800224 190.217267,25.6152749 C190.195171,25.2781301 190.686632,24.7132521 191.060842,24.5792495 C192.66424,24.0047489 194.311474,23.5521338 196.054221,23.0211128 C195.782652,26.9684874 194.553819,28.2425813 190.777512,28.4557025 M198.388931,20.0755502 C197.340432,19.7875872 196.163632,19.7091814 195.085197,19.849599 C193.568758,20.0466827 192.105421,20.6514763 190.588982,20.8506983 C189.762157,20.9593972 188.792776,20.7601753 188.029389,20.3995087 C186.725715,19.7836669 186.04109,19.9429732 185.612709,21.3418036 C185.459105,21.8432442 185.43986,22.386026 185.359316,22.9095628 L185.012549,23.0606721 C185.999749,25.7008085 186.901772,28.3769403 188.009075,30.9654002 C188.555421,32.2423452 189.413964,33.511806 190.983505,31.7815331 C191.216228,31.5245759 191.755802,31.4761069 192.159592,31.4565055 C193.975398,31.3688335 195.792987,31.2861511 197.610219,31.2822308 C198.767773,31.2797361 199.826608,30.2836263 199.247118,29.4136785 C198.365409,28.0907592 199.169068,27.2532429 199.57464,26.2036747 C199.933881,25.2724278 200.181216,24.2902173 200.392911,23.311927 C200.760706,21.6176494 199.937089,20.500367 198.388931,20.0755502" id="Fill-23" fill="#000000"></path>
                    <path d="M174.216536,26.2989377 C174.00983,26.0555234 173.604258,25.9803251 172.808083,25.5932857 C172.594249,26.3563165 172.068218,27.2112958 172.303435,27.5794466 C173.171601,28.9369358 174.237563,30.1853696 175.358766,31.3504082 C175.613228,31.6148495 176.619317,31.5863383 176.863088,31.3165511 C177.142497,31.0072047 177.180631,30.1322675 176.935078,29.75984 C176.128924,28.5392046 175.166672,27.418002 174.216536,26.2989377" id="Fill-25" fill="#000000"></path>
                    <path d="M181.435855,21.8687617 C181.101205,21.9015496 180.577312,22.4678531 180.556998,22.8135513 C180.475028,24.2319832 181.978281,25.9077285 183.219943,25.7940401 C183.641552,25.7551936 184.023246,25.276562 184.242069,25.1247399 C184.244564,23.3876955 182.715651,21.7425997 181.435855,21.8687617" id="Fill-27" fill="#000000"></path>
                    <path d="M177.496428,24.0110927 C177.158571,24.0367528 176.615789,24.5930774 176.590485,24.9373501 C176.492478,26.2677536 178.039566,28.0215483 179.144019,27.8526195 C179.562064,27.7888257 179.911326,27.2791881 180.099856,27.1280788 C180.052457,25.4202584 178.699957,23.9198569 177.496428,24.0110927" id="Fill-29" fill="#000000"></path>
                </g>
                <g id="icon_-tube">
                    <polygon id="Fill-1" fill="#E04444" points="27.895618 50.1841584 19.6309286 49.7461149 20.4807733 33.720587 28.745059 34.1586304"></polygon>
                    <g id="Group-41" transform="translate(0.000000, 0.144130)">
                        <path d="M34.1987205,57.6059472 L12.8500559,56.4738975 C11.5900248,56.4068789 10.6194658,55.3273137 10.6860807,54.0676863 C10.7413913,53.0188043 11.4999938,52.1725932 12.4794348,51.9561957 C12.6764534,51.9125932 12.8815466,51.8928106 13.0926957,51.9037112 L34.4413602,53.0357609 C34.6517019,53.0466615 34.8535652,53.0886491 35.0449317,53.1528416 C35.9957081,53.4709783 36.660646,54.3926863 36.6049317,55.441972 C36.5383168,56.7015994 35.4583478,57.6725621 34.1987205,57.6059472 L34.1987205,57.6059472 Z M12.0587516,28.1770963 C12.1253665,26.9170652 13.2049317,25.9465062 14.4649627,26.0131211 L35.8136273,27.1451708 C37.0732547,27.2117857 38.0442174,28.2917547 37.9776025,29.551382 C37.9218882,30.600264 37.1636894,31.4464752 36.1842484,31.6624689 C35.9872298,31.7060714 35.7821366,31.725854 35.5709876,31.7149534 L14.2227267,30.5829037 C14.0119814,30.5720031 13.810118,30.5304193 13.6187516,30.465823 C12.6679752,30.1476863 12.0030373,29.226382 12.0587516,28.1770963 L12.0587516,28.1770963 Z M30.6071677,51.2153571 L31.5664224,33.1199224 L34.4813292,33.274146 L33.5220745,51.3699845 L30.6071677,51.2153571 Z M16.8994348,50.4882453 L14.182354,50.3445186 L15.1416087,32.2486801 L17.8586894,32.3932143 L16.8994348,50.4882453 Z M28.9942795,51.1297671 L18.512323,50.5738354 L19.4715776,32.4788043 L29.9535342,33.0343323 L28.9942795,51.1297671 Z M35.1321366,51.5076553 L36.0966398,33.3072516 C37.9731615,33.1126553 39.4875404,31.5780901 39.590087,29.636972 C39.7043416,27.4875311 38.0482547,25.6465373 35.8992174,25.5326863 L14.5505528,24.4006366 C12.4011118,24.2867857 10.560118,25.9424689 10.4462671,28.0919099 C10.3433168,30.033028 11.6865155,31.7189907 13.5319503,32.111413 L12.5670435,50.311413 C10.6905217,50.5060093 9.17614286,52.0405745 9.07359627,53.9820963 C8.95934161,56.1315373 10.6154286,57.9725311 12.7644658,58.086382 L34.1131304,59.2184317 C36.2621677,59.3322826 38.1035652,57.6765994 38.2174161,55.5275621 C38.3203665,53.5856366 36.9771677,51.8996739 35.1321366,51.5076553 L35.1321366,51.5076553 Z" id="Fill-2" fill="#2D313A"></path>
                        <path d="M27.6957329,42.0652547 L24.045236,45.3483602 L20.7621304,41.6978634 L24.4126273,38.4147578 L27.6957329,42.0652547 Z M29.1665093,41.2856584 L25.3436211,37.0348199 C24.8966957,36.5386398 24.1300186,36.4974596 23.6330311,36.9439814 L19.3821925,40.7668696 C18.8860124,41.213795 18.8448323,41.980472 19.2917578,42.4774596 L23.1142422,46.7278944 C23.3306398,46.9685155 23.6281863,47.1106273 23.9511677,47.1275839 C24.2733416,47.1449441 24.5842112,47.0351304 24.8248323,46.8183292 L29.0756708,42.9962484 C29.5718509,42.549323 29.6126273,41.7822422 29.1665093,41.2856584 L29.1665093,41.2856584 Z" id="Fill-4" fill="#2D313A"></path>
                        <polygon id="Fill-6" fill="#FFFFFF" points="28.9719534 23.9462019 29.0114534 23.7067019 28.9844534 23.7057019"></polygon>
                        <path d="M31.4191429,9.17452795 L31.209205,10.4365776 L30.8438323,12.6368882 L30.5131801,14.6280683 C30.8406025,14.9231925 31.0420621,15.3535652 31.0170311,15.8283478 C30.9855404,16.4246522 30.6100745,16.916795 30.0961304,17.1364224 L29.7033043,19.4986273 L35.4556025,19.803441 L35.5734907,17.5760807 C35.5395776,17.5768882 35.5068758,17.5825404 35.4721553,17.5809255 C34.6376522,17.5365155 33.9965342,16.8235342 34.0405404,15.9890311 C34.0849503,15.1541242 34.797528,14.5130062 35.6328385,14.5570124 C35.6671553,14.5590311 35.6990497,14.5683168 35.7329627,14.5727578 L35.909795,11.2363602 C36.0010373,9.51809938 34.6695466,8.03763354 32.950882,7.9463913 C32.4672174,7.92095652 32.0037391,8.01098758 31.5830559,8.18781988 L31.4191429,9.17452795 Z" id="Fill-8" fill="#00A158"></path>
                        <polygon id="Fill-10" fill="#2D313A" points="29.0038882 23.7067112 35.2313727 24.0365559 35.455441 19.8034814 29.7031429 19.4986677"></polygon>
                        <polygon id="Fill-12" fill="#2D313A" points="20.1696211 18.9932826 14.6930683 18.7025994 14.4685963 22.9360776 19.4703665 23.2013261"></polygon>
                        <path d="M18.4372298,7.17680745 C16.7185652,7.08556522 15.2380994,8.4170559 15.1472609,10.1357205 L14.9700248,13.472118 C15.0043416,13.4713106 15.0370435,13.4652547 15.0713602,13.4672733 C15.9062671,13.5112795 16.5473851,14.2242609 16.5033789,15.058764 C16.4589689,15.8940745 15.7459876,16.5351925 14.9114845,16.4907826 C14.876764,16.488764 14.8448696,16.4794783 14.8109565,16.4750373 L14.6930683,18.7028012 L20.1696211,18.9934845 L20.5471056,16.7241366 C19.9249627,16.509354 19.4901491,15.9094161 19.5268882,15.2194472 C19.5696832,14.413205 20.2370435,13.7942919 21.0344037,13.7918696 C21.0626646,13.7918696 21.0897143,13.7862174 21.1191863,13.7878323 C21.1535031,13.7894472 21.1853975,13.7991366 21.2193106,13.8031739 L21.3065155,12.1523354 L21.3961429,10.4667764 C21.4873851,8.74851553 20.1558944,7.26804969 18.4372298,7.17680745" id="Fill-14" fill="#EEA74E"></path>
                        <path d="M28.0836739,0.309496894 C27.9726491,0.290925466 27.8612205,0.279621118 27.7510031,0.273161491 C27.7461584,0.272757764 27.7409099,0.271950311 27.7368727,0.271546584 C27.7037671,0.269931677 27.6714689,0.271546584 27.6379596,0.271142857 C26.0323385,0.132664596 24.5514689,1.25663975 24.282587,2.87275776 L23.7351335,6.16837888 C23.7686429,6.1716087 23.8021522,6.16918634 23.8360652,6.17443478 C24.6608789,6.31170186 25.2184255,7.09170186 25.0811584,7.91651553 C24.9592329,8.65129814 24.3261894,9.16806832 23.6063447,9.17654658 C23.5845435,9.1737205 23.563146,9.17614286 23.5413447,9.17250932 C23.507028,9.16645342 23.440413,9.1632236 23.440413,9.1632236 C23.3532081,9.15232298 23.2607547,9.13940373 23.2417795,9.13496273 L22.8764068,11.335677 L29.2508478,12.3724472 L29.6166242,10.1717329 L29.6000714,10.1705217 L29.5944193,10.1705217 C29.568177,10.1693106 29.5419348,10.1697143 29.5152888,10.1652733 C28.6904752,10.0280062 28.1329286,9.24840994 28.2701957,8.42359627 C28.2863447,8.32589441 28.312587,8.23263354 28.3460963,8.14300621 C28.3586118,8.10990062 28.375972,8.08002484 28.3905062,8.04813043 C28.4143261,7.99524224 28.4389534,7.94195031 28.4684255,7.89269565 C28.4918416,7.85393789 28.5188913,7.81881366 28.545941,7.78288199 C28.5721832,7.74614286 28.5988292,7.70980745 28.628705,7.67589441 C28.6638292,7.63632919 28.7013758,7.59999379 28.7405373,7.56446584 C28.7655683,7.54104969 28.7914068,7.51803727 28.8180528,7.49663975 C28.8656925,7.45868944 28.9153509,7.42356522 28.967028,7.39167081 C28.9872143,7.37915528 29.0082081,7.36704348 29.0296056,7.3553354 C29.0897609,7.32182609 29.1519348,7.29114286 29.2173385,7.26570807 C29.2290466,7.26167081 29.2411584,7.25803727 29.2528665,7.25359627 C29.4091087,7.19788199 29.5746366,7.16518012 29.7462205,7.16356522 C29.7466242,7.16356522 29.747028,7.16154658 29.7474317,7.16154658 C29.754295,7.16154658 29.7611584,7.16275776 29.7684255,7.16275776 C29.7607547,7.16316149 29.7538913,7.16356522 29.7462205,7.16356522 C29.7680217,7.16598758 29.7886118,7.16437267 29.8100093,7.16760248 C29.8439224,7.17325466 30.0764689,7.19707453 30.1099783,7.20474534 L30.6574317,3.90912422 C30.9392329,2.21145342 29.7813447,0.591701863 28.0836739,0.309496894" id="Fill-16" fill="#E04444"></path>
                        <polygon id="Fill-18" fill="#2D313A" points="29.0527795 12.3393012 22.8761646 11.3356366 20.8914441 23.2766615 21.0929037 23.2871584 27.1794876 23.609736 27.3809472 23.6206366 29.2506056 12.3724068"></polygon>
                        <path d="M2.94458075,29.0391335 C2.51582298,29.0391335 2.1593323,28.7020217 2.13874224,28.2696304 C1.74874224,19.9237919 9.19830745,18.0908727 9.27380435,18.0731087 C9.70902174,17.9725807 10.1418168,18.2422702 10.2435559,18.6762764 C10.3444876,19.1098789 10.0756056,19.5430776 9.64240683,19.6452205 C9.38846273,19.7061832 3.42541925,21.2128913 3.75203416,28.1937298 C3.77302795,28.6394441 3.42824534,29.0173323 2.98333851,29.0383261 C2.97001553,29.0387298 2.9575,29.0391335 2.94458075,29.0391335" id="Fill-20" fill="#2D313A"></path>
                        <path d="M42.4045466,30.141913 C42.3427764,30.141913 42.2793913,30.134646 42.2168137,30.1197081 C41.7828075,30.016354 41.5151366,29.5811366 41.6184907,29.1475342 C41.9015031,27.9573478 41.8183354,27.0081863 41.369795,26.3262919 C40.8126522,25.4772547 39.8505714,25.2866957 39.840882,25.2850807 C39.4020311,25.2071615 39.1089255,24.7884969 39.1860373,24.3492422 C39.2635528,23.9103913 39.6834286,23.6184969 40.1218758,23.6943975 C40.1888944,23.7065093 41.7747329,24.0008261 42.7198571,25.4397081 C43.4219379,26.5079689 43.579795,27.8814472 43.1889876,29.5213851 C43.1009752,29.8924099 42.7695155,30.141913 42.4045466,30.141913" id="Fill-22" fill="#2D313A"></path>
                        <path d="M46.6440807,30.5456398 C46.6133975,30.5456398 46.5827143,30.5440248 46.5516273,30.5403913 C46.1087391,30.4899255 45.7901988,30.090236 45.8406646,29.6469441 C46.1438634,26.9811366 45.6694845,24.8664161 44.4320621,23.3617267 C42.7271242,21.2893975 40.143677,21.0576584 40.1178385,21.055236 C39.6733354,21.0193043 39.3422795,20.6297081 39.3786149,20.185205 C39.4145466,19.7407019 39.793646,19.4060124 40.248646,19.4459814 C40.3818758,19.4564783 43.5442671,19.7407019 45.6787702,22.3358571 C47.2052609,24.1909814 47.7991429,26.7122547 47.4450745,29.8294286 C47.3982422,30.2412298 47.0490186,30.5456398 46.6440807,30.5456398" id="Fill-24" fill="#2D313A"></path>
                        <g id="Group-28" transform="translate(0.000000, 33.105590)" fill="#2D313A">
                            <path d="M1.76376087,2.06990683 L1.49689752,4.86369565 L4.04966149,3.69773292 L1.76376087,2.06990683 Z M0.69307764,6.68531056 C0.551369565,6.68531056 0.410468944,6.64170807 0.290965839,6.55652174 C0.0895062112,6.41319876 -0.0203074534,6.17257764 0.00310869565,5.92630435 L0.498481366,0.742857143 C0.521897516,0.496987578 0.675313665,0.281397516 0.900189441,0.178447205 C1.12546894,0.0763043478 1.38829503,0.10052795 1.59015839,0.244658385 L5.83130745,3.26534161 C6.03276708,3.4086646 6.14258075,3.64888199 6.1191646,3.89515528 C6.09534472,4.1418323 5.9423323,4.35701863 5.7170528,4.45996894 L0.980934783,6.62232919 C0.888481366,6.66431677 0.790779503,6.68531056 0.69307764,6.68531056 L0.69307764,6.68531056 Z" id="Fill-26"></path>
                        </g>
                        <path d="M42.8603137,9.98198137 L40.6373944,11.6949938 L43.2325497,12.7636584 L42.8603137,9.98198137 Z M38.7580466,12.3522609 C38.6611522,12.2485031 38.5965559,12.1160807 38.577177,11.9707391 C38.5444752,11.7252733 38.6450031,11.4814224 38.8408106,11.3300248 L42.9652826,8.15148447 C43.1610901,8.00049068 43.4235124,7.96577019 43.6520217,8.05943478 C43.8805311,8.15431056 44.0424255,8.36263354 44.0751273,8.60850311 L44.7655,13.7693416 C44.7982019,14.0144037 44.6976739,14.2590621 44.5014627,14.4100559 C44.3056553,14.5610497 44.0436366,14.5961739 43.8147236,14.5017019 L38.9998789,12.5194037 C38.906618,12.480646 38.8246615,12.4237205 38.7580466,12.3522609 L38.7580466,12.3522609 Z" id="Fill-29" fill="#2D313A"></path>
                        <path d="M7.73213354,23.6574565 C7.03933851,24.4322081 6.50924534,25.6054379 6.53790994,27.3176429 C6.54517702,27.7516491 6.91095342,28.0948168 7.3445559,28.0948168 L7.3566677,28.0948168 C7.80157453,28.0948168 8.15968012,27.7286366 8.15241304,27.2837298 C8.13020807,25.8965248 8.56259938,25.0894752 9.03940062,24.6175186 C8.89890373,24.4737919 8.76002174,24.6918043 8.28887267,24.1536366 C7.99859317,23.8217733 8.02564286,23.3292267 7.73213354,23.6574565" id="Fill-31" fill="#2D313A"></path>
                        <path d="M9.73538509,21.5627205 C9.45963975,21.5627205 9.21054037,21.666882 9.01675155,21.8332174 C8.77895652,22.0370994 8.62513665,22.3354534 8.62513665,22.6729689 C8.62513665,23.0238075 8.79147205,23.3330621 9.04541615,23.5365404 C9.23557143,23.6887453 9.47336646,23.7832174 9.73538509,23.7832174 C10.3490497,23.7832174 10.8456335,23.2862298 10.8456335,22.6729689 C10.8456335,22.0597081 10.3490497,21.5627205 9.73538509,21.5627205" id="Fill-33" fill="#2D313A"></path>
                        <path d="M47.450323,33.0689317 C47.450323,33.6821925 46.9533354,34.1791801 46.3400745,34.1791801 C45.7268137,34.1791801 45.2298261,33.6821925 45.2298261,33.0689317 C45.2298261,32.4556708 45.7268137,31.9586832 46.3400745,31.9586832 C46.9533354,31.9586832 47.450323,32.4556708 47.450323,33.0689317" id="Fill-35" fill="#2D313A"></path>
                        <path d="M23.776354,64.5962733 C22.568,64.5962733 21.5320373,64.1759938 20.9619752,63.796087 C20.5909503,63.5486025 20.4908261,63.0471739 20.7383106,62.6761491 C20.9849876,62.3063354 21.4831863,62.2041925 21.8546149,62.4504658 C21.9494907,62.5114286 23.9503602,63.7710559 25.9609193,62.2062112 C26.311354,61.9332919 26.819646,61.9958696 27.0941801,62.348323 C27.3679068,62.6999689 27.304118,63.2074534 26.9520683,63.4811801 C25.8862298,64.3104348 24.7727516,64.5962733 23.776354,64.5962733" id="Fill-37" fill="#2D313A"></path>
                        <path d="M25.245354,60.8251429 C25.245354,61.3826894 24.7935839,61.8344596 24.2360373,61.8344596 C23.6784907,61.8344596 23.2267205,61.3826894 23.2267205,60.8251429 C23.2267205,60.2675963 23.6784907,59.8158261 24.2360373,59.8158261 C24.7935839,59.8158261 25.245354,60.2675963 25.245354,60.8251429" id="Fill-39" fill="#2D313A"></path>
                    </g>
                </g>
                <g id="Page-1" transform="translate(0.000000, 63.000000)">
                    <path d="M305.4528,3.25472 C304.9268,3.47072 304.3198,3.85172 304.6608,4.26172 C305.1818,3.83272 305.3078,4.01172 305.8688,3.50072 C306.3168,3.44872 306.6498,3.64472 306.5748,3.80872 C306.7328,3.69372 307.2698,3.90672 307.5108,3.62672 C306.9288,3.28072 306.1908,3.26672 305.4198,3.55172 C305.2548,3.45372 305.4148,3.33772 305.4528,3.25472" id="Fill-4" fill="#E61F1F"></path>
                    <path d="M261.715,2.55802 L261.997,2.61102 C261.92,2.58102 261.823,2.56502 261.715,2.55802" id="Fill-6" fill="#E61F1F"></path>
                    <path d="M234.6154,2.31282 C234.8214,2.30182 234.9074,2.25782 234.9184,2.21682 C234.7264,2.24682 234.5694,2.27382 234.6154,2.31282" id="Fill-8" fill="#E61F1F"></path>
                    <path d="M229.9884,1.82022 C230.0884,1.83422 230.1714,1.84122 230.2614,1.85022 C230.1574,1.80922 230.0524,1.78622 229.9884,1.82022" id="Fill-10" fill="#E61F1F"></path>
                    <path d="M261.715,2.55802 L260.991,2.41702 C260.94,2.56302 261.362,2.52602 261.715,2.55802" id="Fill-12" fill="#E61F1F"></path>
                    <path d="M299.4215,4.33242 C299.5725,4.31042 299.6995,4.26942 299.8145,4.21542 C299.6905,4.23442 299.5695,4.25042 299.4455,4.26242 C299.4385,4.28642 299.4325,4.30742 299.4215,4.33242" id="Fill-14" fill="#E61F1F"></path>
                    <path d="M273.6613,2.19572 L273.8813,2.19572 C273.9463,2.14472 274.0063,2.08272 274.0643,2.01372 L273.6613,2.19572 Z" id="Fill-16" fill="#E61F1F"></path>
                    <path d="M282.8292,2.12732 C282.6212,2.11032 282.5502,2.49032 282.4702,2.65532 C282.5872,2.49932 282.7412,2.42532 282.9222,2.39632 C282.9262,2.32332 282.8982,2.23732 282.8292,2.12732" id="Fill-18" fill="#E61F1F"></path>
                    <path d="M297.3668,2.79482 L297.6248,2.74182 C297.5578,2.75882 297.4448,2.77382 297.3668,2.79482" id="Fill-20" fill="#E61F1F"></path>
                    <path d="M267.0992,2.11362 C267.0832,2.05762 267.0512,2.00762 267.0162,1.97762 C267.0162,2.02562 267.0482,2.07062 267.0992,2.11362" id="Fill-22" fill="#E61F1F"></path>
                    <g id="Group-26" transform="translate(10.000000, 4.370220)">
                        <mask id="mask-6" fill="white">
                            <use xlink:href="#path-5"></use>
                        </mask>
                        <g id="Clip-25"></g>
                        <path d="M0.6705,0.595 C0.6775,0.568 0.6675,0.551 0.6695,0.528 C0.6165,0.566 0.5995,0.593 0.6705,0.595" id="Fill-24" fill="#E61F1F" mask="url(#mask-6)"></path>
                    </g>
                    <path d="M0.0431,3.08582 L0.1901,3.06482 C0.2061,2.99382 0.2221,2.92282 0.2221,2.85282 L0.0431,3.08582 Z" id="Fill-27" fill="#E61F1F"></path>
                    <path d="M221.5211,1.33432 C221.5371,1.33832 221.5431,1.33832 221.5591,1.34132 C221.7811,1.29832 221.6551,1.30532 221.5211,1.33432" id="Fill-29" fill="#E61F1F"></path>
                    <path d="M143.7867,1.61412 C144.6667,1.95312 142.3537,2.05012 143.6797,2.42612 C143.5557,2.27812 144.8847,1.83412 143.7867,1.61412" id="Fill-31" fill="#E61F1F"></path>
                    <path d="M299.1837,4.28262 C299.0597,4.28662 298.9337,4.29062 298.8087,4.28662 C298.9787,4.29862 299.0947,4.29762 299.1837,4.28262" id="Fill-33" fill="#E61F1F"></path>
                    <path d="M143.6793,2.42612 L143.6793,2.42912 L143.8163,2.46512 C143.7593,2.44912 143.7273,2.43912 143.6793,2.42612" id="Fill-35" fill="#E61F1F"></path>
                    <path d="M202.0104,1.56242 C202.0504,1.62942 202.1284,1.68042 202.2094,1.72842 C202.2024,1.68942 202.1574,1.64242 202.0104,1.56242" id="Fill-37" fill="#E61F1F"></path>
                    <path d="M216.5455,2.10192 L216.1855,2.05092 C216.3285,2.08592 216.4435,2.09792 216.5455,2.10192" id="Fill-39" fill="#E61F1F"></path>
                    <path d="M194.464,2.09802 C194.268,2.06902 194.202,2.01602 193.935,2.06702 C193.96,2.08702 193.984,2.10002 194.016,2.11402 C194.112,2.06102 194.241,2.03702 194.464,2.09802" id="Fill-41" fill="#E61F1F"></path>
                    <path d="M186.6085,2.10002 C186.6505,2.12902 186.7055,2.15102 186.7535,2.17702 C186.8315,2.16902 186.9225,2.16302 187.0025,2.15602 L186.6085,2.10002 Z" id="Fill-43" fill="#E61F1F"></path>
                    <g id="Group-47" transform="translate(33.000000, 4.370220)">
                        <mask id="mask-8" fill="white">
                            <use xlink:href="#path-7"></use>
                        </mask>
                        <g id="Clip-46"></g>
                        <path d="M1.5421,0.4124 C1.3701,0.3064 1.2631,0.1874 1.1801,0.0714 C1.3011,0.3414 0.1461,0.4374 1.5421,0.4124" id="Fill-45" fill="#E61F1F" mask="url(#mask-8)"></path>
                    </g>
                    <path d="M299.4176,4.11902 C299.3716,4.21502 299.3046,4.26202 299.1836,4.28302 C299.2736,4.27802 299.3606,4.27102 299.4456,4.26202 C299.4676,4.20602 299.4736,4.15302 299.4176,4.11902" id="Fill-48" fill="#E61F1F"></path>
                    <g id="Group-52" transform="translate(192.000000, 4.370220)">
                        <mask id="mask-10" fill="white">
                            <use xlink:href="#path-9"></use>
                        </mask>
                        <g id="Clip-51"></g>
                        <path d="M2.1442,0.7215 L0.8962,0.6655 C1.2452,0.7015 1.6992,0.7215 2.1442,0.7215" id="Fill-50" fill="#E61F1F" mask="url(#mask-10)"></path>
                    </g>
                    <g id="Group-55" transform="translate(90.000000, 4.370220)">
                        <mask id="mask-12" fill="white">
                            <use xlink:href="#path-11"></use>
                        </mask>
                        <g id="Clip-54"></g>
                        <path d="M0.8947,0.3582 L0.6077,0.4042 C0.7187,0.4122 0.8197,0.4012 0.8947,0.3582" id="Fill-53" fill="#E61F1F" mask="url(#mask-12)"></path>
                    </g>
                    <g id="Group-58" transform="translate(188.000000, 4.370220)">
                        <mask id="mask-14" fill="white">
                            <use xlink:href="#path-13"></use>
                        </mask>
                        <g id="Clip-57"></g>
                        <path d="M1.193,0.7215 C0.97,0.5875 0.734,0.5095 0.49,0.4585 C0.439,0.4885 0.38,0.5135 0.345,0.5565 L1.193,0.7215 Z" id="Fill-56" fill="#E61F1F" mask="url(#mask-14)"></path>
                    </g>
                    <g id="Group-61" transform="translate(34.000000, 4.370220)">
                        <mask id="mask-16" fill="white">
                            <use xlink:href="#path-15"></use>
                        </mask>
                        <g id="Clip-60"></g>
                        <path d="M0.1769,0.0672 C0.1799,0.0692 0.1799,0.0712 0.1799,0.0712 C0.1799,0.0712 0.1799,0.0692 0.1769,0.0672" id="Fill-59" fill="#E61F1F" mask="url(#mask-16)"></path>
                    </g>
                    <g id="Group-64" transform="translate(0.000000, 0.370220)">
                        <mask id="mask-18" fill="white">
                            <use xlink:href="#path-17"></use>
                        </mask>
                        <g id="Clip-63"></g>
                        <path d="M51.1281,1.1892 C51.4981,1.1352 51.6211,1.2102 51.6721,1.2882 C51.4981,1.2942 51.2941,1.3072 51.0261,1.3332 C51.0151,1.3472 50.9931,1.3632 50.9821,1.3792 C51.0171,1.3072 51.0581,1.2392 51.1281,1.1892 M56.0651,3.8192 C55.7811,3.8042 55.4271,3.8012 55.0531,3.8042 C54.9711,3.6732 55.0601,3.5382 55.2951,3.5452 C55.1671,3.6322 55.7171,3.7082 56.0651,3.8192 M53.7311,3.8252 L53.7311,3.8332 C53.4921,3.8412 53.2881,3.8492 53.1581,3.8542 C53.2771,3.8492 53.4421,3.8412 53.7311,3.8252 M25.9571,4.9692 C27.1461,4.9802 26.5151,4.4812 26.7671,4.1942 C28.1871,4.0532 27.4241,4.5622 27.9071,4.8162 C28.7941,4.6852 29.4731,4.2272 30.1341,4.2462 C30.1841,4.3282 30.3121,4.3582 30.1611,4.4612 C31.0981,4.0642 32.9421,4.4412 34.0341,3.9432 C34.1151,3.9882 34.1561,4.0292 34.1771,4.0672 C34.0001,3.8172 33.9731,3.5642 34.0091,3.3832 C34.5421,3.3752 34.9991,3.0682 35.1991,3.3942 C34.8721,3.3842 34.8451,3.5162 34.6921,3.6182 L35.2511,3.4762 C35.7531,3.9442 34.4881,3.6382 34.4881,3.9852 C35.5771,3.8332 36.8471,3.4442 37.6821,3.5772 C37.8561,4.0362 35.7301,3.7312 36.8431,4.1392 L35.5521,3.9632 C36.5391,4.6872 34.7671,3.9132 35.6741,4.6872 C37.3741,4.8202 37.5751,4.4542 39.2701,4.5872 C39.6521,4.3332 39.1441,4.2102 39.5261,3.9562 C41.9361,3.4982 41.4221,5.1082 43.1941,4.4982 C43.6531,4.1922 43.8311,3.6122 45.0921,3.9192 L44.6621,4.4372 C46.3071,4.4882 45.6011,3.6922 47.3251,4.0412 C47.0181,4.2452 46.0311,4.2122 46.2801,4.2742 C47.3971,4.6842 47.0701,3.9802 47.9281,3.9802 L48.1061,4.4392 C49.8571,4.3672 51.7871,4.0362 53.7281,3.9522 C53.6201,4.0882 53.2881,4.2322 53.7421,4.3722 C56.1891,4.1432 58.9651,4.4282 61.3261,4.7012 L62.2281,4.3042 C62.4371,4.3092 62.6171,4.4832 62.3891,4.5602 C63.3091,4.7102 62.4371,4.3092 62.8791,4.1532 C63.4021,4.1262 63.5701,4.3812 63.2391,4.5002 C64.8621,4.1642 67.8631,3.7762 69.5731,4.2012 L69.2401,4.3182 C70.5711,4.4792 70.7431,3.5062 71.9781,3.8762 L71.7411,3.9462 C74.6311,4.1182 77.8261,3.7542 80.0311,4.3532 C80.4501,3.7822 82.8921,4.6072 83.0781,3.8122 C84.7281,4.2062 84.2551,4.3482 86.5801,4.6132 C87.2011,4.6502 87.5051,4.1162 88.2731,4.0332 L88.2921,4.4492 L89.3341,4.0132 L89.8881,4.5102 L90.6081,4.4042 C90.3211,4.3792 89.9991,4.2172 90.0421,4.0972 C91.1671,3.9092 92.7831,4.3872 92.8111,4.6002 L95.4711,4.2482 C95.4121,4.4162 94.9671,4.4732 94.6141,4.5802 C96.0351,4.1552 94.8731,5.0182 96.1741,4.6292 C96.0001,4.5342 96.2681,4.3812 96.2971,4.2972 C96.9461,4.5482 98.4231,4.5512 99.5151,4.4442 L99.3061,4.7312 C101.2791,4.8042 103.4651,4.5942 105.6801,4.5992 C104.8861,4.4652 105.0681,3.9682 105.7181,3.9202 L105.9781,4.3592 C106.3971,4.0882 105.2991,4.1942 106.1601,3.8612 C106.9871,3.9122 106.7161,4.3612 106.2411,4.5042 L107.2471,4.3522 C107.3061,4.4832 107.0701,4.5532 107.0091,4.7202 C107.4211,4.4472 108.7451,5.1612 109.3401,4.6872 L109.3971,4.8182 C111.6111,4.8212 112.6151,4.6702 114.4181,4.6482 C114.4541,4.2692 115.1591,4.3532 115.6961,4.0462 C117.0211,4.1672 118.4921,4.4652 120.0891,4.4332 C121.2111,4.2452 120.4171,4.1122 120.9211,3.8862 C121.0041,4.2322 122.5991,4.2002 121.7721,4.4482 C123.6881,4.3922 124.2191,4.3792 126.6431,4.0982 C126.3801,3.9572 126.0841,3.8952 126.2371,3.7772 C126.6771,3.7202 127.2381,3.9222 127.1751,4.0882 L127.0591,4.1242 C129.7801,3.6062 133.3381,5.1322 135.5051,4.4112 L135.3831,4.4472 L137.6301,4.0712 C138.6641,4.1312 137.0101,4.3312 137.7751,4.5452 C140.1981,3.9682 141.6041,4.6292 143.6001,4.2452 C145.1451,5.2652 149.0821,4.1722 151.1671,4.8242 L151.0461,4.5842 C151.5851,4.3482 151.6981,4.7212 152.0951,4.7762 C152.0391,4.5892 151.5111,4.5602 151.8451,4.4302 C156.4111,4.1402 161.2691,4.7812 165.9491,4.9982 C167.6611,5.0622 166.9201,3.7542 169.0791,4.3282 L168.4661,4.7742 C171.9201,4.2382 175.5301,4.7932 178.9121,4.3392 C178.7101,4.4412 178.7041,4.5752 178.3741,4.5742 C179.0881,4.8972 181.0161,4.5892 181.0281,4.3252 C181.5551,4.3552 181.1501,4.5642 181.4741,4.6992 C182.1911,4.8902 183.2731,4.2852 183.6531,4.6072 C183.7181,4.6602 183.4521,4.7122 183.3211,4.7372 C183.7881,4.5812 185.4971,4.7772 185.0491,4.4042 C186.3191,4.5822 187.4781,4.2372 188.4901,4.4592 C189.1501,4.0412 190.6631,4.6602 190.8731,4.0692 C190.7821,4.6802 193.0981,4.5622 193.9001,4.2742 C193.6321,4.4592 194.5981,4.4652 194.2841,4.7212 C195.1991,4.7122 196.0391,4.5992 195.8791,4.2852 C197.5661,5.0162 199.2711,3.6972 200.2211,4.6342 C202.9411,4.3062 205.4591,4.0842 207.9061,3.9402 C207.8181,4.5492 205.2011,4.0012 205.3061,4.6402 C207.6281,4.3902 208.9671,3.8672 211.2691,4.0142 C211.8651,4.0972 210.9311,4.2782 210.7301,4.3822 C213.0491,4.1312 215.2141,4.4372 217.2781,4.1062 C217.2731,4.1622 217.0501,4.2242 216.8391,4.2712 C217.2461,4.2512 217.7851,4.3592 217.7391,4.0842 L217.3431,4.1582 C216.6931,3.7572 218.9581,3.3192 219.0311,3.1072 C218.3411,3.9002 221.0701,3.3072 219.9731,4.3092 C220.2411,4.2562 220.5771,4.1262 220.5151,3.9402 C220.9121,3.9942 221.0391,4.1032 220.6361,4.3132 C222.0921,4.1622 221.5751,3.8682 222.8951,3.8742 C222.8901,4.0082 222.6241,4.0602 222.4871,4.2182 C223.1561,3.9572 223.8271,3.6952 224.9421,3.8092 C224.8761,3.8892 225.0051,3.9942 224.6721,3.9922 C226.5881,3.9522 227.9381,3.2962 230.0401,3.5492 C229.4191,4.1312 230.7541,3.7402 230.8661,4.2452 L231.9961,4.0942 L231.5431,3.8502 C232.5321,3.8582 233.4071,3.4912 234.2581,3.6562 L233.5231,3.8642 L235.3771,3.7682 L234.3281,3.5772 C235.3301,3.3172 234.2201,2.9392 235.5381,3.0802 C235.2711,3.1302 236.5281,3.0862 237.0441,3.3832 C237.0441,3.3832 237.0411,3.3832 237.0411,3.3842 C237.5311,3.2242 238.0351,3.0552 238.7671,3.1802 C238.9571,3.3412 238.6141,3.7372 238.7371,3.8452 C239.2211,3.4232 241.0561,3.7282 241.6681,3.2792 C241.4641,3.3842 241.4531,3.6492 241.5201,3.7032 L241.9261,3.3602 C242.3841,3.4702 242.4511,3.5232 242.3771,3.7342 C243.7561,3.7962 241.9391,3.0952 243.5761,3.3702 C243.4471,3.3972 243.5091,3.4492 243.2411,3.5012 C244.8861,3.6452 246.4181,3.2842 247.9291,3.4522 C248.3751,3.9602 246.6091,3.5762 247.1191,4.0042 C249.2981,3.9122 251.6301,3.3962 253.7381,3.5162 L253.3451,3.4602 C253.6381,2.7442 254.9161,3.8132 255.9821,3.4762 C255.7211,3.5292 255.6391,3.8732 255.7101,3.7932 C257.1541,3.9092 258.6621,3.6182 260.8491,3.3922 L260.5781,3.5762 C261.4291,3.7402 262.8191,3.6712 263.7381,3.7542 C264.0111,3.5712 264.5361,3.6012 264.2171,3.3342 C267.0511,4.3812 269.6231,2.7722 272.1371,3.6452 C271.8361,3.6472 271.4201,3.8052 271.6591,3.8052 L273.8011,3.6372 C273.6311,3.3252 273.5201,3.4482 273.0701,3.2052 C273.3411,3.0202 273.9461,2.8762 274.4771,2.8762 C273.5141,3.0842 274.4851,3.3772 274.9011,3.5522 C274.8311,3.4562 274.9741,3.3512 274.9391,3.2532 C276.0571,3.8092 275.1261,2.6262 276.6531,3.0002 L276.5731,3.1632 C277.1441,3.0802 277.6711,2.8632 278.2881,2.9102 C278.5431,3.2712 277.6791,3.0782 277.6401,3.3762 C278.5051,3.3552 279.3481,2.6912 280.1321,3.0512 C279.7641,3.1522 279.2351,3.1532 278.8681,3.2532 C279.7211,3.6772 279.8201,3.5692 280.4541,3.6372 L280.3921,3.6272 L281.8571,3.8192 L281.4841,3.7042 C282.5681,2.7632 283.6901,3.5322 285.1501,2.9162 C283.7321,3.4992 284.9161,3.2532 284.8071,3.6622 C285.1801,3.7762 285.7461,3.9032 285.5851,4.0182 C286.2741,3.6882 286.7371,4.2782 287.7101,3.7952 C287.7541,3.9272 288.4481,3.8092 288.2931,4.1392 C289.1901,4.0362 288.0811,3.9102 288.1561,3.7452 C289.5391,3.2952 291.4061,4.2902 293.3951,3.6732 C295.1091,3.4192 295.4261,2.9752 297.0181,2.7542 C297.5551,2.9652 296.5781,3.2332 296.5781,3.2332 C297.4441,3.4272 298.0961,3.3922 298.9131,3.2412 C298.7481,3.3562 298.9181,3.4532 299.1671,3.6012 C299.8221,3.5662 299.6051,3.1222 300.4691,3.3152 C300.3211,3.4622 300.1301,3.6972 299.8151,3.8452 C300.5871,3.7232 301.3491,3.4782 302.1481,3.3592 C302.3611,3.5882 301.6671,3.7072 301.3841,3.8562 C302.2831,3.7532 303.7121,3.6492 303.9901,3.2862 L303.4141,3.1562 C303.7411,3.1382 303.5821,3.4682 303.3401,3.5342 C302.5701,3.8192 302.2301,3.4092 302.1861,3.2762 L302.7551,3.1922 C302.1711,2.4192 300.4691,3.3152 299.3231,3.2712 L299.8011,2.7092 L298.6251,3.1752 C298.3761,3.0292 298.2041,2.7152 298.7701,2.6312 C297.9491,2.3542 298.0431,2.8312 297.3371,2.5222 C297.2591,2.4742 297.2941,2.4462 297.3671,2.4242 L296.5641,2.5912 C296.7211,2.4742 296.4301,2.1952 296.9231,2.2762 C295.4821,1.9522 294.6001,2.6972 294.0581,2.2722 L294.1781,2.2372 C292.1791,2.4272 293.9851,2.6502 292.4851,3.1332 L291.4761,2.1162 L291.2791,2.5282 C291.0731,2.5142 290.6651,2.4832 290.7411,2.3182 C289.9731,2.6002 290.8721,2.4972 290.4261,2.7642 C289.4341,2.3882 287.6891,2.9392 287.4651,2.2822 C287.1091,2.5962 288.4151,2.5242 287.3551,2.7422 C287.0531,2.0362 286.1301,2.8632 285.2231,2.5392 C285.5021,2.1752 286.3601,2.3682 285.4531,2.0422 C284.9061,2.6582 283.6871,1.9072 282.9221,2.0252 C282.8861,2.5162 281.2591,2.2302 279.9761,2.3932 C280.0571,2.2292 277.5601,2.1242 276.3661,1.9462 L276.4011,1.8642 C276.1701,2.3602 274.9391,2.2662 274.0421,2.3692 C274.0771,2.0722 274.2381,1.9552 274.7241,1.8222 L273.8811,1.8252 C273.6821,1.9832 273.4191,2.0672 272.8731,2.1242 L273.0851,1.7532 C271.9621,1.7742 270.8251,2.1902 269.3811,1.9422 C269.3001,2.2882 270.5291,2.9052 269.0021,3.1362 C268.9461,2.9492 268.8891,2.6292 269.2891,2.5532 C269.1581,2.5772 268.8221,2.7082 268.5591,2.6282 L269.1691,2.3142 C268.5111,2.1762 268.8251,2.5762 268.2991,2.5472 C268.3091,2.2802 267.9101,2.3572 267.9851,2.1462 C268.1201,2.1202 268.4441,2.2552 268.6451,2.1512 C268.0521,2.1032 267.3361,1.9452 267.0991,1.7432 C267.1501,1.8952 267.0991,2.1022 266.6651,2.1372 C265.5431,2.1562 266.2811,1.8162 265.6261,1.6792 C265.3551,1.8642 264.6391,1.6722 264.6201,2.0712 C264.2921,2.0692 264.2311,1.8832 264.1041,1.7752 C263.5231,1.9512 261.3911,1.8252 262.0461,2.2492 L262.1951,2.2772 C262.1671,2.2852 262.1341,2.2862 262.1001,2.2942 L262.1051,2.2942 L262.1001,2.2942 C260.1961,2.6912 258.1461,2.0692 256.2571,2.2392 L256.2601,2.1062 C255.1321,2.2582 253.7511,2.1962 252.9451,2.4832 C252.6121,2.4822 252.1591,2.2392 252.3011,2.0812 C251.4401,2.1812 251.3431,2.3312 250.0981,2.1102 C250.9641,1.8782 249.7991,1.9042 250.9861,1.9402 C249.8661,1.8252 249.6121,1.6122 248.4101,1.9762 C248.8191,1.6342 247.5671,1.5462 247.0351,1.6482 L247.8191,1.8932 C247.2211,1.9422 246.6971,1.9122 246.1661,1.8832 L246.4531,1.4342 C244.1621,0.8872 242.3201,2.3632 240.5761,1.4492 C239.9701,1.7632 241.8211,1.6702 241.2791,2.0382 C240.2251,1.9772 239.1261,1.3322 238.7961,1.3312 C237.3521,1.0822 237.4491,1.9872 235.9381,1.8172 C236.1311,1.9772 236.3141,2.4052 235.1851,2.5562 C234.1291,2.4962 233.8881,1.8832 234.5541,1.7552 C234.8071,1.7422 234.9291,1.7932 234.9181,1.8472 C235.2591,1.7882 235.7061,1.7202 235.2891,1.5462 L235.1511,1.7062 C234.6281,1.5432 233.1771,1.5602 233.5181,1.2972 C232.7211,1.4502 233.1771,1.5602 233.7681,1.6432 C232.4151,1.4112 231.6541,1.6362 230.2611,1.4802 C230.4821,1.5682 230.6871,1.7572 230.4661,1.7552 C228.4231,1.5572 229.5671,2.0592 228.1831,2.1292 C227.3961,1.8852 228.4641,1.5462 227.0711,1.7512 C226.2201,1.5852 226.8911,1.3262 227.2291,1.1952 C225.9601,1.5042 224.8571,0.9922 224.1321,0.9352 L224.8011,0.8062 C224.4011,0.8832 224.0741,0.8812 223.7401,0.8802 L224.1221,1.2002 C223.7301,1.1452 223.3971,1.1432 223.4041,1.0102 C223.0001,1.2202 223.7141,1.5432 222.9111,1.8302 C222.3881,1.6672 221.3171,2.0042 221.1371,1.5802 C222.7831,1.7242 220.9551,1.1522 222.3481,1.0842 C222.0801,1.1342 221.7521,1.1322 221.3581,1.0762 C221.2991,1.0292 221.4141,0.9882 221.5211,0.9642 C219.9461,0.5842 220.7971,1.4442 219.1651,1.4352 C219.3721,1.1952 218.7861,0.9802 218.5201,1.0312 C219.1781,1.0362 218.8351,1.4312 218.2311,1.6152 C217.1841,1.4282 217.0931,1.7532 216.5451,1.7312 L217.1711,1.8192 C216.9591,2.0592 216.4361,2.0272 215.7061,2.1032 C215.6441,1.9172 216.3681,1.9752 216.1081,1.8932 C215.2981,2.3142 214.2771,1.4572 213.1481,1.7402 C212.6251,1.5782 213.0971,1.2902 212.6381,1.1802 C211.3721,1.4912 211.2671,0.8522 209.9361,1.1082 C210.3191,1.4302 210.3861,1.3522 209.4491,1.6662 L211.6371,1.4392 L210.2331,1.9072 C210.8931,1.9122 211.6261,1.7052 212.0221,1.7602 C211.3531,2.0222 211.4211,1.9422 211.7381,2.2102 C210.8341,1.7272 209.9461,2.4912 208.9021,2.1652 L208.9341,1.3672 C207.3641,1.0122 206.1451,1.7762 204.1061,1.5762 L204.7611,1.7142 C204.4881,2.0312 203.5021,1.7592 202.8421,1.8872 C202.9041,1.6212 202.4911,1.5242 202.2101,1.3582 C202.2441,1.5562 200.7171,1.3402 200.5321,1.8722 L199.6221,1.5212 C197.9761,1.3772 197.7431,2.2802 196.1611,2.1902 C196.6381,1.9002 195.9181,1.7112 196.9791,1.5042 C196.4501,1.5012 195.9751,1.4532 195.9661,1.6372 C195.6581,1.4702 194.5021,1.9962 194.0161,1.7432 C193.7931,1.8602 193.7201,2.1392 193.1271,2.1172 C193.0631,2.0632 193.1291,1.9852 193.1291,1.9852 C193.1271,2.1172 192.2011,2.1652 192.7191,2.4602 C191.0921,1.6282 188.1701,2.5202 186.7531,1.8062 C185.6011,1.8962 184.2111,1.9812 183.1651,2.0012 C183.2321,1.9212 183.1681,1.8682 183.3661,1.8962 C181.9221,1.6472 182.4791,2.6602 180.8361,2.3842 C179.9961,1.9532 181.7081,2.1512 181.1851,1.9882 C180.9571,1.1112 179.2021,2.1072 178.0961,1.5952 L178.3631,1.5442 C177.5191,1.2462 176.3011,1.8762 174.9201,1.8142 C174.9201,1.8142 174.9881,1.7362 174.9291,1.6812 C173.9841,2.1282 172.1971,2.2762 170.8681,2.4002 C171.2811,2.0572 171.4721,2.2192 171.2191,1.8702 C170.6241,1.9192 171.3941,2.4302 170.2051,2.5282 C169.8191,2.3402 168.9611,2.1762 168.8481,1.8042 L169.9691,1.7832 C169.3951,1.3022 168.5181,1.8002 167.9271,1.7162 L168.0021,1.5062 C166.2841,1.5742 166.2601,2.1052 164.4141,2.0662 L164.6041,2.2262 C163.5951,2.7512 163.7581,1.9302 162.7521,2.3212 L162.4471,1.7882 C161.7811,1.9172 160.1141,2.3032 158.9201,2.4032 C159.5971,2.0082 160.9941,1.8062 161.8591,1.5712 C161.1991,1.5672 159.6161,1.6112 159.2721,1.8742 C159.5381,1.8222 159.8731,1.6922 160.1351,1.7742 C159.3261,2.1932 158.2601,2.3982 156.9451,2.3902 C157.1781,1.3562 153.5171,2.1292 152.5631,1.3272 C150.2351,1.7092 147.9461,1.1642 145.2351,1.2252 C146.1971,2.0282 144.4441,1.2482 144.6101,2.0732 C143.9791,2.1262 143.7381,2.1122 143.6821,2.0592 L141.7681,1.5662 C141.3151,1.3262 142.3691,1.3842 142.3111,1.1992 C140.9281,1.1352 141.7311,0.8492 140.8161,0.6292 C141.0031,0.9252 140.3351,1.0522 139.5471,0.9392 L140.6571,1.3202 C138.7251,1.7602 138.9871,0.6272 137.0401,1.0632 L137.6551,0.8032 C136.6561,0.9562 133.9691,0.7972 132.9891,1.4612 C132.8131,1.3652 132.5791,1.1402 133.0191,1.0802 C130.6311,0.9812 127.7031,1.7862 125.8471,1.3772 L126.0281,1.1762 C125.5821,1.2342 125.2521,1.5552 124.6941,1.3522 C124.7231,1.2682 124.8741,1.1502 124.6681,1.1382 C124.4321,1.2082 123.4841,1.4922 122.8941,1.3752 L123.3981,1.1472 C121.0681,0.8832 119.8231,1.7002 117.8701,1.8392 C117.8751,1.2452 116.0421,1.0512 115.1271,0.9552 L115.1591,0.8712 C112.4461,0.7972 110.5511,1.3632 108.0391,1.5972 C106.4801,0.9522 102.7571,1.3272 100.2511,0.9652 C100.6341,1.0732 100.1891,1.4282 99.7431,1.4882 C99.1551,1.3672 98.1171,1.9002 98.2111,1.3552 L98.4201,1.3652 C97.9771,0.8312 96.7691,0.9732 95.8251,0.9592 L95.6691,1.6712 C93.2011,0.6342 89.2021,2.0522 87.8551,1.1242 C87.2591,1.3022 86.5211,1.3002 85.9311,1.4782 L85.9621,1.0962 C84.3121,0.9982 83.4881,0.9502 81.4481,1.0412 L81.8641,0.7682 C80.7131,0.7432 80.4111,1.8702 79.3501,1.8932 L79.0301,1.3222 C77.0231,1.3312 74.9911,0.8302 73.0071,1.3472 C73.0401,1.2642 73.0991,1.0992 73.4241,1.0762 C72.4791,1.0612 69.7691,0.6892 70.1121,1.4732 C70.0881,0.9632 68.0411,1.4232 66.9571,1.6472 L67.1251,1.2722 C66.2101,1.7522 66.1811,1.8832 64.9031,2.0172 C64.6001,1.9682 64.6381,1.7152 65.0401,1.8122 C64.0311,1.6152 64.2531,2.1682 63.0301,1.9682 L63.4861,1.7282 C62.4481,1.6982 62.5301,1.8272 61.9591,2.1072 C61.3061,2.2582 59.9891,2.0132 59.8361,1.6722 C59.6961,1.8792 59.1281,2.1572 58.5151,2.0592 C58.4331,1.9302 58.6561,1.8512 58.7681,1.8122 C57.0321,1.5562 56.1861,2.2492 54.9921,1.8792 C54.9671,1.7552 54.8901,1.6932 54.7911,1.6552 C56.1701,1.6642 57.2801,1.6852 57.1761,1.7122 C57.1761,1.3652 56.0631,1.3052 56.9491,0.8262 C56.0541,1.0872 54.5251,1.6552 53.4401,1.4922 C53.3871,1.4592 53.3361,1.4252 53.2961,1.3722 L53.4081,1.3332 C53.1581,1.2982 52.9331,1.3312 52.7221,1.3892 C52.3761,1.3322 52.1551,1.2902 51.8221,1.2852 C51.6941,0.9982 50.5451,1.1302 49.9891,1.1162 C50.0361,1.4962 49.3081,1.4352 49.9891,1.7482 C49.9011,1.7212 50.0941,1.7032 50.4641,1.6872 C50.5471,1.6762 50.6461,1.6702 50.7011,1.6472 C50.6901,1.6582 50.6771,1.6702 50.6631,1.6812 C51.0271,1.6702 51.5031,1.6622 52.0441,1.6552 C51.6051,1.8482 51.1461,2.0102 50.5321,1.8002 C50.2471,2.0442 49.9331,2.2942 49.7561,2.4122 C48.9961,1.8832 47.5311,1.5972 47.3271,1.2712 C45.6311,1.4832 43.3311,1.4112 42.2651,2.1242 C41.7821,2.2152 41.7101,1.9192 41.5301,1.8082 C41.8091,1.7362 42.1401,1.7472 42.2901,1.6452 C41.3261,1.8272 39.4331,1.7152 39.2031,2.2132 C37.9881,1.9892 39.8861,1.7552 38.2161,1.8362 L38.4411,1.6842 C35.1561,0.8882 33.1011,2.9562 29.4591,1.9342 C29.7111,1.9962 29.8371,2.0252 29.8891,2.1092 C25.7361,1.6582 21.3321,2.5322 17.2341,1.8172 C16.0691,1.6732 15.9431,1.9912 15.2321,2.2332 L14.9801,1.8252 L13.7651,2.2952 C12.0411,2.6402 10.7801,1.2952 8.5981,1.9462 L8.8801,2.2212 C8.0961,2.1692 6.3981,2.3832 6.5281,2.0672 C6.4481,2.1172 6.2721,2.3532 5.9651,2.2102 L5.9411,1.9962 L4.0171,2.3622 C2.5241,2.2082 4.2501,1.5152 2.0721,1.4742 C1.2631,1.5562 -0.2319,2.0952 0.0711,2.2372 C0.3981,2.2482 0.9061,2.3702 0.9311,2.5842 L0.1901,2.6952 C0.0561,3.3242 -0.5129,3.9672 1.3041,4.4062 L2.5701,4.0222 L2.9781,4.3272 L1.9131,4.3462 C2.5171,4.6332 2.9001,4.3792 3.3301,4.2052 C3.4311,4.3672 3.6091,4.4812 3.8601,4.5412 L5.1041,3.9402 C5.2541,4.1872 4.5461,4.4282 5.3801,4.5642 C5.9621,4.2852 4.8221,4.0132 5.7861,3.8302 C6.3921,4.1152 6.2151,4.3482 6.9261,4.1042 C7.0261,4.2662 6.8751,4.3692 6.5931,4.4402 C7.2261,4.2462 8.2681,4.3582 8.5951,4.0242 C9.2271,4.3772 10.7321,3.9322 10.6701,4.5272 C10.8691,4.3852 11.7841,4.0602 12.3661,4.0362 C11.3041,4.7482 14.5421,4.0772 14.2611,4.8412 C15.0471,4.2012 17.1011,4.5572 18.4931,4.2012 C18.4151,4.2522 18.2621,4.3552 18.1391,4.3222 C18.9231,4.3762 19.1501,4.5692 19.6541,4.6892 C19.7551,4.1612 20.9751,4.0402 21.6331,3.7132 C22.5931,4.2242 21.0501,4.3352 21.3511,4.8252 C21.3031,4.3962 23.0201,4.3972 22.6931,4.0402 C23.4281,4.3562 23.3261,4.1932 23.7051,4.6312 C23.8341,3.9702 24.3891,4.5202 24.9981,4.1132 C26.0611,4.4392 25.2721,4.7332 26.4401,4.5312 C26.9951,4.7342 25.9571,4.9692 25.9571,4.9692" id="Fill-62" fill="#E61F1F" mask="url(#mask-18)"></path>
                    </g>
                    <path d="M50.464,2.05752 C50.411,2.06552 50.381,2.08152 50.312,2.08452 C50.387,2.11852 50.459,2.14652 50.532,2.17052 C50.577,2.13052 50.623,2.09052 50.663,2.05152 C50.596,2.05352 50.526,2.05452 50.464,2.05752" id="Fill-65" fill="#E61F1F"></path>
                    <path d="M262.046,2.61952 L261.997,2.61052 C262.038,2.62552 262.075,2.64052 262.1,2.66452 C262.067,2.64652 262.067,2.63452 262.046,2.61952" id="Fill-67" fill="#E61F1F"></path>
                    <g id="Group-71" transform="translate(88.000000, 4.370220)">
                        <mask id="mask-20" fill="white">
                            <use xlink:href="#path-19"></use>
                        </mask>
                        <g id="Clip-70"></g>
                        <polygon id="Fill-69" fill="#E61F1F" mask="url(#mask-20)" points="0.2951 0.5452 0.2921 0.4492 0.0871 0.5332"></polygon>
                    </g>
                    <path d="M274.901,3.92222 C274.925,3.95522 274.974,3.99022 275.07,4.01922 C275.062,3.99422 274.989,3.96022 274.901,3.92222" id="Fill-72" fill="#E61F1F"></path>
                    <path d="M280.4542,4.00722 L281.2392,4.14222 C280.8992,4.06522 280.6522,4.02822 280.4542,4.00722" id="Fill-74" fill="#E61F1F"></path>
                    <path d="M284.7238,4.19522 C284.7778,4.12922 284.7928,4.07822 284.8068,4.03222 C284.8038,4.03122 284.8018,4.03122 284.7988,4.02922 L284.7238,4.19522 Z" id="Fill-76" fill="#E61F1F"></path>
                    <g id="Group-80" transform="translate(216.000000, 4.370220)">
                        <mask id="mask-22" fill="white">
                            <use xlink:href="#path-21"></use>
                        </mask>
                        <g id="Clip-79"></g>
                        <path d="M0.8395,0.2708 C0.7825,0.2728 0.7255,0.2778 0.6745,0.2888 C0.2885,0.3618 0.5505,0.3328 0.8395,0.2708" id="Fill-78" fill="#E61F1F" mask="url(#mask-22)"></path>
                    </g>
                    <path d="M237.0411,3.75472 C236.8271,3.82372 236.6151,3.89072 236.3921,3.93372 C236.7511,3.96272 237.0311,3.97072 237.0411,3.75472" id="Fill-81" fill="#E61F1F"></path>
                    <g id="Group-85" transform="translate(194.000000, 4.370220)">
                        <mask id="mask-24" fill="white">
                            <use xlink:href="#path-23"></use>
                        </mask>
                        <g id="Clip-84"></g>
                        <path d="M0.2814,0.7278 C0.2834,0.7258 0.2814,0.7248 0.2834,0.7218 C0.2354,0.7228 0.1924,0.7218 0.1444,0.7218 L0.2814,0.7278 Z" id="Fill-83" fill="#E61F1F" mask="url(#mask-24)"></path>
                    </g>
                    <path d="M235.4523,3.92712 C235.8123,4.00312 236.1123,3.98712 236.3913,3.93412 C236.0973,3.90812 235.7493,3.86912 235.4523,3.92712" id="Fill-86" fill="#E61F1F"></path>
                    <path d="M303.2281,4.36752 L303.4341,4.38352 C303.4311,4.35852 303.4421,4.33752 303.4581,4.32252 L303.2281,4.36752 Z" id="Fill-88" fill="#E61F1F"></path>
                    <path d="M303.4586,4.32212 L303.6876,4.27712 C303.5816,4.27712 303.4906,4.28012 303.4586,4.32212" id="Fill-90" fill="#E61F1F"></path>
                    <path d="M304.1676,4.18202 L303.6876,4.27702 C303.8536,4.27802 304.0586,4.29002 304.1676,4.18202" id="Fill-92" fill="#E61F1F"></path>
                    <path d="M297.5763,4.19222 L297.5123,4.33022 C297.5473,4.30122 297.5693,4.25622 297.5763,4.19222" id="Fill-94" fill="#E61F1F"></path>
                    <path d="M295.8585,4.23182 C296.2685,4.26282 296.8865,4.52582 297.4585,4.43982 L297.5115,4.32982 C297.2425,4.53482 296.2475,3.99982 295.8585,4.23182" id="Fill-96" fill="#E61F1F"></path>
                    <path d="M288.6896,2.53112 L290.1286,2.64112 C289.8776,2.49412 289.5466,2.29712 290.2016,2.26212 C288.3866,1.82412 290.5756,2.59012 288.6896,2.53112" id="Fill-98" fill="#E61F1F"></path>
                    <path d="M284.2272,2.31822 C285.0002,2.25022 284.2182,2.10522 284.2592,2.02222 C283.7692,2.15622 283.6492,2.19022 284.2272,2.31822" id="Fill-100" fill="#E61F1F"></path>
                    <path d="M251.9767,2.31672 L252.0547,1.97172 C251.4587,2.02072 252.0487,2.10572 251.9767,2.31672" id="Fill-102" fill="#E61F1F"></path>
                    <polygon id="Fill-104" fill="#E61F1F" points="245.8116 4.10192 246.3916 4.31592 246.6676 3.99992"></polygon>
                    <polygon id="Fill-106" fill="#E61F1F" points="242.17 1.64192 242.43 1.59292 241.436 1.71792"></polygon>
                    <path d="M188.006,1.76452 L188.186,2.18952 C188.589,2.11352 188.673,1.63552 188.006,1.76452" id="Fill-108" fill="#E61F1F"></path>
                    <path d="M164.6232,2.19762 C164.3682,1.98562 163.7102,1.84862 163.3052,2.05762 C163.8312,2.08662 164.3552,2.25262 164.6232,2.19762" id="Fill-110" fill="#E61F1F"></path>
                    <polygon id="Fill-112" fill="#E61F1F" points="94.4967 1.50472 94.9667 1.36272 94.0807 1.48172"></polygon>
                </g>
            </g>
        </g>
    </g>
</svg>