<?xml version="1.0" encoding="UTF-8"?>
<svg width="250px" height="70px" viewBox="0 0 250 70" version="1.1" xmlns="http://www.w3.org/2000/svg" xmlns:xlink="http://www.w3.org/1999/xlink">
    <!-- Generator: Sketch 41.2 (35397) - http://www.bohemiancoding.com/sketch -->
    <title>nav_means_act</title>
    <desc>Created with Sketch.</desc>
    <defs>
        <polygon id="path-1" points="0.0705542152 30.9804186 24.7143708 30.9804186 24.7143708 0.1515889 0.0705542152 0.1515889"></polygon>
        <polygon id="path-3" points="3.9986949e-20 0.0173740194 3.9986949e-20 5.37229963 5.4353661 5.37229963 5.4353661 0.0173740194 0 0.0173740194"></polygon>
        <polygon id="path-5" points="27.5958078 33.5632286 27.5958078 0.0133600998 0.331735018 0.0133600998 0.331735018 33.5632286"></polygon>
        <polygon id="path-7" points="7.06066493 0.0174074074 0.02411491 0.0174074074 0.02411491 7.05372359 7.06066493 7.05372359 7.06066493 0.0174074074"></polygon>
        <polygon id="path-9" points="0.18351797 1 1.11635379 1 1.11635379 0.528 0.18351797 0.528 0.18351797 1"></polygon>
        <polygon id="path-11" points="0.280512895 1 1.21334872 1 1.21334872 0.0714 0.280512895 0.0714 0.280512895 1"></polygon>
        <polygon id="path-13" points="0.924813433 1 1.93227612 1 1.93227612 0.6655 0.924813433 0.6655"></polygon>
        <polygon id="path-15" points="0.410074627 1 1.34291045 1 1.34291045 0.3582 0.410074627 0.3582"></polygon>
        <polygon id="path-17" points="0.0473880597 1 0.980223881 1 0.980223881 0.4585 0.0473880597 0.4585"></polygon>
        <polygon id="path-19" points="0.54766791 1 1.48050373 1 1.48050373 0.0672 0.54766791 0.0672 0.54766791 1"></polygon>
        <polygon id="path-21" points="0.000209992765 5 245.489646 5 245.489646 0.63 0.000209992765 0.63 0.000209992765 5"></polygon>
        <polygon id="path-23" points="0.240764925 1 1.17360075 1 1.17360075 0.4492 0.240764925 0.4492 0.240764925 1"></polygon>
        <polygon id="path-25" points="0.380366959 1 1.31320278 1 1.31320278 0.2708 0.380366959 0.2708"></polygon>
        <polygon id="path-27" points="0.0663246269 1 0.999160448 1 0.999160448 0.7218 0.0663246269 0.7218"></polygon>
    </defs>
    <g id="Page-1" stroke="none" stroke-width="1" fill="none" fill-rule="evenodd">
        <g id="Artboard-2" transform="translate(-127.000000, -182.000000)">
            <g id="nav_means_act" transform="translate(129.000000, 183.000000)">
                <g id="Page-1" transform="translate(83.000000, 9.000000)">
                    <path d="M46.4180718,17.7083704 C46.5726051,17.999365 46.6083801,18.1236555 46.6876752,18.2066388 C47.1276709,18.6661817 47.6023352,19.0973258 47.9866399,19.5985447 C48.0231525,19.645753 47.3275684,20.3723176 47.2869988,20.3431812 C46.7643886,19.9688345 46.101629,19.605921 45.8526792,19.0652389 C44.622314,16.3946531 44.9689996,15.8447507 48.4863836,15.4408988 C47.7834231,16.2113523 47.0804627,16.9821746 46.4180718,17.7083704 M53.9389372,12.4568206 C53.9267663,15.044792 54.004955,17.4730667 51.5759427,18.9350474 C51.3162973,18.0329271 51.3162973,18.0329271 52.7631566,15.8425378 C52.223581,15.2074392 51.7861669,14.6925742 51.3487529,14.1777091 C52.2121477,13.6038337 53.0755425,13.0303272 53.9389372,12.4568206 M71.7998862,10.9944711 C71.5686395,8.87194361 70.2718877,8.33384324 68.3905649,9.18838645 C67.5529871,9.56900303 66.5641954,9.61694891 65.4806184,9.85077731 C65.857178,8.07124731 66.3867956,6.63397718 66.3783129,5.19965756 C66.3731495,4.37093137 65.5009032,3.54736857 65.0188626,2.72122408 C64.3538901,3.25600511 63.3942347,3.66096344 63.089594,4.3539659 C62.5577634,5.5640463 62.3475392,6.93935559 62.1561244,8.26745663 C61.9864698,9.44471254 61.6999009,10.1631632 60.2570985,10.0945637 C59.0141937,10.0359222 58.4274098,11.0453675 58.8493336,12.094276 C59.0934888,12.7020823 60.0771171,13.0122553 60.9272345,13.5927693 C59.4342734,18.0635387 57.8859901,22.6995371 56.4837573,26.8981214 C54.6005904,27.2466512 52.9999355,27.5428092 51.3989117,27.8389673 C51.2882674,27.7036123 51.177623,27.5682574 51.0666098,27.4332713 C51.420303,26.9977014 51.6954386,26.4356281 52.1457611,26.1556978 C52.8649494,25.7090635 53.7678073,25.5493668 54.4648667,25.0783907 C54.9561276,24.7464576 55.2349514,24.1006634 55.6085605,23.5946499 C54.9955908,23.2667738 54.4043811,22.7312551 53.7637503,22.6637621 C52.9748561,22.58041 52.1442858,22.8872637 50.929042,23.0941686 C51.2642944,22.2783509 51.4372684,21.4378227 51.63901,21.4308152 C54.0023733,21.349676 55.0158756,19.9175693 55.6624074,17.8780251 C55.8895972,17.1621561 56.7153728,16.6550361 57.0443554,15.9483876 C57.4747619,15.0245072 57.8778762,14.0098985 57.939837,13.0122553 C58.0257708,11.6325202 57.2117972,10.8948912 55.7409649,10.9457876 C54.3011131,10.9955775 52.8575731,10.9564832 51.4158772,10.9564832 C51.3233047,10.7230236 51.2311011,10.489564 51.1385287,10.2557356 C51.5929081,9.87770077 51.990859,9.35840994 52.5131003,9.1489233 C53.7589557,8.64881083 55.1191436,8.40981903 56.3203725,7.83114907 C56.892035,7.55601345 57.2066338,6.74609679 57.6377779,6.17849126 C56.947726,5.83844429 56.251773,5.20629622 55.5690973,5.2210488 C54.2727144,5.24870989 52.9844453,5.64702956 51.6220445,5.9048309 C51.4365308,3.86159853 53.1456172,4.67003993 53.8684937,4.12087513 C54.4110198,3.70890933 55.3282615,3.15790045 55.2876919,2.74740991 C55.2150354,2.01531311 54.6666082,1.19802016 54.0776115,0.699014135 C53.7235496,0.398799126 52.8195852,0.428304287 52.3290619,0.661026241 C49.8004696,1.8600422 47.3157663,3.15494994 44.8436027,4.46903602 C44.5341673,4.63352729 44.3906985,5.11114208 43.9713564,5.74402777 C45.5701672,5.52200144 46.8233989,5.34828981 48.1662526,5.16203848 C48.7309076,6.62844496 48.1754729,7.22776854 46.9034317,7.46897322 C45.3389206,7.7658689 43.7887932,8.13984681 42.2331336,8.48468838 C41.0577218,8.74507142 40.041269,9.25145373 40.2868994,10.6691767 C40.5314235,12.0795234 41.7739595,12.0489118 42.7826672,11.8881086 C44.5806379,11.6015398 46.3468906,11.1165487 48.4273732,10.646679 C48.2237876,11.1774031 48.1717848,11.8139769 47.9040254,11.9235148 C46.7861487,12.3826889 45.6155314,12.9300096 44.4415949,12.9890199 C42.1803931,13.1026148 41.4128901,13.7609487 42.0358178,16.0564502 C42.5761311,18.0476797 43.3882606,19.9983397 44.3320569,21.8376176 C45.4842335,24.0829603 45.8076838,24.0774281 47.9549218,22.8658724 C47.7635071,23.4858496 47.4747254,24.1043516 46.9901031,24.4370222 C46.3988934,24.8423494 45.5753307,24.9079984 44.9811705,25.310375 C44.5492887,25.6028449 44.001968,26.2851517 44.0926963,26.6462211 C44.2048159,27.0913802 44.8815906,27.5841164 45.3931363,27.6951296 C46.1953078,27.86921 47.0631284,27.7412314 47.9032878,27.7412314 C48.0028677,27.8765863 48.1020788,28.0119413 48.2016588,28.1469274 C47.805552,28.493613 47.4636609,28.9837675 47.0026428,29.1582167 C45.8025204,29.6125962 44.5522392,29.9367842 43.3174482,30.2967471 C41.8569428,30.7223591 41.6448745,31.631118 42.7598007,32.5011514 C43.3985874,32.9997886 44.5946529,33.3516377 45.3020391,33.100475 C48.803564,31.8572013 52.2257938,30.3911636 55.7789528,28.9620074 C55.5049236,30.6142964 55.2404836,32.209788 54.9756748,33.8052795 C55.6070852,33.6595978 55.8077203,33.434621 55.981432,33.1908346 C59.8421822,27.7648355 62.3962227,21.7424635 63.7737449,15.2642366 C64.2797584,12.8839078 65.5145493,11.8154522 67.8288604,11.5993269 C67.9265962,11.7708256 68.135714,11.9725672 68.1515731,12.1886925 C68.5867742,18.0915687 68.1703826,23.8421244 65.1106975,29.1228106 C64.4910891,30.191635 63.5937634,30.4811544 62.4589211,30.2576528 C61.4955777,30.0680821 60.5370288,29.8552762 59.576267,29.6524282 C59.6526116,30.2226154 59.9424998,30.4346838 60.2106279,30.6714627 C60.4865012,30.9152491 60.9194894,31.1487086 60.9766556,31.4456043 C61.5199194,34.2780997 62.9778432,33.6846772 65.1232371,33.0753956 C67.2505592,32.4712775 68.5458358,31.4905997 69.5014342,29.6166532 C71.6140037,25.4730222 71.7360813,20.9963517 71.8625846,16.5148866 C71.9145875,14.6748711 71.9983084,12.8156771 71.7998862,10.9944711" id="Fill-1" fill="#000000"></path>
                    <g id="Group-5" transform="translate(92.203627, 3.304799)">
                        <mask id="mask-2" fill="white">
                            <use xlink:href="#path-1"></use>
                        </mask>
                        <g id="Clip-4"></g>
                        <path d="M22.6792523,15.9406056 C21.6827155,15.9631032 20.6939238,16.3127394 19.5579751,16.5535753 C19.6527605,14.7264682 19.6306316,13.1697022 21.6273933,12.6205374 C22.0607504,12.5010415 22.5151298,12.1089917 22.7493271,11.7173106 C22.9672964,11.3532907 23.0488044,10.7698262 22.9101302,10.3836774 C22.8293598,10.1583317 22.192786,10.016707 21.8173328,10.0373606 C21.0966693,10.0768237 20.3841196,10.2586493 19.6682507,10.3814645 C19.5812104,10.2531171 19.4938014,10.1247696 19.4063924,9.99642216 C20.4047732,9.04340547 21.5340833,8.187387 22.3451064,7.09532725 C22.7401067,6.56349673 22.5416845,5.59056406 22.6117592,4.81752885 C21.9231826,5.11958793 20.9594703,5.23465806 20.6009826,5.76132517 C19.7464393,7.01603213 19.2175593,8.4872332 18.4743981,9.8245546 C18.1867228,10.342739 17.6759147,10.7366329 17.124537,11.3433327 C16.8689486,9.81053965 16.8221091,8.68639303 16.4477624,7.68469283 C16.2899098,7.26424429 15.4386859,7.10307235 14.9027984,6.82387977 C14.6936806,7.33837601 14.2326625,7.90450627 14.3256037,8.35704167 C14.5409914,9.40447487 15.0245072,10.3965859 15.4080743,11.4355364 C14.7888347,11.6446542 14.1836101,11.7084591 13.7712755,12.0241643 C13.2645244,12.4121572 12.9185764,13.0103743 12.5029224,13.5178631 C13.0749537,13.8781948 13.6060466,14.3890029 14.2300808,14.55792 C14.8994791,14.7390079 15.6562865,14.5988584 16.4142003,14.5988584 L16.4142003,17.2642808 C14.7327749,17.4534827 13.1612563,17.6301448 11.7409517,17.7902103 C11.7409517,14.5667715 11.8150834,11.3879593 11.7003821,8.21615453 C11.6609189,7.12778292 11.3972165,5.85942983 10.7554793,5.05688947 C10.4043679,4.61726257 9.05155627,4.97796316 8.12841356,4.97796316 C8.31355844,4.15993259 8.83727504,3.10475428 8.67389022,2.16980951 C8.5436987,1.42296013 7.69173719,0.482851952 6.95521462,0.233164531 C5.7624685,-0.172162612 5.91552652,1.02648454 5.78976077,1.77185865 C5.56884088,3.08151897 5.33316841,4.38822877 5.10376579,5.69641382 C4.93300467,5.56069008 4.76261237,5.42496634 4.59222007,5.28924261 C3.88741555,5.85463525 3.18261102,6.42002788 2.4778065,6.98542052 C2.98455763,7.58179358 3.49167758,8.17816664 4.23557644,9.05373228 C3.04098625,14.8813703 0.303644984,20.8978414 0.0705542152,27.4985146 C1.24485961,25.7890593 2.3328624,24.0526806 2.97164913,22.1639816 C4.46350381,17.7540665 5.72816875,13.2678068 7.11601774,8.82248558 C7.3107518,8.19882025 7.68325445,7.6304771 7.97351147,7.03668574 C8.56103298,7.44643866 8.72847476,7.67289076 8.70966522,7.8823774 C8.32204118,12.144029 8.1877927,16.4536265 7.42028971,20.6474163 C6.81469629,23.9590018 6.46690421,23.8951968 3.14167261,23.5890808 C3.36296132,24.3149078 3.50274202,25.0248757 3.79779362,25.6632936 C4.03678542,26.1800027 4.36724322,26.8460817 4.82457321,27.030489 C5.82037238,27.4313903 9.1692081,25.6979622 9.57785457,24.6494225 C10.1502547,23.181172 10.6311888,21.6775152 10.9723422,20.7020008 C12.9366483,20.5994704 14.6508981,20.5102173 16.3850639,20.4198578 C16.9290653,23.7598419 15.8724118,27.3572586 17.1171607,30.9804923 C18.6639688,30.0673076 19.1353137,28.9501685 19.1489598,27.5885053 C19.1707199,25.3763559 19.0980634,23.1597807 19.2389506,20.956114 C19.2721439,20.4386673 19.9053984,19.7467713 20.429115,19.5199504 C21.4267582,19.0880686 22.6467966,19.1160985 23.5743651,18.5968076 C24.1456588,18.2763078 24.3466627,17.2959989 24.7143708,16.611848 C24.0357521,16.3721185 23.3523388,15.9254842 22.6792523,15.9406056" id="Fill-3" fill="#000000" mask="url(#mask-2)"></path>
                    </g>
                    <path d="M93.4705414,20.1512133 C93.1828661,19.7750225 92.5116237,19.6175387 91.9761051,19.533449 C91.6618751,19.4840278 91.2971175,19.754 90.8379435,19.9236547 C90.6457911,18.1924394 91.1658196,17.1225085 92.5662083,16.3129607 C93.1729081,15.9622181 93.4207515,14.9900231 93.8316108,14.3003399 C93.1695888,14.1502324 92.5064603,14.0049195 91.8473888,13.8426411 C91.7629303,13.8219875 91.7009694,13.7109743 91.6910114,13.7013852 C92.483225,12.5433076 93.3687486,11.450879 93.9931516,10.2256773 C94.2122274,9.79637717 93.7903036,9.04067624 93.6608497,8.43360757 C93.1142666,8.67776277 92.3168897,8.7725481 92.067571,9.19299664 C91.2292557,10.6066626 90.6354643,12.1634287 89.8443572,13.6084439 C89.5282832,14.1856386 88.9418681,14.6149387 88.2448087,15.3617881 C88.1526051,13.6571274 88.2488656,12.4584803 87.963772,11.3586754 C87.8096076,10.7634088 87.0044855,10.3374281 86.4933086,9.83473388 C86.2163289,10.5310557 85.6328643,11.2734793 85.7291249,11.9137413 C85.9032054,13.0736629 86.482613,14.1727301 86.9030615,15.3252754 C85.949676,15.7033103 85.0018227,15.9839782 84.160188,16.4553231 C83.7769897,16.6703419 83.3381005,17.3131856 83.4070688,17.6676164 C83.4830446,18.0563469 84.0849499,18.5597787 84.5120371,18.6191578 C85.5185318,18.7589385 86.5571135,18.6637844 87.5248828,18.6637844 C88.2864847,21.0813635 86.9314602,21.5726244 85.1290637,21.7559252 C84.219936,21.8484976 83.3108082,22.1826436 83.6305704,23.3484662 C83.9108694,24.3704512 84.6005525,25.0564462 85.8312866,24.6802554 C86.208215,24.5648165 86.5888315,24.4637613 87.265975,24.2716089 C86.3686493,27.4854585 85.5487746,30.4201156 84.7292688,33.3551414 C87.2010636,31.8839404 88.3141458,29.5851195 89.1716395,27.1749167 C89.9664348,24.9424825 90.0014722,22.289231 92.9899761,21.5069754 C93.2743321,21.4324749 93.6398273,20.3732396 93.4705414,20.1512133" id="Fill-6" fill="#000000"></path>
                    <path d="M105.900771,9.00018041 C108.885218,8.16739725 111.802171,7.06574832 114.674499,5.88959886 C115.064336,5.72990218 115.302221,4.59616638 115.170923,4.01233302 C115.102324,3.70621698 114.075175,3.45173497 113.48876,3.46796281 C112.789119,3.48714116 112.097961,3.82128711 111.689314,3.93783249 C110.747731,2.57137474 110.163529,1.31777423 109.209405,0.489048036 C108.630736,-0.0136461368 107.481141,0.140887142 106.587503,0 C106.779655,0.823931608 106.942303,1.65597714 107.180557,2.46626261 C107.260958,2.74029179 107.595104,2.93318177 107.704273,3.20684214 C108.137631,4.29226323 108.309129,5.28068611 106.664585,5.41936036 C106.24008,5.45476656 105.737386,5.46767506 105.42168,5.69781532 C104.818669,6.13744221 104.324457,6.72570135 103.785251,7.25236846 C104.500382,7.87050158 105.397339,9.14069874 105.900771,9.00018041" id="Fill-8" fill="#000000"></path>
                    <path d="M85.9385009,9.25879314 C88.6983399,8.53222857 91.3943739,7.521308 94.0313977,6.41597092 C94.4636483,6.234883 94.7653385,5.01668869 94.6067483,4.41478341 C94.5060619,4.03195395 93.4571535,3.76087529 92.8102528,3.70481548 C92.3234177,3.66313945 91.8004387,4.04264957 91.6009101,4.11825655 C90.9178656,2.94468879 90.5088503,1.6383478 89.6240643,0.908832708 C88.8875417,0.30176403 87.1467373,-0.167736838 86.6374044,0.253449329 C85.5667359,1.1374977 86.8384083,2.01785793 87.4591231,2.79236839 C88.7064538,4.34876561 88.2660893,5.45447151 86.2689587,5.77755301 C85.9672685,5.82623653 85.5778003,5.76759502 85.3782717,5.93577444 C84.7984953,6.42519129 84.2943259,7.00459888 83.7602825,7.54860028 C84.4956986,8.15456251 85.4000317,9.40078673 85.9385009,9.25879314" id="Fill-10" fill="#000000"></path>
                    <path d="M23.9881012,23.6405673 C23.3113266,25.6683095 22.843301,27.3825593 22.1278009,28.9869024 C21.9548268,29.3748953 20.978206,29.4925471 20.3504837,29.5751615 C16.5269837,30.079331 16.5247709,30.0638408 15.4482013,25.9891781 C18.1910748,25.2349524 20.8170341,24.5128136 23.9881012,23.6405673 M30.3058937,10.6029745 C29.6884982,10.1017556 28.6418027,9.89927642 27.8049626,9.9472223 C26.2924543,10.0338937 24.795805,10.4045523 22.8436698,10.7316908 C23.9921582,8.56047976 22.6618443,7.7099935 21.4170953,6.87167813 C20.1144425,5.99463723 18.8715376,6.57773297 18.6104169,8.14593225 C18.5503001,8.50737047 18.5244831,8.88393008 18.5510378,9.24831881 C18.6683208,10.8463921 17.9557711,11.514684 16.3436829,11.6397121 C14.3303245,11.7964582 12.327293,12.1590029 10.3364323,12.5230228 C7.92807352,12.9637562 7.53233556,14.159084 9.07840597,16.0370874 C10.0033928,17.1601276 11.0928708,17.4872661 12.5146507,17.0690304 C14.106823,16.600636 15.7436217,16.2838243 17.5596644,15.8541554 C17.347596,17.2294647 17.2332635,18.201291 17.0436929,19.1587334 C16.4594907,22.1114624 16.0807182,22.3423402 13.1158184,21.6552388 C11.6162186,21.3074467 10.7885988,21.9060327 11.0076747,23.4856652 C11.4934034,26.9953041 12.5530074,30.3183228 15.1155306,32.9287919 C15.5300781,33.3510845 16.2831974,33.7291193 16.8382632,33.6774853 C19.644204,33.4185775 22.4483007,33.0818499 25.2228922,32.5987029 C25.8063567,32.4969101 26.7531036,31.600322 26.696675,31.1835616 C26.3868708,28.9009686 27.8820448,27.2700709 28.5632452,25.3699385 C29.4786428,22.8184798 29.3676296,22.0218404 26.9168572,20.8231933 C25.9653158,20.3577494 24.7312625,20.3861481 23.6211308,20.3547989 C22.7370824,20.3297195 21.8456578,20.5561716 20.8103954,20.6900513 C21.1880615,18.9713757 21.4469693,17.4629243 21.882908,16.0079511 C22.014206,15.5697995 22.5973017,15.0412883 23.0446737,14.962362 C25.09602,14.602399 27.1886735,14.469257 29.2326435,14.0790512 C30.0373968,13.9252556 31.2482148,13.4336258 31.3835697,12.8781912 C31.544004,12.2213326 30.9243957,11.104931 30.3058937,10.6029745" id="Fill-12" fill="#000000"></path>
                    <path d="M14.5651487,6.39218239 C18.0935971,5.99386272 21.6154069,5.53911443 25.138323,5.09284888 C26.6006725,4.907704 26.94367,3.99009351 26.5991973,2.71178242 C26.2067787,1.25533394 24.6887381,0.262854099 23.5712302,0.711701354 C20.7427917,1.84765004 17.9084522,2.96958377 15.1069373,4.1678621 C14.3309515,4.49979515 13.6611844,5.07994037 12.9427337,5.54649072 C12.9928925,5.72425932 13.0430513,5.90276554 13.0928412,6.08090295 C13.584471,6.19228493 14.0919597,6.44566049 14.5651487,6.39218239" id="Fill-14" fill="#000000"></path>
                    <path d="M9.4579161,7.52348401 C10.1391165,5.12397683 7.55262035,2.54559461 4.08760806,2.64001112 C3.83570775,2.82552482 3.13975478,3.14012359 2.7768413,3.6793304 C2.5632977,3.99651088 2.69164515,4.87392059 2.98927846,5.14794977 C4.28418619,6.33774537 5.64916868,7.46631776 7.08275067,8.48535224 C8.31311587,9.35981144 9.03709874,9.00648714 9.4579161,7.52348401" id="Fill-16" fill="#000000"></path>
                    <path d="M3.83006489,24.5534201 C3.99640023,23.726538 4.10003711,22.8867473 4.30620442,21.5840945 C3.81125535,22.1435861 3.66151666,22.2586562 3.58259036,22.410239 C2.83352809,23.8467715 2.8007036,25.8368946 0.574539239,26.1400601 C0.3676343,26.16809 0.046396865,27.0307471 0.154090701,27.3947671 C0.544296449,28.715123 0.884343425,30.1398534 1.66475492,31.2215864 C2.12282254,31.856685 3.37716068,31.9175394 4.27337993,32.2369327 C4.39619516,31.1751158 4.97117698,29.8577103 4.54630266,29.1053287 C3.68991538,27.5883947 3.50550812,26.1666148 3.83006489,24.5534201" id="Fill-18" fill="#000000"></path>
                    <g id="Group-22" transform="translate(0.000000, 12.525162)">
                        <mask id="mask-4" fill="white">
                            <use xlink:href="#path-3"></use>
                        </mask>
                        <g id="Clip-21"></g>
                        <path d="M4.41588985,1.05421939 C3.4864773,0.439774418 2.26275076,0.186030037 1.12827734,0.0189570657 C0.796713098,-0.0297264493 -0.0172605189,1.06048923 7.37629016e-05,1.0800364 C1.24740443,2.46714776 2.55632711,3.79819932 4.09280835,5.37229963 C4.78396673,4.36691129 5.47660038,3.81073901 5.43344908,3.31910927 C5.36263669,2.51804416 5.01558224,1.45069498 4.41588985,1.05421939" id="Fill-20" fill="#000000" mask="url(#mask-4)"></path>
                    </g>
                    <g id="Group-25" transform="translate(133.142037, 0.354283)">
                        <mask id="mask-6" fill="white">
                            <use xlink:href="#path-5"></use>
                        </mask>
                        <g id="Clip-24"></g>
                        <path d="M27.558115,18.2489418 C27.3748142,16.9289547 24.7901621,15.6742477 23.1102121,15.9593413 C20.7129178,16.3665126 18.2953387,16.6545567 15.8936186,16.9923908 C15.2242203,12.7318456 15.3178992,12.5389556 18.7563568,10.7948318 C18.9750638,10.6838186 19.264952,10.6126374 19.3870296,10.4319183 C19.7993642,9.82263676 20.4702378,9.1550825 20.4377821,8.54174398 C20.4038512,7.89521215 19.8093222,7.00563156 19.2199566,6.72348846 C18.2684152,6.26837136 17.1202956,6.22337599 16.0470454,6.00356254 C16.0470454,5.17336109 16.0363498,4.19452739 16.0492583,3.21569369 C16.0706496,1.59844207 14.8037717,-0.0951541428 13.4668191,0.0188095399 C11.7448242,0.166335343 11.6212713,1.55971655 11.5984048,2.89298099 C11.5688997,4.6042803 11.5910286,6.31668606 11.5910286,7.98151474 C10.1253597,8.36397539 8.81975635,8.70512881 7.51378419,9.04517578 C6.54785899,9.29707609 6.25797079,9.80677774 6.60354998,10.8184359 C7.34265425,12.9826395 8.49851892,13.6719538 11.6161079,13.5148388 C11.6161079,14.1912446 11.5216914,14.8768708 11.6352863,15.5263531 C11.9093155,17.0930771 11.3306455,17.6466677 9.73478515,17.8299685 C7.30503517,18.1087923 4.88966897,18.6310336 2.5133971,19.2285131 C-0.00339309346,19.86103 -0.364462496,21.131596 1.54378376,22.922928 C2.13573105,23.4787315 3.42805708,23.6159305 4.31542478,23.4610284 C6.15359628,23.1412662 7.93460154,22.4965785 9.73884211,21.9857704 C9.84727357,22.1273952 9.95607385,22.2693887 10.0648741,22.4113823 C8.58887847,24.7161042 7.20398,27.0872126 5.59041653,29.2908793 C4.98076615,30.1229248 3.90456542,30.5791484 4.6388751,31.8574595 C5.34589251,33.0892999 6.2557579,33.8431568 7.79039507,33.4393049 C9.03588166,33.1114288 10.2931703,32.8263352 11.5500901,32.5441921 C14.0340559,31.9861757 16.5217097,31.4432808 19.0071507,30.8944848 C19.304784,31.681535 19.3615814,32.3468763 19.7241261,32.6670073 C20.2290331,33.1132729 21.3624001,33.7022696 21.5309483,33.5337214 C22.4249547,32.6404527 23.7718653,31.4993406 23.7268699,30.4994845 C23.5896709,27.4645099 21.9425453,24.9200586 19.7351905,22.8764574 C19.2859744,22.4604347 18.1780557,22.7562239 17.37404,22.7237682 C17.3633444,23.4647166 17.2423732,24.2259497 17.3762529,24.9396058 C17.4920607,25.559583 17.8959126,26.1257132 18.2219446,26.8209286 C15.6151636,27.4608217 13.1961093,28.0549819 10.7763173,28.6491421 C10.645757,28.4853884 10.5151966,28.3220036 10.3846363,28.15825 C12.0771261,25.8527905 13.7452741,23.5281527 15.4905043,21.2632628 C15.7401918,20.9394436 16.3609066,20.7723707 16.8163925,20.7587245 C19.6204892,20.6746348 22.428274,20.5721044 25.2301578,20.6458673 C26.9215412,20.690125 27.7930498,19.9388499 27.558115,18.2489418" id="Fill-23" fill="#000000" mask="url(#mask-6)"></path>
                    </g>
                    <path d="M130.943607,23.2463415 C130.903407,23.0652536 130.751455,22.909245 130.482958,22.4585537 C130.128159,24.2004646 129.839008,25.6211381 129.55207,27.0303783 C127.823437,27.0104623 127.391555,27.5721668 127.955841,29.1536434 C128.241672,29.9532333 128.654376,30.7081966 129.02319,31.476806 C129.611081,32.7009014 130.693551,33.7180918 131.857899,32.9749305 C132.463861,32.5884129 132.468287,30.8468708 132.319654,29.7762023 C132.015014,27.5780679 131.428599,25.4182901 130.943607,23.2463415" id="Fill-26" fill="#000000"></path>
                    <path d="M130.049269,6.93821227 C131.943132,6.82314214 133.056214,7.97458103 134.397961,8.88850338 C135.511781,9.64752363 135.989396,8.90104307 136.013737,7.86799364 C136.074223,5.29588127 134.523358,3.72473147 131.357823,3.66977811 C131.061665,3.8272619 130.181674,4.11641247 129.544731,4.67996104 C128.701621,5.42570397 129.063797,6.99832903 130.049269,6.93821227" id="Fill-28" fill="#000000"></path>
                    <path d="M131.089105,13.3796683 C130.307218,13.0809285 129.310681,13.3446309 128.41188,13.3512696 C128.772581,14.2980164 128.890602,15.5069903 129.557049,16.1229106 C130.350001,16.8561138 131.613928,17.080353 132.757253,17.5601807 C133.982455,16.0074716 133.296091,14.2235159 131.089105,13.3796683" id="Fill-30" fill="#000000"></path>
                </g>
                <g id="icon_pen">
                    <path d="M21.8897778,10.722963 L19.3138519,10.5974074 L20.4931111,12.8911111 L21.8897778,10.722963 Z M17.6071852,9.93740741 C17.6012593,9.80703704 17.634963,9.6762963 17.7082963,9.56259259 C17.8312593,9.37185185 18.0471852,9.26074074 18.2742222,9.27148148 L23.0538519,9.50481481 C23.2805185,9.51555556 23.484963,9.64740741 23.5886667,9.84962963 C23.6923704,10.0518519 23.6812593,10.2944444 23.5579259,10.4851852 L20.9664444,14.5077778 C20.8434815,14.6985185 20.6271852,14.8096296 20.4001481,14.7988889 C20.1731111,14.7877778 19.9686667,14.6559259 19.864963,14.4537037 L17.6771852,10.1988889 C17.634963,10.1159259 17.6116296,10.027037 17.6071852,9.93740741 L17.6071852,9.93740741 Z" id="Fill-1" fill="#2D313A"></path>
                    <path d="M38.5658519,24.4331852 C38.5658519,24.4331852 42.8673333,15.880963 43.0043704,15.6083704 C44.7862222,12.0657778 45.6717778,8.91281481 43.1125185,7.62577778 C40.5536296,6.33874074 38.5502963,8.92911111 36.7684444,12.4713333 C36.6206667,12.765037 32.3417778,21.3028148 32.3417778,21.3028148 C32.0443704,21.8942963 31.9028889,22.5202222 31.8973333,23.1283704 L37.3632593,25.8772593 C37.8484444,25.5102222 38.2680741,25.025037 38.5658519,24.4331852" id="Fill-3" fill="#EEA74E"></path>
                    <path d="M35.5461111,29.9124074 L29.3238889,26.725 C29.3238889,26.725 27.8787037,28.2009259 27.3646296,29.2224074 C26.6935185,30.5568519 26.4324074,31.9505556 26.5438889,33.165 L32.0353704,35.9272222 C33.0772222,35.2927778 34.0405556,34.2524074 34.7116667,32.9175926 C35.2153704,31.9157407 35.5461111,29.9124074 35.5461111,29.9124074" id="Fill-5" fill="#00A158"></path>
                    <path d="M28.5344074,23.8313333 L27.7710741,24.6105926 C27.6066296,24.7787407 26.147,26.2857778 25.547,27.4791111 C24.7788519,29.0061481 24.4336667,30.690963 24.5744074,32.2228148 L24.6495926,33.0413333 L25.384037,33.410963 L30.8755185,36.1728148 L31.609963,36.5420741 L32.3118148,36.1146667 C33.6258889,35.3142963 34.7729259,34.0324444 35.5407037,32.5057778 C36.1292222,31.3357778 36.4758889,29.3035556 36.5136667,29.0757778 L36.6895926,28.0087407 L35.7273704,27.5157778 L29.5051481,24.3287407 L28.5344074,23.8313333 Z M28.8295926,25.6468889 L35.0518148,28.8346667 C35.0518148,28.8346667 34.7210741,30.838 34.2173704,31.8398519 C33.5458889,33.1746667 32.5832963,34.215037 31.5410741,34.8494815 L26.0495926,32.0872593 C25.9377407,30.8728148 26.1992222,29.4791111 26.8703333,28.1446667 C27.3844074,27.1231852 28.8295926,25.6468889 28.8295926,25.6468889 L28.8295926,25.6468889 Z" id="Fill-7" fill="#2D313A"></path>
                    <g id="Group-11" transform="translate(41.481481, 0.352963)">
                        <mask id="mask-8" fill="white">
                            <use xlink:href="#path-7"></use>
                        </mask>
                        <g id="Clip-10"></g>
                        <path d="M4.42922222,1.70174074 C3.41811111,1.21285185 2.19737037,1.63766667 1.70848148,2.64914815 C1.21959259,3.65988889 1.64477778,4.88062963 2.65588889,5.36951852 C3.667,5.85840741 4.88774074,5.43322222 5.37662963,4.42211111 C5.86514815,3.411 5.43996296,2.19025926 4.42922222,1.70174074 M2.01107407,6.70322222 C0.264407407,5.85914815 -0.470037037,3.75062963 0.374777778,2.00396296 C1.21922222,0.257666667 3.327,-0.476777778 5.07366667,0.367666667 C6.8207037,1.21248148 7.55440741,3.32025926 6.71033333,5.06692593 C5.86588889,6.81359259 3.75811111,7.54766667 2.01107407,6.70322222" id="Fill-9" fill="#2D313A" mask="url(#mask-8)"></path>
                    </g>
                    <path d="M31.1085556,22.1097037 L36.5826296,24.863037 C36.8818889,24.5945185 37.1241111,24.2778519 37.3048519,23.9182222 L42.0415185,14.5015556 C44.1663333,10.2763704 44.1937407,8.03118519 42.1326296,6.99451852 C40.0718889,5.95822222 38.285963,7.31859259 36.1607778,11.5437778 C36.0070741,11.8497037 31.4389259,20.9663704 31.4389259,20.9663704 C31.2567037,21.3282222 31.1467037,21.7111852 31.1085556,22.1097037 L31.1085556,22.1097037 Z M36.7296667,26.5952593 L29.6292963,23.0237778 L29.6148519,22.5834074 C29.5892963,21.7919259 29.7622593,21.0026667 30.1148519,20.3015556 C30.1141111,20.3026667 34.6833704,11.1841481 34.8370741,10.8782222 C35.8485556,8.86748148 38.5348519,3.52674074 42.7981852,5.67118519 C47.0622593,7.81562963 44.375963,13.1567407 43.3648519,15.1671111 L38.6285556,24.5837778 C38.2767037,25.283037 37.7452222,25.8919259 37.0911481,26.3448889 L36.7296667,26.5952593 Z" id="Fill-12" fill="#2D313A"></path>
                    <path d="M30.0227407,38.2858889 L24.2942222,35.4047778 C22.6471852,35.9410741 21.1612593,37.2758889 20.2816296,39.0251481 C19.4264444,40.7255185 19.3823704,42.0910741 19.3427407,43.2958889 C19.2927407,44.8373704 19.244963,46.2932963 17.4097778,47.4436667 C17.3012593,47.5118148 17.289037,47.6110741 17.2986667,47.6821852 C17.3053333,47.7344074 17.3360741,47.8607037 17.4871852,47.9077407 C19.7923704,48.6310741 23.2127407,49.0429259 26.4179259,46.8992222 C26.4371852,46.8862593 26.4575556,46.8736667 26.4782963,46.8625556 C27.7364444,46.1844074 28.8123704,45.0492222 29.5082963,43.6655185 C30.3879259,41.917 30.5742222,39.9281111 30.0227407,38.2858889" id="Fill-14" fill="#FFFFFF"></path>
                    <path d="M26.4177778,46.8991852 C23.212963,49.0428889 19.7922222,48.631037 17.4874074,47.9077037 C17.3359259,47.8606667 17.3051852,47.7343704 17.2985185,47.6821481 C17.2892593,47.611037 17.3014815,47.5117778 17.41,47.4436296 C19.2451852,46.2932593 19.292963,44.8377037 19.3425926,43.2958519 C19.3822222,42.0914074 19.4262963,40.7254815 20.2818519,39.0251111 C21.1614815,37.2762222 22.647037,35.941037 24.2944444,35.4047407 L30.0225926,38.2858519 C30.5744444,39.9280741 30.3881481,41.916963 29.5085185,43.6658519 C28.8125926,45.0491852 27.7366667,46.1843704 26.4781481,46.8625185 C26.4574074,46.874 26.4374074,46.8862222 26.4177778,46.8991852 M31.3074074,37.4854815 C31.2407407,37.3154815 31.1137037,37.1762222 30.9507407,37.0943704 L24.6974074,33.9491852 C24.5348148,33.866963 24.347037,33.8484444 24.1711111,33.8962222 C21.9874074,34.4873333 20.0874074,36.1143704 18.9581481,38.3591852 C17.9562963,40.3514074 17.9040741,41.9573333 17.8618519,43.2484444 C17.8155556,44.6721481 17.79,45.4565926 16.6233333,46.1884444 C16.0462963,46.5499259 15.7422222,47.1947407 15.8292593,47.871037 C15.9044444,48.4602963 16.2574074,48.9521481 16.772963,49.2114074 C16.8585185,49.2543704 16.9496296,49.2914074 17.0437037,49.321037 C19.6507407,50.1391852 23.5285185,50.5977037 27.2122222,48.1499259 C28.7222222,47.326963 30.0066667,45.9721481 30.8318519,44.3314074 C31.9611111,42.0865926 32.1344444,39.591037 31.3074074,37.4854815" id="Fill-16" fill="#2D313A"></path>
                    <path d="M28.9865185,38.8012963 L24.4983704,36.5438889 C23.1417037,36.9109259 21.9287407,37.9912963 21.0928148,39.4727778 C19.7561481,41.842037 20.9213333,44.6524074 19.8220741,45.7783333 C19.3320741,46.2798148 19.5091111,47.1261111 20.190963,47.2909259 C21.8146667,47.6835185 23.9139259,47.3798148 26.2672593,45.8053704 C27.2324444,45.2853704 28.0939259,44.4172222 28.6654074,43.282037 C29.4294815,41.7616667 29.5005926,40.1094444 28.9865185,38.8012963" id="Fill-18" fill="#E04444"></path>
                    <path d="M13.3712593,49.9825926 C13.2908889,49.9825926 13.2094074,49.9692593 13.129037,49.9414815 C7.65940741,48.0481481 8.31459259,43.1355556 8.7482963,39.8840741 C9.08533333,37.3562963 7.81792593,35.3607407 4.87348148,33.7833333 C-0.475777778,30.9177778 -0.0372592593,26.7244444 0.042,26.1951852 C0.390888889,21.1351852 5.39681481,19.797037 8.00088889,19.797037 C8.40977778,19.797037 8.74162963,20.1288889 8.74162963,20.5377778 C8.74162963,20.9466667 8.41051852,21.2777778 8.002,21.2785185 C7.75051852,21.2792593 1.8382963,21.3559259 1.51792593,26.3262963 L1.50755556,26.4107407 C1.48385185,26.5518519 0.964962963,30.0088889 5.57274074,32.4774074 C9.07644444,34.3548148 10.639037,36.9125926 10.2164444,40.0803704 C9.69051852,44.0259259 9.60644444,47.1544444 13.6134815,48.5414815 C14.0001481,48.6755556 14.204963,49.097037 14.0712593,49.4837037 C13.9653333,49.79 13.6782963,49.9825926 13.3712593,49.9825926" id="Fill-20" fill="#2D313A"></path>
                    <path d="M13.2786667,14.3340741 C11.7979259,14.3340741 10.5934815,15.5385185 10.5934815,17.0192593 C10.5934815,18.5 11.7979259,19.7044444 13.2786667,19.7044444 C14.7594074,19.7044444 15.9638519,18.5 15.9638519,17.0192593 C15.9638519,15.5385185 14.7594074,14.3340741 13.2786667,14.3340741 M13.2786667,21.1859259 C10.9812593,21.1859259 9.112,19.3166667 9.112,17.0192593 C9.112,14.7218519 10.9812593,12.8525926 13.2786667,12.8525926 C15.5760741,12.8525926 17.4453333,14.7218519 17.4453333,17.0192593 C17.4453333,19.3166667 15.5760741,21.1859259 13.2786667,21.1859259" id="Fill-22" fill="#2D313A"></path>
                    <path d="M28.9268148,11.8340741 C28.9268148,12.55 28.3464444,13.1303704 27.6305185,13.1303704 C26.9145926,13.1303704 26.3342222,12.55 26.3342222,11.8340741 C26.3342222,11.1181481 26.9145926,10.5377778 27.6305185,10.5377778 C28.3464444,10.5377778 28.9268148,11.1181481 28.9268148,11.8340741" id="Fill-24" fill="#2D313A"></path>
                    <path d="M49.357963,12.7042963 C49.2812963,12.7042963 49.2035185,12.6920741 49.1264815,12.6668889 C48.737963,12.5391111 48.5264815,12.1205926 48.6542593,11.7317037 C49.8231481,8.17651852 47.1812963,6.74577778 47.0683333,6.68651852 C46.7075926,6.49762963 46.5646296,6.0517037 46.7512963,5.68985185 C46.9383333,5.328 47.3812963,5.18318519 47.7431481,5.36762963 C49.0953704,6.05466667 51.3205556,8.36540741 50.0616667,12.1946667 C49.9590741,12.5065185 49.6694444,12.7042963 49.357963,12.7042963" id="Fill-26" fill="#2D313A"></path>
                </g>
                <g id="Page-1" transform="translate(0.000000, 55.000000)">
                    <path d="M246.671455,3.25472 C246.246082,3.47072 245.756343,3.85172 246.03153,4.26172 C246.452239,3.83272 246.554851,4.01172 247.007276,3.50072 C247.369216,3.44872 247.637873,3.64472 247.577239,3.80872 C247.705037,3.69372 248.138806,3.90672 248.333769,3.62672 C247.862687,3.28072 247.267537,3.26672 246.644403,3.55172 C246.511007,3.45372 246.640672,3.33772 246.671455,3.25472" id="Fill-4" fill="#E61F1F"></path>
                    <path d="M211.35028,2.55802 L211.577892,2.61102 C211.515392,2.58102 211.437966,2.56502 211.35028,2.55802" id="Fill-6" fill="#E61F1F"></path>
                    <path d="M189.465951,2.31282 C189.631996,2.30182 189.701959,2.25782 189.710354,2.21682 C189.555504,2.24682 189.428638,2.27382 189.465951,2.31282" id="Fill-8" fill="#E61F1F"></path>
                    <path d="M185.729198,1.82022 C185.809422,1.83422 185.877519,1.84122 185.949347,1.85022 C185.865392,1.80922 185.781437,1.78622 185.729198,1.82022" id="Fill-10" fill="#E61F1F"></path>
                    <path d="M211.35028,2.55802 L210.765392,2.41702 C210.724347,2.56302 211.064832,2.52602 211.35028,2.55802" id="Fill-12" fill="#E61F1F"></path>
                    <path d="M241.800466,4.33242 C241.922668,4.31042 242.02528,4.26942 242.117631,4.21542 C242.017817,4.23442 241.919869,4.25042 241.820056,4.26242 C241.814459,4.28642 241.809795,4.30742 241.800466,4.33242" id="Fill-14" fill="#E61F1F"></path>
                    <path d="M220.997481,2.19572 L221.17472,2.19572 C221.227892,2.14472 221.276399,2.08272 221.323041,2.01372 L220.997481,2.19572 Z" id="Fill-16" fill="#E61F1F"></path>
                    <path d="M228.401399,2.12732 C228.233489,2.11032 228.175653,2.49032 228.111287,2.65532 C228.206437,2.49932 228.329571,2.42532 228.476959,2.39632 C228.478825,2.32332 228.457369,2.23732 228.401399,2.12732" id="Fill-18" fill="#E61F1F"></path>
                    <path d="M240.141138,2.79482 L240.350093,2.74182 C240.295989,2.75882 240.203638,2.77382 240.141138,2.79482" id="Fill-20" fill="#E61F1F"></path>
                    <path d="M215.698321,2.11362 C215.686194,2.05762 215.659142,2.00762 215.631157,1.97762 C215.631157,2.02562 215.657276,2.07062 215.698321,2.11362" id="Fill-22" fill="#E61F1F"></path>
                    <g id="Group-26" transform="translate(8.395522, 4.370220)">
                        <mask id="mask-10" fill="white">
                            <use xlink:href="#path-9"></use>
                        </mask>
                        <g id="Clip-25"></g>
                        <path d="M0.221455224,0.595 C0.227052239,0.568 0.218656716,0.551 0.221455224,0.528 C0.17761194,0.566 0.164552239,0.593 0.221455224,0.595" id="Fill-24" fill="#E61F1F" mask="url(#mask-10)"></path>
                    </g>
                    <path d="M0.0347014925,3.08582 L0.153171642,3.06482 C0.166231343,2.99382 0.179291045,2.92282 0.179291045,2.85282 L0.0347014925,3.08582 Z" id="Fill-27" fill="#E61F1F"></path>
                    <path d="M178.891418,1.33432 C178.904478,1.33832 178.909142,1.33832 178.921269,1.34132 C179.101306,1.29832 178.999627,1.30532 178.891418,1.33432" id="Fill-29" fill="#E61F1F"></path>
                    <path d="M116.116325,1.61412 C116.827146,1.95312 114.958675,2.05012 116.029571,2.42612 C115.929757,2.27812 117.002519,1.83412 116.116325,1.61412" id="Fill-31" fill="#E61F1F"></path>
                    <path d="M241.608675,4.28262 C241.508862,4.28662 241.407183,4.29062 241.305504,4.28662 C241.443563,4.29862 241.536847,4.29762 241.608675,4.28262" id="Fill-33" fill="#E61F1F"></path>
                    <path d="M116.029291,2.42612 L116.029291,2.42912 L116.140299,2.46512 C116.09459,2.44912 116.06847,2.43912 116.029291,2.42612" id="Fill-35" fill="#E61F1F"></path>
                    <path d="M163.135261,1.56242 C163.16791,1.62942 163.23041,1.68042 163.295709,1.72842 C163.291045,1.68942 163.254664,1.64242 163.135261,1.56242" id="Fill-37" fill="#E61F1F"></path>
                    <path d="M174.873134,2.10192 L174.58209,2.05092 C174.697761,2.08592 174.791045,2.09792 174.873134,2.10192" id="Fill-39" fill="#E61F1F"></path>
                    <path d="M157.040858,2.09802 C156.883209,2.06902 156.829104,2.01602 156.613619,2.06702 C156.633209,2.08702 156.653731,2.10002 156.678918,2.11402 C156.757276,2.06102 156.861754,2.03702 157.040858,2.09802" id="Fill-41" fill="#E61F1F"></path>
                    <path d="M150.697761,2.10002 C150.731343,2.12902 150.775187,2.15102 150.814366,2.17702 C150.877799,2.16902 150.95056,2.16302 151.015858,2.15602 L150.697761,2.10002 Z" id="Fill-43" fill="#E61F1F"></path>
                    <g id="Group-47" transform="translate(27.052239, 4.370220)">
                        <mask id="mask-12" fill="white">
                            <use xlink:href="#path-11"></use>
                        </mask>
                        <g id="Clip-46"></g>
                        <path d="M0.842817164,0.4124 C0.703824627,0.3064 0.617070896,0.1874 0.549906716,0.0714 C0.647854478,0.3414 -0.284048507,0.4374 0.842817164,0.4124" id="Fill-45" fill="#E61F1F" mask="url(#mask-12)"></path>
                    </g>
                    <path d="M241.797295,4.11902 C241.759981,4.21502 241.705877,4.26202 241.608862,4.28302 C241.681623,4.27802 241.751586,4.27102 241.819683,4.26202 C241.83834,4.20602 241.842071,4.15302 241.797295,4.11902" id="Fill-48" fill="#E61F1F"></path>
                    <g id="Group-52" transform="translate(154.850746, 4.370220)">
                        <mask id="mask-14" fill="white">
                            <use xlink:href="#path-13"></use>
                        </mask>
                        <g id="Clip-51"></g>
                        <path d="M1.93227612,0.7215 L0.924813433,0.6655 C1.20652985,0.7015 1.57220149,0.7215 1.93227612,0.7215" id="Fill-50" fill="#E61F1F" mask="url(#mask-14)"></path>
                    </g>
                    <g id="Group-55" transform="translate(72.761194, 4.370220)">
                        <mask id="mask-16" fill="white">
                            <use xlink:href="#path-15"></use>
                        </mask>
                        <g id="Clip-54"></g>
                        <path d="M0.64141791,0.3582 L0.410074627,0.4042 C0.499626866,0.4122 0.581716418,0.4012 0.64141791,0.3582" id="Fill-53" fill="#E61F1F" mask="url(#mask-16)"></path>
                    </g>
                    <g id="Group-58" transform="translate(152.052239, 4.370220)">
                        <mask id="mask-18" fill="white">
                            <use xlink:href="#path-17"></use>
                        </mask>
                        <g id="Clip-57"></g>
                        <path d="M0.732089552,0.7215 C0.552052239,0.5875 0.361753731,0.5095 0.164925373,0.4585 C0.122947761,0.4885 0.0753731343,0.5135 0.0473880597,0.5565 L0.732089552,0.7215 Z" id="Fill-56" fill="#E61F1F" mask="url(#mask-18)"></path>
                    </g>
                    <g id="Group-61" transform="translate(27.052239, 4.370220)">
                        <mask id="mask-20" fill="white">
                            <use xlink:href="#path-19"></use>
                        </mask>
                        <g id="Clip-60"></g>
                        <path d="M0.54766791,0.0672 C0.549533582,0.0692 0.549533582,0.0712 0.549533582,0.0712 C0.549533582,0.0712 0.549533582,0.0692 0.54766791,0.0672" id="Fill-59" fill="#E61F1F" mask="url(#mask-20)"></path>
                    </g>
                    <g id="Group-64" transform="translate(0.000000, 0.370220)">
                        <mask id="mask-22" fill="white">
                            <use xlink:href="#path-21"></use>
                        </mask>
                        <g id="Clip-63"></g>
                        <path d="M41.2890858,1.1892 C41.5875933,1.1352 41.6874067,1.2102 41.7284515,1.2882 C41.5875933,1.2942 41.4224813,1.3072 41.2069963,1.3332 C41.1976679,1.3472 41.179944,1.3632 41.1715485,1.3792 C41.1995336,1.3072 41.2321828,1.2392 41.2890858,1.1892 M45.2760261,3.8192 C45.0465485,3.8042 44.7611007,3.8012 44.4579291,3.8042 C44.3926306,3.6732 44.4635261,3.5382 44.6528918,3.5452 C44.5502799,3.6322 44.9952425,3.7082 45.2760261,3.8192 M43.3907649,3.8252 L43.3907649,3.8332 C43.1976679,3.8412 43.0334888,3.8492 42.9280784,3.8542 C43.0241604,3.8492 43.157556,3.8412 43.3907649,3.8252 M20.9616604,4.9692 C21.9215485,4.9802 21.4122201,4.4812 21.6165112,4.1942 C22.7629664,4.0532 22.1463619,4.5622 22.5362873,4.8162 C23.2527052,4.6852 23.8012127,4.2272 24.3347948,4.2462 C24.3749067,4.3282 24.4784515,4.3582 24.3571828,4.4612 C25.1137127,4.0642 26.6034515,4.4412 27.4849813,3.9432 C27.5502799,3.9882 27.5838619,4.0292 27.5997201,4.0672 C27.4569963,3.8172 27.4346082,3.5642 27.464459,3.3832 C27.8954291,3.3752 28.2638993,3.0682 28.4252799,3.3942 C28.1612873,3.3842 28.1398321,3.5162 28.0157649,3.6182 L28.4672575,3.4762 C28.873041,3.9442 27.8515858,3.6382 27.8515858,3.9852 C28.73125,3.8332 29.7564366,3.4442 30.429944,3.5772 C30.5708022,4.0362 28.8534515,3.7312 29.7536381,4.1392 L28.7107276,3.9632 C29.5073694,4.6872 28.0763993,3.9132 28.8096082,4.6872 C30.1818097,4.8202 30.3441231,4.4542 31.7135261,4.5872 C32.0213619,4.3332 31.6109142,4.2102 31.9196828,3.9562 C33.8655784,3.4982 33.4513993,5.1082 34.8823694,4.4982 C35.2527052,4.1922 35.3963619,3.6122 36.4140858,3.9192 L36.0670709,4.4372 C37.3963619,4.4882 36.8254664,3.6922 38.2172575,4.0412 C37.970056,4.2452 37.1734142,4.2122 37.3739739,4.2742 C38.2760261,4.6842 38.0120336,3.9802 38.7041978,3.9802 L38.8487873,4.4392 C40.2629664,4.3672 41.8217351,4.0362 43.3879664,3.9522 C43.3012127,4.0882 43.0334888,4.2322 43.4000933,4.3722 C45.3758396,4.1432 47.6183769,4.4282 49.5241604,4.7012 L50.2527052,4.3042 C50.4215485,4.3092 50.5670709,4.4832 50.3833022,4.5602 C51.1258396,4.7102 50.4215485,4.3092 50.7788246,4.1532 C51.2013993,4.1262 51.3366604,4.3812 51.0689366,4.5002 C52.3805037,4.1642 54.8030784,3.7762 56.1846082,4.2012 L55.9150187,4.3182 C56.9905784,4.4792 57.1286381,3.5062 58.1267724,3.8762 L57.935541,3.9462 C60.2694963,4.1182 62.8487873,3.7542 64.6295709,4.3532 C64.9681903,3.7822 66.9402052,4.6072 67.0903918,3.8122 C68.4234142,4.2062 68.0418843,4.3482 69.91875,4.6132 C70.4196828,4.6502 70.6659515,4.1162 71.2853545,4.0332 L71.3002799,4.4492 L72.1426306,4.0132 L72.5903918,4.5102 L73.1715485,4.4042 C72.9402052,4.3792 72.6790112,4.2172 72.714459,4.0972 C73.623041,3.9092 74.9280784,4.3872 74.9504664,4.6002 L77.0987873,4.2482 C77.0512127,4.4162 76.6911381,4.4732 76.4066231,4.5802 C77.5530784,4.1552 76.6155784,5.0182 77.6659515,4.6292 C77.5250933,4.5342 77.742444,4.3812 77.7666978,4.2972 C78.2900187,4.5482 79.4821828,4.5512 80.3646455,4.4442 L80.1958022,4.7312 C81.7890858,4.8042 83.554944,4.5942 85.3431903,4.5992 C84.7013993,4.4652 84.8487873,3.9682 85.3739739,3.9202 L85.5829291,4.3592 C85.9215485,4.0882 85.0353545,4.1942 85.7303172,3.8612 C86.3982276,3.9122 86.179944,4.3612 85.7956157,4.5042 L86.6081157,4.3522 C86.6556903,4.4832 86.4653918,4.5532 86.4159515,4.7202 C86.7489739,4.4472 87.8180037,5.1612 88.299347,4.6872 L88.3441231,4.8182 C90.1323694,4.8212 90.9430037,4.6702 92.4000933,4.6482 C92.4280784,4.2692 92.998041,4.3532 93.4308769,4.0462 C94.5017724,4.1672 95.6892724,4.4652 96.9793843,4.4332 C97.8851679,4.2452 97.2433769,4.1122 97.6510261,3.8862 C97.7181903,4.2322 99.0055037,4.2002 98.3375933,4.4482 C99.8851679,4.3922 100.314272,4.3792 102.272295,4.0982 C102.059608,3.9572 101.820802,3.8952 101.943937,3.7772 C102.299347,3.7202 102.752705,3.9222 102.701399,4.0882 L102.608116,4.1242 C104.804944,3.6062 107.679011,5.1322 109.428078,4.4112 L109.330131,4.4472 L111.144496,4.0712 C111.979384,4.1312 110.643563,4.3312 111.261101,4.5452 C113.21819,3.9682 114.353451,4.6292 115.965392,4.2452 C117.212593,5.2652 120.392631,4.1722 122.076399,4.8242 L121.978451,4.5842 C122.414086,4.3482 122.505504,4.7212 122.826399,4.7762 C122.78069,4.5892 122.353451,4.5602 122.623974,4.4302 C126.311474,4.1402 130.234049,4.7812 134.013899,4.9982 C135.396362,5.0622 134.798414,3.7542 136.540951,4.3282 L136.046549,4.7742 C138.835728,4.2382 141.75084,4.7932 144.482183,4.3392 C144.318937,4.4412 144.314272,4.5752 144.047481,4.5742 C144.624907,4.8972 146.180877,4.5892 146.191138,4.3252 C146.616511,4.3552 146.290019,4.5642 146.551213,4.6992 C147.129571,4.8902 148.003638,4.2852 148.311474,4.6072 C148.363713,4.6602 148.14916,4.7122 148.042817,4.7372 C148.419683,4.5812 149.799347,4.7772 149.43834,4.4042 C150.463526,4.5822 151.39916,4.2372 152.217257,4.4592 C152.749907,4.0412 153.971922,4.6602 154.140765,4.0692 C154.067071,4.6802 155.937407,4.5622 156.58666,4.2742 C156.36931,4.4592 157.150093,4.4652 156.895429,4.7212 C157.635168,4.7122 158.31334,4.5992 158.184608,4.2852 C159.546549,5.0162 160.923414,3.6972 161.690205,4.6342 C163.887034,4.3062 165.920616,4.0842 167.897295,3.9402 C167.825466,4.5492 165.71166,4.0012 165.796549,4.6402 C167.671549,4.3902 168.753638,3.8672 170.61278,4.0142 C171.094123,4.0972 170.339459,4.2782 170.176213,4.3822 C172.049347,4.1312 173.798414,4.4372 175.465392,4.1062 C175.460728,4.1622 175.28069,4.2242 175.110914,4.2712 C175.439272,4.2512 175.874907,4.3592 175.837593,4.0842 L175.517631,4.1582 C174.993377,3.7572 176.821735,3.3192 176.880504,3.1072 C176.322668,3.9002 178.526959,3.3072 177.641698,4.3092 C177.857183,4.2562 178.128638,4.1262 178.079198,3.9402 C178.400093,3.9942 178.501772,4.1032 178.176213,4.3132 C179.352519,4.1622 178.935541,3.8682 180.00084,3.8742 C179.997108,4.0082 179.781623,4.0602 179.671549,4.2182 C180.21166,3.9572 180.753638,3.6952 181.654757,3.8092 C181.600653,3.8892 181.705131,3.9942 181.436474,3.9922 C182.983116,3.9522 184.073601,3.2962 185.770429,3.5492 C185.270429,4.1312 186.347854,3.7402 186.43834,4.2452 L187.350653,4.0942 L186.984049,3.8502 C187.783489,3.8582 188.490578,3.4912 189.178078,3.6562 L188.582929,3.8642 L190.081063,3.7682 L189.234049,3.5772 C190.042817,3.3172 189.147295,2.9392 190.21166,3.0802 C189.995243,3.1302 191.011101,3.0862 191.427146,3.3832 C191.427146,3.3832 191.424347,3.3832 191.424347,3.3842 C191.820802,3.2242 192.227519,3.0552 192.818004,3.1802 C192.971922,3.3412 192.694869,3.7372 192.794683,3.8452 C193.185541,3.4232 194.666884,3.7282 195.161287,3.2792 C194.996175,3.3842 194.98778,3.6492 195.041884,3.7032 L195.36931,3.3602 C195.739646,3.4702 195.79375,3.5232 195.734049,3.7342 C196.847854,3.7962 195.380504,3.0952 196.702332,3.3702 C196.598787,3.3972 196.648228,3.4492 196.43181,3.5012 C197.759235,3.6452 198.997108,3.2842 200.217257,3.4522 C200.577332,3.9602 199.151959,3.5762 199.56334,4.0042 C201.322668,3.9122 203.206063,3.3962 204.908489,3.5162 L204.592257,3.4602 C204.827332,2.7442 205.859049,3.8132 206.720056,3.4762 C206.509235,3.5292 206.443937,3.8732 206.50084,3.7932 C207.666884,3.9092 208.885168,3.6182 210.651026,3.3922 L210.432743,3.5762 C211.11931,3.7402 212.241511,3.6712 212.984049,3.7542 C213.204198,3.5712 213.628638,3.6012 213.371175,3.3342 C215.659422,4.3812 217.735914,2.7722 219.766698,3.6452 C219.52416,3.6472 219.18834,3.8052 219.381437,3.8052 L221.110914,3.6372 C220.973787,3.3252 220.883302,3.4482 220.520429,3.2052 C220.739646,3.0202 221.227519,2.8762 221.656623,2.8762 C220.878638,3.0842 221.663153,3.3772 221.998974,3.5522 C221.943004,3.4562 222.057743,3.3512 222.028825,3.2532 C222.932743,3.8092 222.180877,2.6262 223.414086,3.0002 L223.348787,3.1632 C223.810541,3.0802 224.235914,2.8632 224.734049,2.9102 C224.940205,3.2712 224.242444,3.0782 224.210728,3.3762 C224.909422,3.3552 225.590392,2.6912 226.222854,3.0512 C225.926213,3.1522 225.498974,3.1532 225.202332,3.2532 C225.891698,3.6772 225.970989,3.5692 226.483116,3.6372 L226.432743,3.6272 L227.616511,3.8192 L227.315205,3.7042 C228.190205,2.7632 229.096922,3.5322 230.276026,2.9162 C229.130504,3.4992 230.08666,3.2532 229.998974,3.6622 C230.299347,3.7762 230.757369,3.9032 230.626772,4.0182 C231.183675,3.6882 231.55681,4.2782 232.34319,3.7952 C232.378638,3.9272 232.939272,3.8092 232.81334,4.1392 C233.538153,4.0362 232.641698,3.9102 232.703265,3.7452 C233.819869,3.2952 235.327332,4.2902 236.933675,3.6732 C238.318004,3.4192 238.574534,2.9752 239.859981,2.7542 C240.29375,2.9652 239.504571,3.2332 239.504571,3.2332 C240.204198,3.4272 240.730317,3.3922 241.389832,3.2412 C241.256437,3.3562 241.394496,3.4532 241.595056,3.6012 C242.123974,3.5662 241.948601,3.1222 242.646362,3.3152 C242.526959,3.4622 242.373041,3.6972 242.118377,3.8452 C242.741511,3.7232 243.357183,3.4782 244.003638,3.3592 C244.174347,3.5882 243.613713,3.7072 243.386101,3.8562 C244.111847,3.7532 245.265765,3.6492 245.489646,3.2862 L245.02416,3.1562 C245.289086,3.1382 245.160354,3.4682 244.965392,3.5342 C244.34319,3.8192 244.068937,3.4092 244.033489,3.2762 L244.493377,3.1922 C244.021362,2.4192 242.646362,3.3152 241.720989,3.2712 L242.107183,2.7092 L241.157556,3.1752 C240.956063,3.0292 240.818004,2.7152 241.275093,2.6312 C240.610914,2.3542 240.687407,2.8312 240.117444,2.5222 C240.054944,2.4742 240.082929,2.4462 240.140765,2.4242 L239.493377,2.5912 C239.620243,2.4742 239.385168,2.1952 239.783489,2.2762 C238.620243,1.9522 237.906623,2.6972 237.469123,2.2722 L237.566138,2.2372 C235.952332,2.4272 237.410354,2.6502 236.199534,3.1332 L235.384235,2.1162 L235.225653,2.5282 C235.058675,2.5142 234.729384,2.4832 234.790951,2.3182 C234.170616,2.6002 234.896362,2.4972 234.536287,2.7642 C233.734981,2.3882 232.325466,2.9392 232.145429,2.2822 C231.858116,2.5962 232.91222,2.5242 232.055877,2.7422 C231.812407,2.0362 231.067071,2.8632 230.334795,2.5392 C230.559608,2.1752 231.253638,2.3682 230.520429,2.0422 C230.078265,2.6582 229.094123,1.9072 228.476586,2.0252 C228.447668,2.5162 227.133302,2.2302 226.096922,2.3932 C226.163153,2.2292 224.146362,2.1242 223.18181,1.9462 L223.210728,1.8642 C223.02416,2.3602 222.028825,2.2662 221.304944,2.3692 C221.333862,2.0722 221.463526,1.9552 221.85625,1.8222 L221.17528,1.8252 C221.014832,1.9832 220.802146,2.0672 220.360914,2.1242 L220.531623,1.7532 C219.62584,1.7742 218.706996,2.1902 217.540951,1.9422 C217.475653,2.2882 218.469123,2.9052 217.235914,3.1362 C217.189272,2.9492 217.144496,2.6292 217.467257,2.5532 C217.360914,2.5772 217.089459,2.7082 216.876772,2.6282 L217.36931,2.3142 C216.838526,2.1762 217.092257,2.5762 216.667817,2.5472 C216.676213,2.2802 216.353451,2.3572 216.414086,2.1462 C216.522295,2.1202 216.784422,2.2552 216.946735,2.1512 C216.46819,2.1032 215.889832,1.9452 215.698601,1.7432 C215.740578,1.8952 215.698601,2.1022 215.347854,2.1372 C214.442071,2.1562 215.03722,1.8162 214.509235,1.6792 C214.290019,1.8642 213.71166,1.6722 213.696735,2.0712 C213.430877,2.0692 213.382369,1.8832 213.279757,1.7752 C212.810541,1.9512 211.088526,1.8252 211.617444,2.2492 L211.73778,2.2772 C211.715392,2.2852 211.68834,2.2862 211.661287,2.2942 L211.665019,2.2942 L211.661287,2.2942 C210.123974,2.6912 208.46819,2.0692 206.943004,2.2392 L206.944869,2.1062 C206.034422,2.2582 204.91875,2.1962 204.268563,2.4832 C203.998974,2.4822 203.633302,2.2392 203.748041,2.0812 C203.052146,2.1812 202.97472,2.3312 201.969123,2.1102 C202.66875,1.8782 201.727519,1.9042 202.686474,1.9402 C201.781623,1.8252 201.577332,1.6122 200.60625,1.9762 C200.936474,1.6342 199.92528,1.5462 199.495243,1.6482 L200.128638,1.8932 C199.645429,1.9422 199.222854,1.9122 198.79375,1.8832 L199.026026,1.4342 C197.17528,0.8872 195.68834,2.3632 194.279757,1.4492 C193.790019,1.7632 195.284422,1.6702 194.846922,2.0382 C193.996175,1.9772 193.108116,1.3322 192.842257,1.3312 C191.676213,1.0822 191.754571,1.9872 190.534422,1.8172 C190.690205,1.9772 190.837593,2.4052 189.92528,2.5562 C189.073601,2.4962 188.878638,1.8832 189.415951,1.7552 C189.620243,1.7422 189.719123,1.7932 189.710728,1.8472 C189.985914,1.7882 190.346922,1.7202 190.009235,1.5462 L189.89916,1.7062 C189.476586,1.5432 188.304944,1.5602 188.579198,1.2972 C187.936474,1.4502 188.304944,1.5602 188.781623,1.6432 C187.68834,1.4112 187.074534,1.6362 185.949534,1.4802 C186.128638,1.5682 186.292817,1.7572 186.114646,1.7552 C184.465392,1.5572 185.388899,2.0592 184.271362,2.1292 C183.636101,1.8852 184.498041,1.5462 183.373041,1.7512 C182.686474,1.5852 183.228451,1.3262 183.50084,1.1952 C182.476586,1.5042 181.585728,0.9922 180.999907,0.9352 L181.540019,0.8062 C181.217257,0.8832 180.953265,0.8812 180.683675,0.8802 L180.992444,1.2002 C180.67528,1.1452 180.406623,1.1432 180.41222,1.0102 C180.085728,1.2202 180.66222,1.5432 180.013899,1.8302 C179.591325,1.6672 178.726586,2.0042 178.581063,1.5802 C179.910354,1.7242 178.434608,1.1522 179.559608,1.0842 C179.342257,1.1342 179.077332,1.1322 178.760168,1.0762 C178.71166,1.0292 178.804011,0.9882 178.891698,0.9642 C177.61931,0.5842 178.30681,1.4442 176.988713,1.4352 C177.15569,1.1952 176.682743,0.9802 176.46819,1.0312 C176.998974,1.0362 176.721922,1.4312 176.234981,1.6152 C175.388899,1.4282 175.316138,1.7532 174.873041,1.7312 L175.378638,1.8192 C175.207929,2.0592 174.784422,2.0272 174.195802,2.1032 C174.144496,1.9172 174.730317,1.9752 174.520429,1.8932 C173.866511,2.3142 173.041884,1.4572 172.129571,1.7402 C171.706996,1.5782 172.088526,1.2902 171.717257,1.1802 C170.695802,1.4912 170.609981,0.8522 169.535354,1.1082 C169.845056,1.4302 169.900093,1.3522 169.143563,1.6662 L170.909422,1.4392 L169.776026,1.9072 C170.308675,1.9122 170.901026,1.7052 171.220056,1.7602 C170.679944,2.0222 170.735914,1.9422 170.990578,2.2102 C170.261101,1.7272 169.544683,2.4912 168.700466,2.1652 L168.726586,1.3672 C167.458862,1.0122 166.473787,1.7762 164.828265,1.5762 L165.357183,1.7142 C165.136101,2.0312 164.340392,1.7592 163.80681,1.8872 C163.857183,1.6212 163.52416,1.5242 163.295616,1.3582 C163.323601,1.5562 162.091325,1.3402 161.941138,1.8722 L161.206996,1.5212 C159.876772,1.3772 159.689272,2.2802 158.411287,2.1902 C158.796549,1.9002 158.215392,1.7112 159.071735,1.5042 C158.645429,1.5012 158.262034,1.4532 158.254571,1.6372 C158.005504,1.4702 157.071735,1.9962 156.679011,1.7432 C156.498974,1.8602 156.440205,2.1392 155.96166,2.1172 C155.909422,2.0632 155.963526,1.9852 155.963526,1.9852 C155.96166,2.1172 155.213526,2.1652 155.632369,2.4602 C154.318004,1.6282 151.958862,2.5202 150.815205,1.8062 C149.883302,1.8962 148.762034,1.9812 147.916884,2.0012 C147.970989,1.9212 147.919683,1.8682 148.079198,1.8962 C146.913153,1.6472 147.361847,2.6602 146.035354,2.3842 C145.358116,1.9532 146.739646,2.1512 146.317071,1.9882 C146.133302,1.1112 144.716325,2.1072 143.822668,1.5952 L144.039086,1.5442 C143.35625,1.2462 142.373974,1.8762 141.258302,1.8142 C141.258302,1.8142 141.31334,1.7362 141.265765,1.6812 C140.502705,2.1282 139.059608,2.2762 137.985914,2.4002 C138.319869,2.0572 138.473787,2.2192 138.269496,1.8702 C137.789086,1.9192 138.410354,2.4302 137.450466,2.5282 C137.138899,2.3402 136.446735,2.1762 136.354384,1.8042 L137.260168,1.7832 C136.796549,1.3022 136.087593,1.8002 135.610914,1.7162 L135.671549,1.5062 C134.284422,1.5742 134.264832,2.1052 132.773228,2.0662 L132.928078,2.2262 C132.11278,2.7512 132.24431,1.9302 131.43181,2.3212 L131.185541,1.7882 C130.647295,1.9172 129.302146,2.3032 128.337593,2.4032 C128.884235,2.0082 130.012034,1.8062 130.710728,1.5712 C130.178078,1.5672 128.89916,1.6112 128.621175,1.8742 C128.83666,1.8222 129.107183,1.6922 129.318937,1.7742 C128.665019,2.1932 127.804944,2.3982 126.742444,2.3902 C126.930877,1.3562 123.973787,2.1292 123.203265,1.3272 C121.324534,1.7092 119.475653,1.1642 117.286287,1.2252 C118.062407,2.0282 116.647295,1.2482 116.781623,2.0732 C116.271362,2.1262 116.077332,2.1122 116.031623,2.0592 L114.486847,1.5662 C114.120243,1.3262 114.970989,1.3842 114.924347,1.1992 C113.807743,1.1352 114.456063,0.8492 113.717257,0.6292 C113.868377,0.9252 113.329198,1.0522 112.693004,0.9392 L113.588526,1.3202 C112.028825,1.7602 112.240578,0.6272 110.667817,1.0632 L111.165019,0.8032 C110.358116,0.9562 108.18834,0.7972 107.397295,1.4612 C107.254571,1.3652 107.066138,1.1402 107.420616,1.0802 C105.492444,0.9812 103.127705,1.7862 101.628638,1.3772 L101.775093,1.1762 C101.415019,1.2342 101.148228,1.5552 100.698601,1.3522 C100.720989,1.2682 100.84319,1.1502 100.676213,1.1382 C100.485914,1.2082 99.7209888,1.4922 99.2433769,1.3752 L99.6510261,1.1472 C97.7704291,0.8832 96.7638993,1.7002 95.1864739,1.8392 C95.1911381,1.2452 93.7107276,1.0512 92.9719216,0.9552 L92.998041,0.8712 C90.8068097,0.7972 89.2760261,1.3632 87.248041,1.5972 C85.9887127,0.9522 82.9821828,1.3272 80.9588619,0.9652 C81.2676306,1.0732 80.9084888,1.4282 80.5484142,1.4882 C80.0736007,1.3672 79.2359142,1.9002 79.3114739,1.3552 L79.4803172,1.3652 C79.123041,0.8312 78.1463619,0.9732 77.3842351,0.9592 L77.2592351,1.6712 C75.2648321,0.6342 72.0353545,2.0522 70.9476679,1.1242 C70.4672575,1.3022 69.8711754,1.3002 69.3935634,1.4782 L69.4196828,1.0962 C68.0875933,0.9982 67.4215485,0.9502 65.7741604,1.0412 L66.1099813,0.7682 C65.1808769,0.7432 64.9374067,1.8702 64.0801306,1.8932 L63.8217351,1.3222 C62.2004664,1.3312 60.5596082,0.8302 58.9579291,1.3472 C58.9840485,1.2642 59.0316231,1.0992 59.2946828,1.0762 C58.5306903,1.0612 56.3422575,0.6892 56.6202425,1.4732 C56.600653,0.9632 54.9467351,1.4232 54.0717351,1.6472 L54.2079291,1.2722 C53.4691231,1.7522 53.4448694,1.8832 52.413153,2.0172 C52.16875,1.9682 52.1986007,1.7152 52.5232276,1.8122 C51.7088619,1.6152 51.8888993,2.1682 50.9010261,1.9682 L51.2685634,1.7282 C50.429944,1.6982 50.4971082,1.8272 50.0353545,2.1072 C49.5083022,2.2582 48.4448694,2.0132 48.3208022,1.6722 C48.2079291,1.8792 47.7489739,2.1572 47.2545709,2.0592 C47.1883396,1.9302 47.3683769,1.8512 47.4588619,1.8122 C46.0568097,1.5562 45.3739739,2.2492 44.4094216,1.8792 C44.3898321,1.7552 44.3263993,1.6932 44.2471082,1.6552 C45.3609142,1.6642 46.2573694,1.6852 46.1734142,1.7122 C46.1734142,1.3652 45.2732276,1.3052 45.9896455,0.8262 C45.2676306,1.0872 44.032556,1.6552 43.1556903,1.4922 C43.1137127,1.4592 43.0717351,1.4252 43.0390858,1.3722 L43.1305037,1.3332 C42.9280784,1.2982 42.7461754,1.3312 42.5763993,1.3892 C42.2965485,1.3322 42.1183769,1.2902 41.8497201,1.2852 C41.7461754,0.9982 40.8180037,1.1302 40.3693097,1.1162 C40.4066231,1.4962 39.8189366,1.4352 40.3693097,1.7482 C40.2984142,1.7212 40.4541978,1.7032 40.7527052,1.6872 C40.8198694,1.6762 40.9000933,1.6702 40.9439366,1.6472 C40.935541,1.6582 40.924347,1.6702 40.913153,1.6812 C41.2079291,1.6702 41.5922575,1.6622 42.0278918,1.6552 C41.674347,1.8482 41.3040112,2.0102 40.8077425,1.8002 C40.5773321,2.0442 40.3236007,2.2942 40.1818097,2.4122 C39.5670709,1.8832 38.3842351,1.5972 38.2191231,1.2712 C36.8497201,1.4832 34.992444,1.4112 34.1314366,2.1242 C33.7415112,2.2152 33.6836754,1.9192 33.538153,1.8082 C33.7629664,1.7362 34.0306903,1.7472 34.151959,1.6452 C33.373041,1.8272 31.845056,1.7152 31.6594216,2.2132 C30.6780784,1.9892 32.2107276,1.7552 30.861847,1.8362 L31.04375,1.6842 C28.3907649,0.8882 26.73125,2.9562 23.7900187,1.9342 C23.9933769,1.9962 24.095056,2.0252 24.1370336,2.1092 C20.7834888,1.6582 17.2265858,2.5322 13.9178172,1.8172 C12.9765858,1.6732 12.8749067,1.9912 12.3012127,2.2332 L12.0978545,1.8252 L11.1155784,2.2952 C9.72472015,2.6402 8.70606343,1.2952 6.94393657,1.9462 L7.17154851,2.2212 C6.53815299,2.1692 5.16688433,2.3832 5.27229478,2.0672 C5.2079291,2.1172 5.06427239,2.3532 4.8170709,2.2102 L4.79841418,1.9962 L3.24337687,2.3622 C2.03908582,2.2082 3.4318097,1.5152 1.67341418,1.4742 C1.0204291,1.5562 -0.187593284,2.0952 0.0577425373,2.2372 C0.321735075,2.2482 0.73125,2.3702 0.751772388,2.5842 L0.153824627,2.6952 C0.0456156716,3.3242 -0.414272388,3.9672 1.05307836,4.4062 L2.07546642,4.0222 L2.40475746,4.3272 L1.54468284,4.3462 C2.03255597,4.6332 2.34225746,4.3792 2.68927239,4.2052 C2.7704291,4.3672 2.91408582,4.4812 3.11744403,4.5412 L4.12117537,3.9402 C4.24337687,4.1872 3.67154851,4.4282 4.34505597,4.5642 C4.81520522,4.2852 3.89449627,4.0132 4.67248134,3.8302 C5.16128731,4.1152 5.01949627,4.3482 5.5931903,4.1042 C5.67341418,4.2662 5.55214552,4.3692 5.32453358,4.4402 C5.83572761,4.2462 6.67714552,4.3582 6.94113806,4.0242 C7.45139925,4.3772 8.66688433,3.9322 8.61651119,4.5272 C8.77695896,4.3852 9.51669776,4.0602 9.98591418,4.0362 C9.12863806,4.7482 11.7433769,4.0772 11.5166978,4.8412 C12.151959,4.2012 13.8096082,4.5572 14.9346082,4.2012 C14.8711754,4.2522 14.748041,4.3552 14.6482276,4.3222 C15.2816231,4.3762 15.4653918,4.5692 15.8721082,4.6892 C15.9532649,4.1612 16.9383396,4.0402 17.470056,3.7132 C18.2452425,4.2242 16.9989739,4.3352 17.242444,4.8252 C17.2032649,4.3962 18.5903918,4.3972 18.3263993,4.0402 C18.9196828,4.3562 18.8375933,4.1932 19.1435634,4.6312 C19.2471082,3.9702 19.6958022,4.5202 20.1874067,4.1132 C21.0456157,4.4392 20.4084888,4.7332 21.3515858,4.5312 C21.8002799,4.7342 20.9616604,4.9692 20.9616604,4.9692" id="Fill-62" fill="#E61F1F" mask="url(#mask-22)"></path>
                    </g>
                    <path d="M40.7525187,2.05752 C40.7096082,2.06552 40.6853545,2.08152 40.6293843,2.08452 C40.6909515,2.11852 40.7487873,2.14652 40.807556,2.17052 C40.8439366,2.13052 40.88125,2.09052 40.9129664,2.05152 C40.8588619,2.05352 40.8028918,2.05452 40.7525187,2.05752" id="Fill-65" fill="#E61F1F"></path>
                    <path d="M211.617631,2.61952 L211.578451,2.61052 C211.611101,2.62552 211.640951,2.64052 211.661474,2.66452 C211.634422,2.64652 211.634422,2.63452 211.617631,2.61952" id="Fill-67" fill="#E61F1F"></path>
                    <g id="Group-71" transform="translate(70.895522, 4.370220)">
                        <mask id="mask-24" fill="white">
                            <use xlink:href="#path-23"></use>
                        </mask>
                        <g id="Clip-70"></g>
                        <polygon id="Fill-69" fill="#E61F1F" mask="url(#mask-24)" points="0.407742537 0.5452 0.40494403 0.4492 0.240764925 0.5332"></polygon>
                    </g>
                    <path d="M221.999067,3.92222 C222.018657,3.95522 222.057836,3.99022 222.135261,4.01922 C222.129664,3.99422 222.070896,3.96022 221.999067,3.92222" id="Fill-72" fill="#E61F1F"></path>
                    <path d="M226.483396,4.00722 L227.117724,4.14222 C226.84347,4.06522 226.64291,4.02822 226.483396,4.00722" id="Fill-74" fill="#E61F1F"></path>
                    <path d="M229.931437,4.19522 C229.974347,4.12922 229.987407,4.07822 229.998601,4.03222 C229.995802,4.03122 229.993937,4.03122 229.992071,4.02922 L229.931437,4.19522 Z" id="Fill-76" fill="#E61F1F"></path>
                    <g id="Group-80" transform="translate(174.440299, 4.370220)">
                        <mask id="mask-26" fill="white">
                            <use xlink:href="#path-25"></use>
                        </mask>
                        <g id="Clip-79"></g>
                        <path d="M0.670615672,0.2708 C0.623973881,0.2728 0.578264925,0.2778 0.537220149,0.2888 C0.224720149,0.3618 0.437406716,0.3328 0.670615672,0.2708" id="Fill-78" fill="#E61F1F" mask="url(#mask-26)"></path>
                    </g>
                    <path d="M191.424627,3.75472 C191.251119,3.82372 191.081343,3.89072 190.900373,3.93372 C191.190485,3.96272 191.416231,3.97072 191.424627,3.75472" id="Fill-81" fill="#E61F1F"></path>
                    <g id="Group-85" transform="translate(156.716418, 4.370220)">
                        <mask id="mask-28" fill="white">
                            <use xlink:href="#path-27"></use>
                        </mask>
                        <g id="Clip-84"></g>
                        <path d="M0.17733209,0.7278 C0.179197761,0.7258 0.17733209,0.7248 0.179197761,0.7218 C0.140018657,0.7228 0.105503731,0.7218 0.0663246269,0.7218 L0.17733209,0.7278 Z" id="Fill-83" fill="#E61F1F" mask="url(#mask-28)"></path>
                    </g>
                    <path d="M190.141978,3.92712 C190.43209,4.00312 190.674627,3.98712 190.900373,3.93412 C190.6625,3.90812 190.381716,3.86912 190.141978,3.92712" id="Fill-86" fill="#E61F1F"></path>
                    <path d="M244.875,4.36752 L245.041045,4.38352 C245.038246,4.35852 245.048507,4.33752 245.060634,4.32252 L244.875,4.36752 Z" id="Fill-88" fill="#E61F1F"></path>
                    <path d="M245.060821,4.32212 L245.245522,4.27712 C245.160634,4.27712 245.08694,4.28012 245.060821,4.32212" id="Fill-90" fill="#E61F1F"></path>
                    <path d="M245.633396,4.18202 L245.245336,4.27702 C245.379664,4.27802 245.545709,4.29002 245.633396,4.18202" id="Fill-92" fill="#E61F1F"></path>
                    <path d="M240.310541,4.19222 L240.258302,4.33022 C240.28722,4.30122 240.304944,4.25622 240.310541,4.19222" id="Fill-94" fill="#E61F1F"></path>
                    <path d="M238.923601,4.23182 C239.253825,4.26282 239.753825,4.52582 240.215578,4.43982 L240.258489,4.32982 C240.041138,4.53482 239.237966,3.99982 238.923601,4.23182" id="Fill-96" fill="#E61F1F"></path>
                    <path d="M233.134328,2.53112 L234.296642,2.64112 C234.093284,2.49412 233.826493,2.29712 234.354478,2.26212 C232.888993,1.82412 234.656716,2.59012 233.134328,2.53112" id="Fill-98" fill="#E61F1F"></path>
                    <path d="M229.530131,2.31822 C230.154198,2.25022 229.522668,2.10522 229.55625,2.02222 C229.159795,2.15622 229.063713,2.19022 229.530131,2.31822" id="Fill-100" fill="#E61F1F"></path>
                    <path d="M203.486287,2.31672 L203.548787,1.97172 C203.067444,2.02072 203.544123,2.10572 203.486287,2.31672" id="Fill-102" fill="#E61F1F"></path>
                    <polygon id="Fill-104" fill="#E61F1F" points="198.507836 4.10192 198.976119 4.31592 199.199067 3.99992"></polygon>
                    <polygon id="Fill-106" fill="#E61F1F" points="195.566791 1.64192 195.776679 1.59292 194.973507 1.71792"></polygon>
                    <path d="M151.825933,1.76452 L151.971455,2.18952 C152.297015,2.11352 152.365112,1.63552 151.825933,1.76452" id="Fill-108" fill="#E61F1F"></path>
                    <path d="M132.94291,2.19762 C132.737687,1.98562 132.20597,1.84862 131.878545,2.05762 C132.302985,2.08662 132.727425,2.25262 132.94291,2.19762" id="Fill-110" fill="#E61F1F"></path>
                    <polygon id="Fill-112" fill="#E61F1F" points="76.3113806 1.50472 76.6910448 1.36272 75.9755597 1.48172"></polygon>
                </g>
            </g>
        </g>
    </g>
</svg>