<?xml version="1.0" encoding="UTF-8"?>
<svg width="255px" height="70px" viewBox="0 0 255 70" version="1.1" xmlns="http://www.w3.org/2000/svg" xmlns:xlink="http://www.w3.org/1999/xlink">
    <!-- Generator: Sketch 41.2 (35397) - http://www.bohemiancoding.com/sketch -->
    <title>nav_benefit_act</title>
    <desc>Created with Sketch.</desc>
    <defs>
        <polygon id="path-1" points="0 0.00103628681 0 25.6388696 16.9459336 25.6388696 16.9459336 0.00103628681 2.42143191e-21 0.00103628681"></polygon>
        <polygon id="path-3" points="0.129535851 35.7340278 32.2260183 35.7340278 32.2260183 0.0151114854 0.129535851 0.0151114854 0.129535851 35.7340278"></polygon>
        <polygon id="path-5" points="1.02798507 1.37749711 1.02798507 0.377497108 0.406902985 0.377497108 0.406902985 1.37749711 1.02798507 1.37749711"></polygon>
        <polygon id="path-7" points="0.18351797 1 1.11635379 1 1.11635379 0.528 0.18351797 0.528 0.18351797 1"></polygon>
        <polygon id="path-9" points="0.280512895 1 1.21334872 1 1.21334872 0.0714 0.280512895 0.0714 0.280512895 1"></polygon>
        <polygon id="path-11" points="0.924813433 1 1.93227612 1 1.93227612 0.6655 0.924813433 0.6655"></polygon>
        <polygon id="path-13" points="0.410074627 1 1.34291045 1 1.34291045 0.3582 0.410074627 0.3582"></polygon>
        <polygon id="path-15" points="0.0473880597 1 0.980223881 1 0.980223881 0.4585 0.0473880597 0.4585"></polygon>
        <polygon id="path-17" points="0.54766791 1 1.48050373 1 1.48050373 0.0672 0.54766791 0.0672 0.54766791 1"></polygon>
        <polygon id="path-19" points="0.000209992765 5 245.489646 5 245.489646 0.63 0.000209992765 0.63 0.000209992765 5"></polygon>
        <polygon id="path-21" points="0.240764925 1 1.17360075 1 1.17360075 0.4492 0.240764925 0.4492 0.240764925 1"></polygon>
        <polygon id="path-23" points="0.380366959 1 1.31320278 1 1.31320278 0.2708 0.380366959 0.2708"></polygon>
        <polygon id="path-25" points="0.0663246269 1 0.999160448 1 0.999160448 0.7218 0.0663246269 0.7218"></polygon>
    </defs>
    <g id="Page-1" stroke="none" stroke-width="1" fill="none" fill-rule="evenodd">
        <g id="Artboard-2" transform="translate(-605.000000, -73.000000)">
            <g id="nav_benefit_nor" transform="translate(607.000000, 74.000000)">
                <g id="Page-1" transform="translate(82.000000, 9.000000)">
                    <path d="M93.9662709,17.1337159 C93.0714909,17.4689011 92.5933696,17.738693 92.084517,17.8230253 C90.0340985,18.1617839 89.598858,19.7615963 89.1900608,21.4042896 C88.894183,22.5931607 89.8225531,22.7471743 90.5729676,23.0873623 C91.3844874,23.4550654 91.946941,23.2931903 92.2349573,22.42128 C92.7845466,20.7571463 93.3259171,19.0901539 93.9662709,17.1337159 M91.7325368,13.9169387 C94.2181958,13.9605342 94.9064332,12.7545108 94.8235302,10.8656101 C94.8028045,10.3907049 94.7534915,9.90186336 94.8367518,9.4408944 C94.9675384,8.71906704 95.1998096,8.0151067 95.3891999,7.30399954 C96.0449193,7.50875552 96.902536,7.52733722 97.3059731,7.96472172 C97.8301913,8.53396478 98.071396,9.41373654 98.2904456,10.2002425 C98.5023484,10.9613773 98.5663123,11.770753 98.6288469,12.5640484 C98.668869,13.0668262 98.6981709,13.6167729 98.5405838,14.0806006 C98.0599611,15.4978121 97.4274688,16.8642813 96.9632838,18.2864956 C96.2664703,20.4212465 95.6622079,22.5863712 94.9500287,24.9676868 C95.5875238,25.4944064 96.4933814,26.1461951 97.2777433,26.9216235 C97.9030888,27.5398221 98.7796445,28.2823752 98.8268134,29.0159948 C98.893636,30.0597858 98.6109798,31.4569863 97.9202411,32.1402209 C96.902536,33.1464911 96.3658109,31.6953322 95.7754847,31.0746322 C94.7191869,29.9633039 93.7232795,28.7948012 92.6798459,27.6255838 C90.6372889,28.8962858 88.7709006,30.0572844 86.905227,31.2179256 C86.7815873,31.0867817 86.6579476,30.9559952 86.5343078,30.8248513 C87.6170489,29.3350997 88.7001472,27.8449907 89.526318,26.707934 C88.4196351,25.6562815 86.9638308,24.8908587 86.6340058,23.7884639 C86.2948898,22.6553379 87.0553099,21.1934588 87.3933538,19.5968624 C85.6134419,20.5034347 84.2337511,20.517371 83.2042538,18.8782511 C82.5907005,17.9012828 82.7304206,17.2155468 83.7824303,16.7327801 C83.9982639,16.6341542 84.2158841,16.471207 84.4374351,16.4626309 C87.6141901,16.3386338 88.4335714,14.2724923 88.7194436,11.5531328 C88.9234849,9.61420444 89.4523485,7.70886608 89.8450655,5.79030613 C89.9165335,5.44189936 90.00837,5.09420727 90.1295084,4.76045145 C90.5472391,3.60945841 90.7920172,2.12470956 92.3728906,2.2040391 C93.6603876,2.26836035 94.6337826,4.88623522 94.1506585,6.3409675 C93.3337786,8.80054063 92.5715718,11.2776234 91.7325368,13.9169387" id="Fill-1" fill="#000000"></path>
                    <path d="M110.588883,18.1931941 C110.588883,21.4103286 110.768268,24.258688 110.544215,27.0745294 C110.255485,30.6972451 107.776972,32.8545084 104.774957,34.4393125 C104.404037,34.635135 103.517476,34.4185867 103.220526,34.0830442 C102.393998,33.1475274 101.751858,32.048706 100.940338,30.8752006 C105.047965,30.3949352 106.246484,29.2568064 106.628838,25.3210606 C106.828234,23.2699274 106.663857,21.1834175 106.663857,18.7610078 C105.038316,19.131927 103.645761,19.5753863 102.221403,19.7301146 C101.300895,19.8301699 100.192782,19.748339 99.4320049,19.3002343 C98.7877203,18.9207389 98.5215018,17.899103 98.0884054,17.1615527 C98.7058894,16.800639 99.2822793,16.2792796 99.9487189,16.1081136 C101.999852,15.581394 104.08529,15.188677 106.418365,14.6880433 C105.972047,13.9894431 105.54574,13.4498592 105.260225,12.8438101 C104.887162,12.0519441 104.625588,11.2079063 104.315774,10.386381 C105.206981,10.2530931 106.098188,10.1198052 107.489313,9.91183316 C107.950282,8.87197295 108.640664,7.31289732 109.331403,5.75382168 C109.132364,5.5915892 108.933326,5.42971405 108.734287,5.26783891 C107.629033,5.99466903 106.50091,6.68933853 105.426031,7.45833481 C104.498375,8.12227305 103.531413,8.73296758 102.595538,7.68310184 C102.003783,7.01916361 101.69647,6.10151378 101.261587,5.29749815 C101.976268,4.98482541 102.663433,4.52850187 103.410632,4.38663778 C105.565751,3.97712582 107.746598,3.44504615 109.914582,3.45719572 C111.186713,3.46434253 112.524595,4.30659356 113.664511,5.03663975 C113.901427,5.18815203 113.654148,6.76652403 113.181387,7.23035171 C111.715577,8.66864633 110.033934,9.88681934 108.418756,11.2043329 C108.864716,12.2970795 109.260292,13.2651143 109.701964,14.3478554 C111.13204,14.2631657 112.548894,14.1027199 113.963247,14.1255897 C114.746894,14.1380966 115.698849,14.2427973 116.258801,14.6962621 C116.842338,15.1690233 117.518783,16.3296645 117.303307,16.7952789 C116.999568,17.4513557 115.951489,18.016668 115.151046,18.1335183 C113.709178,18.344349 112.214424,18.1931941 110.588883,18.1931941" id="Fill-3" fill="#000000"></path>
                    <path d="M35.5210887,6.50319998 C38.8279156,6.49855456 39.8845708,7.60094931 40.9855362,10.4239375 C42.4895815,14.2799964 44.4410167,17.961316 46.5425349,21.6605025 L46.5425349,5.7785139 C50.1263005,6.14979045 51.9058551,8.84449348 50.8631362,11.9519245 C50.6412279,12.6130041 50.5204469,13.3462663 50.5347405,14.0423652 C50.6230035,18.3193709 50.8191833,22.5953047 50.852416,26.8723105 C50.8624215,28.1515887 50.5947736,29.4741051 50.2156356,30.7029983 C49.857938,31.8629248 49.2418834,32.0094343 48.124123,31.1060781 C45.8278543,29.2496954 44.9334316,26.5875103 43.6373584,24.1500923 C42.4188281,21.8591837 41.2896328,19.5211063 39.7966651,17.2541396 L39.7966651,23.914605 C39.7966651,25.5815974 39.7998812,27.2489471 39.7952358,28.9159395 C39.7916624,30.3531621 39.5944105,31.7578668 37.9113378,32.1219965 C36.8239514,32.3571264 35.0890643,30.1827108 35.1812581,28.6547238 C35.2702358,27.1792658 35.7762297,25.7173867 35.7737283,24.2501475 C35.7644374,19.0172565 35.6154265,13.7847228 35.5225181,8.55218913 C35.5114405,7.91183536 35.5210887,7.27112424 35.5210887,6.50319998" id="Fill-5" fill="#000000"></path>
                    <path d="M61.3195559,20.1749675 L61.3195559,27.094862 C62.2179094,26.8411504 63.0548003,26.716796 63.7930653,26.3769654 C66.7800727,25.002992 69.3457759,26.2136609 71.8721717,27.6287284 C72.2377308,27.8338417 72.7394365,28.4095169 72.6633231,28.652151 C72.5336085,29.063807 72.0419083,29.5404989 71.6181027,29.6444849 C70.6504253,29.8814015 69.6334348,29.9861022 68.6335967,30.0064706 C66.2640734,30.0543542 63.8927633,30.0218362 61.8001786,30.0218362 C61.4406943,30.4066917 61.3174119,30.4788745 61.2906114,30.5775004 C61.0433319,31.4912195 61.1723317,33.0770956 59.8069345,32.649002 C58.8778498,32.358127 57.8487098,31.0127408 57.6721837,29.9982518 C57.3516495,28.1561626 57.7222114,26.2065141 57.6468126,24.3076079 C57.4420566,19.152617 57.173694,14.0001275 56.8903232,8.84835276 C56.8002734,7.20887556 57.3134141,6.49169362 58.3704266,7.18636312 C60.4769476,8.5710567 62.539873,7.89282485 64.4455687,7.22995864 C66.9787539,6.34875751 68.9712833,7.35788646 71.0388541,8.3688021 C71.4269257,8.55890713 71.6116706,9.16388422 71.890396,9.57732692 C71.4465794,9.81781693 71.0166991,10.2309023 70.5564448,10.2687804 C68.2483839,10.4578134 65.9335336,10.6071816 63.6186833,10.6497051 C62.4508953,10.6711455 61.8266218,11.1796407 61.6733228,12.2509469 C61.4314034,13.9372357 61.2727444,15.635674 61.0594122,17.4984889 C62.6327815,17.1415059 63.8941926,16.633368 65.1584625,16.6262212 C66.6542889,16.6176451 68.1683397,16.9753427 69.639867,17.3219628 C70.036872,17.4155859 70.5853893,18.0620145 70.5621622,18.4225708 C70.5364337,18.8145731 69.9829136,19.394179 69.5616094,19.4985224 C68.2501706,19.8240594 66.8987097,20.046325 65.5504648,20.1517404 C64.1957878,20.2575131 62.8264599,20.1749675 61.3195559,20.1749675" id="Fill-7" fill="#000000"></path>
                    <g id="Group-11" transform="translate(0.000000, 6.774386)">
                        <mask id="mask-2" fill="white">
                            <use xlink:href="#path-1"></use>
                        </mask>
                        <g id="Clip-10"></g>
                        <path d="M5.13476539,20.845052 C6.57020128,20.5995593 7.74906686,20.1789698 8.89863053,20.2479364 C11.0469603,20.3772936 13.2217332,20.6274318 15.2921628,21.1773785 C15.9889763,21.3624808 16.4027764,22.6106703 16.9459336,23.3732345 C16.1837268,23.793824 15.4515365,24.4920669 14.652881,24.5785433 C12.8897641,24.7697203 11.0909131,24.6078452 9.31064387,24.6785985 C8.24648453,24.7207647 7.03331428,24.6453659 6.16176135,25.1234872 C4.26964457,26.1612033 2.76845807,25.4454508 1.14827725,24.6114186 C-0.153870724,23.9414055 -0.191034113,23.0805728 0.263860061,21.8148735 C0.732333165,20.5127256 1.11290056,19.111237 1.16257086,17.7401224 C1.28763996,14.2967914 1.27370369,10.8441697 1.17543511,7.3994094 C1.12362077,5.57876068 0.721970297,3.77061888 0.598330561,1.9485408 C0.555092387,1.31176043 0.871695874,0.651038252 1.02392283,0.00103628681 C1.56207729,0.151833884 2.15776353,0.203290884 2.6258793,0.474869495 C3.44347385,0.949417384 4.31073871,1.44897909 4.91428644,2.14793668 C5.39026369,2.69895538 5.75475077,3.57515375 5.72759291,4.29019164 C5.64254592,6.52428306 5.23553535,8.74693959 5.16156591,10.9806737 C5.05615053,14.1788691 5.13476539,17.3831394 5.13476539,20.845052" id="Fill-9" fill="#000000" mask="url(#mask-2)"></path>
                    </g>
                    <path d="M28.3617048,9.83057398 C28.3617048,16.1297684 28.3845746,22.4289628 28.3438378,28.7281572 C28.3349043,30.1053467 28.6172031,32.0267653 26.9048285,32.351945 C25.1795896,32.679626 24.3870089,30.8800604 23.6162259,29.5600454 C23.3961043,29.1834087 23.381096,28.645969 23.3875281,28.183928 C23.4768632,21.5252492 23.5719157,14.8662132 23.7112784,8.20824912 C23.7259293,7.50178739 24.0293112,6.80140044 24.1990479,6.09815478 C24.9680442,6.31899107 25.834237,6.3858137 26.4849536,6.79532566 C27.6002126,7.49642728 28.9856209,8.10533512 28.8469729,9.82056845 L28.3617048,9.83057398 Z" id="Fill-12" fill="#000000"></path>
                    <g id="Group-16" transform="translate(128.285160, 0.342261)">
                        <mask id="mask-4" fill="white">
                            <use xlink:href="#path-3"></use>
                        </mask>
                        <g id="Clip-15"></g>
                        <path d="M19.538473,18.0133447 C21.3919971,18.2191727 22.2392509,17.4766196 22.3671787,15.6506108 C21.388781,15.8239209 20.4943583,15.9822226 19.538473,16.1516019 L19.538473,18.0133447 Z M23.7901077,10.2744263 C22.3167937,10.5799523 20.9253107,10.8683259 19.4205507,11.1806413 C19.4634316,11.8795989 19.4977362,12.4377644 19.5320409,12.9984313 C24.5401649,12.5957088 23.671828,12.4488419 23.7901077,10.2744263 L23.7901077,10.2744263 Z M16.1133665,6.41443666 C14.3627565,6.64849454 12.6528832,6.82680734 10.9676665,7.13840806 C10.547077,7.21630824 10.0046344,7.65047668 9.8606263,8.04533768 C8.99872155,10.4069996 8.23722941,12.8047528 7.34387872,15.4844476 C10.4802543,14.7561881 13.2835888,14.1054715 16.1237293,13.4461786 L16.1237293,11.9260531 C15.0792237,12.0375433 14.062948,12.4070331 13.2307025,12.1586816 C12.4631355,11.9292692 11.8931778,11.0373478 11.2363864,10.4373735 C11.785261,10.0403685 12.2812493,9.4818456 12.8944453,9.28209239 C13.9332334,8.9433338 15.0459911,8.83112895 16.1133665,8.62601564 L16.1133665,6.41443666 Z M18.0812394,6.16179708 C19.055349,7.49288961 19.8089796,8.13431541 21.3408974,7.98351782 C22.8092086,7.83843766 24.4819184,8.0907199 25.8062215,8.71606539 C26.774971,9.17381828 27.3245604,10.5184897 28.061396,11.4679429 C27.9452604,11.6055189 27.8298395,11.7430949 27.7140613,11.8806709 C28.7507054,11.8806709 29.863463,11.6519731 30.7971932,11.9621445 C31.4075304,12.1651137 31.7587959,13.1488715 32.2261969,13.7827932 C31.5869152,14.0561585 30.9687165,14.4210029 30.3019195,14.5760886 C29.6769314,14.7218834 28.9979849,14.6157534 28.3465535,14.6714985 C25.8172991,14.8880467 24.9218043,16.483571 26.0470689,18.7412469 C26.5423425,19.7350102 25.8809056,20.5929842 24.543381,20.6869647 C22.9496433,20.7995269 21.3555484,20.908873 19.4898748,21.0378728 C19.4898748,23.9551989 19.329429,26.7363783 19.5327556,29.4903998 C19.7575226,32.5302935 18.3560341,34.285549 15.7638877,35.4726334 C14.7990689,35.9146633 14.1805129,35.8557021 13.7913694,34.8312076 C13.4826274,34.0182584 13.1931817,33.1978052 12.8336974,32.2119033 C13.4461786,32.2119033 13.8503305,32.1829588 14.2491222,32.2172634 C15.5501982,32.3291109 16.1330202,31.6705328 16.1398097,30.443069 C16.1555326,27.6504547 16.1448124,24.8574831 16.1448124,21.8229494 C15.3668826,22.0470018 14.6686397,22.3829016 13.9561032,22.417921 C13.1774588,22.4557991 12.3116233,22.368608 11.6262446,22.0394976 C11.2081565,21.8386724 10.876902,21.0846844 10.8611791,20.5683277 C10.8529602,20.2981785 11.5747876,19.9018881 12.0300391,19.7435864 C12.9251765,19.4330577 13.8539039,19.1185982 14.787634,19.0421274 C16.2362915,18.9234904 16.4313993,18.18058 16.0801338,16.9609776 C13.0909824,16.9163101 9.94603062,20.3374859 7.10267403,16.4088869 C5.11121666,22.1938686 4.34865251,28.2607919 0.129535851,33.0741654 C0.291053656,32.1093467 0.370025858,31.1223728 0.627310858,30.1836399 C2.72882903,22.5068987 4.86965464,14.8408777 6.98046366,7.16663794 C7.2656212,6.12927911 7.12232775,4.68526705 7.77518843,4.11995473 C8.41411285,3.56643464 9.82203355,3.93914055 10.8836915,3.82586368 C12.1690445,3.68864502 13.4451066,3.46780873 14.3002219,3.34452633 C14.0454383,2.39435853 13.3754253,1.2780275 13.6884554,0.780609837 C14.3849116,-0.326787684 15.6298851,-0.078436191 16.7022633,0.556200142 C16.8044626,0.616590649 16.9402519,0.654826059 17.0020717,0.743803788 C19.0231884,3.64898025 21.612476,2.51335284 24.2425005,1.93660564 C24.9343112,1.78509336 26.2271684,2.48297892 26.5830793,3.1454878 C27.1069401,4.12066941 26.379038,4.91039143 25.2044605,5.08191476 C22.9249869,5.41531324 20.6483719,5.77122416 18.0812394,6.16179708 L18.0812394,6.16179708 Z" id="Fill-14" fill="#000000" mask="url(#mask-4)"></path>
                    </g>
                    <path d="M158.151946,32.585038 C157.882154,32.978827 157.486578,34.0251194 156.738665,34.4474956 C156.372749,34.6543956 155.253559,33.8074991 154.648939,33.2493336 C153.618013,32.2973791 152.735025,31.1874802 151.770921,30.1615563 C150.898653,29.2331862 151.07911,28.1668829 152.201516,27.7545122 C154.001081,27.0930753 158.188037,30.0843708 158.151946,32.585038" id="Fill-17" fill="#000000"></path>
                    <path d="M148.392447,27.4922244 C150.00155,25.6347696 151.535969,23.7012014 153.286937,21.9888268 C153.609615,21.6736527 154.809564,22.2564747 155.604646,22.4244246 C155.45492,23.0615623 155.512809,24.0413893 155.121164,24.2786633 C153.01786,25.5529387 150.802707,26.6424692 148.626505,27.7956063 C148.548605,27.694479 148.470347,27.5933517 148.392447,27.4922244" id="Fill-19" fill="#000000"></path>
                    <path d="M141.698249,25.8456361 C141.337692,26.4406077 141.053607,27.0723853 140.95641,27.0448701 C139.52419,26.6407183 138.108766,26.1690291 136.724072,25.6251572 C136.643313,25.5937112 136.803402,24.4562971 136.942407,24.4348567 C137.931882,24.2844165 138.992825,24.0921674 139.93406,24.3165771 C140.580846,24.4705908 141.072546,25.2735344 141.698249,25.8456361" id="Fill-21" fill="#000000"></path>
                    <path d="M139.533624,28.2404235 C139.154486,29.6147542 138.834667,30.9226196 138.422296,32.2008258 C138.260063,32.7032462 137.890931,33.1392014 137.616494,33.6055304 C137.131226,33.1767221 136.48301,32.8329607 136.204642,32.2969503 C135.900903,31.712699 135.94021,30.9504921 135.867313,30.4959553 C137.237356,29.6533469 138.394423,28.9411678 139.533624,28.2404235" id="Fill-23" fill="#000000"></path>
                </g>
                <g id="Page-1">
                    <path d="M4.60622378,9.13297203 C3.0772028,9.13297203 1.83314685,10.377028 1.83314685,11.906049 L1.83314685,14.6787762 L3.2313986,14.6787762 L3.2313986,11.906049 C3.2313986,11.1476573 3.84818182,10.5308741 4.60622378,10.5308741 L7.51741259,10.5308741 L7.51741259,9.13297203 L4.60622378,9.13297203 Z" id="Fill-1" fill="#2D313A"></path>
                    <path d="M58.5852098,38.0282867 L57.8733217,35.3401748 C57.8327622,35.1873776 57.6764685,35.0968182 57.5236713,35.1366783 L56.6271678,35.3740909 C56.5537413,35.3936713 56.4915035,35.4415734 56.4533916,35.5066084 C56.4152797,35.5723427 56.4051399,35.6503147 56.424021,35.7233916 L57.1366084,38.4118531 C57.2436014,38.816049 57.1866084,39.2384266 56.9757692,39.601014 C56.7649301,39.9636014 56.4264685,40.2223427 56.0222727,40.3293357 L53.1848601,41.0810839 C53.1114336,41.1006643 53.0488462,41.1485664 53.0110839,41.213951 C52.9726224,41.2793357 52.9621329,41.3573077 52.9817133,41.4303846 L53.2187762,42.3268881 C53.253042,42.4548601 53.3687762,42.5394755 53.495,42.5394755 C53.5194755,42.5394755 53.543951,42.5366783 53.5684266,42.530035 L56.4061888,41.7782867 C57.195,41.5691958 57.8568881,41.0632517 58.2698252,40.3527622 C58.6820629,39.6426224 58.7943007,38.8170979 58.5852098,38.0282867" id="Fill-3" fill="#2D313A"></path>
                    <path d="M45.051958,35.9273077 C44.8921678,34.7454895 43.9012587,33.8717133 42.7498601,33.8126224 C42.6016084,33.8052797 42.4509091,33.8091259 42.2984615,33.8297552 L42.0344755,33.8657692 C41.868042,33.8881469 41.7072028,33.926958 41.5540559,33.9811538 C41.4914685,34.0028322 41.4313287,34.0287063 41.3715385,34.0552797 C41.3582517,34.0612238 41.3435664,34.0661189 41.3299301,34.0720629 C41.0393706,34.2080769 40.782028,34.398986 40.5690909,34.6294056 C40.5155944,34.6870979 40.4655944,34.7472378 40.4176923,34.8094755 C40.0376224,35.3084266 39.8467133,35.9517832 39.9369231,36.6189161 C40.0271329,37.286049 40.382028,37.8556294 40.880979,38.2356993 C40.9435664,38.2829021 41.0082517,38.3276573 41.0746853,38.3689161 C41.3414685,38.5346503 41.6400699,38.6503846 41.9561538,38.7038811 C41.9708392,38.7066783 41.9858741,38.707028 42.0005594,38.7094755 C42.0005594,38.7094755 42.3047552,38.7832517 42.780979,38.7189161 C43.2575524,38.6545804 43.4547552,38.5545804 43.4547552,38.5545804 C44.5145455,38.171014 45.2086014,37.0867483 45.051958,35.9273077" id="Fill-5" fill="#00A158"></path>
                    <path d="M49.4861189,18.3918881 L40.8238811,19.5632168 L40.7298252,18.8702098 L39.3438112,19.0572727 L39.4378671,19.7506294 L29.3889161,21.109021 L29.155,19.3761538 L27.768986,19.5639161 L28.0032517,21.2964336 L17.7812238,22.6782517 L17.6875175,21.9848951 L16.3015035,22.1726573 L16.3952098,22.8653147 L8.13716783,23.9817483 L7.13786713,16.5901399 C6.93122378,15.0618182 8.00674825,13.6495804 9.53506993,13.4432867 L15.0214336,12.7016783 L15.2710839,14.5495804 L16.6570979,14.3625175 L16.4074476,12.5139161 L26.6291259,11.1320979 L26.7382168,11.9408392 L28.1242308,11.7534266 L28.0151399,10.945035 L38.0637413,9.58629371 L38.3133916,11.4345455 L39.6994056,11.2471329 L39.4497552,9.39923077 L45.339965,8.60272727 C46.8686364,8.39608392 48.2801748,9.47160839 48.4868182,10.9999301 L49.4861189,18.3918881 Z M51.9532517,36.6408392 C52.1595455,38.1691608 51.084021,39.5813986 49.5556993,39.7876923 L43.6654895,40.5841958 L43.4934615,39.3135664 L42.1074476,39.500979 L42.2794755,40.7716084 L32.2308741,42.13 L32.0522028,40.8058741 C31.8742308,40.8642657 31.689965,40.909021 31.4983566,40.9352448 L31.234021,40.9709091 C31.0424126,40.9967832 30.8529021,41.002028 30.6661888,40.9936364 L30.8452098,42.3174126 L20.6231818,43.6992308 L20.4441608,42.3754545 C20.2665385,42.4334965 20.0822727,42.4786014 19.8903147,42.5044755 L19.6263287,42.5397902 C19.4347203,42.566014 19.2448601,42.5712587 19.0581469,42.5628671 L19.2371678,43.8862937 L13.7508042,44.6282517 C12.2224825,44.8348951 10.8109441,43.7593706 10.6043007,42.231049 L8.32458042,25.3677622 L16.5826224,24.2516783 L16.7147902,25.228951 C16.8927622,25.1709091 17.077028,25.1258042 17.2686364,25.0999301 L17.5326224,25.0639161 C17.7245804,25.038042 17.9140909,25.0327972 18.1008042,25.0415385 L17.9686364,24.0642657 L28.1906643,22.6824476 L28.3228322,23.6593706 C28.5004545,23.6013287 28.6847203,23.5565734 28.8763287,23.5303497 L29.1406643,23.495035 C29.3319231,23.4691608 29.5217832,23.4635664 29.7088462,23.471958 L29.5766783,22.4946853 L39.6249301,21.1366434 L39.7602448,22.1366434 C39.9717832,22.0583217 40.1938112,22.0002797 40.4263287,21.9688112 L40.6903147,21.9334965 C40.8420629,21.9128671 40.9920629,21.9076224 41.1406643,21.909021 L41.0109441,20.9488811 L49.6731818,19.7779021 L51.9532517,36.6408392 Z M45.1525524,7.21671329 L9.34765734,12.0572727 C7.06094406,12.3667133 5.44276224,14.4904895 5.75185315,16.7775524 L9.21828671,42.4184615 C9.52737762,44.7051748 11.6515035,46.3233566 13.9382168,46.0142657 L49.7431119,41.1737063 C52.0298252,40.8642657 53.648007,38.7404895 53.3392657,36.4534266 L49.8724825,10.8125175 C49.5637413,8.5258042 47.4392657,6.90762238 45.1525524,7.21671329 L45.1525524,7.21671329 Z" id="Fill-7" fill="#2D313A"></path>
                    <path d="M15.325035,21.5704895 C14.6432168,21.5704895 13.9662937,21.3411189 13.4194406,20.9246853 C13.3393706,20.8638462 13.2624476,20.7991608 13.1886713,20.730979 C12.9638462,20.5232867 12.7715385,20.2855245 12.6162937,20.023986 C12.5641958,19.9365734 12.5159441,19.8456643 12.4722378,19.751958 C12.3383217,19.4655944 12.2488112,19.1603497 12.2061538,18.844965 C12.1634965,18.5299301 12.1687413,18.2117483 12.2218881,17.8998601 C12.2393706,17.7981119 12.2613986,17.6981119 12.2883217,17.5995105 C12.3690909,17.3054545 12.4914685,17.0253846 12.6526573,16.7662937 C12.7054545,16.6816783 12.7624476,16.5984615 12.823986,16.518042 C13.3341259,15.8481119 14.0725874,15.416993 14.9026573,15.3047552 L17.2127972,14.9928671 C17.3201399,14.9781818 17.4264336,14.9694406 17.532028,14.9659441 L17.6351748,14.9641958 C17.9124476,14.9641958 18.1893706,15.0016084 18.4582517,15.075035 C18.6544056,15.1288811 18.8456643,15.2016084 19.0274825,15.2921678 C19.2977622,15.4260839 19.5477622,15.5984615 19.7704895,15.8044056 C20.3065035,16.2998601 20.6554545,16.9690909 20.753007,17.6893706 C20.8502098,18.41 20.6918182,19.1481119 20.3065035,19.768042 C20.1474126,20.0243357 19.951958,20.2568531 19.7260839,20.458951 C19.5746853,20.5942657 19.41,20.7155944 19.2358741,20.8190909 C18.9673427,20.9788811 18.6767832,21.0970629 18.3718881,21.1704895 C18.2673427,21.1956643 18.1624476,21.2148951 18.0558042,21.2295804 L15.746014,21.5421678 C15.6065035,21.561049 15.4648951,21.5704895 15.325035,21.5704895" id="Fill-9" fill="#EEA74E"></path>
                    <path d="M17.633951,14.265035 C17.5926923,14.265035 17.5514336,14.2657343 17.5101748,14.2671329 C17.3797552,14.2713287 17.2482867,14.2821678 17.1189161,14.3 L16.657028,14.3622378 L15.271014,14.5493007 L14.8091259,14.6118881 C13.7937413,14.7493007 12.8909441,15.2758741 12.2671678,16.0944056 C12.1933916,16.1916084 12.1231119,16.2937063 12.0584266,16.3975524 C11.8615734,16.713986 11.7122727,17.0559441 11.614021,17.4143357 C11.5808042,17.5353147 11.5535315,17.6590909 11.5325524,17.7825175 C11.4675175,18.1643357 11.4608741,18.5534965 11.512972,18.9388112 C11.5650699,19.3241259 11.6748601,19.6975524 11.8388462,20.0482517 C11.891993,20.1622378 11.9514336,20.2744755 12.0154196,20.3818182 C12.2049301,20.701049 12.4402448,20.9909091 12.7136713,21.2440559 C12.8031818,21.3265734 12.8982867,21.4066434 12.9954895,21.4807692 C13.6633217,21.9895105 14.4905944,22.2699301 15.3248601,22.2699301 C15.4961888,22.2699301 15.6692657,22.258042 15.8398951,22.234965 L16.3014336,22.1723776 L17.6877972,21.984965 L18.1496853,21.9227273 C18.2790559,21.9052448 18.4087762,21.8807692 18.5353497,21.8503497 C18.9077273,21.7604895 19.2633217,21.6157343 19.5926923,21.4202797 C19.8052797,21.2940559 20.007028,21.1461538 20.191993,20.9807692 C20.4671678,20.7346154 20.7056294,20.4506993 20.9003846,20.1374126 C21.3713636,19.3797203 21.5650699,18.4772727 21.4458392,17.5958042 C21.326958,16.7146853 20.9003846,15.8961538 20.2451399,15.2909091 C19.9738112,15.0402098 19.6689161,14.8297203 19.3384965,14.6657343 C19.1161189,14.5552448 18.8825524,14.4660839 18.6437413,14.401049 C18.3147203,14.3108392 17.9748601,14.265035 17.633951,14.265035 M17.633951,15.6636364 C17.8535315,15.6636364 18.0685664,15.6937063 18.2741608,15.7496503 C18.4276573,15.7916084 18.5755594,15.8482517 18.7164685,15.9185315 C18.9276573,16.0230769 19.1231119,16.158042 19.2958392,16.3178322 C19.6993357,16.6905594 19.9808042,17.2 20.0598252,17.7835664 C20.1388462,18.3667832 20.0024825,18.9325175 19.7126224,19.3993007 C19.5881469,19.598951 19.4356993,19.7807692 19.2598252,19.9381119 C19.1423427,20.0426573 19.0147203,20.1367133 18.8783566,20.2178322 C18.6731119,20.3398601 18.4482867,20.4328671 18.2077273,20.4909091 C18.1276573,20.5097902 18.0458392,20.5251748 17.9622727,20.5367133 L17.5003846,20.598951 L16.1143706,20.7863636 L15.6524825,20.848951 C15.5423427,20.863986 15.4332517,20.8713287 15.3248601,20.8713287 C14.7773077,20.8713287 14.2598252,20.6853147 13.843042,20.3681818 C13.7804545,20.3202797 13.7206643,20.2702797 13.662972,20.2167832 C13.4898951,20.056993 13.3395455,19.8723776 13.2178671,19.6671329 C13.176958,19.598951 13.1395455,19.5286713 13.1056294,19.4559441 C13.0038811,19.2381119 12.9329021,19.0013986 12.898986,18.7513986 C12.8650699,18.501049 12.8706643,18.2545455 12.9112238,18.0171329 C12.9248601,17.9384615 12.941993,17.8604895 12.962972,17.7835664 C13.0259091,17.5538462 13.1220629,17.3356643 13.2465385,17.1356643 C13.2877972,17.0692308 13.3322028,17.0045455 13.3797552,16.941958 C13.7598252,16.443007 14.3294056,16.0881119 14.9965385,15.9979021 L15.4584266,15.9353147 L16.8444406,15.7482517 L17.3063287,15.6856643 C17.3898951,15.6744755 17.4731119,15.6678322 17.5552797,15.665035 C17.5815035,15.663986 17.6077273,15.6636364 17.633951,15.6636364" id="Fill-11" fill="#2D313A"></path>
                    <path d="M19.9298951,26.7408042 C19.883042,26.6768182 19.8333916,26.615979 19.7809441,26.5572378 C19.623951,26.3813636 19.4417832,26.2285664 19.2421329,26.1044406 C19.0421329,25.979965 18.823951,25.8841608 18.5938811,25.8208741 C18.5173077,25.8002448 18.4393357,25.7827622 18.3603147,25.7694755 C18.3064685,25.760035 18.2515734,25.7554895 18.1963287,25.7498951 C18.1711538,25.7470979 18.145979,25.7425524 18.1204545,25.7408042 C17.9582168,25.7292657 17.7931818,25.7345105 17.6263986,25.7572378 L17.3624126,25.7925524 C17.1690559,25.8187762 16.9851399,25.8694755 16.8106643,25.936958 C16.4578671,26.074021 16.1463287,26.2866084 15.897028,26.5568881 C15.7372378,26.7296154 15.6026224,26.9247203 15.4973776,27.1362587 C15.4274476,27.2771678 15.3708042,27.4250699 15.3288462,27.5785664 C15.2659091,27.8086364 15.2358392,28.0498951 15.2438811,28.2970979 C15.2466783,28.3796154 15.2533217,28.4628322 15.2648601,28.546049 C15.4190559,29.686958 16.3477273,30.5397552 17.4477273,30.6509441 C17.6340909,30.6694755 17.8246503,30.6698252 18.018007,30.6436014 L18.2823427,30.6082867 C18.4491259,30.5855594 18.6096154,30.5463986 18.7627622,30.4925524 C18.7868881,30.4841608 18.809965,30.472972 18.8337413,30.4635315 C18.8851399,30.4436014 18.9368881,30.4243706 18.9865385,30.4012937 C19.2770979,30.2652797 19.5344406,30.0747203 19.7477273,29.843951 C19.9606643,29.6135315 20.1291958,29.3429021 20.2417832,29.0481469 C20.2980769,28.9005944 20.3403846,28.7463986 20.3673077,28.5887063 C20.4078671,28.3512937 20.4134615,28.1044406 20.3798951,27.8547902 C20.3683566,27.7712238 20.352972,27.6894056 20.3337413,27.608986 C20.2564685,27.2883566 20.116958,26.9953497 19.9298951,26.7408042" id="Fill-13" fill="#EEA74E"></path>
                    <path d="M20.6794056,32.2846853 C20.6325524,32.2206993 20.5829021,32.1598601 20.5304545,32.1011189 C20.3734615,31.9252448 20.1912937,31.7724476 19.9916434,31.6483217 C19.7916434,31.5238462 19.5734615,31.428042 19.3433916,31.3651049 C19.2668182,31.3441259 19.1888462,31.326993 19.1098252,31.3133566 C19.055979,31.3039161 19.0010839,31.2993706 18.9458392,31.2937762 C18.9206643,31.290979 18.8954895,31.2864336 18.869965,31.2846853 C18.7077273,31.2734965 18.5426923,31.2783916 18.3759091,31.3011189 L18.3759091,31.3011189 L18.1119231,31.3367832 C17.9185664,31.3626573 17.7346503,31.4137063 17.5601748,31.4811888 C17.2073776,31.6179021 16.8958392,31.8308392 16.6465385,32.1007692 C16.4867483,32.2734965 16.3517832,32.4686014 16.2468881,32.6801399 C16.176958,32.821049 16.1203147,32.9693007 16.0783566,33.1224476 C16.0154196,33.3525175 15.9853497,33.5941259 15.9933916,33.8413287 C15.9961888,33.9234965 16.0028322,34.0067133 16.0143706,34.0899301 C16.1685664,35.2308392 17.0972378,36.0836364 18.1972378,36.1951748 C18.3836014,36.2137063 18.5741608,36.2137063 18.7675175,36.1874825 L19.0318531,36.1521678 C19.1982867,36.1294406 19.3591259,36.0902797 19.5122727,36.0364336 C19.5363986,36.028042 19.5594755,36.0168531 19.5832517,36.0074126 C19.6346503,35.9878322 19.6863986,35.9682517 19.736049,35.9451748 C20.0266084,35.8091608 20.283951,35.6186014 20.4972378,35.3881818 C20.7101748,35.1574126 20.8787063,34.8871329 20.9912937,34.592028 C21.0475874,34.4444755 21.0898951,34.2906294 21.1168182,34.1325874 C21.1573776,33.8951748 21.162972,33.6486713 21.1294056,33.3986713 C21.1178671,33.3151049 21.1024825,33.2332867 21.0832517,33.1532168 C21.005979,32.8325874 20.8664685,32.5395804 20.6794056,32.2846853" id="Fill-15" fill="#EEA74E"></path>
                    <path d="M21.4444406,37.943951 C21.2573776,37.6894056 21.0231119,37.4733217 20.7566783,37.3079371 C20.4902448,37.1422028 20.1912937,37.0264685 19.8748601,36.972972 C19.821014,36.9635315 19.7661189,36.958986 19.7112238,36.953042 C19.6856993,36.9505944 19.6605245,36.946049 19.635,36.9443007 C19.4731119,36.9327622 19.3077273,36.938007 19.1409441,36.9603846 L18.876958,36.996049 C18.6836014,37.0222727 18.500035,37.072972 18.3252098,37.1404545 C17.2940909,37.5401049 16.6252098,38.6086364 16.7794056,39.7495455 C16.9336014,40.8904545 17.8626224,41.7429021 18.9622727,41.8544406 C19.148986,41.872972 19.3395455,41.872972 19.5329021,41.8470979 L19.7968881,41.8114336 C19.9636713,41.7887063 20.1241608,41.7498951 20.2773077,41.696049 C20.3014336,41.6873077 20.3245105,41.6764685 20.3482867,41.6666783 C20.3996853,41.6470979 20.4517832,41.6278671 20.5010839,41.6047902 C20.7916434,41.4687762 21.0493357,41.2778671 21.2622727,41.0474476 C21.4752098,40.817028 21.6437413,40.5463986 21.7563287,40.2516434 C21.8126224,40.1040909 21.8549301,39.9498951 21.8818531,39.7918531 C21.9224126,39.5547902 21.928007,39.3079371 21.8944406,39.0582867 C21.8605245,38.8079371 21.7895455,38.5715734 21.6874476,38.3537413 C21.6196154,38.2082867 21.5381469,38.0712238 21.4444406,37.943951" id="Fill-17" fill="#EEA74E"></path>
                    <path d="M31.5375175,25.1714685 C31.4906643,25.1074825 31.4413636,25.0466434 31.3885664,24.9879021 C31.2315734,24.812028 31.0494056,24.6592308 30.8497552,24.5351049 C30.6497552,24.4106294 30.4315734,24.3148252 30.2018531,24.2518881 C30.1252797,24.2309091 30.046958,24.2137762 29.9682867,24.2001399 C29.9140909,24.1906993 29.8591958,24.1861538 29.8043007,24.1805594 C29.7787762,24.1777622 29.7536014,24.1732168 29.7280769,24.1714685 C29.5658392,24.1602797 29.4008042,24.1651748 29.234021,24.1879021 L28.970035,24.2235664 C28.7766783,24.2494406 28.5931119,24.3001399 28.4182867,24.3676224 C28.0654895,24.5046853 27.7543007,24.7172727 27.5046503,24.9875524 C27.3448601,25.1602797 27.2102448,25.3553846 27.105,25.5669231 C27.0350699,25.7078322 26.9784266,25.8560839 26.9364685,26.0092308 C26.8735315,26.2393007 26.8434615,26.4809091 26.8518531,26.7281119 C26.8543007,26.8102797 26.8612937,26.8934965 26.8724825,26.9767133 C27.0266783,28.1176224 27.9556993,28.9704196 29.0556993,29.081958 C29.2420629,29.1004895 29.4326224,29.1004895 29.6256294,29.0742657 L29.889965,29.038951 C30.0567483,29.0162238 30.2175874,28.9770629 30.3703846,28.9232168 C30.3945105,28.9148252 30.4175874,28.9036364 30.4417133,28.8941958 C30.4931119,28.8742657 30.5448601,28.855035 30.5945105,28.831958 C30.8847203,28.6959441 31.1420629,28.5053846 31.3553497,28.274965 C31.5682867,28.0441958 31.7368182,27.7739161 31.8497552,27.4788112 C31.906049,27.3312587 31.9483566,27.1774126 31.9752797,27.0193706 C32.0154895,26.781958 32.0214336,26.5354545 31.9875175,26.2854545 C31.9763287,26.2018881 31.9609441,26.1200699 31.9413636,26.04 C31.8644406,25.7193706 31.7245804,25.4263636 31.5375175,25.1714685" id="Fill-19" fill="#E04444"></path>
                    <path d="M32.286993,30.7153497 C32.2401399,30.6517133 32.1908392,30.5905245 32.138042,30.5321329 C31.981049,30.3559091 31.7988811,30.2034615 31.5992308,30.0793357 C31.3992308,29.9548601 31.181049,29.8587063 30.9513287,29.7957692 C30.8744056,29.7751399 30.7964336,29.7576573 30.7177622,29.744021 C30.6635664,29.7349301 30.6086713,29.730035 30.5537762,29.7244406 C30.5282517,29.721993 30.5030769,29.7174476 30.4775524,29.7153497 C30.3153147,29.7041608 30.1502797,29.7090559 29.9834965,29.7317832 L29.7195105,29.7674476 C29.5261538,29.7933217 29.3425874,29.8443706 29.1677622,29.9118531 C28.814965,30.0485664 28.5037762,30.2615035 28.2541259,30.5314336 C28.0943357,30.7045105 27.9593706,30.8996154 27.8544755,31.1111538 C27.7845455,31.2517133 27.7279021,31.399965 27.6859441,31.5531119 C27.623007,31.7831818 27.5929371,32.0247902 27.6013287,32.271993 C27.6037762,32.3541608 27.6107692,32.4373776 27.621958,32.5209441 C27.7761538,33.6618531 28.7051748,34.5146503 29.8051748,34.6258392 C29.9915385,34.6443706 30.1820979,34.6443706 30.3751049,34.6184965 L30.6394406,34.5828322 C30.8062238,34.5601049 30.9667133,34.5212937 31.1198601,34.4670979 C31.143986,34.4587063 31.1670629,34.4475175 31.1911888,34.4380769 C31.2425874,34.4184965 31.2943357,34.3989161 31.343986,34.3761888 C31.6341958,34.2401748 31.8915385,34.0492657 32.1048252,33.8188462 C32.3177622,33.5884266 32.4862937,33.3177972 32.5992308,33.023042 C32.6555245,32.8751399 32.6978322,32.7212937 32.7247552,32.5632517 C32.764965,32.3261888 32.7709091,32.0793357 32.736993,31.8293357 C32.7258042,31.7457692 32.7104196,31.6643007 32.6908392,31.5838811 C32.6139161,31.2632517 32.4740559,30.9702448 32.286993,30.7153497" id="Fill-21" fill="#E04444"></path>
                    <path d="M33.0522028,36.374965 C32.8651399,36.1200699 32.6308741,35.9043357 32.3640909,35.7386014 C32.098007,35.5728671 31.7987063,35.4574825 31.4826224,35.4036364 C31.4287762,35.3941958 31.3738811,35.3896503 31.318986,35.3840559 C31.2934615,35.3812587 31.2682867,35.3767133 31.2424126,35.374965 C31.0805245,35.3634266 30.9154895,35.3686713 30.7487063,35.3913986 L30.4847203,35.4267133 C30.2913636,35.4529371 30.1074476,35.5036364 29.932972,35.5711189 C28.9022028,35.9704196 28.232972,37.0393007 28.3868182,38.1802098 C28.5413636,39.3211189 29.4703846,40.1739161 30.570035,40.2851049 C30.7567483,40.303986 30.946958,40.303986 31.1403147,40.2777622 L31.4043007,40.2424476 C31.5714336,40.2197203 31.7319231,40.1805594 31.8850699,40.1267133 C31.9091958,40.1183217 31.9322727,40.1071329 31.956049,40.0976923 C32.0077972,40.0777622 32.0591958,40.0585315 32.1088462,40.0354545 C32.3994056,39.8994406 32.6567483,39.7088811 32.870035,39.4781119 C33.082972,39.2476923 33.2515035,38.9770629 33.3644406,38.6823077 C33.4203846,38.5347552 33.4626923,38.3809091 33.4896154,38.2228671 C33.5301748,37.9854545 33.5357692,37.738951 33.5018531,37.488951 C33.4679371,37.2386014 33.396958,37.0022378 33.2952098,36.7844056 C33.2273776,36.6393007 33.1459091,36.5022378 33.0522028,36.374965" id="Fill-23" fill="#E04444"></path>
                    <path d="M40.7841259,22.6262587 L40.5201399,22.6622727 L40.5197902,22.6622727 C40.3533566,22.6846503 40.1928671,22.7234615 40.0393706,22.7776573 C39.9767832,22.7993357 39.916993,22.8252098 39.8572028,22.8521329 C39.8435664,22.8580769 39.8292308,22.8626224 39.8155944,22.8685664 C39.7428671,22.9028322 39.6722378,22.9398951 39.6040559,22.9808042 C39.3991608,23.1024825 39.2145455,23.2531818 39.0547552,23.4259091 C38.953007,23.536049 38.8620979,23.6556294 38.7816783,23.7822028 C38.6330769,24.0175175 38.5229371,24.278007 38.4603497,24.5535315 C38.3981119,24.8290559 38.3823776,25.119965 38.4222378,25.4154196 C38.4561538,25.6654196 38.5271329,25.9017832 38.6292308,26.1196154 C38.6631469,26.1923427 38.7005594,26.262972 38.7411189,26.3315035 C38.8627972,26.5363986 39.0134965,26.721014 39.1865734,26.8808042 C39.2439161,26.933951 39.3044056,26.9846503 39.3662937,27.0322028 C39.4288811,27.0794056 39.4935664,27.1241608 39.56,27.1654196 C39.8267832,27.3311538 40.1257343,27.4468881 40.4418182,27.5007343 C40.4565035,27.5031818 40.4711888,27.5038811 40.4858741,27.505979 C40.5509091,27.5157692 40.6159441,27.5248601 40.682028,27.5290559 C40.8439161,27.5405944 41.0093007,27.5356993 41.1757343,27.5133217 L41.4397203,27.4773077 C41.5914685,27.4566783 41.8795804,27.3738112 41.8795804,27.3738112 C42.973986,27.0112238 43.6970629,25.9056294 43.5372727,24.7238112 C43.5260839,24.6405944 43.5106993,24.5584266 43.4914685,24.4787063 C43.4334266,24.2381469 43.3407692,24.012972 43.2187413,23.8080769 C43.1372727,23.6713636 43.0435664,23.5437413 42.9386713,23.4262587 C42.7813287,23.2503846 42.5995105,23.0982867 42.3995105,22.9738112 C42.0551049,22.7594755 41.6558042,22.6308042 41.2355245,22.6091259 C41.0869231,22.6017832 40.9365734,22.6056294 40.7841259,22.6262587" id="Fill-25" fill="#00A158"></path>
                    <path d="M43.9681818,29.3519231 C43.8870629,29.2152098 43.793007,29.0875874 43.6881119,28.9704545 C43.5307692,28.7945804 43.348951,28.6421329 43.148951,28.5176573 C42.8041958,28.3033217 42.4048951,28.175 41.984965,28.152972 C41.8363636,28.1456294 41.686014,28.1498252 41.5335664,28.1704545 L41.2692308,28.2061189 C41.1027972,28.2284965 40.9423077,28.2676573 40.7888112,28.3215035 C40.7265734,28.3431818 40.6664336,28.3690559 40.6066434,28.395979 C40.593007,28.4019231 40.5786713,28.4064685 40.5653846,28.4127622 C40.2748252,28.5487762 40.0171329,28.7393357 39.8041958,28.9697552 C39.7024476,29.0802448 39.6115385,29.1994755 39.5314685,29.3263986 C39.2335664,29.7963287 39.091958,30.368007 39.1716783,30.9596154 C39.2618881,31.6263986 39.6171329,32.195979 40.1157343,32.576049 C40.1783217,32.6236014 40.243007,32.668007 40.3094406,32.7096154 C40.5762238,32.8753497 40.8751748,32.9907343 41.1912587,33.0449301 C41.2059441,33.047028 41.220979,33.0477273 41.2356643,33.0498252 C41.3003497,33.0596154 41.3653846,33.0687063 41.4314685,33.0736014 C41.5933566,33.0844406 41.7587413,33.0795455 41.9251748,33.0571678 L42.1891608,33.0211538 C42.3416084,33.0008741 42.4881119,32.9648601 42.629021,32.918007 C43.7234266,32.5550699 44.4465035,31.4494755 44.2867133,30.268007 C44.2755245,30.1844406 44.2601399,30.1026224 44.2409091,30.0225524 C44.1828671,29.781993 44.0902098,29.5571678 43.9681818,29.3519231" id="Fill-27" fill="#00A158"></path>
                    <path d="M26.9647203,18.9382168 C26.2832517,18.9382168 25.6063287,18.7088462 25.0598252,18.2920629 C24.9801049,18.2315734 24.9031818,18.1668881 24.8290559,18.0987063 C24.6042308,17.8906643 24.4119231,17.6532517 24.257028,17.3924126 C24.2045804,17.3046503 24.1563287,17.2133916 24.1126224,17.1196853 C23.9783566,16.832972 23.8888462,16.5277273 23.8465385,16.2126923 C23.8035315,15.8976573 23.8091259,15.5798252 23.8622727,15.2675874 C23.8797552,15.1661888 23.9017832,15.0658392 23.9287063,14.9672378 C24.0091259,14.6735315 24.1318531,14.3934615 24.293042,14.1343706 C24.3458392,14.0494056 24.4031818,13.9654895 24.4643706,13.8857692 C24.9745105,13.2161888 25.712972,12.7850699 26.5433916,12.6728322 L28.8528322,12.3605944 C28.9601748,12.3459091 29.0668182,12.3371678 29.1724126,12.3336713 L29.2738112,12.3319231 C29.5531818,12.3319231 29.8311538,12.3696853 30.100035,12.4434615 C30.2951399,12.496958 30.4867483,12.570035 30.6682168,12.6602448 C30.9377972,12.7941608 31.1877972,12.9665385 31.4108741,13.1721329 C31.9472378,13.6675874 32.2958392,14.3371678 32.3933916,15.0574476 C32.4909441,15.7780769 32.3322028,16.5161888 31.9465385,17.1361189 C31.7874476,17.3931119 31.5916434,17.6256294 31.3661189,17.827028 C31.2150699,17.9626923 31.0496853,18.084021 30.8752098,18.1875175 C30.6063287,18.3473077 30.3150699,18.4654895 30.0108741,18.5385664 C29.9101748,18.5633916 29.8042308,18.582972 29.6961888,18.5976573 L27.386049,18.9098951 C27.2472378,18.9287762 27.1052797,18.9382168 26.9650699,18.9382168 L26.9647203,18.9382168 Z" id="Fill-29" fill="#E04444"></path>
                    <path d="M29.2743357,11.6327622 C29.2330769,11.6327622 29.1918182,11.6334615 29.1505594,11.6348601 C29.0201399,11.6394056 28.8886713,11.6502448 28.7596503,11.6677273 L28.1243357,11.7533916 L26.7383217,11.9408042 L26.4495105,11.979965 C25.4344755,12.1173776 24.5316783,12.643951 23.9075524,13.4621329 C23.8334266,13.5596853 23.7631469,13.6617832 23.6988112,13.7656294 C23.5023077,14.0817133 23.3526573,14.4236713 23.2544056,14.7820629 C23.2211888,14.9033916 23.1939161,15.0268182 23.1729371,15.1502448 C23.1079021,15.5320629 23.1012587,15.9215734 23.1533566,16.3065385 C23.2054545,16.6922028 23.3152448,17.0652797 23.4792308,17.4163287 C23.5323776,17.529965 23.5918182,17.6422028 23.6558042,17.7495455 C23.8453147,18.0687762 24.0802797,18.358986 24.3540559,18.6117832 C24.4439161,18.6946503 24.5386713,18.7743706 24.6358741,18.8484965 C25.3040559,19.3572378 26.1313287,19.6376573 26.9652448,19.6376573 C27.1365734,19.6376573 27.31,19.6257692 27.4799301,19.603042 L27.7687413,19.5638811 L29.1547552,19.3761189 L29.7900699,19.2904545 C29.9197902,19.2733217 30.0491608,19.2484965 30.1757343,19.2180769 C30.5481119,19.1285664 30.9037063,18.9838112 31.2330769,18.7883566 C31.446014,18.6617832 31.6474126,18.5138811 31.8323776,18.3484965 C32.1079021,18.1026923 32.346014,17.8187762 32.5407692,17.5051399 C33.0113986,16.7474476 33.2054545,15.845 33.0862238,14.9635315 C32.9673427,14.0827622 32.5407692,13.2638811 31.8855245,12.6586364 C31.6141958,12.4079371 31.308951,12.1974476 30.9788811,12.0334615 C30.7565035,11.9233217 30.5225874,11.8341608 30.2841259,11.7687762 C29.9547552,11.6785664 29.6152448,11.6327622 29.2743357,11.6327622 M29.2743357,13.0313636 C29.4942657,13.0313636 29.708951,13.0614336 29.9145455,13.1177273 C30.068042,13.1596853 30.2159441,13.2163287 30.3568531,13.2862587 C30.568042,13.3911538 30.7634965,13.5261189 30.9365734,13.6859091 C31.3397203,14.0582867 31.6215385,14.5677273 31.7002098,15.1512937 C31.7792308,15.7345105 31.6428671,16.3002448 31.3526573,16.767028 C31.2288811,16.9666783 31.0760839,17.1484965 30.9002098,17.3061888 C30.7827273,17.4107343 30.6551049,17.5047902 30.5187413,17.5855594 C30.3138462,17.7075874 30.0886713,17.8005944 29.8481119,17.8586364 C29.768042,17.8778671 29.6862238,17.8932517 29.6026573,17.9044406 L28.9676923,17.9904545 L27.5816783,18.1778671 L27.2928671,18.2166783 C27.1830769,18.2317133 27.0736364,18.2390559 26.9652448,18.2390559 C26.4176923,18.2390559 25.9002098,18.0533916 25.4834266,17.7359091 C25.4208392,17.6883566 25.361049,17.638007 25.3033566,17.5845105 C25.1302797,17.4247203 24.9799301,17.2401049 24.8582517,17.0352098 C24.8173427,16.967028 24.7799301,16.8963986 24.746014,16.8236713 C24.6442657,16.6058392 24.5732867,16.3694755 24.5393706,16.1191259 C24.5054545,15.8691259 24.511049,15.6222727 24.5516084,15.3852098 C24.5652448,15.3061888 24.5823776,15.2282168 24.6033566,15.1512937 C24.6662937,14.9215734 24.7624476,14.7033916 24.8869231,14.5037413 C24.9281818,14.4373077 24.9725874,14.3722727 25.0201399,14.310035 C25.4005594,13.8107343 25.9701399,13.4561888 26.6369231,13.365979 L26.9257343,13.3268182 L28.3117483,13.1397552 L28.9467133,13.0533916 C29.0302797,13.0422028 29.1131469,13.0355594 29.1956643,13.0327622 C29.2222378,13.0320629 29.2481119,13.0313636 29.2743357,13.0313636" id="Fill-31" fill="#2D313A"></path>
                    <path d="M38.3092657,18.4632517 C36.7417832,18.4629021 35.4008741,17.2912238 35.1903846,15.7380769 C35.0781469,14.9076573 35.2973776,14.0810839 35.8082168,13.4111538 C36.3187063,12.7408741 37.0571678,12.3097552 37.8875874,12.1975175 L40.1973776,11.8856294 C40.3372378,11.8667483 40.4788462,11.856958 40.6183566,11.856958 C40.6907343,11.856958 40.7624126,11.8594056 40.8333916,11.8646503 C40.9372378,11.8712937 41.0414336,11.8842308 41.1438811,11.9017133 C41.5452797,11.9702448 41.9263986,12.115 42.2753497,12.3317832 C42.361014,12.3849301 42.4445804,12.4422727 42.5246503,12.5034615 C42.6033217,12.5636014 42.6805944,12.6286364 42.7547203,12.6968182 C42.9784965,12.9038112 43.1711538,13.1412238 43.3270979,13.4031119 C43.3788462,13.4905245 43.4267483,13.5810839 43.4708042,13.6747902 C43.6050699,13.9625524 43.6945804,14.2677972 43.7372378,14.5824825 C43.7798951,14.8985664 43.7746503,15.2167483 43.7215035,15.5282867 C43.7043706,15.6282867 43.681993,15.7282867 43.6554196,15.8268881 C43.5743007,16.1223427 43.4515734,16.4020629 43.2910839,16.6611538 C43.2382867,16.7457692 43.1812937,16.8282867 43.1204545,16.9087063 C43.0585664,16.9894755 42.9938811,17.066049 42.926049,17.1398252 C42.6463287,17.4422727 42.3173077,17.6831818 41.9473776,17.8562587 C41.8543706,17.899965 41.7582168,17.9391259 41.659965,17.9737413 C41.4596154,18.044021 41.2522727,18.0936713 41.0414336,18.1223427 L38.7305944,18.4349301 C38.5910839,18.4538112 38.4494755,18.4632517 38.3096154,18.4632517 L38.3092657,18.4632517 Z" id="Fill-33" fill="#00A158"></path>
                    <path d="M40.6181818,11.1577972 C40.4472028,11.1577972 40.2741259,11.1693357 40.1034965,11.1927622 L39.6993007,11.2473077 L38.3132867,11.4343706 L37.7937063,11.5046503 C36.7783217,11.6420629 35.8755245,12.1686364 35.2517483,12.9871678 C34.627972,13.806049 34.3601399,14.8161888 34.4972028,15.8315734 C34.7541958,17.7305245 36.393007,19.1626923 38.3090909,19.1626923 C38.4807692,19.1626923 38.6538462,19.1508042 38.8241259,19.1277273 L39.3437063,19.0574476 L40.7297203,18.8703846 L41.1342657,18.8154895 C41.3916084,18.7808741 41.6458042,18.7196853 41.8905594,18.634021 C42.0101399,18.5917133 42.1286713,18.5431119 42.2433566,18.4896154 C42.6961538,18.2777273 43.0986014,17.9833217 43.4391608,17.6147902 C43.5227273,17.5249301 43.6020979,17.4298252 43.6758741,17.332972 C43.75,17.2357692 43.8202797,17.1336713 43.884965,17.0301748 C44.0814685,16.7137413 44.2311189,16.3714336 44.329021,16.0133916 C44.3622378,15.8924126 44.3898601,15.7686364 44.4108392,15.6448601 C44.4758741,15.263042 44.4825175,14.8738811 44.4300699,14.4885664 C44.3783217,14.1036014 44.2685315,13.7298252 44.1045455,13.3794755 C44.0513986,13.2661888 43.991958,13.153951 43.9283217,13.0459091 C43.7384615,12.7263287 43.5031469,12.4361189 43.2297203,12.1836713 C43.1398601,12.1004545 43.0447552,12.0210839 42.9475524,11.946958 C42.8506993,11.8728322 42.7486014,11.8025524 42.6447552,11.7378671 C42.2185315,11.4728322 41.7524476,11.2962587 41.2597902,11.211993 C41.1353147,11.191014 41.0076923,11.1756294 40.8811189,11.1668881 C40.7940559,11.1609441 40.7062937,11.1577972 40.6181818,11.1577972 M40.6181818,12.5563986 C40.6741259,12.5563986 40.7297203,12.5584965 40.784965,12.5623427 C40.8657343,12.5675874 40.9458042,12.5773776 41.0248252,12.591014 C41.3409091,12.6448601 41.6398601,12.7602448 41.9066434,12.925979 C41.9730769,12.9672378 42.0381119,13.011993 42.1,13.0591958 C42.1625874,13.1067483 42.2227273,13.1574476 42.2804196,13.2105944 C42.4534965,13.3703846 42.6038462,13.555 42.7255245,13.7602448 C42.7664336,13.8287762 42.8034965,13.8990559 42.8377622,13.9717832 C42.9395105,14.1896154 43.0104895,14.425979 43.0440559,14.6763287 C43.077972,14.925979 43.0727273,15.1728322 43.0318182,15.4102448 C43.0185315,15.4892657 43.001049,15.5668881 42.9804196,15.6438112 C42.9171329,15.8735315 42.8213287,16.0917133 42.6968531,16.2920629 C42.6555944,16.3584965 42.6108392,16.4231818 42.5632867,16.4854196 C42.5160839,16.5476573 42.4653846,16.6077972 42.4122378,16.6654895 C42.198951,16.8959091 41.9416084,17.0868182 41.651049,17.2228322 C41.5783217,17.2563986 41.5038462,17.2871678 41.4272727,17.3140909 C41.2741259,17.3679371 41.1136364,17.4067483 40.9465035,17.4294755 L40.5426573,17.4843706 L39.1566434,17.6714336 L38.6367133,17.7417133 C38.5269231,17.7567483 38.4174825,17.7640909 38.3090909,17.7640909 C37.1055944,17.7640909 36.048951,16.8682867 35.8832168,15.6441608 C35.7027972,14.3102448 36.6472028,13.0710839 37.9807692,12.8906643 L38.5006993,12.8207343 L39.8867133,12.6333217 L40.2909091,12.5784266 C40.401049,12.5637413 40.5101399,12.5563986 40.6181818,12.5563986" id="Fill-35" fill="#2D313A"></path>
                    <path d="M56.993007,29.2378671 C56.5108392,29.2378671 56.1188811,29.6298252 56.1188811,30.111993 C56.1188811,30.5941608 56.5108392,30.9861189 56.993007,30.9861189 C57.4751748,30.9861189 57.8671329,30.5941608 57.8671329,30.111993 C57.8671329,29.6298252 57.4751748,29.2378671 56.993007,29.2378671 M56.993007,32.3847203 C55.7398601,32.3847203 54.7202797,31.3651399 54.7202797,30.111993 C54.7202797,28.8588462 55.7398601,27.8392657 56.993007,27.8392657 C58.2461538,27.8392657 59.2657343,28.8588462 59.2657343,30.111993 C59.2657343,31.3651399 58.2461538,32.3847203 56.993007,32.3847203" id="Fill-37" fill="#2D313A"></path>
                    <path d="M56.1188811,25.5665385 C56.1188811,26.0494056 55.7276224,26.4406643 55.2447552,26.4406643 C54.7618881,26.4406643 54.3706294,26.0494056 54.3706294,25.5665385 C54.3706294,25.0836713 54.7618881,24.6924126 55.2447552,24.6924126 C55.7276224,24.6924126 56.1188811,25.0836713 56.1188811,25.5665385" id="Fill-39" fill="#2D313A"></path>
                    <path d="M3.32167832,15.4266783 C3.32167832,16.1990559 2.69545455,16.8252797 1.92307692,16.8252797 C1.1506993,16.8252797 0.524475524,16.1990559 0.524475524,15.4266783 C0.524475524,14.6543007 1.1506993,14.0280769 1.92307692,14.0280769 C2.69545455,14.0280769 3.32167832,14.6543007 3.32167832,15.4266783" id="Fill-41" fill="#E04444"></path>
                    <path d="M1.92307692,14.5525524 C1.44125874,14.5525524 1.04895105,14.9445105 1.04895105,15.4266783 C1.04895105,15.9088462 1.44125874,16.3008042 1.92307692,16.3008042 C2.4048951,16.3008042 2.7972028,15.9088462 2.7972028,15.4266783 C2.7972028,14.9445105 2.4048951,14.5525524 1.92307692,14.5525524 M1.92307692,17.3497552 C0.862587413,17.3497552 0,16.4868182 0,15.4266783 C0,14.3665385 0.862587413,13.5036014 1.92307692,13.5036014 C2.98356643,13.5036014 3.84615385,14.3665385 3.84615385,15.4266783 C3.84615385,16.4868182 2.98356643,17.3497552 1.92307692,17.3497552" id="Fill-43" fill="#2D313A"></path>
                    <path d="M47.6398601,4.23786713 C47.6398601,4.96199301 47.0527972,5.54905594 46.3286713,5.54905594 C45.6045455,5.54905594 45.0174825,4.96199301 45.0174825,4.23786713 C45.0174825,3.51374126 45.6045455,2.92667832 46.3286713,2.92667832 C47.0527972,2.92667832 47.6398601,3.51374126 47.6398601,4.23786713" id="Fill-45" fill="#00A158"></path>
                    <path d="M46.3286713,3.45115385 C45.8951049,3.45115385 45.541958,3.8043007 45.541958,4.23786713 C45.541958,4.67143357 45.8951049,5.02458042 46.3286713,5.02458042 C46.7622378,5.02458042 47.1153846,4.67143357 47.1153846,4.23786713 C47.1153846,3.8043007 46.7622378,3.45115385 46.3286713,3.45115385 M46.3286713,6.07353147 C45.3164336,6.07353147 44.493007,5.2501049 44.493007,4.23786713 C44.493007,3.22562937 45.3164336,2.4022028 46.3286713,2.4022028 C47.3409091,2.4022028 48.1643357,3.22562937 48.1643357,4.23786713 C48.1643357,5.2501049 47.3409091,6.07353147 46.3286713,6.07353147" id="Fill-47" fill="#2D313A"></path>
                    <path d="M13.301049,49.8716783 C6.59965035,49.8716783 5.95384615,44.5765734 5.9479021,44.522028 C5.90699301,44.1384615 6.18461538,43.7933566 6.56888112,43.7524476 C6.9506993,43.7129371 7.2958042,43.9877622 7.33846154,44.3702797 C7.35979021,44.551049 7.8951049,48.4730769 13.3048951,48.4730769 C13.4076923,48.4730769 13.5111888,48.4716783 13.6174825,48.4688811 C14.0104895,48.4475524 14.3248252,48.7629371 14.3353147,49.1493007 C14.3458042,49.534965 14.0412587,49.8566434 13.6552448,49.8667832 C13.5353147,49.8702797 13.4171329,49.8716783 13.301049,49.8716783" id="Fill-49" fill="#2D313A"></path>
                    <path d="M50.0877622,4.46013986 C49.7332168,4.46013986 49.4293706,4.19160839 49.393007,3.83181818 C49.1821678,1.76363636 46.8881119,1.39440559 46.8646853,1.39125874 C46.4825175,1.33391608 46.2195804,0.977272727 46.2776224,0.595454545 C46.334965,0.213286713 46.6937063,-0.0506993007 47.0730769,0.00839160839 C48.2447552,0.184615385 50.5286713,1.18146853 50.7839161,3.68986014 C50.8234266,4.07412587 50.5437063,4.41748252 50.1594406,4.45629371 C50.1353147,4.45909091 50.1111888,4.46013986 50.0877622,4.46013986" id="Fill-51" fill="#2D313A"></path>
                    <path d="M20.1048951,41.6504545 C18.9479021,41.6504545 18.006993,40.7095455 18.006993,39.5525524 C18.006993,38.3955594 18.9479021,37.4546503 20.1048951,37.4546503 C21.2618881,37.4546503 22.2027972,38.3955594 22.2027972,39.5525524 C22.2027972,40.7095455 21.2618881,41.6504545 20.1048951,41.6504545 M17.3076923,33.6084965 C17.3076923,32.4515035 18.2486014,31.5105944 19.4055944,31.5105944 C20.5625874,31.5105944 21.5034965,32.4515035 21.5034965,33.6084965 C21.5034965,34.7654895 20.5625874,35.7063986 19.4055944,35.7063986 C18.2486014,35.7063986 17.3076923,34.7654895 17.3076923,33.6084965 M16.4335664,27.4896154 C16.4335664,26.3326224 17.3744755,25.3917133 18.5314685,25.3917133 C19.6884615,25.3917133 20.6293706,26.3326224 20.6293706,27.4896154 C20.6293706,28.6466084 19.6884615,29.5875175 18.5314685,29.5875175 C17.3744755,29.5875175 16.4335664,28.6466084 16.4335664,27.4896154 M20.7171329,36.4661888 C21.7993007,35.9686364 22.5524476,34.8777273 22.5524476,33.6084965 C22.5524476,31.9158392 21.215035,30.5392657 19.5398601,30.4686364 C20.7825175,30.0476573 21.6783217,28.8745804 21.6783217,27.4896154 C21.6783217,25.7515035 20.2695804,24.3427622 18.5314685,24.3427622 C16.7933566,24.3427622 15.3846154,25.7515035 15.3846154,27.4896154 C15.3846154,29.1822727 16.722028,30.5588462 18.3972028,30.6294755 C17.1545455,31.0504545 16.2587413,32.2235315 16.2587413,33.6084965 C16.2587413,35.1368182 17.3486014,36.4098951 18.7933566,36.6948601 C17.7111888,37.1924126 16.958042,38.2833217 16.958042,39.5525524 C16.958042,41.2906643 18.3667832,42.6994056 20.1048951,42.6994056 C21.843007,42.6994056 23.2517483,41.2906643 23.2517483,39.5525524 C23.2517483,38.0242308 22.1618881,36.7511538 20.7171329,36.4661888" id="Fill-53" fill="#2D313A"></path>
                    <path d="M31.8181818,40.2518531 C30.6611888,40.2518531 29.7202797,39.3109441 29.7202797,38.153951 C29.7202797,36.996958 30.6611888,36.056049 31.8181818,36.056049 C32.9751748,36.056049 33.9160839,36.996958 33.9160839,38.153951 C33.9160839,39.3109441 32.9751748,40.2518531 31.8181818,40.2518531 M29.020979,32.2098951 C29.020979,31.0529021 29.9618881,30.111993 31.1188811,30.111993 C32.2758741,30.111993 33.2167832,31.0529021 33.2167832,32.2098951 C33.2167832,33.3668881 32.2758741,34.3077972 31.1188811,34.3077972 C29.9618881,34.3077972 29.020979,33.3668881 29.020979,32.2098951 M28.1468531,26.091014 C28.1468531,24.934021 29.0877622,23.9931119 30.2447552,23.9931119 C31.4017483,23.9931119 32.3426573,24.934021 32.3426573,26.091014 C32.3426573,27.248007 31.4017483,28.1889161 30.2447552,28.1889161 C29.0877622,28.1889161 28.1468531,27.248007 28.1468531,26.091014 M32.4304196,35.0675874 C33.5129371,34.570035 34.2657343,33.4791259 34.2657343,32.2098951 C34.2657343,30.5172378 32.9283217,29.1406643 31.2531469,29.070035 C32.4958042,28.6490559 33.3916084,27.475979 33.3916084,26.091014 C33.3916084,24.3529021 31.9828671,22.9441608 30.2447552,22.9441608 C28.5066434,22.9441608 27.0979021,24.3529021 27.0979021,26.091014 C27.0979021,27.7836713 28.4353147,29.1602448 30.1104895,29.2308741 C28.8678322,29.6518531 27.972028,30.8249301 27.972028,32.2098951 C27.972028,33.7382168 29.0618881,35.0112937 30.5066434,35.2962587 C29.4241259,35.7938112 28.6713287,36.8847203 28.6713287,38.153951 C28.6713287,39.8920629 30.0800699,41.3008042 31.8181818,41.3008042 C33.5562937,41.3008042 34.965035,39.8920629 34.965035,38.153951 C34.965035,36.6256294 33.8751748,35.3525524 32.4304196,35.0675874" id="Fill-55" fill="#2D313A"></path>
                    <path d="M43.5314685,38.6784266 C42.3744755,38.6784266 41.4335664,37.7375175 41.4335664,36.5805245 C41.4335664,35.4235315 42.3744755,34.4826224 43.5314685,34.4826224 C44.6884615,34.4826224 45.6293706,35.4235315 45.6293706,36.5805245 C45.6293706,37.7375175 44.6884615,38.6784266 43.5314685,38.6784266 M40.7342657,30.6364685 C40.7342657,29.4794755 41.6751748,28.5385664 42.8321678,28.5385664 C43.9891608,28.5385664 44.9300699,29.4794755 44.9300699,30.6364685 C44.9300699,31.7934615 43.9891608,32.7343706 42.8321678,32.7343706 C41.6751748,32.7343706 40.7342657,31.7934615 40.7342657,30.6364685 M39.8601399,24.5175874 C39.8601399,23.3605944 40.801049,22.4196853 41.958042,22.4196853 C43.115035,22.4196853 44.0559441,23.3605944 44.0559441,24.5175874 C44.0559441,25.6745804 43.115035,26.6154895 41.958042,26.6154895 C40.801049,26.6154895 39.8601399,25.6745804 39.8601399,24.5175874 M44.1437063,33.4941608 C45.2262238,32.9966084 45.979021,31.9056993 45.979021,30.6364685 C45.979021,28.9438112 44.6416084,27.5672378 42.9664336,27.4966084 C44.2090909,27.0756294 45.1048951,25.9025524 45.1048951,24.5175874 C45.1048951,22.7794755 43.6961538,21.3707343 41.958042,21.3707343 C40.2199301,21.3707343 38.8111888,22.7794755 38.8111888,24.5175874 C38.8111888,26.2102448 40.1486014,27.5868182 41.8237762,27.6574476 C40.5811189,28.0784266 39.6853147,29.2515035 39.6853147,30.6364685 C39.6853147,32.1647902 40.7751748,33.4378671 42.2199301,33.7228322 C41.1374126,34.2203846 40.3846154,35.3112937 40.3846154,36.5805245 C40.3846154,38.3186364 41.7933566,39.7273776 43.5314685,39.7273776 C45.2695804,39.7273776 46.6783217,38.3186364 46.6783217,36.5805245 C46.6783217,35.0522028 45.5884615,33.7791259 44.1437063,33.4941608" id="Fill-57" fill="#2D313A"></path>
                </g>
                <g id="Page-1" transform="translate(2.000000, 54.000000)">
                    <g id="Group-3" transform="translate(248.134328, 3.370220)">
                        <mask id="mask-6" fill="white">
                            <use xlink:href="#path-5"></use>
                        </mask>
                        <g id="Clip-2"></g>
                        <path d="M0.967537313,0.7122 C1.09813433,0.5962 1.0244403,0.3322 0.663432836,0.3842 L0.406902985,0.8312 L0.967537313,0.7122 Z" id="Fill-1" fill="#E61F1F" mask="url(#mask-6)"></path>
                    </g>
                    <path d="M246.671455,3.25472 C246.246082,3.47072 245.756343,3.85172 246.03153,4.26172 C246.452239,3.83272 246.554851,4.01172 247.007276,3.50072 C247.369216,3.44872 247.637873,3.64472 247.577239,3.80872 C247.705037,3.69372 248.138806,3.90672 248.333769,3.62672 C247.862687,3.28072 247.267537,3.26672 246.644403,3.55172 C246.511007,3.45372 246.640672,3.33772 246.671455,3.25472" id="Fill-4" fill="#E61F1F"></path>
                    <path d="M211.35028,2.55802 L211.577892,2.61102 C211.515392,2.58102 211.437966,2.56502 211.35028,2.55802" id="Fill-6" fill="#E61F1F"></path>
                    <path d="M189.465951,2.31282 C189.631996,2.30182 189.701959,2.25782 189.710354,2.21682 C189.555504,2.24682 189.428638,2.27382 189.465951,2.31282" id="Fill-8" fill="#E61F1F"></path>
                    <path d="M185.729198,1.82022 C185.809422,1.83422 185.877519,1.84122 185.949347,1.85022 C185.865392,1.80922 185.781437,1.78622 185.729198,1.82022" id="Fill-10" fill="#E61F1F"></path>
                    <path d="M211.35028,2.55802 L210.765392,2.41702 C210.724347,2.56302 211.064832,2.52602 211.35028,2.55802" id="Fill-12" fill="#E61F1F"></path>
                    <path d="M241.800466,4.33242 C241.922668,4.31042 242.02528,4.26942 242.117631,4.21542 C242.017817,4.23442 241.919869,4.25042 241.820056,4.26242 C241.814459,4.28642 241.809795,4.30742 241.800466,4.33242" id="Fill-14" fill="#E61F1F"></path>
                    <path d="M220.997481,2.19572 L221.17472,2.19572 C221.227892,2.14472 221.276399,2.08272 221.323041,2.01372 L220.997481,2.19572 Z" id="Fill-16" fill="#E61F1F"></path>
                    <path d="M228.401399,2.12732 C228.233489,2.11032 228.175653,2.49032 228.111287,2.65532 C228.206437,2.49932 228.329571,2.42532 228.476959,2.39632 C228.478825,2.32332 228.457369,2.23732 228.401399,2.12732" id="Fill-18" fill="#E61F1F"></path>
                    <path d="M240.141138,2.79482 L240.350093,2.74182 C240.295989,2.75882 240.203638,2.77382 240.141138,2.79482" id="Fill-20" fill="#E61F1F"></path>
                    <path d="M215.698321,2.11362 C215.686194,2.05762 215.659142,2.00762 215.631157,1.97762 C215.631157,2.02562 215.657276,2.07062 215.698321,2.11362" id="Fill-22" fill="#E61F1F"></path>
                    <g id="Group-26" transform="translate(8.395522, 4.370220)">
                        <mask id="mask-8" fill="white">
                            <use xlink:href="#path-7"></use>
                        </mask>
                        <g id="Clip-25"></g>
                        <path d="M0.221455224,0.595 C0.227052239,0.568 0.218656716,0.551 0.221455224,0.528 C0.17761194,0.566 0.164552239,0.593 0.221455224,0.595" id="Fill-24" fill="#E61F1F" mask="url(#mask-8)"></path>
                    </g>
                    <path d="M0.0347014925,3.08582 L0.153171642,3.06482 C0.166231343,2.99382 0.179291045,2.92282 0.179291045,2.85282 L0.0347014925,3.08582 Z" id="Fill-27" fill="#E61F1F"></path>
                    <path d="M178.891418,1.33432 C178.904478,1.33832 178.909142,1.33832 178.921269,1.34132 C179.101306,1.29832 178.999627,1.30532 178.891418,1.33432" id="Fill-29" fill="#E61F1F"></path>
                    <path d="M116.116325,1.61412 C116.827146,1.95312 114.958675,2.05012 116.029571,2.42612 C115.929757,2.27812 117.002519,1.83412 116.116325,1.61412" id="Fill-31" fill="#E61F1F"></path>
                    <path d="M241.608675,4.28262 C241.508862,4.28662 241.407183,4.29062 241.305504,4.28662 C241.443563,4.29862 241.536847,4.29762 241.608675,4.28262" id="Fill-33" fill="#E61F1F"></path>
                    <path d="M116.029291,2.42612 L116.029291,2.42912 L116.140299,2.46512 C116.09459,2.44912 116.06847,2.43912 116.029291,2.42612" id="Fill-35" fill="#E61F1F"></path>
                    <path d="M163.135261,1.56242 C163.16791,1.62942 163.23041,1.68042 163.295709,1.72842 C163.291045,1.68942 163.254664,1.64242 163.135261,1.56242" id="Fill-37" fill="#E61F1F"></path>
                    <path d="M174.873134,2.10192 L174.58209,2.05092 C174.697761,2.08592 174.791045,2.09792 174.873134,2.10192" id="Fill-39" fill="#E61F1F"></path>
                    <path d="M157.040858,2.09802 C156.883209,2.06902 156.829104,2.01602 156.613619,2.06702 C156.633209,2.08702 156.653731,2.10002 156.678918,2.11402 C156.757276,2.06102 156.861754,2.03702 157.040858,2.09802" id="Fill-41" fill="#E61F1F"></path>
                    <path d="M150.697761,2.10002 C150.731343,2.12902 150.775187,2.15102 150.814366,2.17702 C150.877799,2.16902 150.95056,2.16302 151.015858,2.15602 L150.697761,2.10002 Z" id="Fill-43" fill="#E61F1F"></path>
                    <g id="Group-47" transform="translate(27.052239, 4.370220)">
                        <mask id="mask-10" fill="white">
                            <use xlink:href="#path-9"></use>
                        </mask>
                        <g id="Clip-46"></g>
                        <path d="M0.842817164,0.4124 C0.703824627,0.3064 0.617070896,0.1874 0.549906716,0.0714 C0.647854478,0.3414 -0.284048507,0.4374 0.842817164,0.4124" id="Fill-45" fill="#E61F1F" mask="url(#mask-10)"></path>
                    </g>
                    <path d="M241.797295,4.11902 C241.759981,4.21502 241.705877,4.26202 241.608862,4.28302 C241.681623,4.27802 241.751586,4.27102 241.819683,4.26202 C241.83834,4.20602 241.842071,4.15302 241.797295,4.11902" id="Fill-48" fill="#E61F1F"></path>
                    <g id="Group-52" transform="translate(154.850746, 4.370220)">
                        <mask id="mask-12" fill="white">
                            <use xlink:href="#path-11"></use>
                        </mask>
                        <g id="Clip-51"></g>
                        <path d="M1.93227612,0.7215 L0.924813433,0.6655 C1.20652985,0.7015 1.57220149,0.7215 1.93227612,0.7215" id="Fill-50" fill="#E61F1F" mask="url(#mask-12)"></path>
                    </g>
                    <g id="Group-55" transform="translate(72.761194, 4.370220)">
                        <mask id="mask-14" fill="white">
                            <use xlink:href="#path-13"></use>
                        </mask>
                        <g id="Clip-54"></g>
                        <path d="M0.64141791,0.3582 L0.410074627,0.4042 C0.499626866,0.4122 0.581716418,0.4012 0.64141791,0.3582" id="Fill-53" fill="#E61F1F" mask="url(#mask-14)"></path>
                    </g>
                    <g id="Group-58" transform="translate(152.052239, 4.370220)">
                        <mask id="mask-16" fill="white">
                            <use xlink:href="#path-15"></use>
                        </mask>
                        <g id="Clip-57"></g>
                        <path d="M0.732089552,0.7215 C0.552052239,0.5875 0.361753731,0.5095 0.164925373,0.4585 C0.122947761,0.4885 0.0753731343,0.5135 0.0473880597,0.5565 L0.732089552,0.7215 Z" id="Fill-56" fill="#E61F1F" mask="url(#mask-16)"></path>
                    </g>
                    <g id="Group-61" transform="translate(27.052239, 4.370220)">
                        <mask id="mask-18" fill="white">
                            <use xlink:href="#path-17"></use>
                        </mask>
                        <g id="Clip-60"></g>
                        <path d="M0.54766791,0.0672 C0.549533582,0.0692 0.549533582,0.0712 0.549533582,0.0712 C0.549533582,0.0712 0.549533582,0.0692 0.54766791,0.0672" id="Fill-59" fill="#E61F1F" mask="url(#mask-18)"></path>
                    </g>
                    <g id="Group-64" transform="translate(0.000000, 0.370220)">
                        <mask id="mask-20" fill="white">
                            <use xlink:href="#path-19"></use>
                        </mask>
                        <g id="Clip-63"></g>
                        <path d="M41.2890858,1.1892 C41.5875933,1.1352 41.6874067,1.2102 41.7284515,1.2882 C41.5875933,1.2942 41.4224813,1.3072 41.2069963,1.3332 C41.1976679,1.3472 41.179944,1.3632 41.1715485,1.3792 C41.1995336,1.3072 41.2321828,1.2392 41.2890858,1.1892 M45.2760261,3.8192 C45.0465485,3.8042 44.7611007,3.8012 44.4579291,3.8042 C44.3926306,3.6732 44.4635261,3.5382 44.6528918,3.5452 C44.5502799,3.6322 44.9952425,3.7082 45.2760261,3.8192 M43.3907649,3.8252 L43.3907649,3.8332 C43.1976679,3.8412 43.0334888,3.8492 42.9280784,3.8542 C43.0241604,3.8492 43.157556,3.8412 43.3907649,3.8252 M20.9616604,4.9692 C21.9215485,4.9802 21.4122201,4.4812 21.6165112,4.1942 C22.7629664,4.0532 22.1463619,4.5622 22.5362873,4.8162 C23.2527052,4.6852 23.8012127,4.2272 24.3347948,4.2462 C24.3749067,4.3282 24.4784515,4.3582 24.3571828,4.4612 C25.1137127,4.0642 26.6034515,4.4412 27.4849813,3.9432 C27.5502799,3.9882 27.5838619,4.0292 27.5997201,4.0672 C27.4569963,3.8172 27.4346082,3.5642 27.464459,3.3832 C27.8954291,3.3752 28.2638993,3.0682 28.4252799,3.3942 C28.1612873,3.3842 28.1398321,3.5162 28.0157649,3.6182 L28.4672575,3.4762 C28.873041,3.9442 27.8515858,3.6382 27.8515858,3.9852 C28.73125,3.8332 29.7564366,3.4442 30.429944,3.5772 C30.5708022,4.0362 28.8534515,3.7312 29.7536381,4.1392 L28.7107276,3.9632 C29.5073694,4.6872 28.0763993,3.9132 28.8096082,4.6872 C30.1818097,4.8202 30.3441231,4.4542 31.7135261,4.5872 C32.0213619,4.3332 31.6109142,4.2102 31.9196828,3.9562 C33.8655784,3.4982 33.4513993,5.1082 34.8823694,4.4982 C35.2527052,4.1922 35.3963619,3.6122 36.4140858,3.9192 L36.0670709,4.4372 C37.3963619,4.4882 36.8254664,3.6922 38.2172575,4.0412 C37.970056,4.2452 37.1734142,4.2122 37.3739739,4.2742 C38.2760261,4.6842 38.0120336,3.9802 38.7041978,3.9802 L38.8487873,4.4392 C40.2629664,4.3672 41.8217351,4.0362 43.3879664,3.9522 C43.3012127,4.0882 43.0334888,4.2322 43.4000933,4.3722 C45.3758396,4.1432 47.6183769,4.4282 49.5241604,4.7012 L50.2527052,4.3042 C50.4215485,4.3092 50.5670709,4.4832 50.3833022,4.5602 C51.1258396,4.7102 50.4215485,4.3092 50.7788246,4.1532 C51.2013993,4.1262 51.3366604,4.3812 51.0689366,4.5002 C52.3805037,4.1642 54.8030784,3.7762 56.1846082,4.2012 L55.9150187,4.3182 C56.9905784,4.4792 57.1286381,3.5062 58.1267724,3.8762 L57.935541,3.9462 C60.2694963,4.1182 62.8487873,3.7542 64.6295709,4.3532 C64.9681903,3.7822 66.9402052,4.6072 67.0903918,3.8122 C68.4234142,4.2062 68.0418843,4.3482 69.91875,4.6132 C70.4196828,4.6502 70.6659515,4.1162 71.2853545,4.0332 L71.3002799,4.4492 L72.1426306,4.0132 L72.5903918,4.5102 L73.1715485,4.4042 C72.9402052,4.3792 72.6790112,4.2172 72.714459,4.0972 C73.623041,3.9092 74.9280784,4.3872 74.9504664,4.6002 L77.0987873,4.2482 C77.0512127,4.4162 76.6911381,4.4732 76.4066231,4.5802 C77.5530784,4.1552 76.6155784,5.0182 77.6659515,4.6292 C77.5250933,4.5342 77.742444,4.3812 77.7666978,4.2972 C78.2900187,4.5482 79.4821828,4.5512 80.3646455,4.4442 L80.1958022,4.7312 C81.7890858,4.8042 83.554944,4.5942 85.3431903,4.5992 C84.7013993,4.4652 84.8487873,3.9682 85.3739739,3.9202 L85.5829291,4.3592 C85.9215485,4.0882 85.0353545,4.1942 85.7303172,3.8612 C86.3982276,3.9122 86.179944,4.3612 85.7956157,4.5042 L86.6081157,4.3522 C86.6556903,4.4832 86.4653918,4.5532 86.4159515,4.7202 C86.7489739,4.4472 87.8180037,5.1612 88.299347,4.6872 L88.3441231,4.8182 C90.1323694,4.8212 90.9430037,4.6702 92.4000933,4.6482 C92.4280784,4.2692 92.998041,4.3532 93.4308769,4.0462 C94.5017724,4.1672 95.6892724,4.4652 96.9793843,4.4332 C97.8851679,4.2452 97.2433769,4.1122 97.6510261,3.8862 C97.7181903,4.2322 99.0055037,4.2002 98.3375933,4.4482 C99.8851679,4.3922 100.314272,4.3792 102.272295,4.0982 C102.059608,3.9572 101.820802,3.8952 101.943937,3.7772 C102.299347,3.7202 102.752705,3.9222 102.701399,4.0882 L102.608116,4.1242 C104.804944,3.6062 107.679011,5.1322 109.428078,4.4112 L109.330131,4.4472 L111.144496,4.0712 C111.979384,4.1312 110.643563,4.3312 111.261101,4.5452 C113.21819,3.9682 114.353451,4.6292 115.965392,4.2452 C117.212593,5.2652 120.392631,4.1722 122.076399,4.8242 L121.978451,4.5842 C122.414086,4.3482 122.505504,4.7212 122.826399,4.7762 C122.78069,4.5892 122.353451,4.5602 122.623974,4.4302 C126.311474,4.1402 130.234049,4.7812 134.013899,4.9982 C135.396362,5.0622 134.798414,3.7542 136.540951,4.3282 L136.046549,4.7742 C138.835728,4.2382 141.75084,4.7932 144.482183,4.3392 C144.318937,4.4412 144.314272,4.5752 144.047481,4.5742 C144.624907,4.8972 146.180877,4.5892 146.191138,4.3252 C146.616511,4.3552 146.290019,4.5642 146.551213,4.6992 C147.129571,4.8902 148.003638,4.2852 148.311474,4.6072 C148.363713,4.6602 148.14916,4.7122 148.042817,4.7372 C148.419683,4.5812 149.799347,4.7772 149.43834,4.4042 C150.463526,4.5822 151.39916,4.2372 152.217257,4.4592 C152.749907,4.0412 153.971922,4.6602 154.140765,4.0692 C154.067071,4.6802 155.937407,4.5622 156.58666,4.2742 C156.36931,4.4592 157.150093,4.4652 156.895429,4.7212 C157.635168,4.7122 158.31334,4.5992 158.184608,4.2852 C159.546549,5.0162 160.923414,3.6972 161.690205,4.6342 C163.887034,4.3062 165.920616,4.0842 167.897295,3.9402 C167.825466,4.5492 165.71166,4.0012 165.796549,4.6402 C167.671549,4.3902 168.753638,3.8672 170.61278,4.0142 C171.094123,4.0972 170.339459,4.2782 170.176213,4.3822 C172.049347,4.1312 173.798414,4.4372 175.465392,4.1062 C175.460728,4.1622 175.28069,4.2242 175.110914,4.2712 C175.439272,4.2512 175.874907,4.3592 175.837593,4.0842 L175.517631,4.1582 C174.993377,3.7572 176.821735,3.3192 176.880504,3.1072 C176.322668,3.9002 178.526959,3.3072 177.641698,4.3092 C177.857183,4.2562 178.128638,4.1262 178.079198,3.9402 C178.400093,3.9942 178.501772,4.1032 178.176213,4.3132 C179.352519,4.1622 178.935541,3.8682 180.00084,3.8742 C179.997108,4.0082 179.781623,4.0602 179.671549,4.2182 C180.21166,3.9572 180.753638,3.6952 181.654757,3.8092 C181.600653,3.8892 181.705131,3.9942 181.436474,3.9922 C182.983116,3.9522 184.073601,3.2962 185.770429,3.5492 C185.270429,4.1312 186.347854,3.7402 186.43834,4.2452 L187.350653,4.0942 L186.984049,3.8502 C187.783489,3.8582 188.490578,3.4912 189.178078,3.6562 L188.582929,3.8642 L190.081063,3.7682 L189.234049,3.5772 C190.042817,3.3172 189.147295,2.9392 190.21166,3.0802 C189.995243,3.1302 191.011101,3.0862 191.427146,3.3832 C191.427146,3.3832 191.424347,3.3832 191.424347,3.3842 C191.820802,3.2242 192.227519,3.0552 192.818004,3.1802 C192.971922,3.3412 192.694869,3.7372 192.794683,3.8452 C193.185541,3.4232 194.666884,3.7282 195.161287,3.2792 C194.996175,3.3842 194.98778,3.6492 195.041884,3.7032 L195.36931,3.3602 C195.739646,3.4702 195.79375,3.5232 195.734049,3.7342 C196.847854,3.7962 195.380504,3.0952 196.702332,3.3702 C196.598787,3.3972 196.648228,3.4492 196.43181,3.5012 C197.759235,3.6452 198.997108,3.2842 200.217257,3.4522 C200.577332,3.9602 199.151959,3.5762 199.56334,4.0042 C201.322668,3.9122 203.206063,3.3962 204.908489,3.5162 L204.592257,3.4602 C204.827332,2.7442 205.859049,3.8132 206.720056,3.4762 C206.509235,3.5292 206.443937,3.8732 206.50084,3.7932 C207.666884,3.9092 208.885168,3.6182 210.651026,3.3922 L210.432743,3.5762 C211.11931,3.7402 212.241511,3.6712 212.984049,3.7542 C213.204198,3.5712 213.628638,3.6012 213.371175,3.3342 C215.659422,4.3812 217.735914,2.7722 219.766698,3.6452 C219.52416,3.6472 219.18834,3.8052 219.381437,3.8052 L221.110914,3.6372 C220.973787,3.3252 220.883302,3.4482 220.520429,3.2052 C220.739646,3.0202 221.227519,2.8762 221.656623,2.8762 C220.878638,3.0842 221.663153,3.3772 221.998974,3.5522 C221.943004,3.4562 222.057743,3.3512 222.028825,3.2532 C222.932743,3.8092 222.180877,2.6262 223.414086,3.0002 L223.348787,3.1632 C223.810541,3.0802 224.235914,2.8632 224.734049,2.9102 C224.940205,3.2712 224.242444,3.0782 224.210728,3.3762 C224.909422,3.3552 225.590392,2.6912 226.222854,3.0512 C225.926213,3.1522 225.498974,3.1532 225.202332,3.2532 C225.891698,3.6772 225.970989,3.5692 226.483116,3.6372 L226.432743,3.6272 L227.616511,3.8192 L227.315205,3.7042 C228.190205,2.7632 229.096922,3.5322 230.276026,2.9162 C229.130504,3.4992 230.08666,3.2532 229.998974,3.6622 C230.299347,3.7762 230.757369,3.9032 230.626772,4.0182 C231.183675,3.6882 231.55681,4.2782 232.34319,3.7952 C232.378638,3.9272 232.939272,3.8092 232.81334,4.1392 C233.538153,4.0362 232.641698,3.9102 232.703265,3.7452 C233.819869,3.2952 235.327332,4.2902 236.933675,3.6732 C238.318004,3.4192 238.574534,2.9752 239.859981,2.7542 C240.29375,2.9652 239.504571,3.2332 239.504571,3.2332 C240.204198,3.4272 240.730317,3.3922 241.389832,3.2412 C241.256437,3.3562 241.394496,3.4532 241.595056,3.6012 C242.123974,3.5662 241.948601,3.1222 242.646362,3.3152 C242.526959,3.4622 242.373041,3.6972 242.118377,3.8452 C242.741511,3.7232 243.357183,3.4782 244.003638,3.3592 C244.174347,3.5882 243.613713,3.7072 243.386101,3.8562 C244.111847,3.7532 245.265765,3.6492 245.489646,3.2862 L245.02416,3.1562 C245.289086,3.1382 245.160354,3.4682 244.965392,3.5342 C244.34319,3.8192 244.068937,3.4092 244.033489,3.2762 L244.493377,3.1922 C244.021362,2.4192 242.646362,3.3152 241.720989,3.2712 L242.107183,2.7092 L241.157556,3.1752 C240.956063,3.0292 240.818004,2.7152 241.275093,2.6312 C240.610914,2.3542 240.687407,2.8312 240.117444,2.5222 C240.054944,2.4742 240.082929,2.4462 240.140765,2.4242 L239.493377,2.5912 C239.620243,2.4742 239.385168,2.1952 239.783489,2.2762 C238.620243,1.9522 237.906623,2.6972 237.469123,2.2722 L237.566138,2.2372 C235.952332,2.4272 237.410354,2.6502 236.199534,3.1332 L235.384235,2.1162 L235.225653,2.5282 C235.058675,2.5142 234.729384,2.4832 234.790951,2.3182 C234.170616,2.6002 234.896362,2.4972 234.536287,2.7642 C233.734981,2.3882 232.325466,2.9392 232.145429,2.2822 C231.858116,2.5962 232.91222,2.5242 232.055877,2.7422 C231.812407,2.0362 231.067071,2.8632 230.334795,2.5392 C230.559608,2.1752 231.253638,2.3682 230.520429,2.0422 C230.078265,2.6582 229.094123,1.9072 228.476586,2.0252 C228.447668,2.5162 227.133302,2.2302 226.096922,2.3932 C226.163153,2.2292 224.146362,2.1242 223.18181,1.9462 L223.210728,1.8642 C223.02416,2.3602 222.028825,2.2662 221.304944,2.3692 C221.333862,2.0722 221.463526,1.9552 221.85625,1.8222 L221.17528,1.8252 C221.014832,1.9832 220.802146,2.0672 220.360914,2.1242 L220.531623,1.7532 C219.62584,1.7742 218.706996,2.1902 217.540951,1.9422 C217.475653,2.2882 218.469123,2.9052 217.235914,3.1362 C217.189272,2.9492 217.144496,2.6292 217.467257,2.5532 C217.360914,2.5772 217.089459,2.7082 216.876772,2.6282 L217.36931,2.3142 C216.838526,2.1762 217.092257,2.5762 216.667817,2.5472 C216.676213,2.2802 216.353451,2.3572 216.414086,2.1462 C216.522295,2.1202 216.784422,2.2552 216.946735,2.1512 C216.46819,2.1032 215.889832,1.9452 215.698601,1.7432 C215.740578,1.8952 215.698601,2.1022 215.347854,2.1372 C214.442071,2.1562 215.03722,1.8162 214.509235,1.6792 C214.290019,1.8642 213.71166,1.6722 213.696735,2.0712 C213.430877,2.0692 213.382369,1.8832 213.279757,1.7752 C212.810541,1.9512 211.088526,1.8252 211.617444,2.2492 L211.73778,2.2772 C211.715392,2.2852 211.68834,2.2862 211.661287,2.2942 L211.665019,2.2942 L211.661287,2.2942 C210.123974,2.6912 208.46819,2.0692 206.943004,2.2392 L206.944869,2.1062 C206.034422,2.2582 204.91875,2.1962 204.268563,2.4832 C203.998974,2.4822 203.633302,2.2392 203.748041,2.0812 C203.052146,2.1812 202.97472,2.3312 201.969123,2.1102 C202.66875,1.8782 201.727519,1.9042 202.686474,1.9402 C201.781623,1.8252 201.577332,1.6122 200.60625,1.9762 C200.936474,1.6342 199.92528,1.5462 199.495243,1.6482 L200.128638,1.8932 C199.645429,1.9422 199.222854,1.9122 198.79375,1.8832 L199.026026,1.4342 C197.17528,0.8872 195.68834,2.3632 194.279757,1.4492 C193.790019,1.7632 195.284422,1.6702 194.846922,2.0382 C193.996175,1.9772 193.108116,1.3322 192.842257,1.3312 C191.676213,1.0822 191.754571,1.9872 190.534422,1.8172 C190.690205,1.9772 190.837593,2.4052 189.92528,2.5562 C189.073601,2.4962 188.878638,1.8832 189.415951,1.7552 C189.620243,1.7422 189.719123,1.7932 189.710728,1.8472 C189.985914,1.7882 190.346922,1.7202 190.009235,1.5462 L189.89916,1.7062 C189.476586,1.5432 188.304944,1.5602 188.579198,1.2972 C187.936474,1.4502 188.304944,1.5602 188.781623,1.6432 C187.68834,1.4112 187.074534,1.6362 185.949534,1.4802 C186.128638,1.5682 186.292817,1.7572 186.114646,1.7552 C184.465392,1.5572 185.388899,2.0592 184.271362,2.1292 C183.636101,1.8852 184.498041,1.5462 183.373041,1.7512 C182.686474,1.5852 183.228451,1.3262 183.50084,1.1952 C182.476586,1.5042 181.585728,0.9922 180.999907,0.9352 L181.540019,0.8062 C181.217257,0.8832 180.953265,0.8812 180.683675,0.8802 L180.992444,1.2002 C180.67528,1.1452 180.406623,1.1432 180.41222,1.0102 C180.085728,1.2202 180.66222,1.5432 180.013899,1.8302 C179.591325,1.6672 178.726586,2.0042 178.581063,1.5802 C179.910354,1.7242 178.434608,1.1522 179.559608,1.0842 C179.342257,1.1342 179.077332,1.1322 178.760168,1.0762 C178.71166,1.0292 178.804011,0.9882 178.891698,0.9642 C177.61931,0.5842 178.30681,1.4442 176.988713,1.4352 C177.15569,1.1952 176.682743,0.9802 176.46819,1.0312 C176.998974,1.0362 176.721922,1.4312 176.234981,1.6152 C175.388899,1.4282 175.316138,1.7532 174.873041,1.7312 L175.378638,1.8192 C175.207929,2.0592 174.784422,2.0272 174.195802,2.1032 C174.144496,1.9172 174.730317,1.9752 174.520429,1.8932 C173.866511,2.3142 173.041884,1.4572 172.129571,1.7402 C171.706996,1.5782 172.088526,1.2902 171.717257,1.1802 C170.695802,1.4912 170.609981,0.8522 169.535354,1.1082 C169.845056,1.4302 169.900093,1.3522 169.143563,1.6662 L170.909422,1.4392 L169.776026,1.9072 C170.308675,1.9122 170.901026,1.7052 171.220056,1.7602 C170.679944,2.0222 170.735914,1.9422 170.990578,2.2102 C170.261101,1.7272 169.544683,2.4912 168.700466,2.1652 L168.726586,1.3672 C167.458862,1.0122 166.473787,1.7762 164.828265,1.5762 L165.357183,1.7142 C165.136101,2.0312 164.340392,1.7592 163.80681,1.8872 C163.857183,1.6212 163.52416,1.5242 163.295616,1.3582 C163.323601,1.5562 162.091325,1.3402 161.941138,1.8722 L161.206996,1.5212 C159.876772,1.3772 159.689272,2.2802 158.411287,2.1902 C158.796549,1.9002 158.215392,1.7112 159.071735,1.5042 C158.645429,1.5012 158.262034,1.4532 158.254571,1.6372 C158.005504,1.4702 157.071735,1.9962 156.679011,1.7432 C156.498974,1.8602 156.440205,2.1392 155.96166,2.1172 C155.909422,2.0632 155.963526,1.9852 155.963526,1.9852 C155.96166,2.1172 155.213526,2.1652 155.632369,2.4602 C154.318004,1.6282 151.958862,2.5202 150.815205,1.8062 C149.883302,1.8962 148.762034,1.9812 147.916884,2.0012 C147.970989,1.9212 147.919683,1.8682 148.079198,1.8962 C146.913153,1.6472 147.361847,2.6602 146.035354,2.3842 C145.358116,1.9532 146.739646,2.1512 146.317071,1.9882 C146.133302,1.1112 144.716325,2.1072 143.822668,1.5952 L144.039086,1.5442 C143.35625,1.2462 142.373974,1.8762 141.258302,1.8142 C141.258302,1.8142 141.31334,1.7362 141.265765,1.6812 C140.502705,2.1282 139.059608,2.2762 137.985914,2.4002 C138.319869,2.0572 138.473787,2.2192 138.269496,1.8702 C137.789086,1.9192 138.410354,2.4302 137.450466,2.5282 C137.138899,2.3402 136.446735,2.1762 136.354384,1.8042 L137.260168,1.7832 C136.796549,1.3022 136.087593,1.8002 135.610914,1.7162 L135.671549,1.5062 C134.284422,1.5742 134.264832,2.1052 132.773228,2.0662 L132.928078,2.2262 C132.11278,2.7512 132.24431,1.9302 131.43181,2.3212 L131.185541,1.7882 C130.647295,1.9172 129.302146,2.3032 128.337593,2.4032 C128.884235,2.0082 130.012034,1.8062 130.710728,1.5712 C130.178078,1.5672 128.89916,1.6112 128.621175,1.8742 C128.83666,1.8222 129.107183,1.6922 129.318937,1.7742 C128.665019,2.1932 127.804944,2.3982 126.742444,2.3902 C126.930877,1.3562 123.973787,2.1292 123.203265,1.3272 C121.324534,1.7092 119.475653,1.1642 117.286287,1.2252 C118.062407,2.0282 116.647295,1.2482 116.781623,2.0732 C116.271362,2.1262 116.077332,2.1122 116.031623,2.0592 L114.486847,1.5662 C114.120243,1.3262 114.970989,1.3842 114.924347,1.1992 C113.807743,1.1352 114.456063,0.8492 113.717257,0.6292 C113.868377,0.9252 113.329198,1.0522 112.693004,0.9392 L113.588526,1.3202 C112.028825,1.7602 112.240578,0.6272 110.667817,1.0632 L111.165019,0.8032 C110.358116,0.9562 108.18834,0.7972 107.397295,1.4612 C107.254571,1.3652 107.066138,1.1402 107.420616,1.0802 C105.492444,0.9812 103.127705,1.7862 101.628638,1.3772 L101.775093,1.1762 C101.415019,1.2342 101.148228,1.5552 100.698601,1.3522 C100.720989,1.2682 100.84319,1.1502 100.676213,1.1382 C100.485914,1.2082 99.7209888,1.4922 99.2433769,1.3752 L99.6510261,1.1472 C97.7704291,0.8832 96.7638993,1.7002 95.1864739,1.8392 C95.1911381,1.2452 93.7107276,1.0512 92.9719216,0.9552 L92.998041,0.8712 C90.8068097,0.7972 89.2760261,1.3632 87.248041,1.5972 C85.9887127,0.9522 82.9821828,1.3272 80.9588619,0.9652 C81.2676306,1.0732 80.9084888,1.4282 80.5484142,1.4882 C80.0736007,1.3672 79.2359142,1.9002 79.3114739,1.3552 L79.4803172,1.3652 C79.123041,0.8312 78.1463619,0.9732 77.3842351,0.9592 L77.2592351,1.6712 C75.2648321,0.6342 72.0353545,2.0522 70.9476679,1.1242 C70.4672575,1.3022 69.8711754,1.3002 69.3935634,1.4782 L69.4196828,1.0962 C68.0875933,0.9982 67.4215485,0.9502 65.7741604,1.0412 L66.1099813,0.7682 C65.1808769,0.7432 64.9374067,1.8702 64.0801306,1.8932 L63.8217351,1.3222 C62.2004664,1.3312 60.5596082,0.8302 58.9579291,1.3472 C58.9840485,1.2642 59.0316231,1.0992 59.2946828,1.0762 C58.5306903,1.0612 56.3422575,0.6892 56.6202425,1.4732 C56.600653,0.9632 54.9467351,1.4232 54.0717351,1.6472 L54.2079291,1.2722 C53.4691231,1.7522 53.4448694,1.8832 52.413153,2.0172 C52.16875,1.9682 52.1986007,1.7152 52.5232276,1.8122 C51.7088619,1.6152 51.8888993,2.1682 50.9010261,1.9682 L51.2685634,1.7282 C50.429944,1.6982 50.4971082,1.8272 50.0353545,2.1072 C49.5083022,2.2582 48.4448694,2.0132 48.3208022,1.6722 C48.2079291,1.8792 47.7489739,2.1572 47.2545709,2.0592 C47.1883396,1.9302 47.3683769,1.8512 47.4588619,1.8122 C46.0568097,1.5562 45.3739739,2.2492 44.4094216,1.8792 C44.3898321,1.7552 44.3263993,1.6932 44.2471082,1.6552 C45.3609142,1.6642 46.2573694,1.6852 46.1734142,1.7122 C46.1734142,1.3652 45.2732276,1.3052 45.9896455,0.8262 C45.2676306,1.0872 44.032556,1.6552 43.1556903,1.4922 C43.1137127,1.4592 43.0717351,1.4252 43.0390858,1.3722 L43.1305037,1.3332 C42.9280784,1.2982 42.7461754,1.3312 42.5763993,1.3892 C42.2965485,1.3322 42.1183769,1.2902 41.8497201,1.2852 C41.7461754,0.9982 40.8180037,1.1302 40.3693097,1.1162 C40.4066231,1.4962 39.8189366,1.4352 40.3693097,1.7482 C40.2984142,1.7212 40.4541978,1.7032 40.7527052,1.6872 C40.8198694,1.6762 40.9000933,1.6702 40.9439366,1.6472 C40.935541,1.6582 40.924347,1.6702 40.913153,1.6812 C41.2079291,1.6702 41.5922575,1.6622 42.0278918,1.6552 C41.674347,1.8482 41.3040112,2.0102 40.8077425,1.8002 C40.5773321,2.0442 40.3236007,2.2942 40.1818097,2.4122 C39.5670709,1.8832 38.3842351,1.5972 38.2191231,1.2712 C36.8497201,1.4832 34.992444,1.4112 34.1314366,2.1242 C33.7415112,2.2152 33.6836754,1.9192 33.538153,1.8082 C33.7629664,1.7362 34.0306903,1.7472 34.151959,1.6452 C33.373041,1.8272 31.845056,1.7152 31.6594216,2.2132 C30.6780784,1.9892 32.2107276,1.7552 30.861847,1.8362 L31.04375,1.6842 C28.3907649,0.8882 26.73125,2.9562 23.7900187,1.9342 C23.9933769,1.9962 24.095056,2.0252 24.1370336,2.1092 C20.7834888,1.6582 17.2265858,2.5322 13.9178172,1.8172 C12.9765858,1.6732 12.8749067,1.9912 12.3012127,2.2332 L12.0978545,1.8252 L11.1155784,2.2952 C9.72472015,2.6402 8.70606343,1.2952 6.94393657,1.9462 L7.17154851,2.2212 C6.53815299,2.1692 5.16688433,2.3832 5.27229478,2.0672 C5.2079291,2.1172 5.06427239,2.3532 4.8170709,2.2102 L4.79841418,1.9962 L3.24337687,2.3622 C2.03908582,2.2082 3.4318097,1.5152 1.67341418,1.4742 C1.0204291,1.5562 -0.187593284,2.0952 0.0577425373,2.2372 C0.321735075,2.2482 0.73125,2.3702 0.751772388,2.5842 L0.153824627,2.6952 C0.0456156716,3.3242 -0.414272388,3.9672 1.05307836,4.4062 L2.07546642,4.0222 L2.40475746,4.3272 L1.54468284,4.3462 C2.03255597,4.6332 2.34225746,4.3792 2.68927239,4.2052 C2.7704291,4.3672 2.91408582,4.4812 3.11744403,4.5412 L4.12117537,3.9402 C4.24337687,4.1872 3.67154851,4.4282 4.34505597,4.5642 C4.81520522,4.2852 3.89449627,4.0132 4.67248134,3.8302 C5.16128731,4.1152 5.01949627,4.3482 5.5931903,4.1042 C5.67341418,4.2662 5.55214552,4.3692 5.32453358,4.4402 C5.83572761,4.2462 6.67714552,4.3582 6.94113806,4.0242 C7.45139925,4.3772 8.66688433,3.9322 8.61651119,4.5272 C8.77695896,4.3852 9.51669776,4.0602 9.98591418,4.0362 C9.12863806,4.7482 11.7433769,4.0772 11.5166978,4.8412 C12.151959,4.2012 13.8096082,4.5572 14.9346082,4.2012 C14.8711754,4.2522 14.748041,4.3552 14.6482276,4.3222 C15.2816231,4.3762 15.4653918,4.5692 15.8721082,4.6892 C15.9532649,4.1612 16.9383396,4.0402 17.470056,3.7132 C18.2452425,4.2242 16.9989739,4.3352 17.242444,4.8252 C17.2032649,4.3962 18.5903918,4.3972 18.3263993,4.0402 C18.9196828,4.3562 18.8375933,4.1932 19.1435634,4.6312 C19.2471082,3.9702 19.6958022,4.5202 20.1874067,4.1132 C21.0456157,4.4392 20.4084888,4.7332 21.3515858,4.5312 C21.8002799,4.7342 20.9616604,4.9692 20.9616604,4.9692" id="Fill-62" fill="#E61F1F" mask="url(#mask-20)"></path>
                    </g>
                    <path d="M40.7525187,2.05752 C40.7096082,2.06552 40.6853545,2.08152 40.6293843,2.08452 C40.6909515,2.11852 40.7487873,2.14652 40.807556,2.17052 C40.8439366,2.13052 40.88125,2.09052 40.9129664,2.05152 C40.8588619,2.05352 40.8028918,2.05452 40.7525187,2.05752" id="Fill-65" fill="#E61F1F"></path>
                    <path d="M211.617631,2.61952 L211.578451,2.61052 C211.611101,2.62552 211.640951,2.64052 211.661474,2.66452 C211.634422,2.64652 211.634422,2.63452 211.617631,2.61952" id="Fill-67" fill="#E61F1F"></path>
                    <g id="Group-71" transform="translate(70.895522, 4.370220)">
                        <mask id="mask-22" fill="white">
                            <use xlink:href="#path-21"></use>
                        </mask>
                        <g id="Clip-70"></g>
                        <polygon id="Fill-69" fill="#E61F1F" mask="url(#mask-22)" points="0.407742537 0.5452 0.40494403 0.4492 0.240764925 0.5332"></polygon>
                    </g>
                    <path d="M221.999067,3.92222 C222.018657,3.95522 222.057836,3.99022 222.135261,4.01922 C222.129664,3.99422 222.070896,3.96022 221.999067,3.92222" id="Fill-72" fill="#E61F1F"></path>
                    <path d="M226.483396,4.00722 L227.117724,4.14222 C226.84347,4.06522 226.64291,4.02822 226.483396,4.00722" id="Fill-74" fill="#E61F1F"></path>
                    <path d="M229.931437,4.19522 C229.974347,4.12922 229.987407,4.07822 229.998601,4.03222 C229.995802,4.03122 229.993937,4.03122 229.992071,4.02922 L229.931437,4.19522 Z" id="Fill-76" fill="#E61F1F"></path>
                    <g id="Group-80" transform="translate(174.440299, 4.370220)">
                        <mask id="mask-24" fill="white">
                            <use xlink:href="#path-23"></use>
                        </mask>
                        <g id="Clip-79"></g>
                        <path d="M0.670615672,0.2708 C0.623973881,0.2728 0.578264925,0.2778 0.537220149,0.2888 C0.224720149,0.3618 0.437406716,0.3328 0.670615672,0.2708" id="Fill-78" fill="#E61F1F" mask="url(#mask-24)"></path>
                    </g>
                    <path d="M191.424627,3.75472 C191.251119,3.82372 191.081343,3.89072 190.900373,3.93372 C191.190485,3.96272 191.416231,3.97072 191.424627,3.75472" id="Fill-81" fill="#E61F1F"></path>
                    <g id="Group-85" transform="translate(156.716418, 4.370220)">
                        <mask id="mask-26" fill="white">
                            <use xlink:href="#path-25"></use>
                        </mask>
                        <g id="Clip-84"></g>
                        <path d="M0.17733209,0.7278 C0.179197761,0.7258 0.17733209,0.7248 0.179197761,0.7218 C0.140018657,0.7228 0.105503731,0.7218 0.0663246269,0.7218 L0.17733209,0.7278 Z" id="Fill-83" fill="#E61F1F" mask="url(#mask-26)"></path>
                    </g>
                    <path d="M190.141978,3.92712 C190.43209,4.00312 190.674627,3.98712 190.900373,3.93412 C190.6625,3.90812 190.381716,3.86912 190.141978,3.92712" id="Fill-86" fill="#E61F1F"></path>
                    <path d="M244.875,4.36752 L245.041045,4.38352 C245.038246,4.35852 245.048507,4.33752 245.060634,4.32252 L244.875,4.36752 Z" id="Fill-88" fill="#E61F1F"></path>
                    <path d="M245.060821,4.32212 L245.245522,4.27712 C245.160634,4.27712 245.08694,4.28012 245.060821,4.32212" id="Fill-90" fill="#E61F1F"></path>
                    <path d="M245.633396,4.18202 L245.245336,4.27702 C245.379664,4.27802 245.545709,4.29002 245.633396,4.18202" id="Fill-92" fill="#E61F1F"></path>
                    <path d="M240.310541,4.19222 L240.258302,4.33022 C240.28722,4.30122 240.304944,4.25622 240.310541,4.19222" id="Fill-94" fill="#E61F1F"></path>
                    <path d="M238.923601,4.23182 C239.253825,4.26282 239.753825,4.52582 240.215578,4.43982 L240.258489,4.32982 C240.041138,4.53482 239.237966,3.99982 238.923601,4.23182" id="Fill-96" fill="#E61F1F"></path>
                    <path d="M233.134328,2.53112 L234.296642,2.64112 C234.093284,2.49412 233.826493,2.29712 234.354478,2.26212 C232.888993,1.82412 234.656716,2.59012 233.134328,2.53112" id="Fill-98" fill="#E61F1F"></path>
                    <path d="M229.530131,2.31822 C230.154198,2.25022 229.522668,2.10522 229.55625,2.02222 C229.159795,2.15622 229.063713,2.19022 229.530131,2.31822" id="Fill-100" fill="#E61F1F"></path>
                    <path d="M203.486287,2.31672 L203.548787,1.97172 C203.067444,2.02072 203.544123,2.10572 203.486287,2.31672" id="Fill-102" fill="#E61F1F"></path>
                    <polygon id="Fill-104" fill="#E61F1F" points="198.507836 4.10192 198.976119 4.31592 199.199067 3.99992"></polygon>
                    <polygon id="Fill-106" fill="#E61F1F" points="195.566791 1.64192 195.776679 1.59292 194.973507 1.71792"></polygon>
                    <path d="M151.825933,1.76452 L151.971455,2.18952 C152.297015,2.11352 152.365112,1.63552 151.825933,1.76452" id="Fill-108" fill="#E61F1F"></path>
                    <path d="M132.94291,2.19762 C132.737687,1.98562 132.20597,1.84862 131.878545,2.05762 C132.302985,2.08662 132.727425,2.25262 132.94291,2.19762" id="Fill-110" fill="#E61F1F"></path>
                    <polygon id="Fill-112" fill="#E61F1F" points="76.3113806 1.50472 76.6910448 1.36272 75.9755597 1.48172"></polygon>
                </g>
            </g>
        </g>
    </g>
</svg>