<?xml version="1.0" encoding="UTF-8"?>
<svg width="231px" height="231px" viewBox="0 0 231 231" version="1.1" xmlns="http://www.w3.org/2000/svg" xmlns:xlink="http://www.w3.org/1999/xlink">
    <!-- Generator: Sketch 41.1 (35376) - http://www.bohemiancoding.com/sketch -->
    <title>slogain</title>
    <desc>Created with Sketch.</desc>
    <defs>
        <rect id="path-1" x="1" y="1" width="219" height="219"></rect>
        <filter x="-50%" y="-50%" width="200%" height="200%" filterUnits="objectBoundingBox" id="filter-2">
            <feMorphology radius="4" operator="dilate" in="SourceAlpha" result="shadowSpreadOuter1"></feMorphology>
            <feOffset dx="1" dy="1" in="shadowSpreadOuter1" result="shadowOffsetOuter1"></feOffset>
            <feMorphology radius="1" operator="erode" in="SourceAlpha" result="shadowInner"></feMorphology>
            <feOffset dx="1" dy="1" in="shadowInner" result="shadowInner"></feOffset>
            <feComposite in="shadowOffsetOuter1" in2="shadowInner" operator="out" result="shadowOffsetOuter1"></feComposite>
            <feGaussianBlur stdDeviation="1" in="shadowOffsetOuter1" result="shadowBlurOuter1"></feGaussianBlur>
            <feColorMatrix values="0 0 0 0 0   0 0 0 0 0   0 0 0 0 0  0 0 0 0.5 0" type="matrix" in="shadowBlurOuter1"></feColorMatrix>
        </filter>
        <mask id="mask-3" maskContentUnits="userSpaceOnUse" maskUnits="objectBoundingBox" x="-4" y="-4" width="227" height="227">
            <rect x="-3" y="-3" width="227" height="227" fill="white"></rect>
            <use xlink:href="#path-1" fill="black"></use>
        </mask>
        <polygon id="path-4" points="40.8510776 0.541 0.1079 0.541 0.1079 82.4727 40.8510776 82.4727 40.8510776 0.541"></polygon>
    </defs>
    <g id="Page-1" stroke="none" stroke-width="1" fill="none" fill-rule="evenodd">
        <g id="Artboard" transform="translate(-588.000000, -36.000000)">
            <g id="slogain" transform="translate(592.000000, 40.000000)">
                <g id="Page-1" stroke="#CC3737">
                    <polygon id="Stroke-1" points="0.75 110.468 110.54 110.468 110.54 0.678 0.75 0.678"></polygon>
                    <path d="M1.767,38.2911 L110.25,38.2911" id="Stroke-3" stroke-width="0.25"></path>
                    <path d="M1.767,74.8878 L110.25,74.8878" id="Stroke-4" stroke-width="0.25"></path>
                    <path d="M73.6049,0.0001 L73.6049,110.4681" id="Stroke-7" stroke-width="0.25"></path>
                    <path d="M35.6049,0.0001 L35.6049,110.4681" id="Stroke-7-Copy" stroke-width="0.25"></path>
                    <polygon id="Stroke-9" points="110.707 110.468 220.497 110.468 220.497 0.678 110.707 0.678"></polygon>
                    <path d="M146.643,0.0001 L146.643,110.4681" id="Stroke-11" stroke-width="0.25"></path>
                    <path d="M184.9174,0.0001 L184.9174,110.4681" id="Stroke-12" stroke-width="0.25"></path>
                    <path d="M110.933,38.2911 L219.416,38.2911" id="Stroke-14" stroke-width="0.25"></path>
                    <path d="M110.933,74.8878 L219.416,74.8878" id="Stroke-15" stroke-width="0.25"></path>
                    <polygon id="Stroke-16" points="0.5 220.468 110.29 220.468 110.29 110.678 0.5 110.678"></polygon>
                    <path d="M36.0805,110.0001 L36.0805,220.4681" id="Stroke-18" stroke-width="0.25"></path>
                    <path d="M73.3549,110.0001 L73.3549,220.4681" id="Stroke-19" stroke-width="0.25"></path>
                    <path d="M0.936,148.2911 L109.419,148.2911" id="Stroke-20" stroke-width="0.25"></path>
                    <path d="M0.936,184.8878 L109.419,184.8878" id="Stroke-21" stroke-width="0.25"></path>
                    <polygon id="Stroke-22" points="110.707 220.468 220.497 220.468 220.497 110.678 110.707 110.678"></polygon>
                    <path d="M146.2875,110.0001 L146.2875,220.4681" id="Stroke-24" stroke-width="0.25"></path>
                    <path d="M183.5619,110.0001 L183.5619,220.4681" id="Stroke-25" stroke-width="0.25"></path>
                    <path d="M111.353,148.2911 L219.836,148.2911" id="Stroke-26" stroke-width="0.25"></path>
                    <path d="M111.353,184.8878 L219.836,184.8878" id="Stroke-27" stroke-width="0.25"></path>
                </g>
                <g id="Rectangle-3">
                    <use fill="black" fill-opacity="1" filter="url(#filter-2)" xlink:href="#path-1"></use>
                    <use stroke="#CC3737" mask="url(#mask-3)" stroke-width="8" xlink:href="#path-1"></use>
                </g>
                <path d="M129.229156,44.1943682 C129.815878,45.0106668 129.663005,45.3468899 128.225666,46.4253573 C128.315339,45.9835857 128.405013,45.5367069 128.526286,44.9357614 C128.169299,45.1987815 127.914797,45.3860449 127.672251,45.5647965 C128.489562,44.4207868 129.306873,43.2759259 130.12333,42.131065 C130.22923,42.1966072 130.33513,42.2621494 130.441031,42.3276916 C130.03451,42.9533219 129.628844,43.5789522 129.229156,44.1943682 M125.224589,51.8951537 C124.967525,50.3127772 126.73623,49.3909301 126.593606,47.8391967 C125.013642,49.6675694 124.558442,52.0807148 123.314114,54.0776246 C123.838491,51.1707845 125.10417,48.5959115 126.792596,46.2168139 C126.960841,45.9793297 127.291352,45.8550549 127.559519,45.6873689 C127.480948,45.941877 127.402377,46.1963852 127.315265,46.4772804 L128.17357,46.4772804 C127.833664,47.220376 127.525357,47.9804955 127.143604,48.7023112 C126.565423,49.7935466 125.935146,50.8583949 125.224589,51.8951537 M188.797197,56.4831093 C188.460707,54.8164642 188.018318,53.1702479 187.588738,51.5240315 C187.48113,51.1103495 187.270184,50.7145425 187.058383,50.3383132 C186.735558,49.7646059 186.346973,49.2275002 186.027564,48.6520905 C185.439134,47.5889446 184.95148,46.46281 184.291312,45.4473312 C183.475709,44.193517 182.561038,42.996733 181.626725,41.825485 C180.508794,40.4227112 179.448937,38.9382224 178.13714,37.7346288 C176.696384,36.4118676 175.014791,35.3453169 173.403228,34.2166288 C172.748184,33.7578332 172.001758,33.4292709 171.296325,33.0411247 C170.858206,32.7993846 170.42521,32.5491325 169.981112,32.3184579 C169.337171,31.9839372 168.685542,31.6638869 168.03733,31.3378781 C167.559925,31.6392021 167.019321,31.9720204 166.488966,32.3218627 C166.360861,32.4078337 166.291684,32.6070139 166.158455,32.6580858 C164.984158,33.1092206 163.86281,32.7704439 162.736339,32.4163456 C161.667942,32.0801225 160.599545,32.1056585 159.56958,32.577222 C158.827424,32.9159987 158.32696,33.4003302 158.745437,34.3230285 C158.436276,34.3783563 158.177504,34.424321 157.706931,34.5085896 C159.17587,34.9733435 160.416782,35.3657457 161.872056,35.8270948 C161.287043,35.8815715 160.940305,35.913917 160.341627,35.970096 C161.945503,36.8442761 163.459706,37.2979644 164.275309,38.7705364 C164.80481,39.7272827 165.789512,40.5546468 165.975691,41.5505481 C166.216529,42.8358566 167.077396,43.5210708 167.773434,44.3892924 C168.548897,45.356253 169.446487,46.2261771 170.209994,47.2007984 C170.792445,47.9430428 171.270704,48.770407 171.755796,49.584152 C172.387781,50.6430419 172.991584,51.7189558 173.588554,52.7982745 C174.435756,54.3278768 175.266731,55.8668422 176.139554,57.4662427 C176.343668,57.2764256 176.473482,57.1555555 176.641726,56.9980839 C176.829614,57.2168417 177.07643,57.3921885 177.156709,57.6245654 C177.247237,57.8850319 177.163541,58.2008263 177.197703,58.4876799 C177.325808,59.5576354 178.5838,60.5611975 177.382174,61.7120168 C177.353991,61.7392551 177.412065,61.84225 177.406087,61.9077923 C177.166103,64.356688 177.026896,66.8209054 176.640018,69.2468188 C176.433342,70.5440441 175.930316,71.839567 175.330784,73.0201782 C174.205166,75.2375482 173.351986,77.6617592 171.36294,79.3301067 C169.92133,80.5388075 168.389192,81.6402573 166.914275,82.8106541 C166.407833,83.2124194 165.953487,83.6805782 165.476081,84.1180938 C165.15411,84.0678731 164.789438,84.1095818 164.503336,84.2815237 C164.023369,84.5700798 163.607454,84.9607795 163.139443,85.2706155 C162.831137,85.4757541 162.495502,85.677488 162.142785,85.7694173 C161.205056,86.0120087 160.245975,86.1737362 159.306537,86.409518 C158.520826,86.6061447 157.747071,87.0691962 156.975024,87.0530234 C154.688774,87.0062076 152.386297,86.913427 150.127376,86.5857159 C148.195551,86.3065231 146.316675,85.6655712 144.408762,85.208478 C142.980817,84.8662966 141.729657,84.278119 140.679194,83.1911395 C139.713282,82.1909822 138.452727,81.453845 137.572217,80.3949551 C136.191244,78.7359707 134.957164,76.9450508 133.785429,75.1294461 C133.027047,73.9530909 132.295993,72.6890623 131.919364,71.3611939 C131.615328,70.289536 131.877516,69.0638113 131.851041,67.9070336 C131.843355,67.5682569 131.645219,67.2337363 131.641803,66.8958108 C131.627284,65.5270849 131.6623,64.1566566 131.652051,62.7870795 C131.651197,62.7113229 131.582021,62.6432271 131.543589,62.6193935 C132.018432,60.4845897 132.449719,58.5430078 132.896379,56.5307764 C132.740091,56.4839605 132.443741,56.3928824 132.146537,56.3026554 C132.159348,56.253286 132.172158,56.2030653 132.185823,56.1536958 L133.024485,56.1536958 C132.791333,55.8506694 132.585511,55.5850958 132.380543,55.3186709 C132.439471,55.2267415 132.498399,55.1348122 132.556474,55.0428828 C133.352434,55.6072269 133.730771,55.1373658 134.006624,54.548337 C134.783795,52.8919062 135.899164,51.5163708 137.103353,50.1246625 C139.249541,47.6451236 141.460636,45.2541093 144.000534,43.1908061 C144.655578,42.6579563 145.596724,42.4494129 146.432824,42.1727736 C147.024669,41.9769982 147.662633,41.9182655 148.303159,41.7931395 C147.78476,40.4669735 147.93934,40.133304 149.105097,39.5706623 C149.490267,39.3851012 149.819924,39.0880332 150.206801,38.8207571 C148.837784,38.187466 147.747183,36.9838725 146.234688,38.1670373 C146.020325,37.61461 145.854642,37.1873087 145.690668,36.7625611 C143.8135,37.4716088 141.890215,38.1985316 139.876402,38.9595023 L139.876402,37.9618986 C139.178656,38.4921948 138.605599,38.9586511 137.999235,39.375738 C137.725944,39.5630015 137.343336,39.8217656 137.082856,39.7570746 C136.164769,39.5298048 135.618187,39.982642 135.040006,40.5657124 C134.754758,40.852566 134.307244,40.9785433 133.896454,41.1973011 C133.741019,40.8832091 133.610352,40.6210402 133.553132,40.5061285 C133.817028,39.9298677 134.023705,39.4778817 134.273937,38.9314128 C133.90841,38.992699 133.730771,39.022491 133.553986,39.0522829 C134.536125,38.273437 135.304756,37.1438976 136.753198,37.2826429 C137.913831,37.3932986 138.983082,36.7574539 139.477568,35.6108906 C137.561115,34.9358908 136.479908,36.7685195 134.895674,37.0843138 C135.04513,36.8298057 135.431153,36.6536078 135.425175,36.4935826 C135.374787,35.2567923 136.414147,35.3963888 137.101645,35.0610169 C137.317715,34.9554684 137.426178,34.6294596 137.58332,34.4047435 C136.871909,34.5460423 136.401336,34.8082112 135.950406,35.0993208 C134.11594,36.2833368 132.139705,37.3056252 130.495689,38.712655 C128.655245,40.2873707 127.115421,42.2119287 125.448346,43.9875271 C124.90091,44.5705976 124.340663,45.1443048 123.829951,45.7571671 C123.573741,46.0644495 123.396955,46.4432325 123.214192,46.8041403 C122.941755,47.3420973 122.719706,47.9064413 122.431043,48.4341839 C122.130423,48.9823552 121.549679,49.4760499 121.487335,50.0369892 C121.304571,51.6619256 120.109777,53.0425682 120.435164,54.7892259 C120.528254,55.2956885 120.301935,55.874503 120.16956,56.4073527 C119.937262,57.3394142 119.491456,58.2536005 119.445339,59.189918 C119.361643,60.8855038 119.547823,62.5930064 119.546115,64.2954018 C119.543553,67.5316554 120.244715,70.647039 121.159386,73.7173091 C122.226928,77.3025538 123.587405,80.7745892 125.787398,83.8457105 C126.533824,84.8884277 127.413479,85.8366619 128.232498,86.8274561 C128.321317,86.7678722 128.409283,86.7074372 128.498103,86.6478533 L128.498103,85.7660125 C128.892666,86.3099279 129.347867,86.6538117 129.364093,87.0172731 C129.399963,87.8208038 129.900427,88.1808604 130.441031,88.5681553 C130.526434,87.3458355 129.663859,86.6495557 129.015647,85.7762269 C128.362311,84.8952373 127.854161,83.826133 127.224737,82.9715305 C125.700286,80.9031201 124.90091,78.5104034 123.686473,76.3151645 C123.138183,75.3243704 122.491679,74.3548562 122.152627,73.2917103 C121.801619,72.192814 121.779414,70.9909229 121.591527,69.8384012 C121.500999,69.2842715 121.361792,68.7386538 121.238811,68.1904825 C121.224292,68.1274938 121.145721,68.072166 121.145721,68.0134333 C121.139743,66.1986799 121.141451,64.3830752 121.141451,62.5674705 C121.266994,62.5623633 121.393391,62.5572561 121.519788,62.5521489 C121.592381,62.8815624 121.664974,63.2109759 121.77856,63.7268017 C122.016836,63.4688888 122.3055,63.3012029 122.308916,63.1284098 C122.343077,61.4660207 122.329413,59.8027804 122.329413,58.1310281 L121.77856,58.1310281 C122.029647,56.7818797 122.296105,55.5501967 123.753942,55.0267101 C123.937559,54.9603167 124.023817,54.5883433 124.127155,54.3466031 C124.341517,53.8426941 124.536237,53.3302731 124.740351,52.8212568 L125.023037,52.9259542 C124.801842,53.6503234 124.549048,54.3670319 124.369701,55.1016155 C124.203164,55.7825736 124.220245,56.5231156 123.969158,57.1649187 C123.404642,58.612806 123.034845,60.1015507 122.823044,61.6285994 C122.728247,62.3087064 122.856352,63.0186053 122.772656,63.7012658 C122.544629,65.5551744 123.250062,67.2771473 123.593383,69.0255074 C124.051146,71.3501283 124.762556,73.6628325 125.681497,75.8487082 C126.310067,77.3425601 127.476678,78.6142495 128.409283,79.9804218 C129.006253,80.8563042 129.569062,81.7168651 129.931172,82.7553263 C130.219836,83.585244 131.000423,84.2491782 131.580313,84.9718451 C131.840793,85.2961514 132.236211,85.5421475 132.40958,85.9005018 C132.780231,86.6691333 133.492495,86.8351168 134.171453,87.1321848 C134.525023,87.2871028 134.776963,87.6616298 135.092102,87.9152867 C135.968341,88.6209296 136.769425,89.4917049 137.761813,89.9581612 C138.585956,90.3463073 139.170116,90.8885203 139.777334,91.4852099 C139.876402,91.5822464 140.111262,91.6358719 140.242783,91.5916096 C140.995187,91.3336967 140.967858,91.8333497 141.095109,92.3278956 C141.184783,92.674333 141.455512,93.1535573 141.744175,93.2369747 C142.815134,93.5476619 143.933065,93.6923655 145.015981,93.9664511 C145.2423,94.0243326 145.395172,94.3682165 145.590746,94.5903791 C145.350762,94.6474093 145.139816,94.69763 144.928015,94.7469994 C144.919475,94.8142441 144.91008,94.8806375 144.90154,94.9478821 C145.773509,95.2202654 146.645478,95.4934998 147.517447,95.7650319 C147.499513,95.8297229 147.481578,95.8935627 147.462789,95.9582538 C146.461007,95.73524 145.420793,95.6177747 144.465129,95.2687836 C142.437651,94.5290928 140.461416,93.6498056 138.445895,92.8777693 C138.082076,92.7390241 137.626022,92.837763 137.212669,92.8275486 C135.179213,91.2596425 133.144903,89.6917363 130.903063,87.963805 C131.212224,88.61412 131.391571,88.9920518 131.570918,89.3699836 C131.982563,89.6381109 132.388229,89.9164525 132.80756,90.1718118 C134.274791,91.063867 135.746292,91.9482614 137.216939,92.8352094 C137.741316,93.3740175 138.189684,94.0319934 138.808005,94.4252467 C140.569024,95.5437205 142.440213,96.4732284 144.518933,96.8579697 C146.712093,97.263991 148.914647,97.6197917 151.11464,97.9815507 C151.763706,98.0879504 152.423875,98.1237007 153.072941,98.224142 C153.663932,98.3152202 154.264319,98.5961154 154.832251,98.533978 C155.998008,98.4054471 157.14583,98.1041232 158.504599,97.8334423 C157.250877,97.6248989 156.208955,97.4844512 155.18326,97.2716518 C154.173791,97.061406 153.178841,96.7779571 152.178767,96.5260026 C151.174422,96.2731969 150.188013,95.9880457 149.565422,95.0304483 C149.857501,94.9504357 150.105171,94.977674 150.343447,95.0415138 C150.855013,95.1785567 151.41526,95.5513813 151.860212,95.4432792 C153.120767,95.1334432 154.218201,95.2534621 155.254998,96.0476295 C155.411287,96.1676484 155.724717,96.1736068 155.93481,96.1174277 C157.062135,95.8152525 158.18092,95.4764759 159.155373,95.193027 C159.43208,94.8602087 159.680604,94.5605871 159.929982,94.2609656 L160.169112,94.4661042 C160.144345,94.5588847 160.12214,94.6533677 160.094811,94.745297 C160.066628,94.8406312 160.032466,94.9334117 159.989765,95.0619426 C161.971978,94.9725668 163.84573,94.8865959 165.436796,93.7970628 C165.407759,93.6566152 165.377867,93.5170188 165.34883,93.3774223 C164.523833,93.513614 163.698836,93.6506568 162.623607,93.8294083 C163.700544,93.2216532 164.54006,92.6990178 165.422277,92.2597998 C167.19269,91.3779589 169.001535,90.5727259 170.7617,89.6738612 C171.645625,89.2227264 172.535529,88.7256269 173.286225,88.088931 C174.650972,86.9295998 175.913235,85.6511008 177.218199,84.4219714 C177.273712,84.4798528 177.330078,84.5385854 177.386444,84.5973181 C176.975654,85.1761325 176.564009,85.754947 176.153219,86.3346126 C177.307873,85.6417377 178.044905,84.6662651 178.414702,83.4337308 C179.902429,83.2788129 179.651343,81.3985171 180.915314,80.9950494 C180.606154,81.7023947 180.182553,82.3271738 179.803361,82.9774889 C179.343891,83.7648467 179.053519,84.6952058 178.453133,85.3463721 C177.412919,86.4767626 176.186526,87.4360624 175.045536,88.476226 C173.901984,89.5189432 172.927531,90.917461 171.589259,91.5345793 C169.857278,92.3330028 168.483136,93.7962116 166.546186,94.163929 C166.454805,94.180953 166.314743,94.2720311 166.307057,94.3401269 C166.190054,95.3956121 165.301858,95.1079073 164.543476,95.5454229 C164.73478,95.1751519 164.790292,95.0687522 164.886798,94.8823399 C163.284629,95.2287773 161.800318,95.6262867 160.339065,96.5243002 C162.197444,96.5243002 163.888432,96.7353973 165.494016,96.4579068 C166.809229,96.230637 168.026228,95.425404 169.283366,94.8695719 C171.735299,93.7834436 173.995074,92.3925866 175.891884,90.4901598 C177.609347,88.7673356 179.165398,86.8768255 180.95033,85.229758 C183.260492,83.0966565 184.603888,80.3694191 185.94216,77.6481401 C186.828648,75.8461546 187.44099,73.9037214 188.103721,71.9995922 C188.420568,71.0896618 188.658843,70.1320644 188.774992,69.1770206 C189.003873,67.3060881 189.054261,65.4130244 189.301931,63.5454966 C189.619632,61.1459703 189.26777,58.8094326 188.797197,56.4831093" id="Fill-1" fill="#C6626E"></path>
                <g id="Page-1" transform="translate(11.000000, 16.000000)">
                    <g id="Group-10" transform="translate(103.000000, 0.000000)" fill="#000000">
                        <path d="M28.9009871,34.6663782 C28.9898258,35.0074679 29.0775677,35.3485577 29.1664065,35.6896474 C31.6253742,35.2799038 34.1007935,34.9475321 36.5312452,34.4113782 C37.2287935,34.2566346 37.7936323,33.5145192 38.4209871,33.0415705 C37.8155677,32.368109 37.3406645,31.4102244 36.5827935,31.0658654 C32.5027935,29.2056731 31.2766,33.0840705 28.9009871,34.6663782 M57.8635032,37.5269551 L57.8635032,62.6302885 C63.0293097,60.8975962 67.7026645,59.3305449 72.3102129,57.7841987 C71.4075677,54.7623397 70.7703419,52.6264423 70.0530516,50.2268269 C67.9647935,50.4981731 65.9039548,51.1650962 63.9780194,50.8926603 C62.4249871,50.6725321 61.0353742,49.3190705 59.5722774,48.4690705 L60.1634387,47.6081731 C63.0523419,48.0397115 68.3925355,45.4733654 68.5000194,43.6000962 C68.7149871,39.9047756 64.5439548,37.4419551 57.8635032,37.5269551 M101.106019,62.0341987 C89.2246645,62.5104167 77.6131161,62.8929167 66.014729,63.4999038 C63.2574387,63.6448397 60.5418258,64.5449679 57.4631806,65.1661218 C57.6726645,69.4858654 57.8799548,73.6323397 58.0718903,77.7799038 C58.1245355,78.9197756 58.4009226,80.1413782 58.0905355,81.1842628 C57.7220194,82.4200321 56.8303419,83.5010577 56.1646,84.6496474 C55.1358258,84.0208654 53.8098258,83.6154808 53.1298258,82.7240705 C50.4120194,79.1584295 48.7591806,75.6984936 49.8098903,70.5647115 C51.4254387,62.6836859 51.4353097,54.4779167 52.1153097,46.5358654 C42.2333742,44.1090064 32.8954387,47.8686218 32.4304065,54.2458013 C39.6416968,56.6650321 49.3437613,57.1238141 45.8307935,69.8629167 C44.1933097,68.6870833 42.3781484,67.8240064 41.1881484,66.4324038 C39.0461484,63.9303526 37.2441484,61.1340705 35.3653742,58.4151603 C33.3637613,55.521891 32.5773742,55.6166987 30.3936968,58.4652885 C27.2558258,62.5616346 24.0170516,66.5980449 20.5622129,70.4284936 C19.366729,71.7547115 17.3969226,72.3922115 15.4929226,73.0841987 C19.6847935,65.6107372 26.4310516,59.5583013 27.7186645,50.0666346 C18.6593097,52.2308654 10.0606,54.2861218 1.46079355,56.3402885 C1.30395484,55.7234936 1.14601935,55.105609 0.989180645,54.4877244 C2.43582581,54.1106731 3.89124516,53.7684936 5.32582581,53.3511218 C12.1773742,51.3558013 19.0453742,49.410609 25.8552452,47.2834295 C27.6594387,46.7200321 29.5086,45.7817628 28.5620839,43.1467628 C27.9270516,41.37375 27.1483419,40.2077244 24.9504065,40.9084295 C23.2536968,41.4500321 21.4999548,41.9120833 19.7363419,42.1224038 C18.6626,42.2499038 17.5241484,41.8336218 16.4153097,41.6603526 C16.7355677,40.2796474 16.6006645,38.4041987 17.4671161,37.6184936 C19.5202774,35.7550321 22.0801484,34.4516987 24.3614387,32.8214423 C24.8846,32.44875 25.112729,31.6695833 25.6271161,30.829391 C22.0834387,29.9641346 17.8729226,33.2758654 15.2549226,28.3131731 C21.7840194,27.7726603 27.4620194,25.8874038 31.6440194,21.7267628 C29.1148581,19.1168269 26.6920839,16.6147756 24.2605355,14.1029167 C28.8966,13.0022756 32.7649226,12.0825321 36.5016323,11.1954808 C35.3412452,13.3411859 33.938471,15.9369551 32.5346,18.5327244 C33.0248581,18.8792628 33.5140194,19.2258013 34.0031806,19.5723397 C35.4607935,17.8984936 37.134471,16.3619551 38.3178903,14.51375 C39.5396968,12.6066987 40.0968581,10.2790064 41.316471,8.36977564 C41.9668581,7.35304487 43.8653742,5.96144231 44.4006,6.24259615 C46.2431806,7.21028846 47.9486645,8.67272436 49.2286,10.3149679 C49.6355032,10.8369551 48.8907935,12.9554167 48.0791806,13.5645833 C46.0687935,15.0760577 43.8368581,16.4916346 41.4711161,17.2925962 C38.5536968,18.2799038 37.8046,19.2465064 40.5509226,21.2178526 C42.2322774,22.4252885 42.0524065,23.4245833 40.7987935,24.9295192 C38.0963419,28.1693269 38.4001484,29.0171474 42.3276968,30.5482372 C46.9418258,32.3463141 47.1337613,32.7255449 46.0183419,38.0271474 C43.1612452,37.5836218 40.2745355,36.6998397 37.4349871,36.830609 C35.1273742,36.9363141 32.8746,38.2570833 30.3860194,39.1114423 C31.2096968,42.1790705 33.3615677,43.1990705 35.9609226,43.5783013 C36.692471,43.6850962 37.4996968,43.49875 38.2389226,43.3124038 C55.0162774,39.0874679 51.1720839,43.9324679 51.3716968,24.4434936 C46.8836968,23.6991987 48.0440839,21.6101603 49.7934387,18.7288782 C51.8838903,15.283109 53.4632452,11.5027885 54.9724065,7.75080128 C55.5032452,6.43439103 55.7390516,4.48157051 55.1292452,3.33080128 C53.4467935,0.149839744 54.8331161,0.0266987179 57.3951806,0.51599359 C63.4131806,1.66458333 64.5538258,3.73727564 61.1176323,8.68798077 C58.2331161,12.8431731 54.6455677,16.5145192 50.9264065,20.9247115 C53.1978258,22.1583013 55.5668581,23.4452885 57.1703419,24.3159936 C57.1703419,27.693109 57.0826,30.7378526 57.2482129,33.7684295 C57.2789226,34.3449038 58.3285355,35.3529167 58.874729,35.3322115 C61.5398903,35.2286859 64.6711806,35.589391 66.6936323,34.3111218 C68.2038903,33.3565064 68.2762774,30.1570192 69.0999548,27.6135577 L62.7726645,27.6135577 C65.0506645,26.069391 66.6552452,24.9818269 68.3091806,23.859391 C66.8384065,19.0438141 64.0196968,23.0911218 61.8129871,22.8993269 C64.4397613,18.4727885 66.9820839,14.1890064 69.5244065,9.90522436 C69.2622774,9.6938141 69.0001484,9.48240385 68.7380194,9.27099359 C69.3500194,9.27099359 70.0760839,9.05740385 70.5553742,9.30804487 C72.6907935,10.4326603 75.9350516,11.2608654 76.5755677,12.9990064 C77.5867935,15.7408013 74.4949871,17.0866346 72.2323419,18.376891 C71.4415677,18.8280449 71.0587935,19.9875321 70.4895677,20.8233654 C71.5402774,21.0849038 72.7083419,21.7790705 73.6230516,21.5360577 C79.0498903,20.0910577 84.4536968,18.5403526 89.7884065,16.7880449 C92.282471,15.9685577 93.9078903,16.5384936 95.2953097,18.63625 C96.7408581,20.8211859 96.5368581,22.6813782 93.948471,23.4027885 C90.8062129,24.2778526 87.5147935,24.6102244 84.3012452,25.2444551 C82.0791806,25.6825321 79.8264065,26.0835577 77.6986645,26.8180449 C76.9813742,27.0665064 76.6051806,28.2902885 76.0260839,29.1370192 C79.226471,29.3070192 81.878471,29.2100321 84.4153097,29.6993269 C85.4232452,29.894391 86.8753742,31.3916987 86.8720839,32.2907372 C86.8676968,33.4589423 85.8784065,35.1033654 84.8331806,35.6754808 C83.2121484,36.5603526 81.1249871,36.5603526 79.3558903,37.2425321 C78.526729,37.5629167 77.9761484,38.5992628 76.9089871,39.720609 C80.1137613,40.3221474 82.3588581,40.7155449 84.5918903,41.1699679 C87.2833742,41.7159295 87.7571806,43.5227244 86.1536968,45.2913782 C84.5008581,47.1134295 82.4268581,48.8853526 80.1751806,49.7669551 C76.9583419,51.0266987 75.9317613,53.0405449 76.1653742,56.8688141 C81.4529226,56.1724679 86.6066645,55.5469551 91.7439548,54.80375 C95.8129871,54.213109 100.615761,58.0174038 101.106019,62.0341987" id="Fill-1"></path>
                        <path d="M42.8174065,0.748108974 C37.5408258,4.27887821 31.5348903,3.52586538 25.7011484,3.78195513 C31.453729,2.93740385 36.4835355,-1.5261859 42.8174065,0.748108974" id="Fill-3"></path>
                        <path d="M14.5262258,15.2185962 C17.8955161,17.2084679 17.6959032,19.8467372 13.8637742,23.4210962 C11.737129,20.4885962 11.7305484,17.8906474 14.5262258,15.2185962" id="Fill-5"></path>
                    </g>
                    <g id="Group-9" transform="translate(41.000000, 2.459000)">
                        <mask id="mask-5" fill="white">
                            <use xlink:href="#path-4"></use>
                        </mask>
                        <g id="Clip-8"></g>
                        <path d="M27.4759,42.8857 C28.5979,40.0577 29.3199,38.2407 30.0409,36.4247 C27.6519,37.8237 23.1059,35.1397 23.3469,39.8327 C23.3989,40.8437 25.8389,41.7317 27.4759,42.8857 M16.5949,42.9857 L16.5949,37.6687 C14.2949,37.8117 12.1959,37.9427 9.7719,38.0937 C10.0969,40.2797 10.3739,42.1427 10.6759,44.1767 C12.8349,43.7417 14.5989,43.3867 16.5949,42.9857 M30.8439,34.9887 C32.7629,32.8077 34.1159,27.0477 33.0019,25.5707 C31.4379,23.4937 27.4959,22.7667 24.8109,24.4787 C21.3399,26.6917 23.8749,30.0317 23.2509,32.3477 C26.1199,33.3457 28.4659,34.1617 30.8439,34.9887 M22.8499,21.0467 C24.5839,20.6147 25.3649,20.4007 26.1549,20.2277 C33.0099,18.7277 38.9799,22.3097 40.7799,29.0857 C40.9589,29.7627 40.7859,30.7137 40.4219,31.3287 C36.9949,37.1487 33.4909,42.9247 29.8879,48.9127 C27.5249,47.4587 26.0139,46.5297 23.6929,45.1007 C23.1599,50.6517 22.7159,55.5167 22.2179,60.3757 C21.5969,66.4467 21.0469,72.5297 20.1969,78.5697 C19.9949,80.0107 18.7199,81.3017 17.4089,82.4727 C15.9629,72.0067 13.8019,61.8217 15.5249,51.4007 C15.7019,50.3317 15.1809,49.1477 14.9849,48.0167 C13.6979,48.4697 12.1479,48.6147 11.1779,49.4397 C9.1399,51.1757 7.1339,51.0997 6.1369,48.4097 C3.8249,42.1697 1.8449,35.8067 0.1079,29.1037 C5.0679,33.3217 10.2839,35.1987 16.5879,32.7087 L16.5879,29.6097 C13.5079,29.0687 10.6509,28.5677 7.7929,28.0657 C7.7349,27.4607 7.6759,26.8557 7.6169,26.2507 C9.6169,25.4647 11.5649,24.4807 13.6289,23.9477 C15.8699,23.3707 16.9749,22.3887 16.8139,19.9047 C16.3979,13.4977 16.1639,7.0797 15.8549,0.6007 C19.7209,0.1327 22.8079,2.4097 22.9949,6.9827 C23.1119,9.8437 22.4959,12.7257 22.4069,15.6047 C22.3529,17.3517 22.6789,19.1107 22.8499,21.0467" id="Fill-7" fill="#000000" mask="url(#mask-5)"></path>
                    </g>
                    <path d="M25.1673,32.0801 C19.6593,34.8951 14.1473,37.7051 8.6443,40.5301 C6.9053,41.4231 5.3753,42.5951 3.4743,40.4651 C0.3033,36.9141 -0.2407,35.4811 1.4783,32.0761 C5.7933,36.1241 10.1323,34.2141 14.5293,32.1441 C19.7493,29.6881 25.0363,27.3741 30.2713,24.9491 C31.3103,24.4681 32.6023,23.9971 33.1673,23.1261 C35.0953,20.1591 38.0473,19.9261 40.4433,21.2661 C42.2903,22.2981 43.2303,24.9501 43.9523,25.9891 C40.4203,29.1501 37.7053,31.4571 35.1433,33.9221 C33.6763,35.3331 33.8953,36.7731 35.7103,37.8731 C36.2003,38.1701 36.6233,38.5791 37.0743,38.9401 C41.0303,42.1111 41.0303,42.1111 39.1473,47.7971 C37.1243,46.4051 35.2123,45.0901 32.5853,43.2821 C31.7163,51.4081 30.9073,58.9631 30.0813,66.6871 C24.8433,64.6721 22.9333,61.3981 23.8133,56.9071 C24.0793,55.5511 24.3113,54.1771 24.3983,52.8011 C24.4983,51.2251 24.4223,49.6361 24.4223,48.3111 C21.5473,50.9271 18.6533,53.5021 15.8293,56.1521 C13.7223,58.1301 11.8323,60.3631 9.5953,62.1741 C8.3563,63.1781 6.4743,64.2551 5.1203,64.0051 C3.7663,63.7541 3.8943,58.5631 5.1573,57.0991 C10.8993,50.4461 16.6863,43.8311 22.4173,37.1691 C23.6073,35.7851 24.6353,34.2591 25.7373,32.7991 C25.5473,32.5591 25.3573,32.3191 25.1673,32.0801" id="Fill-10" fill="#000000"></path>
                    <path d="M31.1253,16.4546 C27.8973,17.3116 21.1053,12.2576 19.0393,7.4596 C25.2153,5.8716 31.5923,10.6176 31.1253,16.4546" id="Fill-12" fill="#000000"></path>
                    <path d="M34.7093,145.69 C30.9803,146.791 28.1803,147.871 26.5333,150.606 C25.3103,152.64 25.9653,154.615 28.0143,155.823 C30.5633,157.325 30.7423,154.89 31.3823,153.516 C32.4573,151.208 33.3863,148.83 34.7093,145.69 M42.0243,173.526 C38.3783,171.48 34.7323,169.433 30.9083,167.286 C27.3223,170.632 23.5683,174.119 16.8333,174.027 C17.9033,172.006 18.4693,170.451 19.4393,169.214 C20.9813,167.25 22.7413,165.446 24.5053,163.669 C26.5233,161.635 25.7453,160.566 23.5483,159.327 C21.7213,158.296 20.2313,156.668 18.5933,155.304 C18.6743,154.786 18.7563,154.269 18.8383,153.751 C16.4383,155.044 13.9763,156.238 11.6553,157.664 C9.6233,158.911 7.7703,160.447 5.8033,161.805 C3.1183,163.658 0.6313,163.099 0.0933,159.987 C-0.2987,157.727 0.6363,155.199 1.2343,152.856 C1.3083,152.571 2.9763,152.623 3.9023,152.644 C5.3453,152.675 6.9733,153.293 8.1893,152.815 C11.3443,151.576 14.4413,150.079 17.3313,148.307 C20.8653,146.138 22.9373,142.927 23.7183,138.673 C24.4543,134.667 25.9363,130.801 27.0143,126.853 C28.0923,122.906 29.0753,118.935 30.1013,114.972 C34.6323,116.262 36.1013,118.874 35.0323,123.115 C33.6003,128.805 32.3333,134.536 30.9733,140.343 C37.5973,140.376 40.5093,135.728 39.9503,125.724 C43.7013,128.726 46.9733,131.344 50.6173,134.262 C48.0093,137.302 42.2243,140.872 48.9293,146.596 C50.8063,146.004 53.0523,145.297 55.5963,144.496 L55.5963,148.496 C59.0733,137.818 58.1883,126.729 58.6643,115.691 C61.3953,114.828 62.9253,116.125 64.0633,118.153 C66.1053,121.787 66.1413,125.691 65.8243,129.739 C65.2963,136.503 65.0493,143.29 64.6833,150.066 L65.9953,150.386 C66.4563,149.741 67.0603,149.155 67.3533,148.441 C68.9793,144.472 70.8053,140.552 71.9953,136.45 C72.6263,134.275 72.1063,131.766 72.1063,129.371 C75.5183,128.834 77.9643,130.384 78.2283,134.414 C78.4883,138.405 80.4423,140.272 83.6833,142.158 C85.7973,143.389 86.9393,146.289 88.5183,148.441 C88.2083,148.746 87.8993,149.05 87.5903,149.355 C85.0063,148.653 82.3553,148.128 79.8583,147.193 C77.8903,146.456 76.9283,147.023 76.1253,148.77 C75.3673,150.419 74.3793,151.961 73.5443,153.578 C65.6143,168.925 52.3743,178.427 37.5653,186.153 C34.5853,187.709 31.3783,188.83 27.9563,189.697 C40.3573,180.531 51.5483,170.246 61.1833,157.736 C59.8033,156.785 58.6643,155.9 57.4353,155.171 C51.9313,151.906 51.7263,151.97 48.5143,157.922 C45.9843,156.014 43.5343,154.166 41.0383,152.282 C38.9293,153.485 35.4683,159.435 36.1253,161.54 C36.4903,162.711 37.7153,163.664 38.6703,164.594 C42.5163,168.338 42.5963,168.442 42.0243,173.526" id="Fill-14" fill="#000000"></path>
                    <path d="M166.4925,159.377 C172.6275,157.875 178.8225,156.578 184.8735,154.793 C188.3895,153.756 191.2925,155.162 194.3505,156.12 C194.8855,156.287 195.0995,157.475 195.5125,158.293 C189.6135,159.144 184.1945,159.759 178.8415,160.736 C170.1675,162.319 168.7495,164.011 168.5705,172.85 C168.4295,179.844 168.5545,186.843 168.5135,193.84 C168.5035,195.658 168.3165,197.477 168.2045,199.414 C164.5665,199.79 162.9765,197.758 161.5795,195.134 C162.3955,194.662 163.1205,194.243 163.9325,193.773 L163.9325,164.392 C157.0975,163.071 151.8325,166.243 148.7455,173.374 C147.3865,176.513 147.2305,180.285 143.9905,182.455 C142.9035,183.183 141.9455,184.119 140.8165,184.764 C136.1605,187.42 133.4765,186.389 131.0545,180.631 C135.5045,183.97 138.0385,180.48 140.8275,178.481 C144.3525,175.953 147.0015,172.725 147.4485,167.546 C142.5715,168.685 138.0645,169.769 133.5435,170.784 C130.0315,171.571 126.5115,172.332 122.9745,172.996 C120.0775,173.541 117.6365,172.867 116.1165,170.02 C123.1385,168.871 130.0325,167.961 136.8295,166.575 C145.9145,164.722 154.9285,162.513 163.9605,160.411 C164.8825,160.196 165.7295,159.665 166.6115,159.28 L166.4925,159.377 Z" id="Fill-16" fill="#000000"></path>
                    <path d="M166.6117,159.2803 C163.7917,158.2333 161.3507,156.6883 159.3537,154.5023 C159.8897,153.8833 160.0177,153.5993 160.1547,153.5953 C165.0677,153.4373 165.0767,154.1103 164.9597,147.9643 C164.8177,140.5393 164.5787,133.1163 164.3327,125.6943 C164.1667,120.6903 163.9307,120.6403 159.6737,123.0233 C157.4037,124.2933 154.9657,125.2933 152.5327,126.2283 C150.8407,126.8793 149.2897,126.6403 148.6567,124.4373 C153.4417,122.6463 158.1737,120.8103 162.9547,119.1153 C165.1817,118.3263 169.2077,121.6943 169.1667,124.2853 C169.0067,134.1903 168.8827,144.0983 168.4957,153.9963 C168.4237,155.8133 167.1887,157.5853 166.4927,159.3783 C166.4927,159.3773 166.6117,159.2803 166.6117,159.2803" id="Fill-18" fill="#000000"></path>
                    <path d="M141.7152,129.7217 C142.8362,129.7737 142.9932,129.7357 143.0362,129.7897 C146.7972,134.4697 151.2412,134.4087 156.4162,132.2457 C159.2342,131.0687 159.4272,131.5297 161.4652,135.4047 C156.7362,135.7397 152.7382,139.8257 147.2572,136.5347 L147.2572,153.5447 C151.1682,152.0667 155.1212,150.5727 159.0752,149.0777 C159.1142,149.2637 159.1532,149.4497 159.1932,149.6347 C154.6472,152.6857 150.1002,155.7377 145.1862,159.0347 C142.7972,157.8397 141.4142,155.8107 141.6032,152.1217 C141.9822,144.7267 141.7152,137.2987 141.7152,129.7217" id="Fill-20" fill="#000000"></path>
                    <path d="M145.9085,129.0137 C143.6375,127.4387 142.0985,126.3727 139.8325,124.8007 C138.2065,126.1497 135.8465,128.1077 133.4835,130.0687 C131.3885,129.2867 130.7785,127.8997 131.5995,125.9297 C132.7295,123.2187 133.6385,120.3657 135.1425,117.8757 C137.2145,114.4497 138.3055,111.0847 136.6225,106.9587 C140.7335,108.9597 142.4015,112.9647 145.1745,115.9257 C148.9285,119.9367 145.9305,123.8197 145.9085,129.0137" id="Fill-22" fill="#000000"></path>
                    <path d="M173.8314,111.2246 C171.0564,115.6486 168.5744,117.9606 164.0584,117.7616 C164.7324,116.3066 165.2824,115.1206 166.1674,113.2116 C163.5024,115.1196 161.4774,116.5686 159.3204,118.1116 C157.0374,115.0036 156.4694,112.3106 158.1974,109.0576 C160.1474,105.3876 161.6654,101.4876 163.4744,97.4586 C163.9804,98.2616 164.8754,99.5846 165.6644,100.9676 C165.9814,101.5216 166.1184,102.1966 166.2544,102.8346 C167.1174,106.8796 166.0974,112.2546 173.8314,111.2246" id="Fill-24" fill="#000000"></path>
                    <path d="M152.5023,147.1963 C152.8383,146.2183 153.1753,145.2403 153.5993,144.0113 C151.6693,143.3563 149.8813,142.7493 147.8063,142.0453 C158.9263,139.3693 158.9263,139.3693 162.0053,140.9783 C158.8553,143.4483 156.0253,145.6673 153.1953,147.8853 C152.9643,147.6563 152.7323,147.4263 152.5023,147.1963" id="Fill-26" fill="#000000"></path>
                </g>
            </g>
        </g>
    </g>
</svg>