<svg xmlns="http://www.w3.org/2000/svg" xmlns:xlink="http://www.w3.org/1999/xlink" width="750" height="150" viewBox="0 0 750 150">
  <defs>
    <circle id="banner_yes-b" cx="206.728" cy="57.254" r="38.254"/>
    <filter id="banner_yes-a" width="204.6%" height="204.6%" x="-52.3%" y="-52.3%" filterUnits="objectBoundingBox">
      <feMorphology in="SourceAlpha" operator="dilate" radius="10" result="shadowSpreadOuter1"/>
      <feOffset in="shadowSpreadOuter1" result="shadowOffsetOuter1"/>
      <feGaussianBlur in="shadowOffsetOuter1" result="shadowBlurOuter1" stdDeviation="10"/>
      <feComposite in="shadowBlurOuter1" in2="SourceAlpha" operator="out" result="shadowBlurOuter1"/>
      <feColorMatrix in="shadowBlurOuter1" values="0 0 0 0 0   0 0 0 0 0   0 0 0 0 0  0 0 0 0.2 0"/>
    </filter>
    <polygon id="banner_yes-c" points="0 82.72 91.609 82.72 91.609 .077 0 .077"/>
    <polygon id="banner_yes-e" points="0 22.514 0 44.748 44.165 44.748 44.165 22.514 44.165 .281 0 .281"/>
    <polygon id="banner_yes-g" points=".361 .101 34.212 .101 34.212 32.612 .361 32.612 .361 .101"/>
  </defs>
  <g fill="none" fill-rule="evenodd" transform="translate(8 3)">
    <g fill="#F9C300" transform="translate(.37 29.49)">
      <g transform="translate(110.185 .975)">
        <path d="M88.7190858 29.0496114L45.8588658 29.0496114C44.1471126 29.0496114 42.7584091 27.6615924 42.7584091 25.9498392L42.7584091 25.8861874C42.7584091 24.1744342 44.1471126 22.7864152 45.8588658 22.7864152L47.3269628 22.7864152C49.7251968 22.7864152 51.6703398 20.8419566 51.6703398 18.4437226L51.6703398 18.3554314C51.6703398 15.9571974 49.7251968 14.0127389 47.3269628 14.0127389L26.6750469 14.0127389C24.2761285 14.0127389 22.3316699 15.9571974 22.3316699 18.3554314L22.3316699 18.4437226C22.3316699 20.8419566 24.2761285 22.7864152 26.6750469 22.7864152L31.1587316 22.7864152C32.8711692 22.7864152 34.2591882 24.1744342 34.2591882 25.8861874L34.2591882 25.9498392C34.2591882 27.6615924 32.8711692 29.0496114 31.1587316 29.0496114L6.61584524 29.0496114C3.21355605 29.0496114.455313155 31.8078543.455313155 35.2101435L.455313155 35.3353937C.455313155 38.7369985 3.21355605 41.4959258 6.61584524 41.4959258L37.5793461 41.4959258C39.530649 41.4959258 41.112361 43.0769534 41.112361 45.0282562L41.112361 45.0994367C41.112361 47.0500551 39.530649 48.6310827 37.5793461 48.6310827L31.5967652 48.6310827C28.5120504 48.6310827 26.0104678 51.1326652 26.0104678 54.2173801L26.0104678 54.3303106C26.0104678 57.4150254 28.5120504 59.9159236 31.5967652 59.9159236L68.7160071 59.9159236C71.800722 59.9159236 74.302989 57.4150254 74.302989 54.3303106L74.302989 54.2173801C74.302989 51.1326652 71.800722 48.6310827 68.7160071 48.6310827L59.4146372 48.6310827C57.4633343 48.6310827 55.8823068 47.0500551 55.8823068 45.0994367L55.8823068 45.0282562C55.8823068 43.0769534 57.4633343 41.4959258 59.4146372 41.4959258L88.7190858 41.4959258C92.1206905 41.4959258 94.8796178 38.7369985 94.8796178 35.3353937L94.8796178 35.2101435C94.8796178 31.8078543 92.1206905 29.0496114 88.7190858 29.0496114M135.747285 15.7417046L135.747285 15.6721927C135.747285 13.7397625 137.313976 12.1730717 139.245336 12.1730717L139.32982 12.1730717C142.014048 12.1730717 144.190304 9.9978847 144.190304 7.31365684L144.190304 6.30199168C144.190304 3.12262537 141.613018.545338854 138.43579.545338854L116.892456.545338854C113.713089.545338854 111.136872 3.12262537 111.136872 6.30199168L111.136872 6.41748833C111.136872 9.59685464 113.713089 12.1730717 116.892456 12.1730717L120.190527 12.1730717C122.120818 12.1730717 123.687509 13.7397625 123.687509 15.6721927L123.687509 15.7417046C123.687509 17.6741347 122.120818 19.2397561 120.190527 19.2397561L115.226309 19.2397561C112.092928 19.2397561 109.55414 21.7785437 109.55414 24.9108558L109.55414 25.0263525C109.55414 28.1575952 112.092928 30.6974522 115.226309 30.6974522L161.208951 30.6974522C164.339124 30.6974522 166.878981 28.1575952 166.878981 25.0263525L166.878981 24.9108558C166.878981 21.7785437 164.339124 19.2397561 161.208951 19.2397561L139.245336 19.2397561C137.313976 19.2397561 135.747285 17.6741347 135.747285 15.7417046"/>
      </g>
      <path d="M233.193145,44.7417046 L233.193145,44.6721927 C233.193145,42.7397625 234.759835,41.1730717 236.691196,41.1730717 L236.77568,41.1730717 C239.459908,41.1730717 241.636164,38.9978847 241.636164,36.3136568 L241.636164,35.3019917 C241.636164,32.1226254 239.058878,29.5453389 235.88165,29.5453389 L214.338315,29.5453389 C211.158949,29.5453389 208.582732,32.1226254 208.582732,35.3019917 L208.582732,35.4174883 C208.582732,38.5968546 211.158949,41.1730717 214.338315,41.1730717 L217.636387,41.1730717 C219.566678,41.1730717 221.133369,42.7397625 221.133369,44.6721927 L221.133369,44.7417046 C221.133369,46.6741347 219.566678,48.2397561 217.636387,48.2397561 L212.672169,48.2397561 C209.538788,48.2397561 207,50.7785437 207,53.9108558 L207,54.0263525 C207,57.1575952 209.538788,59.6974522 212.672169,59.6974522 L258.65481,59.6974522 C261.784984,59.6974522 264.324841,57.1575952 264.324841,54.0263525 L264.324841,53.9108558 C264.324841,50.7785437 261.784984,48.2397561 258.65481,48.2397561 L236.691196,48.2397561 C234.759835,48.2397561 233.193145,46.6741347 233.193145,44.7417046" transform="matrix(-1 0 0 1 471.325 0)"/>
      <rect width="127.389" height="12.739" x="21.013" y="30.274" rx="6.369"/>
      <rect width="63.694" height="12.739" x="303.815" y="20.083" rx="6.369"/>
      <circle cx="291.076" cy="26.452" r="6.369"/>
      <circle cx="7" cy="36.643" r="6.369"/>
    </g>
    <g fill="#F9C300" transform="translate(494 30)">
      <path d="M123.193145,44.7417046 L123.193145,44.6721927 C123.193145,42.7397625 124.759835,41.1730717 126.691196,41.1730717 L126.77568,41.1730717 C129.459908,41.1730717 131.636164,38.9978847 131.636164,36.3136568 L131.636164,35.3019917 C131.636164,32.1226254 129.058878,29.5453389 125.88165,29.5453389 L104.338315,29.5453389 C101.158949,29.5453389 98.582732,32.1226254 98.582732,35.3019917 L98.582732,35.4174883 C98.582732,38.5968546 101.158949,41.1730717 104.338315,41.1730717 L107.636387,41.1730717 C109.566678,41.1730717 111.133369,42.7397625 111.133369,44.6721927 L111.133369,44.7417046 C111.133369,46.6741347 109.566678,48.2397561 107.636387,48.2397561 L102.672169,48.2397561 C99.5387876,48.2397561 97,50.7785437 97,53.9108558 L97,54.0263525 C97,57.1575952 99.5387876,59.6974522 102.672169,59.6974522 L148.65481,59.6974522 C151.784984,59.6974522 154.324841,57.1575952 154.324841,54.0263525 L154.324841,53.9108558 C154.324841,50.7785437 151.784984,48.2397561 148.65481,48.2397561 L126.691196,48.2397561 C124.759835,48.2397561 123.193145,46.6741347 123.193145,44.7417046" transform="matrix(-1 0 0 1 251.325 0)"/>
      <rect width="63.694" height="12.739" x="175.815" y="29.083" rx="6.369"/>
      <circle cx="165.076" cy="35.452" r="6.369"/>
    </g>
    <use fill="#000" filter="url(#banner_yes-a)" xlink:href="#banner_yes-b"/>
    <use fill="#F5F5F5" stroke="#FFF" stroke-width="20" xlink:href="#banner_yes-b"/>
    <g transform="translate(509 20)">
      <polygon fill="#DCA879" points="71.225 50.613 88.021 50.613 88.021 24.085 71.225 24.085"/>
      <polygon fill="#FFF" points="73.743 48.836 85.223 48.836 85.223 27.916 73.743 27.916"/>
      <polygon fill="#CD823C" points="78.869 50.613 79.774 50.613 79.774 24.086 78.869 24.086"/>
      <polygon fill="#CD823C" points="84.724 50.613 85.629 50.613 85.629 24.086 84.724 24.086"/>
      <polygon fill="#CD823C" points="73.013 50.613 73.918 50.613 73.918 24.087 73.013 24.087"/>
      <polygon fill="#CD823C" points="71.225 28.578 87.938 28.578 87.938 27.674 71.225 27.674"/>
      <polygon fill="#CD823C" points="71.225 33.295 87.938 33.295 87.938 32.391 71.225 32.391"/>
      <polygon fill="#CD823C" points="71.225 38.917 87.938 38.917 87.938 38.013 71.225 38.013"/>
      <polygon fill="#CD823C" points="71.225 44.539 87.938 44.539 87.938 43.635 71.225 43.635"/>
      <polygon fill="#CD823C" points="71.225 49.256 87.938 49.256 87.938 48.352 71.225 48.352"/>
      <polygon fill="#CD823C" points="84.079 51.767 88.063 51.767 88.063 23.91 84.079 23.91"/>
      <polygon fill="#CD823C" points="69.769 51.767 73.753 51.767 73.753 23.91 69.769 23.91"/>
      <g transform="translate(0 .328)">
        <path fill="#F15A29" d="M65.0739593,40.392911 L65.0739593,48.2812707 C65.0739593,48.8315177 64.6228494,49.2816091 64.0714478,49.2816091 L61.9750659,49.2816091 C61.4240703,49.2816091 60.9729605,48.8315177 60.9729605,48.2812707 L60.9729605,40.392911 L65.0739593,40.392911 Z"/>
        <path fill="#FFBF00" d="M62.4672264,43.4425848 L62.4672264,48.2812707 C62.4672264,48.8315177 62.0165226,49.2816091 61.4651209,49.2816091 L57.8655809,49.2816091 C57.3145853,49.2816091 56.8634754,48.8315177 56.8634754,48.2812707 L56.8634754,43.4425848 L62.4672264,43.4425848 Z"/>
        <path fill="#EDECE9" d="M75.3569906,40.1915457 L74.5932303,43.2144573 C74.4170092,43.9475793 73.8660136,44.2683201 72.9479583,44.2683201 L69.1194119,44.2683201 C68.2013567,44.2683201 67.6507671,43.9475793 67.4741399,43.2144573 L66.7103797,40.1915457 L75.3569906,40.1915457 Z"/>
        <path fill="#E5E5E1" d="M75.7170664,41.3505921 L74.8899639,44.6249061 C74.6987193,45.4196622 74.1018413,45.7671652 73.1074506,45.7671652 L68.9597572,45.7671652 C67.9653665,45.7671652 67.3684885,45.4196622 67.1780559,44.6249061 L66.3505475,41.3505921 L75.7170664,41.3505921 Z"/>
        <path fill="#DEDED9" d="M76.0552973,43.0592771 L75.0544099,47.9008015 C74.8237795,48.8618076 74.1022473,49.281893 72.8999644,49.281893 L69.1676494,49.281893 C67.9649605,49.281893 67.2438343,48.8618076 67.0127979,47.9008015 L66.0127226,43.0592771 L76.0552973,43.0592771 Z"/>
        <polygon fill="#87D5F8" points="54.551 50.692 12.526 50.692 17.536 38.754 49.54 38.754"/>
        <mask id="banner_yes-d" fill="#fff">
          <use xlink:href="#banner_yes-c"/>
        </mask>
        <polygon fill="#CD823C" points="5.456 51.439 9.441 51.439 9.441 23.582 5.456 23.582" mask="url(#banner_yes-d)"/>
        <polygon fill="#B07031" points="12.866 18.234 78.743 18.234 78.743 12.762 12.866 12.762" mask="url(#banner_yes-d)"/>
        <polygon fill="#D7D6CE" points="3.464 76.062 88.145 76.062 88.145 48.951 3.464 48.951" mask="url(#banner_yes-d)"/>
        <path fill="#B0B1A1" d="M89.4526108,52.2067171 L2.28080502,52.2067171 C1.35584706,52.2067171 0.599801533,51.4512933 0.599801533,50.5279976 C0.599801533,49.6047018 1.35584706,48.8488726 2.28080502,48.8488726 L89.4526108,48.8488726 C90.3767567,48.8488726 91.1336143,49.6047018 91.1336143,50.5279976 C91.1336143,51.4512933 90.3767567,52.2067171 89.4526108,52.2067171" mask="url(#banner_yes-d)"/>
        <polygon fill="#BE1E2D" points="12.778 34.152 22.811 34.152 22.811 23.457 12.778 23.457" mask="url(#banner_yes-d)"/>
        <polygon fill="#BE1E2D" points="24.174 34.152 34.207 34.152 34.207 23.457 24.174 23.457" mask="url(#banner_yes-d)"/>
        <polygon fill="#BE1E2D" points="35.57 34.152 45.602 34.152 45.602 23.457 35.57 23.457" mask="url(#banner_yes-d)"/>
        <polygon fill="#BE1E2D" points="46.966 34.152 56.998 34.152 56.998 23.457 46.966 23.457" mask="url(#banner_yes-d)"/>
        <polygon fill="#BE1E2D" points="58.361 34.152 68.393 34.152 68.393 23.457 58.361 23.457" mask="url(#banner_yes-d)"/>
        <polygon fill="#BE1E2D" points="69.756 34.152 79.788 34.152 79.788 23.457 69.756 23.457" mask="url(#banner_yes-d)"/>
        <path fill="#A7A79C" d="M49.8514577,40.2460027 L16.601696,40.2460027 C15.8143854,40.2460027 15.1695947,39.6024936 15.1695947,38.8158473 C15.1695947,38.0292009 15.8143854,37.3856918 16.601696,37.3856918 L49.8514577,37.3856918 C50.6391743,37.3856918 51.2835589,38.0292009 51.2835589,38.8158473 C51.2835589,39.6024936 50.6391743,40.2460027 49.8514577,40.2460027" mask="url(#banner_yes-d)"/>
        <path fill="#B0B1A1" d="M88.4045823,76.8618759 L3.33118857,76.8618759 C2.78019298,76.8618759 2.32908311,76.4117845 2.32908311,75.861132 L2.32908311,71.9834521 C2.32908311,71.4332052 2.78019298,70.9827082 3.33118857,70.9827082 L88.4045823,70.9827082 C88.9555779,70.9827082 89.4066878,71.4332052 89.4066878,71.9834521 L89.4066878,75.861132 C89.4066878,76.4117845 88.9555779,76.8618759 88.4045823,76.8618759" mask="url(#banner_yes-d)"/>
        <path fill="#4C3E33" d="M54.8670604,74.2761207 C54.8670604,78.8702976 51.1375877,82.5942976 46.5371603,82.5942976 C41.937139,82.5942976 38.2080723,78.8702976 38.2080723,74.2761207 C38.2080723,69.6819439 41.937139,65.9579439 46.5371603,65.9579439 C51.1375877,65.9579439 54.8670604,69.6819439 54.8670604,74.2761207" mask="url(#banner_yes-d)"/>
        <path fill="#FFF" d="M50.2039811,74.2761207 C50.2039811,76.2982884 48.5623635,77.9376756 46.5374446,77.9376756 C44.5125256,77.9376756 42.870908,76.2982884 42.870908,74.2761207 C42.870908,72.253953 44.5125256,70.6149713 46.5374446,70.6149713 C48.5623635,70.6149713 50.2039811,72.253953 50.2039811,74.2761207" mask="url(#banner_yes-d)"/>
        <path fill="#CD823C" d="M12.7801335 67.6970405C13.4894845 65.4088729 16.0365702 64.0979308 16.0621507 64.0845497 16.5465558 63.8416625 16.7426729 63.2524887 16.4998613 62.7679308 16.2570497 62.2825619 15.6658562 62.0863058 15.1802329 62.3287875 15.0417735 62.3981259 11.7735616 64.0614369 10.862409 67.2453271 10.8449493 67.3069613 10.8335802 67.3702174 10.8278957 67.4346899L9.56795512 82.7195527 11.541307 82.7195527 12.7801335 67.6970405zM25.191299 67.4344872C25.1860204 67.3700146 25.1742453 67.307164 25.1567856 67.2455299 24.246039 64.0612341 20.9778272 62.3983287 20.8389617 62.3289902 20.3557747 62.086914 19.7657993 62.2823591 19.5217696 62.7661061 19.2781459 63.249853 19.4734509 63.8398378 19.9570439 64.084347 19.9830304 64.097728 22.5297101 65.4090756 23.2390611 67.6968378L24.4778876 82.71935 26.4516455 82.71935 25.191299 67.4344872z" mask="url(#banner_yes-d)"/>
        <path fill="#6D0F1D" d="M25.4633048,64.4853744 L9.98751573,64.4853744 C9.08164163,64.4853744 8.34833431,63.7526579 8.34833431,62.8484201 C8.34833431,61.9437768 9.08164163,61.2110604 9.98751573,61.2110604 L25.4633048,61.2110604 C26.3683668,61.2110604 27.1024862,61.9437768 27.1024862,62.8484201 C27.1024862,63.7526579 26.3683668,64.4853744 25.4633048,64.4853744" mask="url(#banner_yes-d)"/>
        <path fill="#CD823C" d="M41.6327311 67.6970405C42.3420821 65.4088729 44.8891679 64.0979308 44.9147483 64.0845497 45.3987474 63.8416625 45.5948645 63.2524887 45.3524589 62.7679308 45.1096473 62.2825619 44.5184538 62.0863058 44.0328306 62.3287875 43.8943711 62.3981259 40.6261593 64.0614369 39.7150066 67.2453271 39.6975469 67.3069613 39.6861778 67.3702174 39.6804933 67.4346899L38.4201467 82.7195527 40.3939047 82.7195527 41.6327311 67.6970405zM54.0438966 67.4344872C54.0386181 67.3700146 54.0268429 67.307164 54.0093832 67.2455299 53.0982306 64.0612341 49.8300188 62.3983287 49.6915593 62.3289902 49.2083723 62.086914 48.6183969 62.2823591 48.3743672 62.7661061 48.1307435 63.249853 48.3260485 63.8398378 48.8096415 64.084347 48.8356281 64.097728 51.3823077 65.4090756 52.0916587 67.6968378L53.3304852 82.71935 55.3042432 82.71935 54.0438966 67.4344872z" mask="url(#banner_yes-d)"/>
        <path fill="#6D0F1D" d="M54.3159024,64.4853744 L38.8401134,64.4853744 C37.9342393,64.4853744 37.2005259,63.7526579 37.2005259,62.8484201 C37.2005259,61.9437768 37.9342393,61.2110604 38.8401134,61.2110604 L54.3159024,61.2110604 C55.2209645,61.2110604 55.9550839,61.9437768 55.9550839,62.8484201 C55.9550839,63.7526579 55.2209645,64.4853744 54.3159024,64.4853744" mask="url(#banner_yes-d)"/>
        <path fill="#CD823C" d="M70.4853288 67.6970405C71.1946798 65.4088729 73.7417655 64.0979308 73.767346 64.0845497 74.251345 63.8416625 74.4474621 63.2524887 74.2050565 62.7679308 73.9622449 62.2825619 73.3710514 62.0863058 72.8854282 62.3287875 72.7465627 62.3981259 69.4787569 64.0614369 68.5676043 67.2453271 68.5501446 67.3069613 68.5383694 67.3702174 68.5330909 67.4346899L67.2727443 82.7195527 69.2465023 82.7195527 70.4853288 67.6970405zM82.8964942 67.4344872C82.8908097 67.3700146 82.8794406 67.307164 82.8619809 67.2455299 81.9508282 64.0612341 78.6826164 62.3983287 78.5441569 62.3289902 78.0605639 62.086914 77.4709946 62.2823591 77.2269648 62.7661061 76.9833411 63.249853 77.1786461 63.8398378 77.6622392 64.084347 77.6882257 64.097728 80.2349054 65.4090756 80.9442564 67.6968378L82.1830828 82.71935 84.1568408 82.71935 82.8964942 67.4344872z" mask="url(#banner_yes-d)"/>
        <path fill="#6D0F1D" d="M83.168094,64.4853744 L67.6923049,64.4853744 C66.7868369,64.4853744 66.0531235,63.7526579 66.0531235,62.8484201 C66.0531235,61.9437768 66.7868369,61.2110604 67.6923049,61.2110604 L83.168094,61.2110604 C84.0735621,61.2110604 84.8076815,61.9437768 84.8076815,62.8484201 C84.8076815,63.7526579 84.0735621,64.4853744 83.168094,64.4853744" mask="url(#banner_yes-d)"/>
        <polygon fill="#6D0F1D" points="82.364 13.819 9.244 13.819 16.259 6.233 75.851 6.233" mask="url(#banner_yes-d)"/>
        <polygon fill="#6D0F1D" points="91.608 24.514 0 24.514 12.025 16.928 80.085 16.928" mask="url(#banner_yes-d)"/>
        <polygon fill="#EF000D" points="28.806 11.145 65.044 11.145 65.044 .077 28.806 .077" mask="url(#banner_yes-d)"/>
      </g>
    </g>
    <g transform="translate(196.065 48.758)">
      <g transform="translate(0 .07)">
        <mask id="banner_yes-f" fill="#fff">
          <use xlink:href="#banner_yes-e"/>
        </mask>
        <path fill="#E52906" d="M44.1646091,22.5138282 C44.1646091,10.2346732 34.2765432,0.280751634 22.0823045,0.280751634 C9.88477366,0.280751634 0,10.2346732 0,22.5138282 C0,34.7946405 9.88477366,44.7485621 22.0823045,44.7485621 C34.2765432,44.7485621 44.1646091,34.7946405 44.1646091,22.5138282" mask="url(#banner_yes-f)"/>
      </g>
      <path fill="#FB7D42" d="M22.0823045,36.6406863 C18.2436214,36.6406863 14.7736626,35.0778245 12.2502058,32.5537115 C11.344856,31.6454949 11.5308642,30.1190943 12.6452675,29.4909664 L18.4279835,26.2309991 C18.7160494,26.0669234 19.0633745,26.1166433 19.3283951,26.3155229 C20.0971193,26.8955882 21.0452675,27.2436275 22.0823045,27.2436275 C23.145679,27.2436275 24.1251029,26.8806723 24.9069959,26.2724323 C25.1786008,26.0619514 25.5374486,26.0089169 25.8353909,26.1845938 L31.5061728,29.5572596 C32.5975309,30.2052754 32.7572016,31.711788 31.855144,32.606746 C29.3382716,35.0993697 25.8897119,36.6406863 22.0823045,36.6406863 M20.4740741,10.9852241 L20.4740741,17.7123249 C20.4740741,18.0272176 20.2831276,18.2940476 20.0032922,18.436578 C18.4921811,19.2022642 17.4534979,20.7651261 17.4534979,22.5832166 C17.4534979,22.7423203 17.3563786,23.138422 16.9662551,23.3472456 L11.1967078,26.6005836 C10.0641975,27.2369981 8.63868313,26.5806956 8.38518519,25.2979225 C8.21234568,24.4211951 8.12016461,23.5146359 8.12016461,22.5832166 C8.12016461,16.2638189 12.2650206,10.9239029 17.9670782,9.15553221 C19.2098765,8.77103175 20.4740741,9.67427638 20.4740741,10.9852241 M36.0427984,22.5832166 C36.0427984,23.5361811 35.945679,24.4676004 35.7646091,25.365873 C35.5028807,26.6619048 34.0493827,27.311578 32.9185185,26.6403595 L27.1242798,23.1931139 C26.6156379,22.9279412 26.709465,22.700887 26.709465,22.5832166 C26.709465,20.7651261 25.6707819,19.2022642 24.1596708,18.436578 C23.8798354,18.2940476 23.6888889,18.0272176 23.6888889,17.7123249 L23.6888889,10.9852241 C23.6888889,9.67427638 24.9547325,8.77103175 26.1958848,9.15553221 C31.8979424,10.9239029 36.0427984,16.2638189 36.0427984,22.5832166 M24.9415638,5.81269841 C13.38107,3.90345472 3.52757202,13.8242297 5.42386831,25.4636555 C6.57119342,32.5122782 12.2205761,38.1985761 19.2213992,39.3553922 C30.781893,41.2646359 40.6353909,31.3438609 38.7390947,19.7027778 C37.5917695,12.654155 31.9440329,6.96785714 24.9415638,5.81269841"/>
      <path fill="#FFC71B" d="M29.4125103 20.3652124C29.4125103 19.1387885 30.4001646 18.1460481 31.6166255 18.1460481 32.8330864 18.1460481 33.8190947 19.1387885 33.8190947 20.3652124 33.8190947 21.589979 32.8330864 22.5843768 31.6166255 22.5843768 30.4001646 22.5843768 29.4125103 21.589979 29.4125103 20.3652124M26.7906173 16.420105C26.0696296 15.4323366 26.2786831 14.0434944 27.2597531 13.317584 28.2424691 12.5916737 29.6186008 12.8054692 30.3395885 13.7932376 31.0605761 14.7810061 30.8515226 16.1698483 29.8688066 16.8941013 28.8893827 17.6200117 27.5099588 17.4078735 26.7906173 16.420105M16.7437037 16.9007306C15.6720988 17.4874253 14.3354733 17.0913235 13.7527572 16.0157166 13.1683951 14.9384524 13.5634568 13.5927007 14.6350617 13.0060061 15.7017284 12.4193114 17.0416461 12.8154132 17.622716 13.8926774 18.2054321 14.966627 17.8103704 16.3156933 16.7437037 16.9007306M14.5575309 21.1063702C14.0406584 22.2184384 12.7287243 22.6974066 11.6258436 22.1770051 10.5246091 21.6549463 10.050535 20.3373693 10.5674074 19.2269585 11.0842798 18.1182049 12.3945679 17.6375794 13.4958025 18.1579809 14.597037 18.676725 15.0727572 19.999274 14.5575309 21.1063702M20.3573663 29.9142484C21.4289712 30.4959711 21.8306173 31.8400654 21.2511934 32.9189869 20.6717695 33.9995658 19.335144 34.4006396 18.2651852 33.8156022 17.1935802 33.2355369 16.7935802 31.8897852 17.3730041 30.8108637 17.9491358 29.7352568 19.2890535 29.3308683 20.3573663 29.9142484M25.9242798 30.1497549C25.2592593 30.5723739 25.0584362 31.4590453 25.4781893 32.1286064 25.8962963 32.7981676 26.7786008 33.0003618 27.4436214 32.5777428 28.108642 32.1551237 28.309465 31.2701097 27.8880658 30.5988912 27.4699588 29.9293301 26.5893004 29.7287932 25.9242798 30.1497549"/>
    </g>
    <g transform="translate(166 20)">
      <g transform="translate(32.353 .345)">
        <mask id="banner_yes-h" fill="#fff">
          <use xlink:href="#banner_yes-g"/>
        </mask>
        <path fill="#E7DABE" d="M31.712451,1.76895485 C29.6742157,0.00776849372 26.6967647,-0.401306619 24.2614706,0.74528372 C20.8477451,2.35110021 19.4712745,6.05047658 20.4693137,9.26309291 C20.8869608,10.6053706 20.5114706,12.0646674 19.3928431,12.9133016 L0.361470588,27.3361494 L4.33598039,32.6118416 L33.285,10.673222 C34.8751961,7.87754764 34.4614706,4.14572059 31.712451,1.76895485" mask="url(#banner_yes-h)"/>
      </g>
      <path fill="#DDC4A1" d="M65.637549,11.0181295 L36.6895098,32.9567491 L40.6630392,38.2324414 L59.6944118,23.8095936 C60.8140196,22.9619428 62.315,22.9983269 63.4895098,23.7673094 C66.2983333,25.6091308 70.2218627,25.2905242 72.6944118,22.4358486 C74.4581373,20.3983399 74.8806863,17.4138616 73.7463725,14.9672777 C72.2189216,11.6661596 68.7532353,10.2461969 65.637549,11.0181295"/>
      <path fill="#FF9B19" d="M0,29.9419836 L14.7803922,49.5608719 L37.0392157,45.576323 L50.3676471,22.5904318 C42.2058824,11.7548581 19.6558824,15.047126 0,29.9419836"/>
      <path fill="#BC612E" d="M50.3677451,22.5903334 L50.3677451,22.5903334 L14.7804902,49.5607736 L29.5589216,69.179662 C49.2138235,54.2838211 58.5304902,33.4249238 50.3677451,22.5903334"/>
      <path fill="#D45F2C" d="M24.6658824 29.590533C24.6247059 30.6024039 23.7727451 31.3900701 22.764902 31.3497526 21.755098 31.3074684 20.9698039 30.4539175 21.01 29.4410632 21.0521569 28.4291923 21.9041176 27.6425094 22.9129412 27.6838103 23.9217647 27.7251111 24.705098 28.5786621 24.6658824 29.590533M13.7963725 38.0738265C13.7551961 39.0856973 12.9032353 39.8733636 11.8953922 39.8330461 10.8855882 39.7917453 10.1002941 38.9381943 10.1404902 37.9253401 10.1826471 36.9134692 11.0346078 36.1258029 12.0434314 36.1671038 13.0522549 36.2084046 13.8355882 37.0619556 13.7963725 38.0738265M24.067549 23.099809C24.0263725 24.1116799 23.1753922 24.8993461 22.167549 24.8590286 21.1577451 24.8167444 20.372451 23.9641768 20.4126471 22.9513226 20.4538235 21.9394517 21.3057843 21.1517854 22.3146078 21.1930863 23.3234314 21.2343871 24.1077451 22.0879381 24.067549 23.099809M30.1901961 25.8563459C30.15 26.8692001 29.2990196 27.655883 28.2901961 27.6145822 27.2794118 27.5732813 26.495098 26.7197304 26.5362745 25.7078595 26.577451 24.6950052 27.4294118 23.9083223 28.4382353 23.9486398 29.4460784 23.9899407 30.2323529 24.844475 30.1901961 25.8563459M31.1054902 31.3925285C31.0652941 32.4053828 30.2143137 33.1910823 29.2054902 33.1507648 28.1956863 33.109464 27.4103922 32.255913 27.452549 31.2440421 27.4927451 30.2311879 28.3437255 29.444505 29.3535294 29.4858058 30.3633333 29.5271067 31.1466667 30.3796743 31.1054902 31.3925285M19.3140196 33.9248608C19.2738235 34.9367317 18.4228431 35.7243979 17.4140196 35.6830971 16.4042157 35.6417962 15.6189216 34.7882453 15.6591176 33.775391 15.7012745 32.7635201 16.5522549 31.9768372 17.5610784 32.0171547 18.5708824 32.0594389 19.3551961 32.9129899 19.3140196 33.9248608M12.7279412 31.7992436C12.6867647 32.8111145 11.8357843 33.5977974 10.8269608 33.5574799 9.81715686 33.516179 9.03186275 32.6626281 9.07205882 31.6497738 9.11421569 30.6379029 9.96617647 29.8502367 10.975 29.8915375 11.9838235 29.9338217 12.7691176 30.7863893 12.7279412 31.7992436M25.7545098 35.4800346C25.7133333 36.4928888 24.8643137 37.2795717 23.8554902 37.2382709 22.8447059 37.1979534 22.0594118 36.3444024 22.1015686 35.3315482 22.1417647 34.3196773 22.9937255 33.5329944 24.002549 33.5733119 25.0113725 33.6146127 25.7966667 34.4681637 25.7545098 35.4800346M19.7304902 40.6383144C19.6902941 41.6511686 18.8402941 42.4378516 17.8314706 42.3965507 16.8206863 42.3552498 16.0353922 41.5016989 16.077549 40.489828 16.1187255 39.4779571 16.9697059 38.6902908 17.9795098 38.7315917 18.9883333 38.7728926 19.7726471 39.6264435 19.7304902 40.6383144M18.2904902 27.6904971C18.2493137 28.7033513 17.3983333 29.4890509 16.3904902 29.4487334 15.3797059 29.4074325 14.5944118 28.5538816 14.6365686 27.5420107 14.6777451 26.5291564 15.5287255 25.7424735 16.5385294 25.782791 17.5473529 25.8250752 18.3316667 26.6786262 18.2904902 27.6904971M36.6316667 27.4120113C36.5914706 28.4248656 35.7395098 29.2115485 34.7306863 29.1702476 33.7208824 29.1299301 32.9355882 28.2753958 32.9767647 27.2635249 33.0179412 26.2506707 33.8708824 25.4639878 34.8797059 25.5052886 35.887549 25.5465895 36.6718627 26.4001404 36.6316667 27.4120113M36.7513725 21.5450285C36.7101961 22.5568994 35.8592157 23.3435823 34.8513725 23.3032648 33.8415686 23.261964 33.0552941 22.4074297 33.097451 21.3955588 33.1386275 20.3836879 33.9905882 19.5960216 34.9994118 19.6373225 36.0082353 19.6786233 36.792549 20.5321743 36.7513725 21.5450285M43.1938235 23.1003006C43.1516667 24.1131549 42.3006863 24.8998378 41.2928431 24.8585369 40.2820588 24.8172361 39.4967647 23.9636851 39.5389216 22.9518142 39.5791176 21.9399434 40.4310784 21.1522771 41.4408824 21.1935779 42.4487255 21.2338954 43.2340196 22.0884298 43.1938235 23.1003006"/>
    </g>
    <g fill="#F9C300" transform="matrix(-1 0 0 1 438 9)">
      <path d="M23.1109279 22.9539456C23.9330312 23.7767786 23.9378109 25.1177804 23.1133178 25.9478102 22.284045 26.7778399 20.950517 26.7778399 20.123634 25.9478102 19.2991409 25.1177804 19.2991409 23.7767786 20.123634 22.9539456 20.950517 22.1263148 22.284045 22.1263148 23.1109279 22.9539456M26.0912913 19.9528843C26.9181743 20.7877119 26.9181743 22.1263148 26.096071 22.9539456 25.269188 23.7815765 23.9332702 23.7767786 23.1111669 22.9539456 22.284284 22.1263148 22.284284 20.7829141 23.1111669 19.9528843 23.9332702 19.1276524 25.2667982 19.1276524 26.0912913 19.9528843M23.3372453 37.0054378C21.7599541 36.4416893 20.2304597 35.7675899 18.7487619 35.0287195 20.0058152 32.238764 18.9136605 28.2181575 15.7590782 25.05157 14.4088213 23.6937756 12.5375804 22.2016412 10.1620843 22.7749855 9.83228707 22.8565491 9.57179504 23.1132346 9.47142197 23.441888 9.38060823 23.7753393 9.47142197 24.1327798 9.71518515 24.3750717 9.74386317 24.4062578 12.2460205 26.968315 11.5768667 28.9474322L5.6835333 23.031671C5.31310886 22.6574379 4.71326025 22.6574379 4.3428358 23.031671 1.70684767 25.6728928 2.58869683 30.7130446 6.35985664 34.4865614 7.80331705 35.935515 9.43079477 36.9550603 11.0343741 37.5212077 12.6809705 38.2480835 14.2606515 38.7902417 15.921587 39.2964159 18.0700487 39.941728 20.2567479 40.4095193 22.4458368 40.730976 26.8359639 41.3618945 31.2977861 41.2683363 35.5277943 40.3759343L35.3820143 39.0805122C31.2237012 39.1116983 27.1490323 38.3536364 23.3372453 37.0054378M37.1139278 23.1741674C36.5499267 21.5908737 35.8783831 20.0603564 35.1423139 18.568222 32.3701051 19.832458 28.357572 18.7337481 25.2101591 15.5695596 23.8503429 14.2093663 22.3638655 12.335802 22.9422056 9.95126567 23.0210701 9.62021334 23.2791723 9.35393212 23.6065797 9.25557599 23.9315973 9.16441665 24.2972421 9.26037385 24.5338358 9.50026684 24.5649036 9.53145293 27.1172475 12.0407336 29.0840818 11.3690333L23.1955281 5.45806992C22.820324 5.08623578 22.820324 4.47930651 23.1955281 4.1098713 25.8291264 1.46625053 30.8430005 2.34905674 34.6022111 6.13216923 36.052841 7.58352183 37.0637413 9.21239525 37.6253526 10.829274 38.3566421 12.4821367 38.8991347 14.0630316 39.401 15.7302879 40.0414759 17.8845269 40.5122734 20.0795478 40.8277316 22.2841644 41.4514786 26.6862008 41.3606648 31.1674019 40.4788157 35.40871L39.1787454 35.2695721C39.2098132 31.0930351 38.4617948 27.0004606 37.1139278 23.1741674"/>
      <path d="M39.5269444,27.4447425 C47.7670958,35.7138539 60.7319514,54.0896571 57.4363687,57.4049783 C54.1336166,60.7131027 35.8250898,47.7013067 27.5849383,39.4297964 C19.3495664,31.1558871 19.8131945,26.26207 23.1111669,22.9539456 C26.4091394,19.6434224 31.2867929,19.175631 39.5269444,27.4447425"/>
      <path d="M58.1064785,58.7176727 C59.0432939,61.2845278 58.070631,64.0001164 55.9317285,64.7773697 C53.7999956,65.557022 51.3217366,64.1056694 50.3873111,61.5388143 C49.460055,58.9743582 51.2213635,54.2076845 52.0004498,53.9246108 C52.7747564,53.6391381 57.1792225,56.1436209 58.1064785,58.7176727"/>
      <path d="M58.7436085,58.078118 C61.3007321,59.0160996 64.0060255,58.0397352 64.7779422,55.8974907 C65.5570285,53.7552463 64.1135681,51.2627581 61.5540546,50.3295744 C58.9945412,49.3963906 54.243549,51.1691998 53.9663281,51.9464531 C53.6843276,52.7213075 56.1840951,57.1449343 58.7436085,58.078118"/>
      <path d="M61.2524575 55.5573225C63.1762747 57.4932589 63.4391566 60.3623791 61.8307976 61.9792579 60.2272182 63.5865409 57.3665856 63.3274565 55.4427683 61.3891211 53.5141713 59.4603815 53.1174587 54.3962404 53.6981886 53.8061036 54.2765287 53.2207647 59.3238605 53.621386 61.2524575 55.5573225M20.8749982 25.1957457C19.6155551 23.8883289 18.1266878 22.6408853 16.6043628 21.5349786 15.0605294 20.426673 13.4354415 19.4287181 11.7290992 18.5794969 8.32836383 16.8858524 4.5834922 15.8087329.726298317 15.6647971.613976066 15.6647971.527942002 15.5688399.527942002 15.4536912.530331837 15.3481383.618755737 15.256979.728688152 15.2545801 4.64323808 15.0986496 8.58885586 15.9238815 12.2476934 17.4256116 14.0735275 18.166881 15.8443953 19.0856711 17.5363985 20.1244078 19.2284018 21.1823359 20.8272015 22.3146308 22.3638655 23.6988134 22.7988155 24.089839 22.834663 24.7615393 22.4451199 25.1957457 22.0555768 25.6323509 21.3888128 25.663537 20.9538628 25.2773093 20.9323542 25.2605168 20.9156254 25.2437243 20.8988966 25.2293307L20.8749982 25.1957457zM23.8553616 22.2018811C22.4764267 20.6593692 21.3460347 19.0544851 20.2945073 17.3536437 19.2597086 15.6552014 18.3539611 13.88719 17.6059427 12.0472107 16.1122958 8.37444903 15.2949722 4.40901786 15.443142.481969578 15.4479216.362023082 15.5459049.278060534 15.6582271.282858394 15.7657697.287656254 15.8494139.374017731 15.8565834.481969578 15.9880244 4.35144355 17.06584 8.10816781 18.7554534 11.526643 19.6014551 13.2394789 20.5956265 14.8659534 21.6997303 16.4156621 22.8014443 17.9485784 24.0441586 19.4479096 25.3513984 20.7025499L25.3681272 20.7289381C25.7959077 21.1367562 25.805467 21.8084566 25.3991951 22.2282693 25.0000926 22.650481 24.3285489 22.6624757 23.907938 22.2570565 23.8959888 22.2378651 23.8768701 22.2210726 23.8553616 22.2018811M32.0634893 52.0337742C31.7408615 52.0337742 31.4230135 51.9594074 31.1195044 51.8058758 30.0775363 51.2853081 29.6569253 50.0138752 30.1755195 48.9703407L33.1628134 42.9754148C33.6861873 41.9246835 34.9480203 41.5072697 35.9971579 42.0254385 37.0295667 42.5508042 37.4549573 43.8198381 36.9387529 44.8705694L33.9538489 50.8678942C33.5882041 51.6043657 32.835406 52.0337742 32.0634893 52.0337742M37.2819332 55.7775442C36.9688648 55.7775442 36.6414574 55.7031774 36.3379484 55.5520448 35.3007599 55.0290781 34.8729794 53.7552463 35.3987432 52.7117118L38.3788676 46.7215838C38.909411 45.6732514 40.1784134 45.2486408 41.2156019 45.7692086 42.25757 46.2969732 42.6805708 47.570805 42.1571969 48.6167384L39.1746827 54.6020686C38.8090379 55.3433379 38.0610195 55.7775442 37.2819332 55.7775442M42.5096976 59.5210744C42.1918495 59.5210744 41.8787811 59.4539043 41.5657127 59.3003728 40.5285243 58.7726082 40.1103031 57.5035743 40.6217278 56.4576409L43.6090217 50.462715C44.1300058 49.4143826 45.3966184 48.9945699 46.4385865 49.5223345 47.4853343 50.0405033 47.9059453 51.3119362 47.387351 52.3578696L44.3976673 58.3527955C44.0320225 59.0964638 43.2887838 59.5210744 42.5096976 59.5210744M44.0057344 37.0500579C43.2314278 37.0500579 42.4905789 36.6206494 42.1177646 35.8841779 41.5943907 34.8334466 42.0150017 33.5668116 43.0617495 33.041446L49.0315576 30.0451825C50.0711359 29.5174179 51.3401383 29.9444274 51.8587326 30.9951588 52.3844963 32.0410922 51.9591056 33.3125251 50.9147477 33.8378907L44.9521091 36.8293563C44.6509898 36.9804889 44.3283621 37.0500579 44.0057344 37.0500579M47.7374619 42.2977171C46.9607655 42.2977171 46.2175268 41.8659097 45.8494921 41.1198425 45.3285081 40.0715101 45.7491191 38.8048751 46.7910872 38.2771105L52.7632851 35.2880439C53.8004736 34.7650771 55.069476 35.1872888 55.5880703 36.2380201 56.113834 37.2815546 55.6884433 38.5553864 54.6464752 39.0759542L48.6790569 42.0698188C48.3779377 42.2233503 48.0505303 42.2977171 47.7374619 42.2977171M51.4667996 47.5381795C50.692493 47.5381795 49.9516441 47.1063721 49.57644 46.3675017 49.055456 45.3215683 49.4784568 44.0501354 50.5204249 43.5247697L56.4926228 40.5333041C57.5322011 40.0055396 58.8012036 40.4325491 59.3197978 41.4736847 59.8431717 42.524416 59.4201709 43.7934499 58.3734231 44.3188156L52.4107845 47.317478C52.1096652 47.4686105 51.7870375 47.5405784 51.4667996 47.5381795"/>
    </g>
    <g fill="#F9C300" transform="rotate(-15 327.413 -1575.408)">
      <path d="M63.2656521,5.59401929 C62.1989065,4.58451765 60.6658483,4.32970917 59.3370795,4.77562401 C59.8051685,3.51396815 59.5387042,2.06032118 58.4746232,1.05081954 C56.9948579,-0.350627081 54.6020081,-0.349742329 53.1266838,1.05170429 C52.3352847,1.8019737 52.0013161,2.79820406 52.0554972,3.7802784 C52.2882094,7.02643222 50.3670014,9.63910385 48.8987829,11.0290487 C44.9382345,14.7857042 32.7270619,15.7438903 32.7270619,15.7438903 L32.7297265,15.7571615 C32.0084964,15.85183 31.3023659,16.0261261 30.6060057,16.2358122 C30.4319157,16.2853583 30.2649313,16.3490604 30.0943942,16.4056845 C29.8527998,16.4888512 29.6058762,16.5605161 29.3687229,16.656954 C24.5181837,18.5724413 21.1056636,23.108563 21.1056636,28.402917 C21.1056636,35.4278451 27.1108817,41.1229915 34.5194787,41.1229915 C41.6402942,41.1229915 47.4483287,35.8560649 47.888883,29.208041 C48.2024228,26.5148569 49.4450348,17.8584467 52.7749509,14.7025376 C54.2582691,13.2922434 57.0650268,11.430726 60.5592626,11.7103075 C60.5796915,11.7129617 60.5947912,11.7129617 60.6143319,11.7129617 C60.6392019,11.715616 60.660519,11.7129617 60.6898301,11.7138465 L60.6898301,11.6996905 C61.6224553,11.6766869 62.548863,11.3440203 63.2656521,10.6654158 C64.7391999,9.2648539 64.7418646,6.99635066 63.2656521,5.59401929"/>
      <path d="M51.9105406,21.9783813 C51.2594794,24.494615 50.823366,27.1541785 50.6439467,29.1015169 L50.6386174,29.1625647 L50.6270706,29.2209583 C50.6235178,29.2501551 50.6155239,29.2775824 50.6110828,29.3058945 C50.305537,37.7101505 42.8498647,44.391795 33.8247173,44.0086975 C24.6281446,43.618522 17.7817874,35.5876312 18.5376579,26.8878682 C19.0137409,21.409486 22.0905159,17.8510148 24.8777329,15.9576463 C27.6347506,14.0855118 30.9913132,13.3467441 30.9913132,13.3467441 L28.6100101,13.3467441 C12.7367292,13.7404586 0.000621750136,24.6096327 0.000621750136,37.9923862 C0.000621750136,51.6264092 6.58406747,50.2895495 29.4911189,50.2895495 C54.2740793,50.2895495 58.9887218,51.6264092 58.9887218,37.9923862 C58.9887218,31.876098 56.3169726,26.2897761 51.9105406,21.9783813"/>
    </g>
    <rect width="209" height="38" x="292" y="62" fill="#FFF"/>
    <g transform="translate(97 70)">
      <path fill="#F9C300" d="M0.1,56.72 L5.74,65.32 L5.74,71 L8.08,71 L8.08,65.32 L13.72,56.72 L10.9,56.72 L6.92,63.14 L2.92,56.72 L0.1,56.72 Z M18.22,56.72 L18.22,71 L28.86,71 L28.86,69 L20.56,69 L20.56,64.68 L28.04,64.68 L28.04,62.68 L20.56,62.68 L20.56,58.72 L28.52,58.72 L28.52,56.72 L18.22,56.72 Z M39.1,56.44 C37.56,56.44 36.3,56.78 35.3,57.48 C34.22,58.2 33.7,59.2 33.7,60.46 C33.7,61.72 34.24,62.68 35.34,63.34 C35.76,63.58 36.86,63.98 38.62,64.54 C40.2,65.02 41.12,65.34 41.4,65.48 C42.28,65.92 42.74,66.52 42.74,67.28 C42.74,67.88 42.42,68.34 41.82,68.7 C41.22,69.04 40.38,69.22 39.34,69.22 C38.16,69.22 37.3,69 36.74,68.6 C36.12,68.14 35.74,67.36 35.58,66.28 L33.26,66.28 C33.36,68.1 34.02,69.42 35.22,70.26 C36.2,70.94 37.58,71.28 39.34,71.28 C41.16,71.28 42.58,70.9 43.58,70.18 C44.58,69.44 45.08,68.42 45.08,67.14 C45.08,65.82 44.46,64.8 43.22,64.06 C42.66,63.74 41.42,63.26 39.48,62.66 C38.16,62.24 37.34,61.94 37.04,61.78 C36.36,61.42 36.04,60.92 36.04,60.32 C36.04,59.64 36.32,59.14 36.92,58.84 C37.4,58.58 38.08,58.46 38.98,58.46 C40.02,58.46 40.82,58.64 41.34,59.04 C41.86,59.42 42.24,60.06 42.44,60.94 L44.76,60.94 C44.62,59.38 44.04,58.22 43.04,57.48 C42.1,56.78 40.78,56.44 39.1,56.44 Z M56.82,55.68 L61.02,55.68 L61.02,54.52 L62.94,54.52 L62.94,55.68 L67,55.68 L67,57.32 L62.94,57.32 L62.94,58.38 L67.46,58.38 L67.46,60.02 L65.72,60.02 L65.72,61.14 L67.26,61.14 L67.26,62.74 L65.72,62.74 L65.72,63.92 L67.46,63.92 L67.46,65.52 L62.02,65.52 L62.02,63.92 L63.8,63.92 L63.8,62.74 L62.16,62.74 L62.16,61.14 L63.8,61.14 L63.8,60.02 L59.9,60.02 L59.9,61.14 L61.42,61.14 L61.42,62.74 L59.9,62.74 L59.9,63.84 C60.54,63.76 61.1,63.66 61.58,63.58 L61.58,65.16 C60.54,65.4 58.76,65.64 56.24,65.84 L55.96,64.1 C56.68,64.06 57.36,64.04 58,64 L58,62.74 L56.24,62.74 L56.24,61.14 L58,61.14 L58,60.02 L56.28,60.02 L56.28,58.8 C55.64,59.6 54.96,60.3 54.22,60.9 L54.22,62.26 C54.2,63.54 54.12,64.72 53.98,65.82 C54.8,66.8 55.64,67.88 56.48,69.08 L55.2,71 C54.56,69.76 54,68.76 53.56,68 C53,70.16 52.1,71.9 50.86,73.22 L49.3,71.84 C51.26,69.86 52.24,66.66 52.28,62.26 L52.28,54.82 L54.22,54.82 L54.22,58.84 C54.74,58.18 55.24,57.42 55.68,56.56 L56.8,58.14 L56.62,58.38 L61.02,58.38 L61.02,57.32 L56.82,57.32 L56.82,55.68 Z M55.96,66.32 L67.64,66.32 L67.64,68.04 L64.38,68.04 L64.38,70.54 C64.38,70.88 64.52,71.06 64.82,71.06 L65.48,71.06 C65.68,71.06 65.84,70.96 65.96,70.8 C66.08,70.6 66.16,70 66.2,69 L67.88,69.54 C67.76,71.1 67.54,72.04 67.22,72.34 C66.9,72.62 66.42,72.76 65.8,72.76 L64.28,72.76 C63.06,72.76 62.46,72.14 62.46,70.94 L62.46,68.04 L60.9,68.04 C60.72,69.22 60.4,70.12 59.96,70.74 C59.32,71.58 58.22,72.3 56.7,72.94 L55.44,71.32 C56.72,70.88 57.64,70.38 58.2,69.8 C58.56,69.4 58.82,68.8 58.98,68.04 L55.96,68.04 L55.96,66.32 Z M51.02,58.08 C51.34,59.72 51.64,61.58 51.92,63.7 L50.34,64.1 C50.1,62.18 49.78,60.36 49.4,58.6 L51.02,58.08 Z M82.06,58.64 C81.34,59.06 80.58,59.44 79.76,59.76 L79.26,58.98 C78.58,59.94 77.9,60.8 77.18,61.54 L77.18,61.92 C77.16,63.3 77.08,64.58 76.94,65.74 C77.78,66.74 78.62,67.84 79.48,69.04 L78.22,70.88 C77.58,69.64 77.02,68.62 76.56,67.86 C76.04,70.04 75.24,71.8 74.12,73.12 L72.58,71.76 C74.34,69.72 75.24,66.44 75.28,61.92 L75.28,54.74 L77.18,54.74 L77.18,59.16 C77.62,58.52 78,57.86 78.36,57.2 L79.3,57.94 C81.38,57.04 83.02,55.92 84.18,54.58 L85.7,54.58 C86.74,55.9 88.56,57.08 91.12,58.08 L90,59.76 C89.16,59.4 88.42,59.04 87.78,58.66 L87.78,59.26 L82.06,59.26 L82.06,58.64 Z M86.38,57.7 C85.82,57.24 85.34,56.76 84.94,56.28 C84.46,56.8 83.96,57.26 83.42,57.7 L86.38,57.7 Z M79.78,59.92 L89.92,59.92 L89.92,65.6 L79.78,65.6 L79.78,59.92 Z M88.16,64.12 L88.16,61.44 L85.68,61.44 L85.68,64.12 L88.16,64.12 Z M84.04,64.12 L84.04,61.44 L81.54,61.44 L81.54,64.12 L84.04,64.12 Z M89.52,66.22 L89.52,73.06 L87.52,73.06 L87.52,72.3 L82.22,72.3 L82.22,73.06 L80.24,73.06 L80.24,66.22 L89.52,66.22 Z M82.22,70.76 L87.52,70.76 L87.52,69.94 L82.22,69.94 L82.22,70.76 Z M82.22,68.52 L87.52,68.52 L87.52,67.7 L82.22,67.7 L82.22,68.52 Z M86.7,61.7 L87.82,62 C87.62,62.7 87.38,63.32 87.1,63.86 L86.06,63.48 C86.3,63 86.5,62.42 86.7,61.7 Z M82.88,61.7 C83.16,62.24 83.42,62.86 83.64,63.56 L82.56,63.84 C82.36,63.2 82.1,62.6 81.8,62.04 L82.88,61.7 Z M74.04,58.08 C74.4,59.72 74.7,61.58 74.96,63.7 L73.4,64.1 C73.14,62.18 72.82,60.36 72.44,58.6 L74.04,58.08 Z M112.7,55.22 L112.7,70.8 L113.9,70.8 L113.9,72.78 L102.68,72.78 L102.68,70.8 L104.04,70.8 L104.04,55.22 L112.7,55.22 Z M106.02,70.8 L110.72,70.8 L110.72,67.62 L106.02,67.62 L106.02,70.8 Z M106.02,65.72 L110.72,65.72 L110.72,62.4 L106.02,62.4 L106.02,65.72 Z M106.02,60.48 L110.72,60.48 L110.72,57.14 L106.02,57.14 L106.02,60.48 Z M96.28,68.1 C96.16,69.7 95.9,71.1 95.5,72.34 L97.36,72.94 C97.72,71.58 97.94,70.06 98.04,68.34 L96.28,68.1 Z M100.26,67.84 C100.56,69.06 100.82,70.38 101.04,71.8 L99.2,72.24 C99.02,70.72 98.8,69.38 98.56,68.22 L100.26,67.84 Z M102.22,62.62 C102.7,63.82 103.14,65.18 103.52,66.72 L101.86,67.16 C101.78,66.8 101.68,66.44 101.6,66.1 C99.72,66.7 97.94,67.12 96.26,67.32 L95.76,65.56 C96.1,65.4 96.38,65.22 96.62,65 C97.16,64.44 97.84,63.46 98.64,62.1 C97.82,62.22 96.98,62.36 96.1,62.48 L95.6,60.7 C95.92,60.56 96.2,60.32 96.44,59.98 C97.28,58.34 98,56.56 98.64,54.62 L100.56,55.38 C99.68,57.46 98.8,59.18 97.92,60.52 L99.66,60.28 C100.06,59.52 100.48,58.7 100.92,57.82 L102.78,58.54 C101.12,61.58 99.74,63.78 98.62,65.18 C99.46,64.98 100.28,64.76 101.12,64.52 C100.96,64.04 100.8,63.6 100.64,63.16 L102.22,62.62 Z M102.56,67.3 C102.9,68.18 103.2,69.18 103.46,70.34 L101.8,70.78 C101.6,69.74 101.34,68.74 101.02,67.8 L102.56,67.3 Z M130.92,54.52 C130.5,55.32 130.02,56.1 129.48,56.84 L125.92,56.84 C125.54,56 125.16,55.26 124.78,54.6 L122.68,54.96 C123.08,55.54 123.44,56.16 123.76,56.84 L118.96,56.84 L118.96,58.88 L136.38,58.88 L136.38,56.84 L131.82,56.84 C132.22,56.34 132.6,55.8 132.94,55.24 L130.92,54.52 Z M121.92,65.38 L121.92,66.26 C121.92,66.56 121.9,66.84 121.9,67.1 L125.66,67.1 L125.66,65.38 L121.92,65.38 Z M125.66,63.54 L125.66,61.84 L121.92,61.84 L121.92,63.54 L125.66,63.54 Z M121.7,68.94 C121.44,70.62 120.94,72.04 120.2,73.24 L118.7,71.88 C119.54,70.44 119.98,68.62 120,66.38 L120,59.98 L127.56,59.98 L127.56,71.06 C127.56,72.3 126.86,72.92 125.48,72.92 L123.8,72.92 L123.28,71.1 C123.88,71.14 124.42,71.18 124.9,71.18 C125.4,71.18 125.66,70.92 125.66,70.4 L125.66,68.94 L121.7,68.94 Z M133.4,72.92 L130.88,72.92 L130.44,70.96 C131.24,71.04 131.98,71.1 132.7,71.1 C133.18,71.1 133.44,70.84 133.44,70.32 L133.44,59.64 L135.48,59.64 L135.48,70.84 C135.48,72.22 134.78,72.92 133.4,72.92 Z M129.34,61.1 L131.3,61.1 L131.3,69.64 L129.34,69.64 L129.34,61.1 Z M149.94,55.14 L149.94,57.1 L152.54,57.1 C152.94,64.58 154.98,69.84 158.62,72.9 L159.94,71.12 C156.28,67.9 154.46,62.58 154.46,55.14 L149.94,55.14 Z M146.8,56.9 C146.08,64.34 144.3,69.04 141.46,71.04 L142.64,72.94 C145.86,70.6 147.92,65.32 148.82,57.08 L146.8,56.9 Z M171.12,72 L171.12,73.04 L169.02,73.04 L169.02,66.22 C167.94,66.54 166.78,66.86 165.58,67.14 L164.5,65.14 C167.8,64.54 170.54,63.74 172.74,62.74 C171.9,62.06 170.82,61.36 169.52,60.62 L171.34,59.5 C172.66,60.34 173.74,61.1 174.56,61.78 C176.3,60.72 177.6,59.5 178.44,58.14 L171.72,58.14 C170.36,59.38 168.66,60.5 166.58,61.5 L165.18,59.68 C168.54,58.28 170.82,56.54 172,54.5 L174.3,54.78 C174.06,55.26 173.78,55.72 173.46,56.18 L180.82,56.18 L180.82,58.02 C179.58,60.5 177.32,62.56 174.08,64.22 L181.5,64.22 L181.5,73.04 L179.38,73.04 L179.38,72 L171.12,72 Z M179.38,69.98 L179.38,66.16 L171.12,66.16 L171.12,69.98 L179.38,69.98 Z M196.64,62.06 C196.14,62.06 195.74,62.2 195.44,62.5 C195.12,62.78 194.96,63.16 194.96,63.64 C194.96,64.08 195.1,64.46 195.4,64.76 C195.7,65.06 196.06,65.22 196.5,65.22 C196.72,65.22 196.88,65.18 197,65.14 C197,65.62 196.82,66.08 196.48,66.56 C196.1,67 195.64,67.32 195.1,67.52 L195.1,68.84 C196.14,68.54 196.98,68 197.6,67.22 C198.2,66.42 198.52,65.5 198.52,64.44 C198.52,63.74 198.34,63.16 198,62.72 C197.64,62.28 197.18,62.06 196.64,62.06 Z M210.7,55.64 L228.72,55.64 L228.72,57.66 L226.24,57.66 L226.24,70.7 C226.24,72.18 225.52,72.94 224.12,72.94 L220.74,72.94 L220.26,70.92 C221.34,71 222.4,71.04 223.4,71.04 C223.88,71.04 224.14,70.74 224.14,70.18 L224.14,57.66 L210.7,57.66 L210.7,55.64 Z M221.1,60.06 L221.1,67.9 L214.84,67.9 L214.84,69.5 L212.84,69.5 L212.84,60.06 L221.1,60.06 Z M214.84,66.02 L219.12,66.02 L219.12,61.92 L214.84,61.92 L214.84,66.02 Z M235.58,54.64 L234.2,55.96 C235.52,57 236.54,57.96 237.26,58.84 L238.6,57.5 C237.76,56.54 236.76,55.6 235.58,54.64 Z M233.72,59.4 L238.62,59.4 L238.62,61.02 C238.06,62.02 237.4,63 236.64,64 L239.2,64 L239.2,65.36 C238.86,66.82 238.44,68.02 237.96,68.96 C238.08,69.04 238.2,69.14 238.32,69.26 C238.96,69.84 239.56,70.26 240.12,70.5 C240.7,70.72 241.52,70.84 242.6,70.88 C243.68,70.88 244.92,70.9 246.32,70.9 C247.8,70.9 249.74,70.84 252.12,70.76 L251.64,72.72 L246.58,72.72 C245.22,72.72 243.86,72.68 242.52,72.64 C241.16,72.6 240.14,72.44 239.44,72.18 C238.6,71.86 237.86,71.36 237.18,70.66 C237.04,70.52 236.88,70.46 236.72,70.46 C236.36,70.46 235.74,71.32 234.9,73.08 L233.4,71.68 C234.36,69.84 235.28,68.78 236.16,68.52 C236.6,67.66 236.94,66.74 237.2,65.74 L234.24,65.74 L234.24,64.18 C235.1,63.14 235.82,62.18 236.38,61.28 L233.72,61.28 L233.72,59.4 Z M240.68,60.98 C240.3,61.46 239.9,61.94 239.5,62.38 L238.86,60.38 C240.26,58.66 241.26,56.78 241.82,54.74 L243.74,55.08 C243.54,55.68 243.34,56.28 243.1,56.84 L245.76,56.84 C245.48,56.24 245.16,55.66 244.82,55.1 L246.68,54.58 C247.12,55.38 247.46,56.14 247.72,56.84 L251.18,56.84 L251.18,58.72 L247.68,58.72 L247.68,60.46 L250.58,60.46 L250.58,62.26 L247.68,62.26 L247.68,63.96 L250.6,63.96 L250.6,65.76 L247.68,65.76 L247.68,67.56 L251.36,67.56 L251.36,69.42 L240.68,69.42 L240.68,60.98 Z M245.72,67.56 L245.72,65.76 L242.68,65.76 L242.68,67.56 L245.72,67.56 Z M245.72,63.96 L245.72,62.26 L242.68,62.26 L242.68,63.96 L245.72,63.96 Z M245.72,60.46 L245.72,58.72 L242.68,58.72 L242.68,60.46 L245.72,60.46 Z M258.92,59.7 L258.92,60.88 L260.26,60.88 L260.26,59.7 L258.92,59.7 Z M258.92,62.54 L258.92,63.9 L260.26,63.9 L260.26,62.54 L258.92,62.54 Z M262.08,63.9 L264.4,63.9 C264.4,68.44 264.24,71.1 263.92,71.86 C263.62,72.62 263.02,73 262.14,73 C261.72,73 261.28,72.98 260.84,72.94 L260.36,71.12 C260.88,71.16 261.36,71.2 261.82,71.2 C262.22,71.2 262.44,70.82 262.5,70.1 C262.5,69.88 262.52,69.6 262.54,69.28 L261.78,69.56 C261.58,68.46 261.38,67.4 261.14,66.36 L262.02,66.12 C262.24,67 262.42,67.82 262.56,68.58 C262.58,67.76 262.6,66.78 262.6,65.62 L257.04,65.62 L257.04,55.2 L264.26,55.2 L264.26,56.94 L262.08,56.94 L262.08,58.14 L263.76,58.14 L263.76,59.7 L262.08,59.7 L262.08,60.88 L263.76,60.88 L263.76,62.54 L262.08,62.54 L262.08,63.9 Z M260.26,56.94 L258.92,56.94 L258.92,58.14 L260.26,58.14 L260.26,56.94 Z M256.92,66.56 L258.1,66.74 C257.98,69.38 257.76,71.3 257.48,72.5 L256.26,71.66 C256.6,70.42 256.82,68.72 256.92,66.56 Z M259.46,66.6 C259.62,67.8 259.72,69.42 259.78,71.5 L258.6,71.66 C258.56,69.54 258.5,67.88 258.42,66.72 L259.46,66.6 Z M260.8,66.38 C261.02,67.76 261.2,69.02 261.34,70.16 L260.3,70.56 C260.2,69.2 260.08,67.9 259.92,66.62 L260.8,66.38 Z M264.74,57.78 L264.74,59.82 L268.72,59.82 L268.72,63.88 L265.22,63.88 L265.22,65.86 L268.72,65.86 L268.72,70.42 L264.42,70.42 L264.42,72.46 L275.02,72.46 L275.02,70.42 L270.8,70.42 L270.8,65.86 L274.24,65.86 L274.24,63.88 L270.8,63.88 L270.8,59.82 L274.66,59.82 L274.66,57.78 L270.72,57.78 C270.48,56.82 270.14,55.74 269.74,54.56 L267.7,55.12 C268.06,55.96 268.4,56.86 268.7,57.78 L264.74,57.78 Z M284.9,56.44 C283.36,56.44 282.12,56.96 281.18,58 C280.26,58.98 279.8,60.26 279.78,61.86 L282.12,61.86 C282.16,60.74 282.4,59.88 282.84,59.32 C283.28,58.72 283.94,58.42 284.82,58.42 C285.64,58.42 286.26,58.6 286.68,58.98 C287.08,59.36 287.3,59.94 287.3,60.72 C287.3,61.52 286.98,62.28 286.36,62.98 C285.96,63.4 285.32,63.94 284.4,64.58 C282.74,65.72 281.64,66.6 281.12,67.2 C280.16,68.28 279.7,69.54 279.7,71 L289.66,71 L289.66,68.94 L282.62,68.94 C282.94,68.22 283.82,67.38 285.28,66.42 C286.68,65.48 287.68,64.72 288.24,64.12 C289.16,63.1 289.64,61.98 289.64,60.74 C289.64,59.46 289.2,58.44 288.32,57.64 C287.42,56.84 286.28,56.44 284.9,56.44 Z M299.68,56.44 C301.34,56.44 302.64,57.12 303.58,58.52 C304.46,59.84 304.9,61.62 304.9,63.86 C304.9,66.1 304.46,67.88 303.58,69.2 C302.64,70.58 301.34,71.28 299.68,71.28 C298,71.28 296.7,70.58 295.78,69.2 C294.9,67.88 294.46,66.1 294.46,63.86 C294.46,61.62 294.9,59.84 295.78,58.52 C296.7,57.12 298,56.44 299.68,56.44 Z M299.68,58.42 C298.54,58.42 297.74,59.04 297.28,60.32 C296.96,61.18 296.8,62.36 296.8,63.86 C296.8,65.34 296.96,66.52 297.28,67.4 C297.74,68.66 298.54,69.3 299.68,69.3 C300.8,69.3 301.6,68.66 302.08,67.4 C302.4,66.52 302.56,65.34 302.56,63.86 C302.56,62.36 302.4,61.18 302.08,60.32 C301.6,59.04 300.8,58.42 299.68,58.42 Z M313.32,56.72 C312.84,57.22 312.24,57.68 311.52,58.12 C310.8,58.52 310.12,58.8 309.48,58.96 L309.48,61.28 C310.8,60.9 311.88,60.32 312.74,59.54 L312.74,71 L315.08,71 L315.08,56.72 L313.32,56.72 Z M320.48,56.72 L320.48,58.84 L327.78,58.84 L322.66,71 L325.14,71 L330.14,58.6 L330.14,56.72 L320.48,56.72 Z M344.62,54.44 L342.28,54.84 C342.48,55.2 342.66,55.6 342.84,56.04 L335.02,56.04 L335.02,57.96 L352.84,57.96 L352.84,56.04 L345.12,56.04 C344.96,55.46 344.78,54.92 344.62,54.44 Z M349.58,73.02 L347.94,73.02 L347.44,71.18 L348.98,71.24 C349.68,71.24 350.04,71 350.04,70.52 L350.04,65.62 L337.84,65.62 L337.84,73.08 L335.86,73.08 L335.86,63.82 L352.02,63.82 L352.02,70.94 C352.02,72.32 351.2,73.02 349.58,73.02 Z M338.1,58.78 L349.8,58.78 L349.8,63.02 L338.1,63.02 L338.1,58.78 Z M347.8,61.46 L347.8,60.34 L340.1,60.34 L340.1,61.46 L347.8,61.46 Z M339.84,66.42 L348.08,66.42 L348.08,70.74 L339.84,70.74 L339.84,66.42 Z M346.24,69.2 L346.24,67.96 L341.68,67.96 L341.68,69.2 L346.24,69.2 Z M365.04,65.88 C365.6,67.66 366.12,69.7 366.56,72 L364.8,72.46 C364.7,71.94 364.6,71.46 364.52,71 C362.52,71.52 360.64,71.9 358.88,72.1 L358.32,70.28 C358.68,70.12 358.98,69.94 359.22,69.7 C360.04,68.54 361.22,65.86 362.76,61.62 L364.58,62.3 C363.2,65.82 362.06,68.38 361.14,69.94 C362.14,69.78 363.14,69.56 364.14,69.32 C363.9,68.32 363.64,67.38 363.36,66.46 L365.04,65.88 Z M361.12,54.68 L362.92,54.92 C362.88,55.8 362.78,56.68 362.66,57.52 L365.7,57.52 L365.7,59.34 L362.32,59.34 C361.68,62.18 360.54,64.78 358.94,67.14 L357.54,65.9 C358.84,63.84 359.78,61.66 360.38,59.34 L358.06,59.34 L358.06,57.52 L360.78,57.52 C360.94,56.58 361.06,55.64 361.12,54.68 Z M368.76,63.68 L368.76,65.76 L371,65.76 L371,63.68 L368.76,63.68 Z M368.76,67.64 L368.76,70.06 L371,70.06 L371,67.64 L368.76,67.64 Z M368.76,71.96 L368.76,73.04 L366.8,73.04 L366.8,62.32 C366.44,62.96 366.08,63.6 365.68,64.2 L365,62 C366.16,59.8 366.98,57.38 367.46,54.76 L369.42,55.14 C369.22,56.04 369,56.92 368.72,57.78 L371.24,57.78 C370.94,56.86 370.6,55.94 370.2,55.06 L372.22,54.52 C372.64,55.7 372.98,56.78 373.22,57.78 L375.72,57.78 L375.72,59.7 L372.96,59.7 L372.96,61.8 L375.32,61.8 L375.32,63.68 L372.96,63.68 L372.96,65.76 L375.36,65.76 L375.36,67.64 L372.96,67.64 L372.96,70.06 L376.02,70.06 L376.02,71.96 L368.76,71.96 Z M371,59.7 L368.76,59.7 L368.76,61.8 L371,61.8 L371,59.7 Z M386.92,56 L386.92,71.04 L384.92,71.04 L384.92,70 L383.34,70 L383.34,71.52 L381.34,71.52 L381.34,56 L386.92,56 Z M383.34,68.04 L384.92,68.04 L384.92,57.96 L383.34,57.96 L383.34,68.04 Z M388.26,56.22 L391.56,56.22 C391.84,55.64 392.04,55.06 392.2,54.46 L394.26,54.74 C394.1,55.26 393.9,55.74 393.66,56.22 L398.16,56.22 L398.16,65.12 L393.22,65.12 C393.16,65.24 393.1,65.34 393.04,65.46 C392.52,66.28 391.76,66.96 390.76,67.48 L393.62,67.48 L393.62,65.68 L395.64,65.68 L395.64,67.48 L399.12,67.48 L399.12,69.46 L395.64,69.46 L395.64,73.02 L393.62,73.02 L393.62,69.46 L387.54,69.46 L387.54,67.48 L389.52,67.48 L388.86,66.44 C389.74,66.06 390.42,65.62 390.92,65.12 L388.26,65.12 L388.26,56.22 Z M396.28,63.34 L396.28,61.56 L394.12,61.56 C394.06,62.2 393.96,62.8 393.84,63.34 L396.28,63.34 Z M391.88,63.34 C392.02,62.78 392.12,62.2 392.2,61.56 L390.14,61.56 L390.14,63.34 L391.88,63.34 Z M390.14,59.8 L392.24,59.8 L392.24,58.02 L390.14,58.02 L390.14,59.8 Z M394.16,58.02 L394.16,59.8 L396.28,59.8 L396.28,58.02 L394.16,58.02 Z M405.56,54.78 L404.08,56.22 C405.54,57.24 406.68,58.2 407.48,59.08 L408.96,57.58 C408.02,56.66 406.88,55.72 405.56,54.78 Z M405.06,59.56 L403.58,61 C405.02,62.04 406.14,63 406.92,63.9 L408.4,62.42 C407.5,61.46 406.38,60.52 405.06,59.56 Z M406.82,64.96 C405.98,67.36 404.96,69.7 403.8,72.02 L405.74,72.88 C406.82,70.64 407.78,68.24 408.66,65.68 L406.82,64.96 Z M409.1,55.2 L422.04,55.2 L422.04,57.16 L418.18,57.16 L418.18,58.98 L421.58,58.98 L421.58,73.02 L419.62,73.02 L419.62,72.32 L411.5,72.32 L411.5,73.08 L409.54,73.08 L409.54,58.98 L412.78,58.98 L412.78,57.16 L409.1,57.16 L409.1,55.2 Z M416.22,58.98 L416.22,57.16 L414.74,57.16 L414.74,58.98 L416.22,58.98 Z M412.64,67.16 L418.5,67.16 L418.5,69 L412.64,69 L412.64,67.16 Z M412.98,60.86 L411.5,60.86 L411.5,64.86 C412.46,64.14 412.96,63.1 412.98,61.74 L412.98,60.86 Z M411.5,65.44 L411.5,70.44 L419.62,70.44 L419.62,65.54 L418.06,65.54 C416.86,65.54 416.26,64.94 416.26,63.76 L416.26,60.86 L414.7,60.86 L414.7,61.74 C414.66,63.82 413.94,65.34 412.5,66.3 L411.5,65.44 Z M419.62,63.84 L419.62,60.86 L417.98,60.86 L417.98,63.32 C417.98,63.66 418.18,63.84 418.58,63.84 L419.62,63.84 Z M430.14,64.86 L430.14,66 L434.02,66 L434.02,64.86 L430.14,64.86 Z M434.02,63.18 L434.02,62.06 L430.14,62.06 L430.14,63.18 L434.02,63.18 Z M442.58,71.28 C443.82,71.28 444.46,70.64 444.46,69.38 L444.46,60.32 L437.4,60.32 L437.4,73.04 L439.48,73.04 L439.48,62.24 L442.38,62.24 L442.38,68.92 C442.38,69.24 442.22,69.4 441.92,69.4 L440.1,69.3 L440.64,71.28 L442.58,71.28 Z M434.6,67.86 C435.36,69.14 436.04,70.5 436.6,71.94 L434.66,72.82 C434.48,72.34 434.3,71.88 434.12,71.46 C432.44,71.94 430.44,72.4 428.12,72.84 L427.58,70.9 C427.88,70.8 428.04,70.62 428.04,70.36 L428.04,60.34 L436.1,60.34 L436.1,67.68 L430.14,67.68 L430.14,70.46 C431.22,70.24 432.28,69.98 433.34,69.7 C433.12,69.26 432.9,68.86 432.7,68.5 L434.6,67.86 Z M430.12,57.74 C429.68,58.5 429.18,59.22 428.64,59.88 L426.8,58.72 C427.98,57.4 428.82,56 429.3,54.52 L431.34,54.96 C431.22,55.28 431.12,55.6 431,55.9 L435.82,55.9 L435.82,57.74 L433.08,57.74 C433.52,58.38 433.88,58.98 434.16,59.54 L432.28,60.24 C431.9,59.38 431.44,58.54 430.92,57.74 L430.12,57.74 Z M438.68,57.74 C438.28,58.56 437.82,59.32 437.34,60.02 L435.58,58.88 C436.6,57.52 437.32,56.08 437.72,54.56 L439.7,55 L439.42,55.9 L444.94,55.9 L444.94,57.74 L441.7,57.74 C442.14,58.38 442.48,58.98 442.74,59.54 L440.9,60.24 C440.52,59.38 440.08,58.54 439.56,57.74 L438.68,57.74 Z M450.08,59.6 L450.08,61.64 L457.3,61.64 C456.22,66.22 453.66,69.5 449.62,71.46 L450.96,73.22 C454.96,71.12 457.64,67.84 459,63.38 C460.52,67.5 463.18,70.72 466.94,73.04 L468.26,71.32 C464.36,69.04 461.7,65.82 460.26,61.64 L467.8,61.64 L467.8,59.6 L459.78,59.6 C459.92,58.44 460,57.2 460,55.9 L460,54.58 L457.88,54.58 L457.88,56.38 C457.86,57.5 457.78,58.56 457.66,59.6 L450.08,59.6 Z M484.82,61.72 L486.22,62.08 C485.96,62.8 485.64,63.42 485.28,63.96 L483.94,63.48 C484.26,63 484.56,62.42 484.82,61.72 Z M479,61.7 C479.36,62.26 479.66,62.88 479.94,63.6 L478.58,63.96 C478.32,63.32 478,62.72 477.62,62.12 L479,61.7 Z M474.7,60.32 C474.38,60.48 474.04,60.62 473.72,60.78 L472.6,59.02 C475.82,57.74 478.72,56.26 481.32,54.58 L482.56,54.58 C485.16,56.26 488.06,57.74 491.28,59.02 L490.16,60.76 C489.8,60.6 489.48,60.46 489.18,60.3 L489.18,65.58 L474.7,65.58 L474.7,60.32 Z M488.76,60.1 C487.76,59.62 486.84,59.16 485.96,58.7 L485.96,59.4 L477.9,59.4 L477.9,58.74 C477.02,59.2 476.1,59.66 475.16,60.1 L488.76,60.1 Z M487.28,64.06 L487.28,61.66 L482.88,61.66 L482.88,64.06 L487.28,64.06 Z M481,64.06 L481,61.66 L476.6,61.66 L476.6,64.06 L481,64.06 Z M488.42,66.28 L488.42,73.12 L486.44,73.12 L486.44,72.52 L477.46,72.52 L477.46,73.14 L475.48,73.14 L475.48,66.28 L488.42,66.28 Z M477.46,70.9 L486.44,70.9 L486.44,70.02 L477.46,70.02 L477.46,70.9 Z M477.46,68.62 L486.44,68.62 L486.44,67.82 L477.46,67.82 L477.46,68.62 Z M484.46,57.88 C483.54,57.36 482.7,56.84 481.94,56.34 C481.16,56.86 480.32,57.36 479.44,57.88 L484.46,57.88 Z M504.24,54.6 L505.68,54.6 C508.12,56.86 510.96,58.64 514.16,59.96 L513.12,61.78 C512.22,61.4 511.38,61 510.6,60.56 L510.6,67.6 L511.14,66.98 L512.9,67.86 C512.18,68.66 511.42,69.4 510.6,70.08 C511.64,70.56 512.58,71.08 513.46,71.62 L512.16,73.2 C510.12,71.82 507.52,70.54 504.32,69.36 L505.5,67.96 C506.7,68.38 507.82,68.82 508.88,69.28 C509.44,68.8 509.96,68.3 510.44,67.78 L501.56,67.78 L501.56,70.94 C502.98,70.66 504.34,70.34 505.64,69.98 L506.04,71.74 C504.2,72.28 501.9,72.76 499.18,73.16 L498.64,71.5 C499.2,71.32 499.5,70.82 499.5,69.98 L499.5,60.6 C498.62,61.08 497.7,61.54 496.74,61.98 L495.72,60.14 C499.14,58.66 501.98,56.82 504.24,54.6 Z M500.28,60.14 L509.84,60.14 C509,59.66 508.24,59.16 507.52,58.64 L507.52,59.44 L502.44,59.44 L502.44,58.7 C501.76,59.2 501.04,59.68 500.28,60.14 Z M503.56,57.8 L506.44,57.8 C505.9,57.36 505.4,56.94 504.96,56.5 C504.5,56.94 504.04,57.38 503.56,57.8 Z M501.56,64.84 L501.56,65.94 L508.54,65.94 L508.54,64.84 L501.56,64.84 Z M508.54,63.08 L508.54,61.98 L501.56,61.98 L501.56,63.08 L508.54,63.08 Z M520.88,67.32 L526.9,67.32 L526.9,66.08 L522.82,66.08 L522.82,60.88 L533.1,60.88 L533.1,66.08 L528.98,66.08 L528.98,67.32 L535,67.32 L535,69.26 L528.98,69.26 L528.98,70.56 L536.76,70.56 L536.76,72.54 L519.12,72.54 L519.12,70.56 L526.9,70.56 L526.9,69.26 L520.88,69.26 L520.88,67.32 Z M531.06,64.22 L531.06,62.74 L524.86,62.74 L524.86,64.22 L531.06,64.22 Z M526.9,54.68 L528.98,54.68 L528.98,57.72 L531.38,57.72 L530.7,57.22 C531.36,56.58 531.94,55.8 532.42,54.9 L534.16,55.74 C533.74,56.48 533.26,57.14 532.74,57.72 L536.54,57.72 L536.54,62.96 L534.46,62.96 L534.46,59.72 L521.46,59.72 L521.46,62.96 L519.38,62.96 L519.38,57.72 L523.5,57.72 C523.06,57.16 522.52,56.58 521.88,55.94 L523.52,54.94 C524.4,55.86 525.06,56.66 525.52,57.34 L524.96,57.72 L526.9,57.72 L526.9,54.68 Z"/>
      <path fill="#900" d="M183.18,4.296 L193.332,19.776 L193.332,30 L197.544,30 L197.544,19.776 L207.696,4.296 L202.62,4.296 L195.456,15.852 L188.256,4.296 L183.18,4.296 Z M216.396,4.296 L216.396,30 L235.548,30 L235.548,26.4 L220.608,26.4 L220.608,18.624 L234.072,18.624 L234.072,15.024 L220.608,15.024 L220.608,7.896 L234.936,7.896 L234.936,4.296 L216.396,4.296 Z M254.58,3.792 C251.808,3.792 249.54,4.404 247.74,5.664 C245.796,6.96 244.86,8.76 244.86,11.028 C244.86,13.296 245.832,15.024 247.812,16.212 C248.568,16.644 250.548,17.364 253.716,18.372 C256.56,19.236 258.216,19.812 258.72,20.064 C260.304,20.856 261.132,21.936 261.132,23.304 C261.132,24.384 260.556,25.212 259.476,25.86 C258.396,26.472 256.884,26.796 255.012,26.796 C252.888,26.796 251.34,26.4 250.332,25.68 C249.216,24.852 248.532,23.448 248.244,21.504 L244.068,21.504 C244.248,24.78 245.436,27.156 247.596,28.668 C249.36,29.892 251.844,30.504 255.012,30.504 C258.288,30.504 260.844,29.82 262.644,28.524 C264.444,27.192 265.344,25.356 265.344,23.052 C265.344,20.676 264.228,18.84 261.996,17.508 C260.988,16.932 258.756,16.068 255.264,14.988 C252.888,14.232 251.412,13.692 250.872,13.404 C249.648,12.756 249.072,11.856 249.072,10.776 C249.072,9.552 249.576,8.652 250.656,8.112 C251.52,7.644 252.744,7.428 254.364,7.428 C256.236,7.428 257.676,7.752 258.612,8.472 C259.548,9.156 260.232,10.308 260.592,11.892 L264.768,11.892 C264.516,9.084 263.472,6.996 261.672,5.664 C259.98,4.404 257.604,3.792 254.58,3.792 Z M287.076,2.424 L294.636,2.424 L294.636,0.336 L298.092,0.336 L298.092,2.424 L305.4,2.424 L305.4,5.376 L298.092,5.376 L298.092,7.284 L306.228,7.284 L306.228,10.236 L303.096,10.236 L303.096,12.252 L305.868,12.252 L305.868,15.132 L303.096,15.132 L303.096,17.256 L306.228,17.256 L306.228,20.136 L296.436,20.136 L296.436,17.256 L299.64,17.256 L299.64,15.132 L296.688,15.132 L296.688,12.252 L299.64,12.252 L299.64,10.236 L292.62,10.236 L292.62,12.252 L295.356,12.252 L295.356,15.132 L292.62,15.132 L292.62,17.112 C293.772,16.968 294.78,16.788 295.644,16.644 L295.644,19.488 C293.772,19.92 290.568,20.352 286.032,20.712 L285.528,17.58 C286.824,17.508 288.048,17.472 289.2,17.4 L289.2,15.132 L286.032,15.132 L286.032,12.252 L289.2,12.252 L289.2,10.236 L286.104,10.236 L286.104,8.04 C284.952,9.48 283.728,10.74 282.396,11.82 L282.396,14.268 C282.36,16.572 282.216,18.696 281.964,20.676 C283.44,22.44 284.952,24.384 286.464,26.544 L284.16,30 C283.008,27.768 282,25.968 281.208,24.6 C280.2,28.488 278.58,31.62 276.348,33.996 L273.54,31.512 C277.068,27.948 278.832,22.188 278.904,14.268 L278.904,0.876 L282.396,0.876 L282.396,8.112 C283.332,6.924 284.232,5.556 285.024,4.008 L287.04,6.852 L286.716,7.284 L294.636,7.284 L294.636,5.376 L287.076,5.376 L287.076,2.424 Z M285.528,21.576 L306.552,21.576 L306.552,24.672 L300.684,24.672 L300.684,29.172 C300.684,29.784 300.936,30.108 301.476,30.108 L302.664,30.108 C303.024,30.108 303.312,29.928 303.528,29.64 C303.744,29.28 303.888,28.2 303.96,26.4 L306.984,27.372 C306.768,30.18 306.372,31.872 305.796,32.412 C305.22,32.916 304.356,33.168 303.24,33.168 L300.504,33.168 C298.308,33.168 297.228,32.052 297.228,29.892 L297.228,24.672 L294.42,24.672 C294.096,26.796 293.52,28.416 292.728,29.532 C291.576,31.044 289.596,32.34 286.86,33.492 L284.592,30.576 C286.896,29.784 288.552,28.884 289.56,27.84 C290.208,27.12 290.676,26.04 290.964,24.672 L285.528,24.672 L285.528,21.576 Z M276.636,6.744 C277.212,9.696 277.752,13.044 278.256,16.86 L275.412,17.58 C274.98,14.124 274.404,10.848 273.72,7.68 L276.636,6.744 Z M333.108,7.752 C331.812,8.508 330.444,9.192 328.968,9.768 L328.068,8.364 C326.844,10.092 325.62,11.64 324.324,12.972 L324.324,13.656 C324.288,16.14 324.144,18.444 323.892,20.532 C325.404,22.332 326.916,24.312 328.464,26.472 L326.196,29.784 C325.044,27.552 324.036,25.716 323.208,24.348 C322.272,28.272 320.832,31.44 318.816,33.816 L316.044,31.368 C319.212,27.696 320.832,21.792 320.904,13.656 L320.904,0.732 L324.324,0.732 L324.324,8.688 C325.116,7.536 325.8,6.348 326.448,5.16 L328.14,6.492 C331.884,4.872 334.836,2.856 336.924,0.444 L339.66,0.444 C341.532,2.82 344.808,4.944 349.416,6.744 L347.4,9.768 C345.888,9.12 344.556,8.472 343.404,7.788 L343.404,8.868 L333.108,8.868 L333.108,7.752 Z M340.884,6.06 C339.876,5.232 339.012,4.368 338.292,3.504 C337.428,4.44 336.528,5.268 335.556,6.06 L340.884,6.06 Z M329.004,10.056 L347.256,10.056 L347.256,20.28 L329.004,20.28 L329.004,10.056 Z M344.088,17.616 L344.088,12.792 L339.624,12.792 L339.624,17.616 L344.088,17.616 Z M336.672,17.616 L336.672,12.792 L332.172,12.792 L332.172,17.616 L336.672,17.616 Z M346.536,21.396 L346.536,33.708 L342.936,33.708 L342.936,32.34 L333.396,32.34 L333.396,33.708 L329.832,33.708 L329.832,21.396 L346.536,21.396 Z M333.396,29.568 L342.936,29.568 L342.936,28.092 L333.396,28.092 L333.396,29.568 Z M333.396,25.536 L342.936,25.536 L342.936,24.06 L333.396,24.06 L333.396,25.536 Z M341.46,13.26 L343.476,13.8 C343.116,15.06 342.684,16.176 342.18,17.148 L340.308,16.464 C340.74,15.6 341.1,14.556 341.46,13.26 Z M334.584,13.26 C335.088,14.232 335.556,15.348 335.952,16.608 L334.008,17.112 C333.648,15.96 333.18,14.88 332.64,13.872 L334.584,13.26 Z M318.672,6.744 C319.32,9.696 319.86,13.044 320.328,16.86 L317.52,17.58 C317.052,14.124 316.476,10.848 315.792,7.68 L318.672,6.744 Z M388.86,1.596 L388.86,29.64 L391.02,29.64 L391.02,33.204 L370.824,33.204 L370.824,29.64 L373.272,29.64 L373.272,1.596 L388.86,1.596 Z M376.836,29.64 L385.296,29.64 L385.296,23.916 L376.836,23.916 L376.836,29.64 Z M376.836,20.496 L385.296,20.496 L385.296,14.52 L376.836,14.52 L376.836,20.496 Z M376.836,11.064 L385.296,11.064 L385.296,5.052 L376.836,5.052 L376.836,11.064 Z M359.304,24.78 C359.088,27.66 358.62,30.18 357.9,32.412 L361.248,33.492 C361.896,31.044 362.292,28.308 362.472,25.212 L359.304,24.78 Z M366.468,24.312 C367.008,26.508 367.476,28.884 367.872,31.44 L364.56,32.232 C364.236,29.496 363.84,27.084 363.408,24.996 L366.468,24.312 Z M369.996,14.916 C370.86,17.076 371.652,19.524 372.336,22.296 L369.348,23.088 C369.204,22.44 369.024,21.792 368.88,21.18 C365.496,22.26 362.292,23.016 359.268,23.376 L358.368,20.208 C358.98,19.92 359.484,19.596 359.916,19.2 C360.888,18.192 362.112,16.428 363.552,13.98 C362.076,14.196 360.564,14.448 358.98,14.664 L358.08,11.46 C358.656,11.208 359.16,10.776 359.592,10.164 C361.104,7.212 362.4,4.008 363.552,0.516 L367.008,1.884 C365.424,5.628 363.84,8.724 362.256,11.136 L365.388,10.704 C366.108,9.336 366.864,7.86 367.656,6.276 L371.004,7.572 C368.016,13.044 365.532,17.004 363.516,19.524 C365.028,19.164 366.504,18.768 368.016,18.336 C367.728,17.472 367.44,16.68 367.152,15.888 L369.996,14.916 Z M370.608,23.34 C371.22,24.924 371.76,26.724 372.228,28.812 L369.24,29.604 C368.88,27.732 368.412,25.932 367.836,24.24 L370.608,23.34 Z"/>
    </g>
  </g>
</svg>
