<svg xmlns="http://www.w3.org/2000/svg" xmlns:xlink="http://www.w3.org/1999/xlink" width="175" height="140" viewBox="0 0 175 140">
  <defs>
    <polygon id="icon_vendors-a" points="0 134.961 149.362 134.961 149.362 .126 0 .126"/>
  </defs>
  <g fill="none" fill-rule="evenodd" transform="translate(13 1)">
    <polygon fill="#DCA879" points="116.128 82.577 143.513 82.577 143.513 39.296 116.128 39.296"/>
    <polygon fill="#FFF" points="120.234 79.679 138.951 79.679 138.951 45.547 120.234 45.547"/>
    <polygon fill="#CD823C" points="128.59 82.577 130.067 82.577 130.067 39.298 128.59 39.298"/>
    <polygon fill="#CD823C" points="138.137 82.577 139.613 82.577 139.613 39.298 138.137 39.298"/>
    <polygon fill="#CD823C" points="119.043 82.577 120.519 82.577 120.519 39.299 119.043 39.299"/>
    <polygon fill="#CD823C" points="116.128 46.626 143.377 46.626 143.377 45.151 116.128 45.151"/>
    <polygon fill="#CD823C" points="116.128 54.323 143.377 54.323 143.377 52.848 116.128 52.848"/>
    <polygon fill="#CD823C" points="116.128 63.495 143.377 63.495 143.377 62.02 116.128 62.02"/>
    <polygon fill="#CD823C" points="116.128 72.667 143.377 72.667 143.377 71.192 116.128 71.192"/>
    <polygon fill="#CD823C" points="116.128 80.364 143.377 80.364 143.377 78.889 116.128 78.889"/>
    <polygon fill="#CD823C" points="137.085 84.461 143.582 84.461 143.582 39.01 137.085 39.01"/>
    <polygon fill="#CD823C" points="113.753 84.461 120.25 84.461 120.25 39.01 113.753 39.01"/>
    <g transform="translate(0 .536)">
      <path fill="#F15A29" d="M106.098847,65.9031307 L106.098847,78.7733991 C106.098847,79.6711555 105.363341,80.4055031 104.464317,80.4055031 L101.046303,80.4055031 C100.147941,80.4055031 99.4124355,79.6711555 99.4124355,78.7733991 L99.4124355,65.9031307 L106.098847,65.9031307 Z"/>
      <path fill="#FFBF00" d="M101.848739,70.8788318 L101.848739,78.7733991 C101.848739,79.6711555 101.113895,80.4055031 100.214871,80.4055031 L94.3460557,80.4055031 C93.4476934,80.4055031 92.7121882,79.6711555 92.7121882,78.7733991 L92.7121882,70.8788318 L101.848739,70.8788318 Z"/>
      <path fill="#EDECE9" d="M122.864659,65.5745929 L121.619397,70.50663 C121.33208,71.7027565 120.433718,72.2260619 118.936889,72.2260619 L112.694693,72.2260619 C111.197864,72.2260619 110.300164,71.7027565 110.012185,70.50663 L108.766923,65.5745929 L122.864659,65.5745929 Z"/>
      <path fill="#E5E5E1" d="M123.451739,67.4656371 L122.103202,72.8078504 C121.79139,74.1045362 120.81822,74.6715055 119.19693,74.6715055 L112.434387,74.6715055 C110.813098,74.6715055 109.839927,74.1045362 109.529439,72.8078504 L108.18024,67.4656371 L123.451739,67.4656371 Z"/>
      <path fill="#DEDED9" d="M124.003202,70.2534455 L122.371321,78.1526438 C121.995293,79.7205751 120.818882,80.4059662 118.858638,80.4059662 L112.773341,80.4059662 C110.812436,80.4059662 109.636686,79.7205751 109.259997,78.1526438 L107.629439,70.2534455 L124.003202,70.2534455 Z"/>
      <polygon fill="#87D5F8" points="88.941 82.707 20.422 82.707 28.591 63.229 80.772 63.229"/>
      <mask id="icon_vendors-b" fill="#fff">
        <use xlink:href="#icon_vendors-a"/>
      </mask>
      <polygon fill="#CD823C" points="8.896 83.925 15.393 83.925 15.393 38.475 8.896 38.475" mask="url(#icon_vendors-b)"/>
      <polygon fill="#B07031" points="20.977 29.75 128.385 29.75 128.385 20.822 20.977 20.822" mask="url(#icon_vendors-b)"/>
      <polygon fill="#D7D6CE" points="5.647 124.099 143.714 124.099 143.714 79.867 5.647 79.867" mask="url(#icon_vendors-b)"/>
      <path fill="#B0B1A1" d="M145.846648,85.1779685 L3.71870383,85.1779685 C2.21062021,85.1779685 0.977937282,83.9454554 0.977937282,82.4390505 C0.977937282,80.9326456 2.21062021,79.6994709 3.71870383,79.6994709 L145.846648,79.6994709 C147.353408,79.6994709 148.587415,80.9326456 148.587415,82.4390505 C148.587415,83.9454554 147.353408,85.1779685 145.846648,85.1779685" mask="url(#icon_vendors-b)"/>
      <polygon fill="#BE1E2D" points="20.834 55.721 37.192 55.721 37.192 38.271 20.834 38.271" mask="url(#icon_vendors-b)"/>
      <polygon fill="#BE1E2D" points="39.415 55.721 55.772 55.721 55.772 38.271 39.415 38.271" mask="url(#icon_vendors-b)"/>
      <polygon fill="#BE1E2D" points="57.994 55.721 74.351 55.721 74.351 38.271 57.994 38.271" mask="url(#icon_vendors-b)"/>
      <polygon fill="#BE1E2D" points="76.575 55.721 92.931 55.721 92.931 38.271 76.575 38.271" mask="url(#icon_vendors-b)"/>
      <polygon fill="#BE1E2D" points="95.154 55.721 111.511 55.721 111.511 38.271 95.154 38.271" mask="url(#icon_vendors-b)"/>
      <polygon fill="#BE1E2D" points="113.733 55.721 130.09 55.721 130.09 38.271 113.733 38.271" mask="url(#icon_vendors-b)"/>
      <path fill="#A7A79C" d="M81.2795505,65.6634423 L27.0679826,65.6634423 C25.784324,65.6634423 24.7330348,64.6135237 24.7330348,63.3300694 C24.7330348,62.0466151 25.784324,60.9966965 27.0679826,60.9966965 L81.2795505,60.9966965 C82.5638711,60.9966965 83.6144983,62.0466151 83.6144983,63.3300694 C83.6144983,64.6135237 82.5638711,65.6634423 81.2795505,65.6634423" mask="url(#icon_vendors-b)"/>
      <path fill="#B0B1A1" d="M144.137906,125.40414 L5.43128571,125.40414 C4.53292334,125.40414 3.79741812,124.669792 3.79741812,123.771374 L3.79741812,117.444738 C3.79741812,116.546982 4.53292334,115.811973 5.43128571,115.811973 L144.137906,115.811973 C145.036268,115.811973 145.771774,116.546982 145.771774,117.444738 L145.771774,123.771374 C145.771774,124.669792 145.036268,125.40414 144.137906,125.40414" mask="url(#icon_vendors-b)"/>
      <path fill="#4C3E33" d="M89.4571638,121.185346 C89.4571638,128.680984 83.3765017,134.756883 75.8758049,134.756883 C68.37577,134.756883 62.29577,128.680984 62.29577,121.185346 C62.29577,113.689708 68.37577,107.613809 75.8758049,107.613809 C83.3765017,107.613809 89.4571638,113.689708 89.4571638,121.185346" mask="url(#icon_vendors-b)"/>
      <path fill="#FFF" d="M81.8543171,121.185346 C81.8543171,124.484618 79.1777666,127.159363 75.8762683,127.159363 C72.57477,127.159363 69.8982195,124.484618 69.8982195,121.185346 C69.8982195,117.886074 72.57477,115.211991 75.8762683,115.211991 C79.1777666,115.211991 81.8543171,117.886074 81.8543171,121.185346" mask="url(#icon_vendors-b)"/>
      <path fill="#CD823C" d="M20.8371742 110.451235C21.9937247 106.717971 26.1465819 104.579101 26.1882892 104.557269 26.9780801 104.160986 27.2978362 103.199718 26.9019477 102.409137 26.5060592 101.617232 25.5421568 101.29703 24.7503798 101.692652 24.5246307 101.805781 19.1960244 104.519559 17.7104495 109.714241 17.6819826 109.814801 17.663446 109.918006 17.6541777 110.023197L15.5999268 134.961244 18.8173484 134.961244 20.8371742 110.451235zM41.07277 110.022866C41.0641638 109.917675 41.0449652 109.815131 41.0164983 109.714572 39.5315854 104.519228 34.2029791 101.806112 33.9765679 101.692983 33.1887631 101.298023 32.2268467 101.616901 31.8289721 102.40616 31.4317596 103.195418 31.7501916 104.158009 32.5386585 104.556938 32.5810279 104.57877 36.733223 106.718302 37.8897735 110.450904L39.9095993 134.960913 43.1276829 134.960913 41.07277 110.022866z" mask="url(#icon_vendors-b)"/>
      <path fill="#6D0F1D" d="M41.5162578,105.211235 L16.283993,105.211235 C14.8070244,105.211235 13.6114146,104.01577 13.6114146,102.540459 C13.6114146,101.064487 14.8070244,99.8690219 16.283993,99.8690219 L41.5162578,99.8690219 C42.9919024,99.8690219 44.1888362,101.064487 44.1888362,102.540459 C44.1888362,104.01577 42.9919024,105.211235 41.5162578,105.211235" mask="url(#icon_vendors-b)"/>
      <path fill="#CD823C" d="M67.879453 110.451235C69.0360035 106.717971 73.1888606 104.579101 73.2305679 104.557269 74.0196969 104.160986 74.339453 103.199718 73.9442265 102.409137 73.548338 101.617232 72.5844355 101.29703 71.7926585 101.692652 71.5669094 101.805781 66.2383031 104.519559 64.7527282 109.714241 64.7242613 109.814801 64.7057247 109.918006 64.6964564 110.023197L62.6415436 134.961244 65.8596272 134.961244 67.879453 110.451235zM88.1150488 110.022866C88.1064425 109.917675 88.0872439 109.815131 88.058777 109.714572 86.5732021 104.519228 81.2445958 101.806112 81.0188467 101.692983 80.2310418 101.298023 79.2691254 101.616901 78.8712509 102.40616 78.4740383 103.195418 78.7924704 104.158009 79.5809373 104.556938 79.6233066 104.57877 83.7755017 106.718302 84.9320523 110.450904L86.951878 134.960913 90.1699617 134.960913 88.1150488 110.022866z" mask="url(#icon_vendors-b)"/>
      <path fill="#6D0F1D" d="M88.5585366,105.211235 L63.3262718,105.211235 C61.8493031,105.211235 60.6530314,104.01577 60.6530314,102.540459 C60.6530314,101.064487 61.8493031,99.8690219 63.3262718,99.8690219 L88.5585366,99.8690219 C90.0341812,99.8690219 91.231115,101.064487 91.231115,102.540459 C91.231115,104.01577 90.0341812,105.211235 88.5585366,105.211235" mask="url(#icon_vendors-b)"/>
      <path fill="#CD823C" d="M114.921732 110.451235C116.078282 106.717971 120.231139 104.579101 120.272847 104.557269 121.061976 104.160986 121.381732 103.199718 120.986505 102.409137 120.590617 101.617232 119.626714 101.29703 118.834937 101.692652 118.608526 101.805781 113.280582 104.519559 111.795007 109.714241 111.76654 109.814801 111.747341 109.918006 111.738735 110.023197L109.683822 134.961244 112.901906 134.961244 114.921732 110.451235zM135.157328 110.022866C135.148059 109.917675 135.129523 109.815131 135.101056 109.714572 133.615481 104.519228 128.286875 101.806112 128.061125 101.692983 127.272659 101.298023 126.311404 101.616901 125.91353 102.40616 125.516317 103.195418 125.834749 104.158009 126.623216 104.556938 126.665585 104.57877 130.81778 106.718302 131.974331 110.450904L133.994157 134.960913 137.21224 134.960913 135.157328 110.022866z" mask="url(#icon_vendors-b)"/>
      <path fill="#6D0F1D" d="M135.600153,105.211235 L110.367889,105.211235 C108.891582,105.211235 107.69531,104.01577 107.69531,102.540459 C107.69531,101.064487 108.891582,99.8690219 110.367889,99.8690219 L135.600153,99.8690219 C137.07646,99.8690219 138.273394,101.064487 138.273394,102.540459 C138.273394,104.01577 137.07646,105.211235 135.600153,105.211235" mask="url(#icon_vendors-b)"/>
      <polygon fill="#6D0F1D" points="134.29 22.547 15.072 22.547 26.509 10.17 123.67 10.17" mask="url(#icon_vendors-b)"/>
      <polygon fill="#6D0F1D" points="149.362 39.996 0 39.996 19.606 27.619 130.573 27.619" mask="url(#icon_vendors-b)"/>
      <polygon fill="#EF000D" points="46.966 18.184 106.05 18.184 106.05 .126 46.966 .126" mask="url(#icon_vendors-b)"/>
    </g>
  </g>
</svg>
