<svg xmlns="http://www.w3.org/2000/svg" width="40" height="34" viewBox="0 0 40 34">
  <path fill="#F9C300" fill-rule="evenodd" d="M20.0001667,15 C17.2393333,15 15.0001667,17.2383333 15.0001667,20 C15.0001667,22.7616667 17.2393333,25 20.0001667,25 C22.761,25 25.0001667,22.7616667 25.0001667,20 C25.0001667,17.2383333 22.761,15 20.0001667,15 M20.0001667,26.875 C16.2035,26.875 13.1251667,23.7975 13.1251667,20 C13.1251667,16.2025 16.2035,13.125 20.0001667,13.125 C23.7968333,13.125 26.8751667,16.2025 26.8751667,20 C26.8751667,23.7975 23.7968333,26.875 20.0001667,26.875 M26.6668333,13.3333333 L26.6668333,8.33333333 C26.6668333,7.4125 25.9201667,6.66666667 25.0001667,6.66666667 L15.0001667,6.66666667 C14.0801667,6.66666667 13.3335,7.4125 13.3335,8.33333333 L13.3335,13.3333333 C13.3335,13.3333333 3.3335,20 3.3335,25 L3.3335,30 C3.3335,31.8408333 4.826,33.3333333 6.66683333,33.3333333 L33.3335,33.3333333 C35.1743333,33.3333333 36.6668333,31.8408333 36.6668333,30 L36.6668333,25 C36.6668333,20 26.6668333,13.3333333 26.6668333,13.3333333 M37.7785,5.3775 C35.5568333,3.2275 29.9985,0.00166666667 20.0001667,0 C10.0001667,0.00166666667 4.44516667,3.2275 2.22183333,5.3775 C0.000166666667,7.5275 -0.5565,13.4408333 0.556833333,14.5166667 C2.22183333,16.1283333 2.7785,16.6666667 2.7785,16.6666667 L11.6668333,11.6666667 L11.6668333,6.66666667 C11.6668333,5 13.3335,5 15.0001667,5 L25.0001667,5 C26.6668333,5 28.3335,5 28.3335,6.66666667 L28.3335,11.6666667 L37.2235,16.6666667 C37.2235,16.6666667 37.7785,16.1283333 39.4451667,14.515 C40.5551667,13.4408333 40.0001667,7.5275 37.7785,5.3775"/>
</svg>
