<svg xmlns="http://www.w3.org/2000/svg" width="50" height="50" viewBox="0 0 50 50">
  <path fill="#F5F5F5" fill-rule="evenodd" d="M49.3820674,22.8058022 C49.432112,22.7305817 49.4810821,22.6561288 49.5283635,22.5755355 C49.5748773,22.4889552 49.6154043,22.4017609 49.6585409,22.3153342 C49.6815676,22.2680527 49.7101206,22.2224599 49.7286955,22.1734899 C49.7422045,22.1477 49.7457352,22.120068 49.7535643,22.0942782 C49.7937842,22.0006364 49.8195741,21.9054595 49.8488947,21.8075194 C49.8702327,21.7280007 49.8980182,21.6530872 49.9149045,21.5720334 C49.9370101,21.4793127 49.9489839,21.3830612 49.9627999,21.2918756 C49.9753878,21.207598 49.984445,21.1285398 49.9922741,21.0471789 C50.0014847,20.9483177 50.0014847,20.8520663 49.9973399,20.7539727 C49.9973399,20.6784452 50.0014847,20.5989265 49.9922741,20.5204823 C49.9888968,20.4190114 49.970936,20.3172336 49.9583481,20.2176049 C49.9445321,20.1445336 49.9370101,20.0691596 49.9184352,19.99179 C49.8980182,19.895078 49.8650133,19.797445 49.8366138,19.7004259 C49.8158898,19.6224423 49.7937842,19.5505991 49.7643101,19.4778348 C49.7504941,19.4440624 49.7457352,19.4104435 49.7313052,19.3749824 C49.7061293,19.3166482 49.6711288,19.2624587 49.6450319,19.2024359 C49.6078822,19.12829 49.5721141,19.0573679 49.5334293,18.9846036 C49.4836917,18.8978699 49.4285813,18.8131317 49.3713216,18.7320779 C49.3280315,18.6679102 49.2848949,18.6002118 49.238381,18.5386539 C49.1716037,18.4566789 49.1032912,18.3780813 49.0291454,18.3022468 C48.9989037,18.2627944 48.9724998,18.2247237 48.9335079,18.1895696 L31.8194755,1.07200645 C30.3856818,-0.357335483 28.074265,-0.357335483 26.6453836,1.07200645 C25.2178838,2.49766411 25.2178838,4.81383972 26.6453836,6.24087898 L37.5248694,17.1183691 L3.65709514,17.1183691 C2.39538734,17.1183691 1.2796686,17.7559007 0.624022656,18.7293147 C0.229192085,19.314192 0,20.0175799 0,20.7762318 C0,21.7846463 0.408186037,22.6986514 1.07227509,23.3622799 C1.73037721,24.0242198 2.64699204,24.4316383 3.65709514,24.4316383 L37.5248694,24.4316383 L26.6453836,35.3080538 C25.2178838,36.7363212 25.2178838,39.0506547 26.6453836,40.4778474 C27.3619735,41.1948978 28.2931719,41.5533463 29.2321993,41.5533463 C30.1686171,41.5533463 31.1016576,41.1962794 31.8194755,40.4822993 L48.9374992,23.3622799 C48.9724998,23.3249767 49.0024344,23.2812261 49.0372814,23.2446904 C49.1032912,23.1716191 49.1716037,23.0959381 49.2348502,23.0156518 C49.2848949,22.9491815 49.3332509,22.8771848 49.3820674,22.8058022" transform="translate(0 4)"/>
</svg>
