<svg xmlns="http://www.w3.org/2000/svg" width="50" height="50" viewBox="0 0 50 50">
  <g fill="#900" fill-rule="evenodd" transform="translate(1 6)">
    <path d="M4.37430744 8.83114063C2.22124959 10.0892969 1.35665455 12.7469219 2.32062149 15.014849L8.2752 15.014849 5.06891901 9.04152604C4.93384463 8.79017188 4.62105124 8.68705729 4.37430744 8.83114063M33.0422479 5.91970729C32.8720661 5.48250937 32.3783802 5.26598854 31.9406281 5.43560312L27.8419835 7.02408229 30.3869752 3.67731146C30.6712066 3.30364479 30.5980165 2.77085312 30.2235372 2.48723854 29.8486612 2.20362396 29.3153058 2.27685312 29.0310744 2.65051979L26.5793058 5.87458229 26.7945124 3.74519687C26.841719 3.27850937 26.5007603 2.86209271 26.0330579 2.81498854 25.5641653 2.76808229 25.1480331 3.10830104 25.1008264 3.57479062L24.7729587 6.81943646C24.5946446 6.86594687 24.4264463 6.95916562 24.2909752 7.10324896L24.0579174 7.35143646C23.6338512 7.05258229 23.0560661 7.05258229 22.6389421 7.38053021 22.2273719 7.70412396 21.8318678 8.03108229 21.4512397 8.36081146 21.3584132 8.44116562 21.269157 8.52132187 21.178314 8.60147812L22.723438 10.045676C22.9178182 10.2275615 22.9277355 10.5319573 22.7456529 10.7259156 22.5635702 10.9200719 22.2587107 10.9299677 22.0639339 10.7482802L20.4618843 9.25123854C19.5945124 10.0617073 18.8219504 10.8684156 18.1319008 11.6612698L19.7702479 13.1923531C19.9648264 13.3740406 19.9747438 13.6784365 19.7926612 13.8725927 19.6105785 14.066551 19.3055207 14.0764469 19.1111405 13.8947594L17.5104793 12.3991031C16.7763967 13.2992281 16.146843 14.1765927 15.610314 15.0147698L24.3923306 15.0147698C25.0879339 14.242301 25.7853223 13.394624 26.4749752 12.4622385 26.6921653 12.1679365 26.9077686 11.8659156 27.1211901 11.5557802 27.4442975 11.0857281 27.3705124 10.454176 26.9684628 10.0535927L27.1923967 9.81530104C27.4070083 9.58670729 27.489719 9.28547812 27.4528264 8.99731146L32.5570909 7.01893646C32.9952397 6.84912396 33.2124298 6.35690521 33.0422479 5.91970729M47.8406083 19.3434448L47.2935669 17.055924C47.2176 16.7384656 46.9022281 16.5391635 46.5820959 16.6064552L31.1965091 19.8396219 29.1709884 20.2653406 29.1709884 18.0457052C29.1709884 17.8598615 29.0200463 17.7092469 28.8337983 17.7092469L21.6460959 17.7092469 14.106724 17.7092469 8.6323438 17.7092469 5.12457521 17.7092469.337269421 17.7092469C.15082314 17.7092469.000079338843 17.8598615.000079338843 18.0457052L.000079338843 22.774924.000079338843 33.3347677C.000079338843 35.8700802 2.0597157 37.9254448 4.60054215 37.9254448L24.570724 37.9254448C27.1113521 37.9254448 29.1709884 35.8700802 29.1709884 33.3347677L29.1709884 28.569726 29.9249058 28.569726C30.1734347 28.569726 30.6649388 28.672049 30.8573355 28.0199135 31.3708562 26.2762677 31.9262281 23.7261115 32.1497653 22.6700281 36.5185587 20.8660177 44.1928066 25.8281844 47.7781289 19.758476 47.8521124 19.6333927 47.8743273 19.4847573 47.8406083 19.3434448M11.9881983 4.8827625C12.0796364 4.7212625 12.1798017 4.56095 12.2789752 4.39687708L12.4326942 4.15423125 12.5146116 4.0277625C12.5441653 3.97867917 12.5794711 3.922075 12.6092231 3.86725208 12.8633058 3.43025208 12.9878678 2.88796042 12.9414545 2.38129375 12.8962314 1.87205417 12.6925289 1.41743958 12.4223802 1.05347083 12.150843.68791875 11.8080992.400345833 11.4246942.197877083 11.5700826.61073125 11.7099174.986377083 11.786876 1.35628333 11.8678017 1.72322083 11.8864463 2.07115833 11.8366612 2.37595 11.7898512 2.68272083 11.6706446 2.94654375 11.5012562 3.20185625L11.4320331 3.29824167 11.3431736 3.42411667 11.1640661 3.69209583C11.0450579 3.87081458 10.937157 4.05942917 10.8330248 4.25417917 10.6265455 4.64348125 10.4464463 5.071575 10.3595702 5.55904375 10.3137521 5.80168958 10.3052231 6.06195 10.3318017 6.32280417 10.3631405 6.58365833 10.4391074 6.84312708 10.5561322 7.07211667 10.7911736 7.53524167 11.1557355 7.85606458 11.5252562 8.09198125 11.9009256 8.32572083 12.2964298 8.48840833 12.7107769 8.59350208 12.4374545 8.26555417 12.1637355 7.95977292 11.9398017 7.64350208 11.714281 7.33039792 11.5446942 7.00917917 11.483405 6.71171042 11.4201322 6.41443958 11.4540496 6.13616875 11.5502479 5.82959583 11.6470413 5.52460625 11.8065124 5.20556458 11.9881983 4.8827625M14.5250579 6.75341146C14.5833719 6.64811979 14.6508099 6.54243229 14.714281 6.43595312L14.8162314 6.27603646 14.8676033 6.19528646 14.9306777 6.08880729C15.0972893 5.80281771 15.1784132 5.44795312 15.1484628 5.11644271 15.118314 4.78315104 14.9852231 4.48568229 14.8084959 4.24758854 14.627405 4.01028646 14.4080331 3.81909896 14.1553388 3.68768229 14.248562 3.95902604 14.345157 4.20167187 14.3923636 4.44570312 14.4453223 4.68577604 14.4574215 4.91357812 14.4252893 5.11288021 14.3943471 5.31376562 14.3161983 5.48615104 14.205719 5.65339062L14.1017851 5.79984896 13.985157 5.97381771C13.9076033 6.09236979 13.836 6.21389062 13.7687603 6.34253646 13.6328926 6.59626562 13.5164628 6.87790104 13.4587438 7.19595312 13.3984463 7.51083854 13.4295868 7.88450521 13.5874711 8.18593229 13.7413884 8.48834896 13.9790083 8.70031771 14.2223802 8.85211979 14.4681322 9.00570312 14.7255868 9.11277604 14.9969256 9.18165104 14.8196033 8.96532812 14.6375207 8.76879687 14.4927273 8.56039062 14.345157 8.35455729 14.234281 8.14496354 14.1944132 7.95001562 14.1529587 7.75566146 14.1745785 7.57357812 14.2376529 7.37289062 14.3025124 7.17339062 14.4048595 6.96439062 14.5250579 6.75341146"/>
  </g>
</svg>
