<svg xmlns="http://www.w3.org/2000/svg" width="50" height="50" viewBox="0 0 50 50">
  <path fill="#900" fill-rule="evenodd" d="M27.837115,31.7857899 C27.5560642,31.761095 27.3020601,31.8657541 27.1221405,32.0844799 C25.3311765,34.2482184 22.9451843,35.8322162 20.0006184,35.8322162 C17.0572284,35.8322162 14.6712362,34.2482184 12.8802722,32.0844799 C12.6991767,31.8657541 12.4451726,31.761095 12.1641218,31.7857899 C5.4012628,32.379642 0.0554174159,38.0594558 0.000148006921,44.9599003 C-0.0210190008,47.7327783 2.23091543,50 5.00379344,50 L34.9986193,50 C37.7714973,50 40.0222558,47.7327783 40.0010888,44.9599003 C39.9458194,38.0594558 34.6011499,32.379642 27.837115,31.7857899 L27.837115,31.7857899 Z M24.5221264,24.4843482 C24.468033,24.4396623 24.3963003,24.4314307 24.3339752,24.4643571 C24.274002,24.4996355 24.2398996,24.5631365 24.2493072,24.6325172 C24.3445587,25.3921776 23.2274111,25.8213975 22.6829486,25.148757 C22.2760717,24.6454526 21.8280367,24.1668431 21.0495612,24.1668431 C20.6544437,24.1668431 20.2910768,24.3044286 20.0064981,24.5325619 C19.7219195,24.3044286 19.3585525,24.1668431 18.964611,24.1668431 C18.1861354,24.1668431 17.7369245,24.6454526 17.3300476,25.148757 C16.7867611,25.8213975 15.6672615,25.3921776 15.7625131,24.6325172 C15.7719206,24.5631365 15.7389942,24.4996355 15.677845,24.4643571 C15.61552,24.4314307 15.5449633,24.4396623 15.4908698,24.4843482 C15.0581221,24.8477151 14.7970623,25.3180931 14.7970623,25.8331569 C14.7970623,26.983231 16.1023611,27.9169313 17.7145816,27.9169313 C18.4789457,27.9169313 19.4055903,27.666455 20.0064981,27.1443355 C20.6074059,27.666455 21.5352264,27.9169313 22.2995906,27.9169313 C23.9094591,27.9169313 25.2159339,26.983231 25.2159339,25.8331569 C25.2159339,25.3180931 24.9560501,24.8477151 24.5221264,24.4843482 L24.5221264,24.4843482 Z M30.0020295,17.5004116 L29.9985017,12.286272 C31.5084149,11.2314495 32.4985605,9.48046756 32.4985605,7.50017639 C32.4985605,4.27808744 29.885611,1.66631388 26.663522,1.66631388 C25.9920575,1.66631388 25.3476397,1.77920459 24.7455559,1.98852278 C23.5378606,0.762012277 21.8586113,0.00117594487 20.0006184,0 C18.1438014,0.00117594487 16.4633762,0.762012277 15.2556808,1.98852278 C14.654773,1.77920459 14.0103552,1.66631388 13.3388907,1.66631388 C10.1168017,1.66631388 7.50267629,4.27808744 7.50267629,7.50017639 C7.50267629,9.48046756 8.49282187,11.2314495 10.003911,12.286272 L10.0003832,17.5004116 C10.0003832,17.9931325 10.0133186,18.4823255 10.0380134,18.9668148 C9.07373864,19.8511254 8.56455451,21.1928785 8.81032699,22.5769656 C9.10901698,24.2656224 10.1215055,26.1330229 11.7055033,26.8115431 C13.503523,31.2483831 16.5480442,34.1659023 20.0006184,34.1659023 C23.4520166,34.1659023 26.4988897,31.2483831 28.2957335,26.8115431 C29.8809072,26.1330229 30.8933957,24.2656224 31.1920857,22.5769656 C31.4366823,21.1928785 30.9286741,19.8511254 29.9643993,18.9668148 C29.9890941,18.4823255 30.0020295,17.9931325 30.0020295,17.5004116 L30.0020295,17.5004116 Z M26.6752815,4.16637268 C25.5851806,4.16637268 24.616202,4.6884922 24.0082385,5.49871822 C23.5025822,3.76537548 21.9032972,2.5000588 20.0064981,2.5000588 C18.110875,2.5000588 16.5092381,3.76537548 16.0035818,5.49871822 C15.3967942,4.6884922 14.4289916,4.16637268 13.3388907,4.16637268 C11.4961851,4.16637268 10.003911,5.65864672 10.003911,7.50017639 C10.003911,9.05242362 11.0669652,10.3577224 12.5039698,10.7281451 L12.5039698,14.1677838 L27.5090264,14.1677838 L27.5090264,10.7281451 C28.9448551,10.3577224 30.0102611,9.05242362 30.0102611,7.50017639 C30.0102611,5.65864672 28.5156352,4.16637268 26.6752815,4.16637268 L26.6752815,4.16637268 Z M11.2715796,22.141866 C11.1316422,21.3492791 11.6619933,20.5919706 12.4534042,20.4520332 C12.9190784,20.372069 13.3812247,20.776594 13.6152377,21.1364331 C13.6563958,21.1987582 13.7304803,21.2269809 13.8033889,21.2058139 C13.8739456,21.1834709 13.9221593,21.1211458 13.9221593,21.0458854 L13.9209834,19.6124086 C14.7935345,19.8617089 15.7142993,19.9957666 16.6668147,19.9957666 C19.5972693,19.9957666 22.2313858,18.7339778 24.062332,16.7278158 C24.4468659,17.7638232 25.1641923,18.6387262 26.0814293,19.2208189 L26.0814293,21.0458854 C26.0814293,21.1211458 26.130819,21.1834709 26.2013757,21.2058139 C26.2719324,21.2269809 26.3483688,21.1987582 26.3883509,21.1364331 C26.6235399,20.776594 27.0833343,20.372069 27.5466566,20.4520332 C28.3415954,20.5919706 28.8731224,21.3492791 28.733185,22.141866 C28.4709493,23.6153249 27.6183893,24.6960183 26.8269784,24.5572568 C26.7093839,24.5360897 26.5988451,24.4902279 26.5000657,24.4220231 C26.1672733,25.489781 25.747461,26.5199087 25.2253414,27.4783038 C24.2939931,29.1975352 22.6935321,31.2413274 20.6415083,31.6093982 C20.4310142,31.6470284 20.2169922,31.6658435 20.0006184,31.6658435 C19.7877724,31.6658435 19.5737504,31.6470284 19.3620803,31.6093982 C17.3088806,31.2413274 15.7095955,29.1975352 14.7782472,27.4783038 C14.2584796,26.5199087 13.8386673,25.489781 13.5046989,24.4220231 C13.4047436,24.4902279 13.2965567,24.5360897 13.1789622,24.5572568 C12.3851994,24.6960183 11.5314634,23.6153249 11.2715796,22.141866 L11.2715796,22.141866 Z M13.5423291,47.4999412 L5.00379344,47.4999412 C3.61853038,47.4999412 2.49079925,46.3628025 2.50138275,44.9798913 C2.54371676,39.6987229 6.43139051,35.2277805 11.5679177,34.3787483 C12.7803169,35.6816952 14.1832191,36.7423975 15.7542815,37.435029 C14.398417,38.6203815 13.5423291,40.3596039 13.5423291,42.2940333 L13.5423291,47.4999412 Z M20.0006184,38.332275 C23.3649967,38.332275 26.2201908,36.7623886 28.4380228,34.3775724 C33.5792538,35.2230767 37.4692795,39.6951951 37.5127894,44.9798913 C37.522197,46.3639785 36.3944658,47.4999412 35.0115547,47.4999412 L16.0423879,47.4999412 L16.0423879,42.2940333 C16.0423879,40.1161834 17.8227685,38.3358028 20.0006184,38.332275 L20.0006184,38.332275 Z M21.4658457,43.5417108 C21.4658457,44.347233 20.8120203,44.9987065 20.0064981,44.9987065 C19.2009759,44.9987065 18.5483265,44.347233 18.5483265,43.5417108 C18.5483265,42.7361885 19.2009759,42.0835391 20.0064981,42.0835391 C20.8120203,42.0835391 21.4658457,42.7361885 21.4658457,43.5417108 L21.4658457,43.5417108 Z" transform="translate(5)"/>
</svg>
