<svg xmlns="http://www.w3.org/2000/svg" width="50" height="50" viewBox="0 0 50 50">
  <g fill="#900" fill-rule="evenodd" transform="translate(8)">
    <path d="M21.08725,22.6953333 C21.3980833,22.7395 21.6989167,22.8153333 21.98725,22.9178333 C23.4280833,21.502 24.32475,19.5345 24.32475,17.3603333 C24.32475,13.0603333 20.82725,9.56283333 16.5264167,9.56283333 C12.2264167,9.56283333 8.72891667,13.0603333 8.72891667,17.3603333 C8.72891667,19.8745 9.92975,22.1095 11.7839167,23.5361667 L11.7839167,19.7061667 C11.43225,18.9978333 11.2289167,18.2028333 11.2289167,17.3603333 C11.2289167,14.4395 13.60475,12.0628333 16.5264167,12.0628333 C19.4480833,12.0628333 21.82475,14.4395 21.82475,17.3603333 C21.82475,18.3395 21.5530833,19.2545 21.08725,20.0428333 L21.08725,22.6953333 Z"/>
    <path d="M28.221,27.6372995 C27.6185,27.6372995 27.0751667,27.7975723 26.6843333,28.0557898 L26.6843333,26.8790855 C26.6843333,25.9023798 25.721,25.1106044 24.5326667,25.1106044 C23.6668333,25.1106044 22.926,25.5318344 22.5843333,26.1366248 L22.5843333,25.3832053 C22.5843333,24.4058148 21.621,23.6140394 20.4326667,23.6140394 C19.6451667,23.6140394 18.9635,23.9660917 18.5868333,24.4845813 L18.5868333,18.2955826 C18.5868333,17.318877 17.6235,16.5264167 16.4351667,16.5264167 C15.2476667,16.5264167 14.2835,17.318877 14.2835,18.2955826 L14.2835,31.2502884 L14.2776667,31.2475487 L13.3218333,31.8365858 L13.3218333,27.7222304 C13.3218333,26.9551124 12.3601667,26.3331988 11.1701667,26.3331988 C9.98183333,26.3331988 9.0185,26.9551124 9.0185,27.7222304 L9.0185,35.2071106 L8.991,35.2071106 L8.991,38.0892827 C8.991,41.1981655 10.9585,43.9282838 13.9226667,45.4899169 L13.9226667,49.85975 L26.1135,49.85975 L26.1135,45.1090976 C28.6993333,43.504999 30.3743333,40.9577562 30.3743333,38.0892827 L30.3743333,29.0256461 C30.3743333,28.259213 29.411,27.6372995 28.221,27.6372995"/>
    <path d="M6.51858333,30.06675 L6.51858333,29.7325833 C6.51858333,28.8934167 6.79691667,28.1125833 7.26941667,27.4559167 C4.35275,24.8834167 2.50025,21.1300833 2.50025,16.94425 C2.50025,9.21008333 8.79275,2.91758333 16.5269167,2.91758333 C24.2619167,2.91758333 30.55525,9.21008333 30.55525,16.94425 C30.55525,20.0959167 29.49775,22.9984167 27.7360833,25.3425833 C28.2660833,25.8475833 28.68025,26.4725833 28.9260833,27.17675 C29.09025,27.2000833 29.2444167,27.2450833 29.40275,27.2825833 C31.6819167,24.44925 33.05525,20.8559167 33.05525,16.94425 C33.05525,7.83091667 25.64025,0.417583333 16.5269167,0.417583333 C7.41358333,0.417583333 0.00025,7.83091667 0.00025,16.94425 C0.00025,22.29425 2.56608333,27.0434167 6.51858333,30.06675" transform="translate(0 .416)"/>
  </g>
</svg>
