<svg xmlns="http://www.w3.org/2000/svg" width="40" height="40" viewBox="0 0 40 40">
  <path fill="#F9C300" fill-rule="evenodd" d="M17.0001417,12.75 C14.6534333,12.75 12.7501417,14.6525833 12.7501417,17 C12.7501417,19.3474167 14.6534333,21.25 17.0001417,21.25 C19.34685,21.25 21.2501417,19.3474167 21.2501417,17 C21.2501417,14.6525833 19.34685,12.75 17.0001417,12.75 M17.0001417,22.84375 C13.772975,22.84375 11.1563917,20.227875 11.1563917,17 C11.1563917,13.772125 13.772975,11.15625 17.0001417,11.15625 C20.2273083,11.15625 22.8438917,13.772125 22.8438917,17 C22.8438917,20.227875 20.2273083,22.84375 17.0001417,22.84375 M22.6668083,11.3333333 L22.6668083,7.08333333 C22.6668083,6.300625 22.0321417,5.66666667 21.2501417,5.66666667 L12.7501417,5.66666667 C11.9681417,5.66666667 11.333475,6.300625 11.333475,7.08333333 L11.333475,11.3333333 C11.333475,11.3333333 2.833475,17 2.833475,21.25 L2.833475,25.5 C2.833475,27.0647083 4.1021,28.3333333 5.66680833,28.3333333 L28.333475,28.3333333 C29.8981833,28.3333333 31.1668083,27.0647083 31.1668083,25.5 L31.1668083,21.25 C31.1668083,17 22.6668083,11.3333333 22.6668083,11.3333333 M32.111725,4.570875 C30.2233083,2.743375 25.498725,0.00141666667 17.0001417,0 C8.50014167,0.00141666667 3.77839167,2.743375 1.88855833,4.570875 C0.000141666667,6.398375 -0.473025,11.4247083 0.473308333,12.3391667 C1.88855833,13.7090833 2.361725,14.1666667 2.361725,14.1666667 L9.91680833,9.91666667 L9.91680833,5.66666667 C9.91680833,4.25 11.333475,4.25 12.7501417,4.25 L21.2501417,4.25 C22.6668083,4.25 24.083475,4.25 24.083475,5.66666667 L24.083475,9.91666667 L31.639975,14.1666667 C31.639975,14.1666667 32.111725,13.7090833 33.5283917,12.33775 C34.4718917,11.4247083 34.0001417,6.398375 32.111725,4.570875" transform="translate(3 6)"/>
</svg>
