<svg xmlns="http://www.w3.org/2000/svg" xmlns:xlink="http://www.w3.org/1999/xlink" width="227" height="150" viewBox="0 0 227 150">
  <defs>
    <circle id="icon_info_date-a" cx="113.239" cy="64.832" r="64.832"/>
  </defs>
  <g fill="none" fill-rule="evenodd" transform="translate(0 10)">
    <use fill="#FFC331" xlink:href="#icon_info_date-a"/>
    <circle cx="113.239" cy="64.832" r="69.832" stroke="#F5F5F5" stroke-width="10"/>
    <path fill="#F5F5F5" d="M25.7096451,3.80864422 L25.7096451,26.0675159 C25.7096451,31.044859 21.8197452,35.0938126 17.0429481,35.0938126 L8.66323931,35.0938126 C3.88471338,35.0938126 0,31.044859 0,26.0675159 L0,3.80864422 C0,1.70809827 1.65623294,0 3.69281165,0 C5.7311192,0 7.39080983,1.70809827 7.39080983,3.80864422 L7.39080983,19.3803458 C7.39080983,19.878253 7.74349409,20.2828025 8.18089172,20.2828025 L8.30191083,20.2828025 C8.74103731,20.2828025 9.09372157,19.878253 9.09372157,19.3803458 L9.09372157,3.80864422 C9.09372157,1.70809827 10.7534122,0 12.7882621,0 L12.9161965,0 C14.9545041,0 16.610737,1.70809827 16.610737,3.80864422 L16.610737,19.3803458 C16.610737,19.878253 16.966879,20.2828025 17.4025478,20.2828025 L17.5270246,20.2828025 C17.9609645,20.2828025 18.3188353,19.878253 18.3188353,19.3803458 L18.3188353,3.80864422 C18.3188353,1.70809827 19.9750682,0 22.0133758,0 C24.0499545,0 25.7096451,1.70809827 25.7096451,3.80864422 Z M17.2728597,93.0135825 C16.1041609,94.2237736 14.5360991,94.8911075 12.8522046,94.8911075 C11.170039,94.8911075 9.60024828,94.2237736 8.43154946,93.0135825 C7.26457949,91.8048733 6.65256857,90.2128545 6.71307812,88.5306889 L8.40907448,39.9795515 C8.42463408,37.9377863 10.0895112,36.2832822 12.136463,36.2832822 L13.5714039,36.2832822 C15.6166268,36.2832822 17.281504,37.9377863 17.2953347,39.9795515 L18.9965176,88.5306889 C19.0535695,90.2128545 18.4415586,91.8048733 17.2728597,93.0135825 Z" transform="translate(0 24.204)"/>
    <path fill="#F5F5F5" d="M18.1413243,93.5971024 C16.9829679,94.7963391 15.4253556,95.4580122 13.75979,95.4580122 C12.0907973,95.4580122 10.536612,94.7963391 9.3782557,93.5971024 C8.2181858,92.397621 7.615018,90.8192014 7.67132019,89.1538805 L9.35426607,41.0323992 C9.37140152,39.0084579 11.0198317,37.3668819 13.0467105,37.3668819 L14.4691976,37.3668819 C16.4963212,37.3668819 18.1464649,39.0084579 18.1636004,41.0323992 L19.8463015,89.1538805 C19.9062755,90.8192014 19.2994359,92.397621 18.1413243,93.5971024 Z M27.5177685,20.4886605 C27.5177685,29.2003227 21.3455798,36.2875444 13.7597166,36.2875444 C6.17042621,36.2875444 -4.89584256e-05,29.2003227 -4.89584256e-05,20.4886605 C-4.89584256e-05,12.3373274 5.77655568,0.244841086 13.7597166,0.244841086 C21.7414087,0.244841086 27.5177685,12.3373274 27.5177685,20.4886605 Z" transform="translate(198.817 24.204)"/>
    <g fill="#FFF" transform="translate(81.256 25.933)">
      <path d="M12.9455658 6.34588474C12.4938525 6.34588474 12.1280543 5.98044546 12.1280543 5.53152219 12.1280543 5.08154882 12.4938525 4.71715964 12.9455658 4.71715964L19.5262434 4.71715964C19.9774296 4.71715964 20.3427007 5.08154882 20.3427007 5.53152219 20.3427007 5.98044546 19.9774296 6.34588474 19.5262434 6.34588474L12.9455658 6.34588474zM23.6514875 6.34541219C23.2013554 6.34541219 22.8350302 5.98154807 22.8350302 5.5315747 22.8350302 5.08212638 23.2013554 4.71826226 23.6514875 4.71826226L30.2342734 4.71826226C30.6844054 4.71826226 31.0507307 5.08212638 31.0507307 5.5315747 31.0507307 5.98154807 30.6844054 6.34541219 30.2342734 6.34541219L23.6514875 6.34541219zM34.3599919 6.34541219C33.9088057 6.34541219 33.5424804 5.98154807 33.5424804 5.5315747 33.5424804 5.08212638 33.9088057 4.71721215 34.3599919 4.71721215L40.9411965 4.71721215C41.3929099 4.71721215 41.758708 5.08212638 41.758708 5.5315747 41.758708 5.98154807 41.3929099 6.34541219 40.9411965 6.34541219L34.3599919 6.34541219zM45.0674948 6.34541219C44.6163086 6.34541219 44.2505104 5.98154807 44.2505104 5.5315747 44.2505104 5.08265143 44.6163086 4.7177372 45.0674948 4.7177372L51.6476453 4.7177372C52.0993586 4.7177372 52.4656839 5.08265143 52.4656839 5.5315747 52.4656839 5.98154807 52.0993586 6.34541219 51.6476453 6.34541219L45.0674948 6.34541219z"/>
      <path d="M0.817933154,23.0313386 C0.602354691,23.0313386 0.392047094,22.9441792 0.239719035,22.7924379 C0.0873909763,22.6422718 -0.000105417342,22.4322492 -0.000105417342,22.2180262 L-0.000105417342,9.04646008 C-0.000105417342,6.65535301 1.94484454,4.71946989 4.34414323,4.71789472 L8.81910939,4.71789472 C9.27029561,4.71789472 9.63609379,5.08175884 9.63609379,5.53278233 C9.63609379,5.98065548 9.27029561,6.34556971 8.81910939,6.34556971 L4.34414323,6.34556971 C2.84879824,6.34819499 1.63649881,7.55477471 1.63439047,9.04646008 L1.63439047,21.4031385 L62.9572394,21.4031385 L62.9572394,9.04646008 C62.954604,7.55477471 61.7428316,6.34819499 60.2469595,6.34556971 L55.7746288,6.34556971 C55.3223884,6.34556971 54.9571173,5.98170559 54.9571173,5.53278233 C54.9571173,5.08175884 55.3223884,4.71789472 55.7746288,4.71789472 L60.2469595,4.71789472 C62.6462582,4.71789472 64.5906811,6.65535301 64.5906811,9.04646008 L64.5906811,22.2180262 C64.5906811,22.4348745 64.5063472,22.6396465 64.352965,22.7924379 C64.1980015,22.9468045 63.9919106,23.0313386 63.7742238,23.0313386 L0.817933154,23.0313386 Z"/>
      <path d="M52.4652095,3.09762302 L52.4667908,10.0540959 C52.4694262,10.9188639 53.1019302,11.5190034 53.7128237,11.5216287 C54.322136,11.5190034 54.9551671,10.9188639 54.9578025,10.0540959 L54.9578025,3.09919819 C54.9551671,2.23180494 54.3210818,1.63061531 53.7128237,1.62799002 C53.1019302,1.63061531 52.4678449,2.23180494 52.4652095,3.09762302 M50.8317678,10.0540959 L50.8301865,3.09919819 C50.8344032,1.45209611 52.055136,0.0165917838 53.7128237,0.000840090318 C55.3694573,0.0165917838 56.5886088,1.45209611 56.5912443,3.09919819 L56.5912443,10.0540959 C56.5886088,11.6985727 55.367876,13.1330269 53.7128237,13.1493037 C52.055136,13.1330269 50.8354574,11.6985727 50.8317678,10.0540959"/>
      <path d="M49.3783789 12.3466499C49.3783789 10.9100954 50.0873105 9.6326331 51.1704737 8.85187416 51.5357448 8.58829582 52.0464918 8.67020463 52.3105623 9.03301864 52.5751598 9.39688276 52.4945155 9.90566245 52.1287173 10.1697658 51.4524651 10.6596435 51.0128748 11.4493284 51.0128748 12.3466499 51.014456 13.8288842 52.2225388 15.0317886 53.7120858 15.0344138 55.2011058 15.0317886 56.406026 13.8299344 56.4086614 12.3466499 56.4086614 11.4477532 55.9701253 10.6596435 55.2928189 10.1692408 54.9264936 9.90566245 54.8447952 9.39688276 55.1104469 9.03249358 55.3750444 8.66757935 55.8857914 8.58724571 56.2515896 8.85029899 57.336334 9.63105793 58.0426302 10.9100954 58.0426302 12.3466499 58.0426302 14.728831 56.1045324 16.6610387 53.7120858 16.6620888 51.318058 16.6610387 49.3794331 14.7298811 49.3783789 12.3466499M41.7577593 3.09814808L41.7593405 10.054621C41.761976 10.9188639 42.3955342 11.5200535 43.0048464 11.5211036 43.6141587 11.5200535 44.248244 10.9188639 44.2503523 10.054621L44.2503523 3.09814808C44.248244 2.23180494 43.6136316 1.63009025 43.0048464 1.62799002 42.3955342 1.63009025 41.7603947 2.23180494 41.7577593 3.09814808M40.1253717 10.054621L40.1243176 3.09814808C40.126953 1.45157106 41.3471587.0165917838 43.0048464.000840090318 44.6625341.0165917838 45.8816857 1.45262117 45.883794 3.09814808L45.883794 10.054621C45.8816857 11.6985727 44.6614799 13.1325019 43.0048464 13.1498287 41.34874 13.1325019 40.1280072 11.6985727 40.1253717 10.054621"/>
      <path d="M38.6703489 12.3476475C38.6703489 10.9095179 39.3803347 9.63205554 40.4634979 8.85182166 40.8287689 8.58771826 41.3384618 8.66910201 41.6035864 9.03349119 41.868711 9.39683025 41.7870126 9.906135 41.4217415 10.1702384 40.7444351 10.659591 40.3058989 11.4492759 40.3058989 12.3476475 40.3080073 13.8288317 41.5145088 15.031211 43.0040558 15.0338363 44.4936028 15.031211 45.698523 13.8298818 45.7006314 12.3476475 45.7006314 11.4482258 45.2636765 10.6585409 44.5853159 10.1686632 44.2195177 9.90455984 44.1378193 9.39683025 44.4029439 9.03191602 44.6680685 8.6680519 45.1777614 8.58666815 45.5440866 8.85077154 46.6288311 9.63205554 47.3356544 10.910568 47.3356544 12.3476475 47.3346002 14.7287785 45.3975565 16.6620363 43.0040558 16.6620363 40.6110821 16.6620363 38.6719301 14.7287785 38.6703489 12.3476475M31.0507834 3.09762302L31.0518376 10.0540959C31.054473 10.9183388 31.68645 11.5200535 32.2968164 11.5211036 32.9077099 11.5200535 33.5402139 10.9183388 33.5428494 10.0540959L33.5428494 3.09867314C33.5402139 2.23075483 32.9066557 1.62956519 32.2968164 1.62851508 31.6875042 1.62956519 31.0528918 2.23233 31.0507834 3.09762302M29.4183959 10.0540959L29.4157604 3.09867314C29.4194501 1.45209611 30.6396558.0165917838 32.2968164.000315033869 33.9550312.0165917838 35.1731286 1.45209611 35.1768182 3.09867314L35.1768182 10.0540959C35.1731286 11.6985727 33.9550312 13.1325019 32.2968164 13.1498287 30.64071 13.1325019 29.4205042 11.6985727 29.4183959 10.0540959"/>
      <path d="M27.9639001 12.3471224C27.9639001 10.9100429 28.6733588 9.63310565 29.7559949 8.85234671 30.1207389 8.58719321 30.632013 8.67015212 30.8960835 9.03296613 31.160681 9.39683025 31.0789826 9.906135 30.7147656 10.1697133 30.0379863 10.659591 29.5978689 11.449801 29.5978689 12.3471224 29.5999773 13.8298818 30.8075329 15.031211 32.2960258 15.0348864 33.786627 15.031211 34.9915472 13.8298818 34.9941826 12.3471224 34.9941826 11.4487509 34.5551194 10.659591 33.8783401 10.1686632 33.5125419 9.90508489 33.4308434 9.39683025 33.695441 9.03296613 33.9600385 8.66752684 34.4707855 8.58614309 34.8365837 8.85077154 35.9213281 9.63153048 36.6286785 10.9100429 36.6286785 12.3471224 36.6276243 14.7293035 34.6900536 16.6615113 32.2960258 16.6625614 29.9030521 16.6615113 27.9649543 14.7293035 27.9639001 12.3471224M20.3428061 3.09814808L20.3443874 10.054621C20.3464957 10.9188639 20.9800539 11.5195285 21.5904203 11.5221537 22.1992055 11.5195285 22.8327637 10.9188639 22.8353991 10.054621L22.8353991 3.09814808C22.8327637 2.23075483 22.1986784 1.62956519 21.5904203 1.62851508 20.9800539 1.62956519 20.3454415 2.23233 20.3428061 3.09814808M18.7104186 10.054621L18.7083102 3.09814808C18.7119998 1.45157106 19.9332597.0171168402 21.5904203.000315033869 23.248108.0171168402 24.4662054 1.45314623 24.4688409 3.09814808L24.4688409 10.054621C24.4662054 11.6985727 23.2465268 13.1319768 21.5904203 13.1493037 19.9332597 13.1319768 18.713054 11.6985727 18.7104186 10.054621"/>
      <path d="M17.256977 12.3466499C17.256977 10.9090453 17.9648544 9.6326331 19.0480176 8.85239922 19.4143429 8.58829582 19.9240357 8.66967957 20.1886332 9.03406875 20.4537579 9.39740781 20.3715323 9.90566245 20.0067883 10.1697658 19.330009 10.6591185 18.8909458 11.4493284 18.8909458 12.3466499 18.8930541 13.8299344 20.1006098 15.0317886 21.5891026 15.0344138 23.0791767 15.0317886 24.2835699 13.8299344 24.2862053 12.3466499 24.2862053 11.4482783 23.8481963 10.6591185 23.1703627 10.1681907 22.8050917 9.90566245 22.7228661 9.3963577 22.9879907 9.03249358 23.2531154 8.6681044 23.7628082 8.5861956 24.1301876 8.85029899 25.214405 9.63158299 25.9207012 10.9106205 25.9207012 12.3466499 25.9201741 14.7283059 23.9826034 16.6610387 21.5891026 16.6620888 19.1956019 16.6610387 17.2580311 14.7298811 17.256977 12.3466499M9.63583024 3.09762302L9.63688442 10.0540959C9.63951985 10.9193889 10.2720239 11.5200535 10.8823903 11.5216287 11.4927567 11.5200535 12.1257879 10.9183388 12.1284233 10.0540959L12.1284233 3.09867314C12.1257879 2.23075483 11.4917025 1.63009025 10.8823903 1.62851508 10.2720239 1.63009025 9.63793859 2.23233 9.63583024 3.09762302M8.00344271 10.0540959L8.00186145 3.09867314C8.00449688 1.45209611 9.2252297.0171168402 10.8823903.000840090318 12.540078.0171168402 13.7592296 1.45209611 13.7613379 3.09867314L13.7613379 10.0540959C13.7592296 11.6990978 12.5384967 13.1330269 10.8823903 13.1498287 9.22681096 13.1330269 8.00555106 11.6990978 8.00344271 10.0540959"/>
      <path d="M6.54894694 12.3471224C6.54894694 10.9095179 7.25787856 9.63205554 8.34051466 8.85234671 8.70631283 8.58771826 9.21600568 8.67015212 9.48165738 9.03349119 9.74625491 9.39735531 9.66455647 9.90560995 9.29981247 10.1702384 8.62356022 10.6585409 8.18344282 11.4492759 8.18344282 12.3471224 8.18607825 13.8293568 9.39310682 15.031211 10.8821268 15.0338363 12.3711467 15.031211 13.576594 13.8293568 13.5792295 12.3471224 13.5792295 11.4482258 13.1412204 10.6585409 12.4633869 10.1691883 12.0970616 9.90560995 12.0158903 9.39630519 12.2804878 9.03244107 12.5445582 8.66752684 13.0558324 8.58666815 13.4221576 8.85024649 14.5058479 9.63205554 15.2137253 10.9095179 15.2137253 12.3471224 15.2126712 14.7298286 13.2751004 16.6615113 10.8821268 16.6625614 8.48809894 16.6615113 6.5505282 14.7298286 6.54894694 12.3471224M55.7739436 64.5820482L55.7728894 67.8652262 61.7800967 61.8822079 58.4879131 61.8822079C56.9899326 61.8822079 55.7755249 63.0914129 55.7739436 64.5820482L55.7739436 64.5820482zM63.7540364 60.2534828C64.0839927 60.2534828 64.3812696 60.4524792 64.5082975 60.757537 64.6353254 61.0610196 64.5641686 61.4112323 64.3306692 61.6438323L55.5325379 70.4075495C55.3759931 70.5629662 55.1667397 70.6464502 54.9532696 70.6464502 54.8483793 70.6464502 54.742962 70.625973 54.6422884 70.5844935 54.3360511 70.4574299 54.1368123 70.161298 54.1378665 69.8310375L54.1399748 64.5809981C54.1426102 62.1909411 56.0886144 60.255058 58.4879131 60.2534828L63.7540364 60.2534828z"/>
      <path d="M1.63428505,66.3166772 C1.6363934,67.8083626 2.84869282,69.0154673 4.3445649,69.0180926 L54.6159868,69.0180926 L62.9365776,60.7306016 L62.9566069,23.0315486 L1.63428505,23.0315486 L1.63428505,66.3166772 Z M4.3445649,70.6468177 C1.94473912,70.6452425 -0.000210834683,68.7083093 -0.000210834683,66.3166772 L-0.000210834683,22.2182362 C-0.000210834683,22.0034881 0.0872855589,21.7939906 0.239613618,21.6422493 C0.392468763,21.4905079 0.6011951,21.4033486 0.817827737,21.4033486 L63.7746455,21.4033486 L63.7746455,22.2182362 L63.7746455,21.4033486 C63.9902239,21.4033486 64.2000044,21.4905079 64.3528596,21.6422493 C64.5051876,21.7939906 64.5905757,22.0034881 64.5905757,22.2182362 L64.5700193,61.0676879 C64.5700193,61.2845362 64.4846313,61.4898332 64.3307219,61.6441998 L55.5325906,70.407917 C55.3781542,70.5612335 55.1720633,70.6468177 54.9543765,70.6468177 L4.3445649,70.6468177 Z"/>
      <path d="M60.2196565 69.0173575C61.7171098 69.0189327 62.9320447 67.8076275 62.9320447 66.3164672L62.9346801 63.0338142 56.9274729 69.0173575 60.2196565 69.0173575zM54.9551144 70.6466077C54.624104 70.6466077 54.3263 70.4476113 54.1992721 70.1441287 54.0738254 69.8390709 54.1423467 69.4893833 54.3769003 69.2562582L63.1750316 60.4930661C63.4090581 60.2588909 63.7622062 60.1901085 64.0668623 60.3161221 64.3715185 60.4421356 64.5707572 60.7398426 64.5707572 61.068528L64.5670676 66.3175173C64.5649593 68.7080993 62.6205364 70.6455576 60.2196565 70.6466077L54.9551144 70.6466077zM21.2857642 35.7436903L21.2857642 38.1631504 12.6325817 38.1631504 12.1012783 43.3554336 12.1771788 43.3554336C12.7332553 42.7757713 13.3662864 42.372528 14.0999911 42.1205009 14.7577953 41.8432711 15.5168002 41.7172575 16.3264054 41.7172575 18.0220433 41.7172575 19.4135522 42.2717171 20.476159 43.3806363 21.5387658 44.4895556 22.0953694 46.0022432 22.0953694 47.9428518 22.0953694 49.8078523 21.3869649 51.32054 20.0207561 52.5050673 18.7299208 53.5635811 17.1866109 54.092838 15.3902994 54.092838 13.771089 54.092838 12.3795801 53.6391892 11.2157727 52.7570944 9.9249373 51.7993914 9.21653277 50.4631228 9.09003196 48.7997439L11.7976764 48.7997439C11.8983499 49.8078523 12.3031525 50.5891363 12.986784 51.0931905 13.5939879 51.5473643 14.4035931 51.7741887 15.4155995 51.7741887 16.5288067 51.7741887 17.4649127 51.4208257 18.2239175 50.7403526 18.9834495 50.0346767 19.3629519 49.1273792 19.3629519 47.9680545 19.3629519 46.7079191 19.0340498 45.7250134 18.3757185 45.0193375 17.7179143 44.3131366 16.8071085 43.9602987 15.5927007 43.9602987 14.7830955 43.9602987 14.0999911 44.0863122 13.4927872 44.3887447 12.834983 44.6917023 12.3542799 45.1705538 11.9995506 45.8258242L9.41893406 45.8258242 10.4056404 35.7436903 21.2857642 35.7436903zM27.9641637 50.6649545C28.3183659 51.0177924 28.5207672 51.4714412 28.5207672 52.0259008 28.5207672 52.529955 28.3183659 52.9841288 27.9641637 53.3616444 27.5846612 53.6892796 27.1292583 53.8662236 26.6232551 53.8662236 26.0666515 53.8662236 25.6360217 53.6892796 25.3071196 53.3616444 24.9281442 52.9841288 24.750516 52.529955 24.750516 52.0259008 24.750516 51.4714412 24.9281442 51.0177924 25.3071196 50.6649545 25.6360217 50.3121165 26.0666515 50.1356976 26.6232551 50.1356976 27.1292583 50.1356976 27.5846612 50.3121165 27.9641637 50.6649545M38.0081698 35.7436903L38.0081698 53.7400001 35.2504522 53.7400001 35.2504522 39.0457703C34.1625452 40.0790814 32.7705092 40.8351627 31.1006985 41.3140142L31.1006985 38.5915965C31.9103037 38.3904998 32.7452091 38.0371369 33.6560149 37.5330827 34.5673478 36.9786231 35.3263527 36.3989607 35.9335566 35.7436903L38.0081698 35.7436903zM45.1928361 38.7681204C44.5097317 39.498999 44.1808296 40.4314993 44.1808296 41.5908239 44.1808296 42.7506736 44.5097317 43.6579712 45.1928361 44.3384443 45.8253401 45.0441202 46.7108458 45.3969581 47.8498802 45.3969581 48.9630873 45.3969581 49.8738931 45.0441202 50.5316973 44.3384443 51.1895015 43.6327684 51.5184036 42.6750655 51.5184036 41.5152158 51.5184036 40.3312135 51.1642014 39.3981882 50.5063972 38.717715 49.8232928 38.0120392 48.9377871 37.6592012 47.8746532 37.6592012 46.7619732 37.6592012 45.8511674 38.0120392 45.1928361 38.7681204M52.8087119 37.7852148C53.9224461 39.3225801 54.5043499 41.4653354 54.5043499 44.2376335 54.5043499 47.1611478 53.897146 49.5307275 52.7075113 51.3453226 51.4678033 53.1604428 49.8232928 54.092943 47.7486795 54.092943 44.2314299 54.092943 42.2580173 52.4542418 41.8026144 49.2030923L44.4844315 49.2030923C44.8386338 50.9420793 45.9518409 51.8241741 47.7734526 51.8241741 49.0136876 51.8241741 50.0003939 51.1941064 50.7593988 49.9843763 51.4678033 48.8250517 51.8473058 47.3632945 51.8473058 45.6237825 51.8473058 45.5229717 51.8220056 45.4221608 51.8220056 45.2961473L51.7208049 45.2961473C51.2148017 46.0774313 50.5569975 46.6570936 49.7979926 47.0603369 49.0642879 47.4136999 48.2293826 47.6153216 47.2927495 47.6153216 45.5217382 47.6153216 44.0796289 47.0356593 43.0170221 45.9010123 41.9797155 44.7920931 41.4731852 43.3555386 41.4731852 41.5908239 41.4731852 39.7762288 42.055616 38.3144717 43.2700237 37.155147 44.4844315 35.9706197 45.9771411 35.3904323 47.7734526 35.3904323 49.9750938 35.3904323 51.6449045 36.1722414 52.8087119 37.7852148"/>
    </g>
  </g>
</svg>
