<svg xmlns="http://www.w3.org/2000/svg" xmlns:xlink="http://www.w3.org/1999/xlink" width="227" height="150" viewBox="0 0 227 150">
  <defs>
    <circle id="icon_info_winner-a" cx="114.104" cy="64.832" r="64.832"/>
  </defs>
  <g fill="none" fill-rule="evenodd" transform="translate(0 10)">
    <use fill="#FFC331" xlink:href="#icon_info_winner-a"/>
    <circle cx="114.104" cy="64.832" r="69.832" stroke="#F5F5F5" stroke-width="10"/>
    <g fill="#FFF" stroke="#FFF" transform="translate(83.849 24.204)">
      <path d="M41.2606467 39.6050025L40.8418045 38.2675526C50.1528458 35.371768 56.105653 28.732618 58.5334388 18.5340953 60.0509221 12.1597268 59.6437924 6.30651538 59.455454 4.46051693L55.5715588 4.46051693C52.4264939 12.1340425 46.9426588 11.6628529 46.705596 11.6399706L46.8498951 10.2460152 46.7777456 10.9432264 46.8456786 10.2455483C47.0424501 10.2656287 51.727018 10.6023261 54.436843 3.51066597 54.5403823 3.2388797 54.8018073 3.05955681 55.0932166 3.05955681L60.0813748 3.05955681C60.43041 3.05955681 60.7269728 3.31499854 60.7766342 3.65963473 60.819268 3.95056744 61.7904761 10.8811172 59.9108395 18.8156883 57.403408 29.401343 50.953987 36.5901363 41.2606467 39.6050025zM19.8062255 39.6050025C10.1128852 36.5901363 3.66299568 29.401343 1.15462721 18.8156883-.725477881 10.8811172.245730157 3.95056744.287895484 3.65963473.338025374 3.31499854.634119672 3.05955681.983623384 3.05955681L5.97318711 3.05955681C6.26506488 3.05955681 6.5260214 3.2388797 6.63002921 3.51066597 9.36234241 10.6606994 14.1687212 10.253487 14.2146346 10.2460152L14.3594022 11.6399706C14.1228079 11.6633199 8.64178382 12.1354435 5.4953134 4.46051693L1.60954424 4.46051693C1.42120578 6.30651538 1.01454462 12.1597268 2.53249641 18.5340953 4.96075075 28.732618 10.913558 35.371768 20.2250677 38.2675526L19.8062255 39.6050025z"/>
      <path d="M14.9077857,4.46037683 C15.071762,7.21980128 15.7735804,17.3221247 17.7328626,27.3039656 C19.7999007,37.8363838 23.6959769,50.3908544 30.5173899,50.3908544 C37.3406768,50.3908544 41.2372216,37.829379 43.3042596,27.2913569 C45.2621363,17.3099831 45.9625492,7.21793334 46.1265255,4.46037683 L14.9077857,4.46037683 Z M30.5173899,51.7918145 C15.8799307,51.7918145 13.5552157,5.75252905 13.463389,3.79258584 C13.4540189,3.60158828 13.5242945,3.4147936 13.656881,3.27609854 C13.7894675,3.13787048 13.9731209,3.05941671 14.1652074,3.05941671 L46.8691038,3.05941671 C47.0611903,3.05941671 47.2448437,3.13787048 47.3774302,3.27609854 C47.5100167,3.4147936 47.5798238,3.60158828 47.5709222,3.79258584 C47.4790955,5.75252905 45.154849,51.7918145 30.5173899,51.7918145 L30.5173899,51.7918145 Z"/>
      <path d="M25.5095076 21.6490367L27.7494235 23.8247278C27.9152738 23.9858382 27.9907029 24.2174636 27.9518171 24.4448862L27.423345 27.5162577 30.189859 26.06533C30.3950636 25.9579231 30.6396225 25.9579231 30.844827 26.06533L33.6108725 27.5162577 33.0824004 24.4448862C33.0435146 24.2174636 33.1189437 23.9858382 33.284794 23.8247278L35.5247099 21.6490367 32.4293063 21.2002625C32.2002081 21.1671065 32.002031 21.0237415 31.8998972 20.8168664L30.517343 18.022418 29.1347888 20.8168664C29.032655 21.0237415 28.8344779 21.1671065 28.6053797 21.2002625L25.5095076 21.6490367zM34.5441318 29.4981493C34.4321594 29.4981493 34.3197185 29.4710641 34.2166477 29.4173606L30.517343 27.4765639 26.8175698 29.4173606C26.581444 29.5411121 26.2942512 29.5205647 26.077334 29.3641241 25.8608854 29.2076836 25.752661 28.9419681 25.7976374 28.6790546L26.5041409 24.5709726 23.5085286 21.6616454C23.3169106 21.4753177 23.2480406 21.1969936 23.3309657 20.9434198 23.4134224 20.689846 23.6336191 20.5049193 23.8983236 20.4666264L28.0375533 19.8670155 29.8872056 16.1292539C30.0052685 15.8896897 30.2498274 15.738386 30.517343 15.738386 30.7848586 15.738386 31.0294175 15.8896897 31.1474804 16.1292539L32.9971328 19.8670155 37.1358939 20.4666264C37.4005984 20.5049193 37.6207951 20.689846 37.7032518 20.9434198 37.7861769 21.1969936 37.7168384 21.4753177 37.5252204 21.6616454L34.5300766 24.5709726 35.2370486 28.6790546C35.282025 28.9419681 35.1733321 29.2076836 34.957352 29.3641241 34.834604 29.4528516 34.6898364 29.4981493 34.5441318 29.4981493L34.5441318 29.4981493zM9.11333273 79.4675949L52.4208719 79.4675949 52.4208719 72.1489792 9.11333273 72.1489792 9.11333273 79.4675949zM53.1236273 80.868555L8.41057728 80.868555C8.02218776 80.868555 7.70782182 80.5552069 7.70782182 80.1680749L7.70782182 71.4484992C7.70782182 71.0618342 8.02218776 70.7480191 8.41057728 70.7480191L53.1236273 70.7480191C53.5120168 70.7480191 53.8263828 71.0618342 53.8263828 71.4484992L53.8263828 80.1680749C53.8263828 80.5552069 53.5120168 80.868555 53.1236273 80.868555L53.1236273 80.868555zM12.3928582 3.11526832L48.6728428 3.11526832 48.6728428 1.40096012 12.3928582 1.40096012 12.3928582 3.11526832zM49.3755982 4.51622844L11.6901027 4.51622844C11.3021817 4.51622844 10.9873473 4.20288036 10.9873473 3.81574838L10.9873473.70048006C10.9873473.31334808 11.3021817 0 11.6901027 0L49.3755982 0C49.7635192 0 50.0783537.31334808 50.0783537.70048006L50.0783537 3.81574838C50.0783537 4.20288036 49.7635192 4.51622844 49.3755982 4.51622844L49.3755982 4.51622844z"/>
      <path d="M16.4761485,70.7480658 L44.5577879,70.7480658 C44.4228589,69.2009388 43.8522215,68.7493627 43.671379,68.6442907 C43.1040211,68.6424227 42.5357262,68.6302811 41.9800809,68.6083327 C34.6573691,68.1119258 32.6587326,62.3404371 32.5673744,58.7913382 L28.455318,58.7913382 C28.4028455,60.1446656 28.0463143,62.9914166 26.1268549,65.3137415 C24.4903717,67.2928312 22.1174008,68.4009906 19.0735326,68.6073987 C18.4958677,68.6302811 17.9224192,68.6424227 17.3508448,68.6442907 C17.2018606,68.7330182 16.61342,69.1705847 16.4761485,70.7480658 M45.2895906,72.1490259 L15.7443458,72.1490259 C15.3564248,72.1490259 15.0415903,71.8356778 15.0415903,71.4485459 C15.0415903,67.8457434 16.8528254,67.3115106 17.0594355,67.262477 C17.1123764,67.2498684 17.1671913,67.2433306 17.2220063,67.2433306 C17.8259075,67.2433306 18.406852,67.2321229 18.997635,67.2083066 C27.3988423,66.6385828 27.0727637,58.4943346 27.0540236,58.130552 C27.043248,57.9470262 27.105559,57.7658353 27.2287754,57.6271403 C27.3618305,57.4763036 27.553917,57.390378 27.7553735,57.390378 L33.2785629,57.390378 C33.4711179,57.390378 33.6557083,57.4692988 33.7882948,57.6084608 C33.9208814,57.7480899 33.9902199,57.9358185 33.9803813,58.12775 C33.9616412,58.4751882 33.6271296,66.6381158 42.05551,67.2092405 C42.6191199,67.2316559 43.216462,67.2433306 43.8119301,67.2433306 C43.8667451,67.2433306 43.92156,67.2498684 43.9745009,67.262477 C44.181111,67.3115106 45.9923461,67.8457434 45.9923461,71.4485459 C45.9923461,71.8356778 45.6779801,72.1490259 45.2895906,72.1490259"/>
      <path d="M30.5170619,52.3066673 C29.299421,52.3066673 28.3094728,53.2938772 28.3094728,54.5071087 C28.3094728,55.7208072 29.299421,56.7080171 30.5170619,56.7080171 C31.7347029,56.7080171 32.724651,55.7208072 32.724651,54.5071087 C32.724651,53.2938772 31.7347029,52.3066673 30.5170619,52.3066673 M30.5170619,58.1089772 C28.5249844,58.1089772 26.9039619,56.4932032 26.9039619,54.5071087 C26.9039619,52.5214812 28.5249844,50.9057072 30.5170619,50.9057072 C32.5091394,50.9057072 34.1301619,52.5214812 34.1301619,54.5071087 C34.1301619,56.4932032 32.5091394,58.1089772 30.5170619,58.1089772"/>
    </g>
    <path fill="#F5F5F5" d="M25.7096451,3.80864422 L25.7096451,26.0675159 C25.7096451,31.044859 21.8197452,35.0938126 17.0429481,35.0938126 L8.66323931,35.0938126 C3.88471338,35.0938126 0,31.044859 0,26.0675159 L0,3.80864422 C0,1.70809827 1.65623294,0 3.69281165,0 C5.7311192,0 7.39080983,1.70809827 7.39080983,3.80864422 L7.39080983,19.3803458 C7.39080983,19.878253 7.74349409,20.2828025 8.18089172,20.2828025 L8.30191083,20.2828025 C8.74103731,20.2828025 9.09372157,19.878253 9.09372157,19.3803458 L9.09372157,3.80864422 C9.09372157,1.70809827 10.7534122,0 12.7882621,0 L12.9161965,0 C14.9545041,0 16.610737,1.70809827 16.610737,3.80864422 L16.610737,19.3803458 C16.610737,19.878253 16.966879,20.2828025 17.4025478,20.2828025 L17.5270246,20.2828025 C17.9609645,20.2828025 18.3188353,19.878253 18.3188353,19.3803458 L18.3188353,3.80864422 C18.3188353,1.70809827 19.9750682,0 22.0133758,0 C24.0499545,0 25.7096451,1.70809827 25.7096451,3.80864422 Z M17.2728597,93.0135825 C16.1041609,94.2237736 14.5360991,94.8911075 12.8522046,94.8911075 C11.170039,94.8911075 9.60024828,94.2237736 8.43154946,93.0135825 C7.26457949,91.8048733 6.65256857,90.2128545 6.71307812,88.5306889 L8.40907448,39.9795515 C8.42463408,37.9377863 10.0895112,36.2832822 12.136463,36.2832822 L13.5714039,36.2832822 C15.6166268,36.2832822 17.281504,37.9377863 17.2953347,39.9795515 L18.9965176,88.5306889 C19.0535695,90.2128545 18.4415586,91.8048733 17.2728597,93.0135825 Z" transform="translate(0 24.204)"/>
    <g fill="#F5F5F5" transform="translate(198.817 24.204)">
      <path d="M18.1413243,93.5971024 C16.9829679,94.7963391 15.4253556,95.4580122 13.75979,95.4580122 C12.0907973,95.4580122 10.536612,94.7963391 9.3782557,93.5971024 C8.2181858,92.397621 7.615018,90.8192014 7.67132019,89.1538805 L9.35426607,41.0323992 C9.37140152,39.0084579 11.0198317,37.3668819 13.0467105,37.3668819 L14.4691976,37.3668819 C16.4963212,37.3668819 18.1464649,39.0084579 18.1636004,41.0323992 L19.8463015,89.1538805 C19.9062755,90.8192014 19.2994359,92.397621 18.1413243,93.5971024 Z M27.5177685,20.4886605 C27.5177685,29.2003227 21.3455798,36.2875444 13.7597166,36.2875444 C6.17042621,36.2875444 -4.89584256e-05,29.2003227 -4.89584256e-05,20.4886605 C-4.89584256e-05,12.3373274 5.77655568,0.244841086 13.7597166,0.244841086 C21.7414087,0.244841086 27.5177685,12.3373274 27.5177685,20.4886605 Z"/>
    </g>
  </g>
</svg>
