<svg xmlns="http://www.w3.org/2000/svg" xmlns:xlink="http://www.w3.org/1999/xlink" width="40" height="40" viewBox="0 0 40 40">
  <defs>
    <polygon id="icon_stamp-a" points="17.99 30.081 35.98 30.081 35.98 0 0 0 0 15.04 0 30.081 17.99 30.081"/>
  </defs>
  <g fill="none" fill-rule="evenodd" transform="translate(2 5)">
    <mask id="icon_stamp-b" fill="#fff">
      <use xlink:href="#icon_stamp-a"/>
    </mask>
    <path fill="#FFC331" d="M5.1847769,25.1092082 L30.7948381,25.1092082 L30.7948381,4.9709755 L5.1847769,4.9709755 L5.1847769,25.1092082 Z M32.8934383,30.0805556 L35.9803587,30.0805556 L35.9803587,26.6872485 C34.9808836,26.54521 34.2104549,25.6944663 34.2104549,24.6563211 C34.2104549,23.6174322 34.9808836,22.7666885 35.9803587,22.6239064 L35.9803587,20.2523841 C34.9808836,20.1096019 34.2104549,19.2588583 34.2104549,18.220713 C34.2104549,17.1818241 34.9808836,16.3318241 35.9803587,16.1882983 L35.9803587,13.8918854 C34.9808836,13.7498469 34.2104549,12.8983596 34.2104549,11.8602143 C34.2104549,10.8213255 34.9808836,9.97132546 35.9803587,9.82779965 L35.9803587,7.45627734 C34.9808836,7.31423885 34.2104549,6.46349519 34.2104549,5.4246063 C34.2104549,4.38571741 34.9808836,3.53497375 35.9803587,3.39293526 L35.9803587,0.000371828521 L32.8934383,0.000371828521 C32.7506562,0.999103237 31.8999125,1.76953193 30.8610236,1.76953193 C29.8228784,1.76953193 28.9721347,0.999103237 28.8293526,0.000371828521 L26.4570866,0.000371828521 C26.3150481,0.999103237 25.4643045,1.76953193 24.4261592,1.76953193 C23.3872703,1.76953193 22.5365267,0.999103237 22.3937445,0.000371828521 L20.0222222,0.000371828521 C19.8794401,0.999103237 19.0286964,1.76953193 17.9898075,1.76953193 C16.9516623,1.76953193 16.1009186,0.999103237 15.9581365,0.000371828521 L13.5858705,0.000371828521 C13.4430884,0.999103237 12.5930884,1.76953193 11.5541995,1.76953193 C10.5153106,1.76953193 9.66531059,0.999103237 9.52252843,0.000371828521 L7.15100612,0.000371828521 C7.00822397,0.999103237 6.15748031,1.76953193 5.11859143,1.76953193 C4.08044619,1.76953193 3.22970254,0.999103237 3.08692038,0.000371828521 L0,0.000371828521 L0,3.39293526 C0.999475066,3.53497375 1.76990376,4.38571741 1.76990376,5.4246063 C1.76990376,6.46349519 0.999475066,7.31423885 0,7.45627734 L0,9.82779965 C0.999475066,9.97132546 1.76990376,10.8213255 1.76990376,11.8602143 C1.76990376,12.8983596 0.999475066,13.7498469 0,13.8918854 L0,16.1882983 C0.999475066,16.3318241 1.76990376,17.1818241 1.76990376,18.220713 C1.76990376,19.2588583 0.999475066,20.1096019 0,20.2523841 L0,22.6239064 C0.999475066,22.7666885 1.76990376,23.6174322 1.76990376,24.6563211 C1.76990376,25.6944663 0.999475066,26.54521 0,26.6872485 L0,30.0805556 L3.08692038,30.0805556 C3.22970254,29.0810805 4.08044619,28.3106518 5.11859143,28.3106518 C6.15748031,28.3106518 7.00822397,29.0810805 7.15100612,30.0805556 L9.52252843,30.0805556 C9.66531059,29.0810805 10.5153106,28.3106518 11.5541995,28.3106518 C12.5930884,28.3106518 13.4430884,29.0810805 13.5858705,30.0805556 L15.9581365,30.0805556 C16.1009186,29.0810805 16.9516623,28.3106518 17.9898075,28.3106518 C19.0286964,28.3106518 19.8794401,29.0810805 20.0222222,30.0805556 L22.3937445,30.0805556 C22.5365267,29.0810805 23.3872703,28.3106518 24.4254156,28.3106518 C25.4643045,28.3106518 26.3150481,29.0810805 26.4570866,30.0805556 L28.8293526,30.0805556 C28.9721347,29.0810805 29.8228784,28.3106518 30.8610236,28.3106518 C31.8999125,28.3106518 32.7506562,29.0810805 32.8934383,30.0805556 L32.8934383,30.0805556 Z" mask="url(#icon_stamp-b)"/>
    <polygon fill="#FFC331" points="27.248 16.835 22.889 10.279 17.141 16.335 14.961 15.294 10.758 19.461 8.732 19.077 8.732 22.469 27.248 22.469" mask="url(#icon_stamp-b)"/>
    <path fill="#FFC331" d="M15.1108136,10.9014173 C15.1108136,12.50028 13.8146194,13.7964742 12.2157568,13.7964742 C10.6168941,13.7964742 9.32069991,12.50028 9.32069991,10.9014173 C9.32069991,9.30255468 10.6168941,8.00636045 12.2157568,8.00636045 C13.8146194,8.00636045 15.1108136,9.30255468 15.1108136,10.9014173" mask="url(#icon_stamp-b)"/>
  </g>
</svg>
