<svg xmlns="http://www.w3.org/2000/svg" width="61" height="13" viewBox="0 0 61 13">
  <path fill="#4A4A4A" fill-rule="evenodd" d="M631.908356,3 C630.884097,3 630.03504,3.22911051 629.361186,3.68733154 C628.6469,4.17250674 628.296496,4.8328841 628.296496,5.6819407 C628.296496,6.51752022 628.660377,7.16442049 629.401617,7.60916442 C629.698113,7.77088949 630.425876,8.02695418 631.61186,8.40431267 C632.67655,8.7277628 633.309973,8.94339623 633.525606,9.05121294 C634.132075,9.36118598 634.442049,9.77897574 634.442049,10.3180593 C634.442049,10.7493261 634.226415,11.0862534 633.795148,11.328841 C633.363881,11.5714286 632.784367,11.7061995 632.056604,11.7061995 C631.247978,11.7061995 630.654987,11.5579515 630.264151,11.2614555 C629.832884,10.9380054 629.563342,10.3854447 629.455526,9.63072776 L628,9.63072776 C628.080863,10.8436658 628.512129,11.7331536 629.307278,12.2991914 C629.967655,12.7574124 630.884097,13 632.056604,13 C633.269542,13 634.212938,12.7574124 634.886792,12.2722372 C635.560647,11.7735849 635.897574,11.0997305 635.897574,10.2371968 C635.897574,9.34770889 635.479784,8.66037736 634.657682,8.16172507 C634.280323,7.93261456 633.431267,7.62264151 632.137466,7.21832884 C631.234501,6.94878706 630.681941,6.74663073 630.466307,6.62533693 C629.981132,6.36927224 629.752022,6.03234501 629.752022,5.60107817 C629.752022,5.11590296 629.954178,4.76549865 630.371968,4.54986523 C630.708895,4.36118598 631.19407,4.26684636 631.827493,4.26684636 C632.555256,4.26684636 633.09434,4.40161725 633.471698,4.68463612 C633.849057,4.9541779 634.091644,5.41239892 634.226415,6.03234501 L635.681941,6.03234501 C635.587601,4.98113208 635.210243,4.21293801 634.536388,3.71428571 C633.902965,3.22911051 633.026954,3 631.908356,3 Z M640.075472,5.65498652 C641.207547,5.65498652 642.083558,6.03234501 642.67655,6.81401617 C643.215633,7.5148248 643.498652,8.4851752 643.512129,9.72506739 L638.229111,9.72506739 C638.283019,10.3989218 638.458221,10.9245283 638.781671,11.2884097 C639.105121,11.638814 639.549865,11.8274933 640.115903,11.8274933 C640.614555,11.8274933 641.018868,11.7061995 641.328841,11.4770889 C641.571429,11.2884097 641.773585,10.9784367 641.962264,10.574124 L643.390836,10.574124 C643.229111,11.2210243 642.919137,11.7735849 642.433962,12.2048518 C641.827493,12.7304582 641.059299,13 640.12938,13 C639.105121,13 638.283019,12.6765499 637.690027,12.0431267 C637.043127,11.3692722 636.719677,10.4663073 636.719677,9.32075472 C636.719677,8.28301887 637.016173,7.42048518 637.636119,6.71967655 C638.229111,6.00539084 639.051213,5.65498652 640.075472,5.65498652 Z M640.115903,6.82749326 C639.576819,6.82749326 639.15903,6.97574124 638.83558,7.29919137 C638.539084,7.60916442 638.336927,8.05390836 638.256065,8.64690027 L642.016173,8.64690027 C641.881402,7.43396226 641.247978,6.82749326 640.115903,6.82749326 Z M647.865229,5.65498652 C648.889488,5.65498652 649.644205,5.91105121 650.12938,6.42318059 C650.54717,6.86792453 650.762803,7.5148248 650.762803,8.3638814 L650.762803,12.8113208 L649.442049,12.8113208 L649.442049,11.8274933 C649.172507,12.1778976 648.83558,12.4609164 648.431267,12.6630728 C647.973046,12.8787062 647.433962,13 646.814016,13 C646.086253,13 645.520216,12.8113208 645.115903,12.4474394 C644.671159,12.083558 644.455526,11.6118598 644.455526,11.032345 C644.455526,10.2506739 644.765499,9.64420485 645.385445,9.22641509 C645.951482,8.82210243 646.760108,8.61994609 647.784367,8.59299191 L649.347709,8.55256065 L649.347709,8.26954178 C649.347709,7.29919137 648.822102,6.81401617 647.770889,6.81401617 C647.326146,6.81401617 646.962264,6.89487871 646.692722,7.05660377 C646.369272,7.24528302 646.167116,7.52830189 646.086253,7.91913747 L644.671159,7.79784367 C644.819407,7.04312668 645.196765,6.47708895 645.789757,6.12668464 C646.301887,5.8032345 647.002695,5.65498652 647.865229,5.65498652 Z M649.347709,9.5902965 L647.878706,9.63072776 C646.571429,9.65768194 645.924528,10.115903 645.924528,10.9784367 C645.924528,11.2479784 646.032345,11.4636119 646.261456,11.638814 C646.477089,11.8140162 646.773585,11.9083558 647.137466,11.9083558 C647.743935,11.9083558 648.256065,11.7196765 648.687332,11.3557951 C649.118598,10.9919137 649.347709,10.5336927 649.347709,9.99460916 L649.347709,9.5902965 Z M655.628032,5.65498652 C655.196765,5.65498652 654.819407,5.77628032 654.495957,6.0458221 C654.226415,6.23450135 653.997305,6.51752022 653.822102,6.89487871 L653.822102,5.84366577 L652.393531,5.84366577 L652.393531,12.8113208 L653.822102,12.8113208 L653.822102,9.11859838 C653.822102,8.51212938 653.997305,8.01347709 654.361186,7.6361186 C654.698113,7.28571429 655.088949,7.11051213 655.520216,7.11051213 C655.843666,7.11051213 656.180593,7.1509434 656.530997,7.25876011 L656.530997,5.83018868 C656.28841,5.70889488 655.978437,5.65498652 655.628032,5.65498652 Z M660.506739,5.65498652 C659.428571,5.65498652 658.592992,6.01886792 657.986523,6.74663073 C657.420485,7.42048518 657.137466,8.28301887 657.137466,9.33423181 C657.137466,10.4123989 657.420485,11.2749326 658,11.9487871 C658.592992,12.6495957 659.415094,13 660.479784,13 C661.369272,13 662.097035,12.7708895 662.636119,12.3261456 C663.175202,11.8679245 663.539084,11.1671159 663.700809,10.2371968 L662.285714,10.2371968 C662.150943,11.2884097 661.557951,11.8274933 660.493261,11.8274933 C659.873315,11.8274933 659.415094,11.5983827 659.105121,11.1671159 C658.768194,10.722372 658.606469,10.1024259 658.606469,9.32075472 C658.606469,8.53908356 658.768194,7.91913747 659.118598,7.48787062 C659.455526,7.04312668 659.913747,6.82749326 660.506739,6.82749326 C660.991914,6.82749326 661.382749,6.93530997 661.679245,7.16442049 C661.975741,7.38005391 662.16442,7.73045822 662.25876,8.20215633 L663.673854,8.20215633 C663.539084,7.33962264 663.188679,6.69272237 662.649596,6.26145553 C662.110512,5.85714286 661.396226,5.65498652 660.506739,5.65498652 Z M664.927224,3 L664.927224,12.8113208 L666.355795,12.8113208 L666.355795,8.90296496 C666.355795,8.29649596 666.504043,7.79784367 666.814016,7.40700809 C667.110512,7.01617251 667.501348,6.82749326 667.986523,6.82749326 C668.525606,6.82749326 668.943396,6.98921833 669.212938,7.32614555 C669.455526,7.64959569 669.590296,8.10781671 669.590296,8.7277628 L669.590296,12.8113208 L671.018868,12.8113208 L671.018868,8.4851752 C671.018868,7.56873315 670.816712,6.86792453 670.412399,6.39622642 C669.981132,5.89757412 669.347709,5.65498652 668.512129,5.65498652 C668.067385,5.65498652 667.67655,5.73584906 667.326146,5.9245283 C666.93531,6.11320755 666.61186,6.42318059 666.355795,6.82749326 L666.355795,3 L664.927224,3 Z" transform="translate(-619 -1)"/>
</svg>
