<svg xmlns="http://www.w3.org/2000/svg" width="61" height="13" viewBox="0 0 61 13">
  <path fill="#4A4A4A" fill-rule="evenodd" d="M755.58221,3 C754.045822,3 752.886792,3.49865229 752.078167,4.52291105 C751.350404,5.42587601 751,6.58490566 751,8.01347709 C751,9.4690027 751.336927,10.6280323 752.037736,11.490566 C752.832884,12.4878706 754.018868,13 755.595687,13 C756.633423,13 757.522911,12.703504 758.264151,12.1105121 C759.059299,11.4770889 759.557951,10.6010782 759.773585,9.48247978 L758.345013,9.48247978 C758.156334,10.2371968 757.819407,10.8032345 757.334232,11.180593 C756.876011,11.5309973 756.283019,11.7061995 755.58221,11.7061995 C754.504043,11.7061995 753.708895,11.3692722 753.196765,10.6954178 C752.71159,10.0619946 752.469003,9.17250674 752.469003,8.01347709 C752.469003,6.89487871 752.71159,6.00539084 753.210243,5.35849057 C753.735849,4.64420485 754.51752,4.29380054 755.555256,4.29380054 C756.256065,4.29380054 756.822102,4.44204852 757.280323,4.75202156 C757.738544,5.06199461 758.048518,5.54716981 758.210243,6.19407008 L759.638814,6.19407008 C759.490566,5.22371968 759.059299,4.44204852 758.358491,3.87601078 C757.630728,3.28301887 756.700809,3 755.58221,3 Z M764.328841,5.65498652 C765.380054,5.65498652 766.229111,6.00539084 766.862534,6.70619946 C767.48248,7.393531 767.80593,8.26954178 767.80593,9.33423181 C767.80593,10.3854447 767.495957,11.2614555 766.876011,11.93531 C766.229111,12.6361186 765.380054,13 764.328841,13 C763.277628,13 762.428571,12.6361186 761.781671,11.93531 C761.161725,11.2614555 760.851752,10.3854447 760.851752,9.33423181 C760.851752,8.26954178 761.161725,7.393531 761.795148,6.70619946 C762.428571,6.00539084 763.277628,5.65498652 764.328841,5.65498652 Z M764.328841,6.82749326 C763.668464,6.82749326 763.156334,7.08355795 762.792453,7.60916442 C762.469003,8.05390836 762.320755,8.63342318 762.320755,9.33423181 C762.320755,10.0350404 762.469003,10.6010782 762.792453,11.0458221 C763.156334,11.5579515 763.668464,11.8274933 764.328841,11.8274933 C764.989218,11.8274933 765.501348,11.5579515 765.878706,11.0458221 C766.202156,10.5876011 766.363881,10.0215633 766.363881,9.33423181 C766.363881,8.63342318 766.202156,8.05390836 765.878706,7.60916442 C765.501348,7.08355795 764.989218,6.82749326 764.328841,6.82749326 Z M772.698113,5.65498652 C772.266846,5.65498652 771.876011,5.73584906 771.525606,5.9245283 C771.175202,6.09973046 770.865229,6.35579515 770.595687,6.70619946 L770.595687,5.84366577 L769.167116,5.84366577 L769.167116,12.8113208 L770.595687,12.8113208 L770.595687,8.61994609 C770.649596,8.05390836 770.851752,7.60916442 771.175202,7.28571429 C771.471698,6.98921833 771.83558,6.85444744 772.239892,6.85444744 C773.318059,6.85444744 773.87062,7.44743935 773.87062,8.63342318 L773.87062,12.8113208 L775.299191,12.8113208 L775.299191,8.51212938 C775.299191,6.59838275 774.423181,5.65498652 772.698113,5.65498652 Z M779.045822,3.59299191 L777.617251,4.18598383 L777.617251,5.84366577 L776.32345,5.84366577 L776.32345,7.0296496 L777.617251,7.0296496 L777.617251,11.0727763 C777.617251,11.6253369 777.738544,12.0431267 778.008086,12.3396226 C778.277628,12.6495957 778.722372,12.8113208 779.315364,12.8113208 L780.460916,12.8113208 L780.460916,11.6253369 L779.544474,11.6253369 C779.369272,11.6253369 779.247978,11.5714286 779.167116,11.490566 C779.086253,11.3962264 779.045822,11.2614555 779.045822,11.0727763 L779.045822,7.0296496 L780.636119,7.0296496 L780.636119,5.84366577 L779.045822,5.84366577 L779.045822,3.59299191 Z M784.921833,5.65498652 C785.946092,5.65498652 786.700809,5.91105121 787.185984,6.42318059 C787.603774,6.86792453 787.819407,7.5148248 787.819407,8.3638814 L787.819407,12.8113208 L786.498652,12.8113208 L786.498652,11.8274933 C786.229111,12.1778976 785.892183,12.4609164 785.487871,12.6630728 C785.02965,12.8787062 784.490566,13 783.87062,13 C783.142857,13 782.576819,12.8113208 782.172507,12.4474394 C781.727763,12.083558 781.512129,11.6118598 781.512129,11.032345 C781.512129,10.2506739 781.822102,9.64420485 782.442049,9.22641509 C783.008086,8.82210243 783.816712,8.61994609 784.84097,8.59299191 L786.404313,8.55256065 L786.404313,8.26954178 C786.404313,7.29919137 785.878706,6.81401617 784.827493,6.81401617 C784.382749,6.81401617 784.018868,6.89487871 783.749326,7.05660377 C783.425876,7.24528302 783.22372,7.52830189 783.142857,7.91913747 L781.727763,7.79784367 C781.876011,7.04312668 782.253369,6.47708895 782.846361,6.12668464 C783.358491,5.8032345 784.059299,5.65498652 784.921833,5.65498652 Z M786.404313,9.5902965 L784.93531,9.63072776 C783.628032,9.65768194 782.981132,10.115903 782.981132,10.9784367 C782.981132,11.2479784 783.088949,11.4636119 783.318059,11.638814 C783.533693,11.8140162 783.830189,11.9083558 784.19407,11.9083558 C784.800539,11.9083558 785.312668,11.7196765 785.743935,11.3557951 C786.175202,10.9919137 786.404313,10.5336927 786.404313,9.99460916 L786.404313,9.5902965 Z M792.549865,5.65498652 C791.471698,5.65498652 790.636119,6.01886792 790.02965,6.74663073 C789.463612,7.42048518 789.180593,8.28301887 789.180593,9.33423181 C789.180593,10.4123989 789.463612,11.2749326 790.043127,11.9487871 C790.636119,12.6495957 791.458221,13 792.522911,13 C793.412399,13 794.140162,12.7708895 794.679245,12.3261456 C795.218329,11.8679245 795.58221,11.1671159 795.743935,10.2371968 L794.328841,10.2371968 C794.19407,11.2884097 793.601078,11.8274933 792.536388,11.8274933 C791.916442,11.8274933 791.458221,11.5983827 791.148248,11.1671159 C790.811321,10.722372 790.649596,10.1024259 790.649596,9.32075472 C790.649596,8.53908356 790.811321,7.91913747 791.161725,7.48787062 C791.498652,7.04312668 791.956873,6.82749326 792.549865,6.82749326 C793.03504,6.82749326 793.425876,6.93530997 793.722372,7.16442049 C794.018868,7.38005391 794.207547,7.73045822 794.301887,8.20215633 L795.716981,8.20215633 C795.58221,7.33962264 795.231806,6.69272237 794.692722,6.26145553 C794.153639,5.85714286 793.439353,5.65498652 792.549865,5.65498652 Z M799.086253,3.59299191 L797.657682,4.18598383 L797.657682,5.84366577 L796.363881,5.84366577 L796.363881,7.0296496 L797.657682,7.0296496 L797.657682,11.0727763 C797.657682,11.6253369 797.778976,12.0431267 798.048518,12.3396226 C798.318059,12.6495957 798.762803,12.8113208 799.355795,12.8113208 L800.501348,12.8113208 L800.501348,11.6253369 L799.584906,11.6253369 C799.409704,11.6253369 799.28841,11.5714286 799.207547,11.490566 C799.126685,11.3962264 799.086253,11.2614555 799.086253,11.0727763 L799.086253,7.0296496 L800.67655,7.0296496 L800.67655,5.84366577 L799.086253,5.84366577 L799.086253,3.59299191 Z" transform="translate(-745 -1)"/>
</svg>
