<svg xmlns="http://www.w3.org/2000/svg" width="61" height="13" viewBox="0 0 61 13">
  <path fill="#4A4A4A" fill-rule="evenodd" d="M907.762481,1968.23111 C908.251368,1968.23111 908.495811,1968.46028 908.495811,1968.88805 C908.495811,1969.14777 908.23609,1969.56027 907.747203,1970.11027 C907.502759,1970.41583 907.288871,1970.62971 907.105538,1970.76721 C907.716647,1970.67555 908.23609,1970.61444 908.663866,1970.58388 C909.04581,1970.62971 909.24442,1970.79777 909.24442,1971.08805 C909.213865,1971.33249 909.030532,1971.45471 908.724977,1971.48527 C907.991646,1971.60749 907.334704,1971.71443 906.784706,1971.79082 C906.815261,1971.88249 906.845817,1971.97415 906.845817,1972.0811 C906.830539,1972.2186 906.815261,1972.34082 906.815261,1972.44776 C907.456926,1972.3561 907.991646,1972.31026 908.419423,1972.27971 C908.786088,1972.32554 908.984699,1972.4936 908.984699,1972.7686 C908.938866,1972.99776 908.770811,1973.11998 908.465256,1973.15054 C907.808314,1973.24221 907.243038,1973.30332 906.769428,1973.36443 C906.738873,1973.68526 906.723595,1973.96026 906.723595,1974.2047 L906.769428,1974.2047 C908.03748,1974.02137 909.061087,1973.9297 909.855529,1973.89915 C910.222195,1973.9297 910.420805,1974.09776 910.420805,1974.40331 C910.39025,1974.63248 910.206917,1974.76998 909.901362,1974.80053 C908.434701,1974.95331 907.197205,1975.09081 906.204152,1975.18248 C906.494429,1975.3047 906.647206,1975.50331 906.647206,1975.77831 C906.586096,1975.9922 906.540262,1976.17553 906.494429,1976.35886 C908.083313,1976.17553 909.366642,1976.08386 910.313861,1976.05331 C910.909692,1976.05331 911.215247,1976.25192 911.215247,1976.63386 C911.215247,1976.90886 911.047192,1977.03108 910.711082,1977.03108 C909.794418,1977.03108 908.755533,1977.07692 907.624981,1977.13803 C907.36526,1977.16858 907.136094,1977.19914 906.922206,1977.19914 C907.716647,1977.91719 908.419423,1978.40608 909.030532,1978.6658 C909.488864,1978.92552 909.962473,1979.15469 910.466638,1979.33802 C911.169414,1979.55191 911.536079,1979.71996 911.536079,1979.84218 C911.444413,1980.17829 910.909692,1980.40746 909.931918,1980.52968 C909.290253,1980.52968 908.801366,1980.42274 908.465256,1980.20885 C908.190257,1979.94913 907.89998,1979.65885 907.609703,1979.29219 C907.074983,1978.63524 906.570818,1978.02413 906.112486,1977.47414 C905.302766,1979.4908 904.126381,1980.52968 902.598609,1980.6519 C902.32361,1980.6519 902.18611,1980.59079 902.18611,1980.49913 C902.18611,1980.48385 902.369443,1980.36163 902.766664,1980.13246 C903.927771,1979.42969 904.706935,1978.49774 905.134711,1977.35191 C904.156937,1977.41303 903.39305,1977.45886 902.827775,1977.45886 C902.308332,1977.44358 901.9875,1977.33664 901.85,1977.1533 C901.85,1977.07692 902.002777,1977.00053 902.32361,1976.92414 C903.454161,1976.75608 904.477769,1976.61858 905.394433,1976.49636 C905.440266,1976.29775 905.470821,1976.09914 905.501377,1975.91581 C905.501377,1975.74775 905.40971,1975.62553 905.256933,1975.54914 C905.318044,1975.42692 905.40971,1975.31998 905.516655,1975.25887 C904.584713,1975.35053 903.881938,1975.39637 903.423606,1975.42692 C902.766664,1975.42692 902.415276,1975.27414 902.369443,1974.95331 C902.506942,1974.81581 903.652772,1974.60192 905.806931,1974.32692 C905.806931,1974.00609 905.791654,1973.71582 905.791654,1973.47137 C905.2111,1973.53248 904.768046,1973.57832 904.477769,1973.59359 C903.836105,1973.59359 903.499995,1973.44082 903.454161,1973.13526 C903.545828,1973.01304 904.324992,1972.84498 905.791654,1972.61582 L905.791654,1972.38665 C905.761098,1972.20332 905.730543,1972.05054 905.669432,1971.95888 C904.951379,1972.06582 904.416658,1972.12693 904.080548,1972.15749 C903.423606,1972.15749 903.072218,1972.00471 903.026385,1971.68388 C903.148607,1971.5311 904.248603,1971.27138 906.341652,1970.90471 C906.372207,1970.90471 906.418041,1970.88944 906.448596,1970.88944 C906.418041,1970.85888 906.402763,1970.81305 906.402763,1970.75194 C906.402763,1970.69083 906.55554,1970.40055 906.830539,1969.91166 C907.044427,1969.45333 907.166649,1969.07139 907.197205,1968.79639 C907.197205,1968.64361 907.166649,1968.52139 907.120816,1968.42972 C907.120816,1968.3075 907.334704,1968.23111 907.762481,1968.23111 Z M905.593043,1969.02555 C905.699987,1969.02555 905.761098,1969.1325 905.761098,1969.33111 C905.745821,1969.63666 905.638876,1969.92694 905.455544,1970.23249 C905.256933,1970.50749 905.027767,1970.64499 904.783324,1970.67555 C904.218048,1970.62971 903.912493,1970.2936 903.881938,1969.66722 C903.881938,1969.51444 903.943049,1969.42277 904.080548,1969.42277 C904.233325,1969.42277 904.416658,1969.43805 904.615269,1969.45333 C904.920823,1969.42277 905.256933,1969.27 905.593043,1969.02555 Z M922.909256,1970.07972 C922.481479,1970.67555 921.855093,1971.45471 921.030095,1972.41721 C920.113432,1973.44082 919.349545,1974.02137 918.723158,1974.14359 C918.203716,1974.12831 917.867606,1973.97554 917.699551,1973.70054 C917.699551,1973.63943 917.775939,1973.57832 917.959272,1973.50193 C919.593989,1972.60054 921.060651,1971.16443 922.34398,1969.19361 C922.466202,1969.01028 922.527313,1968.8575 922.557868,1968.70472 C922.512035,1968.59778 922.481479,1968.50611 922.466202,1968.41444 C922.481479,1968.26167 922.649534,1968.17 922.970367,1968.17 C923.337032,1968.32278 923.535643,1968.5825 923.535643,1968.97972 C923.505087,1969.11722 923.428699,1969.30055 923.291199,1969.52972 C923.902308,1969.83527 924.620361,1970.27833 925.445359,1970.85888 C926.881465,1971.65332 927.996739,1972.05054 928.806459,1972.06582 C928.913403,1972.11165 928.974514,1972.20332 928.974514,1972.32554 C928.684237,1973.11998 928.241183,1973.53248 927.645351,1973.59359 C927.309241,1973.59359 926.484244,1973.01304 925.200915,1971.82138 C924.22314,1970.96582 923.459254,1970.38527 922.909256,1970.07972 Z M924.330084,1972.6311 C925.185637,1972.6311 925.613414,1972.93665 925.613414,1973.5172 C925.613414,1974.11304 925.430081,1974.76998 925.078693,1975.50331 C925.093971,1975.54914 925.109249,1975.59498 925.109249,1975.64081 C925.109249,1976.29775 924.055085,1976.61858 921.962037,1976.61858 C921.87037,1976.61858 921.793982,1976.60331 921.748148,1976.58803 C921.702315,1977.41303 921.67176,1978.23802 921.641204,1979.04774 C921.641204,1979.44496 921.656482,1979.64357 921.717593,1979.64357 C921.931481,1979.6283 922.160647,1979.55191 922.435646,1979.41441 C922.817589,1979.24635 923.138422,1979.12413 923.382865,1979.06302 C923.520365,1979.06302 923.596754,1979.13941 923.596754,1979.29219 C923.566198,1979.61302 923.367588,1979.91857 922.970367,1980.25468 C922.603701,1980.62135 922.099536,1980.83524 921.457872,1980.88107 C920.99954,1980.88107 920.693985,1980.68246 920.541208,1980.28524 C920.541208,1980.08663 920.587041,1979.87274 920.678708,1979.65885 C920.770374,1979.41441 920.816207,1979.16996 920.816207,1978.91024 C920.846763,1977.61164 920.892596,1976.31303 920.923151,1975.01442 C920.923151,1974.63248 920.816207,1974.37276 920.617597,1974.21998 C920.617597,1974.03665 920.709263,1973.94498 920.923151,1973.94498 C921.396761,1974.00609 921.687038,1974.25054 921.778704,1974.66303 C922.359258,1974.49498 922.909256,1974.35748 923.428699,1974.26581 C923.642587,1974.26581 923.749531,1974.37276 923.749531,1974.55609 C923.749531,1974.95331 923.230088,1975.15192 922.191203,1975.15192 C922.038425,1975.15192 921.900926,1975.12137 921.793982,1975.09081 C921.793982,1975.41164 921.778704,1975.73248 921.763426,1976.03803 C922.527313,1975.82414 923.260644,1975.65609 923.932864,1975.50331 C924.146752,1975.06026 924.284251,1974.55609 924.330084,1973.97554 C924.330084,1973.73109 924.253696,1973.57832 924.116196,1973.54776 C922.924533,1973.80748 922.160647,1973.94498 921.855093,1973.94498 C921.274539,1973.94498 920.984262,1973.88387 920.968984,1973.76165 C920.968984,1973.53248 921.488427,1973.25748 922.557868,1972.95193 C923.21481,1972.73804 923.810642,1972.6311 924.330084,1972.6311 Z M925.70508,1976.17553 C926.255078,1976.23664 926.57591,1976.48108 926.637021,1976.90886 C926.637021,1977.16858 926.468966,1977.4283 926.148134,1977.67275 C925.827302,1977.91719 925.537025,1978.06997 925.277304,1978.14636 L925.292581,1978.14636 C926.667577,1978.92552 927.355074,1979.53663 927.355074,1979.96441 C927.355074,1980.40746 927.141186,1980.63663 926.743965,1980.63663 C926.423133,1980.57551 925.643969,1979.94913 924.406473,1978.75747 C923.35231,1977.99358 922.787034,1977.55052 922.695368,1977.44358 C922.695368,1977.24497 922.771756,1977.13803 922.939811,1977.13803 C923.199533,1977.13803 923.780086,1977.36719 924.681472,1977.82552 C925.185637,1977.30608 925.445359,1976.92414 925.445359,1976.71025 C925.445359,1976.49636 925.399525,1976.35886 925.323137,1976.2672 C925.353692,1976.20608 925.475914,1976.17553 925.70508,1976.17553 Z M923.627309,1971.43943 C924.100919,1971.43943 924.345362,1971.54638 924.345362,1971.76027 C924.284251,1972.05054 924.070363,1972.24915 923.673142,1972.34082 C923.535643,1972.3561 923.367588,1972.38665 923.168977,1972.41721 C922.955089,1972.47832 922.802312,1972.4936 922.725923,1972.4936 C922.053703,1972.43249 921.717593,1972.2186 921.702315,1971.85193 C921.702315,1971.8061 921.87037,1971.76027 922.237036,1971.69916 C922.909256,1971.54638 923.367588,1971.46999 923.627309,1971.43943 Z M935.153263,1971.79082 C935.519928,1971.82138 935.718539,1972.00471 935.749094,1972.32554 C935.749094,1972.41721 935.703261,1972.52415 935.64215,1972.6311 C935.504651,1972.81443 935.412984,1972.95193 935.382429,1973.0436 C935.382429,1973.16582 935.428262,1973.22693 935.519928,1973.22693 C935.810205,1973.13526 936.069926,1973.0436 936.299092,1972.95193 C936.299092,1972.73804 936.31437,1972.52415 936.329648,1972.34082 C936.329648,1971.88249 936.329648,1971.14916 936.360203,1970.1561 C936.329648,1969.86583 936.222704,1969.66722 936.039371,1969.57555 C936.100482,1969.30055 936.31437,1969.16305 936.65048,1969.14777 C937.017146,1969.17833 937.215756,1969.37694 937.215756,1969.72833 C937.139367,1969.91166 937.108812,1970.1561 937.108812,1970.4311 C937.139367,1971.01166 937.154645,1971.74499 937.169923,1972.66165 C937.429644,1972.58526 937.612977,1972.53943 937.735199,1972.50887 C938.086586,1972.53943 938.285197,1972.69221 938.33103,1972.98248 C938.33103,1973.28804 938.162975,1973.44082 937.826865,1973.44082 C937.597699,1973.44082 937.383811,1973.45609 937.185201,1973.47137 C937.185201,1973.91443 937.200478,1974.38804 937.200478,1974.87692 C937.551866,1974.73942 937.918531,1974.58665 938.300475,1974.40331 C938.483807,1974.40331 938.575474,1974.49498 938.575474,1974.66303 C938.544918,1974.90748 938.101864,1975.3047 937.215756,1975.8547 L937.215756,1977.8408 C937.154645,1979.20052 936.956035,1979.88802 936.604647,1979.93385 C936.344926,1979.88802 936.192148,1979.18524 936.161593,1977.81025 C936.176871,1977.35191 936.192148,1976.89358 936.207426,1976.41997 C935.565761,1976.75608 935.046319,1976.90886 934.664376,1976.90886 C933.839378,1976.86303 933.411602,1976.66442 933.381046,1976.32831 C933.381046,1976.14497 933.549101,1976.02275 933.885211,1975.96164 C934.465765,1975.86997 935.244929,1975.64081 936.253259,1975.24359 C936.253259,1974.83109 936.268537,1974.41859 936.299092,1973.99081 L936.299092,1973.59359 C936.11576,1973.63943 935.932427,1973.68526 935.77965,1973.74637 C935.076874,1974.2047 934.649098,1974.43387 934.496321,1974.43387 C934.236599,1974.41859 934.0991,1974.31165 934.083822,1974.09776 C934.083822,1974.00609 934.206044,1973.70054 934.481043,1973.21165 C934.694931,1972.81443 934.817153,1972.50887 934.862986,1972.32554 C934.862986,1972.2186 934.817153,1972.14221 934.725486,1972.11165 C934.664376,1972.11165 934.649098,1972.09638 934.649098,1972.03527 C934.649098,1971.88249 934.817153,1971.79082 935.153263,1971.79082 Z M943.769901,1974.43387 C944.289344,1974.43387 944.564343,1974.6172 944.564343,1974.95331 C944.564343,1975.19775 944.411566,1975.3047 944.121289,1975.3047 C943.785179,1975.3047 943.418513,1975.31998 943.051848,1975.35053 C943.051848,1977.18386 943.03657,1978.10052 943.021292,1978.10052 C942.883793,1979.75052 942.486572,1980.56024 941.82963,1980.56024 C941.249076,1980.56024 940.867133,1980.20885 940.699078,1979.50607 C940.699078,1979.41441 940.744911,1979.36857 940.867133,1979.36857 C941.01991,1979.36857 941.249076,1979.36857 941.585186,1979.33802 C941.844907,1979.20052 941.997685,1978.8033 942.058796,1978.13108 C942.119907,1977.00053 942.150462,1976.09914 942.181017,1975.4422 C941.035188,1975.65609 940.194913,1975.76303 939.67547,1975.76303 C939.217138,1975.74775 938.926861,1975.65609 938.80464,1975.48803 C938.80464,1975.42692 938.942139,1975.36581 939.232416,1975.28942 C940.393523,1974.98387 941.386576,1974.76998 942.211573,1974.6172 C942.211573,1974.44915 942.226851,1974.32692 942.226851,1974.23526 C942.211573,1974.05193 942.196295,1973.91443 942.16574,1973.82276 L942.135184,1973.82276 C941.187965,1974.00609 940.515745,1974.09776 940.087969,1974.09776 C939.583804,1974.08248 939.262971,1973.97554 939.110194,1973.7922 C939.110194,1973.73109 939.262971,1973.6547 939.583804,1973.56304 C940.057413,1973.41026 940.500467,1973.28804 940.897688,1973.18109 C940.867133,1972.66165 940.851855,1972.20332 940.851855,1971.79082 C940.103246,1971.89777 939.553248,1971.95888 939.201861,1971.97415 C938.544918,1971.97415 938.193531,1971.82138 938.147697,1971.50054 C938.254641,1971.37832 939.156027,1971.16443 940.836577,1970.88944 C940.8213,1970.49221 940.8213,1970.14083 940.8213,1969.86583 C940.775467,1969.49916 940.653245,1969.25472 940.439356,1969.1325 C940.622689,1968.8575 940.897688,1968.72 941.249076,1968.72 C941.799074,1968.78111 942.089351,1969.05611 942.089351,1969.51444 C942.043518,1969.94222 942.012962,1970.33944 941.982407,1970.69083 C942.715738,1970.5686 943.326847,1970.50749 943.815734,1970.47694 C944.197677,1970.52277 944.396288,1970.69083 944.396288,1970.9811 C944.350455,1971.22555 944.167122,1971.34777 943.861567,1971.37832 C943.097681,1971.50054 942.456017,1971.59221 941.906018,1971.65332 C941.860185,1972.17276 941.82963,1972.60054 941.814352,1972.95193 C942.303239,1972.84498 942.731016,1972.78387 943.067126,1972.7686 C943.647679,1972.7686 943.953234,1972.96721 943.953234,1973.34915 C943.953234,1973.62415 943.785179,1973.74637 943.464347,1973.74637 C943.281014,1973.74637 943.112959,1973.76165 942.960182,1973.76165 C943.006015,1973.96026 943.03657,1974.2047 943.051848,1974.49498 C943.326847,1974.46442 943.556013,1974.44915 943.769901,1974.43387 Z M939.186583,1976.25192 C940.164357,1976.29775 940.653245,1976.55747 940.653245,1977.0158 C940.622689,1977.38247 940.454634,1977.58108 940.133802,1977.61164 C939.81297,1977.59636 939.568526,1977.47414 939.385193,1977.26025 C939.110194,1977.00053 938.972695,1976.72553 938.942139,1976.41997 C938.942139,1976.31303 939.018528,1976.25192 939.186583,1976.25192 Z M954.31808,1973.77693 C954.501413,1973.77693 954.608357,1973.88387 954.608357,1974.0672 C954.577802,1974.37276 954.104192,1974.90748 953.156973,1975.68664 C953.095862,1975.73248 953.050029,1975.76303 953.019474,1975.79359 C952.97364,1977.41303 952.912529,1978.43663 952.820863,1978.87969 C952.63753,1979.67413 952.316698,1980.07135 951.858366,1980.07135 C951.369479,1980.07135 951.09448,1979.68941 951.033369,1978.91024 C951.033369,1978.72691 951.063924,1978.61997 951.140313,1978.61997 C951.29309,1978.65052 951.445868,1978.68108 951.6292,1978.71163 C951.812533,1978.71163 951.934755,1978.48247 951.995866,1977.99358 C952.056977,1977.8408 952.10281,1977.30608 952.148643,1976.38942 C951.812533,1976.57275 951.522256,1976.66442 951.29309,1976.66442 C950.437538,1976.60331 949.979206,1976.4047 949.94865,1976.05331 C949.94865,1975.86997 950.116705,1975.73248 950.483371,1975.67136 C950.911147,1975.5797 951.476423,1975.35053 952.179199,1974.98387 C952.179199,1974.54081 952.194476,1974.05193 952.194476,1973.53248 C951.934755,1973.59359 951.736144,1973.62415 951.613923,1973.63943 C950.880592,1973.63943 950.483371,1973.47137 950.42226,1973.10471 C950.483371,1972.98248 951.079202,1972.7686 952.209754,1972.47832 L952.209754,1970.64499 C952.209754,1970.26305 952.133365,1970.01861 951.980588,1969.91166 C951.827811,1969.80472 951.7667,1969.71305 951.7667,1969.65194 C951.888922,1969.43805 952.10281,1969.31583 952.43892,1969.25472 C953.034751,1969.31583 953.340306,1969.65194 953.340306,1970.2936 C953.233362,1970.62971 953.156973,1971.28666 953.11114,1972.24915 C953.355584,1972.20332 953.584749,1972.17276 953.768082,1972.15749 C954.195859,1972.20332 954.425024,1972.38665 954.425024,1972.72276 C954.379191,1972.98248 954.180581,1973.13526 953.829193,1973.16582 C953.538916,1973.24221 953.294473,1973.30332 953.080584,1973.33387 C953.065307,1973.76165 953.050029,1974.15887 953.050029,1974.51026 C953.44725,1974.29637 953.875026,1974.05193 954.31808,1973.77693 Z M957.541681,1968.75055 C958.01529,1968.76583 958.275012,1968.995 958.305567,1969.45333 C958.15279,1970.17138 958.076401,1972.03527 958.045846,1975.04498 C958.550011,1974.93803 958.931954,1974.87692 959.191675,1974.87692 C959.588896,1974.93803 959.802785,1975.21303 959.848618,1975.67136 C959.848618,1976.19081 959.405564,1976.92414 958.534733,1977.87136 C959.481952,1978.3908 960.429171,1978.74219 961.345835,1978.92552 C961.681945,1979.01719 961.85,1979.09358 961.85,1979.15469 C961.727778,1979.82691 961.223613,1980.17829 960.30695,1980.25468 C959.879173,1980.25468 959.054176,1979.67413 957.847235,1978.49774 C956.854183,1979.23107 955.952797,1979.64357 955.1278,1979.71996 C954.761134,1979.71996 954.593079,1979.61302 954.593079,1979.39913 C954.593079,1979.27691 954.715301,1979.16996 954.959745,1979.0783 C955.540299,1978.92552 956.243074,1978.5283 957.098627,1977.85608 C956.33474,1977.26025 955.631965,1976.89358 954.975023,1976.75608 C954.852801,1976.75608 954.79169,1976.71025 954.79169,1976.61858 C954.883356,1976.37414 955.081967,1976.23664 955.402799,1976.22136 C955.830575,1976.28247 956.594462,1976.64914 957.694458,1977.33664 C958.198623,1976.83247 958.458345,1976.41997 958.4889,1976.08386 C958.4889,1975.93109 958.427789,1975.83942 958.320845,1975.83942 C957.511125,1975.96164 956.701406,1976.06859 955.906964,1976.17553 C955.66252,1976.17553 955.448632,1976.11442 955.265299,1975.96164 C955.265299,1975.88525 955.265299,1975.83942 955.295855,1975.80886 C955.937519,1975.61025 956.518073,1975.4422 957.00696,1975.3047 C957.175015,1974.55609 957.266682,1972.9061 957.266682,1970.33944 C957.266682,1969.75888 957.129182,1969.36166 956.884739,1969.17833 C956.976405,1968.90333 957.190293,1968.75055 957.541681,1968.75055 Z M956.120852,1969.43805 C956.548629,1969.46861 956.793072,1969.6825 956.854183,1970.06444 C956.854183,1970.53805 956.487518,1970.87416 955.769464,1971.07277 C955.769464,1971.13388 955.784742,1971.16443 955.784742,1971.19499 C955.769464,1971.51582 955.754187,1971.82138 955.754187,1972.12693 C955.845853,1972.09638 955.922242,1972.06582 956.013908,1972.03527 C956.212519,1971.97415 956.380574,1971.92832 956.518073,1971.91304 C956.838905,1971.9436 957.00696,1972.09638 957.00696,1972.34082 C956.976405,1972.55471 956.823628,1972.66165 956.563906,1972.67693 C956.380574,1972.72276 956.258352,1972.73804 956.197241,1972.73804 C955.99863,1972.73804 955.845853,1972.72276 955.738909,1972.69221 L955.738909,1973.22693 C955.769464,1973.57832 955.891686,1973.74637 956.120852,1973.74637 C956.273629,1973.74637 956.395851,1973.70054 956.518073,1973.60887 C956.80835,1973.60887 956.961127,1973.73109 956.961127,1973.94498 C956.961127,1974.21998 956.869461,1974.37276 956.716684,1974.41859 C956.533351,1974.54081 956.319463,1974.58665 956.075019,1974.58665 C955.32641,1974.54081 954.944467,1974.15887 954.929189,1973.45609 C954.898634,1972.58526 954.883356,1971.86721 954.883356,1971.31721 C954.822245,1970.99638 954.730579,1970.79777 954.593079,1970.7061 C954.715301,1970.5686 954.898634,1970.49221 955.173633,1970.49221 C955.265299,1970.52277 955.341688,1970.55333 955.402799,1970.58388 C955.525021,1970.4311 955.631965,1970.27833 955.708354,1970.14083 C955.815298,1969.98805 955.876409,1969.78944 955.876409,1969.545 C955.876409,1969.48388 955.952797,1969.43805 956.120852,1969.43805 Z M959.49723,1969.6825 C960.230561,1969.78944 960.612504,1970.11027 960.673615,1970.66027 C960.673615,1971.83665 960.581949,1972.72276 960.413894,1973.33387 C960.215283,1974.12831 960.047228,1974.51026 959.925006,1974.51026 C959.558341,1974.51026 959.344453,1974.38804 959.283342,1974.12831 C959.268064,1974.15887 959.252786,1974.15887 959.237509,1974.15887 C958.534733,1974.14359 958.183345,1973.99081 958.168068,1973.68526 C958.168068,1973.63943 958.244456,1973.59359 958.397234,1973.56304 C958.534733,1973.53248 958.702788,1973.48665 958.901399,1973.39498 C959.084731,1973.33387 959.252786,1973.28804 959.405564,1973.25748 C959.436119,1973.10471 959.466675,1972.93665 959.512508,1972.78387 C959.543063,1972.60054 959.558341,1972.43249 959.588896,1972.26443 C959.543063,1972.29499 959.512508,1972.29499 959.481952,1972.29499 C959.420841,1972.31026 959.35973,1972.32554 959.29862,1972.32554 C958.6264,1972.31026 958.29029,1972.15749 958.275012,1971.86721 C958.275012,1971.83665 958.3514,1971.8061 958.519455,1971.77554 C958.672233,1971.74499 958.855565,1971.69916 959.069454,1971.63804 C959.313897,1971.57693 959.512508,1971.54638 959.680563,1971.51582 C959.69584,1971.27138 959.711118,1971.07277 959.711118,1970.91999 C959.711118,1970.61444 959.588896,1970.44638 959.344453,1970.44638 C959.222231,1970.47694 959.115287,1970.47694 959.008343,1970.47694 C958.580566,1970.46166 958.366678,1970.40055 958.366678,1970.30888 C958.366678,1970.14083 958.534733,1969.97277 958.886121,1969.81999 C959.02362,1969.75888 959.222231,1969.71305 959.49723,1969.6825 Z" transform="translate(-901 -1968)"/>
</svg>
