<svg xmlns="http://www.w3.org/2000/svg" width="61" height="13" viewBox="0 0 61 13">
  <path fill="#4A4A4A" fill-rule="evenodd" d="M221.908356,3 C220.884097,3 220.03504,3.22911051 219.361186,3.68733154 C218.6469,4.17250674 218.296496,4.8328841 218.296496,5.6819407 C218.296496,6.51752022 218.660377,7.16442049 219.401617,7.60916442 C219.698113,7.77088949 220.425876,8.02695418 221.61186,8.40431267 C222.67655,8.7277628 223.309973,8.94339623 223.525606,9.05121294 C224.132075,9.36118598 224.442049,9.77897574 224.442049,10.3180593 C224.442049,10.7493261 224.226415,11.0862534 223.795148,11.328841 C223.363881,11.5714286 222.784367,11.7061995 222.056604,11.7061995 C221.247978,11.7061995 220.654987,11.5579515 220.264151,11.2614555 C219.832884,10.9380054 219.563342,10.3854447 219.455526,9.63072776 L218,9.63072776 C218.080863,10.8436658 218.512129,11.7331536 219.307278,12.2991914 C219.967655,12.7574124 220.884097,13 222.056604,13 C223.269542,13 224.212938,12.7574124 224.886792,12.2722372 C225.560647,11.7735849 225.897574,11.0997305 225.897574,10.2371968 C225.897574,9.34770889 225.479784,8.66037736 224.657682,8.16172507 C224.280323,7.93261456 223.431267,7.62264151 222.137466,7.21832884 C221.234501,6.94878706 220.681941,6.74663073 220.466307,6.62533693 C219.981132,6.36927224 219.752022,6.03234501 219.752022,5.60107817 C219.752022,5.11590296 219.954178,4.76549865 220.371968,4.54986523 C220.708895,4.36118598 221.19407,4.26684636 221.827493,4.26684636 C222.555256,4.26684636 223.09434,4.40161725 223.471698,4.68463612 C223.849057,4.9541779 224.091644,5.41239892 224.226415,6.03234501 L225.681941,6.03234501 C225.587601,4.98113208 225.210243,4.21293801 224.536388,3.71428571 C223.902965,3.22911051 223.026954,3 221.908356,3 Z M230.075472,5.65498652 C231.207547,5.65498652 232.083558,6.03234501 232.67655,6.81401617 C233.215633,7.5148248 233.498652,8.4851752 233.512129,9.72506739 L228.229111,9.72506739 C228.283019,10.3989218 228.458221,10.9245283 228.781671,11.2884097 C229.105121,11.638814 229.549865,11.8274933 230.115903,11.8274933 C230.614555,11.8274933 231.018868,11.7061995 231.328841,11.4770889 C231.571429,11.2884097 231.773585,10.9784367 231.962264,10.574124 L233.390836,10.574124 C233.229111,11.2210243 232.919137,11.7735849 232.433962,12.2048518 C231.827493,12.7304582 231.059299,13 230.12938,13 C229.105121,13 228.283019,12.6765499 227.690027,12.0431267 C227.043127,11.3692722 226.719677,10.4663073 226.719677,9.32075472 C226.719677,8.28301887 227.016173,7.42048518 227.636119,6.71967655 C228.229111,6.00539084 229.051213,5.65498652 230.075472,5.65498652 Z M230.115903,6.82749326 C229.576819,6.82749326 229.15903,6.97574124 228.83558,7.29919137 C228.539084,7.60916442 228.336927,8.05390836 228.256065,8.64690027 L232.016173,8.64690027 C231.881402,7.43396226 231.247978,6.82749326 230.115903,6.82749326 Z M234.886792,3 L234.886792,12.8113208 L236.315364,12.8113208 L236.315364,3 L234.886792,3 Z M241.045822,5.65498652 C242.177898,5.65498652 243.053908,6.03234501 243.6469,6.81401617 C244.185984,7.5148248 244.469003,8.4851752 244.48248,9.72506739 L239.199461,9.72506739 C239.253369,10.3989218 239.428571,10.9245283 239.752022,11.2884097 C240.075472,11.638814 240.520216,11.8274933 241.086253,11.8274933 C241.584906,11.8274933 241.989218,11.7061995 242.299191,11.4770889 C242.541779,11.2884097 242.743935,10.9784367 242.932615,10.574124 L244.361186,10.574124 C244.199461,11.2210243 243.889488,11.7735849 243.404313,12.2048518 C242.797844,12.7304582 242.02965,13 241.09973,13 C240.075472,13 239.253369,12.6765499 238.660377,12.0431267 C238.013477,11.3692722 237.690027,10.4663073 237.690027,9.32075472 C237.690027,8.28301887 237.986523,7.42048518 238.606469,6.71967655 C239.199461,6.00539084 240.021563,5.65498652 241.045822,5.65498652 Z M241.086253,6.82749326 C240.54717,6.82749326 240.12938,6.97574124 239.80593,7.29919137 C239.509434,7.60916442 239.307278,8.05390836 239.226415,8.64690027 L242.986523,8.64690027 C242.851752,7.43396226 242.218329,6.82749326 241.086253,6.82749326 Z M248.795148,5.65498652 C247.716981,5.65498652 246.881402,6.01886792 246.274933,6.74663073 C245.708895,7.42048518 245.425876,8.28301887 245.425876,9.33423181 C245.425876,10.4123989 245.708895,11.2749326 246.28841,11.9487871 C246.881402,12.6495957 247.703504,13 248.768194,13 C249.657682,13 250.385445,12.7708895 250.924528,12.3261456 C251.463612,11.8679245 251.827493,11.1671159 251.989218,10.2371968 L250.574124,10.2371968 C250.439353,11.2884097 249.846361,11.8274933 248.781671,11.8274933 C248.161725,11.8274933 247.703504,11.5983827 247.393531,11.1671159 C247.056604,10.722372 246.894879,10.1024259 246.894879,9.32075472 C246.894879,8.53908356 247.056604,7.91913747 247.407008,7.48787062 C247.743935,7.04312668 248.202156,6.82749326 248.795148,6.82749326 C249.280323,6.82749326 249.671159,6.93530997 249.967655,7.16442049 C250.264151,7.38005391 250.45283,7.73045822 250.54717,8.20215633 L251.962264,8.20215633 C251.827493,7.33962264 251.477089,6.69272237 250.938005,6.26145553 C250.398922,5.85714286 249.684636,5.65498652 248.795148,5.65498652 Z M255.331536,3.59299191 L253.902965,4.18598383 L253.902965,5.84366577 L252.609164,5.84366577 L252.609164,7.0296496 L253.902965,7.0296496 L253.902965,11.0727763 C253.902965,11.6253369 254.024259,12.0431267 254.293801,12.3396226 C254.563342,12.6495957 255.008086,12.8113208 255.601078,12.8113208 L256.746631,12.8113208 L256.746631,11.6253369 L255.830189,11.6253369 C255.654987,11.6253369 255.533693,11.5714286 255.45283,11.490566 C255.371968,11.3962264 255.331536,11.2614555 255.331536,11.0727763 L255.331536,7.0296496 L256.921833,7.0296496 L256.921833,5.84366577 L255.331536,5.84366577 L255.331536,3.59299191 Z M259.078167,3.05390836 C258.795148,3.05390836 258.566038,3.13477089 258.377358,3.32345013 C258.188679,3.49865229 258.09434,3.7277628 258.09434,4.01078167 C258.09434,4.28032345 258.188679,4.52291105 258.377358,4.7115903 C258.566038,4.88679245 258.795148,4.98113208 259.078167,4.98113208 C259.347709,4.98113208 259.590296,4.88679245 259.778976,4.7115903 C259.967655,4.52291105 260.075472,4.29380054 260.075472,4.01078167 C260.075472,3.7277628 259.981132,3.49865229 259.792453,3.32345013 C259.603774,3.13477089 259.361186,3.05390836 259.078167,3.05390836 Z M258.363881,5.84366577 L258.363881,12.8113208 L259.792453,12.8113208 L259.792453,5.84366577 L258.363881,5.84366577 Z M264.927224,5.65498652 C265.978437,5.65498652 266.827493,6.00539084 267.460916,6.70619946 C268.080863,7.393531 268.404313,8.26954178 268.404313,9.33423181 C268.404313,10.3854447 268.09434,11.2614555 267.474394,11.93531 C266.827493,12.6361186 265.978437,13 264.927224,13 C263.876011,13 263.026954,12.6361186 262.380054,11.93531 C261.760108,11.2614555 261.450135,10.3854447 261.450135,9.33423181 C261.450135,8.26954178 261.760108,7.393531 262.393531,6.70619946 C263.026954,6.00539084 263.876011,5.65498652 264.927224,5.65498652 Z M264.927224,6.82749326 C264.266846,6.82749326 263.754717,7.08355795 263.390836,7.60916442 C263.067385,8.05390836 262.919137,8.63342318 262.919137,9.33423181 C262.919137,10.0350404 263.067385,10.6010782 263.390836,11.0458221 C263.754717,11.5579515 264.266846,11.8274933 264.927224,11.8274933 C265.587601,11.8274933 266.09973,11.5579515 266.477089,11.0458221 C266.800539,10.5876011 266.962264,10.0215633 266.962264,9.33423181 C266.962264,8.63342318 266.800539,8.05390836 266.477089,7.60916442 C266.09973,7.08355795 265.587601,6.82749326 264.927224,6.82749326 Z M273.296496,5.65498652 C272.865229,5.65498652 272.474394,5.73584906 272.123989,5.9245283 C271.773585,6.09973046 271.463612,6.35579515 271.19407,6.70619946 L271.19407,5.84366577 L269.765499,5.84366577 L269.765499,12.8113208 L271.19407,12.8113208 L271.19407,8.61994609 C271.247978,8.05390836 271.450135,7.60916442 271.773585,7.28571429 C272.070081,6.98921833 272.433962,6.85444744 272.838275,6.85444744 C273.916442,6.85444744 274.469003,7.44743935 274.469003,8.63342318 L274.469003,12.8113208 L275.897574,12.8113208 L275.897574,8.51212938 C275.897574,6.59838275 275.021563,5.65498652 273.296496,5.65498652 Z" transform="translate(-216 -1)"/>
</svg>
