<svg xmlns="http://www.w3.org/2000/svg" width="61" height="13" viewBox="0 0 61 13">
  <path fill="#4A4A4A" fill-rule="evenodd" d="M16,3 L19.5164835,12.8076923 L21.3296703,12.8076923 L24.8461538,3 L23.2252747,3 L20.4505495,11.1318681 L20.4093407,11.1318681 L17.6208791,3 L16,3 Z M29.0082418,5.51373626 C30.0796703,5.51373626 30.9450549,5.87087912 31.5906593,6.58516484 C32.2225275,7.28571429 32.5521978,8.17857143 32.5521978,9.26373626 C32.5521978,10.3351648 32.2362637,11.228022 31.6043956,11.9148352 C30.9450549,12.6291209 30.0796703,13 29.0082418,13 C27.9368132,13 27.0714286,12.6291209 26.4120879,11.9148352 C25.7802198,11.228022 25.4642857,10.3351648 25.4642857,9.26373626 C25.4642857,8.17857143 25.7802198,7.28571429 26.4258242,6.58516484 C27.0714286,5.87087912 27.9368132,5.51373626 29.0082418,5.51373626 Z M29.0082418,6.70879121 C28.3351648,6.70879121 27.8131868,6.96978022 27.4423077,7.50549451 C27.1126374,7.95879121 26.9615385,8.54945055 26.9615385,9.26373626 C26.9615385,9.97802198 27.1126374,10.5549451 27.4423077,11.0082418 C27.8131868,11.5302198 28.3351648,11.8049451 29.0082418,11.8049451 C29.6813187,11.8049451 30.2032967,11.5302198 30.5879121,11.0082418 C30.9175824,10.5412088 31.0824176,9.96428571 31.0824176,9.26373626 C31.0824176,8.54945055 30.9175824,7.95879121 30.5879121,7.50549451 C30.2032967,6.96978022 29.6813187,6.70879121 29.0082418,6.70879121 Z M36.0961538,3.41208791 L34.6401099,4.01648352 L34.6401099,5.70604396 L33.3214286,5.70604396 L33.3214286,6.91483516 L34.6401099,6.91483516 L34.6401099,11.0357143 C34.6401099,11.5989011 34.7637363,12.0247253 35.0384615,12.3269231 C35.3131868,12.6428571 35.7664835,12.8076923 36.3708791,12.8076923 L37.5384615,12.8076923 L37.5384615,11.5989011 L36.6043956,11.5989011 C36.4258242,11.5989011 36.3021978,11.543956 36.2197802,11.4615385 C36.1373626,11.3653846 36.0961538,11.228022 36.0961538,11.0357143 L36.0961538,6.91483516 L37.717033,6.91483516 L37.717033,5.70604396 L36.0961538,5.70604396 L36.0961538,3.41208791 Z M41.8928571,5.51373626 C43.0467033,5.51373626 43.9395604,5.89835165 44.543956,6.69505495 C45.0934066,7.40934066 45.3818681,8.39835165 45.3956044,9.66208791 L40.010989,9.66208791 C40.0659341,10.3489011 40.2445055,10.8846154 40.5741758,11.2554945 C40.9038462,11.6126374 41.3571429,11.8049451 41.9340659,11.8049451 C42.4423077,11.8049451 42.8543956,11.6813187 43.1703297,11.4478022 C43.4175824,11.2554945 43.6236264,10.9395604 43.8159341,10.5274725 L45.271978,10.5274725 C45.1071429,11.1868132 44.7912088,11.75 44.2967033,12.1895604 C43.6785714,12.7252747 42.8956044,13 41.9478022,13 C40.9038462,13 40.0659341,12.6703297 39.4615385,12.0247253 C38.8021978,11.3379121 38.4725275,10.4175824 38.4725275,9.25 C38.4725275,8.19230769 38.7747253,7.31318681 39.4065934,6.5989011 C40.010989,5.87087912 40.8489011,5.51373626 41.8928571,5.51373626 Z M41.9340659,6.70879121 C41.3846154,6.70879121 40.9587912,6.85989011 40.6291209,7.18956044 C40.3269231,7.50549451 40.1208791,7.95879121 40.0384615,8.56318681 L43.8708791,8.56318681 C43.7335165,7.32692308 43.0879121,6.70879121 41.9340659,6.70879121 Z" transform="translate(0 -1)"/>
</svg>
