<svg xmlns="http://www.w3.org/2000/svg" width="61" height="12" viewBox="0 0 61 12">
  <path fill="#4A4A4A" fill-rule="evenodd" d="M512.082397,1969.47683 C511.490068,1969.47683 511.110369,1969.56795 510.95849,1969.73502 C511.24706,1970.37291 511.717887,1970.7678 512.370968,1970.90449 C512.811419,1970.90449 513.039238,1970.72224 513.039238,1970.32735 C513.008862,1969.84134 512.689915,1969.56795 512.082397,1969.47683 Z M513.236681,1971.28419 C513.54044,1971.28419 513.692319,1971.46645 513.692319,1971.83096 C513.692319,1971.99802 513.601192,1972.11953 513.449312,1972.18028 C513.145553,1972.30178 512.735479,1972.37772 512.249465,1972.39291 C511.854578,1972.48404 511.490068,1972.55998 511.155933,1972.63592 C510.032025,1972.93968 509.272628,1973.10674 508.892929,1973.12193 C508.376539,1973.12193 508.042405,1972.93968 507.905713,1972.57517 C507.844961,1972.4081 507.936089,1972.31697 508.14872,1972.31697 C508.270224,1972.31697 508.406915,1972.33216 508.528419,1972.34735 C508.953681,1972.34735 509.864958,1972.11953 511.292624,1971.6487 C511.930518,1971.40569 512.583599,1971.28419 513.236681,1971.28419 Z M512.522848,1973.01562 C512.796231,1973.01562 512.94811,1973.15231 512.94811,1973.39532 C512.94811,1974.00283 512.264653,1974.2914 510.912926,1974.2914 C510.305408,1974.23065 509.956085,1974.09396 509.864958,1973.85095 C509.880146,1973.83577 509.910522,1973.80539 509.971273,1973.75983 C510.88255,1973.44088 511.733075,1973.19787 512.522848,1973.01562 Z M512.522848,1974.45847 C511.793826,1974.62554 510.988865,1974.86855 510.123153,1975.1723 C510.062401,1975.21787 510.016837,1975.24824 510.016837,1975.26343 C510.107965,1975.50644 510.457287,1975.64313 511.064805,1975.70388 C512.310216,1975.70388 512.94811,1975.41531 512.94811,1974.83817 C512.94811,1974.59516 512.796231,1974.45847 512.522848,1974.45847 Z M509.834582,1976.85817 C510.107965,1976.85817 510.36616,1977.13155 510.639543,1977.64794 C510.669919,1977.92132 510.73067,1978.17952 510.791422,1978.42252 C510.791422,1978.46809 510.80661,1978.49846 510.821798,1978.52884 C511.034429,1978.46809 511.338188,1978.40734 511.702699,1978.31621 C511.83939,1978.28583 511.960894,1978.25546 512.067209,1978.22508 C512.097585,1978.10358 512.143149,1977.98207 512.203901,1977.83019 C512.279841,1977.61756 512.325404,1977.34418 512.325404,1977.02523 C512.310216,1976.90373 512.249465,1976.82779 512.158337,1976.82779 C512.036834,1976.85817 511.900142,1976.88854 511.748263,1976.94929 C511.626759,1977.02523 511.490068,1977.05561 511.368564,1977.05561 C510.669919,1977.05561 510.320596,1976.90373 510.320596,1976.61516 C510.320596,1976.52403 510.563603,1976.40253 511.049617,1976.26584 C511.47488,1976.11396 511.83939,1976.03802 512.143149,1976.02283 C512.993674,1976.11396 513.449312,1976.4329 513.494876,1976.97967 C513.494876,1977.37456 513.358185,1977.75425 513.115177,1978.08839 C513.084802,1978.14914 513.054426,1978.20989 513.02405,1978.24027 C513.130365,1978.31621 513.191117,1978.42252 513.191117,1978.5744 C513.145553,1978.78704 512.993674,1978.89335 512.720291,1978.92373 C511.960894,1979.06042 511.444504,1979.13636 511.201497,1979.15155 C511.079993,1979.15155 510.973678,1979.15155 510.88255,1979.13636 C510.852174,1979.31861 510.761046,1979.42493 510.624355,1979.42493 C510.411724,1979.42493 510.21428,1979.28824 510.001649,1979.01485 C509.804206,1978.75666 509.682702,1978.42252 509.621951,1977.99726 C509.621951,1977.29862 509.682702,1976.91892 509.834582,1976.85817 Z M516.335021,1971.05637 C516.745096,1971.10194 516.957727,1971.29938 516.957727,1971.66389 C516.881787,1971.81577 516.851411,1972.01321 516.851411,1972.25622 C516.866599,1973.09156 516.881787,1973.91171 516.912163,1974.71667 C517.7475,1974.56479 518.430957,1974.47366 518.962535,1974.44328 C519.615617,1974.44328 519.949752,1974.6711 519.949752,1975.09636 C519.949752,1975.38494 519.767496,1975.52163 519.402986,1975.52163 C518.795468,1975.52163 518.142386,1975.56719 517.413365,1975.65832 C517.246298,1975.68869 517.094418,1975.71907 516.942539,1975.73426 C516.942539,1976.46328 516.957727,1977.17711 516.988103,1977.87576 C516.988103,1979.835 516.805847,1980.80703 516.471713,1980.80703 C516.092014,1980.80703 515.909759,1980.24508 515.909759,1979.12117 C515.940135,1978.02764 515.970511,1976.94929 516.000887,1975.88614 C515.271865,1975.99245 514.709911,1976.05321 514.315025,1976.05321 C513.753071,1976.03802 513.38856,1975.91651 513.236681,1975.70388 C513.236681,1975.62794 513.403748,1975.552 513.753071,1975.46088 C514.603596,1975.23306 515.362993,1975.0508 516.031262,1974.89892 C516.04645,1973.92689 516.076826,1972.93968 516.107202,1971.96765 C516.107202,1971.72464 516.016074,1971.5272 515.864195,1971.39051 C515.924947,1971.20825 516.092014,1971.10194 516.335021,1971.05637 Z M517.853816,1969.56795 C517.474117,1969.59833 516.988103,1969.67427 516.380585,1969.82615 C515.044046,1970.12991 514.345401,1970.34254 514.269461,1970.46404 C514.330213,1970.82855 514.740287,1971.01081 515.499684,1971.01081 C515.879383,1970.98043 516.684344,1970.84374 517.914567,1970.60073 C518.279078,1970.57036 518.476521,1970.41848 518.522085,1970.1451 C518.522085,1969.81096 518.294266,1969.61352 517.853816,1969.56795 Z M515.438933,1972.2866 C515.53006,1972.2866 515.590812,1972.39291 515.590812,1972.57517 C515.575624,1972.86374 515.469309,1973.15231 515.271865,1973.42569 C515.059234,1973.69907 514.831415,1973.83577 514.57322,1973.86614 C514.072018,1973.83577 513.798635,1973.53201 513.768259,1972.95487 C513.768259,1972.81817 513.829011,1972.74223 513.950514,1972.74223 C514.087206,1972.74223 514.239085,1972.75742 514.42134,1972.77261 C514.755475,1972.72705 515.08961,1972.55998 515.438933,1972.2866 Z M518.33983,1971.45126 C518.962535,1971.48163 519.281482,1971.69427 519.281482,1972.05878 C519.266294,1972.4081 518.977723,1972.84855 518.400581,1973.36494 C518.036071,1973.69907 517.67156,1973.88133 517.30705,1973.91171 C517.139982,1973.91171 517.064043,1973.86614 517.064043,1973.77501 C517.064043,1973.71426 517.109606,1973.63832 517.23111,1973.51682 C517.686748,1972.81817 517.944943,1972.24103 518.005695,1971.78539 C518.005695,1971.72464 517.990507,1971.6487 517.975319,1971.57276 C517.990507,1971.49682 518.112011,1971.45126 518.33983,1971.45126 Z M530.253686,1969.5072 C530.891579,1969.5072 531.210526,1969.73502 531.210526,1970.16028 C531.210526,1970.40329 531.119398,1970.67667 530.937143,1970.96524 C530.952331,1971.01081 530.967519,1971.05637 530.967519,1971.10194 C530.937143,1971.269 530.800451,1971.36013 530.58782,1971.37532 C530.086618,1971.46645 529.752483,1971.51201 529.600604,1971.5272 C529.448725,1971.5272 529.342409,1971.5272 529.266469,1971.49682 L529.266469,1971.63351 C529.266469,1972.08915 529.418349,1972.31697 529.722108,1972.31697 C530.420753,1972.2866 530.770076,1972.1499 530.770076,1971.89171 C530.785264,1971.61833 530.830827,1971.46645 530.906767,1971.46645 C531.286466,1971.58795 531.499097,1971.81577 531.529473,1972.13472 C531.529473,1972.68148 530.952331,1972.95487 529.798047,1972.98524 C528.932335,1972.97005 528.507072,1972.54479 528.507072,1971.70945 C528.537448,1971.269 528.583012,1970.8893 528.643764,1970.57036 C528.643764,1970.28179 528.583012,1970.08434 528.476696,1969.96284 C528.476696,1969.90209 528.52226,1969.85652 528.613388,1969.85652 C528.734891,1969.85652 528.826019,1969.90209 528.917147,1969.97803 C529.03865,1969.8869 529.205717,1969.81096 529.418349,1969.71983 C529.722108,1969.58314 530.010678,1969.5072 530.253686,1969.5072 Z M529.19053,1970.3881 C529.220905,1970.43367 529.251281,1970.6463 529.266469,1971.026 C529.418349,1970.98043 529.615792,1970.93487 529.858799,1970.87412 C529.980303,1970.84374 530.086618,1970.82855 530.192934,1970.79818 C530.22331,1970.70705 530.253686,1970.61592 530.268873,1970.49442 C530.268873,1970.31216 530.208122,1970.22104 530.086618,1970.19066 C529.691732,1970.31216 529.433537,1970.3881 529.342409,1970.3881 L529.19053,1970.3881 Z M533.367214,1969.006 C534.005107,1969.006 534.324054,1969.23382 534.324054,1969.67427 C534.324054,1969.96284 534.172175,1970.28179 533.898792,1970.6463 C533.898792,1970.69186 533.91398,1970.72224 533.91398,1970.73743 C533.883604,1970.90449 533.7621,1970.99562 533.549469,1971.026 C533.078643,1971.11712 532.774884,1971.17788 532.623005,1971.17788 C532.486313,1971.17788 532.379997,1971.17788 532.304058,1971.1475 L532.304058,1971.269 C532.304058,1971.69427 532.486313,1971.9069 532.8812,1971.9069 C533.7621,1971.89171 534.202551,1971.72464 534.202551,1971.39051 C534.217739,1971.08675 534.263302,1970.91968 534.35443,1970.91968 C534.79488,1971.05637 535.037887,1971.31457 535.083451,1971.69427 C535.083451,1972.33216 534.369618,1972.65111 532.957139,1972.68148 C531.985111,1972.66629 531.499097,1972.21066 531.499097,1971.32976 C531.529473,1970.87412 531.575037,1970.47923 531.635788,1970.1451 C531.635788,1969.84134 531.575037,1969.62871 531.468721,1969.5072 C531.468721,1969.43126 531.514285,1969.3857 531.6206,1969.3857 C531.742104,1969.3857 531.848419,1969.43126 531.939547,1969.52239 C532.061051,1969.43126 532.258494,1969.34013 532.516689,1969.21863 C532.820448,1969.08194 533.109019,1969.006 533.367214,1969.006 Z M532.197742,1969.90209 C532.21293,1969.93246 532.228118,1969.94765 532.228118,1969.94765 C532.258494,1969.99322 532.28887,1970.23622 532.304058,1970.67667 C532.455937,1970.63111 532.623005,1970.58555 532.835636,1970.52479 C532.987515,1970.49442 533.109019,1970.46404 533.230522,1970.43367 C533.306462,1970.29698 533.352026,1970.16028 533.382402,1970.0084 C533.382402,1969.82615 533.32165,1969.73502 533.200146,1969.70465 C532.790072,1969.82615 532.531877,1969.90209 532.425561,1969.90209 L532.197742,1969.90209 Z M531.013083,1976.8126 C531.10421,1976.8126 531.149774,1976.90373 531.149774,1977.08599 C531.119398,1977.35937 530.997895,1977.64794 530.754888,1977.92132 C530.511881,1978.19471 530.22331,1978.3314 529.919551,1978.34658 C529.433537,1978.31621 529.19053,1978.02764 529.160154,1977.49606 C529.160154,1977.35937 529.205717,1977.28343 529.327221,1977.28343 C529.463913,1977.28343 529.615792,1977.29862 529.767671,1977.3138 C530.162558,1977.28343 530.58782,1977.11636 531.013083,1976.8126 Z M532.577441,1972.80299 C533.063455,1972.83336 533.32165,1973.09156 533.352026,1973.54719 C533.336838,1973.57757 533.32165,1973.60795 533.32165,1973.63832 C533.595033,1973.60795 533.853228,1973.59276 534.065859,1973.57757 C534.399994,1973.60795 534.582249,1973.75983 534.582249,1974.01802 C534.536685,1974.23065 534.384806,1974.33697 534.111423,1974.36734 C533.746912,1974.4281 533.412778,1974.47366 533.093831,1974.50404 C533.002703,1974.77742 532.926763,1975.06599 532.835636,1975.33937 C533.534281,1975.24824 534.126611,1975.20268 534.612625,1975.18749 C535.159391,1975.18749 535.432774,1975.36975 535.432774,1975.73426 C535.432774,1975.97727 535.280895,1976.09877 534.977136,1976.09877 C534.263302,1976.09877 533.473529,1976.14433 532.607817,1976.20508 C530.937143,1976.44809 529.70692,1976.5696 528.947522,1976.5696 C528.476696,1976.5696 528.172937,1976.47847 528.051434,1976.29621 C528.051434,1976.23546 528.188125,1976.15952 528.491884,1976.08358 C529.129778,1975.96208 529.737295,1975.84057 530.314437,1975.73426 C530.22331,1975.52163 530.14737,1975.24824 530.056242,1974.89892 C529.843611,1974.9293 529.661356,1974.94449 529.539852,1974.94449 C528.96271,1974.94449 528.643764,1974.80779 528.613388,1974.51922 C528.674139,1974.44328 529.099402,1974.32178 529.873987,1974.1699 C529.813235,1973.95727 529.752483,1973.69907 529.691732,1973.42569 C529.691732,1973.36494 529.782859,1973.31938 529.980303,1973.31938 C530.329625,1973.31938 530.572632,1973.50163 530.694136,1973.85095 C530.724512,1973.91171 530.7397,1973.95727 530.770076,1974.01802 C531.089022,1973.97246 531.438345,1973.91171 531.818044,1973.85095 C531.969923,1973.82058 532.121802,1973.80539 532.258494,1973.77501 C532.258494,1973.69907 532.273682,1973.62313 532.273682,1973.56238 C532.273682,1973.38013 532.197742,1973.22825 532.045863,1973.07637 C532.045863,1972.89411 532.21293,1972.80299 532.577441,1972.80299 Z M532.197742,1974.64073 C531.69654,1974.71667 531.271278,1974.77742 530.906767,1974.80779 C530.906767,1975.02043 530.921955,1975.24824 530.937143,1975.49125 C530.921955,1975.552 530.906767,1975.59757 530.906767,1975.62794 C531.316842,1975.56719 531.69654,1975.50644 532.061051,1975.44569 C532.121802,1975.1723 532.167366,1974.89892 532.197742,1974.64073 Z M526.563015,1970.19066 C526.001062,1970.19066 525.636551,1970.28179 525.469484,1970.43367 C525.758055,1971.1475 526.228881,1971.58795 526.89715,1971.73983 C527.276849,1971.73983 527.474292,1971.57276 527.474292,1971.22344 C527.443916,1970.6463 527.140157,1970.31216 526.563015,1970.19066 Z M525.94031,1972.43848 C525.34798,1972.43848 524.968282,1972.51441 524.786026,1972.65111 C525.104973,1973.38013 525.636551,1973.83577 526.365572,1973.98765 C526.730083,1973.98765 526.912338,1973.83577 526.912338,1973.50163 C526.866774,1972.9093 526.547828,1972.55998 525.94031,1972.43848 Z M525.332792,1974.77742 C526.137753,1974.86855 526.547828,1975.18749 526.547828,1975.76463 C526.502264,1975.90133 526.4567,1976.05321 526.426324,1976.20508 C526.4567,1976.41772 526.593391,1976.59997 526.82121,1976.73666 C527.216097,1976.91892 527.41354,1977.17711 527.41354,1977.52644 C527.398352,1977.6935 527.367976,1977.84538 527.322413,1977.98207 C527.656547,1978.02764 528.264065,1978.20989 529.160154,1978.51365 C530.633384,1978.9541 532.015487,1979.16673 533.291274,1979.16673 C534.460746,1979.16673 535.447962,1979.13636 536.268111,1979.04523 C536.374426,1979.09079 536.435178,1979.18192 536.435178,1979.30343 C536.359238,1979.68312 536.025104,1980.04763 535.447962,1980.38177 C535.053075,1980.62478 534.597437,1980.76147 534.081047,1980.76147 C533.017891,1980.76147 531.240902,1980.22989 528.750079,1979.19711 C527.838803,1978.80222 527.261661,1978.5744 527.003466,1978.54403 L527.003466,1978.55922 C526.638955,1979.03004 526.289633,1979.28824 525.94031,1979.31861 C525.606175,1979.28824 525.439108,1979.15155 525.42392,1978.93891 C525.42392,1978.60478 525.651739,1978.36177 526.137753,1978.17952 C526.335196,1978.08839 526.441512,1977.96689 526.441512,1977.78463 C526.411136,1977.49606 526.274445,1977.29862 526.01625,1977.17711 C525.682115,1976.99486 525.515047,1976.75185 525.499859,1976.44809 C525.515047,1976.29621 525.530235,1976.14433 525.560611,1975.99245 C525.560611,1975.8102 525.469484,1975.64313 525.302416,1975.49125 C524.968282,1975.41531 524.786026,1975.29381 524.740462,1975.14193 C524.75565,1974.94449 524.953094,1974.82298 525.332792,1974.77742 Z M533.458341,1976.73666 C534.005107,1976.82779 534.308866,1977.13155 534.339242,1977.64794 C534.339242,1977.96689 534.156987,1978.11877 533.792476,1978.11877 C533.154583,1977.98207 532.683756,1977.58719 532.395185,1976.94929 C532.547065,1976.8126 532.911575,1976.73666 533.458341,1976.73666 Z M544.369793,1969.64389 C545.022875,1969.73502 545.372197,1970.03878 545.402573,1970.55517 C545.402573,1970.93487 545.174754,1971.11712 544.749492,1971.11712 C544.005282,1970.98043 543.473704,1970.57036 543.13957,1969.90209 C543.321825,1969.73502 543.731899,1969.64389 544.369793,1969.64389 Z M545.402573,1971.40569 C545.706332,1971.40569 545.873399,1971.58795 545.873399,1971.95246 C545.873399,1972.11953 545.782272,1972.24103 545.630392,1972.30178 C545.326633,1972.42329 544.916559,1972.49923 544.430545,1972.51441 C544.035658,1972.60554 543.671148,1972.68148 543.337013,1972.75742 C542.213105,1973.06118 541.453708,1973.22825 541.074009,1973.24344 C540.572807,1973.24344 540.253861,1973.07637 540.117169,1972.71186 C540.056417,1972.55998 540.132357,1972.46885 540.344988,1972.46885 C540.466492,1972.46885 540.603183,1972.48404 540.724687,1972.48404 C541.149949,1972.48404 542.061226,1972.25622 543.473704,1971.77021 C544.111598,1971.5272 544.76468,1971.40569 545.402573,1971.40569 Z M544.719116,1973.12193 C544.992499,1973.12193 545.12919,1973.25862 545.12919,1973.50163 C545.12919,1974.09396 544.445733,1974.38253 543.078818,1974.38253 C542.501676,1974.32178 542.152353,1974.18509 542.061226,1973.94208 C542.076414,1973.94208 542.10679,1973.91171 542.167541,1973.85095 C543.078818,1973.53201 543.929343,1973.289 544.719116,1973.12193 Z M544.719116,1974.5496 C544.992499,1974.5496 545.12919,1974.68629 545.12919,1974.9293 C545.12919,1975.49125 544.491297,1975.76463 543.215509,1975.76463 C542.62318,1975.71907 542.289045,1975.58238 542.197917,1975.33937 C542.197917,1975.32418 542.243481,1975.29381 542.304233,1975.24824 C543.169946,1974.94449 543.974907,1974.71667 544.719116,1974.5496 Z M542.03085,1976.90373 C542.289045,1976.90373 542.54724,1977.17711 542.820623,1977.6935 C542.850999,1977.9517 542.911751,1978.20989 542.972502,1978.4529 C543.002878,1978.52884 543.018066,1978.58959 543.033254,1978.61997 C543.261073,1978.55922 543.564832,1978.49846 543.929343,1978.42252 C544.050846,1978.39215 544.141974,1978.37696 544.233102,1978.36177 C544.233102,1978.20989 544.293853,1978.04283 544.384981,1977.86057 C544.460921,1977.64794 544.506485,1977.38974 544.506485,1977.08599 C544.491297,1976.96448 544.445733,1976.88854 544.354605,1976.88854 C544.233102,1976.91892 544.081222,1976.94929 543.929343,1976.99486 C543.807839,1977.08599 543.686336,1977.11636 543.564832,1977.11636 C542.866187,1977.10117 542.516864,1976.94929 542.516864,1976.67591 C542.516864,1976.58478 542.759871,1976.46328 543.245885,1976.32659 C543.671148,1976.1899 544.035658,1976.11396 544.339417,1976.09877 C545.174754,1976.17471 545.615204,1976.49366 545.660768,1977.04042 C545.660768,1977.42012 545.524077,1977.78463 545.28107,1978.11877 C545.235506,1978.19471 545.189942,1978.25546 545.159566,1978.31621 C545.341821,1978.39215 545.432949,1978.51365 545.432949,1978.68072 C545.402573,1978.89335 545.250694,1978.99967 544.992499,1979.03004 C544.17235,1979.15155 543.640772,1979.2123 543.397765,1979.22749 C543.245885,1979.22749 543.13957,1979.22749 543.06363,1979.2123 C543.018066,1979.36418 542.942126,1979.44012 542.820623,1979.44012 C542.607992,1979.44012 542.410548,1979.30343 542.197917,1979.03004 C542.000474,1978.78704 541.87897,1978.4529 541.818219,1978.04283 C541.818219,1977.34418 541.87897,1976.96448 542.03085,1976.90373 Z M549.427378,1972.46885 C549.837452,1972.51441 550.141211,1972.60554 550.323467,1972.72705 C550.247527,1972.59035 550.171587,1972.43848 550.110835,1972.25622 C549.41219,1970.75261 548.941364,1969.90209 548.698357,1969.68946 C548.485725,1969.68946 548.37941,1969.65908 548.364222,1969.56795 C548.37941,1969.34013 548.561665,1969.21863 548.910988,1969.21863 C549.275498,1969.34013 549.715949,1969.84134 550.217151,1970.70705 C551.006924,1971.86133 551.720757,1972.45366 552.389027,1972.49923 C552.480154,1972.5296 552.525718,1972.57517 552.525718,1972.63592 C552.373839,1973.06118 551.933388,1973.31938 551.204367,1973.4105 C551.022112,1973.4105 550.839857,1973.34975 550.687977,1973.19787 C550.703165,1973.25862 550.718353,1973.30419 550.718353,1973.34975 C550.718353,1973.75983 550.581662,1974.13952 550.323467,1974.50404 C550.277903,1974.57997 550.247527,1974.64073 550.232339,1974.6711 C550.429782,1974.73185 550.536098,1974.86855 550.536098,1975.06599 C550.505722,1975.27862 550.353842,1975.38494 550.080459,1975.41531 C549.33625,1975.50644 548.759108,1975.552 548.364222,1975.58238 C548.470538,1975.70388 548.531289,1975.82539 548.531289,1975.96208 C548.652793,1975.90133 548.789484,1975.85576 548.956552,1975.82539 C549.33625,1975.87095 549.548881,1976.09877 549.594445,1976.49366 C549.48813,1976.79741 549.381814,1977.26824 549.290686,1977.90613 C549.290686,1978.30102 549.321062,1978.58959 549.397002,1978.77185 C549.548881,1979.04523 549.776701,1979.18192 550.080459,1979.19711 C551.386623,1979.19711 552.054892,1978.74147 552.085268,1977.79982 C552.66241,1977.96689 552.950981,1978.34658 552.981356,1978.9541 C552.966169,1979.69831 552.085268,1980.07801 550.353842,1980.12357 C549.579257,1980.04763 549.123619,1979.92613 548.97174,1979.72869 C548.683169,1979.56162 548.531289,1979.2123 548.516101,1978.68072 C548.516101,1978.01245 548.546477,1977.34418 548.622417,1976.67591 C548.607229,1976.52403 548.546477,1976.40253 548.45535,1976.32659 C548.273094,1976.75185 547.817456,1977.49606 547.088435,1978.55922 C546.541669,1979.30343 546.086031,1979.7135 545.72152,1979.80463 C545.326633,1979.78944 545.05325,1979.66794 544.916559,1979.4553 C544.916559,1979.42493 544.962123,1979.36418 545.068438,1979.30343 C545.994903,1978.66553 546.83024,1977.64794 547.559261,1976.23546 C547.650389,1976.08358 547.71114,1975.96208 547.741516,1975.84057 C547.71114,1975.74945 547.680765,1975.68869 547.680765,1975.62794 C547.604825,1975.62794 547.559261,1975.61276 547.528885,1975.61276 C547.513697,1975.88614 547.422569,1976.02283 547.255502,1976.02283 C547.042871,1976.02283 546.845428,1975.85576 546.632796,1975.52163 C546.435353,1975.21787 546.31385,1974.80779 546.253098,1974.30659 C546.253098,1973.6687 546.31385,1973.33456 546.450541,1973.27381 C546.693548,1973.27381 546.921367,1973.51682 547.164374,1974.00283 C547.225126,1974.30659 547.285878,1974.62554 547.377006,1974.9293 C547.392194,1974.99005 547.407382,1975.03561 547.422569,1975.06599 C547.726328,1975.00524 548.181967,1974.91411 548.759108,1974.80779 C548.910988,1974.77742 549.062867,1974.76223 549.214747,1974.73185 C549.229935,1974.57997 549.275498,1974.41291 549.351438,1974.23065 C549.427378,1974.00283 549.472942,1973.72945 549.472942,1973.39532 L549.457754,1973.1675 C549.214747,1973.19787 548.941364,1973.25862 548.622417,1973.34975 C548.364222,1973.47126 548.106027,1973.53201 547.86302,1973.53201 C547.255502,1973.53201 546.936555,1973.39532 546.936555,1973.15231 C546.936555,1973.04599 547.27069,1972.9093 547.93896,1972.74223 C548.516101,1972.57517 549.002116,1972.48404 549.427378,1972.46885 Z M547.468133,1970.16028 C547.78708,1970.28179 547.954147,1970.50961 547.954147,1970.84374 C547.923772,1971.026 547.635201,1971.55757 547.088435,1972.4081 C546.784676,1972.87893 546.511293,1973.13712 546.298662,1973.19787 C545.858211,1973.18268 545.56964,1973.06118 545.432949,1972.81817 C545.432949,1972.80299 545.448137,1972.77261 545.508889,1972.74223 C546.040467,1972.37772 546.511293,1971.80058 546.936555,1971.01081 C547.027683,1970.85893 547.088435,1970.73743 547.118811,1970.61592 C547.073247,1970.50961 547.042871,1970.41848 547.042871,1970.35773 C547.042871,1970.23622 547.19475,1970.16028 547.468133,1970.16028 Z M560.566649,1971.36013 C561.341234,1971.36013 561.73612,1971.73983 561.73612,1972.48404 C561.73612,1975.64313 561.644993,1977.23786 561.477925,1977.25305 C561.432361,1977.46568 561.265294,1977.60238 560.961535,1977.63275 C560.733716,1977.60238 560.597025,1977.43531 560.536273,1977.13155 C560.019883,1977.40493 559.473117,1977.52644 558.865599,1977.52644 C558.318833,1977.52644 557.999886,1977.04042 557.878383,1976.05321 C557.908759,1975.56719 557.923947,1974.53441 557.954323,1972.98524 C557.96951,1972.87893 558.015074,1972.81817 558.075826,1972.7878 C558.501088,1972.7878 558.774471,1973.18268 558.865599,1973.97246 L558.865599,1974.10915 C559.245298,1973.97246 559.609808,1973.86614 559.943943,1973.7902 C560.217326,1973.7902 560.369205,1973.92689 560.369205,1974.1699 C560.369205,1974.62554 560.004695,1974.85336 559.275674,1974.85336 C559.123794,1974.85336 558.987103,1974.82298 558.865599,1974.79261 C558.865599,1975.20268 558.865599,1975.59757 558.880787,1975.99245 C558.880787,1976.34178 559.032666,1976.50884 559.351613,1976.50884 C559.67056,1976.50884 560.095822,1976.40253 560.642588,1976.1899 C560.70334,1975.58238 560.733716,1974.56479 560.733716,1973.1675 C560.70334,1972.71186 560.581837,1972.43848 560.369205,1972.36254 C560.18695,1972.36254 559.7465,1972.43848 559.063042,1972.57517 C558.728908,1972.57517 558.531464,1972.49923 558.501088,1972.31697 C558.516276,1972.22584 558.744096,1972.05878 559.199734,1971.81577 C559.518681,1971.61833 559.974319,1971.46645 560.566649,1971.36013 Z M563.315666,1971.28419 C563.695365,1971.28419 563.892808,1971.57276 563.892808,1972.13472 C563.892808,1972.42329 563.907996,1972.71186 563.923184,1972.98524 C564.515514,1972.80299 565.077468,1972.66629 565.593858,1972.55998 C565.897617,1972.55998 566.049496,1972.69667 566.049496,1972.97005 C566.049496,1973.45607 565.533106,1973.68389 564.515514,1973.68389 C564.272507,1973.6687 564.090251,1973.63832 563.95356,1973.57757 C563.983936,1974.15471 563.999124,1974.70148 564.0295,1975.23306 L564.0295,1975.46088 C564.606641,1975.27862 565.153407,1975.14193 565.669797,1975.0508 C565.973556,1975.0508 566.125436,1975.18749 566.125436,1975.46088 C566.125436,1975.94689 565.57867,1976.17471 564.515514,1976.17471 C564.31807,1976.15952 564.151003,1976.12915 563.999124,1976.08358 C563.847244,1978.74147 562.996719,1980.24508 561.462737,1980.62478 C561.310858,1980.62478 561.204542,1980.56402 561.174166,1980.4729 C561.29567,1980.32102 561.447549,1980.12357 561.660181,1979.88057 C562.647397,1978.34658 563.178975,1976.44809 563.254915,1974.1699 C563.254915,1973.72945 563.224539,1973.10674 563.178975,1972.31697 C563.118223,1972.05878 562.996719,1971.87652 562.799276,1971.78539 C562.935968,1971.51201 563.103035,1971.34494 563.315666,1971.28419 Z M565.57867,1969.68946 C567.036712,1969.90209 567.780921,1970.3881 567.841673,1971.1475 C567.811297,1971.39051 567.765733,1971.66389 567.735358,1971.93727 C567.780921,1974.21546 567.826485,1976.47847 567.887237,1978.74147 C567.887237,1980.19951 567.49235,1980.92853 566.717765,1980.92853 C566.110248,1980.88297 565.715361,1980.51846 565.563482,1979.835 C565.563482,1979.65275 565.609046,1979.56162 565.730549,1979.56162 L566.353255,1979.56162 C566.641826,1979.47049 566.793705,1978.96929 566.793705,1978.02764 C566.808893,1976.05321 566.824081,1974.09396 566.839269,1972.13472 C566.839269,1971.10194 566.53551,1970.58555 565.927992,1970.58555 C565.381226,1970.70705 564.834461,1970.81337 564.302883,1970.93487 C563.573861,1970.87412 563.224539,1970.75261 563.224539,1970.57036 C563.224539,1970.47923 563.28529,1970.40329 563.421982,1970.32735 C564.302883,1969.99322 565.016716,1969.78059 565.57867,1969.68946 Z" transform="translate(-507 -1969)"/>
</svg>
