<svg xmlns="http://www.w3.org/2000/svg" width="61" height="13" viewBox="0 0 61 13">
  <path fill="#4A4A4A" fill-rule="evenodd" d="M1035.21851,1970.26581 C1035.62695,1970.26581 1035.83873,1970.3717 1035.83873,1970.55323 C1035.79335,1970.8104 1035.59669,1970.9768 1035.24876,1971.05244 L1035.23363,1971.05244 C1035.27902,1971.15833 1035.30927,1971.2491 1035.30927,1971.30961 C1035.27902,1973.57873 1035.24876,1975.8176 1035.21851,1978.05647 C1035.12774,1979.05489 1034.96134,1979.53897 1034.70417,1979.53897 C1034.49239,1979.50872 1034.35624,1979.05489 1034.2806,1978.17749 C1034.31086,1977.6329 1034.34111,1977.11857 1034.37137,1976.60423 C1034.17471,1976.695 1033.9478,1976.78576 1033.70576,1976.87653 C1032.84349,1977.48163 1032.31403,1977.76905 1032.1325,1977.76905 C1031.23997,1977.72367 1030.74077,1977.4665 1030.65,1976.99755 C1030.65,1976.90678 1030.69538,1976.84627 1030.78615,1976.84627 C1030.87691,1976.87653 1030.98281,1976.89166 1031.0887,1976.89166 C1031.49714,1976.89166 1031.87533,1976.81602 1032.22326,1976.64962 C1032.17788,1976.49834 1032.14762,1976.30168 1032.1325,1976.07477 C1032.20813,1974.86457 1032.25352,1973.63924 1032.25352,1972.42904 C1032.25352,1972.21726 1032.17788,1972.00547 1032.0266,1971.82394 L1031.99635,1971.82394 C1031.39125,1971.76343 1031.0887,1971.5819 1031.07357,1971.26423 C1031.0887,1971.14321 1031.48201,1971.02219 1032.25352,1970.88604 C1033.6755,1970.50785 1034.65879,1970.29607 1035.21851,1970.26581 Z M1032.97964,1976.36219 C1033.46372,1976.18066 1033.93267,1975.98401 1034.40162,1975.80248 C1034.46213,1974.25947 1034.50751,1972.83749 1034.50751,1971.56678 C1034.49239,1971.44576 1034.447,1971.32474 1034.38649,1971.20372 C1034.1142,1971.26423 1033.82678,1971.32474 1033.52423,1971.40037 C1033.26706,1971.49114 1033.05527,1971.56678 1032.87374,1971.62729 C1032.99476,1971.74831 1033.05527,1971.89958 1033.0704,1972.08111 C1033.04015,1972.14162 1033.00989,1972.39879 1033.00989,1972.86774 C1033.0704,1972.85261 1033.14604,1972.83749 1033.20655,1972.80723 C1033.43346,1972.73159 1033.61499,1972.68621 1033.76627,1972.65596 C1034.06882,1972.68621 1034.23522,1972.83749 1034.23522,1973.07953 C1034.20496,1973.27618 1034.05369,1973.38208 1033.81165,1973.41233 C1033.53935,1973.5031 1033.37295,1973.54848 1033.29731,1973.56361 C1033.17629,1973.56361 1033.0704,1973.56361 1032.99476,1973.54848 C1032.97964,1973.85103 1032.97964,1974.18383 1032.97964,1974.54689 C1033.04015,1974.51664 1033.11578,1974.50151 1033.20655,1974.47126 C1033.43346,1974.39562 1033.61499,1974.35024 1033.76627,1974.33511 C1034.06882,1974.36536 1034.23522,1974.50151 1034.23522,1974.74355 C1034.20496,1974.94021 1034.05369,1975.0461 1033.81165,1975.07636 C1033.53935,1975.15199 1033.37295,1975.19738 1033.29731,1975.19738 C1033.16117,1975.19738 1033.05527,1975.19738 1032.97964,1975.18225 L1032.97964,1976.36219 Z M1038.42554,1972.42904 C1038.81885,1972.4593 1039.03064,1972.68621 1039.03064,1973.10978 C1039.00038,1973.36695 1038.81885,1973.6695 1038.48605,1974.03256 C1038.30452,1974.25947 1038.15324,1974.39562 1038.01709,1974.45613 C1037.86582,1974.45613 1037.79018,1974.39562 1037.79018,1974.2746 C1037.80531,1974.18383 1037.82044,1974.09307 1037.85069,1974.0023 C1037.68429,1974.07794 1037.48763,1974.16871 1037.26072,1974.25947 C1036.80689,1974.441 1036.48922,1974.54689 1036.33794,1974.54689 C1036.0959,1974.54689 1035.97488,1974.441 1035.97488,1974.22922 C1035.97488,1974.09307 1036.24718,1973.63924 1036.82202,1972.85261 C1037.00355,1972.56519 1037.16995,1972.2929 1037.32123,1972.05086 C1036.65562,1972.38366 1036.24718,1972.55006 1036.06565,1972.55006 C1035.83873,1972.55006 1035.73284,1972.44417 1035.73284,1972.20213 C1035.73284,1971.83907 1035.88412,1971.52139 1036.18667,1971.2491 C1036.67075,1970.91629 1036.92791,1970.41709 1036.9733,1969.75148 C1036.9733,1969.69097 1036.94304,1969.6002 1036.88253,1969.50944 C1036.88253,1969.47918 1036.89766,1969.4338 1036.92791,1969.37329 C1037.38174,1969.40354 1037.63891,1969.58507 1037.69942,1969.90275 C1037.69942,1970.26581 1037.45738,1970.82553 1036.98842,1971.59703 C1037.18508,1971.52139 1037.44225,1971.43063 1037.7448,1971.32474 C1037.98684,1970.87091 1038.10786,1970.53811 1038.10786,1970.34145 C1038.0776,1970.31119 1038.06248,1970.25068 1038.04735,1970.15992 C1038.04735,1969.97839 1038.19862,1969.88762 1038.50117,1969.88762 C1038.83398,1969.88762 1039.01551,1970.12966 1039.01551,1970.61374 C1039.01551,1970.82553 1038.71296,1971.27935 1038.13811,1971.94496 C1037.62378,1972.61057 1037.35148,1973.04927 1037.3061,1973.24593 C1037.3061,1973.30644 1037.33636,1973.32157 1037.39687,1973.32157 C1037.56327,1973.32157 1037.77505,1973.26106 1038.01709,1973.17029 C1038.03222,1973.03414 1038.04735,1972.92825 1038.06248,1972.83749 C1038.04735,1972.7921 1038.03222,1972.74672 1038.03222,1972.68621 C1038.06248,1972.53494 1038.1835,1972.4593 1038.42554,1972.42904 Z M1039.92316,1969.05561 C1040.37698,1969.08587 1040.63415,1969.2674 1040.69466,1969.58507 C1040.69466,1969.94813 1040.498,1970.55323 1040.11982,1971.37012 C1040.28622,1971.30961 1040.498,1971.2491 1040.7703,1971.15833 C1040.95183,1970.8104 1041.05772,1970.55323 1041.05772,1970.38683 C1041.02747,1970.35658 1041.01234,1970.28094 1040.99721,1970.19017 C1040.99721,1970.02377 1041.14849,1969.93301 1041.45104,1969.93301 C1041.78384,1969.93301 1041.96537,1970.17505 1041.96537,1970.644 C1041.96537,1970.84066 1041.69308,1971.21884 1041.16361,1971.79369 C1040.69466,1972.36853 1040.43749,1972.73159 1040.39211,1972.898 C1040.39211,1972.94338 1040.42237,1972.95851 1040.48288,1972.95851 C1040.69466,1972.95851 1040.95183,1972.91312 1041.25438,1972.82236 C1041.22412,1972.70134 1041.209,1972.56519 1041.209,1972.41392 C1041.209,1972.2929 1041.25438,1972.23239 1041.34514,1972.23239 C1041.61744,1972.2929 1041.85948,1972.44417 1042.10152,1972.70134 C1042.31331,1972.92825 1042.4192,1973.15516 1042.4192,1973.3972 C1042.38894,1973.89641 1042.20741,1974.13845 1041.85948,1974.13845 C1041.72333,1974.13845 1041.58718,1973.98718 1041.43591,1973.68463 C1041.42078,1973.65437 1041.40565,1973.60899 1041.39053,1973.54848 C1041.14849,1973.63924 1040.84594,1973.76026 1040.48288,1973.89641 C1039.96854,1974.07794 1039.60548,1974.18383 1039.42395,1974.18383 C1039.18191,1974.18383 1039.06089,1974.07794 1039.06089,1973.86616 C1039.06089,1973.74514 1039.31806,1973.33669 1039.84752,1972.64083 C1040.02905,1972.36853 1040.19545,1972.12649 1040.34673,1971.88445 C1039.74163,1972.187 1039.36344,1972.32315 1039.19704,1972.32315 C1038.97013,1972.32315 1038.86423,1972.21726 1038.86423,1971.97522 C1038.86423,1971.5819 1039.00038,1971.26423 1039.27268,1970.99193 C1039.69625,1970.62887 1039.92316,1970.11454 1039.96854,1969.4338 C1039.96854,1969.35816 1039.93829,1969.28252 1039.87778,1969.19176 C1039.87778,1969.14638 1039.8929,1969.10099 1039.92316,1969.05561 Z M1039.86265,1974.36536 C1039.5601,1974.39562 1039.3937,1974.50151 1039.33319,1974.66791 C1039.51472,1974.90995 1039.62061,1975.15199 1039.62061,1975.39403 C1039.62061,1976.60423 1039.57523,1977.82956 1039.49959,1979.03976 C1039.57523,1979.81127 1039.71137,1980.20458 1039.90803,1980.26509 C1040.18033,1980.26509 1040.36186,1979.93229 1040.42237,1979.29693 C1040.42237,1978.55568 1040.42237,1977.9052 1040.43749,1977.33035 C1040.498,1977.34548 1040.6039,1977.34548 1040.72492,1977.34548 C1040.80055,1977.34548 1040.95183,1977.33035 1041.17874,1977.3001 C1041.209,1977.7388 1041.31489,1977.96571 1041.48129,1977.96571 C1041.66282,1977.96571 1041.79897,1977.84469 1041.91999,1977.58752 C1042.13178,1977.1337 1042.29818,1976.45296 1042.44945,1975.56044 C1042.40407,1975.15199 1042.16203,1974.90995 1041.70821,1974.84944 C1041.49642,1974.84944 1041.34514,1974.92508 1041.28463,1975.0461 C1041.29976,1975.09148 1041.33002,1975.12174 1041.36027,1975.13687 C1041.40565,1975.16712 1041.45104,1975.24276 1041.49642,1975.33352 C1041.49642,1975.8176 1041.46616,1976.21092 1041.42078,1976.5286 C1041.40565,1976.5286 1041.39053,1976.51347 1041.3754,1976.51347 C1041.209,1976.5286 1040.99721,1976.57398 1040.74004,1976.64962 C1040.63415,1976.67987 1040.52826,1976.695 1040.43749,1976.72525 C1040.45262,1975.66633 1040.48288,1975.10661 1040.52826,1975.01585 C1040.498,1974.59228 1040.27109,1974.36536 1039.86265,1974.36536 Z M1037.71454,1974.6074 C1038.31964,1974.7133 1038.65245,1974.92508 1038.6827,1975.25789 C1038.65245,1975.37891 1038.60707,1975.59069 1038.57681,1975.9235 C1038.57681,1977.43625 1038.42554,1978.38928 1038.13811,1978.81285 C1037.85069,1979.3877 1037.42712,1979.70537 1036.85228,1979.78101 C1036.76151,1979.78101 1036.701,1979.73563 1036.65562,1979.62974 C1036.701,1979.53897 1036.76151,1979.46333 1036.85228,1979.40282 C1037.15483,1979.13053 1037.36661,1978.72208 1037.51789,1978.19262 C1037.56327,1978.08673 1037.60865,1977.85982 1037.65403,1977.49676 L1037.63891,1977.49676 C1037.27585,1977.49676 1036.9733,1977.54214 1036.73126,1977.60265 C1036.39845,1977.75392 1036.21692,1977.82956 1036.15641,1977.82956 C1035.94463,1977.81443 1035.83873,1977.72367 1035.82361,1977.55727 C1035.82361,1977.4665 1035.86899,1977.19421 1035.95975,1976.75551 C1036.03539,1976.39245 1036.08077,1976.13528 1036.0959,1975.95375 C1036.0959,1975.84786 1036.05052,1975.77222 1035.95975,1975.74197 C1035.89924,1975.74197 1035.88412,1975.72684 1035.88412,1975.68146 C1035.88412,1975.51505 1036.05052,1975.42429 1036.38332,1975.42429 C1036.74638,1975.45454 1036.94304,1975.63607 1036.9733,1975.95375 C1036.9733,1976.04452 1036.95817,1976.15041 1036.94304,1976.27143 C1036.89766,1976.46809 1036.8674,1976.61936 1036.8674,1976.71013 C1036.8674,1976.81602 1036.89766,1976.8614 1036.9733,1976.8614 C1037.27585,1976.77064 1037.4725,1976.72525 1037.56327,1976.71013 C1037.62378,1976.71013 1037.66916,1976.72525 1037.69942,1976.74038 C1037.71454,1976.4227 1037.72967,1976.05964 1037.7448,1975.63607 C1037.71454,1975.33352 1037.59352,1975.06123 1037.38174,1974.84944 C1037.41199,1974.72842 1037.53301,1974.63766 1037.71454,1974.6074 Z M1049.6415,1970.19017 C1049.94405,1970.23556 1050.11045,1970.44734 1050.14071,1970.84066 C1050.11045,1971.18859 1049.9743,1971.5819 1049.70201,1972.0206 C1049.52048,1972.39879 1049.38433,1972.67108 1049.30869,1972.82236 C1049.30869,1972.88287 1049.33895,1972.898 1049.39946,1972.898 L1050.26173,1972.64083 C1050.59453,1972.00547 1050.76094,1971.55165 1050.76094,1971.30961 C1050.73068,1971.27935 1050.71555,1971.21884 1050.70043,1971.14321 C1050.70043,1970.99193 1050.83657,1970.90117 1051.10887,1970.90117 C1051.41142,1970.90117 1051.57782,1971.12808 1051.57782,1971.55165 C1051.57782,1971.82394 1051.2904,1972.36853 1050.71555,1973.20055 C1050.20122,1974.03256 1049.92892,1974.57715 1049.88354,1974.81919 C1049.88354,1974.8797 1049.91379,1974.89483 1050.00456,1974.89483 C1050.21634,1974.86457 1050.47351,1974.78893 1050.79119,1974.63766 C1050.76094,1974.48638 1050.73068,1974.31998 1050.73068,1974.13845 C1050.73068,1974.01743 1050.77606,1973.94179 1050.88196,1973.94179 C1051.15425,1973.98718 1051.41142,1974.1082 1051.65346,1974.31998 C1051.86524,1974.51664 1051.97114,1974.7133 1051.97114,1974.90995 C1051.97114,1975.06123 1051.95601,1975.19738 1051.92575,1975.28814 C1052.5006,1975.06123 1053.13595,1974.59228 1053.86207,1973.89641 C1053.96797,1973.80565 1054.07386,1973.69975 1054.16462,1973.60899 C1053.57465,1973.30644 1053.01493,1973.10978 1052.5006,1973.01902 C1052.37958,1973.01902 1052.31907,1972.97363 1052.31907,1972.88287 C1052.40983,1972.64083 1052.60649,1972.50468 1052.92417,1972.48955 C1053.2721,1972.51981 1053.84695,1972.73159 1054.6487,1973.09465 C1055.07227,1972.6257 1055.38995,1972.15675 1055.63199,1971.67267 C1055.63199,1971.52139 1055.57148,1971.43063 1055.45046,1971.43063 C1055.28406,1971.44576 1054.96638,1971.55165 1054.4823,1971.73318 C1053.96797,1971.92984 1053.65029,1972.03573 1053.51414,1972.05086 C1053.18134,1972.05086 1053.03006,1971.91471 1053.03006,1971.64241 C1053.03006,1971.52139 1053.28723,1971.17346 1053.80156,1970.58349 C1054.28564,1970.00864 1054.54281,1969.58507 1054.54281,1969.31278 C1054.52768,1969.22201 1054.51256,1969.14638 1054.49743,1969.07074 C1054.49743,1968.97997 1054.57307,1968.93459 1054.7546,1968.93459 C1055.05715,1968.9951 1055.20842,1969.19176 1055.23868,1969.49431 C1055.23868,1969.58507 1055.19329,1969.75148 1055.10253,1969.96326 C1054.921,1970.32632 1054.81511,1970.58349 1054.7546,1970.74989 C1054.7546,1970.84066 1054.78485,1970.87091 1054.84536,1970.87091 C1055.67737,1970.61374 1056.14633,1970.4776 1056.23709,1970.4776 C1056.81194,1970.55323 1057.11449,1970.76502 1057.14474,1971.11295 C1057.14474,1971.32474 1056.87245,1971.70292 1056.34298,1972.27777 C1056.04043,1972.70134 1055.73788,1973.09465 1055.42021,1973.45771 C1055.55635,1973.53335 1055.70763,1973.60899 1055.8589,1973.68463 C1056.88757,1974.13845 1057.90112,1974.441 1058.91466,1974.59228 C1059.24746,1974.66791 1059.42899,1974.72842 1059.42899,1974.77381 C1059.30797,1975.40916 1058.82389,1975.77222 1057.9465,1975.83273 C1057.49267,1975.83273 1056.61528,1975.33352 1055.31431,1974.33511 C1055.16304,1974.22922 1055.01176,1974.12332 1054.89074,1974.03256 C1054.60332,1974.33511 1054.3159,1974.62253 1054.02848,1974.86457 C1053.39312,1975.59069 1052.87879,1975.95375 1052.48547,1975.95375 C1051.98626,1975.95375 1051.69884,1975.86299 1051.6232,1975.66633 C1051.53244,1975.71171 1051.4568,1975.72684 1051.36604,1975.72684 C1051.22989,1975.72684 1051.10887,1975.60582 1050.98785,1975.34865 C1050.70043,1975.49993 1050.33736,1975.69658 1049.89867,1975.93862 C1049.30869,1976.22605 1048.91538,1976.37732 1048.70359,1976.37732 C1048.40104,1976.37732 1048.2649,1976.2563 1048.2649,1975.99913 C1048.2649,1975.84786 1048.58257,1975.28814 1049.24818,1974.35024 C1049.3692,1974.16871 1049.4751,1974.0023 1049.56586,1973.85103 C1049.12716,1974.03256 1048.73385,1974.13845 1048.40104,1974.16871 C1048.09849,1974.16871 1047.93209,1974.01743 1047.88671,1973.69975 C1047.88671,1973.5031 1048.159,1973.00389 1048.70359,1972.21726 C1049.18767,1971.5819 1049.44484,1971.02219 1049.4751,1970.56836 C1049.4751,1970.52298 1049.45997,1970.49272 1049.44484,1970.46247 C1049.39946,1970.43221 1049.38433,1970.38683 1049.38433,1970.34145 C1049.38433,1970.25068 1049.45997,1970.19017 1049.6415,1970.19017 Z M1048.55232,1976.92191 C1048.18926,1977.25472 1047.8262,1977.43625 1047.49339,1977.48163 C1047.31186,1977.4665 1047.16059,1977.45137 1047.00931,1977.45137 C1046.87317,1977.45137 1046.81266,1977.52701 1046.81266,1977.67829 C1046.84291,1978.28339 1047.13033,1978.60106 1047.6598,1978.63132 C1047.93209,1978.60106 1048.159,1978.44979 1048.37079,1978.16237 C1048.58257,1977.85982 1048.68847,1977.54214 1048.71872,1977.22446 C1048.71872,1977.0278 1048.65821,1976.92191 1048.55232,1976.92191 Z M1050.98785,1976.21092 C1051.7291,1976.2563 1052.10728,1976.51347 1052.10728,1976.96729 C1052.09216,1977.39086 1051.91063,1977.60265 1051.56269,1977.6329 C1051.33578,1977.60265 1051.15425,1977.48163 1051.03323,1977.26984 C1050.83657,1976.99755 1050.73068,1976.71013 1050.71555,1976.37732 C1050.71555,1976.27143 1050.80632,1976.21092 1050.98785,1976.21092 Z M1049.45997,1976.67987 C1049.27844,1976.67987 1049.18767,1976.74038 1049.18767,1976.84627 C1049.2028,1977.16395 1049.29357,1977.45137 1049.45997,1977.72367 C1049.55073,1977.95058 1049.70201,1978.0716 1049.88354,1978.08673 C1050.2466,1978.05647 1050.42813,1977.84469 1050.45838,1977.42112 C1050.45838,1976.96729 1050.12558,1976.72525 1049.45997,1976.67987 Z M1052.99981,1976.21092 C1053.1057,1976.21092 1053.21159,1976.2563 1053.31748,1976.34707 C1053.49901,1976.27143 1053.83182,1976.18066 1054.30077,1976.07477 C1054.96638,1975.89324 1055.55635,1975.78735 1056.05556,1975.75709 C1056.96321,1975.84786 1057.44729,1976.19579 1057.5078,1976.80089 C1057.5078,1977.25472 1057.37165,1977.69341 1057.09936,1978.08673 C1057.03885,1978.19262 1056.99347,1978.26826 1056.96321,1978.32877 C1057.15987,1978.41953 1057.26576,1978.55568 1057.26576,1978.75234 C1057.22038,1978.97925 1057.05398,1979.1154 1056.75143,1979.14565 C1055.67737,1979.23642 1054.96638,1979.29693 1054.61845,1979.31206 C1054.43692,1979.31206 1054.30077,1979.31206 1054.17975,1979.2818 C1054.1495,1979.53897 1054.05873,1979.67512 1053.8772,1979.69025 C1053.65029,1979.69025 1053.42338,1979.46333 1053.21159,1978.99438 C1052.99981,1978.55568 1052.86366,1977.98084 1052.80315,1977.26984 C1052.80315,1976.61936 1052.86366,1976.27143 1052.99981,1976.21092 Z M1054.11924,1978.69183 C1054.43692,1978.63132 1054.87562,1978.54055 1055.43533,1978.44979 C1055.63199,1978.41953 1055.79839,1978.38928 1055.93454,1978.35902 C1055.94967,1978.19262 1056.01018,1978.01109 1056.10094,1977.79931 C1056.17658,1977.54214 1056.22196,1977.22446 1056.22196,1976.84627 C1056.20684,1976.71013 1056.16145,1976.63449 1056.07069,1976.63449 C1055.79839,1976.66474 1055.49584,1976.72525 1055.13278,1976.80089 C1054.83023,1976.92191 1054.54281,1976.98242 1054.27052,1976.98242 C1054.05873,1976.98242 1053.8772,1976.96729 1053.72593,1976.93704 C1053.72593,1976.95217 1053.74105,1976.95217 1053.74105,1976.95217 C1053.80156,1977.39086 1053.89233,1977.82956 1053.99822,1978.25313 C1054.0436,1978.41953 1054.08899,1978.57081 1054.11924,1978.69183 Z M1067.71022,1969.78173 C1068.23968,1969.84224 1068.54223,1970.09941 1068.60274,1970.55323 C1068.58762,1970.96168 1068.37583,1971.23397 1067.96739,1971.38525 C1067.28665,1971.74831 1066.6513,1971.92984 1066.07645,1971.92984 C1065.47135,1971.92984 1065.18393,1971.83907 1065.18393,1971.64241 C1065.18393,1971.49114 1065.30495,1971.37012 1065.57724,1971.30961 C1066.16722,1971.06757 1066.6513,1970.79527 1067.02948,1970.50785 C1067.36229,1970.28094 1067.54382,1970.09941 1067.57407,1969.94813 C1067.5892,1969.84224 1067.63458,1969.78173 1067.71022,1969.78173 Z M1067.33203,1971.83907 C1067.67997,1971.83907 1067.87662,1972.187 1067.93713,1972.86774 C1068.58762,1972.73159 1069.19272,1972.61057 1069.75243,1972.51981 C1069.73731,1972.50468 1069.73731,1972.48955 1069.73731,1972.48955 C1069.31374,1970.3717 1068.85991,1969.17663 1068.34558,1968.90434 C1068.4666,1968.58666 1068.70864,1968.42026 1069.10195,1968.39 C1069.64654,1968.39 1069.93396,1968.63204 1069.97935,1969.08587 C1070.0096,1970.09941 1070.176,1971.20372 1070.47855,1972.41392 C1071.20468,1972.30802 1071.8249,1972.24751 1072.33924,1972.21726 C1072.95947,1972.21726 1073.27714,1972.42904 1073.27714,1972.83749 C1073.27714,1973.10978 1073.09561,1973.24593 1072.74768,1973.24593 C1072.11233,1973.24593 1071.43159,1973.29131 1070.7206,1973.35182 C1070.93238,1974.13845 1071.18955,1974.94021 1071.4921,1975.77222 C1071.70388,1975.30327 1071.87029,1974.78893 1072.00643,1974.21409 C1072.00643,1974.09307 1071.97618,1974.01743 1071.91567,1973.97205 C1071.91567,1973.85103 1071.97618,1973.79052 1072.11233,1973.79052 C1072.50564,1973.79052 1072.7023,1974.07794 1072.7023,1974.65279 C1072.56615,1975.56044 1072.35437,1976.31681 1072.06694,1976.92191 C1072.88383,1978.43466 1073.54944,1979.19104 1074.06377,1979.19104 C1074.19992,1978.82798 1074.29069,1978.61619 1074.3512,1978.52543 C1074.60836,1978.64645 1074.74451,1979.03976 1074.74451,1979.70537 C1074.74451,1980.28022 1074.48734,1980.58277 1073.97301,1980.58277 C1073.12587,1980.58277 1072.30898,1979.67512 1071.4921,1977.82956 C1071.15929,1978.22288 1070.75085,1978.5103 1070.29702,1978.6767 C1069.91884,1978.82798 1069.63141,1978.90361 1069.41963,1978.90361 C1069.19272,1978.90361 1069.08682,1978.81285 1069.08682,1978.61619 C1069.08682,1978.61619 1069.19272,1978.52543 1069.41963,1978.3439 C1070.05498,1977.92033 1070.59957,1977.37574 1071.02315,1976.67987 C1070.66009,1975.75709 1070.32728,1974.68304 1069.99447,1973.44259 C1069.93396,1973.45771 1069.90371,1973.45771 1069.87345,1973.45771 C1069.14733,1973.60899 1068.51198,1973.73001 1067.95226,1973.82077 L1067.95226,1975.2125 C1068.31532,1975.03097 1068.70864,1974.84944 1069.10195,1974.63766 C1069.25323,1974.63766 1069.34399,1974.72842 1069.34399,1974.89483 C1069.31374,1975.16712 1068.84478,1975.60582 1067.93713,1976.24117 C1067.92201,1976.81602 1067.90688,1977.10344 1067.90688,1977.10344 C1067.77073,1978.949 1067.37742,1979.87178 1066.71181,1979.87178 C1066.10671,1979.87178 1065.71339,1979.49359 1065.53186,1978.70696 C1065.53186,1978.61619 1065.57724,1978.57081 1065.69826,1978.57081 L1066.46977,1978.57081 C1066.74206,1978.41953 1066.92359,1977.96571 1066.9841,1977.20933 C1066.9841,1977.07319 1066.99923,1976.95217 1066.99923,1976.83115 C1066.24285,1977.26984 1065.63775,1977.48163 1065.18393,1977.48163 C1064.41243,1977.42112 1064.00398,1977.23959 1063.97373,1976.92191 C1063.97373,1976.75551 1064.125,1976.64962 1064.44268,1976.58911 C1065.07804,1976.46809 1065.9403,1976.15041 1067.04461,1975.63607 C1067.07487,1974.95534 1067.08999,1974.39562 1067.12025,1973.95692 C1066.40926,1974.07794 1065.83441,1974.13845 1065.39571,1974.13845 C1064.85112,1974.12332 1064.51832,1974.01743 1064.36704,1973.80565 C1064.36704,1973.74514 1064.53345,1973.6695 1064.86625,1973.57873 C1065.68314,1973.36695 1066.43951,1973.18542 1067.1505,1973.03414 L1067.1505,1972.80723 C1067.12025,1972.50468 1067.07487,1972.30802 1066.99923,1972.187 C1066.95385,1972.14162 1066.92359,1972.08111 1066.92359,1971.99035 C1066.92359,1971.89958 1067.05974,1971.83907 1067.33203,1971.83907 Z M1071.90054,1969.85737 C1072.50564,1969.96326 1072.82332,1970.29607 1072.85357,1970.87091 C1072.85357,1971.26423 1072.62666,1971.46088 1072.17284,1971.46088 C1071.52235,1971.30961 1071.0534,1970.85578 1070.75085,1970.11454 C1070.91725,1969.94813 1071.29544,1969.85737 1071.90054,1969.85737 Z M1081.78528,1974.80406 C1082.36013,1974.80406 1082.66268,1975.95375 1082.66268,1978.22288 C1082.66268,1978.949 1082.48115,1979.29693 1082.11809,1979.29693 C1081.75503,1979.29693 1081.55837,1979.03976 1081.52812,1978.5103 C1081.58863,1977.42112 1081.67939,1976.33194 1081.78528,1975.22763 C1081.77016,1975.10661 1081.70965,1975.01585 1081.60375,1974.97046 C1081.60375,1974.86457 1081.66426,1974.80406 1081.78528,1974.80406 Z M1082.57191,1970.25068 C1083.2224,1970.46247 1083.5552,1970.73476 1083.5552,1971.09782 C1083.5552,1971.55165 1083.2224,1972.2929 1082.57191,1973.35182 C1081.42222,1975.01585 1080.68098,1975.83273 1080.37843,1975.83273 C1080.1969,1975.83273 1080.12126,1975.74197 1080.12126,1975.53018 C1080.12126,1975.46967 1080.25741,1975.25789 1080.51457,1974.89483 C1081.42222,1973.44259 1081.92143,1972.12649 1082.04245,1970.96168 L1081.99707,1970.55323 C1082.08783,1970.35658 1082.26936,1970.25068 1082.57191,1970.25068 Z M1085.26461,1971.70292 C1085.17384,1971.71805 1085.0377,1971.76343 1084.88642,1971.82394 C1084.81078,1971.8542 1084.73515,1971.88445 1084.67464,1971.91471 C1084.55362,1971.64241 1084.38721,1971.49114 1084.17543,1971.47601 C1084.05441,1971.47601 1084.00903,1971.53652 1084.00903,1971.64241 C1084.13005,1971.76343 1084.20568,1972.21726 1084.20568,1973.00389 C1084.17543,1974.69817 1084.03928,1976.51347 1083.79724,1978.43466 C1083.87288,1979.2818 1084.08466,1979.69025 1084.4326,1979.69025 C1084.79566,1979.69025 1084.97719,1977.87494 1084.97719,1974.24434 L1084.97719,1974.21409 C1085.09821,1974.24434 1085.26461,1974.2746 1085.47639,1974.28973 C1085.68818,1974.28973 1085.99073,1974.09307 1086.39917,1973.69975 C1086.853,1973.2308 1087.09504,1972.898 1087.11016,1972.71647 C1087.11016,1972.59545 1087.03453,1972.51981 1086.91351,1972.51981 C1086.88325,1972.53494 1086.86812,1972.55006 1086.853,1972.56519 L1086.853,1970.70451 C1086.71685,1970.31119 1086.44455,1970.06915 1086.02098,1970.00864 C1085.65792,1970.0389 1085.34025,1970.11454 1085.0377,1970.25068 C1084.52336,1970.49272 1084.28132,1970.70451 1084.28132,1970.90117 C1084.34183,1971.00706 1084.55362,1971.0827 1084.91668,1971.11295 C1085.27974,1970.99193 1085.62767,1970.87091 1085.96047,1970.76502 C1086.03611,1970.76502 1086.08149,1970.87091 1086.08149,1971.05244 C1086.08149,1971.80882 1086.02098,1972.2929 1085.93022,1972.53494 C1085.93022,1972.74672 1085.96047,1972.92825 1086.03611,1973.04927 C1085.59741,1973.30644 1085.23435,1973.47284 1084.96206,1973.54848 C1084.9318,1973.12491 1084.90155,1972.76185 1084.84104,1972.4593 C1084.9318,1972.48955 1085.05282,1972.48955 1085.2041,1972.48955 C1085.21923,1972.48955 1085.24948,1972.47443 1085.30999,1972.41392 C1085.55203,1972.38366 1085.70331,1972.27777 1085.73356,1972.09624 C1085.73356,1971.8542 1085.56716,1971.73318 1085.26461,1971.70292 Z M1087.51861,1970.25068 C1087.98756,1970.31119 1088.2296,1970.68938 1088.2296,1971.38525 C1088.29011,1971.35499 1088.36575,1971.32474 1088.45651,1971.29448 C1088.62291,1971.23397 1088.75906,1971.18859 1088.88008,1971.17346 C1089.18263,1971.20372 1089.34903,1971.33986 1089.34903,1971.5819 C1089.31878,1971.77856 1089.1675,1971.88445 1088.92546,1971.89958 C1088.81957,1971.96009 1088.74393,1971.99035 1088.71368,1971.99035 C1088.47164,1971.99035 1088.29011,1971.97522 1088.16909,1971.91471 C1088.15396,1972.12649 1088.13883,1972.33828 1088.13883,1972.58032 C1088.19934,1972.80723 1088.30524,1972.91312 1088.45651,1972.91312 C1088.5624,1972.88287 1088.71368,1972.7921 1088.91034,1972.65596 C1089.33391,1972.68621 1089.56082,1972.86774 1089.6062,1973.20055 C1089.6062,1973.3972 1089.50031,1973.5031 1089.31878,1973.5031 C1089.1675,1973.5031 1088.97085,1973.51822 1088.71368,1973.53335 C1088.57753,1973.54848 1088.38087,1973.57873 1088.12371,1973.62412 C1087.56399,1973.62412 1087.29169,1973.38208 1087.29169,1972.86774 C1087.36733,1972.32315 1087.42784,1971.79369 1087.47322,1971.29448 C1087.47322,1970.78015 1087.38246,1970.49272 1087.21606,1970.41709 C1087.27657,1970.31119 1087.36733,1970.25068 1087.51861,1970.25068 Z M1089.4398,1969.35816 C1090.24156,1969.44893 1090.65,1969.82711 1090.65,1970.50785 C1090.65,1970.62887 1090.61974,1970.88604 1090.55923,1971.26423 C1090.58949,1973.91154 1090.61974,1976.48321 1090.65,1978.99438 C1090.60462,1979.87178 1090.31719,1980.37098 1089.80286,1980.47688 C1089.2734,1980.40124 1088.97085,1980.12894 1088.89521,1979.64486 C1088.89521,1979.43308 1088.92546,1979.32718 1088.98597,1979.32718 L1089.2734,1979.32718 C1089.51544,1979.32718 1089.68184,1979.02463 1089.74235,1978.41953 C1089.74235,1976.2563 1089.75748,1974.09307 1089.7726,1971.92984 C1089.7726,1970.82553 1089.57595,1970.26581 1089.19776,1970.26581 C1088.97085,1970.31119 1088.75906,1970.35658 1088.5624,1970.40196 C1088.16909,1970.40196 1087.98756,1970.29607 1087.98756,1970.06915 C1087.98756,1969.99352 1088.01781,1969.94813 1088.10858,1969.91788 C1088.75906,1969.58507 1089.19776,1969.40354 1089.4398,1969.35816 Z" transform="translate(-1030 -1968)"/>
</svg>
