<svg xmlns="http://www.w3.org/2000/svg" width="61" height="13" viewBox="0 0 61 13">
  <path fill="#4A4A4A" fill-rule="evenodd" d="M380.162624,1973.28411 C379.489718,1973.28411 379.046213,1973.39116 378.8474,1973.57468 C379.199146,1974.33935 379.764998,1974.81344 380.544956,1974.98167 C381.034342,1974.98167 381.279035,1974.76756 381.279035,1974.33935 C381.233155,1973.74291 380.866116,1973.39116 380.162624,1973.28411 Z M382.013113,1975.74633 C381.722541,1975.89927 381.049635,1976.54159 380.009691,1977.67329 C379.474425,1978.13209 379.107386,1978.36149 378.893279,1978.36149 C378.70976,1978.36149 378.618,1978.45325 378.618,1978.63677 C378.618,1979.0191 379.000333,1979.20262 379.795584,1979.20262 C380.835529,1979.15674 381.630781,1978.08621 382.150753,1975.97573 C382.150753,1975.8228 382.104873,1975.74633 382.013113,1975.74633 Z M381.233155,1970.28662 C380.621423,1970.28662 380.23909,1970.37838 380.070864,1970.5619 C380.361437,1971.35715 380.835529,1971.84654 381.508434,1972.01477 C381.967234,1972.01477 382.196633,1971.81595 382.196633,1971.41833 C382.150753,1970.77601 381.829594,1970.40897 381.233155,1970.28662 Z M385.255294,1971.9383 C385.347054,1972.04535 385.392934,1972.21358 385.42352,1972.44298 L385.42352,1973.51351 C384.628268,1973.66644 383.75655,1973.86526 382.777779,1974.09466 C382.471913,1974.17112 382.31898,1974.24759 382.31898,1974.30876 C382.456619,1974.49228 382.762485,1974.58404 383.251871,1974.59934 C383.771843,1974.59934 384.490629,1974.52287 385.408227,1974.36994 C385.408227,1974.79815 385.392934,1975.27224 385.392934,1975.80751 C384.658855,1975.99103 384.307109,1976.15925 384.307109,1976.29689 C384.307109,1976.60276 384.689442,1976.77098 385.454107,1976.77098 C385.714093,1976.77098 385.989372,1976.70981 386.264652,1976.55688 C386.601105,1976.46512 386.891677,1976.38865 387.13637,1976.34277 C387.22813,1976.34277 387.27401,1976.41924 387.27401,1976.57217 C387.27401,1977.00038 387.243423,1977.38272 387.18225,1977.68858 C387.105784,1977.93328 387.059904,1978.16268 387.04461,1978.36149 C386.830504,1978.39207 386.601105,1978.43795 386.356412,1978.46854 C385.683506,1978.57559 385.194121,1978.66735 384.857668,1978.72853 C384.827081,1978.63677 384.781201,1978.52971 384.720028,1978.39207 C384.612975,1978.05562 384.521215,1977.70388 384.460042,1977.35213 C384.200056,1976.86274 383.955363,1976.60276 383.71067,1976.60276 C383.57303,1976.66393 383.511857,1977.01568 383.511857,1977.67329 C383.57303,1978.23914 383.71067,1978.69794 383.94007,1979.03439 C384.169469,1979.41673 384.398869,1979.60025 384.643562,1979.60025 C384.781201,1979.60025 384.872961,1979.49319 384.918841,1979.30967 C385.056481,1979.34026 385.224707,1979.35555 385.438814,1979.35555 C385.821146,1979.34026 386.616398,1979.27909 387.809276,1979.18733 C388.115142,1979.15674 388.298661,1979.03439 388.329248,1978.7897 C388.329248,1978.57559 388.222195,1978.43795 388.023382,1978.34619 C388.084555,1978.25444 388.145728,1978.13209 388.206902,1977.97916 C388.466888,1977.52036 388.604527,1977.04626 388.604527,1976.52629 C388.558648,1975.91456 388.069262,1975.56281 387.121077,1975.47105 C386.876384,1975.48635 386.601105,1975.51693 386.310532,1975.57811 C386.325825,1975.21107 386.356412,1974.75227 386.402292,1974.20171 C386.585811,1974.17112 386.784624,1974.14054 386.998731,1974.09466 C387.885742,1973.9876 388.696287,1973.92643 389.415073,1973.92643 C389.736232,1973.92643 389.904458,1973.80408 389.904458,1973.55939 C389.904458,1973.19235 389.613886,1973.00883 389.048033,1973.00883 C388.375128,1973.03942 387.50341,1973.13118 386.463465,1973.3147 C386.478758,1972.94766 386.509345,1972.55003 386.555225,1972.12182 C386.555225,1971.9383 386.494052,1971.78537 386.402292,1971.66302 C387.350477,1971.38774 387.824569,1971.00541 387.824569,1970.53132 C387.732809,1970.04193 387.41165,1969.76665 386.845798,1969.72077 C386.631691,1969.72077 386.539931,1969.76665 386.539931,1969.84312 C386.539931,1970.19486 386.295239,1970.48544 385.805853,1970.69954 C385.270587,1971.00541 384.567095,1971.31128 383.695377,1971.61714 C383.389511,1971.75478 383.236578,1971.84654 383.236578,1971.90771 C383.236578,1972.07594 383.389511,1972.15241 383.71067,1972.15241 C384.276522,1972.09123 384.796495,1972.03006 385.255294,1971.9383 Z M399.239928,1969.38432 C399.775193,1969.4302 400.081059,1969.69018 400.157526,1970.14898 C400.157526,1970.48544 399.729313,1970.76072 398.872888,1970.94424 C398.903475,1971.036 398.934062,1971.14305 398.949355,1971.2501 C398.934062,1971.35715 398.918768,1971.4795 398.903475,1971.61714 C399.71402,1971.49479 400.386925,1971.41833 400.906898,1971.38774 C401.243351,1971.41833 401.42687,1971.57126 401.42687,1971.84654 C401.396284,1972.06065 401.228057,1972.1677 400.952778,1972.19829 C400.157526,1972.32063 399.469327,1972.42769 398.857595,1972.51945 C398.842302,1972.70297 398.827008,1972.90178 398.827008,1973.11588 C399.194048,1973.05471 399.5305,1973.00883 399.836367,1973.00883 C400.585738,1973.00883 400.968071,1973.28411 400.968071,1973.80408 C400.968071,1974.35464 400.815138,1974.99696 400.524565,1975.70045 C400.585738,1975.77692 400.631618,1975.85339 400.631618,1975.94515 C400.601032,1976.11337 400.478685,1976.20513 400.249286,1976.23572 C399.652847,1976.34277 399.148168,1976.41924 398.750542,1976.48041 L398.750542,1977.00038 C399.194048,1976.92392 399.57638,1976.87804 399.89754,1976.84745 C400.218699,1976.87804 400.386925,1977.03097 400.386925,1977.27566 C400.356339,1977.45918 400.203406,1977.56624 399.94342,1977.59682 C399.484621,1977.68858 399.071701,1977.74976 398.735249,1977.79564 L398.735249,1978.49913 C399.255221,1978.34619 399.7599,1978.23914 400.218699,1978.16268 C400.356339,1978.16268 400.432805,1978.22385 400.432805,1978.31561 C400.264579,1978.65206 399.637554,1979.04969 398.551729,1979.53907 C397.756477,1979.87553 397.052985,1980.05904 396.410666,1980.10492 C395.905987,1980.10492 395.661295,1979.89082 395.661295,1979.43202 C395.661295,1979.30967 395.707174,1979.23321 395.829521,1979.23321 C395.860108,1979.2485 395.905987,1979.2485 395.967161,1979.2485 C396.670653,1979.09557 397.236505,1978.95793 397.664717,1978.83558 C397.695304,1978.59089 397.741184,1978.28502 397.771771,1977.93328 C397.404731,1977.99445 397.129452,1978.02504 396.945932,1978.04033 C396.395373,1978.04033 396.1048,1977.91798 396.074214,1977.6427 C396.135387,1977.53565 396.731826,1977.38272 397.832944,1977.16861 C397.832944,1977.00038 397.848237,1976.81686 397.86353,1976.61805 C397.695304,1976.64864 397.557664,1976.66393 397.465904,1976.66393 L397.297678,1976.66393 C397.251798,1976.78628 397.175332,1976.84745 397.083572,1976.84745 C396.823586,1976.84745 396.5636,1976.69452 396.318907,1976.38865 C396.05892,1976.11337 395.890694,1975.74633 395.829521,1975.28753 C395.829521,1974.70639 395.890694,1974.38523 396.013041,1974.32406 C396.227147,1974.32406 396.456546,1974.55346 396.685946,1974.99696 C396.777706,1975.27224 396.915345,1975.54752 397.068279,1975.8228 C397.144745,1975.94515 397.205918,1976.03691 397.251798,1976.11337 C397.420025,1976.08279 397.634131,1976.02161 397.894117,1975.96044 C397.894117,1975.77692 397.894117,1975.57811 397.90941,1975.364 C397.848237,1975.37929 397.787064,1975.37929 397.756477,1975.37929 C397.267091,1975.37929 396.991812,1975.27224 396.961225,1975.02755 C396.991812,1974.96637 397.312971,1974.84403 397.924704,1974.66051 L397.924704,1974.12524 C397.465904,1974.20171 397.160038,1974.24759 396.976519,1974.24759 C396.456546,1974.24759 396.19656,1974.20171 396.181267,1974.07936 C396.181267,1973.86526 396.747119,1973.62056 397.90941,1973.3147 L397.939997,1973.3147 L397.939997,1972.64179 C397.037692,1972.76414 396.38008,1972.84061 395.951867,1972.87119 C395.370722,1972.87119 395.049562,1972.73355 395.003683,1972.44298 C395.126029,1972.30534 396.089507,1972.09123 397.924704,1971.78537 C397.894117,1971.51009 397.81765,1971.29598 397.710597,1971.14305 C397.465904,1971.17364 397.205918,1971.20422 396.945932,1971.21952 C396.47184,1971.21952 396.24244,1971.09717 396.24244,1970.85248 C396.24244,1970.82189 396.364787,1970.76072 396.609479,1970.66896 C397.312971,1970.47014 397.894117,1970.27133 398.337623,1970.05722 C398.735249,1969.91958 398.934062,1969.73606 398.934062,1969.49137 C398.934062,1969.4302 399.025821,1969.38432 399.239928,1969.38432 Z M398.979942,1974.43111 C399.255221,1974.4617 399.408154,1974.58404 399.408154,1974.79815 C399.377567,1974.98167 399.239928,1975.07343 399.010528,1975.08872 C398.918768,1975.11931 398.827008,1975.14989 398.765835,1975.14989 C398.765835,1975.364 398.750542,1975.57811 398.750542,1975.79221 L398.765835,1975.79221 C399.056408,1975.73104 399.316394,1975.68516 399.561087,1975.65457 C399.71402,1975.22636 399.821073,1974.73698 399.85166,1974.18642 C399.85166,1973.97231 399.775193,1973.86526 399.637554,1973.83467 C399.331688,1973.89584 399.041115,1973.95702 398.796422,1973.9876 C398.781129,1974.14054 398.781129,1974.29347 398.781129,1974.4464 C398.842302,1974.4464 398.918768,1974.43111 398.979942,1974.43111 Z M404.745517,1972.71826 C405.449009,1972.71826 405.800755,1973.14647 405.831342,1973.97231 C405.754875,1975.80751 405.510182,1977.21449 405.097263,1978.17797 C404.821984,1979.06498 404.439651,1979.53907 403.919679,1979.60025 C403.353826,1979.52378 403.032667,1979.2485 402.940907,1978.7897 C402.940907,1978.59089 403.017374,1978.48383 403.1856,1978.48383 C403.216187,1978.48383 403.27736,1978.49913 403.353826,1978.52971 C403.751452,1978.52971 404.072612,1978.16268 404.286718,1977.4133 C404.669051,1976.58746 404.867864,1975.5934 404.867864,1974.43111 C404.867864,1974.03348 404.653757,1973.80408 404.240838,1973.71232 C404.042025,1973.74291 403.858505,1973.7735 403.674986,1973.78879 C402.818561,1978.00974 401.533923,1980.21198 399.821073,1980.41079 C399.591674,1980.41079 399.484621,1980.36491 399.484621,1980.28844 C399.484621,1980.25786 399.683434,1980.02846 400.096353,1979.56966 C401.38099,1978.16268 402.237415,1976.29689 402.696214,1973.94172 L402.099776,1974.03348 C401.640976,1974.0029 401.38099,1973.91114 401.33511,1973.7582 C401.350404,1973.51351 401.839789,1973.26882 402.818561,1972.99354 C402.833854,1972.99354 402.849147,1972.99354 402.864441,1972.97825 C402.925614,1972.48886 402.986787,1971.98418 403.032667,1971.44891 C403.032667,1971.29598 402.956201,1971.17364 402.818561,1971.11246 C402.940907,1970.86777 403.155013,1970.74542 403.46088,1970.71484 C403.889092,1970.8066 404.103198,1971.00541 404.103198,1971.32657 C404.026732,1971.84654 403.950265,1972.32063 403.873799,1972.77943 C404.149078,1972.74885 404.439651,1972.73355 404.745517,1972.71826 Z M416.803195,1968.742 C417.170234,1968.87964 417.369047,1969.13963 417.369047,1969.53725 C417.33846,1969.70548 417.231407,1969.95017 417.047887,1970.28662 C417.52198,1970.5772 418.363112,1971.18893 419.586576,1972.13711 C420.6724,1972.8559 421.681759,1973.26882 422.599357,1973.39116 C422.828756,1973.45234 422.951103,1973.5441 422.951103,1973.66644 C422.75229,1974.30876 422.232317,1974.6758 421.375892,1974.79815 C420.702987,1974.79815 419.999495,1974.30876 419.250123,1973.2994 C418.607804,1972.6265 417.812553,1971.84654 416.894954,1970.99012 C416.803195,1970.99012 416.726728,1970.97482 416.665555,1970.94424 C416.237342,1971.60185 415.656197,1972.44298 414.922118,1973.45234 C414.035107,1974.61463 413.285735,1975.25695 412.674003,1975.39459 C412.15403,1975.37929 411.802284,1975.22636 411.618765,1974.95108 C411.618765,1974.88991 411.695231,1974.79815 411.878751,1974.70639 C413.469254,1973.66644 414.906825,1972.01477 416.176169,1969.75136 C416.298516,1969.56784 416.359689,1969.41491 416.390275,1969.27727 C416.344395,1969.15492 416.313809,1969.06316 416.298516,1968.9714 C416.313809,1968.81847 416.482035,1968.742 416.803195,1968.742 Z M418.271352,1973.91114 C418.791324,1974.0029 419.05131,1974.29347 419.05131,1974.76756 C418.95955,1974.99696 418.928964,1975.33341 418.928964,1975.79221 C418.944257,1976.81686 418.95955,1977.90269 418.95955,1979.06498 C418.898377,1980.28844 418.668978,1980.91547 418.301938,1980.91547 C417.996072,1980.91547 417.843139,1980.34962 417.827846,1979.2485 C417.919606,1978.48383 417.965486,1977.68858 417.965486,1976.89333 C417.919606,1975.44047 417.736086,1974.62992 417.43022,1974.4464 C417.61374,1974.09466 417.889019,1973.91114 418.271352,1973.91114 Z M415.258571,1974.24759 C415.67149,1974.30876 415.916183,1974.50758 415.992649,1974.84403 C415.85501,1978.14738 414.983291,1979.98258 413.377495,1980.3802 C413.025749,1980.3802 412.857522,1980.28844 412.857522,1980.13551 C412.857522,1980.04375 412.949282,1979.96729 413.132802,1979.86023 C414.310386,1979.00381 414.922118,1977.4286 414.983291,1975.16519 C414.952705,1974.95108 414.860945,1974.75227 414.723305,1974.53816 C414.723305,1974.35464 414.891532,1974.24759 415.258571,1974.24759 Z M430.023163,1970.59249 C430.329029,1970.63837 430.497256,1970.85248 430.527842,1971.2501 C430.512549,1971.58655 430.390202,1971.98418 430.14551,1972.41239 C429.992577,1972.79473 429.87023,1973.05471 429.809057,1973.20764 C429.809057,1973.26882 429.839644,1973.2994 429.900817,1973.2994 L430.665482,1973.05471 C431.032521,1972.36651 431.231334,1971.89242 431.231334,1971.61714 C431.200748,1971.58655 431.185454,1971.52538 431.170161,1971.43362 C431.170161,1971.28069 431.307801,1971.20422 431.598373,1971.20422 C431.90424,1971.20422 432.072466,1971.43362 432.072466,1971.86183 C432.072466,1972.13711 431.781893,1972.70297 431.200748,1973.55939 C430.696069,1974.40052 430.420789,1974.95108 430.374909,1975.21107 C430.374909,1975.27224 430.405496,1975.28753 430.497256,1975.28753 C430.757242,1975.25695 431.108988,1975.1346 431.5372,1974.92049 C431.506614,1974.75227 431.476027,1974.56875 431.476027,1974.38523 C431.476027,1974.26288 431.521907,1974.20171 431.644253,1974.20171 C431.90424,1974.24759 432.148932,1974.36994 432.393625,1974.58404 C432.607732,1974.76756 432.714785,1974.96637 432.714785,1975.18048 C432.684198,1975.73104 432.485385,1976.00632 432.087759,1976.00632 C431.965413,1976.00632 431.85836,1975.89927 431.736013,1975.65457 C431.414854,1975.83809 430.986641,1976.06749 430.436082,1976.37336 C429.763177,1976.70981 429.319671,1976.89333 429.105565,1976.90862 C428.769112,1976.90862 428.616179,1976.77098 428.616179,1976.48041 C428.616179,1976.32748 428.952632,1975.74633 429.640831,1974.76756 C429.763177,1974.58404 429.87023,1974.40052 429.977283,1974.2323 C429.549071,1974.47699 429.166738,1974.61463 428.845579,1974.64522 C428.539713,1974.64522 428.356193,1974.47699 428.310313,1974.14054 C428.310313,1973.94172 428.570299,1973.43704 429.105565,1972.64179 C429.579657,1971.98418 429.82435,1971.43362 429.839644,1970.97482 C429.839644,1970.91365 429.82435,1970.88306 429.809057,1970.85248 C429.77847,1970.82189 429.763177,1970.77601 429.763177,1970.73013 C429.763177,1970.63837 429.839644,1970.59249 430.023163,1970.59249 Z M428.952632,1977.39801 C428.646766,1977.67329 428.3409,1977.84152 428.050327,1977.8874 C427.866807,1977.8721 427.698581,1977.85681 427.545648,1977.85681 C427.408008,1977.85681 427.346835,1977.93328 427.346835,1978.08621 C427.392715,1978.68265 427.683288,1979.00381 428.218553,1979.04969 C428.43266,1979.0191 428.646766,1978.86617 428.830285,1978.59089 C428.998512,1978.30031 429.090272,1977.99445 429.120858,1977.68858 C429.120858,1977.50506 429.059685,1977.39801 428.952632,1977.39801 Z M431.5372,1976.49571 C432.240692,1976.54159 432.607732,1976.78628 432.607732,1977.24508 C432.577145,1977.67329 432.393625,1977.90269 432.026586,1977.93328 C431.81248,1977.90269 431.659547,1977.78034 431.552494,1977.56624 C431.368974,1977.29096 431.277214,1977.00038 431.261921,1976.67922 C431.261921,1976.55688 431.353681,1976.49571 431.5372,1976.49571 Z M429.992577,1977.13802 C429.809057,1977.13802 429.717297,1977.1992 429.717297,1977.32154 C429.73259,1977.6427 429.82435,1977.93328 429.977283,1978.20856 C430.084336,1978.42266 430.237269,1978.54501 430.436082,1978.57559 C430.803122,1978.54501 430.986641,1978.31561 431.001935,1977.8874 C431.001935,1977.4286 430.665482,1977.1839 429.992577,1977.13802 Z M437.04279,1970.3325 C435.360526,1970.51602 434.091182,1970.73013 433.265344,1971.00541 C433.112411,1971.09717 433.035944,1971.20422 433.035944,1971.31128 C433.035944,1971.49479 433.372397,1971.63243 434.060595,1971.7089 C434.305288,1971.7089 434.534688,1971.69361 434.748794,1971.63243 C434.779381,1971.63243 434.809967,1971.61714 434.840554,1971.61714 L434.840554,1971.83125 C434.809967,1972.53474 434.580568,1973.25352 434.137062,1973.97231 C433.831196,1974.55346 433.464157,1975.01225 433.020651,1975.34871 C432.898304,1975.44047 432.852424,1975.53223 432.852424,1975.5934 C432.852424,1975.73104 433.005357,1975.79221 433.311224,1975.79221 C433.877076,1975.66987 434.381755,1975.28753 434.809967,1974.66051 C435.299353,1974.04878 435.620512,1973.22294 435.758152,1972.15241 C435.727566,1971.84654 435.666392,1971.60185 435.544046,1971.40303 C435.972258,1971.29598 436.431058,1971.20422 436.920443,1971.11246 C437.195723,1971.11246 437.363949,1971.20422 437.409829,1971.35715 C437.516882,1971.57126 437.578055,1971.81595 437.578055,1972.09123 C437.516882,1973.58998 437.211016,1974.38523 436.691044,1974.4464 C436.583991,1974.4464 436.492231,1974.4464 436.431058,1974.41582 C436.278124,1974.41582 436.216951,1974.47699 436.216951,1974.56875 C436.308711,1975.16519 436.568697,1975.45576 436.99691,1975.45576 C437.532175,1975.42517 437.929801,1975.11931 438.189787,1974.50758 C438.465067,1973.94172 438.618,1973.00883 438.618,1971.7089 C438.587413,1970.82189 438.067441,1970.36309 437.04279,1970.3325 Z M436.981616,1978.66735 C436.782804,1978.69794 436.568697,1978.72853 436.324004,1978.75911 C435.589926,1978.85087 435.039367,1978.94263 434.657034,1979.0191 C434.626448,1978.92734 434.580568,1978.83558 434.549981,1978.71323 C434.427635,1978.26973 434.320582,1977.82622 434.244115,1977.38272 C433.984129,1976.89333 433.739436,1976.63334 433.494743,1976.63334 C433.357103,1976.69452 433.29593,1977.04626 433.29593,1977.70388 C433.357103,1978.40737 433.510036,1978.97322 433.754729,1979.40143 C433.999422,1979.86023 434.259408,1980.08963 434.504101,1980.08963 C434.687621,1980.05904 434.779381,1979.92141 434.779381,1979.63083 C434.886434,1979.66142 435.024074,1979.66142 435.177007,1979.66142 C435.620512,1979.64613 436.538111,1979.58495 437.945095,1979.49319 C438.250961,1979.46261 438.43448,1979.34026 438.48036,1979.09557 C438.48036,1978.88146 438.358014,1978.72853 438.143908,1978.63677 C438.3886,1978.22385 438.541533,1977.73446 438.618,1977.16861 C438.57212,1976.511 438.067441,1976.09808 437.103963,1975.91456 C435.23818,1976.06749 434.259408,1976.32748 434.167649,1976.69452 C434.167649,1976.90862 434.381755,1977.03097 434.825261,1977.07685 C435.1923,1977.06156 435.452286,1977.01568 435.605219,1976.93921 C435.834619,1976.86274 436.079312,1976.80157 436.339298,1976.75569 C436.981616,1976.78628 437.318069,1976.98509 437.348656,1977.33684 C437.348656,1977.53565 437.287483,1977.81093 437.165136,1978.14738 C437.073376,1978.36149 437.012203,1978.54501 436.981616,1978.66735 Z" transform="translate(-378 -1968)"/>
</svg>
