<svg xmlns="http://www.w3.org/2000/svg" width="61" height="13" viewBox="0 0 61 13">
  <path fill="#4A4A4A" fill-rule="evenodd" d="M87,3.18867925 L87,12.8113208 L88.4555256,12.8113208 L88.4555256,3.18867925 L87,3.18867925 Z M93.7654987,5.65498652 C93.3342318,5.65498652 92.9433962,5.73584906 92.5929919,5.9245283 C92.2425876,6.09973046 91.9326146,6.35579515 91.6630728,6.70619946 L91.6630728,5.84366577 L90.2345013,5.84366577 L90.2345013,12.8113208 L91.6630728,12.8113208 L91.6630728,8.61994609 C91.7169811,8.05390836 91.9191375,7.60916442 92.2425876,7.28571429 C92.5390836,6.98921833 92.902965,6.85444744 93.3072776,6.85444744 C94.3854447,6.85444744 94.9380054,7.44743935 94.9380054,8.63342318 L94.9380054,12.8113208 L96.3665768,12.8113208 L96.3665768,8.51212938 C96.3665768,6.59838275 95.490566,5.65498652 93.7654987,5.65498652 Z M100.113208,3.59299191 L98.6846361,4.18598383 L98.6846361,5.84366577 L97.3908356,5.84366577 L97.3908356,7.0296496 L98.6846361,7.0296496 L98.6846361,11.0727763 C98.6846361,11.6253369 98.8059299,12.0431267 99.0754717,12.3396226 C99.3450135,12.6495957 99.7897574,12.8113208 100.382749,12.8113208 L101.528302,12.8113208 L101.528302,11.6253369 L100.61186,11.6253369 C100.436658,11.6253369 100.315364,11.5714286 100.234501,11.490566 C100.153639,11.3962264 100.113208,11.2614555 100.113208,11.0727763 L100.113208,7.0296496 L101.703504,7.0296496 L101.703504,5.84366577 L100.113208,5.84366577 L100.113208,3.59299191 Z M106.083558,5.65498652 C105.652291,5.65498652 105.274933,5.77628032 104.951482,6.0458221 C104.681941,6.23450135 104.45283,6.51752022 104.277628,6.89487871 L104.277628,5.84366577 L102.849057,5.84366577 L102.849057,12.8113208 L104.277628,12.8113208 L104.277628,9.11859838 C104.277628,8.51212938 104.45283,8.01347709 104.816712,7.6361186 C105.153639,7.28571429 105.544474,7.11051213 105.975741,7.11051213 C106.299191,7.11051213 106.636119,7.1509434 106.986523,7.25876011 L106.986523,5.83018868 C106.743935,5.70889488 106.433962,5.65498652 106.083558,5.65498652 Z M111.070081,5.65498652 C112.121294,5.65498652 112.97035,6.00539084 113.603774,6.70619946 C114.22372,7.393531 114.54717,8.26954178 114.54717,9.33423181 C114.54717,10.3854447 114.237197,11.2614555 113.617251,11.93531 C112.97035,12.6361186 112.121294,13 111.070081,13 C110.018868,13 109.169811,12.6361186 108.522911,11.93531 C107.902965,11.2614555 107.592992,10.3854447 107.592992,9.33423181 C107.592992,8.26954178 107.902965,7.393531 108.536388,6.70619946 C109.169811,6.00539084 110.018868,5.65498652 111.070081,5.65498652 Z M111.070081,6.82749326 C110.409704,6.82749326 109.897574,7.08355795 109.533693,7.60916442 C109.210243,8.05390836 109.061995,8.63342318 109.061995,9.33423181 C109.061995,10.0350404 109.210243,10.6010782 109.533693,11.0458221 C109.897574,11.5579515 110.409704,11.8274933 111.070081,11.8274933 C111.730458,11.8274933 112.242588,11.5579515 112.619946,11.0458221 C112.943396,10.5876011 113.105121,10.0215633 113.105121,9.33423181 C113.105121,8.63342318 112.943396,8.05390836 112.619946,7.60916442 C112.242588,7.08355795 111.730458,6.82749326 111.070081,6.82749326 Z M120.921833,3 L122.350404,3 L122.350404,12.8113208 L121.016173,12.8113208 L121.016173,11.9757412 C120.530997,12.6495957 119.803235,13 118.859838,13 C117.83558,13 117.026954,12.6361186 116.447439,11.9083558 C115.908356,11.2345013 115.638814,10.3584906 115.638814,9.29380054 C115.638814,8.26954178 115.894879,7.42048518 116.433962,6.74663073 C117,6.01886792 117.795148,5.65498652 118.792453,5.65498652 C119.641509,5.65498652 120.355795,6.05929919 120.921833,6.88140162 L120.921833,3 Z M119.115903,6.81401617 C118.415094,6.81401617 117.889488,7.04312668 117.552561,7.52830189 C117.256065,7.93261456 117.107817,8.52560647 117.107817,9.29380054 C117.107817,10.0619946 117.242588,10.6549865 117.525606,11.0862534 C117.849057,11.5849057 118.374663,11.8409704 119.075472,11.8409704 C119.695418,11.8409704 120.167116,11.5849057 120.51752,11.0997305 C120.814016,10.6549865 120.962264,10.0889488 120.962264,9.38814016 L120.962264,9.26684636 C120.962264,8.51212938 120.773585,7.90566038 120.423181,7.44743935 C120.072776,7.01617251 119.641509,6.81401617 119.115903,6.81401617 Z M123.967655,5.84366577 L123.967655,10.1832884 C123.967655,12.0566038 124.803235,13 126.487871,13 C127.363881,13 128.091644,12.6226415 128.684636,11.8679245 L128.684636,12.8113208 L130.113208,12.8113208 L130.113208,5.84366577 L128.684636,5.84366577 L128.684636,10.1024259 C128.563342,10.6145553 128.334232,11.032345 128.010782,11.3423181 C127.687332,11.638814 127.350404,11.8005391 126.973046,11.8005391 C126.420485,11.8005391 126.016173,11.6522911 125.773585,11.3827493 C125.51752,11.1132075 125.396226,10.6819407 125.396226,10.0889488 L125.396226,5.84366577 L123.967655,5.84366577 Z M134.843666,5.65498652 C133.765499,5.65498652 132.929919,6.01886792 132.32345,6.74663073 C131.757412,7.42048518 131.474394,8.28301887 131.474394,9.33423181 C131.474394,10.4123989 131.757412,11.2749326 132.336927,11.9487871 C132.929919,12.6495957 133.752022,13 134.816712,13 C135.706199,13 136.433962,12.7708895 136.973046,12.3261456 C137.512129,11.8679245 137.876011,11.1671159 138.037736,10.2371968 L136.622642,10.2371968 C136.487871,11.2884097 135.894879,11.8274933 134.830189,11.8274933 C134.210243,11.8274933 133.752022,11.5983827 133.442049,11.1671159 C133.105121,10.722372 132.943396,10.1024259 132.943396,9.32075472 C132.943396,8.53908356 133.105121,7.91913747 133.455526,7.48787062 C133.792453,7.04312668 134.250674,6.82749326 134.843666,6.82749326 C135.328841,6.82749326 135.719677,6.93530997 136.016173,7.16442049 C136.312668,7.38005391 136.501348,7.73045822 136.595687,8.20215633 L138.010782,8.20215633 C137.876011,7.33962264 137.525606,6.69272237 136.986523,6.26145553 C136.447439,5.85714286 135.733154,5.65498652 134.843666,5.65498652 Z M142.215633,5.65498652 C143.347709,5.65498652 144.22372,6.03234501 144.816712,6.81401617 C145.355795,7.5148248 145.638814,8.4851752 145.652291,9.72506739 L140.369272,9.72506739 C140.423181,10.3989218 140.598383,10.9245283 140.921833,11.2884097 C141.245283,11.638814 141.690027,11.8274933 142.256065,11.8274933 C142.754717,11.8274933 143.15903,11.7061995 143.469003,11.4770889 C143.71159,11.2884097 143.913747,10.9784367 144.102426,10.574124 L145.530997,10.574124 C145.369272,11.2210243 145.059299,11.7735849 144.574124,12.2048518 C143.967655,12.7304582 143.199461,13 142.269542,13 C141.245283,13 140.423181,12.6765499 139.830189,12.0431267 C139.183288,11.3692722 138.859838,10.4663073 138.859838,9.32075472 C138.859838,8.28301887 139.156334,7.42048518 139.77628,6.71967655 C140.369272,6.00539084 141.191375,5.65498652 142.215633,5.65498652 Z M142.256065,6.82749326 C141.716981,6.82749326 141.299191,6.97574124 140.975741,7.29919137 C140.679245,7.60916442 140.477089,8.05390836 140.396226,8.64690027 L144.156334,8.64690027 C144.021563,7.43396226 143.38814,6.82749326 142.256065,6.82749326 Z" transform="translate(-86 -1)"/>
</svg>
