<svg xmlns="http://www.w3.org/2000/svg" xmlns:xlink="http://www.w3.org/1999/xlink" width="172" height="109" viewBox="0 0 172 109">
  <defs>
    <path id="news_tit-a" d="M0,69.6147963 C0,47.8965361 17.6077932,30.2904076 39.3241635,30.2904076 L131.790069,30.2904076 C153.508204,30.2904076 171.114232,47.8917609 171.114232,69.6147963 L171.114232,69.6147963 C171.114232,91.3330565 153.506439,108.939185 131.790069,108.939185 L39.3241635,108.939185 C17.6060277,108.939185 0,91.3378318 0,69.6147963 L0,69.6147963 Z"/>
  </defs>
  <g fill="none" fill-rule="evenodd">
    <path fill="#F5F5F5" d="M109.517311,2.34779475 C105.916648,-0.673579378 99.5657795,0.96719724 95.3323185,6.01242917 C92.0353366,9.94160787 90.9949965,14.7770107 92.396893,18.1510603 C92.6146246,18.6752569 92.5137742,19.2775749 92.1361118,19.7012973 L85.8748041,26.7459271 L81.4227835,21.7516472 C80.9912339,21.267565 80.9195097,20.5546878 81.2617238,20.0038487 C82.5465887,17.9358876 82.4275249,15.1944864 80.7774159,13.2280531 L80.7398604,13.1832725 L78.8913619,10.9802923 L69.9843856,0.365406045 C69.6212488,-0.0673477527 68.9761069,-0.1237939 68.5432779,0.239342982 L68.5274729,0.252589012 C68.0947191,0.615725894 68.038273,1.26094299 68.4013346,1.69377205 L76.666029,11.5431732 C77.0207366,11.9659172 76.9655699,12.5961573 76.5429012,12.9508649 L76.5274725,12.9638851 C76.1046533,13.3185927 75.4744132,13.263426 75.1197056,12.840682 L66.8550112,2.99120557 C66.4918743,2.55845177 65.8467325,2.50200562 65.4139787,2.86514251 L65.3980985,2.8784638 C64.9653447,3.24160068 64.9088986,3.88681778 65.2720355,4.31957158 L73.5367299,14.1689728 C73.8914374,14.591792 73.8362707,15.2220321 73.4135267,15.5766644 L73.3980981,15.5896847 C72.9753541,15.9443923 72.3451141,15.8892256 71.9903312,15.4665568 L63.7257121,5.61708035 C63.3625752,5.18432656 62.7173581,5.12788041 62.2846043,5.49101729 L62.2687241,5.50426332 C61.8359703,5.8674002 61.7795241,6.5126173 62.142661,6.9453711 L70.4073554,16.7947723 C70.762063,17.2175916 70.7069716,17.8478316 70.2841523,18.2025392 L70.2687237,18.2154842 C69.8459797,18.570267 69.2157396,18.5151003 68.861032,18.0923563 L60.5963376,8.24287988 C60.2332008,7.81012608 59.5879837,7.75367993 59.1552299,8.11681682 L59.1394249,8.13013811 C58.7066711,8.49327499 58.650225,9.13849209 59.0133619,9.57124588 L67.9202629,20.1861321 L69.7687614,22.3891123 L69.8063921,22.4338929 C71.4564259,24.4003262 74.1354353,24.9936128 76.3950875,24.0873888 C76.9970292,23.8459498 77.6865754,24.0404256 78.0883967,24.5494946 L82.6691144,30.3526854 L67.7618374,47.1251689 C66.6356991,48.4672325 66.8107574,50.4680603 68.152821,51.5941986 L68.2018916,51.6353666 C69.5440304,52.7615049 71.5448582,52.5864466 72.6709965,51.244383 L85.9353143,34.4906395 L99.3726584,51.5141203 C100.498797,52.8561839 102.499624,53.0312422 103.841688,51.905104 L103.890759,51.8639359 C105.232822,50.7377976 105.407881,48.7369698 104.281818,47.3949062 L89.1543252,30.4248612 L95.4456623,22.4783725 C95.7973594,22.0328243 96.3730349,21.8289408 96.927035,21.9523697 C100.493303,22.7470562 105.074547,20.8828281 108.371529,16.9535741 C112.60499,11.9083422 113.117973,5.36909361 109.517311,2.34779475"/>
    <use fill="#FFC331" xlink:href="#news_tit-a"/>
    <path stroke="#F5F5F5" stroke-width="8" d="M4,69.6147963 C4,50.1063075 19.8162998,34.2904076 39.3241635,34.2904076 L131.790069,34.2904076 C151.300785,34.2904076 167.114232,50.1026191 167.114232,69.6147963 C167.114232,89.1232852 151.297932,104.939185 131.790069,104.939185 L39.3241635,104.939185 C19.8134474,104.939185 4,89.1269736 4,69.6147963 Z"/>
    <path fill="#FFF" d="M40.0799725,65.9821493 L61.4399725,65.9821493 L61.4399725,68.0941493 L50.8799725,68.0941493 L50.8799725,79.1341493 L48.4319725,79.1341493 L48.4319725,77.1901493 C46.5599725,77.4781493 43.8959725,77.7421493 40.4159725,78.0061493 L40.1039725,75.8941493 L42.0719725,75.7981493 L42.0719725,68.0941493 L40.0799725,68.0941493 L40.0799725,65.9821493 Z M44.4479725,75.6301493 C45.9599725,75.5101493 47.2799725,75.3661493 48.4319725,75.2221493 L48.4319725,74.1661493 L44.4479725,74.1661493 L44.4479725,75.6301493 Z M44.4479725,72.3901493 L48.4319725,72.3901493 L48.4319725,71.0701493 L44.4479725,71.0701493 L44.4479725,72.3901493 Z M44.4479725,69.2941493 L48.4319725,69.2941493 L48.4319725,68.0941493 L44.4479725,68.0941493 L44.4479725,69.2941493 Z M52.5119725,71.1181493 L51.7199725,71.1181493 L51.7199725,69.0541493 L60.1679725,69.0541493 L60.1679725,70.9981493 C59.7839725,72.6301493 59.0639725,74.0701493 58.0559725,75.3181493 C59.0399725,75.9901493 60.1919725,76.6141493 61.5359725,77.1421493 L60.2639725,79.2301493 C58.7759725,78.5101493 57.5039725,77.7421493 56.4479725,76.9021493 C55.2959725,77.8141493 53.9039725,78.5821493 52.3199725,79.2061493 L51.0479725,77.2621493 C52.4879725,76.7101493 53.7359725,76.0621493 54.7679725,75.2941493 C53.6639725,74.0221493 52.9199725,72.6301493 52.5119725,71.1181493 Z M56.3279725,73.8301493 C57.0479725,72.9901493 57.5759725,72.0781493 57.9119725,71.1181493 L54.6479725,71.1181493 C54.9839725,72.1021493 55.5599725,73.0141493 56.3279725,73.8301493 Z M58.7039725,57.5821493 L58.7039725,65.0221493 L56.2559725,65.0221493 L56.2559725,59.4541493 L45.3599725,59.4541493 L45.3599725,65.0941493 L42.9359725,65.0941493 L42.9359725,57.5821493 L58.7039725,57.5821493 Z M46.1279725,60.5581493 L55.5119725,60.5581493 L55.5119725,62.2141493 L46.1279725,62.2141493 L46.1279725,60.5581493 Z M46.0799725,63.1741493 L55.5599725,63.1741493 L55.5599725,64.8061493 L46.0799725,64.8061493 L46.0799725,63.1741493 Z M68.3519725,66.4381493 L63.8639725,66.4381493 L63.8639725,64.1581493 L66.3119725,64.1581493 C66.0239725,63.3661493 65.7119725,62.6221493 65.3279725,61.9501493 L67.5119725,61.1101493 C67.8719725,61.9741493 68.2079725,62.9821493 68.5439725,64.1581493 L70.6559725,64.1581493 C70.9919725,63.1741493 71.3039725,62.1661493 71.5679725,61.1101493 L73.7999725,61.9021493 C73.5359725,62.7181493 73.2479725,63.4621493 72.9119725,64.1581493 L75.2639725,64.1581493 L75.2639725,66.4381493 L70.8479725,66.4381493 L70.8479725,68.3821493 L74.8559725,68.3821493 L74.8559725,70.6621493 L70.8479725,70.6621493 L70.8479725,79.1821493 L68.3519725,79.1821493 L68.3519725,70.6621493 L64.2479725,70.6621493 L64.2479725,68.3821493 L68.3519725,68.3821493 L68.3519725,66.4381493 Z M84.1439725,57.0541493 L85.3679725,59.2861493 C83.3279725,59.9581493 81.0719725,60.3661493 78.6239725,60.5101493 L78.6239725,64.2301493 L85.8719725,64.2301493 L85.8719725,66.6061493 L83.6639725,66.6061493 L83.6639725,79.1101493 L81.1919725,79.1101493 L81.1919725,66.6061493 L78.6239725,66.6061493 L78.6239725,68.8621493 C78.5039725,73.1341493 77.5679725,76.5181493 75.7919725,79.0621493 L73.9919725,77.1661493 C75.3599725,75.1741493 76.1039725,72.4141493 76.1999725,68.8621493 L76.1999725,58.4701493 C79.1519725,58.4221493 81.7919725,57.9421493 84.1439725,57.0541493 Z M64.1039725,58.7101493 L68.2559725,58.7101493 C67.9679725,58.1101493 67.6559725,57.5581493 67.3199725,57.0541493 L69.9119725,56.6221493 C70.1999725,57.2461493 70.4639725,57.9421493 70.7519725,58.7101493 L75.1199725,58.7101493 L75.1199725,61.0141493 L64.1039725,61.0141493 L64.1039725,58.7101493 Z M65.5439725,71.5981493 L67.7999725,72.0781493 C67.2479725,74.5261493 66.4799725,76.6381493 65.4719725,78.4381493 L63.4079725,77.1181493 C64.4159725,75.3901493 65.1359725,73.5421493 65.5439725,71.5981493 Z M73.3679725,71.4541493 C73.9439725,72.9421493 74.3999725,74.3101493 74.7359725,75.5581493 L72.6479725,76.3741493 C72.2879725,74.8861493 71.8319725,73.4221493 71.3039725,72.0061493 L73.3679725,71.4541493 Z M94.1759725,57.5821493 L96.5039725,58.5181493 C94.8239725,63.3421493 92.6159725,67.0381493 89.8559725,69.6301493 L87.8639725,67.9021493 C90.7199725,65.3101493 92.8319725,61.8541493 94.1759725,57.5821493 Z M103.391973,69.7981493 C105.071973,72.3661493 106.535973,75.1261493 107.759973,78.0541493 L105.407973,79.1101493 C105.095973,78.3421493 104.783973,77.5981493 104.471973,76.8781493 C100.319973,77.5021493 95.6879725,77.9581493 90.5999725,78.2941493 L90.1679725,75.8461493 C91.7759725,75.4861493 94.1519725,71.8621493 97.2719725,64.9741493 L99.7439725,65.8381493 C97.8719725,69.7021493 95.9519725,73.0141493 93.9839725,75.7501493 C97.2239725,75.5341493 100.367973,75.1981493 103.439973,74.7181493 C102.695973,73.2301493 101.927973,71.8381493 101.135973,70.5661493 L103.391973,69.7981493 Z M98.4719725,57.5101493 L104.111973,57.5101493 C104.927973,61.7341493 106.823973,65.1421493 109.823973,67.7581493 L107.855973,69.5341493 C105.071973,66.9661493 103.175973,63.7501493 102.191973,59.8621493 L98.4719725,59.8621493 L98.4719725,57.5101493 Z M130.943973,69.8701493 L130.943973,79.0861493 L128.399973,79.0861493 L128.399973,77.9581493 L117.215973,77.9581493 L117.215973,79.0861493 L114.671973,79.0861493 L114.671973,69.8701493 L130.943973,69.8701493 Z M117.215973,75.6061493 L128.399973,75.6061493 L128.399973,72.2221493 L117.215973,72.2221493 L117.215973,75.6061493 Z M116.567973,62.3821493 L121.775973,62.3821493 L121.775973,65.4781493 L111.767973,65.4781493 L111.767973,67.9261493 L133.703973,67.9261493 L133.703973,65.4781493 L124.295973,65.4781493 L124.295973,62.3821493 L131.855973,62.3821493 L131.855973,59.9821493 L124.295973,59.9821493 L124.295973,56.8621493 L121.775973,56.8621493 L121.775973,59.9821493 L118.031973,59.9821493 C118.415973,59.1661493 118.751973,58.3261493 119.015973,57.4141493 L116.519973,57.1261493 C115.775973,59.5741493 114.359973,61.6621493 112.247973,63.3661493 L113.735973,65.3341493 C114.791973,64.4461493 115.751973,63.4621493 116.567973,62.3821493 Z"/>
  </g>
</svg>
