<svg xmlns="http://www.w3.org/2000/svg" xmlns:xlink="http://www.w3.org/1999/xlink" width="172" height="109" viewBox="0 0 172 109">
  <defs>
    <path id="section_tit3-a" d="M0,69.5850519 C0,47.8760713 17.6002699,30.2774653 39.3073614,30.2774653 L131.733758,30.2774653 C153.442615,30.2774653 171.04112,47.8712981 171.04112,69.5850519 L171.04112,69.5850519 C171.04112,91.2940325 153.44085,108.892638 131.733758,108.892638 L39.3073614,108.892638 C17.5985052,108.892638 0,91.2988057 0,69.5850519 L0,69.5850519 Z"/>
  </defs>
  <g fill="none" fill-rule="evenodd">
    <path fill="#F5F5F5" d="M109.470517,2.3467916 C105.871393,-0.673291576 99.5232378,0.966783984 95.2915856,6.00986023 C91.9960125,9.9373601 90.9561168,14.7706969 92.3574144,18.1433049 C92.5750529,18.6672775 92.4742456,19.2693381 92.0967446,19.6928795 L85.8381121,26.7344993 L81.3879938,21.7423533 C80.9566286,21.258478 80.884935,20.5459054 81.227003,19.9953016 C82.5113188,17.9282241 82.3923059,15.1879942 80.7429019,13.2224011 L80.7053625,13.1776397 L78.8576539,10.9756007 L69.9544833,0.365249918 C69.5915015,-0.0673189769 68.9466353,-0.123741007 68.5139912,0.239240718 L68.4981931,0.252481088 C68.0656242,0.615462812 68.0092021,1.26040423 68.3721086,1.69304835 L76.6332718,11.5382412 C76.9878278,11.9608045 76.9326847,12.5907753 76.5101965,12.9453313 L76.4947745,12.958346 C76.0721359,13.3129021 75.4421651,13.2577589 75.0876091,12.8351955 L66.8264459,2.98992751 C66.4634642,2.55735862 65.818598,2.50093659 65.3860291,2.86391831 L65.3701557,2.87723391 C64.9375868,3.24021563 64.8811648,3.88515705 65.2441465,4.31772594 L73.5053097,14.1629188 C73.8598657,14.5855574 73.8047226,15.2155281 73.3821592,15.5700089 L73.3667372,15.5830236 C72.9441738,15.9375797 72.314203,15.8824365 71.9595717,15.4599484 L63.6984838,5.61468033 C63.3355021,5.18211144 62.6905607,5.12568941 62.2579918,5.48867113 L62.2421184,5.5019115 C61.8095495,5.86489323 61.7531275,6.50983464 62.1161092,6.94240354 L70.3772723,16.7875963 C70.7318284,17.210235 70.6767605,17.8402057 70.2541218,18.1947618 L70.2386998,18.2077012 C69.8161364,18.5623325 69.1861657,18.5071893 68.8316096,18.084626 L60.5704465,8.23935792 C60.2074648,7.80678903 59.5625234,7.750367 59.1299545,8.11334873 L59.1141563,8.12666432 C58.6815874,8.48964605 58.6251654,9.13458746 58.9881471,9.56715636 L67.8912425,20.1775071 L69.7389511,22.3795461 L69.7765658,22.4243076 C71.4258946,24.3899006 74.1037593,24.9829338 76.362446,24.0770969 C76.9641305,23.8357611 77.6533821,24.0301538 78.0550317,24.5390052 L82.6337922,30.3397165 L67.7328846,47.1050336 C66.6072275,48.4465238 66.7822111,50.4464967 68.1237012,51.5721538 L68.1727508,51.6133043 C69.5143162,52.7389614 71.5142891,52.5639779 72.6399462,51.2224877 L85.8985966,34.4759027 L99.3301993,51.4921098 C100.455856,52.8335999 102.455829,53.0085835 103.797319,51.8829263 L103.846369,51.8417759 C105.187859,50.7161188 105.362843,48.7161459 104.237261,47.3746557 L89.1162321,30.4118615 L95.404881,22.4687681 C95.7564279,22.0234102 96.3318574,21.8196139 96.8856208,21.94299 C100.450365,22.737337 105.029652,20.8739054 108.325225,16.9463303 C112.556877,11.9032541 113.069641,5.36679955 109.470517,2.3467916"/>
    <use fill="#FFC331" xlink:href="#section_tit3-a"/>
    <path stroke="#F5F5F5" stroke-width="8" d="M4,69.5850519 C4,50.0858424 19.8087767,34.2774653 39.3073614,34.2774653 L131.733758,34.2774653 C151.235194,34.2774653 167.04112,50.0821556 167.04112,69.5850519 C167.04112,89.0842614 151.232343,104.892638 131.733758,104.892638 L39.3073614,104.892638 C19.8059255,104.892638 4,89.0879482 4,69.5850519 Z"/>
    <path fill="#FFF" d="M42.0610334,57.6405819 L44.4850334,57.6405819 L44.4850334,59.9445819 L47.8690334,59.9445819 L47.8690334,62.1525819 L44.4850334,62.1525819 L44.4850334,64.3125819 L48.6850334,64.3125819 L48.6850334,66.5685819 L46.9090334,66.5685819 C46.7410334,67.5045819 46.5250334,68.4165819 46.2850334,69.2805819 L47.9410334,69.2805819 L47.9410334,71.4885819 L44.4850334,71.4885819 L44.4850334,73.6725819 L48.7090334,73.6725819 L48.7090334,75.9285819 L44.4850334,75.9285819 L44.4850334,79.8165819 L42.0610334,79.8165819 L42.0610334,75.9285819 L37.7410334,75.9285819 L37.7410334,73.6725819 L42.0610334,73.6725819 L42.0610334,71.4885819 L38.5330334,71.4885819 L38.5330334,69.2805819 L40.2850334,69.2805819 C40.0930334,68.3205819 39.9010334,67.4325819 39.7090334,66.5685819 L37.8610334,66.5685819 L37.8610334,64.3125819 L42.0610334,64.3125819 L42.0610334,62.1525819 L38.6290334,62.1525819 L38.6290334,59.9445819 L42.0610334,59.9445819 L42.0610334,57.6405819 Z M44.0050334,69.2805819 C44.2690334,68.4165819 44.4850334,67.5045819 44.6290334,66.5685819 L41.9170334,66.5685819 C42.1090334,67.4085819 42.2770334,68.3205819 42.4690334,69.2805819 L44.0050334,69.2805819 Z M51.5890334,69.2325819 L51.5890334,77.6565819 C52.5970334,77.0325819 53.4850334,76.2885819 54.2290334,75.3765819 C53.0050334,73.4805819 52.2370334,71.4405819 51.9490334,69.2325819 L51.5890334,69.2325819 Z M54.1810334,69.2325819 C54.3970334,70.6965819 54.8530334,72.0405819 55.5730334,73.2645819 C56.1490334,72.0645819 56.5570334,70.7205819 56.8450334,69.2325819 L54.1810334,69.2325819 Z M51.5890334,78.0645819 L51.5890334,79.8405819 L49.2130334,79.8405819 L49.2130334,58.3845819 L58.8610334,58.3845819 C58.8610334,61.2645819 58.6930334,63.2085819 58.4050334,64.1685819 C58.1170334,65.0805819 57.2290334,65.5605819 55.7410334,65.5605819 L54.1570334,65.5605819 L53.4850334,63.4005819 C53.7730334,63.4005819 54.1570334,63.4245819 54.6130334,63.4245819 C55.0930334,63.4245819 55.4290334,63.4005819 55.6690334,63.3525819 C55.8850334,63.2805819 56.0530334,63.1365819 56.1970334,62.8965819 C56.2930334,62.5845819 56.3890334,61.8405819 56.4370334,60.6405819 L51.5890334,60.6405819 L51.5890334,66.9525819 L59.0770334,66.9525819 L59.0770334,69.1125819 C58.7410334,71.5605819 58.0930334,73.6725819 57.1330334,75.4245819 C57.9490334,76.3605819 58.9090334,77.2005819 60.0370334,77.9685819 L58.3810334,79.8885819 C57.3730334,79.0725819 56.5090334,78.2565819 55.7410334,77.3925819 C54.8290334,78.4005819 53.7970334,79.2405819 52.6210334,79.9125819 L51.5890334,78.0645819 Z M69.6610334,78.5445819 L69.6610334,79.7925819 L67.1410334,79.7925819 L67.1410334,71.6085819 C65.8450334,71.9925819 64.4530334,72.3765819 63.0130334,72.7125819 L61.7170334,70.3125819 C65.6770334,69.5925819 68.9650334,68.6325819 71.6050334,67.4325819 C70.5970334,66.6165819 69.3010334,65.7765819 67.7410334,64.8885819 L69.9250334,63.5445819 C71.5090334,64.5525819 72.8050334,65.4645819 73.7890334,66.2805819 C75.8770334,65.0085819 77.4370334,63.5445819 78.4450334,61.9125819 L70.3810334,61.9125819 C68.7490334,63.4005819 66.7090334,64.7445819 64.2130334,65.9445819 L62.5330334,63.7605819 C66.5650334,62.0805819 69.3010334,59.9925819 70.7170334,57.5445819 L73.4770334,57.8805819 C73.1890334,58.4565819 72.8530334,59.0085819 72.4690334,59.5605819 L81.3010334,59.5605819 L81.3010334,61.7685819 C79.8130334,64.7445819 77.1010334,67.2165819 73.2130334,69.2085819 L82.1170334,69.2085819 L82.1170334,79.7925819 L79.5730334,79.7925819 L79.5730334,78.5445819 L69.6610334,78.5445819 Z M79.5730334,76.1205819 L79.5730334,71.5365819 L69.6610334,71.5365819 L69.6610334,76.1205819 L79.5730334,76.1205819 Z M104.773033,58.3845819 L104.773033,79.7445819 L102.253033,79.7445819 L102.253033,78.0885819 L91.6690334,78.0885819 L91.6690334,79.7685819 L89.1490334,79.7685819 L89.1490334,58.3845819 L104.773033,58.3845819 Z M91.6690334,75.6405819 L102.253033,75.6405819 L102.253033,69.1845819 L91.6690334,69.1845819 L91.6690334,75.6405819 Z M91.6690334,66.7365819 L102.253033,66.7365819 L102.253033,60.8325819 L91.6690334,60.8325819 L91.6690334,66.7365819 Z M111.373033,57.7605819 L113.773033,57.7605819 L113.773033,60.1605819 L117.733033,60.1605819 L117.733033,57.8085819 L120.133033,57.8085819 L120.133033,60.1605819 L121.309033,60.1605819 L121.309033,62.4885819 L120.133033,62.4885819 L120.133033,71.8725819 L121.429033,71.8725819 L121.429033,74.2005819 L109.885033,74.2005819 L109.885033,71.8725819 L111.373033,71.8725819 L111.373033,62.4885819 L110.149033,62.4885819 L110.149033,60.1605819 L111.373033,60.1605819 L111.373033,57.7605819 Z M113.773033,71.8725819 L117.733033,71.8725819 L117.733033,70.2165819 L113.773033,70.2165819 L113.773033,71.8725819 Z M117.733033,62.4885819 L113.773033,62.4885819 L113.773033,64.1685819 L117.733033,64.1685819 L117.733033,62.4885819 Z M113.773033,68.0325819 L117.733033,68.0325819 L117.733033,66.3525819 L113.773033,66.3525819 L113.773033,68.0325819 Z M118.069033,74.3445819 C119.005033,75.5445819 119.749033,76.6005819 120.301033,77.5125819 C121.573033,75.4245819 122.221033,72.9045819 122.245033,69.9285819 L122.245033,58.3605819 L130.957033,58.3605819 L130.957033,77.2245819 C130.957033,78.8085819 130.141033,79.6245819 128.509033,79.6245819 L126.013033,79.6245819 L125.341033,77.1765819 C126.205033,77.2485819 126.997033,77.2965819 127.717033,77.2965819 C128.197033,77.2965819 128.437033,76.9605819 128.437033,76.3125819 L128.437033,72.1845819 L124.597033,72.1845819 C124.237033,75.3285819 123.277033,77.9445819 121.717033,80.0325819 L119.965033,78.4485819 L118.525033,79.4565819 C117.949033,78.3045819 117.133033,77.0085819 116.125033,75.5685819 L118.069033,74.3445819 Z M112.645033,74.4165819 C111.805033,75.9525819 110.797033,77.2725819 109.645033,78.3765819 L111.661033,79.8165819 C112.789033,78.5685819 113.773033,77.1045819 114.637033,75.3765819 L112.645033,74.4165819 Z M124.741033,66.4485819 L124.741033,69.9045819 L128.437033,69.9045819 L128.437033,66.4485819 L124.741033,66.4485819 Z M128.437033,64.1685819 L128.437033,60.7125819 L124.741033,60.7125819 L124.741033,64.1685819 L128.437033,64.1685819 Z"/>
  </g>
</svg>
