<svg xmlns="http://www.w3.org/2000/svg" xmlns:xlink="http://www.w3.org/1999/xlink" width="172" height="109" viewBox="0 0 172 109">
  <defs>
    <path id="section_tit4-a" d="M0,69.5850519 C0,47.8760713 17.6002699,30.2774653 39.3073614,30.2774653 L131.733758,30.2774653 C153.442615,30.2774653 171.04112,47.8712981 171.04112,69.5850519 L171.04112,69.5850519 C171.04112,91.2940325 153.44085,108.892638 131.733758,108.892638 L39.3073614,108.892638 C17.5985052,108.892638 0,91.2988057 0,69.5850519 L0,69.5850519 Z"/>
  </defs>
  <g fill="none" fill-rule="evenodd">
    <path fill="#F5F5F5" d="M109.470517,2.3467916 C105.871393,-0.673291576 99.5232378,0.966783984 95.2915856,6.00986023 C91.9960125,9.9373601 90.9561168,14.7706969 92.3574144,18.1433049 C92.5750529,18.6672775 92.4742456,19.2693381 92.0967446,19.6928795 L85.8381121,26.7344993 L81.3879938,21.7423533 C80.9566286,21.258478 80.884935,20.5459054 81.227003,19.9953016 C82.5113188,17.9282241 82.3923059,15.1879942 80.7429019,13.2224011 L80.7053625,13.1776397 L78.8576539,10.9756007 L69.9544833,0.365249918 C69.5915015,-0.0673189769 68.9466353,-0.123741007 68.5139912,0.239240718 L68.4981931,0.252481088 C68.0656242,0.615462812 68.0092021,1.26040423 68.3721086,1.69304835 L76.6332718,11.5382412 C76.9878278,11.9608045 76.9326847,12.5907753 76.5101965,12.9453313 L76.4947745,12.958346 C76.0721359,13.3129021 75.4421651,13.2577589 75.0876091,12.8351955 L66.8264459,2.98992751 C66.4634642,2.55735862 65.818598,2.50093659 65.3860291,2.86391831 L65.3701557,2.87723391 C64.9375868,3.24021563 64.8811648,3.88515705 65.2441465,4.31772594 L73.5053097,14.1629188 C73.8598657,14.5855574 73.8047226,15.2155281 73.3821592,15.5700089 L73.3667372,15.5830236 C72.9441738,15.9375797 72.314203,15.8824365 71.9595717,15.4599484 L63.6984838,5.61468033 C63.3355021,5.18211144 62.6905607,5.12568941 62.2579918,5.48867113 L62.2421184,5.5019115 C61.8095495,5.86489323 61.7531275,6.50983464 62.1161092,6.94240354 L70.3772723,16.7875963 C70.7318284,17.210235 70.6767605,17.8402057 70.2541218,18.1947618 L70.2386998,18.2077012 C69.8161364,18.5623325 69.1861657,18.5071893 68.8316096,18.084626 L60.5704465,8.23935792 C60.2074648,7.80678903 59.5625234,7.750367 59.1299545,8.11334873 L59.1141563,8.12666432 C58.6815874,8.48964605 58.6251654,9.13458746 58.9881471,9.56715636 L67.8912425,20.1775071 L69.7389511,22.3795461 L69.7765658,22.4243076 C71.4258946,24.3899006 74.1037593,24.9829338 76.362446,24.0770969 C76.9641305,23.8357611 77.6533821,24.0301538 78.0550317,24.5390052 L82.6337922,30.3397165 L67.7328846,47.1050336 C66.6072275,48.4465238 66.7822111,50.4464967 68.1237012,51.5721538 L68.1727508,51.6133043 C69.5143162,52.7389614 71.5142891,52.5639779 72.6399462,51.2224877 L85.8985966,34.4759027 L99.3301993,51.4921098 C100.455856,52.8335999 102.455829,53.0085835 103.797319,51.8829263 L103.846369,51.8417759 C105.187859,50.7161188 105.362843,48.7161459 104.237261,47.3746557 L89.1162321,30.4118615 L95.404881,22.4687681 C95.7564279,22.0234102 96.3318574,21.8196139 96.8856208,21.94299 C100.450365,22.737337 105.029652,20.8739054 108.325225,16.9463303 C112.556877,11.9032541 113.069641,5.36679955 109.470517,2.3467916"/>
    <use fill="#FFC331" xlink:href="#section_tit4-a"/>
    <path stroke="#F5F5F5" stroke-width="8" d="M4,69.5850519 C4,50.0858424 19.8087767,34.2774653 39.3073614,34.2774653 L131.733758,34.2774653 C151.235194,34.2774653 167.04112,50.0821556 167.04112,69.5850519 C167.04112,89.0842614 151.232343,104.892638 131.733758,104.892638 L39.3073614,104.892638 C19.8059255,104.892638 4,89.0879482 4,69.5850519 Z"/>
    <path fill="#FFF" d="M40.5490334,73.6005819 L39.2290334,73.6005819 L39.2290334,67.0005819 L47.4610334,67.0005819 L47.4610334,73.6005819 L45.8530334,73.6005819 L45.8530334,76.6725819 C46.6210334,76.3125819 47.3890334,75.9285819 48.1570334,75.4965819 L48.6610334,77.2965819 C47.3170334,78.1605819 45.6370334,78.9525819 43.6690334,79.6485819 L43.0450334,77.7765819 C43.4770334,77.4645819 43.6930334,76.9845819 43.6930334,76.3365819 L43.6930334,73.6005819 L42.7090334,73.6005819 C42.5650334,75.2085819 42.2770334,76.4085819 41.8450334,77.2245819 C41.2690334,78.2805819 40.2850334,79.1925819 38.9410334,79.9605819 L37.5010334,78.1125819 C38.6050334,77.5365819 39.3730334,76.8885819 39.8530334,76.1685819 C40.1890334,75.5925819 40.4290334,74.7525819 40.5490334,73.6005819 Z M39.9490334,61.5765819 L38.5810334,61.5765819 L38.5810334,59.4645819 L42.1570334,59.4645819 C41.9650334,58.9365819 41.7730334,58.4325819 41.5330334,57.9525819 L43.9810334,57.5685819 C44.1250334,58.1445819 44.2690334,58.7685819 44.4130334,59.4645819 L47.6530334,59.4645819 L47.6530334,61.5765819 L46.6690334,61.5765819 L46.1890334,63.7605819 L48.0370334,63.7605819 L48.0370334,65.8725819 L38.1490334,65.8725819 L38.1490334,63.7605819 L40.3330334,63.7605819 L39.9490334,61.5765819 Z M42.5890334,63.7605819 L43.9330334,63.7605819 L44.4130334,61.5765819 L42.2050334,61.5765819 L42.5890334,63.7605819 Z M45.1810334,71.5845819 L45.1810334,69.0165819 L41.5090334,69.0165819 L41.5090334,71.5845819 L45.1810334,71.5845819 Z M57.7810334,79.3605819 L56.1250334,79.3605819 C54.8290334,79.3605819 54.2050334,78.6165819 54.2050334,77.1525819 L54.2050334,73.6005819 L53.1970334,73.6005819 C53.0770334,75.1845819 52.8130334,76.3605819 52.3810334,77.1765819 C51.8290334,78.1845819 50.9170334,79.0725819 49.6450334,79.8405819 L48.2290334,77.9925819 C49.2370334,77.4645819 49.9570334,76.8165819 50.3890334,76.0965819 C50.7250334,75.5445819 50.9410334,74.7045819 51.0610334,73.6005819 L49.6930334,73.6005819 L49.6930334,67.0005819 L58.0690334,67.0005819 L58.0690334,73.6005819 L56.3410334,73.6005819 L56.3410334,76.6725819 C56.3410334,77.0325819 56.4850334,77.2245819 56.7730334,77.2245819 L57.3970334,77.2245819 C57.6130334,77.2245819 57.7810334,77.1285819 57.8770334,76.9365819 C57.9970334,76.7445819 58.0690334,76.0965819 58.1170334,75.0405819 L59.9890334,75.6405819 C59.8450334,77.4645819 59.6050334,78.5445819 59.2690334,78.8805819 C58.9330334,79.1925819 58.4530334,79.3605819 57.7810334,79.3605819 Z M50.4370334,61.5765819 L49.1170334,61.5765819 L49.1170334,59.4645819 L52.6930334,59.4645819 C52.5010334,58.9365819 52.2850334,58.4325819 52.0450334,57.9525819 L54.4690334,57.5685819 C54.6370334,58.1445819 54.8050334,58.7685819 54.9730334,59.4645819 L58.6450334,59.4645819 L58.6450334,61.5765819 L57.3730334,61.5765819 L56.8690334,63.7605819 L59.2930334,63.7605819 L59.2930334,65.8725819 L48.6130334,65.8725819 L48.6130334,63.7605819 L50.8450334,63.7605819 L50.4370334,61.5765819 Z M53.0770334,63.7605819 L54.6130334,63.7605819 L55.1170334,61.5765819 L52.6690334,61.5765819 L53.0770334,63.7605819 Z M55.7650334,71.5845819 L55.7650334,69.0165819 L51.9970334,69.0165819 L51.9970334,71.5845819 L55.7650334,71.5845819 Z M64.7650334,62.3445819 L62.8450334,62.3445819 L62.8450334,58.7685819 L71.3650334,58.7685819 C71.1730334,58.4325819 70.9810334,58.0965819 70.7890334,57.8085819 L73.2130334,57.4245819 C73.4050334,57.8325819 73.6210334,58.2885819 73.8130334,58.7685819 L82.6210334,58.7685819 L82.6210334,62.3445819 L80.7010334,62.3445819 L80.7010334,62.9205819 L76.7650334,62.9205819 L76.7650334,63.7845819 L80.2210334,63.7845819 L80.2210334,65.2005819 L76.7650334,65.2005819 L76.7650334,66.0645819 L83.2210334,66.0645819 L83.2210334,67.7925819 L78.4930334,67.7925819 C79.7410334,68.5845819 81.4930334,69.2325819 83.7010334,69.7365819 L82.7650334,71.6325819 C81.7570334,71.2965819 80.8690334,70.9605819 80.0530334,70.6005819 L80.0530334,76.9365819 L76.5490334,76.9365819 C78.8770334,77.3925819 80.8930334,77.8725819 82.5730334,78.4005819 L81.2530334,80.0325819 C79.4050334,79.3125819 77.0530334,78.6645819 74.1730334,78.0885819 L75.1090334,76.9365819 L70.2850334,76.9365819 L71.1490334,78.0645819 C69.4210334,78.8565819 66.9730334,79.5045819 63.7810334,80.0325819 L62.7250334,78.2085819 C65.2690334,77.8725819 67.3570334,77.4405819 68.9410334,76.9365819 L65.4850334,76.9365819 L65.4850334,70.8165819 C64.6930334,71.2005819 63.8290334,71.5605819 62.8930334,71.8965819 L61.7170334,69.9765819 C64.0690334,69.3765819 65.8690334,68.6565819 67.1410334,67.7925819 L62.2690334,67.7925819 L62.2690334,66.0645819 L68.6770334,66.0645819 L68.6770334,65.2005819 L65.2450334,65.2005819 L65.2450334,63.7845819 L68.6770334,63.7845819 L68.6770334,62.9205819 L64.7650334,62.9205819 L64.7650334,62.3445819 Z M68.8210334,68.6325819 L76.7650334,68.6325819 C76.4290334,68.3445819 76.1170334,68.0805819 75.8530334,67.7925819 L69.6610334,67.7925819 C69.3730334,68.0805819 69.1090334,68.3685819 68.8210334,68.6325819 Z M80.3410334,61.3845819 L80.3410334,60.4485819 L76.7650334,60.4485819 L76.7650334,61.3845819 L80.3410334,61.3845819 Z M74.4130334,60.4485819 L71.0290334,60.4485819 L71.0290334,61.3845819 L74.4130334,61.3845819 L74.4130334,60.4485819 Z M68.6770334,60.4485819 L65.1250334,60.4485819 L65.1250334,61.3845819 L68.6770334,61.3845819 L68.6770334,60.4485819 Z M71.0290334,66.0645819 L74.4130334,66.0645819 L74.4130334,65.2005819 L71.0290334,65.2005819 L71.0290334,66.0645819 Z M74.4130334,63.7845819 L74.4130334,62.9205819 L71.0290334,62.9205819 L71.0290334,63.7845819 L74.4130334,63.7845819 Z M67.7890334,72.2325819 L67.7890334,73.1445819 L77.7490334,73.1445819 L77.7490334,72.2325819 L67.7890334,72.2325819 Z M77.7490334,70.9605819 L77.7490334,70.0245819 L67.7890334,70.0245819 L67.7890334,70.9605819 L77.7490334,70.9605819 Z M67.7890334,74.4165819 L67.7890334,75.3765819 L77.7490334,75.3765819 L77.7490334,74.4165819 L67.7890334,74.4165819 Z M99.8770334,57.7845819 L99.8770334,59.9685819 L94.3330334,59.9685819 L94.3330334,62.2485819 L99.8770334,62.2485819 L99.8770334,64.3125819 L95.2690334,64.3125819 L95.2690334,66.6165819 L106.789033,66.6165819 L106.789033,64.3125819 L102.301033,64.3125819 L102.301033,62.2485819 L107.701033,62.2485819 L107.701033,59.9685819 L102.301033,59.9685819 L102.301033,57.7845819 L99.8770334,57.7845819 Z M94.8130334,68.8965819 L102.565033,68.8965819 L102.565033,67.2885819 L105.013033,67.2885819 L105.013033,68.8965819 L107.701033,68.8965819 L107.701033,71.2245819 L105.013033,71.2245819 L105.013033,77.0085819 C105.013033,78.7845819 104.173033,79.6725819 102.493033,79.6725819 L99.5650334,79.6725819 L99.0370334,77.3205819 C99.9490334,77.4165819 100.837033,77.4885819 101.653033,77.4885819 C102.253033,77.4885819 102.565033,77.1045819 102.565033,76.3845819 L102.565033,71.2245819 L94.8130334,71.2245819 L94.8130334,68.8965819 Z M97.0210334,71.7045819 C98.2690334,73.0725819 99.2290334,74.2485819 99.9250334,75.2565819 L97.9330334,76.6485819 C97.2130334,75.5445819 96.2770334,74.2965819 95.0770334,72.9285819 L97.0210334,71.7045819 Z M93.6370334,59.2245819 L93.6370334,77.3205819 L91.2850334,77.3205819 L91.2850334,75.8565819 L88.7650334,75.8565819 L88.7650334,77.8965819 L86.3650334,77.8965819 L86.3650334,59.2245819 L93.6370334,59.2245819 Z M88.7650334,73.5525819 L91.2850334,73.5525819 L91.2850334,68.5845819 L88.7650334,68.5845819 L88.7650334,73.5525819 Z M88.7650334,66.3285819 L91.2850334,66.3285819 L91.2850334,61.5045819 L88.7650334,61.5045819 L88.7650334,66.3285819 Z M110.053033,63.9765819 L113.269033,63.9765819 L113.269033,61.2645819 C112.381033,61.3845819 111.469033,61.4805819 110.557033,61.5765819 L110.053033,59.2245819 C113.005033,58.9845819 115.645033,58.5285819 117.973033,57.8085819 L118.861033,60.1605819 C117.829033,60.4485819 116.749033,60.6885819 115.645033,60.8805819 L115.645033,63.9765819 L118.333033,63.9765819 L118.333033,66.3045819 L115.645033,66.3045819 L115.645033,67.2645819 C116.701033,68.2245819 117.781033,69.2565819 118.861033,70.4085819 L117.445033,72.5445819 C116.773033,71.3925819 116.173033,70.4085819 115.645033,69.6405819 L115.645033,79.7445819 L113.269033,79.7445819 L113.269033,70.0965819 C112.549033,71.9925819 111.637033,73.7445819 110.557033,75.3285819 L109.453033,72.5205819 C111.061033,70.6965819 112.237033,68.6085819 112.981033,66.3045819 L110.053033,66.3045819 L110.053033,63.9765819 Z M119.053033,71.9925819 L123.709033,71.9925819 L123.709033,69.8085819 C122.269033,69.9285819 120.781033,70.0245819 119.245033,70.1205819 L118.789033,67.9365819 C123.061033,67.7445819 126.853033,67.4085819 130.213033,66.8805819 L131.005033,68.9685819 C129.493033,69.2085819 127.885033,69.4005819 126.157033,69.5925819 L126.157033,71.9925819 L130.909033,71.9925819 L130.909033,74.2245819 L126.157033,74.2245819 L126.157033,76.7685819 L131.725033,76.7685819 L131.725033,79.0485819 L118.237033,79.0485819 L118.237033,76.7685819 L123.709033,76.7685819 L123.709033,74.2245819 L119.053033,74.2245819 L119.053033,71.9925819 Z M119.653033,58.3845819 L130.429033,58.3845819 L130.429033,65.7765819 L119.653033,65.7765819 L119.653033,58.3845819 Z M128.005033,63.5685819 L128.005033,60.5925819 L122.101033,60.5925819 L122.101033,63.5685819 L128.005033,63.5685819 Z"/>
  </g>
</svg>
