<svg xmlns="http://www.w3.org/2000/svg" xmlns:xlink="http://www.w3.org/1999/xlink" width="367" height="135" viewBox="0 0 367 135">
  <defs>
    <circle id="tab_common_active-b" cx="195.728" cy="38.254" r="38.254"/>
    <filter id="tab_common_active-a" width="204.6%" height="204.6%" x="-52.3%" y="-52.3%" filterUnits="objectBoundingBox">
      <feMorphology in="SourceAlpha" operator="dilate" radius="10" result="shadowSpreadOuter1"/>
      <feOffset in="shadowSpreadOuter1" result="shadowOffsetOuter1"/>
      <feGaussianBlur in="shadowOffsetOuter1" result="shadowBlurOuter1" stdDeviation="10"/>
      <feComposite in="shadowBlurOuter1" in2="SourceAlpha" operator="out" result="shadowBlurOuter1"/>
      <feColorMatrix in="shadowBlurOuter1" values="0 0 0 0 0   0 0 0 0 0   0 0 0 0 0  0 0 0 0.2 0"/>
    </filter>
    <polygon id="tab_common_active-c" points=".474 .105 20.884 .105 20.884 25.774 .474 25.774 .474 .105"/>
    <polygon id="tab_common_active-e" points="0 39.922 0 .259 59.117 .259 59.117 39.922 0 39.922"/>
  </defs>
  <g fill="none" fill-rule="evenodd" transform="translate(0 25)">
    <g fill="#F9C300" transform="translate(109.554 11.465)">
      <path d="M88.7190858 29.0496114L45.8588658 29.0496114C44.1471126 29.0496114 42.7584091 27.6615924 42.7584091 25.9498392L42.7584091 25.8861874C42.7584091 24.1744342 44.1471126 22.7864152 45.8588658 22.7864152L47.3269628 22.7864152C49.7251968 22.7864152 51.6703398 20.8419566 51.6703398 18.4437226L51.6703398 18.3554314C51.6703398 15.9571974 49.7251968 14.0127389 47.3269628 14.0127389L26.6750469 14.0127389C24.2761285 14.0127389 22.3316699 15.9571974 22.3316699 18.3554314L22.3316699 18.4437226C22.3316699 20.8419566 24.2761285 22.7864152 26.6750469 22.7864152L31.1587316 22.7864152C32.8711692 22.7864152 34.2591882 24.1744342 34.2591882 25.8861874L34.2591882 25.9498392C34.2591882 27.6615924 32.8711692 29.0496114 31.1587316 29.0496114L6.61584524 29.0496114C3.21355605 29.0496114.455313155 31.8078543.455313155 35.2101435L.455313155 35.3353937C.455313155 38.7369985 3.21355605 41.4959258 6.61584524 41.4959258L37.5793461 41.4959258C39.530649 41.4959258 41.112361 43.0769534 41.112361 45.0282562L41.112361 45.0994367C41.112361 47.0500551 39.530649 48.6310827 37.5793461 48.6310827L31.5967652 48.6310827C28.5120504 48.6310827 26.0104678 51.1326652 26.0104678 54.2173801L26.0104678 54.3303106C26.0104678 57.4150254 28.5120504 59.9159236 31.5967652 59.9159236L68.7160071 59.9159236C71.800722 59.9159236 74.302989 57.4150254 74.302989 54.3303106L74.302989 54.2173801C74.302989 51.1326652 71.800722 48.6310827 68.7160071 48.6310827L59.4146372 48.6310827C57.4633343 48.6310827 55.8823068 47.0500551 55.8823068 45.0994367L55.8823068 45.0282562C55.8823068 43.0769534 57.4633343 41.4959258 59.4146372 41.4959258L88.7190858 41.4959258C92.1206905 41.4959258 94.8796178 38.7369985 94.8796178 35.3353937L94.8796178 35.2101435C94.8796178 31.8078543 92.1206905 29.0496114 88.7190858 29.0496114M135.747285 15.7417046L135.747285 15.6721927C135.747285 13.7397625 137.313976 12.1730717 139.245336 12.1730717L139.32982 12.1730717C142.014048 12.1730717 144.190304 9.9978847 144.190304 7.31365684L144.190304 6.30199168C144.190304 3.12262537 141.613018.545338854 138.43579.545338854L116.892456.545338854C113.713089.545338854 111.136872 3.12262537 111.136872 6.30199168L111.136872 6.41748833C111.136872 9.59685464 113.713089 12.1730717 116.892456 12.1730717L120.190527 12.1730717C122.120818 12.1730717 123.687509 13.7397625 123.687509 15.6721927L123.687509 15.7417046C123.687509 17.6741347 122.120818 19.2397561 120.190527 19.2397561L115.226309 19.2397561C112.092928 19.2397561 109.55414 21.7785437 109.55414 24.9108558L109.55414 25.0263525C109.55414 28.1575952 112.092928 30.6974522 115.226309 30.6974522L161.208951 30.6974522C164.339124 30.6974522 166.878981 28.1575952 166.878981 25.0263525L166.878981 24.9108558C166.878981 21.7785437 164.339124 19.2397561 161.208951 19.2397561L139.245336 19.2397561C137.313976 19.2397561 135.747285 17.6741347 135.747285 15.7417046"/>
    </g>
    <path fill="#F9C300" d="M26.1931446,15.7417046 L26.1931446,15.6721927 C26.1931446,13.7397625 27.7598354,12.1730717 29.6911962,12.1730717 L29.7756798,12.1730717 C32.4599077,12.1730717 34.6361641,9.9978847 34.6361641,7.31365684 L34.6361641,6.30199168 C34.6361641,3.12262537 32.0588776,0.545338854 28.8816501,0.545338854 L7.33831537,0.545338854 C4.15894907,0.545338854 1.58273197,3.12262537 1.58273197,6.30199168 L1.58273197,6.41748833 C1.58273197,9.59685464 4.15894907,12.1730717 7.33831537,12.1730717 L10.6363866,12.1730717 C12.5666779,12.1730717 14.1333687,13.7397625 14.1333687,15.6721927 L14.1333687,15.7417046 C14.1333687,17.6741347 12.5666779,19.2397561 10.6363866,19.2397561 L5.67216916,19.2397561 C2.53878763,19.2397561 0,21.7785437 0,24.9108558 L0,25.0263525 C0,28.1575952 2.53878763,30.6974522 5.67216916,30.6974522 L51.6548104,30.6974522 C54.7849837,30.6974522 57.3248408,28.1575952 57.3248408,25.0263525 L57.3248408,24.9108558 C57.3248408,21.7785437 54.7849837,19.2397561 51.6548104,19.2397561 L29.6911962,19.2397561 C27.7598354,19.2397561 26.1931446,17.6741347 26.1931446,15.7417046" transform="matrix(-1 0 0 1 263.694 39.49)"/>
    <rect width="63.694" height="12.739" x="303.185" y="30.573" fill="#F9C300" rx="6.369"/>
    <circle cx="290.446" cy="36.943" r="6.369" fill="#F9C300"/>
    <use fill="#000" filter="url(#tab_common_active-a)" xlink:href="#tab_common_active-b"/>
    <use fill="#F5F5F5" stroke="#FFF" stroke-width="20" xlink:href="#tab_common_active-b"/>
    <g transform="translate(157.325 .955)">
      <path fill="#FFF039" d="M33.2865865,62.3255475 C33.5534135,62.0428552 33.9385096,61.905836 34.3279327,61.905836 C34.7144712,61.905836 35.0865865,62.0630475 35.3649519,62.3385283 C42.3933173,69.4938168 53.8120673,70.005836 61.3611058,63.5053552 C68.9130288,57.0063168 70.0986058,45.6366052 64.0755288,37.6260283 C63.8447596,37.3188168 63.7409135,36.9207398 63.7957212,36.5298744 C63.8505288,36.143336 64.0567788,35.7827591 64.3639904,35.5649706 L66.7236058,33.799586 C67.3726442,33.3106437 68.2913942,33.4418937 68.7788942,34.0880475 C76.6639904,44.5721821 75.091875,59.4481437 65.1990865,67.9649706 C55.3120673,76.4774706 40.3625481,75.8197783 31.1678365,66.4664129 C30.5966827,65.8851629 30.6067788,64.9534321 31.1865865,64.3851629 L33.2865865,62.3255475 Z"/>
      <path fill="#EFDD00" d="M52.9492788 50.1800187L62.4209135 50.8853071C62.6689904 50.9098264 62.8983173 51.0295379 63.0382212 51.2285764 63.2012019 51.418961 63.2387019 51.6728071 63.2112981 51.9079033 62.690625 54.4766533 61.4862981 56.8622302 59.7223558 58.8122302 59.5564904 58.9809802 59.3242788 59.1006918 59.0704327 59.087711 58.8295673 59.087711 58.5872596 58.9809802 58.4372596 58.768961L52.2367788 51.5920379C52.0997596 51.418961 52.0334135 51.1982879 52.0435096 50.9819418 52.0550481 50.8679994 52.0766827 50.7641533 52.1329327 50.6559802 52.2930288 50.3372302 52.6132212 50.1583841 52.9492788 50.1800187M45.9927404 63.3381918C43.4312019 62.8146341 41.0441827 61.6103071 39.0941827 59.8506918 38.9297596 59.6862687 38.8071635 59.4482879 38.8187019 59.1973264 38.8158173 58.956461 38.9211058 58.7213648 39.1316827 58.5684802L46.3114904 52.3665571C46.4845673 52.2266533 46.7110096 52.1545379 46.9244712 52.1675187 47.0412981 52.1790571 47.1480288 52.2079033 47.2533173 52.2641533 47.5634135 52.4213648 47.7408173 52.7444418 47.720625 53.0761725L47.0023558 62.5420379C47.0023558 62.8016533 46.876875 63.0223264 46.6778365 63.1679994 46.4874519 63.3324225 46.2220673 63.3684802 45.9927404 63.3381918M57.3424038 60.5803552C57.3020192 60.8327591 57.1520192 61.0404514 56.9544231 61.1760283 54.7722115 62.6327591 52.2481731 63.4692975 49.6289423 63.5918937 49.3823077 63.5976629 49.1414423 63.5197783 48.9597115 63.3380475 48.7981731 63.1678552 48.7130769 62.9298744 48.7188462 62.6760283L49.4371154 53.2159321C49.4529808 52.9894898 49.5698077 52.774586 49.7255769 52.6289129 49.8077885 52.5582398 49.9217308 52.4947783 50.0299038 52.4731437 50.3558654 52.3577591 50.7294231 52.455836 50.9414423 52.7096821L57.1361538 59.9024706C57.2948077 60.105836 57.3698077 60.3510283 57.3424038 60.5803552M62.5538942 49.1701148L53.0865865 48.4734802C52.8615865 48.4518456 52.648125 48.3335764 52.5096635 48.1763648 52.4288942 48.0984802 52.3683173 47.9758841 52.3437981 47.8749225 52.2284135 47.5504033 52.3322596 47.1768456 52.591875 46.9662687L59.7702404 40.7629033C59.9736058 40.6085764 60.2202404 40.5379033 60.4524519 40.5667494 60.7091827 40.6085764 60.9212019 40.7383841 61.048125 40.9504033 62.5149519 43.1311725 63.3370673 45.6537687 63.4654327 48.2787687 63.4712019 48.5153071 63.3904327 48.767711 63.2202404 48.9263648 63.0327404 49.1080956 62.7976442 49.1946341 62.5538942 49.1701148"/>
      <path fill="#C61C00" d="M54.5620673 21.6409321L54.3197596 21.7837206.0976442308 53.7625668C.151009615 54.2428552.427932692 54.6755475.849086538 54.9221821 1.13754808 55.0952591 8.02456731 59.0962206 17.9130288 59.0962206 25.0337019 59.0962206 31.854375 57.0265091 38.1702404 52.9476629 49.4707212 45.6510283 54.9486058 32.749586 57.3832212 24.7361244 57.5837019 24.0755475 57.7654327 23.449586 57.9255288 22.8625668 58.3510096 21.3063168 58.6437981 20.0226629 58.8298558 19.1241052L54.5620673 21.6409321zM6.13341346 40.1190571C5.10504808 40.7969418 4.80793269 42.1757879 5.47139423 43.1911725 6.13341346 44.2281918 7.50649038 44.5238648 8.53341346 43.8531918 9.56754808 43.1983841 9.86322115 41.8209802 9.20120192 40.7911725 8.52764423 39.7599225 7.16322115 39.4671341 6.13341346 40.1190571"/>
      <g transform="translate(52.878 .382)">
        <mask id="tab_common_active-d" fill="#fff">
          <use xlink:href="#tab_common_active-c"/>
        </mask>
        <path fill="#A01300" d="M19.9672783,22.7649519 L19.9571821,22.760625 C17.9177591,21.8144712 15.9273744,20.7846635 13.9615091,19.7115865 C12.3994898,18.8620673 10.8446821,17.9678365 9.3374706,17.0649519 C9.26535522,17.0216827 9.19179753,16.9784135 9.11968214,16.9351442 C9.11968214,16.9308173 9.11968214,16.9264904 9.11823983,16.9221635 C8.3812206,14.5437981 7.74660522,11.9375481 7.24612445,9.39331731 C6.75718214,6.85052885 6.37064368,4.26302885 6.3937206,1.74764423 L6.3937206,1.67408654 C6.3937206,1.04956731 6.01295137,0.448125 5.39852829,0.213028846 C4.59227829,-0.104278846 3.68939368,0.299567308 3.37064368,1.09860577 C2.30766291,3.83177885 1.70910522,6.62552885 1.22016291,9.41495192 C0.904297526,11.2726442 0.669201372,13.1159135 0.474489833,14.9851442 C2.54275906,15.3240865 4.01679753,15.6644712 4.67737445,15.8288942 C4.89660522,15.8837019 5.02929753,15.9183173 5.0624706,15.9284135 C5.82545137,16.1317788 6.31006676,16.8788942 6.1874706,17.6649519 C6.16727829,17.791875 6.08362445,18.2909135 5.92064368,19.0798558 C5.73314368,19.9798558 5.44035522,21.2635096 5.01487445,22.8197596 C4.85333599,23.4053365 4.67304753,24.0327404 4.47256676,24.691875 C4.71054753,24.7611058 4.9499706,24.8260096 5.20381676,24.8577404 L5.27304753,24.8649519 C7.66727829,25.1534135 9.95477829,25.3466827 12.2985283,25.5038942 C14.6292975,25.6639904 16.9672783,25.7663942 19.3023744,25.7736058 C19.9009321,25.7736058 20.4706437,25.4317788 20.734586,24.8577404 C21.1052591,24.0716827 20.7648744,23.1370673 19.9672783,22.7649519" mask="url(#tab_common_active-d)"/>
      </g>
      <g transform="translate(0 13.84)">
        <mask id="tab_common_active-f" fill="#fff">
          <use xlink:href="#tab_common_active-e"/>
        </mask>
        <path fill="#FFCCC5" d="M8.53355769,30.0121007 C7.50663462,30.6827738 6.13355769,30.3871007 5.47153846,29.3500815 C4.80807692,28.3346968 5.10519231,26.9558507 6.13355769,26.2779661 C7.16336538,25.626043 8.52778846,25.9188315 9.20134615,26.9500815 C9.86336538,27.9798891 9.56769231,29.357293 8.53355769,30.0121007 M57.9715385,2.13085069 C57.9383654,2.12075453 57.8056731,2.08469684 57.5893269,2.03133146 C56.92875,1.86690838 55.4518269,1.52652376 53.3864423,1.18758146 C50.5465385,0.720273763 46.5931731,0.258735301 42.0816346,0.258735301 C39.1205769,0.258735301 36.3109615,0.479408378 33.6210577,0.868831455 C33.4926923,0.848639147 33.3643269,0.824119917 33.2388462,0.839985301 C15.0210577,2.63854299 6.64125,16.7601776 6.64125,16.7601776 C-1.10394231,27.7202738 0.0239423077,39.2890238 0.0975,39.9221968 L54.3196154,7.94335069 C54.2633654,7.77604299 54.2229808,7.60729299 54.1854808,7.43421607 C54.3008654,7.56690838 54.4335577,7.68085069 54.5619231,7.80056222 L58.8297115,5.28229299 C58.9926923,4.49335069 59.0777885,3.99431222 59.0979808,3.86738915 C59.2205769,3.08133146 58.7374038,2.33421607 57.9715385,2.13085069" mask="url(#tab_common_active-f)"/>
      </g>
      <path fill="#A01300" d="M33.2387019,14.6815091 C24.8588942,15.6031437 22.5829327,9.17045137 22.4978365,8.91804753 C22.3536058,8.45650906 22.0060096,8.08727829 21.5473558,7.93006676 C21.0959135,7.76420137 20.5954327,7.82333599 20.1915865,8.08727829 C10.0536058,14.6223744 6.88485577,29.404586 6.64254808,30.6017014 C6.64254808,30.6017014 15.0209135,16.4800668 33.2387019,14.6815091"/>
    </g>
    <path fill="#FFC331" d="M0.126890924,18.2897094 L0.126890924,20.3080215 L17.767715,20.3080215 L17.767715,18.2897094 L0.126890924,18.2897094 Z M24.3466361,14.7576632 C24.6959594,15.5921576 25.0064689,16.5430932 25.2781648,17.6298766 L23.7644307,18.0180135 C23.5121417,17.067078 23.2016322,16.1549562 22.8329021,15.2622412 L24.3466361,14.7576632 Z M24.3466361,21.2977707 C24.7347731,22.3457404 25.1035032,23.5295581 25.4140127,24.8880374 L23.8032444,25.3149881 C23.5315486,24.0923567 23.2016322,22.9279459 22.8134952,21.8023487 L24.3466361,21.2977707 Z M23.221039,10.3523089 L25.2975717,10.6434116 C25.1811306,11.225617 25.0064689,11.7884156 24.7929936,12.2929936 L27.5099522,12.2929936 L27.5099522,18.3285231 L28.1891919,18.2508957 L28.1891919,20.0169188 L27.5099522,20.0945462 L27.5099522,26.59584 C27.5099522,27.7796576 26.9277468,28.3812699 25.8021497,28.3812699 L24.0749403,28.3812699 L23.5897691,26.5376194 C24.1719745,26.5764331 24.7153662,26.6152468 25.2199443,26.6152468 C25.511047,26.6152468 25.6663018,26.3823646 25.6663018,25.9360072 L25.6663018,20.3080215 C24.6377389,20.4050557 23.5897691,20.50209 22.5029857,20.5797174 C22.3865446,23.801254 21.8431529,26.4211783 20.8339968,28.4588973 L19.3202627,27.0810111 C20.0965366,25.3732086 20.5428941,23.2384554 20.6593352,20.7155653 L19.669586,20.7737858 L19.417297,18.968949 L20.678742,18.8913217 L20.678742,12.2929936 L22.7552747,12.2929936 C22.9493432,11.6719745 23.1045979,11.0121417 23.221039,10.3523089 Z M22.5223925,18.7748806 C23.6285828,18.6972532 24.6765525,18.6002189 25.6663018,18.5225916 L25.6663018,14.156051 L22.5223925,14.156051 L22.5223925,18.7748806 Z M29.819367,11.225617 C29.819367,12.7393511 29.7223328,13.8455414 29.5476712,14.5441879 C29.3536027,15.2428344 28.9072452,15.9802946 28.2474124,16.7565685 L29.819367,18.1732683 C30.6732683,17.2805533 31.21666,16.4848726 31.4301354,15.8250398 C31.6436107,15.2040207 31.7600518,14.272492 31.7600518,13.0498607 L33.6231091,13.0498607 L33.6231091,15.5533439 C33.6231091,16.9894506 34.3411624,17.707504 35.8160828,17.707504 L37.3298169,17.707504 L37.3298169,15.8250398 L36.3982882,15.8250398 C35.8548965,15.8250398 35.5832006,15.5727508 35.5832006,15.1069865 L35.5832006,11.225617 L29.819367,11.225617 Z M28.7519904,18.7554737 L36.5341361,18.7554737 L36.5341361,20.4826831 C36.1265924,22.2292994 35.4279459,23.7236266 34.4576035,24.9656648 C35.2726911,25.5866839 36.2236266,26.1494825 37.2910032,26.6734674 L36.2624403,28.4783041 C35.0398089,27.857285 33.9724323,27.1780454 33.0603105,26.4405852 C32.0317476,27.3138933 30.8285231,28.0319467 29.4312301,28.5947452 L28.3444467,26.9063495 C29.6058917,26.4017715 30.6732683,25.7613455 31.5659833,25.0238854 C30.3627588,23.7042197 29.5476712,22.2098925 29.1207205,20.5797174 L28.7519904,20.5797174 L28.7519904,18.7554737 Z M30.9837779,20.5797174 C31.4107285,21.6859076 32.0705613,22.6950637 32.9438694,23.6265924 C33.6425159,22.7144705 34.1859076,21.7053145 34.5546377,20.5797174 L30.9837779,20.5797174 Z M47.9065486,14.6412221 L49.9442675,14.6412221 L49.9442675,16.6595342 L56.0380175,16.6595342 L56.0380175,18.5614053 L49.9442675,18.5614053 L49.9442675,20.8902269 L55.0094546,20.8902269 L55.0094546,28.4394904 L53.0105494,28.4394904 L53.0105494,27.6244029 L45.5971338,27.6244029 L45.5971338,28.4394904 L43.5788217,28.4394904 L43.5788217,20.8902269 L47.9065486,20.8902269 L47.9065486,14.6412221 Z M45.5971338,25.7225318 L53.0105494,25.7225318 L53.0105494,22.7532842 L45.5971338,22.7532842 L45.5971338,25.7225318 Z M48.6051951,10.3717158 C48.8962978,10.9151075 49.1679936,11.5167197 49.4396895,12.1765525 L56.484375,12.1765525 L56.484375,14.1172373 L42.4920382,14.1172373 L42.4920382,18.0762341 C42.4338177,22.3457404 41.7351712,25.7807524 40.3960987,28.3618631 L38.843551,26.9839769 C39.8915207,24.8492237 40.4543193,21.8799761 40.493133,18.0762341 L40.493133,12.1765525 L47.34375,12.1765525 C47.0720541,11.6525677 46.8003583,11.1673965 46.4898487,10.721039 L48.6051951,10.3717158 Z M67.7015326,10.3523089 C67.8956011,10.8374801 68.0896696,11.3808718 68.2837381,11.9824841 L75.5418989,11.9824841 L75.5418989,15.669785 L73.5429936,15.669785 L73.5429936,13.8455414 L60.8121019,13.8455414 L60.8121019,15.669785 L58.8131967,15.669785 L58.8131967,11.9824841 L66.2266123,11.9824841 C66.0325438,11.5167197 65.8384753,11.0897691 65.625,10.7016322 L67.7015326,10.3523089 Z M61.433121,15.1846139 L72.9219745,15.1846139 L72.9219745,17.0476712 L68.671875,17.0476712 C68.2449244,17.3387739 67.8373806,17.6104697 67.4104299,17.8627588 C68.0508559,18.5614053 68.5554339,19.3182723 68.9435709,20.1333599 C70.4573049,19.5317476 71.9128185,18.6196258 73.2712978,17.3969944 L74.6685908,18.7748806 C73.368332,19.9004777 71.9322253,20.7931927 70.3408639,21.4336186 C71.8157842,23.0443869 73.7564689,24.4028662 76.162918,25.5284634 L75.0955414,27.352707 C72.9219745,26.1688893 71.1365446,24.7715963 69.7780653,23.1414212 C69.816879,23.4519307 69.8362858,23.7818471 69.8362858,24.1117635 C69.8362858,25.703125 69.6034037,26.7705016 69.176453,27.352707 C68.6524682,28.0513535 67.4880573,28.4200836 65.7026274,28.4200836 L65.1010151,28.4200836 L64.4217755,26.6346537 L65.4309315,26.6346537 C66.4789013,26.6346537 67.1387341,26.4793989 67.4104299,26.207703 C67.7209395,25.8389729 67.8956011,25.1403264 67.8956011,24.1117635 C67.8956011,23.9565088 67.8761943,23.8206608 67.8761943,23.7042197 C65.7802548,25.2567675 63.082703,26.5376194 59.7641322,27.5467755 L58.7549761,25.8195661 C62.5393113,24.7521895 65.4697452,23.413117 67.5462779,21.7829419 C67.4298368,21.4336186 67.3133957,21.1037022 67.1775478,20.7931927 C65.3533041,22.1128583 62.9662619,23.1996417 60.0164212,24.053543 L59.0072651,22.3263336 C62.1123607,21.5500597 64.5576234,20.5409037 66.3430533,19.3182723 C66.1877986,19.104797 66.0131369,18.8913217 65.8578822,18.6972532 C65.8190685,18.6972532 65.7802548,18.71666 65.7802548,18.7360669 C64.5382166,19.3376791 62.7333798,19.9975119 60.4045581,20.6961584 L59.3759952,19.0077627 C61.1420183,18.6584395 62.8110072,18.1538615 64.3829618,17.5134355 C64.7516919,17.3581807 65.120422,17.202926 65.4697452,17.0476712 L61.433121,17.0476712 L61.433121,15.1846139 Z M94.3665406,11.109176 L94.3665406,26.2271099 L95.5309514,26.2271099 L95.5309514,28.1483877 L84.6437102,28.1483877 L84.6437102,26.2271099 L85.9633758,26.2271099 L85.9633758,11.109176 L94.3665406,11.109176 Z M87.8846537,26.2271099 L92.4452627,26.2271099 L92.4452627,23.1414212 L87.8846537,23.1414212 L87.8846537,26.2271099 Z M87.8846537,21.2977707 L92.4452627,21.2977707 L92.4452627,18.0762341 L87.8846537,18.0762341 L87.8846537,21.2977707 Z M87.8846537,16.2131768 L92.4452627,16.2131768 L92.4452627,12.9722333 L87.8846537,12.9722333 L87.8846537,16.2131768 Z M78.4335191,23.6071855 C78.317078,25.1597333 78.064789,26.5182126 77.6766521,27.7214371 L79.4814889,28.3036425 C79.8308121,26.9839769 80.0442874,25.5090565 80.1413217,23.8400677 L78.4335191,23.6071855 Z M82.2954817,23.3548965 C82.5865844,24.5387142 82.8388734,25.8195661 83.0523487,27.1974522 L81.2669188,27.6244029 C81.0922572,26.1494825 80.8787818,24.8492237 80.6458997,23.7236266 L82.2954817,23.3548965 Z M84.1973527,18.2897094 C84.663117,19.4541202 85.0900677,20.7737858 85.4587978,22.2681131 L83.8480295,22.6950637 C83.7704021,22.3457404 83.6733678,21.9964172 83.5957404,21.6665008 C81.7714968,22.2487062 80.0442874,22.65625 78.4141123,22.8503185 L77.9289411,21.1425159 C78.2588575,20.9872611 78.5305533,20.8125995 78.7634355,20.5991242 C79.2874204,20.0557325 79.9472532,19.104797 80.7235271,17.7851314 C79.9278463,17.9015725 79.1127588,18.0374204 78.2588575,18.1538615 L77.7736863,16.4266521 C78.0841959,16.2908041 78.3558917,16.057922 78.5887739,15.7280056 C79.4038615,14.1366441 80.102508,12.4094347 80.7235271,10.5269705 L82.5865844,11.2644307 C81.7326831,13.2827428 80.8787818,14.9517317 80.0248806,16.2519904 L81.7132763,16.0191083 C82.1014132,15.2816481 82.508957,14.4859674 82.9359076,13.6320661 L84.7407444,14.3307126 C83.1299761,17.2805533 81.7909037,19.4153065 80.7041202,20.7737858 C81.5192078,20.5797174 82.3148885,20.366242 83.1299761,20.1333599 C82.9747213,19.6675955 82.8194666,19.2406449 82.6642118,18.8136943 L84.1973527,18.2897094 Z M84.5272691,22.8309116 C84.8571855,23.6848129 85.1482882,24.6551553 85.4005772,25.7807524 L83.7898089,26.207703 C83.5957404,25.198547 83.3434514,24.2282046 83.0329419,23.3160828 L84.5272691,22.8309116 Z" transform="translate(147.77 80.807)"/>
    <rect width="127.389" height="12.739" x="20.382" y="40.764" fill="#F9C300" rx="6.369"/>
    <circle cx="6.369" cy="47.134" r="6.369" fill="#F9C300"/>
  </g>
</svg>
