<svg xmlns="http://www.w3.org/2000/svg" xmlns:xlink="http://www.w3.org/1999/xlink" width="377" height="134" viewBox="0 0 377 134">
  <defs>
    <circle id="tab_yes_normal-b" cx="136.793" cy="39.908" r="39.254"/>
    <filter id="tab_yes_normal-a" width="201.9%" height="201.9%" x="-51%" y="-51%" filterUnits="objectBoundingBox">
      <feMorphology in="SourceAlpha" operator="dilate" radius="10" result="shadowSpreadOuter1"/>
      <feOffset in="shadowSpreadOuter1" result="shadowOffsetOuter1"/>
      <feGaussianBlur in="shadowOffsetOuter1" result="shadowBlurOuter1" stdDeviation="10"/>
      <feComposite in="shadowBlurOuter1" in2="SourceAlpha" operator="out" result="shadowBlurOuter1"/>
      <feColorMatrix in="shadowBlurOuter1" values="0 0 0 0 0   0 0 0 0 0   0 0 0 0 0  0 0 0 0.2 0"/>
    </filter>
    <polygon id="tab_yes_normal-c" points="0 22.514 0 44.748 44.165 44.748 44.165 22.514 44.165 .281 0 .281"/>
    <polygon id="tab_yes_normal-e" points=".361 .101 34.212 .101 34.212 32.612 .361 32.612 .361 .101"/>
  </defs>
  <g fill="none" fill-rule="evenodd" transform="translate(0 24)">
    <g transform="translate(28.105 12.418)">
      <path fill="#F8F8F8" d="M109.339193,29.8090784 L65.358444,29.8090784 C63.601939,29.8090784 62.1769296,28.3847713 62.1769296,26.6282663 L62.1769296,26.5629505 C62.1769296,24.8064456 63.601939,23.3821385 65.358444,23.3821385 L66.8649226,23.3821385 C69.3258556,23.3821385 71.321852,21.3868444 71.321852,18.9259114 L71.321852,18.835312 C71.321852,16.3743791 69.3258556,14.379085 66.8649226,14.379085 L45.6730873,14.379085 C43.2114521,14.379085 41.216158,16.3743791 41.216158,18.835312 L41.216158,18.9259114 C41.216158,21.3868444 43.2114521,23.3821385 45.6730873,23.3821385 L50.2739925,23.3821385 C52.0311998,23.3821385 53.4555069,24.8064456 53.4555069,26.5629505 L53.4555069,26.6282663 C53.4555069,28.3847713 52.0311998,29.8090784 50.2739925,29.8090784 L25.0894621,29.8090784 C21.5982242,29.8090784 18.7678704,32.6394322 18.7678704,36.1306701 L18.7678704,36.2591949 C18.7678704,39.7497305 21.5982242,42.5807866 25.0894621,42.5807866 L56.8624663,42.5807866 C58.8647836,42.5807866 60.4878475,44.2031482 60.4878475,46.2054655 L60.4878475,46.2785069 C60.4878475,48.2801219 58.8647836,49.9024835 56.8624663,49.9024835 L50.723478,49.9024835 C47.558117,49.9024835 44.9911336,52.4694669 44.9911336,55.6348279 L44.9911336,55.7507109 C44.9911336,58.9160718 47.558117,61.4823529 50.723478,61.4823529 L88.8131577,61.4823529 C91.9785186,61.4823529 94.5462044,58.9160718 94.5462044,55.7507109 L94.5462044,55.6348279 C94.5462044,52.4694669 91.9785186,49.9024835 88.8131577,49.9024835 L79.2686146,49.9024835 C77.2662973,49.9024835 75.6439357,48.2801219 75.6439357,46.2785069 L75.6439357,46.2054655 C75.6439357,44.2031482 77.2662973,42.5807866 79.2686146,42.5807866 L109.339193,42.5807866 C112.829728,42.5807866 115.660784,39.7497305 115.660784,36.2591949 L115.660784,36.1306701 C115.660784,32.6394322 112.829728,29.8090784 109.339193,29.8090784"/>
      <path fill="#F5F5F5" d="M157.596887,16.1532524 L157.596887,16.0819232 C157.596887,14.098972 159.204537,12.491322 161.186391,12.491322 L161.273083,12.491322 C164.027487,12.491322 166.260639,10.2592673 166.260639,7.50486355 L166.260639,6.46674963 C166.260639,3.20426263 163.615972,0.559596079 160.35568,0.559596079 L138.249121,0.559596079 C134.986634,0.559596079 132.343065,3.20426263 132.343065,6.46674963 L132.343065,6.58526581 C132.343065,9.8477528 134.986634,12.491322 138.249121,12.491322 L141.633416,12.491322 C143.614173,12.491322 145.221823,14.098972 145.221823,16.0819232 L145.221823,16.1532524 C145.221823,18.1362036 143.614173,19.7427562 141.633416,19.7427562 L136.539415,19.7427562 C133.324115,19.7427562 130.718954,22.3479174 130.718954,25.56212 L130.718954,25.6806362 C130.718954,28.8937415 133.324115,31.5 136.539415,31.5 L183.724217,31.5 C186.936225,31.5 189.542484,28.8937415 189.542484,25.6806362 L189.542484,25.56212 C189.542484,22.3479174 186.936225,19.7427562 183.724217,19.7427562 L161.186391,19.7427562 C159.204537,19.7427562 157.596887,18.1362036 157.596887,16.1532524"/>
      <rect width="130.719" height="13.072" x="217.647" y="19.608" fill="#F5F5F5" rx="6.536"/>
      <circle cx="203.268" cy="26.144" r="6.536" fill="#F5F5F5"/>
      <circle cx="6.536" cy="35.948" r="6.536" fill="#F5F5F5"/>
    </g>
    <rect width="65.359" height="13.072" y="62.745" fill="#F5F5F5" rx="6.536"/>
    <use fill="#000" filter="url(#tab_yes_normal-a)" xlink:href="#tab_yes_normal-b"/>
    <use fill="#F5F5F5" stroke="#FFF" stroke-width="20" xlink:href="#tab_yes_normal-b"/>
    <g transform="translate(121.569 28.758)">
      <g transform="translate(0 .07)">
        <mask id="tab_yes_normal-d" fill="#fff">
          <use xlink:href="#tab_yes_normal-c"/>
        </mask>
        <path fill="#E52906" d="M44.1646091,22.5138282 C44.1646091,10.2346732 34.2765432,0.280751634 22.0823045,0.280751634 C9.88477366,0.280751634 0,10.2346732 0,22.5138282 C0,34.7946405 9.88477366,44.7485621 22.0823045,44.7485621 C34.2765432,44.7485621 44.1646091,34.7946405 44.1646091,22.5138282" mask="url(#tab_yes_normal-d)"/>
      </g>
      <path fill="#FB7D42" d="M22.0823045,36.6406863 C18.2436214,36.6406863 14.7736626,35.0778245 12.2502058,32.5537115 C11.344856,31.6454949 11.5308642,30.1190943 12.6452675,29.4909664 L18.4279835,26.2309991 C18.7160494,26.0669234 19.0633745,26.1166433 19.3283951,26.3155229 C20.0971193,26.8955882 21.0452675,27.2436275 22.0823045,27.2436275 C23.145679,27.2436275 24.1251029,26.8806723 24.9069959,26.2724323 C25.1786008,26.0619514 25.5374486,26.0089169 25.8353909,26.1845938 L31.5061728,29.5572596 C32.5975309,30.2052754 32.7572016,31.711788 31.855144,32.606746 C29.3382716,35.0993697 25.8897119,36.6406863 22.0823045,36.6406863 M20.4740741,10.9852241 L20.4740741,17.7123249 C20.4740741,18.0272176 20.2831276,18.2940476 20.0032922,18.436578 C18.4921811,19.2022642 17.4534979,20.7651261 17.4534979,22.5832166 C17.4534979,22.7423203 17.3563786,23.138422 16.9662551,23.3472456 L11.1967078,26.6005836 C10.0641975,27.2369981 8.63868313,26.5806956 8.38518519,25.2979225 C8.21234568,24.4211951 8.12016461,23.5146359 8.12016461,22.5832166 C8.12016461,16.2638189 12.2650206,10.9239029 17.9670782,9.15553221 C19.2098765,8.77103175 20.4740741,9.67427638 20.4740741,10.9852241 M36.0427984,22.5832166 C36.0427984,23.5361811 35.945679,24.4676004 35.7646091,25.365873 C35.5028807,26.6619048 34.0493827,27.311578 32.9185185,26.6403595 L27.1242798,23.1931139 C26.6156379,22.9279412 26.709465,22.700887 26.709465,22.5832166 C26.709465,20.7651261 25.6707819,19.2022642 24.1596708,18.436578 C23.8798354,18.2940476 23.6888889,18.0272176 23.6888889,17.7123249 L23.6888889,10.9852241 C23.6888889,9.67427638 24.9547325,8.77103175 26.1958848,9.15553221 C31.8979424,10.9239029 36.0427984,16.2638189 36.0427984,22.5832166 M24.9415638,5.81269841 C13.38107,3.90345472 3.52757202,13.8242297 5.42386831,25.4636555 C6.57119342,32.5122782 12.2205761,38.1985761 19.2213992,39.3553922 C30.781893,41.2646359 40.6353909,31.3438609 38.7390947,19.7027778 C37.5917695,12.654155 31.9440329,6.96785714 24.9415638,5.81269841"/>
      <path fill="#FFC71B" d="M29.4125103 20.3652124C29.4125103 19.1387885 30.4001646 18.1460481 31.6166255 18.1460481 32.8330864 18.1460481 33.8190947 19.1387885 33.8190947 20.3652124 33.8190947 21.589979 32.8330864 22.5843768 31.6166255 22.5843768 30.4001646 22.5843768 29.4125103 21.589979 29.4125103 20.3652124M26.7906173 16.420105C26.0696296 15.4323366 26.2786831 14.0434944 27.2597531 13.317584 28.2424691 12.5916737 29.6186008 12.8054692 30.3395885 13.7932376 31.0605761 14.7810061 30.8515226 16.1698483 29.8688066 16.8941013 28.8893827 17.6200117 27.5099588 17.4078735 26.7906173 16.420105M16.7437037 16.9007306C15.6720988 17.4874253 14.3354733 17.0913235 13.7527572 16.0157166 13.1683951 14.9384524 13.5634568 13.5927007 14.6350617 13.0060061 15.7017284 12.4193114 17.0416461 12.8154132 17.622716 13.8926774 18.2054321 14.966627 17.8103704 16.3156933 16.7437037 16.9007306M14.5575309 21.1063702C14.0406584 22.2184384 12.7287243 22.6974066 11.6258436 22.1770051 10.5246091 21.6549463 10.050535 20.3373693 10.5674074 19.2269585 11.0842798 18.1182049 12.3945679 17.6375794 13.4958025 18.1579809 14.597037 18.676725 15.0727572 19.999274 14.5575309 21.1063702M20.3573663 29.9142484C21.4289712 30.4959711 21.8306173 31.8400654 21.2511934 32.9189869 20.6717695 33.9995658 19.335144 34.4006396 18.2651852 33.8156022 17.1935802 33.2355369 16.7935802 31.8897852 17.3730041 30.8108637 17.9491358 29.7352568 19.2890535 29.3308683 20.3573663 29.9142484M25.9242798 30.1497549C25.2592593 30.5723739 25.0584362 31.4590453 25.4781893 32.1286064 25.8962963 32.7981676 26.7786008 33.0003618 27.4436214 32.5777428 28.108642 32.1551237 28.309465 31.2701097 27.8880658 30.5988912 27.4699588 29.9293301 26.5893004 29.7287932 25.9242798 30.1497549"/>
    </g>
    <g transform="translate(91.503)">
      <g transform="translate(32.353 .345)">
        <mask id="tab_yes_normal-f" fill="#fff">
          <use xlink:href="#tab_yes_normal-e"/>
        </mask>
        <path fill="#E7DABE" d="M31.712451,1.76895485 C29.6742157,0.00776849372 26.6967647,-0.401306619 24.2614706,0.74528372 C20.8477451,2.35110021 19.4712745,6.05047658 20.4693137,9.26309291 C20.8869608,10.6053706 20.5114706,12.0646674 19.3928431,12.9133016 L0.361470588,27.3361494 L4.33598039,32.6118416 L33.285,10.673222 C34.8751961,7.87754764 34.4614706,4.14572059 31.712451,1.76895485" mask="url(#tab_yes_normal-f)"/>
      </g>
      <path fill="#DDC4A1" d="M65.637549,11.0181295 L36.6895098,32.9567491 L40.6630392,38.2324414 L59.6944118,23.8095936 C60.8140196,22.9619428 62.315,22.9983269 63.4895098,23.7673094 C66.2983333,25.6091308 70.2218627,25.2905242 72.6944118,22.4358486 C74.4581373,20.3983399 74.8806863,17.4138616 73.7463725,14.9672777 C72.2189216,11.6661596 68.7532353,10.2461969 65.637549,11.0181295"/>
      <path fill="#FF9B19" d="M0,29.9419836 L14.7803922,49.5608719 L37.0392157,45.576323 L50.3676471,22.5904318 C42.2058824,11.7548581 19.6558824,15.047126 0,29.9419836"/>
      <path fill="#BC612E" d="M50.3677451,22.5903334 L50.3677451,22.5903334 L14.7804902,49.5607736 L29.5589216,69.179662 C49.2138235,54.2838211 58.5304902,33.4249238 50.3677451,22.5903334"/>
      <path fill="#D45F2C" d="M24.6658824 29.590533C24.6247059 30.6024039 23.7727451 31.3900701 22.764902 31.3497526 21.755098 31.3074684 20.9698039 30.4539175 21.01 29.4410632 21.0521569 28.4291923 21.9041176 27.6425094 22.9129412 27.6838103 23.9217647 27.7251111 24.705098 28.5786621 24.6658824 29.590533M13.7963725 38.0738265C13.7551961 39.0856973 12.9032353 39.8733636 11.8953922 39.8330461 10.8855882 39.7917453 10.1002941 38.9381943 10.1404902 37.9253401 10.1826471 36.9134692 11.0346078 36.1258029 12.0434314 36.1671038 13.0522549 36.2084046 13.8355882 37.0619556 13.7963725 38.0738265M24.067549 23.099809C24.0263725 24.1116799 23.1753922 24.8993461 22.167549 24.8590286 21.1577451 24.8167444 20.372451 23.9641768 20.4126471 22.9513226 20.4538235 21.9394517 21.3057843 21.1517854 22.3146078 21.1930863 23.3234314 21.2343871 24.1077451 22.0879381 24.067549 23.099809M30.1901961 25.8563459C30.15 26.8692001 29.2990196 27.655883 28.2901961 27.6145822 27.2794118 27.5732813 26.495098 26.7197304 26.5362745 25.7078595 26.577451 24.6950052 27.4294118 23.9083223 28.4382353 23.9486398 29.4460784 23.9899407 30.2323529 24.844475 30.1901961 25.8563459M31.1054902 31.3925285C31.0652941 32.4053828 30.2143137 33.1910823 29.2054902 33.1507648 28.1956863 33.109464 27.4103922 32.255913 27.452549 31.2440421 27.4927451 30.2311879 28.3437255 29.444505 29.3535294 29.4858058 30.3633333 29.5271067 31.1466667 30.3796743 31.1054902 31.3925285M19.3140196 33.9248608C19.2738235 34.9367317 18.4228431 35.7243979 17.4140196 35.6830971 16.4042157 35.6417962 15.6189216 34.7882453 15.6591176 33.775391 15.7012745 32.7635201 16.5522549 31.9768372 17.5610784 32.0171547 18.5708824 32.0594389 19.3551961 32.9129899 19.3140196 33.9248608M12.7279412 31.7992436C12.6867647 32.8111145 11.8357843 33.5977974 10.8269608 33.5574799 9.81715686 33.516179 9.03186275 32.6626281 9.07205882 31.6497738 9.11421569 30.6379029 9.96617647 29.8502367 10.975 29.8915375 11.9838235 29.9338217 12.7691176 30.7863893 12.7279412 31.7992436M25.7545098 35.4800346C25.7133333 36.4928888 24.8643137 37.2795717 23.8554902 37.2382709 22.8447059 37.1979534 22.0594118 36.3444024 22.1015686 35.3315482 22.1417647 34.3196773 22.9937255 33.5329944 24.002549 33.5733119 25.0113725 33.6146127 25.7966667 34.4681637 25.7545098 35.4800346M19.7304902 40.6383144C19.6902941 41.6511686 18.8402941 42.4378516 17.8314706 42.3965507 16.8206863 42.3552498 16.0353922 41.5016989 16.077549 40.489828 16.1187255 39.4779571 16.9697059 38.6902908 17.9795098 38.7315917 18.9883333 38.7728926 19.7726471 39.6264435 19.7304902 40.6383144M18.2904902 27.6904971C18.2493137 28.7033513 17.3983333 29.4890509 16.3904902 29.4487334 15.3797059 29.4074325 14.5944118 28.5538816 14.6365686 27.5420107 14.6777451 26.5291564 15.5287255 25.7424735 16.5385294 25.782791 17.5473529 25.8250752 18.3316667 26.6786262 18.2904902 27.6904971M36.6316667 27.4120113C36.5914706 28.4248656 35.7395098 29.2115485 34.7306863 29.1702476 33.7208824 29.1299301 32.9355882 28.2753958 32.9767647 27.2635249 33.0179412 26.2506707 33.8708824 25.4639878 34.8797059 25.5052886 35.887549 25.5465895 36.6718627 26.4001404 36.6316667 27.4120113M36.7513725 21.5450285C36.7101961 22.5568994 35.8592157 23.3435823 34.8513725 23.3032648 33.8415686 23.261964 33.0552941 22.4074297 33.097451 21.3955588 33.1386275 20.3836879 33.9905882 19.5960216 34.9994118 19.6373225 36.0082353 19.6786233 36.792549 20.5321743 36.7513725 21.5450285M43.1938235 23.1003006C43.1516667 24.1131549 42.3006863 24.8998378 41.2928431 24.8585369 40.2820588 24.8172361 39.4967647 23.9636851 39.5389216 22.9518142 39.5791176 21.9399434 40.4310784 21.1522771 41.4408824 21.1935779 42.4487255 21.2338954 43.2340196 22.0884298 43.1938235 23.1003006"/>
    </g>
    <g fill="#CFCFCF" transform="translate(87.582 71.046)">
      <path d="M0.0987992096,22.2313421 L5.67107463,30.7280742 L5.67107463,36.3398693 L7.98297614,36.3398693 L7.98297614,30.7280742 L13.5552516,22.2313421 L10.7691138,22.2313421 L6.8369053,28.5742514 L2.88493692,22.2313421 L0.0987992096,22.2313421 Z M15.0372397,22.2313421 L15.0372397,36.3398693 L25.5494756,36.3398693 L25.5494756,34.3638851 L17.3491412,34.3638851 L17.3491412,30.0957592 L24.7393221,30.0957592 L24.7393221,28.119775 L17.3491412,28.119775 L17.3491412,24.2073263 L25.2135583,24.2073263 L25.2135583,22.2313421 L15.0372397,22.2313421 Z M32.7025384,21.9547044 C31.1810306,21.9547044 29.9361605,22.2906217 28.9481684,22.9822161 C27.881137,23.6935705 27.3673811,24.6815625 27.3673811,25.9264326 C27.3673811,27.1713026 27.9008968,28.119775 28.9876881,28.7718498 C29.4026448,29.0089679 30.4894361,29.4041648 32.2283022,29.9574403 C33.7893297,30.4316765 34.6982824,30.747834 34.9749202,30.8861529 C35.8443532,31.3208694 36.2988296,31.9136647 36.2988296,32.6645387 C36.2988296,33.2573339 35.9826721,33.7118103 35.3898769,34.0674875 C34.7970816,34.4034048 33.9671683,34.5812434 32.9396565,34.5812434 C31.7738258,34.5812434 30.9241526,34.3638851 30.370877,33.9686883 C29.7583219,33.5142119 29.3828849,32.7435781 29.2248062,31.6765466 L26.9326645,31.6765466 C27.0314637,33.4746922 27.6835385,34.7788418 28.869129,35.6087551 C29.8373613,36.2805898 31.2007904,36.6165071 32.9396565,36.6165071 C34.7378021,36.6165071 36.1407509,36.2410701 37.128743,35.5297158 C38.1167351,34.7986016 38.6107311,33.7908497 38.6107311,32.5262198 C38.6107311,31.2220702 37.998176,30.2143183 36.7730658,29.4832041 C36.2197902,29.1670467 34.99468,28.6928105 33.0779754,28.1000152 C31.7738258,27.6850585 30.9636723,27.3886609 30.6672747,27.2305822 C29.99544,26.874905 29.6792826,26.380909 29.6792826,25.7881137 C29.6792826,25.1162791 29.9559204,24.622283 30.5487156,24.3258854 C31.0229518,24.0690074 31.6947864,23.9504484 32.5839793,23.9504484 C33.6114911,23.9504484 34.4018848,24.128287 34.9156407,24.5234838 C35.4293966,24.8989208 35.8048336,25.5312358 36.002432,26.4006688 L38.2945736,26.4006688 C38.1562547,24.8594011 37.5832193,23.7133303 36.5952272,22.9822161 C35.6665147,22.2906217 34.3623651,21.9547044 32.7025384,21.9547044 Z M47.245782,21.2038304 L51.3953488,21.2038304 L51.3953488,20.0577595 L53.2922937,20.0577595 L53.2922937,21.2038304 L57.3035416,21.2038304 L57.3035416,22.8241374 L53.2922937,22.8241374 L53.2922937,23.871409 L57.7580179,23.871409 L57.7580179,25.4917161 L56.0389117,25.4917161 L56.0389117,26.5982672 L57.5604195,26.5982672 L57.5604195,28.1790546 L56.0389117,28.1790546 L56.0389117,29.3448852 L57.7580179,29.3448852 L57.7580179,30.9256726 L52.3833409,30.9256726 L52.3833409,29.3448852 L54.1419669,29.3448852 L54.1419669,28.1790546 L52.5216598,28.1790546 L52.5216598,26.5982672 L54.1419669,26.5982672 L54.1419669,25.4917161 L50.2887977,25.4917161 L50.2887977,26.5982672 L51.7905457,26.5982672 L51.7905457,28.1790546 L50.2887977,28.1790546 L50.2887977,29.2658459 C50.9211126,29.1868065 51.4743882,29.0880073 51.9486244,29.0089679 L51.9486244,30.5699954 C50.9211126,30.8071135 49.1624867,31.0442316 46.6727466,31.2418301 L46.3961088,29.5227238 C47.1074631,29.4832041 47.7792978,29.4634443 48.4116127,29.4239246 L48.4116127,28.1790546 L46.6727466,28.1790546 L46.6727466,26.5982672 L48.4116127,26.5982672 L48.4116127,25.4917161 L46.7122663,25.4917161 L46.7122663,24.2863657 C46.0799514,25.0767594 45.4081167,25.7683539 44.6770026,26.3611491 L44.6770026,27.7048184 C44.6572427,28.9694482 44.5782034,30.1352789 44.4398845,31.2220702 C45.250038,32.1903025 46.0799514,33.2573339 46.9098647,34.4429245 L45.6452348,36.3398693 C45.0129199,35.1147591 44.4596443,34.126767 44.0249278,33.375893 C43.4716522,35.5099559 42.5824593,37.2290622 41.3573491,38.5332117 L39.8160815,37.1697826 C41.752546,35.2135583 42.7207782,32.0519836 42.7602979,27.7048184 L42.7602979,20.3541572 L44.6770026,20.3541572 L44.6770026,24.3258854 C45.1907585,23.6738106 45.6847545,22.9229366 46.119471,22.0732634 L47.2260222,23.6342909 L47.0481836,23.871409 L51.3953488,23.871409 L51.3953488,22.8241374 L47.245782,22.8241374 L47.245782,21.2038304 Z M46.3961088,31.7160663 L57.9358565,31.7160663 L57.9358565,33.4154127 L54.7150023,33.4154127 L54.7150023,35.8853929 C54.7150023,36.2213102 54.8533212,36.3991488 55.1497188,36.3991488 L55.8017936,36.3991488 C55.999392,36.3991488 56.1574707,36.3003496 56.2760298,36.1422709 C56.3945888,35.9446724 56.4736282,35.3518772 56.5131479,34.3638851 L58.1729746,34.8974008 C58.0544156,36.4386685 57.8370573,37.3673811 57.5208998,37.6637787 C57.2047424,37.9404165 56.7305062,38.0787354 56.1179511,38.0787354 L54.6162031,38.0787354 C53.4108527,38.0787354 52.8180575,37.4661803 52.8180575,36.2805898 L52.8180575,33.4154127 L51.2767898,33.4154127 C51.0989512,34.5812434 50.7827937,35.4704362 50.3480772,36.0829913 C49.7157623,36.9129047 48.628971,37.624259 47.127223,38.2565739 L45.8823529,36.6560268 C47.1469828,36.2213102 48.0559356,35.7273142 48.6092111,35.1542788 C48.9648883,34.7590819 49.2217662,34.1662867 49.379845,33.4154127 L46.3961088,33.4154127 L46.3961088,31.7160663 Z M41.5154279,23.5750114 C41.8315853,25.1953184 42.127983,27.0329837 42.4046208,29.127527 L40.8435933,29.5227238 C40.6064751,27.625779 40.2903177,25.8276334 39.9148807,24.0887673 L41.5154279,23.5750114 Z M69.2187263,24.128287 C68.5073719,24.5432437 67.7564979,24.9186807 66.9463444,25.2348381 L66.4523484,24.4642043 C65.7805138,25.4126767 65.1086791,26.2623499 64.3973248,26.9934641 L64.3973248,27.368901 C64.377565,28.7323301 64.2985256,29.99696 64.1602067,31.1430309 C64.9901201,32.131023 65.8200334,33.2178143 66.6697066,34.4034048 L65.4248366,36.2213102 C64.7925217,34.9962 64.2392461,33.9884481 63.7847697,33.2375741 C63.2710138,35.3913969 62.4806202,37.130263 61.374069,38.4344125 L59.8525612,37.0907433 C61.5914273,35.0752394 62.4806202,31.8346253 62.5201398,27.368901 L62.5201398,20.2751178 L64.3973248,20.2751178 L64.3973248,24.6420429 C64.8320413,24.0097279 65.2074783,23.3576531 65.5631555,22.7055784 L66.4918681,23.4366925 C68.5468916,22.5474996 70.1671987,21.4409485 71.3132695,20.1170391 L72.8150175,20.1170391 C73.8425293,21.4211886 75.6406749,22.5870193 78.1699346,23.5750114 L77.0633835,25.2348381 C76.2334701,24.879161 75.502356,24.5234838 74.870041,24.1480468 L74.870041,24.7408421 L69.2187263,24.7408421 L69.2187263,24.128287 Z M73.4868521,23.1995744 C72.9335765,22.745098 72.4593403,22.2708618 72.0641435,21.7966256 C71.5899073,22.3103815 71.0959112,22.7648579 70.5623955,23.1995744 L73.4868521,23.1995744 Z M66.9661043,25.3929169 L76.9843441,25.3929169 L76.9843441,31.004712 L66.9661043,31.004712 L66.9661043,25.3929169 Z M75.245478,29.5424837 L75.245478,26.8946648 L72.7952576,26.8946648 L72.7952576,29.5424837 L75.245478,29.5424837 Z M71.1749506,29.5424837 L71.1749506,26.8946648 L68.7049704,26.8946648 L68.7049704,29.5424837 L71.1749506,29.5424837 Z M76.5891473,31.6172671 L76.5891473,38.375133 L74.6131631,38.375133 L74.6131631,37.624259 L69.376805,37.624259 L69.376805,38.375133 L67.4205806,38.375133 L67.4205806,31.6172671 L76.5891473,31.6172671 Z M69.376805,36.1027512 L74.6131631,36.1027512 L74.6131631,35.2925977 L69.376805,35.2925977 L69.376805,36.1027512 Z M69.376805,33.8896489 L74.6131631,33.8896489 L74.6131631,33.0794954 L69.376805,33.0794954 L69.376805,33.8896489 Z M73.8030096,27.1515428 L74.9095607,27.4479404 C74.7119623,28.1395349 74.4748442,28.75209 74.1982064,29.2856057 L73.1706946,28.9101687 C73.4078127,28.4359325 73.6054112,27.8628971 73.8030096,27.1515428 Z M70.0288798,27.1515428 C70.3055176,27.6850585 70.5623955,28.2976136 70.7797538,28.9892081 L69.7127223,29.2658459 C69.5151239,28.6335309 69.2582459,28.0407357 68.9618483,27.4874601 L70.0288798,27.1515428 Z M61.2950296,23.5750114 C61.6507068,25.1953184 61.9471044,27.0329837 62.2039824,29.127527 L60.6627147,29.5227238 C60.4058368,27.625779 60.0896793,25.8276334 59.7142423,24.0887673 L61.2950296,23.5750114 Z M96.5268278,20.749354 L96.5268278,36.1422709 L97.7124183,36.1422709 L97.7124183,38.0984952 L86.627147,38.0984952 L86.627147,36.1422709 L87.9708162,36.1422709 L87.9708162,20.749354 L96.5268278,20.749354 Z M89.9270406,36.1422709 L94.5706034,36.1422709 L94.5706034,33.000456 L89.9270406,33.000456 L89.9270406,36.1422709 Z M89.9270406,31.123271 L94.5706034,31.123271 L94.5706034,27.8431373 L89.9270406,27.8431373 L89.9270406,31.123271 Z M89.9270406,25.9461924 L94.5706034,25.9461924 L94.5706034,22.6462988 L89.9270406,22.6462988 L89.9270406,25.9461924 Z M80.3039976,33.4746922 C80.1854385,35.0554796 79.9285606,36.4386685 79.5333637,37.6637787 L81.371029,38.2565739 C81.7267062,36.9129047 81.9440644,35.4111567 82.0428637,33.7118103 L80.3039976,33.4746922 Z M84.2362061,33.2178143 C84.5326037,34.4231646 84.7894817,35.7273142 85.0068399,37.130263 L83.1889345,37.5649795 C83.0110959,36.0632315 82.7937377,34.7393221 82.5566195,33.5932513 L84.2362061,33.2178143 Z M86.1726706,28.0604955 C86.6469068,29.246086 87.0816233,30.5897553 87.4570603,32.1112631 L85.8169935,32.5459796 C85.7379541,32.1903025 85.6391549,31.8346253 85.5601155,31.498708 C83.7026904,32.0915033 81.9440644,32.5064599 80.2842377,32.7040584 L79.7902417,30.9651923 C80.126159,30.8071135 80.4027968,30.629275 80.6399149,30.4119167 C81.1734306,29.8586411 81.8452652,28.8904089 82.6356589,27.5467396 C81.8255054,27.6652987 80.995592,27.8036176 80.126159,27.9221766 L79.6321629,26.1635507 C79.9483204,26.0252318 80.2249582,25.7881137 80.4620763,25.4521964 C81.2919897,23.8318893 82.003344,22.0732634 82.6356589,20.1565587 L84.5326037,20.9074327 C83.6631707,22.9624563 82.7937377,24.6618027 81.9243046,25.9857121 L83.6434109,25.748594 C84.0386077,24.99772 84.4535644,24.1875665 84.8882809,23.3181335 L86.7259462,24.0294878 C85.0858793,27.0329837 83.7224502,29.2065663 82.6158991,30.5897553 C83.4458124,30.3921569 84.255966,30.1747986 85.0858793,29.9376805 C84.9278006,29.4634443 84.7697218,29.0287278 84.6116431,28.5940112 L86.1726706,28.0604955 Z M86.5085879,32.6842985 C86.8445052,33.5537316 87.1409029,34.5417237 87.3977808,35.6877945 L85.7577139,36.122511 C85.5601155,35.0949992 85.3032376,34.1070071 84.9870801,33.1782946 L86.5085879,32.6842985 Z"/>
    </g>
  </g>
</svg>
