<svg xmlns="http://www.w3.org/2000/svg" xmlns:xlink="http://www.w3.org/1999/xlink" width="367" height="145" viewBox="0 0 367 145">
  <defs>
    <circle id="tab_common_normal-b" cx="196.728" cy="38.254" r="38.254"/>
    <filter id="tab_common_normal-a" width="204.6%" height="204.6%" x="-52.3%" y="-52.3%" filterUnits="objectBoundingBox">
      <feMorphology in="SourceAlpha" operator="dilate" radius="10" result="shadowSpreadOuter1"/>
      <feOffset in="shadowSpreadOuter1" result="shadowOffsetOuter1"/>
      <feGaussianBlur in="shadowOffsetOuter1" result="shadowBlurOuter1" stdDeviation="10"/>
      <feComposite in="shadowBlurOuter1" in2="SourceAlpha" operator="out" result="shadowBlurOuter1"/>
      <feColorMatrix in="shadowBlurOuter1" values="0 0 0 0 0   0 0 0 0 0   0 0 0 0 0  0 0 0 0.2 0"/>
    </filter>
    <polygon id="tab_common_normal-c" points=".474 .105 20.884 .105 20.884 25.774 .474 25.774 .474 .105"/>
    <polygon id="tab_common_normal-e" points="0 39.922 0 .259 59.117 .259 59.117 39.922 0 39.922"/>
  </defs>
  <g fill="none" fill-rule="evenodd" transform="translate(-1 25)">
    <g fill="#F5F5F5" transform="translate(.554 11.465)">
      <path d="M198.719086 29.0496114L155.858866 29.0496114C154.147113 29.0496114 152.758409 27.6615924 152.758409 25.9498392L152.758409 25.8861874C152.758409 24.1744342 154.147113 22.7864152 155.858866 22.7864152L157.326963 22.7864152C159.725197 22.7864152 161.67034 20.8419566 161.67034 18.4437226L161.67034 18.3554314C161.67034 15.9571974 159.725197 14.0127389 157.326963 14.0127389L136.675047 14.0127389C134.276128 14.0127389 132.33167 15.9571974 132.33167 18.3554314L132.33167 18.4437226C132.33167 20.8419566 134.276128 22.7864152 136.675047 22.7864152L141.158732 22.7864152C142.871169 22.7864152 144.259188 24.1744342 144.259188 25.8861874L144.259188 25.9498392C144.259188 27.6615924 142.871169 29.0496114 141.158732 29.0496114L116.615845 29.0496114C113.213556 29.0496114 110.455313 31.8078543 110.455313 35.2101435L110.455313 35.3353937C110.455313 38.7369985 113.213556 41.4959258 116.615845 41.4959258L147.579346 41.4959258C149.530649 41.4959258 151.112361 43.0769534 151.112361 45.0282562L151.112361 45.0994367C151.112361 47.0500551 149.530649 48.6310827 147.579346 48.6310827L141.596765 48.6310827C138.51205 48.6310827 136.010468 51.1326652 136.010468 54.2173801L136.010468 54.3303106C136.010468 57.4150254 138.51205 59.9159236 141.596765 59.9159236L178.716007 59.9159236C181.800722 59.9159236 184.302989 57.4150254 184.302989 54.3303106L184.302989 54.2173801C184.302989 51.1326652 181.800722 48.6310827 178.716007 48.6310827L169.414637 48.6310827C167.463334 48.6310827 165.882307 47.0500551 165.882307 45.0994367L165.882307 45.0282562C165.882307 43.0769534 167.463334 41.4959258 169.414637 41.4959258L198.719086 41.4959258C202.120691 41.4959258 204.879618 38.7369985 204.879618 35.3353937L204.879618 35.2101435C204.879618 31.8078543 202.120691 29.0496114 198.719086 29.0496114M245.747285 15.7417046L245.747285 15.6721927C245.747285 13.7397625 247.313976 12.1730717 249.245336 12.1730717L249.32982 12.1730717C252.014048 12.1730717 254.190304 9.9978847 254.190304 7.31365684L254.190304 6.30199168C254.190304 3.12262537 251.613018.545338854 248.43579.545338854L226.892456.545338854C223.713089.545338854 221.136872 3.12262537 221.136872 6.30199168L221.136872 6.41748833C221.136872 9.59685464 223.713089 12.1730717 226.892456 12.1730717L230.190527 12.1730717C232.120818 12.1730717 233.687509 13.7397625 233.687509 15.6721927L233.687509 15.7417046C233.687509 17.6741347 232.120818 19.2397561 230.190527 19.2397561L225.226309 19.2397561C222.092928 19.2397561 219.55414 21.7785437 219.55414 24.9108558L219.55414 25.0263525C219.55414 28.1575952 222.092928 30.6974522 225.226309 30.6974522L271.208951 30.6974522C274.339124 30.6974522 276.878981 28.1575952 276.878981 25.0263525L276.878981 24.9108558C276.878981 21.7785437 274.339124 19.2397561 271.208951 19.2397561L249.245336 19.2397561C247.313976 19.2397561 245.747285 17.6741347 245.747285 15.7417046"/>
      <rect width="63.694" height="12.739" x="303.631" y="19.108" rx="6.369"/>
      <rect width="127.389" height="12.739" x="20.828" y="29.299" rx="6.369"/>
      <circle cx="6.815" cy="35.669" r="6.369"/>
      <circle cx="290.892" cy="25.478" r="6.369"/>
      <path d="M233.008431,43.7671823 L233.008431,43.6976704 C233.008431,41.7652402 234.575122,40.1985494 236.506483,40.1985494 L236.590966,40.1985494 C239.275194,40.1985494 241.451451,38.0233624 241.451451,35.3391345 L241.451451,34.3274694 C241.451451,31.1481031 238.874164,28.5708166 235.696937,28.5708166 L214.153602,28.5708166 C210.974236,28.5708166 208.398019,31.1481031 208.398019,34.3274694 L208.398019,34.442966 C208.398019,37.6223323 210.974236,40.1985494 214.153602,40.1985494 L217.451673,40.1985494 C219.381965,40.1985494 220.948655,41.7652402 220.948655,43.6976704 L220.948655,43.7671823 C220.948655,45.6996124 219.381965,47.2652338 217.451673,47.2652338 L212.487456,47.2652338 C209.354074,47.2652338 206.815287,49.8040214 206.815287,52.9363335 L206.815287,53.0518302 C206.815287,56.1830729 209.354074,58.7229299 212.487456,58.7229299 L258.470097,58.7229299 C261.60027,58.7229299 264.140127,56.1830729 264.140127,53.0518302 L264.140127,52.9363335 C264.140127,49.8040214 261.60027,47.2652338 258.470097,47.2652338 L236.506483,47.2652338 C234.575122,47.2652338 233.008431,45.6996124 233.008431,43.7671823" transform="matrix(-1 0 0 1 470.955 0)"/>
    </g>
    <use fill="#000" filter="url(#tab_common_normal-a)" xlink:href="#tab_common_normal-b"/>
    <use fill="#F5F5F5" stroke="#FFF" stroke-width="20" xlink:href="#tab_common_normal-b"/>
    <g transform="translate(158.325 .955)">
      <path fill="#FFF039" d="M33.2865865,62.3255475 C33.5534135,62.0428552 33.9385096,61.905836 34.3279327,61.905836 C34.7144712,61.905836 35.0865865,62.0630475 35.3649519,62.3385283 C42.3933173,69.4938168 53.8120673,70.005836 61.3611058,63.5053552 C68.9130288,57.0063168 70.0986058,45.6366052 64.0755288,37.6260283 C63.8447596,37.3188168 63.7409135,36.9207398 63.7957212,36.5298744 C63.8505288,36.143336 64.0567788,35.7827591 64.3639904,35.5649706 L66.7236058,33.799586 C67.3726442,33.3106437 68.2913942,33.4418937 68.7788942,34.0880475 C76.6639904,44.5721821 75.091875,59.4481437 65.1990865,67.9649706 C55.3120673,76.4774706 40.3625481,75.8197783 31.1678365,66.4664129 C30.5966827,65.8851629 30.6067788,64.9534321 31.1865865,64.3851629 L33.2865865,62.3255475 Z"/>
      <path fill="#EFDD00" d="M52.9492788 50.1800187L62.4209135 50.8853071C62.6689904 50.9098264 62.8983173 51.0295379 63.0382212 51.2285764 63.2012019 51.418961 63.2387019 51.6728071 63.2112981 51.9079033 62.690625 54.4766533 61.4862981 56.8622302 59.7223558 58.8122302 59.5564904 58.9809802 59.3242788 59.1006918 59.0704327 59.087711 58.8295673 59.087711 58.5872596 58.9809802 58.4372596 58.768961L52.2367788 51.5920379C52.0997596 51.418961 52.0334135 51.1982879 52.0435096 50.9819418 52.0550481 50.8679994 52.0766827 50.7641533 52.1329327 50.6559802 52.2930288 50.3372302 52.6132212 50.1583841 52.9492788 50.1800187M45.9927404 63.3381918C43.4312019 62.8146341 41.0441827 61.6103071 39.0941827 59.8506918 38.9297596 59.6862687 38.8071635 59.4482879 38.8187019 59.1973264 38.8158173 58.956461 38.9211058 58.7213648 39.1316827 58.5684802L46.3114904 52.3665571C46.4845673 52.2266533 46.7110096 52.1545379 46.9244712 52.1675187 47.0412981 52.1790571 47.1480288 52.2079033 47.2533173 52.2641533 47.5634135 52.4213648 47.7408173 52.7444418 47.720625 53.0761725L47.0023558 62.5420379C47.0023558 62.8016533 46.876875 63.0223264 46.6778365 63.1679994 46.4874519 63.3324225 46.2220673 63.3684802 45.9927404 63.3381918M57.3424038 60.5803552C57.3020192 60.8327591 57.1520192 61.0404514 56.9544231 61.1760283 54.7722115 62.6327591 52.2481731 63.4692975 49.6289423 63.5918937 49.3823077 63.5976629 49.1414423 63.5197783 48.9597115 63.3380475 48.7981731 63.1678552 48.7130769 62.9298744 48.7188462 62.6760283L49.4371154 53.2159321C49.4529808 52.9894898 49.5698077 52.774586 49.7255769 52.6289129 49.8077885 52.5582398 49.9217308 52.4947783 50.0299038 52.4731437 50.3558654 52.3577591 50.7294231 52.455836 50.9414423 52.7096821L57.1361538 59.9024706C57.2948077 60.105836 57.3698077 60.3510283 57.3424038 60.5803552M62.5538942 49.1701148L53.0865865 48.4734802C52.8615865 48.4518456 52.648125 48.3335764 52.5096635 48.1763648 52.4288942 48.0984802 52.3683173 47.9758841 52.3437981 47.8749225 52.2284135 47.5504033 52.3322596 47.1768456 52.591875 46.9662687L59.7702404 40.7629033C59.9736058 40.6085764 60.2202404 40.5379033 60.4524519 40.5667494 60.7091827 40.6085764 60.9212019 40.7383841 61.048125 40.9504033 62.5149519 43.1311725 63.3370673 45.6537687 63.4654327 48.2787687 63.4712019 48.5153071 63.3904327 48.767711 63.2202404 48.9263648 63.0327404 49.1080956 62.7976442 49.1946341 62.5538942 49.1701148"/>
      <path fill="#C61C00" d="M54.5620673 21.6409321L54.3197596 21.7837206.0976442308 53.7625668C.151009615 54.2428552.427932692 54.6755475.849086538 54.9221821 1.13754808 55.0952591 8.02456731 59.0962206 17.9130288 59.0962206 25.0337019 59.0962206 31.854375 57.0265091 38.1702404 52.9476629 49.4707212 45.6510283 54.9486058 32.749586 57.3832212 24.7361244 57.5837019 24.0755475 57.7654327 23.449586 57.9255288 22.8625668 58.3510096 21.3063168 58.6437981 20.0226629 58.8298558 19.1241052L54.5620673 21.6409321zM6.13341346 40.1190571C5.10504808 40.7969418 4.80793269 42.1757879 5.47139423 43.1911725 6.13341346 44.2281918 7.50649038 44.5238648 8.53341346 43.8531918 9.56754808 43.1983841 9.86322115 41.8209802 9.20120192 40.7911725 8.52764423 39.7599225 7.16322115 39.4671341 6.13341346 40.1190571"/>
      <g transform="translate(52.878 .382)">
        <mask id="tab_common_normal-d" fill="#fff">
          <use xlink:href="#tab_common_normal-c"/>
        </mask>
        <path fill="#A01300" d="M19.9672783,22.7649519 L19.9571821,22.760625 C17.9177591,21.8144712 15.9273744,20.7846635 13.9615091,19.7115865 C12.3994898,18.8620673 10.8446821,17.9678365 9.3374706,17.0649519 C9.26535522,17.0216827 9.19179753,16.9784135 9.11968214,16.9351442 C9.11968214,16.9308173 9.11968214,16.9264904 9.11823983,16.9221635 C8.3812206,14.5437981 7.74660522,11.9375481 7.24612445,9.39331731 C6.75718214,6.85052885 6.37064368,4.26302885 6.3937206,1.74764423 L6.3937206,1.67408654 C6.3937206,1.04956731 6.01295137,0.448125 5.39852829,0.213028846 C4.59227829,-0.104278846 3.68939368,0.299567308 3.37064368,1.09860577 C2.30766291,3.83177885 1.70910522,6.62552885 1.22016291,9.41495192 C0.904297526,11.2726442 0.669201372,13.1159135 0.474489833,14.9851442 C2.54275906,15.3240865 4.01679753,15.6644712 4.67737445,15.8288942 C4.89660522,15.8837019 5.02929753,15.9183173 5.0624706,15.9284135 C5.82545137,16.1317788 6.31006676,16.8788942 6.1874706,17.6649519 C6.16727829,17.791875 6.08362445,18.2909135 5.92064368,19.0798558 C5.73314368,19.9798558 5.44035522,21.2635096 5.01487445,22.8197596 C4.85333599,23.4053365 4.67304753,24.0327404 4.47256676,24.691875 C4.71054753,24.7611058 4.9499706,24.8260096 5.20381676,24.8577404 L5.27304753,24.8649519 C7.66727829,25.1534135 9.95477829,25.3466827 12.2985283,25.5038942 C14.6292975,25.6639904 16.9672783,25.7663942 19.3023744,25.7736058 C19.9009321,25.7736058 20.4706437,25.4317788 20.734586,24.8577404 C21.1052591,24.0716827 20.7648744,23.1370673 19.9672783,22.7649519" mask="url(#tab_common_normal-d)"/>
      </g>
      <g transform="translate(0 13.84)">
        <mask id="tab_common_normal-f" fill="#fff">
          <use xlink:href="#tab_common_normal-e"/>
        </mask>
        <path fill="#FFCCC5" d="M8.53355769,30.0121007 C7.50663462,30.6827738 6.13355769,30.3871007 5.47153846,29.3500815 C4.80807692,28.3346968 5.10519231,26.9558507 6.13355769,26.2779661 C7.16336538,25.626043 8.52778846,25.9188315 9.20134615,26.9500815 C9.86336538,27.9798891 9.56769231,29.357293 8.53355769,30.0121007 M57.9715385,2.13085069 C57.9383654,2.12075453 57.8056731,2.08469684 57.5893269,2.03133146 C56.92875,1.86690838 55.4518269,1.52652376 53.3864423,1.18758146 C50.5465385,0.720273763 46.5931731,0.258735301 42.0816346,0.258735301 C39.1205769,0.258735301 36.3109615,0.479408378 33.6210577,0.868831455 C33.4926923,0.848639147 33.3643269,0.824119917 33.2388462,0.839985301 C15.0210577,2.63854299 6.64125,16.7601776 6.64125,16.7601776 C-1.10394231,27.7202738 0.0239423077,39.2890238 0.0975,39.9221968 L54.3196154,7.94335069 C54.2633654,7.77604299 54.2229808,7.60729299 54.1854808,7.43421607 C54.3008654,7.56690838 54.4335577,7.68085069 54.5619231,7.80056222 L58.8297115,5.28229299 C58.9926923,4.49335069 59.0777885,3.99431222 59.0979808,3.86738915 C59.2205769,3.08133146 58.7374038,2.33421607 57.9715385,2.13085069" mask="url(#tab_common_normal-f)"/>
      </g>
      <path fill="#A01300" d="M33.2387019,14.6815091 C24.8588942,15.6031437 22.5829327,9.17045137 22.4978365,8.91804753 C22.3536058,8.45650906 22.0060096,8.08727829 21.5473558,7.93006676 C21.0959135,7.76420137 20.5954327,7.82333599 20.1915865,8.08727829 C10.0536058,14.6223744 6.88485577,29.404586 6.64254808,30.6017014 C6.64254808,30.6017014 15.0209135,16.4800668 33.2387019,14.6815091"/>
    </g>
    <g fill="#CFCFCF" transform="translate(148.77 100.807)">
      <path d="M0.126890924,8.28970939 L0.126890924,10.3080215 L17.767715,10.3080215 L17.767715,8.28970939 L0.126890924,8.28970939 Z M24.3466361,4.75766322 C24.6959594,5.59215764 25.0064689,6.54309315 25.2781648,7.62987659 L23.7644307,8.01801354 C23.5121417,7.06707803 23.2016322,6.15495621 22.8329021,5.26224124 L24.3466361,4.75766322 Z M24.3466361,11.2977707 C24.7347731,12.3457404 25.1035032,13.5295581 25.4140127,14.8880374 L23.8032444,15.3149881 C23.5315486,14.0923567 23.2016322,12.9279459 22.8134952,11.8023487 L24.3466361,11.2977707 Z M23.221039,0.352308917 L25.2975717,0.643411624 C25.1811306,1.22561704 25.0064689,1.78841561 24.7929936,2.29299363 L27.5099522,2.29299363 L27.5099522,8.32852309 L28.1891919,8.2508957 L28.1891919,10.0169188 L27.5099522,10.0945462 L27.5099522,16.59584 C27.5099522,17.7796576 26.9277468,18.3812699 25.8021497,18.3812699 L24.0749403,18.3812699 L23.5897691,16.5376194 C24.1719745,16.5764331 24.7153662,16.6152468 25.2199443,16.6152468 C25.511047,16.6152468 25.6663018,16.3823646 25.6663018,15.9360072 L25.6663018,10.3080215 C24.6377389,10.4050557 23.5897691,10.50209 22.5029857,10.5797174 C22.3865446,13.801254 21.8431529,16.4211783 20.8339968,18.4588973 L19.3202627,17.0810111 C20.0965366,15.3732086 20.5428941,13.2384554 20.6593352,10.7155653 L19.669586,10.7737858 L19.417297,8.96894904 L20.678742,8.89132166 L20.678742,2.29299363 L22.7552747,2.29299363 C22.9493432,1.67197452 23.1045979,1.01214172 23.221039,0.352308917 Z M22.5223925,8.77488057 C23.6285828,8.69725318 24.6765525,8.60021895 25.6663018,8.52259156 L25.6663018,4.15605096 L22.5223925,4.15605096 L22.5223925,8.77488057 Z M29.819367,1.22561704 C29.819367,2.73935111 29.7223328,3.8455414 29.5476712,4.5441879 C29.3536027,5.24283439 28.9072452,5.98029459 28.2474124,6.75656847 L29.819367,8.17326831 C30.6732683,7.28055334 31.21666,6.48487261 31.4301354,5.82503981 C31.6436107,5.2040207 31.7600518,4.27249204 31.7600518,3.04986067 L33.6231091,3.04986067 L33.6231091,5.55334395 C33.6231091,6.98945064 34.3411624,7.70750398 35.8160828,7.70750398 L37.3298169,7.70750398 L37.3298169,5.82503981 L36.3982882,5.82503981 C35.8548965,5.82503981 35.5832006,5.5727508 35.5832006,5.10698646 L35.5832006,1.22561704 L29.819367,1.22561704 Z M28.7519904,8.75547373 L36.5341361,8.75547373 L36.5341361,10.4826831 C36.1265924,12.2292994 35.4279459,13.7236266 34.4576035,14.9656648 C35.2726911,15.5866839 36.2236266,16.1494825 37.2910032,16.6734674 L36.2624403,18.4783041 C35.0398089,17.857285 33.9724323,17.1780454 33.0603105,16.4405852 C32.0317476,17.3138933 30.8285231,18.0319467 29.4312301,18.5947452 L28.3444467,16.9063495 C29.6058917,16.4017715 30.6732683,15.7613455 31.5659833,15.0238854 C30.3627588,13.7042197 29.5476712,12.2098925 29.1207205,10.5797174 L28.7519904,10.5797174 L28.7519904,8.75547373 Z M30.9837779,10.5797174 C31.4107285,11.6859076 32.0705613,12.6950637 32.9438694,13.6265924 C33.6425159,12.7144705 34.1859076,11.7053145 34.5546377,10.5797174 L30.9837779,10.5797174 Z M47.9065486,4.64122213 L49.9442675,4.64122213 L49.9442675,6.65953424 L56.0380175,6.65953424 L56.0380175,8.56140525 L49.9442675,8.56140525 L49.9442675,10.8902269 L55.0094546,10.8902269 L55.0094546,18.4394904 L53.0105494,18.4394904 L53.0105494,17.6244029 L45.5971338,17.6244029 L45.5971338,18.4394904 L43.5788217,18.4394904 L43.5788217,10.8902269 L47.9065486,10.8902269 L47.9065486,4.64122213 Z M45.5971338,15.7225318 L53.0105494,15.7225318 L53.0105494,12.7532842 L45.5971338,12.7532842 L45.5971338,15.7225318 Z M48.6051951,0.371715764 C48.8962978,0.915107484 49.1679936,1.51671975 49.4396895,2.17655255 L56.484375,2.17655255 L56.484375,4.11723726 L42.4920382,4.11723726 L42.4920382,8.07623408 C42.4338177,12.3457404 41.7351712,15.7807524 40.3960987,18.3618631 L38.843551,16.9839769 C39.8915207,14.8492237 40.4543193,11.8799761 40.493133,8.07623408 L40.493133,2.17655255 L47.34375,2.17655255 C47.0720541,1.65256768 46.8003583,1.1673965 46.4898487,0.721039013 L48.6051951,0.371715764 Z M67.7015326,0.352308917 C67.8956011,0.837480096 68.0896696,1.38087182 68.2837381,1.98248408 L75.5418989,1.98248408 L75.5418989,5.66978503 L73.5429936,5.66978503 L73.5429936,3.8455414 L60.8121019,3.8455414 L60.8121019,5.66978503 L58.8131967,5.66978503 L58.8131967,1.98248408 L66.2266123,1.98248408 C66.0325438,1.51671975 65.8384753,1.08976911 65.625,0.701632166 L67.7015326,0.352308917 Z M61.433121,5.18461385 L72.9219745,5.18461385 L72.9219745,7.04767118 L68.671875,7.04767118 C68.2449244,7.33877389 67.8373806,7.61046975 67.4104299,7.86275876 C68.0508559,8.56140525 68.5554339,9.31827229 68.9435709,10.1333599 C70.4573049,9.53174761 71.9128185,8.6196258 73.2712978,7.39699443 L74.6685908,8.77488057 C73.368332,9.90047771 71.9322253,10.7931927 70.3408639,11.4336186 C71.8157842,13.0443869 73.7564689,14.4028662 76.162918,15.5284634 L75.0955414,17.352707 C72.9219745,16.1688893 71.1365446,14.7715963 69.7780653,13.1414212 C69.816879,13.4519307 69.8362858,13.7818471 69.8362858,14.1117635 C69.8362858,15.703125 69.6034037,16.7705016 69.176453,17.352707 C68.6524682,18.0513535 67.4880573,18.4200836 65.7026274,18.4200836 L65.1010151,18.4200836 L64.4217755,16.6346537 L65.4309315,16.6346537 C66.4789013,16.6346537 67.1387341,16.4793989 67.4104299,16.207703 C67.7209395,15.8389729 67.8956011,15.1403264 67.8956011,14.1117635 C67.8956011,13.9565088 67.8761943,13.8206608 67.8761943,13.7042197 C65.7802548,15.2567675 63.082703,16.5376194 59.7641322,17.5467755 L58.7549761,15.8195661 C62.5393113,14.7521895 65.4697452,13.413117 67.5462779,11.7829419 C67.4298368,11.4336186 67.3133957,11.1037022 67.1775478,10.7931927 C65.3533041,12.1128583 62.9662619,13.1996417 60.0164212,14.053543 L59.0072651,12.3263336 C62.1123607,11.5500597 64.5576234,10.5409037 66.3430533,9.31827229 C66.1877986,9.10479697 66.0131369,8.89132166 65.8578822,8.69725318 C65.8190685,8.69725318 65.7802548,8.71666003 65.7802548,8.73606688 C64.5382166,9.33767914 62.7333798,9.99751194 60.4045581,10.6961584 L59.3759952,9.00776274 C61.1420183,8.65843949 62.8110072,8.15386146 64.3829618,7.51343551 C64.7516919,7.35818073 65.120422,7.20292596 65.4697452,7.04767118 L61.433121,7.04767118 L61.433121,5.18461385 Z M94.3665406,1.10917596 L94.3665406,16.2271099 L95.5309514,16.2271099 L95.5309514,18.1483877 L84.6437102,18.1483877 L84.6437102,16.2271099 L85.9633758,16.2271099 L85.9633758,1.10917596 L94.3665406,1.10917596 Z M87.8846537,16.2271099 L92.4452627,16.2271099 L92.4452627,13.1414212 L87.8846537,13.1414212 L87.8846537,16.2271099 Z M87.8846537,11.2977707 L92.4452627,11.2977707 L92.4452627,8.07623408 L87.8846537,8.07623408 L87.8846537,11.2977707 Z M87.8846537,6.21317675 L92.4452627,6.21317675 L92.4452627,2.97223328 L87.8846537,2.97223328 L87.8846537,6.21317675 Z M78.4335191,13.6071855 C78.317078,15.1597333 78.064789,16.5182126 77.6766521,17.7214371 L79.4814889,18.3036425 C79.8308121,16.9839769 80.0442874,15.5090565 80.1413217,13.8400677 L78.4335191,13.6071855 Z M82.2954817,13.3548965 C82.5865844,14.5387142 82.8388734,15.8195661 83.0523487,17.1974522 L81.2669188,17.6244029 C81.0922572,16.1494825 80.8787818,14.8492237 80.6458997,13.7236266 L82.2954817,13.3548965 Z M84.1973527,8.28970939 C84.663117,9.45412022 85.0900677,10.7737858 85.4587978,12.2681131 L83.8480295,12.6950637 C83.7704021,12.3457404 83.6733678,11.9964172 83.5957404,11.6665008 C81.7714968,12.2487062 80.0442874,12.65625 78.4141123,12.8503185 L77.9289411,11.1425159 C78.2588575,10.9872611 78.5305533,10.8125995 78.7634355,10.5991242 C79.2874204,10.0557325 79.9472532,9.10479697 80.7235271,7.78513137 C79.9278463,7.90157245 79.1127588,8.03742038 78.2588575,8.15386146 L77.7736863,6.42665207 C78.0841959,6.29080414 78.3558917,6.05792197 78.5887739,5.72800557 C79.4038615,4.13664411 80.102508,2.40943471 80.7235271,0.526970541 L82.5865844,1.26443073 C81.7326831,3.28274283 80.8787818,4.95173169 80.0248806,6.25199045 L81.7132763,6.01910828 C82.1014132,5.28164809 82.508957,4.48596736 82.9359076,3.63206608 L84.7407444,4.33071258 C83.1299761,7.28055334 81.7909037,9.41530653 80.7041202,10.7737858 C81.5192078,10.5797174 82.3148885,10.366242 83.1299761,10.1333599 C82.9747213,9.66759554 82.8194666,9.2406449 82.6642118,8.81369427 L84.1973527,8.28970939 Z M84.5272691,12.8309116 C84.8571855,13.6848129 85.1482882,14.6551553 85.4005772,15.7807524 L83.7898089,16.207703 C83.5957404,15.198547 83.3434514,14.2282046 83.0329419,13.3160828 L84.5272691,12.8309116 Z"/>
    </g>
  </g>
</svg>
