<svg xmlns="http://www.w3.org/2000/svg" xmlns:xlink="http://www.w3.org/1999/xlink" width="377" height="134" viewBox="0 0 377 134">
  <defs>
    <circle id="tab_yes_active-b" cx="137.793" cy="39.908" r="39.254"/>
    <filter id="tab_yes_active-a" width="201.9%" height="201.9%" x="-51%" y="-51%" filterUnits="objectBoundingBox">
      <feMorphology in="SourceAlpha" operator="dilate" radius="10" result="shadowSpreadOuter1"/>
      <feOffset in="shadowSpreadOuter1" result="shadowOffsetOuter1"/>
      <feGaussianBlur in="shadowOffsetOuter1" result="shadowBlurOuter1" stdDeviation="10"/>
      <feComposite in="shadowBlurOuter1" in2="SourceAlpha" operator="out" result="shadowBlurOuter1"/>
      <feColorMatrix in="shadowBlurOuter1" values="0 0 0 0 0   0 0 0 0 0   0 0 0 0 0  0 0 0 0.2 0"/>
    </filter>
    <polygon id="tab_yes_active-c" points="0 22.514 0 44.748 44.165 44.748 44.165 22.514 44.165 .281 0 .281"/>
    <polygon id="tab_yes_active-e" points=".361 .101 34.212 .101 34.212 32.612 .361 32.612 .361 .101"/>
  </defs>
  <g fill="none" fill-rule="evenodd" transform="translate(-1 24)">
    <g fill="#F9C300" transform="translate(.105 12.418)">
      <path d="M138.339193 29.8090784L94.358444 29.8090784C92.601939 29.8090784 91.1769296 28.3847713 91.1769296 26.6282663L91.1769296 26.5629505C91.1769296 24.8064456 92.601939 23.3821385 94.358444 23.3821385L95.8649226 23.3821385C98.3258556 23.3821385 100.321852 21.3868444 100.321852 18.9259114L100.321852 18.835312C100.321852 16.3743791 98.3258556 14.379085 95.8649226 14.379085L74.6730873 14.379085C72.2114521 14.379085 70.216158 16.3743791 70.216158 18.835312L70.216158 18.9259114C70.216158 21.3868444 72.2114521 23.3821385 74.6730873 23.3821385L79.2739925 23.3821385C81.0311998 23.3821385 82.4555069 24.8064456 82.4555069 26.5629505L82.4555069 26.6282663C82.4555069 28.3847713 81.0311998 29.8090784 79.2739925 29.8090784L54.0894621 29.8090784C50.5982242 29.8090784 47.7678704 32.6394322 47.7678704 36.1306701L47.7678704 36.2591949C47.7678704 39.7497305 50.5982242 42.5807866 54.0894621 42.5807866L85.8624663 42.5807866C87.8647836 42.5807866 89.4878475 44.2031482 89.4878475 46.2054655L89.4878475 46.2785069C89.4878475 48.2801219 87.8647836 49.9024835 85.8624663 49.9024835L79.723478 49.9024835C76.558117 49.9024835 73.9911336 52.4694669 73.9911336 55.6348279L73.9911336 55.7507109C73.9911336 58.9160718 76.558117 61.4823529 79.723478 61.4823529L117.813158 61.4823529C120.978519 61.4823529 123.546204 58.9160718 123.546204 55.7507109L123.546204 55.6348279C123.546204 52.4694669 120.978519 49.9024835 117.813158 49.9024835L108.268615 49.9024835C106.266297 49.9024835 104.643936 48.2801219 104.643936 46.2785069L104.643936 46.2054655C104.643936 44.2031482 106.266297 42.5807866 108.268615 42.5807866L138.339193 42.5807866C141.829728 42.5807866 144.660784 39.7497305 144.660784 36.2591949L144.660784 36.1306701C144.660784 32.6394322 141.829728 29.8090784 138.339193 29.8090784M186.596887 16.1532524L186.596887 16.0819232C186.596887 14.098972 188.204537 12.491322 190.186391 12.491322L190.273083 12.491322C193.027487 12.491322 195.260639 10.2592673 195.260639 7.50486355L195.260639 6.46674963C195.260639 3.20426263 192.615972.559596079 189.35568.559596079L167.249121.559596079C163.986634.559596079 161.343065 3.20426263 161.343065 6.46674963L161.343065 6.58526581C161.343065 9.8477528 163.986634 12.491322 167.249121 12.491322L170.633416 12.491322C172.614173 12.491322 174.221823 14.098972 174.221823 16.0819232L174.221823 16.1532524C174.221823 18.1362036 172.614173 19.7427562 170.633416 19.7427562L165.539415 19.7427562C162.324115 19.7427562 159.718954 22.3479174 159.718954 25.56212L159.718954 25.6806362C159.718954 28.8937415 162.324115 31.5 165.539415 31.5L212.724217 31.5C215.936225 31.5 218.542484 28.8937415 218.542484 25.6806362L218.542484 25.56212C218.542484 22.3479174 215.936225 19.7427562 212.724217 19.7427562L190.186391 19.7427562C188.204537 19.7427562 186.596887 18.1362036 186.596887 16.1532524"/>
      <rect width="130.719" height="13.072" x="246.647" y="19.608" rx="6.536"/>
      <circle cx="232.268" cy="26.144" r="6.536"/>
      <circle cx="35.536" cy="35.948" r="6.536"/>
      <rect width="65.359" height="13.072" x=".895" y="50.327" rx="6.536"/>
    </g>
    <use fill="#000" filter="url(#tab_yes_active-a)" xlink:href="#tab_yes_active-b"/>
    <use fill="#F5F5F5" stroke="#FFF" stroke-width="20" xlink:href="#tab_yes_active-b"/>
    <g transform="translate(122.569 28.758)">
      <g transform="translate(0 .07)">
        <mask id="tab_yes_active-d" fill="#fff">
          <use xlink:href="#tab_yes_active-c"/>
        </mask>
        <path fill="#E52906" d="M44.1646091,22.5138282 C44.1646091,10.2346732 34.2765432,0.280751634 22.0823045,0.280751634 C9.88477366,0.280751634 0,10.2346732 0,22.5138282 C0,34.7946405 9.88477366,44.7485621 22.0823045,44.7485621 C34.2765432,44.7485621 44.1646091,34.7946405 44.1646091,22.5138282" mask="url(#tab_yes_active-d)"/>
      </g>
      <path fill="#FB7D42" d="M22.0823045,36.6406863 C18.2436214,36.6406863 14.7736626,35.0778245 12.2502058,32.5537115 C11.344856,31.6454949 11.5308642,30.1190943 12.6452675,29.4909664 L18.4279835,26.2309991 C18.7160494,26.0669234 19.0633745,26.1166433 19.3283951,26.3155229 C20.0971193,26.8955882 21.0452675,27.2436275 22.0823045,27.2436275 C23.145679,27.2436275 24.1251029,26.8806723 24.9069959,26.2724323 C25.1786008,26.0619514 25.5374486,26.0089169 25.8353909,26.1845938 L31.5061728,29.5572596 C32.5975309,30.2052754 32.7572016,31.711788 31.855144,32.606746 C29.3382716,35.0993697 25.8897119,36.6406863 22.0823045,36.6406863 M20.4740741,10.9852241 L20.4740741,17.7123249 C20.4740741,18.0272176 20.2831276,18.2940476 20.0032922,18.436578 C18.4921811,19.2022642 17.4534979,20.7651261 17.4534979,22.5832166 C17.4534979,22.7423203 17.3563786,23.138422 16.9662551,23.3472456 L11.1967078,26.6005836 C10.0641975,27.2369981 8.63868313,26.5806956 8.38518519,25.2979225 C8.21234568,24.4211951 8.12016461,23.5146359 8.12016461,22.5832166 C8.12016461,16.2638189 12.2650206,10.9239029 17.9670782,9.15553221 C19.2098765,8.77103175 20.4740741,9.67427638 20.4740741,10.9852241 M36.0427984,22.5832166 C36.0427984,23.5361811 35.945679,24.4676004 35.7646091,25.365873 C35.5028807,26.6619048 34.0493827,27.311578 32.9185185,26.6403595 L27.1242798,23.1931139 C26.6156379,22.9279412 26.709465,22.700887 26.709465,22.5832166 C26.709465,20.7651261 25.6707819,19.2022642 24.1596708,18.436578 C23.8798354,18.2940476 23.6888889,18.0272176 23.6888889,17.7123249 L23.6888889,10.9852241 C23.6888889,9.67427638 24.9547325,8.77103175 26.1958848,9.15553221 C31.8979424,10.9239029 36.0427984,16.2638189 36.0427984,22.5832166 M24.9415638,5.81269841 C13.38107,3.90345472 3.52757202,13.8242297 5.42386831,25.4636555 C6.57119342,32.5122782 12.2205761,38.1985761 19.2213992,39.3553922 C30.781893,41.2646359 40.6353909,31.3438609 38.7390947,19.7027778 C37.5917695,12.654155 31.9440329,6.96785714 24.9415638,5.81269841"/>
      <path fill="#FFC71B" d="M29.4125103 20.3652124C29.4125103 19.1387885 30.4001646 18.1460481 31.6166255 18.1460481 32.8330864 18.1460481 33.8190947 19.1387885 33.8190947 20.3652124 33.8190947 21.589979 32.8330864 22.5843768 31.6166255 22.5843768 30.4001646 22.5843768 29.4125103 21.589979 29.4125103 20.3652124M26.7906173 16.420105C26.0696296 15.4323366 26.2786831 14.0434944 27.2597531 13.317584 28.2424691 12.5916737 29.6186008 12.8054692 30.3395885 13.7932376 31.0605761 14.7810061 30.8515226 16.1698483 29.8688066 16.8941013 28.8893827 17.6200117 27.5099588 17.4078735 26.7906173 16.420105M16.7437037 16.9007306C15.6720988 17.4874253 14.3354733 17.0913235 13.7527572 16.0157166 13.1683951 14.9384524 13.5634568 13.5927007 14.6350617 13.0060061 15.7017284 12.4193114 17.0416461 12.8154132 17.622716 13.8926774 18.2054321 14.966627 17.8103704 16.3156933 16.7437037 16.9007306M14.5575309 21.1063702C14.0406584 22.2184384 12.7287243 22.6974066 11.6258436 22.1770051 10.5246091 21.6549463 10.050535 20.3373693 10.5674074 19.2269585 11.0842798 18.1182049 12.3945679 17.6375794 13.4958025 18.1579809 14.597037 18.676725 15.0727572 19.999274 14.5575309 21.1063702M20.3573663 29.9142484C21.4289712 30.4959711 21.8306173 31.8400654 21.2511934 32.9189869 20.6717695 33.9995658 19.335144 34.4006396 18.2651852 33.8156022 17.1935802 33.2355369 16.7935802 31.8897852 17.3730041 30.8108637 17.9491358 29.7352568 19.2890535 29.3308683 20.3573663 29.9142484M25.9242798 30.1497549C25.2592593 30.5723739 25.0584362 31.4590453 25.4781893 32.1286064 25.8962963 32.7981676 26.7786008 33.0003618 27.4436214 32.5777428 28.108642 32.1551237 28.309465 31.2701097 27.8880658 30.5988912 27.4699588 29.9293301 26.5893004 29.7287932 25.9242798 30.1497549"/>
    </g>
    <g transform="translate(92.503)">
      <g transform="translate(32.353 .345)">
        <mask id="tab_yes_active-f" fill="#fff">
          <use xlink:href="#tab_yes_active-e"/>
        </mask>
        <path fill="#E7DABE" d="M31.712451,1.76895485 C29.6742157,0.00776849372 26.6967647,-0.401306619 24.2614706,0.74528372 C20.8477451,2.35110021 19.4712745,6.05047658 20.4693137,9.26309291 C20.8869608,10.6053706 20.5114706,12.0646674 19.3928431,12.9133016 L0.361470588,27.3361494 L4.33598039,32.6118416 L33.285,10.673222 C34.8751961,7.87754764 34.4614706,4.14572059 31.712451,1.76895485" mask="url(#tab_yes_active-f)"/>
      </g>
      <path fill="#DDC4A1" d="M65.637549,11.0181295 L36.6895098,32.9567491 L40.6630392,38.2324414 L59.6944118,23.8095936 C60.8140196,22.9619428 62.315,22.9983269 63.4895098,23.7673094 C66.2983333,25.6091308 70.2218627,25.2905242 72.6944118,22.4358486 C74.4581373,20.3983399 74.8806863,17.4138616 73.7463725,14.9672777 C72.2189216,11.6661596 68.7532353,10.2461969 65.637549,11.0181295"/>
      <path fill="#FF9B19" d="M0,29.9419836 L14.7803922,49.5608719 L37.0392157,45.576323 L50.3676471,22.5904318 C42.2058824,11.7548581 19.6558824,15.047126 0,29.9419836"/>
      <path fill="#BC612E" d="M50.3677451,22.5903334 L50.3677451,22.5903334 L14.7804902,49.5607736 L29.5589216,69.179662 C49.2138235,54.2838211 58.5304902,33.4249238 50.3677451,22.5903334"/>
      <path fill="#D45F2C" d="M24.6658824 29.590533C24.6247059 30.6024039 23.7727451 31.3900701 22.764902 31.3497526 21.755098 31.3074684 20.9698039 30.4539175 21.01 29.4410632 21.0521569 28.4291923 21.9041176 27.6425094 22.9129412 27.6838103 23.9217647 27.7251111 24.705098 28.5786621 24.6658824 29.590533M13.7963725 38.0738265C13.7551961 39.0856973 12.9032353 39.8733636 11.8953922 39.8330461 10.8855882 39.7917453 10.1002941 38.9381943 10.1404902 37.9253401 10.1826471 36.9134692 11.0346078 36.1258029 12.0434314 36.1671038 13.0522549 36.2084046 13.8355882 37.0619556 13.7963725 38.0738265M24.067549 23.099809C24.0263725 24.1116799 23.1753922 24.8993461 22.167549 24.8590286 21.1577451 24.8167444 20.372451 23.9641768 20.4126471 22.9513226 20.4538235 21.9394517 21.3057843 21.1517854 22.3146078 21.1930863 23.3234314 21.2343871 24.1077451 22.0879381 24.067549 23.099809M30.1901961 25.8563459C30.15 26.8692001 29.2990196 27.655883 28.2901961 27.6145822 27.2794118 27.5732813 26.495098 26.7197304 26.5362745 25.7078595 26.577451 24.6950052 27.4294118 23.9083223 28.4382353 23.9486398 29.4460784 23.9899407 30.2323529 24.844475 30.1901961 25.8563459M31.1054902 31.3925285C31.0652941 32.4053828 30.2143137 33.1910823 29.2054902 33.1507648 28.1956863 33.109464 27.4103922 32.255913 27.452549 31.2440421 27.4927451 30.2311879 28.3437255 29.444505 29.3535294 29.4858058 30.3633333 29.5271067 31.1466667 30.3796743 31.1054902 31.3925285M19.3140196 33.9248608C19.2738235 34.9367317 18.4228431 35.7243979 17.4140196 35.6830971 16.4042157 35.6417962 15.6189216 34.7882453 15.6591176 33.775391 15.7012745 32.7635201 16.5522549 31.9768372 17.5610784 32.0171547 18.5708824 32.0594389 19.3551961 32.9129899 19.3140196 33.9248608M12.7279412 31.7992436C12.6867647 32.8111145 11.8357843 33.5977974 10.8269608 33.5574799 9.81715686 33.516179 9.03186275 32.6626281 9.07205882 31.6497738 9.11421569 30.6379029 9.96617647 29.8502367 10.975 29.8915375 11.9838235 29.9338217 12.7691176 30.7863893 12.7279412 31.7992436M25.7545098 35.4800346C25.7133333 36.4928888 24.8643137 37.2795717 23.8554902 37.2382709 22.8447059 37.1979534 22.0594118 36.3444024 22.1015686 35.3315482 22.1417647 34.3196773 22.9937255 33.5329944 24.002549 33.5733119 25.0113725 33.6146127 25.7966667 34.4681637 25.7545098 35.4800346M19.7304902 40.6383144C19.6902941 41.6511686 18.8402941 42.4378516 17.8314706 42.3965507 16.8206863 42.3552498 16.0353922 41.5016989 16.077549 40.489828 16.1187255 39.4779571 16.9697059 38.6902908 17.9795098 38.7315917 18.9883333 38.7728926 19.7726471 39.6264435 19.7304902 40.6383144M18.2904902 27.6904971C18.2493137 28.7033513 17.3983333 29.4890509 16.3904902 29.4487334 15.3797059 29.4074325 14.5944118 28.5538816 14.6365686 27.5420107 14.6777451 26.5291564 15.5287255 25.7424735 16.5385294 25.782791 17.5473529 25.8250752 18.3316667 26.6786262 18.2904902 27.6904971M36.6316667 27.4120113C36.5914706 28.4248656 35.7395098 29.2115485 34.7306863 29.1702476 33.7208824 29.1299301 32.9355882 28.2753958 32.9767647 27.2635249 33.0179412 26.2506707 33.8708824 25.4639878 34.8797059 25.5052886 35.887549 25.5465895 36.6718627 26.4001404 36.6316667 27.4120113M36.7513725 21.5450285C36.7101961 22.5568994 35.8592157 23.3435823 34.8513725 23.3032648 33.8415686 23.261964 33.0552941 22.4074297 33.097451 21.3955588 33.1386275 20.3836879 33.9905882 19.5960216 34.9994118 19.6373225 36.0082353 19.6786233 36.792549 20.5321743 36.7513725 21.5450285M43.1938235 23.1003006C43.1516667 24.1131549 42.3006863 24.8998378 41.2928431 24.8585369 40.2820588 24.8172361 39.4967647 23.9636851 39.5389216 22.9518142 39.5791176 21.9399434 40.4310784 21.1522771 41.4408824 21.1935779 42.4487255 21.2338954 43.2340196 22.0884298 43.1938235 23.1003006"/>
    </g>
    <g fill="#F9C300" transform="translate(88.582 91.046)">
      <path d="M0.0987992096,2.23134215 L5.67107463,10.7280742 L5.67107463,16.3398693 L7.98297614,16.3398693 L7.98297614,10.7280742 L13.5552516,2.23134215 L10.7691138,2.23134215 L6.8369053,8.57425141 L2.88493692,2.23134215 L0.0987992096,2.23134215 Z M15.0372397,2.23134215 L15.0372397,16.3398693 L25.5494756,16.3398693 L25.5494756,14.3638851 L17.3491412,14.3638851 L17.3491412,10.0957592 L24.7393221,10.0957592 L24.7393221,8.11977504 L17.3491412,8.11977504 L17.3491412,4.20732634 L25.2135583,4.20732634 L25.2135583,2.23134215 L15.0372397,2.23134215 Z M32.7025384,1.95470436 C31.1810306,1.95470436 29.9361605,2.29062168 28.9481684,2.98221614 C27.881137,3.69357045 27.3673811,4.68156255 27.3673811,5.92643259 C27.3673811,7.17130263 27.9008968,8.11977504 28.9876881,8.77184983 C29.4026448,9.00896793 30.4894361,9.40416477 32.2283022,9.95744034 C33.7893297,10.4316765 34.6982824,10.747834 34.9749202,10.8861529 C35.8443532,11.3208694 36.2988296,11.9136647 36.2988296,12.6645387 C36.2988296,13.2573339 35.9826721,13.7118103 35.3898769,14.0674875 C34.7970816,14.4034048 33.9671683,14.5812434 32.9396565,14.5812434 C31.7738258,14.5812434 30.9241526,14.3638851 30.370877,13.9686883 C29.7583219,13.5142119 29.3828849,12.7435781 29.2248062,11.6765466 L26.9326645,11.6765466 C27.0314637,13.4746922 27.6835385,14.7788418 28.869129,15.6087551 C29.8373613,16.2805898 31.2007904,16.6165071 32.9396565,16.6165071 C34.7378021,16.6165071 36.1407509,16.2410701 37.128743,15.5297158 C38.1167351,14.7986016 38.6107311,13.7908497 38.6107311,12.5262198 C38.6107311,11.2220702 37.998176,10.2143183 36.7730658,9.48320413 C36.2197902,9.16704666 34.99468,8.69281046 33.0779754,8.1000152 C31.7738258,7.68505852 30.9636723,7.38866089 30.6672747,7.23058216 C29.99544,6.874905 29.6792826,6.38090895 29.6792826,5.7881137 C29.6792826,5.11627907 29.9559204,4.62228302 30.5487156,4.32588539 C31.0229518,4.06900745 31.6947864,3.9504484 32.5839793,3.9504484 C33.6114911,3.9504484 34.4018848,4.12828697 34.9156407,4.52348381 C35.4293966,4.89892081 35.8048336,5.53123575 36.002432,6.40066879 L38.2945736,6.40066879 C38.1562547,4.85940112 37.5832193,3.71333029 36.5952272,2.98221614 C35.6665147,2.29062168 34.3623651,1.95470436 32.7025384,1.95470436 Z M47.245782,1.20383037 L51.3953488,1.20383037 L51.3953488,0.0577595379 L53.2922937,0.0577595379 L53.2922937,1.20383037 L57.3035416,1.20383037 L57.3035416,2.82413741 L53.2922937,2.82413741 L53.2922937,3.87140903 L57.7580179,3.87140903 L57.7580179,5.49171607 L56.0389117,5.49171607 L56.0389117,6.59826721 L57.5604195,6.59826721 L57.5604195,8.17905457 L56.0389117,8.17905457 L56.0389117,9.34488524 L57.7580179,9.34488524 L57.7580179,10.9256726 L52.3833409,10.9256726 L52.3833409,9.34488524 L54.1419669,9.34488524 L54.1419669,8.17905457 L52.5216598,8.17905457 L52.5216598,6.59826721 L54.1419669,6.59826721 L54.1419669,5.49171607 L50.2887977,5.49171607 L50.2887977,6.59826721 L51.7905457,6.59826721 L51.7905457,8.17905457 L50.2887977,8.17905457 L50.2887977,9.26584587 C50.9211126,9.18680651 51.4743882,9.0880073 51.9486244,9.00896793 L51.9486244,10.5699954 C50.9211126,10.8071135 49.1624867,11.0442316 46.6727466,11.2418301 L46.3961088,9.52272382 C47.1074631,9.48320413 47.7792978,9.46344429 48.4116127,9.42392461 L48.4116127,8.17905457 L46.6727466,8.17905457 L46.6727466,6.59826721 L48.4116127,6.59826721 L48.4116127,5.49171607 L46.7122663,5.49171607 L46.7122663,4.28636571 C46.0799514,5.07675939 45.4081167,5.76835385 44.6770026,6.36114911 L44.6770026,7.70481836 C44.6572427,8.96944824 44.5782034,10.1352789 44.4398845,11.2220702 C45.250038,12.1903025 46.0799514,13.2573339 46.9098647,14.4429245 L45.6452348,16.3398693 C45.0129199,15.1147591 44.4596443,14.126767 44.0249278,13.375893 C43.4716522,15.5099559 42.5824593,17.2290622 41.3573491,18.5332117 L39.8160815,17.1697826 C41.752546,15.2135583 42.7207782,12.0519836 42.7602979,7.70481836 L42.7602979,0.354157167 L44.6770026,0.354157167 L44.6770026,4.32588539 C45.1907585,3.67381061 45.6847545,2.92293662 46.119471,2.07326341 L47.2260222,3.63429093 L47.0481836,3.87140903 L51.3953488,3.87140903 L51.3953488,2.82413741 L47.245782,2.82413741 L47.245782,1.20383037 Z M46.3961088,11.7160663 L57.9358565,11.7160663 L57.9358565,13.4154127 L54.7150023,13.4154127 L54.7150023,15.8853929 C54.7150023,16.2213102 54.8533212,16.3991488 55.1497188,16.3991488 L55.8017936,16.3991488 C55.999392,16.3991488 56.1574707,16.3003496 56.2760298,16.1422709 C56.3945888,15.9446724 56.4736282,15.3518772 56.5131479,14.3638851 L58.1729746,14.8974008 C58.0544156,16.4386685 57.8370573,17.3673811 57.5208998,17.6637787 C57.2047424,17.9404165 56.7305062,18.0787354 56.1179511,18.0787354 L54.6162031,18.0787354 C53.4108527,18.0787354 52.8180575,17.4661803 52.8180575,16.2805898 L52.8180575,13.4154127 L51.2767898,13.4154127 C51.0989512,14.5812434 50.7827937,15.4704362 50.3480772,16.0829913 C49.7157623,16.9129047 48.628971,17.624259 47.127223,18.2565739 L45.8823529,16.6560268 C47.1469828,16.2213102 48.0559356,15.7273142 48.6092111,15.1542788 C48.9648883,14.7590819 49.2217662,14.1662867 49.379845,13.4154127 L46.3961088,13.4154127 L46.3961088,11.7160663 Z M41.5154279,3.5750114 C41.8315853,5.19531844 42.127983,7.03298374 42.4046208,9.12752698 L40.8435933,9.52272382 C40.6064751,7.62577899 40.2903177,5.82763338 39.9148807,4.08876729 L41.5154279,3.5750114 Z M69.2187263,4.12828697 C68.5073719,4.54324365 67.7564979,4.91868065 66.9463444,5.23483812 L66.4523484,4.46420429 C65.7805138,5.4126767 65.1086791,6.2623499 64.3973248,6.99346405 L64.3973248,7.36890105 C64.377565,8.73233014 64.2985256,9.99696002 64.1602067,11.1430309 C64.9901201,12.131023 65.8200334,13.2178143 66.6697066,14.4034048 L65.4248366,16.2213102 C64.7925217,14.9962 64.2392461,13.9884481 63.7847697,13.2375741 C63.2710138,15.3913969 62.4806202,17.130263 61.374069,18.4344125 L59.8525612,17.0907433 C61.5914273,15.0752394 62.4806202,11.8346253 62.5201398,7.36890105 L62.5201398,0.275117799 L64.3973248,0.275117799 L64.3973248,4.64204286 C64.8320413,4.00972792 65.2074783,3.35765314 65.5631555,2.70557836 L66.4918681,3.43669251 C68.5468916,2.54749962 70.1671987,1.44094847 71.3132695,0.117039064 L72.8150175,0.117039064 C73.8425293,1.42118863 75.6406749,2.5870193 78.1699346,3.5750114 L77.0633835,5.23483812 C76.2334701,4.87916097 75.502356,4.52348381 74.870041,4.14804682 L74.870041,4.74084207 L69.2187263,4.74084207 L69.2187263,4.12828697 Z M73.4868521,3.1995744 C72.9335765,2.74509804 72.4593403,2.27086183 72.0641435,1.79662563 C71.5899073,2.31038152 71.0959112,2.76485788 70.5623955,3.1995744 L73.4868521,3.1995744 Z M66.9661043,5.39291686 L76.9843441,5.39291686 L76.9843441,11.004712 L66.9661043,11.004712 L66.9661043,5.39291686 Z M75.245478,9.54248366 L75.245478,6.89466484 L72.7952576,6.89466484 L72.7952576,9.54248366 L75.245478,9.54248366 Z M71.1749506,9.54248366 L71.1749506,6.89466484 L68.7049704,6.89466484 L68.7049704,9.54248366 L71.1749506,9.54248366 Z M76.5891473,11.6172671 L76.5891473,18.375133 L74.6131631,18.375133 L74.6131631,17.624259 L69.376805,17.624259 L69.376805,18.375133 L67.4205806,18.375133 L67.4205806,11.6172671 L76.5891473,11.6172671 Z M69.376805,16.1027512 L74.6131631,16.1027512 L74.6131631,15.2925977 L69.376805,15.2925977 L69.376805,16.1027512 Z M69.376805,13.8896489 L74.6131631,13.8896489 L74.6131631,13.0794954 L69.376805,13.0794954 L69.376805,13.8896489 Z M73.8030096,7.15154279 L74.9095607,7.44794042 C74.7119623,8.13953488 74.4748442,8.75208998 74.1982064,9.28560572 L73.1706946,8.91016872 C73.4078127,8.43593251 73.6054112,7.8628971 73.8030096,7.15154279 Z M70.0288798,7.15154279 C70.3055176,7.68505852 70.5623955,8.29761362 70.7797538,8.98920809 L69.7127223,9.26584587 C69.5151239,8.63353093 69.2582459,8.04073567 68.9618483,7.4874601 L70.0288798,7.15154279 Z M61.2950296,3.5750114 C61.6507068,5.19531844 61.9471044,7.03298374 62.2039824,9.12752698 L60.6627147,9.52272382 C60.4058368,7.62577899 60.0896793,5.82763338 59.7142423,4.08876729 L61.2950296,3.5750114 Z M96.5268278,0.749354005 L96.5268278,16.1422709 L97.7124183,16.1422709 L97.7124183,18.0984952 L86.627147,18.0984952 L86.627147,16.1422709 L87.9708162,16.1422709 L87.9708162,0.749354005 L96.5268278,0.749354005 Z M89.9270406,16.1422709 L94.5706034,16.1422709 L94.5706034,13.000456 L89.9270406,13.000456 L89.9270406,16.1422709 Z M89.9270406,11.123271 L94.5706034,11.123271 L94.5706034,7.84313725 L89.9270406,7.84313725 L89.9270406,11.123271 Z M89.9270406,5.94619243 L94.5706034,5.94619243 L94.5706034,2.64629883 L89.9270406,2.64629883 L89.9270406,5.94619243 Z M80.3039976,13.4746922 C80.1854385,15.0554796 79.9285606,16.4386685 79.5333637,17.6637787 L81.371029,18.2565739 C81.7267062,16.9129047 81.9440644,15.4111567 82.0428637,13.7118103 L80.3039976,13.4746922 Z M84.2362061,13.2178143 C84.5326037,14.4231646 84.7894817,15.7273142 85.0068399,17.130263 L83.1889345,17.5649795 C83.0110959,16.0632315 82.7937377,14.7393221 82.5566195,13.5932513 L84.2362061,13.2178143 Z M86.1726706,8.06049552 C86.6469068,9.24608603 87.0816233,10.5897553 87.4570603,12.1112631 L85.8169935,12.5459796 C85.7379541,12.1903025 85.6391549,11.8346253 85.5601155,11.498708 C83.7026904,12.0915033 81.9440644,12.5064599 80.2842377,12.7040584 L79.7902417,10.9651923 C80.126159,10.8071135 80.4027968,10.629275 80.6399149,10.4119167 C81.1734306,9.85864113 81.8452652,8.89040888 82.6356589,7.54673963 C81.8255054,7.66529868 80.995592,7.80361757 80.126159,7.92217662 L79.6321629,6.16355069 C79.9483204,6.0252318 80.2249582,5.7881137 80.4620763,5.45219638 C81.2919897,3.83188934 82.003344,2.07326341 82.6356589,0.156558748 L84.5326037,0.907432741 C83.6631707,2.9624563 82.7937377,4.66180271 81.9243046,5.98571211 L83.6434109,5.74859401 C84.0386077,4.99772002 84.4535644,4.1875665 84.8882809,3.31813345 L86.7259462,4.02948776 C85.0858793,7.03298374 83.7224502,9.20656635 82.6158991,10.5897553 C83.4458124,10.3921569 84.255966,10.1747986 85.0858793,9.9376805 C84.9278006,9.46344429 84.7697218,9.02872777 84.6116431,8.59401125 L86.1726706,8.06049552 Z M86.5085879,12.6842985 C86.8445052,13.5537316 87.1409029,14.5417237 87.3977808,15.6877945 L85.7577139,16.122511 C85.5601155,15.0949992 85.3032376,14.1070071 84.9870801,13.1782946 L86.5085879,12.6842985 Z"/>
    </g>
  </g>
</svg>
