<svg xmlns="http://www.w3.org/2000/svg" xmlns:xlink="http://www.w3.org/1999/xlink" width="400" height="139" viewBox="0 0 400 139">
  <defs>
    <polygon id="tit_introduce-a" points="0 .118 0 25.537 31.735 25.537 31.735 .118 0 .118"/>
    <polygon id="tit_introduce-c" points=".333 7.059 11.337 7.059 11.337 .034 .333 .034 .333 7.059"/>
    <polygon id="tit_introduce-e" points=".147 .005 29.313 .005 29.313 14.344 .147 14.344 .147 .005"/>
    <polygon id="tit_introduce-g" points="0 5.254 0 .152 6.452 .152 6.452 5.254 0 5.254"/>
    <polygon id="tit_introduce-i" points="0 112.933 57.941 112.933 57.941 .372 0 .372"/>
  </defs>
  <g fill="none" fill-rule="evenodd" transform="translate(-5)">
    <rect width="394.03" height="139" fill="#FFF"/>
    <g transform="translate(17.91 13.9)">
      <path fill="#1A1A1A" d="M31.7353042,68.7457058 C29.2488263,68.7457058 26.8640988,66.3877745 24.4605286,61.560125 C22.8042584,58.2335029 21.7102534,54.8941602 21.6646541,54.7538484 C21.3416909,53.7616439 21.8662706,52.6900321 22.8359141,52.3596827 C23.8055576,52.0285624 24.8539634,52.5647538 25.1780572,53.5565729 C25.1882323,53.5889525 26.2411603,56.7983911 27.7764606,59.8740711 C29.9294233,64.1871156 31.3950057,65.0008467 31.7839183,64.9553611 C34.1490494,64.6519947 37.3971478,60.0498462 38.9584509,57.8380087 C39.9808539,56.38902 40.3603451,55.8709459 40.8630674,55.533658 C41.719278,54.9608468 42.8660425,55.2056214 43.4264234,56.0798716 C43.9574096,56.9086361 43.7708673,58.005689 43.0220598,58.6062541 C42.8325026,58.8194201 42.351261,59.5013198 41.960841,60.0548574 C39.8093856,63.1031688 36.2081757,68.2056597 32.2440561,68.7129407 C32.0737185,68.7349126 31.9041345,68.7457058 31.7353042,68.7457058"/>
      <path fill="#000" d="M6.61569693,6.02989767 C6.71292508,9.32760938 5.31856796,10.73728 3.54886498,10.7916315 C1.7799157,10.845983 0.305288838,9.52420003 0.208060693,6.22725926 C0.111209401,2.93108943 1.84435761,0.214283804 3.61330689,0.159932272 C5.38300987,0.105580741 6.51884564,2.73372784 6.61569693,6.02989767" transform="translate(16.205 105.387)"/>
      <path fill="#FECD97" d="M20.4079992,75.0045352 C18.9733188,75.048479 17.814495,76.2411289 17.7941449,77.7236537 L17.1934408,110.049323 C17.172337,111.572708 17.9859632,112.825106 19.4756642,112.845922 C20.9698874,112.868665 22.5662379,111.649803 22.5873417,110.126803 L23.1880458,77.8011335 C23.2087727,76.2773633 22.0182933,75.0245797 20.5285923,75.0033788 C20.4886458,75.0026078 20.4479457,75.0033788 20.4079992,75.0045352"/>
      <path fill="#1A1A1A" d="M25.699396,55.8928021 C25.699396,60.7555296 21.5894342,70.4393535 16.520004,70.4393535 C11.44982,70.4393535 7.34098874,60.7555296 7.34098874,55.8928021 C7.34098874,51.0304601 11.4501969,49.5155558 16.520004,49.5155558 C21.5894342,49.5155558 25.699396,51.0304601 25.699396,55.8928021"/>
      <path fill="#000" d="M9.43105469,111.471715 C9.39186195,114.770583 10.8103377,116.154812 12.5807944,116.176784 C14.3508742,116.198756 15.8021362,114.84999 15.8417058,111.551507 C15.8805216,108.254181 14.8539733,105.562816 13.0838935,105.540845 C11.3138137,105.518873 9.47024743,108.174003 9.43105469,111.471715"/>
      <path fill="#FECD97" d="M11.7576714,75.0154441 C13.1931056,75.0335612 14.3726563,76.2050102 14.4190093,77.6859931 L15.7869867,109.994317 C15.8344702,111.51693 14.2897486,112.790915 12.8004245,112.839099 C11.3069549,112.888825 10.4435841,111.692706 10.3957237,110.170477 L9.02736946,77.8625392 C8.98026281,76.3399253 10.1481311,75.0651699 11.6374552,75.016215 C11.6774017,75.0154441 11.717725,75.0154441 11.7576714,75.0154441"/>
      <path fill="#1A1A1A" d="M21.3096584,67.3338766 L11.5476511,67.3338766 C11.5476511,67.3338766 7.5820241,76.436409 8.72125155,97.75917 L19.7834026,97.75917 L20.7040551,89.5119997 L21.5685566,97.75917 L24.18731,97.75917 C24.18731,97.75917 25.2409917,76.9922594 21.3096584,67.3338766"/>
      <path fill="#CD5257" d="M17.2039927,53.3428287 C17.2039927,53.3428287 17.6686527,55.6433247 19.5483969,56.7746846 C21.428141,57.905659 18.3168404,61.0345341 18.3168404,61.0345341 C18.3168404,61.0345341 13.4098339,57.221061 16.0417772,53.5193748 L17.2039927,53.3428287 Z"/>
      <path fill="#CD5257" d="M16.435928,53.3947903 C16.435928,53.3947903 12.3730728,55.1644916 13.4697159,56.4060964 C14.5671126,57.6480868 14.599522,58.7663406 14.599522,58.7663406 C14.599522,58.7663406 15.0468468,54.6267584 16.435928,53.3947903"/>
      <polygon fill="#CD5257" points="16.934 51.565 18.091 53.086 16.551 54.188 15.463 53.165"/>
      <path fill="#CD5257" d="M43.1642089,58.8295965 C42.9610849,59.2902354 42.4308524,59.4953064 41.9801359,59.2875371 L39.5324738,58.1581046 C39.082511,57.9503352 38.8820251,57.4079763 39.085149,56.9473375 L39.4593643,56.0992994 C39.6621114,55.6382751 40.1919671,55.4328186 40.6430604,55.6409734 L43.0903456,56.7700204 C43.5410621,56.9781752 43.7411712,57.5201486 43.5380473,57.981173 L43.1642089,58.8295965 Z"/>
      <path fill="#FECD97" d="M48.5446561,55.8305099 C48.5446561,56.9406688 46.8303506,57.8399746 44.7146963,57.8399746 C42.5997957,57.8399746 40.8851133,56.9406688 40.8851133,55.8305099 C40.8851133,54.7218928 42.5997957,54.7596691 44.7146963,54.7596691 C46.8303506,54.7596691 48.5446561,54.7218928 48.5446561,55.8305099"/>
      <path fill="#534741" d="M22.6941419,65.3246431 C22.4424039,70.673836 22.1842594,75.9821689 21.9212158,81.2492563 C15.4340636,80.3183418 8.95708633,79.4618233 2.49066098,78.679701 C2.87128279,74.248702 3.2462518,69.7756866 3.61519115,65.2614257 C9.96479199,65.2082306 16.3238142,65.2290461 22.6941419,65.3246431"/>
      <path fill="#736357" d="M9.65773194 68.3873326C9.47156642 71.0586526 9.28313978 73.7172519 9.09282888 76.3627453 7.66945406 76.2201207 6.24645609 76.0805799 4.82458868 75.9452793 5.02922001 73.4030924 5.23234393 70.8477995 5.43320672 68.279786 6.84075371 68.3117801 8.24943125 68.347629 9.65773194 68.3873326M12.9412168 68.4859749C12.7659801 71.237473 12.5884822 73.9762505 12.4102306 76.7026929 11.9934309 76.6587491 11.5766311 76.6155763 11.1602083 76.5727889 11.343359 73.8771842 11.5246254 71.168859 11.7040075 68.4474277 12.1166619 68.4601482 12.5285625 68.4728688 12.9412168 68.4859749"/>
      <path fill="#1A1A1A" d="M7.38519363,53.2545557 C8.51801458,51.9223649 9.98095899,50.8696413 11.763475,50.1079489 C12.7568602,49.6835444 13.8991025,50.1626859 14.3143948,51.1799461 C14.7293103,52.1964354 14.2612585,53.3640297 13.2667427,53.7884342 C11.0919224,54.7178068 9.69191253,56.1945495 8.98568949,58.303466 C6.55950811,65.5534206 12.9584767,77.244782 13.0232955,77.36158 C13.5550355,78.3194775 13.2264194,79.5360267 12.2895622,80.0791565 C11.3530818,80.6226718 10.1648634,80.2876968 9.63274657,79.3301847 C9.3316408,78.7893677 2.30370407,65.9693448 5.2932811,57.0186883 C5.77263847,55.585504 6.47094759,54.3292512 7.38519363,53.2545557"/>
      <path fill="#2F2825" d="M23.2667705,6.33804387 C23.2667705,9.83889925 20.1611226,12.6763576 16.3304091,12.6763576 C12.4996955,12.6763576 9.39367085,9.83889925 9.39367085,6.33804387 C9.39367085,2.83757396 12.4996955,0.000115641556 16.3304091,0.000115641556 C20.1611226,0.000115641556 23.2667705,2.83757396 23.2667705,6.33804387"/>
      <g transform="translate(0 7.863)">
        <mask id="tit_introduce-b" fill="#fff">
          <use xlink:href="#tit_introduce-a"/>
        </mask>
        <path fill="#3E3531" d="M2.13280111,25.5365081 C2.13280111,25.5365081 -6.80615858,3.57771847 11.9159121,0.470044379 C11.9159121,0.470044379 28.9021967,-2.63685877 31.2884316,9.60804016 C31.2884316,9.60804016 32.6349283,16.7327164 30.6538107,24.9590713 L2.13280111,25.5365081 Z" mask="url(#tit_introduce-b)"/>
      </g>
      <path fill="#FECD97" d="M31.2885447,24.0838574 C31.2885447,42.0749853 24.9717301,51.1771322 16.709222,51.1771322 C8.44897506,51.1771322 1.31514256,41.3071254 1.3720474,24.0838574 C1.40370308,14.331805 8.06910696,9.67993066 16.3301076,9.67993066 C24.5926157,9.67993066 31.2885447,14.331805 31.2885447,24.0838574"/>
      <path fill="#FECD97" d="M6.18804383 35.8806453C6.18804383 37.4591526 5.06087569 38.7381482 3.66991025 38.7381482 2.27856796 38.7381482 1.14951555 37.4591526 1.14951555 35.8806453 1.14951555 34.3017526 2.27856796 33.0219861 3.66991025 33.0219861 5.06087569 33.0219861 6.18804383 34.3017526 6.18804383 35.8806453M31.766583 35.1932719C31.766583 36.7717792 30.6401686 38.0511602 29.2476957 38.0511602 27.8578609 38.0511602 26.7295622 36.7717792 26.7295622 35.1932719 26.7295622 33.6147647 27.8578609 32.3353836 29.2476957 32.3353836 30.6401686 32.3353836 31.766583 33.6147647 31.766583 35.1932719"/>
      <path fill="#CD5257" d="M13.3397769,44.3783338 C13.3397769,44.3783338 15.6887033,46.0019413 20.3149541,44.5637458 C20.3149541,44.5637458 21.3686359,48.0410874 16.8279308,48.3190126 C16.8279308,48.3190126 12.8419537,48.134757 13.3397769,44.3783338"/>
      <path fill="#BEA785" d="M15.3248892,40.7579436 C15.3248892,40.7579436 17.0180909,43.6254687 18.3917211,40.7579436 C18.3917211,40.7579436 17.0180909,42.1915134 15.3248892,40.7579436"/>
      <path fill="#A67C52" d="M12.0064323 32.8219262C12.0064323 32.8219262 4.42565181 29.194636 4.31071156 31.9442068L12.0064323 32.8219262zM20.7495036 33.399363C20.7495036 33.399363 28.328023 29.7716874 28.443717 32.5216436L20.7495036 33.399363z"/>
      <path fill="#754C24" d="M11.9159121,36.2269918 C11.9159121,36.9967791 11.3054098,37.6200871 10.552457,37.6200871 C9.80101155,37.6200871 9.19163981,36.9967791 9.19163981,36.2269918 C9.19163981,35.4579754 9.80101155,34.834282 10.552457,34.834282 C11.3054098,34.834282 11.9159121,35.4579754 11.9159121,36.2269918"/>
      <path fill="#754C24" d="M9.24372093,36.5857119 C9.24372093,36.5857119 8.11692964,36.3343843 8.15762979,35.1933876 C8.15762979,35.1933876 8.97200972,36.1967708 9.87457331,35.8691197 L9.24372093,36.5857119 Z"/>
      <path fill="#754C24" d="M9.71478752 35.8900508C9.71478752 35.8900508 8.80506372 35.6861362 8.83860366 34.7640876 8.83860366 34.7640876 9.49432836 35.5751203 10.22467 35.3103012L9.71478752 35.8900508zM21.9312401 36.262725C21.9312401 37.0325123 22.5421193 37.6554348 23.2939416 37.6554348 24.0450102 37.6554348 24.6558893 37.0325123 24.6558893 36.262725 24.6558893 35.4937087 24.0450102 34.8704007 23.2939416 34.8704007 22.5421193 34.8704007 21.9312401 35.4937087 21.9312401 36.262725"/>
      <path fill="#754C24" d="M24.6034313,36.6216764 C24.6034313,36.6216764 25.7290921,36.3695778 25.6887688,35.2289666 C25.6887688,35.2289666 24.8758963,36.2323499 23.9744632,35.9050842 L24.6034313,36.6216764 Z"/>
      <path fill="#754C24" d="M24.1319879,35.9258226 C24.1319879,35.9258226 25.0424654,35.7222935 25.0070412,34.7987029 C25.0070412,34.7987029 24.3520702,35.6105067 23.6217286,35.345302 L24.1319879,35.9258226 Z"/>
      <path fill="#3E3531" d="M31.3698696,21.3992773 L30.6372668,18.2919886 L29.2478088,14.5455877 L24.3147994,10.7078299 L17.3253017,8.97089373 L12.6794546,9.51942018 L7.22977934,11.4386845 L2.94156592,15.3681846 L0.529704964,22.3128456 L1.36443497,23.1061466 C1.07237368,26.1101288 1.50010215,28.4379933 1.50010215,28.4379933 C3.09682947,13.3602617 16.3300322,21.0353918 16.3300322,21.0353918 C31.1595855,13.6327903 31.2884693,28.4379933 31.2884693,28.4379933 C31.3721307,27.1782713 31.3887123,26.0045095 31.3472584,24.9089985 L31.3698696,24.96335 L31.3698696,21.3992773 Z"/>
      <path fill="#FECD97" d="M10.1383706,79.2835041 L10.1361095,79.284275 C10.13724,79.2811912 10.13724,79.2788784 10.1379938,79.2765656 C10.1470382,78.819396 10.2778063,78.4096394 10.5257758,78.112826 C11.2662925,76.4610792 12.2905797,76.74363 13.0133842,77.2628606 C13.3348401,77.422446 13.6513968,77.7196448 13.8869301,78.1189936 C14.2860178,78.7920275 14.328979,79.5367591 14.0297575,79.9445883 C14.2856409,80.8924636 14.0761105,81.8083447 13.4324451,82.2069226 C12.590178,82.729237 11.3280964,82.174543 10.6116983,80.9660887 C10.2830823,80.4113947 10.1289493,79.8166116 10.1383706,79.2835041"/>
      <path fill="#CD5257" d="M12.8057758,76.1978404 C13.0654277,76.628027 12.9350364,77.1923578 12.5140913,77.4579479 L10.2284762,78.8996126 C9.80866168,79.1652028 9.25732533,79.031444 8.99767343,78.6012574 L8.51982347,77.8094982 C8.25979471,77.3785407 8.3905628,76.8157518 8.81150791,76.5497762 L11.0963693,75.1073405 C11.5169376,74.8421359 12.0686508,74.9755092 12.3283027,75.4064667 L12.8057758,76.1978404 Z"/>
    </g>
    <g transform="translate(342.004 13.9)">
      <path fill="#2F2B34" d="M41.7857807,78.3856093 C41.7857807,79.1055859 41.2645532,79.6892201 40.6221954,79.6892201 L26.4818807,79.6892201 C25.8387887,79.6892201 25.3190294,79.1055859 25.3190294,78.3856093 L25.3190294,71.3756827 C25.3190294,70.6553346 25.8387887,70.0717004 26.4818807,70.0717004 L40.6221954,70.0717004 C41.2645532,70.0717004 41.7857807,70.6553346 41.7857807,71.3756827 L41.7857807,78.3856093 Z"/>
      <path fill="#333" d="M42.2646493,106.062541 C42.2646493,106.062541 45.7576076,109.761987 47.3950695,110.956376 C49.0317973,112.150764 47.2710027,113.512701 44.5070287,112.672357 C41.7404853,111.831641 34.6007697,111.560443 37.8522016,105.908367 L42.2646493,106.062541 Z"/>
      <g transform="translate(19.821 105.874)">
        <mask id="tit_introduce-d" fill="#fff">
          <use xlink:href="#tit_introduce-c"/>
        </mask>
        <path fill="#333" d="M6.09333297,0.189541817 C6.09333297,0.189541817 2.59890637,3.88824494 0.963646865,5.0822618 C-0.674182073,6.27665016 1.08551132,7.63895876 3.85095355,6.7986146 C6.61602872,5.95827044 13.7579466,5.68595732 10.5046795,0.03388125 L6.09333297,0.189541817 Z" mask="url(#tit_introduce-d)"/>
      </g>
      <path fill="#2F2B34" d="M27.3334269 68.2434131C25.5575828 68.3411189 24.1961513 69.8776633 24.2930555 71.6746327 24.9618418 84.1089029 25.7073439 101.234537 24.8608998 105.223757 24.486497 106.983205 25.5935548 108.716647 27.3319587 109.094839 27.5599039 109.14462 27.7878492 109.168397 28.0117568 109.168397 29.4972551 109.168397 30.8318912 108.122239 31.1567407 106.593496 32.463113 100.440631 30.9049364 74.7009119 30.723608 71.3205885 30.6270708 69.5232476 29.1100051 68.1460788 27.3334269 68.2434131M43.5450703 105.786104C42.4618715 101.883816 41.9292651 84.7514949 41.8474103 72.293077 41.8360314 70.5001942 40.3964158 69.05504 38.6279129 69.05504L38.6062562 69.05504C36.8274756 69.0672996 35.3952012 70.5362301 35.4073142 72.3358 35.429705 75.723925 35.6712315 101.522342 37.3450325 107.55001 37.7451297 108.987734 39.0371866 109.927641 40.4430326 109.927641 40.7319101 109.927641 41.0259264 109.888633 41.3170063 109.805416 43.0289817 109.318373 44.0266552 107.518803 43.5450703 105.786104"/>
      <path fill="#FFF" d="M45.4406132,56.0089755 C44.8426698,45.396194 38.2814434,43.093978 38.2814434,43.093978 C23.8728067,38.4018706 21.0695571,51.2856618 21.0695571,51.2856618 L21.0702912,51.2856618 C19.531936,56.3574471 20.0014078,63.1563589 20.3211185,66.1674064 C20.1361194,67.7630201 20.8430801,70.6054044 28.3799563,70.2773655 C38.7905579,69.823015 46.3358765,71.4401759 46.0378225,66.6221285 C46.0378225,66.6221285 46.2206191,61.4087997 45.4406132,56.0089755"/>
      <path fill="#443832" d="M17.4937529,27.5824953 C17.4937529,27.5824953 11.9812216,13.4095821 21.557125,7.17052819 C21.557125,7.17052819 33.3948622,-1.48219324 45.5824091,7.17052819 C45.5824091,7.17052819 52.8737211,13.0763421 48.3885952,26.881837 L17.4937529,27.5824953 Z"/>
      <path fill="#FECD97" d="M47.1898821,25.225928 C47.1898821,32.8804157 40.6939926,45.3206299 32.6788351,45.3206299 C24.6651459,45.3206299 18.1677882,32.8804157 18.1677882,25.225928 C18.1677882,17.5718119 24.6651459,11.367308 32.6788351,11.367308 C40.6939926,11.367308 47.1898821,17.5718119 47.1898821,25.225928"/>
      <path fill="#FECD97" d="M20.9528682 28.5816207C21.5133713 30.2463343 21.1272225 31.8861571 20.0902734 32.2435448 19.0529573 32.6016756 17.7575968 31.542515 17.1970937 29.8778014 16.6354895 28.2119733 17.0212712 26.5728935 18.0593215 26.2147627 19.0959035 25.8570035 20.391631 26.916164 20.9528682 28.5816207M48.6187061 29.6598766C48.2465056 31.3780869 47.0759461 32.5776763 46.0055945 32.3399132 44.9352428 32.1025215 44.3696008 30.5176815 44.7414342 28.7994712 45.1143688 27.0805178 46.2838272 25.8809284 47.3541788 26.1179485 48.4252646 26.3560832 48.9909066 27.9412948 48.6187061 29.6598766"/>
      <path fill="#443832" d="M36.863411 23.8402146C36.863411 23.8402146 44.9049969 25.5339056 42.4497217 23.3966377 39.9933454 21.2578838 36.863411 23.8402146 36.863411 23.8402146M28.4891204 23.8402146C28.4891204 23.8402146 20.4482686 25.5339056 22.9035438 23.3966377 25.359186 21.2578838 28.4891204 23.8402146 28.4891204 23.8402146M27.8510572 27.4905107C27.8510572 28.1020078 27.361397 28.5975954 26.7572136 28.5975954 26.1526631 28.5975954 25.6630029 28.1020078 25.6630029 27.4905107 25.6630029 26.8790135 26.1526631 26.383426 26.7572136 26.383426 27.361397 26.383426 27.8510572 26.8790135 27.8510572 27.4905107M40.3368784 27.5329737C40.3368784 28.1437278 39.8472182 28.6396869 39.2430347 28.6396869 38.6392184 28.6396869 38.1502923 28.1437278 38.1502923 27.5329737 38.1502923 26.9211051 38.6392184 26.425146 39.2430347 26.425146 39.8472182 26.425146 40.3368784 26.9211051 40.3368784 27.5329737"/>
      <path fill="#BEA785" d="M31.2951229,33.4686938 C31.2951229,33.4686938 33.2295377,30.6493428 34.8001943,33.4686938 C34.8001943,33.4686938 33.2295377,32.0595756 31.2951229,33.4686938"/>
      <path fill="#443832" d="M18.3490432,22.1758725 C18.3490432,22.1758725 43.9178214,20.6913388 43.6605112,11.5419153 C43.4039351,2.39286328 11.6688888,11.0485567 18.3490432,22.1758725"/>
      <path fill="#443832" d="M21.9113762,21.617352 C21.9113762,21.617352 13.9857818,23.1446088 12.6973955,13.7704248 C11.4101104,4.39624079 15.5314782,14.6705813 25.9648377,13.7704248 L21.9113762,21.617352 Z"/>
      <g transform="translate(13.581 .367)">
        <mask id="tit_introduce-f" fill="#fff">
          <use xlink:href="#tit_introduce-e"/>
        </mask>
        <path fill="#443832" d="M0.147228415,11.4353677 C0.147228415,11.4353677 7.39742949,-4.67605831 24.6170241,1.35643882 C41.8366187,7.38930744 6.64238374,20.0427655 0.147228415,11.4353677" mask="url(#tit_introduce-f)"/>
      </g>
      <path fill="#CD5257" d="M38.3151764,36.3173936 C38.1646811,36.16099 37.9323311,36.1193815 37.7381555,36.2152297 C34.9793204,37.5686222 32.0824701,37.8520805 30.1388788,37.8520805 C28.9752935,37.8520805 28.2253866,37.7469446 28.2173113,37.7458301 C28.013225,37.7164812 27.8109741,37.817159 27.7096651,37.9999395 C27.6087231,38.1823484 27.6281774,38.4085949 27.7592184,38.570571 C29.2994089,40.4697043 30.9137459,41.4322735 32.5589161,41.4322735 C36.0639875,41.4322735 38.3085693,37.0886378 38.4032712,36.9039999 C38.5016437,36.7097028 38.4664058,36.4730542 38.3151764,36.3173936"/>
      <path fill="#FFF" d="M5.84024399,72.5186176 C4.66527975,72.7730985 3.47746835,72.0702112 3.13389868,70.8836244 C2.78262071,69.6728898 3.44076219,68.4049435 4.60985345,68.0022321 C6.62759116,66.8747147 14.2261337,56.3585245 20.1512423,47.1975843 C20.85233,46.1127899 22.2893763,45.8096419 23.360095,46.5192163 C24.4311808,47.2291622 24.7318043,48.6836041 24.0307166,49.7676554 C23.9962128,49.8200376 20.6030952,55.0612293 16.8476878,60.3536885 C8.84280802,71.6336929 7.00089282,72.1812911 6.01166176,72.47478 C5.95440015,72.4914978 5.8975056,72.506358 5.84024399,72.5186176"/>
      <g transform="translate(0 69.095)">
        <mask id="tit_introduce-h" fill="#fff">
          <use xlink:href="#tit_introduce-g"/>
        </mask>
        <path fill="#FECD97" d="M4.91686378,4.74683 L4.91759791,4.74943053 C4.91980028,4.7472015 4.92273677,4.74534398 4.92420501,4.74348645 C5.37936142,4.46225722 5.71191925,4.08332218 5.86314863,3.64828991 C7.0799579,1.89701565 6.18139106,0.99834521 5.22519554,0.553653803 C4.87244933,0.312918606 4.38352325,0.160230078 3.83917087,0.15205697 C2.9237192,0.136082257 2.148118,0.533221032 1.91797037,1.08676338 C0.810912526,1.38285282 0.0151229387,2.14443793 7.34123236e-05,3.05165298 C-0.019747915,4.23861125 1.29580092,5.22347083 2.94023697,5.25319122 C3.69601684,5.26582239 4.38719387,5.07338283 4.91686378,4.74683" mask="url(#tit_introduce-h)"/>
      </g>
      <path fill="#C1272D" d="M32.4952309 47.1946123C32.4952309 48.4231791 30.3673747 49.4191838 29.2261801 49.4191838 28.0846185 49.4191838 27.1599903 48.4231791 27.1599903 47.1946123 27.1599903 45.9660455 28.0846185 44.9700407 29.2261801 44.9700407 30.3673747 44.9700407 32.4952309 45.9660455 32.4952309 47.1946123M33.4092877 47.1946123C33.4092877 48.4231791 35.5371439 49.4191838 36.6798068 49.4191838 37.8213684 49.4191838 38.7445284 48.4231791 38.7445284 47.1946123 38.7445284 45.9660455 37.8213684 44.9700407 36.6798068 44.9700407 35.5371439 44.9700407 33.4092877 45.9660455 33.4092877 47.1946123"/>
      <path fill="#C1272D" d="M33.8286923,47.1969528 C33.8286923,47.7185457 33.4113433,48.1405753 32.8967229,48.1405753 C32.3813684,48.1405753 31.9647534,47.7185457 31.9647534,47.1969528 L31.9647534,47.102962 C31.9647534,46.5817406 32.3813684,46.159711 32.8967229,46.159711 C33.4113433,46.159711 33.8286923,46.5817406 33.8286923,47.102962 L33.8286923,47.1969528 Z"/>
      <polygon fill="#231F27" points="24.549 44.488 21.088 46.29 17.809 73.013 25.752 77.591 32.788 72.186 32.788 57.545"/>
      <polygon fill="#231F27" points="41.504 44.488 44.966 46.29 48.245 73.013 40.302 77.591 33.265 72.186 33.265 57.545"/>
      <mask id="tit_introduce-j" fill="#fff">
        <use xlink:href="#tit_introduce-i"/>
      </mask>
      <polygon fill="#231F27" points="31.657 72.186 37.02 72.186 37.02 57.545 31.657 57.545" mask="url(#tit_introduce-j)"/>
      <path fill="#2B2A33" d="M33.9175947 60.1900406C33.9175947 60.6596229 33.5413565 61.0400439 33.0773906 61.0400439 32.6134247 61.0400439 32.2379207 60.6596229 32.2379207 60.1900406 32.2379207 59.7208299 32.6134247 59.3400373 33.0773906 59.3400373 33.5413565 59.3400373 33.9175947 59.7208299 33.9175947 60.1900406M33.9175947 64.7527528C33.9175947 65.222335 33.5413565 65.6027561 33.0773906 65.6027561 32.6134247 65.6027561 32.2379207 65.222335 32.2379207 64.7527528 32.2379207 64.283542 32.6134247 63.9027495 33.0773906 63.9027495 33.5413565 63.9027495 33.9175947 64.283542 33.9175947 64.7527528M33.9175947 69.3154649C33.9175947 69.7854187 33.5413565 70.1658397 33.0773906 70.1658397 32.6134247 70.1658397 32.2379207 69.7854187 32.2379207 69.3154649 32.2379207 68.8462542 32.6134247 68.4654616 33.0773906 68.4654616 33.5413565 68.4654616 33.9175947 68.8462542 33.9175947 69.3154649" mask="url(#tit_introduce-j)"/>
      <path fill="#FFF" d="M40.7534199,70.6181098 C39.5432177,70.6181098 38.5246217,69.6681717 38.4420329,68.4288313 C38.3561405,67.1359941 39.3218796,66.0170212 40.599254,65.9300891 C46.6587072,65.5173471 50.3814461,64.1100864 51.083635,61.9679889 C52.2149189,58.511507 46.5676759,52.1903506 43.6546749,49.6711756 C42.6819616,48.8289739 42.5670713,47.3477838 43.398833,46.3625527 C44.2320628,45.3773216 45.6951704,45.2621551 46.6678837,46.1036137 C47.8244949,47.103705 57.8933621,56.0878088 55.4847038,63.443978 C54.0931732,67.694366 49.3257769,70.0396766 40.9112564,70.6125373 C40.8580324,70.6166238 40.8051756,70.6181098 40.7534199,70.6181098" mask="url(#tit_introduce-j)"/>
      <path fill="#FECD97" d="M37.9373599,70.729487 L37.9366257,70.7313445 C37.9402963,70.7313445 37.9432328,70.7306015 37.9458023,70.7306015 C38.4758392,70.7796402 38.9669677,70.6759903 39.3432059,70.4177944 C41.3528682,69.7468565 41.161262,68.4826252 40.6558182,67.5486618 C40.5141324,67.1429784 40.2105725,66.7246638 39.7800092,66.3895664 C39.0543284,65.8237644 38.1976065,65.6755339 37.6870238,65.9812824 C36.6225451,65.5495937 35.5364098,65.681478 34.989488,66.4014545 C34.2740849,67.342105 34.7490626,68.9265736 36.0517643,69.9430111 C36.6511759,70.4088782 37.3199622,70.6715322 37.9373599,70.729487" mask="url(#tit_introduce-j)"/>
      <path fill="#E6E6E6" d="M42.522767,65.7346775 C42.522767,65.7346775 47.0416626,77.8914334 44.6267642,84.5484303 C44.6267642,84.5484303 54.0774997,83.0430924 57.9415573,79.6895173 C57.9415573,79.6895173 56.8223864,65.9401197 49.8467475,63.9027866 L42.522767,65.7346775 Z" mask="url(#tit_introduce-j)"/>
      <path fill="#CCC" d="M46.0571666,69.9527445 C46.0571666,69.9527445 48.51391,82.0474591 46.7604567,83.3804188 C46.7604567,83.3804188 56.5342064,79.7712484 56.8252862,79.0750481 C57.115632,78.3788479 56.5342064,79.7712484 56.5342064,79.7712484 C56.5342064,79.7712484 52.558929,65.2376039 50.7680354,66.0708894 L50.7680354,71.345888 L49.0769825,69.4426682 L49.0769825,75.2767817 L46.0571666,69.9527445 Z" mask="url(#tit_introduce-j)"/>
    </g>
    <g fill="#D4D5D6" transform="translate(69.083 55.6)">
      <path d="M31.5365086,49.4538265 L241.300044,49.4538265 L241.300044,1.90211119 L31.5365086,1.90211119 L31.5365086,49.4538265 Z M242.233724,51.3559377 L30.6028282,51.3559377 C30.0866819,51.3559377 29.6691478,50.9306335 29.6691478,50.4048821 L29.6691478,0.951055595 C29.6691478,0.425400936 30.0866819,0 30.6028282,0 L242.233724,0 C242.74987,0 243.167405,0.425400936 243.167405,0.951055595 L243.167405,50.4048821 C243.167405,50.9306335 242.74987,51.3559377 242.233724,51.3559377 L242.233724,51.3559377 Z"/>
      <path d="M271.955845,66.78426 L229.994094,66.78426 L229.994094,64.8822456 L270.232603,64.8822456 L255.334187,41.6263815 C255.131738,41.310621 255.131738,40.9019613 255.334187,40.5862008 L270.232603,17.3304335 L243.167462,17.3304335 L243.167462,50.4048724 L241.300006,50.4048724 L241.300006,16.3793779 C241.300006,15.8537232 241.71773,15.4284191 242.233781,15.4284191 L271.955845,15.4284191 C272.298708,15.4284191 272.61421,15.6196366 272.776473,15.9261072 C272.940542,16.2325778 272.924201,16.6060133 272.738187,16.8995167 L257.230714,41.1062428 L272.738187,65.3131624 C272.924201,65.606569 272.940542,65.9799077 272.776473,66.2863783 C272.61421,66.5929457 272.298708,66.78426 271.955845,66.78426"/>
      <path d="M229.994065 66.78426C229.890038 66.78426 229.784301 66.7657769 229.682269 66.7303591 229.310241 66.5947843 229.060385 66.2363482 229.060385 65.8332044L229.060385 50.4048724 230.927651 50.4048724 230.927651 63.1435789 241.507937 49.8068338 242.959569 51.0030078 230.719881 66.4314366C230.539282 66.6578784 230.271186 66.78426 229.994065 66.78426M42.8954031 66.78426L.933556884 66.78426C.590694398 66.78426.275192509 66.5929457.112928966 66.2863783-.0511396165 65.9799077-.0347992597 65.606569.151214802 65.3131624L15.6587834 41.1062428.151214802 16.8995167C-.0347992597 16.6060133-.0511396165 16.2325778.112928966 15.9261072.275192509 15.6196366.590694398 15.4284191.933556884 15.4284191L30.6557159 15.4284191C31.1717671 15.4284191 31.5893963 15.8537232 31.5893963 16.3793779L31.5893963 50.4048724 29.7220355 50.4048724 29.7220355 17.3304335 2.65679951 17.3304335 17.5553098 40.5862008C17.7576642 40.9019613 17.7576642 41.310621 17.5553098 41.6263815L2.65679951 64.8822456 42.8954031 64.8822456 42.8954031 66.78426z"/>
      <path d="M42.8954031 66.78426C42.6181871 66.78426 42.3501862 66.6578784 42.1695873 66.4314366L29.9299 51.0030078 31.3814367 49.8068338 41.9617227 63.1435789 41.9617227 50.4048724 43.8290835 50.4048724 43.8290835 65.8332044C43.8290835 66.2363482 43.5792281 66.5947843 43.2071999 66.7303591 43.1051677 66.7657769 42.9993354 66.78426 42.8954031 66.78426M236.113624 26.2614436C236.113624 27.921533 234.79243 29.2673134 233.16267 29.2673134 231.532814 29.2673134 230.21162 27.921533 230.21162 26.2614436 230.21162 24.6013542 231.532814 23.2555737 233.16267 23.2555737 234.79243 23.2555737 236.113624 24.6013542 236.113624 26.2614436M42.6773734 26.2614436C42.6773734 27.921533 41.3561795 29.2673134 39.7264189 29.2673134 38.0965633 29.2673134 36.7753695 27.921533 36.7753695 26.2614436 36.7753695 24.6013542 38.0965633 23.2555737 39.7264189 23.2555737 41.3561795 23.2555737 42.6773734 24.6013542 42.6773734 26.2614436"/>
    </g>
    <path fill="#000" d="M142.92,78.088 C141.336,78.088 140.292,78.34 139.824,78.772 C140.652,80.572 141.984,81.688 143.82,82.084 C144.972,82.084 145.548,81.58 145.548,80.572 C145.44,79.168 144.576,78.34 142.92,78.088 Z M147.276,83.884 C146.592,84.244 145.008,85.756 142.56,88.42 C141.3,89.5 140.436,90.04 139.932,90.04 C139.5,90.04 139.284,90.256 139.284,90.688 C139.284,91.588 140.184,92.02 142.056,92.02 C144.504,91.912 146.376,89.392 147.6,84.424 C147.6,84.064 147.492,83.884 147.276,83.884 Z M145.44,71.032 C144,71.032 143.1,71.248 142.704,71.68 C143.388,73.552 144.504,74.704 146.088,75.1 C147.168,75.1 147.708,74.632 147.708,73.696 C147.6,72.184 146.844,71.32 145.44,71.032 Z M154.908,74.92 C155.124,75.172 155.232,75.568 155.304,76.108 L155.304,78.628 C153.432,78.988 151.38,79.456 149.076,79.996 C148.356,80.176 147.996,80.356 147.996,80.5 C148.32,80.932 149.04,81.148 150.192,81.184 C151.416,81.184 153.108,81.004 155.268,80.644 C155.268,81.652 155.232,82.768 155.232,84.028 C153.504,84.46 152.676,84.856 152.676,85.18 C152.676,85.9 153.576,86.296 155.376,86.296 C155.988,86.296 156.636,86.152 157.284,85.792 C158.076,85.576 158.76,85.396 159.336,85.288 C159.552,85.288 159.66,85.468 159.66,85.828 C159.66,86.836 159.588,87.736 159.444,88.456 C159.264,89.032 159.156,89.572 159.12,90.04 C158.616,90.112 158.076,90.22 157.5,90.292 C155.916,90.544 154.764,90.76 153.972,90.904 C153.9,90.688 153.792,90.436 153.648,90.112 C153.396,89.32 153.18,88.492 153.036,87.664 C152.424,86.512 151.848,85.9 151.272,85.9 C150.948,86.044 150.804,86.872 150.804,88.42 C150.948,89.752 151.272,90.832 151.812,91.624 C152.352,92.524 152.892,92.956 153.468,92.956 C153.792,92.956 154.008,92.704 154.116,92.272 C154.44,92.344 154.836,92.38 155.34,92.38 C156.24,92.344 158.112,92.2 160.92,91.984 C161.64,91.912 162.072,91.624 162.144,91.048 C162.144,90.544 161.892,90.22 161.424,90.004 C161.568,89.788 161.712,89.5 161.856,89.14 C162.468,88.06 162.792,86.944 162.792,85.72 C162.684,84.28 161.532,83.452 159.3,83.236 C158.724,83.272 158.076,83.344 157.392,83.488 C157.428,82.624 157.5,81.544 157.608,80.248 C158.04,80.176 158.508,80.104 159.012,79.996 C161.1,79.744 163.008,79.6 164.7,79.6 C165.456,79.6 165.852,79.312 165.852,78.736 C165.852,77.872 165.168,77.44 163.836,77.44 C162.252,77.512 160.2,77.728 157.752,78.16 C157.788,77.296 157.86,76.36 157.968,75.352 C157.968,74.92 157.824,74.56 157.608,74.272 C159.84,73.624 160.956,72.724 160.956,71.608 C160.74,70.456 159.984,69.808 158.652,69.7 C158.148,69.7 157.932,69.808 157.932,69.988 C157.932,70.816 157.356,71.5 156.204,72.004 C154.944,72.724 153.288,73.444 151.236,74.164 C150.516,74.488 150.156,74.704 150.156,74.848 C150.156,75.244 150.516,75.424 151.272,75.424 C152.604,75.28 153.828,75.136 154.908,74.92 Z M185.256,68.908 C186.516,69.016 187.236,69.628 187.416,70.708 C187.416,71.5 186.408,72.148 184.392,72.58 C184.464,72.796 184.536,73.048 184.572,73.3 C184.536,73.552 184.5,73.84 184.464,74.164 C186.372,73.876 187.956,73.696 189.18,73.624 C189.972,73.696 190.404,74.056 190.404,74.704 C190.332,75.208 189.936,75.46 189.288,75.532 C187.416,75.82 185.796,76.072 184.356,76.288 C184.32,76.72 184.284,77.188 184.284,77.692 C185.148,77.548 185.94,77.44 186.66,77.44 C188.424,77.44 189.324,78.088 189.324,79.312 C189.324,80.608 188.964,82.12 188.28,83.776 C188.424,83.956 188.532,84.136 188.532,84.352 C188.46,84.748 188.172,84.964 187.632,85.036 C186.228,85.288 185.04,85.468 184.104,85.612 L184.104,86.836 C185.148,86.656 186.048,86.548 186.804,86.476 C187.56,86.548 187.956,86.908 187.956,87.484 C187.884,87.916 187.524,88.168 186.912,88.24 C185.832,88.456 184.86,88.6 184.068,88.708 L184.068,90.364 C185.292,90.004 186.48,89.752 187.56,89.572 C187.884,89.572 188.064,89.716 188.064,89.932 C187.668,90.724 186.192,91.66 183.636,92.812 C181.764,93.604 180.108,94.036 178.596,94.144 C177.408,94.144 176.832,93.64 176.832,92.56 C176.832,92.272 176.94,92.092 177.228,92.092 C177.3,92.128 177.408,92.128 177.552,92.128 C179.208,91.768 180.54,91.444 181.548,91.156 C181.62,90.58 181.728,89.86 181.8,89.032 C180.936,89.176 180.288,89.248 179.856,89.284 C178.56,89.284 177.876,88.996 177.804,88.348 C177.948,88.096 179.352,87.736 181.944,87.232 C181.944,86.836 181.98,86.404 182.016,85.936 C181.62,86.008 181.296,86.044 181.08,86.044 L180.684,86.044 C180.576,86.332 180.396,86.476 180.18,86.476 C179.568,86.476 178.956,86.116 178.38,85.396 C177.768,84.748 177.372,83.884 177.228,82.804 C177.228,81.436 177.372,80.68 177.66,80.536 C178.164,80.536 178.704,81.076 179.244,82.12 C179.46,82.768 179.784,83.416 180.144,84.064 C180.324,84.352 180.468,84.568 180.576,84.748 C180.972,84.676 181.476,84.532 182.088,84.388 C182.088,83.956 182.088,83.488 182.124,82.984 C181.98,83.02 181.836,83.02 181.764,83.02 C180.612,83.02 179.964,82.768 179.892,82.192 C179.964,82.048 180.72,81.76 182.16,81.328 L182.16,80.068 C181.08,80.248 180.36,80.356 179.928,80.356 C178.704,80.356 178.092,80.248 178.056,79.96 C178.056,79.456 179.388,78.88 182.124,78.16 L182.196,78.16 L182.196,76.576 C180.072,76.864 178.524,77.044 177.516,77.116 C176.148,77.116 175.392,76.792 175.284,76.108 C175.572,75.784 177.84,75.28 182.16,74.56 C182.088,73.912 181.908,73.408 181.656,73.048 C181.08,73.12 180.468,73.192 179.856,73.228 C178.74,73.228 178.2,72.94 178.2,72.364 C178.2,72.292 178.488,72.148 179.064,71.932 C180.72,71.464 182.088,70.996 183.132,70.492 C184.068,70.168 184.536,69.736 184.536,69.16 C184.536,69.016 184.752,68.908 185.256,68.908 Z M184.644,80.788 C185.292,80.86 185.652,81.148 185.652,81.652 C185.58,82.084 185.256,82.3 184.716,82.336 C184.5,82.408 184.284,82.48 184.14,82.48 C184.14,82.984 184.104,83.488 184.104,83.992 L184.14,83.992 C184.824,83.848 185.436,83.74 186.012,83.668 C186.372,82.66 186.624,81.508 186.696,80.212 C186.696,79.708 186.516,79.456 186.192,79.384 C185.472,79.528 184.788,79.672 184.212,79.744 C184.176,80.104 184.176,80.464 184.176,80.824 C184.32,80.824 184.5,80.788 184.644,80.788 Z M198.216,76.756 C199.872,76.756 200.7,77.764 200.772,79.708 C200.592,84.028 200.016,87.34 199.044,89.608 C198.396,91.696 197.496,92.812 196.272,92.956 C194.94,92.776 194.184,92.128 193.968,91.048 C193.968,90.58 194.148,90.328 194.544,90.328 C194.616,90.328 194.76,90.364 194.94,90.436 C195.876,90.436 196.632,89.572 197.136,87.808 C198.036,85.864 198.504,83.524 198.504,80.788 C198.504,79.852 198,79.312 197.028,79.096 C196.56,79.168 196.128,79.24 195.696,79.276 C193.68,89.212 190.656,94.396 186.624,94.864 C186.084,94.864 185.832,94.756 185.832,94.576 C185.832,94.504 186.3,93.964 187.272,92.884 C190.296,89.572 192.312,85.18 193.392,79.636 L191.988,79.852 C190.908,79.78 190.296,79.564 190.188,79.204 C190.224,78.628 191.376,78.052 193.68,77.404 C193.716,77.404 193.752,77.404 193.788,77.368 C193.932,76.216 194.076,75.028 194.184,73.768 C194.184,73.408 194.004,73.12 193.68,72.976 C193.968,72.4 194.472,72.112 195.192,72.04 C196.2,72.256 196.704,72.724 196.704,73.48 C196.524,74.704 196.344,75.82 196.164,76.9 C196.812,76.828 197.496,76.792 198.216,76.756 Z M224.028,67.396 C224.892,67.72 225.36,68.332 225.36,69.268 C225.288,69.664 225.036,70.24 224.604,71.032 C225.72,71.716 227.7,73.156 230.58,75.388 C233.136,77.08 235.512,78.052 237.672,78.34 C238.212,78.484 238.5,78.7 238.5,78.988 C238.032,80.5 236.808,81.364 234.792,81.652 C233.208,81.652 231.552,80.5 229.788,78.124 C228.276,76.54 226.404,74.704 224.244,72.688 C224.028,72.688 223.848,72.652 223.704,72.58 C222.696,74.128 221.328,76.108 219.6,78.484 C217.512,81.22 215.748,82.732 214.308,83.056 C213.084,83.02 212.256,82.66 211.824,82.012 C211.824,81.868 212.004,81.652 212.436,81.436 C216.18,78.988 219.564,75.1 222.552,69.772 C222.84,69.34 222.984,68.98 223.056,68.656 C222.948,68.368 222.876,68.152 222.84,67.936 C222.876,67.576 223.272,67.396 224.028,67.396 Z M227.484,79.564 C228.708,79.78 229.32,80.464 229.32,81.58 C229.104,82.12 229.032,82.912 229.032,83.992 C229.068,86.404 229.104,88.96 229.104,91.696 C228.96,94.576 228.42,96.052 227.556,96.052 C226.836,96.052 226.476,94.72 226.44,92.128 C226.656,90.328 226.764,88.456 226.764,86.584 C226.656,83.164 226.224,81.256 225.504,80.824 C225.936,79.996 226.584,79.564 227.484,79.564 Z M220.392,80.356 C221.364,80.5 221.94,80.968 222.12,81.76 C221.796,89.536 219.744,93.856 215.964,94.792 C215.136,94.792 214.74,94.576 214.74,94.216 C214.74,94 214.956,93.82 215.388,93.568 C218.16,91.552 219.6,87.844 219.744,82.516 C219.672,82.012 219.456,81.544 219.132,81.04 C219.132,80.608 219.528,80.356 220.392,80.356 Z M252.576,71.752 C253.296,71.86 253.692,72.364 253.764,73.3 C253.728,74.092 253.44,75.028 252.864,76.036 C252.504,76.936 252.216,77.548 252.072,77.908 C252.072,78.052 252.144,78.124 252.288,78.124 L254.088,77.548 C254.952,75.928 255.42,74.812 255.42,74.164 C255.348,74.092 255.312,73.948 255.276,73.732 C255.276,73.372 255.6,73.192 256.284,73.192 C257.004,73.192 257.4,73.732 257.4,74.74 C257.4,75.388 256.716,76.72 255.348,78.736 C254.16,80.716 253.512,82.012 253.404,82.624 C253.404,82.768 253.476,82.804 253.692,82.804 C254.304,82.732 255.132,82.444 256.14,81.94 C256.068,81.544 255.996,81.112 255.996,80.68 C255.996,80.392 256.104,80.248 256.392,80.248 C257.004,80.356 257.58,80.644 258.156,81.148 C258.66,81.58 258.912,82.048 258.912,82.552 C258.84,83.848 258.372,84.496 257.436,84.496 C257.148,84.496 256.896,84.244 256.608,83.668 C255.852,84.1 254.844,84.64 253.548,85.36 C251.964,86.152 250.92,86.584 250.416,86.62 C249.624,86.62 249.264,86.296 249.264,85.612 C249.264,85.252 250.056,83.884 251.676,81.58 C251.964,81.148 252.216,80.716 252.468,80.32 C251.46,80.896 250.56,81.22 249.804,81.292 C249.084,81.292 248.652,80.896 248.544,80.104 C248.544,79.636 249.156,78.448 250.416,76.576 C251.532,75.028 252.108,73.732 252.144,72.652 C252.144,72.508 252.108,72.436 252.072,72.364 C252,72.292 251.964,72.184 251.964,72.076 C251.964,71.86 252.144,71.752 252.576,71.752 Z M250.056,87.772 C249.336,88.42 248.616,88.816 247.932,88.924 C247.5,88.888 247.104,88.852 246.744,88.852 C246.42,88.852 246.276,89.032 246.276,89.392 C246.384,90.796 247.068,91.552 248.328,91.66 C248.832,91.588 249.336,91.228 249.768,90.58 C250.164,89.896 250.38,89.176 250.452,88.456 C250.452,88.024 250.308,87.772 250.056,87.772 Z M256.14,85.648 C257.796,85.756 258.66,86.332 258.66,87.412 C258.588,88.42 258.156,88.96 257.292,89.032 C256.788,88.96 256.428,88.672 256.176,88.168 C255.744,87.52 255.528,86.836 255.492,86.08 C255.492,85.792 255.708,85.648 256.14,85.648 Z M252.504,87.16 C252.072,87.16 251.856,87.304 251.856,87.592 C251.892,88.348 252.108,89.032 252.468,89.68 C252.72,90.184 253.08,90.472 253.548,90.544 C254.412,90.472 254.844,89.932 254.88,88.924 C254.88,87.844 254.088,87.268 252.504,87.16 Z M269.1,71.14 C265.14,71.572 262.152,72.076 260.208,72.724 C259.848,72.94 259.668,73.192 259.668,73.444 C259.668,73.876 260.46,74.2 262.08,74.38 C262.656,74.38 263.196,74.344 263.7,74.2 C263.772,74.2 263.844,74.164 263.916,74.164 L263.916,74.668 C263.844,76.324 263.304,78.016 262.26,79.708 C261.54,81.076 260.676,82.156 259.632,82.948 C259.344,83.164 259.236,83.38 259.236,83.524 C259.236,83.848 259.596,83.992 260.316,83.992 C261.648,83.704 262.836,82.804 263.844,81.328 C264.996,79.888 265.752,77.944 266.076,75.424 C266.004,74.704 265.86,74.128 265.572,73.66 C266.58,73.408 267.66,73.192 268.812,72.976 C269.46,72.976 269.856,73.192 269.964,73.552 C270.216,74.056 270.36,74.632 270.36,75.28 C270.216,78.808 269.496,80.68 268.272,80.824 C268.02,80.824 267.804,80.824 267.66,80.752 C267.3,80.752 267.156,80.896 267.156,81.112 C267.372,82.516 267.984,83.2 268.992,83.2 C270.252,83.128 271.188,82.408 271.8,80.968 C272.448,79.636 272.808,77.44 272.808,74.38 C272.736,72.292 271.512,71.212 269.1,71.14 Z M268.956,90.76 C268.488,90.832 267.984,90.904 267.408,90.976 C265.68,91.192 264.384,91.408 263.484,91.588 C263.412,91.372 263.304,91.156 263.232,90.868 C262.944,89.824 262.692,88.78 262.512,87.736 C261.9,86.584 261.324,85.972 260.748,85.972 C260.424,86.116 260.28,86.944 260.28,88.492 C260.424,90.148 260.784,91.48 261.36,92.488 C261.936,93.568 262.548,94.108 263.124,94.108 C263.556,94.036 263.772,93.712 263.772,93.028 C264.024,93.1 264.348,93.1 264.708,93.1 C265.752,93.064 267.912,92.92 271.224,92.704 C271.944,92.632 272.376,92.344 272.484,91.768 C272.484,91.264 272.196,90.904 271.692,90.688 C272.268,89.716 272.628,88.564 272.808,87.232 C272.7,85.684 271.512,84.712 269.244,84.28 C264.852,84.64 262.548,85.252 262.332,86.116 C262.332,86.62 262.836,86.908 263.88,87.016 C264.744,86.98 265.356,86.872 265.716,86.692 C266.256,86.512 266.832,86.368 267.444,86.26 C268.956,86.332 269.748,86.8 269.82,87.628 C269.82,88.096 269.676,88.744 269.388,89.536 C269.172,90.04 269.028,90.472 268.956,90.76 Z"/>
  </g>
</svg>
