<svg xmlns="http://www.w3.org/2000/svg" xmlns:xlink="http://www.w3.org/1999/xlink" width="400" height="139" viewBox="0 0 400 139">
  <defs>
    <polygon id="tit_section-a" points="0 115.915 59.546 115.915 59.546 0 0 0"/>
    <polygon id="tit_section-c" points=".342 6.787 13.775 6.787 13.775 .201 .342 .201 .342 6.787"/>
    <polygon id="tit_section-e" points=".112 6.787 13.546 6.787 13.546 .201 .112 .201"/>
    <polygon id="tit_section-g" points="0 109.097 43.174 109.097 43.174 0 0 0"/>
  </defs>
  <g fill="none" fill-rule="evenodd" transform="translate(.073)">
    <rect width="399.363" height="138.308" fill="#FFF"/>
    <g transform="translate(9.509 13.83)">
      <path fill="#0F5392" d="M44.3668479,31.2478384 L54.8786512,38.1805419 L57.3523103,33.9537388 C54.0297347,32.0021889 51.2095209,29.9677394 48.0470308,29.0701987 L44.3668479,31.2478384 Z"/>
      <path fill="#074A7C" d="M45.811432,30.3923935 L42.5412675,32.3270764 L46.6378866,41.5698436 L51.1712644,39.7704557 C49.8349608,36.4009997 47.6775507,33.0017571 45.811432,30.3923935"/>
      <polygon fill="#CECECE" points="23.684 109.415 23.684 79.099 12.018 78.844 18.662 109.415"/>
      <path fill="#1D67A5" d="M23.6617009,109.415165 L18.7040431,109.415165 C18.7040431,109.415165 15.7686676,112.710334 10.4894127,115.914709 L23.6135683,115.914709 L23.6617009,109.415165 Z"/>
      <polygon fill="#B2B2B2" points="35.862 109.415 35.862 79.099 47.528 78.844 40.884 109.415"/>
      <path fill="#0F5392" d="M35.884422,109.415165 L40.8424363,109.415165 C40.8424363,109.415165 43.7778118,112.710334 49.0567101,115.914709 L35.9325546,115.914709 L35.884422,109.415165 Z"/>
      <path fill="#DDD" d="M0.440431116,15.1017594 C-2.67036099,28.8013671 11.7170079,32.7148743 11.7170079,32.7148743 L13.4672519,25.8657881 C13.4672519,25.8657881 5.30111063,23.5169661 8.21758964,16.2756321 C10.5272414,10.5408458 21.0497408,9.23096033 21.0497408,9.23096033 L22.7996282,0.032693306 C22.7996282,0.032693306 3.55157976,1.40251053 0.440431116,15.1017594" transform="translate(0 41.628)"/>
      <path fill="#BCBBBB" d="M22.382479,15.1017594 C25.4939842,28.8013671 11.1059022,32.7148743 11.1059022,32.7148743 L9.35601477,25.8657881 C9.35601477,25.8657881 17.522156,23.5169661 14.6053205,16.2756321 C12.2956687,10.5408458 1.77316933,9.23096033 1.77316933,9.23096033 L0.0236384546,0.032693306 C0.0236384546,0.032693306 19.2716869,1.40251053 22.382479,15.1017594" transform="translate(36.723 41.628)"/>
      <path fill="#EDAB7E" d="M14.4152145,25.0835891 C15.2680529,27.3588423 14.4120057,29.7909228 12.5031024,30.5158457 C10.5941992,31.2404097 8.35514192,29.9839963 7.50194702,27.7083843 C6.64946519,25.43349 7.50586893,23.0014095 9.41441565,22.2768455 C11.3236754,21.5515637 13.5620196,22.808336 14.4152145,25.0835891"/>
      <path fill="#DD9868" d="M45.1241341,25.0835891 C44.2709392,27.3588423 45.1269864,29.7909228 47.0358897,30.5158457 C48.9451495,31.2404097 51.1838502,29.9839963 52.0370451,27.7083843 C52.8888138,25.43349 52.0338362,23.0014095 50.1245764,22.2768455 C48.2156732,21.5515637 45.977329,22.808336 45.1241341,25.0835891"/>
      <path fill="#CECECE" d="M11.6635273,76.5937409 C12.0792503,81.2127919 14.9001772,89.3143438 29.772794,89.3143438 L29.772794,76.5937409 L11.6635273,76.5937409 Z"/>
      <path fill="#B2B2B2" d="M47.8824173,76.5937409 C47.4666943,81.2127919 44.6464805,89.3143438 29.7731506,89.3143438 L29.7731506,76.5937409 L47.8824173,76.5937409 Z"/>
      <path fill="#EBEBEB" d="M29.7731506,79.3333036 L10.273743,79.3333036 C10.273743,79.3333036 6.50335601,39.628701 29.7731506,39.6103985 L29.7731506,79.3333036 Z"/>
      <path fill="#CECECE" d="M29.7731506,79.3333036 L49.2722016,79.3333036 C49.2722016,79.3333036 53.0436582,39.628701 29.7731506,39.6103985 L29.7731506,79.3333036 Z"/>
      <polygon fill="#D4D5D6" points="19.788 50.859 30.025 46.914 30.025 75.319 27.5 75.319"/>
      <path fill="#2F80BC" d="M18.8747177,40.1369725 L16.9815021,42.8895263 C16.9815021,42.8895263 18.6643604,47.3363184 29.8143663,48.1836169 L29.8143663,43.7368249 L18.8747177,40.1369725 Z"/>
      <path fill="#1A62A0" d="M38.4400848,41.4070231 C30.4457947,45.2186104 18.5591818,47.3359595 18.5591818,47.3359595 L19.787811,50.8590131 C36.1257981,47.9715231 42.4368732,42.6777914 42.4368732,42.6777914 L38.4400848,41.4070231 Z"/>
      <path fill="#FFC89F" d="M11.3398979,25.3948036 C12.0141109,41.6861902 23.2054751,45.141058 29.7818144,45.2562561 L29.7818144,6.81093794 C19.5088915,7.0036526 10.8913734,14.5528994 11.3398979,25.3948036"/>
      <path fill="#EDAB7E" d="M29.7818501,6.81086617 C40.0551296,7.00358083 48.6733607,14.5528276 48.2244797,25.3947318 C47.5499102,41.6864773 36.3581894,45.1413451 29.7818501,45.2561843 L29.7818501,6.81086617 Z"/>
      <path fill="#FFA788" d="M22.3452208,32.8053102 C22.3452208,34.8318645 20.7129908,36.4751428 18.6992655,36.4751428 C16.6862532,36.4751428 15.0540232,34.8318645 15.0540232,32.8053102 C15.0540232,30.7791147 16.6862532,29.1365542 18.6992655,29.1365542 C20.7129908,29.1365542 22.3452208,30.7791147 22.3452208,32.8053102"/>
      <path fill="#F29679" d="M44.50957,32.8053102 C44.50957,34.8318645 42.8780531,36.4751428 40.8643277,36.4751428 C38.8509589,36.4751428 37.2190855,34.8318645 37.2190855,32.8053102 C37.2190855,30.7791147 38.8509589,29.1365542 40.8643277,29.1365542 C42.8780531,29.1365542 44.50957,30.7791147 44.50957,32.8053102"/>
      <path fill="#FFC89F" d="M33.573558,27.9622868 C33.573558,29.0974012 32.6597517,30.017192 31.5320227,30.017192 L28.0322479,30.017192 C26.9045189,30.017192 25.9907126,29.0974012 25.9907126,27.9622868 C25.9907126,26.8271723 26.9045189,25.9073815 28.0322479,25.9073815 L31.5320227,25.9073815 C32.6597517,25.9073815 33.573558,26.8271723 33.573558,27.9622868"/>
      <path fill="#3F2411" d="M23.2506841 19.1282038C22.0726833 19.1160021 20.9232055 19.4074068 19.879976 19.9557643 19.0442514 20.3946657 19.8207907 21.6374419 20.6486714 21.2028471 21.4722737 20.7711232 22.3878627 20.5859448 23.3123652 20.5949166 24.2525553 20.6042473 24.1894481 19.1378933 23.2506841 19.1282038M36.5609524 19.1282038C37.7396663 19.1160021 38.8887876 19.4074068 39.9316606 19.9557643 40.7677416 20.3946657 39.9908458 21.6374419 39.1629651 21.2028471 38.3393628 20.7711232 37.4241304 20.5859448 36.4996279 20.5949166 35.5594378 20.6042473 35.6221884 19.1378933 36.5609524 19.1282038M23.9856868 24.733114C23.9856868 25.6658243 23.2348182 26.4205336 22.308533 26.4205336 21.3826044 26.4205336 20.6317359 25.6658243 20.6317359 24.733114 20.6317359 23.8007627 21.3826044 23.0456944 22.308533 23.0456944 23.2348182 23.0456944 23.9856868 23.8007627 23.9856868 24.733114M35.57837 24.733114C35.57837 25.6658243 36.3292385 26.4205336 37.2555237 26.4205336 38.1814523 26.4205336 38.9323208 25.6658243 38.9323208 24.733114 38.9323208 23.8007627 38.1814523 23.0456944 37.2555237 23.0456944 36.3292385 23.0456944 35.57837 23.8007627 35.57837 24.733114"/>
      <path fill="#4C2D18" d="M35.9500606,32.5810147 C35.8384643,32.4022961 35.6377335,32.2863802 35.4387854,32.2863802 C35.24162,32.2863802 35.07583,32.396913 34.9841997,32.5892688 C33.0510519,36.6434541 26.5128622,36.6506315 24.5800709,32.5892688 C24.4884407,32.396913 24.3226506,32.2863802 24.1251287,32.2863802 C23.9265371,32.2863802 23.7258064,32.4022961 23.6138535,32.5810147 C23.5065356,32.7529148 23.4958395,32.9578311 23.5846174,33.1448038 C25.8785815,37.9659001 33.6739234,37.9784606 35.9796532,33.1448038 C36.0687877,32.9578311 36.0580915,32.7529148 35.9500606,32.5810147"/>
      <path fill="#CECECE" d="M22.3596606,48.6065843 C22.3596606,49.2572206 21.8359066,49.7851224 21.188434,49.7851224 C20.542031,49.7851224 20.018277,49.2572206 20.018277,48.6065843 C20.018277,47.955948 20.542031,47.4291229 21.188434,47.4291229 C21.8359066,47.4291229 22.3596606,47.955948 22.3596606,48.6065843"/>
      <path fill="#3F2411" d="M11.8132731 21.7145996C11.8132731 21.7145996 11.2488738 23.0374045 11.4064635 25.5789412L17.8754849 15.4142299 11.8132731 21.7145996zM47.8928639 21.7145996C47.8928639 21.7145996 48.4576197 23.0374045 48.2996735 25.5789412L41.8306521 15.4142299 47.8928639 21.7145996z"/>
      <polygon fill="#0F5392" points="29.749 76.594 9.763 76.594 12.971 102.427 29.749 102.427"/>
      <polygon fill="#074A7C" points="29.749 76.594 49.735 76.594 46.818 102.427 29.749 102.427"/>
      <mask id="tit_section-b" fill="#fff">
        <use xlink:href="#tit_section-a"/>
      </mask>
      <polygon fill="#2B7BB7" points="9.763 76.579 29.749 76.579 29.749 73.401 9.763 73.401" mask="url(#tit_section-b)"/>
      <polygon fill="#1A62A0" points="29.749 76.579 49.735 76.579 49.735 73.401 29.749 73.401" mask="url(#tit_section-b)"/>
      <polygon fill="#1D67A5" points="9.763 78.164 29.749 78.164 29.749 75.319 9.763 75.319" mask="url(#tit_section-b)"/>
      <polygon fill="#0F5392" points="29.749 78.164 49.735 78.164 49.735 75.319 29.749 75.319" mask="url(#tit_section-b)"/>
      <path fill="#2B7BB7" d="M27.4647111,73.9645675 C20.9432786,76.9292152 23.0468515,94.8218919 23.0468515,94.8218919 L25.7818528,94.8218919 C24.8880126,81.322894 27.4486669,78.2441249 27.4486669,78.2441249 L27.4647111,73.9645675 Z" mask="url(#tit_section-b)"/>
      <path fill="#1A62A0" d="M32.0328513,73.9645675 C38.5546404,76.9292152 36.4507109,94.8218919 36.4507109,94.8218919 L33.7157096,94.8218919 C34.6099064,81.322894 32.0492521,78.2441249 32.0492521,78.2441249 L32.0328513,73.9645675 Z" mask="url(#tit_section-b)"/>
      <polygon fill="#54A3D3" points="27.449 78.244 29.844 78.244 29.844 73.337 27.449 73.337" mask="url(#tit_section-b)"/>
      <polygon fill="#2B7BB7" points="29.844 78.244 32.239 78.244 32.239 73.337 29.844 73.337" mask="url(#tit_section-b)"/>
      <path fill="#2F80BC" d="M11.4978085,22.3493019 C11.4978085,22.3493019 16.7706457,15.1495971 29.7821353,14.9457574 L29.7821353,0.00875649469 C29.7821353,0.00875649469 10.3725753,-1.12312811 11.4978085,22.3493019" mask="url(#tit_section-b)"/>
      <path fill="#1A62A0" d="M48.0669613,22.3493019 C48.0669613,22.3493019 43.699017,15.7840841 29.7822779,14.9457574 L29.7822779,0.00875649469 C29.7822779,0.00875649469 49.191838,-1.12312811 48.0669613,22.3493019" mask="url(#tit_section-b)"/>
    </g>
    <g transform="translate(346.633 13.83)">
      <path fill="#DDD" d="M12.9937659,49.9852853 C16.3796577,59.4599956 10.6105325,69.5072963 10.6105325,69.5072963 L7.96940118,71.6890693 C-5.92422112,60.5323077 10.4740824,42.8855928 10.4740824,42.8855928 L12.9937659,49.9852853 Z"/>
      <path fill="#BCBBBB" d="M30.1843017,49.9852853 L32.7032708,42.8855928 C32.7032708,42.8855928 49.1008599,60.5323077 35.2090236,71.6890693 L32.5678923,69.5072963 C32.5678923,69.5072963 27.1073873,61.6060487 30.1843017,49.9852853"/>
      <path fill="#4C2D18" d="M21.5885159,13.2105144 L4.50796178,13.2105144 C4.50796178,13.2105144 -0.588557216,24.7019717 0.0565446424,37.2532392 L21.5885159,37.2532392 L21.5885159,13.2105144 Z"/>
      <path fill="#4C2D18" d="M0.156560434,0.199888704 L16.8424093,0.199888704 C16.8424093,0.199888704 22.3329191,11.691346 21.6896032,24.2426135 L0.156560434,24.2426135 L0.156560434,0.199888704 Z" transform="translate(21.432 13.01)"/>
      <polygon fill="#FFC89F" points="9.926 69.347 14.11 104.748 18.938 104.748 17.972 70.473"/>
      <g transform="translate(5.358 102.31)">
        <mask id="tit_section-d" fill="#fff">
          <use xlink:href="#tit_section-c"/>
        </mask>
        <path fill="#1D67A5" d="M13.7751393,0.201281781 L8.71898382,0.201281781 C8.71898382,0.201281781 5.72529685,3.53859444 0.341946849,6.78696448 L13.7265602,6.78696448 L13.7751393,0.201281781 Z" mask="url(#tit_section-d)"/>
      </g>
      <polygon fill="#EDAB7E" points="33.251 69.347 29.068 104.748 24.24 104.748 25.206 70.473"/>
      <g transform="translate(23.932 102.31)">
        <mask id="tit_section-f" fill="#fff">
          <use xlink:href="#tit_section-e"/>
        </mask>
        <path fill="#0F5392" d="M0.111910527,0.201281781 L5.16806601,0.201281781 C5.16806601,0.201281781 8.16139578,3.53859444 13.5458174,6.78696448 L0.161561224,6.78696448 L0.111910527,0.201281781 Z" mask="url(#tit_section-f)"/>
      </g>
      <path fill="#EBEBEB" d="M10.528591,64.8620985 L21.5885516,64.8620985 L21.5885516,41.0136901 C21.5885516,41.0136901 13.4104746,40.3103648 9.87098715,42.8857714 C9.87098715,42.8857714 12.9918371,52.2501072 10.528591,64.8620985"/>
      <path fill="#CECECE" d="M32.6484407,64.8620985 C30.1851947,52.2501072 33.3614104,42.9761428 33.3614104,42.9761428 C29.8204942,40.4014506 21.5884801,41.0136901 21.5884801,41.0136901 L21.5884801,64.8620985 L32.6484407,64.8620985 Z"/>
      <mask id="tit_section-h" fill="#fff">
        <use xlink:href="#tit_section-g"/>
      </mask>
      <polygon fill="#1D67A5" points="13.831 63.323 21.545 63.323 21.545 52.18 13.831 52.18" mask="url(#tit_section-h)"/>
      <polygon fill="#0F5392" points="21.545 63.323 29.26 63.323 29.26 52.18 21.545 52.18" mask="url(#tit_section-h)"/>
      <polygon fill="#2B7BB7" points="9.718 42.794 14.366 55.422 17.516 54.624 13.131 41.336" mask="url(#tit_section-h)"/>
      <polygon fill="#2B7BB7" points="33.559 42.794 28.911 55.422 25.76 54.624 30.146 41.336" mask="url(#tit_section-h)"/>
      <path fill="#1D67A5" d="M9.71617699,66.7719358 C4.78539845,74.1941792 6.07345897,98.3319189 6.07345897,98.3319189 L21.5451876,98.3319189 L21.5451876,66.4697452 L9.71617699,66.7719358 Z" mask="url(#tit_section-h)"/>
      <path fill="#0F5392" d="M33.3743411,66.7719358 C38.3054768,74.1941792 37.0174163,98.3319189 37.0174163,98.3319189 L21.5453305,98.3319189 L21.5453305,66.4697452 L33.3743411,66.7719358 Z" mask="url(#tit_section-h)"/>
      <polygon fill="#2B7BB7" points="21.545 66.772 9.692 66.772 10.335 62.899 21.545 62.899" mask="url(#tit_section-h)"/>
      <polygon fill="#1D67A5" points="21.545 66.772 33.399 66.772 32.755 62.899 21.545 62.899" mask="url(#tit_section-h)"/>
      <path fill="#EDAB7E" d="M8.32363569,24.5644857 C9.10483046,26.6358842 8.32006369,28.8498052 6.57157333,29.5095523 C4.82093977,30.1692993 2.76990164,29.0255473 1.98870686,26.954506 C1.20751209,24.8827503 1.99120726,22.6691865 3.74112642,22.0090823 C5.48997398,21.348978 7.54136931,22.4930873 8.32363569,24.5644857" mask="url(#tit_section-h)"/>
      <path fill="#DD9868" d="M34.8540747,24.5644857 C34.0725227,26.6358842 34.8572895,28.8498052 36.6057799,29.5095523 C38.355699,30.1692993 40.4067372,29.0255473 41.1886463,26.954506 C41.9698411,24.8827503 41.1861459,22.6691865 39.4369412,22.0090823 C37.687022,21.348978 35.6356267,22.4930873 34.8540747,24.5644857" mask="url(#tit_section-h)"/>
      <path fill="#FFC89F" d="M4.68888321,24.2694034 C5.30755232,39.1013882 15.5620286,42.2465276 21.5883373,42.3504726 L21.5883373,6.19404944 C12.1754224,6.36979147 4.27846126,14.3985592 4.68888321,24.2694034" mask="url(#tit_section-h)"/>
      <path fill="#EDAB7E" d="M21.5881587,6.19422804 C31.0021451,6.36961287 38.8998206,14.3987378 38.4883271,24.269582 C37.8703724,39.1015668 27.6155389,42.2467062 21.5881587,42.3506512 L21.5881587,6.19422804 Z" mask="url(#tit_section-h)"/>
      <path fill="#FFA788" d="M14.7738327,31.0160758 C14.7738327,32.8606528 13.2782394,34.3566033 11.4329481,34.3566033 C9.5883711,34.3566033 8.09313501,32.8606528 8.09313501,31.0160758 C8.09313501,29.1707845 9.5883711,27.6759056 11.4329481,27.6759056 C13.2782394,27.6759056 14.7738327,29.1707845 14.7738327,31.0160758" mask="url(#tit_section-h)"/>
      <path fill="#F29679" d="M35.0846468,31.0160758 C35.0846468,32.8606528 33.5890535,34.3566033 31.743405,34.3566033 C29.898828,34.3566033 28.4032347,32.8606528 28.4032347,31.0160758 C28.4032347,29.1707845 29.898828,27.6759056 31.743405,27.6759056 C33.5890535,27.6759056 35.0846468,29.1707845 35.0846468,31.0160758" mask="url(#tit_section-h)"/>
      <path fill="#FFC89F" d="M24.095876,29.8171365 C24.095876,30.8497996 23.4911377,31.6874319 22.74602,31.6874319 L20.4313689,31.6874319 C19.685894,31.6874319 19.0822273,30.8497996 19.0822273,29.8171365 C19.0822273,28.7837591 19.685894,27.9457696 20.4313689,27.9457696 L22.74602,27.9457696 C23.4911377,27.9457696 24.095876,28.7837591 24.095876,29.8171365" mask="url(#tit_section-h)"/>
      <path fill="#3F2411" d="M14.9524323 19.7517258C13.8747622 19.6777856 12.8074508 19.8799604 11.8240812 20.3228874 11.0368141 20.6768719 11.6808443 21.8488427 12.4616819 21.4977158 13.2378759 21.1487321 14.0847953 21.0294276 14.930286 21.0876511 15.7904218 21.1469461 15.810425 19.8106637 14.9524323 19.7517258M28.2148478 19.7649779C29.2918036 19.6813933 30.3601866 19.8742809 31.3481997 20.3061348 32.1397533 20.6529753 31.5057246 21.8306612 30.7227438 21.4870355 29.9426206 21.1459103 29.0939152 21.0351785 28.2498534 21.1012603 27.3900747 21.168771 27.3568552 19.8324886 28.2148478 19.7649779M16.2772487 25.6755183C16.2772487 26.5231522 15.5889257 27.2118323 14.7409347 27.2118323 13.8915148 27.2118323 13.2039063 26.5231522 13.2039063 25.6755183 13.2039063 24.8264557 13.8915148 24.1381327 14.7409347 24.1381327 15.5889257 24.1381327 16.2772487 24.8264557 16.2772487 25.6755183M26.9001045 25.6755183C26.9001045 26.5231522 27.5877131 27.2118323 28.4371329 27.2118323 29.285124 27.2118323 29.9738041 26.5231522 29.9738041 25.6755183 29.9738041 24.8264557 29.285124 24.1381327 28.4371329 24.1381327 27.5877131 24.1381327 26.9001045 24.8264557 26.9001045 25.6755183" mask="url(#tit_section-h)"/>
      <path fill="#4C2D18" d="M27.5356692 32.904624C27.4281522 32.7335256 27.2338358 32.6217222 27.042377 32.6217222 26.8527042 32.6217222 26.6930361 32.7281676 26.6044507 32.9128396 24.740585 36.7948811 18.4367325 36.8016679 16.5725096 32.9128396 16.485353 32.7281676 16.3249705 32.6217222 16.1345833 32.6217222 15.9420529 32.6217222 15.7491653 32.7335256 15.6416483 32.904624 15.5377033 33.0685785 15.5277017 33.2661097 15.6127152 33.4447093 17.8248502 38.0622241 25.3413941 38.0740117 27.5638879 33.4447093 27.6496157 33.2661097 27.6396141 33.0685785 27.5356692 32.904624M4.24692057 21.9172463L4.88094925 25.7596387C4.88094925 25.7596387 6.59121929 17.0146865 12.9486517 14.8636326 12.9486517 14.8636326 26.6004501 23.608942 39.0177678 24.2694034 39.0177678 24.2694034 43.4031031 3.00890366 20.9806342 3.17535852-.437033291 3.33574098 4.24692057 21.9172463 4.24692057 21.9172463" mask="url(#tit_section-h)"/>
      <path fill="#1D67A5" d="M5.78627076,29.7006539 C5.78627076,30.677951 4.99328841,31.4705762 4.01599125,31.4705762 C3.03869408,31.4705762 2.24678333,30.677951 2.24678333,29.7006539 C2.24678333,28.7244283 3.03869408,27.9307315 4.01599125,27.9307315 C4.99328841,27.9307315 5.78627076,28.7244283 5.78627076,29.7006539" mask="url(#tit_section-h)"/>
      <path fill="#0F5392" d="M40.8668098,29.7006539 C40.8668098,30.677951 40.0738274,31.4705762 39.0965303,31.4705762 C38.1188759,31.4705762 37.3262508,30.677951 37.3262508,29.7006539 C37.3262508,28.7244283 38.1188759,27.9307315 39.0965303,27.9307315 C40.0738274,27.9307315 40.8668098,28.7244283 40.8668098,29.7006539" mask="url(#tit_section-h)"/>
      <path fill="#DDD" d="M16.3111112,53.8537889 C16.3111112,54.323506 15.9303367,54.7046376 15.4599053,54.7046376 C14.9905455,54.7046376 14.6094139,54.323506 14.6094139,53.8537889 C14.6094139,53.3840719 14.9905455,53.0029403 15.4599053,53.0029403 C15.9303367,53.0029403 16.3111112,53.3840719 16.3111112,53.8537889" mask="url(#tit_section-h)"/>
      <path fill="#CECECE" d="M28.7080686,53.8537889 C28.7080686,54.323506 28.3272942,54.7046376 27.8572199,54.7046376 C27.3875029,54.7046376 27.0063713,54.323506 27.0063713,53.8537889 C27.0063713,53.3840719 27.3875029,53.0029403 27.8572199,53.0029403 C28.3272942,53.0029403 28.7080686,53.3840719 28.7080686,53.8537889" mask="url(#tit_section-h)"/>
      <polygon fill="#EBEBEB" points="6.368 .83 3.067 16.647 21.483 16.647 21.483 .83" mask="url(#tit_section-h)"/>
      <polygon fill="#CECECE" points="21.483 .83 21.483 16.647 40.15 16.647 36.849 .83" mask="url(#tit_section-h)"/>
      <path fill="#1A62A0" d="M6.70159386,1.99049286 C6.74624377,1.98620647 6.80482445,1.99049286 6.85554674,1.99049286 C11.6252284,1.99049286 15.5358459,2.58915881 18.7427808,3.54788162 L19.2039251,3.54788162 C16.9321378,4.70092082 14.8128746,6.2018721 13.0015172,8.14825085 C9.17984231,12.2542563 8.5579584,16.3577614 8.53402605,16.5302886 C8.52831086,16.5688661 8.52831086,16.6081581 8.52902526,16.6470928 L10.1964314,16.6470928 C10.4711176,15.2368701 13.7230597,1.65829755 36.4462904,1.65829755 C36.4966555,1.65829755 36.5555934,1.65508276 36.5998861,1.65829755 C37.0567439,1.65829755 37.427874,1.28823912 37.4289455,0.83173847 C37.4300171,0.373094624 37.0603159,0.00196459591 36.6016721,0.000535798886 C32.0220204,-0.020181758 26.6229536,0.532405493 21.4835707,2.62702194 C16.5792249,0.806377323 11.0258481,0.31272795 6.69837907,0.33165951 C6.24152122,0.332373909 5.87181999,0.704932734 5.87289158,1.16286218 C5.87396318,1.62007723 6.24437881,1.99049286 6.70159386,1.99049286" mask="url(#tit_section-h)"/>
      <path fill="#2F80BC" d="M21.4834993,2.50325239 C21.3774111,2.54540191 21.5892303,2.58397943 21.4834993,2.62720054 C16.5795107,0.806198723 11.0261338,0.31254935 6.69830763,0.33183811 C6.24144978,0.332552508 5.87174855,0.705111333 5.87282014,1.16268358 C5.87389174,1.61989863 6.24430737,1.99031426 6.70152242,1.99031426 C6.74617233,1.98638507 6.80475301,1.99031426 6.8554753,1.99031426 C11.625157,1.99031426 15.5361316,2.58898021 18.7427094,3.54806022 L19.2038536,3.54806022 C16.9320663,4.70074222 14.8128031,6.2016935 13.0014457,8.14842945 C9.18012807,12.2544349 8.55788696,16.3575828 8.53395461,16.5304672 C8.52823942,16.5686875 8.52823942,16.6079795 8.52895382,16.6472714 L10.19636,16.6472714 C10.3935339,15.6328255 12.0737992,8.32702908 21.4834993,4.30175065 L21.4834993,2.50325239 Z" mask="url(#tit_section-h)"/>
    </g>
    <g fill="#D4D5D6" transform="translate(70.018 55.323)">
      <path d="M31.9633563,49.2074654 L244.566048,49.2074654 L244.566048,1.89263556 L31.9633563,1.89263556 L31.9633563,49.2074654 Z M245.512365,51.100101 L31.0170385,51.100101 C30.4939061,51.100101 30.0707207,50.6769155 30.0707207,50.1537832 L30.0707207,0.946317781 C30.0707207,0.423281742 30.4939061,0 31.0170385,0 L245.512365,0 C246.035498,0 246.458683,0.423281742 246.458683,0.946317781 L246.458683,50.1537832 C246.458683,50.6769155 246.035498,51.100101 245.512365,51.100101 L245.512365,51.100101 Z"/>
      <path d="M275.636776,66.451565 L233.107071,66.451565 L233.107071,64.5590257 L273.890209,64.5590257 L258.790144,41.419014 C258.584954,41.1048265 258.584954,40.6982025 258.790144,40.384015 L273.890209,17.2440996 L246.458741,17.2440996 L246.458741,50.1537736 L244.566009,50.1537736 L244.566009,16.2977818 C244.566009,15.7747457 244.989387,15.3515603 245.512423,15.3515603 L275.636776,15.3515603 C275.984279,15.3515603 276.304052,15.5418252 276.468511,15.8467691 C276.634801,16.151713 276.618239,16.5232881 276.429707,16.8153294 L260.71234,40.9014663 L276.429707,64.9877959 C276.618239,65.2797409 276.634801,65.6512197 276.468511,65.9561636 C276.304052,66.2612037 275.984279,66.451565 275.636776,66.451565"/>
      <path d="M233.107042 66.451565C233.001607 66.451565 232.894439 66.433174 232.791025 66.3979326 232.413962 66.2630332 232.160725 65.9063827 232.160725 65.5052472L232.160725 50.1537736 234.053264 50.1537736 234.053264 62.8290205 244.776754 49.5587142 246.248034 50.7489293 233.842682 66.1004992C233.659639 66.325813 233.387914 66.451565 233.107042 66.451565M43.4759938 66.451565L.946192607 66.451565C.598689466 66.451565.278917248 66.2612037.114457463 65.9561636-.0518317928 65.6512197-.0352702688 65.2797409.153261499 64.9877959L15.8707255 40.9014663.153261499 16.8153294C-.0352702688 16.5232881-.0518317928 16.151713.114457463 15.8467691.278917248 15.5418252.598689466 15.3515603.946192607 15.3515603L31.070642 15.3515603C31.593678 15.3515603 32.0169597 15.7747457 32.0169597 16.2977818L32.0169597 50.1537736 30.1243242 50.1537736 30.1243242 17.2440996 2.69275938 17.2440996 17.7929215 40.384015C17.9980148 40.6982025 17.9980148 41.1048265 17.7929215 41.419014L2.69275938 64.5590257 43.4759938 64.5590257 43.4759938 66.451565z"/>
      <path d="M43.4759938 66.451565C43.1950256 66.451565 42.9233973 66.325813 42.740354 66.1004992L30.3350022 50.7489293 31.8061855 49.5587142 42.529676 62.8290205 42.529676 50.1537736 44.4223116 50.1537736 44.4223116 65.5052472C44.4223116 65.9063827 44.1690743 66.2630332 43.7920108 66.3979326 43.6885975 66.433174 43.5813328 66.451565 43.4759938 66.451565M239.309429 26.1306186C239.309429 27.782438 237.970353 29.1215143 236.318534 29.1215143 234.666618 29.1215143 233.327542 27.782438 233.327542 26.1306186 233.327542 24.4787991 234.666618 23.1397229 236.318534 23.1397229 237.970353 23.1397229 239.309429 24.4787991 239.309429 26.1306186M43.255013 26.1306186C43.255013 27.782438 41.9159367 29.1215143 40.2641173 29.1215143 38.6122015 29.1215143 37.2731253 27.782438 37.2731253 26.1306186 37.2731253 24.4787991 38.6122015 23.1397229 40.2641173 23.1397229 41.9159367 23.1397229 43.255013 24.4787991 43.255013 26.1306186"/>
    </g>
    <path fill="#000" d="M147.486099,67.8588347 C148.915794,68.0463357 149.665786,68.7142977 149.736099,69.862741 C149.736099,70.7768081 149.20876,71.2338347 148.154068,71.2338347 C146.630623,70.9057081 145.517352,69.9799361 144.814224,68.456491 C145.189226,68.0580515 146.079842,67.8588347 147.486099,67.8588347 Z M150.228286,72.1478972 C150.931415,72.1478972 151.282974,72.5814867 151.282974,73.4486785 C151.282974,73.8236804 151.095476,74.0932089 150.720474,74.2572722 C149.993908,74.5385236 149.044698,74.7143031 147.872818,74.784616 C146.958751,74.9721169 146.091572,75.159615 145.271255,75.347116 C142.622804,76.0736821 140.841572,76.460397 139.927505,76.5072722 C138.685311,76.5072722 137.900163,76.0736828 137.572036,75.206491 C137.454848,74.7846139 137.642346,74.5736785 138.134536,74.5736785 C138.462663,74.5736785 138.767347,74.5971158 139.048599,74.643991 C140.056416,74.643991 142.236082,74.0932152 145.587661,72.9916472 C147.134544,72.4291444 148.681404,72.1478972 150.228286,72.1478972 Z M148.50563,76.2611785 C149.185321,76.2611785 149.525161,76.5541443 149.525161,77.1400847 C149.525161,78.5697794 147.919709,79.284616 144.708755,79.284616 C143.27906,79.1205527 142.447038,78.7689937 142.212661,78.2299285 C142.259537,78.1830533 142.341567,78.1127415 142.458755,78.018991 C144.661891,77.2455496 146.677496,76.659618 148.50563,76.2611785 Z M148.50563,79.6713347 C149.185321,79.6713347 149.525161,79.9643006 149.525161,80.550241 C149.525161,81.9330604 148.036895,82.6244597 145.060318,82.6244597 C143.654061,82.483834 142.822038,82.132275 142.564224,81.5697722 C142.587661,81.522897 142.681411,81.4525852 142.845474,81.3588347 C144.907984,80.608831 146.794684,80.0463366 148.50563,79.6713347 Z M142.142349,85.3666472 C142.798602,85.3666472 143.431408,85.9877348 144.040786,87.2299285 C144.157974,87.8393065 144.286879,88.4486754 144.427505,89.0580535 C144.450943,89.151804 144.47438,89.2338344 144.497818,89.3041472 C145.013445,89.1635215 145.704845,88.9994607 146.572036,88.8119597 C146.900163,88.7416469 147.193129,88.6713351 147.450943,88.6010222 C147.521255,88.2963332 147.626723,87.9799301 147.767349,87.6518035 C147.95485,87.1361759 148.048599,86.5033697 148.048599,85.753366 C148.025161,85.448677 147.896256,85.2963347 147.66188,85.2963347 C147.404066,85.34321 147.075945,85.436959 146.677505,85.5775847 C146.396254,85.7416481 146.103288,85.8236785 145.798599,85.8236785 C144.157966,85.8002409 143.325943,85.4486819 143.302505,84.768991 C143.302505,84.5346148 143.876718,84.2650863 145.025161,83.9603972 C146.032979,83.5853954 146.900158,83.3861786 147.626724,83.362741 C149.665797,83.5502419 150.732192,84.3119531 150.825943,85.6478972 C150.825943,86.5854019 150.521258,87.4642994 149.91188,88.284616 C149.841567,88.4252417 149.771255,88.542428 149.700943,88.6361785 C149.958756,88.8002418 150.087661,89.0580517 150.087661,89.409616 C149.993911,89.9018059 149.630633,90.1830531 148.997818,90.253366 C147.193121,90.558055 145.986102,90.7338345 145.376724,90.7807097 C145.095472,90.7807097 144.849381,90.7689911 144.638443,90.7455535 C144.56813,91.1908682 144.357194,91.4252409 144.00563,91.4486785 C143.536878,91.4486785 143.044695,91.1205568 142.529068,90.4643035 C142.083753,89.8314878 141.790787,89.0229022 141.650161,88.0385222 C141.650161,86.3744514 141.814222,85.4838353 142.142349,85.3666472 Z M157.540786,71.5853972 C158.525166,71.7025853 159.017349,72.1830493 159.017349,73.0268035 C158.853286,73.4018054 158.771255,73.8705507 158.771255,74.4330535 C158.81813,76.4018133 158.865005,78.3471064 158.91188,80.268991 C160.904078,79.8939891 162.532968,79.6830537 163.798599,79.6361785 C165.345482,79.6361785 166.118911,80.1517983 166.118911,81.1830535 C166.118911,81.8393068 165.685322,82.1674285 164.81813,82.1674285 C163.411873,82.1674285 161.841576,82.2846148 160.107193,82.518991 C159.732191,82.5893038 159.357194,82.647897 158.982193,82.6947722 C159.00563,84.4291559 159.040786,86.116639 159.087661,87.7572722 C159.087661,92.3979204 158.689228,94.7182097 157.892349,94.7182097 C157.001719,94.7182097 156.556411,93.3822856 156.556411,90.7103972 C156.626724,88.1322593 156.697036,85.5775974 156.767349,83.0463347 C155.056403,83.2807109 153.720479,83.4096159 152.759536,83.4330535 C151.44703,83.3861783 150.603288,83.1166497 150.228286,82.6244597 C150.228286,82.4369588 150.62672,82.237742 151.423599,82.0268035 C153.439234,81.4877383 155.243903,81.0541489 156.837661,80.7260222 C156.884537,78.3822605 156.94313,76.0619712 157.013443,73.7650847 C157.013443,73.1557067 156.825944,72.69868 156.450943,72.393991 C156.615006,71.9721139 156.978284,71.7025853 157.540786,71.5853972 Z M161.16188,68.0697722 C162.216573,68.1635227 162.743911,68.6205494 162.743911,69.440866 C162.650161,70.0736817 162.169697,70.4369593 161.302505,70.5307097 C158.396241,71.0697749 156.486103,71.386178 155.572036,71.4799285 C153.76734,71.4799285 152.794693,71.0463391 152.654068,70.1791472 C152.841569,69.8744582 154.505614,69.370557 157.646255,68.6674285 C159.099387,68.3158642 160.271251,68.1166475 161.16188,68.0697722 Z M155.431411,74.503366 C155.665788,74.503366 155.782974,74.7377386 155.782974,75.206491 C155.759536,75.8861819 155.513445,76.554144 155.044693,77.2103972 C154.552503,77.8432129 154.001727,78.1947719 153.392349,78.2650847 C152.19703,78.1713343 151.552506,77.444779 151.458755,76.0853972 C151.458755,75.7572706 151.611097,75.5932097 151.915786,75.5932097 C152.243913,75.5932097 152.607191,75.616647 153.00563,75.6635222 C153.802509,75.5463342 154.611095,75.1596193 155.431411,74.503366 Z M162.322036,72.534616 C163.798606,72.6049288 164.53688,73.0853928 164.53688,73.9760222 C164.513443,74.7963388 163.822043,75.8275785 162.462661,77.0697722 C161.618907,77.8432136 160.751728,78.276803 159.861099,78.3705535 C159.486097,78.3705535 159.298599,78.2650858 159.298599,78.0541472 C159.298599,77.9135215 159.427504,77.7025861 159.685318,77.4213347 C160.763448,75.7572639 161.372817,74.3979025 161.513443,73.3432097 C161.513443,73.1557088 161.490005,72.9799293 161.44313,72.815866 C161.490005,72.628365 161.782971,72.534616 162.322036,72.534616 Z M187.986099,67.9291472 C189.486106,67.9291472 190.236099,68.4447671 190.236099,69.4760222 C190.236099,70.0619627 190.025163,70.6947688 189.603286,71.3744597 C189.650162,71.4682102 189.673599,71.5853965 189.673599,71.7260222 C189.603286,72.1010241 189.298602,72.3119595 188.759536,72.3588347 C187.587656,72.5463357 186.814226,72.663522 186.439224,72.7103972 C186.08766,72.7103972 185.818131,72.68696 185.63063,72.6400847 L185.63063,72.956491 C185.63063,74.0346214 185.993908,74.5736785 186.720474,74.5736785 C188.384545,74.5033656 189.216568,74.1752439 189.216568,73.5893035 C189.263443,72.9096126 189.368911,72.5697722 189.532974,72.5697722 C190.447041,72.8510236 190.939224,73.3783621 191.009536,74.1518035 C191.009536,75.4174348 189.638456,76.0853969 186.896255,76.1557097 C184.857182,76.1088345 183.837661,75.1010321 183.837661,73.1322722 C183.931412,72.0775795 184.03688,71.1869634 184.154068,70.4603972 C184.154068,69.7572687 184.025163,69.2768048 183.767349,69.018991 C183.767349,68.8549277 183.872817,68.7728972 184.083755,68.7728972 C184.365007,68.7728972 184.611098,68.8666463 184.822036,69.0541472 C185.126725,68.8432087 185.51344,68.6322733 185.982193,68.4213347 C186.732196,68.0932081 187.400158,67.9291472 187.986099,67.9291472 Z M185.454849,70.003366 C185.548599,70.0971165 185.607193,70.6010177 185.63063,71.5150847 C185.982194,71.3978967 186.45094,71.2807103 187.03688,71.1635222 C187.318132,71.0932094 187.58766,71.0346162 187.845474,70.987741 C187.939224,70.7768024 187.997818,70.5424298 188.021255,70.284616 C188.021255,69.8393013 187.868913,69.59321 187.564224,69.5463347 C186.626719,69.8275861 186.040788,69.9799284 185.806411,70.003366 L185.454849,70.003366 Z M195.368911,66.7338347 C196.868919,66.7338347 197.618911,67.2611732 197.618911,68.315866 C197.618911,68.9955569 197.279071,69.7689867 196.59938,70.6361785 C196.622818,70.729929 196.634536,70.8002408 196.634536,70.847116 C196.587661,71.2221179 196.306414,71.4447719 195.790786,71.5150847 C194.689218,71.7494609 193.950944,71.8783659 193.575943,71.9018035 C193.271254,71.9018035 193.025162,71.8783662 192.837661,71.831491 L192.837661,72.112741 C192.837661,73.1205585 193.294688,73.6244597 194.208755,73.6244597 C196.294703,73.5775845 197.337661,73.1674324 197.337661,72.393991 C197.384537,71.6439872 197.501723,71.268991 197.689224,71.268991 C198.743917,71.5971176 199.31813,72.2064865 199.41188,73.097116 C199.41188,74.5971235 197.736116,75.3822719 194.384536,75.4525847 C192.08765,75.4057095 190.939224,74.3393139 190.939224,72.253366 C191.032974,71.151798 191.138442,70.2143074 191.25563,69.440866 C191.25563,68.6908622 191.126725,68.186961 190.868911,67.9291472 C190.868911,67.7416463 190.986098,67.6478972 191.220474,67.6478972 C191.501725,67.6478972 191.747817,67.7533649 191.958755,67.9643035 C192.286882,67.7533649 192.743908,67.5189923 193.329849,67.2611785 C194.079853,66.9096142 194.759533,66.7338347 195.368911,66.7338347 Z M192.591568,68.878366 C192.638443,68.9252412 192.66188,68.9603971 192.66188,68.9838347 C192.755631,69.0775852 192.814224,69.6517982 192.837661,70.706491 C193.189226,70.5893029 193.611096,70.4721166 194.103286,70.3549285 C194.454851,70.2377404 194.759535,70.15571 195.017349,70.1088347 C195.228287,69.7807081 195.357192,69.4525864 195.404068,69.1244597 C195.404068,68.679145 195.251725,68.4330537 194.947036,68.3861785 C193.986094,68.6908675 193.376725,68.8549284 193.118911,68.878366 L192.591568,68.878366 Z M189.779068,85.2611785 C189.990006,85.2611785 190.095474,85.4721139 190.095474,85.893991 C190.048599,86.5502443 189.732196,87.2064877 189.146255,87.862741 C188.583752,88.4955567 187.927509,88.835397 187.177505,88.8822722 C186.052499,88.7885218 185.454849,88.1205597 185.384536,86.878366 C185.384536,86.5268017 185.513441,86.3510222 185.771255,86.3510222 C186.122819,86.3510222 186.474378,86.3744595 186.825943,86.4213347 C187.786885,86.3275843 188.77125,85.9408694 189.779068,85.2611785 Z M193.470474,75.7338347 C194.642355,75.8041476 195.263442,76.3900792 195.333755,77.4916472 C195.310318,77.5619601 195.28688,77.6439905 195.263443,77.737741 C195.919696,77.6439905 196.505628,77.5853974 197.021255,77.5619597 C197.841572,77.6322726 198.251724,77.9838316 198.251724,78.6166472 C198.134536,79.1088372 197.75954,79.3900844 197.126724,79.4603972 C196.28297,79.5775853 195.474384,79.683053 194.700943,79.7768035 C194.513442,80.4330568 194.314225,81.0893002 194.103286,81.7455535 C195.74392,81.5346149 197.150156,81.4174286 198.322036,81.393991 C199.611105,81.393991 200.25563,81.8275804 200.25563,82.6947722 C200.25563,83.257275 199.892353,83.5385222 199.165786,83.5385222 C197.478278,83.5385222 195.603297,83.6322713 193.540786,83.8197722 C189.579829,84.3588374 186.697045,84.6400846 184.892349,84.6635222 C183.790781,84.6400846 183.075944,84.4291492 182.747818,84.0307097 C182.747818,83.8666464 183.099377,83.6908669 183.802505,83.503366 C185.32595,83.198677 186.767342,82.9291484 188.126724,82.6947722 C187.939223,82.1791447 187.728288,81.5229012 187.493911,80.7260222 C187.001721,80.7728975 186.603288,80.8080534 186.298599,80.831491 C184.915779,80.831491 184.177506,80.4916506 184.083755,79.8119597 C184.247818,79.6244588 185.243902,79.3432116 187.072036,78.9682097 C186.931411,78.4525822 186.790787,77.8666505 186.650161,77.2103972 C186.650161,77.0463339 186.872815,76.9643035 187.31813,76.9643035 C188.161884,76.9643035 188.724379,77.3861743 189.00563,78.2299285 C189.075943,78.3471166 189.146255,78.4760215 189.216568,78.6166472 C189.966571,78.4994592 190.786876,78.3705542 191.677505,78.2299285 C192.075945,78.1596156 192.427504,78.1010225 192.732193,78.0541472 C192.75563,77.8666463 192.767349,77.6908668 192.767349,77.5268035 C192.767349,77.1049264 192.591569,76.7299301 192.240005,76.4018035 C192.240005,75.9564888 192.650157,75.7338347 193.470474,75.7338347 Z M192.591568,80.0932097 C191.419687,80.2572731 190.400166,80.386178 189.532974,80.4799285 C189.556411,80.9721184 189.579849,81.5111756 189.603286,82.097116 C189.579849,82.2611793 189.556411,82.3783656 189.532974,82.4486785 C190.517354,82.2611775 191.431407,82.1088353 192.275161,81.9916472 C192.415787,81.335394 192.521255,80.7025878 192.591568,80.0932097 Z M179.232193,69.5463347 C180.591574,69.8041485 181.306411,70.6244528 181.376724,72.0072722 C181.376724,72.8275888 180.919697,73.237741 180.00563,73.237741 C178.458747,72.8393015 177.333759,71.7963432 176.63063,70.1088347 C177.052507,69.7338329 177.919686,69.5463347 179.232193,69.5463347 Z M177.75563,74.8900847 C179.185325,75.1478985 179.947036,75.9799215 180.040786,77.3861785 C180.040786,78.1596199 179.618916,78.5463347 178.775161,78.5463347 C177.040778,78.1713329 175.786884,77.1166559 175.013443,75.3822722 C175.43532,75.0541456 176.349373,74.8900847 177.75563,74.8900847 Z M176.314224,80.409616 C178.236108,80.6205545 179.197036,81.4057029 179.197036,82.7650847 C179.103286,83.0697738 179.009537,83.4213327 178.915786,83.8197722 C179.009537,84.3119622 179.314221,84.7221143 179.829849,85.050241 C180.767354,85.4721181 181.236099,86.1049243 181.236099,86.9486785 C181.212661,87.3236804 181.142349,87.6752393 181.025161,88.003366 C181.82204,88.0971165 183.275151,88.5189872 185.384536,89.268991 C188.876741,90.3002461 192.134521,90.815866 195.157974,90.815866 C197.94705,90.815866 200.302496,90.7221169 202.22438,90.534616 C202.482194,90.6283665 202.611099,90.8275832 202.611099,91.1322722 C202.447036,92.0229017 201.673606,92.8783619 200.290786,93.6986785 C199.376719,94.3080565 198.298605,94.612741 197.056411,94.612741 C194.525149,94.612741 190.306441,93.3705659 184.400161,90.8861785 C182.267338,89.9252362 180.896258,89.4096163 180.28688,89.3393035 L180.28688,89.3744597 C179.443126,90.4760277 178.599384,91.073678 177.75563,91.1674285 C176.982189,91.073678 176.572037,90.7807122 176.525161,90.2885222 C176.525161,89.4916433 177.087656,88.893993 178.212661,88.4955535 C178.704851,88.2611773 178.950943,87.9447742 178.950943,87.5463347 C178.904067,86.8432062 178.564227,86.3627423 177.931411,86.1049285 C177.15797,85.6830514 176.747818,85.1088384 176.700943,84.3822722 C176.747818,84.0072704 176.794692,83.6439927 176.841568,83.2924285 C176.841568,82.8471138 176.642351,82.4486802 176.243911,82.097116 C175.47047,81.909615 175.025162,81.6400865 174.907974,81.2885222 C174.954849,80.7963323 175.423594,80.5033665 176.314224,80.409616 Z M195.579849,85.050241 C196.892355,85.2846172 197.583755,86.0111724 197.654068,87.2299285 C197.654068,87.9799322 197.220478,88.3549285 196.353286,88.3549285 C194.853279,88.0033642 193.751727,87.0775922 193.048599,85.5775847 C193.423601,85.2260205 194.267342,85.050241 195.579849,85.050241 Z M218.853286,68.2455535 C220.423607,68.456492 221.243911,69.1830473 221.314224,70.425241 C221.314224,71.3158704 220.798604,71.7611785 219.767349,71.7611785 C218.009528,71.4096142 216.732197,70.4486863 215.935318,68.878366 C216.40407,68.4564889 217.376716,68.2455535 218.853286,68.2455535 Z M221.314224,72.4291472 C222.064228,72.4291472 222.439224,72.8627367 222.439224,73.7299285 C222.439224,74.1049304 222.240007,74.3744589 221.841568,74.5385222 C221.138439,74.8432113 220.18923,75.0189908 218.993911,75.065866 C218.079844,75.2533669 217.224384,75.440865 216.427505,75.628366 C213.755617,76.3549321 211.962666,76.741647 211.048599,76.7885222 C209.876718,76.7885222 209.126726,76.3666515 208.798599,75.5228972 C208.634536,75.1478954 208.810315,74.9603972 209.325943,74.9603972 C209.630632,74.9603972 209.935316,74.9721159 210.240005,74.9955535 C211.247823,74.9955535 213.41577,74.4330591 216.743911,73.3080535 C218.267356,72.7221131 219.790779,72.4291472 221.314224,72.4291472 Z M219.697036,76.5072722 C220.329852,76.5072722 220.646255,76.8002381 220.646255,77.3861785 C220.646255,78.7924355 219.029084,79.4955535 215.794693,79.4955535 C214.435311,79.3549278 213.638444,79.0033688 213.404068,78.440866 C213.450943,78.4174284 213.532973,78.3471166 213.650161,78.2299285 C215.82986,77.4564871 217.845465,76.8822741 219.697036,76.5072722 Z M219.697036,79.8822722 C220.329852,79.8822722 220.646255,80.1869567 220.646255,80.7963347 C220.646255,82.1088413 219.134551,82.7650847 216.111099,82.7650847 C214.728279,82.6478967 213.931412,82.3080563 213.720474,81.7455535 C213.743911,81.6986783 213.825942,81.6283665 213.966568,81.534616 C216.029078,80.8080499 217.939215,80.2572741 219.697036,79.8822722 Z M213.333755,85.472116 C213.943133,85.472116 214.564221,86.0932035 215.197036,87.3353972 C215.290787,87.9447753 215.407973,88.5424256 215.548599,89.128366 C215.618912,89.2924293 215.665786,89.4213343 215.689224,89.5150847 C216.251727,89.374459 216.966563,89.2221168 217.833755,89.0580535 C218.115007,88.9877406 218.349379,88.9408661 218.53688,88.9174285 C218.560318,88.5658642 218.677504,88.1674307 218.888443,87.722116 C219.075944,87.229926 219.169693,86.6205571 219.169693,85.893991 C219.146255,85.589302 219.029069,85.4369597 218.81813,85.4369597 C218.536879,85.483835 218.208757,85.5658654 217.833755,85.6830535 C217.529066,85.8705544 217.2361,85.9643035 216.954849,85.9643035 C215.314216,85.9174283 214.482193,85.5658693 214.458755,84.909616 C214.458755,84.6752398 215.044687,84.4057113 216.216568,84.1010222 C217.224385,83.749458 218.079845,83.5619599 218.782974,83.5385222 C220.775171,83.7260232 221.81813,84.4760157 221.91188,85.7885222 C221.91188,86.6791517 221.618914,87.5346119 221.032974,88.3549285 C220.939223,88.5189918 220.845474,88.671334 220.751724,88.8119597 C221.173601,88.9760231 221.384536,89.2572702 221.384536,89.6557097 C221.314224,90.1478997 220.962665,90.4291469 220.329849,90.4994597 C218.407964,90.7572735 217.154071,90.9096158 216.56813,90.956491 C216.216566,90.956491 215.947037,90.9447724 215.759536,90.9213347 C215.665786,91.272899 215.478288,91.4603971 215.197036,91.4838347 C214.704846,91.4838347 214.212664,91.155713 213.720474,90.4994597 C213.251722,89.8900817 212.947037,89.1049333 212.806411,88.143991 C212.806411,86.5033578 212.982191,85.6127417 213.333755,85.472116 Z M230.841568,74.9603972 C231.825948,75.0541477 232.540784,75.2533645 232.986099,75.5580535 C232.822036,75.2299268 232.646256,74.8549306 232.458755,74.4330535 C230.818122,70.8705357 229.704852,68.8432122 229.118911,68.3510222 C228.650159,68.3510222 228.392349,68.2572732 228.345474,68.0697722 C228.392349,67.530707 228.81422,67.2611785 229.611099,67.2611785 C230.501728,67.5424299 231.544687,68.7142932 232.740005,70.7768035 C234.591577,73.4955671 236.302497,74.9135217 237.872818,75.0307097 C238.083756,75.077585 238.189224,75.1830527 238.189224,75.347116 C237.83766,76.3314959 236.794701,76.9408648 235.060318,77.175241 C234.638441,77.175241 234.228288,77.0111801 233.829849,76.6830535 C233.876724,76.8002416 233.900161,76.9174279 233.900161,77.034616 C233.900161,77.9955583 233.595477,78.9096117 232.986099,79.7768035 C232.892348,79.9408668 232.822037,80.0697718 232.775161,80.1635222 C233.243914,80.3041479 233.478286,80.620551 233.478286,81.112741 C233.407974,81.5814933 233.044696,81.8510219 232.388443,81.9213347 C230.654059,82.1322733 229.306416,82.2728969 228.345474,82.3432097 C228.603288,82.6010235 228.732193,82.8939893 228.732193,83.222116 C229.013444,83.0580527 229.353284,82.952585 229.751724,82.9057097 C230.642353,82.9994602 231.146255,83.5267987 231.263443,84.487741 C231.005629,85.2143071 230.759538,86.3275772 230.525161,87.8275847 C230.525161,88.7650894 230.607192,89.4564888 230.771255,89.9018035 C231.169695,90.5111815 231.708752,90.8393033 232.388443,90.8861785 C235.505646,90.8861785 237.087661,89.784627 237.134536,87.581491 C238.517356,87.9564929 239.232192,88.8705462 239.279068,90.3236785 C239.25563,92.0814998 237.181432,93.0072718 233.056411,93.1010222 C231.228277,92.9369589 230.138444,92.6205558 229.78688,92.1518035 C229.107189,91.753364 228.743912,90.9213411 228.697036,89.6557097 C228.697036,88.0853894 228.779067,86.503374 228.94313,84.909616 C228.919693,84.5346141 228.790788,84.2650856 228.556411,84.1010222 C228.111097,85.1088398 227.032982,86.8666347 225.322036,89.3744597 C224.032967,91.132281 222.943135,92.1166462 222.052505,92.3275847 C221.115,92.2807095 220.482194,92.0111809 220.154068,91.518991 C220.154068,91.4252405 220.271254,91.2963356 220.50563,91.1322722 C222.732204,89.6322647 224.700934,87.2182264 226.41188,83.8900847 C226.669694,83.5150829 226.822036,83.1986798 226.868911,82.940866 C226.798599,82.7299274 226.751724,82.5658666 226.728286,82.4486785 C226.540785,82.4252409 226.41188,82.4135222 226.341568,82.4135222 C226.31813,83.0229003 226.107195,83.3393034 225.708755,83.362741 C225.216565,83.362741 224.724383,82.9643075 224.232193,82.1674285 C223.76344,81.4408624 223.458756,80.4916531 223.31813,79.3197722 C223.31813,77.7963271 223.482191,76.9760228 223.810318,76.8588347 C224.37282,76.8588347 224.935315,77.4330477 225.497818,78.581491 C225.638443,79.3080571 225.802504,80.046331 225.990005,80.7963347 C226.03688,80.9135228 226.072036,81.0189905 226.095474,81.112741 C226.845478,80.9486777 227.900155,80.7377423 229.259536,80.4799285 C229.657976,80.4096156 230.021253,80.3510225 230.34938,80.3041472 C230.396255,79.952583 230.501723,79.5541495 230.665786,79.1088347 C230.853287,78.5697695 230.947036,77.9135261 230.947036,77.1400847 L230.91188,76.612741 C230.372815,76.6830538 229.716571,76.8236774 228.94313,77.034616 C228.333752,77.3158674 227.736102,77.456491 227.150161,77.456491 C225.697029,77.4330534 224.958755,77.1400875 224.935318,76.5775847 C224.935318,76.2963333 225.732185,75.9682116 227.325943,75.5932097 C228.685324,75.1947702 229.857188,74.9838349 230.841568,74.9603972 Z M226.200943,69.4760222 C226.974384,69.733836 227.361099,70.2728931 227.361099,71.0932097 C227.314224,71.5385245 226.634543,72.7806995 225.322036,74.8197722 C224.59547,75.9213402 223.962664,76.5424278 223.423599,76.6830535 C222.392344,76.6361783 221.712663,76.3314938 221.384536,75.768991 C221.384536,75.7221158 221.44313,75.6635226 221.560318,75.5932097 C222.825949,74.7260179 223.950938,73.3549379 224.935318,71.4799285 C225.193131,71.1283642 225.345474,70.8236798 225.392349,70.565866 C225.298598,70.2846146 225.240005,70.0736792 225.216568,69.9330535 C225.240005,69.6283645 225.568127,69.4760222 226.200943,69.4760222 Z M254.677505,72.3236785 C256.529077,72.3236785 257.454849,73.2142946 257.454849,74.9955535 C257.454849,82.4721534 257.255632,86.2338345 256.857193,86.2807097 C256.763442,86.7963373 256.35329,87.1010218 255.626724,87.1947722 C255.087659,87.1244594 254.747818,86.7260259 254.607193,85.9994597 C253.411874,86.6322754 252.087669,86.9486785 250.634536,86.9486785 C249.368905,86.9486785 248.595475,85.7768152 248.314224,83.4330535 C248.384537,82.2611726 248.44313,79.8354156 248.490005,76.1557097 C248.53688,75.8978959 248.630629,75.7455537 248.771255,75.6986785 C249.80251,75.6986785 250.423598,76.6361691 250.634536,78.5111785 L250.634536,78.8275847 C251.548603,78.4994581 252.404064,78.2533668 253.200943,78.0893035 C253.880634,78.0893035 254.220474,78.3822693 254.220474,78.9682097 C254.220474,80.0463401 253.353295,80.5853972 251.618911,80.5853972 C251.267347,80.5619596 250.939225,80.5150851 250.634536,80.4447722 C250.634536,81.4057145 250.646255,82.3549238 250.669693,83.2924285 C250.669693,84.1127451 251.044689,84.5228972 251.794693,84.5228972 C252.568134,84.5228972 253.587655,84.2768059 254.853286,83.784616 C254.993912,82.3080461 255.064224,79.917445 255.064224,76.612741 C255.017349,75.511173 254.736101,74.8666482 254.220474,74.6791472 C253.775159,74.6791472 252.743919,74.8549267 251.126724,75.206491 C250.329845,75.206491 249.884537,74.9955556 249.790786,74.5736785 C249.837662,74.3393023 250.388437,73.9525874 251.44313,73.4135222 C252.216571,72.9213323 253.294686,72.5580547 254.677505,72.3236785 Z M261.216568,72.1478972 C262.107197,72.1478972 262.552505,72.8158593 262.552505,74.1518035 C262.575943,74.8314944 262.59938,75.4994565 262.622818,76.1557097 C264.052512,75.7338326 265.376718,75.4057109 266.595474,75.1713347 C267.32204,75.1713347 267.685318,75.4877378 267.685318,76.1205535 C267.685318,77.2689967 266.46658,77.8432097 264.029068,77.8432097 C263.490002,77.7963345 263.056413,77.7025854 262.728286,77.5619597 C262.798599,78.9213415 262.857192,80.2338284 262.904068,81.4994597 L262.904068,82.0268035 C264.263449,81.6049264 265.552499,81.2885233 266.771255,81.0775847 C267.497821,81.0775847 267.861099,81.3939878 267.861099,82.0268035 C267.861099,83.1752467 266.583768,83.7494597 264.029068,83.7494597 C263.583753,83.6791469 263.185319,83.5971165 262.833755,83.503366 C262.458753,89.808085 260.454867,93.4057053 256.822036,94.2963347 C256.447034,94.2963347 256.212662,94.1674298 256.118911,93.909616 C256.400163,93.5580517 256.786878,93.0893064 257.279068,92.503366 C259.622829,88.8705353 260.876723,84.3588617 261.040786,78.9682097 C261.040786,77.913517 260.982193,76.4486879 260.865005,74.5736785 C260.747817,73.9643004 260.454851,73.5541483 259.986099,73.3432097 C260.314226,72.6869565 260.724378,72.2885229 261.216568,72.1478972 Z M266.560318,68.3510222 C270.029085,68.8432122 271.822036,70.0033568 271.939224,71.831491 C271.868911,72.3939938 271.775162,73.0150813 271.657974,73.6947722 C271.7986,79.0619866 271.927505,84.440839 272.044693,89.831491 C272.044693,93.2768207 271.118921,94.9994597 269.267349,94.9994597 C267.814217,94.9057093 266.900163,94.0385304 266.525161,92.3978972 C266.525161,91.9760201 266.654066,91.7650847 266.91188,91.7650847 L268.388443,91.7650847 C269.091571,91.5541462 269.44313,90.3354084 269.44313,88.1088347 C269.490005,83.4447489 269.525161,78.7924517 269.548599,74.1518035 C269.548599,71.7142913 268.833762,70.4955535 267.404068,70.4955535 C266.091561,70.7533673 264.802511,71.0228958 263.53688,71.3041472 C261.825934,71.1400839 260.970474,70.8588367 260.970474,70.4603972 C260.970474,70.2260211 261.134535,70.0268043 261.462661,69.862741 C263.548609,69.0424244 265.247811,68.5385232 266.560318,68.3510222 Z"/>
  </g>
</svg>
