<svg xmlns="http://www.w3.org/2000/svg" xmlns:xlink="http://www.w3.org/1999/xlink" width="400" height="139" viewBox="0 0 400 139">
  <defs>
    <polygon id="tit_info-a" points="0 115.915 59.546 115.915 59.546 0 0 0"/>
    <polygon id="tit_info-c" points=".342 6.787 13.775 6.787 13.775 .201 .342 .201 .342 6.787"/>
    <polygon id="tit_info-e" points=".112 6.787 13.546 6.787 13.546 .201 .112 .201"/>
    <polygon id="tit_info-g" points="0 109.097 43.174 109.097 43.174 0 0 0"/>
  </defs>
  <g fill="none" fill-rule="evenodd">
    <rect width="399.363" height="138.308" fill="#FFF"/>
    <g transform="translate(9.509 13.83)">
      <path fill="#0F5392" d="M44.3668479,31.2478384 L54.8786512,38.1805419 L57.3523103,33.9537388 C54.0297347,32.0021889 51.2095209,29.9677394 48.0470308,29.0701987 L44.3668479,31.2478384 Z"/>
      <path fill="#074A7C" d="M45.811432,30.3923935 L42.5412675,32.3270764 L46.6378866,41.5698436 L51.1712644,39.7704557 C49.8349608,36.4009997 47.6775507,33.0017571 45.811432,30.3923935"/>
      <polygon fill="#CECECE" points="23.684 109.415 23.684 79.099 12.018 78.844 18.662 109.415"/>
      <path fill="#1D67A5" d="M23.6617009,109.415165 L18.7040431,109.415165 C18.7040431,109.415165 15.7686676,112.710334 10.4894127,115.914709 L23.6135683,115.914709 L23.6617009,109.415165 Z"/>
      <polygon fill="#B2B2B2" points="35.862 109.415 35.862 79.099 47.528 78.844 40.884 109.415"/>
      <path fill="#0F5392" d="M35.884422,109.415165 L40.8424363,109.415165 C40.8424363,109.415165 43.7778118,112.710334 49.0567101,115.914709 L35.9325546,115.914709 L35.884422,109.415165 Z"/>
      <path fill="#DDD" d="M0.440431116,15.1017594 C-2.67036099,28.8013671 11.7170079,32.7148743 11.7170079,32.7148743 L13.4672519,25.8657881 C13.4672519,25.8657881 5.30111063,23.5169661 8.21758964,16.2756321 C10.5272414,10.5408458 21.0497408,9.23096033 21.0497408,9.23096033 L22.7996282,0.032693306 C22.7996282,0.032693306 3.55157976,1.40251053 0.440431116,15.1017594" transform="translate(0 41.628)"/>
      <path fill="#BCBBBB" d="M22.382479,15.1017594 C25.4939842,28.8013671 11.1059022,32.7148743 11.1059022,32.7148743 L9.35601477,25.8657881 C9.35601477,25.8657881 17.522156,23.5169661 14.6053205,16.2756321 C12.2956687,10.5408458 1.77316933,9.23096033 1.77316933,9.23096033 L0.0236384546,0.032693306 C0.0236384546,0.032693306 19.2716869,1.40251053 22.382479,15.1017594" transform="translate(36.723 41.628)"/>
      <path fill="#EDAB7E" d="M14.4152145,25.0835891 C15.2680529,27.3588423 14.4120057,29.7909228 12.5031024,30.5158457 C10.5941992,31.2404097 8.35514192,29.9839963 7.50194702,27.7083843 C6.64946519,25.43349 7.50586893,23.0014095 9.41441565,22.2768455 C11.3236754,21.5515637 13.5620196,22.808336 14.4152145,25.0835891"/>
      <path fill="#DD9868" d="M45.1241341,25.0835891 C44.2709392,27.3588423 45.1269864,29.7909228 47.0358897,30.5158457 C48.9451495,31.2404097 51.1838502,29.9839963 52.0370451,27.7083843 C52.8888138,25.43349 52.0338362,23.0014095 50.1245764,22.2768455 C48.2156732,21.5515637 45.977329,22.808336 45.1241341,25.0835891"/>
      <path fill="#CECECE" d="M11.6635273,76.5937409 C12.0792503,81.2127919 14.9001772,89.3143438 29.772794,89.3143438 L29.772794,76.5937409 L11.6635273,76.5937409 Z"/>
      <path fill="#B2B2B2" d="M47.8824173,76.5937409 C47.4666943,81.2127919 44.6464805,89.3143438 29.7731506,89.3143438 L29.7731506,76.5937409 L47.8824173,76.5937409 Z"/>
      <path fill="#EBEBEB" d="M29.7731506,79.3333036 L10.273743,79.3333036 C10.273743,79.3333036 6.50335601,39.628701 29.7731506,39.6103985 L29.7731506,79.3333036 Z"/>
      <path fill="#CECECE" d="M29.7731506,79.3333036 L49.2722016,79.3333036 C49.2722016,79.3333036 53.0436582,39.628701 29.7731506,39.6103985 L29.7731506,79.3333036 Z"/>
      <polygon fill="#D4D5D6" points="19.788 50.859 30.025 46.914 30.025 75.319 27.5 75.319"/>
      <path fill="#2F80BC" d="M18.8747177,40.1369725 L16.9815021,42.8895263 C16.9815021,42.8895263 18.6643604,47.3363184 29.8143663,48.1836169 L29.8143663,43.7368249 L18.8747177,40.1369725 Z"/>
      <path fill="#1A62A0" d="M38.4400848,41.4070231 C30.4457947,45.2186104 18.5591818,47.3359595 18.5591818,47.3359595 L19.787811,50.8590131 C36.1257981,47.9715231 42.4368732,42.6777914 42.4368732,42.6777914 L38.4400848,41.4070231 Z"/>
      <path fill="#FFC89F" d="M11.3398979,25.3948036 C12.0141109,41.6861902 23.2054751,45.141058 29.7818144,45.2562561 L29.7818144,6.81093794 C19.5088915,7.0036526 10.8913734,14.5528994 11.3398979,25.3948036"/>
      <path fill="#EDAB7E" d="M29.7818501,6.81086617 C40.0551296,7.00358083 48.6733607,14.5528276 48.2244797,25.3947318 C47.5499102,41.6864773 36.3581894,45.1413451 29.7818501,45.2561843 L29.7818501,6.81086617 Z"/>
      <path fill="#FFA788" d="M22.3452208,32.8053102 C22.3452208,34.8318645 20.7129908,36.4751428 18.6992655,36.4751428 C16.6862532,36.4751428 15.0540232,34.8318645 15.0540232,32.8053102 C15.0540232,30.7791147 16.6862532,29.1365542 18.6992655,29.1365542 C20.7129908,29.1365542 22.3452208,30.7791147 22.3452208,32.8053102"/>
      <path fill="#F29679" d="M44.50957,32.8053102 C44.50957,34.8318645 42.8780531,36.4751428 40.8643277,36.4751428 C38.8509589,36.4751428 37.2190855,34.8318645 37.2190855,32.8053102 C37.2190855,30.7791147 38.8509589,29.1365542 40.8643277,29.1365542 C42.8780531,29.1365542 44.50957,30.7791147 44.50957,32.8053102"/>
      <path fill="#FFC89F" d="M33.573558,27.9622868 C33.573558,29.0974012 32.6597517,30.017192 31.5320227,30.017192 L28.0322479,30.017192 C26.9045189,30.017192 25.9907126,29.0974012 25.9907126,27.9622868 C25.9907126,26.8271723 26.9045189,25.9073815 28.0322479,25.9073815 L31.5320227,25.9073815 C32.6597517,25.9073815 33.573558,26.8271723 33.573558,27.9622868"/>
      <path fill="#3F2411" d="M23.2506841 19.1282038C22.0726833 19.1160021 20.9232055 19.4074068 19.879976 19.9557643 19.0442514 20.3946657 19.8207907 21.6374419 20.6486714 21.2028471 21.4722737 20.7711232 22.3878627 20.5859448 23.3123652 20.5949166 24.2525553 20.6042473 24.1894481 19.1378933 23.2506841 19.1282038M36.5609524 19.1282038C37.7396663 19.1160021 38.8887876 19.4074068 39.9316606 19.9557643 40.7677416 20.3946657 39.9908458 21.6374419 39.1629651 21.2028471 38.3393628 20.7711232 37.4241304 20.5859448 36.4996279 20.5949166 35.5594378 20.6042473 35.6221884 19.1378933 36.5609524 19.1282038M23.9856868 24.733114C23.9856868 25.6658243 23.2348182 26.4205336 22.308533 26.4205336 21.3826044 26.4205336 20.6317359 25.6658243 20.6317359 24.733114 20.6317359 23.8007627 21.3826044 23.0456944 22.308533 23.0456944 23.2348182 23.0456944 23.9856868 23.8007627 23.9856868 24.733114M35.57837 24.733114C35.57837 25.6658243 36.3292385 26.4205336 37.2555237 26.4205336 38.1814523 26.4205336 38.9323208 25.6658243 38.9323208 24.733114 38.9323208 23.8007627 38.1814523 23.0456944 37.2555237 23.0456944 36.3292385 23.0456944 35.57837 23.8007627 35.57837 24.733114"/>
      <path fill="#4C2D18" d="M35.9500606,32.5810147 C35.8384643,32.4022961 35.6377335,32.2863802 35.4387854,32.2863802 C35.24162,32.2863802 35.07583,32.396913 34.9841997,32.5892688 C33.0510519,36.6434541 26.5128622,36.6506315 24.5800709,32.5892688 C24.4884407,32.396913 24.3226506,32.2863802 24.1251287,32.2863802 C23.9265371,32.2863802 23.7258064,32.4022961 23.6138535,32.5810147 C23.5065356,32.7529148 23.4958395,32.9578311 23.5846174,33.1448038 C25.8785815,37.9659001 33.6739234,37.9784606 35.9796532,33.1448038 C36.0687877,32.9578311 36.0580915,32.7529148 35.9500606,32.5810147"/>
      <path fill="#CECECE" d="M22.3596606,48.6065843 C22.3596606,49.2572206 21.8359066,49.7851224 21.188434,49.7851224 C20.542031,49.7851224 20.018277,49.2572206 20.018277,48.6065843 C20.018277,47.955948 20.542031,47.4291229 21.188434,47.4291229 C21.8359066,47.4291229 22.3596606,47.955948 22.3596606,48.6065843"/>
      <path fill="#3F2411" d="M11.8132731 21.7145996C11.8132731 21.7145996 11.2488738 23.0374045 11.4064635 25.5789412L17.8754849 15.4142299 11.8132731 21.7145996zM47.8928639 21.7145996C47.8928639 21.7145996 48.4576197 23.0374045 48.2996735 25.5789412L41.8306521 15.4142299 47.8928639 21.7145996z"/>
      <polygon fill="#0F5392" points="29.749 76.594 9.763 76.594 12.971 102.427 29.749 102.427"/>
      <polygon fill="#074A7C" points="29.749 76.594 49.735 76.594 46.818 102.427 29.749 102.427"/>
      <mask id="tit_info-b" fill="#fff">
        <use xlink:href="#tit_info-a"/>
      </mask>
      <polygon fill="#2B7BB7" points="9.763 76.579 29.749 76.579 29.749 73.401 9.763 73.401" mask="url(#tit_info-b)"/>
      <polygon fill="#1A62A0" points="29.749 76.579 49.735 76.579 49.735 73.401 29.749 73.401" mask="url(#tit_info-b)"/>
      <polygon fill="#1D67A5" points="9.763 78.164 29.749 78.164 29.749 75.319 9.763 75.319" mask="url(#tit_info-b)"/>
      <polygon fill="#0F5392" points="29.749 78.164 49.735 78.164 49.735 75.319 29.749 75.319" mask="url(#tit_info-b)"/>
      <path fill="#2B7BB7" d="M27.4647111,73.9645675 C20.9432786,76.9292152 23.0468515,94.8218919 23.0468515,94.8218919 L25.7818528,94.8218919 C24.8880126,81.322894 27.4486669,78.2441249 27.4486669,78.2441249 L27.4647111,73.9645675 Z" mask="url(#tit_info-b)"/>
      <path fill="#1A62A0" d="M32.0328513,73.9645675 C38.5546404,76.9292152 36.4507109,94.8218919 36.4507109,94.8218919 L33.7157096,94.8218919 C34.6099064,81.322894 32.0492521,78.2441249 32.0492521,78.2441249 L32.0328513,73.9645675 Z" mask="url(#tit_info-b)"/>
      <polygon fill="#54A3D3" points="27.449 78.244 29.844 78.244 29.844 73.337 27.449 73.337" mask="url(#tit_info-b)"/>
      <polygon fill="#2B7BB7" points="29.844 78.244 32.239 78.244 32.239 73.337 29.844 73.337" mask="url(#tit_info-b)"/>
      <path fill="#2F80BC" d="M11.4978085,22.3493019 C11.4978085,22.3493019 16.7706457,15.1495971 29.7821353,14.9457574 L29.7821353,0.00875649469 C29.7821353,0.00875649469 10.3725753,-1.12312811 11.4978085,22.3493019" mask="url(#tit_info-b)"/>
      <path fill="#1A62A0" d="M48.0669613,22.3493019 C48.0669613,22.3493019 43.699017,15.7840841 29.7822779,14.9457574 L29.7822779,0.00875649469 C29.7822779,0.00875649469 49.191838,-1.12312811 48.0669613,22.3493019" mask="url(#tit_info-b)"/>
    </g>
    <g transform="translate(346.633 13.83)">
      <path fill="#DDD" d="M12.9937659,49.9852853 C16.3796577,59.4599956 10.6105325,69.5072963 10.6105325,69.5072963 L7.96940118,71.6890693 C-5.92422112,60.5323077 10.4740824,42.8855928 10.4740824,42.8855928 L12.9937659,49.9852853 Z"/>
      <path fill="#BCBBBB" d="M30.1843017,49.9852853 L32.7032708,42.8855928 C32.7032708,42.8855928 49.1008599,60.5323077 35.2090236,71.6890693 L32.5678923,69.5072963 C32.5678923,69.5072963 27.1073873,61.6060487 30.1843017,49.9852853"/>
      <path fill="#4C2D18" d="M21.5885159,13.2105144 L4.50796178,13.2105144 C4.50796178,13.2105144 -0.588557216,24.7019717 0.0565446424,37.2532392 L21.5885159,37.2532392 L21.5885159,13.2105144 Z"/>
      <path fill="#4C2D18" d="M0.156560434,0.199888704 L16.8424093,0.199888704 C16.8424093,0.199888704 22.3329191,11.691346 21.6896032,24.2426135 L0.156560434,24.2426135 L0.156560434,0.199888704 Z" transform="translate(21.432 13.01)"/>
      <polygon fill="#FFC89F" points="9.926 69.347 14.11 104.748 18.938 104.748 17.972 70.473"/>
      <g transform="translate(5.358 102.31)">
        <mask id="tit_info-d" fill="#fff">
          <use xlink:href="#tit_info-c"/>
        </mask>
        <path fill="#1D67A5" d="M13.7751393,0.201281781 L8.71898382,0.201281781 C8.71898382,0.201281781 5.72529685,3.53859444 0.341946849,6.78696448 L13.7265602,6.78696448 L13.7751393,0.201281781 Z" mask="url(#tit_info-d)"/>
      </g>
      <polygon fill="#EDAB7E" points="33.251 69.347 29.068 104.748 24.24 104.748 25.206 70.473"/>
      <g transform="translate(23.932 102.31)">
        <mask id="tit_info-f" fill="#fff">
          <use xlink:href="#tit_info-e"/>
        </mask>
        <path fill="#0F5392" d="M0.111910527,0.201281781 L5.16806601,0.201281781 C5.16806601,0.201281781 8.16139578,3.53859444 13.5458174,6.78696448 L0.161561224,6.78696448 L0.111910527,0.201281781 Z" mask="url(#tit_info-f)"/>
      </g>
      <path fill="#EBEBEB" d="M10.528591,64.8620985 L21.5885516,64.8620985 L21.5885516,41.0136901 C21.5885516,41.0136901 13.4104746,40.3103648 9.87098715,42.8857714 C9.87098715,42.8857714 12.9918371,52.2501072 10.528591,64.8620985"/>
      <path fill="#CECECE" d="M32.6484407,64.8620985 C30.1851947,52.2501072 33.3614104,42.9761428 33.3614104,42.9761428 C29.8204942,40.4014506 21.5884801,41.0136901 21.5884801,41.0136901 L21.5884801,64.8620985 L32.6484407,64.8620985 Z"/>
      <mask id="tit_info-h" fill="#fff">
        <use xlink:href="#tit_info-g"/>
      </mask>
      <polygon fill="#1D67A5" points="13.831 63.323 21.545 63.323 21.545 52.18 13.831 52.18" mask="url(#tit_info-h)"/>
      <polygon fill="#0F5392" points="21.545 63.323 29.26 63.323 29.26 52.18 21.545 52.18" mask="url(#tit_info-h)"/>
      <polygon fill="#2B7BB7" points="9.718 42.794 14.366 55.422 17.516 54.624 13.131 41.336" mask="url(#tit_info-h)"/>
      <polygon fill="#2B7BB7" points="33.559 42.794 28.911 55.422 25.76 54.624 30.146 41.336" mask="url(#tit_info-h)"/>
      <path fill="#1D67A5" d="M9.71617699,66.7719358 C4.78539845,74.1941792 6.07345897,98.3319189 6.07345897,98.3319189 L21.5451876,98.3319189 L21.5451876,66.4697452 L9.71617699,66.7719358 Z" mask="url(#tit_info-h)"/>
      <path fill="#0F5392" d="M33.3743411,66.7719358 C38.3054768,74.1941792 37.0174163,98.3319189 37.0174163,98.3319189 L21.5453305,98.3319189 L21.5453305,66.4697452 L33.3743411,66.7719358 Z" mask="url(#tit_info-h)"/>
      <polygon fill="#2B7BB7" points="21.545 66.772 9.692 66.772 10.335 62.899 21.545 62.899" mask="url(#tit_info-h)"/>
      <polygon fill="#1D67A5" points="21.545 66.772 33.399 66.772 32.755 62.899 21.545 62.899" mask="url(#tit_info-h)"/>
      <path fill="#EDAB7E" d="M8.32363569,24.5644857 C9.10483046,26.6358842 8.32006369,28.8498052 6.57157333,29.5095523 C4.82093977,30.1692993 2.76990164,29.0255473 1.98870686,26.954506 C1.20751209,24.8827503 1.99120726,22.6691865 3.74112642,22.0090823 C5.48997398,21.348978 7.54136931,22.4930873 8.32363569,24.5644857" mask="url(#tit_info-h)"/>
      <path fill="#DD9868" d="M34.8540747,24.5644857 C34.0725227,26.6358842 34.8572895,28.8498052 36.6057799,29.5095523 C38.355699,30.1692993 40.4067372,29.0255473 41.1886463,26.954506 C41.9698411,24.8827503 41.1861459,22.6691865 39.4369412,22.0090823 C37.687022,21.348978 35.6356267,22.4930873 34.8540747,24.5644857" mask="url(#tit_info-h)"/>
      <path fill="#FFC89F" d="M4.68888321,24.2694034 C5.30755232,39.1013882 15.5620286,42.2465276 21.5883373,42.3504726 L21.5883373,6.19404944 C12.1754224,6.36979147 4.27846126,14.3985592 4.68888321,24.2694034" mask="url(#tit_info-h)"/>
      <path fill="#EDAB7E" d="M21.5881587,6.19422804 C31.0021451,6.36961287 38.8998206,14.3987378 38.4883271,24.269582 C37.8703724,39.1015668 27.6155389,42.2467062 21.5881587,42.3506512 L21.5881587,6.19422804 Z" mask="url(#tit_info-h)"/>
      <path fill="#FFA788" d="M14.7738327,31.0160758 C14.7738327,32.8606528 13.2782394,34.3566033 11.4329481,34.3566033 C9.5883711,34.3566033 8.09313501,32.8606528 8.09313501,31.0160758 C8.09313501,29.1707845 9.5883711,27.6759056 11.4329481,27.6759056 C13.2782394,27.6759056 14.7738327,29.1707845 14.7738327,31.0160758" mask="url(#tit_info-h)"/>
      <path fill="#F29679" d="M35.0846468,31.0160758 C35.0846468,32.8606528 33.5890535,34.3566033 31.743405,34.3566033 C29.898828,34.3566033 28.4032347,32.8606528 28.4032347,31.0160758 C28.4032347,29.1707845 29.898828,27.6759056 31.743405,27.6759056 C33.5890535,27.6759056 35.0846468,29.1707845 35.0846468,31.0160758" mask="url(#tit_info-h)"/>
      <path fill="#FFC89F" d="M24.095876,29.8171365 C24.095876,30.8497996 23.4911377,31.6874319 22.74602,31.6874319 L20.4313689,31.6874319 C19.685894,31.6874319 19.0822273,30.8497996 19.0822273,29.8171365 C19.0822273,28.7837591 19.685894,27.9457696 20.4313689,27.9457696 L22.74602,27.9457696 C23.4911377,27.9457696 24.095876,28.7837591 24.095876,29.8171365" mask="url(#tit_info-h)"/>
      <path fill="#3F2411" d="M14.9524323 19.7517258C13.8747622 19.6777856 12.8074508 19.8799604 11.8240812 20.3228874 11.0368141 20.6768719 11.6808443 21.8488427 12.4616819 21.4977158 13.2378759 21.1487321 14.0847953 21.0294276 14.930286 21.0876511 15.7904218 21.1469461 15.810425 19.8106637 14.9524323 19.7517258M28.2148478 19.7649779C29.2918036 19.6813933 30.3601866 19.8742809 31.3481997 20.3061348 32.1397533 20.6529753 31.5057246 21.8306612 30.7227438 21.4870355 29.9426206 21.1459103 29.0939152 21.0351785 28.2498534 21.1012603 27.3900747 21.168771 27.3568552 19.8324886 28.2148478 19.7649779M16.2772487 25.6755183C16.2772487 26.5231522 15.5889257 27.2118323 14.7409347 27.2118323 13.8915148 27.2118323 13.2039063 26.5231522 13.2039063 25.6755183 13.2039063 24.8264557 13.8915148 24.1381327 14.7409347 24.1381327 15.5889257 24.1381327 16.2772487 24.8264557 16.2772487 25.6755183M26.9001045 25.6755183C26.9001045 26.5231522 27.5877131 27.2118323 28.4371329 27.2118323 29.285124 27.2118323 29.9738041 26.5231522 29.9738041 25.6755183 29.9738041 24.8264557 29.285124 24.1381327 28.4371329 24.1381327 27.5877131 24.1381327 26.9001045 24.8264557 26.9001045 25.6755183" mask="url(#tit_info-h)"/>
      <path fill="#4C2D18" d="M27.5356692 32.904624C27.4281522 32.7335256 27.2338358 32.6217222 27.042377 32.6217222 26.8527042 32.6217222 26.6930361 32.7281676 26.6044507 32.9128396 24.740585 36.7948811 18.4367325 36.8016679 16.5725096 32.9128396 16.485353 32.7281676 16.3249705 32.6217222 16.1345833 32.6217222 15.9420529 32.6217222 15.7491653 32.7335256 15.6416483 32.904624 15.5377033 33.0685785 15.5277017 33.2661097 15.6127152 33.4447093 17.8248502 38.0622241 25.3413941 38.0740117 27.5638879 33.4447093 27.6496157 33.2661097 27.6396141 33.0685785 27.5356692 32.904624M4.24692057 21.9172463L4.88094925 25.7596387C4.88094925 25.7596387 6.59121929 17.0146865 12.9486517 14.8636326 12.9486517 14.8636326 26.6004501 23.608942 39.0177678 24.2694034 39.0177678 24.2694034 43.4031031 3.00890366 20.9806342 3.17535852-.437033291 3.33574098 4.24692057 21.9172463 4.24692057 21.9172463" mask="url(#tit_info-h)"/>
      <path fill="#1D67A5" d="M5.78627076,29.7006539 C5.78627076,30.677951 4.99328841,31.4705762 4.01599125,31.4705762 C3.03869408,31.4705762 2.24678333,30.677951 2.24678333,29.7006539 C2.24678333,28.7244283 3.03869408,27.9307315 4.01599125,27.9307315 C4.99328841,27.9307315 5.78627076,28.7244283 5.78627076,29.7006539" mask="url(#tit_info-h)"/>
      <path fill="#0F5392" d="M40.8668098,29.7006539 C40.8668098,30.677951 40.0738274,31.4705762 39.0965303,31.4705762 C38.1188759,31.4705762 37.3262508,30.677951 37.3262508,29.7006539 C37.3262508,28.7244283 38.1188759,27.9307315 39.0965303,27.9307315 C40.0738274,27.9307315 40.8668098,28.7244283 40.8668098,29.7006539" mask="url(#tit_info-h)"/>
      <path fill="#DDD" d="M16.3111112,53.8537889 C16.3111112,54.323506 15.9303367,54.7046376 15.4599053,54.7046376 C14.9905455,54.7046376 14.6094139,54.323506 14.6094139,53.8537889 C14.6094139,53.3840719 14.9905455,53.0029403 15.4599053,53.0029403 C15.9303367,53.0029403 16.3111112,53.3840719 16.3111112,53.8537889" mask="url(#tit_info-h)"/>
      <path fill="#CECECE" d="M28.7080686,53.8537889 C28.7080686,54.323506 28.3272942,54.7046376 27.8572199,54.7046376 C27.3875029,54.7046376 27.0063713,54.323506 27.0063713,53.8537889 C27.0063713,53.3840719 27.3875029,53.0029403 27.8572199,53.0029403 C28.3272942,53.0029403 28.7080686,53.3840719 28.7080686,53.8537889" mask="url(#tit_info-h)"/>
      <polygon fill="#EBEBEB" points="6.368 .83 3.067 16.647 21.483 16.647 21.483 .83" mask="url(#tit_info-h)"/>
      <polygon fill="#CECECE" points="21.483 .83 21.483 16.647 40.15 16.647 36.849 .83" mask="url(#tit_info-h)"/>
      <path fill="#1A62A0" d="M6.70159386,1.99049286 C6.74624377,1.98620647 6.80482445,1.99049286 6.85554674,1.99049286 C11.6252284,1.99049286 15.5358459,2.58915881 18.7427808,3.54788162 L19.2039251,3.54788162 C16.9321378,4.70092082 14.8128746,6.2018721 13.0015172,8.14825085 C9.17984231,12.2542563 8.5579584,16.3577614 8.53402605,16.5302886 C8.52831086,16.5688661 8.52831086,16.6081581 8.52902526,16.6470928 L10.1964314,16.6470928 C10.4711176,15.2368701 13.7230597,1.65829755 36.4462904,1.65829755 C36.4966555,1.65829755 36.5555934,1.65508276 36.5998861,1.65829755 C37.0567439,1.65829755 37.427874,1.28823912 37.4289455,0.83173847 C37.4300171,0.373094624 37.0603159,0.00196459591 36.6016721,0.000535798886 C32.0220204,-0.020181758 26.6229536,0.532405493 21.4835707,2.62702194 C16.5792249,0.806377323 11.0258481,0.31272795 6.69837907,0.33165951 C6.24152122,0.332373909 5.87181999,0.704932734 5.87289158,1.16286218 C5.87396318,1.62007723 6.24437881,1.99049286 6.70159386,1.99049286" mask="url(#tit_info-h)"/>
      <path fill="#2F80BC" d="M21.4834993,2.50325239 C21.3774111,2.54540191 21.5892303,2.58397943 21.4834993,2.62720054 C16.5795107,0.806198723 11.0261338,0.31254935 6.69830763,0.33183811 C6.24144978,0.332552508 5.87174855,0.705111333 5.87282014,1.16268358 C5.87389174,1.61989863 6.24430737,1.99031426 6.70152242,1.99031426 C6.74617233,1.98638507 6.80475301,1.99031426 6.8554753,1.99031426 C11.625157,1.99031426 15.5361316,2.58898021 18.7427094,3.54806022 L19.2038536,3.54806022 C16.9320663,4.70074222 14.8128031,6.2016935 13.0014457,8.14842945 C9.18012807,12.2544349 8.55788696,16.3575828 8.53395461,16.5304672 C8.52823942,16.5686875 8.52823942,16.6079795 8.52895382,16.6472714 L10.19636,16.6472714 C10.3935339,15.6328255 12.0737992,8.32702908 21.4834993,4.30175065 L21.4834993,2.50325239 Z" mask="url(#tit_info-h)"/>
    </g>
    <path fill="#000" d="M148.517349,68.1400847 C149.736105,68.2572728 150.345474,68.8314858 150.345474,69.862741 C150.228286,70.5893071 150.122818,71.2689878 150.029068,71.9018035 C150.872822,71.7143025 151.599377,71.6088349 152.208755,71.5853972 C153.052509,71.6791477 153.47438,72.054144 153.47438,72.7103972 C153.404067,73.2260248 153.017352,73.5189906 152.314224,73.5893035 C151.353282,73.7533668 150.497821,73.8939904 149.747818,74.0111785 C149.654067,74.8314951 149.583755,75.5346131 149.53688,76.1205535 C150.732199,75.9096149 152.044685,75.6986795 153.47438,75.487741 C154.622823,75.487741 155.197036,75.8393 155.197036,76.5424285 C155.197036,77.245557 154.493918,77.6557092 153.087661,77.7728972 C152.759535,77.8197725 152.443132,77.866647 152.138443,77.9135222 C152.396256,78.1478984 152.548599,78.4525829 152.595474,78.8275847 C152.595474,79.5775885 152.232196,80.3392996 151.50563,81.112741 C151.318129,81.3236795 151.14235,81.4877404 150.978286,81.6049285 C151.564227,81.5346156 152.068128,81.4877411 152.490005,81.4643035 C153.380635,81.5346163 153.825943,81.9213312 153.825943,82.6244597 C153.75563,83.1400873 153.357196,83.4330531 152.63063,83.503366 C151.482187,83.7377422 150.462666,83.9252403 149.572036,84.065866 C149.642349,84.2533669 149.689224,84.440865 149.712661,84.628366 C149.642349,84.8158669 149.583755,85.2846122 149.53688,86.034616 C151.154076,85.8236774 152.478281,85.6947725 153.509536,85.6478972 C154.400166,85.7182101 154.845474,86.104925 154.845474,86.8080535 C154.728286,87.3236811 154.318134,87.6166469 153.615005,87.6869597 C152.021247,87.8510231 150.638448,88.0033653 149.466568,88.143991 C149.44313,89.245559 149.431411,90.5346086 149.431411,92.0111785 C149.290786,93.6049365 148.880634,94.4721153 148.200943,94.612741 C147.474376,94.4721153 147.09938,93.6400924 147.075943,92.1166472 C147.193131,90.8744535 147.263443,89.6322784 147.28688,88.3900847 C145.575934,88.5541481 144.32204,88.6596158 143.525161,88.706491 C142.048591,88.706491 141.240006,88.3432134 141.09938,87.6166472 C141.357194,87.3353958 143.431392,86.913525 147.322036,86.3510222 L147.322036,86.1049285 C147.322036,85.3783624 147.240006,84.8393052 147.075943,84.487741 C146.115,84.6049291 145.388445,84.6869595 144.896255,84.7338347 C143.443123,84.7338347 142.634537,84.3705571 142.470474,83.643991 C142.70485,83.3158643 144.638424,82.8119631 148.271255,82.1322722 C149.513449,80.3744509 150.134536,79.1439945 150.134536,78.440866 L150.134536,78.159616 C148.001713,78.464305 145.939234,78.8041454 143.947036,79.1791472 C142.540779,79.1791472 141.76735,78.8510255 141.626724,78.1947722 C141.650161,77.7963327 143.607173,77.245557 147.497818,76.5424285 C147.521255,75.7455495 147.544693,75.0189943 147.56813,74.362741 C146.841564,74.4799291 146.290788,74.5502409 145.915786,74.5736785 C144.486092,74.5736785 143.712662,74.2338381 143.595474,73.5541472 C143.759537,73.2728958 145.095461,72.8861809 147.603286,72.393991 L147.603286,70.6361785 C147.509536,69.8158619 147.228289,69.2885234 146.759536,69.0541472 C147.204851,68.4447692 147.790783,68.1400847 148.517349,68.1400847 Z M147.462661,79.143991 C147.650162,79.143991 147.743911,79.3432077 147.743911,79.7416472 C147.720474,80.2572748 147.509538,80.7963319 147.111099,81.3588347 C146.736097,81.8275871 146.302508,82.085397 145.810318,82.1322722 C144.779062,82.0385218 144.216568,81.4174342 144.122818,80.268991 C144.122818,79.9877396 144.251723,79.847116 144.509536,79.847116 C144.814225,79.847116 145.130628,79.8705533 145.458755,79.9174285 C146.115008,79.8471156 146.78297,79.5893057 147.462661,79.143991 Z M155.654068,71.4447722 C156.990012,71.4916475 157.657974,73.9994349 157.657974,78.9682097 C157.657974,88.812009 157.154073,93.7338347 156.146255,93.7338347 C155.349376,93.7338347 154.857194,92.7846255 154.669693,90.8861785 C155.302508,85.4955265 155.654067,80.4330772 155.72438,75.6986785 C155.72438,73.4721049 155.572038,72.1947739 155.267349,71.8666472 C155.267349,71.5853958 155.396254,71.4447722 155.654068,71.4447722 Z M164.302505,79.4603972 C165.310323,79.4603972 165.814224,79.9877357 165.814224,81.0424285 C165.532972,83.3627526 164.78298,85.3900761 163.564224,87.1244597 C164.665792,87.9447763 165.62672,88.5893011 166.447036,89.0580535 C167.712668,89.7846196 168.685314,90.2885208 169.365005,90.5697722 C169.552506,90.8041484 169.646255,91.0268024 169.646255,91.237741 C169.458754,91.8236814 168.556419,92.2572708 166.939224,92.5385222 C165.087652,92.5385222 163.728291,91.7533738 162.861099,90.1830535 C162.626723,89.784614 162.39235,89.4096177 162.157974,89.0580535 C160.775154,90.8861876 159.556417,91.800241 158.501724,91.800241 C157.892346,91.800241 157.587661,91.6478988 157.587661,91.3432097 C157.587661,91.1791464 157.716566,91.0385228 157.97438,90.9213347 C159.216574,89.679141 160.236095,88.4838405 161.032974,87.3353972 C160.072032,85.9291402 159.392351,85.0502427 158.993911,84.6986785 C158.361096,84.4408647 157.939225,84.2650852 157.728286,84.1713347 C157.939225,83.4682062 158.361096,83.1166472 158.993911,83.1166472 C159.79079,83.4682115 160.798593,84.3236717 162.017349,85.6830535 C162.720477,84.3471093 163.142348,83.0697783 163.282974,81.8510222 C163.282974,81.7103965 163.189225,81.6400847 163.001724,81.6400847 C161.806405,81.8041481 160.657979,82.061958 159.556411,82.4135222 C158.525156,82.366647 157.962662,82.1205557 157.868911,81.675241 C157.868911,81.5111777 158.009535,81.40571 158.290786,81.3588347 C160.470485,80.0932034 162.474371,79.4603972 164.302505,79.4603972 Z M161.700943,69.1947722 C164.161892,69.2416475 165.415786,70.3197617 165.462661,72.4291472 C165.462661,74.5385328 165.122821,76.061955 164.44313,76.9994597 C163.880627,78.0072773 162.990011,78.5346158 161.771255,78.581491 C160.74,78.581491 160.118912,77.8666544 159.907974,76.4369597 C159.907974,76.1791459 160.060316,76.050241 160.365005,76.050241 C160.552506,76.0971162 160.77516,76.1205535 161.032974,76.1205535 C162.204855,76.026803 162.84938,75.101031 162.966568,73.3432097 C162.966568,72.6869565 162.837663,72.0893062 162.579849,71.550241 C162.486098,71.1752391 162.111102,70.987741 161.454849,70.987741 C160.892346,71.1049291 160.365008,71.233834 159.872818,71.3744597 C159.661879,71.4682102 159.404069,71.5502406 159.09938,71.6205535 C158.888442,71.714304 158.654069,71.7611785 158.396255,71.7611785 C157.318125,71.5971152 156.779068,71.3744611 156.779068,71.0932097 C156.779068,70.9291464 156.884535,70.7768042 157.095474,70.6361785 C158.126729,70.0268004 159.66187,69.5463365 161.700943,69.1947722 Z M187.189224,85.472116 C187.798602,85.472116 188.384534,86.0580476 188.947036,87.2299285 C189.20485,88.2143084 189.497816,89.2103922 189.825943,90.2182097 C189.990006,90.5463364 190.107192,90.8275836 190.177505,91.0619597 C191.021259,90.8744588 192.228279,90.6518048 193.798599,90.393991 C194.47829,90.2768029 195.07594,90.1713352 195.591568,90.0775847 C195.708756,89.5619572 195.943128,88.9994628 196.294693,88.3900847 C196.693132,87.45258 196.892349,86.3275913 196.892349,85.0150847 C196.868911,84.6635205 196.728288,84.487741 196.470474,84.487741 C195.579844,84.5814915 194.50173,84.7572709 193.236099,85.0150847 C192.251719,85.3900866 191.279072,85.5775847 190.31813,85.5775847 C188.677497,85.5307095 187.763444,85.2143064 187.575943,84.628366 C185.068118,86.4096249 182.806421,87.3588342 180.790786,87.4760222 C179.923595,87.4525846 179.466568,87.2416492 179.419693,86.8432097 C179.419693,86.6322712 179.911875,86.3393054 180.896255,85.9643035 C183.943145,84.6517969 186.614994,82.8236902 188.91188,80.4799285 C188.349377,80.386178 187.892351,80.163524 187.540786,79.8119597 C186.954846,79.2494569 186.626724,78.6518067 186.556411,78.018991 C186.556411,77.7377396 186.767347,77.597116 187.189224,77.597116 C189.415798,77.6908665 190.529068,78.1478931 190.529068,78.9682097 L190.529068,79.0385222 C192.872829,76.8353862 194.115004,75.0893099 194.25563,73.800241 C194.25563,73.4721143 194.103288,73.3080535 193.798599,73.3080535 C192.368904,73.3080535 190.95095,73.5307075 189.544693,73.9760222 L189.404068,73.9760222 L188.419693,75.1010222 C186.099369,77.8197858 184.294699,79.1791472 183.00563,79.1791472 C182.677503,79.1088344 182.513443,78.9213363 182.513443,78.6166472 C182.607193,78.2885206 183.7439,76.9291592 185.923599,74.5385222 C187.704858,72.288511 188.689223,70.4955602 188.876724,69.159616 C188.876724,68.8080517 188.818131,68.5150859 188.700943,68.2807097 C188.700943,67.9760207 189.204844,67.8236785 190.212661,67.8236785 C191.384542,67.8236785 191.970474,68.351017 191.970474,69.4057097 C191.970474,70.1557135 191.501729,71.1752345 190.564224,72.4643035 C191.009539,72.3471154 191.466565,72.2299291 191.935318,72.112741 C193.130636,71.5502382 194.443123,71.268991 195.872818,71.268991 C197.068136,71.5033672 197.665786,72.018987 197.665786,72.815866 C197.220472,74.3861863 194.982213,77.4213122 190.950943,81.9213347 C190.200939,82.6244633 189.474384,83.2455508 188.771255,83.784616 C189.380633,83.597115 190.165782,83.4096169 191.126724,83.222116 C193.189234,82.729926 194.958748,82.4603975 196.435318,82.4135222 C198.685329,82.6244608 199.868911,83.4564837 199.986099,84.909616 C199.986099,86.3861859 199.564228,87.7924218 198.720474,89.128366 C198.509535,89.5971183 198.2986,89.9721146 198.087661,90.253366 C198.39235,90.4877422 198.544693,90.780708 198.544693,91.1322722 C198.450942,91.6713374 198.017353,91.9877405 197.243911,92.081491 C194.361084,92.38618 192.450947,92.5619595 191.513443,92.6088347 C191.115003,92.6088347 190.751726,92.5853975 190.423599,92.5385222 C190.353286,93.0307122 190.142351,93.3002408 189.790786,93.347116 C189.181408,93.347116 188.560321,92.8314961 187.927505,91.800241 C187.294689,90.8158611 186.896256,89.5502487 186.732193,88.003366 C186.732193,86.4330456 186.884535,85.5893041 187.189224,85.472116 Z M223.22438,72.3588347 C223.646257,72.3588347 223.857193,72.5580515 223.857193,72.956491 C223.810317,73.5424314 223.095481,74.5736711 221.712661,76.050241 C220.517343,77.2924347 219.591571,77.9135222 218.935318,77.9135222 C217.060308,77.7963342 216.087662,77.3393075 216.017349,76.5424285 C216.017349,76.1205514 216.404064,75.8510228 217.177505,75.7338347 C218.443136,75.3822705 220.458741,74.2572817 223.22438,72.3588347 Z M227.583755,65.643991 C228.52126,65.643991 228.990005,66.0775804 228.990005,66.9447722 C228.990005,67.6244631 228.439229,68.7025774 227.337661,70.1791472 C226.236093,71.72603 225.380633,72.4994597 224.771255,72.4994597 C224.490004,72.4525845 224.34938,72.3002423 224.34938,72.0424285 C224.396255,71.8783652 224.78297,71.1283727 225.509536,69.7924285 C226.072039,68.5267972 226.388442,67.5189947 226.458755,66.768991 C226.458755,66.4877396 226.411881,66.2533669 226.31813,66.065866 C226.31813,65.7846146 226.740001,65.643991 227.583755,65.643991 Z M228.462661,70.565866 C229.376728,70.7768045 229.892348,71.4916411 230.009536,72.7103972 C231.532981,74.0932167 232.880624,75.00727 234.052505,75.4525847 C234.825946,75.8275866 235.634532,76.1791456 236.478286,76.5072722 C237.673605,76.8353989 238.271255,77.0932088 238.271255,77.2807097 C238.107192,77.9604006 237.052515,78.4057087 235.107193,78.6166472 C234.099375,78.6166472 233.337664,78.4760236 232.822036,78.1947722 C232.376722,77.7963327 231.931414,77.3393061 231.486099,76.8236785 C230.736095,75.933049 230.032977,75.1479006 229.376724,74.4682097 C229.02516,75.124463 228.544696,75.6752388 227.935318,76.1205535 C227.021251,76.9643077 225.943136,77.4682089 224.700943,77.6322722 C223.786876,77.6322722 223.329849,77.4447741 223.329849,77.0697722 C223.329849,76.9760218 223.470472,76.8705541 223.751724,76.753366 C224.829854,76.2846136 225.72047,75.6869634 226.423599,74.9603972 C227.501729,73.9994549 228.064224,73.0619643 228.111099,72.1478972 C228.111099,71.3978935 228.01735,70.99946 227.829849,70.9525847 C227.900162,70.7416462 228.111097,70.6127412 228.462661,70.565866 Z M228.743911,78.300241 C231.298612,78.5111795 232.622817,79.612731 232.716568,81.6049285 C232.716568,85.6361986 232.6111,87.6518035 232.400161,87.6518035 C232.259536,88.7768091 231.872821,89.3627408 231.240005,89.409616 C230.536877,89.409616 230.185318,89.1283688 230.185318,88.565866 C230.208755,86.7846071 230.220474,84.4291619 230.220474,81.4994597 C230.173599,80.6088303 229.529074,80.140085 228.28688,80.0932097 C227.255625,80.2807107 226.35329,80.5033647 225.579849,80.7611785 C224.197029,80.6439904 223.50563,80.2689942 223.50563,79.6361785 C223.716569,79.4018023 224.173595,79.1674297 224.876724,78.9330535 C225.814229,78.6049268 227.103278,78.3939915 228.743911,78.300241 Z M227.970474,84.768991 C228.650165,84.8158662 228.990005,85.108832 228.990005,85.6478972 C228.919692,86.0463367 228.603289,86.2689908 228.040786,86.315866 C226.892343,86.5033669 226.142351,86.6088346 225.790786,86.6322722 C224.642343,86.6322722 224.032974,86.3627437 223.962661,85.8236785 C224.032974,85.6830528 224.806404,85.4252429 226.282974,85.050241 C226.986102,84.8861777 227.548597,84.7924286 227.970474,84.768991 Z M228.00563,81.815866 C228.685321,81.8861788 229.025161,82.1908633 229.025161,82.7299285 C228.954849,83.1049304 228.638445,83.3275844 228.075943,83.3978972 C226.950937,83.5619606 226.212663,83.6557096 225.861099,83.6791472 C224.712656,83.6791472 224.103287,83.4096187 224.032974,82.8705535 C224.103287,82.7299278 224.876716,82.4838365 226.353286,82.1322722 C227.032977,81.9447713 227.583753,81.8393036 228.00563,81.815866 Z M229.271255,90.6049285 C232.247833,90.7689918 233.736099,91.8822619 233.736099,93.9447722 C233.712661,94.7182136 233.337665,95.1400844 232.611099,95.2103972 C231.603281,95.0932092 230.806414,94.6713384 230.220474,93.9447722 C229.37672,93.0072675 228.896256,92.0111838 228.779068,90.956491 C228.779068,90.7221148 228.943128,90.6049285 229.271255,90.6049285 Z M234.087661,67.0853972 C235.28298,67.2728982 235.88063,67.9877348 235.88063,69.2299285 C235.716567,70.3549341 234.615015,71.2103943 232.575943,71.7963347 C232.200941,71.7963347 232.013443,71.6791484 232.013443,71.4447722 C232.505633,70.6713309 232.822036,70.0736806 232.962661,69.6518035 C232.962661,69.3236768 232.798601,69.159616 232.470474,69.159616 C232.306411,69.159616 231.755635,69.3471141 230.81813,69.722116 C230.560316,69.8627417 230.314225,69.9330535 230.079849,69.9330535 C229.212657,69.9330535 228.75563,69.6869622 228.708755,69.1947722 C228.708755,69.0775842 229.376717,68.7143065 230.712661,68.1049285 C232.306419,67.4252376 233.431408,67.0853972 234.087661,67.0853972 Z M221.607193,67.8588347 C222.568135,67.9525852 223.048599,68.374456 223.048599,69.1244597 C222.954848,69.6869625 222.521259,70.0150843 221.747818,70.1088347 C220.599374,70.460399 219.837663,70.6596158 219.462661,70.706491 C217.822028,70.706491 216.943131,70.3080575 216.825943,69.5111785 C216.919693,69.2768023 217.857184,68.8783688 219.638443,68.315866 C220.458759,68.0580522 221.115003,67.90571 221.607193,67.8588347 Z M221.782974,79.847116 C222.790791,79.847116 223.388442,80.7494507 223.575943,82.5541472 C223.575943,84.2650933 223.517349,85.9877323 223.400161,87.722116 C223.400161,88.4955574 223.75172,88.8822722 224.454849,88.8822722 C224.64235,88.8822722 224.853285,88.858835 225.087661,88.8119597 C225.064224,88.6478964 225.040786,88.5072728 225.017349,88.3900847 C225.20485,87.9916452 225.568127,87.7924285 226.107193,87.7924285 C227.349386,88.190868 227.970474,88.7299251 227.970474,89.409616 C227.970474,89.9721188 227.279075,90.9213281 225.896255,92.2572722 C223.458743,94.3432202 221.911883,95.3861785 221.25563,95.3861785 C220.599377,95.3861785 220.271255,95.0346195 220.271255,94.331491 C220.294693,94.2611781 220.634533,94.0150868 221.290786,93.5932097 C222.509542,92.6791427 223.435314,91.8471197 224.06813,91.097116 C223.833754,91.1205536 223.599381,91.1322722 223.365005,91.1322722 C222.169687,91.1322722 221.431413,90.0424394 221.150161,87.862741 C221.267349,86.6205473 221.384536,84.077604 221.501724,80.2338347 C221.548599,80.0228962 221.642348,79.8939912 221.782974,79.847116 Z M257.185318,68.2807097 C258.661888,68.5150859 259.447036,69.3002343 259.540786,70.6361785 C259.540786,71.5736832 259.001729,72.0424285 257.923599,72.0424285 C256.306403,71.643989 255.13454,70.6127493 254.407974,68.9486785 C254.806413,68.5033638 255.732185,68.2807097 257.185318,68.2807097 Z M260.63063,73.4135222 C261.380634,73.4135222 261.75563,73.835393 261.75563,74.6791472 C261.75563,75.1010243 261.544695,75.3939902 261.122818,75.5580535 C260.466564,75.7924297 259.587667,75.9330533 258.486099,75.9799285 C257.618907,76.1439918 256.798603,76.3080527 256.025161,76.472116 C253.540774,77.0580564 251.865009,77.3627409 250.997818,77.3861785 C249.732186,77.3861785 248.935319,76.9525891 248.607193,76.0853972 C248.490005,75.6869577 248.677503,75.487741 249.169693,75.487741 C249.497819,75.487741 249.814222,75.5111783 250.118911,75.5580535 C251.079854,75.5580535 253.130614,75.0775895 256.271255,74.1166472 C257.747825,73.6478949 259.200935,73.4135222 260.63063,73.4135222 Z M258.345474,77.737741 C259.001727,77.737741 259.329849,78.0307068 259.329849,78.6166472 C259.329849,79.8822786 257.829864,80.5150847 254.829849,80.5150847 C253.447029,80.3978967 252.638444,80.0580563 252.404068,79.4955535 C252.427505,79.4721159 252.509536,79.4018041 252.650161,79.284616 C254.689234,78.6049251 256.587653,78.0893052 258.345474,77.737741 Z M258.345474,81.3236785 C259.001727,81.3236785 259.329849,81.6283629 259.329849,82.237741 C259.329849,83.339309 257.923613,83.8900847 255.111099,83.8900847 C253.704842,83.7260214 252.896256,83.3744624 252.685318,82.8353972 C252.708755,82.788522 252.790786,82.7182102 252.931411,82.6244597 C254.876734,82.0385193 256.681403,81.6049299 258.345474,81.3236785 Z M252.157974,87.1947722 C252.767352,87.1947722 253.365002,87.7807039 253.950943,88.9525847 C254.115006,89.5619628 254.302504,90.1596131 254.513443,90.7455535 C254.607193,90.9096168 254.677505,91.0385218 254.72438,91.1322722 C255.240008,90.9916465 255.861095,90.8275857 256.587661,90.6400847 C256.89235,90.5697719 257.161879,90.4994601 257.396255,90.4291472 C257.419693,90.1478958 257.513442,89.8080555 257.677505,89.409616 C257.841568,88.917426 257.923599,88.3080571 257.923599,87.581491 C257.900161,87.276802 257.794694,87.1244597 257.607193,87.1244597 C257.349379,87.171335 257.056413,87.2533654 256.728286,87.3705535 C256.423597,87.5580544 256.14235,87.6518035 255.884536,87.6518035 C254.314216,87.6049283 253.517349,87.2650879 253.493911,86.6322722 C253.493911,86.4213337 254.032968,86.1635238 255.111099,85.8588347 C256.048604,85.5541457 256.868908,85.3783662 257.572036,85.331491 C259.493921,85.5189919 260.501723,86.2338285 260.595474,87.4760222 C260.595474,88.3666517 260.325945,89.2221119 259.78688,90.0424285 C259.669692,90.2299294 259.564224,90.3822717 259.470474,90.4994597 C259.728288,90.7103983 259.857193,90.9799268 259.857193,91.3080535 C259.78688,91.7768058 259.423602,92.0463344 258.767349,92.1166472 C257.314217,92.3978986 256.365007,92.5619595 255.919693,92.6088347 C255.497816,92.6088347 255.146257,92.5736788 254.865005,92.503366 C254.771255,92.8783679 254.572038,93.0775846 254.267349,93.1010222 C253.751721,93.1010222 253.224383,92.7729005 252.685318,92.1166472 C252.16969,91.4838316 251.841568,90.6986832 251.700943,89.7611785 C251.700943,88.1674205 251.853285,87.3119603 252.157974,87.1947722 Z M270.052505,70.7416472 C272.536893,70.7416472 273.779068,72.0541341 273.779068,74.6791472 C273.310315,75.6400895 272.958756,77.8197552 272.72438,81.2182097 C272.72438,86.5854241 273.450935,89.268991 274.904068,89.268991 C275.325945,89.268991 275.630629,89.0697742 275.81813,88.6713347 C276.005631,88.2963329 276.169692,88.1088347 276.310318,88.1088347 C277.013446,88.4838366 277.365005,89.3392968 277.365005,90.675241 C277.365005,92.3158742 276.732199,93.1361785 275.466568,93.1361785 C274.177499,93.0893033 272.982198,91.9291586 271.88063,89.6557097 C270.990001,87.8978884 270.544693,85.8002532 270.544693,83.362741 C270.638443,78.9799066 270.732192,76.3666515 270.825943,75.5228972 C270.779067,74.1869531 270.181417,73.3314929 269.032974,72.956491 C268.564222,72.956491 267.80251,73.1088332 266.747818,73.4135222 C266.13844,73.6010232 265.200949,73.7416468 263.935318,73.8353972 C262.622811,73.8353972 261.966568,73.5893059 261.966568,73.097116 C262.294694,72.5111756 263.583744,71.9135253 265.833755,71.3041472 C267.404075,70.9291454 268.810311,70.7416472 270.052505,70.7416472 Z M265.271255,74.9955535 C266.30251,74.9955535 266.853286,75.5346106 266.923599,76.612741 C266.829848,76.8236795 266.771255,78.0306987 266.747818,80.2338347 C267.146257,80.1635219 267.532972,80.0932101 267.907974,80.0228972 C268.962667,80.0228972 269.490005,80.351019 269.490005,81.0072722 C269.490005,81.6869631 268.857199,82.073678 267.591568,82.1674285 C267.286879,82.2143037 266.993913,82.2611783 266.712661,82.3080535 C266.689224,84.3236886 266.677505,86.831476 266.677505,89.831491 C266.513442,91.4018113 266.079852,92.1869597 265.376724,92.1869597 C264.907972,92.0697717 264.568131,91.0619692 264.357193,89.1635222 C264.474381,86.9369486 264.556411,84.7455643 264.603286,82.5893035 C264.064221,82.6596163 263.56032,82.7299281 263.091568,82.800241 C261.755623,82.800241 261.01735,82.4721193 260.876724,81.815866 C260.900161,81.5580522 262.154055,81.1713373 264.638443,80.6557097 C264.66188,79.6244546 264.673599,78.5932149 264.673599,77.5619597 C264.673599,76.9291441 264.439226,76.3314938 263.970474,75.768991 C264.087662,75.3471139 264.521251,75.089304 265.271255,74.9955535 Z"/>
    <g fill="#D4D5D6" transform="translate(70.018 55.323)">
      <path d="M31.9633563,49.2074654 L244.566048,49.2074654 L244.566048,1.89263556 L31.9633563,1.89263556 L31.9633563,49.2074654 Z M245.512365,51.100101 L31.0170385,51.100101 C30.4939061,51.100101 30.0707207,50.6769155 30.0707207,50.1537832 L30.0707207,0.946317781 C30.0707207,0.423281742 30.4939061,0 31.0170385,0 L245.512365,0 C246.035498,0 246.458683,0.423281742 246.458683,0.946317781 L246.458683,50.1537832 C246.458683,50.6769155 246.035498,51.100101 245.512365,51.100101 L245.512365,51.100101 Z"/>
      <path d="M275.636776,66.451565 L233.107071,66.451565 L233.107071,64.5590257 L273.890209,64.5590257 L258.790144,41.419014 C258.584954,41.1048265 258.584954,40.6982025 258.790144,40.384015 L273.890209,17.2440996 L246.458741,17.2440996 L246.458741,50.1537736 L244.566009,50.1537736 L244.566009,16.2977818 C244.566009,15.7747457 244.989387,15.3515603 245.512423,15.3515603 L275.636776,15.3515603 C275.984279,15.3515603 276.304052,15.5418252 276.468511,15.8467691 C276.634801,16.151713 276.618239,16.5232881 276.429707,16.8153294 L260.71234,40.9014663 L276.429707,64.9877959 C276.618239,65.2797409 276.634801,65.6512197 276.468511,65.9561636 C276.304052,66.2612037 275.984279,66.451565 275.636776,66.451565"/>
      <path d="M233.107042 66.451565C233.001607 66.451565 232.894439 66.433174 232.791025 66.3979326 232.413962 66.2630332 232.160725 65.9063827 232.160725 65.5052472L232.160725 50.1537736 234.053264 50.1537736 234.053264 62.8290205 244.776754 49.5587142 246.248034 50.7489293 233.842682 66.1004992C233.659639 66.325813 233.387914 66.451565 233.107042 66.451565M43.4759938 66.451565L.946192607 66.451565C.598689466 66.451565.278917248 66.2612037.114457463 65.9561636-.0518317928 65.6512197-.0352702688 65.2797409.153261499 64.9877959L15.8707255 40.9014663.153261499 16.8153294C-.0352702688 16.5232881-.0518317928 16.151713.114457463 15.8467691.278917248 15.5418252.598689466 15.3515603.946192607 15.3515603L31.070642 15.3515603C31.593678 15.3515603 32.0169597 15.7747457 32.0169597 16.2977818L32.0169597 50.1537736 30.1243242 50.1537736 30.1243242 17.2440996 2.69275938 17.2440996 17.7929215 40.384015C17.9980148 40.6982025 17.9980148 41.1048265 17.7929215 41.419014L2.69275938 64.5590257 43.4759938 64.5590257 43.4759938 66.451565z"/>
      <path d="M43.4759938 66.451565C43.1950256 66.451565 42.9233973 66.325813 42.740354 66.1004992L30.3350022 50.7489293 31.8061855 49.5587142 42.529676 62.8290205 42.529676 50.1537736 44.4223116 50.1537736 44.4223116 65.5052472C44.4223116 65.9063827 44.1690743 66.2630332 43.7920108 66.3979326 43.6885975 66.433174 43.5813328 66.451565 43.4759938 66.451565M239.309429 26.1306186C239.309429 27.782438 237.970353 29.1215143 236.318534 29.1215143 234.666618 29.1215143 233.327542 27.782438 233.327542 26.1306186 233.327542 24.4787991 234.666618 23.1397229 236.318534 23.1397229 237.970353 23.1397229 239.309429 24.4787991 239.309429 26.1306186M43.255013 26.1306186C43.255013 27.782438 41.9159367 29.1215143 40.2641173 29.1215143 38.6122015 29.1215143 37.2731253 27.782438 37.2731253 26.1306186 37.2731253 24.4787991 38.6122015 23.1397229 40.2641173 23.1397229 41.9159367 23.1397229 43.255013 24.4787991 43.255013 26.1306186"/>
    </g>
  </g>
</svg>
