<svg xmlns="http://www.w3.org/2000/svg" xmlns:xlink="http://www.w3.org/1999/xlink" width="400" height="139" viewBox="0 0 400 139">
  <defs>
    <polygon id="tit_category-a" points="0 116.1 59.641 116.1 59.641 0 0 0"/>
    <polygon id="tit_category-c" points=".342 6.798 13.797 6.798 13.797 .202 .342 .202 .342 6.798"/>
    <polygon id="tit_category-e" points=".112 6.798 13.567 6.798 13.567 .202 .112 .202"/>
    <polygon id="tit_category-g" points="0 109.271 43.243 109.271 43.243 0 0 0"/>
  </defs>
  <g fill="none" fill-rule="evenodd">
    <rect width="400" height="138.528" fill="#FFF"/>
    <g transform="translate(9.524 13.853)">
      <path fill="#0F5392" d="M44.4376084,31.2976755 L54.9661769,38.2414359 L57.4437812,34.0078915 C54.1159065,32.0532291 51.2911948,30.0155348 48.1236609,29.1165626 L44.4376084,31.2976755 Z"/>
      <path fill="#074A7C" d="M45.8844965,30.4408662 L42.6091164,32.3786347 L46.7122692,41.6361432 L51.2528773,39.8338855 C49.9144424,36.4590555 47.7535915,33.0543915 45.8844965,30.4408662"/>
      <polygon fill="#CECECE" points="23.722 109.59 23.722 79.225 12.037 78.97 18.692 109.59"/>
      <path fill="#1D67A5" d="M23.6994388,109.58967 L18.7338741,109.58967 C18.7338741,109.58967 15.793817,112.890095 10.5061422,116.099581 L23.6512295,116.099581 L23.6994388,109.58967 Z"/>
      <polygon fill="#B2B2B2" points="35.92 109.59 35.92 79.225 47.604 78.97 40.949 109.59"/>
      <path fill="#0F5392" d="M35.9416539,109.58967 L40.9075758,109.58967 C40.9075758,109.58967 43.8476329,112.890095 49.1349505,116.099581 L35.9898633,116.099581 L35.9416539,109.58967 Z"/>
      <path fill="#DDD" d="M0.441133558,15.1258451 C-2.67461994,28.8473023 11.7356953,32.7670511 11.7356953,32.7670511 L13.4887307,25.9070414 C13.4887307,25.9070414 5.30956535,23.5544732 8.23069585,16.30159 C10.5440312,10.5576574 21.0833129,9.24568276 21.0833129,9.24568276 L22.8359912,0.0327454484 C22.8359912,0.0327454484 3.55724416,1.40474739 0.441133558,15.1258451" transform="translate(0 41.695)"/>
      <path fill="#BCBBBB" d="M22.4181767,15.1258451 C25.5346444,28.8473023 11.1236149,32.7670511 11.1236149,32.7670511 L9.37093664,25.9070414 C9.37093664,25.9070414 17.550102,23.5544732 14.6286144,16.30159 C12.3152791,10.5576574 1.77599735,9.24568276 1.77599735,9.24568276 L0.0236761555,0.0327454484 C0.0236761555,0.0327454484 19.3024232,1.40474739 22.4181767,15.1258451" transform="translate(36.782 41.695)"/>
      <path fill="#EDAB7E" d="M14.4382053,25.1235949 C15.2924038,27.4024768 14.4349913,29.8384362 12.5230436,30.5645153 C10.6110958,31.290235 8.3684675,30.0318177 7.51391185,27.7525763 C6.6600704,25.4740538 7.51784002,23.0380944 9.42943067,22.3123747 C11.3417355,21.5859362 13.5836496,22.8447129 14.4382053,25.1235949"/>
      <path fill="#DD9868" d="M45.1961024,25.1235949 C44.3415468,27.4024768 45.1989593,29.8384362 47.1109071,30.5645153 C49.0232119,31.290235 51.2654831,30.0318177 52.1200388,27.7525763 C52.973166,25.4740538 52.1168248,23.0380944 50.2045199,22.3123747 C48.2925722,21.5859362 46.0506581,22.8447129 45.1961024,25.1235949"/>
      <path fill="#CECECE" d="M11.6821294,76.7159 C12.0985155,81.3423179 14.9239414,89.456791 29.8202785,89.456791 L29.8202785,76.7159 L11.6821294,76.7159 Z"/>
      <path fill="#B2B2B2" d="M47.9587848,76.7159 C47.5423987,81.3423179 44.717687,89.456791 29.8206356,89.456791 L29.8206356,76.7159 L47.9587848,76.7159 Z"/>
      <path fill="#EBEBEB" d="M29.8206356,79.459832 L10.2901286,79.459832 C10.2901286,79.459832 6.51372819,39.6919047 29.8206356,39.673573 L29.8206356,79.459832 Z"/>
      <path fill="#CECECE" d="M29.8206356,79.459832 L49.3507856,79.459832 C49.3507856,79.459832 53.1282573,39.6919047 29.8206356,39.673573 L29.8206356,79.459832 Z"/>
      <polygon fill="#D4D5D6" points="19.819 50.94 30.072 46.988 30.072 75.44 27.544 75.44"/>
      <path fill="#2F80BC" d="M18.9048209,40.2009868 L17.0085859,42.9579307 C17.0085859,42.9579307 18.6941282,47.4118149 29.8619172,48.2604648 L29.8619172,43.8065806 L18.9048209,40.2009868 Z"/>
      <path fill="#1A62A0" d="M38.5013927,41.473063 C30.4943526,45.2907294 18.5887818,47.4114554 18.5887818,47.4114554 L19.8193705,50.940128 C36.183415,48.0480327 42.5045557,42.7458581 42.5045557,42.7458581 L38.5013927,41.473063 Z"/>
      <path fill="#FFC89F" d="M11.3579839,25.4353056 C12.0332721,41.7526753 23.2424855,45.2130533 29.8293133,45.3284352 L29.8293133,6.82180068 C19.5400061,7.0148227 10.908744,14.5761098 11.3579839,25.4353056"/>
      <path fill="#EDAB7E" d="M29.829349,6.8217288 C40.1190134,7.01475081 48.7509897,14.5760379 48.3013927,25.4352338 C47.6257474,41.7529629 36.4161769,45.2133408 29.829349,45.3283633 L29.829349,6.8217288 Z"/>
      <path fill="#FFA788" d="M22.3808591,32.8576313 C22.3808591,34.8874177 20.7460259,36.5333168 18.7290889,36.5333168 C16.712866,36.5333168 15.0780329,34.8874177 15.0780329,32.8576313 C15.0780329,30.8282042 16.712866,29.183024 18.7290889,29.183024 C20.7460259,29.183024 22.3808591,30.8282042 22.3808591,32.8576313"/>
      <path fill="#F29679" d="M44.5805581,32.8576313 C44.5805581,34.8874177 42.9464391,36.5333168 40.9295021,36.5333168 C38.9129222,36.5333168 37.2784461,34.8874177 37.2784461,32.8576313 C37.2784461,30.8282042 38.9129222,29.183024 40.9295021,29.183024 C42.9464391,29.183024 44.5805581,30.8282042 44.5805581,32.8576313"/>
      <path fill="#FFC89F" d="M33.6271044,28.0068837 C33.6271044,29.1438086 32.7118406,30.0650663 31.582313,30.0650663 L28.0769564,30.0650663 C26.9474288,30.0650663 26.0321651,29.1438086 26.0321651,28.0068837 C26.0321651,26.8699589 26.9474288,25.9487011 28.0769564,25.9487011 L31.582313,25.9487011 C32.7118406,25.9487011 33.6271044,26.8699589 33.6271044,28.0068837"/>
      <path fill="#3F2411" d="M23.2877666 19.1587113C22.107887 19.1464902 20.9565759 19.4383596 19.9116825 19.9875917 19.074625 20.427193 19.8524028 21.6719514 20.6816039 21.2366634 21.5065197 20.8042509 22.423569 20.6187773 23.349546 20.6277634 24.2912356 20.637109 24.2280278 19.1684163 23.2877666 19.1587113M36.6192633 19.1587113C37.7998572 19.1464902 38.9508111 19.4383596 39.9953474 19.9875917 40.832762 20.427193 40.0546271 21.6719514 39.225426 21.2366634 38.4005102 20.8042509 37.483818 20.6187773 36.557841 20.6277634 35.6161514 20.637109 35.6790021 19.1684163 36.6192633 19.1587113M24.0239414 24.7725608C24.0239414 25.7067586 23.2718753 26.4626716 22.3441128 26.4626716 21.4167075 26.4626716 20.6646414 25.7067586 20.6646414 24.7725608 20.6646414 23.8387224 21.4167075 23.0824499 22.3441128 23.0824499 23.2718753 23.0824499 24.0239414 23.8387224 24.0239414 24.7725608M35.6351138 24.7725608C35.6351138 25.7067586 36.3871799 26.4626716 37.3149424 26.4626716 38.2423477 26.4626716 38.9944138 25.7067586 38.9944138 24.7725608 38.9944138 23.8387224 38.2423477 23.0824499 37.3149424 23.0824499 36.3871799 23.0824499 35.6351138 23.8387224 35.6351138 24.7725608"/>
      <path fill="#4C2D18" d="M36.0073972,32.6329781 C35.8956229,32.4539744 35.694572,32.3378736 35.4953066,32.3378736 C35.2978268,32.3378736 35.1317723,32.4485827 35.0399959,32.6412453 C33.1037649,36.7018966 26.5551474,36.7090855 24.6192735,32.6412453 C24.5274972,32.4485827 24.3614427,32.3378736 24.1636058,32.3378736 C23.9646975,32.3378736 23.7636466,32.4539744 23.6515152,32.6329781 C23.5440261,32.8051523 23.5333129,33.0103954 23.6222324,33.1976663 C25.9198551,38.0264518 33.7276298,38.0390323 36.037037,33.1976663 C36.1263136,33.0103954 36.1156004,32.8051523 36.0073972,32.6329781"/>
      <path fill="#CECECE" d="M22.3953219,48.6841068 C22.3953219,49.3357807 21.8707326,49.8645245 21.2222273,49.8645245 C20.5747934,49.8645245 20.0502041,49.3357807 20.0502041,48.6841068 C20.0502041,48.0324328 20.5747934,47.5047674 21.2222273,47.5047674 C21.8707326,47.5047674 22.3953219,48.0324328 22.3953219,48.6841068"/>
      <path fill="#3F2411" d="M11.8321141 21.7492321C11.8321141 21.7492321 11.2668146 23.0741467 11.4246556 25.6197369L17.9039945 15.438814 11.8321141 21.7492321zM47.969248 21.7492321C47.969248 21.7492321 48.5349046 23.0741467 48.3767065 25.6197369L41.8973676 15.438814 47.969248 21.7492321z"/>
      <polygon fill="#0F5392" points="29.796 76.716 9.779 76.716 12.992 102.59 29.796 102.59"/>
      <polygon fill="#074A7C" points="29.796 76.716 49.814 76.716 46.892 102.59 29.796 102.59"/>
      <mask id="tit_category-b" fill="#fff">
        <use xlink:href="#tit_category-a"/>
      </mask>
      <polygon fill="#2B7BB7" points="9.779 76.701 29.796 76.701 29.796 73.518 9.779 73.518" mask="url(#tit_category-b)"/>
      <polygon fill="#1A62A0" points="29.796 76.701 49.814 76.701 49.814 73.518 29.796 73.518" mask="url(#tit_category-b)"/>
      <polygon fill="#1D67A5" points="9.779 78.288 29.796 78.288 29.796 75.44 9.779 75.44" mask="url(#tit_category-b)"/>
      <polygon fill="#0F5392" points="29.796 78.288 49.814 78.288 49.814 75.44 29.796 75.44" mask="url(#tit_category-b)"/>
      <path fill="#2B7BB7" d="M27.5085144,74.0825333 C20.976681,77.0519093 23.0836088,94.973123 23.0836088,94.973123 L25.8229721,94.973123 C24.9277064,81.4525956 27.4924446,78.3689161 27.4924446,78.3689161 L27.5085144,74.0825333 Z" mask="url(#tit_category-b)"/>
      <path fill="#1A62A0" d="M32.0839404,74.0825333 C38.616131,77.0519093 36.508846,94.973123 36.508846,94.973123 L33.7694827,94.973123 C34.6651056,81.4525956 32.1003673,78.3689161 32.1003673,78.3689161 L32.0839404,74.0825333 Z" mask="url(#tit_category-b)"/>
      <polygon fill="#54A3D3" points="27.493 78.369 29.891 78.369 29.891 73.454 27.493 73.454" mask="url(#tit_category-b)"/>
      <polygon fill="#2B7BB7" points="29.891 78.369 32.29 78.369 32.29 73.454 29.891 73.454" mask="url(#tit_category-b)"/>
      <path fill="#2F80BC" d="M11.5161463,22.3849467 C11.5161463,22.3849467 16.7973931,15.1737592 29.8296347,14.9695943 L29.8296347,0.00877046039 C29.8296347,0.00877046039 10.3891185,-1.12491938 11.5161463,22.3849467" mask="url(#tit_category-b)"/>
      <path fill="#1A62A0" d="M48.1436231,22.3849467 C48.1436231,22.3849467 43.7687124,15.8092581 29.8297776,14.9695943 L29.8297776,0.00877046039 C29.8297776,0.00877046039 49.2702938,-1.12491938 48.1436231,22.3849467" mask="url(#tit_category-b)"/>
    </g>
    <g transform="translate(347.186 13.853)">
      <path fill="#DDD" d="M13.0144896,50.0650066 C16.4057815,59.5548281 10.6274552,69.6181532 10.6274552,69.6181532 L7.98211155,71.803406 C-5.93366964,60.6288505 10.4907874,42.9539909 10.4907874,42.9539909 L13.0144896,50.0650066 Z"/>
      <path fill="#BCBBBB" d="M30.2324425,50.0650066 L32.7554291,42.9539909 C32.7554291,42.9539909 49.1791707,60.6288505 35.2651783,71.803406 L32.6198347,69.6181532 C32.6198347,69.6181532 27.1506207,61.704304 30.2324425,50.0650066"/>
      <path fill="#4C2D18" d="M21.6229473,13.2315838 L4.51515152,13.2315838 C4.51515152,13.2315838 -0.589495904,24.7413688 0.0566348252,37.3126543 L21.6229473,37.3126543 L21.6229473,13.2315838 Z"/>
      <path fill="#4C2D18" d="M0.156810132,0.200207506 L16.8692712,0.200207506 C16.8692712,0.200207506 22.3685378,11.7099925 21.7241959,24.281278 L0.156810132,24.281278 L0.156810132,0.200207506 Z" transform="translate(21.466 13.031)"/>
      <polygon fill="#FFC89F" points="9.942 69.458 14.133 104.915 18.968 104.915 18 70.585"/>
      <g transform="translate(5.367 102.474)">
        <mask id="tit_category-d" fill="#fff">
          <use xlink:href="#tit_category-c"/>
        </mask>
        <path fill="#1D67A5" d="M13.7971092,0.201602805 L8.7328897,0.201602805 C8.7328897,0.201602805 5.73442811,3.54423813 0.342492219,6.79778899 L13.7484526,6.79778899 L13.7971092,0.201602805 Z" mask="url(#tit_category-d)"/>
      </g>
      <polygon fill="#EDAB7E" points="33.304 69.458 29.114 104.915 24.278 104.915 25.246 70.585"/>
      <g transform="translate(23.97 102.474)">
        <mask id="tit_category-f" fill="#fff">
          <use xlink:href="#tit_category-e"/>
        </mask>
        <path fill="#0F5392" d="M0.112089013,0.201602805 L5.17630854,0.201602805 C5.17630854,0.201602805 8.17441236,3.54423813 13.5674216,6.79778899 L0.161818897,6.79778899 L0.112089013,0.201602805 Z" mask="url(#tit_category-f)"/>
      </g>
      <path fill="#EBEBEB" d="M10.545383,64.9655468 L21.6229831,64.9655468 L21.6229831,41.0791027 C21.6229831,41.0791027 13.4318629,40.3746556 9.88673035,42.9541698 C9.88673035,42.9541698 13.0125577,52.3334407 10.545383,64.9655468"/>
      <path fill="#CECECE" d="M32.7005116,64.9655468 C30.2333369,52.3334407 33.4146184,43.0446853 33.4146184,43.0446853 C29.8680548,40.4658867 21.6229115,41.0791027 21.6229115,41.0791027 L21.6229115,64.9655468 L32.7005116,64.9655468 Z"/>
      <mask id="tit_category-h" fill="#fff">
        <use xlink:href="#tit_category-g"/>
      </mask>
      <polygon fill="#1D67A5" points="13.853 63.424 21.58 63.424 21.58 52.264 13.853 52.264" mask="url(#tit_category-h)"/>
      <polygon fill="#0F5392" points="21.58 63.424 29.306 63.424 29.306 52.264 21.58 52.264" mask="url(#tit_category-h)"/>
      <polygon fill="#2B7BB7" points="9.733 42.862 14.389 55.51 17.544 54.711 13.152 41.402" mask="url(#tit_category-h)"/>
      <polygon fill="#2B7BB7" points="33.612 42.862 28.957 55.51 25.801 54.711 30.194 41.402" mask="url(#tit_category-h)"/>
      <path fill="#1D67A5" d="M9.73167329,66.8784301 C4.79303066,74.3125112 6.0831455,98.4887482 6.0831455,98.4887482 L21.5795499,98.4887482 L21.5795499,66.5757576 L9.73167329,66.8784301 Z" mask="url(#tit_category-h)"/>
      <path fill="#0F5392" d="M33.4275697,66.8784301 C38.3665701,74.3125112 37.0764552,98.4887482 37.0764552,98.4887482 L21.579693,98.4887482 L21.579693,66.5757576 L33.4275697,66.8784301 Z" mask="url(#tit_category-h)"/>
      <polygon fill="#2B7BB7" points="21.58 66.878 9.707 66.878 10.351 62.999 21.58 62.999" mask="url(#tit_category-h)"/>
      <polygon fill="#1D67A5" points="21.58 66.878 33.453 66.878 32.807 62.999 21.58 62.999" mask="url(#tit_category-h)"/>
      <path fill="#EDAB7E" d="M8.33691102,24.6036636 C9.11935172,26.6783657 8.33333333,28.8958177 6.58205431,29.5566169 C4.82862867,30.2174162 2.77431934,29.07184 1.99187864,26.9974956 C1.20943794,24.9224357 1.99438303,22.7053415 3.74709313,22.0441845 C5.49872992,21.3830274 7.55339702,22.5289614 8.33691102,24.6036636" mask="url(#tit_category-h)"/>
      <path fill="#DD9868" d="M34.9096633,24.6036636 C34.1268649,26.6783657 34.9128833,28.8958177 36.6641623,29.5566169 C38.4168724,30.2174162 40.4711817,29.07184 41.2543379,26.9974956 C42.0367786,24.9224357 41.2518336,22.7053415 39.499839,22.0441845 C37.7471289,21.3830274 35.6924618,22.5289614 34.9096633,24.6036636" mask="url(#tit_category-h)"/>
      <path fill="#FFC89F" d="M4.69636149,24.3081106 C5.31601732,39.1637508 15.5868484,42.3139065 21.6227684,42.4180172 L21.6227684,6.2039283 C12.194841,6.37995063 4.28528496,14.4215234 4.69636149,24.3081106" mask="url(#tit_category-h)"/>
      <path fill="#EDAB7E" d="M21.6225895,6.20410719 C31.0515903,6.37977174 38.9618618,14.4217023 38.549712,24.3082895 C37.9307717,39.1639297 27.6595828,42.3140854 21.6225895,42.4181961 L21.6225895,6.20410719 Z" mask="url(#tit_category-h)"/>
      <path fill="#FFA788" d="M14.7973954,31.0655433 C14.7973954,32.9130621 13.2994168,34.4113985 11.4511824,34.4113985 C9.60366355,34.4113985 8.10604272,32.9130621 8.10604272,31.0655433 C8.10604272,29.2173089 9.60366355,27.7200458 11.4511824,27.7200458 C13.2994168,27.7200458 14.7973954,29.2173089 14.7973954,31.0655433" mask="url(#tit_category-h)"/>
      <path fill="#F29679" d="M35.1406032,31.0655433 C35.1406032,32.9130621 33.6426246,34.4113985 31.7940324,34.4113985 C29.9465135,34.4113985 28.4485349,32.9130621 28.4485349,31.0655433 C28.4485349,29.2173089 29.9465135,27.7200458 31.7940324,27.7200458 C33.6426246,27.7200458 35.1406032,29.2173089 35.1406032,31.0655433" mask="url(#tit_category-h)"/>
      <path fill="#FFC89F" d="M24.1343065,29.8646918 C24.1343065,30.8990018 23.5286036,31.73797 22.7822976,31.73797 L20.4639548,31.73797 C19.717291,31.73797 19.1126614,30.8990018 19.1126614,29.8646918 C19.1126614,28.8296662 19.717291,27.9903402 20.4639548,27.9903402 L22.7822976,27.9903402 C23.5286036,27.9903402 24.1343065,28.8296662 24.1343065,29.8646918" mask="url(#tit_category-h)"/>
      <path fill="#3F2411" d="M14.9762799 19.7832278C13.896891 19.7091696 12.8278774 19.9116668 11.8429394 20.3553003 11.0544167 20.7098494 11.6994741 21.8836893 12.481557 21.5320024 13.2589889 21.1824622 14.1072591 21.0629673 14.9540982 21.1212837 15.8156059 21.1806733 15.8356409 19.8422597 14.9762799 19.7832278M28.2598476 19.796501C29.338521 19.7127831 30.4086079 19.9059783 31.3981968 20.338521 32.1910128 20.6859146 31.555973 21.8654789 30.7717434 21.5213051 29.990376 21.1796358 29.140317 21.0687274 28.2949089 21.1349147 27.4337591 21.202533 27.4004866 19.8641194 28.2598476 19.796501M16.3032092 25.7164681C16.3032092 26.5654538 15.6137884 27.2552324 14.7644449 27.2552324 13.9136704 27.2552324 13.2249651 26.5654538 13.2249651 25.7164681 13.2249651 24.8660513 13.9136704 24.1766305 14.7644449 24.1766305 15.6137884 24.1766305 16.3032092 24.8660513 16.3032092 25.7164681M26.9430074 25.7164681C26.9430074 26.5654538 27.6317126 27.2552324 28.4824872 27.2552324 29.3318307 27.2552324 30.0216092 26.5654538 30.0216092 25.7164681 30.0216092 24.8660513 29.3318307 24.1766305 28.4824872 24.1766305 27.6317126 24.1766305 26.9430074 24.8660513 26.9430074 25.7164681" mask="url(#tit_category-h)"/>
      <path fill="#4C2D18" d="M27.5795857 32.9571035C27.4718972 32.7857322 27.2772709 32.6737505 27.0855068 32.6737505 26.8955315 32.6737505 26.7356087 32.7803656 26.646882 32.9653322 24.7800436 36.8535652 18.4661372 36.8603628 16.598941 32.9653322 16.5116454 32.7803656 16.3510071 32.6737505 16.1603163 32.6737505 15.9674788 32.6737505 15.7742836 32.7857322 15.6665951 32.9571035 15.5624843 33.1213195 15.5524668 33.3191657 15.6376158 33.4980502 17.853279 38.1229294 25.381811 38.1347358 27.6078495 33.4980502 27.693714 33.3191657 27.6836965 33.1213195 27.5795857 32.9571035M4.25369396 21.9522021L4.88873386 25.8007227C4.88873386 25.8007227 6.6017316 17.0418232 12.9693034 14.8873386 12.9693034 14.8873386 26.642875 23.6465958 39.0799971 24.3081106 39.0799971 24.3081106 43.4723266 3.01370255 21.0140961 3.18042288-.437730314 3.34106114 4.25369396 21.9522021 4.25369396 21.9522021" mask="url(#tit_category-h)"/>
      <path fill="#1D67A5" d="M5.79549927,29.7480233 C5.79549927,30.7268792 5.00125219,31.5207685 4.02239634,31.5207685 C3.04354048,31.5207685 2.25036671,30.7268792 2.25036671,29.7480233 C2.25036671,28.7702408 3.04354048,27.9752782 4.02239634,27.9752782 C5.00125219,27.9752782 5.79549927,28.7702408 5.79549927,29.7480233" mask="url(#tit_category-h)"/>
      <path fill="#0F5392" d="M40.9319881,29.7480233 C40.9319881,30.7268792 40.137741,31.5207685 39.1588852,31.5207685 C38.1796716,31.5207685 37.3857823,30.7268792 37.3857823,29.7480233 C37.3857823,28.7702408 38.1796716,27.9752782 39.1588852,27.9752782 C40.137741,27.9752782 40.9319881,28.7702408 40.9319881,29.7480233" mask="url(#tit_category-h)"/>
      <path fill="#DDD" d="M16.3371257,53.9396802 C16.3371257,54.4101463 15.955744,54.7918858 15.4845623,54.7918858 C15.0144539,54.7918858 14.6327144,54.4101463 14.6327144,53.9396802 C14.6327144,53.469214 15.0144539,53.0874745 15.4845623,53.0874745 C15.955744,53.0874745 16.3371257,53.469214 16.3371257,53.9396802" mask="url(#tit_category-h)"/>
      <path fill="#CECECE" d="M28.753855,53.9396802 C28.753855,54.4101463 28.3724733,54.7918858 27.9016493,54.7918858 C27.4311831,54.7918858 27.0494437,54.4101463 27.0494437,53.9396802 C27.0494437,53.469214 27.4311831,53.0874745 27.9016493,53.0874745 C28.3724733,53.0874745 28.753855,53.469214 28.753855,53.9396802" mask="url(#tit_category-h)"/>
      <polygon fill="#EBEBEB" points="6.379 .831 3.072 16.674 21.518 16.674 21.518 .831" mask="url(#tit_category-h)"/>
      <polygon fill="#CECECE" points="21.518 .831 21.518 16.674 40.214 16.674 36.908 .831" mask="url(#tit_category-h)"/>
      <path fill="#1A62A0" d="M6.71228221,1.99366749 C6.75700333,1.98937426 6.81567744,1.99366749 6.86648063,1.99366749 C11.6437695,1.99366749 15.5606239,2.59328825 18.7726736,3.55354012 L19.2345533,3.55354012 C16.9591428,4.7084183 14.8364996,6.21176344 13.0222532,8.16124647 C9.1944832,12.2738006 8.57160746,16.3838503 8.54763694,16.5566527 C8.54191263,16.5952918 8.54191263,16.6346463 8.54262817,16.6736432 L10.2126936,16.6736432 C10.487818,15.2611713 13.7449465,1.66094236 36.5044184,1.66094236 C36.5548639,1.66094236 36.6138957,1.65772244 36.6582591,1.66094236 C37.1158456,1.66094236 37.4875675,1.29029373 37.4886408,0.833065007 C37.4897141,0.373689671 37.1194233,0.00196772924 36.6600479,0.000536653429 C32.0730922,-0.0202139458 26.6654145,0.533254624 21.5178348,2.63121176 C16.6056671,0.807663411 11.0434332,0.313226718 6.70906229,0.332188473 C6.2514758,0.332904011 5.88118493,0.706057028 5.88225824,1.16471683 C5.88333154,1.62266109 6.25433795,1.99366749 6.71228221,1.99366749" mask="url(#tit_category-h)"/>
      <path fill="#2F80BC" d="M21.5177632,2.50724482 C21.4115058,2.54946156 21.6236628,2.5881006 21.5177632,2.63139065 C16.6059533,0.807484526 11.0437194,0.313047834 6.70899073,0.332367357 C6.25140424,0.333082895 5.88111338,0.706235913 5.88218668,1.16453794 C5.88325999,1.6224822 6.25426639,1.99348861 6.71221065,1.99348861 C6.75693177,1.98955315 6.81560588,1.99348861 6.86640907,1.99348861 C11.6436979,1.99348861 15.5609102,2.59310937 18.7726021,3.55371901 L19.2344818,3.55371901 C16.9590712,4.70823942 14.836428,6.21158456 13.0221817,8.16142535 C9.19476942,12.2739795 8.5715359,16.3836714 8.54756538,16.5568316 C8.54184108,16.5951129 8.54184108,16.6344675 8.54255662,16.673822 L10.2126221,16.673822 C10.4101106,15.6577582 12.0930557,8.34030983 21.5177632,4.3086115 L21.5177632,2.50724482 Z" mask="url(#tit_category-h)"/>
    </g>
    <path fill="#000" d="M148.736556,69.2338339 C149.955313,69.351022 150.564681,69.925235 150.564681,70.9564901 C150.447493,71.6830563 150.342026,72.362737 150.248275,72.9955526 C151.092029,72.8080517 151.818585,72.702584 152.427963,72.6791464 C153.271717,72.7728968 153.693588,73.1478931 153.693588,73.8041464 C153.623275,74.319774 153.23656,74.6127398 152.533431,74.6830526 C151.572489,74.8471159 150.717029,74.9877395 149.967025,75.1049276 C149.873275,75.9252442 149.802963,76.6283622 149.756088,77.2143026 C150.951406,77.0033641 152.263893,76.7924287 153.693588,76.5814901 C154.842031,76.5814901 155.416244,76.9330491 155.416244,77.6361776 C155.416244,78.3393061 154.713126,78.7494583 153.306869,78.8666464 C152.978742,78.9135216 152.662339,78.9603961 152.35765,79.0072714 C152.615464,79.2416475 152.767806,79.546332 152.814681,79.9213339 C152.814681,80.6713376 152.451404,81.4330488 151.724838,82.2064901 C151.537337,82.4174287 151.361557,82.5814895 151.197494,82.6986776 C151.783434,82.6283648 152.287336,82.5814902 152.709213,82.5580526 C153.599842,82.6283655 154.04515,83.0150804 154.04515,83.7182089 C153.974837,84.2338365 153.576404,84.5268023 152.849838,84.5971151 C151.701394,84.8314913 150.681873,85.0189894 149.791244,85.1596151 C149.861557,85.3471161 149.908431,85.5346142 149.931869,85.7221151 C149.861556,85.9096161 149.802963,86.3783614 149.756088,87.1283651 C151.373283,86.9174266 152.697489,86.7885216 153.728744,86.7416464 C154.619373,86.8119592 155.064681,87.1986741 155.064681,87.9018026 C154.947493,88.4174302 154.537341,88.710396 153.834213,88.7807089 C152.240455,88.9447722 150.857656,89.0971144 149.685775,89.2377401 C149.662338,90.3393081 149.650619,91.6283577 149.650619,93.1049276 C149.509993,94.6986856 149.099841,95.5658644 148.42015,95.7064901 C147.693584,95.5658644 147.318588,94.7338415 147.29515,93.2103964 C147.412338,91.9682027 147.48265,90.7260276 147.506088,89.4838339 C145.795142,89.6478972 144.541248,89.7533649 143.744369,89.8002401 C142.267799,89.8002401 141.459213,89.4369625 141.318588,88.7103964 C141.576401,88.429145 143.650599,88.0072742 147.541244,87.4447714 L147.541244,87.1986776 C147.541244,86.4721115 147.459213,85.9330544 147.29515,85.5814901 C146.334208,85.6986782 145.607653,85.7807086 145.115463,85.8275839 C143.66233,85.8275839 142.853745,85.4643063 142.689681,84.7377401 C142.924058,84.4096135 144.857632,83.9057123 148.490463,83.2260214 C149.732656,81.4682001 150.353744,80.2377436 150.353744,79.5346151 L150.353744,79.2533651 C148.220921,79.5580541 146.158441,79.8978945 144.166244,80.2728964 C142.759987,80.2728964 141.986557,79.9447747 141.845931,79.2885214 C141.869369,78.8900819 143.826381,78.3393061 147.717025,77.6361776 C147.740463,76.8392986 147.7639,76.1127434 147.787338,75.4564901 C147.060772,75.5736782 146.509996,75.64399 146.134994,75.6674276 C144.705299,75.6674276 143.931869,75.3275873 143.814681,74.6478964 C143.978745,74.366645 145.314669,73.9799301 147.822494,73.4877401 L147.822494,71.7299276 C147.728743,70.909611 147.447496,70.3822725 146.978744,70.1478964 C147.424059,69.5385183 148.00999,69.2338339 148.736556,69.2338339 Z M147.681869,80.2377401 C147.86937,80.2377401 147.963119,80.4369569 147.963119,80.8353964 C147.939681,81.351024 147.728746,81.8900811 147.330306,82.4525839 C146.955305,82.9213362 146.521715,83.1791461 146.029525,83.2260214 C144.99827,83.1322709 144.435776,82.5111834 144.342025,81.3627401 C144.342025,81.0814887 144.47093,80.9408651 144.728744,80.9408651 C145.033433,80.9408651 145.349836,80.9643024 145.677963,81.0111776 C146.334216,80.9408648 147.002178,80.6830549 147.681869,80.2377401 Z M155.873275,72.5385214 C157.209219,72.5853966 157.877181,75.093184 157.877181,80.0619589 C157.877181,89.9057581 157.37328,94.8275839 156.365463,94.8275839 C155.568584,94.8275839 155.076401,93.8783746 154.8889,91.9799276 C155.521716,86.5892757 155.873275,81.5268263 155.943588,76.7924276 C155.943588,74.565854 155.791245,73.288523 155.486556,72.9603964 C155.486556,72.679145 155.615461,72.5385214 155.873275,72.5385214 Z M164.521713,80.5541464 C165.52953,80.5541464 166.033431,81.0814849 166.033431,82.1361776 C165.75218,84.4565017 165.002188,86.4838252 163.783431,88.2182089 C164.884999,89.0385255 165.845927,89.6830503 166.666244,90.1518026 C167.931875,90.8783688 168.904522,91.38227 169.584213,91.6635214 C169.771714,91.8978975 169.865463,92.1205516 169.865463,92.3314901 C169.677962,92.9174306 168.775627,93.35102 167.158431,93.6322714 C165.30686,93.6322714 163.947498,92.847123 163.080306,91.2768026 C162.84593,90.8783631 162.611558,90.5033669 162.377181,90.1518026 C160.994362,91.9799368 159.775624,92.8939901 158.720931,92.8939901 C158.111553,92.8939901 157.806869,92.7416479 157.806869,92.4369589 C157.806869,92.2728956 157.935774,92.132272 158.193588,92.0150839 C159.435781,90.7728902 160.455302,89.5775896 161.252181,88.4291464 C160.291239,87.0228893 159.611558,86.1439919 159.213119,85.7924276 C158.580303,85.5346138 158.158432,85.3588343 157.947494,85.2650839 C158.158432,84.5619554 158.580303,84.2103964 159.213119,84.2103964 C160.009998,84.5619606 161.0178,85.4174208 162.236556,86.7768026 C162.939685,85.4408584 163.361556,84.1635275 163.502181,82.9447714 C163.502181,82.8041457 163.408432,82.7338339 163.220931,82.7338339 C162.025613,82.8978972 160.877187,83.1557071 159.775619,83.5072714 C158.744364,83.4603961 158.181869,83.2143049 158.088119,82.7689901 C158.088119,82.6049268 158.228743,82.4994591 158.509994,82.4525839 C160.689692,81.1869525 162.693579,80.5541464 164.521713,80.5541464 Z M161.92015,70.2885214 C164.3811,70.3353966 165.634994,71.4135108 165.681869,73.5228964 C165.681869,75.6322819 165.342029,77.1557042 164.662338,78.0932089 C164.099835,79.1010264 163.209219,79.6283649 161.990463,79.6752401 C160.959208,79.6752401 160.33812,78.9604035 160.127181,77.5307089 C160.127181,77.2728951 160.279524,77.1439901 160.584213,77.1439901 C160.771714,77.1908654 160.994368,77.2143026 161.252181,77.2143026 C162.424062,77.1205522 163.068587,76.1947802 163.185775,74.4369589 C163.185775,73.7807056 163.05687,73.1830553 162.799056,72.6439901 C162.705306,72.2689882 162.33031,72.0814901 161.674056,72.0814901 C161.111554,72.1986782 160.584215,72.3275832 160.092025,72.4682089 C159.881087,72.5619593 159.623277,72.6439898 159.318588,72.7143026 C159.107649,72.8080531 158.873276,72.8549276 158.615463,72.8549276 C157.537332,72.6908643 156.998275,72.4682103 156.998275,72.1869589 C156.998275,72.0228956 157.103743,71.8705533 157.314681,71.7299276 C158.345937,71.1205496 159.881077,70.6400856 161.92015,70.2885214 Z M187.408431,86.5658651 C188.017809,86.5658651 188.603741,87.1517968 189.166244,88.3236776 C189.424058,89.3080575 189.717024,90.3041413 190.04515,91.3119589 C190.209213,91.6400855 190.3264,91.9213327 190.396713,92.1557089 C191.240467,91.9682079 192.447486,91.7455539 194.017806,91.4877401 C194.697497,91.370552 195.295148,91.2650843 195.810775,91.1713339 C195.927963,90.6557063 196.162336,90.0932119 196.5139,89.4838339 C196.91234,88.5463292 197.111556,87.4213404 197.111556,86.1088339 C197.088119,85.7572696 196.947495,85.5814901 196.689681,85.5814901 C195.799052,85.6752406 194.720938,85.8510201 193.455306,86.1088339 C192.470926,86.4838357 191.49828,86.6713339 190.537338,86.6713339 C188.896704,86.6244586 187.982651,86.3080556 187.79515,85.7221151 C185.287325,87.503374 183.025629,88.4525833 181.009994,88.5697714 C180.142802,88.5463338 179.685775,88.3353984 179.6389,87.9369589 C179.6389,87.7260203 180.131083,87.4330545 181.115463,87.0580526 C184.162353,85.7455461 186.834201,83.9174393 189.131088,81.5736776 C188.568585,81.4799272 188.111558,81.2572731 187.759994,80.9057089 C187.174053,80.3432061 186.845932,79.7455558 186.775619,79.1127401 C186.775619,78.8314887 186.986554,78.6908651 187.408431,78.6908651 C189.635005,78.7846156 190.748275,79.2416423 190.748275,80.0619589 L190.748275,80.1322714 C193.092037,77.9291354 194.334212,76.1830591 194.474838,74.8939901 C194.474838,74.5658635 194.322495,74.4018026 194.017806,74.4018026 C192.588112,74.4018026 191.170157,74.6244566 189.7639,75.0697714 L189.623275,75.0697714 L188.6389,76.1947714 C186.318576,78.913535 184.513907,80.2728964 183.224838,80.2728964 C182.896711,80.2025835 182.73265,80.0150854 182.73265,79.7103964 C182.826401,79.3822697 183.963108,78.0229083 186.142806,75.6322714 C187.924065,73.3822601 188.90843,71.5893093 189.095931,70.2533651 C189.095931,69.9018009 189.037338,69.608835 188.92015,69.3744589 C188.92015,69.0697699 189.424051,68.9174276 190.431869,68.9174276 C191.60375,68.9174276 192.189681,69.4447661 192.189681,70.4994589 C192.189681,71.2494626 191.720936,72.2689837 190.783431,73.5580526 C191.228746,73.4408645 191.685773,73.3236782 192.154525,73.2064901 C193.349844,72.6439873 194.662331,72.3627401 196.092025,72.3627401 C197.287344,72.5971163 197.884994,73.1127361 197.884994,73.9096151 C197.439679,75.4799355 195.20142,78.5150614 191.17015,83.0150839 C190.420146,83.7182124 189.693591,84.3392999 188.990463,84.8783651 C189.599841,84.6908642 190.384989,84.5033661 191.345931,84.3158651 C193.408442,83.8236752 195.177955,83.5541466 196.654525,83.5072714 C198.904536,83.7182099 200.088118,84.5502329 200.205306,86.0033651 C200.205306,87.479935 199.783436,88.8861709 198.939681,90.2221151 C198.728743,90.6908675 198.517807,91.0658637 198.306869,91.3471151 C198.611558,91.5814913 198.7639,91.8744571 198.7639,92.2260214 C198.67015,92.7650866 198.23656,93.0814897 197.463119,93.1752401 C194.580292,93.4799291 192.670155,93.6557086 191.73265,93.7025839 C191.334211,93.7025839 190.970933,93.6791466 190.642806,93.6322714 C190.572494,94.1244613 190.361558,94.3939899 190.009994,94.4408651 C189.400616,94.4408651 188.779528,93.9252453 188.146713,92.8939901 C187.513897,91.9096102 187.115463,90.6439979 186.9514,89.0971151 C186.9514,87.5267948 187.103742,86.6830532 187.408431,86.5658651 Z M221.580306,68.6361776 C222.517811,68.6361776 223.033431,69.1283602 223.127181,70.1127401 C223.009993,70.3236787 222.939682,71.8939755 222.916244,74.8236776 C223.783436,74.7064895 224.68577,74.6127405 225.623275,74.5424276 C226.724843,74.823679 227.310775,75.2221125 227.381088,75.7377401 C227.381088,76.2299301 226.888905,76.4760214 225.904525,76.4760214 C224.662331,76.5932095 223.654529,76.6869585 222.881088,76.7572714 L222.881088,77.0033651 C223.654529,77.1439908 224.322491,77.3783635 224.884994,77.7064901 C226.080312,78.1752425 226.736556,78.8080486 226.853744,79.6049276 C226.853744,80.2846185 226.513904,80.6244589 225.834213,80.6244589 C225.388898,80.554146 224.849841,80.1674311 224.217025,79.4643026 C223.631085,78.9955503 223.185777,78.6322727 222.881088,78.3744589 L222.881088,80.1674276 C222.740462,81.6205599 222.342028,82.3471151 221.685775,82.3471151 C221.263898,82.229927 220.947495,81.304155 220.736556,79.5697714 C220.759994,79.2416447 220.771713,78.9252416 220.771713,78.6205526 C218.849828,80.9643143 217.408436,82.1361776 216.447494,82.1361776 C215.674053,82.11274 215.252182,81.8314928 215.181869,81.2924276 C215.205307,81.1986772 215.310774,81.1049281 215.498275,81.0111776 C216.717031,80.5658629 218.09983,79.3705624 219.646713,77.4252401 C218.59202,77.6361787 217.654529,77.7416464 216.834213,77.7416464 C215.615457,77.5072702 215.006088,77.1439926 215.006088,76.6518026 C215.006088,76.4643017 215.884985,76.1596172 217.642806,75.7377401 C218.627186,75.503364 219.740456,75.2924286 220.98265,75.1049276 C221.029525,73.6986706 221.052963,72.3275906 221.052963,70.9916464 C221.052963,70.4057059 220.830309,69.8549302 220.384994,69.3393026 C220.502182,68.9408631 220.900616,68.7064905 221.580306,68.6361776 Z M219.717025,72.2572714 C219.904526,72.2572714 219.998275,72.4447695 219.998275,72.8197714 C219.974838,73.2885237 219.763902,73.757269 219.365463,74.2260214 C218.990461,74.6713361 218.56859,74.9174274 218.099838,74.9643026 C217.09202,74.8939898 216.552963,74.2963395 216.48265,73.1713339 C216.48265,72.8666449 216.599836,72.7143026 216.834213,72.7143026 C217.115464,72.7143026 217.420149,72.7494585 217.748275,72.8197714 C218.381091,72.7260209 219.037334,72.5385228 219.717025,72.2572714 Z M225.728744,69.9018026 C226.713124,69.9486779 227.205306,70.4994536 227.205306,71.5541464 C227.111556,71.9525859 226.525624,72.4330498 225.447494,72.9955526 C224.884991,73.3002416 224.38109,73.4994584 223.935775,73.5932089 C223.654524,73.5932089 223.5139,73.4877412 223.5139,73.2768026 C223.795152,72.9018007 224.123273,72.3978995 224.498275,71.7650839 C224.732651,71.3197691 224.861556,70.9916474 224.884994,70.7807089 C224.861556,70.6869584 224.8264,70.5932093 224.779525,70.4994589 C224.849838,70.1478946 225.166241,69.9486779 225.728744,69.9018026 Z M221.474838,82.3822714 C222.482655,82.5697723 222.986556,83.0619549 222.986556,83.8588339 C222.892806,84.2338357 222.810776,84.5971134 222.740463,84.9486776 C223.912344,84.7377391 224.920146,84.6205527 225.7639,84.5971151 C227.076407,84.5971151 227.73265,85.0307045 227.73265,85.8978964 C227.73265,86.5072744 227.357654,86.8119589 226.60765,86.8119589 C225.318581,86.8119589 223.853752,86.8939893 222.213119,87.0580526 C222.166244,87.0580526 222.119369,87.0697713 222.072494,87.0932089 C220.455298,91.616669 218.076416,93.9838328 214.935775,94.1947714 C214.420148,94.1947714 214.162338,94.1010223 214.162338,93.9135214 C214.162338,93.8900838 214.525615,93.6205552 215.252181,93.1049276 C217.385005,91.675233 218.873271,89.8002517 219.717025,87.4799276 C217.842016,87.761179 216.412343,87.9135213 215.427963,87.9369589 C214.302957,87.9135213 213.564683,87.6791486 213.213119,87.2338339 C213.213119,87.0697706 213.576397,86.9057097 214.302963,86.7416464 C216.576412,86.1557059 218.568579,85.6986793 220.279525,85.3705526 C220.349838,84.9486755 220.408431,84.5385234 220.455306,84.1400839 C220.455306,83.765082 220.279527,83.4955534 219.927963,83.3314901 C220.232652,82.7455497 220.748272,82.4291466 221.474838,82.3822714 Z M222.705306,88.6752401 C225.283444,88.6752401 226.572494,89.5541376 226.572494,91.3119589 C226.572494,91.9916498 226.150623,92.3314901 225.306869,92.3314901 C224.674053,92.214302 224.006091,91.6635263 223.302963,90.6791464 C222.904523,90.0932059 222.705306,89.4252439 222.705306,88.6752401 Z M231.775619,72.6088339 C231.119366,72.6791467 230.580309,72.7143026 230.158431,72.7143026 C228.939675,72.6674274 228.166246,72.4330547 227.838119,72.0111776 C227.838119,71.8471143 228.213115,71.6713348 228.963119,71.4838339 C233.017827,70.311953 236.006078,69.6908655 237.927963,69.6205526 C239.33422,69.6205526 240.037338,70.0892979 240.037338,71.0268026 C240.037338,71.6361807 239.638904,71.9408651 238.842025,71.9408651 C237.834208,71.9408651 236.6975,72.0111769 235.431869,72.1518026 C234.939679,72.2221155 234.482652,72.2807086 234.060775,72.3275839 C234.131088,72.4916472 234.177963,72.6674267 234.2014,72.8549276 C234.2014,73.4877433 233.990465,74.1322681 233.568588,74.7885214 C233.521712,74.8822718 233.474838,74.9525836 233.427963,74.9994589 C234.107654,74.9057084 234.834209,74.8353966 235.60765,74.7885214 C238.185788,74.9994599 239.498275,76.1010114 239.54515,78.0932089 C239.54515,84.6088665 239.381089,87.8666464 239.052963,87.8666464 C238.865462,88.9682144 238.467028,89.554146 237.85765,89.6244589 C237.154522,89.6244589 236.802963,89.3197744 236.802963,88.7103964 C236.990464,86.0150704 237.084213,82.452606 237.084213,78.0228964 C237.0139,77.1088293 236.369375,76.6283654 235.150619,76.5814901 C233.814675,76.8158663 232.642811,77.0971135 231.634994,77.4252401 C230.252174,77.308052 229.560775,76.9330558 229.560775,76.3002401 C229.818589,76.0424263 230.345927,75.7728978 231.142806,75.4916464 C231.517808,74.1557022 231.728744,73.1947743 231.775619,72.6088339 Z M234.588119,82.4525839 C235.384998,82.5228967 235.783431,82.8744557 235.783431,83.5072714 C235.689681,83.9760237 235.326403,84.2455523 234.693588,84.3158651 C233.427956,84.4564908 232.607652,84.5385213 232.23265,84.5619589 C231.576397,84.5619589 231.095933,84.5033657 230.791244,84.3861776 C230.767806,84.9721181 230.73265,85.5346124 230.685775,86.0736776 C230.685775,86.847119 230.967022,87.2338339 231.529525,87.2338339 C231.717026,87.2338339 231.93968,87.2221152 232.197494,87.1986776 C232.197494,87.1049272 232.185775,87.0111781 232.162338,86.9174276 C232.349839,86.5424257 232.724835,86.3549276 233.287338,86.3549276 C234.506094,86.7299295 235.115463,87.257268 235.115463,87.9369589 C235.115463,88.5463369 234.424063,89.6010139 233.041244,91.1010214 C230.603732,93.3744702 229.045154,94.5111776 228.365463,94.5111776 C227.849835,94.5111776 227.592025,94.2064932 227.592025,93.5971151 C227.615463,93.5268023 227.943584,93.2572737 228.5764,92.7885214 C230.099845,91.4291396 231.154522,90.1986831 231.740463,89.0971151 C231.342023,89.167428 230.955308,89.2025839 230.580306,89.2025839 C229.431863,89.2025839 228.740464,88.2065001 228.506088,86.2143026 C228.646713,84.8549208 228.787337,82.0893235 228.927963,77.9174276 C228.974838,77.7064891 229.068587,77.5775841 229.209213,77.5307089 C230.099842,77.5307089 230.650618,78.2689827 230.861556,79.7455526 C231.353746,79.6049269 231.951397,79.4525847 232.654525,79.2885214 C233.427967,79.0775828 234.049054,78.9603965 234.517806,78.9369589 C235.291248,79.0072717 235.677963,79.3353934 235.677963,79.9213339 C235.60765,80.3900862 235.256091,80.6596148 234.623275,80.7299276 C233.357644,80.9408662 232.53734,81.0697711 232.162338,81.1166464 C231.623272,81.1166464 231.21312,81.0697718 230.931869,80.9760214 C230.908431,81.7729004 230.884994,82.5111742 230.861556,83.1908651 C231.353746,83.073677 231.963115,82.9330534 232.689681,82.7689901 C233.463123,82.5814892 234.095929,82.4760215 234.588119,82.4525839 Z M235.467025,90.2221151 C238.279539,90.3861784 239.685775,91.452574 239.685775,93.4213339 C239.662338,94.1479 239.310779,94.5463335 238.631088,94.6166464 C237.670145,94.5228959 236.908434,94.1244624 236.345931,93.4213339 C235.549052,92.5307044 235.092026,91.5697765 234.974838,90.5385214 C234.974838,90.3275828 235.138899,90.2221151 235.467025,90.2221151 Z M225.2014,82.0307089 C226.232655,82.1713346 226.783431,82.6400799 226.853744,83.4369589 C226.853744,83.9994617 226.537341,84.2807089 225.904525,84.2807089 C224.709207,84.0463327 223.830309,83.4135265 223.267806,82.3822714 C223.572495,82.1478952 224.21702,82.0307089 225.2014,82.0307089 Z M267.248275,77.7416464 C268.443594,78.3041492 269.088118,79.6049174 269.181869,81.6439901 C269.134994,83.0268095 268.595937,83.7416461 267.564681,83.7885214 C266.814678,83.6947709 266.416244,83.0971206 266.369369,81.9955526 C266.439682,81.0580479 266.533431,80.2963368 266.650619,79.7103964 C266.83812,78.632266 267.037337,77.9760225 267.248275,77.7416464 Z M271.502181,69.9018026 C273.28344,70.0658659 274.197494,70.9213261 274.244369,72.4682089 C274.197494,73.0775869 274.150619,73.7221117 274.103744,74.4018026 C274.103744,79.4174527 273.951402,84.8431797 273.646713,90.6791464 C273.248273,93.4447852 272.486562,94.8275839 271.361556,94.8275839 C270.845929,94.7103958 270.342028,94.3119623 269.849838,93.6322714 C269.381085,92.9760181 269.076401,92.2846188 268.935775,91.5580526 C268.935775,91.2768012 269.099836,91.1361776 269.427963,91.1361776 C269.802965,91.1361776 270.177961,91.2064894 270.552963,91.3471151 C271.232654,91.3471151 271.619368,90.585404 271.713119,89.0619589 C271.713119,84.7728749 271.7014,79.6049579 271.677963,73.5580526 C271.677963,72.9955498 271.455309,72.3861809 271.009994,71.7299276 C270.564679,71.2143 270.259995,70.8158665 270.095931,70.5346151 C270.095931,70.112738 270.564677,69.9018026 271.502181,69.9018026 Z M253.713119,72.9603964 C254.322497,72.9603964 254.920147,73.546328 255.506088,74.7182089 C255.740464,75.5619631 256.021711,76.393986 256.349838,77.2143026 C256.490463,77.495554 256.595931,77.7416453 256.666244,77.9525839 C257.463123,77.7885206 258.529518,77.5893038 259.865463,77.3549276 C260.404528,77.2377395 260.861555,77.1439905 261.236556,77.0736776 C261.330307,76.6518005 261.506086,76.2064925 261.7639,75.7377401 C262.021714,75.0346116 262.150619,74.19087 262.150619,73.2064901 C262.127181,72.8549259 262.009995,72.6791464 261.799056,72.6791464 C261.236554,72.7728968 260.568592,72.9135204 259.79515,73.1010214 C259.185772,73.3822728 258.576403,73.5228964 257.967025,73.5228964 C256.185766,73.4994588 255.283432,73.1244625 255.259994,72.3978964 C255.259994,72.0932074 256.127173,71.753367 257.861556,71.3783651 C259.361564,70.9096128 260.650614,70.6635215 261.728744,70.6400839 C263.93188,70.8275848 265.080306,71.6478891 265.174056,73.1010214 C265.174056,74.2729022 264.810779,75.3861724 264.084213,76.4408651 C263.943587,76.6986789 263.814682,76.9213329 263.697494,77.1088339 C264.025621,77.34321 264.189681,77.6361759 264.189681,77.9877401 C264.119369,78.4564925 263.756091,78.7377397 263.099838,78.8314901 C261.99827,78.9721158 261.072498,79.0775835 260.322494,79.1478964 C260.509995,79.4525854 260.603744,79.815863 260.603744,80.2377401 C260.556869,80.5424291 260.357652,81.0111745 260.006088,81.6439901 C260.310777,81.6205525 260.638898,81.6088339 260.990463,81.6088339 C263.006098,81.7963348 264.0139,82.8510118 264.0139,84.7728964 C263.802962,86.9291572 263.275623,88.7689825 262.431869,90.2924276 C262.033429,91.065869 261.611559,91.7572683 261.166244,92.3666464 C260.533428,93.186963 259.818592,93.7963319 259.021713,94.1947714 C258.506085,94.1947714 258.224838,94.1361782 258.177963,94.0189901 C257.404521,93.2689864 256.935776,92.4369634 256.771713,91.5228964 C256.888901,91.2650826 257.052962,91.1361776 257.2639,91.1361776 C257.521714,91.2064905 257.791243,91.3002395 258.072494,91.4174276 C258.681872,91.2768019 259.174055,90.8666498 259.549056,90.1869589 C259.994371,89.6244561 260.357649,89.0268058 260.6389,88.3939901 C261.224841,87.1517964 261.529525,86.0033704 261.552963,84.9486776 C261.552963,83.8939849 260.990468,83.3080532 259.865463,83.1908651 C259.560774,83.1908651 259.279526,83.2025838 259.021713,83.2260214 C258.248271,84.3744646 257.252188,85.7689819 256.033431,87.4096151 C254.345923,89.5190007 252.91625,90.7143012 251.744369,90.9955526 C250.595926,90.9486774 249.834215,90.6205557 249.459213,90.0111776 C249.459213,89.8705519 249.611555,89.7299283 249.916244,89.5893026 C252.869384,87.7377309 255.506076,84.796354 257.8264,80.7650839 C258.107652,80.3197691 258.271712,79.9447729 258.318588,79.6400839 C258.29515,79.5463334 258.259994,79.4525843 258.213119,79.3588339 C258.025618,79.3822715 257.861557,79.3939901 257.720931,79.3939901 C257.416242,79.3939901 257.158432,79.3822715 256.947494,79.3588339 C256.877181,79.7572734 256.677964,79.9799274 256.349838,80.0268026 C255.74046,80.0268026 255.107653,79.5814946 254.4514,78.6908651 C253.818584,77.8705485 253.420151,76.7924343 253.256088,75.4564901 C253.256088,73.8861698 253.40843,73.0541468 253.713119,72.9603964 Z"/>
    <g fill="#D4D5D6" transform="translate(70.13 55.411)">
      <path d="M32.0143345,49.2859462 L244.956105,49.2859462 L244.956105,1.89565412 L32.0143345,1.89565412 L32.0143345,49.2859462 Z M245.903932,51.1816004 L31.0665074,51.1816004 C30.5425408,51.1816004 30.1186804,50.75774 30.1186804,50.2337733 L30.1186804,0.94782706 C30.1186804,0.423956833 30.5425408,0 31.0665074,0 L245.903932,0 C246.427899,0 246.851759,0.423956833 246.851759,0.94782706 L246.851759,50.2337733 C246.851759,50.75774 246.427899,51.1816004 245.903932,51.1816004 L245.903932,51.1816004 Z"/>
      <path d="M276.076388,66.5575483 L233.478853,66.5575483 L233.478853,64.6619907 L274.327036,64.6619907 L259.202887,41.485073 C258.99737,41.1703844 258.99737,40.7631119 259.202887,40.4484233 L274.327036,17.2716021 L246.851817,17.2716021 L246.851817,50.2337637 L244.956067,50.2337637 L244.956067,16.323775 C244.956067,15.7999048 245.38012,15.3760444 245.90399,15.3760444 L276.076388,15.3760444 C276.424446,15.3760444 276.744728,15.5666128 276.90945,15.8720431 C277.076004,16.1774733 277.059417,16.549641 276.870584,16.8421481 L261.128149,40.9666999 L276.870584,65.0914447 C277.059417,65.3838553 277.076004,65.7559266 276.90945,66.0613568 C276.744728,66.3668835 276.424446,66.5575483 276.076388,66.5575483"/>
      <path d="M233.478824 66.5575483C233.373221 66.5575483 233.265881 66.539128 233.162303 66.5038304 232.784638 66.3687159 232.530997 66.0114966 232.530997 65.6097213L232.530997 50.2337637 234.426555 50.2337637 234.426555 62.9292262 245.167148 49.6377552 246.640774 50.8298686 234.215637 66.2059226C234.032302 66.4315957 233.760144 66.5575483 233.478824 66.5575483M43.5453335 66.5575483L.947701686 66.5575483C.599644313 66.5575483.279362092 66.3668835.114640011 66.0613568-.0519144592 65.7559266-.0353265212 65.3838553.153505935 65.0914447L15.8960377 40.9666999.153505935 16.8421481C-.0353265212 16.549641-.0519144592 16.1774733.114640011 15.8720431.279362092 15.5666128.599644313 15.3760444.947701686 15.3760444L31.1201964 15.3760444C31.6440666 15.3760444 32.0680235 15.7999048 32.0680235 16.323775L32.0680235 50.2337637 30.1723694 50.2337637 30.1723694 17.2716021 2.69705405 17.2716021 17.8212994 40.4484233C18.0267198 40.7631119 18.0267198 41.1703844 17.8212994 41.485073L2.69705405 64.6619907 43.5453335 64.6619907 43.5453335 66.5575483z"/>
      <path d="M43.5453335 66.5575483C43.2639172 66.5575483 42.9918557 66.4315957 42.8085204 66.2059226L30.3833834 50.8298686 31.856913 49.6377552 42.5975064 62.9292262 42.5975064 50.2337637 44.4931605 50.2337637 44.4931605 65.6097213C44.4931605 66.0114966 44.2395194 66.3687159 43.8618545 66.5038304 43.7582763 66.539128 43.6508405 66.5575483 43.5453335 66.5575483M239.691103 26.1722942C239.691103 27.8267481 238.349891 29.1679601 236.695437 29.1679601 235.040887 29.1679601 233.699675 27.8267481 233.699675 26.1722942 233.699675 24.5178403 235.040887 23.1766283 236.695437 23.1766283 238.349891 23.1766283 239.691103 24.5178403 239.691103 26.1722942M43.3240002 26.1722942C43.3240002 27.8267481 41.9827883 29.1679601 40.3283344 29.1679601 38.673784 29.1679601 37.3325721 27.8267481 37.3325721 26.1722942 37.3325721 24.5178403 38.673784 23.1766283 40.3283344 23.1766283 41.9827883 23.1766283 43.3240002 24.5178403 43.3240002 26.1722942"/>
    </g>
  </g>
</svg>
