<svg xmlns="http://www.w3.org/2000/svg" xmlns:xlink="http://www.w3.org/1999/xlink" width="400" height="139" viewBox="0 0 400 139">
  <defs>
    <polygon id="tit_contact-a" points="0 .118 0 25.537 31.735 25.537 31.735 .118 0 .118"/>
    <polygon id="tit_contact-c" points=".333 7.059 11.337 7.059 11.337 .034 .333 .034 .333 7.059"/>
    <polygon id="tit_contact-e" points=".147 .005 29.313 .005 29.313 14.344 .147 14.344 .147 .005"/>
    <polygon id="tit_contact-g" points="0 5.254 0 .152 6.452 .152 6.452 5.254 0 5.254"/>
    <polygon id="tit_contact-i" points="0 112.933 57.941 112.933 57.941 .372 0 .372"/>
  </defs>
  <g fill="none" fill-rule="evenodd" transform="translate(-6)">
    <rect width="394.03" height="139" fill="#FFF"/>
    <g transform="translate(17.91 13.9)">
      <path fill="#1A1A1A" d="M31.7353042,68.7457058 C29.2488263,68.7457058 26.8640988,66.3877745 24.4605286,61.560125 C22.8042584,58.2335029 21.7102534,54.8941602 21.6646541,54.7538484 C21.3416909,53.7616439 21.8662706,52.6900321 22.8359141,52.3596827 C23.8055576,52.0285624 24.8539634,52.5647538 25.1780572,53.5565729 C25.1882323,53.5889525 26.2411603,56.7983911 27.7764606,59.8740711 C29.9294233,64.1871156 31.3950057,65.0008467 31.7839183,64.9553611 C34.1490494,64.6519947 37.3971478,60.0498462 38.9584509,57.8380087 C39.9808539,56.38902 40.3603451,55.8709459 40.8630674,55.533658 C41.719278,54.9608468 42.8660425,55.2056214 43.4264234,56.0798716 C43.9574096,56.9086361 43.7708673,58.005689 43.0220598,58.6062541 C42.8325026,58.8194201 42.351261,59.5013198 41.960841,60.0548574 C39.8093856,63.1031688 36.2081757,68.2056597 32.2440561,68.7129407 C32.0737185,68.7349126 31.9041345,68.7457058 31.7353042,68.7457058"/>
      <path fill="#000" d="M6.61569693,6.02989767 C6.71292508,9.32760938 5.31856796,10.73728 3.54886498,10.7916315 C1.7799157,10.845983 0.305288838,9.52420003 0.208060693,6.22725926 C0.111209401,2.93108943 1.84435761,0.214283804 3.61330689,0.159932272 C5.38300987,0.105580741 6.51884564,2.73372784 6.61569693,6.02989767" transform="translate(16.205 105.387)"/>
      <path fill="#FECD97" d="M20.4079992,75.0045352 C18.9733188,75.048479 17.814495,76.2411289 17.7941449,77.7236537 L17.1934408,110.049323 C17.172337,111.572708 17.9859632,112.825106 19.4756642,112.845922 C20.9698874,112.868665 22.5662379,111.649803 22.5873417,110.126803 L23.1880458,77.8011335 C23.2087727,76.2773633 22.0182933,75.0245797 20.5285923,75.0033788 C20.4886458,75.0026078 20.4479457,75.0033788 20.4079992,75.0045352"/>
      <path fill="#1A1A1A" d="M25.699396,55.8928021 C25.699396,60.7555296 21.5894342,70.4393535 16.520004,70.4393535 C11.44982,70.4393535 7.34098874,60.7555296 7.34098874,55.8928021 C7.34098874,51.0304601 11.4501969,49.5155558 16.520004,49.5155558 C21.5894342,49.5155558 25.699396,51.0304601 25.699396,55.8928021"/>
      <path fill="#000" d="M9.43105469,111.471715 C9.39186195,114.770583 10.8103377,116.154812 12.5807944,116.176784 C14.3508742,116.198756 15.8021362,114.84999 15.8417058,111.551507 C15.8805216,108.254181 14.8539733,105.562816 13.0838935,105.540845 C11.3138137,105.518873 9.47024743,108.174003 9.43105469,111.471715"/>
      <path fill="#FECD97" d="M11.7576714,75.0154441 C13.1931056,75.0335612 14.3726563,76.2050102 14.4190093,77.6859931 L15.7869867,109.994317 C15.8344702,111.51693 14.2897486,112.790915 12.8004245,112.839099 C11.3069549,112.888825 10.4435841,111.692706 10.3957237,110.170477 L9.02736946,77.8625392 C8.98026281,76.3399253 10.1481311,75.0651699 11.6374552,75.016215 C11.6774017,75.0154441 11.717725,75.0154441 11.7576714,75.0154441"/>
      <path fill="#1A1A1A" d="M21.3096584,67.3338766 L11.5476511,67.3338766 C11.5476511,67.3338766 7.5820241,76.436409 8.72125155,97.75917 L19.7834026,97.75917 L20.7040551,89.5119997 L21.5685566,97.75917 L24.18731,97.75917 C24.18731,97.75917 25.2409917,76.9922594 21.3096584,67.3338766"/>
      <path fill="#CD5257" d="M17.2039927,53.3428287 C17.2039927,53.3428287 17.6686527,55.6433247 19.5483969,56.7746846 C21.428141,57.905659 18.3168404,61.0345341 18.3168404,61.0345341 C18.3168404,61.0345341 13.4098339,57.221061 16.0417772,53.5193748 L17.2039927,53.3428287 Z"/>
      <path fill="#CD5257" d="M16.435928,53.3947903 C16.435928,53.3947903 12.3730728,55.1644916 13.4697159,56.4060964 C14.5671126,57.6480868 14.599522,58.7663406 14.599522,58.7663406 C14.599522,58.7663406 15.0468468,54.6267584 16.435928,53.3947903"/>
      <polygon fill="#CD5257" points="16.934 51.565 18.091 53.086 16.551 54.188 15.463 53.165"/>
      <path fill="#CD5257" d="M43.1642089,58.8295965 C42.9610849,59.2902354 42.4308524,59.4953064 41.9801359,59.2875371 L39.5324738,58.1581046 C39.082511,57.9503352 38.8820251,57.4079763 39.085149,56.9473375 L39.4593643,56.0992994 C39.6621114,55.6382751 40.1919671,55.4328186 40.6430604,55.6409734 L43.0903456,56.7700204 C43.5410621,56.9781752 43.7411712,57.5201486 43.5380473,57.981173 L43.1642089,58.8295965 Z"/>
      <path fill="#FECD97" d="M48.5446561,55.8305099 C48.5446561,56.9406688 46.8303506,57.8399746 44.7146963,57.8399746 C42.5997957,57.8399746 40.8851133,56.9406688 40.8851133,55.8305099 C40.8851133,54.7218928 42.5997957,54.7596691 44.7146963,54.7596691 C46.8303506,54.7596691 48.5446561,54.7218928 48.5446561,55.8305099"/>
      <path fill="#534741" d="M22.6941419,65.3246431 C22.4424039,70.673836 22.1842594,75.9821689 21.9212158,81.2492563 C15.4340636,80.3183418 8.95708633,79.4618233 2.49066098,78.679701 C2.87128279,74.248702 3.2462518,69.7756866 3.61519115,65.2614257 C9.96479199,65.2082306 16.3238142,65.2290461 22.6941419,65.3246431"/>
      <path fill="#736357" d="M9.65773194 68.3873326C9.47156642 71.0586526 9.28313978 73.7172519 9.09282888 76.3627453 7.66945406 76.2201207 6.24645609 76.0805799 4.82458868 75.9452793 5.02922001 73.4030924 5.23234393 70.8477995 5.43320672 68.279786 6.84075371 68.3117801 8.24943125 68.347629 9.65773194 68.3873326M12.9412168 68.4859749C12.7659801 71.237473 12.5884822 73.9762505 12.4102306 76.7026929 11.9934309 76.6587491 11.5766311 76.6155763 11.1602083 76.5727889 11.343359 73.8771842 11.5246254 71.168859 11.7040075 68.4474277 12.1166619 68.4601482 12.5285625 68.4728688 12.9412168 68.4859749"/>
      <path fill="#1A1A1A" d="M7.38519363,53.2545557 C8.51801458,51.9223649 9.98095899,50.8696413 11.763475,50.1079489 C12.7568602,49.6835444 13.8991025,50.1626859 14.3143948,51.1799461 C14.7293103,52.1964354 14.2612585,53.3640297 13.2667427,53.7884342 C11.0919224,54.7178068 9.69191253,56.1945495 8.98568949,58.303466 C6.55950811,65.5534206 12.9584767,77.244782 13.0232955,77.36158 C13.5550355,78.3194775 13.2264194,79.5360267 12.2895622,80.0791565 C11.3530818,80.6226718 10.1648634,80.2876968 9.63274657,79.3301847 C9.3316408,78.7893677 2.30370407,65.9693448 5.2932811,57.0186883 C5.77263847,55.585504 6.47094759,54.3292512 7.38519363,53.2545557"/>
      <path fill="#2F2825" d="M23.2667705,6.33804387 C23.2667705,9.83889925 20.1611226,12.6763576 16.3304091,12.6763576 C12.4996955,12.6763576 9.39367085,9.83889925 9.39367085,6.33804387 C9.39367085,2.83757396 12.4996955,0.000115641556 16.3304091,0.000115641556 C20.1611226,0.000115641556 23.2667705,2.83757396 23.2667705,6.33804387"/>
      <g transform="translate(0 7.863)">
        <mask id="tit_contact-b" fill="#fff">
          <use xlink:href="#tit_contact-a"/>
        </mask>
        <path fill="#3E3531" d="M2.13280111,25.5365081 C2.13280111,25.5365081 -6.80615858,3.57771847 11.9159121,0.470044379 C11.9159121,0.470044379 28.9021967,-2.63685877 31.2884316,9.60804016 C31.2884316,9.60804016 32.6349283,16.7327164 30.6538107,24.9590713 L2.13280111,25.5365081 Z" mask="url(#tit_contact-b)"/>
      </g>
      <path fill="#FECD97" d="M31.2885447,24.0838574 C31.2885447,42.0749853 24.9717301,51.1771322 16.709222,51.1771322 C8.44897506,51.1771322 1.31514256,41.3071254 1.3720474,24.0838574 C1.40370308,14.331805 8.06910696,9.67993066 16.3301076,9.67993066 C24.5926157,9.67993066 31.2885447,14.331805 31.2885447,24.0838574"/>
      <path fill="#FECD97" d="M6.18804383 35.8806453C6.18804383 37.4591526 5.06087569 38.7381482 3.66991025 38.7381482 2.27856796 38.7381482 1.14951555 37.4591526 1.14951555 35.8806453 1.14951555 34.3017526 2.27856796 33.0219861 3.66991025 33.0219861 5.06087569 33.0219861 6.18804383 34.3017526 6.18804383 35.8806453M31.766583 35.1932719C31.766583 36.7717792 30.6401686 38.0511602 29.2476957 38.0511602 27.8578609 38.0511602 26.7295622 36.7717792 26.7295622 35.1932719 26.7295622 33.6147647 27.8578609 32.3353836 29.2476957 32.3353836 30.6401686 32.3353836 31.766583 33.6147647 31.766583 35.1932719"/>
      <path fill="#CD5257" d="M13.3397769,44.3783338 C13.3397769,44.3783338 15.6887033,46.0019413 20.3149541,44.5637458 C20.3149541,44.5637458 21.3686359,48.0410874 16.8279308,48.3190126 C16.8279308,48.3190126 12.8419537,48.134757 13.3397769,44.3783338"/>
      <path fill="#BEA785" d="M15.3248892,40.7579436 C15.3248892,40.7579436 17.0180909,43.6254687 18.3917211,40.7579436 C18.3917211,40.7579436 17.0180909,42.1915134 15.3248892,40.7579436"/>
      <path fill="#A67C52" d="M12.0064323 32.8219262C12.0064323 32.8219262 4.42565181 29.194636 4.31071156 31.9442068L12.0064323 32.8219262zM20.7495036 33.399363C20.7495036 33.399363 28.328023 29.7716874 28.443717 32.5216436L20.7495036 33.399363z"/>
      <path fill="#754C24" d="M11.9159121,36.2269918 C11.9159121,36.9967791 11.3054098,37.6200871 10.552457,37.6200871 C9.80101155,37.6200871 9.19163981,36.9967791 9.19163981,36.2269918 C9.19163981,35.4579754 9.80101155,34.834282 10.552457,34.834282 C11.3054098,34.834282 11.9159121,35.4579754 11.9159121,36.2269918"/>
      <path fill="#754C24" d="M9.24372093,36.5857119 C9.24372093,36.5857119 8.11692964,36.3343843 8.15762979,35.1933876 C8.15762979,35.1933876 8.97200972,36.1967708 9.87457331,35.8691197 L9.24372093,36.5857119 Z"/>
      <path fill="#754C24" d="M9.71478752 35.8900508C9.71478752 35.8900508 8.80506372 35.6861362 8.83860366 34.7640876 8.83860366 34.7640876 9.49432836 35.5751203 10.22467 35.3103012L9.71478752 35.8900508zM21.9312401 36.262725C21.9312401 37.0325123 22.5421193 37.6554348 23.2939416 37.6554348 24.0450102 37.6554348 24.6558893 37.0325123 24.6558893 36.262725 24.6558893 35.4937087 24.0450102 34.8704007 23.2939416 34.8704007 22.5421193 34.8704007 21.9312401 35.4937087 21.9312401 36.262725"/>
      <path fill="#754C24" d="M24.6034313,36.6216764 C24.6034313,36.6216764 25.7290921,36.3695778 25.6887688,35.2289666 C25.6887688,35.2289666 24.8758963,36.2323499 23.9744632,35.9050842 L24.6034313,36.6216764 Z"/>
      <path fill="#754C24" d="M24.1319879,35.9258226 C24.1319879,35.9258226 25.0424654,35.7222935 25.0070412,34.7987029 C25.0070412,34.7987029 24.3520702,35.6105067 23.6217286,35.345302 L24.1319879,35.9258226 Z"/>
      <path fill="#3E3531" d="M31.3698696,21.3992773 L30.6372668,18.2919886 L29.2478088,14.5455877 L24.3147994,10.7078299 L17.3253017,8.97089373 L12.6794546,9.51942018 L7.22977934,11.4386845 L2.94156592,15.3681846 L0.529704964,22.3128456 L1.36443497,23.1061466 C1.07237368,26.1101288 1.50010215,28.4379933 1.50010215,28.4379933 C3.09682947,13.3602617 16.3300322,21.0353918 16.3300322,21.0353918 C31.1595855,13.6327903 31.2884693,28.4379933 31.2884693,28.4379933 C31.3721307,27.1782713 31.3887123,26.0045095 31.3472584,24.9089985 L31.3698696,24.96335 L31.3698696,21.3992773 Z"/>
      <path fill="#FECD97" d="M10.1383706,79.2835041 L10.1361095,79.284275 C10.13724,79.2811912 10.13724,79.2788784 10.1379938,79.2765656 C10.1470382,78.819396 10.2778063,78.4096394 10.5257758,78.112826 C11.2662925,76.4610792 12.2905797,76.74363 13.0133842,77.2628606 C13.3348401,77.422446 13.6513968,77.7196448 13.8869301,78.1189936 C14.2860178,78.7920275 14.328979,79.5367591 14.0297575,79.9445883 C14.2856409,80.8924636 14.0761105,81.8083447 13.4324451,82.2069226 C12.590178,82.729237 11.3280964,82.174543 10.6116983,80.9660887 C10.2830823,80.4113947 10.1289493,79.8166116 10.1383706,79.2835041"/>
      <path fill="#CD5257" d="M12.8057758,76.1978404 C13.0654277,76.628027 12.9350364,77.1923578 12.5140913,77.4579479 L10.2284762,78.8996126 C9.80866168,79.1652028 9.25732533,79.031444 8.99767343,78.6012574 L8.51982347,77.8094982 C8.25979471,77.3785407 8.3905628,76.8157518 8.81150791,76.5497762 L11.0963693,75.1073405 C11.5169376,74.8421359 12.0686508,74.9755092 12.3283027,75.4064667 L12.8057758,76.1978404 Z"/>
    </g>
    <g transform="translate(342.004 13.9)">
      <path fill="#2F2B34" d="M41.7857807,78.3856093 C41.7857807,79.1055859 41.2645532,79.6892201 40.6221954,79.6892201 L26.4818807,79.6892201 C25.8387887,79.6892201 25.3190294,79.1055859 25.3190294,78.3856093 L25.3190294,71.3756827 C25.3190294,70.6553346 25.8387887,70.0717004 26.4818807,70.0717004 L40.6221954,70.0717004 C41.2645532,70.0717004 41.7857807,70.6553346 41.7857807,71.3756827 L41.7857807,78.3856093 Z"/>
      <path fill="#333" d="M42.2646493,106.062541 C42.2646493,106.062541 45.7576076,109.761987 47.3950695,110.956376 C49.0317973,112.150764 47.2710027,113.512701 44.5070287,112.672357 C41.7404853,111.831641 34.6007697,111.560443 37.8522016,105.908367 L42.2646493,106.062541 Z"/>
      <g transform="translate(19.821 105.874)">
        <mask id="tit_contact-d" fill="#fff">
          <use xlink:href="#tit_contact-c"/>
        </mask>
        <path fill="#333" d="M6.09333297,0.189541817 C6.09333297,0.189541817 2.59890637,3.88824494 0.963646865,5.0822618 C-0.674182073,6.27665016 1.08551132,7.63895876 3.85095355,6.7986146 C6.61602872,5.95827044 13.7579466,5.68595732 10.5046795,0.03388125 L6.09333297,0.189541817 Z" mask="url(#tit_contact-d)"/>
      </g>
      <path fill="#2F2B34" d="M27.3334269 68.2434131C25.5575828 68.3411189 24.1961513 69.8776633 24.2930555 71.6746327 24.9618418 84.1089029 25.7073439 101.234537 24.8608998 105.223757 24.486497 106.983205 25.5935548 108.716647 27.3319587 109.094839 27.5599039 109.14462 27.7878492 109.168397 28.0117568 109.168397 29.4972551 109.168397 30.8318912 108.122239 31.1567407 106.593496 32.463113 100.440631 30.9049364 74.7009119 30.723608 71.3205885 30.6270708 69.5232476 29.1100051 68.1460788 27.3334269 68.2434131M43.5450703 105.786104C42.4618715 101.883816 41.9292651 84.7514949 41.8474103 72.293077 41.8360314 70.5001942 40.3964158 69.05504 38.6279129 69.05504L38.6062562 69.05504C36.8274756 69.0672996 35.3952012 70.5362301 35.4073142 72.3358 35.429705 75.723925 35.6712315 101.522342 37.3450325 107.55001 37.7451297 108.987734 39.0371866 109.927641 40.4430326 109.927641 40.7319101 109.927641 41.0259264 109.888633 41.3170063 109.805416 43.0289817 109.318373 44.0266552 107.518803 43.5450703 105.786104"/>
      <path fill="#FFF" d="M45.4406132,56.0089755 C44.8426698,45.396194 38.2814434,43.093978 38.2814434,43.093978 C23.8728067,38.4018706 21.0695571,51.2856618 21.0695571,51.2856618 L21.0702912,51.2856618 C19.531936,56.3574471 20.0014078,63.1563589 20.3211185,66.1674064 C20.1361194,67.7630201 20.8430801,70.6054044 28.3799563,70.2773655 C38.7905579,69.823015 46.3358765,71.4401759 46.0378225,66.6221285 C46.0378225,66.6221285 46.2206191,61.4087997 45.4406132,56.0089755"/>
      <path fill="#443832" d="M17.4937529,27.5824953 C17.4937529,27.5824953 11.9812216,13.4095821 21.557125,7.17052819 C21.557125,7.17052819 33.3948622,-1.48219324 45.5824091,7.17052819 C45.5824091,7.17052819 52.8737211,13.0763421 48.3885952,26.881837 L17.4937529,27.5824953 Z"/>
      <path fill="#FECD97" d="M47.1898821,25.225928 C47.1898821,32.8804157 40.6939926,45.3206299 32.6788351,45.3206299 C24.6651459,45.3206299 18.1677882,32.8804157 18.1677882,25.225928 C18.1677882,17.5718119 24.6651459,11.367308 32.6788351,11.367308 C40.6939926,11.367308 47.1898821,17.5718119 47.1898821,25.225928"/>
      <path fill="#FECD97" d="M20.9528682 28.5816207C21.5133713 30.2463343 21.1272225 31.8861571 20.0902734 32.2435448 19.0529573 32.6016756 17.7575968 31.542515 17.1970937 29.8778014 16.6354895 28.2119733 17.0212712 26.5728935 18.0593215 26.2147627 19.0959035 25.8570035 20.391631 26.916164 20.9528682 28.5816207M48.6187061 29.6598766C48.2465056 31.3780869 47.0759461 32.5776763 46.0055945 32.3399132 44.9352428 32.1025215 44.3696008 30.5176815 44.7414342 28.7994712 45.1143688 27.0805178 46.2838272 25.8809284 47.3541788 26.1179485 48.4252646 26.3560832 48.9909066 27.9412948 48.6187061 29.6598766"/>
      <path fill="#443832" d="M36.863411 23.8402146C36.863411 23.8402146 44.9049969 25.5339056 42.4497217 23.3966377 39.9933454 21.2578838 36.863411 23.8402146 36.863411 23.8402146M28.4891204 23.8402146C28.4891204 23.8402146 20.4482686 25.5339056 22.9035438 23.3966377 25.359186 21.2578838 28.4891204 23.8402146 28.4891204 23.8402146M27.8510572 27.4905107C27.8510572 28.1020078 27.361397 28.5975954 26.7572136 28.5975954 26.1526631 28.5975954 25.6630029 28.1020078 25.6630029 27.4905107 25.6630029 26.8790135 26.1526631 26.383426 26.7572136 26.383426 27.361397 26.383426 27.8510572 26.8790135 27.8510572 27.4905107M40.3368784 27.5329737C40.3368784 28.1437278 39.8472182 28.6396869 39.2430347 28.6396869 38.6392184 28.6396869 38.1502923 28.1437278 38.1502923 27.5329737 38.1502923 26.9211051 38.6392184 26.425146 39.2430347 26.425146 39.8472182 26.425146 40.3368784 26.9211051 40.3368784 27.5329737"/>
      <path fill="#BEA785" d="M31.2951229,33.4686938 C31.2951229,33.4686938 33.2295377,30.6493428 34.8001943,33.4686938 C34.8001943,33.4686938 33.2295377,32.0595756 31.2951229,33.4686938"/>
      <path fill="#443832" d="M18.3490432,22.1758725 C18.3490432,22.1758725 43.9178214,20.6913388 43.6605112,11.5419153 C43.4039351,2.39286328 11.6688888,11.0485567 18.3490432,22.1758725"/>
      <path fill="#443832" d="M21.9113762,21.617352 C21.9113762,21.617352 13.9857818,23.1446088 12.6973955,13.7704248 C11.4101104,4.39624079 15.5314782,14.6705813 25.9648377,13.7704248 L21.9113762,21.617352 Z"/>
      <g transform="translate(13.581 .367)">
        <mask id="tit_contact-f" fill="#fff">
          <use xlink:href="#tit_contact-e"/>
        </mask>
        <path fill="#443832" d="M0.147228415,11.4353677 C0.147228415,11.4353677 7.39742949,-4.67605831 24.6170241,1.35643882 C41.8366187,7.38930744 6.64238374,20.0427655 0.147228415,11.4353677" mask="url(#tit_contact-f)"/>
      </g>
      <path fill="#CD5257" d="M38.3151764,36.3173936 C38.1646811,36.16099 37.9323311,36.1193815 37.7381555,36.2152297 C34.9793204,37.5686222 32.0824701,37.8520805 30.1388788,37.8520805 C28.9752935,37.8520805 28.2253866,37.7469446 28.2173113,37.7458301 C28.013225,37.7164812 27.8109741,37.817159 27.7096651,37.9999395 C27.6087231,38.1823484 27.6281774,38.4085949 27.7592184,38.570571 C29.2994089,40.4697043 30.9137459,41.4322735 32.5589161,41.4322735 C36.0639875,41.4322735 38.3085693,37.0886378 38.4032712,36.9039999 C38.5016437,36.7097028 38.4664058,36.4730542 38.3151764,36.3173936"/>
      <path fill="#FFF" d="M5.84024399,72.5186176 C4.66527975,72.7730985 3.47746835,72.0702112 3.13389868,70.8836244 C2.78262071,69.6728898 3.44076219,68.4049435 4.60985345,68.0022321 C6.62759116,66.8747147 14.2261337,56.3585245 20.1512423,47.1975843 C20.85233,46.1127899 22.2893763,45.8096419 23.360095,46.5192163 C24.4311808,47.2291622 24.7318043,48.6836041 24.0307166,49.7676554 C23.9962128,49.8200376 20.6030952,55.0612293 16.8476878,60.3536885 C8.84280802,71.6336929 7.00089282,72.1812911 6.01166176,72.47478 C5.95440015,72.4914978 5.8975056,72.506358 5.84024399,72.5186176"/>
      <g transform="translate(0 69.095)">
        <mask id="tit_contact-h" fill="#fff">
          <use xlink:href="#tit_contact-g"/>
        </mask>
        <path fill="#FECD97" d="M4.91686378,4.74683 L4.91759791,4.74943053 C4.91980028,4.7472015 4.92273677,4.74534398 4.92420501,4.74348645 C5.37936142,4.46225722 5.71191925,4.08332218 5.86314863,3.64828991 C7.0799579,1.89701565 6.18139106,0.99834521 5.22519554,0.553653803 C4.87244933,0.312918606 4.38352325,0.160230078 3.83917087,0.15205697 C2.9237192,0.136082257 2.148118,0.533221032 1.91797037,1.08676338 C0.810912526,1.38285282 0.0151229387,2.14443793 7.34123236e-05,3.05165298 C-0.019747915,4.23861125 1.29580092,5.22347083 2.94023697,5.25319122 C3.69601684,5.26582239 4.38719387,5.07338283 4.91686378,4.74683" mask="url(#tit_contact-h)"/>
      </g>
      <path fill="#C1272D" d="M32.4952309 47.1946123C32.4952309 48.4231791 30.3673747 49.4191838 29.2261801 49.4191838 28.0846185 49.4191838 27.1599903 48.4231791 27.1599903 47.1946123 27.1599903 45.9660455 28.0846185 44.9700407 29.2261801 44.9700407 30.3673747 44.9700407 32.4952309 45.9660455 32.4952309 47.1946123M33.4092877 47.1946123C33.4092877 48.4231791 35.5371439 49.4191838 36.6798068 49.4191838 37.8213684 49.4191838 38.7445284 48.4231791 38.7445284 47.1946123 38.7445284 45.9660455 37.8213684 44.9700407 36.6798068 44.9700407 35.5371439 44.9700407 33.4092877 45.9660455 33.4092877 47.1946123"/>
      <path fill="#C1272D" d="M33.8286923,47.1969528 C33.8286923,47.7185457 33.4113433,48.1405753 32.8967229,48.1405753 C32.3813684,48.1405753 31.9647534,47.7185457 31.9647534,47.1969528 L31.9647534,47.102962 C31.9647534,46.5817406 32.3813684,46.159711 32.8967229,46.159711 C33.4113433,46.159711 33.8286923,46.5817406 33.8286923,47.102962 L33.8286923,47.1969528 Z"/>
      <polygon fill="#231F27" points="24.549 44.488 21.088 46.29 17.809 73.013 25.752 77.591 32.788 72.186 32.788 57.545"/>
      <polygon fill="#231F27" points="41.504 44.488 44.966 46.29 48.245 73.013 40.302 77.591 33.265 72.186 33.265 57.545"/>
      <mask id="tit_contact-j" fill="#fff">
        <use xlink:href="#tit_contact-i"/>
      </mask>
      <polygon fill="#231F27" points="31.657 72.186 37.02 72.186 37.02 57.545 31.657 57.545" mask="url(#tit_contact-j)"/>
      <path fill="#2B2A33" d="M33.9175947 60.1900406C33.9175947 60.6596229 33.5413565 61.0400439 33.0773906 61.0400439 32.6134247 61.0400439 32.2379207 60.6596229 32.2379207 60.1900406 32.2379207 59.7208299 32.6134247 59.3400373 33.0773906 59.3400373 33.5413565 59.3400373 33.9175947 59.7208299 33.9175947 60.1900406M33.9175947 64.7527528C33.9175947 65.222335 33.5413565 65.6027561 33.0773906 65.6027561 32.6134247 65.6027561 32.2379207 65.222335 32.2379207 64.7527528 32.2379207 64.283542 32.6134247 63.9027495 33.0773906 63.9027495 33.5413565 63.9027495 33.9175947 64.283542 33.9175947 64.7527528M33.9175947 69.3154649C33.9175947 69.7854187 33.5413565 70.1658397 33.0773906 70.1658397 32.6134247 70.1658397 32.2379207 69.7854187 32.2379207 69.3154649 32.2379207 68.8462542 32.6134247 68.4654616 33.0773906 68.4654616 33.5413565 68.4654616 33.9175947 68.8462542 33.9175947 69.3154649" mask="url(#tit_contact-j)"/>
      <path fill="#FFF" d="M40.7534199,70.6181098 C39.5432177,70.6181098 38.5246217,69.6681717 38.4420329,68.4288313 C38.3561405,67.1359941 39.3218796,66.0170212 40.599254,65.9300891 C46.6587072,65.5173471 50.3814461,64.1100864 51.083635,61.9679889 C52.2149189,58.511507 46.5676759,52.1903506 43.6546749,49.6711756 C42.6819616,48.8289739 42.5670713,47.3477838 43.398833,46.3625527 C44.2320628,45.3773216 45.6951704,45.2621551 46.6678837,46.1036137 C47.8244949,47.103705 57.8933621,56.0878088 55.4847038,63.443978 C54.0931732,67.694366 49.3257769,70.0396766 40.9112564,70.6125373 C40.8580324,70.6166238 40.8051756,70.6181098 40.7534199,70.6181098" mask="url(#tit_contact-j)"/>
      <path fill="#FECD97" d="M37.9373599,70.729487 L37.9366257,70.7313445 C37.9402963,70.7313445 37.9432328,70.7306015 37.9458023,70.7306015 C38.4758392,70.7796402 38.9669677,70.6759903 39.3432059,70.4177944 C41.3528682,69.7468565 41.161262,68.4826252 40.6558182,67.5486618 C40.5141324,67.1429784 40.2105725,66.7246638 39.7800092,66.3895664 C39.0543284,65.8237644 38.1976065,65.6755339 37.6870238,65.9812824 C36.6225451,65.5495937 35.5364098,65.681478 34.989488,66.4014545 C34.2740849,67.342105 34.7490626,68.9265736 36.0517643,69.9430111 C36.6511759,70.4088782 37.3199622,70.6715322 37.9373599,70.729487" mask="url(#tit_contact-j)"/>
      <path fill="#E6E6E6" d="M42.522767,65.7346775 C42.522767,65.7346775 47.0416626,77.8914334 44.6267642,84.5484303 C44.6267642,84.5484303 54.0774997,83.0430924 57.9415573,79.6895173 C57.9415573,79.6895173 56.8223864,65.9401197 49.8467475,63.9027866 L42.522767,65.7346775 Z" mask="url(#tit_contact-j)"/>
      <path fill="#CCC" d="M46.0571666,69.9527445 C46.0571666,69.9527445 48.51391,82.0474591 46.7604567,83.3804188 C46.7604567,83.3804188 56.5342064,79.7712484 56.8252862,79.0750481 C57.115632,78.3788479 56.5342064,79.7712484 56.5342064,79.7712484 C56.5342064,79.7712484 52.558929,65.2376039 50.7680354,66.0708894 L50.7680354,71.345888 L49.0769825,69.4426682 L49.0769825,75.2767817 L46.0571666,69.9527445 Z" mask="url(#tit_contact-j)"/>
    </g>
    <g fill="#D4D5D6" transform="translate(69.083 55.6)">
      <path d="M31.5365086,49.4538265 L241.300044,49.4538265 L241.300044,1.90211119 L31.5365086,1.90211119 L31.5365086,49.4538265 Z M242.233724,51.3559377 L30.6028282,51.3559377 C30.0866819,51.3559377 29.6691478,50.9306335 29.6691478,50.4048821 L29.6691478,0.951055595 C29.6691478,0.425400936 30.0866819,0 30.6028282,0 L242.233724,0 C242.74987,0 243.167405,0.425400936 243.167405,0.951055595 L243.167405,50.4048821 C243.167405,50.9306335 242.74987,51.3559377 242.233724,51.3559377 L242.233724,51.3559377 Z"/>
      <path d="M271.955845,66.78426 L229.994094,66.78426 L229.994094,64.8822456 L270.232603,64.8822456 L255.334187,41.6263815 C255.131738,41.310621 255.131738,40.9019613 255.334187,40.5862008 L270.232603,17.3304335 L243.167462,17.3304335 L243.167462,50.4048724 L241.300006,50.4048724 L241.300006,16.3793779 C241.300006,15.8537232 241.71773,15.4284191 242.233781,15.4284191 L271.955845,15.4284191 C272.298708,15.4284191 272.61421,15.6196366 272.776473,15.9261072 C272.940542,16.2325778 272.924201,16.6060133 272.738187,16.8995167 L257.230714,41.1062428 L272.738187,65.3131624 C272.924201,65.606569 272.940542,65.9799077 272.776473,66.2863783 C272.61421,66.5929457 272.298708,66.78426 271.955845,66.78426"/>
      <path d="M229.994065 66.78426C229.890038 66.78426 229.784301 66.7657769 229.682269 66.7303591 229.310241 66.5947843 229.060385 66.2363482 229.060385 65.8332044L229.060385 50.4048724 230.927651 50.4048724 230.927651 63.1435789 241.507937 49.8068338 242.959569 51.0030078 230.719881 66.4314366C230.539282 66.6578784 230.271186 66.78426 229.994065 66.78426M42.8954031 66.78426L.933556884 66.78426C.590694398 66.78426.275192509 66.5929457.112928966 66.2863783-.0511396165 65.9799077-.0347992597 65.606569.151214802 65.3131624L15.6587834 41.1062428.151214802 16.8995167C-.0347992597 16.6060133-.0511396165 16.2325778.112928966 15.9261072.275192509 15.6196366.590694398 15.4284191.933556884 15.4284191L30.6557159 15.4284191C31.1717671 15.4284191 31.5893963 15.8537232 31.5893963 16.3793779L31.5893963 50.4048724 29.7220355 50.4048724 29.7220355 17.3304335 2.65679951 17.3304335 17.5553098 40.5862008C17.7576642 40.9019613 17.7576642 41.310621 17.5553098 41.6263815L2.65679951 64.8822456 42.8954031 64.8822456 42.8954031 66.78426z"/>
      <path d="M42.8954031 66.78426C42.6181871 66.78426 42.3501862 66.6578784 42.1695873 66.4314366L29.9299 51.0030078 31.3814367 49.8068338 41.9617227 63.1435789 41.9617227 50.4048724 43.8290835 50.4048724 43.8290835 65.8332044C43.8290835 66.2363482 43.5792281 66.5947843 43.2071999 66.7303591 43.1051677 66.7657769 42.9993354 66.78426 42.8954031 66.78426M236.113624 26.2614436C236.113624 27.921533 234.79243 29.2673134 233.16267 29.2673134 231.532814 29.2673134 230.21162 27.921533 230.21162 26.2614436 230.21162 24.6013542 231.532814 23.2555737 233.16267 23.2555737 234.79243 23.2555737 236.113624 24.6013542 236.113624 26.2614436M42.6773734 26.2614436C42.6773734 27.921533 41.3561795 29.2673134 39.7264189 29.2673134 38.0965633 29.2673134 36.7753695 27.921533 36.7753695 26.2614436 36.7753695 24.6013542 38.0965633 23.2555737 39.7264189 23.2555737 41.3561795 23.2555737 42.6773734 24.6013542 42.6773734 26.2614436"/>
    </g>
    <path fill="#000" d="M148.179676,71.359 C149.151676,71.359 149.655676,71.611 149.655676,72.043 C149.547676,72.655 149.079676,73.051 148.251676,73.231 L148.215676,73.231 C148.323676,73.483 148.395676,73.699 148.395676,73.843 C148.323676,79.243 148.251676,84.571 148.179676,89.899 C147.963676,92.275 147.567676,93.427 146.955676,93.427 C146.451676,93.355 146.127676,92.275 145.947676,90.187 C146.019676,88.891 146.091676,87.667 146.163676,86.443 C145.695676,86.659 145.155676,86.875 144.579676,87.091 C142.527676,88.531 141.267676,89.215 140.835676,89.215 C138.711676,89.107 137.523676,88.495 137.307676,87.379 C137.307676,87.163 137.415676,87.019 137.631676,87.019 C137.847676,87.091 138.099676,87.127 138.351676,87.127 C139.323676,87.127 140.223676,86.947 141.051676,86.551 C140.943676,86.191 140.871676,85.723 140.835676,85.183 C141.015676,82.303 141.123676,79.387 141.123676,76.507 C141.123676,76.003 140.943676,75.499 140.583676,75.067 L140.511676,75.067 C139.071676,74.923 138.351676,74.491 138.315676,73.735 C138.351676,73.447 139.287676,73.159 141.123676,72.835 C144.507676,71.935 146.847676,71.431 148.179676,71.359 Z M142.851676,85.867 C144.003676,85.435 145.119676,84.967 146.235676,84.535 C146.379676,80.863 146.487676,77.479 146.487676,74.455 C146.451676,74.167 146.343676,73.879 146.199676,73.591 C145.551676,73.735 144.867676,73.879 144.147676,74.059 C143.535676,74.275 143.031676,74.455 142.599676,74.599 C142.887676,74.887 143.031676,75.247 143.067676,75.679 C142.995676,75.823 142.923676,76.435 142.923676,77.551 C143.067676,77.515 143.247676,77.479 143.391676,77.407 C143.931676,77.227 144.363676,77.119 144.723676,77.047 C145.443676,77.119 145.839676,77.479 145.839676,78.055 C145.767676,78.523 145.407676,78.775 144.831676,78.847 C144.183676,79.063 143.787676,79.171 143.607676,79.207 C143.319676,79.207 143.067676,79.207 142.887676,79.171 C142.851676,79.891 142.851676,80.683 142.851676,81.547 C142.995676,81.475 143.175676,81.439 143.391676,81.367 C143.931676,81.187 144.363676,81.079 144.723676,81.043 C145.443676,81.115 145.839676,81.439 145.839676,82.015 C145.767676,82.483 145.407676,82.735 144.831676,82.807 C144.183676,82.987 143.787676,83.095 143.607676,83.095 C143.283676,83.095 143.031676,83.095 142.851676,83.059 L142.851676,85.867 Z M155.811676,76.507 C156.747676,76.579 157.251676,77.119 157.251676,78.127 C157.179676,78.739 156.747676,79.459 155.955676,80.323 C155.523676,80.863 155.163676,81.187 154.839676,81.331 C154.479676,81.331 154.299676,81.187 154.299676,80.899 C154.335676,80.683 154.371676,80.467 154.443676,80.251 C154.047676,80.431 153.579676,80.647 153.039676,80.863 C151.959676,81.295 151.203676,81.547 150.843676,81.547 C150.267676,81.547 149.979676,81.295 149.979676,80.791 C149.979676,80.467 150.627676,79.387 151.995676,77.515 C152.427676,76.831 152.823676,76.183 153.183676,75.607 C151.599676,76.399 150.627676,76.795 150.195676,76.795 C149.655676,76.795 149.403676,76.543 149.403676,75.967 C149.403676,75.103 149.763676,74.347 150.483676,73.699 C151.635676,72.907 152.247676,71.719 152.355676,70.135 C152.355676,69.991 152.283676,69.775 152.139676,69.559 C152.139676,69.487 152.175676,69.379 152.247676,69.235 C153.327676,69.307 153.939676,69.739 154.083676,70.495 C154.083676,71.359 153.507676,72.691 152.391676,74.527 C152.859676,74.347 153.471676,74.131 154.191676,73.879 C154.767676,72.799 155.055676,72.007 155.055676,71.539 C154.983676,71.467 154.947676,71.323 154.911676,71.107 C154.911676,70.675 155.271676,70.459 155.991676,70.459 C156.783676,70.459 157.215676,71.035 157.215676,72.187 C157.215676,72.691 156.495676,73.771 155.127676,75.355 C153.903676,76.939 153.255676,77.983 153.147676,78.451 C153.147676,78.595 153.219676,78.631 153.363676,78.631 C153.759676,78.631 154.263676,78.487 154.839676,78.271 C154.875676,77.947 154.911676,77.695 154.947676,77.479 C154.911676,77.371 154.875676,77.263 154.875676,77.119 C154.947676,76.759 155.235676,76.579 155.811676,76.507 Z M159.375676,68.479 C160.455676,68.551 161.067676,68.983 161.211676,69.739 C161.211676,70.603 160.743676,72.043 159.843676,73.987 C160.239676,73.843 160.743676,73.699 161.391676,73.483 C161.823676,72.655 162.075676,72.043 162.075676,71.647 C162.003676,71.575 161.967676,71.395 161.931676,71.179 C161.931676,70.783 162.291676,70.567 163.011676,70.567 C163.803676,70.567 164.235676,71.143 164.235676,72.259 C164.235676,72.727 163.587676,73.627 162.327676,74.995 C161.211676,76.363 160.599676,77.227 160.491676,77.623 C160.491676,77.731 160.563676,77.767 160.707676,77.767 C161.211676,77.767 161.823676,77.659 162.543676,77.443 C162.471676,77.155 162.435676,76.831 162.435676,76.471 C162.435676,76.183 162.543676,76.039 162.759676,76.039 C163.407676,76.183 163.983676,76.543 164.559676,77.155 C165.063676,77.695 165.315676,78.235 165.315676,78.811 C165.243676,79.999 164.811676,80.575 163.983676,80.575 C163.659676,80.575 163.335676,80.215 162.975676,79.495 C162.939676,79.423 162.903676,79.315 162.867676,79.171 C162.291676,79.387 161.571676,79.675 160.707676,79.999 C159.483676,80.431 158.619676,80.683 158.187676,80.683 C157.611676,80.683 157.323676,80.431 157.323676,79.927 C157.323676,79.639 157.935676,78.667 159.195676,77.011 C159.627676,76.363 160.023676,75.787 160.383676,75.211 C158.943676,75.931 158.043676,76.255 157.647676,76.255 C157.107676,76.255 156.855676,76.003 156.855676,75.427 C156.855676,74.491 157.179676,73.735 157.827676,73.087 C158.835676,72.223 159.375676,70.999 159.483676,69.379 C159.483676,69.199 159.411676,69.019 159.267676,68.803 C159.267676,68.695 159.303676,68.587 159.375676,68.479 Z M159.231676,81.115 C158.511676,81.187 158.115676,81.439 157.971676,81.835 C158.403676,82.411 158.655676,82.987 158.655676,83.563 C158.655676,86.443 158.547676,89.359 158.367676,92.239 C158.547676,94.075 158.871676,95.011 159.339676,95.155 C159.987676,95.155 160.419676,94.363 160.563676,92.851 C160.563676,91.087 160.563676,89.539 160.599676,88.171 C160.743676,88.207 160.995676,88.207 161.283676,88.207 C161.463676,88.207 161.823676,88.171 162.363676,88.099 C162.435676,89.143 162.687676,89.683 163.083676,89.683 C163.515676,89.683 163.839676,89.395 164.127676,88.783 C164.631676,87.703 165.027676,86.083 165.387676,83.959 C165.279676,82.987 164.703676,82.411 163.623676,82.267 C163.119676,82.267 162.759676,82.447 162.615676,82.735 C162.651676,82.843 162.723676,82.915 162.795676,82.951 C162.903676,83.023 163.011676,83.203 163.119676,83.419 C163.119676,84.571 163.047676,85.507 162.939676,86.263 C162.903676,86.263 162.867676,86.227 162.831676,86.227 C162.435676,86.263 161.931676,86.371 161.319676,86.551 C161.067676,86.623 160.815676,86.659 160.599676,86.731 C160.635676,84.211 160.707676,82.879 160.815676,82.663 C160.743676,81.655 160.203676,81.115 159.231676,81.115 Z M154.119676,81.691 C155.559676,81.943 156.351676,82.447 156.423676,83.239 C156.351676,83.527 156.243676,84.031 156.171676,84.823 C156.171676,88.423 155.811676,90.691 155.127676,91.699 C154.443676,93.067 153.435676,93.823 152.067676,94.003 C151.851676,94.003 151.707676,93.895 151.599676,93.643 C151.707676,93.427 151.851676,93.247 152.067676,93.103 C152.787676,92.455 153.291676,91.483 153.651676,90.223 C153.759676,89.971 153.867676,89.431 153.975676,88.567 L153.939676,88.567 C153.075676,88.567 152.355676,88.675 151.779676,88.819 C150.987676,89.179 150.555676,89.359 150.411676,89.359 C149.907676,89.323 149.655676,89.107 149.619676,88.711 C149.619676,88.495 149.727676,87.847 149.943676,86.803 C150.123676,85.939 150.231676,85.327 150.267676,84.895 C150.267676,84.643 150.159676,84.463 149.943676,84.391 C149.799676,84.391 149.763676,84.355 149.763676,84.247 C149.763676,83.851 150.159676,83.635 150.951676,83.635 C151.815676,83.707 152.283676,84.139 152.355676,84.895 C152.355676,85.111 152.319676,85.363 152.283676,85.651 C152.175676,86.119 152.103676,86.479 152.103676,86.695 C152.103676,86.947 152.175676,87.055 152.355676,87.055 C153.075676,86.839 153.543676,86.731 153.759676,86.695 C153.903676,86.695 154.011676,86.731 154.083676,86.767 C154.119676,86.011 154.155676,85.147 154.191676,84.139 C154.119676,83.419 153.831676,82.771 153.327676,82.267 C153.399676,81.979 153.687676,81.763 154.119676,81.691 Z M179.931676,71.179 C180.651676,71.287 181.047676,71.791 181.119676,72.727 C181.047676,73.555 180.723676,74.491 180.075676,75.535 C179.643676,76.435 179.319676,77.083 179.139676,77.443 C179.139676,77.587 179.211676,77.623 179.355676,77.623 L181.407676,77.011 C182.199676,75.499 182.595676,74.419 182.595676,73.843 C182.523676,73.771 182.487676,73.627 182.451676,73.447 C182.451676,73.087 182.775676,72.871 183.423676,72.871 C184.143676,72.871 184.539676,73.411 184.539676,74.419 C184.539676,75.067 183.855676,76.363 182.487676,78.343 C181.263676,80.323 180.615676,81.619 180.507676,82.195 C180.507676,82.339 180.579676,82.375 180.795676,82.375 C181.299676,82.303 181.911676,82.123 182.667676,81.763 C182.595676,81.403 182.523676,81.007 182.523676,80.575 C182.523676,80.287 182.631676,80.107 182.883676,80.107 C183.531676,80.215 184.143676,80.503 184.719676,81.007 C185.223676,81.475 185.475676,81.943 185.475676,82.411 C185.475676,82.771 185.439676,83.095 185.367676,83.311 C186.735676,82.771 188.247676,81.655 189.975676,79.999 C190.227676,79.783 190.479676,79.531 190.695676,79.315 C189.291676,78.595 187.959676,78.127 186.735676,77.911 C186.447676,77.911 186.303676,77.803 186.303676,77.587 C186.519676,77.011 186.987676,76.687 187.743676,76.651 C188.571676,76.723 189.939676,77.227 191.847676,78.091 C192.855676,76.975 193.611676,75.859 194.187676,74.707 C194.187676,74.347 194.043676,74.131 193.755676,74.131 C193.359676,74.167 192.603676,74.419 191.451676,74.851 C190.227676,75.319 189.471676,75.571 189.147676,75.607 C188.355676,75.607 187.995676,75.283 187.995676,74.635 C187.995676,74.347 188.607676,73.519 189.831676,72.115 C190.983676,70.747 191.595676,69.739 191.595676,69.091 C191.559676,68.875 191.523676,68.695 191.487676,68.515 C191.487676,68.299 191.667676,68.191 192.099676,68.191 C192.819676,68.335 193.179676,68.803 193.251676,69.523 C193.251676,69.739 193.143676,70.135 192.927676,70.639 C192.495676,71.503 192.243676,72.115 192.099676,72.511 C192.099676,72.727 192.171676,72.799 192.315676,72.799 C194.295676,72.187 195.411676,71.863 195.627676,71.863 C196.995676,72.043 197.715676,72.547 197.787676,73.375 C197.787676,73.879 197.139676,74.779 195.879676,76.147 C195.159676,77.155 194.439676,78.091 193.683676,78.955 C194.007676,79.135 194.367676,79.315 194.727676,79.495 C197.175676,80.575 199.587676,81.295 201.999676,81.655 C202.791676,81.835 203.223676,81.979 203.223676,82.087 C202.935676,83.599 201.783676,84.463 199.695676,84.607 C198.615676,84.607 196.527676,83.419 193.431676,81.043 C193.071676,80.791 192.711676,80.539 192.423676,80.323 C191.739676,81.043 191.055676,81.727 190.371676,82.303 C188.859676,84.031 187.635676,84.895 186.699676,84.895 C185.511676,84.895 184.827676,84.679 184.647676,84.211 C184.431676,84.319 184.251676,84.355 184.035676,84.355 C183.711676,84.355 183.423676,84.067 183.135676,83.455 C182.451676,83.815 181.587676,84.283 180.543676,84.859 C179.139676,85.543 178.203676,85.903 177.699676,85.903 C176.979676,85.903 176.655676,85.615 176.655676,85.003 C176.655676,84.643 177.411676,83.311 178.995676,81.079 C179.283676,80.647 179.535676,80.251 179.751676,79.891 C178.707676,80.323 177.771676,80.575 176.979676,80.647 C176.259676,80.647 175.863676,80.287 175.755676,79.531 C175.755676,79.063 176.403676,77.875 177.699676,76.003 C178.851676,74.491 179.463676,73.159 179.535676,72.079 C179.535676,71.971 179.499676,71.899 179.463676,71.827 C179.355676,71.755 179.319676,71.647 179.319676,71.539 C179.319676,71.323 179.499676,71.179 179.931676,71.179 Z M177.339676,87.199 C176.475676,87.991 175.611676,88.423 174.819676,88.531 C174.387676,88.495 174.027676,88.459 173.667676,88.459 C173.343676,88.459 173.199676,88.639 173.199676,88.999 C173.271676,90.439 173.955676,91.195 175.215676,91.267 C175.863676,91.195 176.403676,90.835 176.907676,90.151 C177.411676,89.431 177.663676,88.675 177.735676,87.919 C177.735676,87.451 177.591676,87.199 177.339676,87.199 Z M183.135676,85.507 C184.899676,85.615 185.799676,86.227 185.799676,87.307 C185.763676,88.315 185.331676,88.819 184.503676,88.891 C183.963676,88.819 183.531676,88.531 183.243676,88.027 C182.775676,87.379 182.523676,86.695 182.487676,85.903 C182.487676,85.651 182.703676,85.507 183.135676,85.507 Z M179.499676,86.623 C179.067676,86.623 178.851676,86.767 178.851676,87.019 C178.887676,87.775 179.103676,88.459 179.499676,89.107 C179.715676,89.647 180.075676,89.935 180.507676,89.971 C181.371676,89.899 181.803676,89.395 181.875676,88.387 C181.875676,87.307 181.083676,86.731 179.499676,86.623 Z M187.923676,85.507 C188.175676,85.507 188.427676,85.615 188.679676,85.831 C189.111676,85.651 189.903676,85.435 191.019676,85.183 C192.603676,84.751 194.007676,84.499 195.195676,84.427 C197.355676,84.643 198.507676,85.471 198.651676,86.911 C198.651676,87.991 198.327676,89.035 197.679676,89.971 C197.535676,90.223 197.427676,90.403 197.355676,90.547 C197.823676,90.763 198.075676,91.087 198.075676,91.555 C197.967676,92.095 197.571676,92.419 196.851676,92.491 C194.295676,92.707 192.603676,92.851 191.775676,92.887 C191.343676,92.887 191.019676,92.887 190.731676,92.815 C190.659676,93.427 190.443676,93.751 190.011676,93.787 C189.471676,93.787 188.931676,93.247 188.427676,92.131 C187.923676,91.087 187.599676,89.719 187.455676,88.027 C187.455676,86.479 187.599676,85.651 187.923676,85.507 Z M190.587676,91.411 C191.343676,91.267 192.387676,91.051 193.719676,90.835 C194.187676,90.763 194.583676,90.691 194.907676,90.619 C194.943676,90.223 195.087676,89.791 195.303676,89.287 C195.483676,88.675 195.591676,87.919 195.591676,87.019 C195.555676,86.695 195.447676,86.515 195.231676,86.515 C194.583676,86.587 193.863676,86.731 192.999676,86.911 C192.279676,87.199 191.595676,87.343 190.947676,87.343 C190.443676,87.343 190.011676,87.307 189.651676,87.235 C189.651676,87.271 189.687676,87.271 189.687676,87.271 C189.831676,88.315 190.047676,89.359 190.299676,90.367 C190.407676,90.763 190.515676,91.123 190.587676,91.411 Z M220.359676,70.207 C221.619676,70.351 222.339676,70.963 222.483676,72.043 C222.447676,73.015 221.943676,73.663 220.971676,74.023 C219.351676,74.887 217.839676,75.319 216.471676,75.319 C215.031676,75.319 214.347676,75.103 214.347676,74.635 C214.347676,74.275 214.635676,73.987 215.283676,73.843 C216.687676,73.267 217.839676,72.619 218.739676,71.935 C219.531676,71.395 219.963676,70.963 220.035676,70.603 C220.071676,70.351 220.179676,70.207 220.359676,70.207 Z M219.459676,75.103 C220.287676,75.103 220.755676,75.931 220.899676,77.551 C222.447676,77.227 223.887676,76.939 225.219676,76.723 C225.183676,76.687 225.183676,76.651 225.183676,76.651 C224.175676,71.611 223.095676,68.767 221.871676,68.119 C222.159676,67.363 222.735676,66.967 223.671676,66.895 C224.967676,66.895 225.651676,67.471 225.759676,68.551 C225.831676,70.963 226.227676,73.591 226.947676,76.471 C228.675676,76.219 230.151676,76.075 231.375676,76.003 C232.851676,76.003 233.607676,76.507 233.607676,77.479 C233.607676,78.127 233.175676,78.451 232.347676,78.451 C230.835676,78.451 229.215676,78.559 227.523676,78.703 C228.027676,80.575 228.639676,82.483 229.359676,84.463 C229.863676,83.347 230.259676,82.123 230.583676,80.755 C230.583676,80.467 230.511676,80.287 230.367676,80.179 C230.367676,79.891 230.511676,79.747 230.835676,79.747 C231.771676,79.747 232.239676,80.431 232.239676,81.799 C231.915676,83.959 231.411676,85.759 230.727676,87.199 C232.671676,90.799 234.255676,92.599 235.479676,92.599 C235.803676,91.735 236.019676,91.231 236.163676,91.015 C236.775676,91.303 237.099676,92.239 237.099676,93.823 C237.099676,95.191 236.487676,95.911 235.263676,95.911 C233.247676,95.911 231.303676,93.751 229.359676,89.359 C228.567676,90.295 227.595676,90.979 226.515676,91.375 C225.615676,91.735 224.931676,91.915 224.427676,91.915 C223.887676,91.915 223.635676,91.699 223.635676,91.231 C223.635676,91.231 223.887676,91.015 224.427676,90.583 C225.939676,89.575 227.235676,88.279 228.243676,86.623 C227.379676,84.427 226.587676,81.871 225.795676,78.919 C225.651676,78.955 225.579676,78.955 225.507676,78.955 C223.779676,79.315 222.267676,79.603 220.935676,79.819 L220.935676,83.131 C221.799676,82.699 222.735676,82.267 223.671676,81.763 C224.031676,81.763 224.247676,81.979 224.247676,82.375 C224.175676,83.023 223.059676,84.067 220.899676,85.579 C220.863676,86.947 220.827676,87.631 220.827676,87.631 C220.503676,92.023 219.567676,94.219 217.983676,94.219 C216.543676,94.219 215.607676,93.319 215.175676,91.447 C215.175676,91.231 215.283676,91.123 215.571676,91.123 L217.407676,91.123 C218.055676,90.763 218.487676,89.683 218.631676,87.883 C218.631676,87.559 218.667676,87.271 218.667676,86.983 C216.867676,88.027 215.427676,88.531 214.347676,88.531 C212.511676,88.387 211.539676,87.955 211.467676,87.199 C211.467676,86.803 211.827676,86.551 212.583676,86.407 C214.095676,86.119 216.147676,85.363 218.775676,84.139 C218.847676,82.519 218.883676,81.187 218.955676,80.143 C217.263676,80.431 215.895676,80.575 214.851676,80.575 C213.555676,80.539 212.763676,80.287 212.403676,79.783 C212.403676,79.639 212.799676,79.459 213.591676,79.243 C215.535676,78.739 217.335676,78.307 219.027676,77.947 L219.027676,77.407 C218.955676,76.687 218.847676,76.219 218.667676,75.931 C218.559676,75.823 218.487676,75.679 218.487676,75.463 C218.487676,75.247 218.811676,75.103 219.459676,75.103 Z M230.331676,70.387 C231.771676,70.639 232.527676,71.431 232.599676,72.799 C232.599676,73.735 232.059676,74.203 230.979676,74.203 C229.431676,73.843 228.315676,72.763 227.595676,70.999 C227.991676,70.603 228.891676,70.387 230.331676,70.387 Z M251.283676,82.159 C252.651676,82.159 253.371676,84.895 253.371676,90.295 C253.371676,92.023 252.939676,92.851 252.075676,92.851 C251.211676,92.851 250.743676,92.239 250.671676,90.979 C250.815676,88.387 251.031676,85.795 251.283676,83.167 C251.247676,82.879 251.103676,82.663 250.851676,82.555 C250.851676,82.303 250.995676,82.159 251.283676,82.159 Z M253.155676,71.323 C254.703676,71.827 255.495676,72.475 255.495676,73.339 C255.495676,74.419 254.703676,76.183 253.155676,78.703 C250.419676,82.663 248.655676,84.607 247.935676,84.607 C247.503676,84.607 247.323676,84.391 247.323676,83.887 C247.323676,83.743 247.647676,83.239 248.259676,82.375 C250.419676,78.919 251.607676,75.787 251.895676,73.015 L251.787676,72.043 C252.003676,71.575 252.435676,71.323 253.155676,71.323 Z M259.563676,74.779 C259.347676,74.815 259.023676,74.923 258.663676,75.067 C258.483676,75.139 258.303676,75.211 258.159676,75.283 C257.871676,74.635 257.475676,74.275 256.971676,74.239 C256.683676,74.239 256.575676,74.383 256.575676,74.635 C256.863676,74.923 257.043676,76.003 257.043676,77.875 C256.971676,81.907 256.647676,86.227 256.071676,90.799 C256.251676,92.815 256.755676,93.787 257.583676,93.787 C258.447676,93.787 258.879676,89.467 258.879676,80.827 L258.879676,80.755 C259.167676,80.827 259.563676,80.899 260.067676,80.935 C260.571676,80.935 261.291676,80.467 262.263676,79.531 C263.343676,78.415 263.919676,77.623 263.955676,77.191 C263.955676,76.903 263.775676,76.723 263.487676,76.723 C263.415676,76.759 263.379676,76.795 263.343676,76.831 L263.343676,72.403 C263.019676,71.467 262.371676,70.891 261.363676,70.747 C260.499676,70.819 259.743676,70.999 259.023676,71.323 C257.799676,71.899 257.223676,72.403 257.223676,72.871 C257.367676,73.123 257.871676,73.303 258.735676,73.375 C259.599676,73.087 260.427676,72.799 261.219676,72.547 C261.399676,72.547 261.507676,72.799 261.507676,73.231 C261.507676,75.031 261.363676,76.183 261.147676,76.759 C261.147676,77.263 261.219676,77.695 261.399676,77.983 C260.355676,78.595 259.491676,78.991 258.843676,79.171 C258.771676,78.163 258.699676,77.299 258.555676,76.579 C258.771676,76.651 259.059676,76.651 259.419676,76.651 C259.455676,76.651 259.527676,76.615 259.671676,76.471 C260.247676,76.399 260.607676,76.147 260.679676,75.715 C260.679676,75.139 260.283676,74.851 259.563676,74.779 Z M264.927676,71.323 C266.043676,71.467 266.619676,72.367 266.619676,74.023 C266.763676,73.951 266.943676,73.879 267.159676,73.807 C267.555676,73.663 267.879676,73.555 268.167676,73.519 C268.887676,73.591 269.283676,73.915 269.283676,74.491 C269.211676,74.959 268.851676,75.211 268.275676,75.247 C268.023676,75.391 267.843676,75.463 267.771676,75.463 C267.195676,75.463 266.763676,75.427 266.475676,75.283 C266.439676,75.787 266.403676,76.291 266.403676,76.867 C266.547676,77.407 266.799676,77.659 267.159676,77.659 C267.411676,77.587 267.771676,77.371 268.239676,77.047 C269.247676,77.119 269.787676,77.551 269.895676,78.343 C269.895676,78.811 269.643676,79.063 269.211676,79.063 C268.851676,79.063 268.383676,79.099 267.771676,79.135 C267.447676,79.171 266.979676,79.243 266.367676,79.351 C265.035676,79.351 264.387676,78.775 264.387676,77.551 C264.567676,76.255 264.711676,74.995 264.819676,73.807 C264.819676,72.583 264.603676,71.899 264.207676,71.719 C264.351676,71.467 264.567676,71.323 264.927676,71.323 Z M269.499676,69.199 C271.407676,69.415 272.379676,70.315 272.379676,71.935 C272.379676,72.223 272.307676,72.835 272.163676,73.735 C272.235676,80.035 272.307676,86.155 272.379676,92.131 C272.271676,94.219 271.587676,95.407 270.363676,95.659 C269.103676,95.479 268.383676,94.831 268.203676,93.679 C268.203676,93.175 268.275676,92.923 268.419676,92.923 L269.103676,92.923 C269.679676,92.923 270.075676,92.203 270.219676,90.763 C270.219676,85.615 270.255676,80.467 270.291676,75.319 C270.291676,72.691 269.823676,71.359 268.923676,71.359 C268.383676,71.467 267.879676,71.575 267.411676,71.683 C266.475676,71.683 266.043676,71.431 266.043676,70.891 C266.043676,70.711 266.115676,70.603 266.331676,70.531 C267.879676,69.739 268.923676,69.307 269.499676,69.199 Z"/>
  </g>
</svg>
