<svg xmlns="http://www.w3.org/2000/svg" width="468" height="469" viewBox="0 0 468 469">
  <g fill="#F6F6F6" fill-rule="evenodd">
    <polygon points="108.845 297.891 151.315 297.891 147.51 314.298 105.028 314.298"/>
    <g transform="translate(0 .124)">
      <path d="M461.946366,234.429271 L456.510991,234.429271 C456.498638,295.981168 431.582384,351.652152 391.237075,392.003115 C350.90412,432.341722 295.240937,457.273823 233.685312,457.273823 C172.154393,457.273823 116.478856,432.341722 76.1459014,392.003115 C35.8129464,351.652152 10.8843389,295.981168 10.8843389,234.429271 C10.8843389,172.877375 35.8129464,117.194035 76.1459014,76.8554276 C116.478856,36.5168202 172.154393,11.5847192 233.685312,11.5847192 C295.240937,11.5847192 350.90412,36.5168202 391.237075,76.8554276 C431.582384,117.194035 456.498638,172.877375 456.510991,234.429271 L461.946366,234.429271 L467.381741,234.429271 C467.381741,169.899854 441.217822,111.436672 398.933073,69.1583518 C356.67303,26.867677 298.205687,0.700090349 233.685312,0.700090349 C169.17729,0.700090349 110.7223,26.867677 68.4499041,69.1583518 C26.1651553,111.436672 -0.011117813,169.899854 0.00123531256,234.429271 C-0.011117813,298.958688 26.1651553,357.42187 68.4499041,399.70019 C110.7223,441.97851 169.17729,468.158452 233.685312,468.146097 C298.205687,468.158452 356.67303,441.97851 398.933073,399.70019 C441.217822,357.42187 467.381741,298.958688 467.381741,234.429271 L461.946366,234.429271 Z"/>
      <path d="M280.949606 171.82227C276.811309 177.085439 271.042399 180.495379 264.519949 180.495379 259.356342 180.495379 255.390989 178.889248 252.685654 176.072341 249.992673 173.267788 248.572063 169.25246 248.572063 164.397001 248.572063 156.996442 251.351517 149.657657 255.761583 144.184455 260.171648 138.711254 266.22468 135.103635 272.734777 135.103635 277.503084 135.103635 281.209021 136.858025 283.729059 139.87261 286.249096 142.862486 287.60794 147.124911 287.60794 152.140983 287.60794 159.467413 285.087903 166.559101 280.949606 171.82227M295.439822 130.606468C291.227406 125.837493 285.03849 123.094715 277.243668 123.107069 272.697718 123.107069 268.324711 124.713201 264.44583 127.245947 260.826364 129.605724 257.824555 132.768568 255.31687 136.215573L267.571171 86.6973065C263.65523 89.3906653 260.245767 91.404507 254.946276 91.404507 249.795023 91.404507 244.470826 90.453183 240.406647 89.3041813 236.342469 88.550535 231.487691 87.5992111 226.793503 87.5992111 210.067371 87.5992111 203.026089 100.930102 203.026089 111.777666 203.026089 116.373673 204.051399 120.277807 205.731424 124.033684 203.063149 123.428296 200.172517 123.107069 197.121295 123.107069 188.795289 123.107069 182.309898 125.442137 177.912185 129.13624 173.514472 132.830342 171.192085 137.883478 171.192085 143.294905 171.192085 148.693978 173.477413 152.598113 176.923935 155.649762 180.358104 158.701412 184.953467 160.912931 189.610595 163.013257 193.328886 164.631743 196.849527 166.151391 199.43133 167.942845 200.716055 168.832394 201.766071 169.783718 202.482552 170.858591 203.211386 171.933464 203.606686 173.11953 203.619039 174.478564 203.619039 175.800534 203.248446 176.96189 202.618436 177.950279 201.654893 179.445216 200.036633 180.581863 197.998367 181.347864 195.972455 182.12622 193.526536 182.509221 190.920026 182.509221 186.139367 182.521576 181.667535 181.434348 178.60396 179.902346 177.591004 179.321668 176.862169 178.876893 176.281573 178.333279 177.183351 177.208987 177.763948 175.553437 177.763948 174.009079 177.763948 171.945818 176.973348 170.030816 175.626857 168.647072 174.268013 167.250973 172.353279 166.386133 170.142069 166.386133 167.844388 166.386133 165.806122 167.337457 164.360806 168.918878 162.915491 170.512655 162.050772 172.724174 162.050772 175.25692 162.050772 178.568022 163.619619 181.570252 166.287894 184.226546 171.303263 189.390876 180.333398 192.813172 190.611198 192.813172 198.554258 192.813172 205.224946 190.984653 209.919134 187.488228 214.613321 183.979449 217.318656 178.790409 217.318656 172.143496 217.318656 166.905037 215.070387 163.000902 211.697984 159.912188 208.313227 156.823474 203.804336 154.537825 199.221327 152.4375 195.342445 150.6584 191.735333 149.027559 189.128823 147.211395 187.819392 146.321845 186.757023 145.358167 186.028189 144.332713 185.299354 143.30726 184.904054 142.207678 184.904054 140.972192 184.904054 138.637124 186.213486 136.808606 188.375283 135.523701 190.549433 134.238795 193.588302 133.546923 196.973058 133.546923 200.370167 133.546923 203.606686 134.164666 205.904368 135.091281 207.016149 135.511346 207.609099 135.906701 208.053812 136.215573 207.028502 137.994672 206.719674 139.118964 206.719674 140.502708 206.719674 144.641585 210.203255 148.138009 214.502143 148.138009 216.639234 148.138009 218.64044 147.260815 220.085756 145.728812 221.531072 144.19681 222.445203 142.022355 222.445203 139.41548 222.445203 136.264992 221.01224 133.114503 218.504556 130.606468 217.05924 129.099175 215.230978 127.78956 213.118593 126.677623 211.648571 123.453005 210.685027 119.845387 210.685027 115.780639 210.685027 103.401073 219.282803 97.6931291 226.163494 97.6931291 229.461778 97.6931291 234.143613 97.8784519 238.220144 98.2614525 241.814904 98.8297759 246.496738 99.2127765 250.412679 99.2127765L250.449739 99.2127765 228.770003 191.565331 242.963744 191.565331 245.928495 177.962634C248.36206 186.697517 256.465711 192.813172 266.22468 192.813172 275.983649 192.813172 284.914959 188.007132 291.40035 180.297702 297.885741 172.588271 301.925213 161.950739 301.925213 150.2754 301.925213 142.182968 299.676944 135.375442 295.439822 130.606468M367.126245 322.704723L367.064479 322.877691C365.520339 327.115407 364.02561 329.808766 362.592648 331.427252 361.172038 333.033383 359.837901 333.576997 358.577882 333.576997 357.30551 333.576997 356.31726 333.132222 355.650191 332.329156 354.970769 331.526091 354.587822 330.32767 354.587822 328.820377 354.587822 327.621956 355.044888 325.459856 355.514307 323.458369L361.221451 303.826502 361.221451 303.814147C362.308526 299.947077 362.938535 296.21591 362.938535 292.941873 362.938535 286.949767 360.949682 282.180793 357.663751 278.91911 354.377819 275.657428 349.807163 273.903039 344.668263 273.903039 340.060547 273.903039 335.576362 275.780977 331.586303 278.807917 327.892718 281.612469 324.631493 285.417765 322.074396 289.667836L326.768584 274.977911 313.081321 274.977911 296.664017 341.990654 310.647755 341.990654 319.64083 305.667375C321.333208 299.045172 324.112662 294.016745 327.460359 290.64387 330.820409 287.270994 334.748703 285.553669 338.788175 285.553669 341.765278 285.553669 344.22355 286.504993 345.952988 288.172898 347.670072 289.828449 348.658322 292.212936 348.658322 295.116328 348.658322 297.253718 348.349494 299.24285 347.5836 301.862079L341.864103 321.963431 341.864103 321.963431C341.234094 324.459113 340.777028 327.399568 340.777028 329.586378 340.777028 333.490513 342.061753 336.863389 344.520025 339.260231 346.978297 341.669428 350.58541 343.065527 355.180772 343.065527 359.31907 343.065527 363.000301 341.620009 366.088582 338.654843 369.176864 335.677323 371.659842 331.204864 373.438692 325.150985L373.488105 324.990371 367.126245 322.704723z"/>
    </g>
  </g>
</svg>
