<svg xmlns="http://www.w3.org/2000/svg" xmlns:xlink="http://www.w3.org/1999/xlink" width="315" height="150" viewBox="0 0 315 150">
  <defs>
    <polygon id="banner_1-a" points=".236 .188 133.543 .188 133.543 133.657 .236 133.657 .236 .188"/>
  </defs>
  <g fill="none" fill-rule="evenodd">
    <g transform="translate(68.815 .297)">
      <mask id="banner_1-b" fill="#fff">
        <use xlink:href="#banner_1-a"/>
      </mask>
      <path fill="#FFF" d="M66.8894262,133.657477 C103.701295,133.657477 133.542942,103.779394 133.542942,66.9225775 C133.542942,30.0657609 103.701295,0.187678107 66.8894262,0.187678107 C30.0775569,0.187678107 0.235910769,30.0657609 0.235910769,66.9225775 C0.235910769,103.779394 30.0775569,133.657477 66.8894262,133.657477" mask="url(#banner_1-b)"/>
    </g>
    <g transform="translate(0 2)">
      <g transform="translate(31 48)">
        <path fill="#FCD0B1" d="M37.8581762,29.2051586 L48.8259915,50.8895491 C46.0113454,53.7721645 40.9238531,52.533916 39.01253,48.9700698 C36.45473,44.2024249 35.0944146,42.3154544 32.5351608,37.5448982 L20.8850069,42.583774 L11.6458146,26.7893124 L37.8581762,29.2051586 Z"/>
        <path fill="#FCD0B1" d="M36.29219,25.1643053 L55.2503438,43.4207077 C53.9249208,47.5328379 47.8817669,46.937974 44.7564823,44.0238201 C40.5723131,40.1285775 37.9883438,39.2256071 33.80369,35.3259976 L13.4697131,31.6510391 L14.6405438,20.0803053 L36.29219,25.1643053 Z"/>
        <path fill="#FCD0B1" d="M38.6371954,18.5071669 L60.37268,35.7897586 C58.6043185,39.4215337 54.0077415,40.1978651 50.41238,37.4491669 C45.6040262,33.7717822 42.3789108,32.0958769 37.5686185,28.4175219 L16.5610262,27.2418651 L15.0543569,18.4096402 L38.6371954,18.5071669 Z"/>
        <path fill="#FFDFCA" d="M0.730240769,43.9390544 L2.60715615,25.9994923 C2.73654846,24.5700722 25.8866254,1.43879408 27.4994254,0.554261538 C30.1808023,0.323788166 40.2230023,6.85370533 43.3090331,9.8382142 C45.69431,10.9828178 51.2126254,13.827587 54.49541,15.5389124 C52.2492177,21.3206402 45.6695946,19.5598237 40.5947023,17.2104509 C38.0950562,16.5626994 32.3397638,14.4447704 30.4332869,11.9280012 C27.34241,16.1434805 22.2413485,24.0994213 20.1017715,28.695303 L27.6331792,39.6648651 L0.730240769,43.9390544 Z"/>
      </g>
      <path fill="#FFF" d="M135.2113,0 C171.225977,0 200.422115,29.231787 200.422115,65.2904379 C200.422115,101.349574 171.225977,130.581361 135.2113,130.581361 C99.1961385,130.581361 70,101.349574 70,65.2904379 C70,29.231787 99.1961385,0 135.2113,0 M135.2113,18.6169112 C160.956977,18.6169112 181.827908,39.5138107 181.827908,65.2904379 C181.827908,91.0680355 160.956977,111.964935 135.2113,111.964935 C109.465623,111.964935 88.5946923,91.0680355 88.5946923,65.2904379 C88.5946923,39.5138107 109.465623,18.6169112 135.2113,18.6169112"/>
      <g transform="translate(0 14)">
        <path fill="#FFE5D4" d="M28.1935662,147.812225 L44.6351123,113.987467 C53.48952,106.584178 54.7650277,105.143112 62.1966046,95.8766272 C67.70232,84.2112781 69.09462,78.1107692 72.89982,73.9816568 C74.9303585,71.7778462 78.6061662,67.4439763 82.6405892,62.8097633 C87.4828662,57.2468639 88.7312354,51.4792071 86.16762,49.1977633 C83.60352,46.9163195 80.2010354,46.5165089 73.7609815,53.8445917 C65.10042,63.6996331 64.8174046,66.7069467 60.6627969,70.0374083 C56.5086738,73.368355 50.5139815,73.8079527 50.5139815,73.8079527 L32.2599738,74.9229586 L28.5783508,95.8824497 C23.70942,103.315822 9.69230769e-05,135.012947 9.69230769e-05,135.012947 L28.1935662,147.812225 Z"/>
        <path fill="#FCD0B1" d="M259.993052,58.649258 L248.793106,78.755755 C251.347514,81.5908201 255.978498,80.4598024 258.152968,77.3117787 L262.930791,70.3956367 L273.539991,75.5698852 L284.892591,57.3561811 L259.993052,58.649258 Z"/>
        <path fill="#FCD0B1" d="M261.047915,53.7462402 L242.415422,70.3053882 C243.514045,74.2472107 249.255768,73.9138734 252.323868,71.2743467 C256.431468,67.7459207 258.910761,66.9894828 263.018361,63.4576604 L282.402007,60.7506899 L281.731299,49.755897 L261.047915,53.7462402 Z"/>
        <path fill="#FCD0B1" d="M259.6608,48.4949408 L238.4361,64.0269053 C239.109231,67.7688225 243.747485,68.9580651 247.254162,66.493213 C251.943785,63.1952604 255.605538,61.2136746 260.2971,57.9147515 L280.223515,57.5988817 L281.983638,49.2969882 L259.6608,48.4949408 Z"/>
        <path fill="#FFE5D4" d="M292.584842,86.7993243 L292.942004,64.712697 C293.005488,63.3395609 287.252619,55.0696911 286.752981,53.9449811 C286.253342,52.820271 280.683173,42.8274308 277.560796,40.5125077 C274.314358,40.6119751 262.384096,42.2058805 262.384096,42.2058805 C262.384096,42.2058805 251.440027,39.0350521 248.933596,39.1369456 C248.189712,40.6920343 247.869865,43.4824604 252.911319,46.8638686 C256.40685,49.2088746 264.850304,51.220058 271.817619,50.2709929 C274.176727,54.6252414 276.813519,62.9450876 278.23005,67.5336911 L265.60485,81.4688391 L292.584842,86.7993243 Z"/>
        <path fill="#A5B6F3" d="M284.121616,78.4432331 C282.099801,80.6252095 278.965793,80.5694107 277.103901,78.6606059 C263.332585,64.5483574 246.515947,47.353103 231.888801,32.6037775 C229.952762,30.6513041 227.302885,29.9589136 224.660762,30.7143811 C220.472716,31.9118722 215.506862,30.0074343 210.13587,25.0204757 C202.549701,17.9757538 198.859839,5.47196686 201.947324,2.13859408 C205.034808,-1.1947787 217.76517,1.54955266 225.352308,8.59378935 C230.722816,13.5812331 232.992755,18.3959432 232.115116,22.6667361 C231.561201,25.3615763 232.449985,27.9550083 234.540132,29.7410556 C250.32987,43.2361207 268.720055,58.7321799 283.810493,71.4203456 C285.851208,73.1360379 286.142947,76.2612568 284.121616,78.4432331"/>
        <path fill="#FFE5D4" d="M286.752884 53.944787C286.253245 52.8200769 280.683561 42.8277219 277.560699 40.5127988 274.314261 40.6117811 262.383999 42.2056864 262.383999 42.2056864 262.383999 42.2056864 251.43993 39.034858 248.933499 39.1367515 248.189615 40.6923254 247.870253 43.4822663 252.911222 46.8641598 256.406753 49.2086805 264.850207 51.2198639 271.818007 50.271284L286.752884 53.944787zM286.728314 147.812225L275.687322 113.334379C268.329891 105.245491 264.747129 103.053811 261.500206 94.6927219 257.834091 83.0365917 257.31216 77.1325917 254.272168 72.7671834 252.650645 70.4377041 249.75846 65.8966509 246.569206 61.0275976 242.74026 55.1837633 242.310406 49.6106746 245.010198 47.8003669 247.709022 45.9900592 250.953522 46.0531361 256.054098 53.7601657 262.913345 64.1246746 262.792191 66.9825444 266.263006 70.6439172 267.979514 72.4551953 270.209714 73.6604497 272.025083 74.4159172L271.883575 81.910426 292.51656 84.9905207 293.046245 99.0328994C296.658568 106.636095 314.830191 139.43658 314.830191 139.43658L286.728314 147.812225z"/>
      </g>
      <circle cx="135.5" cy="65.5" r="44.5" fill="#FFB8AC"/>
    </g>
  </g>
</svg>
