<svg xmlns="http://www.w3.org/2000/svg" xmlns:xlink="http://www.w3.org/1999/xlink" width="150" height="43" viewBox="0 0 150 43">
  <defs>
    <polygon id="bg_logo_xs-a" points="15.631 .06 0 .06 0 23.616 15.631 23.616 31.261 23.616 31.261 .06"/>
  </defs>
  <g fill="none" fill-rule="evenodd">
    <g transform="translate(63.793 18.39)">
      <path fill="#A5B6F3" d="M44.4206868 19.1791905C43.4714253 20.3151995 42.1622968 21.0155348 40.7162714 21.0155348 39.6481472 21.0155348 38.7038041 20.648266 38.0258773 19.9617745 37.3479504 19.2760973 36.9339805 18.2687545 36.9339805 16.9820919 36.9339805 15.2475405 37.5217357 13.6856298 38.4709973 12.5593929 39.4202589 11.4315273 40.7302071 10.7393354 42.1762324 10.7393354 43.2435369 10.7393354 44.18788 11.1066042 44.8666266 11.789024 45.5445535 12.4714438 45.9577036 13.4690145 45.9577036 14.7377615 45.9577036 16.472313 45.3699484 18.0431814 44.4206868 19.1791905M42.3147689 8.10249141C39.8522631 8.10249141 37.7209331 9.17823905 36.2060494 10.8264701 34.6919854 12.4738868 33.7935478 14.6929726 33.7935478 16.9820919 33.7935478 18.7524745 34.4050756 20.4121064 35.5592727 21.6287354 36.7142896 22.8453645 38.4119759 23.6181764 40.577735 23.6181764 43.0394211 23.6181764 45.1715708 22.5416144 46.6856348 20.8990837 48.1996988 19.2557387 49.098956 17.0447964 49.098956 14.7727783 49.098956 12.9852945 48.4874283 11.3175192 47.3324114 10.0968184 46.1782143 8.8753033 44.4797083 8.10167707 42.3147689 8.10249141M62.1288417 19.1791905C61.1795801 20.3151995 59.8704517 21.0155348 58.4236065 21.0155348 57.3563021 21.0155348 56.411959 20.648266 55.7340321 19.9617745 55.0561052 19.2760973 54.6421354 18.2687545 54.6421354 16.9820919 54.6421354 15.2475405 55.2298906 13.6856298 56.1791521 12.5593929 57.1284137 11.4315273 58.4375421 10.7393354 59.8835675 10.7393354 60.9516917 10.7393354 61.8960348 11.1066042 62.5739617 11.789024 63.2527083 12.4714438 63.6658584 13.4690145 63.6658584 14.7377615 63.6658584 16.472313 63.0781032 18.0431814 62.1288417 19.1791905M60.0229237 8.10249141C57.5604179 8.10249141 55.429088 9.17823905 53.9142042 10.8264701 52.4001402 12.4738868 51.5017027 14.6929726 51.5008829 16.9820919 51.5008829 18.7524745 52.1124107 20.4121064 53.2674275 21.6287354 54.4224444 22.8453645 56.1201307 23.6181764 58.2850701 23.6181764 60.7475759 23.6181764 62.8797256 22.5416144 64.3937896 20.8990837 65.9078536 19.2557387 66.8071109 17.0447964 66.8071109 14.7727783 66.8071109 12.9852945 66.1955831 11.3175192 65.0405663 10.0968184 63.8855494 8.8753033 62.1878631 8.10167707 60.0229237 8.10249141M84.6285541 19.0364361L84.6146185 19.0747102C84.2678675 20.0209772 83.9301337 20.6219627 83.6096144 20.9827168 83.2890952 21.3434709 82.9890695 21.4639938 82.7070782 21.4648081 82.4209881 21.4639938 82.2004774 21.3654582 82.0480054 21.1854883 81.8947136 21.0055184 81.8094604 20.7392281 81.8094604 20.4004613 81.8094604 20.1333566 81.9127479 19.6496366 82.0168552 19.2025621L83.3022111 14.8189515 83.3022111 14.8181372C83.5464943 13.9524902 83.6866702 13.1202312 83.6866702 12.3897652 83.6866702 11.0517989 83.2399107 9.9874521 82.5013229 9.2578004 81.7627351 8.52896305 80.7347782 8.13726387 79.5789416 8.13726387 78.5419676 8.13726387 77.5345044 8.55583638 76.638526 9.23255576 75.8089468 9.86041453 75.0744578 10.7097747 74.4989987 11.6576704L75.5564662 8.37912387 72.4775142 8.37912387 68.7862147 23.3418697 71.9299263 23.3418697 73.9530503 15.2318237C74.3342305 13.7521617 74.9572346 12.6283678 75.7105778 11.8751001 76.4647407 11.1218325 77.3492426 10.7399054 78.2583368 10.7390911 78.9272465 10.7399054 79.4805725 10.9516347 79.8674909 11.3229753 80.2544093 11.6951302 80.4757397 12.2268965 80.4757397 12.8734851 80.4757397 13.3531334 80.4077011 13.7969506 80.2347354 14.3816491L80.2339157 14.3816491 78.9477401 18.87031 78.9477401 18.8711243C78.8083839 19.4265066 78.7034569 20.084496 78.7034569 20.5731021 78.7026371 21.4452639 78.9936456 22.1993459 79.5453322 22.7351838 80.0978385 23.2702074 80.9085636 23.5837297 81.9422586 23.5837297 82.8726661 23.5837297 83.7022453 23.259621 84.3949275 22.5967454 85.0884295 21.9338699 85.6474938 20.9346705 86.0483477 19.5836748L86.0590044 19.546215 84.6285541 19.0364361z"/>
      <g transform="translate(0 .002)">
        <mask id="bg_logo_xs-b" fill="#fff">
          <use xlink:href="#bg_logo_xs-a"/>
        </mask>
        <path fill="#A5B6F3" d="M26.5733398,18.9571002 C25.6478507,20.1248687 24.3592158,20.8830224 22.9008943,20.8830224 C21.7483367,20.8830224 20.859736,20.5247113 20.2572254,19.9009242 C19.6555346,19.2779515 19.3366549,18.3846168 19.3366549,17.3080548 C19.3366549,15.6655242 19.9580195,14.0376517 20.9441695,12.8226513 C21.9303194,11.607651 23.280435,10.806337 24.7379368,10.806337 C25.802782,10.806337 26.6290822,11.1972219 27.1938847,11.8633548 C27.7578674,12.5294877 28.0595325,13.4757547 28.0595325,14.5873335 C28.0595325,16.2135773 27.4988288,17.7901461 26.5733398,18.9571002 M29.8121415,9.80876636 C28.8686182,8.74930559 27.4857129,8.1418054 25.7429408,8.1418054 C24.7280999,8.1418054 23.7501473,8.49848782 22.88286,9.06119911 C22.0754138,9.58563627 21.4040449,10.289229 20.8458004,11.0538974 L23.5821002,0.0602614123 C22.7066154,0.658803818 21.9458946,1.10669269 20.7621867,1.10669269 C19.6088093,1.10669269 18.420183,0.894963406 17.5119085,0.641702606 C16.6028143,0.472319177 15.519115,0.261404234 14.4706646,0.261404234 C10.7301806,0.261404234 9.15791489,3.21991384 9.15791489,5.62874164 C9.15791489,6.64911393 9.38826248,7.51557532 9.76206496,8.34864863 C9.16611232,8.21591065 8.52097514,8.14261975 7.8397693,8.1418054 C5.97813457,8.1418054 4.52964995,8.66054215 3.54595921,9.48140031 C2.56226846,10.3022585 2.04501108,11.425238 2.04501108,12.6247659 C2.04501108,13.8251081 2.55489078,14.6907551 3.32462879,15.3674745 C4.09354705,16.0441938 5.11904465,16.5352429 6.15929761,17.0010473 L6.16011735,17.0010473 C6.99215577,17.3626158 7.77910837,17.6981253 8.35374771,18.0947105 C8.64147725,18.2934103 8.87592355,18.505954 9.03741278,18.7445566 C9.19972175,18.9823449 9.2898934,19.2445634 9.2898934,19.5466848 C9.2898934,19.8398485 9.20955866,20.0963666 9.06610376,20.3178681 C8.85051154,20.6501202 8.48900519,20.903381 8.03486796,21.0735787 C7.58073074,21.2437765 7.03478237,21.3309113 6.45358509,21.3309113 C5.38546089,21.3309113 4.38619505,21.0906799 3.70007076,20.7502844 C3.47300214,20.6208038 3.31069317,20.5230826 3.18117389,20.4025598 C3.38201075,20.1525563 3.51316951,19.7844731 3.51398926,19.4432632 C3.51398926,18.9847879 3.33610518,18.5613293 3.03444002,18.2526932 C2.73277486,17.9432427 2.30486938,17.7494289 1.8089253,17.7494289 C1.29494689,17.7494289 0.840809662,17.9611582 0.517831202,18.3137689 C0.194032999,18.6663796 -0.000245922686,19.158243 -0.000245922686,19.7185113 C-0.000245922686,20.4546777 0.353882745,21.1199963 0.94737616,21.7095809 L0.94737616,21.7095809 L0.948195902,21.7103953 C2.06796386,22.8569908 4.08780886,23.6159589 6.38472674,23.6159589 C8.15864905,23.6159589 9.64894052,23.2104158 10.6982106,22.4327179 C11.7483005,21.6558343 12.3532703,20.5043527 12.3524506,19.0295768 C12.3532703,17.8642514 11.851588,16.9986043 11.0957857,16.3137415 C10.3399833,15.6288787 9.33170026,15.1199141 8.30784214,14.6541096 C7.44137455,14.2575244 6.63720736,13.8967703 6.05273112,13.495299 C5.76008312,13.2949705 5.5231776,13.0848699 5.36086863,12.8560394 C5.19773991,12.6280232 5.108388,12.3837202 5.108388,12.1084721 C5.108388,11.5913641 5.39939651,11.1841924 5.88550369,10.8991722 C6.36997138,10.6157807 7.04871799,10.4618698 7.80534012,10.4618698 C8.56278199,10.4618698 9.28743417,10.5986795 9.80059285,10.8030797 L9.80141259,10.8030797 L9.80223233,10.803894 C10.0489748,10.8959148 10.1809533,10.9854926 10.2817816,11.0538974 C10.0538932,11.448854 9.98257563,11.6972287 9.98339538,12.0050505 C9.98339538,12.9236299 10.76379,13.6980705 11.7228885,13.6988848 C12.201618,13.6988848 12.6459183,13.5042568 12.9697165,13.1654899 C13.2935147,12.8259087 13.4968108,12.3413744 13.4968108,11.7640049 C13.4968108,11.0628552 13.1795705,10.3649629 12.6188668,9.80713767 L12.6180471,9.80713767 C12.2950686,9.47407122 11.886837,9.18090759 11.4138457,8.93579023 C11.0859487,8.22079671 10.8703565,7.41866846 10.8703565,6.51637596 C10.8703565,3.76959564 12.7926522,2.50084861 14.3304887,2.50084861 C15.0649778,2.50084861 16.1134282,2.54319447 17.0225224,2.62788618 C17.8258698,2.75492375 18.8743202,2.83961547 19.7481655,2.83961547 L19.7555432,2.83961547 L14.911686,23.3407108 L18.0824492,23.3407108 L18.7464404,20.3194967 C19.2899295,22.2600771 21.0999205,23.6159589 23.2820745,23.6159589 C25.462589,23.6159589 27.4586614,22.5499833 28.907146,20.8382335 C30.3564504,19.1256693 31.2614459,16.7665164 31.2614459,14.1744614 C31.2614459,12.3763911 30.7564846,10.8682271 29.8121415,9.80876636" mask="url(#bg_logo_xs-b)"/>
      </g>
    </g>
    <g transform="matrix(-1 0 0 1 41.38 0)">
      <path fill="#FFB8AC" d="M20.5103839,42.0314609 C9.27855016,42.0314609 0.173340397,32.6421575 0.173340397,21.0599101 C0.173340397,9.47756996 9.27855016,0.0882665745 20.5103839,0.0882665745 L20.5103839,42.0314609 Z" transform="translate(20.167 .148)"/>
      <path fill="#A5B6F3" d="M0.0824444541,21.012117 C0.0824444541,9.42986954 9.18765422,0.0405661579 20.4195808,0.0405661579 C31.6513216,0.0405661579 40.7565314,9.42986954 40.7565314,21.012117 L0.0824444541,21.012117 Z" transform="translate(0 21.21)"/>
    </g>
  </g>
</svg>
