<svg xmlns="http://www.w3.org/2000/svg" xmlns:xlink="http://www.w3.org/1999/xlink" width="260" height="90" viewBox="0 0 260 90">
  <defs>
    <polygon id="bg_logo_s-a" points="27.197 .105 0 .105 0 41.092 27.197 41.092 54.395 41.092 54.395 .105"/>
  </defs>
  <g fill="none" fill-rule="evenodd" transform="translate(-1)">
    <g transform="translate(111 32)">
      <path fill="#A5B6F3" d="M77.2919951 33.3717914C75.6402799 35.3484472 73.3623965 36.5670306 70.8463123 36.5670306 68.9877762 36.5670306 67.3446192 35.9279828 66.1650264 34.7334876 64.9854337 33.5404093 64.2651261 31.7876329 64.2651261 29.54884 64.2651261 26.5307204 65.2878202 23.8129959 66.9395353 21.8533436 68.5912505 19.8908574 70.8705603 18.6864435 73.3866445 18.6864435 75.2437542 18.6864435 76.8869112 19.3254914 78.0679303 20.5129018 79.2475231 21.7003122 79.9664043 23.4360852 79.9664043 25.643705 79.9664043 28.6618246 78.9437102 31.3951356 77.2919951 33.3717914M73.6276979 14.0983351C69.3429377 14.0983351 65.6344236 15.970136 62.9985259 18.838058 60.3640546 21.7045631 58.8007732 25.5657724 58.8007732 29.54884 58.8007732 32.6293057 59.8648315 35.5170651 61.8731345 37.6339997 63.8828639 39.7509342 66.836838 41.0956269 70.6052589 41.0956269 74.8885927 41.0956269 78.5985331 39.222409 81.2330045 36.3644057 83.8674758 33.5049854 85.4321835 29.6579457 85.4321835 25.7046342 85.4321835 22.5944124 84.3681252 19.6924834 82.3583959 17.568464 80.3500929 15.4430277 77.3946924 14.0969181 73.6276979 14.0983351M108.104184 33.3717914C106.452469 35.3484472 104.174586 36.5670306 101.657075 36.5670306 99.7999656 36.5670306 98.1568086 35.9279828 96.9772158 34.7334876 95.7976231 33.5404093 95.0773155 31.7876329 95.0773155 29.54884 95.0773155 26.5307204 96.1000096 23.8129959 97.7517247 21.8533436 99.4034399 19.8908574 101.681323 18.6864435 104.197408 18.6864435 106.055944 18.6864435 107.699101 19.3254914 108.878693 20.5129018 110.059712 21.7003122 110.778594 23.4360852 110.778594 25.643705 110.778594 28.6618246 109.7559 31.3951356 108.104184 33.3717914M104.439887 14.0983351C100.155127 14.0983351 96.446613 15.970136 93.8107153 18.838058 91.176244 21.7045631 89.6129626 25.5657724 89.6115363 29.54884 89.6115363 32.6293057 90.6755946 35.5170651 92.6853239 37.6339997 94.6950533 39.7509342 97.6490274 41.0956269 101.416022 41.0956269 105.700782 41.0956269 109.410723 39.222409 112.045194 36.3644057 114.679665 33.5049854 116.244373 29.6579457 116.244373 25.7046342 116.244373 22.5944124 115.180315 19.6924834 113.170585 17.568464 111.160856 15.4430277 108.206882 14.0969181 104.439887 14.0983351M147.253684 33.1233987L147.229436 33.1899957C146.626089 34.8365004 146.038433 35.8822151 145.480729 36.5099272 144.923026 37.1376394 144.400981 37.3473491 143.910316 37.3487661 143.412519 37.3473491 143.028831 37.1758973 142.763529 36.8627497 142.496802 36.5496021 142.348461 36.0862569 142.348461 35.4968026 142.348461 35.0320405 142.528181 34.1903678 142.709328 33.4124581L144.945847 25.7849757 144.945847 25.7835587C145.3709 24.2773329 145.614806 22.8292023 145.614806 21.5581914 145.614806 19.2301301 144.837445 17.3781667 143.552302 16.1085727 142.267159 14.8403957 140.478514 14.1588391 138.467358 14.1588391 136.663024 14.1588391 134.910038 14.8871553 133.351035 16.064647 131.907568 17.1571213 130.629556 18.635008 129.628258 20.2843465L131.468251 14.5796755 126.110875 14.5796755 119.688014 40.6148532 125.158072 40.6148532 128.678308 26.5033732C129.341561 23.9287613 130.425588 21.9733599 131.736405 20.6626742 133.048649 19.3519885 134.587682 18.6874354 136.169506 18.6860185 137.333409 18.6874354 138.296196 19.0558444 138.969434 19.701977 139.642672 20.3495266 140.027787 21.2747999 140.027787 22.3998641 140.027787 23.2344521 139.9094 24.006694 139.60844 25.0240695L139.607013 25.0240695 137.369068 32.8343394 137.369068 32.8357564C137.126588 33.8021214 136.944015 34.9470231 136.944015 35.7971976 136.942589 37.3147591 137.448943 38.6268618 138.408878 39.5592199 139.370239 40.4901609 140.780901 41.0356896 142.57953 41.0356896 144.198439 41.0356896 145.641907 40.4717405 146.847174 39.3183371 148.053867 38.1649336 149.026639 36.4263267 149.724125 34.0755942L149.742668 34.0104142 147.253684 33.1233987z"/>
      <g transform="translate(0 .004)">
        <mask id="bg_logo_s-b" fill="#fff">
          <use xlink:href="#bg_logo_s-a"/>
        </mask>
        <path fill="#A5B6F3" d="M46.2376112,32.9853544 C44.6272602,35.0172715 42.3850356,36.3364589 39.8475561,36.3364589 C37.8421058,36.3364589 36.2959407,35.7129976 35.2475723,34.6276082 C34.2006302,33.5436356 33.6457794,31.9892332 33.6457794,30.1160154 C33.6457794,27.258012 34.7269539,24.4255139 36.4428549,22.3114133 C38.1587558,20.1973127 40.5079569,18.8030264 43.04401,18.8030264 C44.8968407,18.8030264 46.3346031,19.4831661 47.3173593,20.6422373 C48.2986892,21.8013086 48.8235866,23.4478132 48.8235866,25.3819603 C48.8235866,28.2116245 47.8479621,30.9548542 46.2376112,32.9853544 M51.8731263,17.0672535 C50.2313956,15.2237917 47.8251405,14.1667414 44.792717,14.1667414 C43.0268938,14.1667414 41.3252563,14.7873688 39.8161764,15.7664865 C38.4112201,16.6790071 37.2430381,17.9032584 36.2716927,19.2337815 L41.0328543,0.104854857 C39.5095108,1.14631864 38.1858565,1.92564529 36.1262048,1.92564529 C34.1193282,1.92564529 32.0511184,1.55723633 30.4707208,1.11656253 C28.8888969,0.821835368 27.0032602,0.454843368 25.1789565,0.454843368 C18.6705142,0.454843368 15.9347719,5.60265008 15.9347719,9.79401046 C15.9347719,11.5694582 16.3355767,13.0771011 16.985993,14.5266486 C15.9490354,14.2956845 14.8264967,14.1681584 13.6411986,14.1667414 C10.4019541,14.1667414 7.88159091,15.0693433 6.16996902,16.4976365 C4.45834712,17.9259297 3.55831928,19.8799142 3.55831928,21.9670926 C3.55831928,24.055688 4.44550996,25.5619139 5.78485409,26.7394056 C7.12277187,27.9168973 8.90713769,28.7713227 10.7171778,29.5818224 L10.7186042,29.5818224 C12.166351,30.2109515 13.5356486,30.794738 14.535521,31.4847964 C15.0361704,31.830534 15.444107,32.2003599 15.7250982,32.6155285 C16.0075158,33.0292801 16.1644145,33.4855404 16.1644145,34.0112316 C16.1644145,34.5213363 16.0246321,34.967678 15.7750205,35.3530904 C15.3998901,35.9312091 14.770869,36.3718829 13.9806703,36.668027 C13.1904715,36.9641711 12.2405213,37.1157856 11.2292381,37.1157856 C9.37070196,37.1157856 7.63197938,36.6977831 6.43812311,36.1054949 C6.04302373,35.8801986 5.76060611,35.7101637 5.53524257,35.500454 C5.8846987,35.065448 6.11291495,34.4249832 6.11434131,33.831278 C6.11434131,33.0335309 5.80482301,32.296713 5.27992563,31.7596861 C4.75502825,31.2212423 4.01047273,30.8840064 3.14753003,30.8840064 C2.25320759,30.8840064 1.46300881,31.2524153 0.901026291,31.8659579 C0.337617418,32.4795005 -0.000427905473,33.3353429 -0.000427905473,34.3102097 C-0.000427905473,35.5911393 0.615755976,36.7487936 1.64843452,37.7746708 L1.64843452,37.7746708 L1.64986087,37.7760878 C3.59825712,39.771164 7.11278741,41.0917684 11.1094245,41.0917684 C14.1960493,41.0917684 16.7891565,40.3861236 18.6148865,39.0329291 C20.4420429,37.6811516 21.4946904,35.6775737 21.493264,33.1114636 C21.4946904,31.0837974 20.6217632,29.5775715 19.306667,28.3859102 C17.9915709,27.1942489 16.2371584,26.3086505 14.4556453,25.4981508 C12.9479917,24.8080925 11.5487408,24.1803803 10.5317521,23.4818202 C10.0225446,23.1332487 9.61032902,22.7676736 9.32791141,22.3695086 C9.04406745,21.9727604 8.88859512,21.5476732 8.88859512,21.0687415 C8.88859512,20.1689735 9.39494993,19.4604947 10.2407764,18.9645596 C11.0837502,18.4714584 12.2647693,18.2036534 13.5812918,18.2036534 C14.8992407,18.2036534 16.1601355,18.4417023 17.0530316,18.7973586 L17.0544579,18.7973586 L17.0558843,18.7987756 C17.4852161,18.9588918 17.7148587,19.1147571 17.8902999,19.2337815 C17.4937742,19.9210059 17.3696816,20.353178 17.371108,20.8887879 C17.371108,22.487116 18.7289947,23.8346426 20.397826,23.8360596 C21.2308153,23.8360596 22.0038979,23.4974067 22.5673067,22.9079524 C23.1307156,22.3170811 23.4844508,21.4739914 23.4844508,20.4693685 C23.4844508,19.2493681 22.9324528,18.0350355 21.9568283,17.0644196 L21.9554019,17.0644196 C21.3934194,16.4848839 20.6830963,15.9747792 19.8600915,15.548275 C19.2895508,14.3041863 18.9144204,12.9084831 18.9144204,11.3384942 C18.9144204,6.55909641 22.2592148,4.35147658 24.9350504,4.35147658 C26.2130614,4.35147658 28.037365,4.42515837 29.6191889,4.57252195 C31.0170135,4.79356733 32.8413172,4.94093091 34.3618079,4.94093091 L34.3746451,4.94093091 L25.9463336,40.6128368 L31.4634615,40.6128368 L32.6188063,35.3559243 C33.5644774,38.7325341 36.7138617,41.0917684 40.5108096,41.0917684 C44.3049048,41.0917684 47.7780709,39.236971 50.2984341,36.2585263 C52.8202237,33.2786646 54.3949158,29.1737386 54.3949158,24.6635628 C54.3949158,21.5349206 53.5162833,18.9107152 51.8731263,17.0672535" mask="url(#bg_logo_s-b)"/>
      </g>
    </g>
    <g transform="matrix(-1 0 0 1 72 0)">
      <path fill="#FFB8AC" d="M35.6880679,73.134742 C16.1446773,73.134742 0.30161229,56.7973541 0.30161229,36.6442435 C0.30161229,16.4909717 16.1446773,0.15358384 35.6880679,0.15358384 L35.6880679,73.134742 Z" transform="translate(35.091 .258)"/>
      <path fill="#A5B6F3" d="M0.14345335,36.5610836 C0.14345335,16.407973 15.9865183,0.0705851148 35.5300707,0.0705851148 C55.0732997,0.0705851148 70.9163647,16.407973 70.9163647,36.5610836 L0.14345335,36.5610836 Z" transform="translate(0 36.904)"/>
    </g>
  </g>
</svg>
