<svg xmlns="http://www.w3.org/2000/svg" width="272" height="83" viewBox="0 0 272 83">
  <g fill="none" fill-rule="evenodd" transform="translate(-1)">
    <path fill="#A5B6F3" d="M16.548,31.504 C20.958,31.504 24.948,29.698 27.636,26.716 L24.486,23.44 C22.428,25.666 19.782,27.094 16.548,27.094 C10.71,27.094 6.846,22.684 6.846,17.14 C6.846,11.386 10.962,7.27 16.338,7.27 C18.858,7.27 20.454,7.9 21.252,8.53 C21.084,8.866 20.958,9.412 20.958,9.958 C20.958,11.764 22.26,12.94 24.15,12.94 C25.872,12.94 27.174,11.554 27.174,9.538 C27.174,6.22 22.89,2.86 16.464,2.86 C8.4,2.86 1.932,8.866 1.932,17.182 C1.932,25.792 8.022,31.504 16.548,31.504 Z M40.698,31.336 C34.608,31.336 30.912,26.926 30.912,21.802 C30.912,16.762 34.692,12.268 40.698,12.268 C46.788,12.268 50.484,16.678 50.484,21.802 C50.484,26.842 46.704,31.336 40.698,31.336 Z M40.698,27.514 C43.68,27.514 45.78,25.162 45.78,21.802 C45.78,18.442 43.68,16.09 40.698,16.09 C37.716,16.09 35.616,18.442 35.616,21.802 C35.616,25.162 37.716,27.514 40.698,27.514 Z M60.354,12.604 L53.214,12.604 L53.214,16.468 L55.944,16.468 L55.944,27.22 L53.214,27.22 L53.214,31 L63.042,31 L63.042,27.22 L60.522,27.22 L60.522,18.568 C61.992,17.35 63.672,16.426 65.268,16.426 C66.36,16.426 67.116,16.846 67.536,17.644 C67.788,18.106 67.914,18.778 67.914,19.534 L67.914,27.22 L65.394,27.22 L65.394,31 L75.222,31 L75.222,27.22 L72.492,27.22 L72.492,18.4 C72.492,16.888 72.156,15.628 71.526,14.62 C70.56,13.15 68.964,12.268 66.78,12.268 C64.092,12.268 62.118,13.822 60.354,15.544 L60.354,12.604 Z M85.428,31.336 C87.108,31.336 88.578,30.874 89.838,30.244 L90.216,26.296 C89.124,26.8 87.78,27.262 86.604,27.262 C85.68,27.262 85.008,26.968 84.672,26.38 C84.462,26.002 84.378,25.624 84.378,25.036 L84.378,16.468 L89.964,16.468 L89.964,12.604 L84.378,12.604 L84.378,6.766 L79.842,8.74 L79.842,12.604 L76.272,12.604 L76.272,16.468 L79.842,16.468 L79.842,25.918 C79.842,27.094 80.052,28.06 80.472,28.816 C81.396,30.58 83.202,31.336 85.428,31.336 Z M98.826,31.336 C95.676,31.336 92.862,29.614 92.862,26.17 C92.862,22.726 95.886,20.626 100.254,20.626 C102.144,20.626 103.908,20.878 104.916,21.13 L104.916,19.66 C104.916,18.568 104.664,17.728 104.202,17.14 C103.446,16.174 102.228,15.796 100.59,15.796 C99.792,15.796 99.204,15.922 98.784,16.09 C98.868,16.342 98.952,16.762 98.952,17.014 C98.952,18.4 97.86,19.408 96.474,19.408 C95.088,19.408 94.038,18.442 94.038,16.93 C94.038,14.662 96.348,12.268 101.346,12.268 C104.496,12.268 106.638,13.15 107.94,14.746 C108.906,15.922 109.368,17.518 109.368,19.366 L109.368,27.22 L112.098,27.22 L112.098,31 L105,31 L105,28.984 C103.53,30.244 101.304,31.336 98.826,31.336 Z M100.296,28.018 C101.934,28.018 103.53,27.388 104.916,26.38 L104.916,23.482 C103.866,23.23 102.564,23.062 101.136,23.062 C98.91,23.062 97.566,24.07 97.566,25.75 C97.566,27.22 98.658,28.018 100.296,28.018 Z M124.362,31.336 C127.05,31.336 128.94,30.79 130.914,29.656 L131.292,25.54 C128.898,26.842 126.966,27.472 124.74,27.472 C121.464,27.472 118.776,25.246 118.776,21.718 C118.776,17.686 121.38,15.964 123.48,15.964 C125.286,15.964 126.42,16.762 126.756,17.224 C126.42,17.602 126.168,18.232 126.168,18.778 C126.168,20.29 127.428,21.55 128.94,21.55 C130.578,21.55 131.88,20.374 131.88,18.442 C131.88,15.544 128.562,12.268 123.522,12.268 C118.062,12.268 114.198,16.846 114.198,21.634 C114.198,27.556 118.566,31.336 124.362,31.336 Z M143.262,31.336 C144.942,31.336 146.412,30.874 147.672,30.244 L148.05,26.296 C146.958,26.8 145.614,27.262 144.438,27.262 C143.514,27.262 142.842,26.968 142.506,26.38 C142.296,26.002 142.212,25.624 142.212,25.036 L142.212,16.468 L147.798,16.468 L147.798,12.604 L142.212,12.604 L142.212,6.766 L137.676,8.74 L137.676,12.604 L134.106,12.604 L134.106,16.468 L137.676,16.468 L137.676,25.918 C137.676,27.094 137.886,28.06 138.306,28.816 C139.23,30.58 141.036,31.336 143.262,31.336 Z M170.016,31.504 C175.686,31.504 179.76,28.522 179.76,23.272 C179.76,18.148 176.022,16.426 171.066,14.662 C168.294,13.654 165.984,12.646 165.984,10.378 C165.984,8.362 167.58,6.976 170.31,6.976 C172.032,6.976 173.208,7.354 173.964,7.816 C173.796,8.152 173.67,8.446 173.67,9.118 C173.67,10.504 174.762,11.932 176.694,11.932 C178.29,11.932 179.508,10.798 179.508,8.824 C179.508,5.506 175.518,2.86 170.352,2.86 C164.766,2.86 161.196,6.304 161.196,10.714 C161.196,15.838 164.808,17.476 169.932,19.324 C172.704,20.29 175.014,21.382 175.014,23.65 C175.014,26.044 173.082,27.388 170.058,27.388 C168.252,27.388 166.698,26.926 165.69,26.212 C165.942,25.708 166.068,25.204 166.068,24.532 C166.068,23.188 164.892,21.802 163.044,21.802 C161.322,21.802 160.146,23.104 160.146,25.078 C160.146,28.438 164.556,31.504 170.016,31.504 Z M194.544,31.336 C192.192,31.336 190.512,30.496 188.958,29.236 L187.95,31.084 L184.842,31.084 L184.842,4.12 L182.07,4.12 L182.07,0.256 L189.42,0.256 L189.42,14.62 C190.764,13.318 192.486,12.268 194.838,12.268 C199.71,12.268 203.364,16.174 203.364,21.718 C203.364,27.052 199.5,31.336 194.544,31.336 Z M193.788,27.388 C196.35,27.388 198.66,25.414 198.66,21.76 C198.66,18.232 196.476,16.216 193.788,16.216 C192.066,16.216 190.68,16.972 189.42,18.064 L189.42,25.96 C190.638,26.8 192.066,27.388 193.788,27.388 Z M216.006,31.336 C209.916,31.336 206.22,26.926 206.22,21.802 C206.22,16.762 210,12.268 216.006,12.268 C222.096,12.268 225.792,16.678 225.792,21.802 C225.792,26.842 222.012,31.336 216.006,31.336 Z M216.006,27.514 C218.988,27.514 221.088,25.162 221.088,21.802 C221.088,18.442 218.988,16.09 216.006,16.09 C213.024,16.09 210.924,18.442 210.924,21.802 C210.924,25.162 213.024,27.514 216.006,27.514 Z M238.434,31.336 C232.344,31.336 228.648,26.926 228.648,21.802 C228.648,16.762 232.428,12.268 238.434,12.268 C244.524,12.268 248.22,16.678 248.22,21.802 C248.22,26.842 244.44,31.336 238.434,31.336 Z M238.434,27.514 C241.416,27.514 243.516,25.162 243.516,21.802 C243.516,18.442 241.416,16.09 238.434,16.09 C235.452,16.09 233.352,18.442 233.352,21.802 C233.352,25.162 235.452,27.514 238.434,27.514 Z M258.09,12.604 L250.95,12.604 L250.95,16.468 L253.68,16.468 L253.68,27.22 L250.95,27.22 L250.95,31 L260.778,31 L260.778,27.22 L258.258,27.22 L258.258,18.568 C259.728,17.35 261.408,16.426 263.004,16.426 C264.096,16.426 264.852,16.846 265.272,17.644 C265.524,18.106 265.65,18.778 265.65,19.534 L265.65,27.22 L263.13,27.22 L263.13,31 L272.958,31 L272.958,27.22 L270.228,27.22 L270.228,18.4 C270.228,16.888 269.892,15.628 269.262,14.62 C268.296,13.15 266.7,12.268 264.516,12.268 C261.828,12.268 259.854,13.822 258.09,15.544 L258.09,12.604 Z"/>
    <path fill="#FFB8AC" d="M9.768,72.44 L11.28,72.44 L11.28,76.448 L13.344,76.448 C13.416,75.992 13.464,75.512 13.464,75.032 L13.464,71.912 L15.024,71.912 L15.024,75.032 C14.976,76.976 14.568,78.536 13.8,79.712 C13.032,80.816 11.76,81.656 10.032,82.256 L9.168,80.888 C10.752,80.336 11.88,79.616 12.528,78.704 C12.672,78.44 12.816,78.176 12.936,77.888 L9.768,77.888 L9.768,72.44 Z M20.568,72.488 L20.568,76.664 L18.456,76.664 L18.456,71.888 L16.872,71.888 L16.872,82.52 L18.456,82.52 L18.456,78.104 L22.08,78.104 L22.08,72.488 L20.568,72.488 Z M14.592,66.92 C15.048,68.168 15.456,69.608 15.792,71.24 L14.568,71.552 C14.472,71.168 14.4,70.784 14.328,70.448 C12.504,70.784 10.824,71.048 9.288,71.24 L8.952,69.992 C9.84,69.488 10.992,68.216 12.384,66.152 L9.312,66.44 L8.952,65.168 C9.168,65.072 9.36,64.88 9.552,64.616 C10.416,63.368 11.184,61.904 11.832,60.272 L13.248,60.824 C12.456,62.552 11.64,63.968 10.824,65.072 C11.64,64.976 12.432,64.904 13.248,64.808 C13.632,64.16 14.04,63.488 14.448,62.816 L15.768,63.344 C13.872,66.512 12.312,68.648 11.112,69.752 L13.992,69.248 C13.8,68.552 13.608,67.904 13.416,67.304 L14.592,66.92 Z M21.744,66.584 L20.568,66.944 C20.808,67.64 21.024,68.36 21.216,69.08 C20.112,69.248 19.152,69.392 18.312,69.512 C19.368,68.456 20.736,66.368 22.44,63.2 L21.12,62.672 C20.736,63.368 20.4,64.04 20.064,64.664 C19.272,64.76 18.48,64.832 17.712,64.88 C18.384,63.896 19.104,62.6 19.824,60.968 L18.408,60.416 C17.856,61.952 17.208,63.296 16.488,64.472 C16.296,64.736 16.104,64.928 15.888,65.024 L16.248,66.272 L19.296,65.984 C18.096,67.952 17.112,69.2 16.344,69.68 L16.656,70.928 C18.144,70.76 19.752,70.544 21.528,70.304 C21.624,70.736 21.744,71.168 21.84,71.624 L23.064,71.312 C22.68,69.536 22.224,67.952 21.744,66.584 Z M1.104,61.4 L9.336,61.4 L9.336,62.984 L7.968,62.984 L7.968,82.52 L6.384,82.52 L6.384,77.96 C4.8,78.608 3.144,79.16 1.368,79.592 L0.96,77.984 C1.344,77.888 1.752,77.816 2.136,77.72 L2.136,62.984 L1.104,62.984 L1.104,61.4 Z M3.72,77.288 C4.632,77.024 5.52,76.712 6.384,76.352 L6.384,73.16 L3.72,73.16 L3.72,77.288 Z M3.72,71.624 L6.384,71.624 L6.384,68.072 L3.72,68.072 L3.72,71.624 Z M3.72,66.536 L6.384,66.536 L6.384,62.984 L3.72,62.984 L3.72,66.536 Z M32.112,76.112 C31.992,78.128 31.68,79.928 31.176,81.512 L32.712,81.992 C33.216,80.336 33.528,78.44 33.672,76.304 L32.112,76.112 Z M36.36,75.92 L34.92,76.232 C35.184,77.672 35.424,79.328 35.616,81.224 L37.152,80.888 C36.912,79.112 36.648,77.456 36.36,75.92 Z M38.472,69.992 C39.024,71.312 39.528,72.824 39.96,74.528 L38.52,74.912 C38.424,74.504 38.328,74.12 38.232,73.76 C36.024,74.384 33.888,74.816 31.848,75.056 L31.416,73.544 C31.704,73.4 31.944,73.256 32.16,73.064 C33.072,72.2 34.152,70.76 35.448,68.744 C34.176,68.936 32.88,69.104 31.584,69.296 L31.176,67.76 C31.416,67.64 31.656,67.424 31.872,67.136 C33.168,65.168 34.32,62.936 35.28,60.416 L36.864,61.016 C35.664,63.752 34.44,65.96 33.192,67.616 C34.248,67.496 35.328,67.352 36.408,67.16 C36.936,66.248 37.488,65.288 38.064,64.232 L39.648,64.808 C37.344,68.792 35.424,71.624 33.888,73.304 C35.208,73.064 36.528,72.8 37.848,72.464 C37.608,71.744 37.368,71.072 37.128,70.424 L38.472,69.992 Z M39.024,75.344 L37.656,75.776 C38.184,77.024 38.664,78.464 39.096,80.072 L40.512,79.448 C40.08,77.984 39.6,76.616 39.024,75.344 Z M51,73.4 L51,82.4 L49.344,82.4 L49.344,81.224 L43.512,81.224 L43.512,82.328 L41.856,82.328 L41.856,73.4 L51,73.4 Z M43.512,79.616 L49.344,79.616 L49.344,74.984 L43.512,74.984 L43.512,79.616 Z M43.752,60.416 L45.384,60.752 C45.12,61.4 44.856,62 44.568,62.576 L51.024,62.576 L51.024,63.848 C50.208,65.792 49.032,67.52 47.496,69.008 C49.08,70.16 50.952,71.144 53.112,71.96 L52.368,73.472 C50.016,72.464 48.024,71.312 46.392,70.016 C44.784,71.312 42.864,72.44 40.632,73.376 L39.624,72.032 C41.784,71.168 43.608,70.136 45.12,68.936 C44.112,67.976 43.248,66.968 42.576,65.912 C42,66.68 41.376,67.4 40.704,68.072 L39.624,66.8 C41.304,65.168 42.696,63.056 43.752,60.416 Z M46.224,68 C47.472,66.824 48.456,65.528 49.176,64.136 L43.728,64.136 L43.416,64.664 C44.136,65.888 45.072,66.992 46.224,68 Z M72.264,71.552 L72.264,73.304 C70.872,73.76 69.432,74.192 67.896,74.6 L67.896,80 C67.896,81.392 67.152,82.088 65.688,82.088 L63.024,82.088 L62.664,80.432 C63.504,80.504 64.32,80.552 65.112,80.552 C65.784,80.552 66.12,80.216 66.12,79.568 L66.12,75.008 C64.584,75.344 63.024,75.656 61.392,75.92 L61.152,74.168 C62.904,73.88 64.56,73.592 66.12,73.256 L66.12,68.528 L61.176,68.528 L61.176,66.872 L66.12,66.872 L66.12,63.656 C64.848,63.92 63.528,64.136 62.16,64.328 L61.8,62.672 C65.208,62.288 68.232,61.592 70.872,60.56 L71.448,62.192 C70.344,62.576 69.144,62.936 67.896,63.272 L67.896,66.872 L73.656,66.872 C73.512,64.928 73.44,62.792 73.44,60.44 L75.168,60.44 C75.192,62.864 75.264,65 75.408,66.872 L82.824,66.872 L82.824,68.528 L75.552,68.528 C75.72,70.256 75.936,71.696 76.224,72.872 C76.368,73.496 76.536,74.048 76.704,74.576 C77.856,73.184 78.888,71.6 79.752,69.824 L81.24,70.616 C80.136,72.872 78.84,74.792 77.328,76.4 C77.664,77.216 78,77.912 78.384,78.464 C79.152,79.616 79.776,80.216 80.232,80.216 C80.712,80.192 81.12,78.848 81.504,76.16 L83.016,76.952 C82.44,80.36 81.6,82.064 80.496,82.064 C79.512,82.064 78.48,81.344 77.376,79.904 C76.896,79.256 76.44,78.488 76.056,77.624 C74.328,79.16 72.36,80.36 70.176,81.224 L69.24,79.736 C71.592,78.872 73.632,77.6 75.384,75.944 C75.096,75.128 74.832,74.24 74.592,73.304 C74.256,71.936 73.992,70.352 73.8,68.528 L67.896,68.528 L67.896,72.848 C69.456,72.44 70.92,72.008 72.264,71.552 Z M77.808,60.704 C79.536,61.856 81,62.984 82.2,64.136 L80.952,65.384 C79.896,64.28 78.48,63.08 76.656,61.808 L77.808,60.704 Z M93.888,68.696 L93.888,82.28 L95.544,82.28 L95.544,65.432 C96.144,64.04 96.672,62.576 97.104,61.04 L95.544,60.32 C94.56,64.064 93,67.4 90.888,70.304 L91.464,72.2 C92.352,71.096 93.168,69.92 93.888,68.696 Z M99.6,66.512 L99.6,68.984 L102.552,68.984 L102.552,66.512 L99.6,66.512 Z M102.552,65.096 L102.552,62.72 L99.6,62.72 L99.6,65.096 L102.552,65.096 Z M107.376,66.512 L107.376,69.008 L110.52,69.008 L110.52,66.512 L107.376,66.512 Z M110.52,65.096 L110.52,62.768 L107.376,62.768 L107.376,65.096 L110.52,65.096 Z M104.184,61.256 L104.184,70.472 L99.6,70.472 L99.6,82.304 L97.92,82.304 L97.92,61.256 L104.184,61.256 Z M110.52,70.472 L105.696,70.472 L105.696,61.256 L112.128,61.256 L112.128,80.216 C112.128,81.488 111.504,82.136 110.304,82.136 C109.296,82.136 108.312,82.112 107.328,82.088 L106.896,80.504 C107.904,80.552 108.864,80.6 109.728,80.6 C110.256,80.6 110.52,80.288 110.52,79.688 L110.52,70.472 Z"/>
  </g>
</svg>
