<svg xmlns="http://www.w3.org/2000/svg" width="360" height="124" viewBox="0 0 360 124">
  <g fill="none" fill-rule="evenodd" transform="translate(-1 5)">
    <path fill="#A5B6F3" d="M11.584,24.384 C13.952,24.384 15.84,23.584 17.312,22.432 L17.312,24 L20.768,24 L20.768,13.088 L11.968,13.088 L11.968,16.16 L17.216,16.16 L17.216,19.776 C15.872,20.64 14.336,21.12 12.128,21.12 C8.576,21.12 5.216,18.144 5.216,13.504 C5.216,8.96 8.352,5.92 12.448,5.92 C14.368,5.92 15.584,6.4 16.192,6.88 C16.064,7.136 15.968,7.552 15.968,7.968 C15.968,9.344 16.96,10.24 18.4,10.24 C19.712,10.24 20.704,9.184 20.704,7.648 C20.704,5.12 17.44,2.56 12.544,2.56 C6.4,2.56 1.472,7.04 1.472,13.536 C1.472,20.288 6.4,24.384 11.584,24.384 Z M34.112,9.728 C32.32,9.728 30.848,11.264 29.664,13.152 L29.664,9.984 L24.224,9.984 L24.224,12.928 L26.304,12.928 L26.304,21.12 L24.224,21.12 L24.224,24 L32.224,24 L32.224,21.12 L29.792,21.12 L29.792,15.616 C30.432,14.4 31.584,13.312 32.576,12.96 C32.864,13.6 33.568,14.208 34.624,14.208 C35.776,14.208 36.704,13.216 36.704,12.032 C36.704,10.784 35.84,9.728 34.112,9.728 Z M45.696,24.256 C41.056,24.256 38.24,20.896 38.24,16.992 C38.24,13.152 41.12,9.728 45.696,9.728 C50.336,9.728 53.152,13.088 53.152,16.992 C53.152,20.832 50.272,24.256 45.696,24.256 Z M45.696,21.344 C47.968,21.344 49.568,19.552 49.568,16.992 C49.568,14.432 47.968,12.64 45.696,12.64 C43.424,12.64 41.824,14.432 41.824,16.992 C41.824,19.552 43.424,21.344 45.696,21.344 Z M61.184,24.256 C63.232,24.256 64.736,23.072 66.08,21.76 L66.08,24 L71.52,24 L71.52,21.12 L69.44,21.12 L69.44,9.984 L63.776,9.984 L63.776,12.928 L65.952,12.928 L65.952,19.456 C64.832,20.384 63.552,21.088 62.336,21.088 C61.504,21.088 60.928,20.768 60.608,20.16 C60.416,19.776 60.32,19.328 60.32,18.72 L60.32,9.984 L54.752,9.984 L54.752,12.928 L56.832,12.928 L56.832,19.584 C56.832,20.704 57.088,21.664 57.536,22.4 C58.24,23.552 59.488,24.256 61.184,24.256 Z M73.184,30.272 L73.184,27.392 L75.264,27.392 L75.264,12.928 L73.184,12.928 L73.184,9.984 L78.624,9.984 L78.624,11.584 C79.712,10.56 80.896,9.728 82.784,9.728 C86.432,9.728 89.184,12.704 89.184,16.928 C89.184,20.992 86.272,24.256 82.56,24.256 C81.056,24.256 79.808,23.712 78.752,22.912 L78.752,27.392 L81.024,27.392 L81.024,30.272 L73.184,30.272 Z M82.016,21.248 C83.872,21.248 85.6,19.744 85.6,16.96 C85.6,14.272 84,12.736 82.016,12.736 C80.704,12.736 79.68,13.312 78.752,14.144 L78.752,20.16 C79.648,20.8 80.736,21.248 82.016,21.248 Z M98.496,24 L98.496,20.768 L100.896,20.768 L100.896,6.176 L98.496,6.176 L98.496,2.944 L106.976,2.944 C111.488,2.944 114.944,5.536 114.944,9.824 C114.944,14.656 111.52,17.024 106.56,17.024 C105.568,17.024 104.96,17.024 104.512,16.992 L104.512,20.768 L107.136,20.768 L107.136,24 L98.496,24 Z M106.88,13.856 C109.6,13.856 111.2,12.32 111.2,9.824 C111.2,7.616 109.376,6.176 106.784,6.176 L104.512,6.176 L104.512,13.792 C104.896,13.824 105.408,13.856 106.88,13.856 Z M122.848,24.256 C124.896,24.256 126.4,23.072 127.744,21.76 L127.744,24 L133.184,24 L133.184,21.12 L131.104,21.12 L131.104,9.984 L125.44,9.984 L125.44,12.928 L127.616,12.928 L127.616,19.456 C126.496,20.384 125.216,21.088 124,21.088 C123.168,21.088 122.592,20.768 122.272,20.16 C122.08,19.776 121.984,19.328 121.984,18.72 L121.984,9.984 L116.416,9.984 L116.416,12.928 L118.496,12.928 L118.496,19.584 C118.496,20.704 118.752,21.664 119.2,22.4 C119.904,23.552 121.152,24.256 122.848,24.256 Z M144.896,9.728 C143.104,9.728 141.632,11.264 140.448,13.152 L140.448,9.984 L135.008,9.984 L135.008,12.928 L137.088,12.928 L137.088,21.12 L135.008,21.12 L135.008,24 L143.008,24 L143.008,21.12 L140.576,21.12 L140.576,15.616 C141.216,14.4 142.368,13.312 143.36,12.96 C143.648,13.6 144.352,14.208 145.408,14.208 C146.56,14.208 147.488,13.216 147.488,12.032 C147.488,10.784 146.624,9.728 144.896,9.728 Z M156.768,24.256 C158.816,24.256 160.256,23.84 161.76,22.976 L162.048,19.84 C160.224,20.832 158.752,21.312 157.056,21.312 C154.56,21.312 152.512,19.616 152.512,16.928 C152.512,13.856 154.496,12.544 156.096,12.544 C157.472,12.544 158.336,13.152 158.592,13.504 C158.336,13.792 158.144,14.272 158.144,14.688 C158.144,15.84 159.104,16.8 160.256,16.8 C161.504,16.8 162.496,15.904 162.496,14.432 C162.496,12.224 159.968,9.728 156.128,9.728 C151.968,9.728 149.024,13.216 149.024,16.864 C149.024,21.376 152.352,24.256 156.768,24.256 Z M166.816,3.52 L166.816,21.12 L164.736,21.12 L164.736,24 L172.224,24 L172.224,21.12 L170.304,21.12 L170.304,14.528 C171.424,13.6 172.704,12.896 173.92,12.896 C174.592,12.896 175.136,13.12 175.488,13.568 C175.776,13.952 175.936,14.496 175.936,15.264 L175.936,21.12 L174.016,21.12 L174.016,24 L181.504,24 L181.504,21.12 L179.424,21.12 L179.424,14.4 C179.424,13.12 179.104,12.032 178.496,11.232 C177.76,10.272 176.576,9.728 175.072,9.728 C173.088,9.728 171.616,10.848 170.304,12.096 L170.304,0.576 L164.736,0.576 L164.736,3.52 L166.816,3.52 Z M187.68,24.256 C185.28,24.256 183.136,22.944 183.136,20.32 C183.136,17.696 185.44,16.096 188.768,16.096 C190.208,16.096 191.552,16.288 192.32,16.48 L192.32,15.36 C192.32,14.528 192.128,13.888 191.776,13.44 C191.2,12.704 190.272,12.416 189.024,12.416 C188.416,12.416 187.968,12.512 187.648,12.64 C187.712,12.832 187.776,13.152 187.776,13.344 C187.776,14.4 186.944,15.168 185.888,15.168 C184.832,15.168 184.032,14.432 184.032,13.28 C184.032,11.552 185.792,9.728 189.6,9.728 C192,9.728 193.632,10.4 194.624,11.616 C195.36,12.512 195.712,13.728 195.712,15.136 L195.712,21.12 L197.792,21.12 L197.792,24 L192.384,24 L192.384,22.464 C191.264,23.424 189.568,24.256 187.68,24.256 Z M188.8,21.728 C190.048,21.728 191.264,21.248 192.32,20.48 L192.32,18.272 C191.52,18.08 190.528,17.952 189.44,17.952 C187.744,17.952 186.72,18.72 186.72,20 C186.72,21.12 187.552,21.728 188.8,21.728 Z M211.296,13.088 C211.296,12.416 211.04,11.808 210.528,11.296 C209.568,10.336 207.52,9.696 205.824,9.696 C201.888,9.696 200.096,11.968 200.096,14.144 C200.096,16.544 201.728,17.472 205.6,18.496 C207.744,19.072 208.352,19.488 208.352,20.192 C208.352,21.216 207.2,21.696 205.792,21.696 C204.8,21.696 203.904,21.504 203.264,21.248 C203.296,21.056 203.328,20.864 203.328,20.672 C203.328,19.456 202.4,18.816 201.44,18.816 C200.352,18.816 199.584,19.68 199.584,20.704 C199.584,21.44 199.808,22.016 200.384,22.592 C201.312,23.52 203.616,24.288 205.76,24.288 C208.928,24.288 211.68,22.72 211.68,19.776 C211.68,17.248 209.728,16.416 206.368,15.52 C204.224,14.944 203.424,14.528 203.424,13.728 C203.424,12.992 204.192,12.288 205.76,12.288 C206.464,12.288 207.168,12.416 207.744,12.64 C207.68,12.832 207.68,13.024 207.68,13.248 C207.68,14.304 208.448,14.976 209.568,14.976 C210.592,14.976 211.296,14.208 211.296,13.088 Z M227.808,18.176 L217.696,18.176 C218.176,20.352 219.968,21.312 222.304,21.312 C224,21.312 225.76,20.768 227.392,19.84 L227.104,22.976 C225.632,23.84 223.84,24.256 221.792,24.256 C217.216,24.256 214.048,21.376 214.048,17.024 C214.048,13.056 216.832,9.728 221.152,9.728 C225.632,9.728 227.968,12.736 227.968,16.448 C227.968,16.992 227.904,17.696 227.808,18.176 Z M221.12,12.544 C219.584,12.544 218.048,13.44 217.664,15.744 L224.48,15.744 C224.416,13.824 223.168,12.544 221.12,12.544 Z M239.04,30.816 L252.128,1.376 L249.28,0.096 L236.192,29.536 L239.04,30.816 Z M1.184,62 L1.184,58.768 L3.584,58.768 L3.584,44.176 L1.184,44.176 L1.184,40.944 L9.6,40.944 C14.752,40.944 17.28,43.312 17.28,46.48 C17.28,48.912 15.776,50.48 13.696,51.184 C16.32,51.952 17.888,53.488 17.888,56.112 C17.888,59.6 15.072,62 9.952,62 L1.184,62 Z M7.168,58.832 L10.016,58.832 C12.512,58.832 14.176,57.808 14.176,55.792 C14.176,53.84 12.64,52.752 9.92,52.752 L7.168,52.752 L7.168,58.832 Z M7.168,49.872 L9.632,49.872 C12.16,49.872 13.568,48.72 13.568,46.896 C13.568,45.104 12.096,44.112 9.536,44.112 L7.168,44.112 L7.168,49.872 Z M26.016,62.256 C28.064,62.256 29.568,61.072 30.912,59.76 L30.912,62 L36.352,62 L36.352,59.12 L34.272,59.12 L34.272,47.984 L28.608,47.984 L28.608,50.928 L30.784,50.928 L30.784,57.456 C29.664,58.384 28.384,59.088 27.168,59.088 C26.336,59.088 25.76,58.768 25.44,58.16 C25.248,57.776 25.152,57.328 25.152,56.72 L25.152,47.984 L19.584,47.984 L19.584,50.928 L21.664,50.928 L21.664,57.584 C21.664,58.704 21.92,59.664 22.368,60.4 C23.072,61.552 24.32,62.256 26.016,62.256 Z M50.176,51.088 C50.176,50.416 49.92,49.808 49.408,49.296 C48.448,48.336 46.4,47.696 44.704,47.696 C40.768,47.696 38.976,49.968 38.976,52.144 C38.976,54.544 40.608,55.472 44.48,56.496 C46.624,57.072 47.232,57.488 47.232,58.192 C47.232,59.216 46.08,59.696 44.672,59.696 C43.68,59.696 42.784,59.504 42.144,59.248 C42.176,59.056 42.208,58.864 42.208,58.672 C42.208,57.456 41.28,56.816 40.32,56.816 C39.232,56.816 38.464,57.68 38.464,58.704 C38.464,59.44 38.688,60.016 39.264,60.592 C40.192,61.52 42.496,62.288 44.64,62.288 C47.808,62.288 50.56,60.72 50.56,57.776 C50.56,55.248 48.608,54.416 45.248,53.52 C43.104,52.944 42.304,52.528 42.304,51.728 C42.304,50.992 43.072,50.288 44.64,50.288 C45.344,50.288 46.048,50.416 46.624,50.64 C46.56,50.832 46.56,51.024 46.56,51.248 C46.56,52.304 47.328,52.976 48.448,52.976 C49.472,52.976 50.176,52.208 50.176,51.088 Z M56.384,45.84 C57.632,45.84 58.752,44.816 58.752,43.536 C58.752,42.256 57.696,41.232 56.448,41.232 C55.2,41.232 54.08,42.256 54.08,43.536 C54.08,44.816 55.136,45.84 56.384,45.84 Z M52.864,62 L60.576,62 L60.576,59.12 L58.496,59.12 L58.496,47.984 L52.864,47.984 L52.864,50.928 L55.008,50.928 L55.008,59.12 L52.864,59.12 L52.864,62 Z M68.032,47.984 L62.592,47.984 L62.592,50.928 L64.672,50.928 L64.672,59.12 L62.592,59.12 L62.592,62 L70.08,62 L70.08,59.12 L68.16,59.12 L68.16,52.528 C69.28,51.6 70.56,50.896 71.776,50.896 C72.608,50.896 73.184,51.216 73.504,51.824 C73.696,52.176 73.792,52.688 73.792,53.264 L73.792,59.12 L71.872,59.12 L71.872,62 L79.36,62 L79.36,59.12 L77.28,59.12 L77.28,52.4 C77.28,51.248 77.024,50.288 76.544,49.52 C75.808,48.4 74.592,47.728 72.928,47.728 C70.88,47.728 69.376,48.912 68.032,50.224 L68.032,47.984 Z M94.72,56.176 L84.608,56.176 C85.088,58.352 86.88,59.312 89.216,59.312 C90.912,59.312 92.672,58.768 94.304,57.84 L94.016,60.976 C92.544,61.84 90.752,62.256 88.704,62.256 C84.128,62.256 80.96,59.376 80.96,55.024 C80.96,51.056 83.744,47.728 88.064,47.728 C92.544,47.728 94.88,50.736 94.88,54.448 C94.88,54.992 94.816,55.696 94.72,56.176 Z M88.032,50.544 C86.496,50.544 84.96,51.44 84.576,53.744 L91.392,53.744 C91.328,51.824 90.08,50.544 88.032,50.544 Z M108.864,51.088 C108.864,50.416 108.608,49.808 108.096,49.296 C107.136,48.336 105.088,47.696 103.392,47.696 C99.456,47.696 97.664,49.968 97.664,52.144 C97.664,54.544 99.296,55.472 103.168,56.496 C105.312,57.072 105.92,57.488 105.92,58.192 C105.92,59.216 104.768,59.696 103.36,59.696 C102.368,59.696 101.472,59.504 100.832,59.248 C100.864,59.056 100.896,58.864 100.896,58.672 C100.896,57.456 99.968,56.816 99.008,56.816 C97.92,56.816 97.152,57.68 97.152,58.704 C97.152,59.44 97.376,60.016 97.952,60.592 C98.88,61.52 101.184,62.288 103.328,62.288 C106.496,62.288 109.248,60.72 109.248,57.776 C109.248,55.248 107.296,54.416 103.936,53.52 C101.792,52.944 100.992,52.528 100.992,51.728 C100.992,50.992 101.76,50.288 103.328,50.288 C104.032,50.288 104.736,50.416 105.312,50.64 C105.248,50.832 105.248,51.024 105.248,51.248 C105.248,52.304 106.016,52.976 107.136,52.976 C108.16,52.976 108.864,52.208 108.864,51.088 Z M123.52,51.088 C123.52,50.416 123.264,49.808 122.752,49.296 C121.792,48.336 119.744,47.696 118.048,47.696 C114.112,47.696 112.32,49.968 112.32,52.144 C112.32,54.544 113.952,55.472 117.824,56.496 C119.968,57.072 120.576,57.488 120.576,58.192 C120.576,59.216 119.424,59.696 118.016,59.696 C117.024,59.696 116.128,59.504 115.488,59.248 C115.52,59.056 115.552,58.864 115.552,58.672 C115.552,57.456 114.624,56.816 113.664,56.816 C112.576,56.816 111.808,57.68 111.808,58.704 C111.808,59.44 112.032,60.016 112.608,60.592 C113.536,61.52 115.84,62.288 117.984,62.288 C121.152,62.288 123.904,60.72 123.904,57.776 C123.904,55.248 121.952,54.416 118.592,53.52 C116.448,52.944 115.648,52.528 115.648,51.728 C115.648,50.992 116.416,50.288 117.984,50.288 C118.688,50.288 119.392,50.416 119.968,50.64 C119.904,50.832 119.904,51.024 119.904,51.248 C119.904,52.304 120.672,52.976 121.792,52.976 C122.816,52.976 123.52,52.208 123.52,51.088 Z M133.408,62 L133.408,58.768 L135.808,58.768 L135.808,44.176 L133.408,44.176 L133.408,40.944 L141.376,40.944 C148.992,40.944 153.504,44.912 153.504,51.28 C153.504,57.712 149.248,62 140.992,62 L133.408,62 Z M139.424,58.768 L141.504,58.768 C146.944,58.768 149.76,55.824 149.76,51.312 C149.76,46.704 146.496,44.176 141.248,44.176 L139.424,44.176 L139.424,58.768 Z M169.824,56.176 L159.712,56.176 C160.192,58.352 161.984,59.312 164.32,59.312 C166.016,59.312 167.776,58.768 169.408,57.84 L169.12,60.976 C167.648,61.84 165.856,62.256 163.808,62.256 C159.232,62.256 156.064,59.376 156.064,55.024 C156.064,51.056 158.848,47.728 163.168,47.728 C167.648,47.728 169.984,50.736 169.984,54.448 C169.984,54.992 169.92,55.696 169.824,56.176 Z M163.136,50.544 C161.6,50.544 160.064,51.44 159.68,53.744 L166.496,53.744 C166.432,51.824 165.184,50.544 163.136,50.544 Z M178.336,62.256 L180.832,62.256 L186.4,50.928 L188.032,50.928 L188.032,47.984 L180.896,47.984 L180.896,50.768 L183.008,50.768 L179.648,58.064 L176.288,50.768 L178.304,50.768 L178.304,47.984 L171.136,47.984 L171.136,50.928 L172.768,50.928 L178.336,62.256 Z M203.04,56.176 L192.928,56.176 C193.408,58.352 195.2,59.312 197.536,59.312 C199.232,59.312 200.992,58.768 202.624,57.84 L202.336,60.976 C200.864,61.84 199.072,62.256 197.024,62.256 C192.448,62.256 189.28,59.376 189.28,55.024 C189.28,51.056 192.064,47.728 196.384,47.728 C200.864,47.728 203.2,50.736 203.2,54.448 C203.2,54.992 203.136,55.696 203.04,56.176 Z M196.352,50.544 C194.816,50.544 193.28,51.44 192.896,53.744 L199.712,53.744 C199.648,51.824 198.4,50.544 196.352,50.544 Z M205.024,62 L212.768,62 L212.768,59.12 L210.688,59.12 L210.688,38.576 L205.024,38.576 L205.024,41.52 L207.2,41.52 L207.2,59.12 L205.024,59.12 L205.024,62 Z M222.176,62.256 C217.536,62.256 214.72,58.896 214.72,54.992 C214.72,51.152 217.6,47.728 222.176,47.728 C226.816,47.728 229.632,51.088 229.632,54.992 C229.632,58.832 226.752,62.256 222.176,62.256 Z M222.176,59.344 C224.448,59.344 226.048,57.552 226.048,54.992 C226.048,52.432 224.448,50.64 222.176,50.64 C219.904,50.64 218.304,52.432 218.304,54.992 C218.304,57.552 219.904,59.344 222.176,59.344 Z M231.552,68.272 L231.552,65.392 L233.632,65.392 L233.632,50.928 L231.552,50.928 L231.552,47.984 L236.992,47.984 L236.992,49.584 C238.08,48.56 239.264,47.728 241.152,47.728 C244.8,47.728 247.552,50.704 247.552,54.928 C247.552,58.992 244.64,62.256 240.928,62.256 C239.424,62.256 238.176,61.712 237.12,60.912 L237.12,65.392 L239.392,65.392 L239.392,68.272 L231.552,68.272 Z M240.384,59.248 C242.24,59.248 243.968,57.744 243.968,54.96 C243.968,52.272 242.368,50.736 240.384,50.736 C239.072,50.736 238.048,51.312 237.12,52.144 L237.12,58.16 C238.016,58.8 239.104,59.248 240.384,59.248 Z M249.632,62 L257.056,62 L257.056,59.12 L255.2,59.12 L255.2,52.464 C256.256,51.568 257.472,50.896 258.624,50.896 C259.456,50.896 260,51.216 260.288,51.888 C260.448,52.24 260.512,52.656 260.512,53.2 L260.512,59.12 L258.592,59.12 L258.592,62 L265.888,62 L265.888,59.12 L264,59.12 L264,52.464 C265.056,51.568 266.272,50.896 267.424,50.896 C268.224,50.896 268.8,51.216 269.088,51.888 C269.248,52.24 269.312,52.656 269.312,53.2 L269.312,59.12 L267.424,59.12 L267.424,62 L274.88,62 L274.88,59.12 L272.8,59.12 L272.8,52.368 C272.8,51.344 272.608,50.448 272.224,49.744 C271.52,48.432 270.176,47.728 268.224,47.728 C266.432,47.728 264.864,48.752 263.552,50.032 C263.424,49.744 263.296,49.488 263.104,49.232 C262.4,48.304 261.28,47.728 259.776,47.728 C257.696,47.728 256.16,49.008 255.072,50.192 L255.072,47.984 L249.632,47.984 L249.632,50.928 L251.712,50.928 L251.712,59.12 L249.632,59.12 L249.632,62 Z M290.24,56.176 L280.128,56.176 C280.608,58.352 282.4,59.312 284.736,59.312 C286.432,59.312 288.192,58.768 289.824,57.84 L289.536,60.976 C288.064,61.84 286.272,62.256 284.224,62.256 C279.648,62.256 276.48,59.376 276.48,55.024 C276.48,51.056 279.264,47.728 283.584,47.728 C288.064,47.728 290.4,50.736 290.4,54.448 C290.4,54.992 290.336,55.696 290.24,56.176 Z M283.552,50.544 C282.016,50.544 280.48,51.44 280.096,53.744 L286.912,53.744 C286.848,51.824 285.6,50.544 283.552,50.544 Z M297.824,47.984 L292.384,47.984 L292.384,50.928 L294.464,50.928 L294.464,59.12 L292.384,59.12 L292.384,62 L299.872,62 L299.872,59.12 L297.952,59.12 L297.952,52.528 C299.072,51.6 300.352,50.896 301.568,50.896 C302.4,50.896 302.976,51.216 303.296,51.824 C303.488,52.176 303.584,52.688 303.584,53.264 L303.584,59.12 L301.664,59.12 L301.664,62 L309.152,62 L309.152,59.12 L307.072,59.12 L307.072,52.4 C307.072,51.248 306.816,50.288 306.336,49.52 C305.6,48.4 304.384,47.728 302.72,47.728 C300.672,47.728 299.168,48.912 297.824,50.224 L297.824,47.984 Z M316.928,62.256 C318.208,62.256 319.328,61.904 320.288,61.424 L320.576,58.416 C319.744,58.8 318.72,59.152 317.824,59.152 C317.12,59.152 316.608,58.928 316.352,58.48 C316.192,58.192 316.128,57.904 316.128,57.456 L316.128,50.928 L320.384,50.928 L320.384,47.984 L316.128,47.984 L316.128,43.536 L312.672,45.04 L312.672,47.984 L309.952,47.984 L309.952,50.928 L312.672,50.928 L312.672,58.128 C312.672,59.024 312.832,59.76 313.152,60.336 C313.856,61.68 315.232,62.256 316.928,62.256 Z"/>
    <path fill="#FFB8AC" d="M21.792,89.352 L21.792,110.424 L20.16,110.424 L20.16,109.392 L3.84,109.392 L3.84,110.424 L2.208,110.424 L2.208,89.352 L21.792,89.352 Z M3.84,107.928 L20.16,107.928 L20.16,90.768 L3.84,90.768 L3.84,107.928 Z M5.52,92.232 L11.184,92.232 L11.184,91.32 L12.744,91.32 L12.744,92.232 L18.456,92.232 L18.456,93.36 L12.744,93.36 L12.744,94.344 L17.424,94.344 L17.424,99.432 L17.4,99.432 C18.024,100.152 18.552,100.824 18.936,101.424 L17.904,102.144 C17.712,101.808 17.472,101.496 17.232,101.16 L16.104,101.232 L16.104,102.648 L18.792,102.648 L18.792,103.896 L16.104,103.896 L16.104,105.48 C16.104,106.512 15.528,107.04 14.376,107.04 L12,107.04 L11.688,105.72 C12.456,105.768 13.2,105.816 13.896,105.816 C14.376,105.816 14.616,105.576 14.616,105.144 L14.616,103.896 L5.16,103.896 L5.16,102.648 L14.616,102.648 L14.616,101.304 C12.216,101.424 9.264,101.544 5.76,101.64 L5.616,100.608 C7.632,100.56 9.504,100.536 11.184,100.488 L11.184,99.432 L6.576,99.432 L6.576,94.344 L11.184,94.344 L11.184,93.36 L5.52,93.36 L5.52,92.232 Z M12.744,99.432 L12.744,100.44 C14.136,100.392 15.432,100.344 16.584,100.296 L15.864,99.432 L12.744,99.432 Z M16.032,98.544 L16.032,97.296 L12.6,97.296 L12.6,98.544 L16.032,98.544 Z M11.328,98.544 L11.328,97.296 L7.992,97.296 L7.992,98.544 L11.328,98.544 Z M7.992,96.504 L11.328,96.504 L11.328,95.28 L7.992,95.28 L7.992,96.504 Z M12.6,95.28 L12.6,96.504 L16.032,96.504 L16.032,95.28 L12.6,95.28 Z M7.488,104.088 C8.64,104.496 9.672,105 10.608,105.6 L9.888,106.68 C8.904,105.96 7.896,105.408 6.864,105.024 L7.488,104.088 Z M31.848,89.304 L38.352,89.304 L38.352,103.872 L31.848,103.872 L31.848,89.304 Z M36.792,102.432 L36.792,99.288 L33.408,99.288 L33.408,102.432 L36.792,102.432 Z M33.408,97.872 L36.792,97.872 L36.792,94.92 L33.408,94.92 L33.408,97.872 Z M33.408,93.528 L36.792,93.528 L36.792,90.744 L33.408,90.744 L33.408,93.528 Z M36.816,104.664 C37.872,106.248 38.664,107.664 39.24,108.888 L37.992,109.752 C37.416,108.432 36.6,106.992 35.592,105.408 L36.816,104.664 Z M33.216,104.712 C32.64,106.272 31.872,107.832 30.888,109.416 L32.232,110.112 C33.192,108.552 33.96,106.968 34.536,105.336 L33.216,104.712 Z M42.624,88.32 L44.184,88.32 L44.184,90.144 L47.928,90.144 L47.928,88.32 L49.512,88.32 L49.512,90.144 L52.392,90.144 L52.392,91.512 L49.512,91.512 L49.512,93.168 L51.96,93.168 L51.96,94.488 L49.512,94.488 L49.512,96.144 L52.872,96.144 L52.872,97.512 L46.8,97.512 L46.8,99.048 L51.648,99.048 L51.648,105.096 L52.944,105.096 L52.944,106.512 L51.648,106.512 L51.648,108.552 C51.648,109.704 51,110.304 49.704,110.304 L47.76,110.304 L47.376,108.888 L49.224,108.936 C49.776,108.936 50.064,108.672 50.064,108.192 L50.064,106.512 L42,106.512 L42,110.328 L40.416,110.328 L40.416,106.512 L39,106.512 L39,105.096 L40.416,105.096 L40.416,99.048 L45.216,99.048 L45.216,97.512 L39.24,97.512 L39.24,96.144 L42.624,96.144 L42.624,94.488 L40.176,94.488 L40.176,93.168 L42.624,93.168 L42.624,91.512 L39.72,91.512 L39.72,90.144 L42.624,90.144 L42.624,88.32 Z M42,105.096 L45.216,105.096 L45.216,103.296 L42,103.296 L42,105.096 Z M46.8,105.096 L50.064,105.096 L50.064,103.296 L46.8,103.296 L46.8,105.096 Z M44.184,96.144 L47.928,96.144 L47.928,94.488 L44.184,94.488 L44.184,96.144 Z M44.184,93.168 L47.928,93.168 L47.928,91.512 L44.184,91.512 L44.184,93.168 Z M50.064,102.096 L50.064,100.344 L46.8,100.344 L46.8,102.096 L50.064,102.096 Z M45.216,100.344 L42,100.344 L42,102.096 L45.216,102.096 L45.216,100.344 Z M67.968,88.776 L68.616,90.336 C67.776,90.72 66.384,91.128 64.44,91.56 L64.584,94.224 L68.16,94.224 L68.16,95.784 L64.656,95.784 L64.8,98.688 L67.992,98.688 L67.992,100.272 L64.872,100.272 L65.016,103.32 L79.032,103.32 L79.176,100.32 L76.512,100.32 L76.512,98.736 L79.272,98.736 L79.416,95.808 L76.68,95.808 L76.68,94.248 L79.488,94.248 L79.632,91.32 L76.512,91.32 L76.512,89.688 L81.288,89.688 L80.712,103.32 L82.632,103.32 L82.632,104.952 L61.344,104.952 L61.344,103.32 L63.36,103.32 L62.808,90.216 C64.704,89.904 66.432,89.424 67.968,88.776 Z M75.288,105.168 L74.424,106.464 C76.92,107.4 79.368,108.672 81.768,110.304 L82.728,108.816 C80.496,107.376 78.024,106.176 75.288,105.168 Z M68.448,105.264 C66.552,106.632 64.224,107.832 61.464,108.864 L62.544,110.256 C65.376,109.152 67.776,107.856 69.696,106.368 L68.448,105.264 Z M71.688,92.088 C71.544,92.856 71.424,93.6 71.28,94.296 L75.312,94.296 C75.264,98.76 75.048,101.28 74.664,101.856 C74.328,102.36 73.608,102.624 72.48,102.624 L71.712,102.624 L71.256,101.064 C71.712,101.064 72.144,101.088 72.528,101.088 C73.008,101.088 73.32,100.92 73.464,100.608 C73.632,100.272 73.728,98.664 73.776,95.784 L69.456,95.784 C69.984,93.024 70.368,90.6 70.632,88.488 L72.168,88.632 C72.072,89.304 72,89.928 71.928,90.552 L75.552,90.552 L75.552,92.088 L71.688,92.088 Z M69.408,96.768 L70.824,96.864 C70.728,98.856 70.368,100.752 69.72,102.576 L68.328,102.168 C68.952,100.464 69.312,98.664 69.408,96.768 Z M91.68,90.504 L95.736,90.504 L95.736,88.296 L97.488,88.296 L97.488,90.504 L106.512,90.504 L106.512,88.296 L108.264,88.296 L108.264,90.504 L112.32,90.504 L112.32,92.136 L108.264,92.136 L108.264,103.128 L112.776,103.128 L112.776,104.736 L91.248,104.736 L91.248,103.128 L95.736,103.128 L95.736,92.136 L91.68,92.136 L91.68,90.504 Z M97.488,103.128 L106.512,103.128 L106.512,100.392 L97.488,100.392 L97.488,103.128 Z M97.488,98.904 L106.512,98.904 L106.512,96.24 L97.488,96.24 L97.488,98.904 Z M97.488,94.752 L106.512,94.752 L106.512,92.136 L97.488,92.136 L97.488,94.752 Z M98.736,105.312 C96.816,106.68 94.44,107.88 91.608,108.936 L92.688,110.328 C95.568,109.2 97.992,107.904 99.96,106.416 L98.736,105.312 Z M105.072,105.384 L104.208,106.68 C106.68,107.568 109.104,108.792 111.456,110.328 L112.416,108.864 C110.208,107.496 107.76,106.344 105.072,105.384 Z M141.12,92.304 C141.024,95.352 140.616,98.568 139.896,101.976 L138.288,101.496 C138.816,99.312 139.224,96.96 139.464,94.44 L135.888,95.496 L135.888,105.096 L134.16,105.096 L134.16,96.024 L130.584,97.08 L130.584,107.112 C130.584,107.88 130.944,108.288 131.688,108.288 L139.32,108.288 C139.944,108.288 140.376,108.096 140.664,107.76 C140.904,107.4 141.072,106.152 141.168,104.016 L142.8,104.568 C142.656,107.088 142.368,108.624 141.96,109.152 C141.528,109.68 140.736,109.944 139.608,109.944 L131.256,109.944 C129.672,109.944 128.88,109.08 128.88,107.352 L128.88,97.584 L126.576,98.256 L126.576,96.576 L128.88,95.904 L128.88,90.6 L130.584,90.6 L130.584,95.4 L134.16,94.344 L134.16,88.368 L135.888,88.368 L135.888,93.84 L141.12,92.304 Z M126.144,88.248 L127.68,88.968 C127.104,90.744 126.408,92.448 125.568,94.032 L125.568,110.448 L123.864,110.448 L123.864,96.84 C123.096,97.968 122.256,99.024 121.344,100.032 L120.792,98.28 C123.24,95.352 125.04,92.016 126.144,88.248 Z M161.376,88.464 L162.624,88.464 C165.672,91.824 169.176,94.464 173.136,96.384 L172.2,98.04 C168.216,96 164.832,93.312 162,90 C159.408,93.12 155.976,95.808 151.704,98.064 L150.792,96.408 C155.016,94.296 158.544,91.632 161.376,88.464 Z M161.808,94.8 L163.56,94.8 L163.56,100.2 L170.112,100.2 L170.112,101.856 L163.56,101.856 L163.56,107.76 L171.84,107.76 L171.84,109.44 L151.872,109.44 L151.872,107.76 L155.496,107.76 L155.496,98.256 L157.2,98.256 L157.2,107.76 L161.808,107.76 L161.808,94.8 Z M189,88.392 L189,92.04 L186.888,92.04 C186.408,90.792 185.904,89.712 185.352,88.8 L183.744,89.4 C184.32,90.216 184.824,91.104 185.232,92.04 L181.536,92.04 L181.536,93.552 L202.464,93.552 L202.464,92.04 L198.648,92.04 C199.2,91.296 199.752,90.408 200.304,89.376 L198.72,88.776 C198.24,89.928 197.64,91.008 196.92,92.04 L194.88,92.04 L194.88,88.392 L193.2,88.392 L193.2,92.04 L190.68,92.04 L190.68,88.392 L189,88.392 Z M182.592,96.192 L187.824,96.192 C187.464,95.496 187.056,94.848 186.576,94.248 L188.184,93.648 C188.712,94.368 189.192,95.208 189.624,96.192 L194.232,96.192 C194.808,95.424 195.336,94.584 195.768,93.696 L197.424,94.272 C197.016,94.992 196.584,95.616 196.128,96.192 L201.408,96.192 L201.408,97.704 L192.888,97.704 L192.888,99.48 L200.232,99.48 L200.232,100.92 L192.888,100.92 L192.888,102.72 L202.44,102.72 L202.44,104.256 L192.888,104.256 L192.888,110.472 L191.136,110.472 L191.136,104.256 L181.56,104.256 L181.56,102.72 L191.136,102.72 L191.136,100.92 L183.768,100.92 L183.768,99.48 L191.136,99.48 L191.136,97.704 L182.592,97.704 L182.592,96.192 Z M196.752,105.12 C198.816,106.368 200.544,107.592 201.936,108.84 L200.688,110.064 C199.464,108.864 197.784,107.568 195.624,106.2 L196.752,105.12 Z M187.392,105.072 L188.544,106.104 C187.056,107.592 185.232,108.912 183.048,110.064 L181.968,108.672 C184.104,107.664 185.904,106.464 187.392,105.072 Z M230.232,100.8 L230.232,110.376 L228.576,110.376 L228.576,109.008 L220.872,109.008 L220.872,110.376 L219.192,110.376 L219.192,100.8 L230.232,100.8 Z M220.872,107.4 L228.576,107.4 L228.576,102.384 L220.872,102.384 L220.872,107.4 Z M223.896,88.584 L225.456,88.584 C227.184,91.56 229.728,94.032 233.088,95.976 L232.104,97.44 C229.008,95.616 226.536,93.192 224.664,90.192 C222.648,93.216 220.272,95.64 217.488,97.488 L216.504,96.048 C219.528,94.128 221.976,91.632 223.896,88.584 Z M220.128,96.072 L229.176,96.072 L229.176,97.68 L220.128,97.68 L220.128,96.072 Z M212.976,88.8 C214.608,89.928 216,91.056 217.104,92.184 L215.904,93.384 C214.896,92.328 213.504,91.176 211.776,89.976 L212.976,88.8 Z M212.4,94.512 L211.176,95.688 C212.88,96.936 214.224,98.112 215.208,99.24 L216.408,98.04 C215.328,96.864 213.984,95.688 212.4,94.512 Z M215.016,100.92 C214.008,103.848 212.832,106.68 211.488,109.464 L213.096,110.184 C214.368,107.472 215.52,104.592 216.552,101.52 L215.016,100.92 Z M252.216,88.128 L250.344,88.44 C250.632,89.016 250.92,89.664 251.16,90.336 L241.536,90.336 L241.536,91.968 L262.464,91.968 L262.464,90.336 L252.984,90.336 C252.744,89.52 252.48,88.776 252.216,88.128 Z M247.92,92.04 C248.448,92.952 248.952,94.056 249.384,95.328 L254.28,95.328 C254.976,94.32 255.576,93.24 256.08,92.112 L257.736,92.664 C257.256,93.672 256.704,94.56 256.128,95.328 L261.48,95.328 L261.48,108.144 C261.48,109.56 260.76,110.28 259.368,110.28 L256.896,110.28 L256.464,108.696 L258.84,108.768 C259.464,108.768 259.8,108.432 259.8,107.76 L259.8,96.864 L255.456,96.864 L255.456,98.832 C255.456,99.36 255.696,99.648 256.224,99.648 L259.032,99.648 L259.032,101.064 L255.504,101.064 C254.4,101.064 253.872,100.56 253.872,99.552 L253.872,96.864 L250.152,96.864 C249.96,98.328 249.552,99.48 248.88,100.296 C248.112,101.208 246.936,101.952 245.328,102.504 L244.56,101.136 C245.904,100.704 246.888,100.104 247.512,99.384 C248.016,98.76 248.352,97.92 248.544,96.864 L244.152,96.864 L244.152,110.232 L242.472,110.232 L242.472,95.328 L247.656,95.328 C247.296,94.368 246.84,93.48 246.312,92.64 L247.92,92.04 Z M247.464,102.192 L256.536,102.192 L256.536,108.264 L247.464,108.264 L247.464,102.192 Z M254.88,106.752 L254.88,103.68 L249.12,103.68 L249.12,106.752 L254.88,106.752 Z"/>
  </g>
</svg>
