<svg xmlns="http://www.w3.org/2000/svg" width="345" height="28" viewBox="0 0 345 28">
  <path fill="#A5B6F3" fill-rule="evenodd" d="M2210.292,1534.352 L2220.264,1534.352 L2220.264,1530.716 L2217.312,1530.716 L2217.312,1514.192 L2221.704,1514.192 L2221.704,1517.936 L2225.556,1517.936 L2225.556,1510.664 L2205,1510.664 L2205,1517.936 L2208.852,1517.936 L2208.852,1514.192 L2213.244,1514.192 L2213.244,1530.716 L2210.292,1530.716 L2210.292,1534.352 Z M2229.66,1511.312 L2229.66,1531.112 L2227.32,1531.112 L2227.32,1534.352 L2235.744,1534.352 L2235.744,1531.112 L2233.584,1531.112 L2233.584,1523.696 C2234.844,1522.652 2236.284,1521.86 2237.652,1521.86 C2238.408,1521.86 2239.02,1522.112 2239.416,1522.616 C2239.74,1523.048 2239.92,1523.66 2239.92,1524.524 L2239.92,1531.112 L2237.76,1531.112 L2237.76,1534.352 L2246.184,1534.352 L2246.184,1531.112 L2243.844,1531.112 L2243.844,1523.552 C2243.844,1522.112 2243.484,1520.888 2242.8,1519.988 C2241.972,1518.908 2240.64,1518.296 2238.948,1518.296 C2236.716,1518.296 2235.06,1519.556 2233.584,1520.96 L2233.584,1508 L2227.32,1508 L2227.32,1511.312 L2229.66,1511.312 Z M2263.464,1527.8 L2252.088,1527.8 C2252.628,1530.248 2254.644,1531.328 2257.272,1531.328 C2259.18,1531.328 2261.16,1530.716 2262.996,1529.672 L2262.672,1533.2 C2261.016,1534.172 2259,1534.64 2256.696,1534.64 C2251.548,1534.64 2247.984,1531.4 2247.984,1526.504 C2247.984,1522.04 2251.116,1518.296 2255.976,1518.296 C2261.016,1518.296 2263.644,1521.68 2263.644,1525.856 C2263.644,1526.468 2263.572,1527.26 2263.464,1527.8 Z M2255.94,1521.464 C2254.212,1521.464 2252.484,1522.472 2252.052,1525.064 L2259.72,1525.064 C2259.648,1522.904 2258.244,1521.464 2255.94,1521.464 Z M2282.58,1534.784 C2287.44,1534.784 2290.932,1532.228 2290.932,1527.728 C2290.932,1523.336 2287.728,1521.86 2283.48,1520.348 C2281.104,1519.484 2279.124,1518.62 2279.124,1516.676 C2279.124,1514.948 2280.492,1513.76 2282.832,1513.76 C2284.308,1513.76 2285.316,1514.084 2285.964,1514.48 C2285.82,1514.768 2285.712,1515.02 2285.712,1515.596 C2285.712,1516.784 2286.648,1518.008 2288.304,1518.008 C2289.672,1518.008 2290.716,1517.036 2290.716,1515.344 C2290.716,1512.5 2287.296,1510.232 2282.868,1510.232 C2278.08,1510.232 2275.02,1513.184 2275.02,1516.964 C2275.02,1521.356 2278.116,1522.76 2282.508,1524.344 C2284.884,1525.172 2286.864,1526.108 2286.864,1528.052 C2286.864,1530.104 2285.208,1531.256 2282.616,1531.256 C2281.068,1531.256 2279.736,1530.86 2278.872,1530.248 C2279.088,1529.816 2279.196,1529.384 2279.196,1528.808 C2279.196,1527.656 2278.188,1526.468 2276.604,1526.468 C2275.128,1526.468 2274.12,1527.584 2274.12,1529.276 C2274.12,1532.156 2277.9,1534.784 2282.58,1534.784 Z M2303.604,1534.64 C2301.588,1534.64 2300.148,1533.92 2298.816,1532.84 L2297.952,1534.424 L2295.288,1534.424 L2295.288,1511.312 L2292.912,1511.312 L2292.912,1508 L2299.212,1508 L2299.212,1520.312 C2300.364,1519.196 2301.84,1518.296 2303.856,1518.296 C2308.032,1518.296 2311.164,1521.644 2311.164,1526.396 C2311.164,1530.968 2307.852,1534.64 2303.604,1534.64 Z M2302.956,1531.256 C2305.152,1531.256 2307.132,1529.564 2307.132,1526.432 C2307.132,1523.408 2305.26,1521.68 2302.956,1521.68 C2301.48,1521.68 2300.292,1522.328 2299.212,1523.264 L2299.212,1530.032 C2300.256,1530.752 2301.48,1531.256 2302.956,1531.256 Z M2322,1534.64 C2316.78,1534.64 2313.612,1530.86 2313.612,1526.468 C2313.612,1522.148 2316.852,1518.296 2322,1518.296 C2327.22,1518.296 2330.388,1522.076 2330.388,1526.468 C2330.388,1530.788 2327.148,1534.64 2322,1534.64 Z M2322,1531.364 C2324.556,1531.364 2326.356,1529.348 2326.356,1526.468 C2326.356,1523.588 2324.556,1521.572 2322,1521.572 C2319.444,1521.572 2317.644,1523.588 2317.644,1526.468 C2317.644,1529.348 2319.444,1531.364 2322,1531.364 Z M2341.224,1534.64 C2336.004,1534.64 2332.836,1530.86 2332.836,1526.468 C2332.836,1522.148 2336.076,1518.296 2341.224,1518.296 C2346.444,1518.296 2349.612,1522.076 2349.612,1526.468 C2349.612,1530.788 2346.372,1534.64 2341.224,1534.64 Z M2341.224,1531.364 C2343.78,1531.364 2345.58,1529.348 2345.58,1526.468 C2345.58,1523.588 2343.78,1521.572 2341.224,1521.572 C2338.668,1521.572 2336.868,1523.588 2336.868,1526.468 C2336.868,1529.348 2338.668,1531.364 2341.224,1531.364 Z M2358.072,1518.584 L2351.952,1518.584 L2351.952,1521.896 L2354.292,1521.896 L2354.292,1531.112 L2351.952,1531.112 L2351.952,1534.352 L2360.376,1534.352 L2360.376,1531.112 L2358.216,1531.112 L2358.216,1523.696 C2359.476,1522.652 2360.916,1521.86 2362.284,1521.86 C2363.22,1521.86 2363.868,1522.22 2364.228,1522.904 C2364.444,1523.3 2364.552,1523.876 2364.552,1524.524 L2364.552,1531.112 L2362.392,1531.112 L2362.392,1534.352 L2370.816,1534.352 L2370.816,1531.112 L2368.476,1531.112 L2368.476,1523.552 C2368.476,1522.256 2368.188,1521.176 2367.648,1520.312 C2366.82,1519.052 2365.452,1518.296 2363.58,1518.296 C2361.276,1518.296 2359.584,1519.628 2358.072,1521.104 L2358.072,1518.584 Z M2379.78,1534.352 L2379.78,1530.716 L2381.832,1530.716 L2387.736,1514.264 L2385.144,1514.264 L2385.144,1510.664 L2398.536,1510.664 L2398.536,1514.264 L2395.944,1514.264 L2401.848,1530.716 L2403.9,1530.716 L2403.9,1534.352 L2394.792,1534.352 L2394.792,1530.752 L2397.528,1530.752 L2396.196,1526.864 L2387.34,1526.864 L2386.008,1530.752 L2388.888,1530.752 L2388.888,1534.352 L2379.78,1534.352 Z M2388.456,1523.48 L2395.08,1523.48 L2391.768,1514.156 L2388.456,1523.48 Z M2412.9,1534.64 C2408.724,1534.64 2405.592,1531.292 2405.592,1526.54 C2405.592,1521.968 2408.904,1518.296 2413.152,1518.296 C2415.168,1518.296 2416.644,1519.052 2417.544,1519.808 L2417.544,1511.312 L2415.168,1511.312 L2415.168,1508 L2421.468,1508 L2421.468,1531.112 L2423.808,1531.112 L2423.808,1534.352 L2417.544,1534.352 L2417.544,1532.624 C2416.392,1533.74 2414.916,1534.64 2412.9,1534.64 Z M2413.8,1531.256 C2415.276,1531.256 2416.464,1530.608 2417.544,1529.672 L2417.544,1522.904 C2416.5,1522.184 2415.276,1521.68 2413.8,1521.68 C2411.604,1521.68 2409.624,1523.372 2409.624,1526.504 C2409.624,1529.528 2411.496,1531.256 2413.8,1531.256 Z M2432.844,1534.64 L2435.652,1534.64 L2441.916,1521.896 L2443.752,1521.896 L2443.752,1518.584 L2435.724,1518.584 L2435.724,1521.716 L2438.1,1521.716 L2434.32,1529.924 L2430.54,1521.716 L2432.808,1521.716 L2432.808,1518.584 L2424.744,1518.584 L2424.744,1521.896 L2426.58,1521.896 L2432.844,1534.64 Z M2450.304,1534.64 C2447.604,1534.64 2445.192,1533.164 2445.192,1530.212 C2445.192,1527.26 2447.784,1525.46 2451.528,1525.46 C2453.148,1525.46 2454.66,1525.676 2455.524,1525.892 L2455.524,1524.632 C2455.524,1523.696 2455.308,1522.976 2454.912,1522.472 C2454.264,1521.644 2453.22,1521.32 2451.816,1521.32 C2451.132,1521.32 2450.628,1521.428 2450.268,1521.572 C2450.34,1521.788 2450.412,1522.148 2450.412,1522.364 C2450.412,1523.552 2449.476,1524.416 2448.288,1524.416 C2447.1,1524.416 2446.2,1523.588 2446.2,1522.292 C2446.2,1520.348 2448.18,1518.296 2452.464,1518.296 C2455.164,1518.296 2457,1519.052 2458.116,1520.42 C2458.944,1521.428 2459.34,1522.796 2459.34,1524.38 L2459.34,1531.112 L2461.68,1531.112 L2461.68,1534.352 L2455.596,1534.352 L2455.596,1532.624 C2454.336,1533.704 2452.428,1534.64 2450.304,1534.64 Z M2451.564,1531.796 C2452.968,1531.796 2454.336,1531.256 2455.524,1530.392 L2455.524,1527.908 C2454.624,1527.692 2453.508,1527.548 2452.284,1527.548 C2450.376,1527.548 2449.224,1528.412 2449.224,1529.852 C2449.224,1531.112 2450.16,1531.796 2451.564,1531.796 Z M2469.492,1518.584 L2463.372,1518.584 L2463.372,1521.896 L2465.712,1521.896 L2465.712,1531.112 L2463.372,1531.112 L2463.372,1534.352 L2471.796,1534.352 L2471.796,1531.112 L2469.636,1531.112 L2469.636,1523.696 C2470.896,1522.652 2472.336,1521.86 2473.704,1521.86 C2474.64,1521.86 2475.288,1522.22 2475.648,1522.904 C2475.864,1523.3 2475.972,1523.876 2475.972,1524.524 L2475.972,1531.112 L2473.812,1531.112 L2473.812,1534.352 L2482.236,1534.352 L2482.236,1531.112 L2479.896,1531.112 L2479.896,1523.552 C2479.896,1522.256 2479.608,1521.176 2479.068,1520.312 C2478.24,1519.052 2476.872,1518.296 2475,1518.296 C2472.696,1518.296 2471.004,1519.628 2469.492,1521.104 L2469.492,1518.584 Z M2490.984,1534.64 C2492.424,1534.64 2493.684,1534.244 2494.764,1533.704 L2495.088,1530.32 C2494.152,1530.752 2493,1531.148 2491.992,1531.148 C2491.2,1531.148 2490.624,1530.896 2490.336,1530.392 C2490.156,1530.068 2490.084,1529.744 2490.084,1529.24 L2490.084,1521.896 L2494.872,1521.896 L2494.872,1518.584 L2490.084,1518.584 L2490.084,1513.58 L2486.196,1515.272 L2486.196,1518.584 L2483.136,1518.584 L2483.136,1521.896 L2486.196,1521.896 L2486.196,1529.996 C2486.196,1531.004 2486.376,1531.832 2486.736,1532.48 C2487.528,1533.992 2489.076,1534.64 2490.984,1534.64 Z M2503.908,1534.64 C2506.212,1534.64 2507.904,1533.308 2509.416,1531.832 L2509.416,1534.352 L2515.536,1534.352 L2515.536,1531.112 L2513.196,1531.112 L2513.196,1518.584 L2506.824,1518.584 L2506.824,1521.896 L2509.272,1521.896 L2509.272,1529.24 C2508.012,1530.284 2506.572,1531.076 2505.204,1531.076 C2504.268,1531.076 2503.62,1530.716 2503.26,1530.032 C2503.044,1529.6 2502.936,1529.096 2502.936,1528.412 L2502.936,1518.584 L2496.672,1518.584 L2496.672,1521.896 L2499.012,1521.896 L2499.012,1529.384 C2499.012,1530.644 2499.3,1531.724 2499.804,1532.552 C2500.596,1533.848 2502,1534.64 2503.908,1534.64 Z M2528.712,1518.296 C2526.696,1518.296 2525.04,1520.024 2523.708,1522.148 L2523.708,1518.584 L2517.588,1518.584 L2517.588,1521.896 L2519.928,1521.896 L2519.928,1531.112 L2517.588,1531.112 L2517.588,1534.352 L2526.588,1534.352 L2526.588,1531.112 L2523.852,1531.112 L2523.852,1524.92 C2524.572,1523.552 2525.868,1522.328 2526.984,1521.932 C2527.308,1522.652 2528.1,1523.336 2529.288,1523.336 C2530.584,1523.336 2531.628,1522.22 2531.628,1520.888 C2531.628,1519.484 2530.656,1518.296 2528.712,1518.296 Z M2548.836,1527.8 L2537.46,1527.8 C2538,1530.248 2540.016,1531.328 2542.644,1531.328 C2544.552,1531.328 2546.532,1530.716 2548.368,1529.672 L2548.044,1533.2 C2546.388,1534.172 2544.372,1534.64 2542.068,1534.64 C2536.92,1534.64 2533.356,1531.4 2533.356,1526.504 C2533.356,1522.04 2536.488,1518.296 2541.348,1518.296 C2546.388,1518.296 2549.016,1521.68 2549.016,1525.856 C2549.016,1526.468 2548.944,1527.26 2548.836,1527.8 Z M2541.312,1521.464 C2539.584,1521.464 2537.856,1522.472 2537.424,1525.064 L2545.092,1525.064 C2545.02,1522.904 2543.616,1521.464 2541.312,1521.464 Z" transform="translate(-2204 -1507)"/>
</svg>
