<svg xmlns="http://www.w3.org/2000/svg" width="345" height="28" viewBox="0 0 345 28">
  <path fill="#A5B6F3" fill-rule="evenodd" d="M2734.12,1729 L2744.092,1729 L2744.092,1725.364 L2741.14,1725.364 L2741.14,1708.84 L2745.532,1708.84 L2745.532,1712.584 L2749.384,1712.584 L2749.384,1705.312 L2728.828,1705.312 L2728.828,1712.584 L2732.68,1712.584 L2732.68,1708.84 L2737.072,1708.84 L2737.072,1725.364 L2734.12,1725.364 L2734.12,1729 Z M2753.488,1705.96 L2753.488,1725.76 L2751.148,1725.76 L2751.148,1729 L2759.572,1729 L2759.572,1725.76 L2757.412,1725.76 L2757.412,1718.344 C2758.672,1717.3 2760.112,1716.508 2761.48,1716.508 C2762.236,1716.508 2762.848,1716.76 2763.244,1717.264 C2763.568,1717.696 2763.748,1718.308 2763.748,1719.172 L2763.748,1725.76 L2761.588,1725.76 L2761.588,1729 L2770.012,1729 L2770.012,1725.76 L2767.672,1725.76 L2767.672,1718.2 C2767.672,1716.76 2767.312,1715.536 2766.628,1714.636 C2765.8,1713.556 2764.468,1712.944 2762.776,1712.944 C2760.544,1712.944 2758.888,1714.204 2757.412,1715.608 L2757.412,1702.648 L2751.148,1702.648 L2751.148,1705.96 L2753.488,1705.96 Z M2787.292,1722.448 L2775.916,1722.448 C2776.456,1724.896 2778.472,1725.976 2781.1,1725.976 C2783.008,1725.976 2784.988,1725.364 2786.824,1724.32 L2786.5,1727.848 C2784.844,1728.82 2782.828,1729.288 2780.524,1729.288 C2775.376,1729.288 2771.812,1726.048 2771.812,1721.152 C2771.812,1716.688 2774.944,1712.944 2779.804,1712.944 C2784.844,1712.944 2787.472,1716.328 2787.472,1720.504 C2787.472,1721.116 2787.4,1721.908 2787.292,1722.448 Z M2779.768,1716.112 C2778.04,1716.112 2776.312,1717.12 2775.88,1719.712 L2783.548,1719.712 C2783.476,1717.552 2782.072,1716.112 2779.768,1716.112 Z M2806.408,1729.432 C2811.268,1729.432 2814.76,1726.876 2814.76,1722.376 C2814.76,1717.984 2811.556,1716.508 2807.308,1714.996 C2804.932,1714.132 2802.952,1713.268 2802.952,1711.324 C2802.952,1709.596 2804.32,1708.408 2806.66,1708.408 C2808.136,1708.408 2809.144,1708.732 2809.792,1709.128 C2809.648,1709.416 2809.54,1709.668 2809.54,1710.244 C2809.54,1711.432 2810.476,1712.656 2812.132,1712.656 C2813.5,1712.656 2814.544,1711.684 2814.544,1709.992 C2814.544,1707.148 2811.124,1704.88 2806.696,1704.88 C2801.908,1704.88 2798.848,1707.832 2798.848,1711.612 C2798.848,1716.004 2801.944,1717.408 2806.336,1718.992 C2808.712,1719.82 2810.692,1720.756 2810.692,1722.7 C2810.692,1724.752 2809.036,1725.904 2806.444,1725.904 C2804.896,1725.904 2803.564,1725.508 2802.7,1724.896 C2802.916,1724.464 2803.024,1724.032 2803.024,1723.456 C2803.024,1722.304 2802.016,1721.116 2800.432,1721.116 C2798.956,1721.116 2797.948,1722.232 2797.948,1723.924 C2797.948,1726.804 2801.728,1729.432 2806.408,1729.432 Z M2827.432,1729.288 C2825.416,1729.288 2823.976,1728.568 2822.644,1727.488 L2821.78,1729.072 L2819.116,1729.072 L2819.116,1705.96 L2816.74,1705.96 L2816.74,1702.648 L2823.04,1702.648 L2823.04,1714.96 C2824.192,1713.844 2825.668,1712.944 2827.684,1712.944 C2831.86,1712.944 2834.992,1716.292 2834.992,1721.044 C2834.992,1725.616 2831.68,1729.288 2827.432,1729.288 Z M2826.784,1725.904 C2828.98,1725.904 2830.96,1724.212 2830.96,1721.08 C2830.96,1718.056 2829.088,1716.328 2826.784,1716.328 C2825.308,1716.328 2824.12,1716.976 2823.04,1717.912 L2823.04,1724.68 C2824.084,1725.4 2825.308,1725.904 2826.784,1725.904 Z M2845.828,1729.288 C2840.608,1729.288 2837.44,1725.508 2837.44,1721.116 C2837.44,1716.796 2840.68,1712.944 2845.828,1712.944 C2851.048,1712.944 2854.216,1716.724 2854.216,1721.116 C2854.216,1725.436 2850.976,1729.288 2845.828,1729.288 Z M2845.828,1726.012 C2848.384,1726.012 2850.184,1723.996 2850.184,1721.116 C2850.184,1718.236 2848.384,1716.22 2845.828,1716.22 C2843.272,1716.22 2841.472,1718.236 2841.472,1721.116 C2841.472,1723.996 2843.272,1726.012 2845.828,1726.012 Z M2865.052,1729.288 C2859.832,1729.288 2856.664,1725.508 2856.664,1721.116 C2856.664,1716.796 2859.904,1712.944 2865.052,1712.944 C2870.272,1712.944 2873.44,1716.724 2873.44,1721.116 C2873.44,1725.436 2870.2,1729.288 2865.052,1729.288 Z M2865.052,1726.012 C2867.608,1726.012 2869.408,1723.996 2869.408,1721.116 C2869.408,1718.236 2867.608,1716.22 2865.052,1716.22 C2862.496,1716.22 2860.696,1718.236 2860.696,1721.116 C2860.696,1723.996 2862.496,1726.012 2865.052,1726.012 Z M2881.9,1713.232 L2875.78,1713.232 L2875.78,1716.544 L2878.12,1716.544 L2878.12,1725.76 L2875.78,1725.76 L2875.78,1729 L2884.204,1729 L2884.204,1725.76 L2882.044,1725.76 L2882.044,1718.344 C2883.304,1717.3 2884.744,1716.508 2886.112,1716.508 C2887.048,1716.508 2887.696,1716.868 2888.056,1717.552 C2888.272,1717.948 2888.38,1718.524 2888.38,1719.172 L2888.38,1725.76 L2886.22,1725.76 L2886.22,1729 L2894.644,1729 L2894.644,1725.76 L2892.304,1725.76 L2892.304,1718.2 C2892.304,1716.904 2892.016,1715.824 2891.476,1714.96 C2890.648,1713.7 2889.28,1712.944 2887.408,1712.944 C2885.104,1712.944 2883.412,1714.276 2881.9,1715.752 L2881.9,1713.232 Z M2903.608,1729 L2903.608,1725.364 L2905.66,1725.364 L2911.564,1708.912 L2908.972,1708.912 L2908.972,1705.312 L2922.364,1705.312 L2922.364,1708.912 L2919.772,1708.912 L2925.676,1725.364 L2927.728,1725.364 L2927.728,1729 L2918.62,1729 L2918.62,1725.4 L2921.356,1725.4 L2920.024,1721.512 L2911.168,1721.512 L2909.836,1725.4 L2912.716,1725.4 L2912.716,1729 L2903.608,1729 Z M2912.284,1718.128 L2918.908,1718.128 L2915.596,1708.804 L2912.284,1718.128 Z M2936.728,1729.288 C2932.552,1729.288 2929.42,1725.94 2929.42,1721.188 C2929.42,1716.616 2932.732,1712.944 2936.98,1712.944 C2938.996,1712.944 2940.472,1713.7 2941.372,1714.456 L2941.372,1705.96 L2938.996,1705.96 L2938.996,1702.648 L2945.296,1702.648 L2945.296,1725.76 L2947.636,1725.76 L2947.636,1729 L2941.372,1729 L2941.372,1727.272 C2940.22,1728.388 2938.744,1729.288 2936.728,1729.288 Z M2937.628,1725.904 C2939.104,1725.904 2940.292,1725.256 2941.372,1724.32 L2941.372,1717.552 C2940.328,1716.832 2939.104,1716.328 2937.628,1716.328 C2935.432,1716.328 2933.452,1718.02 2933.452,1721.152 C2933.452,1724.176 2935.324,1725.904 2937.628,1725.904 Z M2956.672,1729.288 L2959.48,1729.288 L2965.744,1716.544 L2967.58,1716.544 L2967.58,1713.232 L2959.552,1713.232 L2959.552,1716.364 L2961.928,1716.364 L2958.148,1724.572 L2954.368,1716.364 L2956.636,1716.364 L2956.636,1713.232 L2948.572,1713.232 L2948.572,1716.544 L2950.408,1716.544 L2956.672,1729.288 Z M2974.132,1729.288 C2971.432,1729.288 2969.02,1727.812 2969.02,1724.86 C2969.02,1721.908 2971.612,1720.108 2975.356,1720.108 C2976.976,1720.108 2978.488,1720.324 2979.352,1720.54 L2979.352,1719.28 C2979.352,1718.344 2979.136,1717.624 2978.74,1717.12 C2978.092,1716.292 2977.048,1715.968 2975.644,1715.968 C2974.96,1715.968 2974.456,1716.076 2974.096,1716.22 C2974.168,1716.436 2974.24,1716.796 2974.24,1717.012 C2974.24,1718.2 2973.304,1719.064 2972.116,1719.064 C2970.928,1719.064 2970.028,1718.236 2970.028,1716.94 C2970.028,1714.996 2972.008,1712.944 2976.292,1712.944 C2978.992,1712.944 2980.828,1713.7 2981.944,1715.068 C2982.772,1716.076 2983.168,1717.444 2983.168,1719.028 L2983.168,1725.76 L2985.508,1725.76 L2985.508,1729 L2979.424,1729 L2979.424,1727.272 C2978.164,1728.352 2976.256,1729.288 2974.132,1729.288 Z M2975.392,1726.444 C2976.796,1726.444 2978.164,1725.904 2979.352,1725.04 L2979.352,1722.556 C2978.452,1722.34 2977.336,1722.196 2976.112,1722.196 C2974.204,1722.196 2973.052,1723.06 2973.052,1724.5 C2973.052,1725.76 2973.988,1726.444 2975.392,1726.444 Z M2993.32,1713.232 L2987.2,1713.232 L2987.2,1716.544 L2989.54,1716.544 L2989.54,1725.76 L2987.2,1725.76 L2987.2,1729 L2995.624,1729 L2995.624,1725.76 L2993.464,1725.76 L2993.464,1718.344 C2994.724,1717.3 2996.164,1716.508 2997.532,1716.508 C2998.468,1716.508 2999.116,1716.868 2999.476,1717.552 C2999.692,1717.948 2999.8,1718.524 2999.8,1719.172 L2999.8,1725.76 L2997.64,1725.76 L2997.64,1729 L3006.064,1729 L3006.064,1725.76 L3003.724,1725.76 L3003.724,1718.2 C3003.724,1716.904 3003.436,1715.824 3002.896,1714.96 C3002.068,1713.7 3000.7,1712.944 2998.828,1712.944 C2996.524,1712.944 2994.832,1714.276 2993.32,1715.752 L2993.32,1713.232 Z M3014.812,1729.288 C3016.252,1729.288 3017.512,1728.892 3018.592,1728.352 L3018.916,1724.968 C3017.98,1725.4 3016.828,1725.796 3015.82,1725.796 C3015.028,1725.796 3014.452,1725.544 3014.164,1725.04 C3013.984,1724.716 3013.912,1724.392 3013.912,1723.888 L3013.912,1716.544 L3018.7,1716.544 L3018.7,1713.232 L3013.912,1713.232 L3013.912,1708.228 L3010.024,1709.92 L3010.024,1713.232 L3006.964,1713.232 L3006.964,1716.544 L3010.024,1716.544 L3010.024,1724.644 C3010.024,1725.652 3010.204,1726.48 3010.564,1727.128 C3011.356,1728.64 3012.904,1729.288 3014.812,1729.288 Z M3027.736,1729.288 C3030.04,1729.288 3031.732,1727.956 3033.244,1726.48 L3033.244,1729 L3039.364,1729 L3039.364,1725.76 L3037.024,1725.76 L3037.024,1713.232 L3030.652,1713.232 L3030.652,1716.544 L3033.1,1716.544 L3033.1,1723.888 C3031.84,1724.932 3030.4,1725.724 3029.032,1725.724 C3028.096,1725.724 3027.448,1725.364 3027.088,1724.68 C3026.872,1724.248 3026.764,1723.744 3026.764,1723.06 L3026.764,1713.232 L3020.5,1713.232 L3020.5,1716.544 L3022.84,1716.544 L3022.84,1724.032 C3022.84,1725.292 3023.128,1726.372 3023.632,1727.2 C3024.424,1728.496 3025.828,1729.288 3027.736,1729.288 Z M3052.54,1712.944 C3050.524,1712.944 3048.868,1714.672 3047.536,1716.796 L3047.536,1713.232 L3041.416,1713.232 L3041.416,1716.544 L3043.756,1716.544 L3043.756,1725.76 L3041.416,1725.76 L3041.416,1729 L3050.416,1729 L3050.416,1725.76 L3047.68,1725.76 L3047.68,1719.568 C3048.4,1718.2 3049.696,1716.976 3050.812,1716.58 C3051.136,1717.3 3051.928,1717.984 3053.116,1717.984 C3054.412,1717.984 3055.456,1716.868 3055.456,1715.536 C3055.456,1714.132 3054.484,1712.944 3052.54,1712.944 Z M3072.664,1722.448 L3061.288,1722.448 C3061.828,1724.896 3063.844,1725.976 3066.472,1725.976 C3068.38,1725.976 3070.36,1725.364 3072.196,1724.32 L3071.872,1727.848 C3070.216,1728.82 3068.2,1729.288 3065.896,1729.288 C3060.748,1729.288 3057.184,1726.048 3057.184,1721.152 C3057.184,1716.688 3060.316,1712.944 3065.176,1712.944 C3070.216,1712.944 3072.844,1716.328 3072.844,1720.504 C3072.844,1721.116 3072.772,1721.908 3072.664,1722.448 Z M3065.14,1716.112 C3063.412,1716.112 3061.684,1717.12 3061.252,1719.712 L3068.92,1719.712 C3068.848,1717.552 3067.444,1716.112 3065.14,1716.112 Z" transform="translate(-2728 -1702)"/>
</svg>
