<svg xmlns="http://www.w3.org/2000/svg" width="156" height="28" viewBox="0 0 156 28">
  <path fill="#A5B6F3" fill-rule="evenodd" d="M2734.12,1802 L2744.092,1802 L2744.092,1798.364 L2741.14,1798.364 L2741.14,1781.84 L2745.532,1781.84 L2745.532,1785.584 L2749.384,1785.584 L2749.384,1778.312 L2728.828,1778.312 L2728.828,1785.584 L2732.68,1785.584 L2732.68,1781.84 L2737.072,1781.84 L2737.072,1798.364 L2734.12,1798.364 L2734.12,1802 Z M2753.488,1778.96 L2753.488,1798.76 L2751.148,1798.76 L2751.148,1802 L2759.572,1802 L2759.572,1798.76 L2757.412,1798.76 L2757.412,1791.344 C2758.672,1790.3 2760.112,1789.508 2761.48,1789.508 C2762.236,1789.508 2762.848,1789.76 2763.244,1790.264 C2763.568,1790.696 2763.748,1791.308 2763.748,1792.172 L2763.748,1798.76 L2761.588,1798.76 L2761.588,1802 L2770.012,1802 L2770.012,1798.76 L2767.672,1798.76 L2767.672,1791.2 C2767.672,1789.76 2767.312,1788.536 2766.628,1787.636 C2765.8,1786.556 2764.468,1785.944 2762.776,1785.944 C2760.544,1785.944 2758.888,1787.204 2757.412,1788.608 L2757.412,1775.648 L2751.148,1775.648 L2751.148,1778.96 L2753.488,1778.96 Z M2787.292,1795.448 L2775.916,1795.448 C2776.456,1797.896 2778.472,1798.976 2781.1,1798.976 C2783.008,1798.976 2784.988,1798.364 2786.824,1797.32 L2786.5,1800.848 C2784.844,1801.82 2782.828,1802.288 2780.524,1802.288 C2775.376,1802.288 2771.812,1799.048 2771.812,1794.152 C2771.812,1789.688 2774.944,1785.944 2779.804,1785.944 C2784.844,1785.944 2787.472,1789.328 2787.472,1793.504 C2787.472,1794.116 2787.4,1794.908 2787.292,1795.448 Z M2779.768,1789.112 C2778.04,1789.112 2776.312,1790.12 2775.88,1792.712 L2783.548,1792.712 C2783.476,1790.552 2782.072,1789.112 2779.768,1789.112 Z M2797.84,1802 L2797.84,1798.364 L2800.54,1798.364 L2800.54,1781.948 L2797.84,1781.948 L2797.84,1778.312 L2807.02,1778.312 C2812.456,1778.312 2816.344,1780.652 2816.344,1785.476 C2816.344,1788.536 2814.472,1790.876 2811.88,1791.92 L2815.516,1798.364 L2818.216,1798.364 L2818.216,1802 L2812.744,1802 L2807.992,1793 C2807.488,1793.036 2807.02,1793.072 2806.552,1793.072 C2805.796,1793.072 2805.112,1793.072 2804.608,1793.036 L2804.608,1798.364 L2807.56,1798.364 L2807.56,1802 L2797.84,1802 Z M2806.912,1789.616 C2809.972,1789.616 2812.132,1788.104 2812.132,1785.62 C2812.132,1783.136 2810.08,1781.948 2806.804,1781.948 L2804.608,1781.948 L2804.608,1789.544 C2805.04,1789.58 2805.616,1789.616 2806.912,1789.616 Z M2835.532,1795.448 L2824.156,1795.448 C2824.696,1797.896 2826.712,1798.976 2829.34,1798.976 C2831.248,1798.976 2833.228,1798.364 2835.064,1797.32 L2834.74,1800.848 C2833.084,1801.82 2831.068,1802.288 2828.764,1802.288 C2823.616,1802.288 2820.052,1799.048 2820.052,1794.152 C2820.052,1789.688 2823.184,1785.944 2828.044,1785.944 C2833.084,1785.944 2835.712,1789.328 2835.712,1793.504 C2835.712,1794.116 2835.64,1794.908 2835.532,1795.448 Z M2828.008,1789.112 C2826.28,1789.112 2824.552,1790.12 2824.12,1792.712 L2831.788,1792.712 C2831.716,1790.552 2830.312,1789.112 2828.008,1789.112 Z M2851.444,1789.724 C2851.444,1788.968 2851.156,1788.284 2850.58,1787.708 C2849.5,1786.628 2847.196,1785.908 2845.288,1785.908 C2840.86,1785.908 2838.844,1788.464 2838.844,1790.912 C2838.844,1793.612 2840.68,1794.656 2845.036,1795.808 C2847.448,1796.456 2848.132,1796.924 2848.132,1797.716 C2848.132,1798.868 2846.836,1799.408 2845.252,1799.408 C2844.136,1799.408 2843.128,1799.192 2842.408,1798.904 C2842.444,1798.688 2842.48,1798.472 2842.48,1798.256 C2842.48,1796.888 2841.436,1796.168 2840.356,1796.168 C2839.132,1796.168 2838.268,1797.14 2838.268,1798.292 C2838.268,1799.12 2838.52,1799.768 2839.168,1800.416 C2840.212,1801.46 2842.804,1802.324 2845.216,1802.324 C2848.78,1802.324 2851.876,1800.56 2851.876,1797.248 C2851.876,1794.404 2849.68,1793.468 2845.9,1792.46 C2843.488,1791.812 2842.588,1791.344 2842.588,1790.444 C2842.588,1789.616 2843.452,1788.824 2845.216,1788.824 C2846.008,1788.824 2846.8,1788.968 2847.448,1789.22 C2847.376,1789.436 2847.376,1789.652 2847.376,1789.904 C2847.376,1791.092 2848.24,1791.848 2849.5,1791.848 C2850.652,1791.848 2851.444,1790.984 2851.444,1789.724 Z M2870.02,1795.448 L2858.644,1795.448 C2859.184,1797.896 2861.2,1798.976 2863.828,1798.976 C2865.736,1798.976 2867.716,1798.364 2869.552,1797.32 L2869.228,1800.848 C2867.572,1801.82 2865.556,1802.288 2863.252,1802.288 C2858.104,1802.288 2854.54,1799.048 2854.54,1794.152 C2854.54,1789.688 2857.672,1785.944 2862.532,1785.944 C2867.572,1785.944 2870.2,1789.328 2870.2,1793.504 C2870.2,1794.116 2870.128,1794.908 2870.02,1795.448 Z M2862.496,1789.112 C2860.768,1789.112 2859.04,1790.12 2858.608,1792.712 L2866.276,1792.712 C2866.204,1790.552 2864.8,1789.112 2862.496,1789.112 Z M2879.488,1802.288 C2880.928,1802.288 2882.188,1801.892 2883.268,1801.352 L2883.592,1797.968 C2882.656,1798.4 2881.504,1798.796 2880.496,1798.796 C2879.704,1798.796 2879.128,1798.544 2878.84,1798.04 C2878.66,1797.716 2878.588,1797.392 2878.588,1796.888 L2878.588,1789.544 L2883.376,1789.544 L2883.376,1786.232 L2878.588,1786.232 L2878.588,1781.228 L2874.7,1782.92 L2874.7,1786.232 L2871.64,1786.232 L2871.64,1789.544 L2874.7,1789.544 L2874.7,1797.644 C2874.7,1798.652 2874.88,1799.48 2875.24,1800.128 C2876.032,1801.64 2877.58,1802.288 2879.488,1802.288 Z" transform="translate(-2728 -1775)"/>
</svg>
