<svg xmlns="http://www.w3.org/2000/svg" width="345" height="28" viewBox="0 0 345 28">
  <path fill="#A5B6F3" fill-rule="evenodd" d="M2210.292,1675.64 L2220.264,1675.64 L2220.264,1672.004 L2217.312,1672.004 L2217.312,1655.48 L2221.704,1655.48 L2221.704,1659.224 L2225.556,1659.224 L2225.556,1651.952 L2205,1651.952 L2205,1659.224 L2208.852,1659.224 L2208.852,1655.48 L2213.244,1655.48 L2213.244,1672.004 L2210.292,1672.004 L2210.292,1675.64 Z M2229.66,1652.6 L2229.66,1672.4 L2227.32,1672.4 L2227.32,1675.64 L2235.744,1675.64 L2235.744,1672.4 L2233.584,1672.4 L2233.584,1664.984 C2234.844,1663.94 2236.284,1663.148 2237.652,1663.148 C2238.408,1663.148 2239.02,1663.4 2239.416,1663.904 C2239.74,1664.336 2239.92,1664.948 2239.92,1665.812 L2239.92,1672.4 L2237.76,1672.4 L2237.76,1675.64 L2246.184,1675.64 L2246.184,1672.4 L2243.844,1672.4 L2243.844,1664.84 C2243.844,1663.4 2243.484,1662.176 2242.8,1661.276 C2241.972,1660.196 2240.64,1659.584 2238.948,1659.584 C2236.716,1659.584 2235.06,1660.844 2233.584,1662.248 L2233.584,1649.288 L2227.32,1649.288 L2227.32,1652.6 L2229.66,1652.6 Z M2263.464,1669.088 L2252.088,1669.088 C2252.628,1671.536 2254.644,1672.616 2257.272,1672.616 C2259.18,1672.616 2261.16,1672.004 2262.996,1670.96 L2262.672,1674.488 C2261.016,1675.46 2259,1675.928 2256.696,1675.928 C2251.548,1675.928 2247.984,1672.688 2247.984,1667.792 C2247.984,1663.328 2251.116,1659.584 2255.976,1659.584 C2261.016,1659.584 2263.644,1662.968 2263.644,1667.144 C2263.644,1667.756 2263.572,1668.548 2263.464,1669.088 Z M2255.94,1662.752 C2254.212,1662.752 2252.484,1663.76 2252.052,1666.352 L2259.72,1666.352 C2259.648,1664.192 2258.244,1662.752 2255.94,1662.752 Z M2274.012,1675.64 L2291.22,1675.64 L2291.22,1668.692 L2287.296,1668.692 L2287.296,1672.04 L2280.78,1672.04 L2280.78,1655.588 L2283.912,1655.588 L2283.912,1651.952 L2274.012,1651.952 L2274.012,1655.588 L2276.712,1655.588 L2276.712,1672.004 L2274.012,1672.004 L2274.012,1675.64 Z M2297.52,1657.46 C2298.924,1657.46 2300.184,1656.308 2300.184,1654.868 C2300.184,1653.428 2298.996,1652.276 2297.592,1652.276 C2296.188,1652.276 2294.928,1653.428 2294.928,1654.868 C2294.928,1656.308 2296.116,1657.46 2297.52,1657.46 Z M2293.56,1675.64 L2302.236,1675.64 L2302.236,1672.4 L2299.896,1672.4 L2299.896,1659.872 L2293.56,1659.872 L2293.56,1663.184 L2295.972,1663.184 L2295.972,1672.4 L2293.56,1672.4 L2293.56,1675.64 Z M2314.872,1653.896 C2313.648,1653.896 2313.036,1653.248 2312.604,1652.42 C2312.28,1652.564 2311.956,1652.78 2311.776,1653.068 C2311.308,1653.752 2311.056,1654.724 2311.056,1656.236 L2311.056,1659.872 L2315.16,1659.872 L2315.16,1663.184 L2311.056,1663.184 L2311.056,1672.4 L2314.116,1672.4 L2314.116,1675.64 L2304.792,1675.64 L2304.792,1672.4 L2307.168,1672.4 L2307.168,1663.184 L2304.468,1663.184 L2304.468,1659.872 L2307.168,1659.872 L2307.168,1656.812 C2307.168,1653.932 2307.672,1652.132 2309.184,1650.656 C2310.3,1649.576 2311.74,1649 2313.504,1649 C2315.556,1649 2316.996,1650.08 2316.996,1651.664 C2316.996,1653.068 2315.988,1653.896 2314.872,1653.896 Z M2332.404,1669.088 L2321.028,1669.088 C2321.568,1671.536 2323.584,1672.616 2326.212,1672.616 C2328.12,1672.616 2330.1,1672.004 2331.936,1670.96 L2331.612,1674.488 C2329.956,1675.46 2327.94,1675.928 2325.636,1675.928 C2320.488,1675.928 2316.924,1672.688 2316.924,1667.792 C2316.924,1663.328 2320.056,1659.584 2324.916,1659.584 C2329.956,1659.584 2332.584,1662.968 2332.584,1667.144 C2332.584,1667.756 2332.512,1668.548 2332.404,1669.088 Z M2324.88,1662.752 C2323.152,1662.752 2321.424,1663.76 2320.992,1666.352 L2328.66,1666.352 C2328.588,1664.192 2327.184,1662.752 2324.88,1662.752 Z M2342.952,1675.64 L2342.952,1672.004 L2345.652,1672.004 L2345.652,1655.588 L2342.952,1655.588 L2342.952,1651.952 L2352.42,1651.952 C2358.216,1651.952 2361.06,1654.616 2361.06,1658.18 C2361.06,1660.916 2359.368,1662.68 2357.028,1663.472 C2359.98,1664.336 2361.744,1666.064 2361.744,1669.016 C2361.744,1672.94 2358.576,1675.64 2352.816,1675.64 L2342.952,1675.64 Z M2349.684,1672.076 L2352.888,1672.076 C2355.696,1672.076 2357.568,1670.924 2357.568,1668.656 C2357.568,1666.46 2355.84,1665.236 2352.78,1665.236 L2349.684,1665.236 L2349.684,1672.076 Z M2349.684,1661.996 L2352.456,1661.996 C2355.3,1661.996 2356.884,1660.7 2356.884,1658.648 C2356.884,1656.632 2355.228,1655.516 2352.348,1655.516 L2349.684,1655.516 L2349.684,1661.996 Z M2364.012,1675.64 L2372.724,1675.64 L2372.724,1672.4 L2370.384,1672.4 L2370.384,1649.288 L2364.012,1649.288 L2364.012,1652.6 L2366.46,1652.6 L2366.46,1672.4 L2364.012,1672.4 L2364.012,1675.64 Z M2390.4,1669.088 L2379.024,1669.088 C2379.564,1671.536 2381.58,1672.616 2384.208,1672.616 C2386.116,1672.616 2388.096,1672.004 2389.932,1670.96 L2389.608,1674.488 C2387.952,1675.46 2385.936,1675.928 2383.632,1675.928 C2378.484,1675.928 2374.92,1672.688 2374.92,1667.792 C2374.92,1663.328 2378.052,1659.584 2382.912,1659.584 C2387.952,1659.584 2390.58,1662.968 2390.58,1667.144 C2390.58,1667.756 2390.508,1668.548 2390.4,1669.088 Z M2382.876,1662.752 C2381.148,1662.752 2379.42,1663.76 2378.988,1666.352 L2386.656,1666.352 C2386.584,1664.192 2385.18,1662.752 2382.876,1662.752 Z M2398.932,1659.872 L2392.812,1659.872 L2392.812,1663.184 L2395.152,1663.184 L2395.152,1672.4 L2392.812,1672.4 L2392.812,1675.64 L2401.236,1675.64 L2401.236,1672.4 L2399.076,1672.4 L2399.076,1664.984 C2400.336,1663.94 2401.776,1663.148 2403.144,1663.148 C2404.08,1663.148 2404.728,1663.508 2405.088,1664.192 C2405.304,1664.588 2405.412,1665.164 2405.412,1665.812 L2405.412,1672.4 L2403.252,1672.4 L2403.252,1675.64 L2411.676,1675.64 L2411.676,1672.4 L2409.336,1672.4 L2409.336,1664.84 C2409.336,1663.544 2409.048,1662.464 2408.508,1661.6 C2407.68,1660.34 2406.312,1659.584 2404.44,1659.584 C2402.136,1659.584 2400.444,1660.916 2398.932,1662.392 L2398.932,1659.872 Z M2420.784,1675.928 C2416.608,1675.928 2413.476,1672.58 2413.476,1667.828 C2413.476,1663.256 2416.788,1659.584 2421.036,1659.584 C2423.052,1659.584 2424.528,1660.34 2425.428,1661.096 L2425.428,1652.6 L2423.052,1652.6 L2423.052,1649.288 L2429.352,1649.288 L2429.352,1672.4 L2431.692,1672.4 L2431.692,1675.64 L2425.428,1675.64 L2425.428,1673.912 C2424.276,1675.028 2422.8,1675.928 2420.784,1675.928 Z M2421.684,1672.544 C2423.16,1672.544 2424.348,1671.896 2425.428,1670.96 L2425.428,1664.192 C2424.384,1663.472 2423.16,1662.968 2421.684,1662.968 C2419.488,1662.968 2417.508,1664.66 2417.508,1667.792 C2417.508,1670.816 2419.38,1672.544 2421.684,1672.544 Z M2449.152,1669.088 L2437.776,1669.088 C2438.316,1671.536 2440.332,1672.616 2442.96,1672.616 C2444.868,1672.616 2446.848,1672.004 2448.684,1670.96 L2448.36,1674.488 C2446.704,1675.46 2444.688,1675.928 2442.384,1675.928 C2437.236,1675.928 2433.672,1672.688 2433.672,1667.792 C2433.672,1663.328 2436.804,1659.584 2441.664,1659.584 C2446.704,1659.584 2449.332,1662.968 2449.332,1667.144 C2449.332,1667.756 2449.26,1668.548 2449.152,1669.088 Z M2441.628,1662.752 C2439.9,1662.752 2438.172,1663.76 2437.74,1666.352 L2445.408,1666.352 C2445.336,1664.192 2443.932,1662.752 2441.628,1662.752 Z M2462.688,1659.584 C2460.672,1659.584 2459.016,1661.312 2457.684,1663.436 L2457.684,1659.872 L2451.564,1659.872 L2451.564,1663.184 L2453.904,1663.184 L2453.904,1672.4 L2451.564,1672.4 L2451.564,1675.64 L2460.564,1675.64 L2460.564,1672.4 L2457.828,1672.4 L2457.828,1666.208 C2458.548,1664.84 2459.844,1663.616 2460.96,1663.22 C2461.284,1663.94 2462.076,1664.624 2463.264,1664.624 C2464.56,1664.624 2465.604,1663.508 2465.604,1662.176 C2465.604,1660.772 2464.632,1659.584 2462.688,1659.584 Z" transform="translate(-2205 -1649)"/>
</svg>
