<svg xmlns="http://www.w3.org/2000/svg" width="345" height="28" viewBox="0 0 345 28">
  <path fill="#A5B6F3" fill-rule="evenodd" d="M2210.292,1607.352 L2220.264,1607.352 L2220.264,1603.716 L2217.312,1603.716 L2217.312,1587.192 L2221.704,1587.192 L2221.704,1590.936 L2225.556,1590.936 L2225.556,1583.664 L2205,1583.664 L2205,1590.936 L2208.852,1590.936 L2208.852,1587.192 L2213.244,1587.192 L2213.244,1603.716 L2210.292,1603.716 L2210.292,1607.352 Z M2229.66,1584.312 L2229.66,1604.112 L2227.32,1604.112 L2227.32,1607.352 L2235.744,1607.352 L2235.744,1604.112 L2233.584,1604.112 L2233.584,1596.696 C2234.844,1595.652 2236.284,1594.86 2237.652,1594.86 C2238.408,1594.86 2239.02,1595.112 2239.416,1595.616 C2239.74,1596.048 2239.92,1596.66 2239.92,1597.524 L2239.92,1604.112 L2237.76,1604.112 L2237.76,1607.352 L2246.184,1607.352 L2246.184,1604.112 L2243.844,1604.112 L2243.844,1596.552 C2243.844,1595.112 2243.484,1593.888 2242.8,1592.988 C2241.972,1591.908 2240.64,1591.296 2238.948,1591.296 C2236.716,1591.296 2235.06,1592.556 2233.584,1593.96 L2233.584,1581 L2227.32,1581 L2227.32,1584.312 L2229.66,1584.312 Z M2263.464,1600.8 L2252.088,1600.8 C2252.628,1603.248 2254.644,1604.328 2257.272,1604.328 C2259.18,1604.328 2261.16,1603.716 2262.996,1602.672 L2262.672,1606.2 C2261.016,1607.172 2259,1607.64 2256.696,1607.64 C2251.548,1607.64 2247.984,1604.4 2247.984,1599.504 C2247.984,1595.04 2251.116,1591.296 2255.976,1591.296 C2261.016,1591.296 2263.644,1594.68 2263.644,1598.856 C2263.644,1599.468 2263.572,1600.26 2263.464,1600.8 Z M2255.94,1594.464 C2254.212,1594.464 2252.484,1595.472 2252.052,1598.064 L2259.72,1598.064 C2259.648,1595.904 2258.244,1594.464 2255.94,1594.464 Z M2274.012,1607.352 L2274.012,1603.716 L2276.712,1603.716 L2276.712,1587.3 L2274.012,1587.3 L2274.012,1583.664 L2283.192,1583.664 C2288.628,1583.664 2292.516,1586.004 2292.516,1590.828 C2292.516,1593.888 2290.644,1596.228 2288.052,1597.272 L2291.688,1603.716 L2294.388,1603.716 L2294.388,1607.352 L2288.916,1607.352 L2284.164,1598.352 C2283.66,1598.388 2283.192,1598.424 2282.724,1598.424 C2281.968,1598.424 2281.284,1598.424 2280.78,1598.388 L2280.78,1603.716 L2283.732,1603.716 L2283.732,1607.352 L2274.012,1607.352 Z M2283.084,1594.968 C2286.144,1594.968 2288.304,1593.456 2288.304,1590.972 C2288.304,1588.488 2286.252,1587.3 2282.976,1587.3 L2280.78,1587.3 L2280.78,1594.896 C2281.212,1594.932 2281.788,1594.968 2283.084,1594.968 Z M2311.704,1600.8 L2300.328,1600.8 C2300.868,1603.248 2302.884,1604.328 2305.512,1604.328 C2307.42,1604.328 2309.4,1603.716 2311.236,1602.672 L2310.912,1606.2 C2309.256,1607.172 2307.24,1607.64 2304.936,1607.64 C2299.788,1607.64 2296.224,1604.4 2296.224,1599.504 C2296.224,1595.04 2299.356,1591.296 2304.216,1591.296 C2309.256,1591.296 2311.884,1594.68 2311.884,1598.856 C2311.884,1599.468 2311.812,1600.26 2311.704,1600.8 Z M2304.18,1594.464 C2302.452,1594.464 2300.724,1595.472 2300.292,1598.064 L2307.96,1598.064 C2307.888,1595.904 2306.484,1594.464 2304.18,1594.464 Z M2327.616,1595.076 C2327.616,1594.32 2327.328,1593.636 2326.752,1593.06 C2325.672,1591.98 2323.368,1591.26 2321.46,1591.26 C2317.032,1591.26 2315.016,1593.816 2315.016,1596.264 C2315.016,1598.964 2316.852,1600.008 2321.208,1601.16 C2323.62,1601.808 2324.304,1602.276 2324.304,1603.068 C2324.304,1604.22 2323.008,1604.76 2321.424,1604.76 C2320.308,1604.76 2319.3,1604.544 2318.58,1604.256 C2318.616,1604.04 2318.652,1603.824 2318.652,1603.608 C2318.652,1602.24 2317.608,1601.52 2316.528,1601.52 C2315.304,1601.52 2314.44,1602.492 2314.44,1603.644 C2314.44,1604.472 2314.692,1605.12 2315.34,1605.768 C2316.384,1606.812 2318.976,1607.676 2321.388,1607.676 C2324.952,1607.676 2328.048,1605.912 2328.048,1602.6 C2328.048,1599.756 2325.852,1598.82 2322.072,1597.812 C2319.66,1597.164 2318.76,1596.696 2318.76,1595.796 C2318.76,1594.968 2319.624,1594.176 2321.388,1594.176 C2322.18,1594.176 2322.972,1594.32 2323.62,1594.572 C2323.548,1594.788 2323.548,1595.004 2323.548,1595.256 C2323.548,1596.444 2324.412,1597.2 2325.672,1597.2 C2326.824,1597.2 2327.616,1596.336 2327.616,1595.076 Z M2346.192,1600.8 L2334.816,1600.8 C2335.356,1603.248 2337.372,1604.328 2340,1604.328 C2341.908,1604.328 2343.888,1603.716 2345.724,1602.672 L2345.4,1606.2 C2343.744,1607.172 2341.728,1607.64 2339.424,1607.64 C2334.276,1607.64 2330.712,1604.4 2330.712,1599.504 C2330.712,1595.04 2333.844,1591.296 2338.704,1591.296 C2343.744,1591.296 2346.372,1594.68 2346.372,1598.856 C2346.372,1599.468 2346.3,1600.26 2346.192,1600.8 Z M2338.668,1594.464 C2336.94,1594.464 2335.212,1595.472 2334.78,1598.064 L2342.448,1598.064 C2342.376,1595.904 2340.972,1594.464 2338.668,1594.464 Z M2355.66,1607.64 C2357.1,1607.64 2358.36,1607.244 2359.44,1606.704 L2359.764,1603.32 C2358.828,1603.752 2357.676,1604.148 2356.668,1604.148 C2355.876,1604.148 2355.3,1603.896 2355.012,1603.392 C2354.832,1603.068 2354.76,1602.744 2354.76,1602.24 L2354.76,1594.896 L2359.548,1594.896 L2359.548,1591.584 L2354.76,1591.584 L2354.76,1586.58 L2350.872,1588.272 L2350.872,1591.584 L2347.812,1591.584 L2347.812,1594.896 L2350.872,1594.896 L2350.872,1602.996 C2350.872,1604.004 2351.052,1604.832 2351.412,1605.48 C2352.204,1606.992 2353.752,1607.64 2355.66,1607.64 Z" transform="translate(-2204 -1580)"/>
</svg>
