<svg xmlns="http://www.w3.org/2000/svg" width="262" height="28" viewBox="0 0 262 28">
  <path fill="#A5B6F3" fill-rule="evenodd" d="M2734.12,1871 L2744.092,1871 L2744.092,1867.364 L2741.14,1867.364 L2741.14,1850.84 L2745.532,1850.84 L2745.532,1854.584 L2749.384,1854.584 L2749.384,1847.312 L2728.828,1847.312 L2728.828,1854.584 L2732.68,1854.584 L2732.68,1850.84 L2737.072,1850.84 L2737.072,1867.364 L2734.12,1867.364 L2734.12,1871 Z M2753.488,1847.96 L2753.488,1867.76 L2751.148,1867.76 L2751.148,1871 L2759.572,1871 L2759.572,1867.76 L2757.412,1867.76 L2757.412,1860.344 C2758.672,1859.3 2760.112,1858.508 2761.48,1858.508 C2762.236,1858.508 2762.848,1858.76 2763.244,1859.264 C2763.568,1859.696 2763.748,1860.308 2763.748,1861.172 L2763.748,1867.76 L2761.588,1867.76 L2761.588,1871 L2770.012,1871 L2770.012,1867.76 L2767.672,1867.76 L2767.672,1860.2 C2767.672,1858.76 2767.312,1857.536 2766.628,1856.636 C2765.8,1855.556 2764.468,1854.944 2762.776,1854.944 C2760.544,1854.944 2758.888,1856.204 2757.412,1857.608 L2757.412,1844.648 L2751.148,1844.648 L2751.148,1847.96 L2753.488,1847.96 Z M2787.292,1864.448 L2775.916,1864.448 C2776.456,1866.896 2778.472,1867.976 2781.1,1867.976 C2783.008,1867.976 2784.988,1867.364 2786.824,1866.32 L2786.5,1869.848 C2784.844,1870.82 2782.828,1871.288 2780.524,1871.288 C2775.376,1871.288 2771.812,1868.048 2771.812,1863.152 C2771.812,1858.688 2774.944,1854.944 2779.804,1854.944 C2784.844,1854.944 2787.472,1858.328 2787.472,1862.504 C2787.472,1863.116 2787.4,1863.908 2787.292,1864.448 Z M2779.768,1858.112 C2778.04,1858.112 2776.312,1859.12 2775.88,1861.712 L2783.548,1861.712 C2783.476,1859.552 2782.072,1858.112 2779.768,1858.112 Z M2797.84,1871 L2815.048,1871 L2815.048,1864.052 L2811.124,1864.052 L2811.124,1867.4 L2804.608,1867.4 L2804.608,1850.948 L2807.74,1850.948 L2807.74,1847.312 L2797.84,1847.312 L2797.84,1850.948 L2800.54,1850.948 L2800.54,1867.364 L2797.84,1867.364 L2797.84,1871 Z M2821.348,1852.82 C2822.752,1852.82 2824.012,1851.668 2824.012,1850.228 C2824.012,1848.788 2822.824,1847.636 2821.42,1847.636 C2820.016,1847.636 2818.756,1848.788 2818.756,1850.228 C2818.756,1851.668 2819.944,1852.82 2821.348,1852.82 Z M2817.388,1871 L2826.064,1871 L2826.064,1867.76 L2823.724,1867.76 L2823.724,1855.232 L2817.388,1855.232 L2817.388,1858.544 L2819.8,1858.544 L2819.8,1867.76 L2817.388,1867.76 L2817.388,1871 Z M2838.7,1849.256 C2837.476,1849.256 2836.864,1848.608 2836.432,1847.78 C2836.108,1847.924 2835.784,1848.14 2835.604,1848.428 C2835.136,1849.112 2834.884,1850.084 2834.884,1851.596 L2834.884,1855.232 L2838.988,1855.232 L2838.988,1858.544 L2834.884,1858.544 L2834.884,1867.76 L2837.944,1867.76 L2837.944,1871 L2828.62,1871 L2828.62,1867.76 L2830.996,1867.76 L2830.996,1858.544 L2828.296,1858.544 L2828.296,1855.232 L2830.996,1855.232 L2830.996,1852.172 C2830.996,1849.292 2831.5,1847.492 2833.012,1846.016 C2834.128,1844.936 2835.568,1844.36 2837.332,1844.36 C2839.384,1844.36 2840.824,1845.44 2840.824,1847.024 C2840.824,1848.428 2839.816,1849.256 2838.7,1849.256 Z M2856.232,1864.448 L2844.856,1864.448 C2845.396,1866.896 2847.412,1867.976 2850.04,1867.976 C2851.948,1867.976 2853.928,1867.364 2855.764,1866.32 L2855.44,1869.848 C2853.784,1870.82 2851.768,1871.288 2849.464,1871.288 C2844.316,1871.288 2840.752,1868.048 2840.752,1863.152 C2840.752,1858.688 2843.884,1854.944 2848.744,1854.944 C2853.784,1854.944 2856.412,1858.328 2856.412,1862.504 C2856.412,1863.116 2856.34,1863.908 2856.232,1864.448 Z M2848.708,1858.112 C2846.98,1858.112 2845.252,1859.12 2844.82,1861.712 L2852.488,1861.712 C2852.416,1859.552 2851.012,1858.112 2848.708,1858.112 Z M2866.78,1871 L2866.78,1867.364 L2869.48,1867.364 L2869.48,1850.948 L2866.78,1850.948 L2866.78,1847.312 L2876.248,1847.312 C2882.044,1847.312 2884.888,1849.976 2884.888,1853.54 C2884.888,1856.276 2883.196,1858.04 2880.856,1858.832 C2883.808,1859.696 2885.572,1861.424 2885.572,1864.376 C2885.572,1868.3 2882.404,1871 2876.644,1871 L2866.78,1871 Z M2873.512,1867.436 L2876.716,1867.436 C2879.524,1867.436 2881.396,1866.284 2881.396,1864.016 C2881.396,1861.82 2879.668,1860.596 2876.608,1860.596 L2873.512,1860.596 L2873.512,1867.436 Z M2873.512,1857.356 L2876.284,1857.356 C2879.128,1857.356 2880.712,1856.06 2880.712,1854.008 C2880.712,1851.992 2879.056,1850.876 2876.176,1850.876 L2873.512,1850.876 L2873.512,1857.356 Z M2887.84,1871 L2896.552,1871 L2896.552,1867.76 L2894.212,1867.76 L2894.212,1844.648 L2887.84,1844.648 L2887.84,1847.96 L2890.288,1847.96 L2890.288,1867.76 L2887.84,1867.76 L2887.84,1871 Z M2914.228,1864.448 L2902.852,1864.448 C2903.392,1866.896 2905.408,1867.976 2908.036,1867.976 C2909.944,1867.976 2911.924,1867.364 2913.76,1866.32 L2913.436,1869.848 C2911.78,1870.82 2909.764,1871.288 2907.46,1871.288 C2902.312,1871.288 2898.748,1868.048 2898.748,1863.152 C2898.748,1858.688 2901.88,1854.944 2906.74,1854.944 C2911.78,1854.944 2914.408,1858.328 2914.408,1862.504 C2914.408,1863.116 2914.336,1863.908 2914.228,1864.448 Z M2906.704,1858.112 C2904.976,1858.112 2903.248,1859.12 2902.816,1861.712 L2910.484,1861.712 C2910.412,1859.552 2909.008,1858.112 2906.704,1858.112 Z M2922.76,1855.232 L2916.64,1855.232 L2916.64,1858.544 L2918.98,1858.544 L2918.98,1867.76 L2916.64,1867.76 L2916.64,1871 L2925.064,1871 L2925.064,1867.76 L2922.904,1867.76 L2922.904,1860.344 C2924.164,1859.3 2925.604,1858.508 2926.972,1858.508 C2927.908,1858.508 2928.556,1858.868 2928.916,1859.552 C2929.132,1859.948 2929.24,1860.524 2929.24,1861.172 L2929.24,1867.76 L2927.08,1867.76 L2927.08,1871 L2935.504,1871 L2935.504,1867.76 L2933.164,1867.76 L2933.164,1860.2 C2933.164,1858.904 2932.876,1857.824 2932.336,1856.96 C2931.508,1855.7 2930.14,1854.944 2928.268,1854.944 C2925.964,1854.944 2924.272,1856.276 2922.76,1857.752 L2922.76,1855.232 Z M2944.612,1871.288 C2940.436,1871.288 2937.304,1867.94 2937.304,1863.188 C2937.304,1858.616 2940.616,1854.944 2944.864,1854.944 C2946.88,1854.944 2948.356,1855.7 2949.256,1856.456 L2949.256,1847.96 L2946.88,1847.96 L2946.88,1844.648 L2953.18,1844.648 L2953.18,1867.76 L2955.52,1867.76 L2955.52,1871 L2949.256,1871 L2949.256,1869.272 C2948.104,1870.388 2946.628,1871.288 2944.612,1871.288 Z M2945.512,1867.904 C2946.988,1867.904 2948.176,1867.256 2949.256,1866.32 L2949.256,1859.552 C2948.212,1858.832 2946.988,1858.328 2945.512,1858.328 C2943.316,1858.328 2941.336,1860.02 2941.336,1863.152 C2941.336,1866.176 2943.208,1867.904 2945.512,1867.904 Z M2972.98,1864.448 L2961.604,1864.448 C2962.144,1866.896 2964.16,1867.976 2966.788,1867.976 C2968.696,1867.976 2970.676,1867.364 2972.512,1866.32 L2972.188,1869.848 C2970.532,1870.82 2968.516,1871.288 2966.212,1871.288 C2961.064,1871.288 2957.5,1868.048 2957.5,1863.152 C2957.5,1858.688 2960.632,1854.944 2965.492,1854.944 C2970.532,1854.944 2973.16,1858.328 2973.16,1862.504 C2973.16,1863.116 2973.088,1863.908 2972.98,1864.448 Z M2965.456,1858.112 C2963.728,1858.112 2962,1859.12 2961.568,1861.712 L2969.236,1861.712 C2969.164,1859.552 2967.76,1858.112 2965.456,1858.112 Z M2986.516,1854.944 C2984.5,1854.944 2982.844,1856.672 2981.512,1858.796 L2981.512,1855.232 L2975.392,1855.232 L2975.392,1858.544 L2977.732,1858.544 L2977.732,1867.76 L2975.392,1867.76 L2975.392,1871 L2984.392,1871 L2984.392,1867.76 L2981.656,1867.76 L2981.656,1861.568 C2982.376,1860.2 2983.672,1858.976 2984.788,1858.58 C2985.112,1859.3 2985.904,1859.984 2987.092,1859.984 C2988.388,1859.984 2989.432,1858.868 2989.432,1857.536 C2989.432,1856.132 2988.46,1854.944 2986.516,1854.944 Z" transform="translate(-2728 -1844)"/>
</svg>
