<svg xmlns="http://www.w3.org/2000/svg" width="60" height="60" viewBox="0 0 60 60">
  <g fill="none" fill-rule="evenodd">
    <path fill="#FFB8AC" d="M38.5773145,5.46736163 C39.3631174,5.46736163 40,4.83047903 40,4.0446761 L40,1.42268553 C40,0.637379002 39.3631174,0 38.5773145,0 L1.42268553,0 C0.636882601,0 0,0.637379002 0,1.42268553 L0,4.0446761 C0,4.83047903 0.636882601,5.46736163 1.42268553,5.46736163 L2.34301315,5.46736163 L2.34301315,8.48001986 C2.34301315,8.48001986 0,8.53561678 0,10.9903202 L0,54.5048399 C0,57.462894 2.39761727,59.8605113 5.35567138,59.8605113 L19.9161082,59.8605113 L20.0833954,59.8605113 L34.6443286,59.8605113 C37.6018863,59.8605113 40,57.462894 40,54.5048399 L40,10.9903202 C40,8.53561678 37.6569868,8.48001986 37.6569868,8.48001986 L37.6569868,5.46736163 L38.5773145,5.46736163 Z"/>
    <path fill="#FFF" d="M28.752,45.968 C25.548,45.968 22.92,43.808 20.94,42.584 C20.04,41.972 18.996,41.54 17.916,41.36 C15.072,40.892 12.84,39.704 10.896,37.76 C8.988,35.852 7.656,32.792 7.656,29.156 C7.656,22.208 12.696,16.88 19.896,16.88 C27.06,16.88 31.956,22.244 31.956,29.156 C31.956,35.348 28.212,39.164 24.108,40.424 C24.468,40.532 25.044,40.784 25.404,41 C26.556,41.684 27.24,42.044 28.392,42.044 C29.22,42.044 30.156,41.936 31.704,40.784 L33.828,44.024 C32.136,45.788 30.156,45.968 28.752,45.968 Z M19.824,37.652 C24.396,37.652 27.744,34.124 27.744,29.156 C27.744,24.224 24.396,20.66 19.824,20.66 C15.216,20.66 11.868,24.188 11.868,29.156 C11.868,31.676 12.768,33.872 14.244,35.384 C15.648,36.824 17.592,37.652 19.824,37.652 Z"/>
  </g>
</svg>
