<svg xmlns="http://www.w3.org/2000/svg" width="226" height="31" viewBox="0 0 226 31">
  <g fill="none" fill-rule="evenodd">
    <path fill="#A5B6F3" d="M8.736,26.224 L10.752,26.224 L16.416,13.264 L22.048,26.224 L24.064,26.224 L29.728,8.176 L31.968,8.176 L31.968,4.944 L23.008,4.944 L23.008,8.176 L25.888,8.176 L22.688,19.248 L17.472,6.992 L15.552,6.992 L10.336,19.248 L6.912,8.176 L9.696,8.176 L9.696,4.944 L0.736,4.944 L0.736,8.176 L2.976,8.176 L8.736,26.224 Z M35.616,5.52 L35.616,23.12 L33.536,23.12 L33.536,26 L41.024,26 L41.024,23.12 L39.104,23.12 L39.104,16.528 C40.224,15.6 41.504,14.896 42.72,14.896 C43.392,14.896 43.936,15.12 44.288,15.568 C44.576,15.952 44.736,16.496 44.736,17.264 L44.736,23.12 L42.816,23.12 L42.816,26 L50.304,26 L50.304,23.12 L48.224,23.12 L48.224,16.4 C48.224,15.12 47.904,14.032 47.296,13.232 C46.56,12.272 45.376,11.728 43.872,11.728 C41.888,11.728 40.416,12.848 39.104,14.096 L39.104,2.576 L33.536,2.576 L33.536,5.52 L35.616,5.52 Z M65.664,20.176 L55.552,20.176 C56.032,22.352 57.824,23.312 60.16,23.312 C61.856,23.312 63.616,22.768 65.248,21.84 L64.96,24.976 C63.488,25.84 61.696,26.256 59.648,26.256 C55.072,26.256 51.904,23.376 51.904,19.024 C51.904,15.056 54.688,11.728 59.008,11.728 C63.488,11.728 65.824,14.736 65.824,18.448 C65.824,18.992 65.76,19.696 65.664,20.176 Z M58.976,14.544 C57.44,14.544 55.904,15.44 55.52,17.744 L62.336,17.744 C62.272,15.824 61.024,14.544 58.976,14.544 Z M77.696,11.728 C75.904,11.728 74.432,13.264 73.248,15.152 L73.248,11.984 L67.808,11.984 L67.808,14.928 L69.888,14.928 L69.888,23.12 L67.808,23.12 L67.808,26 L75.808,26 L75.808,23.12 L73.376,23.12 L73.376,17.616 C74.016,16.4 75.168,15.312 76.16,14.96 C76.448,15.6 77.152,16.208 78.208,16.208 C79.36,16.208 80.288,15.216 80.288,14.032 C80.288,12.784 79.424,11.728 77.696,11.728 Z M95.584,20.176 L85.472,20.176 C85.952,22.352 87.744,23.312 90.08,23.312 C91.776,23.312 93.536,22.768 95.168,21.84 L94.88,24.976 C93.408,25.84 91.616,26.256 89.568,26.256 C84.992,26.256 81.824,23.376 81.824,19.024 C81.824,15.056 84.608,11.728 88.928,11.728 C93.408,11.728 95.744,14.736 95.744,18.448 C95.744,18.992 95.68,19.696 95.584,20.176 Z M88.896,14.544 C87.36,14.544 85.824,15.44 85.44,17.744 L92.256,17.744 C92.192,15.824 90.944,14.544 88.896,14.544 Z"/>
    <path fill="#FFB8AC" d="M111.264,26.256 C112.544,26.256 113.664,25.904 114.624,25.424 L114.912,22.416 C114.08,22.8 113.056,23.152 112.16,23.152 C111.456,23.152 110.944,22.928 110.688,22.48 C110.528,22.192 110.464,21.904 110.464,21.456 L110.464,14.928 L114.72,14.928 L114.72,11.984 L110.464,11.984 L110.464,7.536 L107.008,9.04 L107.008,11.984 L104.288,11.984 L104.288,14.928 L107.008,14.928 L107.008,22.128 C107.008,23.024 107.168,23.76 107.488,24.336 C108.192,25.68 109.568,26.256 111.264,26.256 Z M124.352,26.256 C119.712,26.256 116.896,22.896 116.896,18.992 C116.896,15.152 119.776,11.728 124.352,11.728 C128.992,11.728 131.808,15.088 131.808,18.992 C131.808,22.832 128.928,26.256 124.352,26.256 Z M124.352,23.344 C126.624,23.344 128.224,21.552 128.224,18.992 C128.224,16.432 126.624,14.64 124.352,14.64 C122.08,14.64 120.48,16.432 120.48,18.992 C120.48,21.552 122.08,23.344 124.352,23.344 Z M152.928,15.088 C152.928,14.416 152.672,13.808 152.16,13.296 C151.2,12.336 149.152,11.696 147.456,11.696 C143.52,11.696 141.728,13.968 141.728,16.144 C141.728,18.544 143.36,19.472 147.232,20.496 C149.376,21.072 149.984,21.488 149.984,22.192 C149.984,23.216 148.832,23.696 147.424,23.696 C146.432,23.696 145.536,23.504 144.896,23.248 C144.928,23.056 144.96,22.864 144.96,22.672 C144.96,21.456 144.032,20.816 143.072,20.816 C141.984,20.816 141.216,21.68 141.216,22.704 C141.216,23.44 141.44,24.016 142.016,24.592 C142.944,25.52 145.248,26.288 147.392,26.288 C150.56,26.288 153.312,24.72 153.312,21.776 C153.312,19.248 151.36,18.416 148,17.52 C145.856,16.944 145.056,16.528 145.056,15.728 C145.056,14.992 145.824,14.288 147.392,14.288 C148.096,14.288 148.8,14.416 149.376,14.64 C149.312,14.832 149.312,15.024 149.312,15.248 C149.312,16.304 150.08,16.976 151.2,16.976 C152.224,16.976 152.928,16.208 152.928,15.088 Z M164.32,26.256 C162.528,26.256 161.248,25.616 160.064,24.656 L159.296,26.064 L156.928,26.064 L156.928,5.52 L154.816,5.52 L154.816,2.576 L160.416,2.576 L160.416,13.52 C161.44,12.528 162.752,11.728 164.544,11.728 C168.256,11.728 171.04,14.704 171.04,18.928 C171.04,22.992 168.096,26.256 164.32,26.256 Z M163.744,23.248 C165.696,23.248 167.456,21.744 167.456,18.96 C167.456,16.272 165.792,14.736 163.744,14.736 C162.432,14.736 161.376,15.312 160.416,16.144 L160.416,22.16 C161.344,22.8 162.432,23.248 163.744,23.248 Z M180.672,26.256 C176.032,26.256 173.216,22.896 173.216,18.992 C173.216,15.152 176.096,11.728 180.672,11.728 C185.312,11.728 188.128,15.088 188.128,18.992 C188.128,22.832 185.248,26.256 180.672,26.256 Z M180.672,23.344 C182.944,23.344 184.544,21.552 184.544,18.992 C184.544,16.432 182.944,14.64 180.672,14.64 C178.4,14.64 176.8,16.432 176.8,18.992 C176.8,21.552 178.4,23.344 180.672,23.344 Z M197.76,26.256 C193.12,26.256 190.304,22.896 190.304,18.992 C190.304,15.152 193.184,11.728 197.76,11.728 C202.4,11.728 205.216,15.088 205.216,18.992 C205.216,22.832 202.336,26.256 197.76,26.256 Z M197.76,23.344 C200.032,23.344 201.632,21.552 201.632,18.992 C201.632,16.432 200.032,14.64 197.76,14.64 C195.488,14.64 193.888,16.432 193.888,18.992 C193.888,21.552 195.488,23.344 197.76,23.344 Z M212.736,11.984 L207.296,11.984 L207.296,14.928 L209.376,14.928 L209.376,23.12 L207.296,23.12 L207.296,26 L214.784,26 L214.784,23.12 L212.864,23.12 L212.864,16.528 C213.984,15.6 215.264,14.896 216.48,14.896 C217.312,14.896 217.888,15.216 218.208,15.824 C218.4,16.176 218.496,16.688 218.496,17.264 L218.496,23.12 L216.576,23.12 L216.576,26 L224.064,26 L224.064,23.12 L221.984,23.12 L221.984,16.4 C221.984,15.248 221.728,14.288 221.248,13.52 C220.512,12.4 219.296,11.728 217.632,11.728 C215.584,11.728 214.08,12.912 212.736,14.224 L212.736,11.984 Z"/>
  </g>
</svg>
