<svg xmlns="http://www.w3.org/2000/svg" width="215" height="31" viewBox="0 0 215 31">
  <g fill="none" fill-rule="evenodd">
    <path fill="#A5B6F3" d="M8.736,26.224 L10.752,26.224 L16.416,13.264 L22.048,26.224 L24.064,26.224 L29.728,8.176 L31.968,8.176 L31.968,4.944 L23.008,4.944 L23.008,8.176 L25.888,8.176 L22.688,19.248 L17.472,6.992 L15.552,6.992 L10.336,19.248 L6.912,8.176 L9.696,8.176 L9.696,4.944 L0.736,4.944 L0.736,8.176 L2.976,8.176 L8.736,26.224 Z M35.616,5.52 L35.616,23.12 L33.536,23.12 L33.536,26 L41.024,26 L41.024,23.12 L39.104,23.12 L39.104,16.528 C40.224,15.6 41.504,14.896 42.72,14.896 C43.392,14.896 43.936,15.12 44.288,15.568 C44.576,15.952 44.736,16.496 44.736,17.264 L44.736,23.12 L42.816,23.12 L42.816,26 L50.304,26 L50.304,23.12 L48.224,23.12 L48.224,16.4 C48.224,15.12 47.904,14.032 47.296,13.232 C46.56,12.272 45.376,11.728 43.872,11.728 C41.888,11.728 40.416,12.848 39.104,14.096 L39.104,2.576 L33.536,2.576 L33.536,5.52 L35.616,5.52 Z M65.664,20.176 L55.552,20.176 C56.032,22.352 57.824,23.312 60.16,23.312 C61.856,23.312 63.616,22.768 65.248,21.84 L64.96,24.976 C63.488,25.84 61.696,26.256 59.648,26.256 C55.072,26.256 51.904,23.376 51.904,19.024 C51.904,15.056 54.688,11.728 59.008,11.728 C63.488,11.728 65.824,14.736 65.824,18.448 C65.824,18.992 65.76,19.696 65.664,20.176 Z M58.976,14.544 C57.44,14.544 55.904,15.44 55.52,17.744 L62.336,17.744 C62.272,15.824 61.024,14.544 58.976,14.544 Z M73.248,11.984 L67.808,11.984 L67.808,14.928 L69.888,14.928 L69.888,23.12 L67.808,23.12 L67.808,26 L75.296,26 L75.296,23.12 L73.376,23.12 L73.376,16.528 C74.496,15.6 75.776,14.896 76.992,14.896 C77.824,14.896 78.4,15.216 78.72,15.824 C78.912,16.176 79.008,16.688 79.008,17.264 L79.008,23.12 L77.088,23.12 L77.088,26 L84.576,26 L84.576,23.12 L82.496,23.12 L82.496,16.4 C82.496,15.248 82.24,14.288 81.76,13.52 C81.024,12.4 79.808,11.728 78.144,11.728 C76.096,11.728 74.592,12.912 73.248,14.224 L73.248,11.984 Z"/>
    <path fill="#FFB8AC" d="M100.264,26.256 C101.544,26.256 102.664,25.904 103.624,25.424 L103.912,22.416 C103.08,22.8 102.056,23.152 101.16,23.152 C100.456,23.152 99.944,22.928 99.688,22.48 C99.528,22.192 99.464,21.904 99.464,21.456 L99.464,14.928 L103.72,14.928 L103.72,11.984 L99.464,11.984 L99.464,7.536 L96.008,9.04 L96.008,11.984 L93.288,11.984 L93.288,14.928 L96.008,14.928 L96.008,22.128 C96.008,23.024 96.168,23.76 96.488,24.336 C97.192,25.68 98.568,26.256 100.264,26.256 Z M113.352,26.256 C108.712,26.256 105.896,22.896 105.896,18.992 C105.896,15.152 108.776,11.728 113.352,11.728 C117.992,11.728 120.808,15.088 120.808,18.992 C120.808,22.832 117.928,26.256 113.352,26.256 Z M113.352,23.344 C115.624,23.344 117.224,21.552 117.224,18.992 C117.224,16.432 115.624,14.64 113.352,14.64 C111.08,14.64 109.48,16.432 109.48,18.992 C109.48,21.552 111.08,23.344 113.352,23.344 Z M141.928,15.088 C141.928,14.416 141.672,13.808 141.16,13.296 C140.2,12.336 138.152,11.696 136.456,11.696 C132.52,11.696 130.728,13.968 130.728,16.144 C130.728,18.544 132.36,19.472 136.232,20.496 C138.376,21.072 138.984,21.488 138.984,22.192 C138.984,23.216 137.832,23.696 136.424,23.696 C135.432,23.696 134.536,23.504 133.896,23.248 C133.928,23.056 133.96,22.864 133.96,22.672 C133.96,21.456 133.032,20.816 132.072,20.816 C130.984,20.816 130.216,21.68 130.216,22.704 C130.216,23.44 130.44,24.016 131.016,24.592 C131.944,25.52 134.248,26.288 136.392,26.288 C139.56,26.288 142.312,24.72 142.312,21.776 C142.312,19.248 140.36,18.416 137,17.52 C134.856,16.944 134.056,16.528 134.056,15.728 C134.056,14.992 134.824,14.288 136.392,14.288 C137.096,14.288 137.8,14.416 138.376,14.64 C138.312,14.832 138.312,15.024 138.312,15.248 C138.312,16.304 139.08,16.976 140.2,16.976 C141.224,16.976 141.928,16.208 141.928,15.088 Z M153.32,26.256 C151.528,26.256 150.248,25.616 149.064,24.656 L148.296,26.064 L145.928,26.064 L145.928,5.52 L143.816,5.52 L143.816,2.576 L149.416,2.576 L149.416,13.52 C150.44,12.528 151.752,11.728 153.544,11.728 C157.256,11.728 160.04,14.704 160.04,18.928 C160.04,22.992 157.096,26.256 153.32,26.256 Z M152.744,23.248 C154.696,23.248 156.456,21.744 156.456,18.96 C156.456,16.272 154.792,14.736 152.744,14.736 C151.432,14.736 150.376,15.312 149.416,16.144 L149.416,22.16 C150.344,22.8 151.432,23.248 152.744,23.248 Z M169.672,26.256 C165.032,26.256 162.216,22.896 162.216,18.992 C162.216,15.152 165.096,11.728 169.672,11.728 C174.312,11.728 177.128,15.088 177.128,18.992 C177.128,22.832 174.248,26.256 169.672,26.256 Z M169.672,23.344 C171.944,23.344 173.544,21.552 173.544,18.992 C173.544,16.432 171.944,14.64 169.672,14.64 C167.4,14.64 165.8,16.432 165.8,18.992 C165.8,21.552 167.4,23.344 169.672,23.344 Z M186.76,26.256 C182.12,26.256 179.304,22.896 179.304,18.992 C179.304,15.152 182.184,11.728 186.76,11.728 C191.4,11.728 194.216,15.088 194.216,18.992 C194.216,22.832 191.336,26.256 186.76,26.256 Z M186.76,23.344 C189.032,23.344 190.632,21.552 190.632,18.992 C190.632,16.432 189.032,14.64 186.76,14.64 C184.488,14.64 182.888,16.432 182.888,18.992 C182.888,21.552 184.488,23.344 186.76,23.344 Z M201.736,11.984 L196.296,11.984 L196.296,14.928 L198.376,14.928 L198.376,23.12 L196.296,23.12 L196.296,26 L203.784,26 L203.784,23.12 L201.864,23.12 L201.864,16.528 C202.984,15.6 204.264,14.896 205.48,14.896 C206.312,14.896 206.888,15.216 207.208,15.824 C207.4,16.176 207.496,16.688 207.496,17.264 L207.496,23.12 L205.576,23.12 L205.576,26 L213.064,26 L213.064,23.12 L210.984,23.12 L210.984,16.4 C210.984,15.248 210.728,14.288 210.248,13.52 C209.512,12.4 208.296,11.728 206.632,11.728 C204.584,11.728 203.08,12.912 201.736,14.224 L201.736,11.984 Z"/>
  </g>
</svg>
