<svg xmlns="http://www.w3.org/2000/svg" width="155" height="155" viewBox="0 0 155 155">
  <g fill="none" fill-rule="evenodd" stroke="#A5B6F3" transform="translate(3 6)">
    <path stroke-width="3" d="M38.0317496,46.3987552 L40.2077749,43.7013678 C41.0299663,42.6863873 42.5352566,42.5202996 43.5583594,43.3384354 L69.1019299,63.745694 C69.7572102,63.5550007 70.4495819,63.4535027 71.1666812,63.4535027 C71.9517813,63.4535027 72.7090628,63.5734549 73.4137983,63.7979809 L90.5901803,48.1611304 C91.5545552,47.2814807 93.0722092,47.349146 93.9562195,48.3118396 L96.3022469,50.8646693 C97.1862572,51.8242872 97.1182564,53.3313794 96.1538815,54.2141048 L94.8031385,55.4382327 C94.6393184,55.7488783 94.4229522,56.0349182 94.1478581,56.2840498 L78.5602219,70.4907005 L78.5694947,70.8167246 C78.5694947,74.8858735 75.2529106,78.1830221 71.1666812,78.1830221 C67.0773608,78.1830221 63.7638676,74.8858735 63.7638676,70.8167246 C63.7638676,70.5552902 63.7762314,70.2907801 63.8071409,70.0324215 L38.399572,49.7328123 C37.3764692,48.9146765 37.2126491,47.4168114 38.0317496,46.3987552 Z M71.1666812,0.0910406716 C90.7910917,0.0910406716 108.560935,8.01096396 121.422358,20.8089449 C126.537872,25.8930743 130.871377,31.7522796 134.243598,38.1897163 L149.488139,25.5732016 L137.711639,75.5533 L98.1382683,44.9562527 L116.878669,43.4368577 C114.631551,39.7337169 111.94552,36.3227674 108.891666,33.2809017 C99.2386447,23.6785714 85.8981256,17.7363222 71.1666812,17.7363222 C56.4321458,17.7363222 43.0978086,23.6785714 33.444787,33.2809017 C23.7948564,42.8863077 17.8200594,56.1579462 17.8200594,70.8167246 C17.8200594,85.4785787 23.7948564,98.7502171 33.444787,108.355623 C43.0978086,117.961029 56.4321458,123.903278 71.1666812,123.903278 C72.2206935,123.903278 73.2654329,123.869446 74.3008995,123.811007 L74.3008995,141.477819 C73.262342,141.520879 72.2206935,141.545484 71.1666812,141.545484 C51.5422707,141.545484 33.7693362,133.628637 20.9079136,120.830656 C8.04649098,108.032675 0.0903982564,90.3474092 0.0903982564,70.8167246 C0.0903982564,51.2921913 8.04649098,33.6069257 20.9079136,20.8089449 C33.7693362,8.01096396 51.5422707,0.0910406716 71.1666812,0.0910406716 Z"/>
    <path stroke-width="3" d="M70.616493 23.326404L72.8419734 23.326404C74.3967188 23.326404 75.6670973 24.590516 75.6670973 26.1345166L75.6670973 32.9779454C75.6670973 34.5250217 74.3967188 35.7891337 72.8419734 35.7891337L70.616493 35.7891337C69.0617476 35.7891337 67.7944601 34.5250217 67.7944601 32.9779454L67.7944601 26.1345166C67.7944601 24.590516 69.0617476 23.326404 70.616493 23.326404zM23.4072518 71.3721957L23.4072518 69.1576929C23.4072518 67.6106166 24.6745393 66.3465046 26.2292847 66.3465046L33.1097286 66.3465046C34.661383 66.3465046 35.9317614 67.6106166 35.9317614 69.1576929L35.9317614 71.3721957C35.9317614 72.9161963 34.661383 74.1803083 33.1097286 74.1803083L26.2292847 74.1803083C24.6745393 74.1803083 23.4072518 72.9161963 23.4072518 71.3721957z"/>
    <path stroke-width="2.5" d="M106.098617 113.741189C107.943911 114.359404 109.319382 115.371309 110.221938 116.779979 111.121403 118.188649 111.572681 121.488873 111.572681 126.680652 111.572681 130.534502 111.133767 133.524081 110.249756 135.649388 109.368837 137.774696 107.84191 139.395589 105.675158 140.50284 103.511496 141.613168 100.735827 142.163718 97.3450604 142.163718 93.4937428 142.163718 90.4677075 141.520897 88.2700456 140.235255 86.0754745 138.946537 84.6320032 137.37178 83.9396315 135.504831 83.2472598 133.637882 82.9041649 130.399171 82.9041649 125.7887L82.9041649 121.956379 95.057761 121.956379 95.057761 129.830167C95.057761 131.927793 95.1813989 133.259571 95.4317654 133.828575 95.682132 134.394504 96.244684 134.680543 97.1039667 134.680543 98.046705 134.680543 98.6679849 134.320687 98.9678066 133.604049 99.2676283 132.884336 99.4221755 131.00816 99.4221755 127.975521L99.4221755 124.62301C99.4221755 122.768364 99.2089003 121.408905 98.7885318 120.550785 98.3681633 119.692665 97.7468833 119.126737 96.921601 118.859151 96.1025005 118.591565 94.5044819 118.434705 92.1368179 118.394721L92.1368179 111.360598C95.0268516 111.360598 96.8103269 111.249873 97.4965167 111.031499 98.1765247 110.810048 98.6679849 110.333315 98.9678066 109.592072 99.2676283 108.853904 99.4221755 107.697442 99.4221755 106.119608L99.4221755 103.425297C99.4221755 101.730587 99.2429007 100.611033 98.8936239 100.075861 98.5443471 99.5345383 97.9972499 99.2638768 97.2523321 99.2638768 96.4085041 99.2638768 95.8335883 99.5499168 95.5244938 100.118921 95.2123083 100.687925 95.057761 101.89975 95.057761 103.757472L95.057761 107.737426 82.9041649 107.737426 82.9041649 103.606763C82.9041649 98.9747612 83.96745 95.8498516 86.0909293 94.2197315 88.2205904 92.5957628 91.5989935 91.7807027 96.2323202 91.7807027 102.027842 91.7807027 105.959524 92.909484 108.021185 95.1608952 110.089027 97.4153821 111.121403 100.546443 111.121403 104.557154 111.121403 107.26992 110.750489 109.22914 110.011754 110.434813 109.263745 111.640487 107.965548 112.744663 106.098617 113.741189M132.453251 105.072641C132.453251 102.498281 132.326523 100.886615 132.079247 100.237643 131.828881 99.5886706 131.241601 99.2657222 130.317408 99.2657222 129.417943 99.2657222 128.8183 99.6102005 128.52466 100.299157 128.237202 100.985038 128.091928 102.578249 128.091928 105.072641L128.091928 128.721685C128.091928 131.535949 128.227929 133.233735 128.496842 133.811966 128.768845 134.390198 129.356124 134.679313 130.25868 134.679313 131.158145 134.679313 131.751607 134.340986 132.029792 133.661257 132.314159 132.984603 132.453251 131.455981 132.453251 129.084618L132.453251 105.072641zM144.609939 109.144865L144.609939 125.310736C144.609939 128.98312 144.405936 131.655902 144.004113 133.332157 143.60229 135.008413 142.773917 136.577019 141.509721 138.0349 140.245524 139.489705 138.721688 140.538519 136.938213 141.178264 135.151647 141.814933 133.157987 142.134806 130.951052 142.134806 128.042473 142.134806 125.625354 141.799555 123.699695 141.132128 121.774036 140.461626 120.240927 139.418964 119.097278 138.004143 117.956719 136.586246 117.140709 135.094532 116.661613 133.525926 116.176334 131.960396 115.935241 129.472156 115.935241 126.058131L115.935241 109.144865C115.935241 104.69433 116.3247 101.360273 117.094345 99.14577 117.867081 96.9312672 119.40019 95.1535135 121.699853 93.8155847 123.996426 92.4807317 126.778276 91.8102294 130.048496 91.8102294 132.715982 91.8102294 135.0991 92.2746599 137.207125 93.2035208 139.31515 94.129306 140.888441 95.2642387 141.930089 96.6021675 142.971738 97.9370206 143.682655 99.4441128 144.053568 101.120368 144.424482 102.7997 144.609939 105.472482 144.609939 109.144865L144.609939 109.144865z"/>
  </g>
</svg>
