<svg xmlns="http://www.w3.org/2000/svg" xmlns:xlink="http://www.w3.org/1999/xlink" width="155" height="155" viewBox="0 0 155 155">
  <defs>
    <polygon id="faq_kv_2-a" points="149.465 148.485 0 148.485 0 .529 149.465 .529"/>
  </defs>
  <g fill="none" fill-rule="evenodd" transform="translate(3 3)">
    <g transform="translate(0 .326)">
      <mask id="faq_kv_2-b" fill="#fff">
        <use xlink:href="#faq_kv_2-a"/>
      </mask>
      <path fill="#A5B6F3" d="M147.726845,74.506993 L145.988226,74.506993 C145.984301,93.9902875 138.013344,111.612665 125.116954,124.382673 C112.216641,137.148796 94.4144427,145.039239 74.7323391,145.039239 C55.0541601,145.039239 37.2519623,137.148796 24.3516484,124.382673 C11.455259,111.612665 3.48037677,93.9902875 3.48037677,74.506993 C3.48037677,55.0236985 11.455259,37.4013209 24.3516484,24.6313131 C37.2519623,11.8651904 55.0541601,3.97474747 74.7323391,3.97474747 C94.4144427,3.97474747 112.216641,11.8651904 125.116954,24.6313131 C138.013344,37.4013209 145.984301,55.0236985 145.988226,74.506993 L147.726845,74.506993 L149.465463,74.506993 C149.469388,54.0835276 141.098116,35.5792541 127.577708,22.1954157 C114.061224,8.81157731 95.3642072,0.528749029 74.7323391,0.528749029 C54.100471,0.528749029 35.4073783,8.81157731 21.8908948,22.1954157 C8.36656201,35.5792541 -0.000784929356,54.0835276 -0.000784929356,74.506993 C-0.000784929356,94.9304584 8.36656201,113.434732 21.8908948,126.81857 C35.4073783,140.202409 54.100471,148.485237 74.7323391,148.485237 C95.3642072,148.485237 114.061224,140.202409 127.577708,126.81857 C141.098116,113.434732 149.469388,94.9304584 149.465463,74.506993 L147.726845,74.506993 Z" mask="url(#faq_kv_2-b)"/>
    </g>
    <path fill="#A5B6F3" d="M89.8481162 55.0174825C88.5215856 56.6841492 86.6809262 57.7641803 84.5930141 57.7641803 82.9446625 57.7641803 81.6730769 57.2513598 80.8096546 56.3616939 79.9462323 55.475913 79.494898 54.2016317 79.494898 52.6670552 79.4909733 50.3243978 80.3818681 48.0011655 81.7908163 46.2684538 83.2036892 44.535742 85.1346154 43.3935509 87.2225275 43.3935509 88.7452904 43.3935509 89.9266091 43.9529915 90.7350863 44.9009324 91.5435636 45.8527584 91.9752747 47.2008547 91.9752747 48.7859363 91.9752747 51.1052836 91.1707221 53.3547009 89.8481162 55.0174825M94.483124 41.9716395C93.1330455 40.460373 91.1550235 39.5940171 88.6589482 39.5979021 87.2068289 39.5979021 85.8096546 40.1029526 84.5655416 40.9071484 83.4116954 41.6530692 82.450157 42.6592852 81.6534537 43.7470862L85.5663265 28.0710956C84.3143642 28.9257964 83.227237 29.5629371 81.5317896 29.5629371 79.883438 29.5629371 78.1801413 29.2637918 76.8810832 28.9024864 75.5820251 28.6616162 74.0317896 28.3585859 72.5286499 28.3585859 67.1793564 28.3585859 64.9266091 32.5777001 64.9266091 36.0120435 64.9266091 37.46892 65.2562794 38.7043512 65.7900314 39.8892774 64.938383 39.6989122 64.0160911 39.5979021 63.0427786 39.5979021 60.3779435 39.5979021 58.30573 40.3360528 56.8967818 41.505439 55.4878336 42.6748252 54.75 44.2793318 54.75 45.9887335 54.75 47.6981352 55.4799843 48.9335664 56.5788854 49.8970474 57.6777865 50.8644134 59.149529 51.5637141 60.6369702 52.2280497 61.8261381 52.7447552 62.9525118 53.2226107 63.7766876 53.7859363 64.1887755 54.0695416 64.5223705 54.3725719 64.7539246 54.7144522 64.9854788 55.0524476 65.1149922 55.4254079 65.1149922 55.8566434 65.1149922 56.2762238 65.0011774 56.6414141 64.7970958 56.9560995 64.4870487 57.4300699 63.9689953 57.7913753 63.3214286 58.0361305 62.6699372 58.2770008 61.8889325 58.4013209 61.0569074 58.4013209 59.5302198 58.4013209 58.0977237 58.0594406 57.116562 57.5738151 56.7908163 57.3912199 56.5592622 57.2513598 56.3748038 57.0804196 56.661303 56.7229992 56.849686 56.1985237 56.849686 55.7090132 56.849686 55.0563326 56.594584 54.454157 56.1628728 54.0112665 55.7311617 53.5722611 55.1189168 53.2964258 54.4124804 53.2964258 53.6746468 53.2964258 53.0270801 53.5955711 52.5639717 54.1006216 52.1008634 54.6017871 51.8222135 55.3049728 51.8222135 56.1013986 51.8222135 57.1542347 52.3284929 58.1021756 53.1801413 58.9413364 54.7813972 60.5769231 57.6738619 61.6608392 60.9587912 61.6608392 63.4980377 61.6608392 65.6291209 61.0819736 67.1322606 59.9747475 68.6354003 58.8636364 69.4988226 57.2241647 69.4988226 55.1223776 69.4988226 53.459596 68.7806122 52.2241647 67.7013344 51.2490287 66.6181319 50.2700078 65.1738619 49.543512 63.7099686 48.8830614 62.4697802 48.3158508 61.3198587 47.8030303 60.4839089 47.2280497 60.0639717 46.9444444 59.7264521 46.6414141 59.494898 46.3189588 59.2594192 45.9926185 59.1338305 45.6429681 59.1338305 45.2505828 59.1338305 44.512432 59.549843 43.9335664 60.2445055 43.529526 60.939168 43.1254856 61.9085557 42.9040404 62.9917582 42.9040404 64.0749608 42.9040404 65.1110675 43.0982906 65.8489011 43.3896659 66.2021193 43.521756 66.3905024 43.6499611 66.5357143 43.7470862 66.2099686 44.3104118 66.1079278 44.6639472 66.1079278 45.1029526 66.1079278 46.4160839 67.2264521 47.519425 68.5961538 47.519425 69.282967 47.519425 69.9187598 47.2435897 70.3818681 46.7579643 70.8449765 46.2762238 71.1354003 45.5846931 71.1354003 44.7610723 71.1354003 43.7626263 70.6801413 42.7641803 69.8795133 41.9716395 69.416405 41.493784 68.8316327 41.0780886 68.1565934 40.7284382 67.6856358 39.7066822 67.3795133 38.5644911 67.3795133 37.2785548 67.3795133 33.3624709 70.1267661 31.5520591 72.3284929 31.5520591 73.3802983 31.5520591 74.8795133 31.6142191 76.1824961 31.7346542 77.3324176 31.9133644 78.8316327 32.0337995 80.083595 32.0337995L80.0914443 32.0337995 73.1605181 61.2684538 77.6974097 61.2684538 78.6471743 56.9599845C79.4242543 59.7261072 82.0145212 61.6608392 85.13854 61.6608392 88.2586342 61.6608392 91.1157771 60.1418026 93.1879906 57.6981352 95.2602041 55.2583528 96.5553375 51.8939394 96.5553375 48.1993007 96.5553375 45.6351981 95.8332025 43.482906 94.483124 41.9716395M117.404631 102.773893L117.385008 102.828283C116.890502 104.168609 116.411695 105.019425 115.956436 105.532246 115.501177 106.041181 115.073391 106.216006 114.673077 106.216006 114.264914 106.216006 113.950942 106.076146 113.735086 105.819736 113.515306 105.563326 113.393642 105.18648 113.393642 104.708625 113.393642 104.327894 113.542779 103.644134 113.687991 103.010878L115.516876 96.7948718C115.86617 95.5672106 116.066327 94.3900544 116.066327 93.3527584 116.066327 91.4568765 115.430534 89.9494949 114.378728 88.9160839 113.326923 87.8826729 111.866954 87.3271173 110.222527 87.3271173 108.74686 87.3271173 107.314364 87.9215229 106.038854 88.8811189 104.86146 89.7668998 103.817504 90.971251 102.997253 92.3154623L104.500392 87.6689977 100.120487 87.6689977 94.8732339 108.877234 99.3434066 108.877234 102.220173 97.3815074C102.761774 95.2836053 103.648744 93.6907537 104.720173 92.6223776 105.791601 91.5578866 107.051413 91.013986 108.342622 91.013986 109.296311 91.013986 110.08124 91.3170163 110.630691 91.8414918 111.184066 92.3698524 111.498038 93.1235431 111.498038 94.040404 111.498038 94.7202797 111.399922 95.3496503 111.156593 96.1771562L111.152669 96.1771562 109.323783 102.536908 109.323783 102.540793C109.127551 103.325563 108.978414 104.257964 108.978414 104.95338 108.978414 106.188811 109.390502 107.257187 110.175432 108.014763 110.960361 108.772339 112.114207 109.219114 113.582025 109.219114 114.908556 109.219114 116.08595 108.760684 117.071036 107.820513 118.060047 106.880342 118.852826 105.4662 119.425824 103.550894L119.437598 103.496503 117.404631 102.773893z"/>
    <polygon fill="#A5B6F3" points="38.531 105.31 43.821 105.31 47.224 90.761 42.385 91.868 42.204 87.831 50.721 85.745 53.052 86.81 48.703 105.31 54.08 105.31 53.185 109.3 37.636 109.3"/>
    <path fill="#A5B6F3" d="M57.7511774,106.062937 C57.7511774,104.02331 59.411303,102.379953 61.4246468,102.379953 C63.4419152,102.379953 65.0981162,104.02331 65.0981162,106.062937 C65.0981162,108.059829 63.4419152,109.703186 61.4246468,109.703186 C59.411303,109.703186 57.7511774,108.059829 57.7511774,106.062937"/>
  </g>
</svg>
