<svg xmlns="http://www.w3.org/2000/svg" width="288" height="31" viewBox="0 0 288 31">
  <g fill="none" fill-rule="evenodd">
    <path fill="#A5B6F3" d="M8.736,26.224 L10.752,26.224 L16.416,13.264 L22.048,26.224 L24.064,26.224 L29.728,8.176 L31.968,8.176 L31.968,4.944 L23.008,4.944 L23.008,8.176 L25.888,8.176 L22.688,19.248 L17.472,6.992 L15.552,6.992 L10.336,19.248 L6.912,8.176 L9.696,8.176 L9.696,4.944 L0.736,4.944 L0.736,8.176 L2.976,8.176 L8.736,26.224 Z M35.616,5.52 L35.616,23.12 L33.536,23.12 L33.536,26 L41.024,26 L41.024,23.12 L39.104,23.12 L39.104,16.528 C40.224,15.6 41.504,14.896 42.72,14.896 C43.392,14.896 43.936,15.12 44.288,15.568 C44.576,15.952 44.736,16.496 44.736,17.264 L44.736,23.12 L42.816,23.12 L42.816,26 L50.304,26 L50.304,23.12 L48.224,23.12 L48.224,16.4 C48.224,15.12 47.904,14.032 47.296,13.232 C46.56,12.272 45.376,11.728 43.872,11.728 C41.888,11.728 40.416,12.848 39.104,14.096 L39.104,2.576 L33.536,2.576 L33.536,5.52 L35.616,5.52 Z M56.48,26.256 C54.08,26.256 51.936,24.944 51.936,22.32 C51.936,19.696 54.24,18.096 57.568,18.096 C59.008,18.096 60.352,18.288 61.12,18.48 L61.12,17.36 C61.12,16.528 60.928,15.888 60.576,15.44 C60,14.704 59.072,14.416 57.824,14.416 C57.216,14.416 56.768,14.512 56.448,14.64 C56.512,14.832 56.576,15.152 56.576,15.344 C56.576,16.4 55.744,17.168 54.688,17.168 C53.632,17.168 52.832,16.432 52.832,15.28 C52.832,13.552 54.592,11.728 58.4,11.728 C60.8,11.728 62.432,12.4 63.424,13.616 C64.16,14.512 64.512,15.728 64.512,17.136 L64.512,23.12 L66.592,23.12 L66.592,26 L61.184,26 L61.184,24.464 C60.064,25.424 58.368,26.256 56.48,26.256 Z M57.6,23.728 C58.848,23.728 60.064,23.248 61.12,22.48 L61.12,20.272 C60.32,20.08 59.328,19.952 58.24,19.952 C56.544,19.952 55.52,20.72 55.52,22 C55.52,23.12 56.352,23.728 57.6,23.728 Z M74.368,26.256 C75.648,26.256 76.768,25.904 77.728,25.424 L78.016,22.416 C77.184,22.8 76.16,23.152 75.264,23.152 C74.56,23.152 74.048,22.928 73.792,22.48 C73.632,22.192 73.568,21.904 73.568,21.456 L73.568,14.928 L77.824,14.928 L77.824,11.984 L73.568,11.984 L73.568,7.536 L70.112,9.04 L70.112,11.984 L67.392,11.984 L67.392,14.928 L70.112,14.928 L70.112,22.128 C70.112,23.024 70.272,23.76 70.592,24.336 C71.296,25.68 72.672,26.256 74.368,26.256 Z"/>
    <path fill="#FFB8AC" d="M89.544,9.84 C90.792,9.84 91.912,8.816 91.912,7.536 C91.912,6.256 90.856,5.232 89.608,5.232 C88.36,5.232 87.24,6.256 87.24,7.536 C87.24,8.816 88.296,9.84 89.544,9.84 Z M86.024,26 L93.736,26 L93.736,23.12 L91.656,23.12 L91.656,11.984 L86.024,11.984 L86.024,14.928 L88.168,14.928 L88.168,23.12 L86.024,23.12 L86.024,26 Z M107.752,15.088 C107.752,14.416 107.496,13.808 106.984,13.296 C106.024,12.336 103.976,11.696 102.28,11.696 C98.344,11.696 96.552,13.968 96.552,16.144 C96.552,18.544 98.184,19.472 102.056,20.496 C104.2,21.072 104.808,21.488 104.808,22.192 C104.808,23.216 103.656,23.696 102.248,23.696 C101.256,23.696 100.36,23.504 99.72,23.248 C99.752,23.056 99.784,22.864 99.784,22.672 C99.784,21.456 98.856,20.816 97.896,20.816 C96.808,20.816 96.04,21.68 96.04,22.704 C96.04,23.44 96.264,24.016 96.84,24.592 C97.768,25.52 100.072,26.288 102.216,26.288 C105.384,26.288 108.136,24.72 108.136,21.776 C108.136,19.248 106.184,18.416 102.824,17.52 C100.68,16.944 99.88,16.528 99.88,15.728 C99.88,14.992 100.648,14.288 102.216,14.288 C102.92,14.288 103.624,14.416 104.2,14.64 C104.136,14.832 104.136,15.024 104.136,15.248 C104.136,16.304 104.904,16.976 106.024,16.976 C107.048,16.976 107.752,16.208 107.752,15.088 Z M121,9.84 C122.248,9.84 123.368,8.816 123.368,7.536 C123.368,6.256 122.312,5.232 121.064,5.232 C119.816,5.232 118.696,6.256 118.696,7.536 C118.696,8.816 119.752,9.84 121,9.84 Z M117.48,26 L125.192,26 L125.192,23.12 L123.112,23.12 L123.112,11.984 L117.48,11.984 L117.48,14.928 L119.624,14.928 L119.624,23.12 L117.48,23.12 L117.48,26 Z M132.648,11.984 L127.208,11.984 L127.208,14.928 L129.288,14.928 L129.288,23.12 L127.208,23.12 L127.208,26 L134.696,26 L134.696,23.12 L132.776,23.12 L132.776,16.528 C133.896,15.6 135.176,14.896 136.392,14.896 C137.224,14.896 137.8,15.216 138.12,15.824 C138.312,16.176 138.408,16.688 138.408,17.264 L138.408,23.12 L136.488,23.12 L136.488,26 L143.976,26 L143.976,23.12 L141.896,23.12 L141.896,16.4 C141.896,15.248 141.64,14.288 141.16,13.52 C140.424,12.4 139.208,11.728 137.544,11.728 C135.496,11.728 133.992,12.912 132.648,14.224 L132.648,11.984 Z M152.52,26 L159.944,26 L159.944,23.12 L158.088,23.12 L158.088,16.464 C159.144,15.568 160.36,14.896 161.512,14.896 C162.344,14.896 162.888,15.216 163.176,15.888 C163.336,16.24 163.4,16.656 163.4,17.2 L163.4,23.12 L161.48,23.12 L161.48,26 L168.776,26 L168.776,23.12 L166.888,23.12 L166.888,16.464 C167.944,15.568 169.16,14.896 170.312,14.896 C171.112,14.896 171.688,15.216 171.976,15.888 C172.136,16.24 172.2,16.656 172.2,17.2 L172.2,23.12 L170.312,23.12 L170.312,26 L177.768,26 L177.768,23.12 L175.688,23.12 L175.688,16.368 C175.688,15.344 175.496,14.448 175.112,13.744 C174.408,12.432 173.064,11.728 171.112,11.728 C169.32,11.728 167.752,12.752 166.44,14.032 C166.312,13.744 166.184,13.488 165.992,13.232 C165.288,12.304 164.168,11.728 162.664,11.728 C160.584,11.728 159.048,13.008 157.96,14.192 L157.96,11.984 L152.52,11.984 L152.52,14.928 L154.6,14.928 L154.6,23.12 L152.52,23.12 L152.52,26 Z M185.8,30.544 C186.216,30.064 186.568,29.488 186.888,28.848 L193.448,14.928 L195.144,14.928 L195.144,11.984 L187.944,11.984 L187.944,14.768 L190.12,14.768 L186.856,22.16 L183.624,14.768 L185.672,14.768 L185.672,11.984 L178.44,11.984 L178.44,14.928 L180.168,14.928 L185.16,25.296 L184.104,27.504 C183.88,27.952 183.688,28.304 183.464,28.592 C183.08,29.104 182.696,29.328 182.344,29.424 C182.12,28.88 181.64,28.368 180.808,28.368 C179.88,28.368 179.08,28.976 179.08,30.16 C179.08,31.28 180.232,32.368 182.088,32.368 C183.496,32.368 184.776,31.728 185.8,30.544 Z M215.336,15.088 C215.336,14.416 215.08,13.808 214.568,13.296 C213.608,12.336 211.56,11.696 209.864,11.696 C205.928,11.696 204.136,13.968 204.136,16.144 C204.136,18.544 205.768,19.472 209.64,20.496 C211.784,21.072 212.392,21.488 212.392,22.192 C212.392,23.216 211.24,23.696 209.832,23.696 C208.84,23.696 207.944,23.504 207.304,23.248 C207.336,23.056 207.368,22.864 207.368,22.672 C207.368,21.456 206.44,20.816 205.48,20.816 C204.392,20.816 203.624,21.68 203.624,22.704 C203.624,23.44 203.848,24.016 204.424,24.592 C205.352,25.52 207.656,26.288 209.8,26.288 C212.968,26.288 215.72,24.72 215.72,21.776 C215.72,19.248 213.768,18.416 210.408,17.52 C208.264,16.944 207.464,16.528 207.464,15.728 C207.464,14.992 208.232,14.288 209.8,14.288 C210.504,14.288 211.208,14.416 211.784,14.64 C211.72,14.832 211.72,15.024 211.72,15.248 C211.72,16.304 212.488,16.976 213.608,16.976 C214.632,16.976 215.336,16.208 215.336,15.088 Z M226.728,26.256 C224.936,26.256 223.656,25.616 222.472,24.656 L221.704,26.064 L219.336,26.064 L219.336,5.52 L217.224,5.52 L217.224,2.576 L222.824,2.576 L222.824,13.52 C223.848,12.528 225.16,11.728 226.952,11.728 C230.664,11.728 233.448,14.704 233.448,18.928 C233.448,22.992 230.504,26.256 226.728,26.256 Z M226.152,23.248 C228.104,23.248 229.864,21.744 229.864,18.96 C229.864,16.272 228.2,14.736 226.152,14.736 C224.84,14.736 223.784,15.312 222.824,16.144 L222.824,22.16 C223.752,22.8 224.84,23.248 226.152,23.248 Z M243.08,26.256 C238.44,26.256 235.624,22.896 235.624,18.992 C235.624,15.152 238.504,11.728 243.08,11.728 C247.72,11.728 250.536,15.088 250.536,18.992 C250.536,22.832 247.656,26.256 243.08,26.256 Z M243.08,23.344 C245.352,23.344 246.952,21.552 246.952,18.992 C246.952,16.432 245.352,14.64 243.08,14.64 C240.808,14.64 239.208,16.432 239.208,18.992 C239.208,21.552 240.808,23.344 243.08,23.344 Z M260.168,26.256 C255.528,26.256 252.712,22.896 252.712,18.992 C252.712,15.152 255.592,11.728 260.168,11.728 C264.808,11.728 267.624,15.088 267.624,18.992 C267.624,22.832 264.744,26.256 260.168,26.256 Z M260.168,23.344 C262.44,23.344 264.04,21.552 264.04,18.992 C264.04,16.432 262.44,14.64 260.168,14.64 C257.896,14.64 256.296,16.432 256.296,18.992 C256.296,21.552 257.896,23.344 260.168,23.344 Z M275.144,11.984 L269.704,11.984 L269.704,14.928 L271.784,14.928 L271.784,23.12 L269.704,23.12 L269.704,26 L277.192,26 L277.192,23.12 L275.272,23.12 L275.272,16.528 C276.392,15.6 277.672,14.896 278.888,14.896 C279.72,14.896 280.296,15.216 280.616,15.824 C280.808,16.176 280.904,16.688 280.904,17.264 L280.904,23.12 L278.984,23.12 L278.984,26 L286.472,26 L286.472,23.12 L284.392,23.12 L284.392,16.4 C284.392,15.248 284.136,14.288 283.656,13.52 C282.92,12.4 281.704,11.728 280.04,11.728 C277.992,11.728 276.488,12.912 275.144,14.224 L275.144,11.984 Z"/>
  </g>
</svg>
