<svg xmlns="http://www.w3.org/2000/svg" xmlns:xlink="http://www.w3.org/1999/xlink" width="105" height="105" viewBox="0 0 105 105">
  <defs>
    <polygon id="icon_index_3-a" points="0 63.456 59.753 63.456 59.753 0 0 0"/>
  </defs>
  <g fill="none" fill-rule="evenodd" transform="translate(23 21)">
    <path fill="#FFB8AC" d="M25.4645901,50.6195027 C25.7560815,48.3460613 25.063135,45.7416649 22.9534592,43.9750342 C21.1858929,42.493809 18.7317802,40.9699171 17.9806519,40.6147459 C20.4324373,37.7820252 21.6978937,36.3855568 21.6978937,33.7459892 C21.6978937,30.1625658 19.5032723,27.5316468 17.4407238,24.637809 C15.7639213,22.2848 14.5031195,19.6354306 14.5031195,19.6354306 C14.5031195,19.6354306 13.221954,21.9123315 11.7156245,24.4509982 C10.2087132,26.9896649 8.43823785,29.7802955 8.43823785,31.0585658 C8.43823785,32.1269622 12.8367898,38.3758991 15.912867,42.6131604 L15.9122852,42.6137369 L15.912867,42.6143135 C15.9198488,42.6171964 18.6305437,43.4336288 21.6222572,45.840836 C24.2968793,47.993773 24.5982616,50.0596468 23.5812419,54.0910703 C23.5812419,54.0910703 25.2004443,52.6726919 25.4645901,50.6195027 Z M28.6186311,25.0961874 C28.0321575,25.7967279 27.7144844,26.7036829 27.7144844,27.7380613 L27.7144844,57.3389261 L9.64318508,57.3389261 C9.64318508,57.3389261 10.135404,53.3617009 12.4167164,48.3351063 C8.02165542,43.2664216 0.000116363807,33.6612324 0.000116363807,31.0585658 C0.000116363807,27.4745658 12.7099532,7.16696216 12.7099532,7.16696216 C12.7099532,7.16696216 12.7210078,7.16869189 12.7221714,7.16869189 C13.5576636,5.7457009 15.0954113,4.77820541 16.8757775,4.77820541 L21.6978937,4.77820541 C21.6978937,4.77820541 22.9028409,4.77820541 22.9028409,3.58353874 L22.9028409,0.000115315315 L31.3409624,0.000115315315 L31.3409624,3.58353874 C31.3409624,4.77820541 32.5464915,4.77820541 32.5464915,4.77820541 L36.1624968,4.77820541 C38.8254825,4.77820541 40.9846129,6.91788108 40.9846129,9.5562955 C40.9846129,12.375755 43.6586532,15.0551063 45.0236007,17.6583495 L31.0570347,17.6583495 C29.213832,17.6583495 27.7144844,19.144764 27.7144844,20.9713586 L27.7144844,22.8256288 C27.7144844,23.6962595 28.0519394,24.4988541 28.6186311,25.0961874 Z"/>
    <path fill="#A5B6F3" d="M58.4277222,24.8123964 C58.9141229,24.6065586 59.3103417,24.2294775 59.5389966,23.7584144 C59.6763059,23.4764685 59.753106,23.1593514 59.753106,22.8255135 L59.753106,20.9712432 C59.753106,20.3756396 59.508742,19.835964 59.1142687,19.445045 C58.7197954,19.0541261 58.1752127,18.811964 57.5741937,18.811964 C57.5741937,18.811964 30.7598997,18.826955 30.6185177,18.8557838 C30.33459,18.9134414 30.071026,19.0258739 29.839462,19.180973 C29.2599703,19.5695856 28.8777152,20.2268829 28.8777152,20.9712432 L28.8777152,22.8255135 C28.8777152,23.7163243 29.424625,24.4825946 30.2030989,24.8123964 C30.3142264,24.8596757 30.4300083,24.8977297 30.5498631,24.925982 L30.5498631,25.0707027 C30.2240444,25.2142703 29.9075349,25.4212613 29.6393163,25.7003243 C29.1913156,26.165045 28.8777152,26.8304144 28.8777152,27.7379459 L28.8777152,57.3388108 L28.8777152,57.6576577 L28.8777152,58.5144505 C28.8777152,60.3877477 29.9348803,62.0206126 31.4895008,62.8583784 C31.771683,63.0105946 32.070738,63.1368649 32.382593,63.2331532 C32.5385205,63.2815856 32.697939,63.3225225 32.8602665,63.3553874 C33.1843397,63.4211171 33.5200492,63.4557117 33.8639043,63.4557117 L44.2557741,63.4557117 L44.375047,63.4557117 L54.7669168,63.4557117 C55.4546269,63.4557117 56.1097552,63.3173333 56.7061197,63.0670991 C57.004011,62.9414054 57.2879387,62.7886126 57.5532482,62.611027 C58.0838672,62.2552793 58.5417587,61.8009369 58.9001593,61.2750991 C59.4389237,60.4869189 59.753106,59.5367207 59.753106,58.5144505 L59.753106,27.7379459 C59.753106,27.0114595 59.5523784,26.4406486 59.2428507,26.0036036 C58.933323,25.5665586 58.5155769,25.2627027 58.0809581,25.0707027 L58.0809581,24.925982 C58.2008128,24.8977297 58.3165948,24.8596757 58.4277222,24.8123964"/>
    <path fill="#FFF" d="M57.5530155 62.6107964C57.287706 62.788382 57.0043601 62.9417514 56.705887 63.0668685 57.0043601 62.9417514 57.287706 62.788382 57.5530155 62.6107964M59.7529896 58.5145081C59.7529896 59.5362018 59.4388073 60.4864 58.9006247 61.2751568 59.4388073 60.4864 59.7529896 59.5362018 59.7529896 58.5145081L59.7529896 27.7380036C59.7529896 27.0115171 59.552262 26.4407063 59.2427343 26.0036613 59.552262 26.4407063 59.7529896 27.0115171 59.7529896 27.7380036L59.7529896 58.5145081zM30.5500958 24.925809C30.4302411 24.8975568 30.3144591 24.8595027 30.2033316 24.8122234 30.3144591 24.8595027 30.4302411 24.8975568 30.5500958 24.925809L30.5500958 25.0705297C30.2242771 25.2140973 29.9077676 25.4210883 29.6389672 25.7001514 29.9077676 25.4210883 30.2242771 25.2140973 30.5500958 25.0705297L30.5500958 24.925809zM29.8393457 19.1812036C30.0709096 19.0255279 30.3350555 18.9136721 30.6184013 18.8560144 30.3350555 18.9136721 30.0709096 19.0255279 29.8393457 19.1812036M31.0569184 18.811791C30.906809 18.811791 30.7596088 18.826782 30.6182268 18.8556108 30.7596088 18.826782 30.906809 18.811791 31.0569184 18.811791"/>
    <mask id="icon_index_3-b" fill="#fff">
      <use xlink:href="#icon_index_3-a"/>
    </mask>
    <polygon fill="#FFF" points="30.007 57.244 58.555 57.244 58.555 30.807 30.007 30.807" mask="url(#icon_index_3-b)"/>
    <polygon fill="#B4B5B5" points="31.434 55.922 57.127 55.922 57.127 32.13 31.434 32.13" mask="url(#icon_index_3-b)"/>
    <path fill="#FFB8AC" d="M31.434228,32.1685333 C38.2775835,32.1685333 43.825228,37.4857225 43.825228,44.0454342 C43.825228,50.6045694 38.2775835,55.9217586 31.434228,55.9217586 L31.434228,32.1685333 Z" mask="url(#icon_index_3-b)"/>
    <path fill="#A5B6F3" d="M31.434228,55.9218739 C31.434228,49.1125045 37.1930728,43.5923604 44.2976651,43.5923604 C51.4022573,43.5923604 57.1611022,49.1125045 57.1611022,55.9218739 L31.434228,55.9218739 Z" mask="url(#icon_index_3-b)"/>
    <path fill="#FFF" d="M38.6970169 54.101218C38.6120713 54.2026955 38.4945438 54.2655423 38.3647982 54.2655423 38.268798 54.2655423 38.1844343 54.2326775 38.1233433 54.1715604 38.0628341 54.1098667 38.0255977 54.0199207 38.0255977 53.9046054 38.0255977 53.7495063 38.0785432 53.6093982 38.1634888 53.5090739 38.2484344 53.408173 38.3659618 53.3459027 38.4957075 53.3459027 38.5917076 53.3459027 38.6760714 53.3793441 38.7371624 53.4398847 38.7976715 53.5010018 38.834908 53.5903712 38.834908 53.7039568 38.834908 53.8590559 38.7819624 53.9997405 38.6970169 54.101218M38.5079257 53.1100829C38.2874163 53.1100829 38.0959978 53.2063712 37.960434 53.3539748 37.8242883 53.5010018 37.7439973 53.6999207 37.7439973 53.9046054 37.7439973 54.063164 37.7986883 54.2113441 37.9022521 54.3203171 38.0058158 54.4292901 38.1582524 54.4984793 38.35258 54.4984793 38.5730894 54.4984793 38.7645079 54.402191 38.9000717 54.255164 39.0362174 54.1081369 39.1165084 53.9103712 39.1165084 53.7068396 39.1165084 53.5471279 39.0618174 53.3977946 38.9582536 53.288245 38.8546898 53.1792721 38.7022532 53.1100829 38.5079257 53.1100829M40.2853828 54.101218C40.2004372 54.2026955 40.0829098 54.2655423 39.9531642 54.2655423 39.857164 54.2655423 39.7728003 54.2326775 39.7117093 54.1715604 39.6512001 54.1098667 39.6139637 54.0199207 39.6139637 53.9046054 39.6139637 53.7495063 39.6669092 53.6093982 39.7518548 53.5090739 39.8368003 53.408173 39.9543278 53.3459027 40.0840734 53.3459027 40.1800736 53.3459027 40.2644373 53.3793441 40.3255283 53.4398847 40.3860375 53.5010018 40.4232739 53.5903712 40.4232739 53.7039568 40.4232739 53.8590559 40.3703284 53.9997405 40.2853828 54.101218M40.0968735 53.1100829C39.8757822 53.1100829 39.6843638 53.2063712 39.5487999 53.3539748 39.4126543 53.5010018 39.3323632 53.6999207 39.3323632 53.9046054 39.3323632 54.063164 39.3870542 54.2113441 39.490618 54.3203171 39.5941818 54.4292901 39.7466184 54.4984793 39.940946 54.4984793 40.1614554 54.4984793 40.3528738 54.402191 40.4890195 54.255164 40.6245833 54.1081369 40.7054562 53.9103712 40.7054562 53.7068396 40.7054562 53.5471279 40.6501834 53.3977946 40.5466196 53.288245 40.4430558 53.1792721 40.2906192 53.1100829 40.0968735 53.1100829M42.3038294 54.0885333L42.3026658 54.0919928C42.2712476 54.1767495 42.240993 54.2303712 42.2124838 54.2626595 42.1833929 54.2949477 42.1566292 54.3059027 42.131611 54.3059027 42.106011 54.3059027 42.0856473 54.2966775 42.0722655 54.2805333 42.0588836 54.2649658 42.0507381 54.2407495 42.0507381 54.2107676 42.0507381 54.1865514 42.0600473 54.1433081 42.0693564 54.1035243L42.1845565 53.7108757C42.2066656 53.6336144 42.2188838 53.559236 42.2188838 53.4940829 42.2188838 53.374155 42.1793202 53.2790198 42.1129928 53.2132901 42.0466654 53.1481369 41.9541562 53.1135423 41.8505924 53.1135423 41.7580832 53.1135423 41.6673194 53.1510198 41.5870284 53.2115604 41.5125555 53.2674883 41.44681 53.3435964 41.3950281 53.4283532L41.4898646 53.1348757 41.2135006 53.1348757 40.8824455 54.4736865 41.1646278 54.4736865 41.3461553 53.7483532C41.3804826 53.6157405 41.4363372 53.5148396 41.5038283 53.4479568 41.5713193 53.3799207 41.6504466 53.3459027 41.7324831 53.3459027 41.7924105 53.3459027 41.8418651 53.3649297 41.8767743 53.3983712 41.9111016 53.4318126 41.9308834 53.4790919 41.9314652 53.5367495 41.9314652 53.5799928 41.9250652 53.6197766 41.9093561 53.6716685L41.794156 54.0735423 41.794156 54.0741189C41.7819378 54.1237045 41.7720468 54.1825153 41.7720468 54.2257586 41.7720468 54.304173 41.7982287 54.3716324 41.8476833 54.4194883 41.8971379 54.4673441 41.9698653 54.4955964 42.0629563 54.4955964 42.1461565 54.4955964 42.2206293 54.466191 42.2828839 54.4073802 42.3451386 54.3479928 42.395175 54.2580468 42.4312478 54.1375423L42.4318296 54.1340829 42.3038294 54.0885333zM37.0961418 54.0814991C37.0129417 54.186436 36.8977415 54.2538955 36.7668322 54.2538955 36.6632684 54.2538955 36.5835592 54.2221838 36.52945 54.1662559 36.4753409 54.1103279 36.4468317 54.0307604 36.4468317 53.9338955 36.4468317 53.7868685 36.5026864 53.6415712 36.5911229 53.5325982 36.6795593 53.4236252 36.8005777 53.3521297 36.931487 53.3521297 37.0269053 53.3521297 37.1013781 53.3873009 37.1519964 53.4466883 37.2026147 53.5066523 37.2293783 53.5908324 37.2293783 53.6905802 37.2293783 53.8364541 37.1793419 53.9771387 37.0961418 54.0814991M37.3870513 53.2633369C37.3021057 53.1682018 37.1781783 53.1140036 37.0216689 53.1140036 36.9303234 53.1140036 36.8424687 53.1457153 36.7650867 53.1958775 36.6929412 53.2431568 36.632432 53.3060036 36.5823956 53.3746162L36.8279232 52.3904C36.7493776 52.4440216 36.6813048 52.484382 36.5748319 52.484382 36.4712681 52.484382 36.3647952 52.465355 36.2833406 52.4428685 36.2018859 52.4273009 36.1047221 52.4088505 36.0104675 52.4088505 35.6753397 52.4088505 35.5339577 52.6734991 35.5339577 52.8891387 35.5339577 52.9802378 35.5549031 53.0580757 35.5880668 53.1324541 35.5345395 53.1203459 35.4769394 53.1140036 35.4158484 53.1140036 35.2488663 53.1140036 35.1191207 53.1601297 35.0306842 53.2339315 34.9422477 53.3071568 34.8957022 53.4074811 34.8957022 53.5153009 34.8957022 53.6225441 34.9416659 53.6998054 35.0109023 53.7603459 35.079557 53.8208865 35.1714844 53.8652829 35.2651573 53.9067964 35.3396301 53.9390847 35.410612 53.9690667 35.4618121 54.0042378 35.4874121 54.0221117 35.5083576 54.0411387 35.5229031 54.0624721 35.5374486 54.0838054 35.545594 54.107445 35.545594 54.1345441 35.545594 54.1604901 35.5386122 54.1835532 35.5258122 54.2031568 35.5066122 54.2331387 35.4740303 54.2556252 35.433303 54.2711928 35.3925756 54.2861838 35.343121 54.2942559 35.2913391 54.2942559 35.195339 54.2942559 35.1057389 54.2729225 35.0446479 54.2417874 35.0237024 54.2302559 35.0097387 54.2216072 34.9981023 54.2112288 35.0155569 54.1887423 35.0277751 54.1553009 35.0277751 54.1253189 35.0277751 54.0838054 35.0114842 54.0463279 34.9847205 54.0186523 34.957375 53.9909766 34.9189749 53.9736793 34.8747567 53.9736793 34.828793 53.9736793 34.7880657 53.9927063 34.7589747 54.0238414 34.7298838 54.0555532 34.7124292 54.099373 34.7124292 54.1495351 34.7124292 54.2158414 34.7444292 54.2752288 34.7973748 54.3276973 34.8980295 54.4303279 35.0789752 54.498364 35.2849391 54.498364 35.4443575 54.498364 35.5781759 54.4620396 35.6718488 54.3928505 35.7661035 54.3230847 35.8207944 54.2198775 35.8207944 54.088418 35.8207944 53.9840577 35.7754126 53.9062198 35.7079216 53.8451027 35.6398487 53.783409 35.5496668 53.738436 35.4577394 53.6969225 35.3797756 53.6611748 35.3076301 53.6288865 35.2552663 53.5925622 35.2290845 53.5752649 35.2075572 53.5562378 35.1930117 53.5354811 35.1790481 53.5153009 35.1703208 53.493391 35.1703208 53.4691748 35.1703208 53.4224721 35.1965026 53.3861477 35.2407209 53.3607784 35.2837755 53.335409 35.3448665 53.3215712 35.4123575 53.3215712 35.4804303 53.3215712 35.545594 53.3336793 35.5915577 53.3521297 35.6136669 53.3602018 35.6258851 53.3682739 35.6346124 53.3740396 35.6142487 53.4097874 35.6078487 53.4322739 35.6078487 53.459373 35.6078487 53.5418234 35.677667 53.6110126 35.7637762 53.6110126 35.8068308 53.6110126 35.8469763 53.5937153 35.8760673 53.5637333 35.9051582 53.5331748 35.9231946 53.4899315 35.9231946 53.4380396 35.9231946 53.3751928 35.8946855 53.3129225 35.844649 53.2627604L35.8440672 53.2627604C35.8149763 53.2327784 35.7789035 53.2068324 35.7364307 53.1849225 35.7067579 53.1209225 35.6875579 53.0488505 35.6875579 52.9681297 35.6875579 52.7225081 35.8597763 52.6089225 35.9976674 52.6089225 36.0639948 52.6089225 36.1576677 52.6129586 36.2391223 52.6204541 36.3112679 52.6319856 36.4055226 52.6394811 36.4840681 52.6394811L36.48465 52.6394811 36.0500311 54.4741477 36.3345407 54.4741477 36.3938862 54.2037333C36.442759 54.3772829 36.6050865 54.498364 36.8011595 54.498364 36.9966507 54.498364 37.1752692 54.4032288 37.3055966 54.2498595 37.4353423 54.0964901 37.5167969 53.8854631 37.5167969 53.6536793 37.5167969 53.4928144 37.4714151 53.3578955 37.3870513 53.2633369" mask="url(#icon_index_3-b)"/>
    <polygon fill="#FFF" points="48.816 39.171 49.511 39.171 49.449 39.437 48.754 39.437" mask="url(#icon_index_3-b)"/>
    <path fill="#FFF" d="M54.5953384,38.1437117 L54.5063201,38.1437117 C54.5063201,39.1417658 54.0984649,40.0446847 53.4381003,40.6990991 C52.7777357,41.3535135 51.8666071,41.7576937 50.8594784,41.7576937 C49.8517678,41.7576937 48.9406392,41.3535135 48.2802746,40.6990991 C47.6204918,40.0446847 47.2126366,39.1417658 47.2126366,38.1437117 C47.2126366,37.1456577 47.6204918,36.2421622 48.2802746,35.5877477 C48.9406392,34.9339099 49.8517678,34.5291532 50.8594784,34.5291532 C51.8666071,34.5291532 52.7777357,34.9339099 53.4381003,35.5877477 C54.0984649,36.2421622 54.5063201,37.1456577 54.5063201,38.1437117 L54.5953384,38.1437117 L54.6843567,38.1437117 C54.6843567,37.0972252 54.2561379,36.1487568 53.5643551,35.4632072 C52.8725722,34.7776577 51.9154799,34.3527207 50.8594784,34.3527207 C49.8034768,34.3527207 48.8463845,34.7776577 48.1546017,35.4632072 C47.462237,36.1487568 47.0340182,37.0972252 47.0340182,38.1437117 C47.0340182,39.1901982 47.462237,40.1380901 48.1546017,40.8242162 C48.8463845,41.5097658 49.8034768,41.9341261 50.8594784,41.9341261 C51.9154799,41.9341261 52.8725722,41.5097658 53.5643551,40.8242162 C54.2561379,40.1380901 54.6843567,39.1901982 54.6843567,38.1437117 L54.5953384,38.1437117 Z" mask="url(#icon_index_3-b)"/>
    <path fill="#FFF" d="M51.6328322 37.128245C51.5647594 37.2135784 51.4705047 37.2689297 51.3640318 37.2689297 51.2796681 37.2689297 51.2145043 37.2429838 51.1702861 37.1974342 51.1260678 37.1518847 51.1027951 37.0867315 51.1027951 37.0077405 51.1027951 36.8878126 51.148177 36.7684613 51.2209043 36.680245 51.2930499 36.5914523 51.3913773 36.5326414 51.498432 36.5326414 51.5763958 36.5326414 51.636905 36.5614703 51.6782141 36.6099027 51.7195233 36.6589117 51.7416324 36.7281009 51.7416324 36.8088216 51.7416324 36.9275964 51.7009051 37.0429117 51.6328322 37.128245M51.8702144 36.4599928C51.8009779 36.3827315 51.6997414 36.3377586 51.572323 36.3377586 51.4978502 36.3377586 51.4262865 36.3642811 51.3628682 36.405218 51.3035226 36.4438486 51.254068 36.495164 51.2133407 36.5510919L51.4140683 35.7473441C51.3494864 35.791164 51.2936317 35.8240288 51.2075225 35.8240288 51.1231587 35.8240288 51.0358859 35.8084613 50.9689767 35.7900108 50.9026493 35.7779027 50.8229401 35.7623351 50.7467218 35.7623351 50.4726851 35.7623351 50.3574849 35.9785514 50.3574849 36.1544072 50.3574849 36.2287856 50.3743576 36.292209 50.4017031 36.3533261 50.3580667 36.3435243 50.3109394 36.3377586 50.2609029 36.3377586 50.1241755 36.3377586 50.0182844 36.3758126 49.9461388 36.4357766 49.8745751 36.4957405 49.836175 36.5776144 49.836175 36.6658306 49.836175 36.7534703 49.8739933 36.8163171 49.9298479 36.8659027 49.9862844 36.9154883 50.061339 36.951236 50.1375573 36.9852541L50.1375573 36.9852541C50.1986483 37.0117766 50.2562484 37.0359928 50.2987212 37.0653982 50.3196667 37.0798126 50.3365394 37.0953802 50.3481758 37.1126775 50.360394 37.1299748 50.366794 37.1495784 50.366794 37.1714883 50.366794 37.1928216 50.3609758 37.2118486 50.3505031 37.2274162 50.334794 37.2516324 50.3086121 37.2706595 50.2754484 37.2827676 50.2417029 37.2954523 50.2021392 37.3017946 50.1590846 37.3017946 50.0811209 37.3017946 50.0078117 37.2844973 49.9577752 37.2591279 49.9409025 37.2499027 49.9292661 37.2429838 49.9193752 37.2337586 49.9345025 37.2153081 49.9438116 37.1887856 49.9438116 37.1639928 49.9438116 37.1299748 49.9310115 37.0994162 49.9089024 37.0769297 49.8867933 37.0544432 49.8553751 37.0400288 49.8193023 37.0400288 49.781484 37.0400288 49.7483204 37.0555964 49.7244658 37.0809658 49.7006112 37.1069117 49.6866475 37.1426595 49.6866475 37.184173 49.6866475 37.2377946 49.7122476 37.286227 49.755884 37.3294703L49.755884 37.3294703C49.8379205 37.4130739 49.9857025 37.4684252 50.1538482 37.4684252 50.2841757 37.4684252 50.3935577 37.4390198 50.469776 37.3819387 50.5471579 37.3254342 50.5913761 37.2412541 50.5913761 37.1334342 50.5913761 37.0486775 50.5547215 36.9852541 50.4994487 36.9350919 50.4441759 36.8849297 50.3702849 36.8480288 50.2952303 36.8140108 50.231812 36.785182 50.1724664 36.7586595 50.1299937 36.7292541 50.1084663 36.7148396 50.0910118 36.6992721 50.0793754 36.6825514 50.0671572 36.6658306 50.0607572 36.6479568 50.0607572 36.6277766 50.0607572 36.5902991 50.0817027 36.5603171 50.1177755 36.5395604 50.1532664 36.5188036 50.202721 36.5072721 50.2585757 36.5072721 50.3138485 36.5072721 50.366794 36.5176505 50.4046122 36.5326414 50.4226486 36.5395604 50.4325396 36.5459027 50.4395214 36.5510919 50.4226486 36.5793441 50.4179941 36.5977946 50.4179941 36.6202811 50.4179941 36.687164 50.4750123 36.7436685 50.5448306 36.7436685 50.5803216 36.7436685 50.6129035 36.7298306 50.636758 36.7050378 50.6606126 36.680245 50.6751581 36.6450739 50.6751581 36.6024072 50.6751581 36.5516685 50.6518853 36.5003532 50.6105762 36.4599928L50.6105762 36.4594162C50.5873034 36.4352 50.5570488 36.4138667 50.5227215 36.3959928 50.4982851 36.3441009 50.482576 36.2852901 50.482576 36.2195604 50.482576 36.0189117 50.6233762 35.9260829 50.7362491 35.9260829 50.7897764 35.9260829 50.8665766 35.9289658 50.9334857 35.9353081 50.9922495 35.9445333 51.0690496 35.9508757 51.1330497 35.9508757L51.1336315 35.9508757 50.7787219 37.4488216 51.0108677 37.4488216 51.0597405 37.2279928C51.0993042 37.3692541 51.2319589 37.4684252 51.3919591 37.4684252 51.5513776 37.4684252 51.6974141 37.391164 51.803887 37.2654703 51.9103599 37.1403532 51.9761055 36.9685333 51.9761055 36.7788396 51.9761055 36.6473802 51.9394509 36.5372541 51.8702144 36.4599928M53.0433361 39.5753514L53.0427543 39.5782342C53.0171543 39.6468468 52.9927179 39.6906667 52.9694451 39.7166126 52.9461723 39.7431351 52.9240632 39.7517838 52.9036995 39.7517838 52.8827541 39.7517838 52.8664631 39.7442883 52.8554086 39.7316036 52.844354 39.7183423 52.837954 39.6993153 52.837954 39.6745225 52.837954 39.6549189 52.8455176 39.6203243 52.8530813 39.5874595L52.9467542 39.2691892C52.9647905 39.2063423 52.9746815 39.1458018 52.9746815 39.0927568 52.9746815 38.9958919 52.9420996 38.9180541 52.8885723 38.8655856 52.8350449 38.8125405 52.7599902 38.7837117 52.6756265 38.7837117 52.59999 38.7837117 52.5266808 38.8142703 52.4615171 38.8632793 52.4010079 38.9088288 52.3480624 38.9705225 52.3055896 39.0397117L52.3829715 38.8015856 52.1583894 38.8015856 51.8901708 39.8878559 52.1188257 39.8878559 52.2666077 39.2991712 52.2660259 39.2991712C52.2939532 39.1913514 52.3393351 39.1100541 52.3940261 39.0552793 52.4492989 39.0005045 52.513299 38.9728288 52.5796263 38.9728288 52.6284991 38.9728288 52.6686447 38.9883964 52.696572 39.0154955 52.7250811 39.0425946 52.7407902 39.0812252 52.7407902 39.1279279 52.7407902 39.1625225 52.7361357 39.1948108 52.7233356 39.2374775L52.6302446 39.5632432 52.6296628 39.5632432C52.6197719 39.6036036 52.6122082 39.6514595 52.6122082 39.6872072 52.6122082 39.7506306 52.6331537 39.8048288 52.6732992 39.844036 52.7134447 39.8826667 52.7727903 39.9057297 52.8478449 39.9057297 52.9153359 39.9057297 52.9758451 39.8820901 53.0264634 39.8342342 53.0770816 39.7858018 53.1172271 39.7131532 53.1468999 39.6151351L53.1474817 39.6122523 53.0433361 39.5753514z" mask="url(#icon_index_3-b)"/>
  </g>
</svg>
