<svg xmlns="http://www.w3.org/2000/svg" width="105" height="105" viewBox="0 0 105 105">
  <g fill="none" fill-rule="evenodd" transform="translate(1 17)">
    <path fill="#A5B6F3" d="M43.9671249,40.8031538 C43.8432322,40.8031538 43.718842,40.7887552 43.5979346,40.759958 L41.6435151,40.2947343 C40.7921883,40.0916643 40.2647737,39.2356923 40.4677785,38.3856783 L40.5155444,38.1840979 L39.1706371,37.8638531 C38.8656322,38.4536993 38.223281,39.1458252 37.1450663,39.1458252 C36.9286273,39.1458252 36.7002468,39.117028 36.4663932,39.0619161 L4.03288098,31.3393007 C1.56497854,30.7514406 0.0364712195,28.2699161 0.625085854,25.8072587 L5.83405171,4.02366434 C6.33061756,1.94679021 8.16960293,0.496503497 10.3066273,0.496503497 C10.6653688,0.496503497 11.0256029,0.539202797 11.3773785,0.623111888 L43.8113883,8.34523077 C45.302081,8.70023077 45.686198,9.81736364 45.6857005,10.6336154 L47.0271249,10.9528671 L47.0753883,10.7512867 C47.2465493,10.0348322 47.8814371,9.53435664 48.6188224,9.53435664 C48.7427151,9.53435664 48.8671054,9.54925175 48.9880127,9.57804895 L50.9424322,10.0432727 C51.3549102,10.1415804 51.704198,10.3943007 51.9266078,10.7547622 C52.14852,11.1152238 52.2166859,11.5402308 52.1181688,11.9518322 L45.510559,39.5862238 C45.339398,40.3026783 44.7045102,40.8031538 43.9671249,40.8031538"/>
    <path fill="#A5B6F3" d="M10.3064283,0.000198601399 L10.3064283,0.000198601399 C7.93853561,0.000198601399 5.90052585,1.60738042 5.35022341,3.90817762 L2.76041854,14.7379119 L2.73056488,14.8625343 L0.141257561,25.6922685 C-0.174693659,27.0144573 0.0437356098,28.379842 0.757238049,29.5376881 C1.47024293,30.6955343 2.59274049,31.506821 3.91774537,31.8225972 L36.3512576,39.5447161 C36.6224283,39.6092615 36.8896185,39.6420308 37.1448673,39.6420308 C38.2529356,39.6420308 38.98236,39.0462266 39.4067795,38.4305622 L39.9356868,38.5561776 C39.8919015,39.0045203 39.9948966,39.4528629 40.2352185,39.8431147 C40.5272868,40.316779 40.986038,40.6484434 41.527882,40.7775343 L43.4823015,41.242758 C43.641521,41.2804923 43.8042234,41.2998559 43.9669259,41.2998559 C44.9361746,41.2998559 45.7695893,40.6424853 45.9944868,39.7016112 L52.6020966,12.0672196 C52.8692868,10.9515762 52.1761844,9.8269958 51.0581649,9.56037343 L49.1037454,9.09514965 C48.9445259,9.05741538 48.7818234,9.03805175 48.6186234,9.03805175 C47.7478917,9.03805175 46.9866234,9.56881399 46.6781356,10.3592476 L46.1556966,10.2351217 C46.0258332,9.26991888 45.4158234,8.21683497 43.9266234,7.86233147 L11.4931112,0.140212587 C11.103521,0.0473664336 10.7039795,0.000198601399 10.3064283,0.000198601399 M10.3064283,0.993205594 C10.621882,0.993205594 10.9423112,1.02994685 11.2622429,1.10591189 L43.6957551,8.82852727 C45.5252868,9.26396084 45.1501259,11.0166182 45.1501259,11.0166182 L47.3956185,11.5513524 L47.5593161,10.8666741 C47.6787307,10.3671916 48.1255405,10.0310587 48.6186234,10.0310587 C48.7027112,10.0310587 48.7877941,10.0409888 48.8728771,10.060849 L50.826799,10.5265692 C51.4124283,10.6655902 51.7741551,11.2524573 51.6343405,11.836842 L45.0267307,39.4712336 C44.9073161,39.9707161 44.4605063,40.306849 43.9669259,40.306849 C43.8833356,40.306849 43.7982527,40.2974154 43.7131698,40.2770587 L41.7587502,39.811835 C41.173121,39.671821 40.8118917,39.0854503 40.9517063,38.5010657 L41.1154039,37.8163874 L38.8699112,37.2816531 C38.8699112,37.2816531 38.5081844,38.6490238 37.1448673,38.6490238 C36.9737063,38.6490238 36.7861259,38.6276741 36.5821259,38.5790168 L4.14861366,30.8564014 C1.94392098,30.3315972 0.583091707,28.1226531 1.10901366,25.9226462 L3.69881854,15.0929119 L3.72817463,14.9682895 L6.31797951,4.13855524 C6.76777463,2.2582965 8.45052585,0.993205594 10.3064283,0.993205594"/>
    <polygon fill="#FFF" points="12.468 1.393 5.355 31.143 33.214 37.777 40.328 8.026"/>
    <polygon fill="#B4B5B5" points="13.505 3.212 7.103 29.988 32.176 35.958 38.579 9.182"/>
    <path fill="#FFB8AC" d="M38.5379385,9.17240559 C36.8322995,16.3041818 29.8465434,20.7513636 22.9339288,19.1054545 C16.0213141,17.4595455 11.8000068,10.3441538 13.5051483,3.21237762 L38.5379385,9.17240559 Z"/>
    <path fill="#A5B6F3" d="M13.5053473,3.21217902 C20.6811717,4.92064755 25.0631912,12.3076266 23.2933668,19.7109902 C21.5230449,27.1148503 14.2705961,31.7313399 7.09477171,30.0233678 L13.5053473,3.21217902 Z"/>
    <path fill="#FFF" d="M13.6142137 11.2379594C13.5286332 11.1237636 13.4913161 10.9857357 13.5236576 10.8501902 13.548038 10.750393 13.6037649 10.6704559 13.6833746 10.6222951 13.763482 10.5746308 13.8674722 10.5582462 13.9888771 10.5870434 14.1525746 10.6262671 14.2864185 10.7161343 14.3715015 10.8303301 14.4565844 10.9445259 14.4929063 11.0825538 14.4605649 11.2176028 14.436682 11.3174 14.3809551 11.3973371 14.3013454 11.4454979 14.2217356 11.4936587 14.1182429 11.5095469 13.9988283 11.4812462 13.8351307 11.4425189 13.7002917 11.3521552 13.6142137 11.2379594M14.7058624 11.2895958C14.7610917 11.0597147 14.7068576 10.8357916 14.5854527 10.6575469 14.4640478 10.4788056 14.2749746 10.3452462 14.0590332 10.2936098 13.8923502 10.2538895 13.7216868 10.2737497 13.5813746 10.3546797 13.4405649 10.4351133 13.3301063 10.5766168 13.2818429 10.7786937 13.2266137 11.0090713 13.2803502 11.2324979 13.4017551 11.4112392 13.5226624 11.5894839 13.7107405 11.7230434 13.9251893 11.7741832 14.0938624 11.8144 14.2650234 11.7945399 14.4058332 11.7136098 14.5466429 11.6331762 14.657599 11.4921692 14.7058624 11.2895958M13.2184537 12.8932524C13.1328732 12.7790566 13.0955561 12.6405322 13.1278976 12.5054832 13.1517805 12.405686 13.2080049 12.325749 13.2876146 12.2775881 13.3672244 12.2299238 13.4717122 12.2135392 13.5931171 12.2423364 13.7568146 12.2815601 13.8906585 12.3714273 13.9757415 12.4856231 14.0608244 12.5998189 14.0971463 12.7378469 14.0648049 12.8728958 14.0404244 12.972693 13.9851951 13.0526301 13.9055854 13.1007909 13.8259756 13.1489517 13.7224829 13.1648399 13.6030683 13.1365392 13.4393707 13.0978119 13.3045317 13.0074483 13.2184537 12.8932524M14.3101024 12.9448888C14.3653317 12.7150077 14.3110976 12.4910846 14.1896927 12.3128399 14.0682878 12.1340986 13.8792146 12.0005392 13.6632732 11.9489028 13.4965902 11.9091825 13.3259268 11.9290427 13.1856146 12.0099727 13.0448049 12.0904063 12.9343463 12.2319098 12.8860829 12.4339867 12.8308537 12.6643643 12.8845902 12.8877909 13.0054976 13.0665322 13.1269024 13.2447769 13.3149805 13.3783364 13.5294293 13.4294762 13.6981024 13.469693 13.8687659 13.4498329 14.0100732 13.3689028 14.1508829 13.2884692 14.261839 13.1474622 14.3101024 12.9448888M12.7289034 14.9995196L12.725918 14.9975336C12.644318 14.9439112 12.5950595 14.8987294 12.5681912 14.8604986 12.5413229 14.8227643 12.5368449 14.7919811 12.5428156 14.7656664 12.5492839 14.7388552 12.5637132 14.7204846 12.5841132 14.710058 12.6045132 14.6996315 12.6313815 14.698142 12.6632254 14.7055895 12.688601 14.7115476 12.7318888 14.7319042 12.7716937 14.7517643L13.1563083 14.9702259C13.2324351 15.0124287 13.3080644 15.0442049 13.3767278 15.061086 13.5031083 15.0908762 13.6135668 15.0730021 13.6986498 15.0203727 13.7842302 14.9677434 13.8439376 14.8803587 13.8698107 14.772121 13.8926985 14.6753028 13.8757815 14.5720301 13.8319961 14.4727294 13.7916937 14.3808762 13.7275083 14.2934916 13.6513815 14.2185196L13.9369815 14.3908063 14.0056449 14.1028343 12.6771571 13.422128 12.607001 13.716058 13.3264741 14.0874427 13.3264741 14.0869462C13.4573327 14.1559601 13.5493815 14.2393727 13.6036156 14.3267573 13.6578498 14.414142 13.6742693 14.5054986 13.6538693 14.5904007 13.6389424 14.6529601 13.606601 14.6996315 13.5628156 14.7279322 13.5190302 14.7557364 13.4642985 14.7641769 13.4030985 14.7497783 13.3578205 14.7393517 13.317518 14.7224706 13.2662693 14.6931769L12.8717034 14.4722329C12.8219473 14.4469112 12.7627376 14.422086 12.7164644 14.4111629 12.6343668 14.3917993 12.5567473 14.4017294 12.4940546 14.4414497 12.4308644 14.4811699 12.3835961 14.5496874 12.3602107 14.6465056 12.3393132 14.7333937 12.3512546 14.8182958 12.3985229 14.8977364 12.4457912 14.9776734 12.5273912 15.052149 12.6458107 15.1201699L12.6487961 15.1221559 12.7289034 14.9995196zM14.0340059 9.57437483C13.9444449 9.46166853 13.9016546 9.32413706 13.9344937 9.1880951 13.9603668 9.07985734 14.0136059 9.00538182 14.0857522 8.96268252 14.1583961 8.92047972 14.2499473 8.91104615 14.3514498 8.93487832 14.5061912 8.97211608 14.6455083 9.06645175 14.7385522 9.18610909 14.8310985 9.30526993 14.8763766 9.44975245 14.8435376 9.58579441 14.8196546 9.68559161 14.7644254 9.75361259 14.6887961 9.79134685 14.6136644 9.82957762 14.5176351 9.83652867 14.4126498 9.8117035 14.259401 9.77496224 14.1235668 9.68708112 14.0340059 9.57437483M14.8241327 10.0822979C14.9455376 10.018249 15.0336059 9.90256364 15.0724156 9.73971049 15.0948059 9.64487832 15.083362 9.54508112 15.0495278 9.45173846 15.0181815 9.36435385 14.9669327 9.28590629 14.9072254 9.2163958L15.8829424 9.71935385C15.8461229 9.62402517 15.8207473 9.5425986 15.847118 9.43187832 15.8729912 9.32413706 15.919762 9.21788531 15.9635473 9.13844476 15.9998693 9.05701818 16.0441522 8.9606965 16.0675376 8.86288531 16.1511278 8.51334685 15.9073229 8.29985035 15.6799376 8.24573147 15.5839083 8.22289231 15.4968351 8.22487832 15.4102595 8.24076643 15.4361327 8.18813706 15.4570302 8.12954965 15.4724546 8.0659972 15.5142498 7.89172448 15.4973327 7.74475944 15.4421034 7.63453566 15.3868741 7.52431189 15.2923376 7.45082937 15.1793912 7.42352168 15.0664449 7.39671049 14.9729034 7.42501119 14.8922985 7.48161259 14.8111961 7.53821399 14.7420351 7.62311608 14.6748644 7.7100042 14.6221229 7.77951469 14.5728644 7.84604615 14.5226107 7.89073147 14.4972351 7.91307413 14.4718595 7.92995524 14.4459863 7.93988531 14.4196156 7.94981538 14.3932449 7.9522979 14.3648839 7.94534685 14.3370205 7.93889231 14.3146302 7.92548671 14.296718 7.90711608 14.2703473 7.87980839 14.2544254 7.84008811 14.2489522 7.79391329 14.2429815 7.74773846 14.246962 7.69461259 14.2598985 7.6399972 14.2837815 7.5402 14.328562 7.45231888 14.3758302 7.39571748 14.3932449 7.37784336 14.4061815 7.36443776 14.4206107 7.3550042 14.439518 7.37982937 14.471362 7.40018601 14.5037034 7.40763357 14.5469912 7.41806014 14.5907766 7.41110909 14.626601 7.38975944 14.6624254 7.36840979 14.6902888 7.33266154 14.7012351 7.28648671 14.712679 7.23832587 14.7032254 7.19115804 14.6768546 7.15342378 14.6509815 7.1146965 14.6091863 7.0858993 14.5559473 7.07299021 14.4867863 7.05660559 14.4161327 7.07497622 14.3469717 7.11717902 14.2141229 7.19612308 14.0971961 7.36791329 14.0459473 7.5824028 14.0061424 7.74823497 14.011118 7.89668951 14.0608741 8.01237483 14.1106302 8.12806014 14.206162 8.21047972 14.3449815 8.24324895 14.4549424 8.26956364 14.5474888 8.24225594 14.6290888 8.18714406 14.7106888 8.13153566 14.7813424 8.04861958 14.8480156 7.96371748 14.9047376 7.89122797 14.9564839 7.8242 15.0077327 7.77852168 15.0331083 7.75568252 15.0584839 7.7383049 15.083362 7.72837483 15.1087376 7.71844476 15.1336156 7.71546573 15.1594888 7.72192028 15.2082498 7.73333986 15.2400937 7.76958462 15.2565132 7.82122098 15.2719376 7.87285734 15.27144 7.93988531 15.2545229 8.01088531 15.2376059 8.08138881 15.2082498 8.14643077 15.1778985 8.18962657 15.1634693 8.21047972 15.1520254 8.22090629 15.1430693 8.22885035 15.1112254 8.19856364 15.0893327 8.18664755 15.0604741 8.1796965 14.9738985 8.15884336 14.8833424 8.21445175 14.8619473 8.30431888 14.851001 8.3490042 14.8594595 8.39517902 14.88384 8.43291329 14.908718 8.47064755 14.9500156 8.50043776 15.0047473 8.51334685 15.0704254 8.52923497 15.1435668 8.51533287 15.2087473 8.47561259L15.2087473 8.47511608C15.2470595 8.45277343 15.283879 8.4209972 15.3177132 8.38226993 15.3923473 8.36787133 15.4729522 8.36538881 15.5580351 8.38574545 15.8172644 8.44731189 15.8938888 8.65534685 15.8590595 8.79933287 15.8431376 8.86834685 15.8157717 8.96516503 15.7874107 9.04808112 15.7570595 9.12057063 15.7257132 9.2163958 15.7063083 9.29831888L15.7063083 9.29881538 13.8812546 8.38574545 13.810601 8.68215804 14.080279 8.81224196C13.8852351 8.81919301 13.7170595 8.95821399 13.6682985 9.16227692 13.6195376 9.36584336 13.6752644 9.57636084 13.8046302 9.75013706 13.9334985 9.92440979 14.1360059 10.0614448 14.3803083 10.1200322 14.5499766 10.160249 14.7032254 10.1468434 14.8241327 10.0822979"/>
    <polygon fill="#FFF" points="26.829 25.529 26.655 26.253 26.389 26.122 26.563 25.397"/>
    <path fill="#FFF" d="M26.469398,31.8098371 L26.4912907,31.7169909 C25.4394468,31.4667531 24.5896127,30.8148441 24.0646859,29.9628441 C23.539759,29.1103476 23.3407346,28.0592497 23.5915054,27.0096413 C23.8427737,25.9595364 24.4960712,25.1115084 25.3498859,24.5876972 C26.2037005,24.063886 27.2570371,23.8652846 28.3093785,24.1155224 C29.3612224,24.3662566 30.2110566,25.0181657 30.7359834,25.8701657 C31.2609102,26.7221657 31.4599346,27.7732636 31.2091639,28.8233685 C30.9578956,29.8729769 30.304598,30.7215014 29.4507834,31.2453126 C28.5969688,31.7686273 27.5436322,31.9672287 26.4912907,31.7169909 L26.469398,31.8098371 L26.4475054,31.9026832 C27.5501005,32.1653336 28.6561785,31.9568021 29.5512907,31.4076692 C30.4464029,30.8585364 31.132042,29.9683056 31.3952517,28.8675573 C31.6584615,27.7668091 31.4494859,26.6635783 30.8991834,25.7703685 C30.348881,24.8771587 29.4562566,24.1924804 28.3536615,23.9298301 C27.2505688,23.6676762 26.1449883,23.8762077 25.2493785,24.4248441 C24.3547639,24.9739769 23.6686273,25.8647042 23.4054176,26.9654524 C23.1422078,28.0657042 23.3511834,29.1694315 23.9014859,30.0626413 C24.4517883,30.955851 25.3444127,31.6400329 26.4475054,31.9026832 L26.469398,31.8098371 Z"/>
    <path fill="#FFF" d="M28.2776839 28.9772846C28.2045424 28.8854315 28.1697132 28.7732217 28.1960839 28.6615084 28.217479 28.5736273 28.2612644 28.5125573 28.3199766 28.4778021 28.3791863 28.4435434 28.4538205 28.4355993 28.5369132 28.4554594 28.6632937 28.4852497 28.7772351 28.5627042 28.8528644 28.6600189 28.9284937 28.7578301 28.9653132 28.8755014 28.9389424 28.9867182 28.9195376 29.0681448 28.8742595 29.1237531 28.812562 29.1545364 28.7508644 29.1853196 28.6722498 29.1912776 28.5871668 29.170921 28.4617815 29.1411308 28.3503278 29.0696343 28.2776839 28.9772846M28.9230205 29.3923615C29.0220351 29.3397322 29.0936839 29.2453965 29.1255278 29.1123336 29.1439376 29.034879 29.1344839 28.9534524 29.107118 28.8769909 29.0812449 28.8059909 29.0394498 28.7414455 28.9906888 28.6853406L29.7872839 29.0954524C29.7574302 29.0179979 29.7365327 28.9514664 29.7584254 28.8611028 29.7793229 28.7727252 29.8171376 28.6863336 29.8534595 28.6212916 29.8828156 28.5552566 29.9191376 28.4763126 29.9380449 28.3963755 30.0062107 28.110886 29.8071863 27.9366133 29.6215961 27.8924245 29.5429815 27.8735573 29.4723278 27.8755434 29.4011766 27.888949 29.4225717 27.8457531 29.4399863 27.7975923 29.4524254 27.7459559 29.4862595 27.6034594 29.4728254 27.4838021 29.4275473 27.3934385 29.3822693 27.3030748 29.3051473 27.2429979 29.212601 27.2211517 29.1205522 27.1993056 29.0444254 27.2221448 28.9782498 27.2688161 28.9120741 27.3149909 28.8558498 27.3845014 28.8006205 27.4550049 28.7578302 27.5121028 28.7175278 27.5657252 28.6767278 27.6024664 28.6558302 27.6208371 28.6354302 27.6347392 28.6140351 27.6426832 28.59264 27.6506273 28.5707473 27.6531098 28.5478595 27.6471517 28.5249717 27.6421867 28.506562 27.6312636 28.4926302 27.615872 28.4707376 27.5935294 28.457801 27.5612566 28.4533229 27.5235224 28.4483473 27.4857881 28.4513327 27.4425923 28.462279 27.397907 28.4816839 27.3164804 28.5185034 27.2444874 28.5573132 27.1983126 28.5712449 27.183914 28.5816937 27.1729909 28.5931376 27.1655434 28.6090595 27.1854035 28.6349327 27.2017881 28.6613034 27.2082427 28.6961327 27.2166832 28.7324546 27.2107252 28.7618107 27.1933476 28.7906693 27.1764664 28.8135571 27.1471727 28.8225132 27.1094385 28.8319668 27.0702147 28.8240059 27.0314874 28.8026107 27.0007042 28.7817132 26.9694245 28.7468839 26.9455923 28.7040937 26.9351657 28.6473717 26.9217601 28.5896546 26.9366552 28.5334302 26.970914L28.5334302 26.970914C28.4244644 27.0354594 28.3294302 27.1759699 28.2876351 27.3512357 28.2552937 27.4862846 28.2587766 27.6074315 28.2995766 27.7017671 28.3403766 27.7965993 28.4179961 27.8636273 28.53144 27.890935 28.6214985 27.9117881 28.6971278 27.8894455 28.763801 27.8442636 28.8299766 27.7990818 28.8876937 27.7315573 28.9424254 27.6620469 28.9886985 27.6029629 29.0309912 27.5483476 29.0727863 27.5111098 29.0936839 27.4927392 29.1140839 27.4783406 29.1344839 27.4699 29.1553815 27.4619559 29.1757815 27.4594734 29.196679 27.4644385 29.2364839 27.473872 29.2623571 27.5036622 29.2757912 27.545865 29.2887278 27.5880678 29.2882302 27.6426832 29.2742985 27.7007741 29.2603668 27.7583685 29.2364839 27.8109979 29.2116059 27.8467462 29.200162 27.8636273 29.1907083 27.8720678 29.1837424 27.8790189 29.1573717 27.8541937 29.1394595 27.8442636 29.1160741 27.8388021 29.0449229 27.8214245 28.9712839 27.8671028 28.9533717 27.9400888 28.9449132 27.9768301 28.9513815 28.0145643 28.9717815 28.0453476 28.9921815 28.0761308 29.025518 28.1004594 29.0702985 28.110886 29.1240351 28.1237951 29.1837424 28.1123755 29.2369815 28.0801028 29.2683278 28.0612357 29.2981815 28.035914 29.3260449 28.0041378 29.3867473 27.9922217 29.4524254 27.9902357 29.5220839 28.0066203 29.7335473 28.0572636 29.79624 28.2270678 29.7683766 28.3447392 29.7549424 28.4003476 29.7325522 28.4797881 29.7091668 28.5478091 29.6847863 28.606893 29.6589132 28.6853406 29.6434888 28.751872L29.6429912 28.7523685 28.1532937 28.0066203 28.095079 28.248914 28.3154985 28.3551657C28.156279 28.3606273 28.0184546 28.4743266 27.9791473 28.6406552 27.9393424 28.8069839 27.985118 28.9787741 28.0901034 29.1212706 28.1955863 29.2632706 28.3607766 29.3754804 28.5602985 29.4226483 28.6986205 29.455914 28.8240059 29.4449909 28.9230205 29.3923615M25.347199 29.8333063L25.3447112 29.8313203C25.2785356 29.7881245 25.2387307 29.7513832 25.216838 29.7206 25.1949454 29.6893203 25.1914624 29.6644951 25.196438 29.6431455 25.2014137 29.6212993 25.2128576 29.6064042 25.2297746 29.5979636 25.2461941 29.5900196 25.2680868 29.5885301 25.29396 29.5944881 25.31436 29.5994531 25.3496868 29.6163343 25.3820283 29.6322224L25.693999 29.8094741C25.7561941 29.8437329 25.8168966 29.869551 25.873121 29.8829566 25.9756185 29.9072853 26.0651795 29.8928867 26.1343405 29.8501874 26.2035015 29.8074881 26.2522624 29.7364881 26.27316 29.648607 26.2915698 29.5701594 26.2781356 29.4857538 26.2423112 29.4058168 26.2094722 29.3313413 26.1577259 29.2603413 26.0955307 29.1992713L26.3273941 29.3392853 26.3836185 29.1054322 25.3054039 28.5528238 25.2481844 28.7911455 25.832321 29.0925231C25.9383015 29.148628 26.0129356 29.2161524 26.0572185 29.2871524 26.1010039 29.3581524 26.114438 29.4321315 26.0980185 29.5011455 26.0855795 29.5517888 26.0597063 29.5900196 26.023882 29.6123622 25.9885551 29.6352014 25.9437746 29.6421524 25.8945161 29.6302364 25.8576966 29.6217958 25.8248576 29.6083902 25.7830624 29.584558L25.4631307 29.4053203 25.4626332 29.4053203C25.4228283 29.3844671 25.3745649 29.364607 25.3372478 29.3556699 25.2705746 29.3397818 25.2073844 29.3482224 25.1566332 29.3799986 25.1053844 29.4122713 25.0670722 29.4683762 25.0476673 29.5463273 25.0312478 29.6168308 25.0407015 29.6858448 25.0790137 29.7503902 25.1173259 29.8154322 25.1835015 29.8760056 25.2795307 29.9311175L25.2825161 29.932607 25.347199 29.8333063z"/>
    <path fill="#FFB8AC" d="M0.523583415,0.108833566 C0.411632195,0.225511888 0.358393171,0.366518881 0.365359024,0.527882517 C0.593739512,5.9074979 7.49789561,11.9161832 15.7817883,11.9161832 C21.564442,11.9161832 26.5161688,8.9883021 29.0577102,5.39063776 C29.7926078,4.34996643 30.9768029,3.71940699 32.2525493,3.71940699 L65.4000615,3.71940699 C66.3454273,3.71940699 67.2057102,3.07097343 67.3664224,2.14201538 C67.5370859,1.15844196 66.9400127,0.287574825 66.0807249,9.93006993e-05 L0.678822439,9.93006993e-05 C0.623593171,0.0284 0.569856585,0.0606727273 0.523583415,0.108833566" transform="translate(34.332 59.071)"/>
    <path fill="#A5B6F3" d="M61.9473366,58.9890839 C59.9909268,58.8694266 53.4888,58.5745035 50.7522146,55.3472308 C48.095239,52.2137972 46.6174829,42.032 47.2692878,33.7493287 C47.3339707,32.9286084 44.4083122,35.7095245 43.8052683,36.4488182 C43.415678,37.1414406 45.7885463,44.4102517 45.0302634,53.112965 C44.5327024,58.8227552 37.8046829,58.8163007 36.5717268,58.9890839 L61.9473366,58.9890839 Z"/>
  </g>
</svg>
