<svg xmlns="http://www.w3.org/2000/svg" width="35" height="35" viewBox="0 0 35 35">
  <path fill="#FFB8AC" fill-rule="evenodd" stroke="#FFB8AC" stroke-width=".5" d="M1.08094861,15.6065712 C0.945301263,16.2139794 0.858847539,16.8350382 0.858847539,17.294007 C0.858847539,21.1211511 3.2549979,24.502376 6.7339232,25.8342097 C5.61157014,24.3718798 5.15363156,22.6491584 5.37118243,20.6942054 C5.58959184,18.730667 6.43403953,17.1139738 6.79462109,16.4236318 C6.84381472,16.3294514 6.88244846,16.2558755 6.90640138,16.2049649 L7.60979299,14.7104401 L7.72311863,16.3582979 C8.02257303,20.7148959 10.9038773,23.8782265 13.3486203,25.8028735 C16.8233388,24.4345523 19.1417925,21.0449997 19.1417925,17.294007 C19.1417925,15.8236928 18.3377814,13.7109424 16.7521669,11.0143932 L16.711301,10.9448525 L16.6985089,10.865267 C16.4421526,9.27913735 15.9129562,7.91699756 15.4988026,7.00807445 C15.436731,7.22502436 15.3756039,7.40943608 15.3226327,7.54989118 L15.0354552,8.31020317 L14.5693606,7.64432921 C12.9297447,5.30183682 11.2652316,3.24944088 10.3606869,2.16778204 C10.0668988,4.48305911 8.94368723,7.92094678 5.15689396,10.5756856 L4.68169897,10.9087943 L4.50226671,10.3569328 C4.46749635,10.2498744 4.43315524,10.1508004 4.39958682,10.0534433 C4.34464105,9.89435819 4.29081138,9.73862129 4.2386129,9.56296656 C4.0296473,10.0182437 3.86798657,10.4838232 3.69224598,10.9896676 C3.60622152,11.2373528 3.51719221,11.4934516 3.41932007,11.7566761 C2.65960905,13.7997141 3.11256818,16.121516 3.62631106,17.7095344 L4.08399209,19.1242161 L2.94275144,18.1711646 C2.22476485,17.571569 1.52369127,16.8385582 1.08094861,15.6065712 L1.08094861,15.6065712 Z M9.60089006,27.4131277 L8.03270366,27.0999369 C3.37836831,26.1704091 0.000319999999,22.0464721 0.000319999999,17.294007 C0.000319999999,16.2994029 0.326131201,14.7679615 0.742087794,13.8076984 L1.35576328,12.3908704 L1.56146648,13.9211099 C1.70484058,14.9881738 2.00704227,15.7374108 2.37500717,16.3033521 C2.08456731,14.814322 2.01399634,13.072713 2.61462221,11.4574793 C2.7093178,11.2029259 2.7967159,10.9512914 2.88128086,10.7079847 C3.1877752,9.82550428 3.47727068,8.99204574 4.06312987,8.12072614 L4.68015362,7.20313191 L4.84396067,8.29663844 C4.93118707,8.87897767 5.02468072,9.2167224 5.12907767,9.53240298 C8.64346015,6.84615616 9.50121501,3.48124332 9.58895653,1.08586563 L9.62870635,0 L10.3417993,0.8198938 C10.5839899,1.09840013 12.6273713,3.46372936 14.7630445,6.43363367 C14.8213385,6.19676593 14.877572,5.93182433 14.9233315,5.65314629 L15.1422561,4.31890864 L15.7330089,5.53509875 C15.7546438,5.57965633 15.785379,5.63958155 15.8232401,5.71393004 C16.1842509,6.42041235 17.136358,8.28401808 17.5327401,10.6484029 C19.1701239,13.4461725 20.00032,15.6819499 20.00032,17.294007 C20.00032,21.483278 17.356742,25.2603699 13.4221961,26.6929948 L13.2005243,26.7736106 L13.0136229,26.6298931 C10.6629745,24.8227785 7.85232702,21.8971742 7.05758808,17.8622664 C5.53653484,21.378366 5.98605986,24.2323691 8.40032515,26.3567096 L9.60089006,27.4131277 Z" transform="translate(8 4)"/>
</svg>
