<svg xmlns="http://www.w3.org/2000/svg" width="98" height="98" viewBox="0 0 98 98">
  <g fill="none" fill-rule="evenodd" transform="translate(4 4)">
    <circle cx="45" cy="45" r="45" fill="#FFB8AC" stroke="#F5F5F5" stroke-width="8"/>
    <path fill="#A5B6F3" d="M27.57,36.24 C30.15,36.24 32.03,34.82 32.03,32.42 C32.03,30.1 30.33,29.28 28.07,28.44 C26.57,27.86 25.39,27.32 25.39,26.06 C25.39,24.96 26.27,24.18 27.73,24.18 C28.55,24.18 29.33,24.42 29.69,24.74 C29.57,24.92 29.47,25.12 29.47,25.44 C29.47,26.04 29.93,26.6 30.69,26.6 C31.33,26.6 31.85,26.12 31.85,25.3 C31.85,23.84 30.05,22.6 27.75,22.6 C25.21,22.6 23.57,24.14 23.57,26.2 C23.57,28.54 25.27,29.34 27.63,30.22 C29.03,30.74 30.23,31.32 30.23,32.56 C30.23,33.86 29.21,34.64 27.61,34.64 C26.55,34.64 25.67,34.34 25.21,33.94 C25.37,33.7 25.47,33.44 25.47,33.08 C25.47,32.52 24.99,31.98 24.27,31.98 C23.57,31.98 23.07,32.52 23.07,33.36 C23.07,34.78 24.99,36.24 27.57,36.24 Z M36.75,36 L42.01,36 L42.01,34.38 L40.29,34.38 L40.29,24.4 L43.23,24.4 L43.23,26.5 L44.95,26.5 L44.95,22.84 L33.81,22.84 L33.81,26.5 L35.53,26.5 L35.53,24.4 L38.47,24.4 L38.47,34.38 L36.75,34.38 L36.75,36 Z M46.49,36 L56.17,36 L56.17,32.56 L54.43,32.56 L54.43,34.4 L49.91,34.4 L49.91,30.08 L54.07,30.08 L54.07,28.52 L49.91,28.52 L49.91,24.44 L54.43,24.44 L54.43,26.28 L56.15,26.28 L56.15,22.84 L46.49,22.84 L46.49,24.46 L48.09,24.46 L48.09,34.38 L46.49,34.38 L46.49,36 Z M58.15,36 L58.15,34.38 L59.75,34.38 L59.75,24.46 L58.15,24.46 L58.15,22.84 L63.31,22.84 C66.09,22.84 68.23,24.46 68.23,27.06 C68.23,29.88 66.19,31.42 63.19,31.42 C62.51,31.42 61.91,31.4 61.57,31.38 L61.57,34.38 L63.29,34.38 L63.29,36 L58.15,36 Z M63.31,29.82 C65.21,29.82 66.37,28.78 66.37,27.06 C66.37,25.44 65.03,24.46 63.27,24.46 L61.57,24.46 L61.57,29.78 C61.91,29.8 62.45,29.82 63.31,29.82 Z"/>
    <path fill="#FFF" d="M33.072,69.384 C26.4,69.384 21.6,63.912 21.6,56.616 C21.6,49.32 26.4,43.896 33.072,43.896 C39.744,43.896 44.544,49.368 44.544,56.616 C44.544,63.96 39.744,69.384 33.072,69.384 Z M33.072,65.832 C37.344,65.832 40.272,61.992 40.272,56.616 C40.272,51.336 37.344,47.4 33.072,47.4 C28.8,47.4 25.872,51.288 25.872,56.616 C25.872,61.992 28.8,65.832 33.072,65.832 Z M48,68.328 C48,69.336 48.336,70.296 48.912,71.16 C50.496,73.416 53.952,75.048 58.08,75.048 C64.08,75.048 68.64,71.64 68.64,66.408 C68.64,63.288 66.768,61.032 64.272,59.736 C63.408,59.256 62.4,58.872 61.392,58.68 C62.496,58.536 63.552,58.152 64.464,57.624 C66.768,56.328 68.352,54.12 68.352,51.624 C68.352,47.304 64.368,43.896 58.608,43.896 C54.288,43.896 51.408,45.624 50.064,47.592 C49.44,48.504 49.152,49.464 49.152,50.28 C49.152,52.248 50.496,53.544 51.984,53.544 C53.424,53.544 54.672,52.44 54.672,50.952 C54.672,50.232 54.24,49.416 53.616,48.984 C54.48,48.072 56.016,47.448 58.416,47.448 C61.68,47.448 64.176,48.936 64.176,51.768 C64.176,53.544 63.072,54.936 61.392,55.896 C59.952,56.712 58.032,57.144 56.016,57.144 L54.624,57.144 L54.624,60.552 L55.872,60.552 C57.984,60.552 59.76,60.888 61.104,61.464 C63.36,62.472 64.464,64.2 64.464,66.264 C64.464,69.336 61.824,71.544 58.128,71.544 C55.776,71.544 53.712,70.92 52.512,69.72 C53.136,69.24 53.472,68.472 53.472,67.704 C53.472,66.312 52.32,65.112 50.88,65.112 C49.248,65.112 48,66.552 48,68.328 Z"/>
  </g>
</svg>
