<svg xmlns="http://www.w3.org/2000/svg" width="35" height="35" viewBox="0 0 35 35">
  <g fill="none" fill-rule="evenodd" transform="translate(5 6)">
    <g fill="#FFB8AC" transform="translate(0 .05)">
      <path d="M24.8545312,11.2033432 C24.8545312,7.42541086 22.8516667,4.08889002 19.7904687,2.07323203 C16.7386458,3.21929387 11.725625,6.16938518 12.3219792,13.1028129 C13.1045312,15.5518426 13.5011458,18.5877783 13.2243229,22.3449627 C19.6691146,22.2235875 24.8545312,17.2829951 24.8545312,11.2033432"/>
      <path d="M4.97742188,3.96741109 C4.86544271,3.96741109 4.75372396,3.92773074 4.66414063,3.84681395 C4.47377604,3.67434708 4.45997396,3.38076437 4.63315104,3.19169917 C6.90242188,0.707398111 9.32664063,0.208411239 12.5024219,0.208411239 C14.7748177,0.208411239 16.9828906,0.931475376 19.0657031,2.35737445 C19.2776823,2.50260972 19.3313281,2.79152415 19.1854948,3.00237463 C19.0399219,3.21374381 18.7498177,3.26691029 18.5378385,3.12193438 C16.6133594,1.8041837 14.5828906,1.13610149 12.5024219,1.13610149 C9.05294271,1.13610149 7.10658854,1.86253716 5.32221354,3.81569211 C5.23028646,3.9163194 5.10398438,3.96741109 4.97742188,3.96741109"/>
      <path d="M11.2811979,12.4598098 L11.2811979,12.4603284 L11.2811979,12.4598098 C9.41270833,6.27252815 5.36609375,3.59942124 3.029375,2.53635098 C1.14630208,4.63551924 -5.20833346e-05,7.40225103 -5.20833346e-05,10.4358526 C-5.20833346e-05,16.9950402 5.34838542,22.3116883 11.9460417,22.3116883 C12.0275521,22.3116883 12.1080208,22.3077981 12.1892708,22.3059826 C12.4681771,18.303195 12.0689583,15.0691169 11.2811979,12.4598098"/>
    </g>
    <path fill="#FFF" d="M11.8770573 22.2775853C11.851276 22.2775853 11.8252344 22.2734357 11.7997135 22.2643585 7.97367188 20.9256006 5.24085938 17.2558167 3.89632813 11.6510322 2.88747396 7.44750874 3.00830729 3.5852881 3.00960938 3.54664515 3.01429688 3.4185269 3.12054688 3.31141589 3.25075521 3.32282723 3.37914063 3.32723616 3.47966146 3.43460652 3.47549479 3.56246542 3.47002604 3.71392505 3.05622396 18.7133563 11.9541406 21.8270966 12.0752344 21.8691111 12.1392969 22.0018976 12.0965885 22.1222354 12.0629948 22.2179351 11.9728906 22.2775853 11.8770573 22.2775853M13.6072656 22.2775853C13.5213281 22.2775853 13.4385156 22.2298651 13.3978906 22.1476516 13.3413802 22.0327601 13.3890365 21.8937492 13.5046615 21.8374706 21.4109115 17.9775841 19.5077865 3.21286339 19.487474 3.06451594 19.4702865 2.93743509 19.5598698 2.82098753 19.6872135 2.80361117 19.8132552 2.78701285 19.9320052 2.8751914 19.9491927 3.00253161 19.9541406 3.04013717 20.4564844 6.83933607 19.9494531 11.0752782 19.2734115 16.725708 17.1158594 20.5907814 13.7096094 22.2534659 13.6765365 22.2700642 13.641901 22.2775853 13.6072656 22.2775853"/>
    <path fill="#FFB8AC" d="M11.6764063,10.3771634 C11.6659896,10.3771634 11.6555729,10.3763853 11.6446354,10.3750886 C11.5172917,10.3579716 11.4279688,10.2412647 11.4454167,10.1139244 C12.3514063,3.46967046 9.85479167,1.08158776 9.82953125,1.05798703 C9.735,0.97110522 9.72927083,0.824313863 9.81677083,0.730429639 C9.90427083,0.636026717 10.0516667,0.630580395 10.1459375,0.717980902 C10.2563542,0.819904936 12.8454167,3.29538814 11.906875,10.1766868 C11.8909896,10.292875 11.7909896,10.3771634 11.6764063,10.3771634"/>
    <path fill="#FFF" d="M9.05302083 20.5006318C9.0415625 20.5006318 9.02958333 20.4998538 9.01786458 20.497779 8.89052083 20.4785872 8.80328125 20.3603242 8.82255208 20.2340214 9.45666667 16.0771807 7.32854167 6.42033233 7.30692708 6.32333592 7.2790625 6.19832986 7.35848958 6.07436118 7.48401042 6.04687022 7.60901042 6.01989796 7.73375 6.09796191 7.761875 6.22296798 7.85067708 6.62288365 9.93036458 16.0616197 9.28296875 20.3035268 9.26552083 20.4184183 9.16604167 20.5006318 9.05302083 20.5006318M19.415651 14.2223189C19.3010677 14.2223189 19.2013281 14.1380305 19.1851823 14.0218423 19.1677344 13.8947615 19.2570573 13.7780546 19.3846615 13.7606782 22.4771094 13.341052 23.5804948 7.32079097 23.5911719 7.25984403 23.6138281 7.13380057 23.7349219 7.04899355 23.861224 7.07207558 23.9877865 7.09437957 24.0724219 7.21445801 24.050026 7.34076082 24.0036719 7.60244364 22.8758073 13.7549725 19.4474219 14.2202441 19.4367448 14.2215408 19.4260677 14.2223189 19.415651 14.2223189"/>
    <path fill="#FFB8AC" d="M11.6760156,4.40353321 C11.5473698,4.40353321 11.4429427,4.29979373 11.4429427,4.17141613 C11.4429427,4.04329788 11.5473698,3.93955841 11.6760156,3.93955841 C13.4958073,3.93955841 13.934349,0.887543073 13.9385156,0.856680579 C13.9559635,0.729859072 14.0752344,0.642458565 14.2004948,0.658278835 C14.328099,0.675655197 14.4174219,0.792362105 14.399974,0.919183613 C14.3804427,1.06156604 13.8978906,4.40353321 11.6760156,4.40353321"/>
  </g>
</svg>
