<svg xmlns="http://www.w3.org/2000/svg" xmlns:xlink="http://www.w3.org/1999/xlink" width="105" height="105" viewBox="0 0 105 105">
  <defs>
    <polygon id="icon_index_2-a" points="0 72 79.848 72 79.848 0 0 0"/>
  </defs>
  <g fill="none" fill-rule="evenodd" transform="translate(12 17)">
    <path fill="#A5B6F3" d="M29.7403704,43.5882804 C27.2959259,43.5882804 25.307037,41.5952907 25.307037,39.1450639 L25.307037,9.07801237 C25.307037,7.72485773 26.1196296,7.00856907 26.9225926,6.73467216 L26.9225926,6.00131134 C26.0218519,5.94638351 25.307037,5.19446598 25.307037,4.27924948 L25.307037,2.4673732 C25.307037,1.51578557 26.0788889,0.742342268 27.0285185,0.742342268 L52.6477778,0.742342268 C53.5974074,0.742342268 54.37,1.51578557 54.37,2.4673732 L54.37,4.27924948 C54.37,5.19446598 53.6544444,5.94638351 52.7537037,6.00131134 L52.7537037,6.73467216 C53.5566667,7.00856907 54.37,7.72485773 54.37,9.07801237 L54.37,39.1450639 C54.37,41.5952907 52.3803704,43.5882804 49.9359259,43.5882804 L29.7403704,43.5882804 Z"/>
    <path fill="#A5B6F3" d="M52.648,0 L27.0287407,0 C25.670963,0 24.5657778,1.10672165 24.5657778,2.46729897 L24.5657778,4.27917526 C24.5657778,5.21369072 25.0872593,6.0294433 25.8539259,6.44808247 C25.1361481,6.9468866 24.5657778,7.79084536 24.5657778,9.07793814 L24.5657778,39.1449897 C24.5657778,42.0042062 26.8872593,44.3304742 29.7405926,44.3304742 L39.7805926,44.3304742 L39.8961481,44.3304742 L49.9361481,44.3304742 C52.7887407,44.3304742 55.1102222,42.0042062 55.1102222,39.1449897 L55.1102222,9.07793814 C55.1102222,7.79084536 54.5405926,6.9468866 53.8220741,6.44808247 C54.5894815,6.0294433 55.1102222,5.21369072 55.1102222,4.27917526 L55.1102222,2.46729897 C55.1102222,1.10672165 54.0057778,0 52.648,0 M52.648,1.48453608 C53.1894815,1.48453608 53.6287407,1.92470103 53.6287407,2.46729897 L53.6287407,4.27917526 C53.6287407,4.82251546 53.1894815,5.26193814 52.648,5.26193814 L52.0131852,5.26193814 L52.0131852,7.344 C52.0131852,7.344 53.6287407,7.38259794 53.6287407,9.07793814 L53.6287407,39.1449897 C53.6287407,41.1891959 51.9754074,42.8459381 49.9361481,42.8459381 L39.8961481,42.8459381 L39.7805926,42.8459381 L29.7405926,42.8459381 C27.7005926,42.8459381 26.0472593,41.1891959 26.0472593,39.1449897 L26.0472593,9.07793814 C26.0472593,7.38259794 27.6628148,7.344 27.6628148,7.344 L27.6628148,5.26193814 L27.0287407,5.26193814 C26.4865185,5.26193814 26.0472593,4.82251546 26.0472593,4.27917526 L26.0472593,2.46729897 C26.0472593,1.92470103 26.4865185,1.48453608 27.0287407,1.48453608 L52.648,1.48453608"/>
    <mask id="icon_index_2-b" fill="#fff">
      <use xlink:href="#icon_index_2-a"/>
    </mask>
    <polygon fill="#FFF" points="26.047 38.027 53.629 38.027 53.629 12.201 26.047 12.201" mask="url(#icon_index_2-b)"/>
    <polygon fill="#B4B5B5" points="27.426 36.736 52.25 36.736 52.25 13.492 27.426 13.492" mask="url(#icon_index_2-b)"/>
    <path fill="#FFB8AC" d="M27.4262222,13.530433 C34.0380741,13.530433 39.3980741,18.725567 39.3980741,25.1328247 C39.3980741,31.541567 34.0380741,36.7359588 27.4262222,36.7359588 L27.4262222,13.530433 Z" mask="url(#icon_index_2-b)"/>
    <path fill="#A5B6F3" d="M27.4262222,36.7361072 C27.4262222,30.083901 32.9906667,24.6905814 39.8543704,24.6905814 C46.7180741,24.6905814 52.2825185,30.083901 52.2825185,36.7361072 L27.4262222,36.7361072 Z" mask="url(#icon_index_2-b)"/>
    <path fill="#FFF" d="M34.4434074 34.9572619C34.3611852 35.0567258 34.2478519 35.1175918 34.1219259 35.1175918 34.0293333 35.1175918 33.9478519 35.0856742 33.8893333 35.0255505 33.8300741 34.9661691 33.7945185 34.8778392 33.7945185 34.7657567 33.7945185 34.6135918 33.8456296 34.4777567 33.9278519 34.3790351 34.0100741 34.2803134 34.1234074 34.2194474 34.2485926 34.2194474 34.3411852 34.2194474 34.4234074 34.2513649 34.4819259 34.3114887 34.5404444 34.3708701 34.5767407 34.4584577 34.5767407 34.5690557 34.5767407 34.7212206 34.5256296 34.8577979 34.4434074 34.9572619M34.2604444 33.9893443C34.0471111 33.9893443 33.8626667 34.0828701 33.7315556 34.2276124 33.6004444 34.3708701 33.5219259 34.5653443 33.5219259 34.7657567 33.5219259 34.9201485 33.5752593 35.065633 33.6752593 35.1717773 33.7752593 35.2779216 33.9226667 35.345468 34.1100741 35.345468 34.3234074 35.345468 34.5085926 35.2512 34.6397037 35.1079423 34.7708148 34.9639423 34.8485926 34.7709526 34.8485926 34.5720247 34.8485926 34.4161485 34.796 34.2699216 34.696 34.1637773 34.596 34.0568907 34.4485926 33.9893443 34.2604444 33.9893443M35.9780741 34.9572619C35.8958519 35.0567258 35.7825185 35.1175918 35.6565926 35.1175918 35.564 35.1175918 35.4825185 35.0856742 35.424 35.0255505 35.3647407 34.9661691 35.3291852 34.8778392 35.3291852 34.7657567 35.3291852 34.6135918 35.3802963 34.4777567 35.4625185 34.3790351 35.5447407 34.2803134 35.6580741 34.2194474 35.7832593 34.2194474 35.8758519 34.2194474 35.9580741 34.2513649 36.0165926 34.3114887 36.0751111 34.3708701 36.1114074 34.4584577 36.1114074 34.5690557 36.1114074 34.7212206 36.0602963 34.8577979 35.9780741 34.9572619M35.7951111 33.9893443C35.5817778 33.9893443 35.3973333 34.0828701 35.2662222 34.2276124 35.1351111 34.3708701 35.0565926 34.5653443 35.0565926 34.7657567 35.0565926 34.9201485 35.1099259 35.065633 35.2099259 35.1717773 35.3099259 35.2779216 35.4573333 35.345468 35.6447407 35.345468 35.8580741 35.345468 36.0432593 35.2512 36.1743704 35.1079423 36.3054815 34.9639423 36.3832593 34.7709526 36.3832593 34.5720247 36.3832593 34.4161485 36.3306667 34.2699216 36.2306667 34.1637773 36.1306667 34.0568907 35.9832593 33.9893443 35.7951111 33.9893443M37.9279259 34.9449402L37.9271852 34.9479093C37.8968148 35.0310433 37.8671852 35.0837443 37.8397778 35.1149196 37.8116296 35.1460948 37.7857037 35.1572289 37.7612593 35.1572289 37.7368148 35.1572289 37.7175556 35.1483216 37.7042222 35.132734 37.6908889 35.1171464 37.6834815 35.0941361 37.6834815 35.0644454 37.6834815 35.0406928 37.6923704 34.9983835 37.7012593 34.9597856L37.8131111 34.576033C37.8345926 34.5003216 37.8464444 34.4275794 37.8464444 34.3637443 37.8464444 34.2472082 37.8071852 34.1536825 37.7434815 34.0905897 37.6797778 34.0267546 37.5901481 33.991868 37.4901481 33.991868 37.4005185 33.991868 37.3131111 34.0289814 37.2353333 34.0876206 37.1634815 34.1425485 37.0997778 34.2175175 37.0501481 34.2999093L37.1412593 34.0133938 36.8753333 34.0133938 36.5545926 35.3212701 36.8271852 35.3212701 37.0027407 34.6124041C37.0353333 34.4832495 37.0901481 34.3845278 37.1553333 34.3192082 37.2205185 34.2531464 37.2968148 34.2197443 37.3760741 34.2197443 37.4338519 34.2197443 37.482 34.238301 37.5153333 34.2709608 37.5486667 34.3028784 37.5679259 34.3496412 37.5679259 34.4060536 37.5679259 34.4483629 37.562 34.4869608 37.5471852 34.5381773L37.4353333 34.9300948C37.4234815 34.9790845 37.4145926 35.0369814 37.4145926 35.0792907 37.4145926 35.1557443 37.4397778 35.2218062 37.4871852 35.2685691 37.5353333 35.315332 37.6057037 35.3427959 37.6953333 35.3427959 37.7753333 35.3427959 37.8479259 35.3145897 37.9079259 35.2559505 37.9679259 35.1980536 38.0160741 35.1112082 38.0508889 34.9924454L38.0516296 34.9894763 37.9279259 34.9449402zM32.8964444 34.9380371C32.8164444 35.0404701 32.7045926 35.106532 32.5779259 35.106532 32.4786667 35.106532 32.4016296 35.0753567 32.349037 35.0204289 32.2971852 34.9662433 32.2697778 34.8883052 32.2697778 34.7940371 32.269037 34.6500371 32.3231111 34.5082639 32.409037 34.4021196 32.4942222 34.2959753 32.6112593 34.2254598 32.7379259 34.2254598 32.8297778 34.2262021 32.9016296 34.2596041 32.9505185 34.3182433 32.9994074 34.3761402 33.0253333 34.458532 33.0253333 34.5565113 33.0253333 34.6982845 32.9764444 34.8363464 32.8964444 34.9380371M33.1771852 34.1386144C33.0957037 34.0458309 32.9757037 33.9931299 32.8245926 33.9931299 32.7364444 33.9931299 32.652 34.0243052 32.5764444 34.0732948 32.5068148 34.1185732 32.449037 34.1801814 32.4001481 34.2469856L32.6371852 33.2864907C32.5616296 33.3384495 32.4957037 33.3777897 32.3927407 33.3777897 32.2934815 33.3777897 32.1897778 33.359233 32.1112593 33.3369649 32.032 33.3221196 31.9386667 33.3035629 31.8475556 33.3035629 31.5231111 33.3035629 31.3868148 33.5626144 31.3868148 33.7734186 31.3868148 33.8624907 31.4075556 33.9382021 31.4394074 34.0109443 31.3875556 33.999068 31.332 33.9931299 31.2734815 33.9931299 31.112 33.9931299 30.9860741 34.0384082 30.9008889 34.109666 30.8157037 34.181666 30.7705185 34.2796454 30.7705185 34.3843052 30.7705185 34.4897072 30.814963 34.5654186 30.8816296 34.6248 30.9482963 34.6834392 31.0371852 34.7264907 31.1275556 34.7673155 31.1994074 34.799233 31.2675556 34.8281814 31.3179259 34.8623258 31.3423704 34.8801402 31.3631111 34.8986969 31.3771852 34.9194804 31.3905185 34.9402639 31.3986667 34.9632742 31.3986667 34.9899959 31.3986667 35.015233 31.392 35.037501 31.3794074 35.0575423 31.3608889 35.0864907 31.329037 35.1080165 31.2897778 35.1236041 31.2505185 35.1384495 31.2031111 35.1458722 31.1527407 35.1458722 31.0601481 35.1458722 30.9734815 35.1243464 30.9142222 35.0946557 30.8942222 35.0835216 30.8801481 35.0753567 30.869037 35.0642227 30.8868148 35.0426969 30.8979259 35.0107794 30.8979259 34.9810887 30.8979259 34.9402639 30.8831111 34.9038928 30.8564444 34.8764289 30.8305185 34.8497072 30.7934815 34.8326351 30.7505185 34.8326351 30.7053333 34.8326351 30.6668148 34.8511918 30.6386667 34.8816247 30.6105185 34.9128 30.5934815 34.9558515 30.5934815 35.0048412 30.5934815 35.0694186 30.6245926 35.1273155 30.6757037 35.178532 30.7727407 35.2787381 30.9482963 35.3455423 31.1468148 35.3455423 31.3008889 35.3455423 31.4297778 35.3099134 31.5208889 35.242367 31.612 35.1740784 31.6638519 35.0738722 31.6638519 34.9447175 31.6638519 34.8430268 31.6208889 34.7673155 31.554963 34.7071918 31.4897778 34.647068 31.4023704 34.602532 31.3134815 34.5624495 31.2386667 34.5275629 31.1682963 34.4956454 31.1179259 34.4607588 31.0927407 34.4429443 31.0727407 34.4251299 31.0586667 34.4050887 31.0445926 34.3850474 31.0364444 34.3635216 31.0364444 34.3397691 31.0364444 34.2944907 31.0616296 34.2588619 31.1038519 34.2336247 31.1460741 34.2091299 31.2045926 34.1957691 31.2697778 34.1957691 31.3357037 34.1957691 31.3986667 34.2076454 31.4431111 34.2254598 31.4645926 34.2336247 31.4764444 34.2417897 31.4845926 34.2469856 31.4645926 34.2818722 31.4586667 34.3033979 31.4586667 34.3308619 31.4586667 34.4110268 31.5260741 34.4785732 31.6097778 34.4785732 31.6512593 34.4785732 31.6897778 34.461501 31.7179259 34.4318103 31.7453333 34.4021196 31.7631111 34.3598103 31.7631111 34.3093361 31.7631111 34.2477278 31.7357037 34.1868619 31.6875556 34.1386144L31.6875556 34.1378722C31.6594074 34.1089237 31.6238519 34.0836866 31.5831111 34.0621608 31.5542222 33.9998103 31.5357037 33.9292948 31.5357037 33.8506144 31.5357037 33.6101196 31.7023704 33.4995216 31.8357037 33.4995216 31.8994074 33.4995216 31.9897778 33.503233 32.069037 33.5106557 32.1386667 33.5217897 32.2297778 33.5292124 32.3053333 33.5292124L32.3060741 33.5292124 31.8860741 35.3217897 32.1608889 35.3217897 32.2179259 35.0575423C32.2653333 35.2267794 32.4223704 35.3455423 32.6112593 35.3455423 32.8001481 35.3455423 32.9734815 35.2520165 33.0986667 35.1028206 33.2245926 34.9528825 33.3031111 34.746532 33.3031111 34.5201402 33.3031111 34.3627794 33.2594074 34.2306557 33.1771852 34.1386144" mask="url(#icon_index_2-b)"/>
    <polygon fill="#FFF" points="44.219 20.371 44.891 20.371 44.831 20.631 44.159 20.631" mask="url(#icon_index_2-b)"/>
    <path fill="#FFF" d="M49.8036296,19.3678515 L49.7177037,19.3678515 C49.7177037,20.3431918 49.3236296,21.2250062 48.6851111,21.864099 C48.0473333,22.503934 47.1673333,22.8988206 46.194,22.8988206 C45.2206667,22.8988206 44.3406667,22.503934 43.7021481,21.864099 C43.0643704,21.2250062 42.6702963,20.3431918 42.6702963,19.3678515 C42.6702963,18.3925113 43.0643704,17.5106969 43.7021481,16.8708619 C44.3406667,16.2317691 45.2206667,15.8368825 46.194,15.8368825 C47.1673333,15.8368825 48.0473333,16.2317691 48.6851111,16.8708619 C49.3236296,17.5106969 49.7177037,18.3925113 49.7177037,19.3678515 L49.8036296,19.3678515 L49.8895556,19.3678515 C49.8895556,18.3457485 49.4754815,17.4193979 48.8073333,16.7491299 C48.1384444,16.0788619 47.214,15.6646763 46.194,15.6646763 C45.174,15.6646763 44.2488148,16.0788619 43.5806667,16.7491299 C42.9117778,17.4193979 42.4984444,18.3457485 42.4984444,19.3678515 C42.4984444,20.3899546 42.9117778,21.3163052 43.5806667,21.9865732 C44.2488148,22.6568412 45.174,23.0710268 46.194,23.0710268 C47.214,23.0710268 48.1384444,22.6568412 48.8073333,21.9865732 C49.4754815,21.3163052 49.8895556,20.3899546 49.8895556,19.3678515 L49.8036296,19.3678515 Z" mask="url(#icon_index_2-b)"/>
    <path fill="#FFF" d="M46.9412593 18.3758103C46.8760741 18.4589443 46.784963 18.5131299 46.6812593 18.5131299 46.5997778 18.5131299 46.5368148 18.4878928 46.4938519 18.4433567 46.4516296 18.3988206 46.4294074 18.3349856 46.4294074 18.2577897 46.4294074 18.1412536 46.4731111 18.0247175 46.5427407 17.9378722 46.6131111 17.8510268 46.7086667 17.7938722 46.8116296 17.7938722 46.8864444 17.7938722 46.944963 17.8220784 46.984963 17.8695835 47.024963 17.9170887 47.0464444 17.9846351 47.0464444 18.0640577 47.0464444 18.1798515 47.0064444 18.2926763 46.9412593 18.3758103M47.1708889 17.7226144C47.1034815 17.6476454 47.0057037 17.6038515 46.8827407 17.6038515 46.8108889 17.6038515 46.7412593 17.6290887 46.6797778 17.6691711 46.6227407 17.7070268 46.5753333 17.757501 46.5360741 17.8116866L46.7294074 17.0271093C46.6671852 17.0694186 46.6138519 17.1013361 46.5301481 17.1013361 46.4479259 17.1013361 46.3642222 17.0864907 46.2997778 17.0686763 46.2353333 17.0560577 46.159037 17.0412124 46.084963 17.0412124 45.8197778 17.0412124 45.7086667 17.2527588 45.7086667 17.4242227 45.7086667 17.4969649 45.724963 17.5593155 45.7516296 17.6186969 45.7094074 17.6090474 45.6634815 17.6038515 45.6153333 17.6038515 45.4842222 17.6038515 45.3812593 17.6409649 45.3116296 17.6996041 45.242 17.757501 45.2057037 17.8384082 45.2057037 17.9237691 45.2057037 18.0091299 45.242 18.0714804 45.2960741 18.1197278 45.3508889 18.1679753 45.4234815 18.2028619 45.4968148 18.2362639 45.5553333 18.2622433 45.6116296 18.2859959 45.6516296 18.3142021 45.6723704 18.3283052 45.6894074 18.3438928 45.7005185 18.3602227 45.7116296 18.3772948 45.7182963 18.3965938 45.7182963 18.4181196 45.7182963 18.4389031 45.7123704 18.4567175 45.7027407 18.4730474 45.6871852 18.4968 45.6612593 18.5146144 45.6294074 18.527233 45.5975556 18.5391093 45.5582963 18.5450474 45.5175556 18.5450474 45.442 18.5450474 45.3708889 18.5279753 45.3227407 18.5034804 45.3064444 18.4945732 45.2953333 18.4871505 45.2857037 18.4789856 45.3005185 18.4611711 45.3094074 18.4351918 45.3094074 18.4106969 45.3094074 18.3772948 45.2968148 18.3476041 45.2753333 18.3253361 45.2545926 18.303068 45.2242222 18.2897072 45.1886667 18.2897072 45.1523704 18.2897072 45.1205185 18.3045526 45.0975556 18.3297897 45.0745926 18.3550268 45.0605185 18.3906557 45.0605185 18.4299959 45.0605185 18.4826969 45.0857037 18.5302021 45.1279259 18.5725113 45.2071852 18.6541608 45.3501481 18.7083464 45.5123704 18.7083464 45.6382963 18.7083464 45.7434815 18.6793979 45.8175556 18.6237278 45.8923704 18.5680577 45.9353333 18.4864082 45.9353333 18.3810062 45.9353333 18.2978722 45.8997778 18.2362639 45.8457037 18.1872742 45.7923704 18.1382845 45.7212593 18.1019134 45.6486667 18.0685113 45.5871852 18.0403052 45.5301481 18.0143258 45.4894074 17.9861196 45.4686667 17.9720165 45.4516296 17.9564289 45.4405185 17.940099 45.4286667 17.9245113 45.422 17.9066969 45.422 17.8866557 45.4227407 17.8502845 45.4427407 17.8205938 45.4768148 17.8005526 45.5116296 17.7805113 45.5597778 17.7693773 45.6131111 17.7693773 45.6664444 17.7693773 45.7182963 17.7790268 45.7545926 17.7938722 45.7716296 17.8005526 45.7812593 17.8064907 45.7886667 17.8116866 45.7723704 17.8398928 45.7671852 17.8577072 45.7671852 17.8799753 45.7671852 17.9452948 45.8227407 18.0002227 45.8901481 18.0002227 45.9242222 18.0002227 45.9553333 17.9868619 45.979037 17.962367 46.0012593 17.9378722 46.0160741 17.9037278 46.0160741 17.8621608 46.0160741 17.8124289 45.9938519 17.7626969 45.9538519 17.7226144 45.9308889 17.6988619 45.902 17.6780784 45.8686667 17.6602639 45.8457037 17.6090474 45.8301481 17.5526351 45.8301481 17.4880577 45.8301481 17.292099 45.9664444 17.2008 46.0753333 17.2008 46.1264444 17.2008 46.2012593 17.2037691 46.264963 17.2104495 46.3227407 17.2193567 46.3968148 17.2252948 46.4582963 17.2252948L46.459037 17.2252948 46.1160741 18.6883052 46.3405185 18.6883052 46.3871852 18.4730474C46.4257037 18.6111093 46.5538519 18.7083464 46.7086667 18.7083464 46.8627407 18.7083464 47.0034815 18.6326351 47.1064444 18.5101608 47.2086667 18.3876866 47.2731111 18.219934 47.2731111 18.034367 47.2731111 17.9059546 47.2368148 17.7983258 47.1708889 17.7226144M48.3040741 20.7665072L48.3033333 20.7694763C48.2788889 20.8362804 48.2551852 20.8785897 48.2322222 20.9045691 48.21 20.9305485 48.1885185 20.9387134 48.1685185 20.9387134 48.1485185 20.9387134 48.1337037 20.932033 48.1225926 20.9194144 48.1114815 20.9060536 48.1055556 20.8874969 48.1055556 20.8630021 48.1055556 20.8444454 48.112963 20.810301 48.1203704 20.7783835L48.2107407 20.4673732C48.2277778 20.4057649 48.2381481 20.3471258 48.2381481 20.295167 48.2381481 20.2001567 48.2062963 20.1244454 48.1544444 20.0724866 48.1025926 20.0212701 48.03 19.9930639 47.9492593 19.9930639 47.8759259 19.9930639 47.8048148 20.0227546 47.7418519 20.0710021 47.6840741 20.1155381 47.6322222 20.1756619 47.5914815 20.2432082L47.6662963 20.0101361 47.4492593 20.0101361 47.19 21.0723216 47.4107407 21.0723216 47.552963 20.4963216C47.5796296 20.3916619 47.6240741 20.3122392 47.6766667 20.2580536 47.73 20.2053526 47.7922222 20.1778887 47.8559259 20.1778887 47.9025926 20.1778887 47.9418519 20.1934763 47.9692593 20.2194557 47.9959259 20.2454351 48.0114815 20.2832907 48.0114815 20.3293113 48.0114815 20.3634557 48.007037 20.3946309 47.9951852 20.4361979L47.9040741 20.7546309C47.8944444 20.7947134 47.8877778 20.840734 47.887037 20.8756206 47.887037 20.9372289 47.9077778 20.9906722 47.9462963 21.0292701 47.9855556 21.0671258 48.0418519 21.0893938 48.1151852 21.0893938 48.1803704 21.0893938 48.2388889 21.0663835 48.2877778 21.0188784 48.3359259 20.9721155 48.3759259 20.9016 48.4040741 20.8051052L48.4048148 20.8028784 48.3040741 20.7665072z" mask="url(#icon_index_2-b)"/>
    <path fill="#FFB8AC" d="M11.8678979,50.3267139 C12.0039527,50.5306672 12.1668892,50.71428 12.3484785,50.8775526 L12.3462841,50.8792018 L22.2909014,59.8366516 C22.6935797,60.1994795 23.0496263,60.6112341 23.3513607,61.0620202 L23.5609289,61.3759213 C24.4891737,62.7640126 25.0909967,64.3450625 25.3219606,65.9997773 L37.1625673,65.9997773 C37.7704249,60.1109715 35.4827296,52.4201206 35.4827296,52.4201206 C35.4827296,52.4201206 34.8638997,51.0369769 33.5236504,50.2662426 L21.2556781,43.3692151 C20.8096598,43.1185341 20.3219473,42.9514134 19.8161307,42.8760991 C19.3399389,42.8051828 18.8533236,42.8667535 18.4094997,43.0542146 C17.6754622,43.3637177 17.1328889,43.97008 16.8991819,44.768851 C16.717044,45.3917055 16.78562,46.0409474 17.0747365,46.6225715 C17.3172212,47.1101901 17.6798511,47.4933583 18.1456193,47.7550341 L23.9559267,51.0215842 C24.4233407,51.2849093 24.7031308,51.9297533 24.511118,52.4316652 C24.3114247,52.9550168 23.7748861,53.2430802 23.2432849,53.1375302 C23.12698,53.1144412 23.015064,53.0732108 22.9113771,53.0149384 L17.1092988,49.7527862 C16.6539541,49.4966078 16.2863868,49.2239372 15.9868468,48.9193817 C15.9566733,48.8880465 15.9341804,48.8517638 15.904007,48.8204286 C15.8617642,48.7813971 15.8134867,48.7495123 15.7734383,48.7082818 C14.7420552,47.6588298 14.3476061,46.239953 14.606549,44.9035371 C14.6800625,44.2795832 14.8616518,43.6611266 15.1847819,43.0833508 C15.7054109,42.1537419 16.5184479,41.4280862 17.4971646,41.0058865 L16.854196,32.0632796 C16.9304526,30.3497427 15.523273,28.9143737 13.7715677,29.0039812 C12.2447916,29.0814944 11.0680274,30.3986694 11,31.9291433 L11.3768937,48.5658994 C11.3483661,49.2156911 11.5326984,49.8253518 11.8678979,50.3267139 M67.3661811,29.0039812 C68.8924086,29.0814944 70.0691728,30.3986694 70.1372002,31.9291433 L69.7603065,48.5658994 C69.7888341,49.2156911 69.6045018,49.8253518 69.2693023,50.3267139 C69.1332475,50.5306672 68.9703109,50.71428 68.7881731,50.8775526 L68.7909161,50.8792018 L58.8462988,59.8366516 C58.4436205,60.1994795 58.0875739,60.6112341 57.7858395,61.0620202 L57.5762712,61.3759213 C56.6480265,62.7640126 56.0462035,64.3450625 55.8152395,65.9997773 L43.9746329,65.9997773 C43.3667752,60.1109715 45.653922,52.4201206 45.653922,52.4201206 C45.653922,52.4201206 46.2727518,51.0369769 47.6135498,50.2662426 L59.8815221,43.3692151 C60.3275404,43.1185341 60.8152529,42.9514134 61.3210695,42.8760991 C61.7972612,42.8051828 62.2833279,42.8667535 62.7277004,43.0542146 C63.4617379,43.3637177 64.0043113,43.97008 64.2374697,44.768851 C64.4201561,45.3917055 64.3515801,46.0409474 64.0624637,46.6225715 C63.819979,47.1101901 63.4573491,47.4933583 62.9915809,47.7550341 L57.1812735,51.0215842 C56.7138594,51.2849093 56.4335208,51.9297533 56.6255336,52.4316652 C56.8257755,52.9550168 57.3623141,53.2430802 57.8939153,53.1375302 C58.0102202,53.1144412 58.1221362,53.0732108 58.2258231,53.0149384 L64.0279014,49.7527862 C64.483246,49.4966078 64.8508134,49.2239372 65.1503534,48.9193817 C65.1805268,48.8880465 65.2030198,48.8517638 65.2326446,48.8204286 C65.275436,48.7813971 65.3237135,48.7495123 65.3637619,48.7082818 C66.395145,47.6588298 66.7895941,46.239953 66.5306511,44.9035371 C66.456589,44.2795832 66.2755484,43.6611266 65.9518697,43.0833508 C65.4317893,42.1537419 64.6187522,41.4280862 63.6400355,41.0058865 L64.2830041,32.0632796 C64.2067476,30.3497427 65.6139272,28.9143737 67.3661811,29.0039812" mask="url(#icon_index_2-b)"/>
  </g>
</svg>
