<svg xmlns="http://www.w3.org/2000/svg" width="35" height="35" viewBox="0 0 35 35">
  <path fill="#FFB8AC" fill-rule="evenodd" d="M32.9220577,4.87218433 C32.878253,5.03927103 32.6562251,5.15066215 32.4686716,5.21638292 C32.0725321,5.30772365 28.4177693,6.19391964 27.189974,7.99049942 L27.179853,8.00561679 C27.1406344,8.06751843 23.2020112,14.2126488 18.9216484,15.6823751 C18.6426902,15.7781715 18.4935647,16.0835423 18.5887647,16.3640889 C18.6645135,16.5875076 18.8719926,16.7280196 19.0940205,16.7280196 C19.1509507,16.7280196 19.209146,16.7186309 19.2663926,16.6990579 C21.0097228,16.1004101 22.6648112,14.8397808 24.0613414,13.4863786 C24.101667,13.8966162 24.1234902,14.3181521 24.1234902,14.7500314 L24.123174,14.7670583 L24.1242809,14.7931557 C24.1359833,15.1788872 24.0762065,17.1043625 21.7616763,17.5173053 L7.21410419,17.5173053 C7.20082047,17.5173053 5.88320186,17.5045749 4.61840186,16.7186309 C2.97406698,15.696856 2.13877395,13.8382154 2.1349786,11.1936309 C2.15300651,10.7418603 2.57349953,3.72024093 11.1815088,3.71339833 C11.3915181,3.71912702 15.5588112,3.64465409 19.10936,5.66640308 C16.0873135,6.32472465 15.1633042,7.58201224 15.1046344,7.66619211 C14.9371647,7.90616043 14.9948856,8.23349122 15.2303553,8.40567007 C15.465667,8.57784893 15.7982344,8.52454032 15.9732949,8.29014156 C15.9941693,8.26229378 18.1447088,5.53066503 27.0372112,6.58744859 L27.0648856,6.58983554 C27.1792205,6.5969964 29.8791367,6.73862226 31.2378716,3.72931135 C31.2590623,3.69191575 31.432067,3.40357186 31.6673786,3.36967713 C31.8746995,3.33864675 32.1686809,3.5128943 32.4825879,3.85311463 C32.6733042,4.0653943 32.9978065,4.58240827 32.9220577,4.87218433 M22.1935553,4.29549654 L22.2213879,4.29804263 C22.3354065,4.30552175 25.0356391,4.44698848 26.3938995,1.43815495 C26.4452949,1.34522293 26.618774,1.10541374 26.8272019,1.07740683 C27.0353135,1.04939991 27.3272391,1.22317007 27.6382995,1.56004868 C27.8589042,1.80892828 28.151146,2.30573272 28.0782437,2.5813462 C28.0341228,2.74779637 27.8127274,2.85886924 27.6250158,2.92459001 C27.2612949,3.00861074 24.1513228,3.76320608 22.6946995,5.27685239 C22.4590716,5.28178543 22.2300856,5.28990107 22.0080577,5.30104018 L22.0086902,5.30056279 C21.4221507,4.85308871 20.8012949,4.46019628 20.1666809,4.1123377 C20.8193228,4.1529159 21.4937879,4.21243059 22.1935553,4.29549654 M33.2699647,3.12764012 C32.6895926,2.4985985 32.099574,2.22203024 31.5157228,2.30636924 C30.7152205,2.42189775 30.3228763,3.16821832 30.2808112,3.25303471 L30.2717972,3.27228946 C29.2540112,5.54275893 27.3202809,5.52509548 27.1441135,5.51857114 C26.0978623,5.39476786 25.1381135,5.3217271 24.2579088,5.28990107 C25.3995181,4.54294398 27.1132763,4.13970809 27.8864205,3.96641532 L27.9392391,3.95161622 C28.7405321,3.6826862 29.0188577,3.20625043 29.1108949,2.85361794 C29.3579088,1.90870291 28.5270437,0.947874856 28.4263088,0.835847206 C27.8457786,0.206805588 27.2574995,-0.0691261521 26.6719088,0.0147354551 C25.8714065,0.130263969 25.4793786,0.876584533 25.4373135,0.961241791 L25.4282995,0.980496544 C24.4101972,3.25160253 22.4736205,3.23250691 22.3006158,3.2266191 C20.634774,3.02961593 19.0910158,2.95068736 17.6872112,2.98776469 C14.4028112,1.76755444 11.38456,1.56848257 11.2142437,1.56529997 L11.19416,1.56514084 C5.57672744,1.56514084 2.8225693,4.16628283 1.50115535,6.34843505 C0.0767925581,8.70069744 0.00278325581,11.0499363 0.000253023255,11.1487562 L-6.32558149e-05,11.1756492 C-6.32558149e-05,13.9193718 0.764857674,16.0738354 2.27350884,17.5788887 C4.32220651,19.6227568 6.9969786,19.6655628 7.20746233,19.6655628 L7.21758326,19.6655628 L21.9349972,19.6655628 L22.0184949,19.6521959 C25.5116391,19.0930124 26.3181507,16.2024126 26.258374,14.7258436 C26.2571088,13.8133911 26.0864763,12.4598298 25.9050902,11.4994791 C27.1632484,10.004451 27.9729228,8.7516191 28.0744484,8.59217065 C28.9370995,7.34108914 31.7260484,6.48337745 32.7299181,6.25804911 L32.7824205,6.24340913 C33.5840298,5.97447912 33.8620391,5.49788422 33.9543926,5.14541086 C34.2010902,4.20049582 33.3702251,3.23950864 33.2699647,3.12764012" transform="translate(1 8)"/>
</svg>
