<svg xmlns="http://www.w3.org/2000/svg" width="98" height="98" viewBox="0 0 98 98">
  <g fill="none" fill-rule="evenodd" transform="translate(4 4)">
    <circle cx="45" cy="45" r="45" fill="#FFB8AC" stroke="#F5F5F5" stroke-width="8"/>
    <path fill="#A5B6F3" d="M27.57,36.24 C30.15,36.24 32.03,34.82 32.03,32.42 C32.03,30.1 30.33,29.28 28.07,28.44 C26.57,27.86 25.39,27.32 25.39,26.06 C25.39,24.96 26.27,24.18 27.73,24.18 C28.55,24.18 29.33,24.42 29.69,24.74 C29.57,24.92 29.47,25.12 29.47,25.44 C29.47,26.04 29.93,26.6 30.69,26.6 C31.33,26.6 31.85,26.12 31.85,25.3 C31.85,23.84 30.05,22.6 27.75,22.6 C25.21,22.6 23.57,24.14 23.57,26.2 C23.57,28.54 25.27,29.34 27.63,30.22 C29.03,30.74 30.23,31.32 30.23,32.56 C30.23,33.86 29.21,34.64 27.61,34.64 C26.55,34.64 25.67,34.34 25.21,33.94 C25.37,33.7 25.47,33.44 25.47,33.08 C25.47,32.52 24.99,31.98 24.27,31.98 C23.57,31.98 23.07,32.52 23.07,33.36 C23.07,34.78 24.99,36.24 27.57,36.24 Z M36.75,36 L42.01,36 L42.01,34.38 L40.29,34.38 L40.29,24.4 L43.23,24.4 L43.23,26.5 L44.95,26.5 L44.95,22.84 L33.81,22.84 L33.81,26.5 L35.53,26.5 L35.53,24.4 L38.47,24.4 L38.47,34.38 L36.75,34.38 L36.75,36 Z M46.49,36 L56.17,36 L56.17,32.56 L54.43,32.56 L54.43,34.4 L49.91,34.4 L49.91,30.08 L54.07,30.08 L54.07,28.52 L49.91,28.52 L49.91,24.44 L54.43,24.44 L54.43,26.28 L56.15,26.28 L56.15,22.84 L46.49,22.84 L46.49,24.46 L48.09,24.46 L48.09,34.38 L46.49,34.38 L46.49,36 Z M58.15,36 L58.15,34.38 L59.75,34.38 L59.75,24.46 L58.15,24.46 L58.15,22.84 L63.31,22.84 C66.09,22.84 68.23,24.46 68.23,27.06 C68.23,29.88 66.19,31.42 63.19,31.42 C62.51,31.42 61.91,31.4 61.57,31.38 L61.57,34.38 L63.29,34.38 L63.29,36 L58.15,36 Z M63.31,29.82 C65.21,29.82 66.37,28.78 66.37,27.06 C66.37,25.44 65.03,24.46 63.27,24.46 L61.57,24.46 L61.57,29.78 C61.91,29.8 62.45,29.82 63.31,29.82 Z"/>
    <path fill="#FFF" d="M32.76,69.384 C26.088,69.384 21.288,63.912 21.288,56.616 C21.288,49.32 26.088,43.896 32.76,43.896 C39.432,43.896 44.232,49.368 44.232,56.616 C44.232,63.96 39.432,69.384 32.76,69.384 Z M32.76,65.832 C37.032,65.832 39.96,61.992 39.96,56.616 C39.96,51.336 37.032,47.4 32.76,47.4 C28.488,47.4 25.56,51.288 25.56,56.616 C25.56,61.992 28.488,65.832 32.76,65.832 Z M58.056,47.448 C61.224,47.448 63.336,48.984 63.336,51.144 C63.336,53.496 60.936,55.032 57.816,57 C53.688,59.544 49.848,62.472 47.976,66.936 L48.6,69 L68.376,69 L68.376,61.512 L64.824,61.512 L64.824,65.592 L53.208,65.592 C54.6,63.336 56.856,61.704 60.12,59.784 C64.2,57.336 67.56,55.128 67.56,51.048 C67.56,47.4 64.248,43.896 58.248,43.896 C54.408,43.896 51.24,45.624 49.704,47.688 C49.08,48.552 48.696,49.512 48.696,50.376 C48.696,52.344 49.992,53.688 51.528,53.688 C53.016,53.688 54.216,52.44 54.216,50.952 C54.216,50.28 53.832,49.56 53.304,49.128 C54.072,48.12 55.944,47.448 58.056,47.448 Z"/>
  </g>
</svg>
