<?xml version="1.0" encoding="UTF-8"?>
<svg width="266px" height="117px" viewBox="0 0 266 117" version="1.1" xmlns="http://www.w3.org/2000/svg" xmlns:xlink="http://www.w3.org/1999/xlink">
    <!-- Generator: Sketch 43.2 (39069) - http://www.bohemiancoding.com/sketch -->
    <title>logo_sboon</title>
    <desc>Created with Sketch.</desc>
    <defs>
        <polygon id="path-1" points="27.1974579 0.104854857 0 0.104854857 0 41.0917684 27.1974579 41.0917684 54.3949158 41.0917684 54.3949158 0.104854857"></polygon>
    </defs>
    <g id="Page-1" stroke="none" stroke-width="1" fill="none" fill-rule="evenodd">
        <g id="Artboard" transform="translate(-461.000000, -109.000000)">
            <g id="logo_sboon" transform="translate(461.000000, 109.000000)">
                <g id="logo2" transform="translate(0.000000, 0.165899)" fill="#F6F6F6">
                    <polygon id="Fill-1" points="26.9785822 74.2021614 37.5053457 74.2021614 36.5622848 78.2770416 26.0324595 78.2770416"></polygon>
                    <g id="Group-9" transform="translate(0.000000, 0.249330)">
                        <g id="Group-4" transform="translate(0.000000, -0.000000)">
                            <path d="M114.499527,58.2225054 L113.152297,58.2225054 C113.149235,73.509443 106.973411,87.335806 96.9732922,97.3573111 C86.976235,107.375748 73.1793774,113.567847 57.9220004,113.567847 C42.6707471,113.567847 28.8708276,107.375748 18.8737704,97.3573111 C8.8767132,87.335806 2.6978276,73.509443 2.6978276,58.2225054 C2.6978276,42.9355679 8.8767132,29.1061364 18.8737704,19.0876998 C28.8708276,9.0692632 42.6707471,2.87716364 57.9220004,2.87716364 C73.1793774,2.87716364 86.976235,9.0692632 96.9732922,19.0876998 C106.973411,29.1061364 113.149235,42.9355679 113.152297,58.2225054 L114.499527,58.2225054 L115.846756,58.2225054 C115.846756,42.1960753 109.361682,27.6762462 98.8808471,17.1760655 C88.4061357,6.67281635 73.91423,0.173873399 57.9220004,0.173873399 C41.9328326,0.173873399 27.4439889,6.67281635 16.9662156,17.1760655 C6.48538037,27.6762462 -0.00275569724,42.1960753 0.000306188583,58.2225054 C-0.00275569724,74.2489356 6.48538037,88.7687647 16.9662156,99.2689454 C27.4439889,109.769126 41.9328326,116.271137 57.9220004,116.268069 C73.91423,116.271137 88.4061357,109.769126 98.8808471,99.2689454 C109.361682,88.7687647 115.846756,74.2489356 115.846756,58.2225054 L114.499527,58.2225054 Z" id="Fill-2"></path>
                        </g>
                        <path d="M69.6370817,42.6735236 C68.61135,43.9806765 67.1814493,44.8275642 65.5647736,44.8275642 C64.2849053,44.8275642 63.30204,44.4286678 62.631487,43.7290649 C61.9639958,43.0325304 61.611879,42.0352894 61.611879,40.8293949 C61.611879,38.991403 62.3008033,37.1687533 63.3938965,35.809437 C64.4869898,34.4501208 65.9873138,33.5541381 67.6009277,33.5541381 C68.7828156,33.5541381 69.7013813,33.9898558 70.326006,34.7385536 C70.9506307,35.4811146 71.2874382,36.5397243 71.2874382,37.7855085 C71.2874382,39.6050897 70.6628135,41.3663708 69.6370817,42.6735236 M73.2286738,32.4372282 C72.1845707,31.2528127 70.6505659,30.5716204 68.718516,30.5746889 C67.591742,30.5746889 66.5078344,30.9735853 65.5464023,31.6026142 C64.6492697,32.1886851 63.9052315,32.9742041 63.2836686,33.8302972 L66.3210594,21.5320142 C65.3504416,22.2009328 64.5053611,22.7010875 63.1918121,22.7010875 C61.9150057,22.7010875 60.5953329,22.4648181 59.5879724,22.1794538 C58.580612,21.9922793 57.3772909,21.7560099 56.2137743,21.7560099 C52.0679809,21.7560099 50.3227059,25.06685 50.3227059,27.760935 C50.3227059,28.9023924 50.5768425,29.8720175 50.9932589,30.8048214 C50.3318916,30.6544681 49.6154103,30.5746889 48.8591245,30.5746889 C46.7954135,30.5746889 45.1879234,31.1546229 44.0978921,32.0720846 C43.0078607,32.9895463 42.4322262,34.2445358 42.4322262,35.5885098 C42.4322262,36.9294154 42.998675,37.8990405 43.8529412,38.6569437 C44.7041454,39.4148468 45.843167,39.9640965 46.9974979,40.4857303 C47.9191256,40.8876951 48.791763,41.2651125 49.4316972,41.7100354 C49.7501333,41.9309626 50.0103936,42.167232 50.187983,42.4341858 C50.3686342,42.7011395 50.4666146,42.9957092 50.4696765,43.3332369 C50.4696765,43.6615593 50.3778199,43.9499921 50.2216637,44.1954668 C49.9828366,44.5667473 49.5817296,44.8490432 49.0765184,45.0392861 C48.5743691,45.2325975 47.9681157,45.3277189 47.3220578,45.3277189 C46.137108,45.3307874 45.0287053,45.0607652 44.2693577,44.6802794 C44.018283,44.536063 43.8376318,44.4255994 43.6937231,44.2905883 C43.9172408,44.0113608 44.0611494,43.6001907 44.0611494,43.2166364 C44.0611494,42.704208 43.8651887,42.2286007 43.5314432,41.8849361 C43.1946357,41.5382031 42.7200434,41.3234127 42.1719659,41.3234127 C41.6024551,41.3234127 41.0972439,41.5596821 40.7390033,41.9524417 C40.3807627,42.3482696 40.1664306,42.8975193 40.1664306,43.5265482 C40.1664306,44.3488885 40.5552901,45.0945179 41.2166575,45.7542312 C42.4597831,47.0368366 44.6980217,47.8867928 47.2455107,47.8867928 C49.2143033,47.8867928 50.8677216,47.4326646 52.0312382,46.5642978 C53.1947548,45.6928626 53.8653078,44.4041203 53.8653078,42.7533029 C53.8653078,41.4522869 53.3080446,40.4826618 52.4721498,39.7155534 C51.6331931,38.9484449 50.5156047,38.3807846 49.3796451,37.8591509 C48.418213,37.4172964 47.5241423,37.0122631 46.8780844,36.5612033 C46.5535245,36.3402761 46.2902023,36.1009383 46.109551,35.8462583 C45.9288998,35.5915782 45.8309194,35.3184876 45.8309194,35.0116442 C45.8309194,34.4317102 46.1554793,33.977582 46.6913093,33.6584649 C47.2302013,33.3393478 47.9834252,33.1675155 48.8223819,33.1675155 C49.6644005,33.1675155 50.4666146,33.3209372 51.0361253,33.5510697 C51.3116951,33.6553965 51.4586656,33.7535863 51.5688935,33.8302972 C51.3147569,34.2721517 51.2382098,34.5513792 51.2382098,34.8950438 C51.2382098,35.9229691 52.1016616,36.7913359 53.1671979,36.7913359 C53.6969041,36.7913359 54.1929296,36.5734771 54.5511703,36.1929913 C54.9094109,35.8125055 55.1359905,35.2724611 55.1359905,34.6250216 C55.1359905,33.8425709 54.7808117,33.0601203 54.1592489,32.4372282 C53.8010082,32.0628793 53.3478491,31.7376253 52.8242667,31.4614662 C52.4599022,30.660605 52.2210751,29.7646223 52.2210751,28.7551076 C52.2210751,25.6805368 54.3521477,24.2629204 56.0576181,24.2629204 C56.8751416,24.2629204 58.0355963,24.3089469 59.0460187,24.4040683 C59.9370274,24.5452163 61.0974822,24.6403377 62.0681,24.6403377 L62.0772856,24.6403377 L56.703676,47.576881 L60.2217828,47.576881 L60.9566354,44.1985353 C61.5598269,46.367918 63.568424,47.8867928 65.9873138,47.8867928 C68.4062036,47.8867928 70.6199471,46.693172 72.2274371,44.7784693 C73.8349272,42.8637665 74.8361639,40.221845 74.8361639,37.3221749 C74.8361639,35.3123508 74.2789006,33.6216437 73.2286738,32.4372282" id="Fill-5"></path>
                        <path d="M90.9971034,80.1464655 L90.981794,80.1894235 C90.5990583,81.2418964 90.2285701,81.9108149 89.8733913,82.3127798 C89.5212745,82.7116762 89.1905908,82.8466873 88.8782785,82.8466873 C88.5629042,82.8466873 88.3179533,82.7362237 88.1526115,82.5367755 C87.9842078,82.3373273 87.8892893,82.0396892 87.8892893,81.6653402 C87.8892893,81.3677022 88.0025791,80.8307262 88.1189308,80.3336399 L89.533522,75.4578985 L89.533522,75.4548301 C89.802968,74.4944103 89.9591241,73.5677432 89.9591241,72.7546083 C89.9591241,71.2664178 89.4661605,70.0820024 88.6516989,69.2719358 C87.8372373,68.4618693 86.7043395,68.0261517 85.430595,68.0261517 C84.2885116,68.0261517 83.177047,68.4925536 82.1880579,69.2443199 C81.2725541,69.9408544 80.4642162,70.885932 79.8304058,71.9414733 L80.9939224,68.2931054 L77.601353,68.2931054 L73.5321067,84.9362908 L76.9981614,84.9362908 L79.2272143,75.9150952 C79.6466927,74.2704146 80.335617,73.021562 81.1653881,72.1838796 C81.998221,71.3461971 82.9719007,70.9196848 83.9731374,70.9196848 C84.7110518,70.9196848 85.3203671,71.1559542 85.7490311,71.5701928 C86.1746333,71.9813629 86.4195841,72.5735707 86.4195841,73.2946526 C86.4195841,73.8254917 86.343037,74.3195095 86.1532001,74.9700175 L84.7355469,79.9623594 L84.7355469,79.9623594 C84.5793908,80.5821831 84.466101,81.3124703 84.466101,81.8555831 C84.466101,82.8252082 84.7845371,83.6628907 85.3938524,84.2581669 C86.0031677,84.8565115 86.8972383,85.2032445 88.0362599,85.2032445 C89.0619916,85.2032445 89.9744336,84.8442377 90.739905,84.1078136 C91.5053765,83.368321 92.1208155,82.257548 92.5617271,80.7540154 L92.5739746,80.7141257 L90.9971034,80.1464655 Z" id="Fill-7"></path>
                    </g>
                </g>
                <g id="logo3" transform="translate(116.000000, 67.165899)">
                    <path d="M77.2919951,33.3717914 C75.6402799,35.3484472 73.3623965,36.5670306 70.8463123,36.5670306 C68.9877762,36.5670306 67.3446192,35.9279828 66.1650264,34.7334876 C64.9854337,33.5404093 64.2651261,31.7876329 64.2651261,29.54884 C64.2651261,26.5307204 65.2878202,23.8129959 66.9395353,21.8533436 C68.5912505,19.8908574 70.8705603,18.6864435 73.3866445,18.6864435 C75.2437542,18.6864435 76.8869112,19.3254914 78.0679303,20.5129018 C79.2475231,21.7003122 79.9664043,23.4360852 79.9664043,25.643705 C79.9664043,28.6618246 78.9437102,31.3951356 77.2919951,33.3717914 M73.6276979,14.0983351 C69.3429377,14.0983351 65.6344236,15.970136 62.9985259,18.838058 C60.3640546,21.7045631 58.8007732,25.5657724 58.8007732,29.54884 C58.8007732,32.6293057 59.8648315,35.5170651 61.8731345,37.6339997 C63.8828639,39.7509342 66.836838,41.0956269 70.6052589,41.0956269 C74.8885927,41.0956269 78.5985331,39.222409 81.2330045,36.3644057 C83.8674758,33.5049854 85.4321835,29.6579457 85.4321835,25.7046342 C85.4321835,22.5944124 84.3681252,19.6924834 82.3583959,17.568464 C80.3500929,15.4430277 77.3946924,14.0969181 73.6276979,14.0983351" id="Fill-1" fill="#A5B6F3"></path>
                    <path d="M108.104184,33.3717914 C106.452469,35.3484472 104.174586,36.5670306 101.657075,36.5670306 C99.7999656,36.5670306 98.1568086,35.9279828 96.9772158,34.7334876 C95.7976231,33.5404093 95.0773155,31.7876329 95.0773155,29.54884 C95.0773155,26.5307204 96.1000096,23.8129959 97.7517247,21.8533436 C99.4034399,19.8908574 101.681323,18.6864435 104.197408,18.6864435 C106.055944,18.6864435 107.699101,19.3254914 108.878693,20.5129018 C110.059712,21.7003122 110.778594,23.4360852 110.778594,25.643705 C110.778594,28.6618246 109.7559,31.3951356 108.104184,33.3717914 M104.439887,14.0983351 C100.155127,14.0983351 96.446613,15.970136 93.8107153,18.838058 C91.176244,21.7045631 89.6129626,25.5657724 89.6115363,29.54884 C89.6115363,32.6293057 90.6755946,35.5170651 92.6853239,37.6339997 C94.6950533,39.7509342 97.6490274,41.0956269 101.416022,41.0956269 C105.700782,41.0956269 109.410723,39.222409 112.045194,36.3644057 C114.679665,33.5049854 116.244373,29.6579457 116.244373,25.7046342 C116.244373,22.5944124 115.180315,19.6924834 113.170585,17.568464 C111.160856,15.4430277 108.206882,14.0969181 104.439887,14.0983351" id="Fill-3" fill="#A5B6F3"></path>
                    <path d="M147.253684,33.1233987 L147.229436,33.1899957 C146.626089,34.8365004 146.038433,35.8822151 145.480729,36.5099272 C144.923026,37.1376394 144.400981,37.3473491 143.910316,37.3487661 C143.412519,37.3473491 143.028831,37.1758973 142.763529,36.8627497 C142.496802,36.5496021 142.348461,36.0862569 142.348461,35.4968026 C142.348461,35.0320405 142.528181,34.1903678 142.709328,33.4124581 L144.945847,25.7849757 L144.945847,25.7835587 C145.3709,24.2773329 145.614806,22.8292023 145.614806,21.5581914 C145.614806,19.2301301 144.837445,17.3781667 143.552302,16.1085727 C142.267159,14.8403957 140.478514,14.1588391 138.467358,14.1588391 C136.663024,14.1588391 134.910038,14.8871553 133.351035,16.064647 C131.907568,17.1571213 130.629556,18.635008 129.628258,20.2843465 L131.468251,14.5796755 L126.110875,14.5796755 L119.688014,40.6148532 L125.158072,40.6148532 L128.678308,26.5033732 C129.341561,23.9287613 130.425588,21.9733599 131.736405,20.6626742 C133.048649,19.3519885 134.587682,18.6874354 136.169506,18.6860185 C137.333409,18.6874354 138.296196,19.0558444 138.969434,19.701977 C139.642672,20.3495266 140.027787,21.2747999 140.027787,22.3998641 C140.027787,23.2344521 139.9094,24.006694 139.60844,25.0240695 L139.607013,25.0240695 L137.369068,32.8343394 L137.369068,32.8357564 C137.126588,33.8021214 136.944015,34.9470231 136.944015,35.7971976 C136.942589,37.3147591 137.448943,38.6268618 138.408878,39.5592199 C139.370239,40.4901609 140.780901,41.0356896 142.57953,41.0356896 C144.198439,41.0356896 145.641907,40.4717405 146.847174,39.3183371 C148.053867,38.1649336 149.026639,36.4263267 149.724125,34.0755942 L149.742668,34.0104142 L147.253684,33.1233987 Z" id="Fill-5" fill="#A5B6F3"></path>
                    <g id="Group-9" transform="translate(-0.000000, 0.003858)">
                        <mask id="mask-2" fill="white">
                            <use xlink:href="#path-1"></use>
                        </mask>
                        <g id="Clip-8"></g>
                        <path d="M46.2376112,32.9853544 C44.6272602,35.0172715 42.3850356,36.3364589 39.8475561,36.3364589 C37.8421058,36.3364589 36.2959407,35.7129976 35.2475723,34.6276082 C34.2006302,33.5436356 33.6457794,31.9892332 33.6457794,30.1160154 C33.6457794,27.258012 34.7269539,24.4255139 36.4428549,22.3114133 C38.1587558,20.1973127 40.5079569,18.8030264 43.04401,18.8030264 C44.8968407,18.8030264 46.3346031,19.4831661 47.3173593,20.6422373 C48.2986892,21.8013086 48.8235866,23.4478132 48.8235866,25.3819603 C48.8235866,28.2116245 47.8479621,30.9548542 46.2376112,32.9853544 M51.8731263,17.0672535 C50.2313956,15.2237917 47.8251405,14.1667414 44.792717,14.1667414 C43.0268938,14.1667414 41.3252563,14.7873688 39.8161764,15.7664865 C38.4112201,16.6790071 37.2430381,17.9032584 36.2716927,19.2337815 L41.0328543,0.104854857 C39.5095108,1.14631864 38.1858565,1.92564529 36.1262048,1.92564529 C34.1193282,1.92564529 32.0511184,1.55723633 30.4707208,1.11656253 C28.8888969,0.821835368 27.0032602,0.454843368 25.1789565,0.454843368 C18.6705142,0.454843368 15.9347719,5.60265008 15.9347719,9.79401046 C15.9347719,11.5694582 16.3355767,13.0771011 16.985993,14.5266486 C15.9490354,14.2956845 14.8264967,14.1681584 13.6411986,14.1667414 C10.4019541,14.1667414 7.88159091,15.0693433 6.16996902,16.4976365 C4.45834712,17.9259297 3.55831928,19.8799142 3.55831928,21.9670926 C3.55831928,24.055688 4.44550996,25.5619139 5.78485409,26.7394056 C7.12277187,27.9168973 8.90713769,28.7713227 10.7171778,29.5818224 L10.7186042,29.5818224 C12.166351,30.2109515 13.5356486,30.794738 14.535521,31.4847964 C15.0361704,31.830534 15.444107,32.2003599 15.7250982,32.6155285 C16.0075158,33.0292801 16.1644145,33.4855404 16.1644145,34.0112316 C16.1644145,34.5213363 16.0246321,34.967678 15.7750205,35.3530904 C15.3998901,35.9312091 14.770869,36.3718829 13.9806703,36.668027 C13.1904715,36.9641711 12.2405213,37.1157856 11.2292381,37.1157856 C9.37070196,37.1157856 7.63197938,36.6977831 6.43812311,36.1054949 C6.04302373,35.8801986 5.76060611,35.7101637 5.53524257,35.500454 C5.8846987,35.065448 6.11291495,34.4249832 6.11434131,33.831278 C6.11434131,33.0335309 5.80482301,32.296713 5.27992563,31.7596861 C4.75502825,31.2212423 4.01047273,30.8840064 3.14753003,30.8840064 C2.25320759,30.8840064 1.46300881,31.2524153 0.901026291,31.8659579 C0.337617418,32.4795005 -0.000427905473,33.3353429 -0.000427905473,34.3102097 C-0.000427905473,35.5911393 0.615755976,36.7487936 1.64843452,37.7746708 L1.64843452,37.7746708 L1.64986087,37.7760878 C3.59825712,39.771164 7.11278741,41.0917684 11.1094245,41.0917684 C14.1960493,41.0917684 16.7891565,40.3861236 18.6148865,39.0329291 C20.4420429,37.6811516 21.4946904,35.6775737 21.493264,33.1114636 C21.4946904,31.0837974 20.6217632,29.5775715 19.306667,28.3859102 C17.9915709,27.1942489 16.2371584,26.3086505 14.4556453,25.4981508 C12.9479917,24.8080925 11.5487408,24.1803803 10.5317521,23.4818202 C10.0225446,23.1332487 9.61032902,22.7676736 9.32791141,22.3695086 C9.04406745,21.9727604 8.88859512,21.5476732 8.88859512,21.0687415 C8.88859512,20.1689735 9.39494993,19.4604947 10.2407764,18.9645596 C11.0837502,18.4714584 12.2647693,18.2036534 13.5812918,18.2036534 C14.8992407,18.2036534 16.1601355,18.4417023 17.0530316,18.7973586 L17.0544579,18.7973586 L17.0558843,18.7987756 C17.4852161,18.9588918 17.7148587,19.1147571 17.8902999,19.2337815 C17.4937742,19.9210059 17.3696816,20.353178 17.371108,20.8887879 C17.371108,22.487116 18.7289947,23.8346426 20.397826,23.8360596 C21.2308153,23.8360596 22.0038979,23.4974067 22.5673067,22.9079524 C23.1307156,22.3170811 23.4844508,21.4739914 23.4844508,20.4693685 C23.4844508,19.2493681 22.9324528,18.0350355 21.9568283,17.0644196 L21.9554019,17.0644196 C21.3934194,16.4848839 20.6830963,15.9747792 19.8600915,15.548275 C19.2895508,14.3041863 18.9144204,12.9084831 18.9144204,11.3384942 C18.9144204,6.55909641 22.2592148,4.35147658 24.9350504,4.35147658 C26.2130614,4.35147658 28.037365,4.42515837 29.6191889,4.57252195 C31.0170135,4.79356733 32.8413172,4.94093091 34.3618079,4.94093091 L34.3746451,4.94093091 L25.9463336,40.6128368 L31.4634615,40.6128368 L32.6188063,35.3559243 C33.5644774,38.7325341 36.7138617,41.0917684 40.5108096,41.0917684 C44.3049048,41.0917684 47.7780709,39.236971 50.2984341,36.2585263 C52.8202237,33.2786646 54.3949158,29.1737386 54.3949158,24.6635628 C54.3949158,21.5349206 53.5162833,18.9107152 51.8731263,17.0672535" id="Fill-7" fill="#A5B6F3" mask="url(#mask-2)"></path>
                    </g>
                </g>
            </g>
        </g>
    </g>
</svg>