<svg xmlns="http://www.w3.org/2000/svg" xmlns:xlink="http://www.w3.org/1999/xlink" width="32" height="30" viewBox="0 0 32 30">
  <defs>
    <polygon id="logo_line_l-a" points="31.229 .296 .296 .296 .296 29.77 31.23 29.77 31.23 .296 31.229 29.77 .296 29.77 .296 .296 31.229 .296"/>
    <path id="logo_line_l-b" d="M31.2294744,12.8476146 C31.2294744,5.92710243 24.291469,0.296347709 15.7627628,0.296347709 C7.23553908,0.296347709 0.296347709,5.92710243 0.296347709,12.8476146 C0.296347709,19.0523854 5.79871968,24.2484771 13.2312803,25.2307682 C13.735027,25.3392857 14.4205256,25.5628437 14.5939757,25.9933558 C14.7499326,26.384434 14.6959704,26.9969946 14.6440836,27.3919272 C14.6440836,27.3919272 14.462628,28.4833288 14.4231941,28.7160782 C14.3558895,29.1068598 14.1124663,30.2454043 15.7627628,29.5498248 C17.4139488,28.8542453 24.6700943,24.3051078 27.9152426,20.5701482 L27.9143531,20.5701482 C30.155566,18.1119003 31.2294744,15.6174798 31.2294744,12.8476146 L31.2294744,12.8476146 Z"/>
  </defs>
  <g fill="none" fill-rule="evenodd">
    <mask id="logo_line_l-c" fill="#fff">
      <use xlink:href="#logo_line_l-b"/>
    </mask>
    <use fill="#A5B6F3" xlink:href="#logo_line_l-b"/>
    <path fill="#FFF" d="M26.37969,10.8895553 C26.37969,11.056186 26.2450809,11.1910916 26.0787466,11.1910916 L23.1312803,11.1910916 L23.1312803,12.3299326 L26.0787466,12.3299326 C26.2450809,12.3299326 26.37969,12.4648383 26.37969,12.631469 L26.37969,13.7160512 C26.37969,13.8826819 26.2450809,14.0172911 26.0787466,14.0172911 L23.1312803,14.0172911 L23.1312803,15.1567251 L26.0787466,15.1567251 C26.2450809,15.1567251 26.37969,15.2916307 26.37969,15.457965 L26.37969,16.5428437 C26.37969,16.7091779 26.2450809,16.8440836 26.0787466,16.8440836 L21.7448652,16.8440836 L21.7442722,16.8440836 C21.6636253,16.8440836 21.5903908,16.812062 21.5364286,16.7598787 C21.5349461,16.7586927 21.5331671,16.7572102 21.5319811,16.7560243 C21.5307951,16.7545418 21.5293127,16.7527628 21.5281267,16.7512803 C21.4759434,16.6973181 21.4439218,16.6240836 21.4439218,16.5431402 L21.4439218,16.5428437 L21.4439218,9.80497305 L21.4439218,9.80438005 C21.4439218,9.72373315 21.4756469,9.65079515 21.5272372,9.59683288 C21.5287197,9.59505391 21.5304987,9.59327493 21.5319811,9.59149596 C21.5328706,9.59060647 21.5343531,9.58942049 21.5355391,9.5882345 C21.5900943,9.53575472 21.6633288,9.50343666 21.7442722,9.50343666 L21.7448652,9.50343666 L26.0787466,9.50343666 C26.2450809,9.50343666 26.37969,9.63834232 26.37969,9.80497305 L26.37969,10.8895553 Z M20.3889892,16.5434367 C20.3889892,16.7094744 20.2543801,16.8440836 20.0877493,16.8440836 L19.0028706,16.8440836 C18.976186,16.8440836 18.9500943,16.8402291 18.9257817,16.8337062 C18.9242992,16.8334097 18.9231132,16.8328167 18.9216307,16.8325202 C18.9145148,16.8307412 18.9079919,16.8286658 18.900876,16.8259973 C18.8979111,16.8251078 18.8952426,16.8239218 18.8919811,16.8227358 C18.8869407,16.8206604 18.8821968,16.8185849 18.8771563,16.8165094 C18.8724124,16.814434 18.867372,16.812062 18.862628,16.8093935 C18.8599596,16.8079111 18.8572911,16.8067251 18.8543261,16.8049461 C18.8480997,16.8013881 18.8418733,16.7975337 18.8359434,16.7936792 C18.8347574,16.7927898 18.8335714,16.7919003 18.8326819,16.7910108 C18.8036253,16.7717385 18.7772372,16.7468329 18.756186,16.7168868 L15.6640296,12.5407412 L15.6640296,16.5434367 C15.6640296,16.7094744 15.529124,16.8440836 15.3624933,16.8440836 L14.2779111,16.8440836 C14.1115768,16.8440836 13.9763747,16.7094744 13.9763747,16.5434367 L13.9763747,9.80408356 C13.9763747,9.63804582 14.1115768,9.50343666 14.2779111,9.50343666 L15.3624933,9.50343666 C15.3660512,9.50343666 15.3693127,9.50402965 15.3728706,9.50402965 C15.378504,9.50402965 15.3835445,9.50432615 15.3885849,9.50491914 C15.3939218,9.50551213 15.3992588,9.50580863 15.4045957,9.50669811 C15.4087466,9.50729111 15.4131941,9.5078841 15.4170485,9.50847709 C15.4229784,9.50966307 15.4286119,9.51114555 15.4345418,9.51233154 C15.4380997,9.51351752 15.4416577,9.51411051 15.4449191,9.515 C15.4511456,9.51677898 15.4570755,9.51885445 15.4630054,9.52092992 C15.4662668,9.5221159 15.4692318,9.52330189 15.4724933,9.52448787 C15.4787197,9.52656334 15.4843531,9.52923181 15.4899865,9.53160377 C15.493248,9.53308625 15.4962129,9.53486523 15.4994744,9.53634771 C15.5048113,9.53901617 15.5101482,9.54227763 15.5154852,9.54553908 C15.5187466,9.54702156 15.5217116,9.54880054 15.5246765,9.55087601 C15.5300135,9.55413747 15.5350539,9.55799191 15.5400943,9.56154987 C15.5430593,9.56332884 15.5454313,9.56540431 15.5480997,9.56777628 C15.5537332,9.57192722 15.5590701,9.57637466 15.5641105,9.5811186 C15.566186,9.58289757 15.567965,9.58438005 15.5697439,9.58615903 C15.5759704,9.59208895 15.5821968,9.59831536 15.5878302,9.60483827 C15.5884232,9.60513477 15.5890162,9.60602426 15.5899057,9.60661725 C15.5982075,9.61640162 15.6062129,9.62648248 15.6130323,9.63715633 L18.7016307,13.807965 L18.7016307,9.80408356 C18.7016307,9.63804582 18.8365364,9.50343666 19.0028706,9.50343666 L20.0877493,9.50343666 C20.2543801,9.50343666 20.3889892,9.63804582 20.3889892,9.80408356 L20.3889892,16.5434367 Z M12.9217385,16.5434367 C12.9217385,16.7094744 12.7868329,16.8440836 12.6204987,16.8440836 L11.5356199,16.8440836 C11.3692857,16.8440836 11.2340836,16.7094744 11.2340836,16.5434367 L11.2340836,9.80408356 C11.2340836,9.63804582 11.3692857,9.50343666 11.5356199,9.50343666 L12.6204987,9.50343666 C12.7868329,9.50343666 12.9217385,9.63804582 12.9217385,9.80408356 L12.9217385,16.5434367 Z M10.3060512,16.5428437 C10.3060512,16.7088814 10.171442,16.8440836 10.0054043,16.8440836 L5.67152291,16.8440836 L5.67092992,16.8440836 C5.59028302,16.8440836 5.51734501,16.812062 5.46308625,16.7601752 C5.46160377,16.7586927 5.46012129,16.7575067 5.45863881,16.7560243 C5.45685984,16.7545418 5.45567385,16.7527628 5.45448787,16.7512803 C5.40260108,16.6973181 5.37028302,16.6240836 5.37028302,16.5431402 L5.37028302,16.5428437 L5.37028302,9.80438005 C5.37028302,9.63804582 5.50518868,9.50343666 5.67152291,9.50343666 L6.75640162,9.50343666 C6.92273585,9.50343666 7.05764151,9.63804582 7.05764151,9.80438005 L7.05764151,15.1564286 L10.0054043,15.1564286 C10.171442,15.1564286 10.3060512,15.2916307 10.3060512,15.4576685 L10.3060512,16.5428437 Z" mask="url(#logo_line_l-c)"/>
  </g>
</svg>
