<svg xmlns="http://www.w3.org/2000/svg" width="363" height="46" viewBox="0 0 363 46">
  <path fill="#A5B6F3" fill-rule="evenodd" d="M5102,1534.16 L5115.2,1534.16 L5115.2,1529.312 L5111.024,1529.312 L5111.024,1521.056 L5120.336,1521.056 L5120.336,1516.4 L5111.024,1516.4 L5111.024,1507.376 L5120.096,1507.376 L5120.096,1511.6 L5125.28,1511.6 L5125.28,1502.576 L5102,1502.576 L5102,1507.424 L5105.6,1507.424 L5105.6,1529.312 L5102,1529.312 L5102,1534.16 Z M5127.68,1534.16 L5127.68,1529.312 L5130.416,1529.312 L5138.288,1507.376 L5134.832,1507.376 L5134.832,1502.576 L5152.688,1502.576 L5152.688,1507.376 L5149.232,1507.376 L5157.104,1529.312 L5159.84,1529.312 L5159.84,1534.16 L5147.696,1534.16 L5147.696,1529.36 L5151.344,1529.36 L5149.568,1524.176 L5137.76,1524.176 L5135.984,1529.36 L5139.824,1529.36 L5139.824,1534.16 L5127.68,1534.16 Z M5139.248,1519.664 L5148.08,1519.664 L5143.664,1507.232 L5139.248,1519.664 Z M5190.8,1540.784 C5186.528,1540.784 5183.024,1537.904 5180.384,1536.272 C5179.184,1535.456 5177.792,1534.88 5176.352,1534.64 C5172.56,1534.016 5169.584,1532.432 5166.992,1529.84 C5164.448,1527.296 5162.672,1523.216 5162.672,1518.368 C5162.672,1509.104 5169.392,1502 5178.992,1502 C5188.544,1502 5195.072,1509.152 5195.072,1518.368 C5195.072,1526.624 5190.08,1531.712 5184.608,1533.392 C5185.088,1533.536 5185.856,1533.872 5186.336,1534.16 C5187.872,1535.072 5188.784,1535.552 5190.32,1535.552 C5191.424,1535.552 5192.672,1535.408 5194.736,1533.872 L5197.568,1538.192 C5195.312,1540.544 5192.672,1540.784 5190.8,1540.784 Z M5178.896,1529.696 C5184.992,1529.696 5189.456,1524.992 5189.456,1518.368 C5189.456,1511.792 5184.992,1507.04 5178.896,1507.04 C5172.752,1507.04 5168.288,1511.744 5168.288,1518.368 C5168.288,1521.728 5169.488,1524.656 5171.456,1526.672 C5173.328,1528.592 5175.92,1529.696 5178.896,1529.696 Z" transform="translate(-4835 -1498)"/>
</svg>
