<svg xmlns="http://www.w3.org/2000/svg" width="427" height="226" viewBox="0 0 427 226">
  <g fill="none" fill-rule="evenodd">
    <path fill="#A5B6F3" d="M77.848 144.064L77.848 151.408 88.888 151.408 88.888 144.064 77.848 144.064zM77.608 155.632C77.032 161.68 75.256 166.672 72.28 170.608L68.776 167.488C71.656 163.36 73.144 158.128 73.24 151.792L73.24 128.272 110.056 128.272 110.056 164.416C110.056 168.016 108.184 169.84 104.536 169.84L99.016 169.84 97.816 165.376C99.688 165.52 101.416 165.616 103.048 165.616 104.584 165.616 105.4 164.656 105.4 162.784L105.4 155.632 93.496 155.632 93.496 169.312 88.888 169.312 88.888 155.632 77.608 155.632zM105.4 151.408L105.4 144.064 93.496 144.064 93.496 151.408 105.4 151.408zM105.4 139.888L105.4 132.688 93.496 132.688 93.496 139.888 105.4 139.888zM88.888 132.688L77.848 132.688 77.848 139.888 88.888 139.888 88.888 132.688zM163.432 128.08L187.288 128.08 187.288 143.44 163.432 143.44 163.432 128.08zM182.92 139.648L182.92 137.536 167.752 137.536 167.752 139.648 182.92 139.648zM167.752 133.984L182.92 133.984 182.92 131.968 167.752 131.968 167.752 133.984zM160.12 145.216L160.12 149.248 166.792 149.248C165.016 151.504 162.328 153.52 158.728 155.248L161.368 158.608C163.24 157.552 164.92 156.4 166.408 155.152L170.344 155.152C168.04 157.744 164.488 159.856 159.736 161.584L162.472 165.04C168.232 162.64 172.408 159.328 175 155.152L178.696 155.152C175.528 161.008 170.536 165.04 163.72 167.152L166.264 170.896C173.944 168.352 179.56 163.12 183.112 155.152L185.128 155.152C184.936 159.952 184.552 163.12 184.024 164.56 183.448 166 182.296 166.72 180.568 166.72 179.368 166.72 178.12 166.624 176.776 166.48L177.928 170.704 182.68 170.704C184.6 170.608 185.992 169.984 186.856 168.88 187.72 167.728 188.344 165.712 188.728 162.832 189.112 159.904 189.352 156.112 189.496 151.408L170.008 151.408C170.536 150.688 171.016 149.968 171.448 149.248L190.984 149.248 190.984 145.216 160.12 145.216zM151.336 127.264L148.168 130.24C151.768 132.736 154.552 135.04 156.52 137.248L159.688 134.08C157.384 131.824 154.6 129.568 151.336 127.264zM150.04 138.688L146.92 141.712C150.472 144.256 153.208 146.608 155.224 148.816L158.344 145.696C156.088 143.392 153.304 141.04 150.04 138.688zM154.552 151.6C152.584 157.36 150.232 163.024 147.448 168.544L151.576 170.32C154.12 164.944 156.424 159.232 158.488 153.136L154.552 151.6zM266.776 137.632L267.496 141.952 251.992 144.016C252.28 146.608 252.616 148.912 253 150.832 254.104 155.824 255.592 159.664 257.464 162.304 259.192 164.8 260.872 166.096 262.408 166.192 263.512 166.096 264.376 163.216 264.952 157.456L268.936 159.76C268.264 163.696 267.352 166.624 266.296 168.544 265.336 169.984 264.136 170.752 262.648 170.8 260.248 170.8 257.752 169.264 255.208 166.192 252.424 162.832 250.312 158.416 248.92 152.992 248.344 150.736 247.864 147.952 247.528 144.64L237.544 145.984 236.824 141.664 247.144 140.272C246.856 136.24 246.664 131.632 246.616 126.544L251.224 126.544C251.224 131.44 251.368 135.808 251.656 139.648L266.776 137.632zM230.536 145.408C229.096 147.184 227.56 148.912 225.928 150.592L224.488 145.84C229.48 140.272 233.128 133.792 235.432 126.4L239.704 128.416C238.504 132.016 236.968 135.424 235.144 138.592L235.144 171.04 230.536 171.04 230.536 145.408zM256.36 126.736C259.24 129.136 261.64 131.488 263.656 133.888L260.536 136.96C258.856 134.656 256.504 132.208 253.432 129.568L256.36 126.736zM334.744 143.968C333.016 146.512 330.28 148.48 326.488 149.824L324.184 146.272C327.688 144.976 330.088 143.344 331.432 141.328L331.528 141.136 325.72 141.136 325.72 137.104 332.968 137.104C333.208 136 333.352 134.896 333.4 133.744L326.2 133.744 326.2 129.856 333.448 129.856 333.448 126.832 337.576 126.832 337.576 129.856 345.4 129.856 345.4 133.744 337.528 133.744C337.48 134.944 337.384 136.048 337.192 137.104L346.744 137.104 346.744 141.136 336.904 141.136C340.648 143.344 344.056 145.744 347.128 148.24L344.248 151.408C341.176 148.624 338.008 146.128 334.744 143.968zM305.032 129.856L312.328 129.856 312.328 126.832 316.456 126.832 316.456 129.856 323.8 129.856 323.8 133.744 316.36 133.744C316.264 134.944 316.168 136.048 316.024 137.104L324.232 137.104 324.232 141.136 315.208 141.136C315.16 141.232 315.16 141.28 315.16 141.328 318.136 143.056 321.112 144.976 324.184 147.136L322.12 150.256 340.888 150.256 340.888 170.992 336.28 170.992 336.28 169.12 314.248 169.12 314.248 170.992 309.64 170.992 309.64 150.256 321.16 150.256C318.28 147.856 315.832 145.984 313.912 144.688L313.624 145.312C311.896 148.432 309.064 150.832 305.224 152.56L302.92 148.96C306.472 147.232 308.92 145.072 310.264 142.48 310.456 142 310.648 141.568 310.84 141.136L303.304 141.136 303.304 137.104 311.848 137.104C312.04 136 312.136 134.896 312.232 133.744L305.032 133.744 305.032 129.856zM314.248 165.088L336.28 165.088 336.28 161.584 314.248 161.584 314.248 165.088zM314.248 157.744L336.28 157.744 336.28 154.192 314.248 154.192 314.248 157.744zM149.648 69.248L149.648 73.616 165.728 73.616C164.96 76.4 164.048 78.704 162.944 80.576 159.968 85.568 154.976 89.84 147.968 93.488L150.848 97.232C158.528 93.056 164 88.112 167.216 82.4 168.272 80.576 169.136 78.32 169.904 75.632 173.456 84.896 179.888 92.096 189.248 97.184L192.08 93.488C183.008 88.832 176.816 82.208 173.456 73.616L190.496 73.616 190.496 69.248 171.296 69.248C171.776 66.272 172.16 62.96 172.4 59.312L189.104 59.312 189.104 54.944 150.896 54.944 150.896 59.312 167.792 59.312C167.6 62.912 167.216 66.224 166.688 69.248L149.648 69.248zM317.576 73.088C315.512 74.384 313.304 75.584 310.952 76.64L335.432 76.64C332.6 75.488 330.152 74.24 328.088 72.992L328.088 75.152 317.576 75.152 317.576 73.088zM336.008 76.88L336.008 88.592C337.064 87.584 338.072 86.576 338.936 85.568L342.632 87.392C341.048 89.024 339.368 90.56 337.592 91.904 339.56 92.48 341.432 93.104 343.256 93.776L340.952 97.328C335.096 94.832 329.048 92.864 322.904 91.424L324.728 88.736 313.16 88.736 313.16 93.008C316.232 92.528 319.208 91.952 322.04 91.328L322.712 94.688C318.968 95.552 314.312 96.32 308.696 96.992L307.544 93.584C308.312 93.344 308.696 92.672 308.696 91.52L308.696 77.6C306.872 78.32 304.952 78.992 302.984 79.616L300.536 75.968C309.512 73.376 316.424 69.968 321.272 65.84L324.584 65.84C328.616 69.536 335.48 72.8 345.224 75.584L342.776 79.232C340.28 78.464 338.024 77.648 336.008 76.88zM325.496 88.736C328.328 89.312 331.016 89.984 333.56 90.704 334.376 90.032 335.144 89.408 335.864 88.736L325.496 88.736zM327.176 72.416C325.544 71.36 324.104 70.304 322.904 69.2 321.56 70.352 320.12 71.408 318.632 72.416L327.176 72.416zM311.72 52.256L315.656 52.256 315.656 53.888 321.944 53.888 321.944 57.2 315.656 57.2 315.656 59.36 321.8 59.36 321.8 61.952C317.72 67.232 311.432 70.832 302.936 72.752L301.016 69.44C303.848 68.864 306.392 68.144 308.696 67.232 307.736 66.464 306.728 65.696 305.576 64.928 304.856 65.6 304.088 66.272 303.272 66.944L300.728 63.632C303.416 61.664 305.288 59.264 306.296 56.432L310.328 56.96C310.04 57.776 309.752 58.592 309.416 59.36L311.72 59.36 311.72 52.256zM311.96 65.648C313.688 64.688 315.224 63.632 316.568 62.432L307.64 62.432C307.592 62.48 307.544 62.528 307.544 62.576 309.176 63.632 310.664 64.64 311.96 65.648zM326.264 57.824C328.664 58.784 330.92 59.84 333.128 60.992 334.664 59.84 335.912 58.64 336.872 57.296L324.392 57.296 324.392 53.648 341.816 53.648 341.816 56.624C340.76 59.072 339.08 61.232 336.872 63.056 339.416 64.496 341.864 66.032 344.168 67.664L341.72 71.456C338.936 69.152 336.152 67.184 333.368 65.456 331.736 66.368 330.008 67.184 328.088 67.904L325.64 64.64C326.984 64.16 328.232 63.68 329.384 63.152 327.704 62.192 326.024 61.376 324.344 60.656L326.264 57.824zM313.16 83.84L313.16 85.664 331.784 85.664 331.784 83.84 313.16 83.84zM331.784 81.296L331.784 79.52 313.16 79.52 313.16 81.296 331.784 81.296z"/>
    <polygon fill="#FFB8AC" points="79.56 97 107.32 97 107.32 89.8 97.88 89.8 97.88 55 93.64 55 79.08 58.68 81.08 65.88 89.16 63.96 89.16 89.8 79.56 89.8"/>
    <polygon fill="#FFB8AC" points="231.56 97 259.32 97 259.32 89.8 249.88 89.8 249.88 55 245.64 55 231.08 58.68 233.08 65.88 241.16 63.96 241.16 89.8 231.56 89.8"/>
    <path fill="#F5F5F5" d="M403.851852 214.236767C407.679031 212.82127 410.518509 210.633717 412.37037 207.674043 414.222231 204.714369 415.148148 201.175681 415.148148 197.057873L403.851852 197.057873 403.851852 171 427 171 427 197.057873C427 200.789636 426.382722 204.167475 425.148148 207.19149 423.913574 210.215505 422.246924 212.917776 420.148148 215.298384 418.049372 217.678991 415.611125 219.737864 412.833333 221.475065 410.055542 223.212265 407.061744 224.53123 403.851852 225.432001L403.851852 214.236767zM367 214.236767C370.82718 212.82127 373.666657 210.633717 375.518519 207.674043 377.37038 204.714369 378.296296 201.175681 378.296296 197.057873L367 197.057873 367 171 390.148148 171 390.148148 197.057873C390.148148 200.789636 389.53087 204.167475 388.296296 207.19149 387.061722 210.215505 385.395072 212.917776 383.296296 215.298384 381.19752 217.678991 378.759273 219.737864 375.981481 221.475065 373.20369 223.212265 370.209893 224.53123 367 225.432001L367 214.236767zM60 11.1947135C56.1335483 12.6101442 53.2015331 14.797595 51.2038664 17.7571318 49.2061997 20.7166686 48.2073814 24.2551921 48.2073814 28.3728084L60 28.3728084 60 54.4294692 35.8347979 54.4294692 35.8347979 28.3728084C35.8347979 24.7698941 36.4791968 21.424381 37.7680141 18.3361687 39.0568313 15.2479564 40.7967084 12.5136428 42.9876977 10.1331459 45.178687 7.75264891 47.7240628 5.72604 50.6239016 4.05325835 53.5237403 2.3804767 56.6490752 1.02940409 60 0L60 11.1947135zM24.1652021 11.1947135C20.2987504 12.6101442 17.3667352 14.797595 15.3690685 17.7571318 13.3714018 20.7166686 12.3725835 24.2551921 12.3725835 28.3728084L24.1652021 28.3728084 24.1652021 54.4294692 0 54.4294692 0 28.3728084C0 24.7698941.644398946 21.424381 1.93321617 18.3361687 3.22203339 15.2479564 4.96191054 12.5136428 7.15289982 10.1331459 9.3438891 7.75264891 11.8892649 5.72604 14.7891037 4.05325835 17.6889424 2.3804767 20.8142773 1.02940409 24.1652021 0L24.1652021 11.1947135z"/>
  </g>
</svg>
