<svg xmlns="http://www.w3.org/2000/svg" width="460" height="84" viewBox="0 0 460 84">
  <g fill="none" fill-rule="evenodd">
    <path fill="#A5B6F3" d="M7.16,36 L20.456,36 L20.456,31.152 L16.52,31.152 L16.52,9.12 L22.376,9.12 L22.376,14.112 L27.512,14.112 L27.512,4.416 L0.104,4.416 L0.104,14.112 L5.24,14.112 L5.24,9.12 L11.096,9.12 L11.096,31.152 L7.16,31.152 L7.16,36 Z M32.984,5.28 L32.984,31.68 L29.864,31.68 L29.864,36 L41.096,36 L41.096,31.68 L38.216,31.68 L38.216,21.792 C39.896,20.4 41.816,19.344 43.64,19.344 C44.648,19.344 45.464,19.68 45.992,20.352 C46.424,20.928 46.664,21.744 46.664,22.896 L46.664,31.68 L43.784,31.68 L43.784,36 L55.016,36 L55.016,31.68 L51.896,31.68 L51.896,21.6 C51.896,19.68 51.416,18.048 50.504,16.848 C49.4,15.408 47.624,14.592 45.368,14.592 C42.392,14.592 40.184,16.272 38.216,18.144 L38.216,0.864 L29.864,0.864 L29.864,5.28 L32.984,5.28 Z M78.056,27.264 L62.888,27.264 C63.608,30.528 66.296,31.968 69.8,31.968 C72.344,31.968 74.984,31.152 77.432,29.76 L77,34.464 C74.792,35.76 72.104,36.384 69.032,36.384 C62.168,36.384 57.416,32.064 57.416,25.536 C57.416,19.584 61.592,14.592 68.072,14.592 C74.792,14.592 78.296,19.104 78.296,24.672 C78.296,25.488 78.2,26.544 78.056,27.264 Z M68.024,18.816 C65.72,18.816 63.416,20.16 62.84,23.616 L73.064,23.616 C72.968,20.736 71.096,18.816 68.024,18.816 Z M103.544,36.576 C110.024,36.576 114.68,33.168 114.68,27.168 C114.68,21.312 110.408,19.344 104.744,17.328 C101.576,16.176 98.936,15.024 98.936,12.432 C98.936,10.128 100.76,8.544 103.88,8.544 C105.848,8.544 107.192,8.976 108.056,9.504 C107.864,9.888 107.72,10.224 107.72,10.992 C107.72,12.576 108.968,14.208 111.176,14.208 C113,14.208 114.392,12.912 114.392,10.656 C114.392,6.864 109.832,3.84 103.928,3.84 C97.544,3.84 93.464,7.776 93.464,12.816 C93.464,18.672 97.592,20.544 103.448,22.656 C106.616,23.76 109.256,25.008 109.256,27.6 C109.256,30.336 107.048,31.872 103.592,31.872 C101.528,31.872 99.752,31.344 98.6,30.528 C98.888,29.952 99.032,29.376 99.032,28.608 C99.032,27.072 97.688,25.488 95.576,25.488 C93.608,25.488 92.264,26.976 92.264,29.232 C92.264,33.072 97.304,36.576 103.544,36.576 Z M131.576,36.384 C128.888,36.384 126.968,35.424 125.192,33.984 L124.04,36.096 L120.488,36.096 L120.488,5.28 L117.32,5.28 L117.32,0.864 L125.72,0.864 L125.72,17.28 C127.256,15.792 129.224,14.592 131.912,14.592 C137.48,14.592 141.656,19.056 141.656,25.392 C141.656,31.488 137.24,36.384 131.576,36.384 Z M130.712,31.872 C133.64,31.872 136.28,29.616 136.28,25.44 C136.28,21.408 133.784,19.104 130.712,19.104 C128.744,19.104 127.16,19.968 125.72,21.216 L125.72,30.24 C127.112,31.2 128.744,31.872 130.712,31.872 Z M156.104,36.384 C149.144,36.384 144.92,31.344 144.92,25.488 C144.92,19.728 149.24,14.592 156.104,14.592 C163.064,14.592 167.288,19.632 167.288,25.488 C167.288,31.248 162.968,36.384 156.104,36.384 Z M156.104,32.016 C159.512,32.016 161.912,29.328 161.912,25.488 C161.912,21.648 159.512,18.96 156.104,18.96 C152.696,18.96 150.296,21.648 150.296,25.488 C150.296,29.328 152.696,32.016 156.104,32.016 Z M181.736,36.384 C174.776,36.384 170.552,31.344 170.552,25.488 C170.552,19.728 174.872,14.592 181.736,14.592 C188.696,14.592 192.92,19.632 192.92,25.488 C192.92,31.248 188.6,36.384 181.736,36.384 Z M181.736,32.016 C185.144,32.016 187.544,29.328 187.544,25.488 C187.544,21.648 185.144,18.96 181.736,18.96 C178.328,18.96 175.928,21.648 175.928,25.488 C175.928,29.328 178.328,32.016 181.736,32.016 Z M204.2,14.976 L196.04,14.976 L196.04,19.392 L199.16,19.392 L199.16,31.68 L196.04,31.68 L196.04,36 L207.272,36 L207.272,31.68 L204.392,31.68 L204.392,21.792 C206.072,20.4 207.992,19.344 209.816,19.344 C211.064,19.344 211.928,19.824 212.408,20.736 C212.696,21.264 212.84,22.032 212.84,22.896 L212.84,31.68 L209.96,31.68 L209.96,36 L221.192,36 L221.192,31.68 L218.072,31.68 L218.072,21.6 C218.072,19.872 217.688,18.432 216.968,17.28 C215.864,15.6 214.04,14.592 211.544,14.592 C208.472,14.592 206.216,16.368 204.2,18.336 L204.2,14.976 Z M233.144,36 L233.144,31.152 L235.88,31.152 L243.752,9.216 L240.296,9.216 L240.296,4.416 L258.152,4.416 L258.152,9.216 L254.696,9.216 L262.568,31.152 L265.304,31.152 L265.304,36 L253.16,36 L253.16,31.2 L256.808,31.2 L255.032,26.016 L243.224,26.016 L241.448,31.2 L245.288,31.2 L245.288,36 L233.144,36 Z M244.712,21.504 L253.544,21.504 L249.128,9.072 L244.712,21.504 Z M277.304,36.384 C271.736,36.384 267.56,31.92 267.56,25.584 C267.56,19.488 271.976,14.592 277.64,14.592 C280.328,14.592 282.296,15.6 283.496,16.608 L283.496,5.28 L280.328,5.28 L280.328,0.864 L288.728,0.864 L288.728,31.68 L291.848,31.68 L291.848,36 L283.496,36 L283.496,33.696 C281.96,35.184 279.992,36.384 277.304,36.384 Z M278.504,31.872 C280.472,31.872 282.056,31.008 283.496,29.76 L283.496,20.736 C282.104,19.776 280.472,19.104 278.504,19.104 C275.576,19.104 272.936,21.36 272.936,25.536 C272.936,29.568 275.432,31.872 278.504,31.872 Z M303.896,36.384 L307.64,36.384 L315.992,19.392 L318.44,19.392 L318.44,14.976 L307.736,14.976 L307.736,19.152 L310.904,19.152 L305.864,30.096 L300.824,19.152 L303.848,19.152 L303.848,14.976 L293.096,14.976 L293.096,19.392 L295.544,19.392 L303.896,36.384 Z M327.176,36.384 C323.576,36.384 320.36,34.416 320.36,30.48 C320.36,26.544 323.816,24.144 328.808,24.144 C330.968,24.144 332.984,24.432 334.136,24.72 L334.136,23.04 C334.136,21.792 333.848,20.832 333.32,20.16 C332.456,19.056 331.064,18.624 329.192,18.624 C328.28,18.624 327.608,18.768 327.128,18.96 C327.224,19.248 327.32,19.728 327.32,20.016 C327.32,21.6 326.072,22.752 324.488,22.752 C322.904,22.752 321.704,21.648 321.704,19.92 C321.704,17.328 324.344,14.592 330.056,14.592 C333.656,14.592 336.104,15.6 337.592,17.424 C338.696,18.768 339.224,20.592 339.224,22.704 L339.224,31.68 L342.344,31.68 L342.344,36 L334.232,36 L334.232,33.696 C332.552,35.136 330.008,36.384 327.176,36.384 Z M328.856,32.592 C330.728,32.592 332.552,31.872 334.136,30.72 L334.136,27.408 C332.936,27.12 331.448,26.928 329.816,26.928 C327.272,26.928 325.736,28.08 325.736,30 C325.736,31.68 326.984,32.592 328.856,32.592 Z M352.76,14.976 L344.6,14.976 L344.6,19.392 L347.72,19.392 L347.72,31.68 L344.6,31.68 L344.6,36 L355.832,36 L355.832,31.68 L352.952,31.68 L352.952,21.792 C354.632,20.4 356.552,19.344 358.376,19.344 C359.624,19.344 360.488,19.824 360.968,20.736 C361.256,21.264 361.4,22.032 361.4,22.896 L361.4,31.68 L358.52,31.68 L358.52,36 L369.752,36 L369.752,31.68 L366.632,31.68 L366.632,21.6 C366.632,19.872 366.248,18.432 365.528,17.28 C364.424,15.6 362.6,14.592 360.104,14.592 C357.032,14.592 354.776,16.368 352.76,18.336 L352.76,14.976 Z M381.416,36.384 C383.336,36.384 385.016,35.856 386.456,35.136 L386.888,30.624 C385.64,31.2 384.104,31.728 382.76,31.728 C381.704,31.728 380.936,31.392 380.552,30.72 C380.312,30.288 380.216,29.856 380.216,29.184 L380.216,19.392 L386.6,19.392 L386.6,14.976 L380.216,14.976 L380.216,8.304 L375.032,10.56 L375.032,14.976 L370.952,14.976 L370.952,19.392 L375.032,19.392 L375.032,30.192 C375.032,31.536 375.272,32.64 375.752,33.504 C376.808,35.52 378.872,36.384 381.416,36.384 Z M398.648,36.384 C401.72,36.384 403.976,34.608 405.992,32.64 L405.992,36 L414.152,36 L414.152,31.68 L411.032,31.68 L411.032,14.976 L402.536,14.976 L402.536,19.392 L405.8,19.392 L405.8,29.184 C404.12,30.576 402.2,31.632 400.376,31.632 C399.128,31.632 398.264,31.152 397.784,30.24 C397.496,29.664 397.352,28.992 397.352,28.08 L397.352,14.976 L389,14.976 L389,19.392 L392.12,19.392 L392.12,29.376 C392.12,31.056 392.504,32.496 393.176,33.6 C394.232,35.328 396.104,36.384 398.648,36.384 Z M431.72,14.592 C429.032,14.592 426.824,16.896 425.048,19.728 L425.048,14.976 L416.888,14.976 L416.888,19.392 L420.008,19.392 L420.008,31.68 L416.888,31.68 L416.888,36 L428.888,36 L428.888,31.68 L425.24,31.68 L425.24,23.424 C426.2,21.6 427.928,19.968 429.416,19.44 C429.848,20.4 430.904,21.312 432.488,21.312 C434.216,21.312 435.608,19.824 435.608,18.048 C435.608,16.176 434.312,14.592 431.72,14.592 Z M458.552,27.264 L443.384,27.264 C444.104,30.528 446.792,31.968 450.296,31.968 C452.84,31.968 455.48,31.152 457.928,29.76 L457.496,34.464 C455.288,35.76 452.6,36.384 449.528,36.384 C442.664,36.384 437.912,32.064 437.912,25.536 C437.912,19.584 442.088,14.592 448.568,14.592 C455.288,14.592 458.792,19.104 458.792,24.672 C458.792,25.488 458.696,26.544 458.552,27.264 Z M448.52,18.816 C446.216,18.816 443.912,20.16 443.336,23.616 L453.56,23.616 C453.464,20.736 451.592,18.816 448.52,18.816 Z"/>
    <path fill="#FFB8AC" d="M136.824,61.584 L137.664,63.648 C136.848,63.984 135.528,64.368 133.728,64.776 L133.848,66.96 L137.16,66.96 L137.16,69.048 L133.944,69.048 L134.064,71.424 L136.992,71.424 L136.992,73.536 L134.16,73.536 L134.28,76.056 L147.792,76.056 L147.912,73.584 L145.512,73.584 L145.512,71.472 L148.008,71.472 L148.128,69.072 L145.68,69.072 L145.68,66.984 L148.224,66.984 L148.344,64.584 L145.44,64.584 L145.44,62.424 L150.504,62.424 L149.976,76.056 L151.704,76.056 L151.704,78.216 L145.032,78.216 C147.504,79.128 149.76,80.232 151.824,81.504 L150.552,83.496 C148.2,81.888 145.8,80.64 143.352,79.728 L144.336,78.216 L137.232,78.216 L138.816,79.632 C136.92,81.072 134.592,82.32 131.808,83.424 L130.368,81.552 C133.056,80.592 135.288,79.464 137.112,78.216 L130.272,78.216 L130.272,76.056 L132.072,76.056 L131.544,63 C133.296,62.784 135.048,62.304 136.824,61.584 Z M140.88,65.304 C140.784,65.928 140.688,66.528 140.592,67.08 L144.576,67.08 C144.504,71.664 144.288,74.256 143.904,74.832 C143.52,75.408 142.728,75.696 141.48,75.696 L140.736,75.696 L140.136,73.656 C140.616,73.656 141.096,73.68 141.528,73.68 C141.912,73.68 142.152,73.536 142.296,73.248 C142.44,72.96 142.512,71.568 142.536,69.024 L138.192,69.024 C138.72,66.192 139.104,63.672 139.368,61.488 L141.384,61.656 L141.168,63.336 L144.552,63.336 L144.552,65.304 L140.88,65.304 Z M138.192,69.768 L140.016,69.888 C139.944,71.88 139.608,73.776 138.984,75.6 L137.16,75.072 C137.76,73.392 138.096,71.64 138.192,69.768 Z M162.68,63.528 C160.856,63.528 159.344,63.936 158.144,64.752 C156.872,65.616 156.248,66.792 156.248,68.304 C156.248,69.792 156.896,70.944 158.216,71.736 C158.744,72.024 160.04,72.48 162.152,73.152 C164.048,73.728 165.176,74.112 165.56,74.304 C166.64,74.856 167.192,75.6 167.192,76.56 C167.192,77.328 166.808,77.928 166.04,78.36 C165.272,78.792 164.24,79.032 162.944,79.032 C161.504,79.032 160.448,78.768 159.752,78.24 C158.984,77.664 158.504,76.68 158.312,75.336 L155.72,75.336 C155.864,77.496 156.632,79.08 158.048,80.088 C159.224,80.904 160.856,81.336 162.944,81.336 C165.104,81.336 166.784,80.904 167.984,80.04 C169.184,79.152 169.784,77.952 169.784,76.416 C169.784,74.832 169.04,73.608 167.576,72.72 C166.904,72.312 165.392,71.76 163.088,71.04 C161.48,70.56 160.496,70.2 160.112,69.984 C159.248,69.528 158.84,68.928 158.84,68.16 C158.84,67.296 159.2,66.672 159.944,66.288 C160.544,65.952 161.408,65.784 162.536,65.784 C163.832,65.784 164.792,66.024 165.464,66.528 C166.136,67.008 166.568,67.824 166.808,68.928 L169.4,68.928 C169.232,67.056 168.56,65.688 167.36,64.8 C166.232,63.936 164.672,63.528 162.68,63.528 Z M173.968,63.528 L176.512,63.528 L176.512,70.44 C177.52,68.976 178.768,68.256 180.304,68.256 C182.08,68.256 183.472,68.904 184.504,70.2 C185.44,71.4 185.92,72.912 185.92,74.736 C185.92,76.632 185.44,78.192 184.48,79.392 C183.424,80.688 182.008,81.336 180.184,81.336 C178.48,81.336 177.208,80.712 176.344,79.512 L176.344,81 L173.968,81 L173.968,63.528 Z M179.728,70.32 C178.768,70.32 178,70.68 177.424,71.448 C176.752,72.264 176.44,73.344 176.44,74.688 L176.44,74.904 C176.44,76.152 176.704,77.16 177.232,77.952 C177.832,78.816 178.696,79.272 179.8,79.272 C181.048,79.272 181.96,78.816 182.56,77.928 C183.04,77.16 183.304,76.104 183.304,74.736 C183.304,73.368 183.04,72.312 182.512,71.592 C181.912,70.728 180.976,70.32 179.728,70.32 Z M196.032,68.256 C197.904,68.256 199.416,68.88 200.544,70.128 C201.648,71.352 202.224,72.912 202.224,74.808 C202.224,76.68 201.672,78.24 200.568,79.44 C199.416,80.688 197.904,81.336 196.032,81.336 C194.16,81.336 192.648,80.688 191.496,79.44 C190.392,78.24 189.84,76.68 189.84,74.808 C189.84,72.912 190.392,71.352 191.52,70.128 C192.648,68.88 194.16,68.256 196.032,68.256 Z M196.032,70.344 C194.856,70.344 193.944,70.8 193.296,71.736 C192.72,72.528 192.456,73.56 192.456,74.808 C192.456,76.056 192.72,77.064 193.296,77.856 C193.944,78.768 194.856,79.248 196.032,79.248 C197.208,79.248 198.12,78.768 198.792,77.856 C199.368,77.04 199.656,76.032 199.656,74.808 C199.656,73.56 199.368,72.528 198.792,71.736 C198.12,70.8 197.208,70.344 196.032,70.344 Z M212.36,68.256 C214.232,68.256 215.744,68.88 216.872,70.128 C217.976,71.352 218.552,72.912 218.552,74.808 C218.552,76.68 218,78.24 216.896,79.44 C215.744,80.688 214.232,81.336 212.36,81.336 C210.488,81.336 208.976,80.688 207.824,79.44 C206.72,78.24 206.168,76.68 206.168,74.808 C206.168,72.912 206.72,71.352 207.848,70.128 C208.976,68.88 210.488,68.256 212.36,68.256 Z M212.36,70.344 C211.184,70.344 210.272,70.8 209.624,71.736 C209.048,72.528 208.784,73.56 208.784,74.808 C208.784,76.056 209.048,77.064 209.624,77.856 C210.272,78.768 211.184,79.248 212.36,79.248 C213.536,79.248 214.448,78.768 215.12,77.856 C215.696,77.04 215.984,76.032 215.984,74.808 C215.984,73.56 215.696,72.528 215.12,71.736 C214.448,70.8 213.536,70.344 212.36,70.344 Z M229.264,68.256 C228.496,68.256 227.8,68.4 227.176,68.736 C226.552,69.048 226,69.504 225.52,70.128 L225.52,68.592 L222.976,68.592 L222.976,81 L225.52,81 L225.52,73.536 C225.616,72.528 225.976,71.736 226.552,71.16 C227.08,70.632 227.728,70.392 228.448,70.392 C230.368,70.392 231.352,71.448 231.352,73.56 L231.352,81 L233.896,81 L233.896,73.344 C233.896,69.936 232.336,68.256 229.264,68.256 Z M243.072,71.952 C242.352,73.056 241.512,73.992 240.576,74.784 L239.16,73.056 C241.128,71.448 242.448,69.288 243.12,66.552 L245.232,66.912 C244.92,68.112 244.536,69.192 244.08,70.176 C245.184,70.752 246.168,71.424 247.08,72.144 L245.88,74.04 C244.968,73.224 244.032,72.528 243.072,71.952 Z M255.192,71.784 C254.616,72.648 253.944,73.416 253.176,74.088 L251.784,72.312 C253.392,70.872 254.472,68.976 255.048,66.6 L257.184,66.96 C256.92,68.064 256.584,69.072 256.176,69.984 C257.424,70.68 258.576,71.472 259.632,72.36 L258.336,74.304 C257.304,73.296 256.248,72.456 255.192,71.784 Z M248.208,72.456 L248.208,65.928 L239.592,65.928 L239.592,63.744 L248.208,63.744 L248.208,61.392 L250.512,61.392 L250.512,63.744 L259.152,63.744 L259.152,65.928 L250.512,65.928 L250.512,72.336 C252.96,75.672 256.272,78.312 260.424,80.232 L259.176,82.368 C255.84,80.688 252.96,78.456 250.512,75.624 L250.512,83.4 L248.208,83.4 L248.208,75.672 C245.952,78.384 243.096,80.64 239.592,82.464 L238.392,80.4 C242.616,78.336 245.88,75.696 248.208,72.456 Z M264.488,71.064 L264.488,73.32 L286.208,73.32 L286.208,71.064 L264.488,71.064 Z M290.44,67.512 L290.44,69.72 L293.008,69.72 L293.008,77.76 C292.096,78.024 291.16,78.24 290.2,78.432 L290.776,80.64 C293.176,79.992 295.408,79.2 297.52,78.264 L297.52,76.056 C296.752,76.392 295.984,76.728 295.192,77.04 L295.192,69.72 L297.616,69.72 L297.616,67.512 L295.192,67.512 L295.192,61.416 L293.008,61.416 L293.008,67.512 L290.44,67.512 Z M299.416,62.088 L310.744,62.088 L310.744,69.6 L299.416,69.6 L299.416,62.088 Z M308.632,67.872 L308.632,66.696 L301.504,66.696 L301.504,67.872 L308.632,67.872 Z M301.504,65.064 L308.632,65.064 L308.632,63.912 L301.504,63.912 L301.504,65.064 Z M298.072,70.656 L298.072,72.624 L301.168,72.624 C300.376,73.68 299.2,74.64 297.64,75.48 L298.888,77.16 C299.704,76.656 300.424,76.104 301.072,75.528 L302.872,75.528 C301.816,76.872 300.136,77.976 297.88,78.864 L299.2,80.472 C301.888,79.272 303.832,77.616 305.056,75.528 L306.616,75.528 C305.152,78.504 302.824,80.52 299.632,81.576 L300.856,83.4 C304.432,82.128 307.024,79.512 308.632,75.528 L309.52,75.528 C309.424,77.952 309.232,79.536 308.968,80.304 C308.704,81.024 308.152,81.384 307.312,81.384 C306.832,81.384 306.304,81.336 305.752,81.288 L306.304,83.352 L308.344,83.352 C309.256,83.304 309.952,82.992 310.384,82.44 C310.816,81.864 311.104,80.856 311.296,79.416 C311.488,77.952 311.608,76.032 311.656,73.68 L302.704,73.68 C302.944,73.344 303.16,72.984 303.352,72.624 L312.4,72.624 L312.4,70.656 L298.072,70.656 Z M317.592,63.576 L317.592,65.64 L326.232,65.64 L326.232,67.488 L318.936,67.488 L318.936,69.408 L326.232,69.408 L326.232,71.28 L316.8,71.28 L316.8,73.392 L337.92,73.392 L337.92,71.28 L328.488,71.28 L328.488,69.408 L335.856,69.408 L335.856,67.488 L328.488,67.488 L328.488,65.64 L337.128,65.64 L337.128,63.576 L332.112,63.576 C332.496,62.904 332.784,62.208 332.976,61.488 L330.6,61.176 C330.408,61.992 330.12,62.808 329.784,63.576 L325.032,63.576 C324.72,62.712 324.408,61.944 324.072,61.248 L321.696,61.632 C322.08,62.232 322.416,62.88 322.704,63.576 L317.592,63.576 Z M326.496,73.872 L328.728,74.112 C328.656,74.592 328.56,75.024 328.464,75.456 L337.392,75.456 L337.392,77.568 L327.696,77.568 C327.144,78.624 326.424,79.56 325.536,80.328 C323.952,81.72 321.168,82.824 317.16,83.64 L316.224,81.432 C319.68,80.832 322.152,79.968 323.688,78.816 C324.168,78.432 324.576,78.024 324.936,77.568 L317.352,77.568 L317.352,75.456 L326.112,75.456 C326.28,74.928 326.4,74.4 326.496,73.872 Z M329.592,78.12 C332.856,79.104 335.808,80.28 338.496,81.672 L337.2,83.664 C334.32,82.08 331.392,80.808 328.392,79.896 L329.592,78.12 Z M349.736,63.144 L349.736,81.048 L347.624,81.048 L347.624,79.728 L345.32,79.728 L345.32,81.624 L343.136,81.624 L343.136,63.144 L349.736,63.144 Z M345.32,77.616 L347.624,77.616 L347.624,65.256 L345.32,65.256 L345.32,77.616 Z M358.448,73.392 C359.456,76.272 361.04,78.912 363.2,81.336 L364.664,79.488 C362.312,77.376 360.656,74.976 359.648,72.312 L363.848,72.312 L363.848,70.152 L358.448,70.152 L358.448,66.696 L363.056,66.696 L363.056,64.536 L358.448,64.536 L358.448,61.272 L356.216,61.272 L356.216,64.536 L351.584,64.536 L351.584,66.696 L356.216,66.696 L356.216,70.152 L350.744,70.152 L350.744,72.312 L354.968,72.312 C353.912,75.192 352.28,77.568 350.024,79.464 L351.224,81.408 C353.48,79.248 355.136,76.584 356.216,73.368 L356.216,83.544 L358.448,83.544 L358.448,73.392 Z M386.944,71.088 L386.944,83.52 L384.76,83.52 L384.76,82.608 L374.008,82.608 L374.008,83.52 L371.824,83.52 L371.824,71.088 L386.944,71.088 Z M374.008,80.64 L384.76,80.64 L384.76,79.368 L374.008,79.368 L374.008,80.64 Z M374.008,77.544 L384.76,77.544 L384.76,76.224 L374.008,76.224 L374.008,77.544 Z M374.008,74.4 L384.76,74.4 L384.76,73.008 L374.008,73.008 L374.008,74.4 Z M388.552,62.04 L388.552,70.176 L386.248,70.176 L386.248,64.152 L372.472,64.152 L372.472,70.176 L370.168,70.176 L370.168,62.04 L388.552,62.04 Z M374.08,65.184 L384.664,65.184 L384.664,67.008 L374.08,67.008 L374.08,65.184 Z M374.08,68.088 L384.664,68.088 L384.664,69.912 L374.08,69.912 L374.08,68.088 Z M395.088,62.136 L402.432,62.136 L402.432,63.912 C401.784,65.976 401.04,68.16 400.176,70.464 C401.496,72.624 402.216,74.52 402.336,76.152 C402.336,77.256 402.12,78.072 401.688,78.576 C401.016,79.176 399.888,79.488 398.256,79.512 L397.56,77.304 C398.04,77.376 398.424,77.424 398.76,77.424 C399.288,77.376 399.648,77.256 399.84,77.064 C400.008,76.896 400.104,76.584 400.104,76.152 C400.104,74.568 399.384,72.768 397.968,70.8 C398.928,68.376 399.672,66.192 400.2,64.248 L397.32,64.248 L397.32,83.496 L395.088,83.496 L395.088,62.136 Z M404.952,67.2 C404.28,67.632 403.56,68.016 402.84,68.352 L401.64,66.504 C404.4,65.208 406.536,63.528 408.024,61.464 L409.896,61.464 C411.168,63.36 413.328,65.04 416.376,66.48 L415.152,68.328 C414.288,67.896 413.496,67.464 412.8,67.032 L412.8,68.208 L404.952,68.208 L404.952,67.2 Z M411.672,66.24 C410.568,65.376 409.656,64.464 408.96,63.48 C408.168,64.512 407.28,65.424 406.272,66.24 L411.672,66.24 Z M409.704,69.504 L415.344,69.504 L415.344,75.864 L409.704,75.864 L409.704,69.504 Z M413.496,74.088 L413.496,71.28 L411.576,71.28 L411.576,74.088 L413.496,74.088 Z M405.72,80.04 C404.856,81.384 403.896,82.488 402.792,83.352 L401.256,81.984 C403.128,80.544 404.52,78.648 405.432,76.248 L407.28,76.992 C407.04,77.544 406.824,78.072 406.584,78.552 C407.376,79.104 408.072,79.68 408.696,80.256 L407.304,81.648 C406.872,81.12 406.344,80.592 405.72,80.04 Z M411.912,80.376 C411.096,81.552 410.184,82.536 409.176,83.352 L407.616,81.984 C409.488,80.592 410.88,78.696 411.792,76.344 L413.64,77.088 C413.376,77.712 413.088,78.312 412.8,78.864 C414.168,79.824 415.344,80.784 416.328,81.72 L414.888,83.184 C414.12,82.296 413.112,81.36 411.912,80.376 Z M402.864,69.504 L408.48,69.504 L408.48,75.864 L402.864,75.864 L402.864,69.504 Z M406.608,74.088 L406.608,71.28 L404.688,71.28 L404.688,74.088 L406.608,74.088 Z M428.192,63.096 L428.192,80.664 L425.984,80.664 L425.984,79.56 L423.392,79.56 L423.392,81.168 L421.136,81.168 L421.136,63.096 L428.192,63.096 Z M423.392,77.352 L425.984,77.352 L425.984,65.304 L423.392,65.304 L423.392,77.352 Z M434.288,64.416 L431.936,64.416 L431.936,71.424 L434.288,71.424 L434.288,64.416 Z M436.4,71.424 L438.848,71.424 L438.848,64.416 L436.4,64.416 L436.4,71.424 Z M441.056,62.304 L441.056,73.536 L431.936,73.536 L431.936,79.272 C431.936,80.328 432.344,80.88 433.184,80.88 L438.728,80.88 C439.208,80.856 439.568,80.616 439.76,80.136 C439.904,79.776 440.024,78.744 440.144,77.016 L442.28,77.712 C442.136,79.344 441.944,80.544 441.728,81.264 C441.392,82.416 440.624,83.016 439.448,83.064 L432.248,83.064 C430.568,83.064 429.728,82.08 429.728,80.136 L429.728,62.304 L441.056,62.304 Z M455.872,63.864 L456.424,76.152 L458.32,76.152 L458.872,63.864 L455.872,63.864 Z M457.36,77.568 C456.88,77.568 456.472,77.712 456.136,78.048 C455.776,78.36 455.608,78.768 455.608,79.272 C455.608,79.752 455.776,80.16 456.136,80.496 C456.472,80.832 456.88,81 457.36,81 C457.84,81 458.272,80.832 458.632,80.52 C458.968,80.184 459.136,79.776 459.136,79.272 C459.136,78.768 458.968,78.36 458.632,78.048 C458.296,77.712 457.864,77.568 457.36,77.568 Z"/>
  </g>
</svg>
