<svg xmlns="http://www.w3.org/2000/svg" width="480" height="234" viewBox="0 0 480 234">
  <g fill="none" fill-rule="evenodd">
    <g transform="translate(118.063 58.78)">
      <path fill="#A5B6F3" d="M72.3354075,6.63932609 C70.3860316,6.63932609 68.4192801,6.77836817 66.4350939,7.05645652 L65.6518665,4.60581522 C67.8449143,4.95342565 70.072739,5.12722826 72.3354075,5.12722826 L99.9572293,5.12722826 L104.082227,0.0695217391 L108.990453,4.08440217 C109.756279,4.64057887 110.139186,5.09246565 110.139186,5.44007609 C110.139186,6.23958008 109.738874,6.63932609 108.938238,6.63932609 L92.2816002,6.63932609 C92.2119796,12.6182255 91.9335015,17.7627828 91.4461576,22.0731522 L101.628115,22.0731522 L105.961973,16.4940326 L111.18349,20.8217609 C112.018936,21.4822207 112.436654,22.0036285 112.436654,22.386 C112.436654,23.1159819 112.001532,23.4809674 111.131274,23.4809674 L91.1328666,23.4809674 C91.1328666,23.5852505 91.1154617,23.6721518 91.0806514,23.7416739 C92.6471142,27.2177782 94.9967731,29.9812397 98.1296986,32.0321413 C101.436676,34.3263702 106.327447,36.2903397 112.80216,37.9241087 L112.80216,39.2276413 C108.729357,40.7223662 106.153434,44.1984184 105.074315,49.6559022 C99.9223935,46.5621693 96.3543929,43.3642013 94.3702068,40.0619022 C92.7341234,37.4548239 91.341733,33.7354481 90.1929936,28.903663 C89.253116,32.5883336 88.0695841,35.3691754 86.6423625,37.2462717 C82.2562667,43.1208881 74.5284997,47.3269112 63.4588296,49.8644674 L62.9366779,48.8737826 C69.5158215,45.3629172 74.2673539,41.1221335 77.1914177,36.1513043 C78.6534497,33.6137482 79.7325523,29.3903448 80.4287579,23.4809674 L71.7088255,23.4809674 C69.5853982,23.4809674 67.4968125,23.6200095 65.4430058,23.8980978 L64.5031328,21.4474565 C66.9050424,21.864589 69.3069159,22.0731522 71.7088255,22.0731522 L80.5854034,22.0731522 C80.9683165,17.6932607 81.1771751,12.5487035 81.2119854,6.63932609 L72.3354075,6.63932609 Z M194.310031,0.486652174 L203.134394,1.06020652 C204.422374,1.16448965 205.066355,1.52947513 205.066355,2.15517391 C205.066355,2.50278435 204.805282,2.78086852 204.283127,2.98943478 C203.969835,3.23276209 203.778381,3.51084626 203.708761,3.82369565 L203.708761,4.55367391 L205.223,4.55367391 L208.042619,1.21663043 L211.332175,3.87583696 C211.889139,4.29296948 212.167617,4.62319444 212.167617,4.86652174 C212.167617,5.59650365 211.889139,5.96148913 211.332175,5.96148913 L203.708761,5.96148913 L203.708761,7.9428587 L206.789455,6.06577174 L212.324263,9.92422826 C212.881227,10.4456439 213.159705,10.8453899 213.159705,11.1234783 C213.159705,11.5058497 212.968252,11.7491734 212.585339,11.8534565 L211.48882,12.2184457 C210.27046,13.4698432 208.982499,14.5995602 207.624898,15.6076304 L213.316351,17.067587 L213.159705,16.8590217 C215.596425,15.2600137 217.563177,13.6262692 219.060019,11.9577391 C217.284694,10.8801468 214.98725,9.7156693 212.167617,8.46427174 L212.741984,7.31716304 C216.153392,7.69953452 219.094817,8.11666078 221.566347,8.56855435 C222.123311,7.56048409 222.767292,6.41338687 223.498308,5.12722826 L218.433437,5.12722826 C216.727733,5.12722826 215.03946,5.26627035 213.368566,5.5443587 L212.585339,3.198 C214.499904,3.51084939 216.449251,3.66727174 218.433437,3.66727174 L223.498308,3.66727174 L226.631218,0.278086957 L233.158113,4.60581522 C233.784698,4.95342565 234.097986,5.33579139 234.097986,5.75292391 C234.097986,6.0657733 233.819508,6.378618 233.262544,6.69146739 C232.81001,6.76098948 232.514127,6.93479209 232.374886,7.21288043 C231.191336,8.35999487 230.025209,9.36805 228.87647,10.2370761 C230.234071,10.7932528 231.330578,11.3494211 232.166025,11.9055978 C233.349575,12.844146 233.941341,13.7305393 233.941341,14.5648043 C233.941341,16.0247682 233.488814,17.3109075 232.583746,18.4232609 C231.504628,19.6746584 230.321096,20.3003478 229.033115,20.3003478 C228.40653,20.3003478 227.518881,19.6572782 226.370142,18.3711196 C225.116972,16.8763947 223.794201,15.5207343 222.401789,14.3040978 C219.825828,15.5554954 217.058452,16.6156913 214.099578,17.4847174 C214.34325,17.6932837 214.465084,17.9018468 214.465084,18.110413 C214.465084,18.5275456 214.151797,18.8056297 213.525211,18.9446739 C213.281539,19.014196 213.090086,19.083717 212.950845,19.1532391 C214.552118,20.1265483 216.727728,20.8912798 219.47774,21.4474565 C223.063199,22.2817216 228.406498,22.976932 235.507796,23.5331087 L235.507796,24.4195109 C233.001455,25.323298 231.382801,27.4958306 230.651785,30.9371739 C229.259374,30.5548024 228.006223,30.2245775 226.892294,29.9464891 C226.927104,30.0507723 226.944509,30.1202933 226.944509,30.1550543 C226.944509,30.711231 226.718245,31.1283573 226.265712,31.4064457 C225.882798,31.5802509 225.63913,31.8061943 225.534699,32.0842826 L225.534699,35.9948804 C225.882802,35.5082258 226.091661,35.056339 226.161281,34.6392065 L233.419189,37.2462717 C234.150205,37.489599 234.515707,37.8372043 234.515707,38.2890978 C234.515707,38.5671862 234.219825,38.7062283 233.62805,38.7062283 C233.210326,38.7757503 232.931848,38.8800319 232.792607,39.0190761 L226.161281,41.0004457 C229.154966,41.8347107 231.330576,42.5994422 232.688177,43.294663 C233.906537,44.059406 234.515707,45.0500809 234.515707,46.2667174 C234.515707,46.8576551 234.09799,47.7961892 233.262544,49.0823478 C232.357476,50.1947012 231.313183,50.7508696 230.129634,50.7508696 C229.259377,50.7508696 228.215084,50.177321 226.996724,49.0302065 C225.32583,47.5702427 223.202435,46.1103008 220.626474,44.650337 C217.911272,43.2598952 213.960364,41.8520941 208.773632,40.4268913 L209.295783,38.8105109 C214.273654,39.1928823 218.381206,39.6621494 221.618562,40.2183261 C222.419198,39.3493 223.063179,38.6714698 223.550523,38.1848152 C219.930254,38.6019477 217.980907,38.8105109 217.702425,38.8105109 C216.866978,38.8105109 216.414451,38.219582 216.34483,37.0377065 L202.403381,37.0377065 L202.403381,41.4175761 C205.153394,41.348054 208.007794,41.2437724 210.966668,41.1047283 L211.279959,41.8868478 L192.430285,48.9780652 C192.221423,49.2909146 192.082184,49.5689988 192.012564,49.8123261 C191.768892,50.2642197 191.438199,50.490163 191.020476,50.490163 C190.672373,50.490163 190.37649,50.1077973 190.132818,49.3430543 L188.305287,41.6782826 L193.004652,41.6782826 L193.004652,30.102913 C190.811604,30.832895 188.427135,31.4412041 185.851174,31.9278587 L185.224592,31.302163 C189.85436,29.0426952 193.683434,26.6442192 196.711929,24.106663 C198.591684,22.3686109 200.053694,20.7870071 201.098002,19.3618043 C197.477733,20.8912903 192.639176,22.1600493 186.582187,23.1681196 L186.216681,22.386 C188.792642,21.1346024 190.968252,19.9006039 192.743576,18.6839674 C192.569525,18.336357 192.412881,17.8323294 192.27364,17.1718696 C191.995157,16.2333214 191.57744,15.3469281 191.020476,14.512663 C189.419203,15.6597775 187.974598,16.5287905 186.686617,17.1197283 L186.00782,16.2854674 C187.2958,13.8521944 188.514142,10.0459172 189.662881,4.86652174 L194.727752,7.995 L194.727752,2.98943478 C194.727752,2.32897496 194.588513,1.49472243 194.310031,0.486652174 Z M202.403381,29.9464891 L202.403381,32.0321413 L216.34483,32.0321413 L216.34483,29.9464891 L202.403381,29.9464891 Z M202.403381,33.5442391 L202.403381,35.6298913 L216.34483,35.6298913 L216.34483,33.5442391 L202.403381,33.5442391 Z M215.822679,28.5386739 L217.75464,26.7137283 C217.510968,26.5746841 217.319514,26.4530223 217.180273,26.3487391 L215.509388,25.2016304 C215.613819,25.3754357 215.666033,25.5144777 215.666033,25.6187609 C215.666033,26.3139817 215.300531,26.661587 214.569515,26.661587 L206.893886,26.661587 C205.605905,26.661587 204.300539,26.800629 202.977748,27.0787174 L202.821103,26.5573043 C202.264138,26.8006317 201.776802,27.026575 201.359078,27.2351413 C201.115406,27.3046634 200.871738,27.3915647 200.628066,27.4958478 L202.925533,28.5386739 L215.822679,28.5386739 Z M205.275216,25.0973478 C205.83218,25.1321089 206.371731,25.1494891 206.893886,25.1494891 L210.235656,25.1494891 L212.428693,21.864587 C212.1154,21.3779323 211.802113,20.9260456 211.48882,20.508913 C209.469824,22.2469652 207.398643,23.7764282 205.275216,25.0973478 Z M193.683449,12.4270109 C194.936619,12.8441434 195.876483,13.2265091 196.503068,13.5741196 C197.094843,13.92173 197.51256,14.3040957 197.756232,14.7212283 C199.287884,13.2960255 200.715085,11.6970415 202.037875,9.92422826 L196.659713,9.92422826 C195.580595,10.9322985 194.588516,11.766551 193.683449,12.4270109 Z M3.32436545,78.351 L14.2373348,82.8351522 L36.9509312,82.8351522 L40.7626382,77.9338696 L48.9082038,82.8351522 C49.5347889,83.1827626 49.8480768,83.5651283 49.8480768,83.9822609 C49.8480768,84.4341544 49.4999791,84.8339004 48.8037735,85.1815109 C48.3512398,85.4248382 48.0901666,85.7724434 48.020546,86.224337 L48.020546,118.030533 C48.020546,121.993292 46.3148677,124.687232 42.9034599,126.112435 C40.7452223,126.9467 38.9351147,127.433347 37.4730828,127.572391 C37.0901697,123.435827 35.2278475,120.724506 31.8860603,119.438348 L31.8860603,118.395522 L36.9509312,118.395522 C37.6123266,118.395522 37.9430193,118.013156 37.9430193,117.248413 L37.9430193,108.436533 L30.5806812,108.436533 L30.5806812,125.069609 C30.5806812,125.660546 30.0759396,126.060292 29.0664414,126.268859 C24.5759148,126.859796 22.2784706,127.155261 22.1740397,127.155261 C21.1297312,127.155261 20.6075848,126.373149 20.6075848,124.808902 L20.6075848,108.436533 L12.3575889,108.436533 C11.9746757,110.661239 11.3829098,112.71211 10.5822733,114.589207 C8.77213854,119.386231 5.63926001,123.783437 1.18354372,127.780957 L0.556961751,126.998837 C1.63608054,124.078909 2.45410993,120.620237 3.01107447,116.622717 C3.46360815,112.868525 3.70727648,107.550165 3.74208677,100.667478 L3.74208677,83.5651304 C3.74208677,81.8618393 3.60284772,80.1238132 3.32436545,78.351 Z M12.8101203,106.368261 L20.8512556,106.368261 L20.8512556,95.7314348 L13.3322719,95.7314348 L13.3322719,100.007022 C13.3322719,102.162206 13.1582231,104.282598 12.8101203,106.368261 Z M30.6328963,95.7314348 L30.6328963,106.368261 L37.9952345,106.368261 L37.9952345,95.7314348 L30.6328963,95.7314348 Z M12.8101203,94.1324348 L20.3291039,94.1324348 L20.3291039,83.4956087 L12.8101203,83.4956087 L12.8101203,94.1324348 Z M30.6328963,83.4956087 L30.6328963,94.1324348 L37.9952345,94.1324348 L37.9952345,83.4956087 L30.6328963,83.4956087 Z M66.8528152,79.0462174 C71.4129624,79.0462174 74.389197,79.5850055 75.7816083,80.6625978 C77.2436402,81.7054291 77.9746452,83.026329 77.9746452,84.625337 C77.9746452,85.8767345 77.5569281,87.0064515 76.7214813,88.0145217 C75.6423625,88.987831 74.4936404,89.4744783 73.2752804,89.4744783 C72.3005925,89.4744783 71.4129436,89.0225915 70.6123071,88.1188043 C70.0205322,87.4235835 69.6724346,86.5198099 69.5680038,85.4074565 C69.5680038,84.5731915 69.2895257,83.7041784 68.7325611,82.8003913 C68.4192686,82.0356484 67.6012392,81.149255 66.2784484,80.1411848 L66.8528152,79.0462174 Z M63.4588296,92.3943913 C67.4272019,92.3943913 70.0031242,92.8462781 71.1866739,93.7500652 C72.4746544,94.5843303 73.1186349,95.6619064 73.1186349,96.9828261 C73.1186349,98.2689847 72.6835129,99.4508424 71.8132558,100.528435 C70.734137,101.501744 69.5506052,101.988391 68.2626247,101.988391 C67.4967984,101.988391 66.8006032,101.606026 66.1740181,100.841283 C65.7562947,100.146062 65.4952215,99.3118092 65.3907906,98.3385 C65.3907906,97.504235 65.1993369,96.7221232 64.8164238,95.9921413 C64.5031313,95.2273984 63.8765556,94.4105261 62.9366779,93.5415 L63.4588296,92.3943913 Z M78.6534423,90.1696957 L79.3844546,90.7953913 L74.5284444,112.642598 C74.354393,113.37258 74.2673685,114.08517 74.2673685,114.780391 C74.2673685,115.093241 74.354393,115.423466 74.5284444,115.771076 C76.2689585,117.787217 77.1392026,119.507862 77.1392026,120.933065 C77.1392026,122.740639 76.5300318,124.304863 75.3116718,125.625783 C74.1281222,126.772897 72.5616829,127.346446 70.6123071,127.346446 C69.3243266,127.346446 68.1930093,126.911939 67.2183214,126.042913 C66.069582,125.104365 65.495221,123.696564 65.495221,121.819467 C65.495221,121.22853 65.7388893,120.133573 66.2262333,118.534565 C66.8528184,117.491734 67.1661062,116.605341 67.1661062,115.875359 C67.1661062,114.311112 65.7563109,113.198775 62.9366779,112.538315 L62.9366779,111.286924 C65.0949155,111.217402 66.4002815,110.835036 66.8528152,110.139815 L78.6534423,90.1696957 Z M81.09015,77.7079239 L91.7420435,81.0971087 L98.7910907,81.0971087 L102.655013,76.8215217 L109.390769,81.5142391 C109.982544,81.9313717 110.278427,82.2963571 110.278427,82.6092065 C110.278427,83.1653832 110.034758,83.5998897 109.547414,83.9127391 C109.060071,84.1560664 108.746783,84.4167703 108.607542,84.6948587 L108.607542,96.1659457 C108.607542,96.3397509 108.572732,96.4614127 108.503111,96.5309348 L112.053742,99.4508478 C112.680327,99.9375024 112.993615,100.319868 112.993615,100.597957 C112.993615,101.397461 112.662923,101.797207 112.001527,101.797207 L106.936656,101.797207 L112.367033,105.238533 C112.784757,105.516621 112.993615,105.898987 112.993615,106.385641 C112.993615,106.733252 112.749947,107.028716 112.262603,107.272043 C111.670828,107.515371 111.253111,107.845596 111.009439,108.262728 C111.009439,112.503576 110.678746,116.483655 110.017351,120.203087 C109.530007,123.018731 108.485714,124.791518 106.884441,125.5215 C105.666081,126.216721 103.037944,126.685988 98.9999513,126.929315 C98.8258999,123.661777 97.3116753,121.524005 94.457232,120.515935 L94.457232,119.629533 L99.9398243,119.629533 C100.67084,119.629533 101.105962,119.247167 101.245203,118.482424 C101.767358,116.327239 102.150265,113.650679 102.393937,110.452663 C99.7483554,113.963528 97.1376233,116.640089 94.5616624,118.482424 C90.1755666,121.784723 84.8148634,124.461283 78.4793918,126.512185 L78.1661008,125.93863 C83.0395405,123.018703 86.7989947,120.046678 89.4445763,117.022467 C91.6028139,114.554433 93.8828532,111.00886 96.2847628,106.385641 L95.1882443,106.385641 C92.9603862,110.035551 90.7325615,112.729491 88.5047033,114.467543 C85.6502601,116.796533 82.1692839,118.656221 78.0616705,120.046663 L77.6439492,119.473109 C80.1154793,117.456968 81.9952064,115.440858 83.2831869,113.424717 C84.1882543,112.103798 85.0410934,110.417912 85.8417299,108.367011 L85.7372996,108.419152 C82.9872872,110.296249 79.6107404,111.808331 75.6075578,112.955446 L75.1898364,112.277609 C77.3132637,110.678601 78.9493225,109.027476 80.0980619,107.324185 C80.968319,106.003265 81.9081825,104.178338 82.9176808,101.849348 C81.4556488,101.849348 80.0110437,101.97101 78.5838221,102.214337 L77.6439492,99.7636957 C79.6629456,100.111306 81.6296971,100.285109 83.5442627,100.285109 L104.117037,100.285109 L106.518935,97.417337 C102.759424,97.8692305 100.740458,98.0951739 100.461976,98.0951739 C99.5569086,98.0951739 99.0695719,97.504245 98.9999513,96.3223696 L90.4888796,96.3223696 L90.4888796,97.5216196 C90.4888796,98.0777963 90.0711624,98.4254015 89.2357156,98.5644457 C85.3021536,99.1206223 83.2309728,99.3987065 83.0221111,99.3987065 C82.0474231,99.3987065 81.5600865,98.6861158 81.5600865,97.260913 L81.5600865,81.5663804 C81.5600865,80.2802218 81.4034426,78.9940825 81.09015,77.7079239 Z M90.7847655,95.4359674 L99.2958373,95.4359674 L99.2958373,90.1696957 L90.7847655,90.1696957 L90.7847655,95.4359674 Z M90.7847655,89.1790109 L99.2958373,89.1790109 L99.2958373,83.4956087 L90.7847655,83.4956087 L90.7847655,89.1790109 Z M105.074315,102.405522 L92.1771699,102.405522 C91.2721025,103.656919 90.4366682,104.682355 89.670842,105.481859 L101.732545,105.481859 L105.074315,102.405522 Z M168.202449,91.4037065 L167.993588,91.4037065 C166.810039,91.4037065 165.81796,90.9170592 165.017324,89.94375 C164.321118,89.179007 163.920806,88.1883322 163.816375,86.9716957 C163.816375,85.9983864 163.537897,85.0598523 162.980933,84.1560652 C162.563209,83.2522781 161.692965,82.2616032 160.370174,81.1840109 L160.892326,80.1411848 C165.730955,80.1411848 168.916049,80.7494939 170.447701,81.9661304 C172.014164,83.0784838 172.797383,84.555806 172.797383,86.3981413 C172.797383,87.6495389 172.362261,88.7966361 171.492004,89.8394674 C171.109091,90.1523168 170.760994,90.430401 170.447701,90.6737283 L174.207193,93.9064891 C174.659727,94.2888606 174.88599,94.7059869 174.88599,95.1578804 C174.88599,95.8878623 174.381248,96.2876083 173.37175,96.3571304 L157.707201,97.8692283 C158.298976,101.449616 159.064791,104.299979 160.004668,106.420402 C161.4667,109.653179 163.259403,112.034275 165.38283,113.563761 C166.984103,114.919442 167.993586,115.597272 168.41131,115.597272 C168.794223,115.597272 170.134399,113.164035 172.431877,108.297489 L173.423965,108.818902 C173.006242,112.08644 172.797383,114.172072 172.797383,115.075859 C173.041055,117.752459 173.80687,119.542626 175.094851,120.446413 C174.955609,121.975899 174.416058,123.505362 173.476181,125.034848 C172.431872,126.494812 171.230935,127.224783 169.873334,127.224783 C167.854338,127.224783 165.36544,126.37315 162.406566,124.669859 C158.368573,122.340869 154.905002,118.43031 152.015748,112.938065 C150.275234,109.496722 149.004678,104.751911 148.204041,98.7034891 L146.16765,98.859913 C144.461946,98.9989572 142.843292,99.2422809 141.311639,99.5898913 L139.7974,97.5042391 L145.749928,97.4520978 L148.047396,97.1913913 C147.594862,93.2633934 147.316384,88.8661874 147.211953,83.9996413 C147.107522,82.2963502 146.898664,80.6452254 146.585371,79.0462174 L157.132834,79.7240543 C158.003091,79.8283375 158.473023,80.1585624 158.542644,80.7147391 C158.542644,81.3056769 158.264165,81.7575637 157.707201,82.070413 C157.254667,82.2442183 156.976189,82.5049222 156.871758,82.8525326 C156.871758,88.0319281 157.063212,92.4291341 157.446125,96.0442826 L165.330615,95.2100217 L168.202449,91.4037065 Z M134.454048,77.9338696 L145.628093,80.4887935 C146.393919,80.6973597 146.776827,81.114486 146.776827,81.7401848 C146.776827,82.2963615 146.446134,82.6439667 145.784738,82.7830109 C145.192964,82.887294 144.810056,83.0610966 144.636005,83.3044239 C142.338526,87.7190764 140.110701,91.2994102 137.952464,94.0455326 L139.205628,94.2540978 C139.832213,94.4974251 140.145501,94.758129 140.145501,95.0362174 C140.145501,95.4533499 139.971452,95.7661946 139.623349,95.9747609 C139.414487,96.113805 139.275248,96.3223682 139.205628,96.6004565 L139.205628,125.643163 C139.205628,126.234101 138.735696,126.633847 137.795818,126.842413 C133.897067,127.294307 131.808481,127.52025 131.529999,127.52025 C130.659742,127.52025 130.22462,126.82504 130.22462,125.434598 L130.22462,102.492424 C128.901829,103.778583 127.544248,104.94306 126.151837,105.985891 L125.316394,105.464478 C127.509442,101.362675 129.389169,97.0871309 130.955632,92.6377174 C132.173992,89.2311351 133.183475,85.7377027 133.984111,82.1573152 C134.297404,80.2454578 134.454048,78.8376567 134.454048,77.9338696 Z M193.96193,86.1721957 C192.499898,86.1721957 191.037888,86.3112377 189.575856,86.5893261 L188.688198,84.1386848 C190.463523,84.5210563 192.221416,84.7122391 193.96193,84.7122391 L194.745157,84.7122391 C194.779968,84.2255845 194.797373,83.721557 194.797373,83.2001413 C194.797373,81.4273281 194.658134,79.6719217 194.379651,77.9338696 L204.091672,78.8202717 C205.379652,78.8897938 206.023633,79.2547793 206.023633,79.9152391 C206.023633,80.4366548 205.76256,80.853781 205.240405,81.1666304 C204.718251,81.4447188 204.422368,81.7401832 204.352748,82.0530326 C204.317937,82.9568197 204.283128,83.843213 204.248317,84.7122391 L205.292621,84.7122391 L208.42553,80.8016413 L212.289453,83.9301196 C212.707176,84.27773 212.950844,84.5384339 213.020465,84.7122391 L215.840084,84.7122391 C215.874894,84.2951066 215.892299,83.8258396 215.892299,83.3044239 C215.892299,81.4968497 215.71825,79.7066828 215.370147,77.9338696 L225.395459,78.8202717 C226.71825,78.8897938 227.379635,79.2721596 227.379635,79.9673804 C227.379635,80.4887961 227.066347,80.9233026 226.439762,81.270913 C225.987228,81.5490014 225.726155,81.8444658 225.656535,82.1573152 C225.621724,82.9915803 225.586915,83.843213 225.552104,84.7122391 L228.058432,84.7122391 L231.452418,80.6452174 L235.42077,83.8779783 C236.047355,84.3646329 236.360643,84.7296183 236.360643,84.9729457 C236.360643,85.7724496 236.029951,86.1721957 235.368555,86.1721957 L225.499889,86.1721957 C225.325838,88.3621414 225.04736,90.2913504 224.664446,91.9598804 L227.692926,91.9598804 L231.556848,87.2150217 L236.151783,91.021337 C236.813178,91.5079916 237.143871,91.9251178 237.143871,92.2727283 C237.143871,93.0722323 236.795773,93.4719783 236.099567,93.4719783 L225.395459,93.4719783 C226.78787,94.4800485 228.354309,95.2273997 230.094824,95.7140543 C231.765717,96.270231 234.184996,96.7394981 237.352731,97.1218696 L237.352731,98.1125543 C235.264114,99.3639519 233.802104,102.301216 232.966658,106.924435 C230.147025,105.255905 228.145463,103.465738 226.961914,101.55388 C225.569502,99.4334568 224.542614,97.052361 223.881219,94.4105217 C223.463496,95.8704856 222.87173,97.1044841 222.105903,98.1125543 C219.599563,101.831986 214.795816,104.386884 207.694518,105.777326 L207.329012,104.786641 C210.322696,102.596696 212.428687,100.111318 213.647047,97.3304348 C214.169201,96.3571256 214.586918,95.0709863 214.900211,93.4719783 L203.36066,93.4719783 C203.256229,93.9238718 203.169204,94.3236178 203.099584,94.6712283 C205.675545,95.227405 207.433438,95.7488128 208.373315,96.2354674 C209.730916,97.0002103 210.409707,97.8170826 210.409707,98.6861087 C210.409707,99.9375063 210.079014,101.119364 209.417619,102.231717 C208.37331,103.274549 207.311612,103.795957 206.232494,103.795957 C204.770462,103.795957 203.795788,102.71838 203.308444,100.563196 C202.995152,99.5551254 202.542625,98.6687321 201.95085,97.9039891 C201.707178,98.4949269 201.446105,99.0510952 201.167623,99.5725109 C200.262555,101.136758 199.096428,102.457658 197.669207,103.53525 L204.927114,105.985891 L218.920778,105.985891 L222.784701,102.127435 L230.199254,106.611587 C230.96508,107.098242 231.347988,107.515368 231.347988,107.862978 C231.347988,108.488677 231.104319,108.940564 230.616975,109.218652 C230.234062,109.427218 229.990394,109.705303 229.885963,110.052913 L229.885963,125.226033 C229.885963,125.886492 229.329007,126.320999 228.215078,126.529565 C223.689741,127.050981 221.287867,127.311685 221.009385,127.311685 C219.930266,127.311685 219.390715,126.494813 219.390715,124.861043 L219.390715,123.713935 L203.412875,123.713935 L203.412875,125.226033 C203.412875,125.886492 202.925538,126.320999 201.95085,126.529565 C197.634375,127.050981 195.336931,127.311685 195.058448,127.311685 C194.04895,127.311685 193.544209,126.512193 193.544209,124.913185 L193.544209,106.142315 C191.803694,106.837536 189.958777,107.428465 188.009401,107.91512 L187.69611,106.924435 C190.202451,104.42164 191.942939,101.658178 192.917627,98.6339674 C193.474591,97.4173309 193.909713,95.696685 194.223006,93.4719783 L193.283133,93.4719783 C191.68186,93.4719783 190.080611,93.5936401 188.479338,93.8369674 L187.69611,91.3863261 C189.541055,91.7686976 191.403378,91.9598804 193.283133,91.9598804 L194.379651,91.9598804 C194.518892,90.2218283 194.623322,88.2926193 194.692942,86.1721957 L193.96193,86.1721957 Z M203.291039,122.636348 L219.26888,122.636348 L219.26888,115.753696 L203.291039,115.753696 L203.291039,122.636348 Z M203.291039,114.432783 L219.26888,114.432783 L219.26888,107.967261 L203.291039,107.967261 L203.291039,114.432783 Z M215.996729,92.620337 C216.240401,90.9170458 216.44926,88.9878369 216.623311,86.8326522 L205.031545,86.8326522 C204.892304,88.9878369 204.683445,90.9170458 204.404963,92.620337 L206.128063,92.620337 L209.522049,88.3968913 L213.647047,91.7860761 C214.169201,92.1336865 214.465084,92.4117707 214.534705,92.620337 L215.996729,92.620337 Z"/>
      <path fill="#FFB8AC" d="M37.7341587,47.6223913 L12.6708798,47.6223913 L12.6708798,44.493913 L14.8987269,44.493913 C17.3586536,44.493913 18.5885985,42.385108 18.5885985,38.1674348 L18.5885985,12.4443913 C18.5885985,9.80255201 17.335447,8.48165217 14.8291066,8.48165217 L12.4620192,8.48165217 L12.4620192,5.42269565 C15.1540144,5.42269565 17.1033611,5.28365356 18.3101176,5.00556522 C19.8881838,4.54208464 21.4662263,3.52244266 23.0442925,1.9466087 L31.6771996,1.9466087 L31.6771996,38.2369565 C31.6771996,42.4082817 33.0463836,44.493913 35.7847925,44.493913 L37.7341587,44.493913 L37.7341587,47.6223913 Z"/>
    </g>
    <path fill="#F5F5F5" d="M75.4206715 13.9933919C70.5876069 15.7626802 66.9225879 18.4969938 64.4255046 22.1964148 61.9284212 25.8958357 60.6798982 30.3189901 60.6798982 35.4660105L75.4206715 35.4660105 75.4206715 68.0368366 45.2141689 68.0368366 45.2141689 35.4660105C45.2141689 30.9623676 46.0196676 26.7804762 47.6306891 22.9202109 49.2417106 19.0599455 51.4165571 15.6420535 54.1552937 12.6664323 56.8940303 9.69081113 60.0757501 7.15755 63.7005485 5.06657293 67.3253469 2.97559587 71.2320156 1.28675512 75.4206715 0L75.4206715 13.9933919zM30.6271742 13.9933919C25.7941096 15.7626802 22.1290906 18.4969938 19.6320072 22.1964148 17.1349238 25.8958357 15.8864009 30.3189901 15.8864009 35.4660105L30.6271742 35.4660105 30.6271742 68.0368366.420671527 68.0368366.420671527 35.4660105C.420671527 30.9623676 1.22617021 26.7804762 2.83719174 22.9202109 4.44821327 19.0599455 6.62305971 15.6420535 9.36179631 12.6664323 12.1005329 9.69081113 15.2822527 7.15755 18.9070511 5.06657293 22.5318496 2.97559587 26.4385182 1.28675512 30.6271742 0L30.6271742 13.9933919zM451.064815 220.045958C455.848789 218.276588 459.398137 215.542147 461.712963 211.842554 464.027789 208.142961 465.185185 203.719601 465.185185 198.572341L451.064815 198.572341 451.064815 166 480 166 480 198.572341C480 203.237045 479.228403 207.459343 477.685185 211.239362 476.141968 215.019381 474.058655 218.39722 471.435185 221.372979 468.811715 224.348739 465.763906 226.92233 462.291667 229.093831 458.819427 231.265331 455.077181 232.914038 451.064815 234.040001L451.064815 220.045958zM405 220.045958C409.783975 218.276588 413.333322 215.542147 415.648148 211.842554 417.962975 208.142961 419.12037 203.719601 419.12037 198.572341L405 198.572341 405 166 433.935185 166 433.935185 198.572341C433.935185 203.237045 433.163588 207.459343 431.62037 211.239362 430.077153 215.019381 427.99384 218.39722 425.37037 221.372979 422.7469 224.348739 419.699091 226.92233 416.226852 229.093831 412.754612 231.265331 409.012366 232.914038 405 234.040001L405 220.045958z"/>
    <path fill="#FFB8AC" d="M284.742188,89.5859375 L281.4375,107.164062 L251.34375,107.164062 L251.34375,99.9921875 C252.562506,98.2109286 254.460925,96.0078256 257.039062,93.3828125 C260.226578,90.0077956 262.242183,87.8984417 263.085938,87.0546875 C267.820336,81.5234098 270.1875,76.7890822 270.1875,72.8515625 C270.1875,69.945298 270.000002,67.8359441 269.625,66.5234375 C268.921871,63.9921748 267.445324,62.7265625 265.195312,62.7265625 C263.929681,62.7265625 262.898441,63.1953078 262.101562,64.1328125 C261.585935,64.7421905 261.328125,65.4218712 261.328125,66.171875 C261.328125,66.4062512 261.79687,67.2265555 262.734375,68.6328125 C263.578129,70.13282 264,71.4687441 264,72.640625 C264,74.5156344 263.343757,76.0390566 262.03125,77.2109375 C260.906244,78.5703193 259.500008,79.25 257.8125,79.25 C255.984366,79.25 254.414069,78.5937566 253.101562,77.28125 C251.882806,76.1093691 251.273438,74.4453233 251.273438,72.2890625 C251.273438,68.7265447 252.749985,65.7968865 255.703125,63.5 C258.750015,61.1562383 262.406229,59.984375 266.671875,59.984375 C271.265648,59.984375 275.132797,61.3202991 278.273438,63.9921875 C281.273452,66.6172006 282.773438,70.1093532 282.773438,74.46875 C282.773438,77.468765 281.859384,80.0703015 280.03125,82.2734375 C278.765619,83.9140707 276.679702,85.6249911 273.773438,87.40625 C271.429676,88.7187566 269.132824,90.1015552 266.882812,91.5546875 C263.039043,94.1328254 260.460944,96.0546812 259.148438,97.3203125 L272.789062,97.3203125 C276.445331,97.3203125 279.187491,94.7422133 281.015625,89.5859375 L284.742188,89.5859375 Z"/>
  </g>
</svg>
