<svg xmlns="http://www.w3.org/2000/svg" width="370" height="84" viewBox="0 0 370 84">
  <g fill="none" fill-rule="evenodd">
    <path fill="#A5B6F3" d="M27.16,36 L40.456,36 L40.456,31.152 L36.52,31.152 L36.52,9.12 L42.376,9.12 L42.376,14.112 L47.512,14.112 L47.512,4.416 L20.104,4.416 L20.104,14.112 L25.24,14.112 L25.24,9.12 L31.096,9.12 L31.096,31.152 L27.16,31.152 L27.16,36 Z M52.984,5.28 L52.984,31.68 L49.864,31.68 L49.864,36 L61.096,36 L61.096,31.68 L58.216,31.68 L58.216,21.792 C59.896,20.4 61.816,19.344 63.64,19.344 C64.648,19.344 65.464,19.68 65.992,20.352 C66.424,20.928 66.664,21.744 66.664,22.896 L66.664,31.68 L63.784,31.68 L63.784,36 L75.016,36 L75.016,31.68 L71.896,31.68 L71.896,21.6 C71.896,19.68 71.416,18.048 70.504,16.848 C69.4,15.408 67.624,14.592 65.368,14.592 C62.392,14.592 60.184,16.272 58.216,18.144 L58.216,0.864 L49.864,0.864 L49.864,5.28 L52.984,5.28 Z M98.056,27.264 L82.888,27.264 C83.608,30.528 86.296,31.968 89.8,31.968 C92.344,31.968 94.984,31.152 97.432,29.76 L97,34.464 C94.792,35.76 92.104,36.384 89.032,36.384 C82.168,36.384 77.416,32.064 77.416,25.536 C77.416,19.584 81.592,14.592 88.072,14.592 C94.792,14.592 98.296,19.104 98.296,24.672 C98.296,25.488 98.2,26.544 98.056,27.264 Z M88.024,18.816 C85.72,18.816 83.416,20.16 82.84,23.616 L93.064,23.616 C92.968,20.736 91.096,18.816 88.024,18.816 Z M112.12,36 L135.064,36 L135.064,26.736 L129.832,26.736 L129.832,31.2 L121.144,31.2 L121.144,9.264 L125.32,9.264 L125.32,4.416 L112.12,4.416 L112.12,9.264 L115.72,9.264 L115.72,31.152 L112.12,31.152 L112.12,36 Z M143.464,11.76 C145.336,11.76 147.016,10.224 147.016,8.304 C147.016,6.384 145.432,4.848 143.56,4.848 C141.688,4.848 140.008,6.384 140.008,8.304 C140.008,10.224 141.592,11.76 143.464,11.76 Z M138.184,36 L149.752,36 L149.752,31.68 L146.632,31.68 L146.632,14.976 L138.184,14.976 L138.184,19.392 L141.4,19.392 L141.4,31.68 L138.184,31.68 L138.184,36 Z M166.6,7.008 C164.968,7.008 164.152,6.144 163.576,5.04 C163.144,5.232 162.712,5.52 162.472,5.904 C161.848,6.816 161.512,8.112 161.512,10.128 L161.512,14.976 L166.984,14.976 L166.984,19.392 L161.512,19.392 L161.512,31.68 L165.592,31.68 L165.592,36 L153.16,36 L153.16,31.68 L156.328,31.68 L156.328,19.392 L152.728,19.392 L152.728,14.976 L156.328,14.976 L156.328,10.896 C156.328,7.056 157,4.656 159.016,2.688 C160.504,1.248 162.424,0.48 164.776,0.48 C167.512,0.48 169.432,1.92 169.432,4.032 C169.432,5.904 168.088,7.008 166.6,7.008 Z M189.976,27.264 L174.808,27.264 C175.528,30.528 178.216,31.968 181.72,31.968 C184.264,31.968 186.904,31.152 189.352,29.76 L188.92,34.464 C186.712,35.76 184.024,36.384 180.952,36.384 C174.088,36.384 169.336,32.064 169.336,25.536 C169.336,19.584 173.512,14.592 179.992,14.592 C186.712,14.592 190.216,19.104 190.216,24.672 C190.216,25.488 190.12,26.544 189.976,27.264 Z M179.944,18.816 C177.64,18.816 175.336,20.16 174.76,23.616 L184.984,23.616 C184.888,20.736 183.016,18.816 179.944,18.816 Z M204.04,36 L204.04,31.152 L207.64,31.152 L207.64,9.264 L204.04,9.264 L204.04,4.416 L216.664,4.416 C224.392,4.416 228.184,7.968 228.184,12.72 C228.184,16.368 225.928,18.72 222.808,19.776 C226.744,20.928 229.096,23.232 229.096,27.168 C229.096,32.4 224.872,36 217.192,36 L204.04,36 Z M213.016,31.248 L217.288,31.248 C221.032,31.248 223.528,29.712 223.528,26.688 C223.528,23.76 221.224,22.128 217.144,22.128 L213.016,22.128 L213.016,31.248 Z M213.016,17.808 L216.712,17.808 C220.504,17.808 222.616,16.08 222.616,13.344 C222.616,10.656 220.408,9.168 216.568,9.168 L213.016,9.168 L213.016,17.808 Z M232.12,36 L243.736,36 L243.736,31.68 L240.616,31.68 L240.616,0.864 L232.12,0.864 L232.12,5.28 L235.384,5.28 L235.384,31.68 L232.12,31.68 L232.12,36 Z M267.304,27.264 L252.136,27.264 C252.856,30.528 255.544,31.968 259.048,31.968 C261.592,31.968 264.232,31.152 266.68,29.76 L266.248,34.464 C264.04,35.76 261.352,36.384 258.28,36.384 C251.416,36.384 246.664,32.064 246.664,25.536 C246.664,19.584 250.84,14.592 257.32,14.592 C264.04,14.592 267.544,19.104 267.544,24.672 C267.544,25.488 267.448,26.544 267.304,27.264 Z M257.272,18.816 C254.968,18.816 252.664,20.16 252.088,23.616 L262.312,23.616 C262.216,20.736 260.344,18.816 257.272,18.816 Z M278.68,14.976 L270.52,14.976 L270.52,19.392 L273.64,19.392 L273.64,31.68 L270.52,31.68 L270.52,36 L281.752,36 L281.752,31.68 L278.872,31.68 L278.872,21.792 C280.552,20.4 282.472,19.344 284.296,19.344 C285.544,19.344 286.408,19.824 286.888,20.736 C287.176,21.264 287.32,22.032 287.32,22.896 L287.32,31.68 L284.44,31.68 L284.44,36 L295.672,36 L295.672,31.68 L292.552,31.68 L292.552,21.6 C292.552,19.872 292.168,18.432 291.448,17.28 C290.344,15.6 288.52,14.592 286.024,14.592 C282.952,14.592 280.696,16.368 278.68,18.336 L278.68,14.976 Z M307.816,36.384 C302.248,36.384 298.072,31.92 298.072,25.584 C298.072,19.488 302.488,14.592 308.152,14.592 C310.84,14.592 312.808,15.6 314.008,16.608 L314.008,5.28 L310.84,5.28 L310.84,0.864 L319.24,0.864 L319.24,31.68 L322.36,31.68 L322.36,36 L314.008,36 L314.008,33.696 C312.472,35.184 310.504,36.384 307.816,36.384 Z M309.016,31.872 C310.984,31.872 312.568,31.008 314.008,29.76 L314.008,20.736 C312.616,19.776 310.984,19.104 309.016,19.104 C306.088,19.104 303.448,21.36 303.448,25.536 C303.448,29.568 305.944,31.872 309.016,31.872 Z M345.64,27.264 L330.472,27.264 C331.192,30.528 333.88,31.968 337.384,31.968 C339.928,31.968 342.568,31.152 345.016,29.76 L344.584,34.464 C342.376,35.76 339.688,36.384 336.616,36.384 C329.752,36.384 325,32.064 325,25.536 C325,19.584 329.176,14.592 335.656,14.592 C342.376,14.592 345.88,19.104 345.88,24.672 C345.88,25.488 345.784,26.544 345.64,27.264 Z M335.608,18.816 C333.304,18.816 331,20.16 330.424,23.616 L340.648,23.616 C340.552,20.736 338.68,18.816 335.608,18.816 Z M363.688,14.592 C361,14.592 358.792,16.896 357.016,19.728 L357.016,14.976 L348.856,14.976 L348.856,19.392 L351.976,19.392 L351.976,31.68 L348.856,31.68 L348.856,36 L360.856,36 L360.856,31.68 L357.208,31.68 L357.208,23.424 C358.168,21.6 359.896,19.968 361.384,19.44 C361.816,20.4 362.872,21.312 364.456,21.312 C366.184,21.312 367.576,19.824 367.576,18.048 C367.576,16.176 366.28,14.592 363.688,14.592 Z"/>
    <path fill="#FFB8AC" d="M15.656,67.008 L10.184,67.008 C9.896,67.776 9.584,68.52 9.272,69.24 L15.08,69.24 L15.656,67.008 Z M8.216,71.256 C7.712,72.12 7.16,72.96 6.584,73.728 L17.168,73.728 L17.72,71.256 L8.216,71.256 Z M19.4,73.728 L21.584,73.728 C21.536,78.384 21.224,81.168 20.648,82.08 C20.024,82.992 18.992,83.472 17.504,83.472 C16.832,83.472 16.04,83.424 15.128,83.376 L14.552,81.216 C15.512,81.288 16.328,81.336 16.976,81.384 C17.96,81.336 18.584,81.024 18.824,80.424 C19.064,79.848 19.232,78.288 19.28,75.768 L4.808,75.768 C3.704,76.872 2.48,77.856 1.136,78.72 L0.008,76.704 C3.56,74.352 6.152,71.112 7.808,67.008 L1.64,67.008 L1.64,64.992 L5.288,64.992 C4.808,64.224 4.256,63.432 3.584,62.592 L5.384,61.464 C6.248,62.472 6.896,63.384 7.376,64.176 L6.224,64.992 L8.528,64.992 C8.888,63.816 9.176,62.592 9.416,61.32 L11.648,61.608 C11.408,62.808 11.144,63.936 10.832,64.992 L18.176,64.992 L17.288,69.24 L20.192,69.24 L19.4,73.728 Z M4.424,77.16 L6.512,77.616 C5.888,79.608 5,81.336 3.872,82.776 L1.88,81.528 C3.056,80.16 3.896,78.696 4.424,77.16 Z M9.392,77.52 C9.896,78.576 10.232,79.992 10.4,81.816 L8.216,82.08 C8.096,80.208 7.832,78.768 7.448,77.76 L9.392,77.52 Z M12.728,77.04 C13.424,78.384 13.952,79.608 14.336,80.712 L12.272,81.456 C11.912,80.112 11.48,78.816 10.952,77.544 L12.728,77.04 Z M16.376,76.392 C16.952,77.376 17.504,78.528 17.984,79.848 L15.896,80.376 C15.536,79.2 15.08,78.072 14.552,76.968 L16.376,76.392 Z M36.544,67.896 L34.672,67.896 L34.672,65.712 L40.648,65.712 C40.24,64.392 39.784,63.168 39.256,62.04 L41.704,61.656 C42.16,62.856 42.592,64.2 43.024,65.712 L48.16,65.712 L48.16,67.896 L38.8,67.896 L38.8,79.272 C38.8,80.016 39.16,80.4 39.928,80.4 L47.392,80.4 L47.392,82.632 L39.256,82.632 C37.432,82.632 36.544,81.696 36.544,79.872 L36.544,67.896 Z M26.728,66.384 C26.656,68.496 26.392,70.512 25.96,72.432 L27.952,72.96 C28.36,70.92 28.6,68.784 28.648,66.528 L26.728,66.384 Z M33.232,65.328 C33.784,66.912 34.288,68.736 34.72,70.8 L32.776,71.256 C32.44,69.408 32.032,67.608 31.528,65.88 L33.232,65.328 Z M29.2,61.32 L29.2,83.448 L31.48,83.448 L31.48,61.32 L29.2,61.32 Z M61.608,68.352 L64.008,61.224 L66.048,61.536 L65.688,62.64 L72,62.64 L70.2,69.696 L73.584,69.696 L73.584,71.76 L68.424,71.76 L68.424,80.88 C68.424,82.392 67.704,83.16 66.264,83.16 L64.416,83.16 L63.888,80.976 C64.416,81.072 64.944,81.12 65.472,81.12 C65.976,81.12 66.24,80.832 66.24,80.304 L66.24,71.76 L61.056,71.76 L61.056,69.696 L67.992,69.696 L68.352,68.352 L61.608,68.352 Z M68.88,66.432 L69.384,64.656 L65.04,64.656 L64.488,66.432 L68.88,66.432 Z M65.04,76.656 L65.568,78.528 C64.488,79.536 63.144,80.448 61.56,81.264 L60.696,79.224 C62.376,78.528 63.84,77.664 65.04,76.656 Z M62.16,72.72 C63.264,73.272 64.296,73.968 65.256,74.808 L64.176,76.44 C63.168,75.528 62.112,74.832 61.056,74.328 L62.16,72.72 Z M72.144,72.456 L73.44,74.088 C72.696,74.88 71.688,75.648 70.392,76.416 L69.216,74.856 C70.392,74.136 71.376,73.32 72.144,72.456 Z M54.936,64.656 L52.368,64.656 L52.368,62.448 L60.72,62.448 L60.72,64.656 L57.144,64.656 C56.832,66.384 56.4,67.992 55.872,69.528 L60.048,69.528 L60.048,82.464 L57.96,82.464 L57.96,81.288 L56.04,81.288 L56.04,82.704 L53.904,82.704 L53.904,73.728 C53.568,74.256 53.256,74.784 52.92,75.264 L51.72,73.32 C53.304,70.752 54.384,67.872 54.936,64.656 Z M56.04,79.2 L57.96,79.2 L57.96,71.64 L56.04,71.64 L56.04,79.2 Z M70.296,76.824 C71.784,77.736 73.08,78.768 74.184,79.92 L72.744,81.6 C71.784,80.4 70.56,79.32 69.048,78.312 L70.296,76.824 Z M86.912,65.28 L86.912,81.984 L84.728,81.984 L84.728,80.736 L80.936,80.736 L80.936,82.68 L78.752,82.68 L78.752,65.28 L81.032,65.28 C81.464,63.984 81.8,62.664 81.992,61.272 L84.272,61.584 C84.032,62.904 83.672,64.128 83.216,65.28 L86.912,65.28 Z M80.936,78.624 L84.728,78.624 L84.728,73.896 L80.936,73.896 L80.936,78.624 Z M80.936,71.856 L84.728,71.856 L84.728,67.44 L80.936,67.44 L80.936,71.856 Z M91.232,71.04 C92.816,73.008 94.04,74.712 94.88,76.2 L93.08,77.472 C92.168,75.888 90.92,74.136 89.384,72.192 L91.232,71.04 Z M99.296,65.304 C99.296,73.584 99.176,78.696 98.936,80.616 C98.696,82.344 97.544,83.208 95.504,83.208 C95.024,83.208 94.16,83.16 92.96,83.088 L92.408,81 C93.464,81.048 94.376,81.096 95.144,81.096 C96.104,81.096 96.656,80.592 96.8,79.584 C96.944,78.384 97.016,74.352 97.064,67.512 L91.04,67.512 C90.368,68.952 89.6,70.272 88.688,71.472 L87.32,69.672 C88.904,67.368 90.008,64.56 90.584,61.248 L92.84,61.536 C92.6,62.88 92.264,64.128 91.88,65.304 L99.296,65.304 Z M106.696,70.824 C106,71.688 105.256,72.504 104.488,73.32 L103.744,70.896 C106.24,68.112 108.088,64.872 109.264,61.176 L111.4,62.184 C110.776,64.056 109.984,65.856 108.976,67.536 L108.976,83.472 L106.696,83.472 L106.696,70.824 Z M122.848,70.872 C124,73.68 125.008,76.68 125.848,79.872 L123.856,80.784 C122.944,77.304 121.936,74.232 120.832,71.544 L122.848,70.872 Z M114.376,66.264 C113.656,68.04 112.816,69.648 111.856,71.136 L109.888,69.912 C111.688,67.248 112.96,64.392 113.704,61.32 L115.84,61.776 C115.624,62.568 115.408,63.336 115.168,64.056 L125.248,64.056 L125.248,65.544 C124.864,66.984 124.408,68.424 123.832,69.864 L121.648,69.24 C122.128,68.376 122.56,67.368 122.896,66.264 L114.376,66.264 Z M117.136,83.304 L114.064,83.304 L113.56,81.144 C114.544,81.24 115.48,81.312 116.368,81.312 C116.944,81.312 117.232,81 117.232,80.376 L117.232,68.016 L119.44,68.016 L119.44,80.952 C119.44,82.512 118.672,83.304 117.136,83.304 Z M113.32,71.112 L115.36,71.688 C114.52,75 113.44,77.88 112.096,80.376 L109.96,79.608 C111.232,77.376 112.36,74.544 113.32,71.112 Z M156.176,61.44 L158.36,61.44 L158.36,63.624 L161.576,63.624 L161.576,65.76 L158.36,65.76 L158.36,67.296 C158.36,67.56 158.504,67.704 158.792,67.704 L161.48,67.704 L161.48,69.672 L158.12,69.672 C156.824,69.672 156.176,69.048 156.176,67.848 L156.176,65.76 L154.448,65.76 L154.448,69.552 L147.464,69.552 L147.464,65.76 L145.52,65.76 C145.328,66.768 144.992,67.584 144.488,68.256 C143.816,69.12 142.712,69.792 141.176,70.272 L140.024,68.448 C141.32,68.064 142.232,67.56 142.712,66.984 C142.952,66.624 143.144,66.216 143.288,65.76 L140.408,65.76 L140.408,63.624 L143.48,63.624 L143.48,61.488 L145.664,61.488 L145.664,63.624 L147.464,63.624 L147.464,61.368 L149.6,61.368 L149.6,63.624 L152.312,63.624 L152.312,61.368 L154.448,61.368 L154.448,63.624 L156.176,63.624 L156.176,61.44 Z M149.6,65.76 L149.6,67.584 L152.312,67.584 L152.312,65.76 L149.6,65.76 Z M161.384,70.752 L140.648,70.752 L140.648,75.816 L142.808,75.816 L142.808,72.84 L149.864,72.84 L149.864,74.64 L143.624,74.64 L143.624,81.96 L145.808,81.96 L145.808,76.776 L149.864,76.776 L149.864,83.64 L152.168,83.64 L152.168,76.776 L156.224,76.776 L156.224,79.032 C156.224,79.56 156.008,79.824 155.576,79.824 L153.416,79.704 L153.992,81.864 L156.32,81.864 C157.712,81.864 158.408,81.072 158.408,79.512 L158.408,74.64 L152.168,74.64 L152.168,72.84 L159.224,72.84 L159.224,75.672 L161.384,75.672 L161.384,70.752 Z M170.704,71.952 C169.984,73.056 169.144,73.992 168.208,74.784 L166.792,73.056 C168.76,71.448 170.08,69.288 170.752,66.552 L172.864,66.912 C172.552,68.112 172.168,69.192 171.712,70.176 C172.816,70.752 173.8,71.424 174.712,72.144 L173.512,74.04 C172.6,73.224 171.664,72.528 170.704,71.952 Z M182.824,71.784 C182.248,72.648 181.576,73.416 180.808,74.088 L179.416,72.312 C181.024,70.872 182.104,68.976 182.68,66.6 L184.816,66.96 C184.552,68.064 184.216,69.072 183.808,69.984 C185.056,70.68 186.208,71.472 187.264,72.36 L185.968,74.304 C184.936,73.296 183.88,72.456 182.824,71.784 Z M175.84,72.456 L175.84,65.928 L167.224,65.928 L167.224,63.744 L175.84,63.744 L175.84,61.392 L178.144,61.392 L178.144,63.744 L186.784,63.744 L186.784,65.928 L178.144,65.928 L178.144,72.336 C180.592,75.672 183.904,78.312 188.056,80.232 L186.808,82.368 C183.472,80.688 180.592,78.456 178.144,75.624 L178.144,83.4 L175.84,83.4 L175.84,75.672 C173.584,78.384 170.728,80.64 167.224,82.464 L166.024,80.4 C170.248,78.336 173.512,75.696 175.84,72.456 Z M196.992,67.752 L202.272,67.752 L202.272,72.72 L195.408,72.72 L195.408,74.928 L202.272,74.928 L202.272,80.4 L192.504,80.4 L192.504,82.656 L213.792,82.656 L213.792,80.4 L204.552,80.4 L204.552,74.928 L211.776,74.928 L211.776,72.72 L204.552,72.72 L204.552,67.752 L212.256,67.752 L212.256,65.544 L204.552,65.544 L204.552,61.512 L202.272,61.512 L202.272,65.544 L197.808,65.544 C198.096,64.584 198.36,63.552 198.6,62.448 L196.272,62.04 C195.504,65.904 194.04,68.976 191.88,71.256 L193.368,73.152 C194.832,71.712 196.032,69.912 196.992,67.752 Z M224.288,68.136 L230.936,68.136 L230.936,64.896 C229.208,65.04 227.384,65.136 225.44,65.136 L224.72,63.096 C229.928,63.096 234.296,62.52 237.848,61.368 L238.976,63.288 C237.32,63.864 235.424,64.32 233.264,64.632 L233.264,68.136 L239.96,68.136 L239.96,70.32 L233.264,70.32 L233.264,73.44 L238.544,73.44 L238.544,83.448 L236.288,83.448 L236.288,82.296 L228.104,82.296 L228.104,83.472 L225.824,83.472 L225.824,73.44 L230.936,73.44 L230.936,70.32 L224.288,70.32 L224.288,68.136 Z M228.104,80.16 L236.288,80.16 L236.288,75.576 L228.104,75.576 L228.104,80.16 Z M220.232,61.56 C221.816,62.592 223.184,63.648 224.312,64.704 L222.752,66.24 C221.792,65.256 220.424,64.176 218.672,63.024 L220.232,61.56 Z M219.68,67.272 L218.072,68.832 C219.848,70.104 221.24,71.28 222.224,72.384 L223.808,70.8 C222.704,69.624 221.312,68.448 219.68,67.272 Z M222.008,73.728 C221.024,76.608 219.848,79.416 218.48,82.176 L220.76,83.184 C221.96,80.496 223.088,77.616 224.096,74.544 L222.008,73.728 Z M252.904,65.28 L252.904,81.984 L250.72,81.984 L250.72,80.736 L246.928,80.736 L246.928,82.68 L244.744,82.68 L244.744,65.28 L247.024,65.28 C247.456,63.984 247.792,62.664 247.984,61.272 L250.264,61.584 C250.024,62.904 249.664,64.128 249.208,65.28 L252.904,65.28 Z M246.928,78.624 L250.72,78.624 L250.72,73.896 L246.928,73.896 L246.928,78.624 Z M246.928,71.856 L250.72,71.856 L250.72,67.44 L246.928,67.44 L246.928,71.856 Z M257.224,71.04 C258.808,73.008 260.032,74.712 260.872,76.2 L259.072,77.472 C258.16,75.888 256.912,74.136 255.376,72.192 L257.224,71.04 Z M265.288,65.304 C265.288,73.584 265.168,78.696 264.928,80.616 C264.688,82.344 263.536,83.208 261.496,83.208 C261.016,83.208 260.152,83.16 258.952,83.088 L258.4,81 C259.456,81.048 260.368,81.096 261.136,81.096 C262.096,81.096 262.648,80.592 262.792,79.584 C262.936,78.384 263.008,74.352 263.056,67.512 L257.032,67.512 C256.36,68.952 255.592,70.272 254.68,71.472 L253.312,69.672 C254.896,67.368 256,64.56 256.576,61.248 L258.832,61.536 C258.592,62.88 258.256,64.128 257.872,65.304 L265.288,65.304 Z M271.224,63.576 L271.224,65.64 L279.864,65.64 L279.864,67.488 L272.568,67.488 L272.568,69.408 L279.864,69.408 L279.864,71.28 L270.432,71.28 L270.432,73.392 L291.552,73.392 L291.552,71.28 L282.12,71.28 L282.12,69.408 L289.488,69.408 L289.488,67.488 L282.12,67.488 L282.12,65.64 L290.76,65.64 L290.76,63.576 L285.744,63.576 C286.128,62.904 286.416,62.208 286.608,61.488 L284.232,61.176 C284.04,61.992 283.752,62.808 283.416,63.576 L278.664,63.576 C278.352,62.712 278.04,61.944 277.704,61.248 L275.328,61.632 C275.712,62.232 276.048,62.88 276.336,63.576 L271.224,63.576 Z M280.128,73.872 L282.36,74.112 C282.288,74.592 282.192,75.024 282.096,75.456 L291.024,75.456 L291.024,77.568 L281.328,77.568 C280.776,78.624 280.056,79.56 279.168,80.328 C277.584,81.72 274.8,82.824 270.792,83.64 L269.856,81.432 C273.312,80.832 275.784,79.968 277.32,78.816 C277.8,78.432 278.208,78.024 278.568,77.568 L270.984,77.568 L270.984,75.456 L279.744,75.456 C279.912,74.928 280.032,74.4 280.128,73.872 Z M283.224,78.12 C286.488,79.104 289.44,80.28 292.128,81.672 L290.832,83.664 C287.952,82.08 285.024,80.808 282.024,79.896 L283.224,78.12 Z M299.84,61.104 L302.072,61.296 C301.808,62.88 301.544,64.344 301.28,65.712 L305.288,65.712 L305.288,66.96 C305.12,70.704 304.376,73.968 303.08,76.752 C304.424,77.784 305.504,78.72 306.32,79.536 L304.76,81.336 C303.992,80.544 303.056,79.68 302,78.768 C300.824,80.64 299.36,82.272 297.608,83.616 L296.048,81.696 C297.752,80.472 299.144,79.008 300.224,77.304 C299.12,76.416 297.92,75.504 296.624,74.544 C297.344,72.48 297.968,70.272 298.544,67.896 L296.24,67.896 L296.24,65.712 L299.024,65.712 C299.312,64.224 299.6,62.688 299.84,61.104 Z M301.256,75.384 C302.264,73.176 302.864,70.68 303.056,67.896 L300.824,67.896 C300.272,70.248 299.696,72.24 299.12,73.848 C299.888,74.376 300.608,74.904 301.256,75.384 Z M305.864,71.208 L311.072,71.208 L311.072,68.448 C312.272,67.368 313.448,66.072 314.552,64.584 L306.536,64.584 L306.536,62.376 L317.168,62.376 L317.168,64.584 C316.04,66.192 314.768,67.704 313.352,69.144 L313.352,71.208 L318.032,71.208 L318.032,73.416 L313.352,73.416 L313.352,80.544 C313.352,82.32 312.656,83.208 311.312,83.208 L307.76,83.208 L307.16,81.048 C308.144,81.048 309.224,81.072 310.376,81.072 C310.832,81.072 311.072,80.664 311.072,79.848 L311.072,73.416 L305.864,73.416 L305.864,71.208 Z M326.656,75.216 L326.656,76.008 L332.584,76.008 L332.584,75.216 L326.656,75.216 Z M326.656,77.208 L326.656,78.072 L332.584,78.072 L332.584,77.208 L326.656,77.208 Z M334.72,78.072 L343.336,78.072 C343.336,80.712 343.096,82.248 342.616,82.704 C342.136,83.136 341.2,83.352 339.856,83.352 C339.568,83.352 339.256,83.328 338.92,83.304 L338.752,82.68 L337,83.136 C336.712,82.128 336.352,81.168 335.944,80.256 L337.768,79.68 C338.056,80.208 338.344,80.808 338.584,81.432 C338.92,81.48 339.232,81.504 339.52,81.504 C340.336,81.504 340.792,81.36 340.912,81.096 C341.032,80.856 341.104,80.328 341.104,79.536 L324.448,79.536 L324.448,71.76 L342.736,71.76 L342.736,73.224 L334.72,73.224 L334.72,73.992 L341.488,73.992 L341.488,75.216 L334.72,75.216 L334.72,76.008 L341.56,76.008 L341.56,77.208 L334.72,77.208 L334.72,78.072 Z M332.584,73.224 L326.656,73.224 L326.656,73.992 L332.584,73.992 L332.584,73.224 Z M323.752,79.656 L325.792,80.184 C325.408,81.456 324.928,82.584 324.328,83.544 L322.096,82.752 C322.72,81.936 323.272,80.904 323.752,79.656 Z M322.504,61.992 L325.744,61.992 L325.744,61.224 L327.76,61.224 L327.76,64.56 L325.744,64.56 L325.744,63.744 L322.504,63.744 L322.504,61.992 Z M329.368,61.2 L331.384,61.2 L331.384,61.992 L334.312,61.992 L334.312,63.696 L331.384,63.696 L331.384,64.584 L329.368,64.584 L329.368,61.2 Z M324.376,68.352 C323.992,68.784 323.608,69.168 323.224,69.504 L321.952,67.92 C323.056,67.032 323.824,65.832 324.232,64.32 L326.152,64.656 C326.104,64.8 326.08,64.92 326.056,65.04 L333.496,65.04 L333.496,65.976 C334.744,64.776 335.608,63.192 336.04,61.224 L338.152,61.608 C338.056,61.992 337.936,62.376 337.816,62.76 L343.48,62.76 L343.48,64.608 L342.16,64.608 C341.824,66.024 341.248,67.224 340.432,68.184 C341.488,68.808 342.688,69.312 344.032,69.744 L342.496,71.52 C341.104,70.992 339.904,70.368 338.872,69.648 C337.672,70.488 336.232,71.088 334.504,71.472 L333.616,69.552 C335.032,69.264 336.232,68.856 337.216,68.28 C336.64,67.704 336.136,67.128 335.752,66.528 C335.392,66.96 335.032,67.32 334.648,67.656 L333.496,66.192 C333.424,68.496 333.208,69.912 332.872,70.464 C332.44,71.088 331.696,71.4 330.64,71.448 L329.608,71.448 L329.416,70.8 L324.376,70.8 L324.376,68.352 Z M329.752,69.576 L330.136,69.576 C330.616,69.552 330.904,69.36 331.048,69.024 C331.168,68.688 331.24,67.896 331.264,66.672 L325.432,66.672 C325.312,66.912 325.192,67.128 325.096,67.32 L329.752,67.32 L329.752,69.576 Z M328.024,69.576 L328.024,68.52 L326.08,68.52 L326.08,69.576 L328.024,69.576 Z M337.048,64.608 C336.712,65.232 336.352,65.784 335.968,66.288 L337.288,65.616 C337.72,66.144 338.2,66.6 338.752,67.032 C339.376,66.336 339.808,65.52 340.072,64.608 L337.048,64.608 Z M329.272,79.896 C329.704,80.856 330.064,81.912 330.4,83.016 L328.12,83.544 C327.856,82.344 327.544,81.288 327.184,80.352 L329.272,79.896 Z M333.736,79.848 C334.168,80.808 334.576,81.84 334.912,82.944 L332.752,83.448 C332.488,82.248 332.176,81.168 331.792,80.232 L333.736,79.848 Z M349.896,65.64 L349.896,67.44 L368.088,67.44 L368.088,65.64 L360.096,65.64 L360.096,64.512 L368.808,64.512 L368.808,62.664 L360.096,62.664 L360.096,61.296 L357.888,61.296 L357.888,62.664 L349.2,62.664 L349.2,64.512 L357.888,64.512 L357.888,65.64 L349.896,65.64 Z M353.568,73.032 L351.312,73.032 L351.312,68.424 L366.672,68.424 L366.672,73.032 L364.728,73.032 L363.96,74.4 L369.768,74.4 L369.768,76.272 L348.216,76.272 L348.216,74.4 L354.168,74.4 L353.568,73.032 Z M362.304,73.032 L355.968,73.032 L356.568,74.4 L361.536,74.4 L362.304,73.032 Z M364.488,71.376 L364.488,70.056 L353.472,70.056 L353.472,71.376 L364.488,71.376 Z M367.032,77.352 L367.032,83.496 L364.848,83.496 L364.848,82.608 L353.16,82.608 L353.16,83.496 L350.952,83.496 L350.952,77.352 L367.032,77.352 Z M353.16,80.76 L364.848,80.76 L364.848,79.2 L353.16,79.2 L353.16,80.76 Z"/>
  </g>
</svg>
