<svg xmlns="http://www.w3.org/2000/svg" width="363" height="46" viewBox="0 0 363 46">
  <g fill="none" fill-rule="evenodd" transform="translate(-4026 -257)">
    <path fill="#A5B6F3" d="M4146.28,297.712 C4152.76,297.712 4157.416,294.304 4157.416,288.304 C4157.416,282.448 4153.144,280.48 4147.48,278.464 C4144.312,277.312 4141.672,276.16 4141.672,273.568 C4141.672,271.264 4143.496,269.68 4146.616,269.68 C4148.584,269.68 4149.928,270.112 4150.792,270.64 C4150.6,271.024 4150.456,271.36 4150.456,272.128 C4150.456,273.712 4151.704,275.344 4153.912,275.344 C4155.736,275.344 4157.128,274.048 4157.128,271.792 C4157.128,268 4152.568,264.976 4146.664,264.976 C4140.28,264.976 4136.2,268.912 4136.2,273.952 C4136.2,279.808 4140.328,281.68 4146.184,283.792 C4149.352,284.896 4151.992,286.144 4151.992,288.736 C4151.992,291.472 4149.784,293.008 4146.328,293.008 C4144.264,293.008 4142.488,292.48 4141.336,291.664 C4141.624,291.088 4141.768,290.512 4141.768,289.744 C4141.768,288.208 4140.424,286.624 4138.312,286.624 C4136.344,286.624 4135,288.112 4135,290.368 C4135,294.208 4140.04,297.712 4146.28,297.712 Z M4174.312,297.52 C4171.624,297.52 4169.704,296.56 4167.928,295.12 L4166.776,297.232 L4163.224,297.232 L4163.224,266.416 L4160.056,266.416 L4160.056,262 L4168.456,262 L4168.456,278.416 C4169.992,276.928 4171.96,275.728 4174.648,275.728 C4180.216,275.728 4184.392,280.192 4184.392,286.528 C4184.392,292.624 4179.976,297.52 4174.312,297.52 Z M4173.448,293.008 C4176.376,293.008 4179.016,290.752 4179.016,286.576 C4179.016,282.544 4176.52,280.24 4173.448,280.24 C4171.48,280.24 4169.896,281.104 4168.456,282.352 L4168.456,291.376 C4169.848,292.336 4171.48,293.008 4173.448,293.008 Z M4198.84,297.52 C4191.88,297.52 4187.656,292.48 4187.656,286.624 C4187.656,280.864 4191.976,275.728 4198.84,275.728 C4205.8,275.728 4210.024,280.768 4210.024,286.624 C4210.024,292.384 4205.704,297.52 4198.84,297.52 Z M4198.84,293.152 C4202.248,293.152 4204.648,290.464 4204.648,286.624 C4204.648,282.784 4202.248,280.096 4198.84,280.096 C4195.432,280.096 4193.032,282.784 4193.032,286.624 C4193.032,290.464 4195.432,293.152 4198.84,293.152 Z M4224.472,297.52 C4217.512,297.52 4213.288,292.48 4213.288,286.624 C4213.288,280.864 4217.608,275.728 4224.472,275.728 C4231.432,275.728 4235.656,280.768 4235.656,286.624 C4235.656,292.384 4231.336,297.52 4224.472,297.52 Z M4224.472,293.152 C4227.88,293.152 4230.28,290.464 4230.28,286.624 C4230.28,282.784 4227.88,280.096 4224.472,280.096 C4221.064,280.096 4218.664,282.784 4218.664,286.624 C4218.664,290.464 4221.064,293.152 4224.472,293.152 Z M4246.936,276.112 L4238.776,276.112 L4238.776,280.528 L4241.896,280.528 L4241.896,292.816 L4238.776,292.816 L4238.776,297.136 L4250.008,297.136 L4250.008,292.816 L4247.128,292.816 L4247.128,282.928 C4248.808,281.536 4250.728,280.48 4252.552,280.48 C4253.8,280.48 4254.664,280.96 4255.144,281.872 C4255.432,282.4 4255.576,283.168 4255.576,284.032 L4255.576,292.816 L4252.696,292.816 L4252.696,297.136 L4263.928,297.136 L4263.928,292.816 L4260.808,292.816 L4260.808,282.736 C4260.808,281.008 4260.424,279.568 4259.704,278.416 C4258.6,276.736 4256.776,275.728 4254.28,275.728 C4251.208,275.728 4248.952,277.504 4246.936,279.472 L4246.936,276.112 Z M4277.032,297.136 L4277.032,292.288 L4280.632,292.288 L4280.632,270.4 L4277.032,270.4 L4277.032,265.552 L4289.752,265.552 C4296.52,265.552 4301.704,269.44 4301.704,275.872 C4301.704,283.12 4296.568,286.672 4289.128,286.672 C4287.64,286.672 4286.728,286.672 4286.056,286.624 L4286.056,292.288 L4289.992,292.288 L4289.992,297.136 L4277.032,297.136 Z M4289.608,281.92 C4293.688,281.92 4296.088,279.616 4296.088,275.872 C4296.088,272.56 4293.352,270.4 4289.464,270.4 L4286.056,270.4 L4286.056,281.824 C4286.632,281.872 4287.4,281.92 4289.608,281.92 Z M4304.392,297.136 L4316.008,297.136 L4316.008,292.816 L4312.888,292.816 L4312.888,262 L4304.392,262 L4304.392,266.416 L4307.656,266.416 L4307.656,292.816 L4304.392,292.816 L4304.392,297.136 Z M4325.8,297.52 C4322.2,297.52 4318.984,295.552 4318.984,291.616 C4318.984,287.68 4322.44,285.28 4327.432,285.28 C4329.592,285.28 4331.608,285.568 4332.76,285.856 L4332.76,284.176 C4332.76,282.928 4332.472,281.968 4331.944,281.296 C4331.08,280.192 4329.688,279.76 4327.816,279.76 C4326.904,279.76 4326.232,279.904 4325.752,280.096 C4325.848,280.384 4325.944,280.864 4325.944,281.152 C4325.944,282.736 4324.696,283.888 4323.112,283.888 C4321.528,283.888 4320.328,282.784 4320.328,281.056 C4320.328,278.464 4322.968,275.728 4328.68,275.728 C4332.28,275.728 4334.728,276.736 4336.216,278.56 C4337.32,279.904 4337.848,281.728 4337.848,283.84 L4337.848,292.816 L4340.968,292.816 L4340.968,297.136 L4332.856,297.136 L4332.856,294.832 C4331.176,296.272 4328.632,297.52 4325.8,297.52 Z M4327.48,293.728 C4329.352,293.728 4331.176,293.008 4332.76,291.856 L4332.76,288.544 C4331.56,288.256 4330.072,288.064 4328.44,288.064 C4325.896,288.064 4324.36,289.216 4324.36,291.136 C4324.36,292.816 4325.608,293.728 4327.48,293.728 Z M4351.384,276.112 L4343.224,276.112 L4343.224,280.528 L4346.344,280.528 L4346.344,292.816 L4343.224,292.816 L4343.224,297.136 L4354.456,297.136 L4354.456,292.816 L4351.576,292.816 L4351.576,282.928 C4353.256,281.536 4355.176,280.48 4357,280.48 C4358.248,280.48 4359.112,280.96 4359.592,281.872 C4359.88,282.4 4360.024,283.168 4360.024,284.032 L4360.024,292.816 L4357.144,292.816 L4357.144,297.136 L4368.376,297.136 L4368.376,292.816 L4365.256,292.816 L4365.256,282.736 C4365.256,281.008 4364.872,279.568 4364.152,278.416 C4363.048,276.736 4361.224,275.728 4358.728,275.728 C4355.656,275.728 4353.4,277.504 4351.384,279.472 L4351.384,276.112 Z M4388.632,280.768 C4388.632,279.76 4388.248,278.848 4387.48,278.08 C4386.04,276.64 4382.968,275.68 4380.424,275.68 C4374.52,275.68 4371.832,279.088 4371.832,282.352 C4371.832,285.952 4374.28,287.344 4380.088,288.88 C4383.304,289.744 4384.216,290.368 4384.216,291.424 C4384.216,292.96 4382.488,293.68 4380.376,293.68 C4378.888,293.68 4377.544,293.392 4376.584,293.008 C4376.632,292.72 4376.68,292.432 4376.68,292.144 C4376.68,290.32 4375.288,289.36 4373.848,289.36 C4372.216,289.36 4371.064,290.656 4371.064,292.192 C4371.064,293.296 4371.4,294.16 4372.264,295.024 C4373.656,296.416 4377.112,297.568 4380.328,297.568 C4385.08,297.568 4389.208,295.216 4389.208,290.8 C4389.208,287.008 4386.28,285.76 4381.24,284.416 C4378.024,283.552 4376.824,282.928 4376.824,281.728 C4376.824,280.624 4377.976,279.568 4380.328,279.568 C4381.384,279.568 4382.44,279.76 4383.304,280.096 C4383.208,280.384 4383.208,280.672 4383.208,281.008 C4383.208,282.592 4384.36,283.6 4386.04,283.6 C4387.576,283.6 4388.632,282.448 4388.632,280.768 Z"/>
  </g>
</svg>
