<svg xmlns="http://www.w3.org/2000/svg" width="363" height="46" viewBox="0 0 363 46">
  <path fill="#A5B6F3" fill-rule="evenodd" d="M5016.28,1389.712 C5022.76,1389.712 5027.416,1386.304 5027.416,1380.304 C5027.416,1374.448 5023.144,1372.48 5017.48,1370.464 C5014.312,1369.312 5011.672,1368.16 5011.672,1365.568 C5011.672,1363.264 5013.496,1361.68 5016.616,1361.68 C5018.584,1361.68 5019.928,1362.112 5020.792,1362.64 C5020.6,1363.024 5020.456,1363.36 5020.456,1364.128 C5020.456,1365.712 5021.704,1367.344 5023.912,1367.344 C5025.736,1367.344 5027.128,1366.048 5027.128,1363.792 C5027.128,1360 5022.568,1356.976 5016.664,1356.976 C5010.28,1356.976 5006.2,1360.912 5006.2,1365.952 C5006.2,1371.808 5010.328,1373.68 5016.184,1375.792 C5019.352,1376.896 5021.992,1378.144 5021.992,1380.736 C5021.992,1383.472 5019.784,1385.008 5016.328,1385.008 C5014.264,1385.008 5012.488,1384.48 5011.336,1383.664 C5011.624,1383.088 5011.768,1382.512 5011.768,1381.744 C5011.768,1380.208 5010.424,1378.624 5008.312,1378.624 C5006.344,1378.624 5005,1380.112 5005,1382.368 C5005,1386.208 5010.04,1389.712 5016.28,1389.712 Z M5040.136,1389.52 C5043.208,1389.52 5045.464,1387.744 5047.48,1385.776 L5047.48,1389.136 L5055.64,1389.136 L5055.64,1384.816 L5052.52,1384.816 L5052.52,1368.112 L5044.024,1368.112 L5044.024,1372.528 L5047.288,1372.528 L5047.288,1382.32 C5045.608,1383.712 5043.688,1384.768 5041.864,1384.768 C5040.616,1384.768 5039.752,1384.288 5039.272,1383.376 C5038.984,1382.8 5038.84,1382.128 5038.84,1381.216 L5038.84,1368.112 L5030.488,1368.112 L5030.488,1372.528 L5033.608,1372.528 L5033.608,1382.512 C5033.608,1384.192 5033.992,1385.632 5034.664,1386.736 C5035.72,1388.464 5037.592,1389.52 5040.136,1389.52 Z M5058.136,1398.544 L5058.136,1394.224 L5061.256,1394.224 L5061.256,1372.528 L5058.136,1372.528 L5058.136,1368.112 L5066.296,1368.112 L5066.296,1370.512 C5067.928,1368.976 5069.704,1367.728 5072.536,1367.728 C5078.008,1367.728 5082.136,1372.192 5082.136,1378.528 C5082.136,1384.624 5077.768,1389.52 5072.2,1389.52 C5069.944,1389.52 5068.072,1388.704 5066.488,1387.504 L5066.488,1394.224 L5069.896,1394.224 L5069.896,1398.544 L5058.136,1398.544 Z M5071.384,1385.008 C5074.168,1385.008 5076.76,1382.752 5076.76,1378.576 C5076.76,1374.544 5074.36,1372.24 5071.384,1372.24 C5069.416,1372.24 5067.88,1373.104 5066.488,1374.352 L5066.488,1383.376 C5067.832,1384.336 5069.464,1385.008 5071.384,1385.008 Z M5106.04,1380.4 L5090.872,1380.4 C5091.592,1383.664 5094.28,1385.104 5097.784,1385.104 C5100.328,1385.104 5102.968,1384.288 5105.416,1382.896 L5104.984,1387.6 C5102.776,1388.896 5100.088,1389.52 5097.016,1389.52 C5090.152,1389.52 5085.4,1385.2 5085.4,1378.672 C5085.4,1372.72 5089.576,1367.728 5096.056,1367.728 C5102.776,1367.728 5106.28,1372.24 5106.28,1377.808 C5106.28,1378.624 5106.184,1379.68 5106.04,1380.4 Z M5096.008,1371.952 C5093.704,1371.952 5091.4,1373.296 5090.824,1376.752 L5101.048,1376.752 C5100.952,1373.872 5099.08,1371.952 5096.008,1371.952 Z M5124.088,1367.728 C5121.4,1367.728 5119.192,1370.032 5117.416,1372.864 L5117.416,1368.112 L5109.256,1368.112 L5109.256,1372.528 L5112.376,1372.528 L5112.376,1384.816 L5109.256,1384.816 L5109.256,1389.136 L5121.256,1389.136 L5121.256,1384.816 L5117.608,1384.816 L5117.608,1376.56 C5118.568,1374.736 5120.296,1373.104 5121.784,1372.576 C5122.216,1373.536 5123.272,1374.448 5124.856,1374.448 C5126.584,1374.448 5127.976,1372.96 5127.976,1371.184 C5127.976,1369.312 5126.68,1367.728 5124.088,1367.728 Z M5140.984,1389.136 L5154.184,1389.136 L5154.184,1384.288 L5150.008,1384.288 L5150.008,1376.032 L5159.32,1376.032 L5159.32,1371.376 L5150.008,1371.376 L5150.008,1362.352 L5159.08,1362.352 L5159.08,1366.576 L5164.264,1366.576 L5164.264,1357.552 L5140.984,1357.552 L5140.984,1362.4 L5144.584,1362.4 L5144.584,1384.288 L5140.984,1384.288 L5140.984,1389.136 Z M5178.856,1389.52 C5171.896,1389.52 5167.672,1384.48 5167.672,1378.624 C5167.672,1372.864 5171.992,1367.728 5178.856,1367.728 C5185.816,1367.728 5190.04,1372.768 5190.04,1378.624 C5190.04,1384.384 5185.72,1389.52 5178.856,1389.52 Z M5178.856,1385.152 C5182.264,1385.152 5184.664,1382.464 5184.664,1378.624 C5184.664,1374.784 5182.264,1372.096 5178.856,1372.096 C5175.448,1372.096 5173.048,1374.784 5173.048,1378.624 C5173.048,1382.464 5175.448,1385.152 5178.856,1385.152 Z M5204.488,1389.52 C5197.528,1389.52 5193.304,1384.48 5193.304,1378.624 C5193.304,1372.864 5197.624,1367.728 5204.488,1367.728 C5211.448,1367.728 5215.672,1372.768 5215.672,1378.624 C5215.672,1384.384 5211.352,1389.52 5204.488,1389.52 Z M5204.488,1385.152 C5207.896,1385.152 5210.296,1382.464 5210.296,1378.624 C5210.296,1374.784 5207.896,1372.096 5204.488,1372.096 C5201.08,1372.096 5198.68,1374.784 5198.68,1378.624 C5198.68,1382.464 5201.08,1385.152 5204.488,1385.152 Z M5228.68,1389.52 C5223.112,1389.52 5218.936,1385.056 5218.936,1378.72 C5218.936,1372.624 5223.352,1367.728 5229.016,1367.728 C5231.704,1367.728 5233.672,1368.736 5234.872,1369.744 L5234.872,1358.416 L5231.704,1358.416 L5231.704,1354 L5240.104,1354 L5240.104,1384.816 L5243.224,1384.816 L5243.224,1389.136 L5234.872,1389.136 L5234.872,1386.832 C5233.336,1388.32 5231.368,1389.52 5228.68,1389.52 Z M5229.88,1385.008 C5231.848,1385.008 5233.432,1384.144 5234.872,1382.896 L5234.872,1373.872 C5233.48,1372.912 5231.848,1372.24 5229.88,1372.24 C5226.952,1372.24 5224.312,1374.496 5224.312,1378.672 C5224.312,1382.704 5226.808,1385.008 5229.88,1385.008 Z" transform="translate(-4880 -1353)"/>
</svg>
