<svg xmlns="http://www.w3.org/2000/svg" width="363" height="46" viewBox="0 0 363 46">
  <path fill="#A5B6F3" fill-rule="evenodd" d="M4978,1910.136 L4978,1905.288 L4980.736,1905.288 L4988.608,1883.352 L4985.152,1883.352 L4985.152,1878.552 L5003.008,1878.552 L5003.008,1883.352 L4999.552,1883.352 L5007.424,1905.288 L5010.16,1905.288 L5010.16,1910.136 L4998.016,1910.136 L4998.016,1905.336 L5001.664,1905.336 L4999.888,1900.152 L4988.08,1900.152 L4986.304,1905.336 L4990.144,1905.336 L4990.144,1910.136 L4978,1910.136 Z M4989.568,1895.64 L4998.4,1895.64 L4993.984,1883.208 L4989.568,1895.64 Z M5025.376,1910.52 C5022.688,1910.52 5020.768,1909.56 5018.992,1908.12 L5017.84,1910.232 L5014.288,1910.232 L5014.288,1879.416 L5011.12,1879.416 L5011.12,1875 L5019.52,1875 L5019.52,1891.416 C5021.056,1889.928 5023.024,1888.728 5025.712,1888.728 C5031.28,1888.728 5035.456,1893.192 5035.456,1899.528 C5035.456,1905.624 5031.04,1910.52 5025.376,1910.52 Z M5024.512,1906.008 C5027.44,1906.008 5030.08,1903.752 5030.08,1899.576 C5030.08,1895.544 5027.584,1893.24 5024.512,1893.24 C5022.544,1893.24 5020.96,1894.104 5019.52,1895.352 L5019.52,1904.376 C5020.912,1905.336 5022.544,1906.008 5024.512,1906.008 Z M5049.904,1910.52 C5042.944,1910.52 5038.72,1905.48 5038.72,1899.624 C5038.72,1893.864 5043.04,1888.728 5049.904,1888.728 C5056.864,1888.728 5061.088,1893.768 5061.088,1899.624 C5061.088,1905.384 5056.768,1910.52 5049.904,1910.52 Z M5049.904,1906.152 C5053.312,1906.152 5055.712,1903.464 5055.712,1899.624 C5055.712,1895.784 5053.312,1893.096 5049.904,1893.096 C5046.496,1893.096 5044.096,1895.784 5044.096,1899.624 C5044.096,1903.464 5046.496,1906.152 5049.904,1906.152 Z M5073.136,1910.52 C5076.208,1910.52 5078.464,1908.744 5080.48,1906.776 L5080.48,1910.136 L5088.64,1910.136 L5088.64,1905.816 L5085.52,1905.816 L5085.52,1889.112 L5077.024,1889.112 L5077.024,1893.528 L5080.288,1893.528 L5080.288,1903.32 C5078.608,1904.712 5076.688,1905.768 5074.864,1905.768 C5073.616,1905.768 5072.752,1905.288 5072.272,1904.376 C5071.984,1903.8 5071.84,1903.128 5071.84,1902.216 L5071.84,1889.112 L5063.488,1889.112 L5063.488,1893.528 L5066.608,1893.528 L5066.608,1903.512 C5066.608,1905.192 5066.992,1906.632 5067.664,1907.736 C5068.72,1909.464 5070.592,1910.52 5073.136,1910.52 Z M5100.784,1910.52 C5102.704,1910.52 5104.384,1909.992 5105.824,1909.272 L5106.256,1904.76 C5105.008,1905.336 5103.472,1905.864 5102.128,1905.864 C5101.072,1905.864 5100.304,1905.528 5099.92,1904.856 C5099.68,1904.424 5099.584,1903.992 5099.584,1903.32 L5099.584,1893.528 L5105.968,1893.528 L5105.968,1889.112 L5099.584,1889.112 L5099.584,1882.44 L5094.4,1884.696 L5094.4,1889.112 L5090.32,1889.112 L5090.32,1893.528 L5094.4,1893.528 L5094.4,1904.328 C5094.4,1905.672 5094.64,1906.776 5095.12,1907.64 C5096.176,1909.656 5098.24,1910.52 5100.784,1910.52 Z M5131.36,1910.712 C5137.84,1910.712 5142.496,1907.304 5142.496,1901.304 C5142.496,1895.448 5138.224,1893.48 5132.56,1891.464 C5129.392,1890.312 5126.752,1889.16 5126.752,1886.568 C5126.752,1884.264 5128.576,1882.68 5131.696,1882.68 C5133.664,1882.68 5135.008,1883.112 5135.872,1883.64 C5135.68,1884.024 5135.536,1884.36 5135.536,1885.128 C5135.536,1886.712 5136.784,1888.344 5138.992,1888.344 C5140.816,1888.344 5142.208,1887.048 5142.208,1884.792 C5142.208,1881 5137.648,1877.976 5131.744,1877.976 C5125.36,1877.976 5121.28,1881.912 5121.28,1886.952 C5121.28,1892.808 5125.408,1894.68 5131.264,1896.792 C5134.432,1897.896 5137.072,1899.144 5137.072,1901.736 C5137.072,1904.472 5134.864,1906.008 5131.408,1906.008 C5129.344,1906.008 5127.568,1905.48 5126.416,1904.664 C5126.704,1904.088 5126.848,1903.512 5126.848,1902.744 C5126.848,1901.208 5125.504,1899.624 5123.392,1899.624 C5121.424,1899.624 5120.08,1901.112 5120.08,1903.368 C5120.08,1907.208 5125.12,1910.712 5131.36,1910.712 Z M5159.392,1910.52 C5156.704,1910.52 5154.784,1909.56 5153.008,1908.12 L5151.856,1910.232 L5148.304,1910.232 L5148.304,1879.416 L5145.136,1879.416 L5145.136,1875 L5153.536,1875 L5153.536,1891.416 C5155.072,1889.928 5157.04,1888.728 5159.728,1888.728 C5165.296,1888.728 5169.472,1893.192 5169.472,1899.528 C5169.472,1905.624 5165.056,1910.52 5159.392,1910.52 Z M5158.528,1906.008 C5161.456,1906.008 5164.096,1903.752 5164.096,1899.576 C5164.096,1895.544 5161.6,1893.24 5158.528,1893.24 C5156.56,1893.24 5154.976,1894.104 5153.536,1895.352 L5153.536,1904.376 C5154.928,1905.336 5156.56,1906.008 5158.528,1906.008 Z M5183.92,1910.52 C5176.96,1910.52 5172.736,1905.48 5172.736,1899.624 C5172.736,1893.864 5177.056,1888.728 5183.92,1888.728 C5190.88,1888.728 5195.104,1893.768 5195.104,1899.624 C5195.104,1905.384 5190.784,1910.52 5183.92,1910.52 Z M5183.92,1906.152 C5187.328,1906.152 5189.728,1903.464 5189.728,1899.624 C5189.728,1895.784 5187.328,1893.096 5183.92,1893.096 C5180.512,1893.096 5178.112,1895.784 5178.112,1899.624 C5178.112,1903.464 5180.512,1906.152 5183.92,1906.152 Z M5209.552,1910.52 C5202.592,1910.52 5198.368,1905.48 5198.368,1899.624 C5198.368,1893.864 5202.688,1888.728 5209.552,1888.728 C5216.512,1888.728 5220.736,1893.768 5220.736,1899.624 C5220.736,1905.384 5216.416,1910.52 5209.552,1910.52 Z M5209.552,1906.152 C5212.96,1906.152 5215.36,1903.464 5215.36,1899.624 C5215.36,1895.784 5212.96,1893.096 5209.552,1893.096 C5206.144,1893.096 5203.744,1895.784 5203.744,1899.624 C5203.744,1903.464 5206.144,1906.152 5209.552,1906.152 Z M5232.016,1889.112 L5223.856,1889.112 L5223.856,1893.528 L5226.976,1893.528 L5226.976,1905.816 L5223.856,1905.816 L5223.856,1910.136 L5235.088,1910.136 L5235.088,1905.816 L5232.208,1905.816 L5232.208,1895.928 C5233.888,1894.536 5235.808,1893.48 5237.632,1893.48 C5238.88,1893.48 5239.744,1893.96 5240.224,1894.872 C5240.512,1895.4 5240.656,1896.168 5240.656,1897.032 L5240.656,1905.816 L5237.776,1905.816 L5237.776,1910.136 L5249.008,1910.136 L5249.008,1905.816 L5245.888,1905.816 L5245.888,1895.736 C5245.888,1894.008 5245.504,1892.568 5244.784,1891.416 C5243.68,1889.736 5241.856,1888.728 5239.36,1888.728 C5236.288,1888.728 5234.032,1890.504 5232.016,1892.472 L5232.016,1889.112 Z" transform="translate(-4886 -1870)"/>
</svg>
