<svg xmlns="http://www.w3.org/2000/svg" width="363" height="46" viewBox="0 0 363 46">
  <path fill="#A5B6F3" fill-rule="evenodd" d="M5054,1607.584 L5054,1602.736 L5057.6,1602.736 L5057.6,1580.848 L5054,1580.848 L5054,1576 L5066.72,1576 C5073.488,1576 5078.672,1579.888 5078.672,1586.32 C5078.672,1593.568 5073.536,1597.12 5066.096,1597.12 C5064.608,1597.12 5063.696,1597.12 5063.024,1597.072 L5063.024,1602.736 L5066.96,1602.736 L5066.96,1607.584 L5054,1607.584 Z M5066.576,1592.368 C5070.656,1592.368 5073.056,1590.064 5073.056,1586.32 C5073.056,1583.008 5070.32,1580.848 5066.432,1580.848 L5063.024,1580.848 L5063.024,1592.272 C5063.6,1592.32 5064.368,1592.368 5066.576,1592.368 Z M5096.432,1586.176 C5093.744,1586.176 5091.536,1588.48 5089.76,1591.312 L5089.76,1586.56 L5081.6,1586.56 L5081.6,1590.976 L5084.72,1590.976 L5084.72,1603.264 L5081.6,1603.264 L5081.6,1607.584 L5093.6,1607.584 L5093.6,1603.264 L5089.952,1603.264 L5089.952,1595.008 C5090.912,1593.184 5092.64,1591.552 5094.128,1591.024 C5094.56,1591.984 5095.616,1592.896 5097.2,1592.896 C5098.928,1592.896 5100.32,1591.408 5100.32,1589.632 C5100.32,1587.76 5099.024,1586.176 5096.432,1586.176 Z M5107.808,1583.344 C5109.68,1583.344 5111.36,1581.808 5111.36,1579.888 C5111.36,1577.968 5109.776,1576.432 5107.904,1576.432 C5106.032,1576.432 5104.352,1577.968 5104.352,1579.888 C5104.352,1581.808 5105.936,1583.344 5107.808,1583.344 Z M5102.528,1607.584 L5114.096,1607.584 L5114.096,1603.264 L5110.976,1603.264 L5110.976,1586.56 L5102.528,1586.56 L5102.528,1590.976 L5105.744,1590.976 L5105.744,1603.264 L5102.528,1603.264 L5102.528,1607.584 Z M5126.672,1607.968 L5130.416,1607.968 L5138.768,1590.976 L5141.216,1590.976 L5141.216,1586.56 L5130.512,1586.56 L5130.512,1590.736 L5133.68,1590.736 L5128.64,1601.68 L5123.6,1590.736 L5126.624,1590.736 L5126.624,1586.56 L5115.872,1586.56 L5115.872,1590.976 L5118.32,1590.976 L5126.672,1607.968 Z M5149.952,1607.968 C5146.352,1607.968 5143.136,1606 5143.136,1602.064 C5143.136,1598.128 5146.592,1595.728 5151.584,1595.728 C5153.744,1595.728 5155.76,1596.016 5156.912,1596.304 L5156.912,1594.624 C5156.912,1593.376 5156.624,1592.416 5156.096,1591.744 C5155.232,1590.64 5153.84,1590.208 5151.968,1590.208 C5151.056,1590.208 5150.384,1590.352 5149.904,1590.544 C5150,1590.832 5150.096,1591.312 5150.096,1591.6 C5150.096,1593.184 5148.848,1594.336 5147.264,1594.336 C5145.68,1594.336 5144.48,1593.232 5144.48,1591.504 C5144.48,1588.912 5147.12,1586.176 5152.832,1586.176 C5156.432,1586.176 5158.88,1587.184 5160.368,1589.008 C5161.472,1590.352 5162,1592.176 5162,1594.288 L5162,1603.264 L5165.12,1603.264 L5165.12,1607.584 L5157.008,1607.584 L5157.008,1605.28 C5155.328,1606.72 5152.784,1607.968 5149.952,1607.968 Z M5151.632,1604.176 C5153.504,1604.176 5155.328,1603.456 5156.912,1602.304 L5156.912,1598.992 C5155.712,1598.704 5154.224,1598.512 5152.592,1598.512 C5150.048,1598.512 5148.512,1599.664 5148.512,1601.584 C5148.512,1603.264 5149.76,1604.176 5151.632,1604.176 Z M5179.136,1607.968 C5182.208,1607.968 5184.368,1607.344 5186.624,1606.048 L5187.056,1601.344 C5184.32,1602.832 5182.112,1603.552 5179.568,1603.552 C5175.824,1603.552 5172.752,1601.008 5172.752,1596.976 C5172.752,1592.368 5175.728,1590.4 5178.128,1590.4 C5180.192,1590.4 5181.488,1591.312 5181.872,1591.84 C5181.488,1592.272 5181.2,1592.992 5181.2,1593.616 C5181.2,1595.344 5182.64,1596.784 5184.368,1596.784 C5186.24,1596.784 5187.728,1595.44 5187.728,1593.232 C5187.728,1589.92 5183.936,1586.176 5178.176,1586.176 C5171.936,1586.176 5167.52,1591.408 5167.52,1596.88 C5167.52,1603.648 5172.512,1607.968 5179.136,1607.968 Z M5201.12,1614.4 C5201.744,1613.68 5202.272,1612.816 5202.752,1611.856 L5212.592,1590.976 L5215.136,1590.976 L5215.136,1586.56 L5204.336,1586.56 L5204.336,1590.736 L5207.6,1590.736 L5202.704,1601.824 L5197.856,1590.736 L5200.928,1590.736 L5200.928,1586.56 L5190.08,1586.56 L5190.08,1590.976 L5192.672,1590.976 L5200.16,1606.528 L5198.576,1609.84 C5198.24,1610.512 5197.952,1611.04 5197.616,1611.472 C5197.04,1612.24 5196.464,1612.576 5195.936,1612.72 C5195.6,1611.904 5194.88,1611.136 5193.632,1611.136 C5192.24,1611.136 5191.04,1612.048 5191.04,1613.824 C5191.04,1615.504 5192.768,1617.136 5195.552,1617.136 C5197.664,1617.136 5199.584,1616.176 5201.12,1614.4 Z" transform="translate(-4852 -1574)"/>
</svg>
