<svg xmlns="http://www.w3.org/2000/svg" width="460" height="84" viewBox="0 0 460 84">
  <g fill="none" fill-rule="evenodd" transform="translate(224)">
    <path fill="#A5B6F3" d="M7.36,36 L20.656,36 L20.656,31.152 L16.72,31.152 L16.72,9.12 L22.576,9.12 L22.576,14.112 L27.712,14.112 L27.712,4.416 L0.304,4.416 L0.304,14.112 L5.44,14.112 L5.44,9.12 L11.296,9.12 L11.296,31.152 L7.36,31.152 L7.36,36 Z M33.184,5.28 L33.184,31.68 L30.064,31.68 L30.064,36 L41.296,36 L41.296,31.68 L38.416,31.68 L38.416,21.792 C40.096,20.4 42.016,19.344 43.84,19.344 C44.848,19.344 45.664,19.68 46.192,20.352 C46.624,20.928 46.864,21.744 46.864,22.896 L46.864,31.68 L43.984,31.68 L43.984,36 L55.216,36 L55.216,31.68 L52.096,31.68 L52.096,21.6 C52.096,19.68 51.616,18.048 50.704,16.848 C49.6,15.408 47.824,14.592 45.568,14.592 C42.592,14.592 40.384,16.272 38.416,18.144 L38.416,0.864 L30.064,0.864 L30.064,5.28 L33.184,5.28 Z M78.256,27.264 L63.088,27.264 C63.808,30.528 66.496,31.968 70,31.968 C72.544,31.968 75.184,31.152 77.632,29.76 L77.2,34.464 C74.992,35.76 72.304,36.384 69.232,36.384 C62.368,36.384 57.616,32.064 57.616,25.536 C57.616,19.584 61.792,14.592 68.272,14.592 C74.992,14.592 78.496,19.104 78.496,24.672 C78.496,25.488 78.4,26.544 78.256,27.264 Z M68.224,18.816 C65.92,18.816 63.616,20.16 63.04,23.616 L73.264,23.616 C73.168,20.736 71.296,18.816 68.224,18.816 Z M92.32,36 L92.32,31.152 L95.92,31.152 L95.92,9.264 L92.32,9.264 L92.32,4.416 L104.56,4.416 C111.808,4.416 116.992,7.536 116.992,13.968 C116.992,18.048 114.496,21.168 111.04,22.56 L115.888,31.152 L119.488,31.152 L119.488,36 L112.192,36 L105.856,24 C105.184,24.048 104.56,24.096 103.936,24.096 C102.928,24.096 102.016,24.096 101.344,24.048 L101.344,31.152 L105.28,31.152 L105.28,36 L92.32,36 Z M104.416,19.488 C108.496,19.488 111.376,17.472 111.376,14.16 C111.376,10.848 108.64,9.264 104.272,9.264 L101.344,9.264 L101.344,19.392 C101.92,19.44 102.688,19.488 104.416,19.488 Z M142.576,27.264 L127.408,27.264 C128.128,30.528 130.816,31.968 134.32,31.968 C136.864,31.968 139.504,31.152 141.952,29.76 L141.52,34.464 C139.312,35.76 136.624,36.384 133.552,36.384 C126.688,36.384 121.936,32.064 121.936,25.536 C121.936,19.584 126.112,14.592 132.592,14.592 C139.312,14.592 142.816,19.104 142.816,24.672 C142.816,25.488 142.72,26.544 142.576,27.264 Z M132.544,18.816 C130.24,18.816 127.936,20.16 127.36,23.616 L137.584,23.616 C137.488,20.736 135.616,18.816 132.544,18.816 Z M163.792,19.632 C163.792,18.624 163.408,17.712 162.64,16.944 C161.2,15.504 158.128,14.544 155.584,14.544 C149.68,14.544 146.992,17.952 146.992,21.216 C146.992,24.816 149.44,26.208 155.248,27.744 C158.464,28.608 159.376,29.232 159.376,30.288 C159.376,31.824 157.648,32.544 155.536,32.544 C154.048,32.544 152.704,32.256 151.744,31.872 C151.792,31.584 151.84,31.296 151.84,31.008 C151.84,29.184 150.448,28.224 149.008,28.224 C147.376,28.224 146.224,29.52 146.224,31.056 C146.224,32.16 146.56,33.024 147.424,33.888 C148.816,35.28 152.272,36.432 155.488,36.432 C160.24,36.432 164.368,34.08 164.368,29.664 C164.368,25.872 161.44,24.624 156.4,23.28 C153.184,22.416 151.984,21.792 151.984,20.592 C151.984,19.488 153.136,18.432 155.488,18.432 C156.544,18.432 157.6,18.624 158.464,18.96 C158.368,19.248 158.368,19.536 158.368,19.872 C158.368,21.456 159.52,22.464 161.2,22.464 C162.736,22.464 163.792,21.312 163.792,19.632 Z M188.56,27.264 L173.392,27.264 C174.112,30.528 176.8,31.968 180.304,31.968 C182.848,31.968 185.488,31.152 187.936,29.76 L187.504,34.464 C185.296,35.76 182.608,36.384 179.536,36.384 C172.672,36.384 167.92,32.064 167.92,25.536 C167.92,19.584 172.096,14.592 178.576,14.592 C185.296,14.592 188.8,19.104 188.8,24.672 C188.8,25.488 188.704,26.544 188.56,27.264 Z M178.528,18.816 C176.224,18.816 173.92,20.16 173.344,23.616 L183.568,23.616 C183.472,20.736 181.6,18.816 178.528,18.816 Z M201.184,36.384 C203.104,36.384 204.784,35.856 206.224,35.136 L206.656,30.624 C205.408,31.2 203.872,31.728 202.528,31.728 C201.472,31.728 200.704,31.392 200.32,30.72 C200.08,30.288 199.984,29.856 199.984,29.184 L199.984,19.392 L206.368,19.392 L206.368,14.976 L199.984,14.976 L199.984,8.304 L194.8,10.56 L194.8,14.976 L190.72,14.976 L190.72,19.392 L194.8,19.392 L194.8,30.192 C194.8,31.536 195.04,32.64 195.52,33.504 C196.576,35.52 198.64,36.384 201.184,36.384 Z"/>
    <path fill="#FFB8AC" d="M8.888,68.88 L8.888,70.608 L18.44,70.608 L18.44,68.88 L8.888,68.88 Z M18.44,66.984 L18.44,65.184 L8.888,65.184 L8.888,66.984 L18.44,66.984 Z M8.888,72.528 L8.888,74.928 C12.68,74.76 15.872,74.52 18.44,74.232 L18.44,72.528 L8.888,72.528 Z M6.632,75 L6.632,63.168 L11.48,63.168 C11.744,62.496 11.96,61.824 12.104,61.104 L14.504,61.416 C14.336,62.04 14.12,62.64 13.88,63.168 L20.696,63.168 L20.696,73.296 C21.704,72.072 22.472,70.824 22.976,69.528 L24.92,70.752 C23.768,72.888 22.352,74.736 20.696,76.272 L20.696,81.24 C20.696,82.752 19.976,83.52 18.536,83.52 L15.968,83.52 L15.392,81.336 L17.792,81.456 C18.224,81.456 18.44,81.216 18.44,80.76 L18.44,78.12 L17.216,78.912 C13.88,80.88 9.824,82.296 5.048,83.112 L4.016,81.048 C10.208,79.944 14.696,78.384 17.432,76.32 C14.216,76.656 9.728,76.968 3.992,77.232 L3.656,75.096 L6.632,75 Z M43.168,82.68 L37.84,82.68 C35.968,82.68 35.032,81.744 35.032,79.92 L35.032,66.336 L37.312,66.336 L37.312,79.44 C37.312,80.112 37.72,80.448 38.536,80.448 L42.736,80.448 C43.216,80.448 43.552,80.208 43.768,79.752 C44.008,79.224 44.2,77.64 44.296,74.952 L46.456,75.672 C46.264,79.08 45.904,81.096 45.376,81.768 C44.896,82.368 44.152,82.68 43.168,82.68 Z M31.408,68.712 C30.88,72.36 30.04,75.792 28.84,79.008 L30.808,80.232 C32.008,77.136 32.944,73.44 33.592,69.168 L31.408,68.712 Z M47.536,68.064 C48.928,71.28 50.176,74.688 51.232,78.336 L49.144,79.272 C47.992,75.336 46.72,71.832 45.328,68.808 L47.536,68.064 Z M38.992,61.272 C41.104,63.696 42.736,65.808 43.888,67.632 L41.968,68.928 C40.768,66.96 39.16,64.8 37.12,62.448 L38.992,61.272 Z M56.568,61.8 L75.408,61.8 L75.408,63.528 L67.08,63.528 L67.08,64.416 L76.296,64.416 L76.296,68.664 L74.184,68.664 L74.184,66.048 L67.08,66.048 L67.08,70.176 L64.92,70.176 L64.92,66.048 L57.816,66.048 L57.816,68.664 L55.704,68.664 L55.704,64.416 L64.92,64.416 L64.92,63.528 L56.568,63.528 L56.568,61.8 Z M68.664,68.664 C70.32,68.76 71.904,68.904 73.44,69.072 L72.912,70.392 C71.352,70.104 69.744,69.912 68.112,69.792 L68.664,68.664 Z M59.352,66.528 C60.936,66.624 62.448,66.792 63.888,67.008 L63.408,68.232 C61.92,67.992 60.36,67.824 58.728,67.728 L59.352,66.528 Z M63.432,68.64 L63.864,69.816 C62.88,70.008 61.224,70.152 58.92,70.248 L58.536,68.928 C60.792,68.88 62.424,68.784 63.432,68.64 Z M68.424,68.28 L68.184,67.032 C69.864,66.936 71.352,66.768 72.648,66.504 L73.152,67.8 C71.808,67.992 70.248,68.16 68.424,68.28 Z M63.12,70.872 L68.928,70.872 L68.928,74.928 L63.12,74.928 L63.12,70.872 Z M67.176,73.608 L67.176,72.192 L64.896,72.192 L64.896,73.608 L67.176,73.608 Z M56.352,70.872 L62.16,70.872 L62.16,74.928 L56.352,74.928 L56.352,70.872 Z M60.408,73.608 L60.408,72.192 L58.152,72.192 L58.152,73.608 L60.408,73.608 Z M69.912,70.872 L75.696,70.872 L75.696,74.928 L69.912,74.928 L69.912,70.872 Z M73.896,73.608 L73.896,72.192 L71.664,72.192 L71.664,73.608 L73.896,73.608 Z M56.472,75.792 L75.552,75.792 L75.552,77.52 L72.96,77.52 L72.672,78.384 C73.584,78.864 74.52,79.392 75.48,80.016 L74.592,81.312 L76.656,81.312 L76.656,83.112 L55.344,83.112 L55.344,81.312 L57.984,81.312 L56.712,80.184 C58.056,79.368 58.944,78.48 59.4,77.52 L56.472,77.52 L56.472,75.792 Z M71.856,79.704 C71.4,80.28 70.848,80.832 70.224,81.312 L74.16,81.312 C73.248,80.616 72.48,80.088 71.856,79.704 Z M69.696,81.312 L68.52,80.256 C69.768,79.416 70.608,78.504 71.04,77.52 L67.08,77.52 L67.08,81.312 L69.696,81.312 Z M61.344,77.52 C61.248,77.808 61.152,78.072 61.032,78.36 C61.896,78.768 62.76,79.248 63.648,79.776 L62.616,81.288 C61.608,80.568 60.792,80.016 60.168,79.68 C59.664,80.256 59.04,80.784 58.296,81.312 L64.968,81.312 L64.968,77.52 L61.344,77.52 Z M89.912,65.28 L89.912,81.984 L87.728,81.984 L87.728,80.736 L83.936,80.736 L83.936,82.68 L81.752,82.68 L81.752,65.28 L84.032,65.28 C84.464,63.984 84.8,62.664 84.992,61.272 L87.272,61.584 C87.032,62.904 86.672,64.128 86.216,65.28 L89.912,65.28 Z M83.936,78.624 L87.728,78.624 L87.728,73.896 L83.936,73.896 L83.936,78.624 Z M83.936,71.856 L87.728,71.856 L87.728,67.44 L83.936,67.44 L83.936,71.856 Z M94.232,71.04 C95.816,73.008 97.04,74.712 97.88,76.2 L96.08,77.472 C95.168,75.888 93.92,74.136 92.384,72.192 L94.232,71.04 Z M102.296,65.304 C102.296,73.584 102.176,78.696 101.936,80.616 C101.696,82.344 100.544,83.208 98.504,83.208 C98.024,83.208 97.16,83.16 95.96,83.088 L95.408,81 C96.464,81.048 97.376,81.096 98.144,81.096 C99.104,81.096 99.656,80.592 99.8,79.584 C99.944,78.384 100.016,74.352 100.064,67.512 L94.04,67.512 C93.368,68.952 92.6,70.272 91.688,71.472 L90.32,69.672 C91.904,67.368 93.008,64.56 93.584,61.248 L95.84,61.536 C95.6,62.88 95.264,64.128 94.88,65.304 L102.296,65.304 Z M109.48,68.304 L116.824,68.304 L116.824,67.128 L107.656,67.128 L107.656,65.208 L116.824,65.208 L116.824,63.888 C114.52,64.008 112.096,64.104 109.552,64.2 L109.168,62.376 C115.408,62.184 120.928,61.848 125.752,61.368 L126.448,63.216 C124.168,63.408 121.72,63.6 119.104,63.768 L119.104,65.208 L128.32,65.208 L128.32,67.128 L119.104,67.128 L119.104,68.304 L126.472,68.304 L126.472,76.56 L119.104,76.56 L119.104,77.832 L127.48,77.832 L127.48,79.632 L119.104,79.632 L119.104,81 L128.68,81 L128.68,82.944 L107.32,82.944 L107.32,81 L116.824,81 L116.824,79.632 L108.52,79.632 L108.52,77.832 L116.824,77.832 L116.824,76.56 L109.48,76.56 L109.48,68.304 Z M124.264,74.76 L124.264,73.272 L119.104,73.272 L119.104,74.76 L124.264,74.76 Z M116.824,74.76 L116.824,73.272 L111.664,73.272 L111.664,74.76 L116.824,74.76 Z M111.664,71.544 L116.824,71.544 L116.824,70.104 L111.664,70.104 L111.664,71.544 Z M119.104,70.104 L119.104,71.544 L124.264,71.544 L124.264,70.104 L119.104,70.104 Z M137.736,70.752 L133.152,70.752 L133.152,68.664 L135.696,68.664 C135.408,67.824 135.048,67.032 134.664,66.312 L136.656,65.568 C137.04,66.432 137.376,67.464 137.712,68.664 L139.992,68.664 C140.352,67.68 140.664,66.648 140.952,65.568 L142.992,66.264 C142.704,67.152 142.368,67.944 142.032,68.664 L144.504,68.664 L144.504,70.752 L139.992,70.752 L139.992,72.888 L144.096,72.888 L144.096,74.976 L139.992,74.976 L139.992,83.544 L137.736,83.544 L137.736,74.976 L133.536,74.976 L133.536,72.888 L137.736,72.888 L137.736,70.752 Z M153.456,61.512 L154.584,63.552 C152.52,64.248 150.216,64.68 147.72,64.824 L147.72,68.736 L155.112,68.736 L155.112,70.92 L152.808,70.92 L152.808,83.496 L150.576,83.496 L150.576,70.92 L147.72,70.92 L147.72,73.296 C147.624,77.52 146.688,80.904 144.936,83.424 L143.304,81.72 C144.672,79.704 145.416,76.896 145.536,73.296 L145.536,62.976 C148.464,62.928 151.104,62.424 153.456,61.512 Z M133.392,63.216 L137.688,63.216 C137.4,62.592 137.064,61.992 136.704,61.464 L139.08,61.08 C139.368,61.704 139.656,62.424 139.944,63.216 L144.36,63.216 L144.36,65.328 L133.392,65.328 L133.392,63.216 Z M134.952,76.032 L137.016,76.464 C136.44,78.888 135.648,81 134.616,82.8 L132.744,81.6 C133.776,79.872 134.52,78 134.952,76.032 Z M142.512,75.888 C143.112,77.4 143.568,78.768 143.904,80.016 L142.008,80.736 C141.624,79.248 141.168,77.808 140.616,76.392 L142.512,75.888 Z M173.504,66.984 C173.216,68.328 172.88,69.552 172.52,70.68 L174.08,70.176 C174.32,72.096 174.8,73.848 175.544,75.432 C176.552,73.032 177.104,70.224 177.2,66.984 L173.504,66.984 Z M174.344,77.688 C173.312,75.792 172.616,73.68 172.28,71.376 C171.896,72.384 171.512,73.272 171.08,74.088 L169.64,72.312 L169.688,72.216 L162.728,72.216 C162.416,76.392 161.648,80.04 160.448,83.184 L158.816,81.48 C160.016,77.88 160.664,73.632 160.712,68.736 L160.712,62.952 C164.24,62.664 166.904,62.184 168.728,61.488 L170.192,63.144 C168.224,63.888 165.776,64.392 162.896,64.68 L162.896,66.072 L169.784,66.072 L169.784,71.976 C170.96,69.288 171.752,65.76 172.184,61.392 L174.32,61.776 C174.176,62.832 174.032,63.84 173.888,64.8 L180.512,64.8 L180.512,66.984 L179.312,66.984 C179.168,71.208 178.352,74.76 176.84,77.64 C177.944,79.224 179.384,80.592 181.136,81.72 L179.792,83.52 C178.112,82.416 176.72,81.12 175.616,79.656 C174.536,81.144 173.24,82.44 171.704,83.52 L170.456,81.576 C172.04,80.544 173.336,79.248 174.344,77.688 Z M162.896,68.088 L162.896,68.736 C162.896,69.24 162.872,69.744 162.848,70.224 L167.72,70.224 L167.72,68.088 L162.896,68.088 Z M169.904,74.016 L169.904,81.984 L164.744,81.984 L164.744,83.16 L162.704,83.16 L162.704,74.016 L169.904,74.016 Z M164.744,79.992 L167.84,79.992 L167.84,76.008 L164.744,76.008 L164.744,79.992 Z M199.384,61.392 L201.52,61.392 L201.52,65.76 L206.272,65.76 C206.272,73.824 206.152,78.792 205.936,80.664 C205.72,82.392 204.664,83.256 202.768,83.256 C202.336,83.256 201.568,83.208 200.464,83.16 L199.912,81.144 C200.872,81.216 201.736,81.264 202.456,81.264 C203.248,81.264 203.704,80.736 203.848,79.68 C203.992,78.48 204.088,74.544 204.136,67.848 L201.52,67.848 L201.52,68.736 C201.448,75.408 200.008,80.304 197.176,83.376 L195.808,82.176 C192.688,82.56 189.136,82.896 185.176,83.136 L184.888,81.12 C186.616,81.024 188.248,80.904 189.808,80.808 L189.808,79.128 L185.68,79.128 L185.68,77.256 L189.808,77.256 L189.808,75.984 L185.608,75.984 L185.608,68.328 L189.808,68.328 L189.808,67.176 L185.104,67.176 L185.104,65.304 L189.808,65.304 L189.808,64.056 C188.56,64.128 187.216,64.176 185.8,64.176 L185.2,62.376 C189.232,62.376 192.616,62.04 195.376,61.416 L196.384,63.144 C195.088,63.48 193.624,63.72 191.968,63.888 L191.968,65.304 L196.552,65.304 L196.552,67.176 L191.968,67.176 L191.968,68.328 L196.192,68.328 L196.192,75.984 L191.968,75.984 L191.968,77.256 L196.12,77.256 L196.12,79.128 L191.968,79.128 L191.968,80.616 C193.456,80.472 194.824,80.328 196.096,80.184 L196.096,81.312 C198.256,78.528 199.336,74.328 199.384,68.736 L199.384,67.848 L197.224,67.848 L197.224,65.76 L199.384,65.76 L199.384,61.392 Z M194.128,74.304 L194.128,72.912 L191.824,72.912 L191.824,74.304 L194.128,74.304 Z M189.952,74.304 L189.952,72.912 L187.672,72.912 L187.672,74.304 L189.952,74.304 Z M187.672,71.376 L189.952,71.376 L189.952,69.984 L187.672,69.984 L187.672,71.376 Z M191.824,69.984 L191.824,71.376 L194.128,71.376 L194.128,69.984 L191.824,69.984 Z M220.512,63.864 L221.064,76.152 L222.96,76.152 L223.512,63.864 L220.512,63.864 Z M222,77.568 C221.52,77.568 221.112,77.712 220.776,78.048 C220.416,78.36 220.248,78.768 220.248,79.272 C220.248,79.752 220.416,80.16 220.776,80.496 C221.112,80.832 221.52,81 222,81 C222.48,81 222.912,80.832 223.272,80.52 C223.608,80.184 223.776,79.776 223.776,79.272 C223.776,78.768 223.608,78.36 223.272,78.048 C222.936,77.712 222.504,77.568 222,77.568 Z"/>
  </g>
</svg>
