<svg xmlns="http://www.w3.org/2000/svg" width="363" height="46" viewBox="0 0 363 46">
  <path fill="#A5B6F3" fill-rule="evenodd" d="M4900.104,1755.836 L4903.128,1755.836 L4911.624,1736.396 L4920.072,1755.836 L4923.096,1755.836 L4931.592,1728.764 L4934.952,1728.764 L4934.952,1723.916 L4921.512,1723.916 L4921.512,1728.764 L4925.832,1728.764 L4921.032,1745.372 L4913.208,1726.988 L4910.328,1726.988 L4902.504,1745.372 L4897.368,1728.764 L4901.544,1728.764 L4901.544,1723.916 L4888.104,1723.916 L4888.104,1728.764 L4891.464,1728.764 L4900.104,1755.836 Z M4940.424,1724.78 L4940.424,1751.18 L4937.304,1751.18 L4937.304,1755.5 L4948.536,1755.5 L4948.536,1751.18 L4945.656,1751.18 L4945.656,1741.292 C4947.336,1739.9 4949.256,1738.844 4951.08,1738.844 C4952.088,1738.844 4952.904,1739.18 4953.432,1739.852 C4953.864,1740.428 4954.104,1741.244 4954.104,1742.396 L4954.104,1751.18 L4951.224,1751.18 L4951.224,1755.5 L4962.456,1755.5 L4962.456,1751.18 L4959.336,1751.18 L4959.336,1741.1 C4959.336,1739.18 4958.856,1737.548 4957.944,1736.348 C4956.84,1734.908 4955.064,1734.092 4952.808,1734.092 C4949.832,1734.092 4947.624,1735.772 4945.656,1737.644 L4945.656,1720.364 L4937.304,1720.364 L4937.304,1724.78 L4940.424,1724.78 Z M4971.72,1755.884 C4968.12,1755.884 4964.904,1753.916 4964.904,1749.98 C4964.904,1746.044 4968.36,1743.644 4973.352,1743.644 C4975.512,1743.644 4977.528,1743.932 4978.68,1744.22 L4978.68,1742.54 C4978.68,1741.292 4978.392,1740.332 4977.864,1739.66 C4977,1738.556 4975.608,1738.124 4973.736,1738.124 C4972.824,1738.124 4972.152,1738.268 4971.672,1738.46 C4971.768,1738.748 4971.864,1739.228 4971.864,1739.516 C4971.864,1741.1 4970.616,1742.252 4969.032,1742.252 C4967.448,1742.252 4966.248,1741.148 4966.248,1739.42 C4966.248,1736.828 4968.888,1734.092 4974.6,1734.092 C4978.2,1734.092 4980.648,1735.1 4982.136,1736.924 C4983.24,1738.268 4983.768,1740.092 4983.768,1742.204 L4983.768,1751.18 L4986.888,1751.18 L4986.888,1755.5 L4978.776,1755.5 L4978.776,1753.196 C4977.096,1754.636 4974.552,1755.884 4971.72,1755.884 Z M4973.4,1752.092 C4975.272,1752.092 4977.096,1751.372 4978.68,1750.22 L4978.68,1746.908 C4977.48,1746.62 4975.992,1746.428 4974.36,1746.428 C4971.816,1746.428 4970.28,1747.58 4970.28,1749.5 C4970.28,1751.18 4971.528,1752.092 4973.4,1752.092 Z M4998.552,1755.884 C5000.472,1755.884 5002.152,1755.356 5003.592,1754.636 L5004.024,1750.124 C5002.776,1750.7 5001.24,1751.228 4999.896,1751.228 C4998.84,1751.228 4998.072,1750.892 4997.688,1750.22 C4997.448,1749.788 4997.352,1749.356 4997.352,1748.684 L4997.352,1738.892 L5003.736,1738.892 L5003.736,1734.476 L4997.352,1734.476 L4997.352,1727.804 L4992.168,1730.06 L4992.168,1734.476 L4988.088,1734.476 L4988.088,1738.892 L4992.168,1738.892 L4992.168,1749.692 C4992.168,1751.036 4992.408,1752.14 4992.888,1753.004 C4993.944,1755.02 4996.008,1755.884 4998.552,1755.884 Z M5007.48,1738.268 C5013.48,1734.812 5015.448,1730.588 5015.448,1727.804 C5015.448,1724.828 5013.624,1723.34 5011.56,1723.34 C5009.496,1723.34 5007.864,1724.972 5007.864,1726.796 C5007.864,1728.572 5008.968,1729.868 5010.648,1730.348 C5010.552,1731.692 5009.064,1733.996 5006.04,1736.396 L5007.48,1738.268 Z M5036.568,1739.132 C5036.568,1738.124 5036.184,1737.212 5035.416,1736.444 C5033.976,1735.004 5030.904,1734.044 5028.36,1734.044 C5022.456,1734.044 5019.768,1737.452 5019.768,1740.716 C5019.768,1744.316 5022.216,1745.708 5028.024,1747.244 C5031.24,1748.108 5032.152,1748.732 5032.152,1749.788 C5032.152,1751.324 5030.424,1752.044 5028.312,1752.044 C5026.824,1752.044 5025.48,1751.756 5024.52,1751.372 C5024.568,1751.084 5024.616,1750.796 5024.616,1750.508 C5024.616,1748.684 5023.224,1747.724 5021.784,1747.724 C5020.152,1747.724 5019,1749.02 5019,1750.556 C5019,1751.66 5019.336,1752.524 5020.2,1753.388 C5021.592,1754.78 5025.048,1755.932 5028.264,1755.932 C5033.016,1755.932 5037.144,1753.58 5037.144,1749.164 C5037.144,1745.372 5034.216,1744.124 5029.176,1742.78 C5025.96,1741.916 5024.76,1741.292 5024.76,1740.092 C5024.76,1738.988 5025.912,1737.932 5028.264,1737.932 C5029.32,1737.932 5030.376,1738.124 5031.24,1738.46 C5031.144,1738.748 5031.144,1739.036 5031.144,1739.372 C5031.144,1740.956 5032.296,1741.964 5033.976,1741.964 C5035.512,1741.964 5036.568,1740.812 5036.568,1739.132 Z M5062.824,1756.076 C5069.304,1756.076 5073.96,1752.668 5073.96,1746.668 C5073.96,1740.812 5069.688,1738.844 5064.024,1736.828 C5060.856,1735.676 5058.216,1734.524 5058.216,1731.932 C5058.216,1729.628 5060.04,1728.044 5063.16,1728.044 C5065.128,1728.044 5066.472,1728.476 5067.336,1729.004 C5067.144,1729.388 5067,1729.724 5067,1730.492 C5067,1732.076 5068.248,1733.708 5070.456,1733.708 C5072.28,1733.708 5073.672,1732.412 5073.672,1730.156 C5073.672,1726.364 5069.112,1723.34 5063.208,1723.34 C5056.824,1723.34 5052.744,1727.276 5052.744,1732.316 C5052.744,1738.172 5056.872,1740.044 5062.728,1742.156 C5065.896,1743.26 5068.536,1744.508 5068.536,1747.1 C5068.536,1749.836 5066.328,1751.372 5062.872,1751.372 C5060.808,1751.372 5059.032,1750.844 5057.88,1750.028 C5058.168,1749.452 5058.312,1748.876 5058.312,1748.108 C5058.312,1746.572 5056.968,1744.988 5054.856,1744.988 C5052.888,1744.988 5051.544,1746.476 5051.544,1748.732 C5051.544,1752.572 5056.584,1756.076 5062.824,1756.076 Z M5089.08,1755.884 C5082.12,1755.884 5077.896,1750.844 5077.896,1744.988 C5077.896,1739.228 5082.216,1734.092 5089.08,1734.092 C5096.04,1734.092 5100.264,1739.132 5100.264,1744.988 C5100.264,1750.748 5095.944,1755.884 5089.08,1755.884 Z M5089.08,1751.516 C5092.488,1751.516 5094.888,1748.828 5094.888,1744.988 C5094.888,1741.148 5092.488,1738.46 5089.08,1738.46 C5085.672,1738.46 5083.272,1741.148 5083.272,1744.988 C5083.272,1748.828 5085.672,1751.516 5089.08,1751.516 Z M5112.312,1755.884 C5115.384,1755.884 5117.64,1754.108 5119.656,1752.14 L5119.656,1755.5 L5127.816,1755.5 L5127.816,1751.18 L5124.696,1751.18 L5124.696,1734.476 L5116.2,1734.476 L5116.2,1738.892 L5119.464,1738.892 L5119.464,1748.684 C5117.784,1750.076 5115.864,1751.132 5114.04,1751.132 C5112.792,1751.132 5111.928,1750.652 5111.448,1749.74 C5111.16,1749.164 5111.016,1748.492 5111.016,1747.58 L5111.016,1734.476 L5102.664,1734.476 L5102.664,1738.892 L5105.784,1738.892 L5105.784,1748.876 C5105.784,1750.556 5106.168,1751.996 5106.84,1753.1 C5107.896,1754.828 5109.768,1755.884 5112.312,1755.884 Z M5130.312,1764.908 L5130.312,1760.588 L5133.432,1760.588 L5133.432,1738.892 L5130.312,1738.892 L5130.312,1734.476 L5138.472,1734.476 L5138.472,1736.876 C5140.104,1735.34 5141.88,1734.092 5144.712,1734.092 C5150.184,1734.092 5154.312,1738.556 5154.312,1744.892 C5154.312,1750.988 5149.944,1755.884 5144.376,1755.884 C5142.12,1755.884 5140.248,1755.068 5138.664,1753.868 L5138.664,1760.588 L5142.072,1760.588 L5142.072,1764.908 L5130.312,1764.908 Z M5143.56,1751.372 C5146.344,1751.372 5148.936,1749.116 5148.936,1744.94 C5148.936,1740.908 5146.536,1738.604 5143.56,1738.604 C5141.592,1738.604 5140.056,1739.468 5138.664,1740.716 L5138.664,1749.74 C5140.008,1750.7 5141.64,1751.372 5143.56,1751.372 Z M5157.192,1764.908 L5157.192,1760.588 L5160.312,1760.588 L5160.312,1738.892 L5157.192,1738.892 L5157.192,1734.476 L5165.352,1734.476 L5165.352,1736.876 C5166.984,1735.34 5168.76,1734.092 5171.592,1734.092 C5177.064,1734.092 5181.192,1738.556 5181.192,1744.892 C5181.192,1750.988 5176.824,1755.884 5171.256,1755.884 C5169,1755.884 5167.128,1755.068 5165.544,1753.868 L5165.544,1760.588 L5168.952,1760.588 L5168.952,1764.908 L5157.192,1764.908 Z M5170.44,1751.372 C5173.224,1751.372 5175.816,1749.116 5175.816,1744.94 C5175.816,1740.908 5173.416,1738.604 5170.44,1738.604 C5168.472,1738.604 5166.936,1739.468 5165.544,1740.716 L5165.544,1749.74 C5166.888,1750.7 5168.52,1751.372 5170.44,1751.372 Z M5189.64,1731.26 C5191.512,1731.26 5193.192,1729.724 5193.192,1727.804 C5193.192,1725.884 5191.608,1724.348 5189.736,1724.348 C5187.864,1724.348 5186.184,1725.884 5186.184,1727.804 C5186.184,1729.724 5187.768,1731.26 5189.64,1731.26 Z M5184.36,1755.5 L5195.928,1755.5 L5195.928,1751.18 L5192.808,1751.18 L5192.808,1734.476 L5184.36,1734.476 L5184.36,1738.892 L5187.576,1738.892 L5187.576,1751.18 L5184.36,1751.18 L5184.36,1755.5 Z M5207.112,1734.476 L5198.952,1734.476 L5198.952,1738.892 L5202.072,1738.892 L5202.072,1751.18 L5198.952,1751.18 L5198.952,1755.5 L5210.184,1755.5 L5210.184,1751.18 L5207.304,1751.18 L5207.304,1741.292 C5208.984,1739.9 5210.904,1738.844 5212.728,1738.844 C5213.976,1738.844 5214.84,1739.324 5215.32,1740.236 C5215.608,1740.764 5215.752,1741.532 5215.752,1742.396 L5215.752,1751.18 L5212.872,1751.18 L5212.872,1755.5 L5224.104,1755.5 L5224.104,1751.18 L5220.984,1751.18 L5220.984,1741.1 C5220.984,1739.372 5220.6,1737.932 5219.88,1736.78 C5218.776,1735.1 5216.952,1734.092 5214.456,1734.092 C5211.384,1734.092 5209.128,1735.868 5207.112,1737.836 L5207.112,1734.476 Z M5247.384,1738.892 L5247.384,1755.548 C5247.384,1758.14 5246.712,1760.3 5245.416,1761.884 C5243.688,1763.996 5240.952,1765.1 5237.544,1765.1 C5233.896,1765.1 5230.776,1763.948 5229.288,1762.46 C5228.472,1761.644 5228.136,1760.732 5228.136,1759.724 C5228.136,1758.236 5229.24,1756.796 5230.968,1756.796 C5232.6,1756.796 5233.896,1757.948 5233.896,1759.532 C5233.896,1759.772 5233.848,1760.156 5233.8,1760.348 C5234.664,1760.636 5235.672,1760.876 5236.92,1760.876 C5238.792,1760.876 5240.28,1760.3 5241.192,1759.052 C5241.816,1758.188 5242.152,1756.988 5242.152,1755.404 L5242.152,1752.38 C5240.568,1753.964 5238.888,1755.068 5236.104,1755.068 C5230.776,1755.068 5226.504,1750.988 5226.504,1744.748 C5226.504,1738.748 5230.872,1734.092 5236.344,1734.092 C5239.032,1734.092 5240.952,1735.148 5242.344,1736.348 L5242.344,1734.476 L5250.504,1734.476 L5250.504,1738.892 L5247.384,1738.892 Z M5237.448,1738.604 C5234.232,1738.604 5231.88,1740.716 5231.88,1744.7 C5231.88,1748.54 5234.232,1750.652 5237.448,1750.652 C5239.224,1750.652 5240.808,1749.836 5242.152,1748.588 L5242.152,1740.236 C5240.904,1739.276 5239.32,1738.604 5237.448,1738.604 Z" transform="translate(-4888 -1720)"/>
</svg>
