<svg xmlns="http://www.w3.org/2000/svg" width="480" height="250" viewBox="0 0 480 250">
  <g fill="none" fill-rule="evenodd" transform="translate(2)">
    <polygon fill="#FFB8AC" points="419.075 19.664 475.737 19.664 475.737 16.512 419.075 16.512"/>
    <g transform="translate(0 .072)">
      <path fill="#F8F9FB" d="M397.749598,10.5099285 C403.696306,1.9780256 411.785013,-2.40273857 417.335681,2.35634293 C422.888701,7.11589497 413.371053,16.4406644 413.371053,16.4406644 L397.749598,10.5099285 Z"/>
      <path fill="#FFB8AC" d="M368.283034,16.4406644 L368.283034,19.4135611 L353.61405,19.4135611 C353.61405,19.4135611 345.283109,19.7735272 332.150777,28.3543666 C326.787781,35.6346226 319.583813,46.9356766 296.900438,46.9356766 C274.217532,46.9356766 265.021608,34.8568135 260.611552,26.7371071 L331.484283,26.7371071 C335.417868,23.6625729 345.679149,16.4406644 355.197268,16.4406644 L368.283034,16.4406644 Z"/>
      <path fill="#F8F9FB" d="M424.185519,48.7501412 C424.185519,48.7501412 425.771558,54.5030115 421.809752,57.6787126 L416.585511,61.5343497 L398.213416,34.6691135 L398.013515,28.9167137 L367.281412,13.442876 C367.281412,13.442876 361.294724,10.2516469 365.498764,4.51759834 C367.677451,1.54140787 371.73427,2.82364013 371.73427,2.82364013 L376.79906,4.51759834 L410.306732,17.2124035 C410.306732,17.2124035 416.852673,19.3952569 419.628242,29.3133823 C422.403341,39.2315076 424.185519,48.7501412 424.185519,48.7501412"/>
      <path fill="#F8F9FB" d="M368.283034,35.065735 C363.316548,34.4690853 352.323394,33.4790608 352.323394,33.4790608 C352.323394,33.4790608 349.041722,33.0828628 347.652291,34.4690853 C347.652291,34.4690853 346.592109,31.2105684 347.999414,29.5533126 C353.107007,23.5364672 362.084216,22.122012 362.084216,22.122012 C362.084216,22.122012 368.743983,21.8669772 379.500548,23.6592791 C391.682762,25.6915584 397.884872,37.5007999 404.817916,46.6811124 C407.556327,50.3028891 410.211955,54.0018351 412.793268,57.7341897 C422.01271,71.0590533 411.514841,77.4631564 411.514841,77.4631564 C411.514841,77.4631564 379.346742,110.769198 378.63086,113.333192 C378.192019,114.902927 378.116291,164.883164 378.123817,203.340721 C378.128521,227.627376 358.450248,247.318699 334.172837,247.318699 L334.172837,97.4471579 L334.172837,88.224026 C334.172837,74.1331169 344.158019,60.8087239 344.158019,60.8087239 L355.476659,72.8513552 L349.231746,88.224026 L351.076011,88.224026 L357.47473,73.10639 C357.47473,73.10639 354.917406,69.776821 345.44256,59.7848203 C335.9616,49.792349 343.903086,45.0520892 343.903086,45.0520892 C343.903086,45.0520892 348.767975,39.5453134 355.682675,46.9733202 C362.597374,54.4046207 377.195335,70.0318558 377.195335,70.0318558 L379.774295,70.0318558 L356.573999,45.0520892 C350.485714,38.4969415 344.877192,42.2048278 344.877192,42.2048278 C344.877192,42.2048278 345.645283,34.3401562 351.687473,35.0351496 L367.308928,36.8274515 C367.308928,36.8274515 370.332845,36.3173819 375.991224,42.721485 C381.651955,49.1255882 392.463552,62.142716 392.463552,62.142716 L395.239121,62.142716 L374.420706,37.8419443 C374.420706,37.8419443 373.249521,35.6590909 368.283034,35.065735"/>
      <path fill="#FFF" d="M122.15858,247.506211 C114.451801,247.506211 108.181959,241.23386 108.181959,233.523527 L108.181959,127.562676 C108.181959,122.77348 111.520074,120.998588 113.885023,120.599567 L113.885023,115.055148 L112.584959,115.055148 C110.156983,115.055148 108.181959,113.078393 108.181959,110.649445 L108.181959,104.264634 C108.181959,101.835686 110.156983,99.859872 112.584959,99.859872 L203.023548,99.859872 C205.451525,99.859872 207.427019,101.835686 207.427019,104.264634 L207.427019,110.649445 C207.427019,113.078393 205.451525,115.055148 203.023548,115.055148 L201.723485,115.055148 L201.723485,120.599567 C204.088434,120.998588 207.427019,122.77348 207.427019,127.562676 L207.427019,233.523527 C207.427019,241.23386 201.157177,247.506211 193.449928,247.506211 L122.15858,247.506211 Z"/>
      <path fill="#FFB8AC" d="M203.023501,98.918643 L112.585383,98.918643 C109.638134,98.918643 107.241201,101.317005 107.241201,104.264493 L107.241201,110.649774 C107.241201,113.597261 109.638134,115.996094 112.585383,115.996094 L112.944264,115.996094 L112.944264,119.864907 C112.375134,120.019716 111.725102,120.255458 111.070367,120.613542 C108.600999,121.966356 107.241201,124.43483 107.241201,127.562535 L107.241201,233.523386 C107.241201,241.752729 113.932952,248.447158 122.158533,248.447158 L157.600778,248.447158 L158.008106,248.447158 L193.449881,248.447158 C201.675462,248.447158 208.367683,241.752729 208.367683,233.523386 L208.367683,127.562535 C208.367683,124.43483 207.007414,121.966356 204.538047,120.613542 C203.883782,120.255458 203.23375,120.019716 202.664149,119.864907 L202.664149,115.996094 L203.023501,115.996094 C205.97028,115.996094 208.367683,113.597261 208.367683,110.649774 L208.367683,104.264493 C208.367683,101.317005 205.97028,98.918643 203.023501,98.918643 M203.023501,100.800819 C204.935968,100.800819 206.48626,102.351732 206.48626,104.264493 L206.48626,110.649774 C206.48626,112.563006 204.935968,114.113919 203.023501,114.113919 L200.782726,114.113919 L200.782726,121.449699 C200.782726,121.449699 206.48626,121.585216 206.48626,127.562535 L206.48626,233.523386 C206.48626,240.726002 200.649616,246.564982 193.449881,246.564982 L158.008106,246.564982 L157.600778,246.564982 L122.158533,246.564982 C114.959268,246.564982 109.122624,240.726002 109.122624,233.523386 L109.122624,127.562535 C109.122624,121.585216 114.825687,121.449699 114.825687,121.449699 L114.825687,114.113919 L112.585383,114.113919 C110.672916,114.113919 109.122624,112.563006 109.122624,110.649774 L109.122624,104.264493 C109.122624,102.351732 110.672916,100.800819 112.585383,100.800819 L203.023501,100.800819"/>
      <polygon fill="#FFF" points="109.123 229.584 206.486 229.584 206.486 138.566 109.123 138.566"/>
      <polygon fill="#B4B5B5" points="113.991 225.033 201.618 225.033 201.618 143.117 113.991 143.117"/>
      <path fill="#FFB8AC" d="M113.990758,143.251788 C137.330751,143.251788 156.25128,161.559241 156.25128,184.142528 C156.25128,206.726285 137.330751,225.033267 113.990758,225.033267 L113.990758,143.251788 Z"/>
      <path fill="#A5B6F3" d="M113.990758,225.033173 C113.990758,201.589262 133.632343,182.583992 157.861778,182.583992 C182.091683,182.583992 201.733268,201.589262 201.733268,225.033173 L113.990758,225.033173 Z"/>
      <path fill="#FFF" d="M138.760679 218.764916C138.469999 219.11453 138.069726 219.33051 137.627122 219.33051 137.300695 219.33051 137.011896 219.21758 136.80447 219.006305 136.597043 218.794561 136.470517 218.484472 136.470047 218.088274 136.470047 217.553736 136.650193 217.07237 136.940402 216.725108 137.231082 216.378317 137.631355 216.16469 138.07396 216.16469 138.400857 216.165161 138.689655 216.278091 138.897082 216.487954 139.104509 216.698287 139.231035 217.006023 139.231035 217.396574 139.231035 217.931112 139.051359 218.414832 138.760679 218.764916M138.116292 215.352532C137.363252 215.352532 136.710869 215.683794 136.247568 216.191511 135.784268 216.698758 135.50958 217.382458 135.50958 218.088274 135.50911 218.633634 135.696311 219.144645 136.049549 219.519669 136.403256 219.894222 136.922529 220.132317 137.58479 220.132317 138.3383 220.132317 138.990213 219.801054 139.453513 219.294749 139.916813 218.788443 140.191501 218.107566 140.191972 217.407397 140.191972 216.85639 140.00477 216.343027 139.651533 215.966591 139.298296 215.590627 138.779023 215.352061 138.116292 215.352532M144.178048 218.764916C143.887368 219.11453 143.487096 219.33051 143.044491 219.33051 142.718064 219.33051 142.429266 219.21758 142.221839 219.006305 142.013942 218.794561 141.887416 218.484472 141.887416 218.088274 141.887416 217.553736 142.067562 217.07237 142.357772 216.725108 142.648451 216.378317 143.048724 216.16469 143.491329 216.16469 143.817756 216.165161 144.107025 216.278091 144.314451 216.487954 144.521878 216.698287 144.648404 217.006023 144.648404 217.396574 144.648404 217.931112 144.468728 218.414832 144.178048 218.764916M143.533661 215.352532C142.780151 215.352532 142.128238 215.683794 141.664938 216.191511 141.201637 216.698758 140.926949 217.382458 140.926479 218.088274 140.926479 218.633634 141.113681 219.144645 141.466918 219.519669 141.820625 219.894222 142.339898 220.132317 143.002159 220.132317 143.755669 220.132317 144.407582 219.801054 144.870882 219.294749 145.334183 218.788443 145.60887 218.107566 145.609341 217.407397 145.609341 216.85639 145.422139 216.343027 145.068902 215.966591 144.715665 215.590627 144.195922 215.352061 143.533661 215.352532M151.061375 218.720779L151.057142 218.732543C150.951312 219.024751 150.847834 219.209204 150.749529 219.320252 150.651695 219.431771 150.559976 219.468944 150.47343 219.468944 150.385944 219.468944 150.318683 219.438359 150.271648 219.382835 150.225083 219.32731 150.199213 219.245436 150.199213 219.141446 150.198743 219.0591 150.230257 218.909938 150.262241 218.772069L150.655928 217.421137C150.730245 217.154809 150.773047 216.898363 150.773047 216.672972 150.773047 216.260775 150.636644 215.932806 150.410403 215.708357 150.184632 215.483907 149.870434 215.362978 149.516257 215.362978 149.199237 215.362978 148.891154 215.492377 148.616936 215.700828 148.363415 215.893751 148.138585 216.155844 147.962672 216.447581L148.286276 215.437324 147.344154 215.437324 146.21483 220.047243 147.176237 220.047243 147.795695 217.548654C147.911873 217.093168 148.102367 216.746847 148.333312 216.514869 148.563786 216.28242 148.834241 216.164784 149.112221 216.164314 149.317296 216.164784 149.486624 216.23019 149.604683 216.344532 149.723213 216.458874 149.790944 216.623094 149.790944 216.822134 149.790944 216.969885 149.769778 217.106343 149.717098 217.286561L149.323411 218.66996 149.323411 218.670431C149.280608 218.841238 149.248624 219.044043 149.248624 219.194617 149.248624 219.462827 149.337521 219.695276 149.506379 219.860437 149.675237 220.025127 149.923585 220.122059 150.239664 220.122059 150.524229 220.122059 150.777751 220.022304 150.989881 219.817617 151.202011 219.613401 151.373221 219.305665 151.495513 218.889234L151.499276 218.877941 151.061375 218.720779zM133.300602 218.697346C133.017447 219.056842 132.623289 219.290702 132.176922 219.290702 131.824155 219.290702 131.55276 219.180124 131.36838 218.987672 131.184001 218.79569 131.086637 218.520892 131.086637 218.189159 131.086637 217.683324 131.276661 217.181254 131.578629 216.807171 131.880127 216.433089 132.2931 216.186053 132.738997 216.186053 133.064953 216.186053 133.318005 216.306512 133.490625 216.511669 133.663246 216.717297 133.755436 217.008564 133.755436 217.35112 133.755436 217.851779 133.583756 218.33738 133.300602 218.697346M134.291641 215.878788C134.002843 215.55223 133.579993 215.364954 133.046609 215.365424 132.736175 215.365424 132.437028 215.474591 132.171748 215.648692 131.924341 215.809618 131.719266 216.026539 131.548526 216.262281L132.38576 212.875306C132.117657 213.059759 131.885301 213.197628 131.522657 213.197628 131.16989 213.197628 130.806305 213.132693 130.528325 213.054583 130.250345 213.001882 129.918744 212.937418 129.597961 212.937418 128.454056 212.937418 127.972882 213.848861 127.972882 214.590909 127.972882 214.905232 128.042965 215.172501 128.157262 215.428948 127.975234 215.388011 127.777685 215.365424 127.569787 215.365424 126.999716 215.365424 126.557111 215.524939 126.255613 215.778091 125.955056 216.030774 125.796546 216.376623 125.796546 216.746471 125.796546 217.116318 125.952704 217.382646 126.187882 217.591097 126.42306 217.799548 126.737258 217.951063 127.055689 218.094579 127.310151 218.205628 127.550973 218.309147 127.726886 218.431489 127.814843 218.492189 127.886337 218.558065 127.936194 218.63147 127.985582 218.705345 128.012862 218.785338 128.012862 218.878976 128.012862 218.969321 127.988874 219.047901 127.944661 219.116601 127.878811 219.218238 127.768277 219.296349 127.629052 219.34905 127.490297 219.40175 127.323321 219.428571 127.145526 219.428571 126.818629 219.428571 126.512898 219.354225 126.303119 219.249765 126.233507 219.209768 126.184119 219.179654 126.144139 219.142481 126.206226 219.065312 126.245736 218.95191 126.245736 218.846509 126.245736 218.705816 126.191645 218.575005 126.099455 218.479955 126.006795 218.384905 125.876036 218.325146 125.724582 218.325146 125.567483 218.325146 125.428258 218.390551 125.329483 218.498777 125.230238 218.607472 125.170973 218.758987 125.170973 218.931677 125.170973 219.158479 125.279155 219.363166 125.461183 219.545266L125.461183 219.545266C125.804072 219.898645 126.421649 220.132505 127.12436 220.132505 127.666681 220.132505 128.122926 220.00734 128.444179 219.767834 128.764961 219.528797 128.950281 219.174007 128.950281 218.719462 128.950281 218.360437 128.796945 218.093638 128.56553 217.882835 128.334586 217.67156 128.026032 217.514869 127.712775 217.371824 127.447495 217.249482 127.201499 217.138434 127.022764 217.014681 126.933396 216.952569 126.860961 216.887634 126.811104 216.817523 126.761246 216.746941 126.733965 216.671654 126.733965 216.587427 126.733965 216.427913 126.823333 216.302277 126.971495 216.214756 127.120127 216.127235 127.327554 216.080181 127.558969 216.080181 127.790855 216.080181 128.012392 216.122059 128.169491 216.185112L128.169491 216.185112C128.245218 216.213815 128.285669 216.241107 128.316712 216.262281 128.246629 216.383682 128.224993 216.46038 128.224993 216.55543 128.224993 216.838698 128.463934 217.077263 128.757436 217.077263 128.903716 217.077263 129.039649 217.017504 129.138894 216.912573 129.238139 216.808112 129.300226 216.65895 129.300226 216.481084 129.300226 216.265104 129.203333 216.050066 129.031653 215.878317L129.031183 215.878317C128.932408 215.775739 128.807764 215.685394 128.662894 215.609637 128.562708 215.389422 128.496858 215.142387 128.496858 214.864295 128.496858 214.018257 129.084803 213.627706 129.555159 213.627706 129.779989 213.627706 130.100772 213.64041 130.378752 213.666761 130.624748 213.705816 130.94553 213.731225 131.212692 213.731225L131.215044 213.731225 129.732953 220.047337 130.703297 220.047337 130.906021 219.117071C131.072526 219.714662 131.626135 220.132505 132.29357 220.132505 132.960534 220.132505 133.571526 219.804536 134.014602 219.276586 134.458147 218.749106 134.734716 218.022116 134.734716 217.223602 134.734716 216.669772 134.58044 216.204875 134.291641 215.878788"/>
      <polygon fill="#FFF" points="173.27 167.361 175.642 167.361 175.429 168.277 173.058 168.277"/>
      <path fill="#FFF" d="M192.982253,163.824299 L192.678403,163.824299 C192.678403,167.261622 191.287091,170.370036 189.035498,172.623 C186.783435,174.875024 183.675794,176.267363 180.240316,176.267363 C176.804368,176.267363 173.697198,174.875024 171.445134,172.623 C169.193542,170.370036 167.802229,167.261622 167.801759,163.824299 C167.802229,160.386975 169.193542,157.278562 171.445134,155.025598 C173.697198,152.773574 176.804368,151.381235 180.240316,151.381235 C183.675794,151.381235 186.783435,152.773574 189.035498,155.025598 C191.287091,157.278562 192.678403,160.386975 192.678403,163.824299 L192.982253,163.824299 L193.286103,163.824299 C193.286103,160.221344 191.825648,156.95671 189.464933,154.595991 C187.105158,152.234331 183.84183,150.773292 180.240316,150.773292 C176.638802,150.773292 173.375474,152.234331 171.015229,154.595991 C168.654984,156.95671 167.194059,160.221344 167.19453,163.824299 C167.194059,167.427254 168.654984,170.691888 171.015229,173.052607 C173.375474,175.414267 176.638802,176.875306 180.240316,176.875306 C183.84183,176.875306 187.105158,175.414267 189.464933,173.052607 C191.825648,170.691888 193.286103,167.427254 193.286103,163.824299 L192.982253,163.824299 Z"/>
      <path fill="#FFF" d="M182.878589 160.328299C182.647174 160.622388 182.32545 160.812959 181.960925 160.812959 181.673067 160.812488 181.451059 160.722614 181.301015 160.565923 181.150502 160.409232 181.071011 160.184312 181.071011 159.913749 181.071011 159.500141 181.225758 159.090768 181.472225 158.785385 181.718691 158.479531 182.055936 158.278139 182.419992 158.278139 182.685743 158.278139 182.892229 158.376482 183.033336 158.543996 183.174442 158.71151 183.249699 158.949605 183.249699 159.229108 183.249699 159.638481 183.109533 160.034679 182.878589 160.328299M183.6876 158.026868C183.451952 157.76054 183.106241 157.608084 182.671162 157.608084 182.41764 157.608084 182.173055 157.697487 181.956691 157.839121 181.754909 157.970873 181.586992 158.147798 181.447766 158.34025L182.131193 155.574864C181.912478 155.725438 181.722454 155.837898 181.427071 155.837898 181.138743 155.837898 180.841948 155.785197 180.614766 155.721203 180.388055 155.678383 180.11713 155.625212 179.855142 155.625212 178.921015 155.625212 178.527798 156.369612 178.527798 156.975673 178.527798 157.23259 178.585652 157.450452 178.678782 157.659844 178.53015 157.626435 178.369288 157.608084 178.199019 157.608084 177.733838 157.608084 177.372134 157.738425 177.126608 157.944993 176.880612 158.151092 176.751264 158.433889 176.751264 158.735507 176.751264 159.037596 176.878731 159.255458 177.070636 159.425325 177.263011 159.595662 177.519355 159.719415 177.778992 159.83611L177.779462 159.83658C177.987359 159.926925 178.183968 160.011622 178.327426 160.111378 178.399391 160.161726 178.457715 160.215368 178.498166 160.275127 178.538616 160.334886 178.561193 160.400762 178.561193 160.47652 178.561193 160.550866 178.540968 160.61486 178.505221 160.670855 178.45113 160.754141 178.361292 160.818135 178.247466 160.860954 178.13411 160.903774 177.997707 160.925889 177.852367 160.925889 177.586146 160.925889 177.335917 160.865189 177.164707 160.77955 177.108264 160.747083 177.067814 160.722614 177.035359 160.692029 177.085687 160.629447 177.118142 160.536279 177.118142 160.45064 177.118142 160.335827 177.073928 160.229014 176.998672 160.151374 176.922944 160.073264 176.816174 160.024327 176.69247 160.024327 176.564063 160.024327 176.450707 160.077969 176.369806 160.166431 176.288905 160.255364 176.240458 160.378647 176.240458 160.51981 176.240458 160.705204 176.328885 160.872247 176.477047 161.020939L176.477517 161.020939C176.757379 161.309383 177.2616 161.500423 177.835434 161.500423 178.278509 161.500423 178.651031 161.398315 178.913019 161.202569 179.175008 161.007293 179.326462 160.717438 179.326462 160.34665 179.326462 160.053501 179.200877 159.835639 179.012264 159.66342 178.823652 159.491201 178.571541 159.362742 178.315668 159.246047 178.099304 159.146292 177.898462 159.055477 177.752652 158.95431 177.679276 158.904433 177.620482 158.850791 177.579561 158.793855 177.53864 158.736448 177.516533 158.674807 177.516533 158.605637 177.516533 158.475296 177.589438 158.373188 177.71079 158.301195 177.832142 158.230143 178.001 158.191558 178.190553 158.191558 178.379636 158.191558 178.560253 158.225908 178.68866 158.277668L178.68913 158.277668C178.750747 158.300254 178.783672 158.323311 178.809071 158.34025 178.752158 158.439535 178.733814 158.502117 178.734284 158.579757 178.734284 158.810794 178.929482 159.005599 179.168893 159.005599 179.288363 159.005599 179.399838 158.956663 179.480268 158.871494 179.56117 158.786326 179.611968 158.664455 179.611968 158.519057 179.611968 158.342603 179.532948 158.16709 179.392782 158.026398L179.392312 158.026398C179.311881 157.943111 179.209814 157.869236 179.091755 157.808065 179.009913 157.627847 178.955822 157.425983 178.955822 157.199181 178.955822 156.507952 179.436055 156.188923 179.820336 156.188923 180.003774 156.188923 180.265762 156.199746 180.492474 156.22092 180.693316 156.252917 180.955304 156.274092 181.173549 156.274092L181.17543 156.274092 179.965205 161.431254 180.757755 161.431254 180.92332 160.671325C181.058782 161.159279 181.511264 161.500423 182.056407 161.500423 182.601079 161.500423 183.099656 161.232213 183.461359 160.801666 183.823533 160.371118 184.049304 159.777292 184.049304 159.125118 184.049304 158.672925 183.923249 158.293666 183.6876 158.026868M187.688917 168.753529L187.685624 168.763411C187.599549 168.999624 187.515826 169.150198 187.435865 169.240072 187.356375 169.330416 187.282059 169.360531 187.211976 169.361001 187.140952 169.360531 187.085921 169.336062 187.048292 169.291361 187.010193 169.246189 186.989027 169.179371 186.989027 169.095144 186.989027 169.027856 187.014426 168.906926 187.040766 168.795407L187.359668 167.69904C187.420343 167.48259 187.45515 167.274139 187.45515 167.092038 187.45515 166.757482 187.344146 166.490683 187.160707 166.309053 186.977268 166.126482 186.722336 166.028609 186.434948 166.028609 186.177664 166.028609 185.927434 166.13307 185.704956 166.302466 185.49894 166.459157 185.316913 166.671843 185.173925 166.908997L185.436383 166.088839 184.672055 166.088839 183.755332 169.830134 184.536122 169.830134 185.038462 167.80256C185.133004 167.432242 185.287751 167.151797 185.474482 166.963109 185.662154 166.774892 185.88134 166.679371 186.10711 166.679371 186.273616 166.679371 186.41096 166.732072 186.506913 166.824769 186.602865 166.918408 186.657897 167.051101 186.657897 167.212968 186.657897 167.332486 186.640964 167.443535 186.598162 167.589403L186.598162 167.589874 186.27832 168.712121 186.27832 168.712592C186.243984 168.851402 186.218114 169.016093 186.218114 169.137963 186.218114 169.355825 186.289608 169.544513 186.426952 169.678618 186.563826 169.812253 186.765608 169.890834 187.021952 169.890834 187.252897 169.890834 187.458913 169.80943 187.631063 169.644269 187.803213 169.478167 187.941968 169.228308 188.041683 168.890457L188.044035 168.881046 187.688917 168.753529zM235.043955 246.094579C227.337177 246.094579 221.067335 239.822228 221.067335 232.111895L221.067335 126.151045C221.067335 121.361848 224.405449 119.586957 226.770398 119.187935L226.770398 113.643516 225.470335 113.643516C223.042358 113.643516 221.067335 111.666761 221.067335 109.237813L221.067335 102.853002C221.067335 100.424054 223.042358 98.4482402 225.470335 98.4482402L315.908924 98.4482402C318.3369 98.4482402 320.312394 100.424054 320.312394 102.853002L320.312394 109.237813C320.312394 111.666761 318.3369 113.643516 315.908924 113.643516L314.60886 113.643516 314.60886 119.187935C316.973809 119.586957 320.312394 121.361848 320.312394 126.151045L320.312394 232.111895C320.312394 239.822228 314.042552 246.094579 306.335303 246.094579L235.043955 246.094579z"/>
      <path fill="#A5B6F3" d="M315.908877,97.5070111 L225.470758,97.5070111 C222.523509,97.5070111 220.126576,99.9053736 220.126576,102.852861 L220.126576,109.238142 C220.126576,112.18563 222.523509,114.584463 225.470758,114.584463 L225.82964,114.584463 L225.82964,118.453275 C225.260509,118.608084 224.610477,118.843826 223.955742,119.20191 C221.486375,120.554724 220.126576,123.023198 220.126576,126.150903 L220.126576,232.111754 C220.126576,240.341097 226.818327,247.035526 235.043908,247.035526 L270.486153,247.035526 L270.893481,247.035526 L306.335256,247.035526 C314.560837,247.035526 321.253058,240.341097 321.253058,232.111754 L321.253058,126.150903 C321.253058,123.023198 319.89279,120.554724 317.423422,119.20191 C316.769157,118.843826 316.119126,118.608084 315.549525,118.453275 L315.549525,114.584463 L315.908877,114.584463 C318.855655,114.584463 321.253058,112.18563 321.253058,109.238142 L321.253058,102.852861 C321.253058,99.9053736 318.855655,97.5070111 315.908877,97.5070111 M315.908877,99.3891869 C317.821343,99.3891869 319.371636,100.9401 319.371636,102.852861 L319.371636,109.238142 C319.371636,111.151374 317.821343,112.702287 315.908877,112.702287 L313.668102,112.702287 L313.668102,120.038067 C313.668102,120.038067 319.371636,120.173584 319.371636,126.150903 L319.371636,232.111754 C319.371636,239.31437 313.534991,245.15335 306.335256,245.15335 L270.893481,245.15335 L270.486153,245.15335 L235.043908,245.15335 C227.844643,245.15335 222.007999,239.31437 222.007999,232.111754 L222.007999,126.150903 C222.007999,120.173584 227.711062,120.038067 227.711062,120.038067 L227.711062,112.702287 L225.470758,112.702287 C223.558292,112.702287 222.007999,111.151374 222.007999,109.238142 L222.007999,102.852861 C222.007999,100.9401 223.558292,99.3891869 225.470758,99.3891869 L315.908877,99.3891869"/>
      <polygon fill="#FFF" points="222.008 228.172 319.372 228.172 319.372 137.154 222.008 137.154"/>
      <polygon fill="#B4B5B5" points="226.876 223.621 314.503 223.621 314.503 141.705 226.876 141.705"/>
      <path fill="#FFB8AC" d="M226.876134,141.840156 C250.216126,141.840156 269.136656,160.14761 269.136656,182.730896 C269.136656,205.314653 250.216126,223.621636 226.876134,223.621636 L226.876134,141.840156 Z"/>
      <path fill="#A5B6F3" d="M226.876134,223.621542 C226.876134,200.17763 246.517719,181.17236 270.747154,181.17236 C294.977059,181.17236 314.618644,200.17763 314.618644,223.621542 L226.876134,223.621542 Z"/>
      <path fill="#FFF" d="M251.646055 217.353284C251.355375 217.702899 250.955102 217.918878 250.512497 217.918878 250.18607 217.918878 249.897272 217.805948 249.689845 217.594673 249.482418 217.382929 249.355892 217.07284 249.355422 216.676642 249.355422 216.142104 249.535568 215.660738 249.825778 215.313476 250.116458 214.966685 250.51673 214.753059 250.959335 214.753059 251.286232 214.753529 251.575031 214.86646 251.782458 215.076322 251.989885 215.286655 252.11641 215.594391 252.11641 215.984943 252.11641 216.519481 251.936734 217.0032 251.646055 217.353284M251.001667 213.9409C250.248628 213.9409 249.596244 214.272163 249.132944 214.77988 248.669643 215.287126 248.394956 215.970826 248.394956 216.676642 248.394485 217.222003 248.581687 217.733013 248.934924 218.108037 249.288632 218.48259 249.807904 218.720685 250.470165 218.720685 251.223675 218.720685 251.875588 218.389422 252.338889 217.883117 252.802189 217.376812 253.076877 216.695935 253.077347 215.995765 253.077347 215.444758 252.890145 214.931395 252.536908 214.55496 252.183671 214.178995 251.664398 213.940429 251.001667 213.9409M257.063424 217.353284C256.772744 217.702899 256.372471 217.918878 255.929866 217.918878 255.60344 217.918878 255.314641 217.805948 255.107214 217.594673 254.899317 217.382929 254.772791 217.07284 254.772791 216.676642 254.772791 216.142104 254.952938 215.660738 255.243147 215.313476 255.533827 214.966685 255.9341 214.753059 256.376704 214.753059 256.703131 214.753529 256.9924 214.86646 257.199827 215.076322 257.407254 215.286655 257.533779 215.594391 257.533779 215.984943 257.533779 216.519481 257.354104 217.0032 257.063424 217.353284M256.419036 213.9409C255.665526 213.9409 255.013613 214.272163 254.550313 214.77988 254.087013 215.287126 253.812325 215.970826 253.811855 216.676642 253.811855 217.222003 253.999056 217.733013 254.352293 218.108037 254.706001 218.48259 255.225274 218.720685 255.887534 218.720685 256.641044 218.720685 257.292957 218.389422 257.756258 217.883117 258.219558 217.376812 258.494246 216.695935 258.494716 215.995765 258.494716 215.444758 258.307515 214.931395 257.954277 214.55496 257.60104 214.178995 257.081297 213.940429 256.419036 213.9409M263.946751 217.309147L263.942517 217.320911C263.836687 217.613119 263.733209 217.797572 263.634905 217.90862 263.537071 218.020139 263.445351 218.057312 263.358806 218.057312 263.27132 218.057312 263.204059 218.026727 263.157023 217.971203 263.110458 217.915679 263.084589 217.833804 263.084589 217.729814 263.084118 217.647468 263.115632 217.498306 263.147616 217.360437L263.541304 216.009505C263.61562 215.743177 263.658423 215.486731 263.658423 215.26134 263.658423 214.849144 263.522019 214.521174 263.295778 214.296725 263.070008 214.072276 262.75581 213.951346 262.401632 213.951346 262.084612 213.951346 261.776529 214.080745 261.502312 214.289196 261.24879 214.482119 261.02396 214.744212 260.848047 215.03595L261.171652 214.025692 260.229529 214.025692 259.100205 218.635611 260.061612 218.635611 260.681071 216.137022C260.797249 215.681536 260.987743 215.335216 261.218687 215.103237 261.449162 214.870789 261.719616 214.753153 261.997596 214.752682 262.202672 214.753153 262.372 214.818558 262.490059 214.9329 262.608589 215.047243 262.67632 215.211462 262.67632 215.410503 262.67632 215.558253 262.655154 215.694711 262.602474 215.874929L262.208786 217.258329 262.208786 217.258799C262.165984 217.429607 262.134 217.632411 262.134 217.782985 262.134 218.051195 262.222897 218.283644 262.391755 218.448805 262.560612 218.613495 262.80896 218.710427 263.125039 218.710427 263.409604 218.710427 263.663126 218.610672 263.875257 218.405985 264.087387 218.201769 264.258596 217.894034 264.380889 217.477602L264.384652 217.466309 263.946751 217.309147zM246.185977 217.285714C245.902823 217.64521 245.508665 217.87907 245.062297 217.87907 244.70953 217.87907 244.438135 217.768492 244.253756 217.57604 244.069376 217.384058 243.972013 217.10926 243.972013 216.777527 243.972013 216.271692 244.162036 215.769622 244.464005 215.395539 244.765503 215.021457 245.178475 214.774421 245.624372 214.774421 245.950329 214.774421 246.20338 214.89488 246.376001 215.100038 246.548621 215.305665 246.640811 215.596932 246.640811 215.939488 246.640811 216.440147 246.469131 216.925748 246.185977 217.285714M247.177017 214.467156C246.888218 214.140599 246.465368 213.953322 245.931985 213.953793 245.62155 213.953793 245.322404 214.062959 245.057123 214.23706 244.809716 214.397986 244.604641 214.614907 244.433902 214.850649L245.271135 211.463674C245.003032 211.648127 244.770677 211.785997 244.408032 211.785997 244.055266 211.785997 243.691681 211.721062 243.4137 211.642951 243.13572 211.59025 242.804119 211.525786 242.483337 211.525786 241.339432 211.525786 240.858258 212.437229 240.858258 213.179277 240.858258 213.493601 240.928341 213.76087 241.042637 214.017316 240.860609 213.976379 240.66306 213.953793 240.455163 213.953793 239.885092 213.953793 239.442487 214.113307 239.140989 214.36646 238.840432 214.619142 238.681922 214.964992 238.681922 215.334839 238.681922 215.704687 238.83808 215.971014 239.073258 216.179465 239.308436 216.387916 239.622633 216.539432 239.941064 216.682947 240.195526 216.793996 240.436349 216.897516 240.612262 217.019857 240.700218 217.080557 240.771712 217.146433 240.82157 217.219838 240.870957 217.293714 240.898238 217.373706 240.898238 217.467344 240.898238 217.557689 240.87425 217.63627 240.830036 217.704969 240.764187 217.806606 240.653653 217.884717 240.514428 217.937418 240.375673 217.990119 240.208696 218.01694 240.030902 218.01694 239.704005 218.01694 239.398274 217.942594 239.188495 217.838133 239.118882 217.798137 239.069495 217.768022 239.029515 217.730849 239.091602 217.65368 239.131111 217.540279 239.131111 217.434877 239.131111 217.294184 239.077021 217.163373 238.984831 217.068323 238.892171 216.973273 238.761412 216.913514 238.609957 216.913514 238.452858 216.913514 238.313633 216.97892 238.214858 217.087145 238.115613 217.19584 238.056349 217.347356 238.056349 217.520045 238.056349 217.746847 238.16453 217.951534 238.346558 218.133634L238.346558 218.133634C238.689447 218.487013 239.307025 218.720873 240.009736 218.720873 240.552056 218.720873 241.008301 218.595709 241.329554 218.356202 241.650337 218.117165 241.835657 217.762375 241.835657 217.30783 241.835657 216.948805 241.682321 216.682006 241.450906 216.471203 241.219961 216.259928 240.911408 216.103237 240.598151 215.960192 240.33287 215.837851 240.086874 215.726802 239.908139 215.603049 239.818772 215.540937 239.746337 215.476002 239.696479 215.405891 239.646621 215.33531 239.619341 215.260023 239.619341 215.175795 239.619341 215.016281 239.708708 214.890646 239.85687 214.803124 240.005503 214.715603 240.21293 214.668549 240.444345 214.668549 240.67623 214.668549 240.897768 214.710427 241.054866 214.77348L241.054866 214.77348C241.130594 214.802183 241.171044 214.829475 241.202088 214.850649 241.132005 214.97205 241.110368 215.048748 241.110368 215.143798 241.110368 215.427066 241.349309 215.665631 241.642811 215.665631 241.789092 215.665631 241.925025 215.605872 242.02427 215.500941 242.123515 215.39648 242.185602 215.247318 242.185602 215.069452 242.185602 214.853473 242.088708 214.638434 241.917028 214.466685L241.916558 214.466685C241.817783 214.364107 241.693139 214.273762 241.54827 214.198005 241.448084 213.97779 241.382234 213.730755 241.382234 213.452663 241.382234 212.606625 241.970179 212.216074 242.440534 212.216074 242.665364 212.216074 242.986147 212.228778 243.264127 212.255129 243.510123 212.294184 243.830906 212.319593 244.098068 212.319593L244.10042 212.319593 242.618329 218.635705 243.588673 218.635705 243.791396 217.705439C243.957902 218.30303 244.511511 218.720873 245.178945 218.720873 245.84591 218.720873 246.456902 218.392904 246.899977 217.864954 247.343523 217.337474 247.620092 216.610484 247.620092 215.811971 247.620092 215.25814 247.465815 214.793243 247.177017 214.467156"/>
      <polygon fill="#FFF" points="286.156 165.95 288.527 165.95 288.314 166.865 285.943 166.865"/>
      <path fill="#FFF" d="M305.867628,162.412667 L305.563779,162.412667 C305.563779,165.849991 304.172466,168.958404 301.920874,171.211368 C299.66881,173.463392 296.56117,174.855731 293.125692,174.855731 C289.689743,174.855731 286.582573,173.463392 284.33051,171.211368 C282.078917,168.958404 280.687605,165.849991 280.687134,162.412667 C280.687605,158.975343 282.078917,155.86693 284.33051,153.613966 C286.582573,151.361942 289.689743,149.969603 293.125692,149.969603 C296.56117,149.969603 299.66881,151.361942 301.920874,153.613966 C304.172466,155.86693 305.563779,158.975343 305.563779,162.412667 L305.867628,162.412667 L306.171478,162.412667 C306.171478,158.809712 304.711024,155.545078 302.350308,153.184359 C299.990534,150.822699 296.727206,149.36166 293.125692,149.36166 C289.524178,149.36166 286.26085,150.822699 283.900605,153.184359 C281.54036,155.545078 280.079435,158.809712 280.079905,162.412667 C280.079435,166.015622 281.54036,169.280256 283.900605,171.640975 C286.26085,174.002635 289.524178,175.463674 293.125692,175.463674 C296.727206,175.463674 299.990534,174.002635 302.350308,171.640975 C304.711024,169.280256 306.171478,166.015622 306.171478,162.412667 L305.867628,162.412667 Z"/>
      <path fill="#FFF" d="M295.763964 158.916667C295.532549 159.210757 295.210826 159.401327 294.8463 159.401327 294.558442 159.400856 294.336434 159.310982 294.186391 159.154291 294.035877 158.9976 293.956387 158.77268 293.956387 158.502117 293.956387 158.088509 294.111134 157.679136 294.3576 157.373753 294.604067 157.067899 294.941312 156.866507 295.305367 156.866507 295.571118 156.866507 295.777604 156.96485 295.918711 157.132364 296.059818 157.299878 296.135075 157.537973 296.135075 157.817476 296.135075 158.226849 295.994909 158.623047 295.763964 158.916667M296.572976 156.615236C296.337328 156.348908 295.991616 156.196452 295.556537 156.196452 295.303015 156.196452 295.05843 156.285855 294.842067 156.427489 294.640284 156.559241 294.472367 156.736166 294.333142 156.928618L295.016569 154.163232C294.797853 154.313806 294.60783 154.426266 294.312446 154.426266 294.024118 154.426266 293.727324 154.373565 293.500142 154.309571 293.27343 154.266751 293.002506 154.21358 292.740517 154.21358 291.806391 154.21358 291.413174 154.95798 291.413174 155.564041 291.413174 155.820958 291.471027 156.03882 291.564158 156.248212 291.415525 156.214803 291.254664 156.196452 291.084395 156.196452 290.619213 156.196452 290.257509 156.326793 290.011984 156.533362 289.765988 156.73946 289.63664 157.022257 289.63664 157.323875 289.63664 157.625965 289.764106 157.843826 289.956011 158.013693 290.148387 158.18403 290.404731 158.307783 290.664367 158.424478L290.664838 158.424948C290.872735 158.515293 291.069343 158.599991 291.212802 158.699746 291.284766 158.750094 291.343091 158.803736 291.383541 158.863495 291.423992 158.923254 291.446569 158.98913 291.446569 159.064888 291.446569 159.139234 291.426343 159.203228 291.390596 159.259223 291.336506 159.342509 291.246668 159.406503 291.132842 159.449322 291.019486 159.492142 290.883083 159.514257 290.737743 159.514257 290.471521 159.514257 290.221292 159.453557 290.050083 159.367918 289.99364 159.335451 289.953189 159.310982 289.920735 159.280397 289.971063 159.217815 290.003517 159.124647 290.003517 159.039008 290.003517 158.924195 289.959304 158.817382 289.884047 158.739742 289.80832 158.661632 289.701549 158.612695 289.577845 158.612695 289.449438 158.612695 289.336083 158.666337 289.255181 158.7548 289.17428 158.843732 289.125834 158.967015 289.125834 159.108178 289.125834 159.293572 289.21426 159.460615 289.362423 159.609307L289.362893 159.609307C289.642755 159.897751 290.146976 160.088792 290.72081 160.088792 291.163885 160.088792 291.536407 159.986684 291.798395 159.790937 292.060383 159.595662 292.211838 159.305807 292.211838 158.935018 292.211838 158.641869 292.086253 158.424007 291.89764 158.251788 291.709027 158.079569 291.456917 157.95111 291.201043 157.834416 290.984679 157.73466 290.783838 157.643845 290.638027 157.542678 290.564652 157.492801 290.505857 157.439159 290.464936 157.382223 290.424015 157.324816 290.401909 157.263175 290.401909 157.194005 290.401909 157.063665 290.474814 156.961557 290.596166 156.889563 290.717517 156.818511 290.886375 156.779927 291.075928 156.779927 291.265011 156.779927 291.445628 156.814276 291.574035 156.866036L291.574506 156.866036C291.636122 156.888622 291.669047 156.911679 291.694446 156.928618 291.637533 157.027903 291.619189 157.090486 291.61966 157.168125 291.61966 157.399162 291.814857 157.593968 292.054268 157.593968 292.173739 157.593968 292.285213 157.545031 292.365644 157.459863 292.446545 157.374694 292.497343 157.252823 292.497343 157.107425 292.497343 156.930971 292.418324 156.755458 292.278158 156.614766L292.277687 156.614766C292.197257 156.531479 292.095189 156.457604 291.97713 156.396433 291.895288 156.216215 291.841197 156.014352 291.841197 155.787549 291.841197 155.09632 292.32143 154.777292 292.705711 154.777292 292.88915 154.777292 293.151138 154.788114 293.377849 154.809289 293.578691 154.841286 293.840679 154.86246 294.058925 154.86246L294.060806 154.86246 292.850581 160.019622 293.64313 160.019622 293.808695 159.259693C293.944158 159.747647 294.39664 160.088792 294.941782 160.088792 295.486454 160.088792 295.985031 159.820582 296.346735 159.390034 296.708909 158.959486 296.934679 158.36566 296.934679 157.713486 296.934679 157.261293 296.808624 156.882035 296.572976 156.615236M300.574292 167.341897L300.571 167.351779C300.484925 167.587992 300.401201 167.738566 300.321241 167.82844 300.241751 167.918784 300.167434 167.948899 300.097351 167.949369 300.026328 167.948899 299.971296 167.924431 299.933668 167.879729 299.895569 167.834557 299.874403 167.76774 299.874403 167.683512 299.874403 167.616224 299.899802 167.495295 299.926142 167.383776L300.245043 166.287408C300.305719 166.070958 300.340525 165.862507 300.340525 165.680407 300.340525 165.34585 300.229521 165.079051 300.046083 164.897421 299.862644 164.71485 299.607711 164.616977 299.320324 164.616977 299.063039 164.616977 298.81281 164.721438 298.590332 164.890834 298.384316 165.047525 298.202288 165.260211 298.0593 165.497365L298.321758 164.677207 297.55743 164.677207 296.640707 168.418502 297.421498 168.418502 297.923838 166.390928C298.018379 166.02061 298.173126 165.740166 298.359857 165.551478 298.547529 165.36326 298.766715 165.26774 298.992486 165.26774 299.158992 165.26774 299.296336 165.32044 299.392288 165.413138 299.488241 165.506776 299.543272 165.639469 299.543272 165.801336 299.543272 165.920855 299.52634 166.031903 299.483537 166.177772L299.483537 166.178242 299.163695 167.300489 299.163695 167.30096C299.129359 167.43977 299.10349 167.604461 299.10349 167.726332 299.10349 167.944193 299.174984 168.132882 299.312328 168.266987 299.449201 168.400621 299.650984 168.479202 299.907328 168.479202 300.138272 168.479202 300.344288 168.397798 300.516438 168.232637 300.688589 168.066535 300.827343 167.816676 300.927059 167.478826L300.929411 167.469415 300.574292 167.341897z"/>
      <path fill="#F8F9FB" d="M166.035573,209.105872 C166.035573,208.248071 166.387399,207.371447 166.921723,206.535761 C168.650281,203.832957 169.011043,200.457745 167.888775,197.45144 C167.603269,196.685394 167.44664,195.856296 167.44664,194.989554 C167.44664,192.993036 168.276818,191.193205 169.610277,189.911444 C171.182676,188.399115 172.150198,186.367307 172.150198,184.185394 L172.150198,183.787314 C172.150198,176.460474 166.212897,170.521269 158.889458,170.521269 L105.124506,170.521269 C102.396913,170.521269 100.185771,168.309241 100.185771,165.580557 L100.185771,145.285056 C100.185771,142.758705 97.4022055,141.223791 95.2672609,142.57284 L92.7348656,144.17316 C86.2467787,148.272539 82.312253,155.413514 82.312253,163.090439 L82.312253,174.114813 C82.312253,180.706192 76.9713636,186.049219 70.3826206,186.049219 L51.7391304,186.049219 C23.1645494,186.049219 0,209.223038 0,237.809053 L63.4980237,237.809053 L145.584976,237.809053 C148.898632,237.809053 152.127154,237.149351 155.104976,235.916526 C159.889905,233.935535 162.662182,228.944005 161.882802,223.821664 C161.830123,223.472991 161.802372,223.115377 161.802372,222.751647 C161.802372,221.285432 162.800937,219.923207 164.046439,218.794843 C166.185617,216.856672 167.08964,213.877659 166.320138,211.094862 C166.144696,210.459627 166.035573,209.790043 166.035573,209.105872"/>
      <path fill="#F7F7F7" d="M161.383943 80.9097967C161.135125 81.6716074 160.870785 82.3957745 160.622437 83.0521833 160.363742 83.723179 160.13703 84.3094768 159.95124 84.7894316 159.902323 84.9131846 159.855287 85.0312912 159.812955 85.1390457 159.768742 85.2524468 159.728761 85.3578487 159.690662 85.4557218 159.613054 85.6519386 159.549085 85.8227461 159.496406 85.9587333 159.389635 86.2405891 159.332722 86.3911632 159.332722 86.3911632 159.332722 86.3911632 159.494994 86.3615189 159.784263 86.2730567 159.929603 86.2307077 160.106927 86.174713 160.30918 86.0994259 160.412188 86.0617824 160.522722 86.0217862 160.6389 85.976614 160.751785 85.9286185 160.873607 85.8787408 161.002014 85.8227461 161.515643 85.6067664 162.116757 85.3023245 162.777607 84.8981272 163.438927 84.4901656 164.155279 83.9777433 164.88386 83.3236872 165.6115 82.6696311 166.354192 81.8753529 167.029153 80.8745059 167.699409 79.8736589 168.312283 78.6568323 168.642002 77.1581498 168.807568 76.4137493 168.879532 75.5935912 168.839081 74.7437888 168.820267 74.3188876 168.762413 73.8864577 168.681983 73.4540279 168.63918 73.2404009 168.583678 73.0239507 168.528176 72.8103237 168.464208 72.5990495 168.403062 72.3854225 168.328745 72.176501 168.03101 71.3394034 167.60722 70.5521833 167.114757 69.8557783 166.619473 69.1589027 166.056457 68.5533126 165.470864 68.027715 165.323643 67.8992565 165.175481 67.7637399 165.025908 67.6479861L164.799666 67.4696499C164.722998 67.4094203 164.652915 67.3515434 164.564959 67.2908432 164.396572 67.1680312 164.226773 67.0494542 164.054623 66.9285244 164.032046 66.913467 164.016994 66.9035855 164.001943 66.8960568L163.956789 66.865942 163.86601 66.8080651 163.684923 66.6951346 163.452568 66.5487954 163.306757 66.4612742C163.207512 66.4033973 163.109208 66.3455204 163.016548 66.2876435 162.924828 66.2274139 162.825113 66.1718897 162.736216 66.1116601 162.646848 66.0537832 162.555129 65.9959063 162.464821 65.9380294 161.760698 65.4703087 161.176516 65.01294 160.759311 64.6030962 160.661006 64.4995765 160.555647 64.4017034 160.473805 64.3038302 160.384437 64.2054865 160.312002 64.1123188 160.232512 64.0167984 160.202409 63.9692735 160.161018 63.921278 160.131856 63.8709298L160.080587 63.798466 160.035433 63.723179C159.973817 63.6196593 159.922548 63.5137869 159.87222 63.4008564 159.671848 62.9510164 159.60788 62.3298984 159.680785 61.6636081 159.751338 60.9973179 159.940892 60.3107943 160.153492 59.686853 160.368445 59.0586768 160.609738 58.4949652 160.818105 58.0173631 160.929109 57.7783267 161.026943 57.5646998 161.112548 57.3783644 161.204267 57.1873235 161.281876 57.0263975 161.344904 56.8955863 161.477074 56.6269057 161.547157 56.4833898 161.547157 56.4833898 161.547157 56.4833898 161.383943 56.4956239 161.085738 56.5586768 160.937575 56.5911444 160.755548 56.6316111 160.545769 56.694664 160.44135 56.7247788 160.326583 56.7600696 160.207583 56.8005364 160.089524 56.8405327 159.963469 56.8857049 159.830358 56.9360531 159.298856 57.1346226 158.672813 57.4287126 157.989386 57.8738472 157.310662 58.3241577 156.56656 58.9222191 155.87937 59.8026068 155.538832 60.2449181 155.208172 60.7582816 154.941481 61.3615189 154.671496 61.9600508 154.460307 62.6541031 154.368587 63.4135611 154.342247 63.5994259 154.329548 63.7956428 154.317319 63.9895069 154.314496 64.1857237 154.306971 64.3842932 154.318259 64.5828628 154.327196 64.9823546 154.382228 65.382317 154.457485 65.784632 154.615054 66.5817335 154.900089 67.3562488 155.261793 68.0601826 155.993666 69.4760493 157.005402 70.6100602 158.071228 71.5379729 158.336508 71.7666573 158.610255 71.9906362 158.885413 72.1967344 159.023698 72.3049595 159.163394 72.4056559 159.301208 72.5035291L159.512398 72.6517504 159.565077 72.6870412 159.577777 72.6969226C159.553789 72.6823358 159.650682 72.7449181 159.527919 72.6644551L159.550496 72.6795125 159.637042 72.7425654 159.977579 72.9863072C160.037785 73.0371259 160.097991 73.0870036 160.161018 73.1349991 160.18971 73.1552324 160.228749 73.1900527 160.264026 73.2178148L160.373619 73.3109825C160.450287 73.3688594 160.511904 73.4314417 160.579635 73.4888481 160.847267 73.7278844 161.073508 73.964568 161.256477 74.1857237 161.442738 74.4073499 161.587607 74.6181536 161.711781 74.8270751 161.744706 74.8802466 161.767283 74.9353002 161.801149 74.9851779 161.823726 75.0407021 161.852888 75.0962262 161.876406 75.1517504 161.925323 75.2618577 161.975651 75.3776115 162.010927 75.5037173 162.091358 75.7549878 162.150623 76.0368436 162.178374 76.3582251 162.236228 76.9972238 162.168967 77.7689159 162.01469 78.5561359 161.861354 79.3457086 161.63135 80.1479861 161.383943 80.9097967M135.259445 74.2936665C135.050607 75.0662996 134.824366 75.8078769 134.610825 76.4840486 134.385994 77.1781009 134.191267 77.7865142 134.030406 78.2867024 133.947153 78.5483249 133.871896 78.7821852 133.807927 78.988754 133.739726 79.192029 133.685635 79.3731884 133.640951 79.5185865 133.548761 79.818323 133.501255 79.9768963 133.501255 79.9768963 133.501255 79.9768963 133.671994 79.9566629 133.975844 79.8837286 134.12824 79.8512611 134.315441 79.8032656 134.529453 79.73786 134.745346 79.6752776 134.990402 79.5971673 135.258034 79.4969415 135.796121 79.2979014 136.430631 79.0212215 137.124406 78.6363166 137.820532 78.2490589 138.574512 77.7540467 139.344014 77.109872 140.110224 76.4638152 140.897129 75.6718897 141.614892 74.6536326 142.328421 73.6353755 142.985979 72.3780821 143.349093 70.8111707 143.528769 70.0291267 143.616726 69.1666196 143.576745 68.266469 143.537706 67.3663185 143.366967 66.4285244 143.049006 65.5406079 142.734809 64.6508093 142.289852 63.8155938 141.770579 63.0815453 141.248955 62.3446734 140.658658 61.7061453 140.046255 61.1579616 139.891979 61.0219744 139.737232 60.8836345 139.581544 60.760352L139.345896 60.5744871C139.265935 60.5142575 139.19303 60.4535573 139.0999 60.3886222 138.923046 60.2606343 138.74337 60.1345285 138.562283 60.011246 138.536884 59.9933653 138.521832 59.9834839 138.508192 59.9731319L138.463038 59.9458404 138.372259 59.8879635 138.189761 59.7773857 138.098512 59.7195088 137.984216 59.6465744 137.948939 59.6268116 137.807832 59.5435253C137.71235 59.4880011 137.617338 59.4353002 137.528911 59.3802466 137.440955 59.3247224 137.343121 59.2720215 137.258927 59.2164973 137.173323 59.1614436 137.085366 59.1087427 136.998821 59.0555712 136.325271 58.6283173 135.777307 58.2236495 135.386441 57.8989742 135.294251 57.8156879 135.194066 57.7404009 135.115987 57.6674666L135.05437 57.6124129C135.035556 57.5950028 135.018153 57.5775927 134.996516 57.559712 134.952773 57.5244212 134.925022 57.4891304 134.88222 57.4538396 134.852117 57.4185488 134.809315 57.383258 134.780153 57.3456145L134.727943 57.2929136 134.679967 57.2350367C134.614587 57.1597497 134.556734 57.0764634 134.497939 56.9837662 134.266524 56.6238001 134.143291 56.0506776 134.165868 55.402268 134.184682 54.7562112 134.328141 54.0593356 134.501232 53.4208075 134.679026 52.7818088 134.885042 52.1908056 135.070832 51.6957933 135.166315 51.4416996 135.25286 51.2177207 135.328117 51.0191511 135.409018 50.8177583 135.47769 50.6469509 135.534603 50.508611 135.652662 50.2220497 135.71569 50.0686524 135.71569 50.0686524 135.71569 50.0686524 135.54354 50.0710051 135.233105 50.1166478 135.076947 50.139234 134.885983 50.1717015 134.666326 50.2220497 134.445259 50.2723979 134.192208 50.3378035 133.914698 50.4281479 133.359208 50.6093074 132.697888 50.8756352 131.976832 51.3080651 131.25907 51.7433183 130.468402 52.3343215 129.729473 53.234472 129.363536 53.6843121 129.007006 54.2127329 128.715386 54.8413796 128.420002 55.4672031 128.184825 56.1965462 128.078054 56.9988236 128.047951 57.1973932 128.031959 57.4034914 128.015496 57.6100602 128.010323 57.8156879 127.999975 58.0274327 128.010323 58.2387069 128.014085 58.6631376 128.068176 59.0903915 128.143433 59.5162338 128.301943 60.3655656 128.598267 61.1857237 128.970319 61.9343591 129.347544 62.6844062 129.803319 63.3558724 130.29484 63.961933 130.788714 64.5675231 131.321627 65.1058253 131.871002 65.5909561 132.144749 65.8276398 132.426963 66.0615001 132.709176 66.275127 132.851224 66.3857049 132.993271 66.488754 133.13673 66.5918031L133.351212 66.7423772 133.405773 66.782844 133.419413 66.7931959C133.390722 66.7729625 133.502196 66.8458969 133.359208 66.7527292L133.380374 66.7677866 133.46739 66.8308395 133.805105 67.0745812C133.855433 67.1197534 133.907172 67.1653962 133.961263 67.2053924 133.984781 67.2204498 134.021469 67.2557406 134.053923 67.2835027 134.086848 67.3107943 134.119303 67.3390269 134.153168 67.3663185 134.223722 67.4190194 134.279224 67.4768963 134.34037 67.5295972 134.580722 67.7460474 134.779212 67.949793 134.937722 68.1304818 135.095761 68.3144645 135.218994 68.4753906 135.327176 68.6339639 135.436299 68.7920666 135.523315 68.9525221 135.608919 69.1543855 135.690291 69.352955 135.764607 69.5891681 135.805998 69.8757293 135.899129 70.4436759 135.875141 71.1786655 135.764607 71.9480049 135.655485 72.7168737 135.466402 73.5215039 135.259445 74.2936665M175.365502 36.3165349C174.91302 36.7037926 174.455364 37.1564559 174.020755 37.7046396 173.799218 37.9761434 173.59085 38.2754094 173.387186 38.597732 173.285589 38.7581875 173.186344 38.9266422 173.092273 39.1002729 173.001494 39.2786091 172.904601 39.4550631 172.821819 39.6456334 172.473755 40.3980331 172.200949 41.2704216 172.077716 42.2279785 172.058902 42.3489083 172.046202 42.4698381 172.035854 42.5902974 172.025977 42.7135799 172.012336 42.8345097 172.007162 42.9601449 172.001989 43.20671 171.992111 43.4579804 172.004811 43.7092509 172.012336 44.2146151 172.077716 44.7228026 172.171787 45.2305195 172.273854 45.7311782 172.399439 46.2388952 172.576763 46.7169678 172.745151 47.2020986 172.945992 47.6646433 173.171293 48.1149539 173.626127 49.0075758 174.175502 49.8122059 174.770973 50.5391963 175.366443 51.2633634 176.01036 51.9070676 176.674973 52.4900715 177.006574 52.7766328 177.3457 53.0584886 177.68906 53.3149351 177.86121 53.4504517 178.03336 53.5742048 178.205981 53.6974873L178.467028 53.8833522 178.532408 53.9289949 178.550281 53.9384058C178.517356 53.918643 178.645763 54.0042819 178.481139 53.8955863L178.507479 53.9129964 178.614249 53.9915773 179.030044 54.2903727C179.098245 54.3506023 179.165977 54.4061265 179.237471 54.4592979 179.268985 54.4814135 179.31555 54.524233 179.356941 54.5599944 179.399743 54.5952851 179.441135 54.6329287 179.485348 54.6677489 179.575657 54.7359778 179.64621 54.8089121 179.72523 54.8761999 180.035664 55.155703 180.29436 55.4225014 180.504609 55.6685959 180.714388 55.9151609 180.879012 56.1414926 181.019649 56.3650009 181.161696 56.5889799 181.27223 56.8200169 181.373826 57.0943441 181.47166 57.3682006 181.557736 57.6853473 181.599127 58.0575475 181.694609 58.7944193 181.637696 59.7166855 181.477305 60.6700075 181.317384 61.6256823 181.062451 62.6114719 180.784471 63.549266 180.50555 64.4894128 180.206404 65.3895633 179.92372 66.2068982 179.628336 67.0472897 179.370581 67.778515 179.157981 68.3798701 179.048858 68.6941935 178.950083 68.9755788 178.864479 69.2193205 178.776052 69.4658856 178.703617 69.6795125 178.642941 69.855496 178.523471 70.2126388 178.459502 70.4013269 178.459502 70.4013269 178.459502 70.4013269 178.663166 70.3712121 179.027692 70.2728684 179.211131 70.2276962 179.43455 70.1651139 179.689953 70.0771222 179.949119 69.9966591 180.24168 69.8912573 180.563404 69.7627988 181.205439 69.5063523 181.966004 69.1515622 182.798064 68.6664314 183.629653 68.18083 184.532265 67.564888 185.452281 66.7706098 186.369945 65.9730378 187.308305 64.9999529 188.164352 63.7600696 189.013815 62.5230096 189.793194 61.0045643 190.220747 59.1238001 190.430056 58.1878882 190.531182 57.1545737 190.481795 56.0807924 190.431467 55.0074816 190.225451 53.8885281 189.843522 52.8298043 189.467708 51.7710804 188.936206 50.7754094 188.312514 49.8950216 187.690704 49.0174572 186.983289 48.2532938 186.246242 47.5945323 186.061862 47.430783 185.876072 47.2651515 185.6884 47.1188123L185.404775 46.8929513C185.309293 46.8195464 185.220866 46.7470826 185.110332 46.6689723 184.898202 46.5160455 184.683249 46.3645304 184.466886 46.2163091 184.436783 46.1960757 184.41938 46.1838415 184.401506 46.1734896L184.346004 46.1386693 184.23453 46.0680877 184.012052 45.9273951 183.900107 45.8591662 183.765585 45.7739977 183.721842 45.7462356 183.545929 45.6431865C183.426459 45.5754282 183.307929 45.5048466 183.197866 45.434265 183.087332 45.364154 182.966451 45.2987484 182.861091 45.2281668 182.752909 45.1575852 182.643317 45.0921796 182.535135 45.0248918 181.690846 44.4790608 180.998483 43.9482872 180.504609 43.5026821 180.387491 43.3873988 180.261906 43.2848203 180.163601 43.1789479 180.138672 43.1535385 180.109981 43.1262469 180.085992 43.1008376 180.063415 43.0754282 180.040368 43.0509599 180.014028 43.0255505 179.959937 42.9752023 179.925131 42.9248541 179.872451 42.8749765 179.834352 42.8241577 179.784494 42.7742801 179.748747 42.7211086L179.684779 42.6429983 179.627396 42.5625353C179.549317 42.4547807 179.481115 42.3390269 179.414795 42.2133917 179.149514 41.7179089 179.033807 40.9890363 179.09072 40.1844062 179.1434 39.3793055 179.345653 38.5295031 179.58036 37.757811 179.819301 36.9804724 180.093518 36.2708922 180.334811 35.6756541 180.461807 35.3712121 180.573281 35.102061 180.671585 34.8682006 180.776945 34.6268116 180.866313 34.4207133 180.939218 34.2574346 181.092554 33.9148786 181.174396 33.7313665 181.174396 33.7313665 181.174396 33.7313665 180.967909 33.7417184 180.594917 33.807124 180.409127 33.8424148 180.178653 33.8875871 179.916194 33.9581686 179.649502 34.0231037 179.347064 34.1087427 179.014992 34.2273198 178.348969 34.4607096 177.55736 34.802795 176.695198 35.3410973 176.588427 35.4116789 176.477423 35.4794372 176.368301 35.551901 176.260119 35.6276586 176.148645 35.7029456 176.039052 35.7862319 175.815633 35.9471579 175.590332 36.1231414 175.365502 36.3165349"/>
    </g>
  </g>
</svg>
