<svg xmlns="http://www.w3.org/2000/svg" width="255" height="37" viewBox="0 0 255 37">
  <path fill="#A5B6F3" fill-rule="evenodd" d="M4191.57943,1330.576 C4198.05943,1330.576 4202.71543,1327.168 4202.71543,1321.168 C4202.71543,1315.312 4198.44343,1313.344 4192.77943,1311.328 C4189.61143,1310.176 4186.97143,1309.024 4186.97143,1306.432 C4186.97143,1304.128 4188.79543,1302.544 4191.91543,1302.544 C4193.88343,1302.544 4195.22743,1302.976 4196.09143,1303.504 C4195.89943,1303.888 4195.75543,1304.224 4195.75543,1304.992 C4195.75543,1306.576 4197.00343,1308.208 4199.21143,1308.208 C4201.03543,1308.208 4202.42743,1306.912 4202.42743,1304.656 C4202.42743,1300.864 4197.86743,1297.84 4191.96343,1297.84 C4185.57943,1297.84 4181.49943,1301.776 4181.49943,1306.816 C4181.49943,1312.672 4185.62743,1314.544 4191.48343,1316.656 C4194.65143,1317.76 4197.29143,1319.008 4197.29143,1321.6 C4197.29143,1324.336 4195.08343,1325.872 4191.62743,1325.872 C4189.56343,1325.872 4187.78743,1325.344 4186.63543,1324.528 C4186.92343,1323.952 4187.06743,1323.376 4187.06743,1322.608 C4187.06743,1321.072 4185.72343,1319.488 4183.61143,1319.488 C4181.64343,1319.488 4180.29943,1320.976 4180.29943,1323.232 C4180.29943,1327.072 4185.33943,1330.576 4191.57943,1330.576 Z M4219.61143,1330.384 C4216.92343,1330.384 4215.00343,1329.424 4213.22743,1327.984 L4212.07543,1330.096 L4208.52343,1330.096 L4208.52343,1299.28 L4205.35543,1299.28 L4205.35543,1294.864 L4213.75543,1294.864 L4213.75543,1311.28 C4215.29143,1309.792 4217.25943,1308.592 4219.94743,1308.592 C4225.51543,1308.592 4229.69143,1313.056 4229.69143,1319.392 C4229.69143,1325.488 4225.27543,1330.384 4219.61143,1330.384 Z M4218.74743,1325.872 C4221.67543,1325.872 4224.31543,1323.616 4224.31543,1319.44 C4224.31543,1315.408 4221.81943,1313.104 4218.74743,1313.104 C4216.77943,1313.104 4215.19543,1313.968 4213.75543,1315.216 L4213.75543,1324.24 C4215.14743,1325.2 4216.77943,1325.872 4218.74743,1325.872 Z M4244.13943,1330.384 C4237.17943,1330.384 4232.95543,1325.344 4232.95543,1319.488 C4232.95543,1313.728 4237.27543,1308.592 4244.13943,1308.592 C4251.09943,1308.592 4255.32343,1313.632 4255.32343,1319.488 C4255.32343,1325.248 4251.00343,1330.384 4244.13943,1330.384 Z M4244.13943,1326.016 C4247.54743,1326.016 4249.94743,1323.328 4249.94743,1319.488 C4249.94743,1315.648 4247.54743,1312.96 4244.13943,1312.96 C4240.73143,1312.96 4238.33143,1315.648 4238.33143,1319.488 C4238.33143,1323.328 4240.73143,1326.016 4244.13943,1326.016 Z M4269.77143,1330.384 C4262.81143,1330.384 4258.58743,1325.344 4258.58743,1319.488 C4258.58743,1313.728 4262.90743,1308.592 4269.77143,1308.592 C4276.73143,1308.592 4280.95543,1313.632 4280.95543,1319.488 C4280.95543,1325.248 4276.63543,1330.384 4269.77143,1330.384 Z M4269.77143,1326.016 C4273.17943,1326.016 4275.57943,1323.328 4275.57943,1319.488 C4275.57943,1315.648 4273.17943,1312.96 4269.77143,1312.96 C4266.36343,1312.96 4263.96343,1315.648 4263.96343,1319.488 C4263.96343,1323.328 4266.36343,1326.016 4269.77143,1326.016 Z M4292.23543,1308.976 L4284.07543,1308.976 L4284.07543,1313.392 L4287.19543,1313.392 L4287.19543,1325.68 L4284.07543,1325.68 L4284.07543,1330 L4295.30743,1330 L4295.30743,1325.68 L4292.42743,1325.68 L4292.42743,1315.792 C4294.10743,1314.4 4296.02743,1313.344 4297.85143,1313.344 C4299.09943,1313.344 4299.96343,1313.824 4300.44343,1314.736 C4300.73143,1315.264 4300.87543,1316.032 4300.87543,1316.896 L4300.87543,1325.68 L4297.99543,1325.68 L4297.99543,1330 L4309.22743,1330 L4309.22743,1325.68 L4306.10743,1325.68 L4306.10743,1315.6 C4306.10743,1313.872 4305.72343,1312.432 4305.00343,1311.28 C4303.89943,1309.6 4302.07543,1308.592 4299.57943,1308.592 C4296.50743,1308.592 4294.25143,1310.368 4292.23543,1312.336 L4292.23543,1308.976 Z M4322.33143,1330 L4322.33143,1325.152 L4325.93143,1325.152 L4325.93143,1303.264 L4322.33143,1303.264 L4322.33143,1298.416 L4335.05143,1298.416 C4341.81943,1298.416 4347.00343,1302.304 4347.00343,1308.736 C4347.00343,1315.984 4341.86743,1319.536 4334.42743,1319.536 C4332.93943,1319.536 4332.02743,1319.536 4331.35543,1319.488 L4331.35543,1325.152 L4335.29143,1325.152 L4335.29143,1330 L4322.33143,1330 Z M4334.90743,1314.784 C4338.98743,1314.784 4341.38743,1312.48 4341.38743,1308.736 C4341.38743,1305.424 4338.65143,1303.264 4334.76343,1303.264 L4331.35543,1303.264 L4331.35543,1314.688 C4331.93143,1314.736 4332.69943,1314.784 4334.90743,1314.784 Z M4349.69143,1330 L4361.30743,1330 L4361.30743,1325.68 L4358.18743,1325.68 L4358.18743,1294.864 L4349.69143,1294.864 L4349.69143,1299.28 L4352.95543,1299.28 L4352.95543,1325.68 L4349.69143,1325.68 L4349.69143,1330 Z M4371.09943,1330.384 C4367.49943,1330.384 4364.28343,1328.416 4364.28343,1324.48 C4364.28343,1320.544 4367.73943,1318.144 4372.73143,1318.144 C4374.89143,1318.144 4376.90743,1318.432 4378.05943,1318.72 L4378.05943,1317.04 C4378.05943,1315.792 4377.77143,1314.832 4377.24343,1314.16 C4376.37943,1313.056 4374.98743,1312.624 4373.11543,1312.624 C4372.20343,1312.624 4371.53143,1312.768 4371.05143,1312.96 C4371.14743,1313.248 4371.24343,1313.728 4371.24343,1314.016 C4371.24343,1315.6 4369.99543,1316.752 4368.41143,1316.752 C4366.82743,1316.752 4365.62743,1315.648 4365.62743,1313.92 C4365.62743,1311.328 4368.26743,1308.592 4373.97943,1308.592 C4377.57943,1308.592 4380.02743,1309.6 4381.51543,1311.424 C4382.61943,1312.768 4383.14743,1314.592 4383.14743,1316.704 L4383.14743,1325.68 L4386.26743,1325.68 L4386.26743,1330 L4378.15543,1330 L4378.15543,1327.696 C4376.47543,1329.136 4373.93143,1330.384 4371.09943,1330.384 Z M4372.77943,1326.592 C4374.65143,1326.592 4376.47543,1325.872 4378.05943,1324.72 L4378.05943,1321.408 C4376.85943,1321.12 4375.37143,1320.928 4373.73943,1320.928 C4371.19543,1320.928 4369.65943,1322.08 4369.65943,1324 C4369.65943,1325.68 4370.90743,1326.592 4372.77943,1326.592 Z M4396.68343,1308.976 L4388.52343,1308.976 L4388.52343,1313.392 L4391.64343,1313.392 L4391.64343,1325.68 L4388.52343,1325.68 L4388.52343,1330 L4399.75543,1330 L4399.75543,1325.68 L4396.87543,1325.68 L4396.87543,1315.792 C4398.55543,1314.4 4400.47543,1313.344 4402.29943,1313.344 C4403.54743,1313.344 4404.41143,1313.824 4404.89143,1314.736 C4405.17943,1315.264 4405.32343,1316.032 4405.32343,1316.896 L4405.32343,1325.68 L4402.44343,1325.68 L4402.44343,1330 L4413.67543,1330 L4413.67543,1325.68 L4410.55543,1325.68 L4410.55543,1315.6 C4410.55543,1313.872 4410.17143,1312.432 4409.45143,1311.28 C4408.34743,1309.6 4406.52343,1308.592 4404.02743,1308.592 C4400.95543,1308.592 4398.69943,1310.368 4396.68343,1312.336 L4396.68343,1308.976 Z M4433.93143,1313.632 C4433.93143,1312.624 4433.54743,1311.712 4432.77943,1310.944 C4431.33943,1309.504 4428.26743,1308.544 4425.72343,1308.544 C4419.81943,1308.544 4417.13143,1311.952 4417.13143,1315.216 C4417.13143,1318.816 4419.57943,1320.208 4425.38743,1321.744 C4428.60343,1322.608 4429.51543,1323.232 4429.51543,1324.288 C4429.51543,1325.824 4427.78743,1326.544 4425.67543,1326.544 C4424.18743,1326.544 4422.84343,1326.256 4421.88343,1325.872 C4421.93143,1325.584 4421.97943,1325.296 4421.97943,1325.008 C4421.97943,1323.184 4420.58743,1322.224 4419.14743,1322.224 C4417.51543,1322.224 4416.36343,1323.52 4416.36343,1325.056 C4416.36343,1326.16 4416.69943,1327.024 4417.56343,1327.888 C4418.95543,1329.28 4422.41143,1330.432 4425.62743,1330.432 C4430.37943,1330.432 4434.50743,1328.08 4434.50743,1323.664 C4434.50743,1319.872 4431.57943,1318.624 4426.53943,1317.28 C4423.32343,1316.416 4422.12343,1315.792 4422.12343,1314.592 C4422.12343,1313.488 4423.27543,1312.432 4425.62743,1312.432 C4426.68343,1312.432 4427.73943,1312.624 4428.60343,1312.96 C4428.50743,1313.248 4428.50743,1313.536 4428.50743,1313.872 C4428.50743,1315.456 4429.65943,1316.464 4431.33943,1316.464 C4432.87543,1316.464 4433.93143,1315.312 4433.93143,1313.632 Z" transform="translate(-4180 -1294)"/>
</svg>
