<svg xmlns="http://www.w3.org/2000/svg" width="363" height="46" viewBox="0 0 363 46">
  <path fill="#A5B6F3" fill-rule="evenodd" d="M4593,1839.136 L4605.96,1839.136 L4605.96,1834.288 L4602.024,1834.288 L4602.024,1825.504 L4616.616,1825.504 L4616.616,1834.288 L4612.68,1834.288 L4612.68,1839.136 L4625.64,1839.136 L4625.64,1834.288 L4622.04,1834.288 L4622.04,1812.4 L4625.64,1812.4 L4625.64,1807.552 L4612.68,1807.552 L4612.68,1812.4 L4616.616,1812.4 L4616.616,1820.752 L4602.024,1820.752 L4602.024,1812.4 L4605.96,1812.4 L4605.96,1807.552 L4593,1807.552 L4593,1812.4 L4596.6,1812.4 L4596.6,1834.288 L4593,1834.288 L4593,1839.136 Z M4640.232,1839.52 C4633.272,1839.52 4629.048,1834.48 4629.048,1828.624 C4629.048,1822.864 4633.368,1817.728 4640.232,1817.728 C4647.192,1817.728 4651.416,1822.768 4651.416,1828.624 C4651.416,1834.384 4647.096,1839.52 4640.232,1839.52 Z M4640.232,1835.152 C4643.64,1835.152 4646.04,1832.464 4646.04,1828.624 C4646.04,1824.784 4643.64,1822.096 4640.232,1822.096 C4636.824,1822.096 4634.424,1824.784 4634.424,1828.624 C4634.424,1832.464 4636.824,1835.152 4640.232,1835.152 Z M4661.544,1839.952 L4665.24,1839.952 L4670.472,1827.088 L4675.704,1839.952 L4679.4,1839.952 L4684.584,1822.528 L4687.656,1822.528 L4687.656,1818.112 L4676.856,1818.112 L4676.856,1822.432 L4680.312,1822.432 L4677.432,1832.752 L4672.536,1820.272 L4668.936,1820.272 L4663.992,1832.752 L4661.112,1822.432 L4664.088,1822.432 L4664.088,1818.112 L4653.288,1818.112 L4653.288,1822.528 L4656.36,1822.528 L4661.544,1839.952 Z M4709.352,1839.52 C4711.272,1839.52 4712.952,1838.992 4714.392,1838.272 L4714.824,1833.76 C4713.576,1834.336 4712.04,1834.864 4710.696,1834.864 C4709.64,1834.864 4708.872,1834.528 4708.488,1833.856 C4708.248,1833.424 4708.152,1832.992 4708.152,1832.32 L4708.152,1822.528 L4714.536,1822.528 L4714.536,1818.112 L4708.152,1818.112 L4708.152,1811.44 L4702.968,1813.696 L4702.968,1818.112 L4698.888,1818.112 L4698.888,1822.528 L4702.968,1822.528 L4702.968,1833.328 C4702.968,1834.672 4703.208,1835.776 4703.688,1836.64 C4704.744,1838.656 4706.808,1839.52 4709.352,1839.52 Z M4728.984,1839.52 C4722.024,1839.52 4717.8,1834.48 4717.8,1828.624 C4717.8,1822.864 4722.12,1817.728 4728.984,1817.728 C4735.944,1817.728 4740.168,1822.768 4740.168,1828.624 C4740.168,1834.384 4735.848,1839.52 4728.984,1839.52 Z M4728.984,1835.152 C4732.392,1835.152 4734.792,1832.464 4734.792,1828.624 C4734.792,1824.784 4732.392,1822.096 4728.984,1822.096 C4725.576,1822.096 4723.176,1824.784 4723.176,1828.624 C4723.176,1832.464 4725.576,1835.152 4728.984,1835.152 Z M4771.848,1822.768 C4771.848,1821.76 4771.464,1820.848 4770.696,1820.08 C4769.256,1818.64 4766.184,1817.68 4763.64,1817.68 C4757.736,1817.68 4755.048,1821.088 4755.048,1824.352 C4755.048,1827.952 4757.496,1829.344 4763.304,1830.88 C4766.52,1831.744 4767.432,1832.368 4767.432,1833.424 C4767.432,1834.96 4765.704,1835.68 4763.592,1835.68 C4762.104,1835.68 4760.76,1835.392 4759.8,1835.008 C4759.848,1834.72 4759.896,1834.432 4759.896,1834.144 C4759.896,1832.32 4758.504,1831.36 4757.064,1831.36 C4755.432,1831.36 4754.28,1832.656 4754.28,1834.192 C4754.28,1835.296 4754.616,1836.16 4755.48,1837.024 C4756.872,1838.416 4760.328,1839.568 4763.544,1839.568 C4768.296,1839.568 4772.424,1837.216 4772.424,1832.8 C4772.424,1829.008 4769.496,1827.76 4764.456,1826.416 C4761.24,1825.552 4760.04,1824.928 4760.04,1823.728 C4760.04,1822.624 4761.192,1821.568 4763.544,1821.568 C4764.6,1821.568 4765.656,1821.76 4766.52,1822.096 C4766.424,1822.384 4766.424,1822.672 4766.424,1823.008 C4766.424,1824.592 4767.576,1825.6 4769.256,1825.6 C4770.792,1825.6 4771.848,1824.448 4771.848,1822.768 Z M4788.936,1839.52 C4786.248,1839.52 4784.328,1838.56 4782.552,1837.12 L4781.4,1839.232 L4777.848,1839.232 L4777.848,1808.416 L4774.68,1808.416 L4774.68,1804 L4783.08,1804 L4783.08,1820.416 C4784.616,1818.928 4786.584,1817.728 4789.272,1817.728 C4794.84,1817.728 4799.016,1822.192 4799.016,1828.528 C4799.016,1834.624 4794.6,1839.52 4788.936,1839.52 Z M4788.072,1835.008 C4791,1835.008 4793.64,1832.752 4793.64,1828.576 C4793.64,1824.544 4791.144,1822.24 4788.072,1822.24 C4786.104,1822.24 4784.52,1823.104 4783.08,1824.352 L4783.08,1833.376 C4784.472,1834.336 4786.104,1835.008 4788.072,1835.008 Z M4813.464,1839.52 C4806.504,1839.52 4802.28,1834.48 4802.28,1828.624 C4802.28,1822.864 4806.6,1817.728 4813.464,1817.728 C4820.424,1817.728 4824.648,1822.768 4824.648,1828.624 C4824.648,1834.384 4820.328,1839.52 4813.464,1839.52 Z M4813.464,1835.152 C4816.872,1835.152 4819.272,1832.464 4819.272,1828.624 C4819.272,1824.784 4816.872,1822.096 4813.464,1822.096 C4810.056,1822.096 4807.656,1824.784 4807.656,1828.624 C4807.656,1832.464 4810.056,1835.152 4813.464,1835.152 Z M4839.096,1839.52 C4832.136,1839.52 4827.912,1834.48 4827.912,1828.624 C4827.912,1822.864 4832.232,1817.728 4839.096,1817.728 C4846.056,1817.728 4850.28,1822.768 4850.28,1828.624 C4850.28,1834.384 4845.96,1839.52 4839.096,1839.52 Z M4839.096,1835.152 C4842.504,1835.152 4844.904,1832.464 4844.904,1828.624 C4844.904,1824.784 4842.504,1822.096 4839.096,1822.096 C4835.688,1822.096 4833.288,1824.784 4833.288,1828.624 C4833.288,1832.464 4835.688,1835.152 4839.096,1835.152 Z M4861.56,1818.112 L4853.4,1818.112 L4853.4,1822.528 L4856.52,1822.528 L4856.52,1834.816 L4853.4,1834.816 L4853.4,1839.136 L4864.632,1839.136 L4864.632,1834.816 L4861.752,1834.816 L4861.752,1824.928 C4863.432,1823.536 4865.352,1822.48 4867.176,1822.48 C4868.424,1822.48 4869.288,1822.96 4869.768,1823.872 C4870.056,1824.4 4870.2,1825.168 4870.2,1826.032 L4870.2,1834.816 L4867.32,1834.816 L4867.32,1839.136 L4878.552,1839.136 L4878.552,1834.816 L4875.432,1834.816 L4875.432,1824.736 C4875.432,1823.008 4875.048,1821.568 4874.328,1820.416 C4873.224,1818.736 4871.4,1817.728 4868.904,1817.728 C4865.832,1817.728 4863.576,1819.504 4861.56,1821.472 L4861.56,1818.112 Z" transform="translate(-4516 -1799)"/>
</svg>
