<svg xmlns="http://www.w3.org/2000/svg" width="363" height="46" viewBox="0 0 363 46">
  <path fill="#A5B6F3" fill-rule="evenodd" d="M5081.448,894.864 L5085.864,894.864 L5084.664,902.352 L5090.808,902.352 L5092.008,894.864 L5096.424,894.864 L5095.224,902.352 L5099.4,902.352 L5098.776,906.288 L5094.6,906.288 L5092.824,917.712 L5097.576,917.712 L5096.952,921.648 L5092.2,921.648 L5091,929.136 L5086.536,929.136 L5087.736,921.648 L5081.64,921.648 L5080.44,929.136 L5075.976,929.136 L5077.176,921.648 L5073,921.648 L5073.624,917.712 L5077.8,917.712 L5079.624,906.288 L5074.824,906.288 L5075.448,902.352 L5080.248,902.352 L5081.448,894.864 Z M5082.264,917.712 L5088.36,917.712 L5090.184,906.288 L5084.04,906.288 L5082.264,917.712 Z M5132.712,912.528 L5132.712,929.184 C5132.712,931.776 5132.04,933.936 5130.744,935.52 C5129.016,937.632 5126.28,938.736 5122.872,938.736 C5119.224,938.736 5116.104,937.584 5114.616,936.096 C5113.8,935.28 5113.464,934.368 5113.464,933.36 C5113.464,931.872 5114.568,930.432 5116.296,930.432 C5117.928,930.432 5119.224,931.584 5119.224,933.168 C5119.224,933.408 5119.176,933.792 5119.128,933.984 C5119.992,934.272 5121,934.512 5122.248,934.512 C5124.12,934.512 5125.608,933.936 5126.52,932.688 C5127.144,931.824 5127.48,930.624 5127.48,929.04 L5127.48,926.016 C5125.896,927.6 5124.216,928.704 5121.432,928.704 C5116.104,928.704 5111.832,924.624 5111.832,918.384 C5111.832,912.384 5116.2,907.728 5121.672,907.728 C5124.36,907.728 5126.28,908.784 5127.672,909.984 L5127.672,908.112 L5135.832,908.112 L5135.832,912.528 L5132.712,912.528 Z M5122.776,912.24 C5119.56,912.24 5117.208,914.352 5117.208,918.336 C5117.208,922.176 5119.56,924.288 5122.776,924.288 C5124.552,924.288 5126.136,923.472 5127.48,922.224 L5127.48,913.872 C5126.232,912.912 5124.648,912.24 5122.776,912.24 Z M5149.752,929.52 C5142.792,929.52 5138.568,924.48 5138.568,918.624 C5138.568,912.864 5142.888,907.728 5149.752,907.728 C5156.712,907.728 5160.936,912.768 5160.936,918.624 C5160.936,924.384 5156.616,929.52 5149.752,929.52 Z M5149.752,925.152 C5153.16,925.152 5155.56,922.464 5155.56,918.624 C5155.56,914.784 5153.16,912.096 5149.752,912.096 C5146.344,912.096 5143.944,914.784 5143.944,918.624 C5143.944,922.464 5146.344,925.152 5149.752,925.152 Z M5173.464,929.52 C5175.384,929.52 5177.064,928.992 5178.504,928.272 L5178.936,923.76 C5177.688,924.336 5176.152,924.864 5174.808,924.864 C5173.752,924.864 5172.984,924.528 5172.6,923.856 C5172.36,923.424 5172.264,922.992 5172.264,922.32 L5172.264,912.528 L5178.648,912.528 L5178.648,908.112 L5172.264,908.112 L5172.264,901.44 L5167.08,903.696 L5167.08,908.112 L5163,908.112 L5163,912.528 L5167.08,912.528 L5167.08,923.328 C5167.08,924.672 5167.32,925.776 5167.8,926.64 C5168.856,928.656 5170.92,929.52 5173.464,929.52 Z M5199.768,912.768 C5199.768,911.76 5199.384,910.848 5198.616,910.08 C5197.176,908.64 5194.104,907.68 5191.56,907.68 C5185.656,907.68 5182.968,911.088 5182.968,914.352 C5182.968,917.952 5185.416,919.344 5191.224,920.88 C5194.44,921.744 5195.352,922.368 5195.352,923.424 C5195.352,924.96 5193.624,925.68 5191.512,925.68 C5190.024,925.68 5188.68,925.392 5187.72,925.008 C5187.768,924.72 5187.816,924.432 5187.816,924.144 C5187.816,922.32 5186.424,921.36 5184.984,921.36 C5183.352,921.36 5182.2,922.656 5182.2,924.192 C5182.2,925.296 5182.536,926.16 5183.4,927.024 C5184.792,928.416 5188.248,929.568 5191.464,929.568 C5196.216,929.568 5200.344,927.216 5200.344,922.8 C5200.344,919.008 5197.416,917.76 5192.376,916.416 C5189.16,915.552 5187.96,914.928 5187.96,913.728 C5187.96,912.624 5189.112,911.568 5191.464,911.568 C5192.52,911.568 5193.576,911.76 5194.44,912.096 C5194.344,912.384 5194.344,912.672 5194.344,913.008 C5194.344,914.592 5195.496,915.6 5197.176,915.6 C5198.712,915.6 5199.768,914.448 5199.768,912.768 Z M5216.856,929.52 C5214.168,929.52 5212.248,928.56 5210.472,927.12 L5209.32,929.232 L5205.768,929.232 L5205.768,898.416 L5202.6,898.416 L5202.6,894 L5211,894 L5211,910.416 C5212.536,908.928 5214.504,907.728 5217.192,907.728 C5222.76,907.728 5226.936,912.192 5226.936,918.528 C5226.936,924.624 5222.52,929.52 5216.856,929.52 Z M5215.992,925.008 C5218.92,925.008 5221.56,922.752 5221.56,918.576 C5221.56,914.544 5219.064,912.24 5215.992,912.24 C5214.024,912.24 5212.44,913.104 5211,914.352 L5211,923.376 C5212.392,924.336 5214.024,925.008 5215.992,925.008 Z M5241.384,929.52 C5234.424,929.52 5230.2,924.48 5230.2,918.624 C5230.2,912.864 5234.52,907.728 5241.384,907.728 C5248.344,907.728 5252.568,912.768 5252.568,918.624 C5252.568,924.384 5248.248,929.52 5241.384,929.52 Z M5241.384,925.152 C5244.792,925.152 5247.192,922.464 5247.192,918.624 C5247.192,914.784 5244.792,912.096 5241.384,912.096 C5237.976,912.096 5235.576,914.784 5235.576,918.624 C5235.576,922.464 5237.976,925.152 5241.384,925.152 Z M5267.016,929.52 C5260.056,929.52 5255.832,924.48 5255.832,918.624 C5255.832,912.864 5260.152,907.728 5267.016,907.728 C5273.976,907.728 5278.2,912.768 5278.2,918.624 C5278.2,924.384 5273.88,929.52 5267.016,929.52 Z M5267.016,925.152 C5270.424,925.152 5272.824,922.464 5272.824,918.624 C5272.824,914.784 5270.424,912.096 5267.016,912.096 C5263.608,912.096 5261.208,914.784 5261.208,918.624 C5261.208,922.464 5263.608,925.152 5267.016,925.152 Z M5289.48,908.112 L5281.32,908.112 L5281.32,912.528 L5284.44,912.528 L5284.44,924.816 L5281.32,924.816 L5281.32,929.136 L5292.552,929.136 L5292.552,924.816 L5289.672,924.816 L5289.672,914.928 C5291.352,913.536 5293.272,912.48 5295.096,912.48 C5296.344,912.48 5297.208,912.96 5297.688,913.872 C5297.976,914.4 5298.12,915.168 5298.12,916.032 L5298.12,924.816 L5295.24,924.816 L5295.24,929.136 L5306.472,929.136 L5306.472,924.816 L5303.352,924.816 L5303.352,914.736 C5303.352,913.008 5302.968,911.568 5302.248,910.416 C5301.144,908.736 5299.32,907.728 5296.824,907.728 C5293.752,907.728 5291.496,909.504 5289.48,911.472 L5289.48,908.112 Z M5329.512,920.4 L5314.344,920.4 C5315.064,923.664 5317.752,925.104 5321.256,925.104 C5323.8,925.104 5326.44,924.288 5328.888,922.896 L5328.456,927.6 C5326.248,928.896 5323.56,929.52 5320.488,929.52 C5313.624,929.52 5308.872,925.2 5308.872,918.672 C5308.872,912.72 5313.048,907.728 5319.528,907.728 C5326.248,907.728 5329.752,912.24 5329.752,917.808 C5329.752,918.624 5329.656,919.68 5329.512,920.4 Z M5319.48,911.952 C5317.176,911.952 5314.872,913.296 5314.296,916.752 L5324.52,916.752 C5324.424,913.872 5322.552,911.952 5319.48,911.952 Z M5342.616,929.52 C5337.048,929.52 5332.872,925.056 5332.872,918.72 C5332.872,912.624 5337.288,907.728 5342.952,907.728 C5345.64,907.728 5347.608,908.736 5348.808,909.744 L5348.808,898.416 L5345.64,898.416 L5345.64,894 L5354.04,894 L5354.04,924.816 L5357.16,924.816 L5357.16,929.136 L5348.808,929.136 L5348.808,926.832 C5347.272,928.32 5345.304,929.52 5342.616,929.52 Z M5343.816,925.008 C5345.784,925.008 5347.368,924.144 5348.808,922.896 L5348.808,913.872 C5347.416,912.912 5345.784,912.24 5343.816,912.24 C5340.888,912.24 5338.248,914.496 5338.248,918.672 C5338.248,922.704 5340.744,925.008 5343.816,925.008 Z" transform="translate(-4994 -893)"/>
</svg>
