<svg xmlns="http://www.w3.org/2000/svg" width="186" height="205" viewBox="0 0 186 205">
  <g fill="none" fill-rule="evenodd" transform="translate(-51 -191)">
    <rect width="1440" height="3297" fill="#FFF"/>
    <g transform="translate(7 158)">
      <rect width="1340" height="240" x="44" fill="#F7F8F9"/>
      <g fill="#FFF" transform="translate(0 65)">
        <polygon points="52.097 143.219 72.424 143.219 70.603 151.107 50.27 151.107"/>
        <g transform="translate(0 .06)">
          <path d="M221.102534,112.708273 L218.500987,112.708273 C218.495075,142.301028 206.569346,169.066374 187.258771,188.466201 C167.954109,207.860088 141.311901,219.846877 111.84938,219.846877 C82.398684,219.846877 55.7505637,207.860088 36.4459015,188.466201 C17.1412393,169.066374 5.20959813,142.301028 5.20959813,112.708273 C5.20959813,83.1155183 17.1412393,56.3442324 36.4459015,36.9503454 C55.7505637,17.5564584 82.398684,5.56967007 111.84938,5.56967007 C141.311901,5.56967007 167.954109,17.5564584 187.258771,36.9503454 C206.569346,56.3442324 218.495075,83.1155183 218.500987,112.708273 L221.102534,112.708273 L223.704081,112.708273 C223.704081,81.6839941 211.18118,53.5762228 190.942325,33.249766 C170.715296,12.9173694 142.730927,0.336587552 111.84938,0.336587552 C80.9737457,0.336587552 52.9952888,12.9173694 32.7623473,33.249766 C12.5234931,53.5762228 -0.0053213464,81.6839941 0.000591260711,112.708273 C-0.0053213464,143.732553 12.5234931,171.840324 32.7623473,192.166781 C52.9952888,212.493237 80.9737457,225.079959 111.84938,225.074019 C142.730927,225.079959 170.715296,212.493237 190.942325,192.166781 C211.18118,171.840324 223.704081,143.732553 223.704081,112.708273 L221.102534,112.708273 Z"/>
          <path d="M134.471606 82.6082479C132.490883 85.1386601 129.729695 86.7780821 126.607839 86.7780821 124.136369 86.7780821 122.238422 86.0058906 120.943561 84.6515855 119.654613 83.3032203 118.974663 81.3727415 118.974663 79.0383471 118.974663 75.4803262 120.304999 71.952005 122.4158 69.3206139 124.526601 66.6892228 127.423778 64.9547618 130.539722 64.9547618 132.821989 64.9547618 134.595771 65.7982325 135.801943 67.2475766 137.008115 68.6850408 137.658501 70.7343183 137.658501 73.1459318 137.658501 76.6683132 136.452329 80.0778357 134.471606 82.6082479M141.407094 62.7926256C139.390895 60.4998107 136.428679 59.1811452 132.697824 59.1870852 130.521985 59.1870852 128.428922 59.9592767 126.572363 61.1769633 124.839969 62.3114908 123.403206 63.8321141 122.202946 65.4893559L128.068253 41.6820974C126.193956 42.9770032 124.562077 43.9452126 122.025568 43.9452126 119.560011 43.9452126 117.011677 43.4878376 115.06643 42.9354237 113.121182 42.5730876 110.797527 42.1157127 108.550737 42.1157127 100.545066 42.1157127 97.1748804 48.5249023 97.1748804 53.740165 97.1748804 55.9498207 97.6656268 57.8268401 98.4697414 59.6325803 97.1926183 59.3415235 95.8090682 59.1870852 94.3486542 59.1870852 90.363557 59.1870852 87.2594383 60.3097328 85.1545502 62.0857733 83.049662 63.8618138 81.9380919 66.2912471 81.9380919 68.8929386 81.9380919 71.48869 83.0319242 73.3657094 84.6815416 74.8328733 86.3252464 76.3000372 88.5247362 77.3632855 90.7537891 78.3730744 92.5334838 79.1512059 94.2185769 79.8818179 95.4543118 80.7431084 96.0692229 81.1707837 96.5717945 81.6281587 96.9147257 82.144933 97.2635695 82.6617073 97.452773 83.2319411 97.4586856 83.8853339 97.4586856 84.5209069 97.2813074 85.0792608 96.9797644 85.5544556 96.518581 86.2731877 95.7440295 86.8196617 94.7684493 87.1879376 93.7987818 87.5621535 92.6280856 87.7462915 91.3805255 87.7462915 89.0923465 87.7522314 86.9519827 87.2295172 85.4856562 86.4929652 85.0008224 86.2137883 84.6519786 85.9999507 84.374086 85.7385935 84.8057063 85.1980595 85.0835989 84.4021082 85.0835989 83.6596164 85.0835989 82.6676473 84.705192 81.7469574 84.0607179 81.0816847 83.4103311 80.4104721 82.493877 79.9946766 81.4355203 79.9946766 80.3357754 79.9946766 79.3601952 80.4520516 78.6684202 81.2123632 77.9766451 81.9786148 77.5627626 83.0418632 77.5627626 84.2595498 77.5627626 85.8514523 78.3136637 87.2948564 79.5907869 88.5719424 81.9913054 91.0548351 86.3134212 92.7001971 91.2327103 92.7001971 95.0345167 92.7001971 98.2273245 91.8210867 100.474115 90.1400852 102.720906 88.4531437 104.015767 85.9583711 104.015767 82.7626862 104.015767 80.2441539 102.939672 78.3671345 101.325531 76.8821508 99.7054763 75.3971671 97.5473747 74.2982792 95.3537974 73.2884903 93.4972388 72.4331397 91.7707575 71.6490683 90.5231974 70.7758979 89.8964611 70.3482226 89.3879769 69.8849077 89.039133 69.3918931 88.6902892 68.8988785 88.5010858 68.3702243 88.5010858 67.7762308 88.5010858 66.6535832 89.1278221 65.7744728 90.1625284 65.1567196 91.2031472 64.5389664 92.6576486 64.20633 94.2777029 64.20633 95.9036699 64.20633 97.452773 64.5033268 98.5525179 64.9488219 99.0846525 65.1507797 99.3684577 65.3408576 99.5813115 65.4893559 99.0905651 66.3447065 98.94275 66.8852406 98.94275 67.5505133 98.94275 69.5403914 100.610105 71.221393 102.667692 71.221393 103.690573 71.221393 104.648416 70.7996576 105.340191 70.0631057 106.031966 69.3265538 106.469499 68.2811253 106.469499 67.027799 106.469499 65.5131157 105.783636 63.9984323 104.583377 62.7926256 103.891602 62.0679535 103.016536 61.4383204 102.00548 60.9037263 101.30188 59.3534033 100.840697 57.6189424 100.840697 55.6647039 100.840697 49.7128892 104.955871 46.9686394 108.249194 46.9686394 109.82786 46.9686394 112.068738 47.0577384 114.019898 47.2418764 115.740467 47.5151134 117.981345 47.6992513 119.855641 47.6992513L119.873379 47.6992513 109.496754 92.1002637 116.290339 92.1002637 117.709365 85.5603955C118.874149 89.7599294 122.752819 92.7001971 127.423778 92.7001971 132.094738 92.7001971 136.369553 90.3895624 139.473672 86.6830432 142.57779 82.9765239 144.511213 77.86224 144.511213 72.2490017 144.511213 68.3583444 143.435118 65.0854404 141.407094 62.7926256M175.718545 155.149107L175.688982 155.232266C174.949906 157.269664 174.23448 158.56457 173.548618 159.342701 172.868668 160.114893 172.230106 160.37625 171.62702 160.37625 171.018022 160.37625 170.545013 160.162412 170.225733 159.776316 169.900539 159.390221 169.717248 158.814047 169.717248 158.089375 169.717248 157.513201 169.936015 156.473713 170.160694 155.511443L172.892318 146.072887 172.892318 146.066947C173.412628 144.207747 173.714171 142.413887 173.714171 140.839804 173.714171 137.958936 172.762241 135.666121 171.189488 134.097978 169.616734 132.529836 167.429069 131.686365 164.969425 131.686365 162.764022 131.686365 160.617746 132.589235 158.707974 134.044519 156.940104 135.392884 155.379176 137.222384 154.155266 139.265722L156.402057 132.203139 149.850888 132.203139 141.993034 164.421345 148.686105 164.421345 152.990483 146.957937C153.80051 143.774132 155.130847 141.356579 156.733163 139.734976 158.341392 138.113374 160.221601 137.287723 162.155024 137.287723 163.579962 137.287723 164.756571 137.745098 165.584336 138.54699 166.406188 139.342941 166.879197 140.489348 166.879197 141.885233 166.879197 142.912842 166.731382 143.869171 166.3648 145.128437L163.627263 154.792711 163.627263 154.792711C163.32572 155.992578 163.106954 157.406282 163.106954 158.457651 163.106954 160.33467 163.721865 161.956272 164.898474 163.10862 166.075082 164.266907 167.801564 164.93812 170.001054 164.93812 171.981777 164.93812 173.743734 164.243147 175.221886 162.817563 176.700037 161.386039 177.888471 159.235782 178.739887 156.325214L178.763537 156.247995 175.718545 155.149107z"/>
        </g>
      </g>
    </g>
  </g>
</svg>
