<svg xmlns="http://www.w3.org/2000/svg" width="192" height="43" viewBox="0 0 192 43">
  <g fill="none" fill-rule="evenodd" transform="translate(-7 -16)">
    <path fill="#CFCFCF" d="M144.108571,46.4285714 L144.108571,43.8314286 L146.037143,43.8314286 L146.037143,32.1057143 L144.108571,32.1057143 L144.108571,29.5085714 L150.511429,29.5085714 C156.631429,29.5085714 160.257143,32.6971429 160.257143,37.8142857 C160.257143,42.9828571 156.837143,46.4285714 150.202857,46.4285714 L144.108571,46.4285714 Z M148.942857,43.8314286 L150.614286,43.8314286 C154.985714,43.8314286 157.248571,41.4657143 157.248571,37.84 C157.248571,34.1371429 154.625714,32.1057143 150.408571,32.1057143 L148.942857,32.1057143 L148.942857,43.8314286 Z M165.991429,46.6342857 C164.062857,46.6342857 162.34,45.58 162.34,43.4714286 C162.34,41.3628571 164.191429,40.0771429 166.865714,40.0771429 C168.022857,40.0771429 169.102857,40.2314286 169.72,40.3857143 L169.72,39.4857143 C169.72,38.8171429 169.565714,38.3028571 169.282857,37.9428571 C168.82,37.3514286 168.074286,37.12 167.071429,37.12 C166.582857,37.12 166.222857,37.1971429 165.965714,37.3 C166.017143,37.4542857 166.068571,37.7114286 166.068571,37.8657143 C166.068571,38.7142857 165.4,39.3314286 164.551429,39.3314286 C163.702857,39.3314286 163.06,38.74 163.06,37.8142857 C163.06,36.4257143 164.474286,34.96 167.534286,34.96 C169.462857,34.96 170.774286,35.5 171.571429,36.4771429 C172.162857,37.1971429 172.445714,38.1742857 172.445714,39.3057143 L172.445714,44.1142857 L174.117143,44.1142857 L174.117143,46.4285714 L169.771429,46.4285714 L169.771429,45.1942857 C168.871429,45.9657143 167.508571,46.6342857 165.991429,46.6342857 Z M166.891429,44.6028571 C167.894286,44.6028571 168.871429,44.2171429 169.72,43.6 L169.72,41.8257143 C169.077143,41.6714286 168.28,41.5685714 167.405714,41.5685714 C166.042857,41.5685714 165.22,42.1857143 165.22,43.2142857 C165.22,44.1142857 165.888571,44.6028571 166.891429,44.6028571 Z M180.571429,50.08 C180.905714,49.6942857 181.188571,49.2314286 181.445714,48.7171429 L186.717143,37.5314286 L188.08,37.5314286 L188.08,35.1657143 L182.294286,35.1657143 L182.294286,37.4028571 L184.042857,37.4028571 L181.42,43.3428571 L178.822857,37.4028571 L180.468571,37.4028571 L180.468571,35.1657143 L174.657143,35.1657143 L174.657143,37.5314286 L176.045714,37.5314286 L180.057143,45.8628571 L179.208571,47.6371429 C179.028571,47.9971429 178.874286,48.28 178.694286,48.5114286 C178.385714,48.9228571 178.077143,49.1028571 177.794286,49.18 C177.614286,48.7428571 177.228571,48.3314286 176.56,48.3314286 C175.814286,48.3314286 175.171429,48.82 175.171429,49.7714286 C175.171429,50.6714286 176.097143,51.5457143 177.588571,51.5457143 C178.72,51.5457143 179.748571,51.0314286 180.571429,50.08 Z M198.648571,37.66 C198.648571,37.12 198.442857,36.6314286 198.031429,36.22 C197.26,35.4485714 195.614286,34.9342857 194.251429,34.9342857 C191.088571,34.9342857 189.648571,36.76 189.648571,38.5085714 C189.648571,40.4371429 190.96,41.1828571 194.071429,42.0057143 C195.794286,42.4685714 196.282857,42.8028571 196.282857,43.3685714 C196.282857,44.1914286 195.357143,44.5771429 194.225714,44.5771429 C193.428571,44.5771429 192.708571,44.4228571 192.194286,44.2171429 C192.22,44.0628571 192.245714,43.9085714 192.245714,43.7542857 C192.245714,42.7771429 191.5,42.2628571 190.728571,42.2628571 C189.854286,42.2628571 189.237143,42.9571429 189.237143,43.78 C189.237143,44.3714286 189.417143,44.8342857 189.88,45.2971429 C190.625714,46.0428571 192.477143,46.66 194.2,46.66 C196.745714,46.66 198.957143,45.4 198.957143,43.0342857 C198.957143,41.0028571 197.388571,40.3342857 194.688571,39.6142857 C192.965714,39.1514286 192.322857,38.8171429 192.322857,38.1742857 C192.322857,37.5828571 192.94,37.0171429 194.2,37.0171429 C194.765714,37.0171429 195.331429,37.12 195.794286,37.3 C195.742857,37.4542857 195.742857,37.6085714 195.742857,37.7885714 C195.742857,38.6371429 196.36,39.1771429 197.26,39.1771429 C198.082857,39.1771429 198.648571,38.56 198.648571,37.66 Z"/>
    <path fill="#A5B6F3" d="M7.00142857,46.4285714 L12.9671429,46.4285714 L12.9671429,44.1142857 L11.4757143,44.1142857 L11.4757143,38.7657143 C12.3242857,38.0457143 13.3014286,37.5057143 14.2271429,37.5057143 C14.8957143,37.5057143 15.3328571,37.7628571 15.5642857,38.3028571 C15.6928571,38.5857143 15.7442857,38.92 15.7442857,39.3571429 L15.7442857,44.1142857 L14.2014286,44.1142857 L14.2014286,46.4285714 L20.0642857,46.4285714 L20.0642857,44.1142857 L18.5471429,44.1142857 L18.5471429,38.7657143 C19.3957143,38.0457143 20.3728571,37.5057143 21.2985714,37.5057143 C21.9414286,37.5057143 22.4042857,37.7628571 22.6357143,38.3028571 C22.7642857,38.5857143 22.8157143,38.92 22.8157143,39.3571429 L22.8157143,44.1142857 L21.2985714,44.1142857 L21.2985714,46.4285714 L27.29,46.4285714 L27.29,44.1142857 L25.6185714,44.1142857 L25.6185714,38.6885714 C25.6185714,37.8657143 25.4642857,37.1457143 25.1557143,36.58 C24.59,35.5257143 23.51,34.96 21.9414286,34.96 C20.5014286,34.96 19.2414286,35.7828571 18.1871429,36.8114286 C18.0842857,36.58 17.9814286,36.3742857 17.8271429,36.1685714 C17.2614286,35.4228571 16.3614286,34.96 15.1528571,34.96 C13.4814286,34.96 12.2471429,35.9885714 11.3728571,36.94 L11.3728571,35.1657143 L7.00142857,35.1657143 L7.00142857,37.5314286 L8.67285714,37.5314286 L8.67285714,44.1142857 L7.00142857,44.1142857 L7.00142857,46.4285714 Z M39.6328571,41.7485714 L31.5071429,41.7485714 C31.8928571,43.4971429 33.3328571,44.2685714 35.21,44.2685714 C36.5728571,44.2685714 37.9871429,43.8314286 39.2985714,43.0857143 L39.0671429,45.6057143 C37.8842857,46.3 36.4442857,46.6342857 34.7985714,46.6342857 C31.1214286,46.6342857 28.5757143,44.32 28.5757143,40.8228571 C28.5757143,37.6342857 30.8128571,34.96 34.2842857,34.96 C37.8842857,34.96 39.7614286,37.3771429 39.7614286,40.36 C39.7614286,40.7971429 39.71,41.3628571 39.6328571,41.7485714 Z M34.2585714,37.2228571 C33.0242857,37.2228571 31.79,37.9428571 31.4814286,39.7942857 L36.9585714,39.7942857 C36.9071429,38.2514286 35.9042857,37.2228571 34.2585714,37.2228571 Z M45.7271429,35.1657143 L41.3557143,35.1657143 L41.3557143,37.5314286 L43.0271429,37.5314286 L43.0271429,44.1142857 L41.3557143,44.1142857 L41.3557143,46.4285714 L47.3728571,46.4285714 L47.3728571,44.1142857 L45.83,44.1142857 L45.83,38.8171429 C46.73,38.0714286 47.7585714,37.5057143 48.7357143,37.5057143 C49.4042857,37.5057143 49.8671429,37.7628571 50.1242857,38.2514286 C50.2785714,38.5342857 50.3557143,38.9457143 50.3557143,39.4085714 L50.3557143,44.1142857 L48.8128571,44.1142857 L48.8128571,46.4285714 L54.83,46.4285714 L54.83,44.1142857 L53.1585714,44.1142857 L53.1585714,38.7142857 C53.1585714,37.7885714 52.9528571,37.0171429 52.5671429,36.4 C51.9757143,35.5 50.9985714,34.96 49.6614286,34.96 C48.0157143,34.96 46.8071429,35.9114286 45.7271429,36.9657143 L45.7271429,35.1657143 Z M60.8214286,46.6342857 C62.4671429,46.6342857 63.6757143,45.6828571 64.7557143,44.6285714 L64.7557143,46.4285714 L69.1271429,46.4285714 L69.1271429,44.1142857 L67.4557143,44.1142857 L67.4557143,35.1657143 L62.9042857,35.1657143 L62.9042857,37.5314286 L64.6528571,37.5314286 L64.6528571,42.7771429 C63.7528571,43.5228571 62.7242857,44.0885714 61.7471429,44.0885714 C61.0785714,44.0885714 60.6157143,43.8314286 60.3585714,43.3428571 C60.2042857,43.0342857 60.1271429,42.6742857 60.1271429,42.1857143 L60.1271429,35.1657143 L55.6528571,35.1657143 L55.6528571,37.5314286 L57.3242857,37.5314286 L57.3242857,42.88 C57.3242857,43.78 57.53,44.5514286 57.89,45.1428571 C58.4557143,46.0685714 59.4585714,46.6342857 60.8214286,46.6342857 Z"/>
    <polygon fill="#D8D8D8" fill-rule="nonzero" points="76.071 42.857 93.214 42.857 93.214 40 76.071 40"/>
    <path fill="#CFCFCF" d="M106.391429,46.6742857 C106.391429,47.8457143 106.801429,48.9585714 107.504286,49.9542857 C109.32,52.6485714 113.361429,54.5228571 118.047143,54.5228571 C125.075714,54.5228571 130.522857,50.4228571 130.522857,44.0971429 C130.522857,40.4071429 128.238571,37.5371429 125.075714,35.9557143 C123.962857,35.4285714 122.674286,35.0185714 121.444286,34.7842857 C122.791429,34.6085714 124.08,34.14 125.251429,33.4957143 C128.062857,31.9142857 130.112857,29.1614286 130.112857,26.1742857 C130.112857,21.0785714 125.485714,16.92 118.75,16.92 C113.888571,16.92 110.432857,18.9114286 108.792857,21.3128571 C108.031429,22.4257143 107.68,23.48 107.68,24.5342857 C107.68,26.6428571 109.144286,28.0485714 110.784286,28.0485714 C112.19,28.0485714 113.595714,26.9357143 113.595714,25.3542857 C113.595714,24.4757143 112.892857,23.4214286 112.014286,23.0114286 L112.19,22.7771429 C113.244286,21.4885714 115.294286,20.5514286 118.515714,20.5514286 C122.908571,20.5514286 126.012857,22.5428571 126.012857,26.2328571 C126.012857,28.4585714 124.607143,30.2742857 122.44,31.5628571 C120.565714,32.6171429 118.164286,33.2028571 115.704286,33.2028571 L114.24,33.2028571 L114.24,36.6585714 L115.528571,36.6585714 C118.105714,36.6585714 120.39,37.1271429 122.147143,37.9471429 C124.9,39.1771429 126.422857,41.3442857 126.422857,44.0971429 C126.422857,47.9628571 123.025714,50.8914286 118.105714,50.8914286 C115.118571,50.8914286 112.424286,50.0714286 111.018571,48.6071429 L110.784286,48.2557143 C111.78,47.7871429 112.248571,46.7914286 112.248571,45.8542857 C112.248571,44.4485714 111.135714,43.16 109.554286,43.16 C107.797143,43.16 106.391429,44.7414286 106.391429,46.6742857 Z"/>
  </g>
</svg>
