<?xml version="1.0" encoding="UTF-8"?>
<svg width="22px" height="22px" viewBox="0 0 22 22" version="1.1" xmlns="http://www.w3.org/2000/svg" xmlns:xlink="http://www.w3.org/1999/xlink">
    <!-- Generator: Sketch 43.2 (39069) - http://www.bohemiancoding.com/sketch -->
    <title>logo_line</title>
    <desc>Created with Sketch.</desc>
    <defs>
        <polygon id="path-1" points="21.8606321 0.20750566 0.20754717 0.20750566 0.20754717 20.8391472 21.8607358 20.8391472 21.8607358 0.20750566 21.8606321 20.8391352 0.207443396 20.8391352 0.207443396 0.207443396 21.8606321 0.207443396"></polygon>
        <path d="M21.8606321,8.99333019 C21.8606321,4.1489717 17.0040283,0.207443396 11.033934,0.207443396 C5.06487736,0.207443396 0.207443396,4.1489717 0.207443396,8.99333019 C0.207443396,13.3366698 4.05910377,16.973934 9.26189623,17.6615377 C9.61451887,17.7375 10.0943679,17.8939906 10.215783,18.1953491 C10.3249528,18.4691038 10.2871792,18.8978962 10.2508585,19.1743491 C10.2508585,19.1743491 10.1238396,19.9383302 10.0962358,20.1012547 C10.0491226,20.3748019 9.87872642,21.171783 11.033934,20.6848774 C12.1897642,20.1979717 17.269066,17.0135755 19.5406698,14.3991038 L19.5400472,14.3991038 C21.1088962,12.6783302 21.8606321,10.9322358 21.8606321,8.99333019 L21.8606321,8.99333019 Z" id="path-3"></path>
    </defs>
    <g id="Page-1" stroke="none" stroke-width="1" fill="none" fill-rule="evenodd">
        <g id="Artboard" transform="translate(-791.000000, -343.000000)">
            <g id="logo_line" transform="translate(791.000000, 343.000000)">
                <mask id="mask-2" fill="white">
                    <use xlink:href="#path-1"></use>
                </mask>
                <g id="Clip-2"></g>
                <mask id="mask-4" fill="white">
                    <use xlink:href="#path-3"></use>
                </mask>
                <use id="Path" fill="#A5B6F3" xlink:href="#path-3"></use>
                <path d="M18.465783,7.62268868 C18.465783,7.73933019 18.3715566,7.83376415 18.2551226,7.83376415 L16.1918962,7.83376415 L16.1918962,8.63095283 L18.2551226,8.63095283 C18.3715566,8.63095283 18.465783,8.72538679 18.465783,8.8420283 L18.465783,9.60123585 C18.465783,9.71787736 18.3715566,9.81210377 18.2551226,9.81210377 L16.1918962,9.81210377 L16.1918962,10.6097075 L18.2551226,10.6097075 C18.3715566,10.6097075 18.465783,10.7041415 18.465783,10.8205755 L18.465783,11.5799906 C18.465783,11.6964245 18.3715566,11.7908585 18.2551226,11.7908585 L15.2214057,11.7908585 L15.2209906,11.7908585 C15.1645377,11.7908585 15.1132736,11.7684434 15.0755,11.7319151 C15.0744623,11.7310849 15.073217,11.7300472 15.0723868,11.729217 C15.0715566,11.7281792 15.0705189,11.726934 15.0696887,11.7258962 C15.0331604,11.6881226 15.0107453,11.6368585 15.0107453,11.5801981 L15.0107453,11.5799906 L15.0107453,6.86348113 L15.0107453,6.86306604 C15.0107453,6.80661321 15.0329528,6.7555566 15.069066,6.71778302 C15.0701038,6.71653774 15.0713491,6.71529245 15.0723868,6.71404717 C15.0730094,6.71342453 15.0740472,6.71259434 15.0748774,6.71176415 C15.113066,6.6750283 15.1643302,6.65240566 15.2209906,6.65240566 L15.2214057,6.65240566 L18.2551226,6.65240566 C18.3715566,6.65240566 18.465783,6.74683962 18.465783,6.86348113 L18.465783,7.62268868 Z M14.2722925,11.5804057 C14.2722925,11.6966321 14.178066,11.7908585 14.0614245,11.7908585 L13.3020094,11.7908585 C13.2833302,11.7908585 13.265066,11.7881604 13.2480472,11.7835943 C13.2470094,11.7833868 13.2461792,11.7829717 13.2451415,11.7827642 C13.2401604,11.7815189 13.2355943,11.780066 13.2306132,11.7781981 C13.2285377,11.7775755 13.2266698,11.7767453 13.2243868,11.7759151 C13.2208585,11.7744623 13.2175377,11.7730094 13.2140094,11.7715566 C13.2106887,11.7701038 13.2071604,11.7684434 13.2038396,11.7665755 C13.2019717,11.7655377 13.2001038,11.7647075 13.1980283,11.7634623 C13.1936698,11.7609717 13.1893113,11.7582736 13.1851604,11.7555755 C13.1843302,11.7549528 13.1835,11.7543302 13.1828774,11.7537075 C13.1625377,11.740217 13.144066,11.722783 13.1293302,11.7018208 L10.9648208,8.77851887 L10.9648208,11.5804057 C10.9648208,11.6966321 10.8703868,11.7908585 10.7537453,11.7908585 L9.99453774,11.7908585 C9.87810377,11.7908585 9.78346226,11.6966321 9.78346226,11.5804057 L9.78346226,6.86285849 C9.78346226,6.74663208 9.87810377,6.65240566 9.99453774,6.65240566 L10.7537453,6.65240566 C10.7562358,6.65240566 10.7585189,6.65282075 10.7610094,6.65282075 C10.7649528,6.65282075 10.7684811,6.6530283 10.7720094,6.6534434 C10.7757453,6.65385849 10.7794811,6.65406604 10.783217,6.65468868 C10.7861226,6.65510377 10.7892358,6.65551887 10.791934,6.65593396 C10.7960849,6.65676415 10.8000283,6.65780189 10.8041792,6.65863208 C10.8066698,6.65946226 10.8091604,6.65987736 10.8114434,6.6605 C10.8158019,6.66174528 10.8199528,6.66319811 10.8241038,6.66465094 C10.8263868,6.66548113 10.8284623,6.66631132 10.8307453,6.66714151 C10.8351038,6.66859434 10.8390472,6.67046226 10.8429906,6.67212264 C10.8452736,6.67316038 10.8473491,6.67440566 10.8496321,6.6754434 C10.8533679,6.67731132 10.8571038,6.67959434 10.8608396,6.68187736 C10.8631226,6.68291509 10.8651981,6.68416038 10.8672736,6.68561321 C10.8710094,6.68789623 10.8745377,6.69059434 10.878066,6.69308491 C10.8801415,6.69433019 10.8818019,6.69578302 10.8836698,6.6974434 C10.8876132,6.70034906 10.8913491,6.70346226 10.8948774,6.70678302 C10.8963302,6.7080283 10.8975755,6.70906604 10.8988208,6.71031132 C10.9031792,6.71446226 10.9075377,6.71882075 10.9114811,6.72338679 C10.9118962,6.72359434 10.9123113,6.72421698 10.912934,6.72463208 C10.9187453,6.73148113 10.9243491,6.73853774 10.9291226,6.74600943 L13.0911415,9.66557547 L13.0911415,6.86285849 C13.0911415,6.74663208 13.1855755,6.65240566 13.3020094,6.65240566 L14.0614245,6.65240566 C14.178066,6.65240566 14.2722925,6.74663208 14.2722925,6.86285849 L14.2722925,11.5804057 Z M9.04521698,11.5804057 C9.04521698,11.6966321 8.95078302,11.7908585 8.83434906,11.7908585 L8.07493396,11.7908585 C7.9585,11.7908585 7.86385849,11.6966321 7.86385849,11.5804057 L7.86385849,6.86285849 C7.86385849,6.74663208 7.9585,6.65240566 8.07493396,6.65240566 L8.83434906,6.65240566 C8.95078302,6.65240566 9.04521698,6.74663208 9.04521698,6.86285849 L9.04521698,11.5804057 Z M7.21423585,11.5799906 C7.21423585,11.696217 7.12000943,11.7908585 7.00378302,11.7908585 L3.97006604,11.7908585 L3.96965094,11.7908585 C3.91319811,11.7908585 3.86214151,11.7684434 3.82416038,11.7321226 C3.82312264,11.7310849 3.82208491,11.7302547 3.82104717,11.729217 C3.81980189,11.7281792 3.8189717,11.726934 3.81814151,11.7258962 C3.78182075,11.6881226 3.75919811,11.6368585 3.75919811,11.5801981 L3.75919811,11.5799906 L3.75919811,6.86306604 C3.75919811,6.74663208 3.85363208,6.65240566 3.97006604,6.65240566 L4.72948113,6.65240566 C4.84591509,6.65240566 4.94034906,6.74663208 4.94034906,6.86306604 L4.94034906,10.6095 L7.00378302,10.6095 C7.12000943,10.6095 7.21423585,10.7041415 7.21423585,10.8203679 L7.21423585,11.5799906 Z" id="Fill-1" fill="#FFFFFF" mask="url(#mask-4)"></path>
            </g>
        </g>
    </g>
</svg>