<?xml version="1.0" encoding="UTF-8"?>
<svg width="21px" height="21px" viewBox="0 0 21 21" version="1.1" xmlns="http://www.w3.org/2000/svg" xmlns:xlink="http://www.w3.org/1999/xlink">
    <!-- Generator: Sketch 43.2 (39069) - http://www.bohemiancoding.com/sketch -->
    <title>nav_shoppingcart </title>
    <desc>Created with Sketch.</desc>
    <defs></defs>
    <g id="Page-1" stroke="none" stroke-width="1" fill="none" fill-rule="evenodd">
        <g id="Artboard" transform="translate(-573.000000, -448.000000)" fill-rule="nonzero" fill="#A5B6F3">
            <g id="cart-" transform="translate(573.000000, 448.000000)">
                <path d="M4.19010417,19.5 C2.38494501,19.5 0.911458333,18.0633505 0.911458333,16.2783203 C0.911458333,14.4932901 2.38494501,13.0566406 4.19010417,13.0566406 C5.99526332,13.0566406 7.46875,14.4932901 7.46875,16.2783203 C7.46875,18.0633505 5.99526332,19.5 4.19010417,19.5 Z M4.19010417,17.5 C4.9018677,17.5 5.46875,16.9472898 5.46875,16.2783203 C5.46875,15.6093509 4.9018677,15.0566406 4.19010417,15.0566406 C3.47834063,15.0566406 2.91145833,15.6093509 2.91145833,16.2783203 C2.91145833,16.9472898 3.47834063,17.5 4.19010417,17.5 Z" id="Oval-50"></path>
                <path d="M13.3046875,19.5 C11.4995283,19.5 10.0260417,18.0633505 10.0260417,16.2783203 C10.0260417,14.4932901 11.4995283,13.0566406 13.3046875,13.0566406 C15.1098467,13.0566406 16.5833333,14.4932901 16.5833333,16.2783203 C16.5833333,18.0633505 15.1098467,19.5 13.3046875,19.5 Z M13.3046875,17.5 C14.016451,17.5 14.5833333,16.9472898 14.5833333,16.2783203 C14.5833333,15.6093509 14.016451,15.0566406 13.3046875,15.0566406 C12.592924,15.0566406 12.0260417,15.6093509 12.0260417,16.2783203 C12.0260417,16.9472898 12.592924,17.5 13.3046875,17.5 Z" id="Oval-50-Copy"></path>
                <polygon id="Path-210" points="2 9.296875 2 1.19583179 0 1.19583179 0 11.296875 18.0671024 11.296875 18.0671024 2 20.6875 2 20.6875 0 16.0671024 0 16.0671024 9.296875"></polygon>
            </g>
        </g>
    </g>
</svg>