<svg xmlns="http://www.w3.org/2000/svg" xmlns:xlink="http://www.w3.org/1999/xlink" width="109" height="105" viewBox="0 0 109 105">
  <defs>
    <polygon id="page-1-a" points="0 104.766 108.663 104.766 108.663 0 0 0"/>
  </defs>
  <g fill="none" fill-rule="evenodd">
    <path fill="#FFB8AC" d="M57.2541209,8.10810807e-05 C57.5827478,8.10810807e-05 57.9089343,0.0835945946 58.197703,0.242108108 L84.4634493,14.6303514 C85.4110985,15.1492703 85.7584343,16.3403514 85.2378373,17.2849459 L84.2190127,19.131973 C83.8745239,19.7571081 83.2156433,20.1454865 82.4994157,20.1454865 C82.1947851,20.1454865 81.8917813,20.0737297 81.6188746,19.9371081 L81.163759,20.7625135 C81.8344343,21.4764324 82.2777552,22.6537297 81.520856,24.0268378 L64.6148746,54.6892703 C63.7127776,56.3258919 61.9874866,57.3426486 60.1121172,57.3426486 C59.2535388,57.3426486 58.399841,57.1237297 57.6437552,56.7094054 L47.3501694,51.071027 L47.2318149,51.0057568 L36.9382291,45.3673784 C34.4576657,44.0084595 33.5486545,40.8908919 34.9119679,38.4183243 L51.8175425,7.75548649 C52.3507478,6.78818919 53.1971246,6.25589189 54.2009007,6.25589189 C54.4066993,6.25589189 54.5990761,6.27818919 54.7703037,6.31143243 L55.2286731,5.48075676 C54.8012142,5.22656757 54.4912963,4.82683784 54.3513858,4.34845946 C54.2053746,3.84656757 54.2635351,3.31872973 54.516106,2.86143243 L55.5345239,1.01359459 C55.8794194,0.388459459 56.5383,8.10810807e-05 57.2541209,8.10810807e-05 Z M57.2541209,0.810891892 C56.8490313,0.810891892 56.45655,1.02494595 56.2474978,1.404 L55.2290799,3.25183784 C54.9236358,3.80562162 55.1265873,4.50089189 55.6817552,4.80535135 L56.3325015,5.1612973 L55.1619716,7.28440541 C55.1619716,7.28440541 54.7410201,7.0667027 54.2009007,7.0667027 C53.6628149,7.0667027 53.0063746,7.28278378 52.5305164,8.14589189 L35.6245351,38.8091351 C34.4755612,40.8929189 35.2393746,43.5114324 37.3303037,44.6567027 L47.6234828,50.2954865 L47.7418373,50.3603514 L58.0354231,55.9987297 C58.6951172,56.3603514 59.4089045,56.5318378 60.1121172,56.5318378 C61.6373037,56.5318378 63.1157179,55.7254865 63.9023075,54.2988649 L80.8078821,23.636027 C81.7616321,21.9061622 80.1266321,20.9595405 80.1266321,20.9595405 L81.2971619,18.8368378 L81.9479082,19.1935946 C82.123203,19.2892703 82.3127328,19.3346757 82.4994157,19.3346757 C82.9045052,19.3346757 83.2973933,19.1206216 83.5060388,18.741973 L84.5248634,16.8941351 C84.8303075,16.3407568 84.627356,15.6450811 84.0721881,15.341027 L57.8056284,0.952783784 C57.6303336,0.856297297 57.4408037,0.810891892 57.2541209,0.810891892 Z"/>
    <polygon fill="#FFF" points="36.253 37.669 64.531 53.159 79.052 26.82 50.775 11.33"/>
    <polygon fill="#B4B5B5" points="38.393 37.126 63.843 51.067 76.913 27.363 51.463 13.421"/>
    <path fill="#FFB8AC" d="M51.4411265,13.4607973 C58.219869,17.1739054 60.7939772,25.4818784 57.1908765,32.0166081 C53.5877757,38.5521486 45.1715929,40.8394459 38.3932571,37.1263378 L51.4411265,13.4607973 Z"/>
    <path fill="#A5B6F3" d="M38.3932571,37.1263378 C42.1334213,30.3422838 50.8705034,27.9674189 57.9075108,31.8224189 C64.9445183,35.6770135 67.6170519,44.3016081 63.876481,51.0860676 L38.3932571,37.1263378 Z"/>
    <path fill="#FFF" d="M46.5873321 39.2531351C46.4470149 39.3082703 46.2965299 39.3070541 46.1680075 39.2365135 46.0728358 39.1846216 46.0069478 39.105973 45.9805112 39.0115135 45.9540746 38.9174595 45.9666828 38.8075946 46.0301306 38.6928649 46.1151343 38.5384054 46.2444701 38.4277297 46.3839739 38.3734054 46.5238843 38.3190811 46.6739627 38.3211081 46.8024851 38.3916486 46.8976567 38.4435405 46.9635448 38.5221892 46.9899813 38.6162432 47.0168246 38.7098919 47.0046231 38.8189459 46.9423955 38.9320541 46.8569851 39.0869189 46.7276493 39.198 46.5873321 39.2531351M46.9444291 38.1634054C46.7256157 38.0434054 46.4836194 38.0357027 46.2680597 38.1086757 46.0525 38.1816486 45.8633769 38.3361081 45.7511231 38.540027 45.6636791 38.6981351 45.6368358 38.8752973 45.679541 39.0402973 45.7222463 39.2048919 45.8353134 39.3565135 46.0276903 39.4619189 46.2465037 39.5819189 46.4885 39.5896216 46.7040597 39.5166486 46.9192127 39.4440811 47.1079291 39.2908378 47.2193694 39.0881351 47.3076269 38.9288108 47.3348769 38.7504324 47.2921716 38.5854324 47.2498731 38.420027 47.1372127 38.2684054 46.9444291 38.1634054M48.1605925 40.115027C48.0202754 40.1701622 47.8697903 40.1689459 47.7412679 40.0984054 47.6460963 40.0465135 47.5806149 39.9678649 47.5537716 39.8734054 47.5273351 39.7793514 47.54035 39.6694865 47.603391 39.5547568 47.6888015 39.4002973 47.8177306 39.2896216 47.9572343 39.2352973 48.0971448 39.180973 48.2476299 39.183 48.3761522 39.2535405 48.4709172 39.3054324 48.5368052 39.3840811 48.5636485 39.4781351 48.5900851 39.5717838 48.5778836 39.6808378 48.515656 39.7939459 48.4302455 39.9488108 48.3009097 40.0598919 48.1605925 40.115027M48.5180963 39.0252973C48.2992828 38.9052973 48.0568799 38.8975946 47.8413201 38.9705676 47.6257604 39.0435405 47.437044 39.1975946 47.3243836 39.4019189 47.2373463 39.560027 47.2100963 39.7371892 47.2528015 39.9021892 47.2959134 40.0667838 47.4085739 40.2184054 47.6009507 40.3238108 47.8197642 40.4438108 48.0621672 40.4515135 48.2773201 40.3785405 48.4924731 40.305973 48.6811896 40.1527297 48.7930366 39.950027 48.8808873 39.7907027 48.908544 39.6123243 48.8658388 39.4473243 48.8231336 39.2819189 48.7104731 39.1302973 48.5180963 39.0252973M50.1667619 41.1974189L50.1635082 41.2002568C50.0862321 41.2679595 50.0268515 41.3048514 49.9804858 41.321473 49.9345269 41.3380946 49.9019896 41.3340405 49.8767731 41.3206622 49.85115 41.3068784 49.8365082 41.2870135 49.8316276 41.2635 49.8271537 41.2399865 49.832441 41.2120135 49.8491164 41.1820135 49.8621313 41.1580946 49.8954821 41.1203919 49.9263925 41.085527L50.2562396 40.7567432C50.3205007 40.691473 50.3737806 40.6241757 50.4099784 40.5593108 50.4754597 40.4397162 50.4884746 40.3233649 50.4583776 40.2224189 50.4286873 40.121473 50.3566985 40.0363378 50.2537993 39.9799865 50.1618813 39.9297162 50.0516612 39.9179595 49.938594 39.9345811 49.8340679 39.9503919 49.7271015 39.9901216 49.6294896 40.046473L49.8845007 39.8056622 49.6111873 39.6556622 48.5476239 40.8102568 48.8270381 40.9635 49.4053888 40.3387703C49.5119485 40.2256622 49.6225754 40.155527 49.7262881 40.1247162 49.8304075 40.0943108 49.9280194 40.1036351 50.0085493 40.1478243 50.0679299 40.1802568 50.1069746 40.2260676 50.1228366 40.2779595 50.1391052 40.3298514 50.1325978 40.3882297 50.1008739 40.4457973 50.0772843 40.4887703 50.0492209 40.5248514 50.0052955 40.5686351L49.6701612 40.9063378 49.6701612 40.9063378C49.630303 40.9493108 49.5888179 41.0028243 49.5648216 41.0462027 49.5221164 41.1236351 49.5107284 41.205527 49.5335045 41.2797162 49.5562806 41.3543108 49.6128142 41.4220135 49.7047321 41.4722838 49.7872955 41.5172838 49.8767731 41.5286351 49.9711313 41.5035 50.0650828 41.4779595 50.1639149 41.4163378 50.2660007 41.3153919L50.2688478 41.3125541 50.1667619 41.1974189zM45.0123228 38.3651351C44.872819 38.4243243 44.7211138 38.4287838 44.5913713 38.3578378 44.4888787 38.3018919 44.4278713 38.2264865 44.4046884 38.1417568 44.3819123 38.0566216 44.3973675 37.9617568 44.4506474 37.8660811 44.5311772 37.7193243 44.6662071 37.6045946 44.8138451 37.5441892 44.9610765 37.4837838 45.1205093 37.4781081 45.2498451 37.5490541 45.3442034 37.6005405 45.3987034 37.6759459 45.4161922 37.7631081 45.433681 37.8498649 45.4137519 37.9487838 45.3592519 38.0477027 45.2791287 38.1928378 45.1518265 38.3059459 45.0123228 38.3651351M45.7496996 37.7071622C45.7179757 37.5664865 45.6248377 37.4448649 45.4698787 37.3601351 45.3799944 37.3106757 45.2754683 37.2948649 45.1709422 37.3033784 45.0733302 37.3102703 44.978972 37.3406757 44.8919347 37.3816216L45.6752705 36.5347297C45.5683041 36.5456757 45.4784198 36.5485135 45.3734869 36.4905405 45.2709944 36.4345946 45.1758228 36.357973 45.1074944 36.2910811 45.0350989 36.2314865 44.9492817 36.1605405 44.8561437 36.1094595 44.5234496 35.927027 44.2383414 36.1143243 44.1199869 36.3291892 44.0699608 36.42 44.0475914 36.5083784 44.0398638 36.6008108 43.9934981 36.5602703 43.9398116 36.5221622 43.8796175 36.4889189 43.714084 36.3981081 43.5599384 36.3741892 43.4322295 36.3993243 43.3041138 36.4248649 43.2032481 36.4994595 43.1442743 36.6064865 43.0853004 36.7135135 43.0881474 36.8156757 43.123125 36.9133784 43.1581026 37.0110811 43.2252108 37.1051351 43.2947593 37.1967568L43.2947593 37.1971622C43.3508862 37.2697297 43.404166 37.3382432 43.4358899 37.4014865 43.4517519 37.4331081 43.4619198 37.4631081 43.4647668 37.4927027 43.4676138 37.5214865 43.4623265 37.5494595 43.4476847 37.5762162 43.4334496 37.6025676 43.4135205 37.6216216 43.389931 37.6341892 43.3545466 37.6532432 43.3098078 37.6585135 43.2610019 37.6512162 43.2126026 37.6447297 43.1597295 37.6256757 43.1080765 37.5972973 43.0129049 37.5454054 42.9360354 37.4752703 42.8921101 37.4112162 42.877875 37.3889189 42.8685205 37.3722973 42.8628265 37.3552703 42.8929235 37.3431081 42.9226138 37.3163514 42.9396959 37.2859459 42.9620653 37.245 42.9673526 37.1987838 42.9555578 37.1566216 42.9437631 37.1140541 42.9152929 37.0759459 42.8713675 37.052027 42.8258153 37.0268919 42.7749757 37.0236486 42.7290168 37.0390541 42.6826511 37.0552703 42.641166 37.0897297 42.613916 37.1395946 42.5777183 37.2052703 42.5764981 37.2814865 42.6000877 37.362973 42.6431996 37.5198649 42.7855504 37.6856757 42.9893153 37.797973 43.1471213 37.8839189 43.2996399 37.9204054 43.4310093 37.9021622 43.5623787 37.8839189 43.6730056 37.8109459 43.7454011 37.6795946 43.8023414 37.5754054 43.8007146 37.4740541 43.7669571 37.3763514 43.7336063 37.2778378 43.6689384 37.1837838 43.6010168 37.0921622 43.5432631 37.0147297 43.4895765 36.9433784 43.4574459 36.8793243 43.441584 36.8472973 43.4306026 36.8168919 43.4273489 36.7885135 43.4240951 36.7605405 43.4281623 36.7341892 43.4419907 36.7098649 43.4672071 36.6636486 43.513166 36.6413514 43.5701063 36.6397297 43.6274534 36.6381081 43.6949683 36.6571622 43.7624832 36.6940541 43.8295914 36.7309459 43.8873451 36.7783784 43.9227295 36.8217568 43.9402183 36.842027 43.9475392 36.8562162 43.9532332 36.8675676 43.913375 36.8914865 43.8950728 36.9101351 43.8800243 36.9377027 43.8348787 37.0195946 43.8661959 37.1266216 43.9511996 37.1736486 43.9939049 37.1967568 44.0427108 37.2012162 44.0882631 37.1866216 44.1338153 37.172027 44.1757071 37.1387838 44.2041772 37.0872973 44.2383414 37.0244595 44.2444422 36.947027 44.2220728 36.87L44.2220728 36.87C44.2098713 36.8245946 44.1879086 36.7787838 44.1578116 36.7337838 44.1639123 36.6539189 44.1842481 36.572027 44.2285802 36.4917568 44.3636101 36.2464865 44.5970653 36.2274324 44.7333153 36.302027 44.7987966 36.3377027 44.8899011 36.3928378 44.9663638 36.4443243 45.0314384 36.495 45.1205093 36.5533784 45.1981922 36.5959459L45.1985989 36.5963514 43.7604496 38.187973 44.0423041 38.3424324 44.2497295 38.1052703C44.2029571 38.3051351 44.2969086 38.5139189 44.4909123 38.6201351 44.6845093 38.7263514 44.9143041 38.7283784 45.1274235 38.6460811 45.3401362 38.5641892 45.5365802 38.397973 45.6638825 38.1668919 45.7521399 38.0063514 45.7818302 37.8474324 45.7496996 37.7071622"/>
    <polygon fill="#FFF" points="64.811 29.868 65.5 30.246 65.292 30.477 64.603 30.1"/>
    <path fill="#FFF" d="M71.1005373,31.9811757 L71.0122799,31.932527 C70.4640261,32.9273919 69.563556,33.6056351 68.5504254,33.8991486 C67.5368881,34.1926622 66.4123172,34.1010405 65.4146418,33.5545541 C64.4165597,33.0080676 63.7365299,32.1105 63.4416604,31.1006351 C63.1471978,30.0907703 63.2391157,28.9694189 63.7873694,27.9749595 C64.3356231,26.9805 65.2360933,26.3018514 66.2492239,26.0087432 C67.2623545,25.7148243 68.3873321,25.8064459 69.3850075,26.3529324 C70.3826828,26.8998243 71.0631194,27.7969865 71.3579888,28.8068514 C71.6524515,29.8171216 71.5605336,30.9380676 71.0122799,31.932527 L71.1005373,31.9811757 L71.1887948,32.0294189 C71.7634851,30.9867162 71.8602836,29.8098243 71.5511791,28.7509054 C71.2428881,27.6919865 70.5278806,26.7502297 69.4822127,26.1773919 C68.4361381,25.6041486 67.2550336,25.5076622 66.193097,25.8157703 C65.1307537,26.123473 64.1859515,26.8357703 63.6108545,27.878473 C63.0357575,28.9207703 62.9393657,30.0976622 63.2480634,31.1565811 C63.5567612,32.2155 64.2713619,33.1572568 65.3174366,33.7305 C66.3635112,34.3037432 67.5446157,34.3998243 68.6065522,34.0921216 C69.6684888,33.7840135 70.6136978,33.0717162 71.1887948,32.0294189 L71.1005373,31.9811757 Z"/>
    <path fill="#FFF" d="M68.7238086 29.3618919C68.609928 29.4101351 68.4858795 29.4141892 68.3801332 29.3562162 68.2963496 29.3104054 68.2463235 29.2491892 68.2276146 29.1798649 68.2089056 29.1105405 68.2219205 29.0327027 68.2650325 28.9540541 68.3309205 28.8344595 68.4411407 28.7408108 68.5615287 28.6917568 68.6819168 28.6427027 68.812066 28.6378378 68.9178123 28.6954054 68.9950884 28.737973 69.0390138 28.7991892 69.0536556 28.8701351 69.067484 28.9410811 69.051622 29.0217568 69.0068832 29.1028378 68.9418086 29.2212162 68.8376892 29.3136486 68.7238086 29.3618919M69.3257489 28.8247297C69.3001257 28.7104054 69.2240698 28.6106757 69.097581 28.5417568 69.0239653 28.5012162 68.9385549 28.4886486 68.8531444 28.4947297 68.773428 28.5008108 68.6965586 28.5255405 68.6253832 28.5591892L69.2651481 27.8671622C69.1777041 27.8760811 69.1044951 27.8785135 69.018678 27.8318919 68.9348944 27.7856757 68.8572116 27.7232432 68.8014914 27.6685135 68.7421108 27.6198649 68.6721556 27.5618919 68.5960996 27.5201351 68.3248198 27.3713514 68.0917713 27.5241892 67.9949728 27.6993243 67.9543011 27.7739189 67.9359989 27.8460811 67.9298981 27.9214865 67.8920735 27.8882432 67.8481481 27.857027 67.7989354 27.8302703 67.6639056 27.7560811 67.5378235 27.7362162 67.4332974 27.7568919 67.329178 27.7775676 67.2466146 27.8387838 67.198622 27.9263514 67.1502228 28.0135135 67.1526631 28.097027 67.1811332 28.1764865 67.2096034 28.2563514 67.2645101 28.332973 67.3214504 28.407973 67.3674093 28.4675676 67.4105213 28.5235135 67.4365511 28.5754054 67.449566 28.6009459 67.4581071 28.6260811 67.4601407 28.6495946 67.4621743 28.6735135 67.4585138 28.6958108 67.4463123 28.7177027 67.4345175 28.7391892 67.4182489 28.755 67.3991332 28.7651351 67.3698496 28.7805405 67.3336519 28.785 67.2937937 28.7793243 67.2539354 28.7736486 67.2108235 28.7582432 67.1689317 28.7351351 67.0912489 28.692973 67.0286146 28.6354054 66.9924168 28.5835135 66.9810287 28.5648649 66.9733011 28.5514865 66.9688272 28.5377027 66.9932302 28.5271622 67.0176332 28.5056757 67.0310549 28.4809459 67.0497638 28.4472973 67.053831 28.4095946 67.0444765 28.3751351 67.0347153 28.3402703 67.0115325 28.3094595 66.9757414 28.2895946 66.9383235 28.2693243 66.8968384 28.2668919 66.8594205 28.2794595 66.8215959 28.2924324 66.7878384 28.3208108 66.765469 28.3613514 66.7357787 28.4148649 66.7345586 28.4772973 66.754081 28.5437838 66.7894653 28.6718919 66.9053795 28.8077027 67.0721332 28.8985135 67.2006556 28.9690541 67.3251108 28.9986486 67.432484 28.9840541 67.5398571 28.9690541 67.6301481 28.9094595 67.689122 28.802027 67.7358944 28.7172973 67.7342675 28.6341892 67.7070175 28.5543243 67.6797675 28.4748649 67.6268944 28.3974324 67.571581 28.3228378 67.5244019 28.2595946 67.4804765 28.2012162 67.4540399 28.1489189 67.441025 28.1225676 67.432484 28.0978378 67.4296369 28.0747297 67.4271966 28.052027 67.4304504 28.0305405 67.4414317 28.0102703 67.4621743 27.9725676 67.4995922 27.9543243 67.5459578 27.9531081 67.5927302 27.9514865 67.6480437 27.9677027 67.7029504 27.9977027 67.7578571 28.0277027 67.8050362 28.0666216 67.8339131 28.1018919L67.8343198 28.1018919C67.8485549 28.1185135 67.8542489 28.1302703 67.8591295 28.1391892 67.8265922 28.1586486 67.8115437 28.1740541 67.7993422 28.1963514 67.762331 28.2632432 67.7879541 28.3508108 67.8575026 28.3889189 67.8920735 28.407973 67.9323384 28.4112162 67.9693496 28.3998649 68.0063608 28.3881081 68.040525 28.3605405 68.0637078 28.3187838 68.0917713 28.2677027 68.0966519 28.2044595 68.0787563 28.1412162 68.0685884 28.1039189 68.0506929 28.0666216 68.0262899 28.0301351 68.0311705 27.9648649 68.0474392 27.897973 68.0836369 27.8322973 68.1942638 27.632027 68.3846071 27.6162162 68.4960474 27.6774324 68.5493272 27.7066216 68.6237563 27.7512162 68.6863907 27.7937838 68.7396705 27.8347297 68.812066 27.882973 68.8755138 27.9174324L68.8763272 27.9174324 67.7017302 29.2175676 67.9319317 29.3436486 68.1011257 29.1502703C68.0628944 29.3128378 68.1397638 29.4835135 68.2979765 29.5702703 68.4561892 29.657027 68.6436854 29.6586486 68.8173534 29.5913514 68.991428 29.5244595 69.1516743 29.3886486 69.2557937 29.2001351 69.3277825 29.0691892 69.3517787 28.9394595 69.3257489 28.8247297M68.776641 32.5651216L68.7742007 32.5675541C68.7111597 32.6226892 68.6631672 32.6526892 68.6257493 32.6656622 68.5879246 32.6790405 68.5614881 32.6762027 68.5411522 32.6652568 68.5208164 32.6539054 68.5086149 32.6380946 68.5049545 32.6190405 68.5008873 32.5999865 68.5053612 32.5768784 68.5191896 32.5529595 68.5297642 32.5335 68.5562007 32.5026892 68.5818239 32.4739054L68.8494433 32.2075541C68.901503 32.1544459 68.9446149 32.1001216 68.9738985 32.0474189 69.0271784 31.9501216 69.037753 31.8556622 69.01335 31.7737703 68.988947 31.6918784 68.9307866 31.6229595 68.8474097 31.5771486 68.7725739 31.5362027 68.683503 31.526473 68.5915851 31.5406622 68.5065813 31.5528243 68.4199507 31.5852568 68.340641 31.6310676L68.5476597 31.4360676 68.3255925 31.3140405 67.4625403 32.2513378 67.6890813 32.3749865 68.1584321 31.8682297C68.2450627 31.7766081 68.334947 31.7194459 68.419544 31.6951216 68.5037343 31.6703919 68.5826373 31.6776892 68.6485254 31.7129595 68.6965179 31.7397162 68.7278351 31.7770135 68.7412567 31.8191757 68.7538649 31.8613378 68.7489843 31.9087703 68.7229545 31.9553919 68.7038388 31.9898514 68.6814694 32.0194459 68.6456784 32.0547162L68.3735851 32.3287703 68.3735851 32.3291757C68.3414545 32.3636351 68.307697 32.4070135 68.2881746 32.4422838 68.253197 32.5059324 68.2442493 32.5716081 68.2625515 32.6320135 68.2812604 32.6924189 68.3272194 32.7471486 68.4016485 32.7880946 68.4687567 32.8249865 68.5411522 32.8343108 68.6176149 32.8136351 68.6940776 32.7929595 68.7746075 32.7426892 68.8571709 32.6607973L68.8596112 32.6583649 68.776641 32.5651216z"/>
    <path fill="#A5B6F3" d="M69.6518134,45.7808108 L39.6808806,45.7808108 C38.5994216,45.7808108 37.719694,46.6577027 37.719694,47.7352703 L37.719694,49.8433784 C37.719694,50.8978378 38.5611903,51.7597297 39.6097052,51.797027 L39.6097052,52.7391892 C38.6766978,53.0428378 37.719694,53.8617568 37.719694,55.4282432 L37.719694,90.4167568 C37.719694,93.2383784 40.0225224,95.5337838 42.8532687,95.5337838 L54.5988321,95.5337838 L54.7338619,95.5337838 L66.4794254,95.5337838 C69.3097649,95.5337838 71.613,93.2383784 71.613,90.4167568 L71.613,55.4282432 C71.613,53.8617568 70.6555896,53.0428378 69.7225821,52.7391892 L69.7225821,51.797027 C70.771097,51.7597297 71.613,50.8978378 71.613,49.8433784 L71.613,47.7352703 C71.613,46.6577027 70.7332724,45.7808108 69.6518134,45.7808108 M69.6518134,46.5916216 C70.2858843,46.5916216 70.7995672,47.1040541 70.7995672,47.7352703 L70.7995672,49.8433784 C70.7995672,50.4754054 70.2858843,50.9878378 69.6518134,50.9878378 L68.9091493,50.9878378 L68.9091493,53.4097297 C68.9091493,53.4097297 70.7995672,53.4547297 70.7995672,55.4282432 L70.7995672,90.4167568 C70.7995672,92.7948649 68.8652239,94.722973 66.4794254,94.722973 L54.7338619,94.722973 L54.5988321,94.722973 L42.8532687,94.722973 C40.4674701,94.722973 38.5331269,92.7948649 38.5331269,90.4167568 L38.5331269,55.4282432 C38.5331269,53.4547297 40.4231381,53.4097297 40.4231381,53.4097297 L40.4231381,50.9878378 L39.6808806,50.9878378 C39.0468097,50.9878378 38.5331269,50.4754054 38.5331269,49.8433784 L38.5331269,47.7352703 C38.5331269,47.1040541 39.0468097,46.5916216 39.6808806,46.5916216 L69.6518134,46.5916216"/>
    <mask id="page-1-b" fill="#fff">
      <use xlink:href="#page-1-a"/>
    </mask>
    <polygon fill="#FFF" points="38.533 89.116 70.799 89.116 70.799 59.062 38.533 59.062" mask="url(#page-1-b)"/>
    <polygon fill="#B4B5B5" points="40.147 87.613 69.186 87.613 69.186 60.564 40.147 60.564" mask="url(#page-1-b)"/>
    <path fill="#FFB8AC" d="M40.1464082,60.6089595 C47.881341,60.6089595 54.1516881,66.6539595 54.1516881,74.1109865 C54.1516881,81.5680135 47.881341,87.6130135 40.1464082,87.6130135 L40.1464082,60.6089595 Z" mask="url(#page-1-b)"/>
    <path fill="#A5B6F3" d="M40.1464082,87.6131757 C40.1464082,79.8715541 46.6559045,73.5962838 54.6857067,73.5962838 C62.7151022,73.5962838 69.2245985,79.8715541 69.2245985,87.6131757 L40.1464082,87.6131757 Z" mask="url(#page-1-b)"/>
    <path fill="#FFF" d="M48.3552063 85.5433784C48.2592213 85.6585135 48.126225 85.7302703 47.9798071 85.7302703 47.8716205 85.7302703 47.7756354 85.6925676 47.7069004 85.6228378 47.6381653 85.5527027 47.5962735 85.4505405 47.5962735 85.3195946 47.5962735 85.1432432 47.6556541 84.9843243 47.7520459 84.87 47.8484377 84.7552703 47.9810272 84.6847297 48.1274451 84.6847297 48.2360384 84.6847297 48.3316168 84.722027 48.4003519 84.7917568 48.4690869 84.8606757 48.5109787 84.962027 48.5109787 85.0913514 48.5109787 85.2677027 48.4515981 85.4278378 48.3552063 85.5433784M48.1416802 84.4163514C47.8919563 84.4163514 47.6759899 84.5258108 47.5226578 84.6932432 47.368919 84.8610811 47.2778146 85.0868919 47.2778146 85.3195946 47.2778146 85.5 47.3396354 85.6686486 47.4567698 85.7922973 47.5739041 85.9163514 47.7459451 85.9945946 47.965572 85.9945946 48.2152959 85.9945946 48.4312623 85.8855405 48.5845944 85.7181081 48.7383332 85.5510811 48.8294377 85.3260811 48.8298444 85.095 48.8298444 84.912973 48.7676168 84.7435135 48.6504825 84.6194595 48.5333481 84.495 48.3613071 84.4163514 48.1416802 84.4163514M50.1504933 85.5433784C50.0545082 85.6585135 49.9215119 85.7302703 49.775094 85.7302703 49.6669075 85.7302703 49.5709224 85.6925676 49.5021873 85.6228378 49.4334522 85.5527027 49.3915604 85.4505405 49.3915604 85.3195946 49.3915604 85.1432432 49.450941 84.9843243 49.5473328 84.87 49.6437246 84.7552703 49.7763142 84.6847297 49.9227321 84.6847297 50.0313254 84.6847297 50.1269037 84.722027 50.1956388 84.7917568 50.2643739 84.8606757 50.3062657 84.962027 50.3062657 85.0913514 50.3062657 85.2677027 50.2468851 85.4278378 50.1504933 85.5433784M49.9369672 84.4163514C49.6872433 84.4163514 49.4712769 84.5258108 49.3179448 84.6932432 49.164206 84.8610811 49.0731015 85.0868919 49.0731015 85.3195946 49.0731015 85.5 49.1349224 85.6686486 49.2524634 85.7922973 49.369191 85.9163514 49.5412321 85.9945946 49.760859 85.9945946 50.0105828 85.9945946 50.2265493 85.8855405 50.3802881 85.7181081 50.5336201 85.5510811 50.6251313 85.3260811 50.6251313 85.095 50.6251313 84.912973 50.5629037 84.7435135 50.4457694 84.6194595 50.3286351 84.495 50.156594 84.4163514 49.9369672 84.4163514M52.431725 85.5287432L52.4305049 85.5327973C52.3951205 85.6288784 52.3609563 85.6896892 52.328419 85.7265811 52.2958817 85.763473 52.265378 85.7756351 52.2369078 85.7756351 52.208031 85.7756351 52.1856616 85.7655 52.1697996 85.7472568 52.1543444 85.7290135 52.1458034 85.7022568 52.1458034 85.6673919 52.1458034 85.6402297 52.156378 85.5911757 52.1669526 85.5457703L52.2971019 85.0994189C52.3219116 85.0118514 52.3361466 84.9271216 52.3361466 84.852527 52.3361466 84.7163108 52.2910011 84.6080676 52.2161653 84.5338784 52.1413295 84.4596892 52.0368034 84.4199595 51.919669 84.4199595 51.8147362 84.4199595 51.7122437 84.462527 51.6215459 84.5314459 51.5373556 84.5950946 51.4629265 84.6814459 51.404766 84.7779324L51.5121392 84.4442838 51.199781 84.4442838 50.8256019 85.9665811 51.1440608 85.9665811 51.3494526 85.1415811C51.3880907 84.9911757 51.4511317 84.8768514 51.5275944 84.8002297 51.6040571 84.7236081 51.6935347 84.6846892 51.7858593 84.6846892 51.853781 84.6846892 51.9099078 84.7065811 51.9489526 84.7438784 51.9884041 84.7819865 52.0107735 84.8359054 52.0107735 84.9015811 52.0107735 84.9506351 52.0038593 84.9960405 51.9863705 85.0552297L51.8558146 85.5117162 51.8558146 85.5121216C51.8415795 85.568473 51.8310049 85.6353649 51.8310049 85.6852297 51.8310049 85.7736081 51.8602884 85.8506351 51.9164153 85.9049595 51.9725422 85.9592838 52.0546989 85.9913108 52.1596317 85.9913108 52.2539899 85.9913108 52.3377735 85.958473 52.4081354 85.8911757 52.4784974 85.823473 52.535031 85.7221216 52.5757026 85.5846892L52.576516 85.5806351 52.431725 85.5287432zM46.545847 85.5208378C46.4518955 85.6396216 46.3213396 85.7166486 46.1732948 85.7166486 46.0565672 85.7166486 45.9666828 85.6805676 45.9052687 85.6169189 45.8442612 85.5532703 45.8121306 85.4624595 45.8121306 85.353 45.8121306 85.185973 45.8751716 85.0205676 45.9752239 84.8969189 46.0752761 84.7732703 46.2119328 84.6917838 46.3595709 84.6917838 46.4677575 84.6917838 46.551541 84.7315135 46.6088881 84.7992162 46.6658284 84.8673243 46.6963321 84.9634054 46.6963321 85.0761081 46.6963321 85.2419189 46.6393918 85.4020541 46.545847 85.5208378M46.8740672 84.590027C46.7784888 84.4821892 46.6385784 84.4205676 46.4616567 84.4205676 46.3587575 84.4205676 46.2595187 84.4570541 46.1716679 84.5142162 46.0895112 84.5673243 46.0215896 84.6390811 45.965056 84.7169189L46.2424366 83.5988108C46.1537724 83.6592162 46.076903 83.705027 45.9565149 83.705027 45.8397873 83.705027 45.7193993 83.6835405 45.6270746 83.6575946 45.5351567 83.6401622 45.4249366 83.6190811 45.3187836 83.6190811 44.9397239 83.6190811 44.780291 83.9198919 44.780291 84.1647568 44.780291 84.2689459 44.8034739 84.3569189 44.8412985 84.4416486 44.7811045 84.4282703 44.7156231 84.4205676 44.6464813 84.4205676 44.4577649 84.4205676 44.3109403 84.4732703 44.2112948 84.5567838 44.1116493 84.6402973 44.0591828 84.7546216 44.0591828 84.8766486 44.0587761 84.9986757 44.1108358 85.0870541 44.1889254 85.155973 44.2666082 85.2248919 44.3707276 85.2747568 44.4760672 85.3217838 44.5606642 85.3586757 44.6403806 85.3931351 44.698541 85.4332703 44.7278246 85.4531351 44.7514142 85.475027 44.7680896 85.4989459 44.7843582 85.5236757 44.793306 85.550027 44.793306 85.5808378 44.793306 85.6108378 44.7851716 85.6367838 44.7709366 85.6594865 44.7489739 85.6931351 44.7123694 85.7186757 44.6664104 85.7361081 44.6204515 85.7535405 44.5647313 85.7624595 44.5057575 85.7624595 44.3975709 85.7624595 44.2962985 85.7377297 44.22675 85.7032703 44.2039739 85.6902973 44.1872985 85.6805676 44.1742836 85.668 44.1946194 85.6424595 44.2076343 85.6051622 44.2076343 85.5702973 44.2076343 85.5236757 44.1901455 85.4802973 44.1592351 85.4490811 44.1287313 85.4178649 44.0852127 85.398 44.0351866 85.398 43.9831269 85.398 43.9367612 85.4194865 43.9042239 85.4555676 43.8712799 85.4912432 43.8517575 85.5415135 43.8517575 85.5982703 43.8517575 85.6732703 43.8875485 85.740973 43.9477425 85.8005676L43.9477425 85.8005676C44.0616231 85.9177297 44.2662015 85.9947568 44.4988433 85.9947568 44.6790187 85.9947568 44.8299104 85.9534054 44.9360634 85.8743514 45.0426231 85.7952973 45.1040373 85.6785405 45.1040373 85.5285405 45.1040373 85.4097568 45.0531978 85.3217838 44.9767351 85.2520541 44.9002724 85.1823243 44.7977799 85.1304324 44.6940672 85.083 44.6062164 85.0428649 44.5244664 85.005973 44.4654925 84.9654324 44.4358022 84.9447568 44.4113993 84.9232703 44.3951306 84.9005676 44.3784552 84.8770541 44.3695075 84.8523243 44.3695075 84.8239459 44.3695075 84.7712432 44.3991978 84.7302973 44.4484104 84.7015135 44.4976231 84.6723243 44.5663582 84.6565135 44.6432276 84.6565135 44.7196903 84.6565135 44.793306 84.6702973 44.8453657 84.6913784L44.8453657 84.6913784C44.8705821 84.7011081 44.8840037 84.710027 44.8941716 84.7169189 44.8709888 84.7570541 44.8636679 84.7825946 44.8636679 84.8138108 44.8636679 84.9070541 44.9429776 84.9861081 45.0401828 84.9861081 45.0885821 84.9861081 45.1337276 84.9662432 45.1666716 84.9317838 45.199209 84.8973243 45.2199515 84.8478649 45.2199515 84.7890811 45.2199515 84.7181351 45.1878209 84.6467838 45.1308806 84.590027L45.1308806 84.590027C45.0979366 84.555973 45.0568582 84.5263784 45.0088657 84.5012432 44.9755149 84.4286757 44.9535522 84.3467838 44.9535522 84.2555676 44.9535522 83.9758378 45.1487761 83.8469189 45.3045485 83.8469189 45.3789776 83.8469189 45.4855373 83.8513784 45.5774552 83.8594865 45.6587985 83.8728649 45.7653582 83.8813784 45.8540224 83.8813784L45.8544291 83.8813784 45.3635224 85.9667838 45.6848284 85.9667838 45.7523433 85.6594865C45.80725 85.8569189 45.9910858 85.9947568 46.2123396 85.9947568 46.4331866 85.9947568 46.6357313 85.8861081 46.782556 85.7121892 46.9293806 85.5378649 47.0208918 85.2978649 47.0208918 85.0343514 47.0208918 84.8515135 46.9696455 84.6982703 46.8740672 84.590027" mask="url(#page-1-b)"/>
    <polygon fill="#FFF" points="59.792 68.57 60.577 68.57 60.507 68.891 59.721 68.891" mask="url(#page-1-b)"/>
    <path fill="#FFF" d="M66.3242224,67.4018919 L66.2233567,67.4018919 C66.2233567,68.537027 65.762547,69.5635135 65.0162224,70.307027 C64.2698978,71.0509459 63.2400918,71.5106757 62.1016925,71.5106757 C60.9628866,71.5106757 59.9330806,71.0509459 59.186756,70.307027 C58.4408381,69.5635135 57.9796216,68.537027 57.9796216,67.4018919 C57.9796216,66.2667568 58.4408381,65.2402703 59.186756,64.4967568 C59.9330806,63.7528378 60.9628866,63.2931081 62.1016925,63.2931081 C63.2400918,63.2931081 64.2698978,63.7528378 65.0162224,64.4967568 C65.762547,65.2402703 66.2233567,66.2667568 66.2233567,67.4018919 L66.3242224,67.4018919 L66.4250881,67.4018919 C66.4250881,66.212027 65.9410955,65.1340541 65.1585731,64.3544595 C64.3764575,63.5752703 63.2949985,63.0924324 62.1016925,63.0924324 C60.9079799,63.0924324 59.8265209,63.5752703 59.0444052,64.3544595 C58.2622896,65.1340541 57.778297,66.212027 57.778297,67.4018919 C57.778297,68.5917568 58.2622896,69.6697297 59.0444052,70.4493243 C59.8265209,71.2285135 60.9079799,71.7113514 62.1016925,71.7113514 C63.2949985,71.7113514 64.3764575,71.2285135 65.1585731,70.4493243 C65.9410955,69.6697297 66.4250881,68.5917568 66.4250881,67.4018919 L66.3242224,67.4018919 Z" mask="url(#page-1-b)"/>
    <path fill="#FFF" d="M62.9759701 66.2474189C62.8995075 66.3443108 62.792541 66.4075541 62.6717463 66.4075541 62.5765746 66.4075541 62.502959 66.3775541 62.4529328 66.3256622 62.4033134 66.2741757 62.3768769 66.1999865 62.3768769 66.1103919 62.3768769 65.9741757 62.4281231 65.8387703 62.5098731 65.7378243 62.5916231 65.6368784 62.7034701 65.5703919 62.8238582 65.5703919 62.9121157 65.5703919 62.980444 65.6028243 63.0272164 65.6583649 63.0739888 65.7139054 63.0987985 65.7921486 63.0987985 65.8845811 63.0987985 66.0195811 63.0524328 66.150527 62.9759701 66.2474189M63.2439963 65.4876892C63.1659067 65.3997162 63.0516194 65.3490405 62.9072351 65.3490405 62.8230448 65.3490405 62.7421082 65.3786351 62.6705261 65.4256622 62.6034179 65.4690405 62.5481045 65.5278243 62.5017388 65.5910676L62.7282799 64.6780946C62.6558843 64.7275541 62.5928433 64.7648514 62.4948246 64.7648514 62.3992463 64.7648514 62.3008209 64.7474189 62.2255784 64.7263378 62.1503358 64.7121486 62.0608582 64.6947162 61.9742276 64.6947162 61.6643097 64.6947162 61.5341604 64.9403919 61.5341604 65.1406622 61.5341604 65.2253919 61.5532761 65.2971486 61.5841866 65.366473 61.5349739 65.355527 61.4812873 65.3490405 61.4251604 65.3490405 61.2710149 65.3490405 61.1510336 65.3924189 61.0696903 65.460527 60.988347 65.5290405 60.9452351 65.6218784 60.9452351 65.7216081 60.9452351 65.8213378 60.9875336 65.8930946 61.0513881 65.9494459 61.1148358 66.0053919 61.1998396 66.0463378 61.2860634 66.0852568 61.3547985 66.1152568 61.4198731 66.1428243 61.4678657 66.1756622 61.4914552 66.1922838 61.5105709 66.2101216 61.5243993 66.2299865 61.5374142 66.2498514 61.5451418 66.2717432 61.5451418 66.296473 61.5451418 66.3212027 61.5386343 66.3418784 61.5268396 66.360527 61.508944 66.3880946 61.478847 66.4091757 61.4414291 66.4233649 61.4036045 66.4375541 61.358459 66.4444459 61.3104664 66.4444459 61.222209 66.4444459 61.1392388 66.4245811 61.0822985 66.3966081 61.0635896 66.3860676 61.0501679 66.3775541 61.0395933 66.3678243 61.0558619 66.3467432 61.0668433 66.3163378 61.0668433 66.2879595 61.0668433 66.2498514 61.0522015 66.2145811 61.0269851 66.1890405 61.0021754 66.1635 60.966791 66.1472838 60.9257127 66.1472838 60.8830075 66.1472838 60.8455896 66.1647162 60.8187463 66.1939054 60.791903 66.2230946 60.776041 66.2644459 60.776041 66.3106622 60.776041 66.3722838 60.8053246 66.4270135 60.8545373 66.4760676L60.8545373 66.4760676C60.9472687 66.5717432 61.1144291 66.6345811 61.3047724 66.6345811 61.4511903 66.6345811 61.5748321 66.6009324 61.6618694 66.536473 61.7485 66.4720135 61.7985261 66.3759324 61.7985261 66.2539054 61.7985261 66.1566081 61.757041 66.0848514 61.6948134 66.0280946 61.6321791 65.9709324 61.5483955 65.9287703 61.4637985 65.8902568 61.3918097 65.8570135 61.3255149 65.8274189 61.2771157 65.7937703 61.2531194 65.7771486 61.2331903 65.7597162 61.2197687 65.7406622 61.206347 65.7220135 61.1990261 65.7013378 61.1990261 65.6786351 61.1990261 65.6356622 61.2230224 65.6020135 61.2632873 65.5785 61.3035522 65.5545811 61.3596791 65.5420135 61.4223134 65.5420135 61.4849478 65.5420135 61.5447351 65.5533649 61.5874403 65.5703919 61.6077761 65.5780946 61.6187575 65.5853919 61.6272985 65.5910676 61.6081828 65.6239054 61.6024888 65.6445811 61.6024888 65.6701216 61.6024888 65.7467432 61.6671567 65.8107973 61.7464664 65.8107973 61.7863246 65.8107973 61.8229291 65.7945811 61.8497724 65.7662027 61.8766157 65.7382297 61.893291 65.6980946 61.893291 65.6498514 61.893291 65.5918784 61.8668545 65.5339054 61.8208955 65.4876892L61.8204888 65.4876892C61.7936455 65.4601216 61.7598881 65.4353919 61.7208433 65.4151216 61.694 65.3559324 61.6761045 65.2894459 61.6761045 65.2140405 61.6761045 64.9862027 61.8351306 64.8807973 61.9624328 64.8807973 62.0230336 64.8807973 62.1100709 64.8844459 62.1853134 64.8909324 62.2516082 64.9018784 62.3386455 64.9087703 62.411041 64.9087703L62.4114478 64.9087703 62.0104254 66.611473 62.2727575 66.611473 62.3280709 66.360527C62.3728097 66.5218784 62.5228881 66.6345811 62.7034701 66.6345811 62.8836455 66.6345811 63.0491791 66.5457973 63.1691604 66.4039054 63.2891418 66.2616081 63.3639776 66.0657973 63.3639776 65.850527 63.3639776 65.7009324 63.3220858 65.5756622 63.2439963 65.4876892M64.5700545 69.0294324L64.5688343 69.0326757C64.5403642 69.1109189 64.5127075 69.1603784 64.4862709 69.189973 64.4598343 69.219973 64.4350246 69.2301081 64.4118418 69.2301081 64.3882522 69.2301081 64.3703567 69.222 64.3577485 69.207 64.3451403 69.192 64.3382261 69.1701081 64.3382261 69.1421351 64.3382261 69.1202432 64.3467672 69.0801081 64.3553082 69.0432162L64.4610545 68.6815946C64.4809836 68.6098378 64.4927784 68.5413243 64.4927784 68.4805135 64.4927784 68.3702432 64.4557672 68.2822703 64.3951664 68.2222703 64.334159 68.1618649 64.2495619 68.1294324 64.154797 68.1294324 64.0693866 68.1294324 63.9864164 68.1642973 63.9128007 68.2202432 63.8444724 68.2721351 63.7838716 68.3422703 63.7366925 68.4205135L63.8237299 68.1497027 63.5703455 68.1497027 63.2665284 69.384973 63.5252 69.384973 63.691547 68.7156486C63.7228642 68.5932162 63.7741104 68.5003784 63.8363381 68.4383514 63.8985657 68.3763243 63.9709612 68.3447027 64.045797 68.3447027 64.1011104 68.3447027 64.146256 68.3621351 64.1783866 68.3929459 64.2101104 68.4233514 64.2284127 68.4671351 64.2284127 68.5206486 64.2284127 68.5603784 64.2227187 68.5972703 64.2084836 68.6455135L64.1027373 69.0160541 64.1027373 69.0160541C64.0913493 69.0618649 64.0824015 69.1161892 64.0824015 69.1563243 64.0824015 69.2284865 64.1063978 69.2909189 64.15195 69.3351081 64.1970955 69.3788919 64.2642037 69.4052432 64.3492075 69.4052432 64.4256701 69.4052432 64.4939985 69.3780811 64.5509388 69.3237568 64.6078791 69.269027 64.6538381 69.1863243 64.6867821 69.0744324L64.6880022 69.0715946 64.5700545 69.0294324z" mask="url(#page-1-b)"/>
    <path fill="#FFF" d="M102.606581,64.9021622 L7.96651716,64.9021622 C5.90243134,64.9021622 4.22838657,63.2335135 4.22838657,61.1760811 C4.22838657,59.1182432 5.90243134,57.45 7.96651716,57.45 L102.606581,57.45 C104.670666,57.45 106.344304,59.1182432 106.344304,61.1760811 C106.344304,63.2335135 104.670666,64.9021622 102.606581,64.9021622" mask="url(#page-1-b)"/>
    <path fill="#FFF" d="M84.5712291,104.766081 L24.8518373,104.766081 C16.4385015,104.766081 9.5938709,97.9435135 9.5938709,89.5577027 L9.5938709,61.1760811 C9.5938709,59.4948649 10.9624716,58.1306757 12.6491246,58.1306757 C14.3361843,58.1306757 15.7043784,59.4948649 15.7043784,61.1760811 L15.7043784,89.5577027 C15.7043784,94.5863514 19.8069269,98.6756757 24.8518373,98.6756757 L84.5712291,98.6756757 C89.6161396,98.6756757 93.7186881,94.5863514 93.7186881,89.5577027 L93.7186881,61.1760811 C93.7186881,59.4948649 95.0868821,58.1306757 96.7735351,58.1306757 C98.4605948,58.1306757 99.8287888,59.4948649 99.8287888,61.1760811 L99.8287888,89.5577027 C99.8287888,97.9435135 92.9841582,104.766081 84.5712291,104.766081" mask="url(#page-1-b)"/>
    <path fill="#FFF" d="M54.7113299 103.03123C53.9849343 103.03123 53.3968224 102.445014 53.3968224 101.720959L53.3968224 61.1759595C53.3968224 60.4519054 53.9849343 59.8656892 54.7113299 59.8656892 55.4381321 59.8656892 56.0258373 60.4519054 56.0258373 61.1759595L56.0258373 101.720959C56.0258373 102.445014 55.4381321 103.03123 54.7113299 103.03123M38.9379724 103.03123C38.2115769 103.03123 37.6234649 102.445014 37.6234649 101.720959L37.6234649 61.1759595C37.6234649 60.4519054 38.2115769 59.8656892 38.9379724 59.8656892 39.6647746 59.8656892 40.2524799 60.4519054 40.2524799 61.1759595L40.2524799 101.720959C40.2524799 102.445014 39.6647746 103.03123 38.9379724 103.03123M23.1646149 103.03123C22.4382194 103.03123 21.8501075 102.445014 21.8501075 101.720959L21.8501075 61.1759595C21.8501075 60.4519054 22.4382194 59.8656892 23.1646149 59.8656892 23.8914172 59.8656892 24.4791224 60.4519054 24.4791224 61.1759595L24.4791224 101.720959C24.4791224 102.445014 23.8914172 103.03123 23.1646149 103.03123M70.484728 103.03123C69.7583325 103.03123 69.1702205 102.445014 69.1702205 101.720959L69.1702205 61.1759595C69.1702205 60.4519054 69.7583325 59.8656892 70.484728 59.8656892 71.2115302 59.8656892 71.7992354 60.4519054 71.7992354 61.1759595L71.7992354 101.720959C71.7992354 102.445014 71.2115302 103.03123 70.484728 103.03123M86.2580854 103.03123C85.5316899 103.03123 84.943578 102.445014 84.943578 101.720959L84.943578 61.1759595C84.943578 60.4519054 85.5316899 59.8656892 86.2580854 59.8656892 86.9848877 59.8656892 87.5721862 60.4519054 87.5721862 61.1759595L87.5721862 101.720959C87.5721862 102.445014 86.9848877 103.03123 86.2580854 103.03123" mask="url(#page-1-b)"/>
    <path fill="#FFF" d="M25.0516164 64.2212027C24.1503328 64.2212027 23.2571836 63.8243108 22.6536164 63.0670135L.660019403 35.3891757C-.387275373 34.0707973-.164394776 32.1540405 1.15824701 31.110527 2.48292239 30.0690405 4.4030306 30.2916081 5.45073209 31.6067432L27.4443291 59.2845811C28.4916239 60.6025541 28.2687433 62.5197162 26.9465082 63.5636351 26.3840194 64.0063378 25.7165978 64.2212027 25.0516164 64.2212027M83.7601959 64.2212027C83.1005019 64.2212027 82.4355205 64.0091757 81.8758787 63.5709324 80.5487631 62.5322838 80.3173414 60.6179595 81.3597556 59.2951216L103.204494 31.5686351C104.246909 30.2478243 106.167424 30.0175541 107.494539 31.0541757 108.822062 32.0932297 109.053076 34.0071486 108.010662 35.3299865L86.1659235 63.0568784C85.5623563 63.8222838 84.6667668 64.2212027 83.7601959 64.2212027" mask="url(#page-1-b)"/>
    <path fill="#FFF" d="M25.0504369 63.1403919C27.593228 63.1403919 27.593228 59.2095811 25.0504369 59.2095811 22.5076459 59.2095811 22.5076459 63.1403919 25.0504369 63.1403919M96.7735351 75.0792568L12.6491246 75.0792568C11.9227291 75.0792568 11.3346172 74.4930405 11.3346172 73.7689865 11.3346172 73.044527 11.9227291 72.4587162 12.6491246 72.4587162L96.7735351 72.4587162C97.5003373 72.4587162 98.0880425 73.044527 98.0880425 73.7689865 98.0880425 74.4930405 97.5003373 75.0792568 96.7735351 75.0792568M96.7735351 88.6187838L12.6491246 88.6187838C11.9227291 88.6187838 11.3346172 88.032973 11.3346172 87.3089189 11.3346172 86.5840541 11.9227291 85.9982432 12.6491246 85.9982432L96.7735351 85.9982432C97.5003373 85.9982432 98.0880425 86.5840541 98.0880425 87.3089189 98.0880425 88.032973 97.5003373 88.6187838 96.7735351 88.6187838M83.7623922 63.1403919C86.3051832 63.1403919 86.3051832 59.2095811 83.7623922 59.2095811 81.2196011 59.2095811 81.2196011 63.1403919 83.7623922 63.1403919" mask="url(#page-1-b)"/>
  </g>
</svg>
