<svg xmlns="http://www.w3.org/2000/svg" xmlns:xlink="http://www.w3.org/1999/xlink" width="270" height="270" viewBox="0 0 270 270">
  <defs>
    <polygon id="pattern_index_r-a" points=".25 0 270 0 270 270 .25 270"/>
  </defs>
  <g fill="none" fill-rule="evenodd">
    <mask id="pattern_index_r-b" fill="#fff">
      <use xlink:href="#pattern_index_r-a"/>
    </mask>
    <use fill="#FCFCFC" xlink:href="#pattern_index_r-a"/>
    <g mask="url(#pattern_index_r-b)">
      <g transform="translate(14 30)">
        <polygon fill="#F6F6F6" points="70.702 193.956 98.29 193.956 95.818 204.639 68.223 204.639"/>
        <g transform="translate(0 .08)">
          <path fill="#F6F6F6" d="M300.067725,152.636521 L296.537054,152.636521 C296.52903,192.712862 280.344112,228.96015 254.136904,255.232597 C227.937719,281.496999 191.780437,297.73025 151.795587,297.73025 C111.826785,297.73025 75.6614794,281.496999 49.4622949,255.232597 C23.2631105,228.96015 7.07016889,192.712862 7.07016889,152.636521 C7.07016889,112.56018 23.2631105,76.3048476 49.4622949,50.0404452 C75.6614794,23.7760429 111.826785,7.54279202 151.795587,7.54279202 C191.780437,7.54279202 227.937719,23.7760429 254.136904,50.0404452 C280.344112,76.3048476 296.52903,112.56018 296.537054,152.636521 L300.067725,152.636521 L303.598396,152.636521 C303.598396,110.621522 286.603029,72.5562377 259.136013,45.0288916 C231.685045,17.4935013 193.706258,0.4558277 151.795587,0.4558277 C109.892941,0.4558277 71.9221777,17.4935013 44.4631856,45.0288916 C16.9961692,72.5562377 -0.00722182726,110.621522 0.000802425251,152.636521 C-0.00722182726,194.651521 16.9961692,232.716805 44.4631856,260.244151 C71.9221777,287.771497 109.892941,304.817215 151.795587,304.80917 C193.706258,304.817215 231.685045,287.771497 259.136013,260.244151 C286.603029,232.716805 303.598396,194.651521 303.598396,152.636521 L300.067725,152.636521 Z"/>
          <path fill="#F6F6F6" d="M182.49718 111.873203C179.809055 115.300044 176.061729 117.520251 171.824924 117.520251 168.470786 117.520251 165.895001 116.474501 164.13769 114.640418 162.388403 112.814378 161.465614 110.200004 161.465614 107.038623 161.465614 102.220131 163.271071 97.4418595 166.135729 93.8782667 169.000387 90.314674 172.932271 87.9657596 177.161052 87.9657596 180.258413 87.9657596 182.665689 89.1080399 184.302637 91.0708314 185.939584 93.0175344 186.822252 95.7927928 186.822252 99.0587492 186.822252 103.828976 185.185304 108.446363 182.49718 111.873203M191.909628 85.0376608C189.173358 81.9325891 185.153207 80.1467706 180.089904 80.1548148 177.136979 80.1548148 174.296394 81.2005644 171.776778 82.849631 169.425672 84.3860784 167.475779 86.4454006 165.846856 88.6897401L173.806914 56.4484768C171.263226 58.2021183 169.048532 59.5133274 165.606128 59.5133274 162.260015 59.5133274 158.801562 58.8939219 156.161583 58.1458087 153.521604 57.6551109 150.368073 57.0357054 147.318857 57.0357054 136.454019 57.0357054 131.880195 65.7154267 131.880195 72.7782583 131.880195 75.7707109 132.546208 78.3126868 133.637506 80.7581319 131.904268 80.3639647 130.026593 80.1548148 128.044602 80.1548148 122.636256 80.1548148 118.423523 81.6751738 115.56689 84.0803978 112.710256 86.4856218 111.201696 89.7757108 111.201696 93.2990824 111.201696 96.8144097 112.686183 99.3563856 114.924949 101.34331 117.155692 103.330234 120.140713 104.770151 123.165857 106.137669 125.581157 107.191463 127.868069 108.180903 129.545137 109.347316 130.37966 109.9265 131.061721 110.545906 131.527128 111.245754 132.000559 111.945601 132.257335 112.717847 132.265359 113.602712 132.265359 114.463445 132.024631 115.219602 131.615395 115.86314 130.989503 116.836492 129.938326 117.576561 128.614324 118.075303 127.298347 118.582089 125.709545 118.83146 124.016427 118.83146 120.911042 118.839504 118.006262 118.131612 116.016248 117.134128 115.358259 116.756049 114.884828 116.466457 114.507688 116.112511 115.093459 115.380486 115.470598 114.30256 115.470598 113.297032 115.470598 111.953646 114.957046 110.70679 114.082403 109.805837 113.199735 108.896839 111.955976 108.333743 110.519635 108.333743 109.027124 108.333743 107.703122 108.953149 106.764285 109.98281 105.825447 111.020515 105.263749 112.460432 105.263749 114.109499 105.263749 116.265352 106.282829 118.220099 108.016068 119.949608 111.273914 123.312095 117.139643 125.540346 123.815821 125.540346 128.975415 125.540346 133.308512 124.3498 136.357728 122.073284 139.406944 119.788723 141.164255 116.410148 141.164255 112.082353 141.164255 108.671601 139.703841 106.129625 137.51322 104.118568 135.314575 102.107511 132.385723 100.619329 129.408725 99.2518106 126.88911 98.0934419 124.546028 97.0316039 122.852911 95.8491024 122.00234 95.2699181 121.312254 94.6424683 120.838823 93.9747975 120.365393 93.3071266 120.108616 92.5911903 120.108616 91.7867676 120.108616 90.2664086 120.959187 89.075863 122.363431 88.2392633 123.7757 87.4026637 125.749666 86.952187 127.948311 86.952187 130.154981 86.952187 132.257335 87.3543983 133.749846 87.9577154 134.472028 88.2312191 134.857193 88.4886344 135.146066 88.6897401 134.480053 89.8481088 134.279446 90.5801335 134.279446 91.481087 134.279446 94.1759031 136.542286 96.4524195 139.334725 96.4524195 140.722921 96.4524195 142.02285 95.8812793 142.961688 94.8837951 143.900525 93.886311 144.49432 92.4705269 144.49432 90.773195 144.49432 88.721917 143.563507 86.670639 141.934583 85.0376608 140.995746 84.0562651 139.808156 83.203577 138.436009 82.4795965 137.481123 80.3800532 136.855231 78.0311388 136.855231 75.384588 136.855231 67.3242722 142.440111 63.6078391 146.90962 63.6078391 149.052095 63.6078391 152.093287 63.7285025 154.74129 63.9778736 157.076348 64.347908 160.117539 64.5972791 162.661227 64.5972791L162.6853 64.5972791 148.602737 124.727879 157.822603 124.727879 159.748424 115.871184C161.329202 121.558453 166.593111 125.540346 172.932271 125.540346 179.27143 125.540346 185.072965 122.411141 189.285697 117.391543 193.49843 112.371945 196.12236 105.445866 196.12236 97.8440708 196.12236 92.5751019 194.661947 88.1427326 191.909628 85.0376608M238.475168 210.112526L238.435046 210.225145C237.432015 212.984315 236.46108 214.737956 235.530267 215.79175 234.607478 216.8375 233.740859 217.191446 232.922385 217.191446 232.095887 217.191446 231.453947 216.901854 231.020637 216.378979 230.579303 215.856104 230.330551 215.075814 230.330551 214.094418 230.330551 213.314128 230.627449 211.906388 230.93237 210.603224L234.639575 197.820946 234.639575 197.812902C235.345709 195.295059 235.754946 192.865702 235.754946 190.733982 235.754946 186.832532 234.463041 183.72746 232.32859 181.603784 230.194139 179.480108 227.225166 178.337828 223.887077 178.337828 220.89403 178.337828 217.981227 179.56055 215.389393 181.531386 212.990142 183.357425 210.871739 185.835048 209.210719 188.602262L212.259935 179.037675 203.369063 179.037675 192.704831 222.669565 201.788285 222.669565 207.629941 199.019536C208.729264 194.70783 210.53472 191.43383 212.709293 189.237756 214.89189 187.041682 217.443602 185.923534 220.067532 185.923534 222.001377 185.923534 223.598203 186.54294 224.721599 187.62891 225.83697 188.706837 226.47891 190.259373 226.47891 192.149766 226.47891 193.541417 226.278304 194.836538 225.7808 196.541914L222.065571 209.629872 222.065571 209.629872C221.656334 211.254806 221.359437 213.169332 221.359437 214.59316 221.359437 217.135136 222.193959 219.33121 223.790786 220.89179 225.387612 222.460415 227.730694 223.369412 230.715715 223.369412 233.40384 223.369412 235.795067 222.428238 237.80113 220.497623 239.807194 218.558964 241.420068 215.646954 242.575561 211.705283L242.607658 211.600708 238.475168 210.112526z"/>
        </g>
      </g>
    </g>
  </g>
</svg>
