<svg xmlns="http://www.w3.org/2000/svg" xmlns:xlink="http://www.w3.org/1999/xlink" width="98" height="99" viewBox="0 0 98 99">
  <defs>
    <polygon id="plan_type1-a" points="97.651 98 0 98 0 .349 97.651 .349"/>
  </defs>
  <g fill="none" fill-rule="evenodd">
    <g transform="translate(0 .215)">
      <mask id="plan_type1-b" fill="#fff">
        <use xlink:href="#plan_type1-a"/>
      </mask>
      <path fill="#A5B6F3" d="M96.5148718,49.1746154 L95.3789744,49.1746154 C95.3764103,62.0335897 90.1687179,73.664359 81.7430769,82.0925641 C73.3148718,90.5182051 61.6841026,95.7258974 48.8251282,95.7258974 C35.9687179,95.7258974 24.3379487,90.5182051 15.9097436,82.0925641 C7.48410256,73.664359 2.27384615,62.0335897 2.27384615,49.1746154 C2.27384615,36.315641 7.48410256,24.6848718 15.9097436,16.2566667 C24.3379487,7.83102564 35.9687179,2.62333333 48.8251282,2.62333333 C61.6841026,2.62333333 73.3148718,7.83102564 81.7430769,16.2566667 C90.1687179,24.6848718 95.3764103,36.315641 95.3789744,49.1746154 L96.5148718,49.1746154 L97.6507692,49.1746154 C97.6533333,35.6951282 92.1841026,23.4823077 83.3507692,14.6489744 C74.52,5.81564103 62.3046154,0.348974359 48.8251282,0.348974359 C35.345641,0.348974359 23.1328205,5.81564103 14.3020513,14.6489744 C5.46615385,23.4823077 -0.000512820513,35.6951282 -0.000512820513,49.1746154 C-0.000512820513,62.6541026 5.46615385,74.8669231 14.3020513,83.7002564 C23.1328205,92.5335897 35.345641,98.0002564 48.8251282,98.0002564 C62.3046154,98.0002564 74.52,92.5335897 83.3507692,83.7002564 C92.1841026,74.8669231 97.6533333,62.6541026 97.6507692,49.1746154 L96.5148718,49.1746154 Z" mask="url(#plan_type1-b)"/>
    </g>
    <path fill="#A5B6F3" d="M58.7007692 36.3115385C57.8341026 37.4115385 56.6315385 38.124359 55.2674359 38.124359 54.1905128 38.124359 53.3597436 37.7858974 52.795641 37.1987179 52.2315385 36.6141026 51.9366667 35.7730769 51.9366667 34.7602564 51.9341026 33.2141026 52.5161538 31.6807692 53.4366667 30.5371795 54.3597436 29.3935897 55.6212821 28.6397436 56.9853846 28.6397436 57.9802564 28.6397436 58.7520513 29.0089744 59.2802564 29.6346154 59.8084615 30.2628205 60.0905128 31.1525641 60.0905128 32.1987179 60.0905128 33.7294872 59.5648718 35.2141026 58.7007692 36.3115385M61.7289744 27.7012821C60.8469231 26.7038462 59.5546154 26.1320513 57.9238462 26.1346154 56.9751282 26.1346154 56.0623077 26.4679487 55.2494872 26.9987179 54.495641 27.4910256 53.8674359 28.1551282 53.3469231 28.8730769L55.9033333 18.5269231C55.0853846 19.0910256 54.3751282 19.5115385 53.2674359 19.5115385 52.1905128 19.5115385 51.0776923 19.3141026 50.2289744 19.075641 49.3802564 18.9166667 48.3674359 18.7166667 47.3853846 18.7166667 43.8905128 18.7166667 42.4187179 21.5012821 42.4187179 23.7679487 42.4187179 24.7294872 42.6341026 25.5448718 42.9828205 26.3269231 42.4264103 26.2012821 41.8238462 26.1346154 41.1879487 26.1346154 39.4469231 26.1346154 38.0930769 26.6217949 37.1725641 27.3935897 36.2520513 28.1653846 35.77 29.224359 35.77 30.3525641 35.77 31.4807692 36.2469231 32.2961538 36.9648718 32.9320513 37.6828205 33.5705128 38.644359 34.0320513 39.6161538 34.4705128 40.3930769 34.8115385 41.1289744 35.1269231 41.6674359 35.4987179 41.9366667 35.6858974 42.1546154 35.8858974 42.3058974 36.1115385 42.4571795 36.3346154 42.5417949 36.5807692 42.5417949 36.8653846 42.5417949 37.1423077 42.4674359 37.3833333 42.3341026 37.5910256 42.1315385 37.9038462 41.7930769 38.1423077 41.37 38.3038462 40.944359 38.4628205 40.4341026 38.5448718 39.8905128 38.5448718 38.8930769 38.5448718 37.9571795 38.3192308 37.3161538 37.9987179 37.1033333 37.8782051 36.9520513 37.7858974 36.8315385 37.6730769 37.0187179 37.4371795 37.1417949 37.0910256 37.1417949 36.7679487 37.1417949 36.3371795 36.9751282 35.9397436 36.6930769 35.6474359 36.4110256 35.3576923 36.0110256 35.175641 35.5494872 35.175641 35.0674359 35.175641 34.644359 35.3730769 34.3417949 35.7064103 34.0392308 36.0371795 33.8571795 36.5012821 33.8571795 37.0269231 33.8571795 37.7217949 34.1879487 38.3474359 34.744359 38.9012821 35.7905128 39.9807692 37.6802564 40.6961538 39.8264103 40.6961538 41.4853846 40.6961538 42.8776923 40.3141026 43.8597436 39.5833333 44.8417949 38.85 45.4058974 37.7679487 45.4058974 36.3807692 45.4058974 35.2833333 44.9366667 34.4679487 44.2315385 33.824359 43.5238462 33.1782051 42.5802564 32.6987179 41.6238462 32.2628205 40.8135897 31.8884615 40.0623077 31.55 39.5161538 31.1705128 39.2417949 30.9833333 39.0212821 30.7833333 38.87 30.5705128 38.7161538 30.3551282 38.6341026 30.124359 38.6341026 29.8653846 38.6341026 29.3782051 38.9058974 28.9961538 39.3597436 28.7294872 39.8135897 28.4628205 40.4469231 28.3166667 41.1546154 28.3166667 41.8623077 28.3166667 42.5392308 28.4448718 43.0212821 28.6371795 43.2520513 28.724359 43.3751282 28.8089744 43.47 28.8730769 43.2571795 29.2448718 43.1905128 29.4782051 43.1905128 29.7679487 43.1905128 30.6346154 43.9212821 31.3628205 44.8161538 31.3628205 45.2648718 31.3628205 45.6802564 31.1807692 45.9828205 30.8602564 46.2853846 30.5423077 46.4751282 30.0858974 46.4751282 29.5423077 46.4751282 28.8833333 46.1776923 28.224359 45.6546154 27.7012821 45.3520513 27.3858974 44.97 27.1115385 44.5289744 26.8807692 44.2212821 26.2064103 44.0212821 25.4525641 44.0212821 24.6038462 44.0212821 22.0192308 45.8161538 20.824359 47.2546154 20.824359 47.9417949 20.824359 48.9212821 20.8653846 49.7725641 20.9448718 50.5238462 21.0628205 51.5033333 21.1423077 52.3212821 21.1423077L52.3264103 21.1423077 47.7982051 40.4371795 50.7623077 40.4371795 51.3828205 37.5935897C51.8905128 39.4192308 53.5828205 40.6961538 55.6238462 40.6961538 57.6623077 40.6961538 59.5289744 39.6935897 60.8828205 38.0807692 62.2366667 36.4705128 63.0828205 34.25 63.0828205 31.8115385 63.0828205 30.1192308 62.6110256 28.6987179 61.7289744 27.7012821M76.704359 67.8307692L76.6915385 67.8666667C76.3684615 68.7512821 76.055641 69.3128205 75.7582051 69.6512821 75.4607692 69.9871795 75.1812821 70.1025641 74.9197436 70.1025641 74.6530769 70.1025641 74.4479487 70.0102564 74.3069231 69.8410256 74.1633333 69.6717949 74.0838462 69.4230769 74.0838462 69.1076923 74.0838462 68.8564103 74.1812821 68.4051282 74.2761538 67.9871795L75.4710256 63.8846154C75.6992308 63.074359 75.83 62.2974359 75.83 61.6128205 75.83 60.3615385 75.4146154 59.3666667 74.7274359 58.6846154 74.0402564 58.0025641 73.0864103 57.6358974 72.0120513 57.6358974 71.0479487 57.6358974 70.1120513 58.0282051 69.2787179 58.6615385 68.5094872 59.2461538 67.8274359 60.0410256 67.2915385 60.9282051L68.2735897 57.8615385 65.4120513 57.8615385 61.9838462 71.8589744 64.904359 71.8589744 66.7838462 64.2717949C67.1376923 62.8871795 67.7171795 61.8358974 68.4171795 61.1307692 69.1171795 60.4282051 69.9402564 60.0692308 70.7838462 60.0692308 71.4069231 60.0692308 71.9197436 60.2692308 72.2787179 60.6153846 72.6402564 60.9641026 72.8453846 61.4615385 72.8453846 62.0666667 72.8453846 62.5153846 72.7812821 62.9307692 72.6223077 63.4769231L72.6197436 63.4769231 71.4248718 67.674359 71.4248718 67.6769231C71.2966667 68.1948718 71.1992308 68.8102564 71.1992308 69.2692308 71.1992308 70.0846154 71.4684615 70.7897436 71.9812821 71.2897436 72.4941026 71.7897436 73.2479487 72.0846154 74.2069231 72.0846154 75.0735897 72.0846154 75.8428205 71.7820513 76.4864103 71.1615385 77.1325641 70.5410256 77.6505128 69.6076923 78.0248718 68.3435897L78.0325641 68.3076923 76.704359 67.8307692z"/>
    <polygon fill="#A5B6F3" points="25.173 69.505 28.63 69.505 30.853 59.902 27.691 60.633 27.573 57.969 33.137 56.592 34.661 57.294 31.819 69.505 35.332 69.505 34.748 72.138 24.589 72.138"/>
    <path fill="#A5B6F3" d="M37.7307692,70.0015385 C37.7307692,68.6553846 38.8153846,67.5707692 40.1307692,67.5707692 C41.4487179,67.5707692 42.5307692,68.6553846 42.5307692,70.0015385 C42.5307692,71.3194872 41.4487179,72.4041026 40.1307692,72.4041026 C38.8153846,72.4041026 37.7307692,71.3194872 37.7307692,70.0015385"/>
  </g>
</svg>
