<svg xmlns="http://www.w3.org/2000/svg" xmlns:xlink="http://www.w3.org/1999/xlink" width="98" height="99" viewBox="0 0 98 99">
  <defs>
    <polygon id="plan_type3-a" points="48.787 98.312 0 98.312 0 .433 48.787 .433 97.573 .433 97.573 98.312 48.787 98.312"/>
  </defs>
  <g fill="none" fill-rule="evenodd">
    <g transform="translate(0 .216)">
      <mask id="plan_type3-b" fill="#fff">
        <use xlink:href="#plan_type3-a"/>
      </mask>
      <path fill="#A5B6F3" d="M96.4384052,49.372448 L95.3033987,49.372448 C95.3033987,62.2614897 90.0972288,73.9194544 81.6781961,82.3673667 C73.2566013,90.8127088 61.6375163,96.0325779 48.7860654,96.0325779 C35.9397386,96.0325779 24.3180915,90.8127088 15.8964967,82.3673667 C7.47746405,73.9194544 2.27385621,62.2614897 2.27129412,49.372448 C2.27385621,36.4834064 7.47746405,24.8254417 15.8964967,16.3775294 C24.3180915,7.93218725 35.9397386,2.71231814 48.7860654,2.71231814 C61.6375163,2.71231814 73.2566013,7.93218725 81.6781961,16.3775294 C90.0972288,24.8254417 95.3033987,36.4834064 95.3033987,49.372448 L96.4384052,49.372448 L97.5734118,49.372448 C97.5759739,35.8614426 92.1135948,23.6200657 83.2846275,14.7660779 C74.4607843,5.9120902 62.2549804,0.432641176 48.7860654,0.432641176 C35.3197124,0.432641176 23.1139085,5.9120902 14.2900654,14.7660779 C5.46366013,23.6200657 -0.00128104575,35.8614426 -0.00128104575,49.372448 C-0.00128104575,62.8834534 5.46366013,75.1248304 14.2900654,83.9788181 C23.1139085,92.8328059 35.3197124,98.3122549 48.7860654,98.3122549 C62.2549804,98.3122549 74.4607843,92.8328059 83.2846275,83.9788181 C92.1135948,75.1248304 97.5759739,62.8834534 97.5734118,49.372448 L96.4384052,49.372448 Z" mask="url(#plan_type3-b)"/>
      <path fill="#A5B6F3" d="M58.6537046 36.263406C57.7877176 37.365978 56.5835346 38.0804653 55.2230641 38.0804653 54.1469856 38.0804653 53.316868 37.7412124 52.7532078 37.15523 52.1921098 36.5666775 51.8923451 35.7236854 51.8923451 34.7084967 51.8923451 33.1587275 52.4739399 31.6218089 53.3937307 30.4781153 54.3160837 29.3292815 55.5766327 28.5736726 56.9396654 28.5736726 57.9337569 28.5762427 58.7075085 28.9437668 59.2327373 29.5708707 59.7605281 30.2005447 60.0423582 31.0923687 60.0423582 32.1409687 60.0423582 33.6753173 59.5171294 35.163404 58.6537046 36.263406M61.6795346 27.6330168C60.7981752 26.6332486 59.506881 26.0601168 57.8773908 26.0626869 56.929417 26.0626869 56.0173124 26.3967996 55.2051294 26.9288099 54.4518745 27.4248388 53.8241621 28.0879241 53.3040575 28.8101217L55.8584627 18.437206C55.0411556 19.0026275 54.3314562 19.4241236 53.2246327 19.4241236 52.1459922 19.4241236 51.0366065 19.2262261 50.1885542 18.987207 49.340502 18.8278609 48.3259137 18.6273932 47.3471948 18.6273932 43.8550641 18.6273932 42.3844235 21.4185197 42.3844235 23.6904864 42.3844235 24.6542731 42.5996392 25.4715643 42.9480837 26.2554442 42.3921098 26.1320795 41.7874562 26.0626869 41.1520575 26.0626869 39.4149595 26.0626869 38.0596131 26.5510055 37.1423843 27.324605 36.2225935 28.0982045 35.7409203 29.159655 35.7409203 30.2904981 35.7409203 31.4213413 36.2174693 32.2386325 36.9348549 32.8785869 37.6522405 33.5159712 38.6104627 33.9785888 39.5840575 34.4180756L39.5840575 34.4180756C40.3603712 34.7598986 41.0956915 35.0760207 41.6337307 35.451255 41.9027503 35.6363021 42.1205281 35.8367697 42.2716915 36.0629383 42.4228549 36.2865369 42.5074039 36.5332663 42.5074039 36.8185472 42.5074039 37.0961177 42.4331033 37.337707 42.2998745 37.548455 42.0974693 37.8594369 41.7592732 38.098456 41.3365281 38.2603722 40.9112209 38.4197182 40.4013647 38.5019614 39.8582013 38.5019614 38.8615477 38.5019614 37.9263843 38.2757927 37.2858614 37.9545305 37.0732078 37.8337359 36.9220444 37.7412124 36.8016261 37.628128 36.9886588 37.3891089 37.1116392 37.0447158 37.1116392 36.7208834 37.1116392 36.289107 36.9451033 35.8907418 36.6632732 35.5977506 36.3814431 35.3073295 35.9817569 35.1248525 35.5205804 35.1248525 35.0389072 35.1248525 34.6161621 35.3253202 34.3138353 35.6568628 34.0115085 35.9884055 33.8296 36.4535932 33.8296 36.9804633 33.8296 37.6769599 34.1601098 38.3040638 34.7135216 38.859205L34.7160837 38.859205C35.761417 39.9412163 37.6471163 40.6582736 39.794149 40.6582736 41.4518222 40.6582736 42.8430379 40.275329 43.824319 39.5428511 44.8056 38.807803 45.3692601 37.7232217 45.3692601 36.3327986 45.3692601 35.2327967 44.9003974 34.4155055 44.1932601 33.7704109 43.488685 33.1227462 42.5458353 32.6421378 41.5901752 32.2052212 40.7805542 31.8299869 40.0298614 31.4907339 39.4841359 31.1129295 39.2099922 30.9227423 38.9896523 30.7248447 38.8384889 30.5089565 38.6847634 30.2930682 38.6002144 30.0617594 38.6002144 29.8021795 38.6027765 29.3138609 38.8743582 28.9309163 39.3278484 28.661056 39.7813386 28.3937658 40.4141752 28.2498403 41.1213124 28.2498403 41.8284497 28.2498403 42.5048418 28.3809153 42.9839529 28.5711025L42.986515 28.5711025C43.2171033 28.661056 43.3400837 28.7432991 43.434881 28.8075516 43.2222275 29.1802158 43.1556131 29.4140947 43.1556131 29.7045158 43.1556131 30.5732089 43.8858092 31.3031168 44.7799791 31.3031168 45.2283451 31.3031168 45.6434039 31.1206398 45.9457307 30.7993775 46.2480575 30.4806854 46.4376523 30.0232079 46.4376523 29.4783472 46.4376523 28.817832 46.1404497 28.1573168 45.617783 27.6330168 45.3128941 27.3194648 44.9337046 27.0418942 44.4930248 26.8105854 44.1855739 26.1372197 43.9831686 25.3790408 43.9831686 24.5283383 43.9831686 21.9376795 45.7817569 20.7400138 47.2165281 20.7400138 47.9031686 20.7400138 48.8818876 20.7811354 49.732502 20.8608084 50.4831948 20.9790329 51.4619137 21.058706 52.2792209 21.058706L52.2843451 21.058706 47.7596915 40.3986937 50.7214693 40.3986937 51.3414954 37.548455C51.8487895 39.3783648 53.5397699 40.6582736 55.5791948 40.6582736 57.6160575 40.6582736 59.4812601 39.6533653 60.8340444 38.0367736 62.1868288 36.4227521 63.032319 34.1970472 63.032319 31.7528839 63.032319 30.0566192 62.5608941 28.6327849 61.6795346 27.6330168M76.6434301 67.8576212L76.6306196 67.8936025C76.3077961 68.7802864 75.9952209 69.3431378 75.6980183 69.6798207 75.4008157 70.0190736 75.1215477 70.134728 74.8602144 70.134728 74.5937569 70.134728 74.3887895 70.0422045 74.2453124 69.872578 74.1043974 69.7029516 74.0275346 69.4536521 74.0275346 69.13753 74.0249725 68.8856604 74.122332 68.4333231 74.2171294 68.0143972L75.4136261 63.9022403C75.6390902 63.0900893 75.7697569 62.3113496 75.7697569 61.6251334 75.7697569 60.3709256 75.354698 59.3737275 74.6680575 58.6900815 73.981417 58.0064354 73.028319 57.6363413 71.9548026 57.6363413 70.9914562 57.6363413 70.0562928 58.0295663 69.2236131 58.6643805 68.4549856 59.2529329 67.7734693 60.0496633 67.2379922 60.9389173L68.2192732 57.86508 65.3599791 57.86508 61.9319007 71.8926751 64.852685 71.8926751 66.730698 64.2903251C67.0842667 62.9024722 67.6632993 61.848732 68.3627503 61.141955 69.0647634 60.4377481 69.8846327 60.0779344 70.7275608 60.0779344 71.350149 60.0779344 71.8625673 60.275832 72.2212601 60.6253653 72.582515 60.9748986 72.7874824 61.4734976 72.7874824 62.0774707 72.7874824 62.5272378 72.7234301 62.9435937 72.5645804 63.4935947L72.5620183 63.4935947 71.3680837 67.7008452C71.2399791 68.2225751 71.1426196 68.8393986 71.1426196 69.2994462 71.1426196 70.1141673 71.4116392 70.8235143 71.9240575 71.3246834 72.4364758 71.8258525 73.1897307 72.1214138 74.1479529 72.1214138 75.0139399 72.1214138 75.7825673 71.8181423 76.4282144 71.1961785 77.0712993 70.5742148 77.5888418 69.636129 77.9629072 68.3690707L77.9731556 68.3356594 76.6434301 67.8576212z"/>
    </g>
    <text fill="#A5B6F3" font-family="ArcherPro-BoldItalic, ArcherPro" font-size="26" font-style="italic" font-weight="bold">
      <tspan x="23.224" y="68.994">3.</tspan>
    </text>
  </g>
</svg>
