<svg xmlns="http://www.w3.org/2000/svg" width="323" height="218" viewBox="0 0 323 218">
  <g fill="#FFF" fill-rule="evenodd" transform="translate(0 -17)">
    <g opacity=".5" transform="translate(0 44)">
      <polygon points="270.5 0 270.5 8 315 8 315 175 270.5 175 270.5 183 323.001 183 323.001 0"/>
      <polygon points="0 0 0 183 52.5 183 52.5 175 8 175 8 8 52.5 8 52.5 0"/>
    </g>
    <g transform="translate(87)">
      <path d="M.196 21.568L17.008 21.568 17.008 22.756 13.912 22.756 13.912 52.564 12.688 52.564 12.688 46.048C8.836 46.912 4.696 47.632.304 48.208L.016 46.984 3.472 46.552 3.472 22.756.196 22.756.196 21.568zM4.696 46.372C7.468 45.904 10.132 45.364 12.688 44.788L12.688 38.56 4.696 38.56 4.696 46.372zM4.696 37.408L12.688 37.408 12.688 30.748 4.696 30.748 4.696 37.408zM4.696 29.596L12.688 29.596 12.688 22.756 4.696 22.756 4.696 29.596zM29.428 24.664L20.068 24.664C20.536 30.712 22.084 36.184 24.676 41.152 27.124 36.508 28.708 31 29.428 24.664zM24.028 42.304C21.148 36.904 19.42 31.036 18.916 24.664L17.512 24.664 17.512 23.44 30.58 23.44 30.58 24.592C29.788 31.576 28.024 37.516 25.36 42.412 27.232 45.652 29.5 48.64 32.236 51.376L31.444 52.276C28.744 49.504 26.512 46.588 24.712 43.528 22.624 46.984 20.104 49.9 17.08 52.276L16.288 51.34C19.42 48.892 22.012 45.868 24.028 42.304zM66.76 28.984L66.94 30.172 54.556 31.612C54.808 34.528 55.168 36.976 55.636 38.992 56.536 42.664 57.868 45.616 59.632 47.848 61.216 49.864 62.692 50.872 64.06 50.872 65.248 50.872 66.148 48.388 66.724 43.42L67.768 44.032C67.372 46.984 66.832 49.18 66.112 50.62 65.5 51.592 64.816 52.096 64.096 52.096 62.404 52.096 60.64 50.98 58.84 48.748 56.86 46.3 55.384 43.06 54.412 39.064 53.908 37.12 53.548 34.708 53.332 31.756L44.98 32.728 44.8 31.54 53.224 30.568C52.972 27.436 52.828 23.8 52.828 19.696L54.052 19.696C54.052 23.728 54.196 27.328 54.448 30.424L66.76 28.984zM40.768 30.316C39.256 32.584 37.564 34.672 35.692 36.616L35.332 35.356C39.652 30.676 42.712 25.456 44.512 19.696L45.628 20.236C44.62 23.116 43.432 25.816 41.992 28.3L41.992 52.528 40.768 52.528 40.768 30.316zM58.192 20.128C60.496 22 62.404 23.908 63.916 25.816L63.052 26.644C61.648 24.844 59.74 22.9 57.364 20.884L58.192 20.128zM92.616 22.264C96.84 22.264 99.656 24.312 99.656 27.192 99.656 30.328 96.456 32.376 92.296 35 86.792 38.392 81.672 42.296 79.176 48.248L80.008 51 106.376 51 106.376 41.016 101.64 41.016 101.64 46.456 86.152 46.456C88.008 43.448 91.016 41.272 95.368 38.712 100.808 35.448 105.288 32.504 105.288 27.064 105.288 22.2 100.872 17.528 92.872 17.528 87.752 17.528 83.528 19.832 81.48 22.584 80.648 23.736 80.136 25.016 80.136 26.168 80.136 28.792 81.864 30.584 83.912 30.584 85.896 30.584 87.496 28.92 87.496 26.936 87.496 26.04 86.984 25.08 86.28 24.504 87.304 23.16 89.8 22.264 92.616 22.264zM131.824 34.744L140.176 34.744 140.176 35.716 131.824 35.716 131.824 34.744zM135.532 29.596L136.504 29.596C139.528 32.692 144.748 35.392 152.092 37.732L151.444 38.74C144.532 36.58 139.384 33.88 136 30.676 131.896 34.276 126.676 37.084 120.376 39.064L119.728 38.02C126.568 35.86 131.86 33.052 135.532 29.596zM128.44 19.552L129.556 19.552 129.556 21.244 134.956 21.244 134.956 22.288 129.556 22.288 129.556 25.168 134.38 25.168 134.38 26.032C131.356 29.884 126.676 32.512 120.376 33.916L119.8 32.944C122.428 32.368 124.732 31.612 126.712 30.676 125.632 29.668 124.3 28.66 122.788 27.616 122.104 28.372 121.348 29.056 120.52 29.668L119.836 28.732C122.14 27.076 123.688 25.06 124.516 22.684L125.668 22.828C125.38 23.62 125.056 24.412 124.624 25.168L128.44 25.168 128.44 19.552zM123.976 26.176C123.796 26.392 123.616 26.644 123.436 26.86 125.128 28.012 126.532 29.092 127.684 30.172 129.772 29.02 131.5 27.688 132.868 26.176L123.976 26.176zM138.016 23.404C140.068 24.376 142.048 25.42 143.956 26.572 145.612 25.276 146.908 23.8 147.844 22.144L137.404 22.144 137.404 21.064 149.212 21.064 149.212 21.928C148.24 23.944 146.836 25.708 144.964 27.184 147.196 28.552 149.32 30.064 151.336 31.72L150.652 32.764C148.42 30.928 146.224 29.308 143.992 27.904 142.516 28.912 140.86 29.812 138.988 30.532L138.268 29.596C140.068 28.912 141.616 28.12 142.984 27.256 141.112 26.104 139.24 25.096 137.404 24.268L138.016 23.404zM127.324 42.376L127.324 44.896 143.848 44.896 143.848 42.376 127.324 42.376zM143.848 41.404L143.848 38.92 127.324 38.92 127.324 41.404 143.848 41.404zM148.636 44.536L149.716 45.076C148.276 46.66 146.692 48.064 145.036 49.288 146.98 49.972 148.852 50.692 150.652 51.448L150.004 52.456C145.54 50.44 140.932 48.856 136.216 47.704L136.828 46.84C139.276 47.452 141.616 48.136 143.848 48.892 145.684 47.524 147.268 46.084 148.636 44.536zM125.956 52.276L125.668 51.412C125.956 51.304 126.1 51.052 126.1 50.656L126.1 37.948 145 37.948 145 45.904 127.324 45.904 127.324 51.088C130.204 50.656 132.904 50.116 135.496 49.504L135.712 50.512C133.12 51.16 129.844 51.772 125.956 52.276z"/>
    </g>
    <path d="M97.925 121L106.235 121 106.235 117.97 103.775 117.97 103.775 104.2 107.435 104.2 107.435 107.32 110.645 107.32 110.645 101.26 93.515 101.26 93.515 107.32 96.725 107.32 96.725 104.2 100.385 104.2 100.385 117.97 97.925 117.97 97.925 121zM114.065 101.8L114.065 118.3 112.115 118.3 112.115 121 119.135 121 119.135 118.3 117.335 118.3 117.335 112.12C118.385 111.25 119.585 110.59 120.725 110.59 121.355 110.59 121.865 110.8 122.195 111.22 122.465 111.58 122.615 112.09 122.615 112.81L122.615 118.3 120.815 118.3 120.815 121 127.835 121 127.835 118.3 125.885 118.3 125.885 112C125.885 110.8 125.585 109.78 125.015 109.03 124.325 108.13 123.215 107.62 121.805 107.62 119.945 107.62 118.565 108.67 117.335 109.84L117.335 99.04 112.115 99.04 112.115 101.8 114.065 101.8zM142.235 115.54L132.755 115.54C133.205 117.58 134.885 118.48 137.075 118.48 138.665 118.48 140.315 117.97 141.845 117.1L141.575 120.04C140.195 120.85 138.515 121.24 136.595 121.24 132.305 121.24 129.335 118.54 129.335 114.46 129.335 110.74 131.945 107.62 135.995 107.62 140.195 107.62 142.385 110.44 142.385 113.92 142.385 114.43 142.325 115.09 142.235 115.54zM135.965 110.26C134.525 110.26 133.085 111.1 132.725 113.26L139.115 113.26C139.055 111.46 137.885 110.26 135.965 110.26zM158.165 121.36C162.215 121.36 165.125 119.23 165.125 115.48 165.125 111.82 162.455 110.59 158.915 109.33 156.935 108.61 155.285 107.89 155.285 106.27 155.285 104.83 156.425 103.84 158.375 103.84 159.605 103.84 160.445 104.11 160.985 104.44 160.865 104.68 160.775 104.89 160.775 105.37 160.775 106.36 161.555 107.38 162.935 107.38 164.075 107.38 164.945 106.57 164.945 105.16 164.945 102.79 162.095 100.9 158.405 100.9 154.415 100.9 151.865 103.36 151.865 106.51 151.865 110.17 154.445 111.34 158.105 112.66 160.085 113.35 161.735 114.13 161.735 115.75 161.735 117.46 160.355 118.42 158.195 118.42 156.905 118.42 155.795 118.09 155.075 117.58 155.255 117.22 155.345 116.86 155.345 116.38 155.345 115.42 154.505 114.43 153.185 114.43 151.955 114.43 151.115 115.36 151.115 116.77 151.115 119.17 154.265 121.36 158.165 121.36zM175.685 121.24C174.005 121.24 172.805 120.64 171.695 119.74L170.975 121.06 168.755 121.06 168.755 101.8 166.775 101.8 166.775 99.04 172.025 99.04 172.025 109.3C172.985 108.37 174.215 107.62 175.895 107.62 179.375 107.62 181.985 110.41 181.985 114.37 181.985 118.18 179.225 121.24 175.685 121.24zM175.145 118.42C176.975 118.42 178.625 117.01 178.625 114.4 178.625 111.88 177.065 110.44 175.145 110.44 173.915 110.44 172.925 110.98 172.025 111.76L172.025 117.4C172.895 118 173.915 118.42 175.145 118.42zM191.015 121.24C186.665 121.24 184.025 118.09 184.025 114.43 184.025 110.83 186.725 107.62 191.015 107.62 195.365 107.62 198.005 110.77 198.005 114.43 198.005 118.03 195.305 121.24 191.015 121.24zM191.015 118.51C193.145 118.51 194.645 116.83 194.645 114.43 194.645 112.03 193.145 110.35 191.015 110.35 188.885 110.35 187.385 112.03 187.385 114.43 187.385 116.83 188.885 118.51 191.015 118.51zM207.035 121.24C202.685 121.24 200.045 118.09 200.045 114.43 200.045 110.83 202.745 107.62 207.035 107.62 211.385 107.62 214.025 110.77 214.025 114.43 214.025 118.03 211.325 121.24 207.035 121.24zM207.035 118.51C209.165 118.51 210.665 116.83 210.665 114.43 210.665 112.03 209.165 110.35 207.035 110.35 204.905 110.35 203.405 112.03 203.405 114.43 203.405 116.83 204.905 118.51 207.035 118.51zM221.075 107.86L215.975 107.86 215.975 110.62 217.925 110.62 217.925 118.3 215.975 118.3 215.975 121 222.995 121 222.995 118.3 221.195 118.3 221.195 112.12C222.245 111.25 223.445 110.59 224.585 110.59 225.365 110.59 225.905 110.89 226.205 111.46 226.385 111.79 226.475 112.27 226.475 112.81L226.475 118.3 224.675 118.3 224.675 121 231.695 121 231.695 118.3 229.745 118.3 229.745 112C229.745 110.92 229.505 110.02 229.055 109.3 228.365 108.25 227.225 107.62 225.665 107.62 223.745 107.62 222.335 108.73 221.075 109.96L221.075 107.86zM68.12 167L68.12 162.96 70.4 162.96 76.96 144.68 74.08 144.68 74.08 140.68 88.96 140.68 88.96 144.68 86.08 144.68 92.64 162.96 94.92 162.96 94.92 167 84.8 167 84.8 163 87.84 163 86.36 158.68 76.52 158.68 75.04 163 78.24 163 78.24 167 68.12 167zM77.76 154.92L85.12 154.92 81.44 144.56 77.76 154.92zM104.92 167.32C100.28 167.32 96.8 163.6 96.8 158.32 96.8 153.24 100.48 149.16 105.2 149.16 107.44 149.16 109.08 150 110.08 150.84L110.08 141.4 107.44 141.4 107.44 137.72 114.44 137.72 114.44 163.4 117.04 163.4 117.04 167 110.08 167 110.08 165.08C108.8 166.32 107.16 167.32 104.92 167.32zM105.92 163.56C107.56 163.56 108.88 162.84 110.08 161.8L110.08 154.28C108.92 153.48 107.56 152.92 105.92 152.92 103.48 152.92 101.28 154.8 101.28 158.28 101.28 161.64 103.36 163.56 105.92 163.56zM127.08 167.32L130.2 167.32 137.16 153.16 139.2 153.16 139.2 149.48 130.28 149.48 130.28 152.96 132.92 152.96 128.72 162.08 124.52 152.96 127.04 152.96 127.04 149.48 118.08 149.48 118.08 153.16 120.12 153.16 127.08 167.32zM146.48 167.32C143.48 167.32 140.8 165.68 140.8 162.4 140.8 159.12 143.68 157.12 147.84 157.12 149.64 157.12 151.32 157.36 152.28 157.6L152.28 156.2C152.28 155.16 152.04 154.36 151.6 153.8 150.88 152.88 149.72 152.52 148.16 152.52 147.4 152.52 146.84 152.64 146.44 152.8 146.52 153.04 146.6 153.44 146.6 153.68 146.6 155 145.56 155.96 144.24 155.96 142.92 155.96 141.92 155.04 141.92 153.6 141.92 151.44 144.12 149.16 148.88 149.16 151.88 149.16 153.92 150 155.16 151.52 156.08 152.64 156.52 154.16 156.52 155.92L156.52 163.4 159.12 163.4 159.12 167 152.36 167 152.36 165.08C150.96 166.28 148.84 167.32 146.48 167.32zM147.88 164.16C149.44 164.16 150.96 163.56 152.28 162.6L152.28 159.84C151.28 159.6 150.04 159.44 148.68 159.44 146.56 159.44 145.28 160.4 145.28 162 145.28 163.4 146.32 164.16 147.88 164.16zM167.8 149.48L161 149.48 161 153.16 163.6 153.16 163.6 163.4 161 163.4 161 167 170.36 167 170.36 163.4 167.96 163.4 167.96 155.16C169.36 154 170.96 153.12 172.48 153.12 173.52 153.12 174.24 153.52 174.64 154.28 174.88 154.72 175 155.36 175 156.08L175 163.4 172.6 163.4 172.6 167 181.96 167 181.96 163.4 179.36 163.4 179.36 155C179.36 153.56 179.04 152.36 178.44 151.4 177.52 150 176 149.16 173.92 149.16 171.36 149.16 169.48 150.64 167.8 152.28L167.8 149.48zM191.68 167.32C193.28 167.32 194.68 166.88 195.88 166.28L196.24 162.52C195.2 163 193.92 163.44 192.8 163.44 191.92 163.44 191.28 163.16 190.96 162.6 190.76 162.24 190.68 161.88 190.68 161.32L190.68 153.16 196 153.16 196 149.48 190.68 149.48 190.68 143.92 186.36 145.8 186.36 149.48 182.96 149.48 182.96 153.16 186.36 153.16 186.36 162.16C186.36 163.28 186.56 164.2 186.96 164.92 187.84 166.6 189.56 167.32 191.68 167.32zM206.04 167.32C208.6 167.32 210.48 165.84 212.16 164.2L212.16 167 218.96 167 218.96 163.4 216.36 163.4 216.36 149.48 209.28 149.48 209.28 153.16 212 153.16 212 161.32C210.6 162.48 209 163.36 207.48 163.36 206.44 163.36 205.72 162.96 205.32 162.2 205.08 161.72 204.96 161.16 204.96 160.4L204.96 149.48 198 149.48 198 153.16 200.6 153.16 200.6 161.48C200.6 162.88 200.92 164.08 201.48 165 202.36 166.44 203.92 167.32 206.04 167.32zM233.6 149.16C231.36 149.16 229.52 151.08 228.04 153.44L228.04 149.48 221.24 149.48 221.24 153.16 223.84 153.16 223.84 163.4 221.24 163.4 221.24 167 231.24 167 231.24 163.4 228.2 163.4 228.2 156.52C229 155 230.44 153.64 231.68 153.2 232.04 154 232.92 154.76 234.24 154.76 235.68 154.76 236.84 153.52 236.84 152.04 236.84 150.48 235.76 149.16 233.6 149.16zM255.96 159.72L243.32 159.72C243.92 162.44 246.16 163.64 249.08 163.64 251.2 163.64 253.4 162.96 255.44 161.8L255.08 165.72C253.24 166.8 251 167.32 248.44 167.32 242.72 167.32 238.76 163.72 238.76 158.28 238.76 153.32 242.24 149.16 247.64 149.16 253.24 149.16 256.16 152.92 256.16 157.56 256.16 158.24 256.08 159.12 255.96 159.72zM247.6 152.68C245.68 152.68 243.76 153.8 243.28 156.68L251.8 156.68C251.72 154.28 250.16 152.68 247.6 152.68zM95.966 218.888L104.732 218.888 104.732 224.45 95.966 224.45 95.966 218.888zM103.49 223.352L103.49 222.182 97.19 222.182 97.19 223.352 103.49 223.352zM97.19 221.156L103.49 221.156 103.49 220.004 97.19 220.004 97.19 221.156zM94.598 225.386L94.598 226.538 97.478 226.538C96.776 227.546 95.66 228.446 94.13 229.202L94.886 230.156C95.642 229.742 96.326 229.274 96.92 228.77L98.846 228.77C97.964 229.922 96.524 230.858 94.508 231.578L95.282 232.55C97.532 231.632 99.152 230.372 100.142 228.77L101.942 228.77C100.718 231.2 98.72 232.838 95.948 233.702L96.668 234.782C99.674 233.81 101.852 231.794 103.202 228.77L104.282 228.77C104.21 230.768 104.048 232.082 103.832 232.694 103.598 233.27 103.13 233.576 102.41 233.576 101.942 233.576 101.474 233.558 100.97 233.522L101.294 234.71 103.004 234.71C103.706 234.674 104.228 234.458 104.552 234.062 104.876 233.648 105.11 232.91 105.254 231.866 105.398 230.786 105.488 229.4 105.524 227.69L97.982 227.69C98.27 227.33 98.54 226.934 98.774 226.538L106.244 226.538 106.244 225.386 94.598 225.386zM91.232 218.6L90.35 219.446C91.682 220.364 92.708 221.246 93.464 222.074L94.364 221.174C93.518 220.31 92.474 219.464 91.232 218.6zM90.764 222.884L89.864 223.748C91.178 224.684 92.222 225.584 92.978 226.412L93.86 225.53C93.032 224.648 91.988 223.766 90.764 222.884zM92.78 227.672C92.024 229.832 91.106 231.956 90.044 234.026L91.232 234.53C92.204 232.532 93.104 230.39 93.896 228.122L92.78 227.672zM127.032 219.05L136.95 219.05 136.95 224.936 127.032 224.936 127.032 219.05zM135.654 223.712L135.654 220.274 128.328 220.274 128.328 223.712 135.654 223.712zM130.974 226.718L130.974 234.53 129.714 234.53 129.714 233.612 125.916 233.612 125.916 234.53 124.638 234.53 124.638 226.718 130.974 226.718zM125.916 232.388L129.714 232.388 129.714 227.96 125.916 227.96 125.916 232.388zM139.344 226.718L139.344 234.53 138.048 234.53 138.048 233.612 134.106 233.612 134.106 234.53 132.828 234.53 132.828 226.718 139.344 226.718zM134.106 232.388L138.048 232.388 138.048 227.96 134.106 227.96 134.106 232.388zM159.61 233.702L159.61 234.782 158.368 234.782 158.368 228.446 163.858 228.446 163.858 234.53 162.616 234.53 162.616 233.702 159.61 233.702zM162.616 232.514L162.616 229.616 159.61 229.616 159.61 232.514 162.616 232.514zM157.72 220.652L157.72 221.858 164.524 221.858 164.524 220.652 161.374 220.652 162.004 220.418C161.788 219.77 161.482 219.032 161.086 218.24L159.844 218.582C160.222 219.23 160.546 219.932 160.816 220.652L157.72 220.652zM158.422 223.316L158.422 224.45 163.804 224.45 163.804 223.316 158.422 223.316zM158.422 225.782L158.422 226.934 163.804 226.934 163.804 225.782 158.422 225.782zM168.826 218.33L168.826 224.234 164.83 224.234 164.83 225.494 168.826 225.494 168.826 234.782 170.104 234.782 170.104 225.494 174.226 225.494 174.226 224.234 170.104 224.234 170.104 218.33 168.826 218.33zM205.778 223.586L200.612 223.586 200.612 224.504 206.39 224.504 206.39 225.314 200.612 225.314 200.612 226.25 207.722 226.25 207.722 227.186 192.332 227.186 192.332 226.25 199.352 226.25 199.352 225.314 193.628 225.314 193.628 224.504 199.352 224.504 199.352 223.586 194.222 223.586 194.222 222.74 199.406 222.74 199.406 221.804 192.278 221.804 192.278 220.976 199.406 220.976 199.406 220.022 194.222 220.022 194.222 219.158 199.352 219.158 199.352 218.222 200.612 218.222 200.612 219.158 205.778 219.158 205.778 220.922 207.794 220.922 207.794 221.858 205.778 221.858 205.778 223.586zM200.558 220.022L200.558 220.976 204.554 220.976 204.554 220.022 200.558 220.022zM200.558 221.804L200.558 222.74 204.554 222.74 204.554 221.804 200.558 221.804zM194.06 227.942L205.922 227.942 205.922 232.496 194.06 232.496 194.06 227.942zM204.716 231.704L204.716 230.534 200.612 230.534 200.612 231.704 204.716 231.704zM199.388 231.704L199.388 230.534 195.284 230.534 195.284 231.704 199.388 231.704zM195.284 229.85L199.388 229.85 199.388 228.734 195.284 228.734 195.284 229.85zM200.612 228.734L200.612 229.85 204.716 229.85 204.716 228.734 200.612 228.734zM192.026 233.378L192.026 234.386 207.956 234.386 207.956 233.378 192.026 233.378zM234.196 220.624C235.764 220.624 236.968 221.38 236.968 222.444 236.968 223.62 235.624 224.46 233.776 225.552 231.228 227.064 228.932 228.912 227.812 231.488L228.344 233 240.58 233 240.58 228.212 238.06 228.212 238.06 230.564 231.732 230.564C232.404 229.528 233.524 228.688 235.624 227.512 238.172 226.084 240.104 224.796 240.104 222.36 240.104 220.232 237.976 218.076 234.308 218.076 231.816 218.076 229.856 219.112 228.904 220.344 228.484 220.876 228.26 221.436 228.26 221.94 228.26 223.284 229.156 224.152 230.164 224.152 231.172 224.152 232.012 223.312 232.012 222.304 232.012 221.94 231.872 221.576 231.676 221.268 232.152 220.876 233.104 220.624 234.196 220.624z"/>
  </g>
</svg>
