<svg xmlns="http://www.w3.org/2000/svg" width="401" height="33" viewBox="0 0 401 33">
  <g fill="none" fill-rule="evenodd" transform="translate(0 -12)">
    <path fill="#A5B6F3" d="M5.878,39 L15.85,39 L15.85,35.364 L12.898,35.364 L12.898,18.84 L17.29,18.84 L17.29,22.584 L21.142,22.584 L21.142,15.312 L0.586,15.312 L0.586,22.584 L4.438,22.584 L4.438,18.84 L8.83,18.84 L8.83,35.364 L5.878,35.364 L5.878,39 Z M25.246,15.96 L25.246,35.76 L22.906,35.76 L22.906,39 L31.33,39 L31.33,35.76 L29.17,35.76 L29.17,28.344 C30.43,27.3 31.87,26.508 33.238,26.508 C33.994,26.508 34.606,26.76 35.002,27.264 C35.326,27.696 35.506,28.308 35.506,29.172 L35.506,35.76 L33.346,35.76 L33.346,39 L41.77,39 L41.77,35.76 L39.43,35.76 L39.43,28.2 C39.43,26.76 39.07,25.536 38.386,24.636 C37.558,23.556 36.226,22.944 34.534,22.944 C32.302,22.944 30.646,24.204 29.17,25.608 L29.17,12.648 L22.906,12.648 L22.906,15.96 L25.246,15.96 Z M59.05,32.448 L47.674,32.448 C48.214,34.896 50.23,35.976 52.858,35.976 C54.766,35.976 56.746,35.364 58.582,34.32 L58.258,37.848 C56.602,38.82 54.586,39.288 52.282,39.288 C47.134,39.288 43.57,36.048 43.57,31.152 C43.57,26.688 46.702,22.944 51.562,22.944 C56.602,22.944 59.23,26.328 59.23,30.504 C59.23,31.116 59.158,31.908 59.05,32.448 Z M51.526,26.112 C49.798,26.112 48.07,27.12 47.638,29.712 L55.306,29.712 C55.234,27.552 53.83,26.112 51.526,26.112 Z M69.598,39 L69.598,35.364 L72.298,35.364 L72.298,18.948 L69.598,18.948 L69.598,15.312 L78.778,15.312 C84.214,15.312 88.102,17.652 88.102,22.476 C88.102,25.536 86.23,27.876 83.638,28.92 L87.274,35.364 L89.974,35.364 L89.974,39 L84.502,39 L79.75,30 C79.246,30.036 78.778,30.072 78.31,30.072 C77.554,30.072 76.87,30.072 76.366,30.036 L76.366,35.364 L79.318,35.364 L79.318,39 L69.598,39 Z M78.67,26.616 C81.73,26.616 83.89,25.104 83.89,22.62 C83.89,20.136 81.838,18.948 78.562,18.948 L76.366,18.948 L76.366,26.544 C76.798,26.58 77.374,26.616 78.67,26.616 Z M107.29,32.448 L95.914,32.448 C96.454,34.896 98.47,35.976 101.098,35.976 C103.006,35.976 104.986,35.364 106.822,34.32 L106.498,37.848 C104.842,38.82 102.826,39.288 100.522,39.288 C95.374,39.288 91.81,36.048 91.81,31.152 C91.81,26.688 94.942,22.944 99.802,22.944 C104.842,22.944 107.47,26.328 107.47,30.504 C107.47,31.116 107.398,31.908 107.29,32.448 Z M99.766,26.112 C98.038,26.112 96.31,27.12 95.878,29.712 L103.546,29.712 C103.474,27.552 102.07,26.112 99.766,26.112 Z M123.202,26.724 C123.202,25.968 122.914,25.284 122.338,24.708 C121.258,23.628 118.954,22.908 117.046,22.908 C112.618,22.908 110.602,25.464 110.602,27.912 C110.602,30.612 112.438,31.656 116.794,32.808 C119.206,33.456 119.89,33.924 119.89,34.716 C119.89,35.868 118.594,36.408 117.01,36.408 C115.894,36.408 114.886,36.192 114.166,35.904 C114.202,35.688 114.238,35.472 114.238,35.256 C114.238,33.888 113.194,33.168 112.114,33.168 C110.89,33.168 110.026,34.14 110.026,35.292 C110.026,36.12 110.278,36.768 110.926,37.416 C111.97,38.46 114.562,39.324 116.974,39.324 C120.538,39.324 123.634,37.56 123.634,34.248 C123.634,31.404 121.438,30.468 117.658,29.46 C115.246,28.812 114.346,28.344 114.346,27.444 C114.346,26.616 115.21,25.824 116.974,25.824 C117.766,25.824 118.558,25.968 119.206,26.22 C119.134,26.436 119.134,26.652 119.134,26.904 C119.134,28.092 119.998,28.848 121.258,28.848 C122.41,28.848 123.202,27.984 123.202,26.724 Z M141.778,32.448 L130.402,32.448 C130.942,34.896 132.958,35.976 135.586,35.976 C137.494,35.976 139.474,35.364 141.31,34.32 L140.986,37.848 C139.33,38.82 137.314,39.288 135.01,39.288 C129.862,39.288 126.298,36.048 126.298,31.152 C126.298,26.688 129.43,22.944 134.29,22.944 C139.33,22.944 141.958,26.328 141.958,30.504 C141.958,31.116 141.886,31.908 141.778,32.448 Z M134.254,26.112 C132.526,26.112 130.798,27.12 130.366,29.712 L138.034,29.712 C137.962,27.552 136.558,26.112 134.254,26.112 Z M151.246,39.288 C152.686,39.288 153.946,38.892 155.026,38.352 L155.35,34.968 C154.414,35.4 153.262,35.796 152.254,35.796 C151.462,35.796 150.886,35.544 150.598,35.04 C150.418,34.716 150.346,34.392 150.346,33.888 L150.346,26.544 L155.134,26.544 L155.134,23.232 L150.346,23.232 L150.346,18.228 L146.458,19.92 L146.458,23.232 L143.398,23.232 L143.398,26.544 L146.458,26.544 L146.458,34.644 C146.458,35.652 146.638,36.48 146.998,37.128 C147.79,38.64 149.338,39.288 151.246,39.288 Z M165.43,39 L175.078,39 L175.078,35.364 L172.234,35.364 L172.702,23.16 L179.47,35.04 L180.01,35.04 L186.778,23.16 L187.246,35.364 L184.402,35.364 L184.402,39 L194.122,39 L194.122,35.364 L191.314,35.364 L190.558,18.948 L193.51,18.948 L193.51,15.312 L187.066,15.312 L179.794,28.488 L172.522,15.312 L166.042,15.312 L166.042,18.948 L168.994,18.948 L168.238,35.364 L165.43,35.364 L165.43,39 Z M212.014,32.448 L200.638,32.448 C201.178,34.896 203.194,35.976 205.822,35.976 C207.73,35.976 209.71,35.364 211.546,34.32 L211.222,37.848 C209.566,38.82 207.55,39.288 205.246,39.288 C200.098,39.288 196.534,36.048 196.534,31.152 C196.534,26.688 199.666,22.944 204.526,22.944 C209.566,22.944 212.194,26.328 212.194,30.504 C212.194,31.116 212.122,31.908 212.014,32.448 Z M204.49,26.112 C202.762,26.112 201.034,27.12 200.602,29.712 L208.27,29.712 C208.198,27.552 206.794,26.112 204.49,26.112 Z M220.546,23.232 L214.426,23.232 L214.426,26.544 L216.766,26.544 L216.766,35.76 L214.426,35.76 L214.426,39 L222.85,39 L222.85,35.76 L220.69,35.76 L220.69,28.344 C221.95,27.3 223.39,26.508 224.758,26.508 C225.694,26.508 226.342,26.868 226.702,27.552 C226.918,27.948 227.026,28.524 227.026,29.172 L227.026,35.76 L224.866,35.76 L224.866,39 L233.29,39 L233.29,35.76 L230.95,35.76 L230.95,28.2 C230.95,26.904 230.662,25.824 230.122,24.96 C229.294,23.7 227.926,22.944 226.054,22.944 C223.75,22.944 222.058,24.276 220.546,25.752 L220.546,23.232 Z M241.678,39.288 C243.982,39.288 245.674,37.956 247.186,36.48 L247.186,39 L253.306,39 L253.306,35.76 L250.966,35.76 L250.966,23.232 L244.594,23.232 L244.594,26.544 L247.042,26.544 L247.042,33.888 C245.782,34.932 244.342,35.724 242.974,35.724 C242.038,35.724 241.39,35.364 241.03,34.68 C240.814,34.248 240.706,33.744 240.706,33.06 L240.706,23.232 L234.442,23.232 L234.442,26.544 L236.782,26.544 L236.782,34.032 C236.782,35.292 237.07,36.372 237.574,37.2 C238.366,38.496 239.77,39.288 241.678,39.288 Z"/>
    <polygon fill="#CFCFCF" points="261.09 30.36 277.31 30.36 277.31 28.32 261.09 28.32"/>
    <path fill="#FFB8AC" d="M292.591,37 L308.553,37 L308.553,32.86 L303.125,32.86 L303.125,12.85 L300.687,12.85 L292.315,14.966 L293.465,19.106 L298.111,18.002 L298.111,32.86 L292.591,32.86 L292.591,37 Z M323.803,37 L323.803,33.364 L326.503,33.364 L326.503,16.948 L323.803,16.948 L323.803,13.312 L332.767,13.312 C341.335,13.312 346.411,17.776 346.411,24.94 C346.411,32.176 341.623,37 332.335,37 L323.803,37 Z M330.571,33.364 L332.911,33.364 C339.031,33.364 342.199,30.052 342.199,24.976 C342.199,19.792 338.527,16.948 332.623,16.948 L330.571,16.948 L330.571,33.364 Z M354.439,37.288 C351.739,37.288 349.327,35.812 349.327,32.86 C349.327,29.908 351.919,28.108 355.663,28.108 C357.283,28.108 358.795,28.324 359.659,28.54 L359.659,27.28 C359.659,26.344 359.443,25.624 359.047,25.12 C358.399,24.292 357.355,23.968 355.951,23.968 C355.267,23.968 354.763,24.076 354.403,24.22 C354.475,24.436 354.547,24.796 354.547,25.012 C354.547,26.2 353.611,27.064 352.423,27.064 C351.235,27.064 350.335,26.236 350.335,24.94 C350.335,22.996 352.315,20.944 356.599,20.944 C359.299,20.944 361.135,21.7 362.251,23.068 C363.079,24.076 363.475,25.444 363.475,27.028 L363.475,33.76 L365.815,33.76 L365.815,37 L359.731,37 L359.731,35.272 C358.471,36.352 356.563,37.288 354.439,37.288 Z M355.699,34.444 C357.103,34.444 358.471,33.904 359.659,33.04 L359.659,30.556 C358.759,30.34 357.643,30.196 356.419,30.196 C354.511,30.196 353.359,31.06 353.359,32.5 C353.359,33.76 354.295,34.444 355.699,34.444 Z M374.851,42.112 C375.319,41.572 375.715,40.924 376.075,40.204 L383.455,24.544 L385.363,24.544 L385.363,21.232 L377.263,21.232 L377.263,24.364 L379.711,24.364 L376.039,32.68 L372.403,24.364 L374.707,24.364 L374.707,21.232 L366.571,21.232 L366.571,24.544 L368.515,24.544 L374.131,36.208 L372.943,38.692 C372.691,39.196 372.475,39.592 372.223,39.916 C371.791,40.492 371.359,40.744 370.963,40.852 C370.711,40.24 370.171,39.664 369.235,39.664 C368.191,39.664 367.291,40.348 367.291,41.68 C367.291,42.94 368.587,44.164 370.675,44.164 C372.259,44.164 373.699,43.444 374.851,42.112 Z M400.159,24.724 C400.159,23.968 399.871,23.284 399.295,22.708 C398.215,21.628 395.911,20.908 394.003,20.908 C389.575,20.908 387.559,23.464 387.559,25.912 C387.559,28.612 389.395,29.656 393.751,30.808 C396.163,31.456 396.847,31.924 396.847,32.716 C396.847,33.868 395.551,34.408 393.967,34.408 C392.851,34.408 391.843,34.192 391.123,33.904 C391.159,33.688 391.195,33.472 391.195,33.256 C391.195,31.888 390.151,31.168 389.071,31.168 C387.847,31.168 386.983,32.14 386.983,33.292 C386.983,34.12 387.235,34.768 387.883,35.416 C388.927,36.46 391.519,37.324 393.931,37.324 C397.495,37.324 400.591,35.56 400.591,32.248 C400.591,29.404 398.395,28.468 394.615,27.46 C392.203,26.812 391.303,26.344 391.303,25.444 C391.303,24.616 392.167,23.824 393.931,23.824 C394.723,23.824 395.515,23.968 396.163,24.22 C396.091,24.436 396.091,24.652 396.091,24.904 C396.091,26.092 396.955,26.848 398.215,26.848 C399.367,26.848 400.159,25.984 400.159,24.724 Z"/>
  </g>
</svg>
