<svg xmlns="http://www.w3.org/2000/svg" width="323" height="218" viewBox="0 0 323 218">
  <g fill="#FFF" fill-rule="evenodd" transform="translate(0 -6)">
    <g opacity=".5" transform="translate(0 33)">
      <polygon points="270.5 0 270.5 8 315 8 315 175 270.5 175 270.5 183 323.001 183 323.001 0"/>
      <polygon points="0 0 0 183 52.5 183 52.5 175 8 175 8 8 52.5 8 52.5 0"/>
    </g>
    <g transform="translate(85)">
      <path d="M2.196,10.568 L19.008,10.568 L19.008,11.756 L15.912,11.756 L15.912,41.564 L14.688,41.564 L14.688,35.048 C10.836,35.912 6.696,36.632 2.304,37.208 L2.016,35.984 L5.472,35.552 L5.472,11.756 L2.196,11.756 L2.196,10.568 Z M6.696,35.372 C9.468,34.904 12.132,34.364 14.688,33.788 L14.688,27.56 L6.696,27.56 L6.696,35.372 Z M6.696,26.408 L14.688,26.408 L14.688,19.748 L6.696,19.748 L6.696,26.408 Z M6.696,18.596 L14.688,18.596 L14.688,11.756 L6.696,11.756 L6.696,18.596 Z M31.428,13.664 L22.068,13.664 C22.536,19.712 24.084,25.184 26.676,30.152 C29.124,25.508 30.708,20 31.428,13.664 Z M26.028,31.304 C23.148,25.904 21.42,20.036 20.916,13.664 L19.512,13.664 L19.512,12.44 L32.58,12.44 L32.58,13.592 C31.788,20.576 30.024,26.516 27.36,31.412 C29.232,34.652 31.5,37.64 34.236,40.376 L33.444,41.276 C30.744,38.504 28.512,35.588 26.712,32.528 C24.624,35.984 22.104,38.9 19.08,41.276 L18.288,40.34 C21.42,37.892 24.012,34.868 26.028,31.304 Z M68.76,17.984 L68.94,19.172 L56.556,20.612 C56.808,23.528 57.168,25.976 57.636,27.992 C58.536,31.664 59.868,34.616 61.632,36.848 C63.216,38.864 64.692,39.872 66.06,39.872 C67.248,39.872 68.148,37.388 68.724,32.42 L69.768,33.032 C69.372,35.984 68.832,38.18 68.112,39.62 C67.5,40.592 66.816,41.096 66.096,41.096 C64.404,41.096 62.64,39.98 60.84,37.748 C58.86,35.3 57.384,32.06 56.412,28.064 C55.908,26.12 55.548,23.708 55.332,20.756 L46.98,21.728 L46.8,20.54 L55.224,19.568 C54.972,16.436 54.828,12.8 54.828,8.696 L56.052,8.696 C56.052,12.728 56.196,16.328 56.448,19.424 L68.76,17.984 Z M42.768,19.316 C41.256,21.584 39.564,23.672 37.692,25.616 L37.332,24.356 C41.652,19.676 44.712,14.456 46.512,8.696 L47.628,9.236 C46.62,12.116 45.432,14.816 43.992,17.3 L43.992,41.528 L42.768,41.528 L42.768,19.316 Z M60.192,9.128 C62.496,11 64.404,12.908 65.916,14.816 L65.052,15.644 C63.648,13.844 61.74,11.9 59.364,9.884 L60.192,9.128 Z"/>
      <polygon points="86.84 40 107.64 40 107.64 35.392 100.088 35.392 100.088 6.912 97.528 6.912 86.584 9.792 87.864 14.464 94.52 12.8 94.52 35.392 86.84 35.392"/>
      <path d="M133.824,23.744 L142.176,23.744 L142.176,24.716 L133.824,24.716 L133.824,23.744 Z M137.532,18.596 L138.504,18.596 C141.528,21.692 146.748,24.392 154.092,26.732 L153.444,27.74 C146.532,25.58 141.384,22.88 138,19.676 C133.896,23.276 128.676,26.084 122.376,28.064 L121.728,27.02 C128.568,24.86 133.86,22.052 137.532,18.596 Z M130.44,8.552 L131.556,8.552 L131.556,10.244 L136.956,10.244 L136.956,11.288 L131.556,11.288 L131.556,14.168 L136.38,14.168 L136.38,15.032 C133.356,18.884 128.676,21.512 122.376,22.916 L121.8,21.944 C124.428,21.368 126.732,20.612 128.712,19.676 C127.632,18.668 126.3,17.66 124.788,16.616 C124.104,17.372 123.348,18.056 122.52,18.668 L121.836,17.732 C124.14,16.076 125.688,14.06 126.516,11.684 L127.668,11.828 C127.38,12.62 127.056,13.412 126.624,14.168 L130.44,14.168 L130.44,8.552 Z M125.976,15.176 C125.796,15.392 125.616,15.644 125.436,15.86 C127.128,17.012 128.532,18.092 129.684,19.172 C131.772,18.02 133.5,16.688 134.868,15.176 L125.976,15.176 Z M140.016,12.404 C142.068,13.376 144.048,14.42 145.956,15.572 C147.612,14.276 148.908,12.8 149.844,11.144 L139.404,11.144 L139.404,10.064 L151.212,10.064 L151.212,10.928 C150.24,12.944 148.836,14.708 146.964,16.184 C149.196,17.552 151.32,19.064 153.336,20.72 L152.652,21.764 C150.42,19.928 148.224,18.308 145.992,16.904 C144.516,17.912 142.86,18.812 140.988,19.532 L140.268,18.596 C142.068,17.912 143.616,17.12 144.984,16.256 C143.112,15.104 141.24,14.096 139.404,13.268 L140.016,12.404 Z M129.324,31.376 L129.324,33.896 L145.848,33.896 L145.848,31.376 L129.324,31.376 Z M145.848,30.404 L145.848,27.92 L129.324,27.92 L129.324,30.404 L145.848,30.404 Z M150.636,33.536 L151.716,34.076 C150.276,35.66 148.692,37.064 147.036,38.288 C148.98,38.972 150.852,39.692 152.652,40.448 L152.004,41.456 C147.54,39.44 142.932,37.856 138.216,36.704 L138.828,35.84 C141.276,36.452 143.616,37.136 145.848,37.892 C147.684,36.524 149.268,35.084 150.636,33.536 Z M127.956,41.276 L127.668,40.412 C127.956,40.304 128.1,40.052 128.1,39.656 L128.1,26.948 L147,26.948 L147,34.904 L129.324,34.904 L129.324,40.088 C132.204,39.656 134.904,39.116 137.496,38.504 L137.712,39.512 C135.12,40.16 131.844,40.772 127.956,41.276 Z"/>
    </g>
    <path d="M113.63 110L121.94 110 121.94 106.97 119.48 106.97 119.48 93.2 123.14 93.2 123.14 96.32 126.35 96.32 126.35 90.26 109.22 90.26 109.22 96.32 112.43 96.32 112.43 93.2 116.09 93.2 116.09 106.97 113.63 106.97 113.63 110zM129.77 90.8L129.77 107.3 127.82 107.3 127.82 110 134.84 110 134.84 107.3 133.04 107.3 133.04 101.12C134.09 100.25 135.29 99.59 136.43 99.59 137.06 99.59 137.57 99.8 137.9 100.22 138.17 100.58 138.32 101.09 138.32 101.81L138.32 107.3 136.52 107.3 136.52 110 143.54 110 143.54 107.3 141.59 107.3 141.59 101C141.59 99.8 141.29 98.78 140.72 98.03 140.03 97.13 138.92 96.62 137.51 96.62 135.65 96.62 134.27 97.67 133.04 98.84L133.04 88.04 127.82 88.04 127.82 90.8 129.77 90.8zM157.94 104.54L148.46 104.54C148.91 106.58 150.59 107.48 152.78 107.48 154.37 107.48 156.02 106.97 157.55 106.1L157.28 109.04C155.9 109.85 154.22 110.24 152.3 110.24 148.01 110.24 145.04 107.54 145.04 103.46 145.04 99.74 147.65 96.62 151.7 96.62 155.9 96.62 158.09 99.44 158.09 102.92 158.09 103.43 158.03 104.09 157.94 104.54zM151.67 99.26C150.23 99.26 148.79 100.1 148.43 102.26L154.82 102.26C154.76 100.46 153.59 99.26 151.67 99.26zM166.73 110L181.07 110 181.07 104.21 177.8 104.21 177.8 107 172.37 107 172.37 93.29 174.98 93.29 174.98 90.26 166.73 90.26 166.73 93.29 168.98 93.29 168.98 106.97 166.73 106.97 166.73 110zM186.32 94.85C187.49 94.85 188.54 93.89 188.54 92.69 188.54 91.49 187.55 90.53 186.38 90.53 185.21 90.53 184.16 91.49 184.16 92.69 184.16 93.89 185.15 94.85 186.32 94.85zM183.02 110L190.25 110 190.25 107.3 188.3 107.3 188.3 96.86 183.02 96.86 183.02 99.62 185.03 99.62 185.03 107.3 183.02 107.3 183.02 110zM200.78 91.88C199.76 91.88 199.25 91.34 198.89 90.65 198.62 90.77 198.35 90.95 198.2 91.19 197.81 91.76 197.6 92.57 197.6 93.83L197.6 96.86 201.02 96.86 201.02 99.62 197.6 99.62 197.6 107.3 200.15 107.3 200.15 110 192.38 110 192.38 107.3 194.36 107.3 194.36 99.62 192.11 99.62 192.11 96.86 194.36 96.86 194.36 94.31C194.36 91.91 194.78 90.41 196.04 89.18 196.97 88.28 198.17 87.8 199.64 87.8 201.35 87.8 202.55 88.7 202.55 90.02 202.55 91.19 201.71 91.88 200.78 91.88zM215.39 104.54L205.91 104.54C206.36 106.58 208.04 107.48 210.23 107.48 211.82 107.48 213.47 106.97 215 106.1L214.73 109.04C213.35 109.85 211.67 110.24 209.75 110.24 205.46 110.24 202.49 107.54 202.49 103.46 202.49 99.74 205.1 96.62 209.15 96.62 213.35 96.62 215.54 99.44 215.54 102.92 215.54 103.43 215.48 104.09 215.39 104.54zM209.12 99.26C207.68 99.26 206.24 100.1 205.88 102.26L212.27 102.26C212.21 100.46 211.04 99.26 209.12 99.26zM94.82 156L94.82 151.96 97.82 151.96 97.82 133.72 94.82 133.72 94.82 129.68 105.34 129.68C111.78 129.68 114.94 132.64 114.94 136.6 114.94 139.64 113.06 141.6 110.46 142.48 113.74 143.44 115.7 145.36 115.7 148.64 115.7 153 112.18 156 105.78 156L94.82 156zM102.3 152.04L105.86 152.04C108.98 152.04 111.06 150.76 111.06 148.24 111.06 145.8 109.14 144.44 105.74 144.44L102.3 144.44 102.3 152.04zM102.3 140.84L105.38 140.84C108.54 140.84 110.3 139.4 110.3 137.12 110.3 134.88 108.46 133.64 105.26 133.64L102.3 133.64 102.3 140.84zM118.22 156L127.9 156 127.9 152.4 125.3 152.4 125.3 126.72 118.22 126.72 118.22 130.4 120.94 130.4 120.94 152.4 118.22 152.4 118.22 156zM147.54 148.72L134.9 148.72C135.5 151.44 137.74 152.64 140.66 152.64 142.78 152.64 144.98 151.96 147.02 150.8L146.66 154.72C144.82 155.8 142.58 156.32 140.02 156.32 134.3 156.32 130.34 152.72 130.34 147.28 130.34 142.32 133.82 138.16 139.22 138.16 144.82 138.16 147.74 141.92 147.74 146.56 147.74 147.24 147.66 148.12 147.54 148.72zM139.18 141.68C137.26 141.68 135.34 142.8 134.86 145.68L143.38 145.68C143.3 143.28 141.74 141.68 139.18 141.68zM157.02 138.48L150.22 138.48 150.22 142.16 152.82 142.16 152.82 152.4 150.22 152.4 150.22 156 159.58 156 159.58 152.4 157.18 152.4 157.18 144.16C158.58 143 160.18 142.12 161.7 142.12 162.74 142.12 163.46 142.52 163.86 143.28 164.1 143.72 164.22 144.36 164.22 145.08L164.22 152.4 161.82 152.4 161.82 156 171.18 156 171.18 152.4 168.58 152.4 168.58 144C168.58 142.56 168.26 141.36 167.66 140.4 166.74 139 165.22 138.16 163.14 138.16 160.58 138.16 158.7 139.64 157.02 141.28L157.02 138.48zM181.3 156.32C176.66 156.32 173.18 152.6 173.18 147.32 173.18 142.24 176.86 138.16 181.58 138.16 183.82 138.16 185.46 139 186.46 139.84L186.46 130.4 183.82 130.4 183.82 126.72 190.82 126.72 190.82 152.4 193.42 152.4 193.42 156 186.46 156 186.46 154.08C185.18 155.32 183.54 156.32 181.3 156.32zM182.3 152.56C183.94 152.56 185.26 151.84 186.46 150.8L186.46 143.28C185.3 142.48 183.94 141.92 182.3 141.92 179.86 141.92 177.66 143.8 177.66 147.28 177.66 150.64 179.74 152.56 182.3 152.56zM212.82 148.72L200.18 148.72C200.78 151.44 203.02 152.64 205.94 152.64 208.06 152.64 210.26 151.96 212.3 150.8L211.94 154.72C210.1 155.8 207.86 156.32 205.3 156.32 199.58 156.32 195.62 152.72 195.62 147.28 195.62 142.32 199.1 138.16 204.5 138.16 210.1 138.16 213.02 141.92 213.02 146.56 213.02 147.24 212.94 148.12 212.82 148.72zM204.46 141.68C202.54 141.68 200.62 142.8 200.14 145.68L208.66 145.68C208.58 143.28 207.02 141.68 204.46 141.68zM227.86 138.16C225.62 138.16 223.78 140.08 222.3 142.44L222.3 138.48 215.5 138.48 215.5 142.16 218.1 142.16 218.1 152.4 215.5 152.4 215.5 156 225.5 156 225.5 152.4 222.46 152.4 222.46 145.52C223.26 144 224.7 142.64 225.94 142.2 226.3 143 227.18 143.76 228.5 143.76 229.94 143.76 231.1 142.52 231.1 141.04 231.1 139.48 230.02 138.16 227.86 138.16zM95.966 207.888L104.732 207.888 104.732 213.45 95.966 213.45 95.966 207.888zM103.49 212.352L103.49 211.182 97.19 211.182 97.19 212.352 103.49 212.352zM97.19 210.156L103.49 210.156 103.49 209.004 97.19 209.004 97.19 210.156zM94.598 214.386L94.598 215.538 97.478 215.538C96.776 216.546 95.66 217.446 94.13 218.202L94.886 219.156C95.642 218.742 96.326 218.274 96.92 217.77L98.846 217.77C97.964 218.922 96.524 219.858 94.508 220.578L95.282 221.55C97.532 220.632 99.152 219.372 100.142 217.77L101.942 217.77C100.718 220.2 98.72 221.838 95.948 222.702L96.668 223.782C99.674 222.81 101.852 220.794 103.202 217.77L104.282 217.77C104.21 219.768 104.048 221.082 103.832 221.694 103.598 222.27 103.13 222.576 102.41 222.576 101.942 222.576 101.474 222.558 100.97 222.522L101.294 223.71 103.004 223.71C103.706 223.674 104.228 223.458 104.552 223.062 104.876 222.648 105.11 221.91 105.254 220.866 105.398 219.786 105.488 218.4 105.524 216.69L97.982 216.69C98.27 216.33 98.54 215.934 98.774 215.538L106.244 215.538 106.244 214.386 94.598 214.386zM91.232 207.6L90.35 208.446C91.682 209.364 92.708 210.246 93.464 211.074L94.364 210.174C93.518 209.31 92.474 208.464 91.232 207.6zM90.764 211.884L89.864 212.748C91.178 213.684 92.222 214.584 92.978 215.412L93.86 214.53C93.032 213.648 91.988 212.766 90.764 211.884zM92.78 216.672C92.024 218.832 91.106 220.956 90.044 223.026L91.232 223.53C92.204 221.532 93.104 219.39 93.896 217.122L92.78 216.672zM127.032 208.05L136.95 208.05 136.95 213.936 127.032 213.936 127.032 208.05zM135.654 212.712L135.654 209.274 128.328 209.274 128.328 212.712 135.654 212.712zM130.974 215.718L130.974 223.53 129.714 223.53 129.714 222.612 125.916 222.612 125.916 223.53 124.638 223.53 124.638 215.718 130.974 215.718zM125.916 221.388L129.714 221.388 129.714 216.96 125.916 216.96 125.916 221.388zM139.344 215.718L139.344 223.53 138.048 223.53 138.048 222.612 134.106 222.612 134.106 223.53 132.828 223.53 132.828 215.718 139.344 215.718zM134.106 221.388L138.048 221.388 138.048 216.96 134.106 216.96 134.106 221.388zM159.61 222.702L159.61 223.782 158.368 223.782 158.368 217.446 163.858 217.446 163.858 223.53 162.616 223.53 162.616 222.702 159.61 222.702zM162.616 221.514L162.616 218.616 159.61 218.616 159.61 221.514 162.616 221.514zM157.72 209.652L157.72 210.858 164.524 210.858 164.524 209.652 161.374 209.652 162.004 209.418C161.788 208.77 161.482 208.032 161.086 207.24L159.844 207.582C160.222 208.23 160.546 208.932 160.816 209.652L157.72 209.652zM158.422 212.316L158.422 213.45 163.804 213.45 163.804 212.316 158.422 212.316zM158.422 214.782L158.422 215.934 163.804 215.934 163.804 214.782 158.422 214.782zM168.826 207.33L168.826 213.234 164.83 213.234 164.83 214.494 168.826 214.494 168.826 223.782 170.104 223.782 170.104 214.494 174.226 214.494 174.226 213.234 170.104 213.234 170.104 207.33 168.826 207.33zM205.778 212.586L200.612 212.586 200.612 213.504 206.39 213.504 206.39 214.314 200.612 214.314 200.612 215.25 207.722 215.25 207.722 216.186 192.332 216.186 192.332 215.25 199.352 215.25 199.352 214.314 193.628 214.314 193.628 213.504 199.352 213.504 199.352 212.586 194.222 212.586 194.222 211.74 199.406 211.74 199.406 210.804 192.278 210.804 192.278 209.976 199.406 209.976 199.406 209.022 194.222 209.022 194.222 208.158 199.352 208.158 199.352 207.222 200.612 207.222 200.612 208.158 205.778 208.158 205.778 209.922 207.794 209.922 207.794 210.858 205.778 210.858 205.778 212.586zM200.558 209.022L200.558 209.976 204.554 209.976 204.554 209.022 200.558 209.022zM200.558 210.804L200.558 211.74 204.554 211.74 204.554 210.804 200.558 210.804zM194.06 216.942L205.922 216.942 205.922 221.496 194.06 221.496 194.06 216.942zM204.716 220.704L204.716 219.534 200.612 219.534 200.612 220.704 204.716 220.704zM199.388 220.704L199.388 219.534 195.284 219.534 195.284 220.704 199.388 220.704zM195.284 218.85L199.388 218.85 199.388 217.734 195.284 217.734 195.284 218.85zM200.612 217.734L200.612 218.85 204.716 218.85 204.716 217.734 200.612 217.734zM192.026 222.378L192.026 223.386 207.956 223.386 207.956 222.378 192.026 222.378z"/>
    <polygon points="228.596 222 238.312 222 238.312 219.48 235.008 219.48 235.008 207.3 233.524 207.3 228.428 208.588 229.128 211.108 231.956 210.436 231.956 219.48 228.596 219.48"/>
  </g>
</svg>
