<svg xmlns="http://www.w3.org/2000/svg" width="323" height="225" viewBox="0 0 323 225">
  <g fill="#FFF" fill-rule="evenodd" transform="translate(0 -1)">
    <g opacity=".5" transform="translate(0 33)">
      <polygon points="270.5 0 270.5 8 315 8 315 175 270.5 175 270.5 183 323.001 183 323.001 0"/>
      <polygon points="0 0 0 183 52.5 183 52.5 175 8 175 8 8 52.5 8 52.5 0"/>
    </g>
    <g transform="translate(87)">
      <path d="M.196 10.568L17.008 10.568 17.008 11.756 13.912 11.756 13.912 41.564 12.688 41.564 12.688 35.048C8.836 35.912 4.696 36.632.304 37.208L.016 35.984 3.472 35.552 3.472 11.756.196 11.756.196 10.568zM4.696 35.372C7.468 34.904 10.132 34.364 12.688 33.788L12.688 27.56 4.696 27.56 4.696 35.372zM4.696 26.408L12.688 26.408 12.688 19.748 4.696 19.748 4.696 26.408zM4.696 18.596L12.688 18.596 12.688 11.756 4.696 11.756 4.696 18.596zM29.428 13.664L20.068 13.664C20.536 19.712 22.084 25.184 24.676 30.152 27.124 25.508 28.708 20 29.428 13.664zM24.028 31.304C21.148 25.904 19.42 20.036 18.916 13.664L17.512 13.664 17.512 12.44 30.58 12.44 30.58 13.592C29.788 20.576 28.024 26.516 25.36 31.412 27.232 34.652 29.5 37.64 32.236 40.376L31.444 41.276C28.744 38.504 26.512 35.588 24.712 32.528 22.624 35.984 20.104 38.9 17.08 41.276L16.288 40.34C19.42 37.892 22.012 34.868 24.028 31.304zM66.76 17.984L66.94 19.172 54.556 20.612C54.808 23.528 55.168 25.976 55.636 27.992 56.536 31.664 57.868 34.616 59.632 36.848 61.216 38.864 62.692 39.872 64.06 39.872 65.248 39.872 66.148 37.388 66.724 32.42L67.768 33.032C67.372 35.984 66.832 38.18 66.112 39.62 65.5 40.592 64.816 41.096 64.096 41.096 62.404 41.096 60.64 39.98 58.84 37.748 56.86 35.3 55.384 32.06 54.412 28.064 53.908 26.12 53.548 23.708 53.332 20.756L44.98 21.728 44.8 20.54 53.224 19.568C52.972 16.436 52.828 12.8 52.828 8.696L54.052 8.696C54.052 12.728 54.196 16.328 54.448 19.424L66.76 17.984zM40.768 19.316C39.256 21.584 37.564 23.672 35.692 25.616L35.332 24.356C39.652 19.676 42.712 14.456 44.512 8.696L45.628 9.236C44.62 12.116 43.432 14.816 41.992 17.3L41.992 41.528 40.768 41.528 40.768 19.316zM58.192 9.128C60.496 11 62.404 12.908 63.916 14.816L63.052 15.644C61.648 13.844 59.74 11.9 57.364 9.884L58.192 9.128zM79.792 34.104C79.792 35.448 80.24 36.728 81.008 37.88 83.12 40.888 87.728 43.064 93.232 43.064 101.232 43.064 107.312 38.52 107.312 31.544 107.312 27.384 104.816 24.376 101.488 22.648 100.336 22.008 98.992 21.496 97.648 21.24 99.12 21.048 100.528 20.536 101.744 19.832 104.816 18.104 106.928 15.16 106.928 11.832 106.928 6.072 101.616 1.528 93.936 1.528 88.176 1.528 84.336 3.832 82.544 6.456 81.712 7.672 81.328 8.952 81.328 10.04 81.328 12.664 83.12 14.392 85.104 14.392 87.024 14.392 88.688 12.92 88.688 10.936 88.688 9.976 88.112 8.888 87.28 8.312 88.432 7.096 90.48 6.264 93.68 6.264 98.032 6.264 101.36 8.248 101.36 12.024 101.36 14.392 99.888 16.248 97.648 17.528 95.728 18.616 93.168 19.192 90.48 19.192L88.624 19.192 88.624 23.736 90.288 23.736C93.104 23.736 95.472 24.184 97.264 24.952 100.272 26.296 101.744 28.6 101.744 31.352 101.744 35.448 98.224 38.392 93.296 38.392 90.16 38.392 87.408 37.56 85.808 35.96 86.64 35.32 87.088 34.296 87.088 33.272 87.088 31.416 85.552 29.816 83.632 29.816 81.456 29.816 79.792 31.736 79.792 34.104zM131.824 23.744L140.176 23.744 140.176 24.716 131.824 24.716 131.824 23.744zM135.532 18.596L136.504 18.596C139.528 21.692 144.748 24.392 152.092 26.732L151.444 27.74C144.532 25.58 139.384 22.88 136 19.676 131.896 23.276 126.676 26.084 120.376 28.064L119.728 27.02C126.568 24.86 131.86 22.052 135.532 18.596zM128.44 8.552L129.556 8.552 129.556 10.244 134.956 10.244 134.956 11.288 129.556 11.288 129.556 14.168 134.38 14.168 134.38 15.032C131.356 18.884 126.676 21.512 120.376 22.916L119.8 21.944C122.428 21.368 124.732 20.612 126.712 19.676 125.632 18.668 124.3 17.66 122.788 16.616 122.104 17.372 121.348 18.056 120.52 18.668L119.836 17.732C122.14 16.076 123.688 14.06 124.516 11.684L125.668 11.828C125.38 12.62 125.056 13.412 124.624 14.168L128.44 14.168 128.44 8.552zM123.976 15.176C123.796 15.392 123.616 15.644 123.436 15.86 125.128 17.012 126.532 18.092 127.684 19.172 129.772 18.02 131.5 16.688 132.868 15.176L123.976 15.176zM138.016 12.404C140.068 13.376 142.048 14.42 143.956 15.572 145.612 14.276 146.908 12.8 147.844 11.144L137.404 11.144 137.404 10.064 149.212 10.064 149.212 10.928C148.24 12.944 146.836 14.708 144.964 16.184 147.196 17.552 149.32 19.064 151.336 20.72L150.652 21.764C148.42 19.928 146.224 18.308 143.992 16.904 142.516 17.912 140.86 18.812 138.988 19.532L138.268 18.596C140.068 17.912 141.616 17.12 142.984 16.256 141.112 15.104 139.24 14.096 137.404 13.268L138.016 12.404zM127.324 31.376L127.324 33.896 143.848 33.896 143.848 31.376 127.324 31.376zM143.848 30.404L143.848 27.92 127.324 27.92 127.324 30.404 143.848 30.404zM148.636 33.536L149.716 34.076C148.276 35.66 146.692 37.064 145.036 38.288 146.98 38.972 148.852 39.692 150.652 40.448L150.004 41.456C145.54 39.44 140.932 37.856 136.216 36.704L136.828 35.84C139.276 36.452 141.616 37.136 143.848 37.892 145.684 36.524 147.268 35.084 148.636 33.536zM125.956 41.276L125.668 40.412C125.956 40.304 126.1 40.052 126.1 39.656L126.1 26.948 145 26.948 145 34.904 127.324 34.904 127.324 40.088C130.204 39.656 132.904 39.116 135.496 38.504L135.712 39.512C133.12 40.16 129.844 40.772 125.956 41.276z"/>
    </g>
    <path d="M142.355 110L150.665 110 150.665 106.97 148.205 106.97 148.205 93.2 151.865 93.2 151.865 96.32 155.075 96.32 155.075 90.26 137.945 90.26 137.945 96.32 141.155 96.32 141.155 93.2 144.815 93.2 144.815 106.97 142.355 106.97 142.355 110zM158.495 90.8L158.495 107.3 156.545 107.3 156.545 110 163.565 110 163.565 107.3 161.765 107.3 161.765 101.12C162.815 100.25 164.015 99.59 165.155 99.59 165.785 99.59 166.295 99.8 166.625 100.22 166.895 100.58 167.045 101.09 167.045 101.81L167.045 107.3 165.245 107.3 165.245 110 172.265 110 172.265 107.3 170.315 107.3 170.315 101C170.315 99.8 170.015 98.78 169.445 98.03 168.755 97.13 167.645 96.62 166.235 96.62 164.375 96.62 162.995 97.67 161.765 98.84L161.765 88.04 156.545 88.04 156.545 90.8 158.495 90.8zM186.665 104.54L177.185 104.54C177.635 106.58 179.315 107.48 181.505 107.48 183.095 107.48 184.745 106.97 186.275 106.1L186.005 109.04C184.625 109.85 182.945 110.24 181.025 110.24 176.735 110.24 173.765 107.54 173.765 103.46 173.765 99.74 176.375 96.62 180.425 96.62 184.625 96.62 186.815 99.44 186.815 102.92 186.815 103.43 186.755 104.09 186.665 104.54zM180.395 99.26C178.955 99.26 177.515 100.1 177.155 102.26L183.545 102.26C183.485 100.46 182.315 99.26 180.395 99.26zM115.04 156L115.04 151.96 118.04 151.96 118.04 133.72 115.04 133.72 115.04 129.68 125.24 129.68C131.28 129.68 135.6 132.28 135.6 137.64 135.6 141.04 133.52 143.64 130.64 144.8L134.68 151.96 137.68 151.96 137.68 156 131.6 156 126.32 146C125.76 146.04 125.24 146.08 124.72 146.08 123.88 146.08 123.12 146.08 122.56 146.04L122.56 151.96 125.84 151.96 125.84 156 115.04 156zM125.12 142.24C128.52 142.24 130.92 140.56 130.92 137.8 130.92 135.04 128.64 133.72 125 133.72L122.56 133.72 122.56 142.16C123.04 142.2 123.68 142.24 125.12 142.24zM156.92 148.72L144.28 148.72C144.88 151.44 147.12 152.64 150.04 152.64 152.16 152.64 154.36 151.96 156.4 150.8L156.04 154.72C154.2 155.8 151.96 156.32 149.4 156.32 143.68 156.32 139.72 152.72 139.72 147.28 139.72 142.32 143.2 138.16 148.6 138.16 154.2 138.16 157.12 141.92 157.12 146.56 157.12 147.24 157.04 148.12 156.92 148.72zM148.56 141.68C146.64 141.68 144.72 142.8 144.24 145.68L152.76 145.68C152.68 143.28 151.12 141.68 148.56 141.68zM174.6 142.36C174.6 141.52 174.28 140.76 173.64 140.12 172.44 138.92 169.88 138.12 167.76 138.12 162.84 138.12 160.6 140.96 160.6 143.68 160.6 146.68 162.64 147.84 167.48 149.12 170.16 149.84 170.92 150.36 170.92 151.24 170.92 152.52 169.48 153.12 167.72 153.12 166.48 153.12 165.36 152.88 164.56 152.56 164.6 152.32 164.64 152.08 164.64 151.84 164.64 150.32 163.48 149.52 162.28 149.52 160.92 149.52 159.96 150.6 159.96 151.88 159.96 152.8 160.24 153.52 160.96 154.24 162.12 155.4 165 156.36 167.68 156.36 171.64 156.36 175.08 154.4 175.08 150.72 175.08 147.56 172.64 146.52 168.44 145.4 165.76 144.68 164.76 144.16 164.76 143.16 164.76 142.24 165.72 141.36 167.68 141.36 168.56 141.36 169.44 141.52 170.16 141.8 170.08 142.04 170.08 142.28 170.08 142.56 170.08 143.88 171.04 144.72 172.44 144.72 173.72 144.72 174.6 143.76 174.6 142.36zM195.24 148.72L182.6 148.72C183.2 151.44 185.44 152.64 188.36 152.64 190.48 152.64 192.68 151.96 194.72 150.8L194.36 154.72C192.52 155.8 190.28 156.32 187.72 156.32 182 156.32 178.04 152.72 178.04 147.28 178.04 142.32 181.52 138.16 186.92 138.16 192.52 138.16 195.44 141.92 195.44 146.56 195.44 147.24 195.36 148.12 195.24 148.72zM186.88 141.68C184.96 141.68 183.04 142.8 182.56 145.68L191.08 145.68C191 143.28 189.44 141.68 186.88 141.68zM205.76 156.32C207.36 156.32 208.76 155.88 209.96 155.28L210.32 151.52C209.28 152 208 152.44 206.88 152.44 206 152.44 205.36 152.16 205.04 151.6 204.84 151.24 204.76 150.88 204.76 150.32L204.76 142.16 210.08 142.16 210.08 138.48 204.76 138.48 204.76 132.92 200.44 134.8 200.44 138.48 197.04 138.48 197.04 142.16 200.44 142.16 200.44 151.16C200.44 152.28 200.64 153.2 201.04 153.92 201.92 155.6 203.64 156.32 205.76 156.32zM95.966 207.888L104.732 207.888 104.732 213.45 95.966 213.45 95.966 207.888zM103.49 212.352L103.49 211.182 97.19 211.182 97.19 212.352 103.49 212.352zM97.19 210.156L103.49 210.156 103.49 209.004 97.19 209.004 97.19 210.156zM94.598 214.386L94.598 215.538 97.478 215.538C96.776 216.546 95.66 217.446 94.13 218.202L94.886 219.156C95.642 218.742 96.326 218.274 96.92 217.77L98.846 217.77C97.964 218.922 96.524 219.858 94.508 220.578L95.282 221.55C97.532 220.632 99.152 219.372 100.142 217.77L101.942 217.77C100.718 220.2 98.72 221.838 95.948 222.702L96.668 223.782C99.674 222.81 101.852 220.794 103.202 217.77L104.282 217.77C104.21 219.768 104.048 221.082 103.832 221.694 103.598 222.27 103.13 222.576 102.41 222.576 101.942 222.576 101.474 222.558 100.97 222.522L101.294 223.71 103.004 223.71C103.706 223.674 104.228 223.458 104.552 223.062 104.876 222.648 105.11 221.91 105.254 220.866 105.398 219.786 105.488 218.4 105.524 216.69L97.982 216.69C98.27 216.33 98.54 215.934 98.774 215.538L106.244 215.538 106.244 214.386 94.598 214.386zM91.232 207.6L90.35 208.446C91.682 209.364 92.708 210.246 93.464 211.074L94.364 210.174C93.518 209.31 92.474 208.464 91.232 207.6zM90.764 211.884L89.864 212.748C91.178 213.684 92.222 214.584 92.978 215.412L93.86 214.53C93.032 213.648 91.988 212.766 90.764 211.884zM92.78 216.672C92.024 218.832 91.106 220.956 90.044 223.026L91.232 223.53C92.204 221.532 93.104 219.39 93.896 217.122L92.78 216.672zM127.032 208.05L136.95 208.05 136.95 213.936 127.032 213.936 127.032 208.05zM135.654 212.712L135.654 209.274 128.328 209.274 128.328 212.712 135.654 212.712zM130.974 215.718L130.974 223.53 129.714 223.53 129.714 222.612 125.916 222.612 125.916 223.53 124.638 223.53 124.638 215.718 130.974 215.718zM125.916 221.388L129.714 221.388 129.714 216.96 125.916 216.96 125.916 221.388zM139.344 215.718L139.344 223.53 138.048 223.53 138.048 222.612 134.106 222.612 134.106 223.53 132.828 223.53 132.828 215.718 139.344 215.718zM134.106 221.388L138.048 221.388 138.048 216.96 134.106 216.96 134.106 221.388zM159.61 222.702L159.61 223.782 158.368 223.782 158.368 217.446 163.858 217.446 163.858 223.53 162.616 223.53 162.616 222.702 159.61 222.702zM162.616 221.514L162.616 218.616 159.61 218.616 159.61 221.514 162.616 221.514zM157.72 209.652L157.72 210.858 164.524 210.858 164.524 209.652 161.374 209.652 162.004 209.418C161.788 208.77 161.482 208.032 161.086 207.24L159.844 207.582C160.222 208.23 160.546 208.932 160.816 209.652L157.72 209.652zM158.422 212.316L158.422 213.45 163.804 213.45 163.804 212.316 158.422 212.316zM158.422 214.782L158.422 215.934 163.804 215.934 163.804 214.782 158.422 214.782zM168.826 207.33L168.826 213.234 164.83 213.234 164.83 214.494 168.826 214.494 168.826 223.782 170.104 223.782 170.104 214.494 174.226 214.494 174.226 213.234 170.104 213.234 170.104 207.33 168.826 207.33zM205.778 212.586L200.612 212.586 200.612 213.504 206.39 213.504 206.39 214.314 200.612 214.314 200.612 215.25 207.722 215.25 207.722 216.186 192.332 216.186 192.332 215.25 199.352 215.25 199.352 214.314 193.628 214.314 193.628 213.504 199.352 213.504 199.352 212.586 194.222 212.586 194.222 211.74 199.406 211.74 199.406 210.804 192.278 210.804 192.278 209.976 199.406 209.976 199.406 209.022 194.222 209.022 194.222 208.158 199.352 208.158 199.352 207.222 200.612 207.222 200.612 208.158 205.778 208.158 205.778 209.922 207.794 209.922 207.794 210.858 205.778 210.858 205.778 212.586zM200.558 209.022L200.558 209.976 204.554 209.976 204.554 209.022 200.558 209.022zM200.558 210.804L200.558 211.74 204.554 211.74 204.554 210.804 200.558 210.804zM194.06 216.942L205.922 216.942 205.922 221.496 194.06 221.496 194.06 216.942zM204.716 220.704L204.716 219.534 200.612 219.534 200.612 220.704 204.716 220.704zM199.388 220.704L199.388 219.534 195.284 219.534 195.284 220.704 199.388 220.704zM195.284 218.85L199.388 218.85 199.388 217.734 195.284 217.734 195.284 218.85zM200.612 217.734L200.612 218.85 204.716 218.85 204.716 217.734 200.612 217.734zM192.026 222.378L192.026 223.386 207.956 223.386 207.956 222.378 192.026 222.378zM227.504 221.356C227.504 221.972 227.728 222.588 228.092 223.12 229.072 224.52 231.172 225.556 233.804 225.556 237.5 225.556 240.272 223.54 240.272 220.404 240.272 218.5 239.152 217.24 237.808 216.484 237.304 216.204 236.744 215.98 236.212 215.84 236.828 215.728 237.416 215.504 237.948 215.196 239.236 214.468 240.16 213.236 240.16 211.752 240.16 209.064 237.612 207.076 234.084 207.076 231.284 207.076 229.604 208.14 228.82 209.288 228.428 209.848 228.26 210.436 228.26 210.912 228.26 212.256 229.156 213.124 230.164 213.124 231.172 213.124 232.012 212.284 232.012 211.276 232.012 210.884 231.844 210.464 231.62 210.156 232.096 209.792 232.852 209.596 233.972 209.596 235.624 209.596 237.024 210.352 237.024 211.864 237.024 212.872 236.464 213.628 235.512 214.132 234.728 214.524 233.692 214.748 232.488 214.748L231.564 214.748 231.564 217.156 232.404 217.156C233.664 217.156 234.616 217.324 235.316 217.632 236.632 218.192 237.136 219.144 237.136 220.208 237.136 221.916 235.736 223.036 233.832 223.036 232.656 223.036 231.564 222.756 230.864 222.196 231.088 221.888 231.256 221.468 231.256 221.076 231.256 220.068 230.416 219.228 229.408 219.228 228.288 219.228 227.504 220.18 227.504 221.356z"/>
  </g>
</svg>
