<svg xmlns="http://www.w3.org/2000/svg" width="511" height="33" viewBox="0 0 511 33">
  <g fill="none" fill-rule="evenodd">
    <path fill="#A5B6F3" d="M6.21,27 L16.182,27 L16.182,23.364 L13.23,23.364 L13.23,6.84 L17.622,6.84 L17.622,10.584 L21.474,10.584 L21.474,3.312 L0.918,3.312 L0.918,10.584 L4.77,10.584 L4.77,6.84 L9.162,6.84 L9.162,23.364 L6.21,23.364 L6.21,27 Z M25.578,3.96 L25.578,23.76 L23.238,23.76 L23.238,27 L31.662,27 L31.662,23.76 L29.502,23.76 L29.502,16.344 C30.762,15.3 32.202,14.508 33.57,14.508 C34.326,14.508 34.938,14.76 35.334,15.264 C35.658,15.696 35.838,16.308 35.838,17.172 L35.838,23.76 L33.678,23.76 L33.678,27 L42.102,27 L42.102,23.76 L39.762,23.76 L39.762,16.2 C39.762,14.76 39.402,13.536 38.718,12.636 C37.89,11.556 36.558,10.944 34.866,10.944 C32.634,10.944 30.978,12.204 29.502,13.608 L29.502,0.648 L23.238,0.648 L23.238,3.96 L25.578,3.96 Z M59.382,20.448 L48.006,20.448 C48.546,22.896 50.562,23.976 53.19,23.976 C55.098,23.976 57.078,23.364 58.914,22.32 L58.59,25.848 C56.934,26.82 54.918,27.288 52.614,27.288 C47.466,27.288 43.902,24.048 43.902,19.152 C43.902,14.688 47.034,10.944 51.894,10.944 C56.934,10.944 59.562,14.328 59.562,18.504 C59.562,19.116 59.49,19.908 59.382,20.448 Z M51.858,14.112 C50.13,14.112 48.402,15.12 47.97,17.712 L55.638,17.712 C55.566,15.552 54.162,14.112 51.858,14.112 Z M69.93,27 L87.138,27 L87.138,20.052 L83.214,20.052 L83.214,23.4 L76.698,23.4 L76.698,6.948 L79.83,6.948 L79.83,3.312 L69.93,3.312 L69.93,6.948 L72.63,6.948 L72.63,23.364 L69.93,23.364 L69.93,27 Z M93.438,8.82 C94.842,8.82 96.102,7.668 96.102,6.228 C96.102,4.788 94.914,3.636 93.51,3.636 C92.106,3.636 90.846,4.788 90.846,6.228 C90.846,7.668 92.034,8.82 93.438,8.82 Z M89.478,27 L98.154,27 L98.154,23.76 L95.814,23.76 L95.814,11.232 L89.478,11.232 L89.478,14.544 L91.89,14.544 L91.89,23.76 L89.478,23.76 L89.478,27 Z M110.79,5.256 C109.566,5.256 108.954,4.608 108.522,3.78 C108.198,3.924 107.874,4.14 107.694,4.428 C107.226,5.112 106.974,6.084 106.974,7.596 L106.974,11.232 L111.078,11.232 L111.078,14.544 L106.974,14.544 L106.974,23.76 L110.034,23.76 L110.034,27 L100.71,27 L100.71,23.76 L103.086,23.76 L103.086,14.544 L100.386,14.544 L100.386,11.232 L103.086,11.232 L103.086,8.172 C103.086,5.292 103.59,3.492 105.102,2.016 C106.218,0.936 107.658,0.36 109.422,0.36 C111.474,0.36 112.914,1.44 112.914,3.024 C112.914,4.428 111.906,5.256 110.79,5.256 Z M128.322,20.448 L116.946,20.448 C117.486,22.896 119.502,23.976 122.13,23.976 C124.038,23.976 126.018,23.364 127.854,22.32 L127.53,25.848 C125.874,26.82 123.858,27.288 121.554,27.288 C116.406,27.288 112.842,24.048 112.842,19.152 C112.842,14.688 115.974,10.944 120.834,10.944 C125.874,10.944 128.502,14.328 128.502,18.504 C128.502,19.116 128.43,19.908 128.322,20.448 Z M120.798,14.112 C119.07,14.112 117.342,15.12 116.91,17.712 L124.578,17.712 C124.506,15.552 123.102,14.112 120.798,14.112 Z M138.87,27 L138.87,23.364 L141.57,23.364 L141.57,6.948 L138.87,6.948 L138.87,3.312 L148.338,3.312 C154.134,3.312 156.978,5.976 156.978,9.54 C156.978,12.276 155.286,14.04 152.946,14.832 C155.898,15.696 157.662,17.424 157.662,20.376 C157.662,24.3 154.494,27 148.734,27 L138.87,27 Z M145.602,23.436 L148.806,23.436 C151.614,23.436 153.486,22.284 153.486,20.016 C153.486,17.82 151.758,16.596 148.698,16.596 L145.602,16.596 L145.602,23.436 Z M145.602,13.356 L148.374,13.356 C151.218,13.356 152.802,12.06 152.802,10.008 C152.802,7.992 151.146,6.876 148.266,6.876 L145.602,6.876 L145.602,13.356 Z M159.93,27 L168.642,27 L168.642,23.76 L166.302,23.76 L166.302,0.648 L159.93,0.648 L159.93,3.96 L162.378,3.96 L162.378,23.76 L159.93,23.76 L159.93,27 Z M186.318,20.448 L174.942,20.448 C175.482,22.896 177.498,23.976 180.126,23.976 C182.034,23.976 184.014,23.364 185.85,22.32 L185.526,25.848 C183.87,26.82 181.854,27.288 179.55,27.288 C174.402,27.288 170.838,24.048 170.838,19.152 C170.838,14.688 173.97,10.944 178.83,10.944 C183.87,10.944 186.498,14.328 186.498,18.504 C186.498,19.116 186.426,19.908 186.318,20.448 Z M178.794,14.112 C177.066,14.112 175.338,15.12 174.906,17.712 L182.574,17.712 C182.502,15.552 181.098,14.112 178.794,14.112 Z M194.85,11.232 L188.73,11.232 L188.73,14.544 L191.07,14.544 L191.07,23.76 L188.73,23.76 L188.73,27 L197.154,27 L197.154,23.76 L194.994,23.76 L194.994,16.344 C196.254,15.3 197.694,14.508 199.062,14.508 C199.998,14.508 200.646,14.868 201.006,15.552 C201.222,15.948 201.33,16.524 201.33,17.172 L201.33,23.76 L199.17,23.76 L199.17,27 L207.594,27 L207.594,23.76 L205.254,23.76 L205.254,16.2 C205.254,14.904 204.966,13.824 204.426,12.96 C203.598,11.7 202.23,10.944 200.358,10.944 C198.054,10.944 196.362,12.276 194.85,13.752 L194.85,11.232 Z M216.702,27.288 C212.526,27.288 209.394,23.94 209.394,19.188 C209.394,14.616 212.706,10.944 216.954,10.944 C218.97,10.944 220.446,11.7 221.346,12.456 L221.346,3.96 L218.97,3.96 L218.97,0.648 L225.27,0.648 L225.27,23.76 L227.61,23.76 L227.61,27 L221.346,27 L221.346,25.272 C220.194,26.388 218.718,27.288 216.702,27.288 Z M217.602,23.904 C219.078,23.904 220.266,23.256 221.346,22.32 L221.346,15.552 C220.302,14.832 219.078,14.328 217.602,14.328 C215.406,14.328 213.426,16.02 213.426,19.152 C213.426,22.176 215.298,23.904 217.602,23.904 Z M245.07,20.448 L233.694,20.448 C234.234,22.896 236.25,23.976 238.878,23.976 C240.786,23.976 242.766,23.364 244.602,22.32 L244.278,25.848 C242.622,26.82 240.606,27.288 238.302,27.288 C233.154,27.288 229.59,24.048 229.59,19.152 C229.59,14.688 232.722,10.944 237.582,10.944 C242.622,10.944 245.25,14.328 245.25,18.504 C245.25,19.116 245.178,19.908 245.07,20.448 Z M237.546,14.112 C235.818,14.112 234.09,15.12 233.658,17.712 L241.326,17.712 C241.254,15.552 239.85,14.112 237.546,14.112 Z M258.606,10.944 C256.59,10.944 254.934,12.672 253.602,14.796 L253.602,11.232 L247.482,11.232 L247.482,14.544 L249.822,14.544 L249.822,23.76 L247.482,23.76 L247.482,27 L256.482,27 L256.482,23.76 L253.746,23.76 L253.746,17.568 C254.466,16.2 255.762,14.976 256.878,14.58 C257.202,15.3 257.994,15.984 259.182,15.984 C260.478,15.984 261.522,14.868 261.522,13.536 C261.522,12.132 260.55,10.944 258.606,10.944 Z M271.098,27 L280.746,27 L280.746,23.364 L277.902,23.364 L278.37,11.16 L285.138,23.04 L285.678,23.04 L292.446,11.16 L292.914,23.364 L290.07,23.364 L290.07,27 L299.79,27 L299.79,23.364 L296.982,23.364 L296.226,6.948 L299.178,6.948 L299.178,3.312 L292.734,3.312 L285.462,16.488 L278.19,3.312 L271.71,3.312 L271.71,6.948 L274.662,6.948 L273.906,23.364 L271.098,23.364 L271.098,27 Z M317.682,20.448 L306.306,20.448 C306.846,22.896 308.862,23.976 311.49,23.976 C313.398,23.976 315.378,23.364 317.214,22.32 L316.89,25.848 C315.234,26.82 313.218,27.288 310.914,27.288 C305.766,27.288 302.202,24.048 302.202,19.152 C302.202,14.688 305.334,10.944 310.194,10.944 C315.234,10.944 317.862,14.328 317.862,18.504 C317.862,19.116 317.79,19.908 317.682,20.448 Z M310.158,14.112 C308.43,14.112 306.702,15.12 306.27,17.712 L313.938,17.712 C313.866,15.552 312.462,14.112 310.158,14.112 Z M326.214,11.232 L320.094,11.232 L320.094,14.544 L322.434,14.544 L322.434,23.76 L320.094,23.76 L320.094,27 L328.518,27 L328.518,23.76 L326.358,23.76 L326.358,16.344 C327.618,15.3 329.058,14.508 330.426,14.508 C331.362,14.508 332.01,14.868 332.37,15.552 C332.586,15.948 332.694,16.524 332.694,17.172 L332.694,23.76 L330.534,23.76 L330.534,27 L338.958,27 L338.958,23.76 L336.618,23.76 L336.618,16.2 C336.618,14.904 336.33,13.824 335.79,12.96 C334.962,11.7 333.594,10.944 331.722,10.944 C329.418,10.944 327.726,12.276 326.214,13.752 L326.214,11.232 Z M347.346,27.288 C349.65,27.288 351.342,25.956 352.854,24.48 L352.854,27 L358.974,27 L358.974,23.76 L356.634,23.76 L356.634,11.232 L350.262,11.232 L350.262,14.544 L352.71,14.544 L352.71,21.888 C351.45,22.932 350.01,23.724 348.642,23.724 C347.706,23.724 347.058,23.364 346.698,22.68 C346.482,22.248 346.374,21.744 346.374,21.06 L346.374,11.232 L340.11,11.232 L340.11,14.544 L342.45,14.544 L342.45,22.032 C342.45,23.292 342.738,24.372 343.242,25.2 C344.034,26.496 345.438,27.288 347.346,27.288 Z"/>
    <path fill="#FFB8AC" d="M397.279,23.942 C397.279,24.954 397.647,25.966 398.245,26.84 C399.855,29.14 403.305,30.842 407.629,30.842 C413.701,30.842 418.255,27.53 418.255,22.378 C418.255,19.25 416.415,17.18 414.207,15.938 C413.379,15.478 412.459,15.11 411.585,14.88 C412.597,14.696 413.563,14.328 414.437,13.822 C416.553,12.626 418.071,10.602 418.071,8.164 C418.071,3.748 413.885,0.482 408.089,0.482 C403.489,0.482 400.729,2.23 399.441,4.116 C398.797,5.036 398.521,6.002 398.521,6.784 C398.521,8.992 399.993,10.418 401.649,10.418 C403.305,10.418 404.685,9.038 404.685,7.382 C404.685,6.738 404.409,6.048 404.041,5.542 C404.823,4.944 406.065,4.622 407.905,4.622 C410.619,4.622 412.919,5.864 412.919,8.348 C412.919,10.004 411.999,11.246 410.435,12.074 C409.147,12.718 407.445,13.086 405.467,13.086 L403.949,13.086 L403.949,17.042 L405.329,17.042 C407.399,17.042 408.963,17.318 410.113,17.824 C412.275,18.744 413.103,20.308 413.103,22.056 C413.103,24.862 410.803,26.702 407.675,26.702 C405.743,26.702 403.949,26.242 402.799,25.322 C403.167,24.816 403.443,24.126 403.443,23.482 C403.443,21.826 402.063,20.446 400.407,20.446 C398.567,20.446 397.279,22.01 397.279,23.942 Z M433.321,25 L433.321,21.364 L436.021,21.364 L436.021,4.948 L433.321,4.948 L433.321,1.312 L442.285,1.312 C450.853,1.312 455.929,5.776 455.929,12.94 C455.929,20.176 451.141,25 441.853,25 L433.321,25 Z M440.089,21.364 L442.429,21.364 C448.549,21.364 451.717,18.052 451.717,12.976 C451.717,7.792 448.045,4.948 442.141,4.948 L440.089,4.948 L440.089,21.364 Z M463.957,25.288 C461.257,25.288 458.845,23.812 458.845,20.86 C458.845,17.908 461.437,16.108 465.181,16.108 C466.801,16.108 468.313,16.324 469.177,16.54 L469.177,15.28 C469.177,14.344 468.961,13.624 468.565,13.12 C467.917,12.292 466.873,11.968 465.469,11.968 C464.785,11.968 464.281,12.076 463.921,12.22 C463.993,12.436 464.065,12.796 464.065,13.012 C464.065,14.2 463.129,15.064 461.941,15.064 C460.753,15.064 459.853,14.236 459.853,12.94 C459.853,10.996 461.833,8.944 466.117,8.944 C468.817,8.944 470.653,9.7 471.769,11.068 C472.597,12.076 472.993,13.444 472.993,15.028 L472.993,21.76 L475.333,21.76 L475.333,25 L469.249,25 L469.249,23.272 C467.989,24.352 466.081,25.288 463.957,25.288 Z M465.217,22.444 C466.621,22.444 467.989,21.904 469.177,21.04 L469.177,18.556 C468.277,18.34 467.161,18.196 465.937,18.196 C464.029,18.196 462.877,19.06 462.877,20.5 C462.877,21.76 463.813,22.444 465.217,22.444 Z M484.369,30.112 C484.837,29.572 485.233,28.924 485.593,28.204 L492.973,12.544 L494.881,12.544 L494.881,9.232 L486.781,9.232 L486.781,12.364 L489.229,12.364 L485.557,20.68 L481.921,12.364 L484.225,12.364 L484.225,9.232 L476.089,9.232 L476.089,12.544 L478.033,12.544 L483.649,24.208 L482.461,26.692 C482.209,27.196 481.993,27.592 481.741,27.916 C481.309,28.492 480.877,28.744 480.481,28.852 C480.229,28.24 479.689,27.664 478.753,27.664 C477.709,27.664 476.809,28.348 476.809,29.68 C476.809,30.94 478.105,32.164 480.193,32.164 C481.777,32.164 483.217,31.444 484.369,30.112 Z M509.677,12.724 C509.677,11.968 509.389,11.284 508.813,10.708 C507.733,9.628 505.429,8.908 503.521,8.908 C499.093,8.908 497.077,11.464 497.077,13.912 C497.077,16.612 498.913,17.656 503.269,18.808 C505.681,19.456 506.365,19.924 506.365,20.716 C506.365,21.868 505.069,22.408 503.485,22.408 C502.369,22.408 501.361,22.192 500.641,21.904 C500.677,21.688 500.713,21.472 500.713,21.256 C500.713,19.888 499.669,19.168 498.589,19.168 C497.365,19.168 496.501,20.14 496.501,21.292 C496.501,22.12 496.753,22.768 497.401,23.416 C498.445,24.46 501.037,25.324 503.449,25.324 C507.013,25.324 510.109,23.56 510.109,20.248 C510.109,17.404 507.913,16.468 504.133,15.46 C501.721,14.812 500.821,14.344 500.821,13.444 C500.821,12.616 501.685,11.824 503.449,11.824 C504.241,11.824 505.033,11.968 505.681,12.22 C505.609,12.436 505.609,12.652 505.609,12.904 C505.609,14.092 506.473,14.848 507.733,14.848 C508.885,14.848 509.677,13.984 509.677,12.724 Z"/>
    <polygon fill="#CFCFCF" points="369.09 18.36 385.31 18.36 385.31 16.32 369.09 16.32"/>
  </g>
</svg>
