<svg xmlns="http://www.w3.org/2000/svg" width="100" height="101" viewBox="0 0 100 101">
  <g fill="#A5B6F3" fill-rule="evenodd">
    <polygon points="23.187 63.906 32.234 63.906 31.424 67.401 22.374 67.401"/>
    <g transform="translate(0 .198)">
      <path d="M98.4081579,50.2168421 L97.2502632,50.2168421 C97.2476316,63.3273684 91.9397368,75.1852632 83.345,83.78 C74.7528947,92.3721053 62.895,97.6826316 49.7818421,97.6826316 C36.6739474,97.6826316 24.8134211,92.3721053 16.2213158,83.78 C7.62921053,75.1852632 2.31868421,63.3273684 2.31868421,50.2168421 C2.31868421,37.1063158 7.62921053,25.2457895 16.2213158,16.6536842 C24.8134211,8.06157895 36.6739474,2.75105263 49.7818421,2.75105263 C62.895,2.75105263 74.7528947,8.06157895 83.345,16.6536842 C91.9397368,25.2457895 97.2476316,37.1063158 97.2502632,50.2168421 L98.4081579,50.2168421 L99.5660526,50.2168421 C99.5660526,36.4721053 93.9923684,24.0194737 84.9844737,15.0142105 C75.9818421,6.00631579 63.5265789,0.432631579 49.7818421,0.432631579 C36.0397368,0.432631579 23.5871053,6.00631579 14.5818421,15.0142105 C5.57394737,24.0194737 -0.00236842105,36.4721053 0.000263157895,50.2168421 C-0.00236842105,63.9615789 5.57394737,76.4142105 14.5818421,85.4194737 C23.5871053,94.4247368 36.0397368,100.001053 49.7818421,99.9984211 C63.5265789,100.001053 75.9818421,94.4247368 84.9844737,85.4194737 C93.9923684,76.4142105 99.5660526,63.9615789 99.5660526,50.2168421 L98.4081579,50.2168421 Z"/>
      <path d="M59.8505263 36.8815789C58.9689474 38.0026316 57.74 38.7289474 56.3505263 38.7289474 55.2505263 38.7289474 54.4057895 38.3868421 53.8294737 37.7868421 53.2557895 37.1894737 52.9531579 36.3342105 52.9531579 35.3 52.9531579 33.7236842 53.5452632 32.1605263 54.4847368 30.9947368 55.4242105 29.8289474 56.7136842 29.0605263 58.1005263 29.0605263 59.1163158 29.0605263 59.9057895 29.4342105 60.4426316 30.0763158 60.9794737 30.7131579 61.2689474 31.6210526 61.2689474 32.6894737 61.2689474 34.25 60.7321053 35.7605263 59.8505263 36.8815789M62.9373684 28.1026316C62.04 27.0868421 60.7215789 26.5026316 59.0610526 26.5052632 58.0926316 26.5052632 57.1610526 26.8473684 56.3347368 27.3868421 55.5636842 27.8894737 54.9242105 28.5631579 54.39 29.2973684L57.0005263 18.75C56.1663158 19.3236842 55.44 19.7526316 54.3110526 19.7526316 53.2136842 19.7526316 52.0794737 19.55 51.2136842 19.3052632 50.3478947 19.1447368 49.3136842 18.9421053 48.3136842 18.9421053 44.7505263 18.9421053 43.2505263 21.7815789 43.2505263 24.0921053 43.2505263 25.0710526 43.4689474 25.9026316 43.8268421 26.7026316 43.2584211 26.5736842 42.6426316 26.5052632 41.9926316 26.5052632 40.2189474 26.5052632 38.8373684 27.0026316 37.9005263 27.7894737 36.9636842 28.5763158 36.4689474 29.6526316 36.4689474 30.8052632 36.4689474 31.9552632 36.9557895 32.7868421 37.69 33.4368421 38.4215789 34.0868421 39.4005263 34.5578947 40.3926316 35.0052632 41.1847368 35.35 41.9347368 35.6736842 42.4847368 36.0552632 42.7584211 36.2447368 42.9821053 36.4473684 43.1347368 36.6763158 43.29 36.9052632 43.3742105 37.1578947 43.3768421 37.4473684 43.3768421 37.7289474 43.2978947 37.9763158 43.1636842 38.1868421 42.9584211 38.5052632 42.6136842 38.7473684 42.1794737 38.9105263 41.7478947 39.0763158 41.2268421 39.1578947 40.6715789 39.1578947 39.6531579 39.1605263 38.7005263 38.9289474 38.0478947 38.6026316 37.8321053 38.4789474 37.6768421 38.3842105 37.5531579 38.2684211 37.7452632 38.0289474 37.8689474 37.6763158 37.8689474 37.3473684 37.8689474 36.9078947 37.7005263 36.5 37.4136842 36.2052632 37.1242105 35.9078947 36.7163158 35.7236842 36.2452632 35.7236842 35.7557895 35.7236842 35.3215789 35.9263158 35.0136842 36.2631579 34.7057895 36.6026316 34.5215789 37.0736842 34.5215789 37.6131579 34.5215789 38.3184211 34.8557895 38.9578947 35.4242105 39.5236842 36.4926316 40.6236842 38.4163158 41.3526316 40.6057895 41.3526316 42.2978947 41.3526316 43.7189474 40.9631579 44.7189474 40.2184211 45.7189474 39.4710526 46.2952632 38.3657895 46.2952632 36.95 46.2952632 35.8342105 45.8163158 35.0026316 45.0978947 34.3447368 44.3768421 33.6868421 43.4163158 33.2 42.44 32.7526316 41.6136842 32.3736842 40.8452632 32.0263158 40.29 31.6394737 40.0110526 31.45 39.7847368 31.2447368 39.6294737 31.0263158 39.4742105 30.8078947 39.39 30.5736842 39.39 30.3105263 39.39 29.8131579 39.6689474 29.4236842 40.1294737 29.15 40.5926316 28.8763158 41.24 28.7289474 41.9610526 28.7289474 42.6847368 28.7289474 43.3742105 28.8605263 43.8636842 29.0578947 44.1005263 29.1473684 44.2268421 29.2315789 44.3215789 29.2973684 44.1031579 29.6763158 44.0373684 29.9157895 44.0373684 30.2105263 44.0373684 31.0921053 44.7794737 31.8368421 45.6952632 31.8368421 46.1505263 31.8368421 46.5768421 31.65 46.8847368 31.3236842 47.1926316 30.9973684 47.3873684 30.5342105 47.3873684 29.9789474 47.3873684 29.3078947 47.0821053 28.6368421 46.5478947 28.1026316 46.24 27.7815789 45.8505263 27.5026316 45.4005263 27.2657895 45.0873684 26.5789474 44.8821053 25.8105263 44.8821053 24.9447368 44.8821053 22.3078947 46.7136842 21.0921053 48.1794737 21.0921053 48.8821053 21.0921053 49.8794737 21.1315789 50.7478947 21.2131579 51.5136842 21.3342105 52.5110526 21.4157895 53.3452632 21.4157895L53.3531579 21.4157895 48.7347368 41.0868421 51.7584211 41.0868421 52.39 38.1894737C52.9084211 40.05 54.6347368 41.3526316 56.7136842 41.3526316 58.7926316 41.3526316 60.6952632 40.3289474 62.0768421 38.6868421 63.4584211 37.0447368 64.3189474 34.7789474 64.3189474 32.2921053 64.3189474 30.5684211 63.84 29.1184211 62.9373684 28.1026316M78.2086842 69.0194737L78.1955263 69.0563158C77.8665789 69.9589474 77.5481579 70.5326316 77.2428947 70.8773684 76.9402632 71.2194737 76.6560526 71.3352632 76.3876316 71.3352632 76.1165789 71.3352632 75.9060526 71.2405263 75.7639474 71.0694737 75.6192105 70.8984211 75.5376316 70.6431579 75.5376316 70.3221053 75.5376316 70.0668421 75.635 69.6063158 75.735 69.18L76.9507895 64.9984211 76.9507895 64.9957895C77.1823684 64.1721053 77.3165789 63.3773684 77.3165789 62.68 77.3165789 61.4036842 76.8928947 60.3878947 76.1928947 59.6931579 75.4928947 58.9984211 74.5192105 58.6247368 73.4244737 58.6247368 72.4428947 58.6247368 71.4876316 59.0247368 70.6376316 59.6694737 69.8507895 60.2668421 69.1560526 61.0773684 68.6113158 61.9826316L69.6113158 58.8536842 66.6955263 58.8536842 63.1981579 73.1273684 66.1771053 73.1273684 68.0928947 65.3905263C68.4534211 63.98 69.0455263 62.9089474 69.7586842 62.1905263 70.4744737 61.4721053 71.3113158 61.1063158 72.1718421 61.1063158 72.8060526 61.1063158 73.3297368 61.3089474 73.6981579 61.6642105 74.0639474 62.0168421 74.2744737 62.5247368 74.2744737 63.1431579 74.2744737 63.5984211 74.2086842 64.0221053 74.0455263 64.58L72.8271053 68.8615789 72.8271053 68.8615789C72.6928947 69.3931579 72.5955263 70.0194737 72.5955263 70.4852632 72.5955263 71.3168421 72.8692105 72.0352632 73.3928947 72.5457895 73.9165789 73.0589474 74.685 73.3563158 75.6639474 73.3563158 76.5455263 73.3563158 77.3297368 73.0484211 77.9876316 72.4168421 78.6455263 71.7826316 79.1744737 70.83 79.5534211 69.5405263L79.5639474 69.5063158 78.2086842 69.0194737z"/>
    </g>
  </g>
</svg>
