<svg xmlns="http://www.w3.org/2000/svg" width="403" height="33" viewBox="0 0 403 33">
  <g fill="none" fill-rule="evenodd" transform="translate(0 -12)">
    <path fill="#A5B6F3" d="M5.878,39 L15.85,39 L15.85,35.364 L12.898,35.364 L12.898,18.84 L17.29,18.84 L17.29,22.584 L21.142,22.584 L21.142,15.312 L0.586,15.312 L0.586,22.584 L4.438,22.584 L4.438,18.84 L8.83,18.84 L8.83,35.364 L5.878,35.364 L5.878,39 Z M25.246,15.96 L25.246,35.76 L22.906,35.76 L22.906,39 L31.33,39 L31.33,35.76 L29.17,35.76 L29.17,28.344 C30.43,27.3 31.87,26.508 33.238,26.508 C33.994,26.508 34.606,26.76 35.002,27.264 C35.326,27.696 35.506,28.308 35.506,29.172 L35.506,35.76 L33.346,35.76 L33.346,39 L41.77,39 L41.77,35.76 L39.43,35.76 L39.43,28.2 C39.43,26.76 39.07,25.536 38.386,24.636 C37.558,23.556 36.226,22.944 34.534,22.944 C32.302,22.944 30.646,24.204 29.17,25.608 L29.17,12.648 L22.906,12.648 L22.906,15.96 L25.246,15.96 Z M59.05,32.448 L47.674,32.448 C48.214,34.896 50.23,35.976 52.858,35.976 C54.766,35.976 56.746,35.364 58.582,34.32 L58.258,37.848 C56.602,38.82 54.586,39.288 52.282,39.288 C47.134,39.288 43.57,36.048 43.57,31.152 C43.57,26.688 46.702,22.944 51.562,22.944 C56.602,22.944 59.23,26.328 59.23,30.504 C59.23,31.116 59.158,31.908 59.05,32.448 Z M51.526,26.112 C49.798,26.112 48.07,27.12 47.638,29.712 L55.306,29.712 C55.234,27.552 53.83,26.112 51.526,26.112 Z M69.598,39 L69.598,35.364 L72.298,35.364 L72.298,18.948 L69.598,18.948 L69.598,15.312 L78.778,15.312 C84.214,15.312 88.102,17.652 88.102,22.476 C88.102,25.536 86.23,27.876 83.638,28.92 L87.274,35.364 L89.974,35.364 L89.974,39 L84.502,39 L79.75,30 C79.246,30.036 78.778,30.072 78.31,30.072 C77.554,30.072 76.87,30.072 76.366,30.036 L76.366,35.364 L79.318,35.364 L79.318,39 L69.598,39 Z M78.67,26.616 C81.73,26.616 83.89,25.104 83.89,22.62 C83.89,20.136 81.838,18.948 78.562,18.948 L76.366,18.948 L76.366,26.544 C76.798,26.58 77.374,26.616 78.67,26.616 Z M107.29,32.448 L95.914,32.448 C96.454,34.896 98.47,35.976 101.098,35.976 C103.006,35.976 104.986,35.364 106.822,34.32 L106.498,37.848 C104.842,38.82 102.826,39.288 100.522,39.288 C95.374,39.288 91.81,36.048 91.81,31.152 C91.81,26.688 94.942,22.944 99.802,22.944 C104.842,22.944 107.47,26.328 107.47,30.504 C107.47,31.116 107.398,31.908 107.29,32.448 Z M99.766,26.112 C98.038,26.112 96.31,27.12 95.878,29.712 L103.546,29.712 C103.474,27.552 102.07,26.112 99.766,26.112 Z M123.202,26.724 C123.202,25.968 122.914,25.284 122.338,24.708 C121.258,23.628 118.954,22.908 117.046,22.908 C112.618,22.908 110.602,25.464 110.602,27.912 C110.602,30.612 112.438,31.656 116.794,32.808 C119.206,33.456 119.89,33.924 119.89,34.716 C119.89,35.868 118.594,36.408 117.01,36.408 C115.894,36.408 114.886,36.192 114.166,35.904 C114.202,35.688 114.238,35.472 114.238,35.256 C114.238,33.888 113.194,33.168 112.114,33.168 C110.89,33.168 110.026,34.14 110.026,35.292 C110.026,36.12 110.278,36.768 110.926,37.416 C111.97,38.46 114.562,39.324 116.974,39.324 C120.538,39.324 123.634,37.56 123.634,34.248 C123.634,31.404 121.438,30.468 117.658,29.46 C115.246,28.812 114.346,28.344 114.346,27.444 C114.346,26.616 115.21,25.824 116.974,25.824 C117.766,25.824 118.558,25.968 119.206,26.22 C119.134,26.436 119.134,26.652 119.134,26.904 C119.134,28.092 119.998,28.848 121.258,28.848 C122.41,28.848 123.202,27.984 123.202,26.724 Z M141.778,32.448 L130.402,32.448 C130.942,34.896 132.958,35.976 135.586,35.976 C137.494,35.976 139.474,35.364 141.31,34.32 L140.986,37.848 C139.33,38.82 137.314,39.288 135.01,39.288 C129.862,39.288 126.298,36.048 126.298,31.152 C126.298,26.688 129.43,22.944 134.29,22.944 C139.33,22.944 141.958,26.328 141.958,30.504 C141.958,31.116 141.886,31.908 141.778,32.448 Z M134.254,26.112 C132.526,26.112 130.798,27.12 130.366,29.712 L138.034,29.712 C137.962,27.552 136.558,26.112 134.254,26.112 Z M151.246,39.288 C152.686,39.288 153.946,38.892 155.026,38.352 L155.35,34.968 C154.414,35.4 153.262,35.796 152.254,35.796 C151.462,35.796 150.886,35.544 150.598,35.04 C150.418,34.716 150.346,34.392 150.346,33.888 L150.346,26.544 L155.134,26.544 L155.134,23.232 L150.346,23.232 L150.346,18.228 L146.458,19.92 L146.458,23.232 L143.398,23.232 L143.398,26.544 L146.458,26.544 L146.458,34.644 C146.458,35.652 146.638,36.48 146.998,37.128 C147.79,38.64 149.338,39.288 151.246,39.288 Z M165.43,39 L175.078,39 L175.078,35.364 L172.234,35.364 L172.702,23.16 L179.47,35.04 L180.01,35.04 L186.778,23.16 L187.246,35.364 L184.402,35.364 L184.402,39 L194.122,39 L194.122,35.364 L191.314,35.364 L190.558,18.948 L193.51,18.948 L193.51,15.312 L187.066,15.312 L179.794,28.488 L172.522,15.312 L166.042,15.312 L166.042,18.948 L168.994,18.948 L168.238,35.364 L165.43,35.364 L165.43,39 Z M212.014,32.448 L200.638,32.448 C201.178,34.896 203.194,35.976 205.822,35.976 C207.73,35.976 209.71,35.364 211.546,34.32 L211.222,37.848 C209.566,38.82 207.55,39.288 205.246,39.288 C200.098,39.288 196.534,36.048 196.534,31.152 C196.534,26.688 199.666,22.944 204.526,22.944 C209.566,22.944 212.194,26.328 212.194,30.504 C212.194,31.116 212.122,31.908 212.014,32.448 Z M204.49,26.112 C202.762,26.112 201.034,27.12 200.602,29.712 L208.27,29.712 C208.198,27.552 206.794,26.112 204.49,26.112 Z M220.546,23.232 L214.426,23.232 L214.426,26.544 L216.766,26.544 L216.766,35.76 L214.426,35.76 L214.426,39 L222.85,39 L222.85,35.76 L220.69,35.76 L220.69,28.344 C221.95,27.3 223.39,26.508 224.758,26.508 C225.694,26.508 226.342,26.868 226.702,27.552 C226.918,27.948 227.026,28.524 227.026,29.172 L227.026,35.76 L224.866,35.76 L224.866,39 L233.29,39 L233.29,35.76 L230.95,35.76 L230.95,28.2 C230.95,26.904 230.662,25.824 230.122,24.96 C229.294,23.7 227.926,22.944 226.054,22.944 C223.75,22.944 222.058,24.276 220.546,25.752 L220.546,23.232 Z M241.678,39.288 C243.982,39.288 245.674,37.956 247.186,36.48 L247.186,39 L253.306,39 L253.306,35.76 L250.966,35.76 L250.966,23.232 L244.594,23.232 L244.594,26.544 L247.042,26.544 L247.042,33.888 C245.782,34.932 244.342,35.724 242.974,35.724 C242.038,35.724 241.39,35.364 241.03,34.68 C240.814,34.248 240.706,33.744 240.706,33.06 L240.706,23.232 L234.442,23.232 L234.442,26.544 L236.782,26.544 L236.782,34.032 C236.782,35.292 237.07,36.372 237.574,37.2 C238.366,38.496 239.77,39.288 241.678,39.288 Z"/>
    <polygon fill="#CFCFCF" points="261.09 30.36 277.31 30.36 277.31 28.32 261.09 28.32"/>
    <path fill="#FFB8AC" d="M289.279,35.942 C289.279,36.954 289.647,37.966 290.245,38.84 C291.855,41.14 295.305,42.842 299.629,42.842 C305.701,42.842 310.255,39.53 310.255,34.378 C310.255,31.25 308.415,29.18 306.207,27.938 C305.379,27.478 304.459,27.11 303.585,26.88 C304.597,26.696 305.563,26.328 306.437,25.822 C308.553,24.626 310.071,22.602 310.071,20.164 C310.071,15.748 305.885,12.482 300.089,12.482 C295.489,12.482 292.729,14.23 291.441,16.116 C290.797,17.036 290.521,18.002 290.521,18.784 C290.521,20.992 291.993,22.418 293.649,22.418 C295.305,22.418 296.685,21.038 296.685,19.382 C296.685,18.738 296.409,18.048 296.041,17.542 C296.823,16.944 298.065,16.622 299.905,16.622 C302.619,16.622 304.919,17.864 304.919,20.348 C304.919,22.004 303.999,23.246 302.435,24.074 C301.147,24.718 299.445,25.086 297.467,25.086 L295.949,25.086 L295.949,29.042 L297.329,29.042 C299.399,29.042 300.963,29.318 302.113,29.824 C304.275,30.744 305.103,32.308 305.103,34.056 C305.103,36.862 302.803,38.702 299.675,38.702 C297.743,38.702 295.949,38.242 294.799,37.322 C295.167,36.816 295.443,36.126 295.443,35.482 C295.443,33.826 294.063,32.446 292.407,32.446 C290.567,32.446 289.279,34.01 289.279,35.942 Z M325.321,37 L325.321,33.364 L328.021,33.364 L328.021,16.948 L325.321,16.948 L325.321,13.312 L334.285,13.312 C342.853,13.312 347.929,17.776 347.929,24.94 C347.929,32.176 343.141,37 333.853,37 L325.321,37 Z M332.089,33.364 L334.429,33.364 C340.549,33.364 343.717,30.052 343.717,24.976 C343.717,19.792 340.045,16.948 334.141,16.948 L332.089,16.948 L332.089,33.364 Z M355.957,37.288 C353.257,37.288 350.845,35.812 350.845,32.86 C350.845,29.908 353.437,28.108 357.181,28.108 C358.801,28.108 360.313,28.324 361.177,28.54 L361.177,27.28 C361.177,26.344 360.961,25.624 360.565,25.12 C359.917,24.292 358.873,23.968 357.469,23.968 C356.785,23.968 356.281,24.076 355.921,24.22 C355.993,24.436 356.065,24.796 356.065,25.012 C356.065,26.2 355.129,27.064 353.941,27.064 C352.753,27.064 351.853,26.236 351.853,24.94 C351.853,22.996 353.833,20.944 358.117,20.944 C360.817,20.944 362.653,21.7 363.769,23.068 C364.597,24.076 364.993,25.444 364.993,27.028 L364.993,33.76 L367.333,33.76 L367.333,37 L361.249,37 L361.249,35.272 C359.989,36.352 358.081,37.288 355.957,37.288 Z M357.217,34.444 C358.621,34.444 359.989,33.904 361.177,33.04 L361.177,30.556 C360.277,30.34 359.161,30.196 357.937,30.196 C356.029,30.196 354.877,31.06 354.877,32.5 C354.877,33.76 355.813,34.444 357.217,34.444 Z M376.369,42.112 C376.837,41.572 377.233,40.924 377.593,40.204 L384.973,24.544 L386.881,24.544 L386.881,21.232 L378.781,21.232 L378.781,24.364 L381.229,24.364 L377.557,32.68 L373.921,24.364 L376.225,24.364 L376.225,21.232 L368.089,21.232 L368.089,24.544 L370.033,24.544 L375.649,36.208 L374.461,38.692 C374.209,39.196 373.993,39.592 373.741,39.916 C373.309,40.492 372.877,40.744 372.481,40.852 C372.229,40.24 371.689,39.664 370.753,39.664 C369.709,39.664 368.809,40.348 368.809,41.68 C368.809,42.94 370.105,44.164 372.193,44.164 C373.777,44.164 375.217,43.444 376.369,42.112 Z M401.677,24.724 C401.677,23.968 401.389,23.284 400.813,22.708 C399.733,21.628 397.429,20.908 395.521,20.908 C391.093,20.908 389.077,23.464 389.077,25.912 C389.077,28.612 390.913,29.656 395.269,30.808 C397.681,31.456 398.365,31.924 398.365,32.716 C398.365,33.868 397.069,34.408 395.485,34.408 C394.369,34.408 393.361,34.192 392.641,33.904 C392.677,33.688 392.713,33.472 392.713,33.256 C392.713,31.888 391.669,31.168 390.589,31.168 C389.365,31.168 388.501,32.14 388.501,33.292 C388.501,34.12 388.753,34.768 389.401,35.416 C390.445,36.46 393.037,37.324 395.449,37.324 C399.013,37.324 402.109,35.56 402.109,32.248 C402.109,29.404 399.913,28.468 396.133,27.46 C393.721,26.812 392.821,26.344 392.821,25.444 C392.821,24.616 393.685,23.824 395.449,23.824 C396.241,23.824 397.033,23.968 397.681,24.22 C397.609,24.436 397.609,24.652 397.609,24.904 C397.609,26.092 398.473,26.848 399.733,26.848 C400.885,26.848 401.677,25.984 401.677,24.724 Z"/>
  </g>
</svg>
