<svg xmlns="http://www.w3.org/2000/svg" width="593" height="33" viewBox="0 0 593 33">
  <g fill="none" fill-rule="evenodd">
    <path fill="#A5B6F3" d="M6.198,27 L16.17,27 L16.17,23.364 L13.218,23.364 L13.218,6.84 L17.61,6.84 L17.61,10.584 L21.462,10.584 L21.462,3.312 L0.906,3.312 L0.906,10.584 L4.758,10.584 L4.758,6.84 L9.15,6.84 L9.15,23.364 L6.198,23.364 L6.198,27 Z M25.566,3.96 L25.566,23.76 L23.226,23.76 L23.226,27 L31.65,27 L31.65,23.76 L29.49,23.76 L29.49,16.344 C30.75,15.3 32.19,14.508 33.558,14.508 C34.314,14.508 34.926,14.76 35.322,15.264 C35.646,15.696 35.826,16.308 35.826,17.172 L35.826,23.76 L33.666,23.76 L33.666,27 L42.09,27 L42.09,23.76 L39.75,23.76 L39.75,16.2 C39.75,14.76 39.39,13.536 38.706,12.636 C37.878,11.556 36.546,10.944 34.854,10.944 C32.622,10.944 30.966,12.204 29.49,13.608 L29.49,0.648 L23.226,0.648 L23.226,3.96 L25.566,3.96 Z M59.37,20.448 L47.994,20.448 C48.534,22.896 50.55,23.976 53.178,23.976 C55.086,23.976 57.066,23.364 58.902,22.32 L58.578,25.848 C56.922,26.82 54.906,27.288 52.602,27.288 C47.454,27.288 43.89,24.048 43.89,19.152 C43.89,14.688 47.022,10.944 51.882,10.944 C56.922,10.944 59.55,14.328 59.55,18.504 C59.55,19.116 59.478,19.908 59.37,20.448 Z M51.846,14.112 C50.118,14.112 48.39,15.12 47.958,17.712 L55.626,17.712 C55.554,15.552 54.15,14.112 51.846,14.112 Z M78.486,27.432 C83.346,27.432 86.838,24.876 86.838,20.376 C86.838,15.984 83.634,14.508 79.386,12.996 C77.01,12.132 75.03,11.268 75.03,9.324 C75.03,7.596 76.398,6.408 78.738,6.408 C80.214,6.408 81.222,6.732 81.87,7.128 C81.726,7.416 81.618,7.668 81.618,8.244 C81.618,9.432 82.554,10.656 84.21,10.656 C85.578,10.656 86.622,9.684 86.622,7.992 C86.622,5.148 83.202,2.88 78.774,2.88 C73.986,2.88 70.926,5.832 70.926,9.612 C70.926,14.004 74.022,15.408 78.414,16.992 C80.79,17.82 82.77,18.756 82.77,20.7 C82.77,22.752 81.114,23.904 78.522,23.904 C76.974,23.904 75.642,23.508 74.778,22.896 C74.994,22.464 75.102,22.032 75.102,21.456 C75.102,20.304 74.094,19.116 72.51,19.116 C71.034,19.116 70.026,20.232 70.026,21.924 C70.026,24.804 73.806,27.432 78.486,27.432 Z M99.51,27.288 C97.494,27.288 96.054,26.568 94.722,25.488 L93.858,27.072 L91.194,27.072 L91.194,3.96 L88.818,3.96 L88.818,0.648 L95.118,0.648 L95.118,12.96 C96.27,11.844 97.746,10.944 99.762,10.944 C103.938,10.944 107.07,14.292 107.07,19.044 C107.07,23.616 103.758,27.288 99.51,27.288 Z M98.862,23.904 C101.058,23.904 103.038,22.212 103.038,19.08 C103.038,16.056 101.166,14.328 98.862,14.328 C97.386,14.328 96.198,14.976 95.118,15.912 L95.118,22.68 C96.162,23.4 97.386,23.904 98.862,23.904 Z M117.906,27.288 C112.686,27.288 109.518,23.508 109.518,19.116 C109.518,14.796 112.758,10.944 117.906,10.944 C123.126,10.944 126.294,14.724 126.294,19.116 C126.294,23.436 123.054,27.288 117.906,27.288 Z M117.906,24.012 C120.462,24.012 122.262,21.996 122.262,19.116 C122.262,16.236 120.462,14.22 117.906,14.22 C115.35,14.22 113.55,16.236 113.55,19.116 C113.55,21.996 115.35,24.012 117.906,24.012 Z M137.13,27.288 C131.91,27.288 128.742,23.508 128.742,19.116 C128.742,14.796 131.982,10.944 137.13,10.944 C142.35,10.944 145.518,14.724 145.518,19.116 C145.518,23.436 142.278,27.288 137.13,27.288 Z M137.13,24.012 C139.686,24.012 141.486,21.996 141.486,19.116 C141.486,16.236 139.686,14.22 137.13,14.22 C134.574,14.22 132.774,16.236 132.774,19.116 C132.774,21.996 134.574,24.012 137.13,24.012 Z M153.978,11.232 L147.858,11.232 L147.858,14.544 L150.198,14.544 L150.198,23.76 L147.858,23.76 L147.858,27 L156.282,27 L156.282,23.76 L154.122,23.76 L154.122,16.344 C155.382,15.3 156.822,14.508 158.19,14.508 C159.126,14.508 159.774,14.868 160.134,15.552 C160.35,15.948 160.458,16.524 160.458,17.172 L160.458,23.76 L158.298,23.76 L158.298,27 L166.722,27 L166.722,23.76 L164.382,23.76 L164.382,16.2 C164.382,14.904 164.094,13.824 163.554,12.96 C162.726,11.7 161.358,10.944 159.486,10.944 C157.182,10.944 155.49,12.276 153.978,13.752 L153.978,11.232 Z M175.686,27 L175.686,23.364 L177.738,23.364 L183.642,6.912 L181.05,6.912 L181.05,3.312 L194.442,3.312 L194.442,6.912 L191.85,6.912 L197.754,23.364 L199.806,23.364 L199.806,27 L190.698,27 L190.698,23.4 L193.434,23.4 L192.102,19.512 L183.246,19.512 L181.914,23.4 L184.794,23.4 L184.794,27 L175.686,27 Z M184.362,16.128 L190.986,16.128 L187.674,6.804 L184.362,16.128 Z M208.806,27.288 C204.63,27.288 201.498,23.94 201.498,19.188 C201.498,14.616 204.81,10.944 209.058,10.944 C211.074,10.944 212.55,11.7 213.45,12.456 L213.45,3.96 L211.074,3.96 L211.074,0.648 L217.374,0.648 L217.374,23.76 L219.714,23.76 L219.714,27 L213.45,27 L213.45,25.272 C212.298,26.388 210.822,27.288 208.806,27.288 Z M209.706,23.904 C211.182,23.904 212.37,23.256 213.45,22.32 L213.45,15.552 C212.406,14.832 211.182,14.328 209.706,14.328 C207.51,14.328 205.53,16.02 205.53,19.152 C205.53,22.176 207.402,23.904 209.706,23.904 Z M228.75,27.288 L231.558,27.288 L237.822,14.544 L239.658,14.544 L239.658,11.232 L231.63,11.232 L231.63,14.364 L234.006,14.364 L230.226,22.572 L226.446,14.364 L228.714,14.364 L228.714,11.232 L220.65,11.232 L220.65,14.544 L222.486,14.544 L228.75,27.288 Z M246.21,27.288 C243.51,27.288 241.098,25.812 241.098,22.86 C241.098,19.908 243.69,18.108 247.434,18.108 C249.054,18.108 250.566,18.324 251.43,18.54 L251.43,17.28 C251.43,16.344 251.214,15.624 250.818,15.12 C250.17,14.292 249.126,13.968 247.722,13.968 C247.038,13.968 246.534,14.076 246.174,14.22 C246.246,14.436 246.318,14.796 246.318,15.012 C246.318,16.2 245.382,17.064 244.194,17.064 C243.006,17.064 242.106,16.236 242.106,14.94 C242.106,12.996 244.086,10.944 248.37,10.944 C251.07,10.944 252.906,11.7 254.022,13.068 C254.85,14.076 255.246,15.444 255.246,17.028 L255.246,23.76 L257.586,23.76 L257.586,27 L251.502,27 L251.502,25.272 C250.242,26.352 248.334,27.288 246.21,27.288 Z M247.47,24.444 C248.874,24.444 250.242,23.904 251.43,23.04 L251.43,20.556 C250.53,20.34 249.414,20.196 248.19,20.196 C246.282,20.196 245.13,21.06 245.13,22.5 C245.13,23.76 246.066,24.444 247.47,24.444 Z M265.398,11.232 L259.278,11.232 L259.278,14.544 L261.618,14.544 L261.618,23.76 L259.278,23.76 L259.278,27 L267.702,27 L267.702,23.76 L265.542,23.76 L265.542,16.344 C266.802,15.3 268.242,14.508 269.61,14.508 C270.546,14.508 271.194,14.868 271.554,15.552 C271.77,15.948 271.878,16.524 271.878,17.172 L271.878,23.76 L269.718,23.76 L269.718,27 L278.142,27 L278.142,23.76 L275.802,23.76 L275.802,16.2 C275.802,14.904 275.514,13.824 274.974,12.96 C274.146,11.7 272.778,10.944 270.906,10.944 C268.602,10.944 266.91,12.276 265.398,13.752 L265.398,11.232 Z M286.89,27.288 C288.33,27.288 289.59,26.892 290.67,26.352 L290.994,22.968 C290.058,23.4 288.906,23.796 287.898,23.796 C287.106,23.796 286.53,23.544 286.242,23.04 C286.062,22.716 285.99,22.392 285.99,21.888 L285.99,14.544 L290.778,14.544 L290.778,11.232 L285.99,11.232 L285.99,6.228 L282.102,7.92 L282.102,11.232 L279.042,11.232 L279.042,14.544 L282.102,14.544 L282.102,22.644 C282.102,23.652 282.282,24.48 282.642,25.128 C283.434,26.64 284.982,27.288 286.89,27.288 Z M299.814,27.288 C302.118,27.288 303.81,25.956 305.322,24.48 L305.322,27 L311.442,27 L311.442,23.76 L309.102,23.76 L309.102,11.232 L302.73,11.232 L302.73,14.544 L305.178,14.544 L305.178,21.888 C303.918,22.932 302.478,23.724 301.11,23.724 C300.174,23.724 299.526,23.364 299.166,22.68 C298.95,22.248 298.842,21.744 298.842,21.06 L298.842,11.232 L292.578,11.232 L292.578,14.544 L294.918,14.544 L294.918,22.032 C294.918,23.292 295.206,24.372 295.71,25.2 C296.502,26.496 297.906,27.288 299.814,27.288 Z M324.618,10.944 C322.602,10.944 320.946,12.672 319.614,14.796 L319.614,11.232 L313.494,11.232 L313.494,14.544 L315.834,14.544 L315.834,23.76 L313.494,23.76 L313.494,27 L322.494,27 L322.494,23.76 L319.758,23.76 L319.758,17.568 C320.478,16.2 321.774,14.976 322.89,14.58 C323.214,15.3 324.006,15.984 325.194,15.984 C326.49,15.984 327.534,14.868 327.534,13.536 C327.534,12.132 326.562,10.944 324.618,10.944 Z M344.742,20.448 L333.366,20.448 C333.906,22.896 335.922,23.976 338.55,23.976 C340.458,23.976 342.438,23.364 344.274,22.32 L343.95,25.848 C342.294,26.82 340.278,27.288 337.974,27.288 C332.826,27.288 329.262,24.048 329.262,19.152 C329.262,14.688 332.394,10.944 337.254,10.944 C342.294,10.944 344.922,14.328 344.922,18.504 C344.922,19.116 344.85,19.908 344.742,20.448 Z M337.218,14.112 C335.49,14.112 333.762,15.12 333.33,17.712 L340.998,17.712 C340.926,15.552 339.522,14.112 337.218,14.112 Z M355.11,27 L364.758,27 L364.758,23.364 L361.914,23.364 L362.382,11.16 L369.15,23.04 L369.69,23.04 L376.458,11.16 L376.926,23.364 L374.082,23.364 L374.082,27 L383.802,27 L383.802,23.364 L380.994,23.364 L380.238,6.948 L383.19,6.948 L383.19,3.312 L376.746,3.312 L369.474,16.488 L362.202,3.312 L355.722,3.312 L355.722,6.948 L358.674,6.948 L357.918,23.364 L355.11,23.364 L355.11,27 Z M401.694,20.448 L390.318,20.448 C390.858,22.896 392.874,23.976 395.502,23.976 C397.41,23.976 399.39,23.364 401.226,22.32 L400.902,25.848 C399.246,26.82 397.23,27.288 394.926,27.288 C389.778,27.288 386.214,24.048 386.214,19.152 C386.214,14.688 389.346,10.944 394.206,10.944 C399.246,10.944 401.874,14.328 401.874,18.504 C401.874,19.116 401.802,19.908 401.694,20.448 Z M394.17,14.112 C392.442,14.112 390.714,15.12 390.282,17.712 L397.95,17.712 C397.878,15.552 396.474,14.112 394.17,14.112 Z M410.226,11.232 L404.106,11.232 L404.106,14.544 L406.446,14.544 L406.446,23.76 L404.106,23.76 L404.106,27 L412.53,27 L412.53,23.76 L410.37,23.76 L410.37,16.344 C411.63,15.3 413.07,14.508 414.438,14.508 C415.374,14.508 416.022,14.868 416.382,15.552 C416.598,15.948 416.706,16.524 416.706,17.172 L416.706,23.76 L414.546,23.76 L414.546,27 L422.97,27 L422.97,23.76 L420.63,23.76 L420.63,16.2 C420.63,14.904 420.342,13.824 419.802,12.96 C418.974,11.7 417.606,10.944 415.734,10.944 C413.43,10.944 411.738,12.276 410.226,13.752 L410.226,11.232 Z M431.358,27.288 C433.662,27.288 435.354,25.956 436.866,24.48 L436.866,27 L442.986,27 L442.986,23.76 L440.646,23.76 L440.646,11.232 L434.274,11.232 L434.274,14.544 L436.722,14.544 L436.722,21.888 C435.462,22.932 434.022,23.724 432.654,23.724 C431.718,23.724 431.07,23.364 430.71,22.68 C430.494,22.248 430.386,21.744 430.386,21.06 L430.386,11.232 L424.122,11.232 L424.122,14.544 L426.462,14.544 L426.462,22.032 C426.462,23.292 426.75,24.372 427.254,25.2 C428.046,26.496 429.45,27.288 431.358,27.288 Z"/>
    <polygon fill="#CFCFCF" points="451.09 18.36 467.31 18.36 467.31 16.32 451.09 16.32"/>
    <path fill="#FFB8AC" d="M479.279,23.942 C479.279,24.954 479.647,25.966 480.245,26.84 C481.855,29.14 485.305,30.842 489.629,30.842 C495.701,30.842 500.255,27.53 500.255,22.378 C500.255,19.25 498.415,17.18 496.207,15.938 C495.379,15.478 494.459,15.11 493.585,14.88 C494.597,14.696 495.563,14.328 496.437,13.822 C498.553,12.626 500.071,10.602 500.071,8.164 C500.071,3.748 495.885,0.482 490.089,0.482 C485.489,0.482 482.729,2.23 481.441,4.116 C480.797,5.036 480.521,6.002 480.521,6.784 C480.521,8.992 481.993,10.418 483.649,10.418 C485.305,10.418 486.685,9.038 486.685,7.382 C486.685,6.738 486.409,6.048 486.041,5.542 C486.823,4.944 488.065,4.622 489.905,4.622 C492.619,4.622 494.919,5.864 494.919,8.348 C494.919,10.004 493.999,11.246 492.435,12.074 C491.147,12.718 489.445,13.086 487.467,13.086 L485.949,13.086 L485.949,17.042 L487.329,17.042 C489.399,17.042 490.963,17.318 492.113,17.824 C494.275,18.744 495.103,20.308 495.103,22.056 C495.103,24.862 492.803,26.702 489.675,26.702 C487.743,26.702 485.949,26.242 484.799,25.322 C485.167,24.816 485.443,24.126 485.443,23.482 C485.443,21.826 484.063,20.446 482.407,20.446 C480.567,20.446 479.279,22.01 479.279,23.942 Z M515.321,25 L515.321,21.364 L518.021,21.364 L518.021,4.948 L515.321,4.948 L515.321,1.312 L524.285,1.312 C532.853,1.312 537.929,5.776 537.929,12.94 C537.929,20.176 533.141,25 523.853,25 L515.321,25 Z M522.089,21.364 L524.429,21.364 C530.549,21.364 533.717,18.052 533.717,12.976 C533.717,7.792 530.045,4.948 524.141,4.948 L522.089,4.948 L522.089,21.364 Z M545.957,25.288 C543.257,25.288 540.845,23.812 540.845,20.86 C540.845,17.908 543.437,16.108 547.181,16.108 C548.801,16.108 550.313,16.324 551.177,16.54 L551.177,15.28 C551.177,14.344 550.961,13.624 550.565,13.12 C549.917,12.292 548.873,11.968 547.469,11.968 C546.785,11.968 546.281,12.076 545.921,12.22 C545.993,12.436 546.065,12.796 546.065,13.012 C546.065,14.2 545.129,15.064 543.941,15.064 C542.753,15.064 541.853,14.236 541.853,12.94 C541.853,10.996 543.833,8.944 548.117,8.944 C550.817,8.944 552.653,9.7 553.769,11.068 C554.597,12.076 554.993,13.444 554.993,15.028 L554.993,21.76 L557.333,21.76 L557.333,25 L551.249,25 L551.249,23.272 C549.989,24.352 548.081,25.288 545.957,25.288 Z M547.217,22.444 C548.621,22.444 549.989,21.904 551.177,21.04 L551.177,18.556 C550.277,18.34 549.161,18.196 547.937,18.196 C546.029,18.196 544.877,19.06 544.877,20.5 C544.877,21.76 545.813,22.444 547.217,22.444 Z M566.369,30.112 C566.837,29.572 567.233,28.924 567.593,28.204 L574.973,12.544 L576.881,12.544 L576.881,9.232 L568.781,9.232 L568.781,12.364 L571.229,12.364 L567.557,20.68 L563.921,12.364 L566.225,12.364 L566.225,9.232 L558.089,9.232 L558.089,12.544 L560.033,12.544 L565.649,24.208 L564.461,26.692 C564.209,27.196 563.993,27.592 563.741,27.916 C563.309,28.492 562.877,28.744 562.481,28.852 C562.229,28.24 561.689,27.664 560.753,27.664 C559.709,27.664 558.809,28.348 558.809,29.68 C558.809,30.94 560.105,32.164 562.193,32.164 C563.777,32.164 565.217,31.444 566.369,30.112 Z M591.677,12.724 C591.677,11.968 591.389,11.284 590.813,10.708 C589.733,9.628 587.429,8.908 585.521,8.908 C581.093,8.908 579.077,11.464 579.077,13.912 C579.077,16.612 580.913,17.656 585.269,18.808 C587.681,19.456 588.365,19.924 588.365,20.716 C588.365,21.868 587.069,22.408 585.485,22.408 C584.369,22.408 583.361,22.192 582.641,21.904 C582.677,21.688 582.713,21.472 582.713,21.256 C582.713,19.888 581.669,19.168 580.589,19.168 C579.365,19.168 578.501,20.14 578.501,21.292 C578.501,22.12 578.753,22.768 579.401,23.416 C580.445,24.46 583.037,25.324 585.449,25.324 C589.013,25.324 592.109,23.56 592.109,20.248 C592.109,17.404 589.913,16.468 586.133,15.46 C583.721,14.812 582.821,14.344 582.821,13.444 C582.821,12.616 583.685,11.824 585.449,11.824 C586.241,11.824 587.033,11.968 587.681,12.22 C587.609,12.436 587.609,12.652 587.609,12.904 C587.609,14.092 588.473,14.848 589.733,14.848 C590.885,14.848 591.677,13.984 591.677,12.724 Z"/>
  </g>
</svg>
