<svg xmlns="http://www.w3.org/2000/svg" width="400" height="105" viewBox="0 0 400 105">
  <g fill="none" fill-rule="evenodd" transform="translate(0 2)">
    <path fill="#F7F7F7" d="M207.016359,2.85974773 C203.109235,-0.953249242 196.889974,-0.953249242 192.98285,2.85974773 L180.584697,14.9607283 C174.116887,21.2738688 165.451715,24.8063347 156.431135,24.8063347 L38.7862797,24.8063347 C17.3651715,24.8063347 0,42.2405838 0,63.746904 C0,85.2524294 17.3651715,102.687473 38.7862797,102.687473 L361.21372,102.687473 C382.634037,102.687473 400,85.2524294 400,63.746904 C400,42.2405838 382.634037,24.8063347 361.21372,24.8063347 L243.568865,24.8063347 C234.547493,24.8063347 225.882322,21.2738688 219.414512,14.9607283 L207.016359,2.85974773 Z" transform="matrix(1 0 0 -1 0 102.687)"/>
    <path fill="#A5B6F3" d="M51.872,48 L60.512,48 L60.512,44.768 L57.888,44.768 L57.888,38.912 L67.616,38.912 L67.616,44.768 L64.992,44.768 L64.992,48 L73.632,48 L73.632,44.768 L71.232,44.768 L71.232,30.176 L73.632,30.176 L73.632,26.944 L64.992,26.944 L64.992,30.176 L67.616,30.176 L67.616,35.744 L57.888,35.744 L57.888,30.176 L60.512,30.176 L60.512,26.944 L51.872,26.944 L51.872,30.176 L54.272,30.176 L54.272,44.768 L51.872,44.768 L51.872,48 Z M83.36,48.256 C78.72,48.256 75.904,44.896 75.904,40.992 C75.904,37.152 78.784,33.728 83.36,33.728 C88,33.728 90.816,37.088 90.816,40.992 C90.816,44.832 87.936,48.256 83.36,48.256 Z M83.36,45.344 C85.632,45.344 87.232,43.552 87.232,40.992 C87.232,38.432 85.632,36.64 83.36,36.64 C81.088,36.64 79.488,38.432 79.488,40.992 C79.488,43.552 81.088,45.344 83.36,45.344 Z M97.568,48.544 L100.032,48.544 L103.52,39.968 L107.008,48.544 L109.472,48.544 L112.928,36.928 L114.976,36.928 L114.976,33.984 L107.776,33.984 L107.776,36.864 L110.08,36.864 L108.16,43.744 L104.896,35.424 L102.496,35.424 L99.2,43.744 L97.28,36.864 L99.264,36.864 L99.264,33.984 L92.064,33.984 L92.064,36.928 L94.112,36.928 L97.568,48.544 Z M129.44,48.256 C130.72,48.256 131.84,47.904 132.8,47.424 L133.088,44.416 C132.256,44.8 131.232,45.152 130.336,45.152 C129.632,45.152 129.12,44.928 128.864,44.48 C128.704,44.192 128.64,43.904 128.64,43.456 L128.64,36.928 L132.896,36.928 L132.896,33.984 L128.64,33.984 L128.64,29.536 L125.184,31.04 L125.184,33.984 L122.464,33.984 L122.464,36.928 L125.184,36.928 L125.184,44.128 C125.184,45.024 125.344,45.76 125.664,46.336 C126.368,47.68 127.744,48.256 129.44,48.256 Z M142.528,48.256 C137.888,48.256 135.072,44.896 135.072,40.992 C135.072,37.152 137.952,33.728 142.528,33.728 C147.168,33.728 149.984,37.088 149.984,40.992 C149.984,44.832 147.104,48.256 142.528,48.256 Z M142.528,45.344 C144.8,45.344 146.4,43.552 146.4,40.992 C146.4,38.432 144.8,36.64 142.528,36.64 C140.256,36.64 138.656,38.432 138.656,40.992 C138.656,43.552 140.256,45.344 142.528,45.344 Z M166.944,48.256 C168.992,48.256 170.432,47.84 171.936,46.976 L172.224,43.84 C170.4,44.832 168.928,45.312 167.232,45.312 C164.736,45.312 162.688,43.616 162.688,40.928 C162.688,37.856 164.672,36.544 166.272,36.544 C167.648,36.544 168.512,37.152 168.768,37.504 C168.512,37.792 168.32,38.272 168.32,38.688 C168.32,39.84 169.28,40.8 170.432,40.8 C171.68,40.8 172.672,39.904 172.672,38.432 C172.672,36.224 170.144,33.728 166.304,33.728 C162.144,33.728 159.2,37.216 159.2,40.864 C159.2,45.376 162.528,48.256 166.944,48.256 Z M176.992,27.52 L176.992,45.12 L174.912,45.12 L174.912,48 L182.4,48 L182.4,45.12 L180.48,45.12 L180.48,38.528 C181.6,37.6 182.88,36.896 184.096,36.896 C184.768,36.896 185.312,37.12 185.664,37.568 C185.952,37.952 186.112,38.496 186.112,39.264 L186.112,45.12 L184.192,45.12 L184.192,48 L191.68,48 L191.68,45.12 L189.6,45.12 L189.6,38.4 C189.6,37.12 189.28,36.032 188.672,35.232 C187.936,34.272 186.752,33.728 185.248,33.728 C183.264,33.728 181.792,34.848 180.48,36.096 L180.48,24.576 L174.912,24.576 L174.912,27.52 L176.992,27.52 Z M200.736,48.256 C196.096,48.256 193.28,44.896 193.28,40.992 C193.28,37.152 196.16,33.728 200.736,33.728 C205.376,33.728 208.192,37.088 208.192,40.992 C208.192,44.832 205.312,48.256 200.736,48.256 Z M200.736,45.344 C203.008,45.344 204.608,43.552 204.608,40.992 C204.608,38.432 203.008,36.64 200.736,36.64 C198.464,36.64 196.864,38.432 196.864,40.992 C196.864,43.552 198.464,45.344 200.736,45.344 Z M217.824,48.256 C213.184,48.256 210.368,44.896 210.368,40.992 C210.368,37.152 213.248,33.728 217.824,33.728 C222.464,33.728 225.28,37.088 225.28,40.992 C225.28,44.832 222.4,48.256 217.824,48.256 Z M217.824,45.344 C220.096,45.344 221.696,43.552 221.696,40.992 C221.696,38.432 220.096,36.64 217.824,36.64 C215.552,36.64 213.952,38.432 213.952,40.992 C213.952,43.552 215.552,45.344 217.824,45.344 Z M239.36,37.088 C239.36,36.416 239.104,35.808 238.592,35.296 C237.632,34.336 235.584,33.696 233.888,33.696 C229.952,33.696 228.16,35.968 228.16,38.144 C228.16,40.544 229.792,41.472 233.664,42.496 C235.808,43.072 236.416,43.488 236.416,44.192 C236.416,45.216 235.264,45.696 233.856,45.696 C232.864,45.696 231.968,45.504 231.328,45.248 C231.36,45.056 231.392,44.864 231.392,44.672 C231.392,43.456 230.464,42.816 229.504,42.816 C228.416,42.816 227.648,43.68 227.648,44.704 C227.648,45.44 227.872,46.016 228.448,46.592 C229.376,47.52 231.68,48.288 233.824,48.288 C236.992,48.288 239.744,46.72 239.744,43.776 C239.744,41.248 237.792,40.416 234.432,39.52 C232.288,38.944 231.488,38.528 231.488,37.728 C231.488,36.992 232.256,36.288 233.824,36.288 C234.528,36.288 235.232,36.416 235.808,36.64 C235.744,36.832 235.744,37.024 235.744,37.248 C235.744,38.304 236.512,38.976 237.632,38.976 C238.656,38.976 239.36,38.208 239.36,37.088 Z M255.872,42.176 L245.76,42.176 C246.24,44.352 248.032,45.312 250.368,45.312 C252.064,45.312 253.824,44.768 255.456,43.84 L255.168,46.976 C253.696,47.84 251.904,48.256 249.856,48.256 C245.28,48.256 242.112,45.376 242.112,41.024 C242.112,37.056 244.896,33.728 249.216,33.728 C253.696,33.728 256.032,36.736 256.032,40.448 C256.032,40.992 255.968,41.696 255.872,42.176 Z M249.184,36.544 C247.648,36.544 246.112,37.44 245.728,39.744 L252.544,39.744 C252.48,37.824 251.232,36.544 249.184,36.544 Z M269.728,48.256 C267.328,48.256 265.184,46.944 265.184,44.32 C265.184,41.696 267.488,40.096 270.816,40.096 C272.256,40.096 273.6,40.288 274.368,40.48 L274.368,39.36 C274.368,38.528 274.176,37.888 273.824,37.44 C273.248,36.704 272.32,36.416 271.072,36.416 C270.464,36.416 270.016,36.512 269.696,36.64 C269.76,36.832 269.824,37.152 269.824,37.344 C269.824,38.4 268.992,39.168 267.936,39.168 C266.88,39.168 266.08,38.432 266.08,37.28 C266.08,35.552 267.84,33.728 271.648,33.728 C274.048,33.728 275.68,34.4 276.672,35.616 C277.408,36.512 277.76,37.728 277.76,39.136 L277.76,45.12 L279.84,45.12 L279.84,48 L274.432,48 L274.432,46.464 C273.312,47.424 271.616,48.256 269.728,48.256 Z M270.848,45.728 C272.096,45.728 273.312,45.248 274.368,44.48 L274.368,42.272 C273.568,42.08 272.576,41.952 271.488,41.952 C269.792,41.952 268.768,42.72 268.768,44 C268.768,45.12 269.6,45.728 270.848,45.728 Z M288.224,54.272 L288.224,51.392 L290.304,51.392 L290.304,36.928 L288.224,36.928 L288.224,33.984 L293.664,33.984 L293.664,35.584 C294.752,34.56 295.936,33.728 297.824,33.728 C301.472,33.728 304.224,36.704 304.224,40.928 C304.224,44.992 301.312,48.256 297.6,48.256 C296.096,48.256 294.848,47.712 293.792,46.912 L293.792,51.392 L296.064,51.392 L296.064,54.272 L288.224,54.272 Z M297.056,45.248 C298.912,45.248 300.64,43.744 300.64,40.96 C300.64,38.272 299.04,36.736 297.056,36.736 C295.744,36.736 294.72,37.312 293.792,38.144 L293.792,44.16 C294.688,44.8 295.776,45.248 297.056,45.248 Z M306.144,48 L313.888,48 L313.888,45.12 L311.808,45.12 L311.808,24.576 L306.144,24.576 L306.144,27.52 L308.32,27.52 L308.32,45.12 L306.144,45.12 L306.144,48 Z M320.416,48.256 C318.016,48.256 315.872,46.944 315.872,44.32 C315.872,41.696 318.176,40.096 321.504,40.096 C322.944,40.096 324.288,40.288 325.056,40.48 L325.056,39.36 C325.056,38.528 324.864,37.888 324.512,37.44 C323.936,36.704 323.008,36.416 321.76,36.416 C321.152,36.416 320.704,36.512 320.384,36.64 C320.448,36.832 320.512,37.152 320.512,37.344 C320.512,38.4 319.68,39.168 318.624,39.168 C317.568,39.168 316.768,38.432 316.768,37.28 C316.768,35.552 318.528,33.728 322.336,33.728 C324.736,33.728 326.368,34.4 327.36,35.616 C328.096,36.512 328.448,37.728 328.448,39.136 L328.448,45.12 L330.528,45.12 L330.528,48 L325.12,48 L325.12,46.464 C324,47.424 322.304,48.256 320.416,48.256 Z M321.536,45.728 C322.784,45.728 324,45.248 325.056,44.48 L325.056,42.272 C324.256,42.08 323.264,41.952 322.176,41.952 C320.48,41.952 319.456,42.72 319.456,44 C319.456,45.12 320.288,45.728 321.536,45.728 Z M337.472,33.984 L332.032,33.984 L332.032,36.928 L334.112,36.928 L334.112,45.12 L332.032,45.12 L332.032,48 L339.52,48 L339.52,45.12 L337.6,45.12 L337.6,38.528 C338.72,37.6 340,36.896 341.216,36.896 C342.048,36.896 342.624,37.216 342.944,37.824 C343.136,38.176 343.232,38.688 343.232,39.264 L343.232,45.12 L341.312,45.12 L341.312,48 L348.8,48 L348.8,45.12 L346.72,45.12 L346.72,38.4 C346.72,37.248 346.464,36.288 345.984,35.52 C345.248,34.4 344.032,33.728 342.368,33.728 C340.32,33.728 338.816,34.912 337.472,36.224 L337.472,33.984 Z"/>
  </g>
</svg>
