<svg xmlns="http://www.w3.org/2000/svg" width="125" height="80" viewBox="0 0 125 80">
  <g fill="none" fill-rule="evenodd" transform="translate(15)">
    <polygon fill="#A5B6F3" points="42.667 36.902 52.148 36.902 52.148 27.333 42.667 27.333"/>
    <polygon fill="#A5B6F3" points="57.837 36.902 67.319 36.902 67.319 27.333 57.837 27.333"/>
    <polygon fill="#A5B6F3" points="73.007 36.902 82.489 36.902 82.489 27.333 73.007 27.333"/>
    <polygon fill="#FFB8AC" points="42.667 52.212 52.148 52.212 52.148 42.643 42.667 42.643"/>
    <polygon fill="#A5B6F3" points="57.837 52.212 67.319 52.212 67.319 42.643 57.837 42.643"/>
    <polygon fill="#FFB8AC" points="73.007 52.212 82.489 52.212 82.489 42.643 73.007 42.643"/>
    <polygon fill="#FFB8AC" points="12.326 52.212 21.807 52.212 21.807 42.643 12.326 42.643"/>
    <polygon fill="#A5B6F3" points="27.496 52.212 36.978 52.212 36.978 42.643 27.496 42.643"/>
    <polygon fill="#A5B6F3" points="42.667 67.522 52.148 67.522 52.148 57.953 42.667 57.953"/>
    <polygon fill="#A5B6F3" points="57.837 67.522 67.319 67.522 67.319 57.953 57.837 57.953"/>
    <polygon fill="#A5B6F3" points="12.326 67.522 21.807 67.522 21.807 57.953 12.326 57.953"/>
    <polygon fill="#A5B6F3" points="27.496 67.522 36.978 67.522 36.978 57.953 27.496 57.953"/>
    <g fill="#F7F7F7">
      <path d="M14.6964543 9.58652413L14.6964543 5.26268471C14.6964543 2.36098777 17.0352198-.0000797388553 19.9112691-.0000797388553 22.7865284-.0000797388553 25.126084 2.36098777 25.126084 5.26268471L25.126084 9.58652413C25.126084 12.4882211 22.7865284 14.8492886 19.9112691 14.8492886 17.0360099 14.8492886 14.6964543 12.4882211 14.6964543 9.58652413zM69.6890469 9.58652413L69.6890469 5.26268471C69.6890469 2.36098777 72.0278123-.0000797388553 74.9038617-.0000797388553 77.779121-.0000797388553 80.1186765 2.36098777 80.1186765 5.26268471L80.1186765 9.58652413C80.1186765 12.4882211 77.779121 14.8492886 74.9038617 14.8492886 72.0286025 14.8492886 69.6890469 12.4882211 69.6890469 9.58652413z"/>
      <path d="M6.63703704,73.2630635 L88.1777778,73.2630635 L88.1777778,21.5922853 L6.63703704,21.5922853 L6.63703704,73.2630635 Z M82.4888889,5.51992225 L82.4888889,9.58660387 C82.4888889,13.814358 79.0929383,17.241534 74.9037037,17.241534 C70.7144691,17.241534 67.3185185,13.814358 67.3185185,9.58660387 L67.3185185,5.51992225 L27.4962963,5.51992225 L27.4962963,9.58660387 C27.4962963,13.814358 24.1003457,17.241534 19.9111111,17.241534 C15.7218765,17.241534 12.3259259,13.814358 12.3259259,9.58660387 L12.3259259,5.51992225 L4.74074074,5.51992225 C2.12306173,5.51992225 0,7.66170791 0,10.3042536 L0,21.5922853 L0,75.176796 C0,77.8185443 2.12306173,79.9611273 4.74074074,79.9611273 L90.0740741,79.9611273 C92.6917531,79.9611273 94.8148148,77.8185443 94.8148148,75.176796 L94.8148148,21.5922853 L94.8148148,10.3042536 C94.8148148,7.66170791 92.6917531,5.51992225 90.0740741,5.51992225 L82.4888889,5.51992225 Z"/>
    </g>
  </g>
</svg>
