<svg xmlns="http://www.w3.org/2000/svg" xmlns:xlink="http://www.w3.org/1999/xlink" width="125" height="80" viewBox="0 0 125 80">
  <defs>
    <polygon id="plan_step3_icon-a" points="26.42 79.344 52.839 79.344 52.839 .27 26.42 .27 0 .27 0 79.344 26.42 79.344"/>
  </defs>
  <g fill="none" fill-rule="evenodd">
    <path fill="#FFB8AC" d="M50.9600656,7.87803279 C51.9980984,7.87803279 52.8394098,7.03672131 52.8394098,5.99868852 L52.8394098,2.53508197 C52.8394098,1.49770492 51.9980984,0.655737705 50.9600656,0.655737705 L1.87940984,0.655737705 C0.841377049,0.655737705 6.55737704e-05,1.49770492 6.55737704e-05,2.53508197 L6.55737704e-05,5.99868852 C6.55737704e-05,7.03672131 0.841377049,7.87803279 1.87940984,7.87803279 L3.09514754,7.87803279 L3.09514754,11.8577049 C3.09514754,11.8577049 6.55737704e-05,11.9311475 6.55737704e-05,15.1737705 L6.55737704e-05,72.6557377 C6.55737704e-05,76.5632787 3.16727869,79.7304918 7.07481967,79.7304918 L26.308918,79.7304918 L26.5299016,79.7304918 L45.7646557,79.7304918 C49.671541,79.7304918 52.8394098,76.5632787 52.8394098,72.6557377 L52.8394098,15.1737705 C52.8394098,11.9311475 49.7443279,11.8577049 49.7443279,11.8577049 L49.7443279,7.87803279 L50.9600656,7.87803279 Z"/>
    <g transform="translate(71.574 .386)">
      <mask id="plan_step3_icon-b" fill="#fff">
        <use xlink:href="#plan_step3_icon-a"/>
      </mask>
      <path fill="#A5B6F3" d="M50.9600656,7.49180328 C51.9980984,7.49180328 52.8394098,6.6504918 52.8394098,5.61245902 L52.8394098,2.14885246 C52.8394098,1.11147541 51.9980984,0.269508197 50.9600656,0.269508197 L1.87940984,0.269508197 C0.841377049,0.269508197 6.55737705e-05,1.11147541 6.55737705e-05,2.14885246 L6.55737705e-05,5.61245902 C6.55737705e-05,6.6504918 0.841377049,7.49180328 1.87940984,7.49180328 L3.09514754,7.49180328 L3.09514754,11.4714754 C3.09514754,11.4714754 6.55737705e-05,11.544918 6.55737705e-05,14.787541 L6.55737705e-05,72.2695082 C6.55737705e-05,76.1770492 3.16727869,79.3442623 7.07481967,79.3442623 L26.308918,79.3442623 L26.5299016,79.3442623 L45.7646557,79.3442623 C49.671541,79.3442623 52.8394098,76.1770492 52.8394098,72.2695082 L52.8394098,14.787541 C52.8394098,11.544918 49.7443279,11.4714754 49.7443279,11.4714754 L49.7443279,7.49180328 L50.9600656,7.49180328 Z" mask="url(#plan_step3_icon-b)"/>
    </g>
    <path fill="#FFF" d="M47.3221639 38.9445902C47.2664262 39.1557377 46.9838033 39.2967213 46.7451148 39.38 46.2408525 39.4954098 41.5883934 40.6167213 40.0257705 42.8888525L40.0133115 42.9078689C39.9628197 42.9865574 34.9490492 50.7603279 29.5011803 52.6193443 29.1457705 52.7406557 28.9562623 53.1262295 29.076918 53.4816393 29.1739672 53.7642623 29.4375738 53.9419672 29.7201967 53.9419672 29.7929836 53.9419672 29.8664262 53.9301639 29.9398689 53.9052459 32.1588852 53.1478689 34.2657705 51.5531148 36.0428197 49.8409836 36.094623 50.3603279 36.1221639 50.8934426 36.1221639 51.4396721L36.1215082 51.4613115 36.1228197 51.4940984C36.1379016 51.9819672 36.0624918 54.4180328 33.1156066 54.9406557L14.5982295 54.9406557C14.5811803 54.9406557 12.904459 54.9242623 11.2939672 53.9301639 9.2015082 52.6377049 8.13790164 50.2862295 8.13265574 46.9406557 8.15560656 46.3695082 8.69134426 37.487541 19.6487213 37.4783607 19.9156066 37.4855738 25.2198689 37.3918033 29.7398689 39.9491803 25.8933115 40.7819672 24.716918 42.3727869 24.6421639 42.4790164 24.4290492 42.782623 24.5024918 43.1963934 24.8021639 43.4140984 25.1018361 43.6318033 25.5247869 43.5642623 25.7483934 43.2678689 25.774623 43.2331148 28.5116721 39.777377 39.8310164 41.1144262L39.8664262 41.1170492C40.012 41.1262295 43.4487213 41.3059016 45.1779016 37.4986885 45.2047869 37.4514754 45.4251148 37.0868852 45.7247869 37.0436066 45.9890492 37.004918 46.3634754 37.2245902 46.7621639 37.6554098 47.0054426 37.9236066 47.4185574 38.5780328 47.3221639 38.9445902M33.6657705 38.2147541L33.7011803 38.2180328C33.8460984 38.2278689 37.2834754 38.4068852 39.0126557 34.6003279 39.0775738 34.4829508 39.2985574 34.1793443 39.5641311 34.1445902 39.8290492 34.1085246 40.2001967 34.3281967 40.5962623 34.7544262 40.876918 35.0698361 41.249377 35.6980328 41.1562623 36.0468852 41.0998689 36.257377 40.8185574 36.3977049 40.5792131 36.4809836 40.1162623 36.5872131 36.1575738 37.5419672 34.3031475 39.4560656 34.0034754 39.462623 33.7123279 39.4731148 33.4297049 39.4868852L33.4303607 39.4862295C32.6841311 38.9203279 31.8933115 38.4232787 31.0854426 37.9832787 31.9162623 38.0344262 32.774623 38.1098361 33.6657705 38.2147541M47.7647869 36.7380328C47.0257705 35.9419672 46.2749508 35.5918033 45.532 35.6986885 44.5129836 35.844918 44.0139672 36.7891803 43.9601967 36.8960656L43.9483934 36.9209836C42.6526557 39.792459 40.1916721 39.7701639 39.9674098 39.7622951 38.6356066 39.6055738 37.4139672 39.5131148 36.2933115 39.4731148 37.7464262 38.5281967 39.9280656 38.0180328 40.9123279 37.7983607L40.9792131 37.78C41.999541 37.4403279 42.3536393 36.8370492 42.4710164 36.3911475 42.7851148 35.1957377 41.7280656 33.98 41.599541 33.8383607 40.8605246 33.0429508 40.1116721 32.6940984 39.3660984 32.7996721 38.347082 32.9459016 37.8480656 33.8901639 37.7949508 33.9970492L37.7831475 34.0219672C36.4874098 36.8947541 34.0224918 36.8704918 33.8021639 36.862623 31.6815082 36.6134426 29.7162623 36.5137705 27.929377 36.5609836 23.7483934 35.017377 19.9064262 34.764918 19.6900328 34.7616393L19.664459 34.7609836C12.5136393 34.7609836 9.00806557 38.0514754 7.32609836 40.8121311 5.51298361 43.7872131 5.41921311 46.7590164 5.41593443 46.8842623L5.41527869 46.9183607C5.41527869 50.3891803 6.38904918 53.1144262 8.30970492 55.0180328 10.916918 57.6036066 14.3215082 57.6580328 14.5897049 57.6580328L14.6028197 57.6580328 33.3365902 57.6580328 33.4428197 57.6409836C37.889377 56.9334426 38.9162623 53.2770492 38.839541 51.4088525 38.8382295 50.2547541 38.6205246 48.542623 38.3897049 47.3281967 39.9916721 45.4363934 41.0224918 43.8514754 41.1510164 43.6501639 42.2500328 42.0678689 45.799541 40.982623 47.0775738 40.697377L47.144459 40.6790164C48.1647869 40.3386885 48.5182295 39.7360656 48.6362623 39.2901639 48.9503607 38.0947541 47.8926557 36.8796721 47.7647869 36.7380328M112.65259 40.4805246C112.709639 41.0457705 112.423738 41.589377 111.929311 41.872 111.493902 42.1172459 111.331934 42.6687213 111.567344 43.112 111.616525 43.2051148 111.673574 43.2798689 111.746361 43.3756066 112.33259 44.1454426 112.448 44.6601967 112.144393 45.1506885 111.935869 45.4851148 111.562098 45.7559344 110.358164 45.219541 110.264393 45.1782295 110.19423 45.149377 110.15423 45.1362623 109.890623 45.047082 109.600787 45.0818361 109.365377 45.2300328 109.130623 45.379541 108.974557 45.6247869 108.940459 45.9008525 108.827672 46.8188852 108.480131 47.3631475 107.099148 47.2483934 106.801443 47.2228197 106.609967 47.1526557 106.460459 46.9939672 106.442098 46.9723279 106.425049 46.9500328 106.405377 46.9303607 106.260459 46.7415082 106.153574 46.4490492 106.020459 45.9900328 105.94177 45.7192131 105.743082 45.4988852 105.482098 45.3926557 105.221115 45.2857705 104.925377 45.3041311 104.679475 45.4418361 104.619148 45.4759344 104.566033 45.5074098 104.518164 45.5356066 104.476852 45.5605246 104.444066 45.5841311 104.406689 45.5992131 104.406689 45.5992131 104.388328 45.604459 104.339148 45.6097049 103.553574 45.6883934 102.849311 45.1133115 102.770623 44.3283934 102.743082 44.0510164 102.800131 43.776918 102.928656 43.5290492 103.090623 43.4365902 103.248656 43.3356066 103.397508 43.2201967 103.879475 42.8457705 104.264393 42.3756066 104.531934 41.8398689 105.223738 41.7533115 105.884721 41.4818361 106.439475 41.0516721L106.440131 41.0510164C107.352918 40.3421639 107.90177 39.2726557 107.945049 38.1179016 107.950295 37.9815082 107.943082 37.847082 107.933902 37.7133115 108.509639 37.792 108.99882 38.2149508 109.135869 38.8018361 109.202754 39.0883934 109.402098 39.3264262 109.672918 39.4424918 109.943738 39.5585574 110.253246 39.5388852 110.507016 39.389377 110.685377 39.2838033 110.879475 39.2201967 111.084066 39.1992131 111.869639 39.1198689 112.573246 39.6956066 112.65259 40.4805246M99.1765246 41.324459C98.983082 41.0615082 98.6670164 40.9198689 98.3424262 40.9513443 98.0178361 40.9828197 97.7345574 41.1821639 97.5948852 41.4765902 97.3961967 41.8956066 97.0971803 42.2680656 96.7293115 42.5533115 96.1798033 42.9801967 95.4939016 43.2005246 94.7975082 43.1742951 93.3109508 43.1179016 92.088 41.9579016 91.952918 40.4765902 91.9260328 40.1834754 91.7620984 39.9205246 91.5096393 39.7683934 91.2584918 39.6162623 90.9489836 39.5926557 90.6768525 39.7047869 90.2768525 39.8706885 89.8584918 39.9467541 89.4322623 39.9310164 88.6388197 39.9008525 87.9050492 39.564459 87.365377 38.9821639 86.8257049 38.3998689 86.5457049 37.6418361 86.5752131 36.8483934 86.608 35.9703607 87.0263607 35.1565902 87.7220984 34.6156066 87.9463607 34.4418361 88.1935738 34.3008525 88.4565246 34.1965902 88.9247213 34.0123279 89.1588197 33.4897049 88.9863607 33.0188852 88.9470164 32.9106885 88.9214426 32.7992131 88.900459 32.6877377 88.8978361 32.6510164 88.8912787 32.6149508 88.8840656 32.5788852 88.8696393 32.4680656 88.8598033 32.3552787 88.8643934 32.2424918 88.8866885 31.6359344 89.1752131 31.074623 89.6552131 30.7015082 90.0335738 30.4077377 90.5063607 30.2562623 90.9870164 30.274623 91.2775082 30.284459 91.5588197 30.3572459 91.823082 30.4890492 92.0860328 30.6201967 92.3961967 30.6188852 92.6578361 30.4851148 92.9201311 30.3513443 93.1024262 30.1001967 93.1496393 29.8097049 93.2840656 28.9860984 93.7227541 28.2490492 94.3857049 27.7342951 94.9948852 27.2601967 95.7561967 27.0156066 96.5293115 27.0451148 97.9293115 27.0982295 99.1463607 28.0352787 99.5588197 29.3775738 99.6342295 29.6241311 99.8093115 29.8274098 100.041443 29.9401967 100.27423 30.0516721 100.54177 30.0615082 100.78177 29.9677377 101.166689 29.8162623 101.569967 29.7474098 101.979803 29.7624918 103.61718 29.8247869 104.899148 31.207082 104.837508 32.844459 104.813246 33.4713443 104.59423 34.0660984 104.20341 34.5638033 104.015213 34.8024918 103.956852 35.1198689 104.048 35.4103607 104.137836 35.7008525 104.366033 35.9283934 104.656525 36.0188852 105.538492 36.2929836 106.129967 37.1277377 106.095213 38.0483934 106.072918 38.6549508 105.784393 39.216918 105.304393 39.589377 104.930623 39.8792131 104.465049 40.0313443 104.000131 40.0182295 103.973246 40.0162623 103.944393 40.0136393 103.922754 40.0136393 103.507016 40.0018361 103.133902 40.2706885 103.01259 40.669377 102.734557 41.5860984 101.814557 42.2483934 100.848656 42.2129836 100.183082 42.1880656 99.5739016 41.8634754 99.1765246 41.324459M100.771279 58.0136393C100.762098 58.2621639 100.543738 58.5001967 100.122754 58.7231475 98.3811148 59.6431475 94.5516066 59.5310164 92.9339016 58.5133115 92.7017705 58.3677377 92.4276721 58.1441311 92.4361967 57.9060984 92.645377 52.3677377 91.0040656 49.1185574 89.4519344 47.299541 90.235541 47.139541 90.9116066 46.8103607 91.460459 46.3841311 92.0584918 45.9198689 92.5063607 45.3421639 92.7837377 44.749377 93.1883279 45.087082 94.7063607 46.4838033 95.3752131 48.9198689 95.4296393 49.1165902 95.6335738 49.2326557 95.8302951 49.1788852 95.8788197 49.1657705 95.9220984 49.1428197 95.9594754 49.1139672 96.0742295 49.0247869 96.130623 48.8726557 96.0893115 48.7238033 95.6040656 46.9559344 94.7227541 45.7047869 94.0447213 44.9474098 94.2676721 44.9874098 94.4952131 45.0156066 94.7273443 45.0241311 96.1948852 45.0792131 97.6447213 44.4379016 98.5916066 43.3165902 98.6834098 43.3828197 98.783082 43.4352787 98.8801311 43.4929836 98.5378361 44.1277377 98.1417705 45.0838033 98.1011148 46.1690492 98.0932459 46.3736393 98.2532459 46.5454426 98.4571803 46.5533115 98.5476721 46.5565902 98.6316066 46.527082 98.6978361 46.4759344 98.7817705 46.4103607 98.8368525 46.3113443 98.8414426 46.1965902 98.8768525 45.2398689 99.2434098 44.3788852 99.5496393 43.816918 99.9391475 43.9592131 100.351607 44.0457705 100.779148 44.0621639 100.825705 44.0641311 100.872262 44.0608525 100.91882 44.0615082 100.913574 44.2110164 100.913574 44.3618361 100.928656 44.5126557 100.973246 44.9572459 101.105705 45.3782295 101.313574 45.7585574 100.305049 46.7015082 99.3220984 48.1939672 98.890623 49.5231475 98.8276721 49.7172459 98.9345574 49.9264262 99.1286557 49.989377 99.2499672 50.0287213 99.3765246 50.0024918 99.4702951 49.9297049 99.5266885 49.8857705 99.5712787 49.8247869 99.595541 49.7513443 99.9758689 48.576918 100.853902 47.2234754 101.746361 46.3664262 101.860459 46.4942951 101.983082 46.6162623 102.11882 46.727082 102.731279 47.2274098 103.486033 47.4831475 104.269639 47.4647869 101.320787 49.9683934 100.846033 56.0438033 100.771279 58.0136393M84.2401311 43.7336393C84.0125902 43.9336393 83.7470164 44.0785574 83.4558689 44.164459 82.9161967 44.3238033 82.3476721 44.2628197 81.8539016 43.9933115 81.3601311 43.724459 81.0001311 43.2785574 80.8414426 42.7375738 80.605377 41.9375738 80.8670164 41.072 81.5070164 40.5336393 81.8919344 40.2097049 81.9476721 39.6385574 81.6335738 39.247082L81.6040656 39.2090492 81.6034098 39.2097049C81.5581639 39.1401967 81.5017705 39.069377 81.4342295 38.9965902 81.4250492 38.9874098 80.565377 38.0097049 81.4637377 36.9362623 81.740459 36.6038033 82.3666885 36.4503607 82.6978361 36.5460984 82.9902951 36.6306885 83.3102951 36.5677377 83.5417705 36.3729836 83.7778361 36.1801967 83.9037377 35.8831475 83.8781639 35.579541 83.7345574 33.8890492 84.3325902 33.3854426 85.4827541 33.0464262 85.8696393 32.9323279 86.2939016 32.9506885 86.6899672 33.0831475 86.6565246 33.1080656 86.6198033 33.1283934 86.5870164 33.1539672 85.4578361 34.0313443 84.7791475 35.3526557 84.725377 36.7788852 84.6768525 38.0660984 85.1325902 39.2956066 86.008 40.2405246 86.8840656 41.1847869 88.075541 41.7323279 89.3627541 41.7801967 89.6899672 41.7926557 90.0139016 41.7723279 90.3325902 41.7185574 90.5371803 42.3342951 90.8637377 42.8923279 91.2807869 43.3697049 91.2702951 43.4097049 91.2584918 43.4490492 91.2532459 43.4916721 91.1686557 44.2011803 90.3161967 45.2988852 88.9352131 45.514623 88.4152131 45.5959344 87.6781639 45.5598689 87.0250492 45.3080656 86.952918 45.2726557 86.903082 45.2497049 86.885377 45.2424918 86.8670164 45.234623 86.8493115 45.232 86.8309508 45.2260984 86.3437377 44.9979016 85.9240656 44.6372459 85.7116066 44.0929836 85.6014426 43.8129836 85.3620984 43.6031475 85.0696393 43.5310164 84.7771803 43.459541 84.4709508 43.5316721 84.2401311 43.7336393M110.898492 37.3579016C110.777836 37.3703607 110.657836 37.3887213 110.541115 37.4136393 109.89718 36.3664262 108.69259 35.7323279 107.413246 35.8615082 107.383738 35.8641311 107.355541 35.8706885 107.326033 35.874623 107.044721 35.4359344 106.680787 35.0516721 106.245377 34.7539672 106.511607 34.179541 106.662426 33.5579016 106.686689 32.914623 106.787016 30.2575738 104.706361 28.0136393 102.049311 27.9126557 101.689967 27.899541 101.334557 27.9257705 100.985705 27.9913443 100.145705 26.3565902 98.4781639 25.2667541 96.5994754 25.1952787 95.3922623 25.1500328 94.2027541 25.5323279 93.2499672 26.2726557 92.5017705 26.8536393 91.9365246 27.616918 91.6020984 28.4831475 91.423082 28.4510164 91.2401311 28.4313443 91.0565246 28.4241311 90.1417705 28.3900328 89.2414426 28.6792131 88.5194754 29.2398689 87.845377 29.7638033 87.3719344 30.4838033 87.1516066 31.2897049 86.4381639 31.0752787 85.6794754 31.0588852 84.9601311 31.2706885 83.1286557 31.8103607 82.1607869 32.9356066 82.0250492 34.6962623 81.2643934 34.8031475 80.5201311 35.179541 80.0440656 35.7487213 78.9483279 37.0588852 79.0407869 38.6641311 79.7057049 39.7598689 78.9594754 40.7467541 78.7070164 42.0438033 79.0663607 43.2608525 79.3647213 44.2752787 80.0394754 45.112 80.968 45.6182295 81.8958689 46.124459 82.9647213 46.2385574 83.9784918 45.9401967 84.1712787 45.8831475 84.3588197 45.8123279 84.5378361 45.7283934 84.9889836 46.2988852 85.5902951 46.7159344 86.2558689 46.9926557 86.955541 47.354623 90.8919344 49.7565902 90.5870164 57.8359344 90.5673443 58.3428197 90.7188197 59.3067541 91.9483279 60.0805246 94.1109508 61.4405246 98.672918 61.5821639 100.986361 60.3598689 101.216525 60.2385574 101.414557 60.1106885 101.586361 59.976918 102.390295 59.3526557 102.600131 58.6254426 102.621115 58.0838033 102.75423 54.5592131 103.636197 50.1598689 105.666361 48.7165902 106.001443 48.9106885 106.419148 49.0483934 106.945049 49.0923279 108.697836 49.2392131 109.944393 48.5710164 110.49718 47.2306885 111.710295 47.5539672 112.529967 47.2726557 113.070295 46.8536393 113.362754 46.6267541 113.57259 46.3592131 113.717508 46.124459 114.338492 45.1218361 114.307672 44.0267541 113.628328 42.8621639 114.26177 42.1821639 114.589639 41.2516721 114.493902 40.2956066 114.312262 38.4936393 112.699148 37.1762623 110.898492 37.3579016"/>
  </g>
</svg>
