<svg xmlns="http://www.w3.org/2000/svg" width="594" height="38" viewBox="0 0 594 38">
  <g fill="none" fill-rule="evenodd">
    <path fill="#A5B6F3" d="M6.198,32 L16.17,32 L16.17,28.364 L13.218,28.364 L13.218,11.84 L17.61,11.84 L17.61,15.584 L21.462,15.584 L21.462,8.312 L0.906,8.312 L0.906,15.584 L4.758,15.584 L4.758,11.84 L9.15,11.84 L9.15,28.364 L6.198,28.364 L6.198,32 Z M25.566,8.96 L25.566,28.76 L23.226,28.76 L23.226,32 L31.65,32 L31.65,28.76 L29.49,28.76 L29.49,21.344 C30.75,20.3 32.19,19.508 33.558,19.508 C34.314,19.508 34.926,19.76 35.322,20.264 C35.646,20.696 35.826,21.308 35.826,22.172 L35.826,28.76 L33.666,28.76 L33.666,32 L42.09,32 L42.09,28.76 L39.75,28.76 L39.75,21.2 C39.75,19.76 39.39,18.536 38.706,17.636 C37.878,16.556 36.546,15.944 34.854,15.944 C32.622,15.944 30.966,17.204 29.49,18.608 L29.49,5.648 L23.226,5.648 L23.226,8.96 L25.566,8.96 Z M59.37,25.448 L47.994,25.448 C48.534,27.896 50.55,28.976 53.178,28.976 C55.086,28.976 57.066,28.364 58.902,27.32 L58.578,30.848 C56.922,31.82 54.906,32.288 52.602,32.288 C47.454,32.288 43.89,29.048 43.89,24.152 C43.89,19.688 47.022,15.944 51.882,15.944 C56.922,15.944 59.55,19.328 59.55,23.504 C59.55,24.116 59.478,24.908 59.37,25.448 Z M51.846,19.112 C50.118,19.112 48.39,20.12 47.958,22.712 L55.626,22.712 C55.554,20.552 54.15,19.112 51.846,19.112 Z M78.486,32.432 C83.346,32.432 86.838,29.876 86.838,25.376 C86.838,20.984 83.634,19.508 79.386,17.996 C77.01,17.132 75.03,16.268 75.03,14.324 C75.03,12.596 76.398,11.408 78.738,11.408 C80.214,11.408 81.222,11.732 81.87,12.128 C81.726,12.416 81.618,12.668 81.618,13.244 C81.618,14.432 82.554,15.656 84.21,15.656 C85.578,15.656 86.622,14.684 86.622,12.992 C86.622,10.148 83.202,7.88 78.774,7.88 C73.986,7.88 70.926,10.832 70.926,14.612 C70.926,19.004 74.022,20.408 78.414,21.992 C80.79,22.82 82.77,23.756 82.77,25.7 C82.77,27.752 81.114,28.904 78.522,28.904 C76.974,28.904 75.642,28.508 74.778,27.896 C74.994,27.464 75.102,27.032 75.102,26.456 C75.102,25.304 74.094,24.116 72.51,24.116 C71.034,24.116 70.026,25.232 70.026,26.924 C70.026,29.804 73.806,32.432 78.486,32.432 Z M99.51,32.288 C97.494,32.288 96.054,31.568 94.722,30.488 L93.858,32.072 L91.194,32.072 L91.194,8.96 L88.818,8.96 L88.818,5.648 L95.118,5.648 L95.118,17.96 C96.27,16.844 97.746,15.944 99.762,15.944 C103.938,15.944 107.07,19.292 107.07,24.044 C107.07,28.616 103.758,32.288 99.51,32.288 Z M98.862,28.904 C101.058,28.904 103.038,27.212 103.038,24.08 C103.038,21.056 101.166,19.328 98.862,19.328 C97.386,19.328 96.198,19.976 95.118,20.912 L95.118,27.68 C96.162,28.4 97.386,28.904 98.862,28.904 Z M117.906,32.288 C112.686,32.288 109.518,28.508 109.518,24.116 C109.518,19.796 112.758,15.944 117.906,15.944 C123.126,15.944 126.294,19.724 126.294,24.116 C126.294,28.436 123.054,32.288 117.906,32.288 Z M117.906,29.012 C120.462,29.012 122.262,26.996 122.262,24.116 C122.262,21.236 120.462,19.22 117.906,19.22 C115.35,19.22 113.55,21.236 113.55,24.116 C113.55,26.996 115.35,29.012 117.906,29.012 Z M137.13,32.288 C131.91,32.288 128.742,28.508 128.742,24.116 C128.742,19.796 131.982,15.944 137.13,15.944 C142.35,15.944 145.518,19.724 145.518,24.116 C145.518,28.436 142.278,32.288 137.13,32.288 Z M137.13,29.012 C139.686,29.012 141.486,26.996 141.486,24.116 C141.486,21.236 139.686,19.22 137.13,19.22 C134.574,19.22 132.774,21.236 132.774,24.116 C132.774,26.996 134.574,29.012 137.13,29.012 Z M153.978,16.232 L147.858,16.232 L147.858,19.544 L150.198,19.544 L150.198,28.76 L147.858,28.76 L147.858,32 L156.282,32 L156.282,28.76 L154.122,28.76 L154.122,21.344 C155.382,20.3 156.822,19.508 158.19,19.508 C159.126,19.508 159.774,19.868 160.134,20.552 C160.35,20.948 160.458,21.524 160.458,22.172 L160.458,28.76 L158.298,28.76 L158.298,32 L166.722,32 L166.722,28.76 L164.382,28.76 L164.382,21.2 C164.382,19.904 164.094,18.824 163.554,17.96 C162.726,16.7 161.358,15.944 159.486,15.944 C157.182,15.944 155.49,17.276 153.978,18.752 L153.978,16.232 Z M175.686,32 L175.686,28.364 L177.738,28.364 L183.642,11.912 L181.05,11.912 L181.05,8.312 L194.442,8.312 L194.442,11.912 L191.85,11.912 L197.754,28.364 L199.806,28.364 L199.806,32 L190.698,32 L190.698,28.4 L193.434,28.4 L192.102,24.512 L183.246,24.512 L181.914,28.4 L184.794,28.4 L184.794,32 L175.686,32 Z M184.362,21.128 L190.986,21.128 L187.674,11.804 L184.362,21.128 Z M208.806,32.288 C204.63,32.288 201.498,28.94 201.498,24.188 C201.498,19.616 204.81,15.944 209.058,15.944 C211.074,15.944 212.55,16.7 213.45,17.456 L213.45,8.96 L211.074,8.96 L211.074,5.648 L217.374,5.648 L217.374,28.76 L219.714,28.76 L219.714,32 L213.45,32 L213.45,30.272 C212.298,31.388 210.822,32.288 208.806,32.288 Z M209.706,28.904 C211.182,28.904 212.37,28.256 213.45,27.32 L213.45,20.552 C212.406,19.832 211.182,19.328 209.706,19.328 C207.51,19.328 205.53,21.02 205.53,24.152 C205.53,27.176 207.402,28.904 209.706,28.904 Z M228.75,32.288 L231.558,32.288 L237.822,19.544 L239.658,19.544 L239.658,16.232 L231.63,16.232 L231.63,19.364 L234.006,19.364 L230.226,27.572 L226.446,19.364 L228.714,19.364 L228.714,16.232 L220.65,16.232 L220.65,19.544 L222.486,19.544 L228.75,32.288 Z M246.21,32.288 C243.51,32.288 241.098,30.812 241.098,27.86 C241.098,24.908 243.69,23.108 247.434,23.108 C249.054,23.108 250.566,23.324 251.43,23.54 L251.43,22.28 C251.43,21.344 251.214,20.624 250.818,20.12 C250.17,19.292 249.126,18.968 247.722,18.968 C247.038,18.968 246.534,19.076 246.174,19.22 C246.246,19.436 246.318,19.796 246.318,20.012 C246.318,21.2 245.382,22.064 244.194,22.064 C243.006,22.064 242.106,21.236 242.106,19.94 C242.106,17.996 244.086,15.944 248.37,15.944 C251.07,15.944 252.906,16.7 254.022,18.068 C254.85,19.076 255.246,20.444 255.246,22.028 L255.246,28.76 L257.586,28.76 L257.586,32 L251.502,32 L251.502,30.272 C250.242,31.352 248.334,32.288 246.21,32.288 Z M247.47,29.444 C248.874,29.444 250.242,28.904 251.43,28.04 L251.43,25.556 C250.53,25.34 249.414,25.196 248.19,25.196 C246.282,25.196 245.13,26.06 245.13,27.5 C245.13,28.76 246.066,29.444 247.47,29.444 Z M265.398,16.232 L259.278,16.232 L259.278,19.544 L261.618,19.544 L261.618,28.76 L259.278,28.76 L259.278,32 L267.702,32 L267.702,28.76 L265.542,28.76 L265.542,21.344 C266.802,20.3 268.242,19.508 269.61,19.508 C270.546,19.508 271.194,19.868 271.554,20.552 C271.77,20.948 271.878,21.524 271.878,22.172 L271.878,28.76 L269.718,28.76 L269.718,32 L278.142,32 L278.142,28.76 L275.802,28.76 L275.802,21.2 C275.802,19.904 275.514,18.824 274.974,17.96 C274.146,16.7 272.778,15.944 270.906,15.944 C268.602,15.944 266.91,17.276 265.398,18.752 L265.398,16.232 Z M286.89,32.288 C288.33,32.288 289.59,31.892 290.67,31.352 L290.994,27.968 C290.058,28.4 288.906,28.796 287.898,28.796 C287.106,28.796 286.53,28.544 286.242,28.04 C286.062,27.716 285.99,27.392 285.99,26.888 L285.99,19.544 L290.778,19.544 L290.778,16.232 L285.99,16.232 L285.99,11.228 L282.102,12.92 L282.102,16.232 L279.042,16.232 L279.042,19.544 L282.102,19.544 L282.102,27.644 C282.102,28.652 282.282,29.48 282.642,30.128 C283.434,31.64 284.982,32.288 286.89,32.288 Z M299.814,32.288 C302.118,32.288 303.81,30.956 305.322,29.48 L305.322,32 L311.442,32 L311.442,28.76 L309.102,28.76 L309.102,16.232 L302.73,16.232 L302.73,19.544 L305.178,19.544 L305.178,26.888 C303.918,27.932 302.478,28.724 301.11,28.724 C300.174,28.724 299.526,28.364 299.166,27.68 C298.95,27.248 298.842,26.744 298.842,26.06 L298.842,16.232 L292.578,16.232 L292.578,19.544 L294.918,19.544 L294.918,27.032 C294.918,28.292 295.206,29.372 295.71,30.2 C296.502,31.496 297.906,32.288 299.814,32.288 Z M324.618,15.944 C322.602,15.944 320.946,17.672 319.614,19.796 L319.614,16.232 L313.494,16.232 L313.494,19.544 L315.834,19.544 L315.834,28.76 L313.494,28.76 L313.494,32 L322.494,32 L322.494,28.76 L319.758,28.76 L319.758,22.568 C320.478,21.2 321.774,19.976 322.89,19.58 C323.214,20.3 324.006,20.984 325.194,20.984 C326.49,20.984 327.534,19.868 327.534,18.536 C327.534,17.132 326.562,15.944 324.618,15.944 Z M344.742,25.448 L333.366,25.448 C333.906,27.896 335.922,28.976 338.55,28.976 C340.458,28.976 342.438,28.364 344.274,27.32 L343.95,30.848 C342.294,31.82 340.278,32.288 337.974,32.288 C332.826,32.288 329.262,29.048 329.262,24.152 C329.262,19.688 332.394,15.944 337.254,15.944 C342.294,15.944 344.922,19.328 344.922,23.504 C344.922,24.116 344.85,24.908 344.742,25.448 Z M337.218,19.112 C335.49,19.112 333.762,20.12 333.33,22.712 L340.998,22.712 C340.926,20.552 339.522,19.112 337.218,19.112 Z M355.11,32 L364.758,32 L364.758,28.364 L361.914,28.364 L362.382,16.16 L369.15,28.04 L369.69,28.04 L376.458,16.16 L376.926,28.364 L374.082,28.364 L374.082,32 L383.802,32 L383.802,28.364 L380.994,28.364 L380.238,11.948 L383.19,11.948 L383.19,8.312 L376.746,8.312 L369.474,21.488 L362.202,8.312 L355.722,8.312 L355.722,11.948 L358.674,11.948 L357.918,28.364 L355.11,28.364 L355.11,32 Z M401.694,25.448 L390.318,25.448 C390.858,27.896 392.874,28.976 395.502,28.976 C397.41,28.976 399.39,28.364 401.226,27.32 L400.902,30.848 C399.246,31.82 397.23,32.288 394.926,32.288 C389.778,32.288 386.214,29.048 386.214,24.152 C386.214,19.688 389.346,15.944 394.206,15.944 C399.246,15.944 401.874,19.328 401.874,23.504 C401.874,24.116 401.802,24.908 401.694,25.448 Z M394.17,19.112 C392.442,19.112 390.714,20.12 390.282,22.712 L397.95,22.712 C397.878,20.552 396.474,19.112 394.17,19.112 Z M410.226,16.232 L404.106,16.232 L404.106,19.544 L406.446,19.544 L406.446,28.76 L404.106,28.76 L404.106,32 L412.53,32 L412.53,28.76 L410.37,28.76 L410.37,21.344 C411.63,20.3 413.07,19.508 414.438,19.508 C415.374,19.508 416.022,19.868 416.382,20.552 C416.598,20.948 416.706,21.524 416.706,22.172 L416.706,28.76 L414.546,28.76 L414.546,32 L422.97,32 L422.97,28.76 L420.63,28.76 L420.63,21.2 C420.63,19.904 420.342,18.824 419.802,17.96 C418.974,16.7 417.606,15.944 415.734,15.944 C413.43,15.944 411.738,17.276 410.226,18.752 L410.226,16.232 Z M431.358,32.288 C433.662,32.288 435.354,30.956 436.866,29.48 L436.866,32 L442.986,32 L442.986,28.76 L440.646,28.76 L440.646,16.232 L434.274,16.232 L434.274,19.544 L436.722,19.544 L436.722,26.888 C435.462,27.932 434.022,28.724 432.654,28.724 C431.718,28.724 431.07,28.364 430.71,27.68 C430.494,27.248 430.386,26.744 430.386,26.06 L430.386,16.232 L424.122,16.232 L424.122,19.544 L426.462,19.544 L426.462,27.032 C426.462,28.292 426.75,29.372 427.254,30.2 C428.046,31.496 429.45,32.288 431.358,32.288 Z"/>
    <polygon fill="#CFCFCF" points="451.09 23.36 467.31 23.36 467.31 21.32 451.09 21.32"/>
    <path fill="#FFB8AC" d="M491.193,4.378 C488.203,4.378 484.063,7.782 483.879,14.866 C485.121,12.98 487.881,11.416 490.963,11.416 C496.897,11.416 501.313,15.418 501.313,20.662 C501.313,26.136 496.667,30.368 490.273,30.368 C487.053,30.368 484.615,29.448 482.453,27.286 C480.245,25.078 479.049,21.536 479.049,16.89 C479.049,6.034 484.845,0.192 491.653,0.192 C494.597,0.192 497.173,1.112 498.645,2.584 C499.473,3.412 499.979,4.47 499.979,5.62 C499.979,7.506 498.507,8.978 496.897,8.978 C494.919,8.978 493.585,7.506 493.585,5.896 C493.585,5.528 493.631,5.16 493.769,4.838 C493.079,4.562 492.205,4.378 491.193,4.378 Z M490.273,26.228 C493.723,26.228 496.207,23.698 496.207,20.662 C496.207,17.856 493.953,15.556 490.503,15.556 C487.053,15.556 484.339,17.856 484.339,20.892 C484.339,22.318 484.983,23.652 486.041,24.618 C487.099,25.584 488.571,26.228 490.273,26.228 Z M516.747,30 L516.747,26.364 L519.447,26.364 L519.447,9.948 L516.747,9.948 L516.747,6.312 L525.711,6.312 C534.279,6.312 539.355,10.776 539.355,17.94 C539.355,25.176 534.567,30 525.279,30 L516.747,30 Z M523.515,26.364 L525.855,26.364 C531.975,26.364 535.143,23.052 535.143,17.976 C535.143,12.792 531.471,9.948 525.567,9.948 L523.515,9.948 L523.515,26.364 Z M547.383,30.288 C544.683,30.288 542.271,28.812 542.271,25.86 C542.271,22.908 544.863,21.108 548.607,21.108 C550.227,21.108 551.739,21.324 552.603,21.54 L552.603,20.28 C552.603,19.344 552.387,18.624 551.991,18.12 C551.343,17.292 550.299,16.968 548.895,16.968 C548.211,16.968 547.707,17.076 547.347,17.22 C547.419,17.436 547.491,17.796 547.491,18.012 C547.491,19.2 546.555,20.064 545.367,20.064 C544.179,20.064 543.279,19.236 543.279,17.94 C543.279,15.996 545.259,13.944 549.543,13.944 C552.243,13.944 554.079,14.7 555.195,16.068 C556.023,17.076 556.419,18.444 556.419,20.028 L556.419,26.76 L558.759,26.76 L558.759,30 L552.675,30 L552.675,28.272 C551.415,29.352 549.507,30.288 547.383,30.288 Z M548.643,27.444 C550.047,27.444 551.415,26.904 552.603,26.04 L552.603,23.556 C551.703,23.34 550.587,23.196 549.363,23.196 C547.455,23.196 546.303,24.06 546.303,25.5 C546.303,26.76 547.239,27.444 548.643,27.444 Z M567.795,35.112 C568.263,34.572 568.659,33.924 569.019,33.204 L576.399,17.544 L578.307,17.544 L578.307,14.232 L570.207,14.232 L570.207,17.364 L572.655,17.364 L568.983,25.68 L565.347,17.364 L567.651,17.364 L567.651,14.232 L559.515,14.232 L559.515,17.544 L561.459,17.544 L567.075,29.208 L565.887,31.692 C565.635,32.196 565.419,32.592 565.167,32.916 C564.735,33.492 564.303,33.744 563.907,33.852 C563.655,33.24 563.115,32.664 562.179,32.664 C561.135,32.664 560.235,33.348 560.235,34.68 C560.235,35.94 561.531,37.164 563.619,37.164 C565.203,37.164 566.643,36.444 567.795,35.112 Z M593.103,17.724 C593.103,16.968 592.815,16.284 592.239,15.708 C591.159,14.628 588.855,13.908 586.947,13.908 C582.519,13.908 580.503,16.464 580.503,18.912 C580.503,21.612 582.339,22.656 586.695,23.808 C589.107,24.456 589.791,24.924 589.791,25.716 C589.791,26.868 588.495,27.408 586.911,27.408 C585.795,27.408 584.787,27.192 584.067,26.904 C584.103,26.688 584.139,26.472 584.139,26.256 C584.139,24.888 583.095,24.168 582.015,24.168 C580.791,24.168 579.927,25.14 579.927,26.292 C579.927,27.12 580.179,27.768 580.827,28.416 C581.871,29.46 584.463,30.324 586.875,30.324 C590.439,30.324 593.535,28.56 593.535,25.248 C593.535,22.404 591.339,21.468 587.559,20.46 C585.147,19.812 584.247,19.344 584.247,18.444 C584.247,17.616 585.111,16.824 586.875,16.824 C587.667,16.824 588.459,16.968 589.107,17.22 C589.035,17.436 589.035,17.652 589.035,17.904 C589.035,19.092 589.899,19.848 591.159,19.848 C592.311,19.848 593.103,18.984 593.103,17.724 Z"/>
  </g>
</svg>
