<svg xmlns="http://www.w3.org/2000/svg" xmlns:xlink="http://www.w3.org/1999/xlink" width="98" height="99" viewBox="0 0 98 99">
  <defs>
    <polygon id="plan_type2-a" points="97.651 .349 0 .349 0 97.999 97.651 97.999"/>
  </defs>
  <g fill="none" fill-rule="evenodd">
    <g transform="translate(0 .215)">
      <mask id="plan_type2-b" fill="#fff">
        <use xlink:href="#plan_type2-a"/>
      </mask>
      <path fill="#A5B6F3" d="M96.5148718,49.1733333 L95.3789744,49.1733333 C95.3764103,62.0348718 90.1687179,73.665641 81.7430769,82.0912821 C73.3148718,90.5169231 61.6841026,95.7246154 48.8251282,95.7246154 C35.9687179,95.7246154 24.3379487,90.5169231 15.9097436,82.0912821 C7.48410256,73.665641 2.27384615,62.0348718 2.27384615,49.1733333 C2.27384615,36.314359 7.48410256,24.6835897 15.9097436,16.2553846 C24.3379487,7.82974359 35.9687179,2.62461538 48.8251282,2.62461538 C61.6841026,2.62461538 73.3148718,7.82974359 81.7430769,16.2553846 C90.1687179,24.6835897 95.3764103,36.314359 95.3789744,49.1733333 L96.5148718,49.1733333 L97.6507692,49.1733333 C97.6533333,35.6938462 92.1841026,23.4810256 83.3507692,14.6476923 C74.52,5.81692308 62.3046154,0.347692308 48.8251282,0.347692308 C35.3482051,0.347692308 23.1328205,5.81692308 14.3020513,14.6476923 C5.46615385,23.4810256 -0.000512820513,35.6938462 -0.000512820513,49.1733333 C-0.000512820513,62.6528205 5.46615385,74.8682051 14.3020513,83.7015385 C23.1328205,92.5323077 35.345641,97.9989744 48.8251282,97.9989744 C62.3046154,97.9989744 74.52,92.5323077 83.3507692,83.7015385 C92.1841026,74.8682051 97.6533333,62.6528205 97.6507692,49.1733333 L96.5148718,49.1733333 Z" mask="url(#plan_type2-b)"/>
    </g>
    <path fill="#A5B6F3" d="M58.7007692 36.3105128C57.8341026 37.4130769 56.6315385 38.1233333 55.2674359 38.1233333 54.1905128 38.1233333 53.3597436 37.7848718 52.795641 37.2002564 52.2315385 36.6130769 51.9366667 35.7720513 51.9366667 34.7617949 51.9341026 33.215641 52.5161538 31.6797436 53.4392308 30.5361538 54.3597436 29.3951282 55.6212821 28.6412821 56.9853846 28.6412821 57.9802564 28.6412821 58.7520513 29.0079487 59.2802564 29.6335897 59.8084615 30.264359 60.0905128 31.1515385 60.0905128 32.1976923 60.0905128 33.7284615 59.5648718 35.2130769 58.7007692 36.3105128M61.7289744 27.7028205C60.8469231 26.7053846 59.5546154 26.1310256 57.9238462 26.1335897 56.9751282 26.1335897 56.0623077 26.4669231 55.2494872 26.9976923 54.495641 27.4925641 53.8674359 28.1541026 53.3469231 28.8746154L55.9033333 18.5258974C55.0853846 19.09 54.3751282 19.5105128 53.2674359 19.5105128 52.1905128 19.5105128 51.0776923 19.3130769 50.2289744 19.0746154 49.3802564 18.9182051 48.3674359 18.7182051 47.3853846 18.7182051 43.8905128 18.7182051 42.4187179 21.5028205 42.4187179 23.7669231 42.4187179 24.7284615 42.6341026 25.5464103 42.9828205 26.3258974 42.4264103 26.2028205 41.8238462 26.1335897 41.1879487 26.1335897 39.4469231 26.1335897 38.0930769 26.6233333 37.1725641 27.3925641 36.2520513 28.164359 35.77 29.2233333 35.77 30.3541026 35.77 31.4797436 36.2469231 32.2976923 36.9648718 32.9335897 37.6828205 33.5720513 38.644359 34.0310256 39.6161538 34.4694872 40.3930769 34.8105128 41.1289744 35.1258974 41.6674359 35.5002564 41.9366667 35.6874359 42.1546154 35.89 42.3058974 36.1130769 42.4571795 36.3361538 42.5417949 36.5797436 42.5417949 36.8669231 42.5417949 37.1412821 42.4674359 37.3823077 42.3341026 37.59 42.1315385 37.9028205 41.7930769 38.1438462 41.37 38.3028205 40.944359 38.464359 40.4341026 38.5438462 39.8905128 38.5438462 38.8930769 38.5438462 37.9571795 38.3182051 37.3161538 37.9976923 37.1033333 37.8771795 36.9520513 37.7848718 36.8315385 37.6720513 37.0187179 37.4361538 37.1417949 37.0925641 37.1417949 36.7694872 37.1417949 36.3387179 36.9776923 35.9387179 36.6930769 35.6464103 36.4110256 35.3592308 36.0110256 35.1771795 35.5494872 35.1771795 35.0674359 35.1771795 34.644359 35.3746154 34.3417949 35.7079487 34.0392308 36.0387179 33.8571795 36.5002564 33.8571795 37.0258974 33.8571795 37.7233333 34.1879487 38.3489744 34.744359 38.9028205 35.7905128 39.9823077 37.6802564 40.6976923 39.8264103 40.6976923 41.4853846 40.6976923 42.8776923 40.315641 43.8597436 39.5823077 44.8417949 38.8489744 45.4058974 37.7669231 45.4058974 36.3797436 45.4058974 35.2848718 44.9366667 34.4669231 44.2315385 33.8233333 43.5238462 33.1771795 42.5802564 32.7002564 41.6238462 32.264359 40.8135897 31.8874359 40.0623077 31.5515385 39.5161538 31.1694872 39.2417949 30.9848718 39.0212821 30.7848718 38.87 30.5720513 38.7161538 30.3566667 38.6341026 30.1258974 38.6341026 29.864359 38.6341026 29.3797436 38.9058974 28.9951282 39.3597436 28.7284615 39.8135897 28.4617949 40.4469231 28.3182051 41.1546154 28.3182051 41.8623077 28.3182051 42.5392308 28.4464103 43.0212821 28.6387179 43.2520513 28.7233333 43.3751282 28.8079487 43.47 28.8746154 43.2571795 29.2438462 43.1905128 29.4797436 43.1905128 29.7669231 43.1905128 30.6335897 43.9212821 31.3617949 44.8161538 31.3617949 45.2648718 31.3617949 45.6802564 31.1797436 45.9828205 30.8592308 46.2853846 30.5412821 46.4751282 30.0848718 46.4751282 29.5412821 46.4751282 28.8848718 46.1776923 28.2258974 45.6546154 27.7028205 45.3520513 27.3874359 44.97 27.1105128 44.5289744 26.8797436 44.2212821 26.2079487 44.0212821 25.4541026 44.0212821 24.6053846 44.0212821 22.0207692 45.8161538 20.8258974 47.2546154 20.8258974 47.9417949 20.8258974 48.9212821 20.8669231 49.7725641 20.9464103 50.5238462 21.064359 51.5033333 21.1412821 52.3212821 21.1412821L52.3264103 21.1412821 47.7982051 40.4361538 50.7623077 40.4361538 51.3828205 37.5925641C51.8905128 39.4207692 53.5828205 40.6976923 55.6238462 40.6976923 57.6623077 40.6976923 59.5289744 39.6925641 60.8828205 38.0797436 62.2366667 36.4694872 63.0828205 34.2489744 63.0828205 31.8105128 63.0828205 30.1207692 62.6110256 28.6976923 61.7289744 27.7028205M76.704359 67.8307692L76.6915385 67.8666667C76.3684615 68.7512821 76.055641 69.3128205 75.7582051 69.6512821 75.4607692 69.9871795 75.1812821 70.1025641 74.9197436 70.1025641 74.6530769 70.1025641 74.4479487 70.0128205 74.3069231 69.8410256 74.1633333 69.6717949 74.0838462 69.4230769 74.0838462 69.1076923 74.0838462 68.8564103 74.1812821 68.4076923 74.2761538 67.9897436L75.4710256 63.8846154C75.6992308 63.0769231 75.83 62.2974359 75.83 61.6128205 75.83 60.3615385 75.4146154 59.3666667 74.7274359 58.6871795 74.0428205 58.0025641 73.0864103 57.6358974 72.0120513 57.6358974 71.0479487 57.6358974 70.1120513 58.0282051 69.2787179 58.6615385 68.5094872 59.2461538 67.8274359 60.0410256 67.2915385 60.9307692L68.2735897 57.8615385 65.4120513 57.8615385 61.9838462 71.8589744 64.904359 71.8589744 66.7838462 64.2717949C67.1376923 62.8871795 67.7171795 61.8358974 68.4171795 61.1333333 69.1171795 60.4282051 69.9402564 60.0692308 70.7838462 60.0692308 71.4069231 60.0692308 71.9197436 60.2692308 72.2787179 60.6179487 72.6402564 60.9641026 72.8453846 61.4641026 72.8453846 62.0666667 72.8453846 62.5153846 72.7812821 62.9307692 72.6223077 63.4769231L72.6197436 63.4769231 71.4248718 67.674359 71.4248718 67.6769231C71.2966667 68.1974359 71.1992308 68.8102564 71.1992308 69.2717949 71.1992308 70.0846154 71.4684615 70.7897436 71.9812821 71.2923077 72.4941026 71.7897436 73.2479487 72.0846154 74.2069231 72.0846154 75.0735897 72.0846154 75.8428205 71.7820513 76.4864103 71.1615385 77.1325641 70.5410256 77.6505128 69.6076923 78.0248718 68.3435897L78.0325641 68.3102564 76.704359 67.8307692zM21.3233333 70.44C22.8464103 67.5092308 25.7464103 65.7297436 28.5617949 64.5528205 31.1746154 63.4605128 32.9823077 62.6605128 32.9823077 61.2220513 32.9823077 60.0194872 31.6617949 59.5271795 30.2541026 59.5271795 29.1925641 59.5271795 28.1592308 59.7887179 27.6412821 60.1579487 27.8412821 60.4733333 27.9566667 60.8194872 27.9566667 61.2220513 27.9566667 62.2605128 27.1541026 63.0605128 26.1207692 63.0605128 25.0848718 63.0605128 24.1669231 62.2605128 24.1669231 61.0810256 24.1669231 59.1579487 26.4925641 56.8887179 30.5412821 56.8887179 33.9028205 56.8887179 36.315641 58.6348718 36.315641 61.0528205 36.315641 63.8066667 33.0130769 65.2989744 29.9387179 66.5630769 27.2694872 67.6246154 25.9746154 68.4630769 25.0284615 69.6630769L32.1797436 69.6630769 32.7541026 67.2553846 35.3669231 67.2553846 34.2182051 72.165641 21.7258974 72.165641 21.3233333 70.44zM37.8748718 70.0394872C37.8748718 68.7164103 38.9389744 67.6548718 40.2287179 67.6548718 41.5210256 67.6548718 42.5851282 68.7164103 42.5851282 70.0394872 42.5851282 71.334359 41.5210256 72.3958974 40.2287179 72.3958974 38.9389744 72.3958974 37.8748718 71.334359 37.8748718 70.0394872"/>
  </g>
</svg>
