<svg xmlns="http://www.w3.org/2000/svg" xmlns:xlink="http://www.w3.org/1999/xlink" width="125" height="80" viewBox="0 0 125 80">
  <defs>
    <polygon id="plan_step1_icon-a" points="53.387 78.37 0 78.37 0 .254 53.387 .254 53.387 78.37"/>
    <polygon id="plan_step1_icon-c" points="0 78.734 124.298 78.734 124.298 .617 0 .617"/>
  </defs>
  <g fill="none" fill-rule="evenodd">
    <path fill="#FFB8AC" d="M8.50243088,77.8082089 C4.32422309,77.8082089 0.924804612,74.4061994 0.924804612,70.224807 L0.924804612,16.1308196 C0.924804612,13.7624335 2.44353628,12.5893481 3.83524452,12.2178608 L3.83524452,10.1907247 L3.61696152,10.1907247 C2.1327605,10.1907247 0.924804612,8.9818481 0.924804612,7.49651582 L0.924804612,4.2370538 C0.924804612,2.75172152 2.1327605,1.54284494 3.61696152,1.54284494 L49.7696323,1.54284494 C51.2544499,1.54284494 52.4617892,2.75172152 52.4617892,4.2370538 L52.4617892,7.49651582 C52.4617892,8.9818481 51.2544499,10.1907247 49.7696323,10.1907247 L49.5513493,10.1907247 L49.5513493,12.2178608 C50.9430575,12.5893481 52.4617892,13.7624335 52.4617892,16.1308196 L52.4617892,70.224807 C52.4617892,74.4061994 49.0623707,77.8082089 44.8841629,77.8082089 L8.50243088,77.8082089 Z"/>
    <g transform="translate(0 .363)">
      <mask id="plan_step1_icon-b" fill="#fff">
        <use xlink:href="#plan_step1_icon-a"/>
      </mask>
      <path fill="#FFB8AC" d="M49.7698173,0.253870253 L3.61714651,0.253870253 C1.62238526,0.253870253 6.16618624e-05,1.87743038 6.16618624e-05,3.87371203 L6.16618624e-05,7.13317405 C6.16618624e-05,8.88693987 1.25303071,10.3537595 2.91050157,10.6832848 L2.91050157,11.1948513 C1.41273493,11.8248987 6.16618624e-05,13.2442025 6.16618624e-05,15.7674778 L6.16618624e-05,69.8614652 C6.16618624e-05,74.5531899 3.81446447,78.3705 8.50261587,78.3705 L26.5892733,78.3705 L26.7970738,78.3705 L44.8843479,78.3705 C49.5724993,78.3705 53.3869021,74.5531899 53.3869021,69.8614652 L53.3869021,15.7674778 C53.3869021,13.2442025 51.9742289,11.8248987 50.4764622,11.1948513 L50.4764622,10.6832848 C52.1333165,10.3537595 53.3869021,8.88693987 53.3869021,7.13317405 L53.3869021,3.87371203 C53.3869021,1.87743038 51.7639619,0.253870253 49.7698173,0.253870253 M49.7698173,2.10513608 C50.7459246,2.10513608 51.5370462,2.89686076 51.5370462,3.87371203 L51.5370462,7.13317405 C51.5370462,8.10940823 50.7459246,8.90175 49.7698173,8.90175 L48.6266063,8.90175 L48.6266063,12.6468608 C48.6266063,12.6468608 51.5370462,12.7159747 51.5370462,15.7674778 L51.5370462,69.8614652 C51.5370462,73.5380791 48.5581617,76.5192342 44.8843479,76.5192342 L26.7970738,76.5192342 L26.5892733,76.5192342 L8.50261587,76.5192342 C4.82818549,76.5192342 1.84991753,73.5380791 1.84991753,69.8614652 L1.84991753,15.7674778 C1.84991753,12.7159747 4.76035744,12.6468608 4.76035744,12.6468608 L4.76035744,8.90175 L3.61714651,8.90175 C2.64103923,8.90175 1.84991753,8.10940823 1.84991753,7.13317405 L1.84991753,3.87371203 C1.84991753,2.89686076 2.64103923,2.10513608 3.61714651,2.10513608 L49.7698173,2.10513608" mask="url(#plan_step1_icon-b)"/>
    </g>
    <mask id="plan_step1_icon-d" fill="#fff">
      <use xlink:href="#plan_step1_icon-c"/>
    </mask>
    <polygon fill="#FFF" points="1.85 68.214 51.537 68.214 51.537 21.748 1.85 21.748" mask="url(#plan_step1_icon-d)"/>
    <polygon fill="#B4B5B5" points="4.334 65.89 49.053 65.89 49.053 24.071 4.334 24.071" mask="url(#plan_step1_icon-d)"/>
    <path fill="#FFB8AC" d="M4.33421231,24.1401978 C16.2448176,24.1401978 25.9010653,33.4866218 25.9010653,45.0150712 C25.9010653,56.5441377 16.2448176,65.8905617 4.33421231,65.8905617 L4.33421231,24.1401978 Z" mask="url(#plan_step1_icon-d)"/>
    <path fill="#A5B6F3" d="M4.33421231,65.8903766 C4.33421231,53.921943 14.3579647,44.2194589 26.7230179,44.2194589 C39.0874546,44.2194589 49.1112069,53.921943 49.1112069,65.8903766 L4.33421231,65.8903766 Z" mask="url(#plan_step1_icon-d)"/>
    <path fill="#FFF" d="M16.9748941 62.6901551C16.8269056 62.8691108 16.6221882 62.9789525 16.3965058 62.9789525 16.2300188 62.9789525 16.0826469 62.9215633 15.9765885 62.8135728 15.8705301 62.7055823 15.8057852 62.5469905 15.8057852 62.3445854 15.8057852 62.0718323 15.8976614 61.826231 16.0462664 61.6491266 16.1942549 61.4714051 16.3983557 61.3627975 16.6246547 61.3627975 16.7911417 61.3627975 16.9385136 61.4208038 17.044572 61.5281772 17.1506304 61.6355506 17.2147587 61.7922911 17.2147587 61.9916108 17.2147587 62.264981 17.1228826 62.5111994 16.9748941 62.6901551M16.6462364 60.9481139C16.2614663 60.9481139 15.9291089 61.1171962 15.6923274 61.3763734 15.4561624 61.6355506 15.3155734 61.9848228 15.3155734 62.3445854 15.3155734 62.6235095 15.4111493 62.8839209 15.5912019 63.0758354 15.7718712 63.2671329 16.0370172 63.3880823 16.3749242 63.3880823 16.7590776 63.3880823 17.0920516 63.219 17.3282166 62.9604399 17.5649981 62.7024968 17.7055872 62.3544589 17.7055872 61.9971646 17.7055872 61.7157722 17.6100113 61.4541266 17.429342 61.2615949 17.2492894 61.0696804 16.9841434 60.9481139 16.6462364 60.9481139M19.739442 62.6901551C19.5914536 62.8691108 19.3867362 62.9789525 19.1610538 62.9789525 18.9945667 62.9789525 18.8471949 62.9215633 18.7411365 62.8135728 18.6350781 62.7055823 18.5703331 62.5469905 18.5703331 62.3445854 18.5703331 62.0718323 18.6622093 61.826231 18.8108144 61.6491266 18.9588029 61.4714051 19.1629036 61.3627975 19.3892027 61.3627975 19.5556897 61.3627975 19.7030615 61.4208038 19.8091199 61.5281772 19.9151783 61.6355506 19.9793067 61.7922911 19.9793067 61.9916108 19.9793067 62.264981 19.8874305 62.5111994 19.739442 62.6901551M19.4107843 60.9481139C19.0260143 60.9481139 18.6936568 61.1171962 18.4568753 61.3763734 18.2207104 61.6355506 18.0801213 61.9848228 18.0801213 62.3445854 18.0801213 62.6235095 18.1756972 62.8839209 18.3557498 63.0758354 18.5364191 63.2671329 18.8015651 63.3880823 19.1394721 63.3880823 19.5236255 63.3880823 19.8565996 63.219 20.0933811 62.9604399 20.3295461 62.7024968 20.4701351 62.3544589 20.4701351 61.9971646 20.4701351 61.7157722 20.3745592 61.4541266 20.19389 61.2615949 20.0138373 61.0696804 19.7486913 60.9481139 19.4107843 60.9481139M23.252195 62.6678782L23.2503452 62.6740491C23.1960827 62.8227674 23.1430535 62.917182 23.0931074 62.9739541 23.0431613 63.0307263 22.9962983 63.049856 22.9525184 63.049856 22.9075052 63.049856 22.8729746 63.0344288 22.8495431 63.0060427 22.8254949 62.9776566 22.8119293 62.9356946 22.8119293 62.882625 22.8119293 62.8400459 22.828578 62.764144 22.8446101 62.6937959L23.0456278 62.0045079C23.0832415 61.8681313 23.1054398 61.7373085 23.1054398 61.6225301 23.1054398 61.4121028 23.0351453 61.2442547 22.9198376 61.1300934 22.8045299 61.0153149 22.644209 60.953606 22.4641564 60.953606 22.3019857 60.953606 22.144748 61.0196345 22.0047755 61.1257737 21.8752856 61.2245079 21.7605946 61.3577991 21.6711849 61.5071345L21.835822 60.9918655 21.3554761 60.9918655 20.7789377 63.3448244 21.2697661 63.3448244 21.5854749 62.0693022C21.6452869 61.8366598 21.742096 61.6601725 21.8598702 61.5416915 21.9776443 61.4232104 22.1157669 61.3627358 22.2575892 61.3627358 22.3624143 61.3627358 22.4487409 61.3960585 22.508553 61.454682 22.5695982 61.5133054 22.6041288 61.5966123 22.6041288 61.698432 22.6041288 61.7737168 22.5930297 61.8440649 22.5665151 61.935394L22.3654974 62.6419604 22.3654974 62.6419604C22.3432992 62.729587 22.3272671 62.8326408 22.3272671 62.9097769 22.3272671 63.0467706 22.3722802 63.1652516 22.4586068 63.2491756 22.5449335 63.3337168 22.6713403 63.3830839 22.8328943 63.3830839 22.9784163 63.3830839 23.1079063 63.3318655 23.2158145 63.2275775 23.3243394 63.1232896 23.4112826 62.9665491 23.4735611 62.7536535L23.475411 62.7480997 23.252195 62.6678782zM14.1883945 62.6557832C14.0441058 62.8390585 13.8424715 62.9587737 13.6149392 62.9587737 13.4348866 62.9587737 13.296764 62.9020016 13.2024214 62.8038845 13.1086953 62.7063845 13.0587492 62.5656883 13.0587492 62.396606 13.0587492 62.1380459 13.1555583 61.8819541 13.309713 61.6912737 13.4638677 61.4993592 13.6747512 61.3734731 13.9022835 61.3734731 14.0681539 61.3734731 14.1970272 61.435182 14.2852037 61.540087 14.3733801 61.6449921 14.4202431 61.7937104 14.4202431 61.9683465 14.4202431 62.2244383 14.3326833 62.4718908 14.1883945 62.6557832M14.6940218 61.2167326C14.5472666 61.0501187 14.3308334 60.9544699 14.0589046 60.9544699 13.9004336 60.9544699 13.7481288 61.010625 13.6124727 61.0994858 13.4860659 61.1815585 13.3812408 61.2926345 13.2942975 61.4123497L13.7216142 59.6838845C13.5847249 59.777682 13.4663341 59.8480301 13.2813485 59.8480301 13.1012959 59.8480301 12.9156937 59.8147073 12.7738714 59.7752136 12.6320491 59.7486788 12.462479 59.715356 12.2990751 59.715356 11.7151372 59.715356 11.469723 60.1806408 11.469723 60.5595332 11.469723 60.7199763 11.5054869 60.8557358 11.5640657 60.9871756 11.4709563 60.9661946 11.3698308 60.9544699 11.2637724 60.9544699 10.973345 60.9544699 10.747046 61.0359256 10.593508 61.1655142 10.4399699 61.2944858 10.3591929 61.4709731 10.3591929 61.6598022 10.3591929 61.8486313 10.4387367 61.9850079 10.5589773 62.0911472 10.6792179 62.1972864 10.8389222 62.2750396 11.0017095 62.347856 11.1311994 62.4046282 11.2545231 62.4576978 11.3439328 62.5200237 11.388946 62.5514953 11.4259431 62.584818 11.4512245 62.6218434 11.4765058 62.6594858 11.4900714 62.7008307 11.4900714 62.7483465 11.4900714 62.7946282 11.4777391 62.8347389 11.4549242 62.869913 11.4216268 62.9217484 11.3648979 62.9618592 11.2946033 62.988394 11.2230756 63.0155459 11.1379822 63.0285047 11.0473393 63.0285047 10.8808522 63.0291218 10.7242311 62.9908623 10.6175561 62.9377927 10.5817922 62.9174288 10.5565108 62.9020016 10.536779 62.8828718 10.56761 62.8433782 10.588575 62.7853718 10.588575 62.7323022 10.588575 62.6601028 10.5608272 62.5934573 10.5139642 62.5447073 10.4664845 62.4959573 10.3992731 62.4657199 10.3221958 62.4657199 10.2420353 62.4657199 10.1711242 62.4990427 10.1205615 62.5545807 10.0699987 62.6101187 10.0397844 62.6872547 10.0397844 62.7754984 10.0397844 62.890894 10.0952801 62.9957991 10.1877729 63.0883623L10.1877729 63.0889794C10.3628926 63.2691693 10.6779847 63.3882674 11.0368567 63.3882674 11.3137185 63.3882674 11.5461837 63.3247073 11.7102043 63.2025237 11.8742248 63.0797231 11.9685675 62.8989161 11.9685675 62.6668908 11.9685675 62.4836155 11.8902569 62.3472389 11.7724828 62.2398655 11.654092 62.131875 11.4968542 62.0516535 11.3365334 61.978837 11.2014939 61.9165111 11.0763203 61.8597389 10.9850608 61.7967959 10.9388144 61.7653244 10.9018173 61.7320016 10.8765359 61.6962104 10.8512545 61.6604193 10.8370723 61.6215427 10.8370723 61.5783465 10.8370723 61.4975079 10.8827021 61.4333307 10.9585462 61.3882832 11.0343903 61.3438528 11.1404487 61.3191693 11.2588395 61.3191693 11.3766136 61.3191693 11.4900714 61.3413845 11.5696152 61.372856L11.5696152 61.3734731 11.5702319 61.3734731C11.6084622 61.3876661 11.6294272 61.4018592 11.6448427 61.4123497 11.6090788 61.4746756 11.5979797 61.5135522 11.5985963 61.5623022 11.5985963 61.7067009 11.7206868 61.8288845 11.8699085 61.8288845 11.9445194 61.8288845 12.0141973 61.7980301 12.06476 61.7443434 12.1153227 61.6912737 12.1467703 61.6147547 12.1467703 61.5246598 12.1467703 61.4142009 12.0974408 61.3043592 12.0098809 61.2167326L12.0098809 61.2161155C11.9593182 61.1642801 11.8958065 61.1179984 11.8218123 61.0797389 11.7706329 60.9668117 11.7367189 60.8409256 11.7367189 60.6989953 11.7367189 60.2670332 12.0370122 60.0677136 12.2768768 60.0677136 12.3915679 60.0677136 12.5555884 60.0738845 12.6974107 60.0874604 12.8232009 60.1072073 12.9866048 60.1207832 13.1228776 60.1207832L13.1241108 60.1207832 12.3675197 63.3450712 12.8632811 63.3450712 12.966873 62.869913C13.0513498 63.1747547 13.3337611 63.3882674 13.6747512 63.3882674 14.0151247 63.3882674 14.3265171 63.2210364 14.5528161 62.9513687 14.7791152 62.682318 14.9203208 62.3108307 14.9203208 61.9035522 14.9203208 61.6209256 14.8420103 61.3833465 14.6940218 61.2167326" mask="url(#plan_step1_icon-d)"/>
    <polygon fill="#FFF" points="34.586 36.448 35.796 36.448 35.687 36.916 34.478 36.916" mask="url(#plan_step1_icon-d)"/>
    <path fill="#FFF" d="M44.6453465,34.6424288 L44.4905753,34.6424288 C44.4905753,36.3974288 43.7802306,37.9845807 42.6314701,39.1342168 C41.482093,40.2844699 39.8961499,40.9947389 38.1431031,40.9947389 C36.3894398,40.9947389 34.8041133,40.2844699 33.6547362,39.1342168 C32.5059757,37.9845807 31.795631,36.3974288 31.795631,34.6424288 C31.795631,32.8880459 32.5059757,31.300894 33.6547362,30.1506408 C34.8041133,29.0010047 36.3894398,28.2901187 38.1431031,28.2901187 C39.8961499,28.2901187 41.482093,29.0010047 42.6314701,30.1506408 C43.7802306,31.300894 44.4905753,32.8880459 44.4905753,34.6424288 L44.6453465,34.6424288 L44.8001178,34.6424288 C44.8007344,32.8035047 44.0552425,31.1367484 42.8503697,29.9315744 C41.6461135,28.7257832 39.9812433,27.9797231 38.1431031,27.9797231 C36.304963,27.9797231 34.6394761,28.7257832 33.43522,29.9315744 C32.2309638,31.1367484 31.4854719,32.8035047 31.4854719,34.6424288 C31.4854719,36.4819699 32.2309638,38.1487263 33.43522,39.3539003 C34.6394761,40.5590744 36.304963,41.3051345 38.1431031,41.3051345 C39.9812433,41.3051345 41.6461135,40.5590744 42.8503697,39.3539003 C44.0552425,38.1487263 44.8007344,36.4819699 44.8001178,34.6424288 L44.6453465,34.6424288 Z" mask="url(#plan_step1_icon-d)"/>
    <path fill="#FFF" d="M39.4893049 32.8580554C39.3715308 33.0080079 39.2068936 33.1048908 39.0212914 33.1048908 38.8739195 33.1048908 38.7610783 33.0592263 38.684001 32.9790047 38.6075403 32.8987832 38.5668435 32.7846218 38.5668435 32.646394 38.5668435 32.4353497 38.6457706 32.2261566 38.7715608 32.0700332 38.897351 31.9139098 39.0693876 31.810856 39.2556065 31.8114731 39.3912626 31.8114731 39.4967043 31.8614573 39.5682321 31.9466155 39.6403765 32.0323908 39.6786068 32.1539573 39.6786068 32.2965047 39.6786068 32.5056978 39.6070791 32.7081028 39.4893049 32.8580554M39.9018228 31.6831187C39.7821988 31.5467421 39.6052292 31.4689889 39.3832465 31.4689889 39.2543732 31.4689889 39.1298163 31.5146535 39.0188249 31.5868528 38.9158496 31.6541155 38.8301396 31.7448275 38.7592285 31.8429446L39.107618 30.4310459C38.9966266 30.508182 38.8992009 30.5655712 38.7481293 30.5655712 38.6013741 30.5655712 38.4496859 30.5384193 38.3337616 30.5057136 38.2178373 30.4841155 38.0803314 30.4569636 37.9465251 30.4569636 37.4698789 30.4569636 37.2688613 30.8370902 37.2688613 31.1462516 37.2688613 31.2770744 37.298459 31.3887674 37.3459386 31.4955237 37.2700945 31.4782453 37.1880842 31.4689889 37.101141 31.4689889 36.8637428 31.4689889 36.6793739 31.5356345 36.5535837 31.6411566 36.4284101 31.7466788 36.3624319 31.8904604 36.3624319 32.0447326 36.3624319 32.1990047 36.4277935 32.3100807 36.5252192 32.3964731 36.6238782 32.4840997 36.7539847 32.5470427 36.8871743 32.6069003 36.9932327 32.653182 37.093125 32.6963782 37.1665026 32.7469794 37.2034997 32.7728972 37.2330974 32.8000491 37.2540624 32.8309035 37.2744108 32.8611408 37.2861266 32.8950807 37.2861266 32.9339573 37.2861266 32.9715997 37.2756441 33.0043054 37.2571455 33.0326915 37.2300143 33.0752706 37.1837679 33.1079763 37.1258057 33.1295744 37.0684602 33.1517896 36.9981657 33.1628972 36.9241715 33.1628972 36.7885154 33.1628972 36.6608753 33.1320427 36.5733155 33.0882294 36.5443344 33.071568 36.5233693 33.0592263 36.5073373 33.0437991 36.5332352 33.0117104 36.5492673 32.9641946 36.5498839 32.9203813 36.5498839 32.8611408 36.5270691 32.806837 36.4882221 32.7673434 36.4499917 32.7278497 36.3957293 32.7031661 36.3322176 32.7031661 36.266856 32.7031661 36.2088938 32.7297009 36.1675804 32.7753655 36.126267 32.820413 36.1016022 32.8839731 36.1016022 32.9555554 36.1016022 33.050587 36.147232 33.1357453 36.2224595 33.2116472 36.365515 33.3591313 36.6232616 33.4560142 36.9155388 33.4560142 37.1418378 33.4560142 37.3317564 33.4041788 37.4655626 33.3042104 37.5993688 33.2048592 37.6764462 33.0567579 37.6764462 32.8673117 37.6764462 32.7173592 37.6129345 32.6062832 37.5161253 32.5186566 37.4199328 32.430413 37.2916761 32.3650016 37.160953 32.305144 37.0499616 32.2545427 36.947603 32.2082611 36.8729921 32.1564256 36.835995 32.1305079 36.8057807 32.1039731 36.7854323 32.0743528 36.7644672 32.0453497 36.7533681 32.0138782 36.7533681 31.9787041 36.7533681 31.9120585 36.7903652 31.859606 36.8520271 31.8231978 36.9136889 31.7867896 37.0000155 31.7670427 37.0968247 31.7670427 37.1930172 31.7670427 37.28551 31.7843212 37.3508715 31.810856L37.3514882 31.810856C37.3823191 31.8225807 37.3995844 31.8343054 37.4125334 31.8429446 37.3829357 31.8935459 37.374303 31.9256345 37.374303 31.9651282 37.374303 32.0829921 37.4735786 32.1823434 37.5962858 32.1823434 37.657331 32.1823434 37.7140599 32.1576598 37.7547567 32.1138465 37.7960702 32.0706503 37.8219682 32.0083244 37.8219682 31.9342737 37.8219682 31.8441788 37.781888 31.7540839 37.7103602 31.6831187L37.7103602 31.6831187C37.6690467 31.6399225 37.6172508 31.6022801 37.5568222 31.5714256 37.5148921 31.4794794 37.4871443 31.3764256 37.4871443 31.260413 37.4871443 30.9074383 37.7325585 30.7445269 37.9286432 30.7445269 38.0223692 30.7445269 38.1555588 30.7500807 38.2714831 30.7611883 38.3738418 30.7772326 38.5076481 30.7883402 38.619256 30.7883402L38.6198727 30.7883402 38.0026374 33.4208402 38.4071392 33.4208402 38.491616 33.0326915C38.5606773 33.2819953 38.7912926 33.4560142 39.0693876 33.4560142 39.3480993 33.4560142 39.6021461 33.3196377 39.7865151 33.099337 39.9715007 32.8796535 40.0868084 32.576663 40.0868084 32.2434351 40.0868084 32.012644 40.02268 31.8188782 39.9018228 31.6831187M41.944372 37.1590396L41.9425221 37.1639763C41.8987422 37.2849256 41.8555789 37.3614446 41.8154987 37.4077263 41.7748019 37.4533908 41.7365715 37.468818 41.7008076 37.468818 41.6644271 37.468818 41.6366793 37.4564763 41.6169475 37.433644 41.5978323 37.4101946 41.5867332 37.3768718 41.5867332 37.3330585 41.5867332 37.2991187 41.6002988 37.2374098 41.6132478 37.1806377L41.7760351 36.6203212C41.806866 36.5098623 41.824748 36.4037231 41.824748 36.3105427 41.824748 36.1402263 41.7680191 36.0038497 41.6749096 35.9112864 41.5811836 35.818106 41.4510771 35.7681218 41.3043218 35.7681218 41.1729821 35.7681218 41.045342 35.8211915 40.9318842 35.9075839 40.827059 35.9878054 40.7339496 36.096413 40.660572 36.2173623L40.7949949 35.7983592 40.4046753 35.7983592 39.9366617 37.7088655 40.3349974 37.7088655 40.5915107 36.6733908C40.639607 36.4845617 40.7185342 36.3413972 40.81411 36.2451313 40.9096859 36.1488655 41.0219105 36.1001155 41.1372182 36.1001155 41.2216949 36.1001155 41.2919895 36.1272674 41.3407023 36.1747832 41.3900318 36.221682 41.4177797 36.2895617 41.4177797 36.3722516 41.4177797 36.4339604 41.409147 36.4907326 41.3875654 36.5647832L41.224778 37.1380585C41.2068961 37.2090237 41.1933305 37.2929478 41.1933305 37.3552737 41.1933305 37.4669668 41.2303276 37.5626155 41.3000055 37.6311123 41.3703 37.6996092 41.4726587 37.7397199 41.6039985 37.7397199 41.7217727 37.7397199 41.8272144 37.698375 41.9147743 37.6132168 42.0023341 37.5292927 42.0732453 37.4015554 42.1244246 37.2287706L42.1256579 37.2238339 41.944372 37.1590396z" mask="url(#plan_step1_icon-d)"/>
    <path fill="#A5B6F3" d="M80.0301913,78.1167532 C76.0221702,78.1167532 72.7608743,74.8529715 72.7608743,70.8418956 L72.7608743,16.7479082 C72.7608743,14.2869589 74.4269778,13.3280032 75.6713142,13.0793165 L75.6713142,10.499269 L75.1447219,10.499269 C73.8307076,10.499269 72.7608743,9.42862025 72.7608743,8.11360443 L72.7608743,4.85414241 C72.7608743,3.53912658 73.8307076,2.46847785 75.1447219,2.46847785 L121.297393,2.46847785 C122.612024,2.46847785 123.68124,3.53912658 123.68124,4.85414241 L123.68124,8.11360443 C123.68124,9.42862025 122.612024,10.499269 121.297393,10.499269 L120.7708,10.499269 L120.7708,13.0793165 C122.015137,13.3280032 123.68124,14.2869589 123.68124,16.7479082 L123.68124,70.8418956 C123.68124,74.8529715 120.419944,78.1167532 116.411923,78.1167532 L80.0301913,78.1167532 Z" mask="url(#plan_step1_icon-d)"/>
    <path fill="#A5B6F3" d="M121.297578,1.85151266 L75.1449069,1.85151266 C73.4905191,1.85151266 72.1444407,3.19861709 72.1444407,4.85426582 L72.1444407,8.11372785 C72.1444407,9.73913924 73.4418062,11.0671139 75.0548806,11.1146297 L75.0548806,12.6042816 C73.6206256,13.0683323 72.1444407,14.3290443 72.1444407,16.7480316 L72.1444407,70.842019 C72.1444407,75.1937278 75.6819817,78.7333481 80.0303762,78.7333481 L98.1170337,78.7333481 L98.3248342,78.7333481 L116.412108,78.7333481 C120.759886,78.7333481 124.298044,75.1937278 124.298044,70.842019 L124.298044,16.7480316 C124.298044,14.3290443 122.821859,13.0683323 121.387604,12.6042816 L121.387604,11.1146297 C123.000062,11.0671139 124.298044,9.73913924 124.298044,8.11372785 L124.298044,4.85426582 C124.298044,3.19861709 122.951965,1.85151266 121.297578,1.85151266 M121.297578,3.08568987 C122.273685,3.08568987 123.064807,3.87741456 123.064807,4.85426582 L123.064807,8.11372785 C123.064807,9.08996203 122.273685,9.8823038 121.297578,9.8823038 L120.154367,9.8823038 L120.154367,13.6274146 C120.154367,13.6274146 123.064807,13.6965285 123.064807,16.7480316 L123.064807,70.842019 C123.064807,74.5186329 120.085922,77.4991709 116.412108,77.4991709 L98.3248342,77.4991709 L98.1170337,77.4991709 L80.0303762,77.4991709 C76.3559459,77.4991709 73.3776779,74.5186329 73.3776779,70.842019 L73.3776779,16.7480316 C73.3776779,13.6965285 76.2881178,13.6274146 76.2881178,13.6274146 L76.2881178,9.8823038 L75.1449069,9.8823038 C74.1687996,9.8823038 73.3776779,9.08996203 73.3776779,8.11372785 L73.3776779,4.85426582 C73.3776779,3.87741456 74.1687996,3.08568987 75.1449069,3.08568987 L121.297578,3.08568987" mask="url(#plan_step1_icon-d)"/>
    <polygon fill="#FFF" points="73.378 68.831 123.065 68.831 123.065 22.365 73.378 22.365" mask="url(#plan_step1_icon-d)"/>
    <polygon fill="#B4B5B5" points="75.862 66.507 120.58 66.507 120.58 24.688 75.862 24.688" mask="url(#plan_step1_icon-d)"/>
    <path fill="#FFB8AC" d="M75.8619727,24.7572864 C87.772578,24.7572864 97.4288257,34.1037104 97.4288257,45.6321598 C97.4288257,57.1612263 87.772578,66.5076503 75.8619727,66.5076503 L75.8619727,24.7572864 Z" mask="url(#plan_step1_icon-d)"/>
    <path fill="#A5B6F3" d="M75.8619727,66.5074652 C75.8619727,54.5390316 85.885725,44.8365475 98.2507783,44.8365475 C110.615215,44.8365475 120.638967,54.5390316 120.638967,66.5074652 L75.8619727,66.5074652 Z" mask="url(#plan_step1_icon-d)"/>
    <path fill="#FFF" d="M88.5026545 63.3072437C88.354666 63.4861994 88.1499486 63.5960411 87.9242662 63.5960411 87.7577792 63.5960411 87.6104073 63.5386519 87.5043489 63.4306614 87.3982905 63.3226709 87.3335456 63.1640791 87.3335456 62.9616741 87.3335456 62.6889209 87.4254217 62.4433196 87.5740268 62.2662152 87.7220153 62.0884937 87.9261161 61.9798861 88.1524151 61.9798861 88.3189021 61.9798861 88.466274 62.0378924 88.5723324 62.1452658 88.6783908 62.2526392 88.7425191 62.4093797 88.7425191 62.6086994 88.7425191 62.8820696 88.6506429 63.128288 88.5026545 63.3072437M88.1739967 61.5652025C87.7892267 61.5652025 87.4568693 61.7342848 87.2200877 61.993462 86.9839228 62.2526392 86.8433338 62.6019114 86.8433338 62.9616741 86.8433338 63.2405981 86.9389096 63.5010095 87.1189623 63.6929241 87.2996315 63.8842215 87.5647775 64.0051709 87.9026845 64.0051709 88.2868379 64.0051709 88.619812 63.8360886 88.8559769 63.5775285 89.0927585 63.3195854 89.2333475 62.9715475 89.2333475 62.6142532 89.2333475 62.3328608 89.1377717 62.0712152 88.9571024 61.8786835 88.7770498 61.686769 88.5119037 61.5652025 88.1739967 61.5652025M91.2672024 63.3072437C91.1192139 63.4861994 90.9144966 63.5960411 90.6888141 63.5960411 90.5223271 63.5960411 90.3749553 63.5386519 90.2688969 63.4306614 90.1628385 63.3226709 90.0980935 63.1640791 90.0980935 62.9616741 90.0980935 62.6889209 90.1899697 62.4433196 90.3385748 62.2662152 90.4865632 62.0884937 90.690664 61.9798861 90.916963 61.9798861 91.0834501 61.9798861 91.2308219 62.0378924 91.3368803 62.1452658 91.4429387 62.2526392 91.5070671 62.4093797 91.5070671 62.6086994 91.5070671 62.8820696 91.4151909 63.128288 91.2672024 63.3072437M90.9385447 61.5652025C90.5537747 61.5652025 90.2214172 61.7342848 89.9846357 61.993462 89.7484707 62.2526392 89.6078817 62.6019114 89.6078817 62.9616741 89.6078817 63.2405981 89.7034576 63.5010095 89.8835102 63.6929241 90.0641795 63.8842215 90.3293255 64.0051709 90.6672325 64.0051709 91.0513859 64.0051709 91.3843599 63.8360886 91.6211415 63.5775285 91.8573064 63.3195854 91.9978955 62.9715475 91.9978955 62.6142532 91.9978955 62.3328608 91.9023196 62.0712152 91.7216503 61.8786835 91.5415977 61.686769 91.2764517 61.5652025 90.9385447 61.5652025M94.7799554 63.2849668L94.7781055 63.2911377C94.7238431 63.439856 94.6708139 63.5342706 94.6208678 63.5910427 94.5709217 63.6478149 94.5240587 63.6669446 94.4802787 63.6669446 94.4352656 63.6669446 94.4007349 63.6515174 94.3773034 63.6231313 94.3532553 63.5947453 94.3396897 63.5527832 94.3396897 63.4997136 94.3396897 63.4571345 94.3563384 63.3812326 94.3723705 63.3108845L94.5733881 62.6215965C94.6110019 62.4852199 94.6332002 62.3543972 94.6332002 62.2396187 94.6332002 62.0291915 94.5629056 61.8613434 94.4475979 61.747182 94.3322903 61.6324035 94.1719694 61.5706946 93.9919168 61.5706946 93.8297461 61.5706946 93.6725083 61.6367231 93.5325359 61.7428623 93.403046 61.8415965 93.2883549 61.9748877 93.1989452 62.1242231L93.3635824 61.6089541 92.8832365 61.6089541 92.3066981 63.961913 92.7975265 63.961913 93.1132352 62.6863908C93.1730472 62.4537484 93.2698564 62.2772611 93.3876305 62.1587801 93.5054047 62.0402991 93.6435273 61.9798244 93.7853495 61.9798244 93.8901747 61.9798244 93.9765013 62.0131472 94.0363133 62.0717706 94.0973586 62.130394 94.1318892 62.2137009 94.1318892 62.3155206 94.1318892 62.3908054 94.1207901 62.4611535 94.0942755 62.5524826L93.8932578 63.2590491 93.8932578 63.2590491C93.8710595 63.3466756 93.8550274 63.4497294 93.8550274 63.5268655 93.8550274 63.6638592 93.9000406 63.7823402 93.9863672 63.8662642 94.0726938 63.9508054 94.1991006 64.0001725 94.3606547 64.0001725 94.5061767 64.0001725 94.6356666 63.9489541 94.7435749 63.8446661 94.8520998 63.7403782 94.939043 63.5836377 95.0013215 63.3707421L95.0031713 63.3651883 94.7799554 63.2849668zM85.7161549 63.2728718C85.5718661 63.4561472 85.3702319 63.5758623 85.1426996 63.5758623 84.9626469 63.5758623 84.8245244 63.5190902 84.7301817 63.4209731 84.6364557 63.3234731 84.5865096 63.1827769 84.5865096 63.0136946 84.5865096 62.7551345 84.6833187 62.4990427 84.8374734 62.3083623 84.991628 62.1164478 85.2025116 61.9905617 85.4300439 61.9905617 85.5959143 61.9905617 85.7247876 62.0522706 85.812964 62.1571756 85.9011405 62.2620807 85.9480035 62.4107991 85.9480035 62.5854351 85.9480035 62.8415269 85.8604437 63.0889794 85.7161549 63.2728718M86.2217822 61.8338212C86.0750269 61.6672073 85.8585938 61.5715585 85.586665 61.5715585 85.428194 61.5715585 85.2758892 61.6277136 85.1402331 61.7165744 85.0138263 61.7986472 84.9090011 61.9097231 84.8220579 62.0294383L85.2493746 60.3009731C85.1124853 60.3947706 84.9940945 60.4651187 84.8091089 60.4651187 84.6290563 60.4651187 84.4434541 60.4317959 84.3016318 60.3923022 84.1598095 60.3657674 83.9902394 60.3324446 83.8268354 60.3324446 83.2428976 60.3324446 82.9974834 60.7977294 82.9974834 61.1766218 82.9974834 61.3370649 83.0332473 61.4728244 83.091826 61.6042642 82.9987166 61.5832832 82.8975912 61.5715585 82.7915328 61.5715585 82.5011054 61.5715585 82.2748064 61.6530142 82.1212683 61.7826028 81.9677303 61.9115744 81.8869533 62.0880617 81.8869533 62.2768908 81.8869533 62.4657199 81.9664971 62.6020965 82.0867377 62.7082358 82.2069783 62.814375 82.3666825 62.8921282 82.5294699 62.9649446 82.6589598 63.0217168 82.7822835 63.0747864 82.8716932 63.1371123 82.9167064 63.1685839 82.9537035 63.2019066 82.9789848 63.238932 83.0042662 63.2765744 83.0178318 63.3179193 83.0178318 63.3654351 83.0178318 63.4117168 83.0054994 63.4518275 82.9826845 63.4870016 82.9493871 63.538837 82.8926582 63.5789478 82.8223637 63.6054826 82.7508359 63.6326345 82.6657426 63.6455934 82.5750996 63.6455934 82.4086126 63.6462104 82.2519915 63.6079509 82.1453165 63.5548813 82.1095526 63.5345174 82.0842712 63.5190902 82.0645394 63.4999604 82.0953703 63.4604668 82.1163354 63.4024604 82.1163354 63.3493908 82.1163354 63.2771915 82.0885875 63.2105459 82.0417245 63.1617959 81.9942449 63.1130459 81.9270335 63.0828085 81.8499561 63.0828085 81.7697957 63.0828085 81.6988846 63.1161313 81.6483218 63.1716693 81.5977591 63.2272073 81.5675448 63.3043434 81.5675448 63.392587 81.5675448 63.5079826 81.6230405 63.6128877 81.7155333 63.7054509L81.7155333 63.706068C81.890653 63.8862579 82.2057451 64.005356 82.5646171 64.005356 82.8414789 64.005356 83.0739441 63.9417959 83.2379647 63.8196123 83.4019852 63.6968117 83.4963279 63.5160047 83.4963279 63.2839794 83.4963279 63.1007041 83.4180173 62.9643275 83.3002431 62.8569541 83.1818524 62.7489636 83.0246146 62.6687421 82.8642938 62.5959256 82.7292543 62.5335997 82.6040807 62.4768275 82.5128212 62.4138845 82.4665748 62.382413 82.4295776 62.3490902 82.4042963 62.3132991 82.3790149 62.2775079 82.3648327 62.2386313 82.3648327 62.1954351 82.3648327 62.1145965 82.4104625 62.0504193 82.4863066 62.0053718 82.5621506 61.9609415 82.668209 61.9362579 82.7865998 61.9362579 82.904374 61.9362579 83.0178318 61.9584731 83.0973756 61.9899446L83.0973756 61.9905617 83.0979922 61.9905617C83.1362226 62.0047547 83.1571876 62.0189478 83.1726031 62.0294383 83.1368392 62.0917642 83.1257401 62.1306408 83.1263567 62.1793908 83.1263567 62.3237896 83.2484472 62.4459731 83.3976689 62.4459731 83.4722797 62.4459731 83.5419576 62.4151187 83.5925204 62.361432 83.6430831 62.3083623 83.6745306 62.2318434 83.6745306 62.1417484 83.6745306 62.0312896 83.6252012 61.9214478 83.5376413 61.8338212L83.5376413 61.8332041C83.4870786 61.7813687 83.4235669 61.735087 83.3495726 61.6968275 83.2983933 61.5839003 83.2644793 61.4580142 83.2644793 61.3160839 83.2644793 60.8841218 83.5647725 60.6848022 83.8046372 60.6848022 83.9193282 60.6848022 84.0833488 60.6909731 84.2251711 60.7045491 84.3509613 60.7242959 84.5143652 60.7378718 84.6506379 60.7378718L84.6518712 60.7378718 83.8952801 63.9621598 84.3910415 63.9621598 84.4946334 63.4870016C84.5791102 63.7918434 84.8615215 64.005356 85.2025116 64.005356 85.5428851 64.005356 85.8542775 63.838125 86.0805765 63.5684573 86.3068755 63.2994066 86.4480812 62.9279193 86.4480812 62.5206408 86.4480812 62.2380142 86.3697706 62.0004351 86.2217822 61.8338212" mask="url(#plan_step1_icon-d)"/>
    <polygon fill="#FFF" points="106.114 37.065 107.324 37.065 107.215 37.533 106.005 37.533" mask="url(#plan_step1_icon-d)"/>
    <path fill="#FFF" d="M116.173107,35.2595174 L116.018336,35.2595174 C116.018336,37.0145174 115.307991,38.6016693 114.15923,39.7513054 C113.009853,40.9015585 111.42391,41.6118275 109.670864,41.6118275 C107.9172,41.6118275 106.331874,40.9015585 105.182497,39.7513054 C104.033736,38.6016693 103.323391,37.0145174 103.323391,35.2595174 C103.323391,33.5051345 104.033736,31.9179826 105.182497,30.7677294 C106.331874,29.6180934 107.9172,28.9072073 109.670864,28.9072073 C111.42391,28.9072073 113.009853,29.6180934 114.15923,30.7677294 C115.307991,31.9179826 116.018336,33.5051345 116.018336,35.2595174 L116.173107,35.2595174 L116.327878,35.2595174 C116.328495,33.4205934 115.583003,31.753837 114.37813,30.548663 C113.173874,29.3428718 111.509004,28.5968117 109.670864,28.5968117 C107.832723,28.5968117 106.167236,29.3428718 104.96298,30.548663 C103.758724,31.753837 103.013232,33.4205934 103.013232,35.2595174 C103.013232,37.0990585 103.758724,38.7658149 104.96298,39.9709889 C106.167236,41.176163 107.832723,41.9222231 109.670864,41.9222231 C111.509004,41.9222231 113.173874,41.176163 114.37813,39.9709889 C115.583003,38.7658149 116.328495,37.0990585 116.327878,35.2595174 L116.173107,35.2595174 Z" mask="url(#plan_step1_icon-d)"/>
    <path fill="#FFF" d="M111.017065 33.475144C110.899291 33.6250965 110.734654 33.7219794 110.549052 33.7219794 110.40168 33.7219794 110.288839 33.6763149 110.211761 33.5960934 110.135301 33.5158718 110.094604 33.4017104 110.094604 33.2634826 110.094604 33.0524383 110.173531 32.8432453 110.299321 32.6871218 110.425111 32.5309984 110.597148 32.4279446 110.783367 32.4285617 110.919023 32.4285617 111.024465 32.4785459 111.095992 32.5637041 111.168137 32.6494794 111.206367 32.7710459 111.206367 32.9135934 111.206367 33.1227864 111.134839 33.3251915 111.017065 33.475144M111.429583 32.3002073C111.309959 32.1638307 111.13299 32.0860775 110.911007 32.0860775 110.782134 32.0860775 110.657577 32.1317421 110.546585 32.2039415 110.44361 32.2712041 110.3579 32.3619161 110.286989 32.4600332L110.635378 31.0481345C110.524387 31.1252706 110.426961 31.1826598 110.27589 31.1826598 110.129134 31.1826598 109.977446 31.1555079 109.861522 31.1228022 109.745598 31.1012041 109.608092 31.0740522 109.474285 31.0740522 108.997639 31.0740522 108.796622 31.4541788 108.796622 31.7633402 108.796622 31.894163 108.826219 32.005856 108.873699 32.1126123 108.797855 32.0953339 108.715845 32.0860775 108.628901 32.0860775 108.391503 32.0860775 108.207134 32.1527231 108.081344 32.2582453 107.95617 32.3637674 107.890192 32.5075491 107.890192 32.6618212 107.890192 32.8160934 107.955554 32.9271693 108.05298 33.0135617 108.151639 33.1011883 108.281745 33.1641313 108.414935 33.2239889 108.520993 33.2702706 108.620885 33.3134668 108.694263 33.364068 108.73126 33.3899858 108.760858 33.4171377 108.781823 33.4479921 108.802171 33.4782294 108.813887 33.5121693 108.813887 33.5510459 108.813887 33.5886883 108.803404 33.621394 108.784906 33.6497801 108.757775 33.6923592 108.711528 33.7250649 108.653566 33.746663 108.596221 33.7688782 108.525926 33.7799858 108.451932 33.7799858 108.316276 33.7799858 108.188636 33.7491313 108.101076 33.705318 108.072095 33.6886566 108.05113 33.6763149 108.035098 33.6608877 108.060996 33.6287991 108.077028 33.5812832 108.077644 33.5374699 108.077644 33.4782294 108.054829 33.4239256 108.015982 33.384432 107.977752 33.3449383 107.92349 33.3202547 107.859978 33.3202547 107.794616 33.3202547 107.736654 33.3467896 107.695341 33.3924541 107.654027 33.4375016 107.629363 33.5010617 107.629363 33.572644 107.629363 33.6676756 107.674992 33.7528339 107.75022 33.8287358 107.893275 33.9762199 108.151022 34.0731028 108.443299 34.0731028 108.669598 34.0731028 108.859517 34.0212674 108.993323 33.9212991 109.127129 33.8219478 109.204207 33.6738465 109.204207 33.4844003 109.204207 33.3344478 109.140695 33.2233718 109.043886 33.1357453 108.947693 33.0475016 108.819437 32.9820902 108.688713 32.9222326 108.577722 32.8716313 108.475363 32.8253497 108.400752 32.7735142 108.363755 32.7475965 108.333541 32.7210617 108.313193 32.6914415 108.292228 32.6624383 108.281128 32.6309668 108.281128 32.5957927 108.281128 32.5291472 108.318126 32.4766946 108.379787 32.4402864 108.441449 32.4038782 108.527776 32.3841313 108.624585 32.3841313 108.720778 32.3841313 108.81327 32.4014098 108.878632 32.4279446L108.879249 32.4279446C108.910079 32.4396693 108.927345 32.451394 108.940294 32.4600332 108.910696 32.5106345 108.902063 32.5427231 108.902063 32.5822168 108.902063 32.7000807 109.001339 32.799432 109.124046 32.799432 109.185091 32.799432 109.24182 32.7747484 109.282517 32.7309351 109.323831 32.6877389 109.349729 32.625413 109.349729 32.5513623 109.349729 32.4612674 109.309648 32.3711725 109.238121 32.3002073L109.238121 32.3002073C109.196807 32.2570111 109.145011 32.2193687 109.084583 32.1885142 109.042652 32.096568 109.014905 31.9935142 109.014905 31.8775016 109.014905 31.5245269 109.260319 31.3616155 109.456404 31.3616155 109.55013 31.3616155 109.683319 31.3671693 109.799244 31.3782769 109.901602 31.3943212 110.035408 31.4054288 110.147016 31.4054288L110.147633 31.4054288 109.530398 34.0379288 109.9349 34.0379288 110.019376 33.6497801C110.088438 33.8990839 110.319053 34.0731028 110.597148 34.0731028 110.87586 34.0731028 111.129907 33.9367263 111.314275 33.7164256 111.499261 33.4967421 111.614569 33.1937516 111.614569 32.8605237 111.614569 32.6297326 111.55044 32.4359668 111.429583 32.3002073M113.472132 37.7761282L113.470282 37.7810649C113.426503 37.9020142 113.383339 37.9785332 113.343259 38.0248149 113.302562 38.0704794 113.264332 38.0859066 113.228568 38.0859066 113.192187 38.0859066 113.16444 38.0735649 113.144708 38.0507326 113.125593 38.0272832 113.114494 37.9939604 113.114494 37.9501472 113.114494 37.9162073 113.128059 37.8544984 113.141008 37.7977263L113.303795 37.2374098C113.334626 37.1269509 113.352508 37.0208117 113.352508 36.9276313 113.352508 36.7573149 113.295779 36.6209383 113.20267 36.528375 113.108944 36.4351946 112.978837 36.3852104 112.832082 36.3852104 112.700742 36.3852104 112.573102 36.4382801 112.459645 36.5246725 112.354819 36.604894 112.26171 36.7135016 112.188332 36.8344509L112.322755 36.4154478 111.932436 36.4154478 111.464422 38.3259541 111.862758 38.3259541 112.119271 37.2904794C112.167367 37.1016503 112.246295 36.9584858 112.34187 36.8622199 112.437446 36.7659541 112.549671 36.7172041 112.664979 36.7172041 112.749455 36.7172041 112.81975 36.744356 112.868463 36.7918718 112.917792 36.8387706 112.94554 36.9066503 112.94554 36.9893402 112.94554 37.0510491 112.936907 37.1078212 112.915326 37.1818718L112.752538 37.7551472C112.734656 37.8261123 112.721091 37.9100364 112.721091 37.9723623 112.721091 38.0840554 112.758088 38.1797041 112.827766 38.2482009 112.89806 38.3166978 113.000419 38.3568085 113.131759 38.3568085 113.249533 38.3568085 113.354975 38.3154636 113.442535 38.2303054 113.530094 38.1463813 113.601006 38.018644 113.652185 37.8458592L113.653418 37.8409225 113.472132 37.7761282z" mask="url(#plan_step1_icon-d)"/>
  </g>
</svg>
