<svg xmlns="http://www.w3.org/2000/svg" xmlns:xlink="http://www.w3.org/1999/xlink" width="100" height="119" viewBox="0 0 100 119">
  <defs>
    <polygon id="soup_s_innocence-a" points="0 119.273 80.319 119.273 80.319 0 0 0"/>
  </defs>
  <g fill="none" fill-rule="evenodd">
    <path fill="#CFBD9E" d="M76.5969455,11.6549955 C78.1381727,11.6549955 79.3868091,10.4063591 79.3868091,8.86513182 L79.3868091,3.72149545 C79.3868091,2.18213182 78.1381727,0.931631818 76.5969455,0.931631818 L3.72130909,0.931631818 C2.18008182,0.931631818 0.931445455,2.18213182 0.931445455,3.72149545 L0.931445455,8.86513182 C0.931445455,10.4063591 2.18008182,11.6549955 3.72130909,11.6549955 L5.52717273,11.6549955 L5.52717273,17.5627227 C5.52717273,17.5627227 0.931445455,17.6726773 0.931445455,22.48645 L0.931445455,107.835405 C0.931445455,113.638768 5.63526364,118.340723 11.4367636,118.340723 L39.9951273,118.340723 L40.3231273,118.340723 L68.8814909,118.340723 C74.6848545,118.340723 79.3868091,113.638768 79.3868091,107.835405 L79.3868091,22.48645 C79.3868091,17.6726773 74.7910818,17.5627227 74.7910818,17.5627227 L74.7910818,11.6549955 L76.5969455,11.6549955 Z"/>
    <path stroke="#CFBD9E" d="M76.5969455,11.6549955 C78.1381727,11.6549955 79.3868091,10.4063591 79.3868091,8.86513182 L79.3868091,3.72149545 C79.3868091,2.18213182 78.1381727,0.931631818 76.5969455,0.931631818 L3.72130909,0.931631818 C2.18008182,0.931631818 0.931445455,2.18213182 0.931445455,3.72149545 L0.931445455,8.86513182 C0.931445455,10.4063591 2.18008182,11.6549955 3.72130909,11.6549955 L5.52717273,11.6549955 L5.52717273,17.5627227 C5.52717273,17.5627227 0.931445455,17.6726773 0.931445455,22.48645 L0.931445455,107.835405 C0.931445455,113.638768 5.63526364,118.340723 11.4367636,118.340723 L39.9951273,118.340723 L40.3231273,118.340723 L68.8814909,118.340723 C74.6848545,118.340723 79.3868091,113.638768 79.3868091,107.835405 L79.3868091,22.48645 C79.3868091,17.6726773 74.7910818,17.5627227 74.7910818,17.5627227 L74.7910818,11.6549955 L76.5969455,11.6549955 Z"/>
    <mask id="soup_s_innocence-b" fill="#fff">
      <use xlink:href="#soup_s_innocence-a"/>
    </mask>
    <polygon fill="#FFF" points=".932 104.664 79.387 104.664 79.387 31.352 .932 31.352" mask="url(#soup_s_innocence-b)"/>
    <polygon fill="#B4B5B5" points="4.855 100.998 75.464 100.998 75.464 35.018 4.855 35.018" mask="url(#soup_s_innocence-b)"/>
    <path fill="#FFB8AC" d="M4.85421364,35.1252591 C23.6620318,35.1252591 38.9084409,49.8722136 38.9084409,68.0613045 C38.9084409,86.2522591 23.6620318,100.99735 4.85421364,100.99735 L4.85421364,35.1252591 Z" mask="url(#soup_s_innocence-b)"/>
    <path fill="#A5B6F3" d="M4.85421364,100.997536 C4.85421364,82.1133091 20.6820773,66.8054 40.2055318,66.8054 C59.7289864,66.8054 75.55685,82.1133091 75.55685,100.997536 L4.85421364,100.997536 Z" mask="url(#soup_s_innocence-b)"/>
    <path fill="#FFF" d="M24.8145045 95.9491318C24.5796864 96.2305409 24.2572773 96.4038591 23.9013227 96.4038591 23.63855 96.4038591 23.4055955 96.3125409 23.2378682 96.14295 23.0701409 95.9733591 22.9676409 95.7217682 22.9676409 95.40495 22.9676409 94.97445 23.1130045 94.5868136 23.3478227 94.3054045 23.5807773 94.0258591 23.90505 93.8544045 24.2610045 93.8544045 24.5237773 93.8544045 24.7567318 93.9457227 24.9244591 94.1153136 25.0903227 94.2830409 25.1928227 94.5327682 25.1928227 94.8477227 25.1928227 95.2782227 25.0474591 95.6677227 24.8145045 95.9491318M24.29455 93.2002682C23.6888682 93.2002682 23.1614591 93.4667682 22.7887318 93.8767682 22.4160045 94.2849045 22.1942318 94.8346773 22.1942318 95.40495 22.1942318 95.8429045 22.3451864 96.2547682 22.6303227 96.5566773 22.9135955 96.8585864 23.3329136 97.0505409 23.8659136 97.0505409 24.4734591 97.0505409 24.9990045 96.7840409 25.3717318 96.3759045 25.7463227 95.9677682 25.9680955 95.4198591 25.9680955 94.8551773 25.9680955 94.4116318 25.8171409 93.9979045 25.5320045 93.6959955 25.2468682 93.3922227 24.82755 93.2002682 24.29455 93.2002682M29.1797 95.9491318C28.9448818 96.2305409 28.6224727 96.4038591 28.2665182 96.4038591 28.0037455 96.4038591 27.7707909 96.3125409 27.6030636 96.14295 27.4353364 95.9733591 27.3347 95.7217682 27.3328364 95.40495 27.3328364 94.97445 27.4782 94.5868136 27.7130182 94.3054045 27.9459727 94.0258591 28.2702455 93.8544045 28.6262 93.8544045 28.8889727 93.8544045 29.1219273 93.9457227 29.2896545 94.1153136 29.4555182 94.2830409 29.5580182 94.5327682 29.5580182 94.8477227 29.5580182 95.2782227 29.4126545 95.6677227 29.1797 95.9491318M28.6597455 93.2002682C28.0540636 93.2002682 27.5285182 93.4667682 27.1539273 93.8767682 26.7812 94.2849045 26.5594273 94.8346773 26.5594273 95.40495 26.5594273 95.8429045 26.7103818 96.2547682 26.9955182 96.5566773 27.2787909 96.8585864 27.6981091 97.0505409 28.2311091 97.0505409 28.8386545 97.0505409 29.3642 96.7840409 29.7369273 96.3759045 30.1115182 95.9677682 30.3332909 95.4198591 30.3332909 94.8551773 30.3332909 94.4116318 30.1823364 93.9979045 29.8972 93.6959955 29.6120636 93.3922227 29.1946091 93.2002682 28.6597455 93.2002682M34.7260682 95.9135364L34.7223409 95.9228545C34.6366136 96.1576727 34.5546136 96.3067636 34.4744773 96.3962182 34.3962045 96.4856727 34.3216591 96.5154909 34.2527045 96.5154909 34.1818864 96.5154909 34.1278409 96.4912636 34.0905682 96.4465364 34.0514318 96.4018091 34.0309318 96.3365818 34.0309318 96.2527182 34.0309318 96.1856273 34.0570227 96.0663545 34.08125 95.9545364L34.3999318 94.8661727C34.4595682 94.6518545 34.4931136 94.4449909 34.4931136 94.2642182 34.4931136 93.9324909 34.3831591 93.6678545 34.2023864 93.4870818 34.01975 93.3063091 33.7662955 93.2075364 33.4811591 93.2075364 33.2258409 93.2075364 32.9779773 93.3119 32.7562045 93.4796273 32.5512045 93.6361727 32.3704318 93.8467636 32.2287955 94.0834455L32.4897045 93.2690364 31.7312045 93.2690364 30.8198864 96.9814 31.5951591 96.9814 32.0946136 94.9686727C32.1877955 94.6015364 32.3424773 94.3219909 32.5269773 94.1356273 32.7133409 93.9492636 32.9313864 93.8542182 33.1550227 93.8542182 33.3208864 93.8542182 33.4569318 93.9064 33.5519773 93.9995818 33.6470227 94.0909 33.7029318 94.2232182 33.7029318 94.3834909 33.7029318 94.5027636 33.6842955 94.6127182 33.6414318 94.7580818L33.3264773 95.8725364 33.3264773 95.8725364C33.2910682 96.0104455 33.2649773 96.1725818 33.2649773 96.2955818 33.2649773 96.5117636 33.3357955 96.6981273 33.4737045 96.8304455 33.6078864 96.9627636 33.8091591 97.0410364 34.0644773 97.0410364 34.2937045 97.0410364 34.4968409 96.9609 34.6682955 96.7969 34.83975 96.6329 34.9776591 96.3831727 35.0745682 96.0495818L35.0782955 96.0402636 34.7260682 95.9135364zM20.4148318 95.8945273C20.1856045 96.1833909 19.8687864 96.3716182 19.5091045 96.3716182 19.2239682 96.3716182 19.0059227 96.2821636 18.8586955 96.1274818 18.7077409 95.9728 18.6294682 95.7528909 18.6294682 95.4845273 18.6294682 95.0782545 18.78415 94.6738455 19.0264227 94.3719364 19.2705591 94.0700273 19.6022864 93.8724818 19.9619682 93.8724818 20.2247409 93.8724818 20.4278773 93.9675273 20.56765 94.1333909 20.7055591 94.2992545 20.7801045 94.5340727 20.7801045 94.8098909 20.7801045 95.2143 20.6421955 95.6038 20.4148318 95.8945273M21.2124682 93.6246182C20.9795136 93.3618455 20.6403318 93.2108909 20.2098318 93.2108909 19.9601045 93.2108909 19.7178318 93.2984818 19.5053773 93.4382545 19.3059682 93.5687091 19.1401045 93.7438909 19.0021955 93.9321182L19.6768318 91.2056182C19.46065 91.3528455 19.2742864 91.4646636 18.9816955 91.4646636 18.6984227 91.4646636 18.4039682 91.4124818 18.1803318 91.3491182 17.9566955 91.3081182 17.6901955 91.2540727 17.43115 91.2540727 16.50865 91.2540727 16.1210136 91.9883455 16.1210136 92.5865727 16.1210136 92.8400273 16.1787864 93.0543455 16.2701045 93.2612091 16.1228773 93.2276636 15.9644682 93.2108909 15.7967409 93.2108909 15.3364227 93.2108909 14.9804682 93.3394818 14.7381955 93.5426182 14.4959227 93.7457545 14.3673318 94.0253 14.3673318 94.3234818 14.3673318 94.6198 14.4940591 94.8359818 14.6822864 95.0037091 14.8723773 95.1714364 15.1258318 95.2925727 15.38115 95.4081182L15.3830136 95.4081182C15.5880136 95.4994364 15.7818318 95.5814364 15.9234682 95.6802091 15.9942864 95.7305273 16.0520591 95.7827091 16.0911955 95.8423455 16.1321955 95.9001182 16.1526955 95.9653455 16.1526955 96.0398909 16.1526955 96.1125727 16.1340591 96.1759364 16.09865 96.2318455 16.0446045 96.3138455 15.9570136 96.3772091 15.8451955 96.4200727 15.7315136 96.4610727 15.5973318 96.4834364 15.4538318 96.4834364 15.1910591 96.4834364 14.9450591 96.4238 14.7754682 96.3399364 14.7195591 96.3063909 14.6804227 96.2821636 14.6487409 96.2523455 14.6971955 96.1908455 14.7307409 96.0995273 14.7307409 96.0138 14.7307409 95.9001182 14.6860136 95.7957545 14.6114682 95.7193455 14.5369227 95.6429364 14.4325591 95.5944818 14.3095591 95.5944818 14.1828318 95.5944818 14.0710136 95.6466636 13.9908773 95.7342545 13.9107409 95.8218455 13.86415 95.9429818 13.86415 96.0827545 13.86415 96.2653909 13.9517409 96.4312545 14.0971045 96.5766182L14.0971045 96.5766182C14.3729227 96.8617545 14.8705136 97.0499818 15.4370591 97.0499818 15.8750136 97.0499818 16.24215 96.9493455 16.5011955 96.7555273 16.7602409 96.5635727 16.9093318 96.2784364 16.9093318 95.9113 16.9093318 95.6224364 16.7844682 95.4081182 16.5999682 95.2385273 16.4136045 95.0689364 16.1638773 94.9422091 15.9104227 94.8266636 15.6979682 94.7278909 15.5004227 94.6384364 15.3550591 94.5378 15.2842409 94.4893455 15.2246045 94.4371636 15.1854682 94.3812545 15.1444682 94.3234818 15.1239682 94.2638455 15.1239682 94.1948909 15.1239682 94.0663 15.1947864 93.9656636 15.3140591 93.8948455 15.4351955 93.8240273 15.6010591 93.7867545 15.7874227 93.7867545 15.97565 93.7867545 16.1526955 93.8203 16.2794227 93.8706182 16.3409227 93.8929818 16.3744682 93.9153455 16.3986955 93.9321182 16.3409227 94.0308909 16.32415 94.0923909 16.32415 94.1688 16.32415 94.3961636 16.5179682 94.5899818 16.7527864 94.5899818 16.8720591 94.5899818 16.9820136 94.5415273 17.0602864 94.4576636 17.1404227 94.3738 17.1907409 94.2526636 17.1907409 94.1091636 17.1907409 93.9358455 17.1124682 93.7606636 16.9745591 93.6227545 16.8944227 93.5407545 16.7937864 93.4680727 16.6782409 93.4084364 16.5962409 93.2295273 16.5440591 93.0301182 16.5440591 92.8064818 16.5440591 92.1262545 17.0174227 91.8113 17.3957409 91.8113 17.5783773 91.8113 17.8355591 91.8206182 18.0591955 91.8429818 18.2586045 91.8728 18.5157864 91.8951636 18.7319682 91.8951636L18.7338318 91.8951636 17.5392409 96.9810273 18.3201045 96.9810273 18.4841045 96.2318455C18.6182864 96.7126636 19.0655591 97.0499818 19.6022864 97.0499818 20.1408773 97.0499818 20.6328773 96.7853455 20.9906955 96.3604364 21.34665 95.9355273 21.5702864 95.3503455 21.5702864 94.7073909 21.5702864 94.2619818 21.4454227 93.8873909 21.2124682 93.6246182" mask="url(#soup_s_innocence-b)"/>
    <polygon fill="#FFF" points="52.622 54.544 54.532 54.544 54.362 55.282 52.45 55.282" mask="url(#soup_s_innocence-b)"/>
    <path fill="#FFF" d="M68.5054091,51.6959682 L68.2612727,51.6959682 C68.2612727,54.4634682 67.1393636,56.9681955 65.3241818,58.7833773 C63.5108636,60.5966955 61.0061364,61.7186045 58.2386364,61.7186045 C55.4692727,61.7186045 52.9664091,60.5966955 51.1512273,58.7833773 C49.3360455,56.9681955 48.216,54.4634682 48.216,51.6959682 C48.216,48.9266045 49.3360455,46.4218773 51.1512273,44.6085591 C52.9664091,42.7952409 55.4692727,41.6733318 58.2386364,41.6733318 C61.0061364,41.6733318 63.5108636,42.7952409 65.3241818,44.6085591 C67.1393636,46.4218773 68.2612727,48.9266045 68.2612727,51.6959682 L68.5054091,51.6959682 L68.7495455,51.6959682 C68.7495455,48.7924227 67.5735909,46.1646955 65.6708182,44.2619227 C63.7699091,42.3610136 61.1403182,41.1831955 58.2386364,41.1831955 C55.3369545,41.1831955 52.7055,42.3610136 50.8045909,44.2619227 C48.9018182,46.1646955 47.7258636,48.7924227 47.7258636,51.6959682 C47.7258636,54.59765 48.9018182,57.2272409 50.8045909,59.12815 C52.7055,61.0309227 55.3369545,62.2087409 58.2386364,62.2087409 C61.1403182,62.2087409 63.7699091,61.0309227 65.6708182,59.12815 C67.5735909,57.2272409 68.7495455,54.59765 68.7495455,51.6959682 L68.5054091,51.6959682 Z" mask="url(#soup_s_innocence-b)"/>
    <path fill="#FFF" d="M60.3637409 48.8794545C60.1773773 49.1161364 59.9183318 49.2689545 59.6257409 49.2689545 59.3927864 49.2689545 59.2138773 49.1962727 59.0927409 49.0714091 58.9716045 48.9446818 58.9082409 48.7639091 58.9082409 48.5458636 58.9082409 48.2122727 59.0331045 47.8824091 59.23065 47.6364091 59.4300591 47.3904091 59.70215 47.2282727 59.9947409 47.2282727 60.2090591 47.2282727 60.3749227 47.3065455 60.4886045 47.4425909 60.6022864 47.5767727 60.6637864 47.7687273 60.6637864 47.9942273 60.6637864 48.3240909 60.5501045 48.6427727 60.3637409 48.8794545M61.0160136 47.0251364C60.8259227 46.8108182 60.5482409 46.6878182 60.1978773 46.6878182 59.9928773 46.6878182 59.7953318 46.7605 59.6220136 46.8741818 59.4580136 46.9804091 59.3238318 47.1239091 59.21015 47.2785909L59.7617864 45.0515455C59.5866045 45.1726818 59.4319227 45.264 59.1952409 45.264 58.9622864 45.264 58.7237409 45.2192727 58.5392409 45.1689545 58.3566045 45.1335455 58.1385591 45.0906818 57.9279682 45.0906818 57.1750591 45.0906818 56.8582409 45.6907727 56.8582409 46.1790455 56.8582409 46.3859091 56.9048318 46.5610909 56.9812409 46.7306818 56.8601045 46.7045909 56.72965 46.6878182 56.5936045 46.6878182 56.2190136 46.6878182 55.9264227 46.7940455 55.7288773 46.9599091 55.5313318 47.1257727 55.4269682 47.3531364 55.4269682 47.5972727 55.4269682 47.8395455 55.5294682 48.0147273 55.68415 48.1526364 55.8388318 48.2905455 56.0456955 48.3893182 56.2544227 48.4843636 56.42215 48.5570455 56.5805591 48.6241364 56.6961045 48.7042727 56.7538773 48.7452727 56.8023318 48.7881364 56.8340136 48.8365909 56.8675591 48.8850455 56.8843318 48.9372273 56.8843318 48.9987273 56.8843318 49.0583636 56.8694227 49.1105455 56.8396045 49.1552727 56.7967409 49.2223636 56.7240591 49.2745455 56.6327409 49.3080909 56.5414227 49.3435 56.4314682 49.3602727 56.3140591 49.3602727 56.0997409 49.3602727 55.8984682 49.3118182 55.7605591 49.2428636 55.7139682 49.2167727 55.6822864 49.1962727 55.6561955 49.1720455 55.6953318 49.1217273 55.7214227 49.0471818 55.7214227 48.9782273 55.7214227 48.8850455 55.6860136 48.7993182 55.6263773 48.7359545 55.5648773 48.6744545 55.47915 48.6353182 55.3785136 48.6353182 55.2760136 48.6353182 55.1846955 48.6781818 55.1194682 48.749 55.0542409 48.8198182 55.0151045 48.9204545 55.0151045 49.0341364 55.0151045 49.1832273 55.0859227 49.3174091 55.2051955 49.4366818 55.4325591 49.6696364 55.8369682 49.8243182 56.29915 49.8243182 56.6569682 49.8243182 56.9570136 49.7404545 57.1694682 49.5839091 57.3800591 49.4255 57.5011955 49.1925455 57.5011955 48.8943636 57.5011955 48.6576818 57.4005591 48.4825 57.2496045 48.3445909 57.0967864 48.2048182 56.89365 48.1023182 56.6867864 48.0072727 56.5134682 47.9271364 56.3513318 47.8544545 56.2339227 47.7724545 56.1742864 47.7314545 56.1276955 47.6904545 56.09415 47.6438636 56.0606045 47.5972727 56.0438318 47.5488182 56.0438318 47.4910455 56.0438318 47.3866818 56.1016045 47.3046818 56.2003773 47.2469091 56.2972864 47.1891364 56.4333318 47.1593182 56.58615 47.1593182 56.7389682 47.1593182 56.8843318 47.1854091 56.9868318 47.2282727 57.03715 47.2469091 57.0632409 47.2636818 57.0856045 47.2785909 57.0390136 47.3587273 57.0241045 47.4090455 57.0241045 47.4705455 57.0241045 47.6569091 57.18065 47.8134545 57.3744682 47.8134545 57.4713773 47.8134545 57.5608318 47.7743182 57.6260591 47.7072273 57.6912864 47.6364091 57.7322864 47.5395 57.7322864 47.4220909 57.7322864 47.2804545 57.6689227 47.1388182 57.5552409 47.0251364 57.4900136 46.9580455 57.4080136 46.9002727 57.3129682 46.8499545 57.2458773 46.7045909 57.2030136 46.5424545 57.2030136 46.3579545 57.2030136 45.8025909 57.59065 45.5454091 57.9000136 45.5454091 58.0472409 45.5454091 58.2596955 45.5547273 58.4423318 45.5715 58.6026045 45.5975909 58.8131955 45.6143636 58.9902409 45.6143636L58.9921045 45.6143636 58.0174227 49.7684091 58.6547864 49.7684091 58.7889682 49.1552727C58.8970591 49.5485 59.2623318 49.8243182 59.70215 49.8243182 60.1401045 49.8243182 60.54265 49.6081364 60.8333773 49.2615 61.1259682 48.9148636 61.3067409 48.4359091 61.3067409 47.9103636 61.3067409 47.5469545 61.2061045 47.2413182 61.0160136 47.0251364M64.2402909 55.6660727L64.2384273 55.6735273C64.1676091 55.8636182 64.1005182 55.9847545 64.0371545 56.0574364 63.9719273 56.1301182 63.9122909 56.1543455 63.8545182 56.1543455 63.7986091 56.1543455 63.7538818 56.1338455 63.7240636 56.0984364 63.6942455 56.0630273 63.6756091 56.0089818 63.6756091 55.9400273 63.6756091 55.8878455 63.6961091 55.7890727 63.7184727 55.6996182L63.9737909 54.8162545C64.0241091 54.6429364 64.0520636 54.4752091 64.0520636 54.3279818 64.0520636 54.0577545 63.9626091 53.8434364 63.8135182 53.6962091 63.6662909 53.5489818 63.4612909 53.4707091 63.2302 53.4707091 63.0233364 53.4707091 62.8202 53.5545727 62.6412909 53.6906182 62.4754273 53.8173455 62.3282 53.9888 62.2145182 54.1807545L62.4251091 53.5191636 61.8082455 53.5191636 61.0702455 56.5326636 61.7001545 56.5326636 62.1045636 54.9001182C62.1809727 54.6019364 62.3058364 54.3764364 62.4549273 54.2236182 62.6077455 54.0726636 62.7829273 53.9962545 62.9655636 53.9962545 63.0997455 53.9962545 63.2097 54.0372545 63.2879727 54.1136636 63.3643818 54.1882091 63.4091091 54.2944364 63.4091091 54.4248909 63.4091091 54.5218 63.3960636 54.6112545 63.3606545 54.7286636L63.1034727 55.6325273C63.0755182 55.7443455 63.0550182 55.8766636 63.0550182 55.9754364 63.0550182 56.1506182 63.1127909 56.3034364 63.2227455 56.4096636 63.3345636 56.5196182 63.4967 56.5811182 63.7017 56.5811182 63.8899273 56.5811182 64.0539273 56.5177545 64.1937 56.3835727 64.3316091 56.2493909 64.4434273 56.0481182 64.5235636 55.7760273L64.5272909 55.7685727 64.2402909 55.6660727z" mask="url(#soup_s_innocence-b)"/>
  </g>
</svg>
