<svg xmlns="http://www.w3.org/2000/svg" xmlns:xlink="http://www.w3.org/1999/xlink" width="80" height="80" viewBox="0 0 80 80">
  <defs>
    <polygon id="soup_icon_10-a" points="71.562 41.664 71.562 .105 0 .105 0 41.664"/>
  </defs>
  <g fill="none" fill-rule="evenodd" transform="translate(4 2)">
    <g transform="translate(0 33.899)">
      <mask id="soup_icon_10-b" fill="#fff">
        <use xlink:href="#soup_icon_10-a"/>
      </mask>
      <path fill="#FFB8AC" d="M65.0488,21.0178 C63.6408,23.4488 61.2098,25.5098 58.2048,26.8228 C57.2148,27.2548 56.2308,27.5858 55.2128,27.8148 C56.6468,24.1298 57.4368,20.0818 57.4368,15.9418 L57.4368,10.9848 C61.2728,10.7658 64.6638,12.2518 65.8128,14.8818 C66.5958,16.6728 66.3038,18.8518 65.0488,21.0178 L65.0488,21.0178 Z M52.0018,15.9418 C52.0018,20.3348 51.0148,24.5918 49.1398,28.2348 C47.3368,31.7378 44.7808,34.4168 41.7128,36.3348 L17.8078,36.3348 C14.4638,34.3108 11.4438,31.4618 9.2098,28.0078 C6.7238,24.1638 5.4348,19.9858 5.4348,15.9418 L5.4348,5.3258 L52.0018,5.3258 L52.0018,15.9418 Z M70.6648,12.7488 C69.4998,10.0828 67.3558,8.0298 64.4028,6.8108 C62.2968,5.9418 59.8878,5.5518 57.4368,5.6518 L57.4368,2.7478 C57.4368,1.2768 56.1468,0.1048 54.6748,0.1048 L2.7198,0.1048 C1.2488,0.1048 -0.0002,1.2768 -0.0002,2.7478 L-0.0002,15.9418 C-0.0002,21.0148 1.6368,26.1848 4.6818,30.8928 C7.5228,35.2848 11.4938,38.9988 15.8388,41.3368 C16.2268,41.5458 16.6748,41.6638 17.1148,41.6638 L42.4098,41.6638 C42.8518,41.6638 43.2938,41.5458 43.6818,41.3368 C47.0458,39.5268 49.9548,36.8508 52.2148,33.5128 C54.9158,33.4748 57.7118,32.8538 60.3378,31.7078 C64.3758,29.9438 67.6868,27.0958 69.6598,23.6908 C71.7858,20.0198 72.1438,16.1338 70.6648,12.7488 L70.6648,12.7488 Z" mask="url(#soup_icon_10-b)"/>
    </g>
    <path fill="#FFB8AC" d="M27.6538 27.3867C25.9388 25.9957 24.4468 24.0277 24.8958 21.6787 25.2098 19.3317 27.4868 16.6037 30.0048 13.6937 32.5218 10.7827 34.2878 8.0547 33.7588 5.7067 33.3638 3.3597 30.6968 1.3907 27.6538-.0003 29.3288 1.3907 30.8208 3.3597 30.3818 5.7067 30.0778 8.0547 27.8208 10.7827 25.3028 13.6937 22.7858 16.6037 20.9998 19.3317 21.5188 21.6787 21.9038 24.0277 24.5708 25.9957 27.6538 27.3867M34.8594 22.4765C32.9744 24.5885 31.6374 26.5675 32.0274 28.2715 32.3154 29.9755 34.3114 31.4025 36.6194 32.4125 35.3364 31.4025 34.2184 29.9755 34.5544 28.2715 34.7894 26.5675 36.4944 24.5885 38.3794 22.4765 40.2634 20.3645 41.5864 18.3855 41.1894 16.6815 40.8934 14.9775 38.8974 13.5495 36.6194 12.5405 37.8734 13.5495 38.9904 14.9775 38.6624 16.6815 38.4344 18.3855 36.7444 20.3645 34.8594 22.4765"/>
    <polygon fill="#A5B6F3" points="28.816 57.988 10.32 76.484 4.901 71.065 23.397 52.569 4.901 34.075 10.32 28.656 28.816 47.15 47.311 28.656 52.73 34.075 34.235 52.569 52.73 71.065 47.312 76.485"/>
    <path fill="#FFF" d="M47.3105,27.2417 L45.8965,28.6557 L28.8155,45.7367 L11.7345,28.6557 L10.3205,27.2417 L8.9065,28.6557 L4.9015,32.6607 L3.4865,34.0747 L4.9015,35.4897 L21.9825,52.5697 L4.9015,69.6507 L3.4865,71.0657 L4.9015,72.4797 L8.9065,76.4847 L10.3205,77.8987 L11.7345,76.4847 L28.8165,59.4027 L45.8975,76.4847 L47.3125,77.8987 L48.7265,76.4837 L52.7295,72.4787 L54.1435,71.0647 L52.7295,69.6507 L35.6495,52.5697 L52.7295,35.4897 L54.1435,34.0747 L52.7295,32.6607 L48.7245,28.6557 L47.3105,27.2417 Z M47.3105,30.0707 L51.3155,34.0747 L32.8215,52.5697 L51.3155,71.0657 L47.3115,75.0697 L28.8165,56.5747 L10.3205,75.0697 L6.3155,71.0657 L24.8105,52.5697 L6.3155,34.0747 L10.3205,30.0707 L28.8165,48.5647 L47.3105,30.0707 Z"/>
  </g>
</svg>
