<svg xmlns="http://www.w3.org/2000/svg" width="80" height="80" viewBox="0 0 80 80">
  <g fill="none" fill-rule="evenodd" transform="translate(4 3)">
    <path fill="#FFB8AC" d="M20.0502,33.6815 C19.0372,34.4735 17.6502,35.5575 17.6502,38.0025 C17.6502,40.3705 18.9392,41.6255 19.9752,42.6345 C20.9982,43.6305 21.8072,44.3895 21.8072,46.2785 C21.8072,48.4045 20.7962,49.8695 19.7072,51.2575 L17.8462,51.2575 C18.1842,50.4535 18.4022,49.4355 18.4022,48.2725 C18.4022,45.1715 16.8072,43.6765 15.6432,42.5945 C14.6982,41.7165 14.2442,41.2465 14.2442,40.3225 C14.2442,39.5125 14.5432,39.2475 15.4872,38.5425 C16.6482,37.6765 18.4022,36.3645 18.4022,33.0045 C18.4022,31.5755 18.0872,30.1075 17.6262,28.7235 C18.9062,28.4315 20.1872,28.1395 21.4662,27.8485 C21.6912,28.7515 21.8072,29.5915 21.8072,30.3485 C21.8072,32.3085 21.1082,32.8545 20.0502,33.6815 L20.0502,33.6815 Z M11.9142,51.2575 C11.9332,51.1115 11.9452,50.8365 11.9452,50.5995 C11.9452,47.6275 10.3502,46.1685 9.1852,45.1315 C8.2402,44.2895 7.7862,43.8525 7.7862,42.9665 C7.7862,42.1905 8.0852,41.9425 9.0292,41.2675 C10.1902,40.4365 11.9452,39.1835 11.9452,35.9635 C11.9452,34.0515 11.3322,32.0695 10.5622,30.3305 C12.0072,30.0015 13.4522,29.6725 14.8972,29.3435 C15.3802,30.6975 15.6302,31.9365 15.6302,33.0035 C15.6302,34.8765 14.9312,35.3985 13.8732,36.1875 C12.8612,36.9445 11.4732,37.9805 11.4732,40.3155 C11.4732,42.5785 12.7632,43.7775 13.7992,44.7415 C14.8212,45.6925 15.6302,46.4175 15.6302,48.2215 C15.6302,49.4285 15.2732,50.4535 14.7542,51.2575 L11.9142,51.2575 Z M8.7032,26.8845 C10.0622,26.2615 11.4212,25.6375 12.7792,25.0145 C13.0752,25.4985 13.4092,26.0765 13.7402,26.7165 C13.8452,26.9165 13.9432,27.1155 14.0382,27.3125 C12.5702,27.6935 11.1012,28.0755 9.6322,28.4555 C9.3112,27.8705 8.9922,27.3405 8.7032,26.8845 L8.7032,26.8845 Z M19.0462,22.1405 C19.3192,22.6145 19.6192,23.1635 19.9172,23.7675 C20.2242,24.3865 20.4932,24.9915 20.7272,25.5785 C19.4142,25.9195 18.1022,26.2595 16.7892,26.5995 C16.3172,25.5555 15.8042,24.6115 15.3462,23.8375 C16.5792,23.2715 17.8132,22.7055 19.0462,22.1405 L19.0462,22.1405 Z M63.5532,17.6345 C63.3602,16.8415 63.1662,16.0495 62.9742,15.2565 C62.8942,14.9275 62.6332,14.7125 62.3852,14.7765 C49.4082,18.1415 36.4342,21.5065 23.4582,24.8705 C22.9062,23.3835 22.2322,22.0275 21.6342,20.9525 C33.8792,15.3375 46.1222,9.7215 58.3682,4.1045 C58.6012,3.9985 58.6672,3.6665 58.5222,3.3615 C58.1702,2.6255 57.8202,1.8885 57.4682,1.1525 C57.3222,0.8475 57.0242,0.6895 56.7942,0.8035 C44.6472,6.8185 32.5002,12.8335 20.3542,18.8485 C20.2312,18.6645 20.1512,18.5515 20.1292,18.5215 C19.6592,17.8615 18.7892,17.7435 18.1862,18.2555 C17.6572,18.7035 17.5072,19.4865 17.7912,20.1175 C16.5682,20.7235 15.3432,21.3295 14.1192,21.9355 C14.0292,21.8085 13.9712,21.7285 13.9522,21.7045 C13.4832,21.0745 12.6132,20.9605 12.0092,21.4505 C11.4932,21.8685 11.3402,22.5905 11.5962,23.1845 C10.2432,23.8545 8.8922,24.5245 7.5392,25.1945 C7.5182,25.1665 7.5032,25.1465 7.4952,25.1365 C7.0262,24.5325 6.1552,24.4235 5.5512,24.8925 C5.0792,25.2605 4.9102,25.8715 5.0832,26.4105 C4.7342,26.5835 4.3842,26.7565 4.0342,26.9295 C3.8052,27.0435 3.6802,27.2635 3.7542,27.4195 C3.9362,27.7995 4.1162,28.1795 4.2972,28.5585 C4.3722,28.7155 4.6212,28.7565 4.8552,28.6495 C5.2882,28.4505 5.7222,28.2515 6.1562,28.0525 C6.3682,28.3765 6.6072,28.7555 6.8532,29.1765 C6.3672,29.3025 5.8812,29.4285 5.3962,29.5545 C5.1482,29.6195 4.9802,29.8075 5.0222,29.9765 C5.1212,30.3855 5.2202,30.7935 5.3202,31.2025 C5.3612,31.3705 5.5972,31.4615 5.8462,31.4055 C6.4982,31.2565 7.1502,31.1085 7.8012,30.9605 C8.6992,32.8465 9.1722,34.5605 9.1722,35.9645 C9.1722,37.7605 8.4742,38.2605 7.4162,39.0165 C6.4032,39.7425 5.0152,40.7355 5.0152,42.9735 C5.0152,45.1415 6.3052,46.2905 7.3412,47.2145 C8.3642,48.1255 9.1722,48.8705 9.1722,50.5995 C9.1722,50.8395 9.1562,51.1115 9.1272,51.2575 L2.4132,51.2575 C1.1942,51.2575 0.2982,51.9295 0.4122,52.7255 C1.4322,60.0045 2.4502,67.2815 3.4702,74.5605 C3.5842,75.3565 4.4492,75.9995 5.4032,75.9995 L27.3212,75.9995 C28.2742,75.9995 29.1392,75.3695 29.2532,74.5735 C30.2732,67.2945 31.2912,59.9965 32.3112,52.7185 C32.4252,51.9215 31.5292,51.2575 30.3102,51.2575 L23.1722,51.2575 C23.9502,49.9435 24.5782,48.3745 24.5782,46.3045 C24.5782,43.0585 22.9842,41.5065 21.8202,40.3735 C20.8752,39.4545 20.4212,38.9705 20.4212,38.0015 C20.4212,37.1545 20.7202,36.8805 21.6632,36.1425 C22.8242,35.2355 24.5782,33.8655 24.5782,30.3485 C24.5782,29.3135 24.4282,28.2595 24.1832,27.2285 C37.2052,24.2635 50.2272,21.2965 63.2502,18.3305 C63.5002,18.2735 63.6322,17.9635 63.5532,17.6345 L63.5532,17.6345 Z" transform="translate(9 .234)"/>
    <polygon fill="#A5B6F3" points="25.329 55.393 6.833 73.889 1.415 68.47 19.91 49.974 1.415 31.48 6.833 26.061 25.329 44.555 43.824 26.061 49.242 31.48 30.748 49.974 49.242 68.47 43.825 73.89"/>
    <path fill="#FFF" d="M43.8236,24.6464 L42.4096,26.0604 L25.3296,43.1414 L8.2476,26.0604 L6.8336,24.6464 L5.4196,26.0604 L1.4146,30.0654 L0.0006,31.4794 L1.4146,32.8944 L18.4956,49.9744 L1.4146,67.0554 L0.0006,68.4704 L1.4146,69.8844 L5.4196,73.8894 L6.8336,75.3034 L8.2476,73.8894 L25.3296,56.8074 L42.4106,73.8894 L43.8256,75.3034 L45.2396,73.8884 L49.2426,69.8834 L50.6566,68.4694 L49.2426,67.0554 L32.1626,49.9744 L49.2426,32.8944 L50.6566,31.4794 L49.2426,30.0654 L45.2376,26.0604 L43.8236,24.6464 Z M43.8236,27.4754 L47.8286,31.4794 L29.3346,49.9744 L47.8286,68.4704 L43.8246,72.4744 L25.3296,53.9794 L6.8336,72.4744 L2.8286,68.4704 L21.3246,49.9744 L2.8286,31.4794 L6.8336,27.4754 L25.3296,45.9694 L43.8236,27.4754 Z"/>
  </g>
</svg>
