<svg xmlns="http://www.w3.org/2000/svg" width="80" height="80" viewBox="0 0 80 80">
  <path fill="#A5B6F3" fill-rule="evenodd" d="M373.2978,859.239 C372.0688,858.447 371.1728,857.201 370.9158,855.762 C370.7928,855.073 371.2128,853.79 371.5548,853.289 L371.7528,853 C372.0558,853.169 383.5478,858.748 387.7638,860.935 C388.3128,861.22 388.6138,861.768 388.6228,862.331 C388.7698,863.025 388.6018,863.862 388.0628,864.746 C387.3018,865.992 383.8018,871.022 381.0348,874.971 C380.5038,874.385 379.8118,873.918 378.9718,873.612 C377.5718,873.1 374.3278,872.873 372.5688,872.785 C372.7558,872.534 372.9508,872.289 373.1568,872.053 L380.3808,863.765 L373.2978,859.239 Z M361.2304,871.1833 C357.9554,868.3903 357.5644,863.4703 360.3584,860.1953 C363.1514,856.9203 368.0714,856.5303 371.3464,859.3233 C374.6214,862.1173 375.0114,867.0373 372.2174,870.3113 C369.4244,873.5863 364.5044,873.9763 361.2304,871.1833 Z M349.79,866.9719 C344.908,867.8589 343,863.8409 343,863.8409 C350.647,865.0549 348.376,856.4329 353.617,855.9159 C358.498,855.4339 359.299,860.4629 359.299,860.4629 C359.061,859.6239 355.555,858.0509 354.308,861.3299 C353.548,863.3289 353.663,866.2679 349.79,866.9719 Z M373.749,875.301 C374.597,874.993 374.77,874.567 374.74,874.224 C376.325,874.362 377.811,874.561 378.53,874.823 C379.218,875.074 379.834,875.492 380.266,876.069 C380.35,876.18 380.437,876.288 380.506,876.411 C381.241,877.758 381.012,878.81 381.012,878.81 L384.554,883.272 L382.234,885.405 L377.499,889.762 L376.576,890.612 L369.861,883.902 C370.646,883.36 371.43,882.649 371.976,881.757 C372.6,880.739 372.911,879.491 372.521,877.981 C372.239,876.887 371.728,876.032 371.007,875.42 C371.349,875.452 371.687,875.473 372.013,875.482 C372.521,875.495 372.992,875.473 373.374,875.4 C373.511,875.373 373.638,875.342 373.749,875.301 Z M348.2617,903.926 C348.2617,895.162 355.3657,888.057 364.1307,888.057 C372.8947,888.057 379.9997,895.162 379.9997,903.926 C379.9997,912.69 372.8947,919.795 364.1307,919.795 C355.3657,919.795 348.2617,912.69 348.2617,903.926 Z M369.708,876.0149 C370.502,876.4459 371.046,877.2109 371.324,878.2899 C371.898,880.5179 370.401,882.0719 368.972,883.0129 C368.94,883.0329 368.909,883.0549 368.879,883.0739 C368.492,883.2379 368.102,883.4039 367.706,883.5709 C366.244,884.1899 364.745,884.8209 363.373,885.3939 C361.011,886.3809 359.029,887.1919 358.287,887.4529 C357.229,887.8259 356.315,887.7819 355.652,887.4189 C354.938,887.2809 354.37,886.6699 354.354,885.8869 C354.281,882.2839 354.246,874.1409 354.226,870.2669 C354.219,869.0359 354.214,868.2309 354.21,868.1479 L354.558,868.0979 C355.157,868.0129 356.494,868.2039 357.057,868.6189 C358.234,869.4859 358.954,870.8419 359.121,872.2939 L359.797,877.7649 L359.968,879.1479 L363.373,877.2429 L365.504,876.0519 L365.762,875.9079 C365.795,875.8889 365.831,875.8729 365.864,875.8549 C366.029,875.8049 366.691,875.6169 367.507,875.5829 C368.203,875.5539 369.009,875.6359 369.708,876.0149 Z M386.1689,884.529 C387.2449,884.838 388.5559,884.573 390.0359,884.593 C396.8899,884.682 402.6419,884.247 405.7859,884.775 C406.9929,884.978 407.8669,886.04 407.8739,887.226 C407.9059,887.234 407.9269,887.239 407.9269,887.239 C408.0559,887.38 407.9659,914.36 407.9869,914.914 L407.5239,914.974 C406.7239,915.078 404.9449,914.803 404.2009,914.241 C402.6469,913.068 401.7079,911.251 401.5079,909.314 L399.9239,893.986 C399.9359,893.932 399.9489,893.883 399.9609,893.831 L390.9269,895.923 C386.3469,896.745 383.0469,896.983 378.9419,893.001 C378.6449,892.713 378.3449,892.407 378.0379,892.073 L377.4509,891.487 L377.7859,891.178 L382.5049,886.837 L385.4049,884.169 C385.6439,884.333 385.8979,884.451 386.1689,884.529 Z" transform="translate(-335 -840)"/>
</svg>
