<svg xmlns="http://www.w3.org/2000/svg" width="19" height="19" viewBox="0 0 19 19">
  <path fill="#FFB8AC" fill-rule="evenodd" d="M16.1635484,8.78199194 L19.1635484,8.78199194 C19.5119355,8.78199194 19.8216129,9.05295968 19.8216129,9.42070161 C19.8216129,9.76908871 19.5119355,10.0400565 19.1635484,10.0400565 L16.1635484,10.0400565 C15.7982258,10.0400565 15.5079032,9.76908871 15.5079032,9.42070161 C15.5079032,9.05295968 15.7982258,8.78199194 16.1635484,8.78199194 M14.9248387,13.0182823 L17.053871,15.1473145 C17.1893548,15.2827984 17.2474194,15.4352177 17.2474194,15.6118306 C17.2474194,15.9771532 16.9183871,16.2674758 16.5917742,16.2674758 C16.4151613,16.2674758 16.2603226,16.1900565 16.1248387,16.0545726 L14.0175806,13.9473145 C13.8820968,13.8118306 13.8046774,13.6569919 13.8046774,13.4827984 C13.8046774,13.1150565 14.1337097,12.8247339 14.4627419,12.8247339 C14.6369355,12.8247339 14.7917742,12.8827984 14.9248387,13.0182823 M17.053871,3.67473387 L14.9248387,5.80376613 C14.7917742,5.93925 14.6369355,6.01666935 14.4627419,6.01666935 C14.095,6.01666935 13.8046774,5.66828226 13.8046774,5.33925 C13.8046774,5.16505645 13.8820968,5.01021774 14.0175806,4.87473387 L16.1248387,2.76747581 C16.2603226,2.63199194 16.4151613,2.57392742 16.5917742,2.57392742 C16.9570968,2.57392742 17.2474194,2.88360484 17.2474194,3.21021774 C17.2474194,3.38683065 17.1893548,3.53925 17.053871,3.67473387 M11.0587097,15.1666694 L11.0587097,18.16425 C11.0587097,18.5319919 10.7683871,18.8223145 10.4006452,18.8223145 C10.0522581,18.8223145 9.74258065,18.5319919 9.74258065,18.16425 L9.74258065,15.1666694 C9.74258065,14.7989274 10.0522581,14.5086048 10.4006452,14.5086048 C10.7683871,14.5086048 11.0587097,14.7989274 11.0587097,15.1666694 M11.0587097,0.657798387 L11.0587097,3.65537903 C11.0587097,4.02312097 10.7683871,4.31344355 10.4006452,4.31344355 C10.0522581,4.31344355 9.74258065,4.02312097 9.74258065,3.65537903 L9.74258065,0.657798387 C9.74258065,0.290056452 10.0522581,-0.000266129032 10.4006452,-0.000266129032 C10.7683871,-0.000266129032 11.0587097,0.290056452 11.0587097,0.657798387 M10.4006452,11.8569919 C11.695,11.8569919 12.7401613,10.7755403 12.7401613,9.42070161 C12.7401613,8.0658629 11.695,6.98199194 10.4006452,6.98199194 C9.10387097,6.98199194 8.05870968,8.0658629 8.05870968,9.42070161 C8.05870968,10.7755403 9.10387097,11.8569919 10.4006452,11.8569919 M10.4006452,5.74570161 C12.4304839,5.74570161 14.0562903,7.38844355 14.0562903,9.42070161 C14.0562903,11.4336048 12.4304839,13.0763468 10.4006452,13.0763468 C8.38774194,13.0763468 6.74258065,11.4336048 6.74258065,9.42070161 C6.74258065,7.38844355 8.38774194,5.74570161 10.4006452,5.74570161 M6.80306452,13.9473145 L4.67403226,16.0545726 C4.53854839,16.1900565 4.38370968,16.248121 4.21193548,16.248121 C3.82241935,16.248121 3.55145161,15.9577984 3.55145161,15.6118306 C3.55145161,15.4352177 3.61193548,15.2827984 3.745,15.1473145 L5.8933871,13.0182823 C6.02887097,12.8827984 6.20306452,12.8247339 6.37725806,12.8247339 C6.74258065,12.8247339 6.9966129,13.1537661 6.9966129,13.4827984 C6.9966129,13.6569919 6.93854839,13.8311855 6.80306452,13.9473145 M4.67403226,2.76747581 L6.80306452,4.87473387 C6.93854839,4.9908629 6.9966129,5.16505645 6.9966129,5.33925 C6.9966129,5.70699194 6.68693548,6.01666935 6.35548387,6.01666935 C6.18370968,6.01666935 6.02887097,5.91989516 5.8933871,5.80376613 L3.745,3.67473387 C3.61193548,3.55860484 3.55145161,3.38683065 3.55145161,3.21021774 C3.55145161,2.84247581 3.86112903,2.57392742 4.21193548,2.57392742 C4.38370968,2.57392742 4.53854839,2.63199194 4.67403226,2.76747581 M4.65467742,10.0400565 L1.65709677,10.0400565 C1.28935484,10.0400565 0.999032258,9.76908871 0.999032258,9.42070161 C0.999032258,9.05295968 1.28935484,8.78199194 1.65709677,8.78199194 L4.65467742,8.78199194 C5.02241935,8.78199194 5.31274194,9.05295968 5.31274194,9.42070161 C5.31274194,9.76908871 5.02241935,10.0400565 4.65467742,10.0400565" transform="translate(-1)"/>
</svg>
