<svg xmlns="http://www.w3.org/2000/svg" xmlns:xlink="http://www.w3.org/1999/xlink" width="100" height="119" viewBox="0 0 100 119">
  <defs>
    <polygon id="soup_s_icon2-a" points="0 .58 0 101.647 61.86 101.647 61.86 .58 0 .58"/>
    <polygon id="soup_s_icon2-c" points="0 110.422 80.852 110.422 80.852 1 0 1"/>
  </defs>
  <g fill="none" fill-rule="evenodd" transform="translate(0 -1)">
    <path fill="#FFB8AC" d="M46.5478 61.4845C44.7858 61.4845 43.3538 62.9175 43.3538 64.6795 43.3538 66.4405 44.7858 67.8745 46.5478 67.8745 48.3088 67.8745 49.7418 66.4405 49.7418 64.6795 49.7418 62.9175 48.3088 61.4845 46.5478 61.4845zM42.1038 64.6795C42.1038 62.2285 44.0968 60.2345 46.5478 60.2345 48.9988 60.2345 50.9918 62.2285 50.9918 64.6795 50.9918 67.1305 48.9988 69.1245 46.5478 69.1245 44.0968 69.1245 42.1038 67.1305 42.1038 64.6795zM19.8105 76.2775C18.0505 76.2775 16.6175 74.8435 16.6175 73.0825 16.6175 71.3205 18.0505 69.8875 19.8105 69.8875 21.5725 69.8875 23.0055 71.3205 23.0055 73.0825 23.0055 74.8435 21.5725 76.2775 19.8105 76.2775M19.8105 68.6375C17.3605 68.6375 15.3675 70.6315 15.3675 73.0825 15.3675 75.5335 17.3605 77.5275 19.8105 77.5275 22.2625 77.5275 24.2555 75.5335 24.2555 73.0825 24.2555 70.6315 22.2625 68.6375 19.8105 68.6375M22.4853 41.2418C25.9313 41.2418 28.7353 44.0458 28.7353 47.4918 28.7353 50.9378 25.9313 53.7418 22.4853 53.7418 19.0393 53.7418 16.2353 50.9378 16.2353 47.4918 16.2353 44.0458 19.0393 41.2418 22.4853 41.2418M22.4853 54.9918C26.6213 54.9918 29.9853 51.6278 29.9853 47.4918 29.9853 43.3558 26.6213 39.9918 22.4853 39.9918 18.3493 39.9918 14.9853 43.3558 14.9853 47.4918 14.9853 51.6278 18.3493 54.9918 22.4853 54.9918"/>
    <g transform="translate(0 .422)">
      <mask id="soup_s_icon2-b" fill="#fff">
        <use xlink:href="#soup_s_icon2-a"/>
      </mask>
      <path fill="#FFB8AC" d="M56.1875,29.1484 L48.9715,29.1484 L5.8525,29.2734 L5.8485,29.1484 L5.1635,5.6324 L5.1625,5.5784 L56.7945,5.6324 L56.1875,29.1484 Z M54.4455,96.6474 L7.3785,96.6474 L5.7015,31.6484 L56.1235,31.6484 L54.4455,96.6474 Z M61.1515,1.3884 C60.6795,0.9054 60.0345,0.6324 59.3605,0.6324 L2.4565,0.5804 C1.0755,0.5794 -0.0345,1.7164 0.0005,3.0974 L2.4435,99.2114 C2.4785,100.5674 3.5865,101.6474 4.9425,101.6474 L56.8825,101.6474 C58.2375,101.6474 59.3465,100.5674 59.3805,99.2114 L61.8595,3.1974 C61.8775,2.5234 61.6215,1.8704 61.1515,1.3884 L61.1515,1.3884 Z" mask="url(#soup_s_icon2-b)"/>
    </g>
    <path fill="#FFF" d="M71.8725,65.3336 C81.8445,75.3046 81.8455,91.4706 71.8725,101.4426 C61.9005,111.4156 45.7325,111.4156 35.7625,101.4426"/>
    <path fill="#A5B6F3" d="M53.8168,110.422 C46.5958,110.422 39.8068,107.61 34.7018,102.504 L36.8228,100.382 C41.3618,104.922 47.3968,107.422 53.8168,107.422 C60.2368,107.422 66.2728,104.922 70.8118,100.382 C75.3518,95.843 77.8518,89.807 77.8518,83.388 C77.8518,76.968 75.3518,70.933 70.8118,66.394 L72.9328,64.273 C78.0398,69.379 80.8518,76.167 80.8518,83.388 C80.8518,90.609 78.0398,97.398 72.9328,102.504 C67.8268,107.61 61.0378,110.422 53.8168,110.422"/>
    <path fill="#FFF" d="M67.9848,69.2208 C75.8078,77.0448 75.8088,89.7308 67.9858,97.5538 C60.1618,105.3768 47.4748,105.3788 39.6518,97.5548"/>
    <path fill="#A5B6F3" d="M53.8168,104.9122 C48.3018,104.9122 42.7888,102.8132 38.5908,98.6152 L40.7128,96.4942 C47.9378,103.7202 59.6958,103.7192 66.9248,96.4932 C74.1508,89.2672 74.1498,77.5092 66.9238,70.2812 L69.0458,68.1602 C77.4418,76.5572 77.4418,90.2192 69.0458,98.6142 C64.8468,102.8122 59.3318,104.9122 53.8168,104.9122"/>
    <path fill="#FFF" d="M53.7182,83.2872 L67.7682,97.3342"/>
    <polygon fill="#A5B6F3" points="66.707 98.395 52.657 84.348 54.779 82.227 68.829 96.274"/>
    <path fill="#FFF" d="M72.9799,64.1168 L34.5459,102.5518"/>
    <polygon fill="#A5B6F3" points="35.607 103.612 33.486 101.491 71.92 63.056 74.041 65.177"/>
    <path fill="#FFF" d="M53.7622,83.9674 L53.7652,103.1354"/>
    <polygon fill="#A5B6F3" points="52.265 103.135 52.262 83.967 55.262 83.967 55.265 103.135"/>
    <path fill="#FFF" d="M73.5668,83.3336 L53.8288,83.3336"/>
    <mask id="soup_s_icon2-d" fill="#fff">
      <use xlink:href="#soup_s_icon2-c"/>
    </mask>
    <polygon fill="#A5B6F3" points="53.829 84.834 73.567 84.834 73.567 81.834 53.829 81.834" mask="url(#soup_s_icon2-d)"/>
  </g>
</svg>
