<svg xmlns="http://www.w3.org/2000/svg" width="308" height="84" viewBox="0 0 308 84">
  <g fill="none" fill-rule="evenodd">
    <path fill="#F5F5F5" fill-rule="nonzero" d="M266,84 C242.804041,84 224,65.1959595 224,42 C224,18.8040405 242.804041,0 266,0 C289.195959,0 308,18.8040405 308,42 C308,65.1959595 289.195959,84 266,84 Z M266,80 C286.98682,80 304,62.9868205 304,42 C304,21.0131795 286.98682,4 266,4 C245.01318,4 228,21.0131795 228,42 C228,62.9868205 245.01318,80 266,80 Z"/>
    <path fill="#CFCFCF" d="M261.45 59.4C256.5 59.4 252.95 57 252.95 53.95 252.95 51.95 254.45 50.5 256.2 50.5 257.95 50.5 259.4 51.95 259.4 53.7 259.4 54 259.35 54.35 259.25 54.6 260 54.9 260.85 55.05 261.85 55.05 263.95 55.05 266 54.2 268.05 52.35 270.15 50.5 272.15 46.85 272.95 43.5 271.45 45.55 268.25 47.55 264.6 47.55 258.95 47.55 254.9 43.85 254.9 38.5 254.9 31.8 260.1 26.35 267.4 26.35 270.9 26.35 273.4 27.5 275.35 29.5 277.25 31.45 278.35 34.85 278.35 38 278.35 44.1 276.15 50.8 271.9 55.05 269.25 57.7 265.7 59.4 261.45 59.4zM273.05 36.25C273.05 34.85 272.6 33.5 271.65 32.55 270.7 31.55 269.3 30.95 267.6 30.95 263.65 30.95 260.5 34.3 260.5 38 260.5 41.15 262.45 43.05 265.9 43.05 269.85 43.05 273.05 39.95 273.05 36.25zM.332 71L18.044 71 18.044 64.232 14.156 64.232 14.156 67.4 7.1 67.4 7.1 60.704 14.264 60.704 14.264 57.248 7.1 57.248 7.1 50.912 14.12 50.912 14.12 54.08 18.008 54.08 18.008 47.312.332 47.312.332 50.948 3.032 50.948 3.032 67.364.332 67.364.332 71zM34.388 58.724C34.388 57.968 34.1 57.284 33.524 56.708 32.444 55.628 30.14 54.908 28.232 54.908 23.804 54.908 21.788 57.464 21.788 59.912 21.788 62.612 23.624 63.656 27.98 64.808 30.392 65.456 31.076 65.924 31.076 66.716 31.076 67.868 29.78 68.408 28.196 68.408 27.08 68.408 26.072 68.192 25.352 67.904 25.388 67.688 25.424 67.472 25.424 67.256 25.424 65.888 24.38 65.168 23.3 65.168 22.076 65.168 21.212 66.14 21.212 67.292 21.212 68.12 21.464 68.768 22.112 69.416 23.156 70.46 25.748 71.324 28.16 71.324 31.724 71.324 34.82 69.56 34.82 66.248 34.82 63.404 32.624 62.468 28.844 61.46 26.432 60.812 25.532 60.344 25.532 59.444 25.532 58.616 26.396 57.824 28.16 57.824 28.952 57.824 29.744 57.968 30.392 58.22 30.32 58.436 30.32 58.652 30.32 58.904 30.32 60.092 31.184 60.848 32.444 60.848 33.596 60.848 34.388 59.984 34.388 58.724zM50.876 58.724C50.876 57.968 50.588 57.284 50.012 56.708 48.932 55.628 46.628 54.908 44.72 54.908 40.292 54.908 38.276 57.464 38.276 59.912 38.276 62.612 40.112 63.656 44.468 64.808 46.88 65.456 47.564 65.924 47.564 66.716 47.564 67.868 46.268 68.408 44.684 68.408 43.568 68.408 42.56 68.192 41.84 67.904 41.876 67.688 41.912 67.472 41.912 67.256 41.912 65.888 40.868 65.168 39.788 65.168 38.564 65.168 37.7 66.14 37.7 67.292 37.7 68.12 37.952 68.768 38.6 69.416 39.644 70.46 42.236 71.324 44.648 71.324 48.212 71.324 51.308 69.56 51.308 66.248 51.308 63.404 49.112 62.468 45.332 61.46 42.92 60.812 42.02 60.344 42.02 59.444 42.02 58.616 42.884 57.824 44.648 57.824 45.44 57.824 46.232 57.968 46.88 58.22 46.808 58.436 46.808 58.652 46.808 58.904 46.808 60.092 47.672 60.848 48.932 60.848 50.084 60.848 50.876 59.984 50.876 58.724zM69.452 64.448L58.076 64.448C58.616 66.896 60.632 67.976 63.26 67.976 65.168 67.976 67.148 67.364 68.984 66.32L68.66 69.848C67.004 70.82 64.988 71.288 62.684 71.288 57.536 71.288 53.972 68.048 53.972 63.152 53.972 58.688 57.104 54.944 61.964 54.944 67.004 54.944 69.632 58.328 69.632 62.504 69.632 63.116 69.56 63.908 69.452 64.448zM61.928 58.112C60.2 58.112 58.472 59.12 58.04 61.712L65.708 61.712C65.636 59.552 64.232 58.112 61.928 58.112zM77.984 55.232L71.864 55.232 71.864 58.544 74.204 58.544 74.204 67.76 71.864 67.76 71.864 71 80.288 71 80.288 67.76 78.128 67.76 78.128 60.344C79.388 59.3 80.828 58.508 82.196 58.508 83.132 58.508 83.78 58.868 84.14 59.552 84.356 59.948 84.464 60.524 84.464 61.172L84.464 67.76 82.304 67.76 82.304 71 90.728 71 90.728 67.76 88.388 67.76 88.388 60.2C88.388 58.904 88.1 57.824 87.56 56.96 86.732 55.7 85.364 54.944 83.492 54.944 81.188 54.944 79.496 56.276 77.984 57.752L77.984 55.232zM99.476 71.288C100.916 71.288 102.176 70.892 103.256 70.352L103.58 66.968C102.644 67.4 101.492 67.796 100.484 67.796 99.692 67.796 99.116 67.544 98.828 67.04 98.648 66.716 98.576 66.392 98.576 65.888L98.576 58.544 103.364 58.544 103.364 55.232 98.576 55.232 98.576 50.228 94.688 51.92 94.688 55.232 91.628 55.232 91.628 58.544 94.688 58.544 94.688 66.644C94.688 67.652 94.868 68.48 95.228 69.128 96.02 70.64 97.568 71.288 99.476 71.288zM109.7 52.82C111.104 52.82 112.364 51.668 112.364 50.228 112.364 48.788 111.176 47.636 109.772 47.636 108.368 47.636 107.108 48.788 107.108 50.228 107.108 51.668 108.296 52.82 109.7 52.82zM105.74 71L114.416 71 114.416 67.76 112.076 67.76 112.076 55.232 105.74 55.232 105.74 58.544 108.152 58.544 108.152 67.76 105.74 67.76 105.74 71zM121.94 71.288C119.24 71.288 116.828 69.812 116.828 66.86 116.828 63.908 119.42 62.108 123.164 62.108 124.784 62.108 126.296 62.324 127.16 62.54L127.16 61.28C127.16 60.344 126.944 59.624 126.548 59.12 125.9 58.292 124.856 57.968 123.452 57.968 122.768 57.968 122.264 58.076 121.904 58.22 121.976 58.436 122.048 58.796 122.048 59.012 122.048 60.2 121.112 61.064 119.924 61.064 118.736 61.064 117.836 60.236 117.836 58.94 117.836 56.996 119.816 54.944 124.1 54.944 126.8 54.944 128.636 55.7 129.752 57.068 130.58 58.076 130.976 59.444 130.976 61.028L130.976 67.76 133.316 67.76 133.316 71 127.232 71 127.232 69.272C125.972 70.352 124.064 71.288 121.94 71.288zM123.2 68.444C124.604 68.444 125.972 67.904 127.16 67.04L127.16 64.556C126.26 64.34 125.144 64.196 123.92 64.196 122.012 64.196 120.86 65.06 120.86 66.5 120.86 67.76 121.796 68.444 123.2 68.444zM134.828 71L143.54 71 143.54 67.76 141.2 67.76 141.2 44.648 134.828 44.648 134.828 47.96 137.276 47.96 137.276 67.76 134.828 67.76 134.828 71z"/>
    <polygon fill="#CFCFCF" fill-rule="nonzero" points="152 70 203 70 203 69 152 69"/>
  </g>
</svg>
