<svg xmlns="http://www.w3.org/2000/svg" xmlns:xlink="http://www.w3.org/1999/xlink" width="180" height="135" viewBox="0 0 180 135">
  <defs>
    <polygon id="soup_icon_7-a" points=".337 0 22.625 0 22.625 10.618 .337 10.618 .337 0"/>
  </defs>
  <g fill="none" fill-rule="evenodd" transform="translate(32)">
    <path fill="#FFB8AC" d="M90.2100225,117.445753 C89.7499635,117.445753 89.2841093,117.409098 88.8262793,117.337127 L44.5393661,110.369429 C42.1998416,110.001531 40.1429502,108.741829 38.7485081,106.822773 C37.3536201,104.903717 36.7874623,102.554627 37.1547962,100.208667 L47.4784829,34.2298758 C48.0009529,30.8884023 50.6462918,30.4404884 51.708172,30.3984685 L52.2279673,27.0753228 L51.4964201,26.9604387 C50.7457037,26.8419785 50.0850377,26.4378725 49.637461,25.8218791 C49.1894385,25.2054387 49.0080005,24.4517632 49.1261358,23.6985348 L49.7480178,19.7227401 C49.9669024,18.325356 51.1478095,17.3110679 52.5569629,17.3110679 C52.7049663,17.3110679 52.8543072,17.3226904 53.0009733,17.3459354 L109.182104,26.1848593 C110.732128,26.4289321 111.795791,27.8920281 111.552388,29.4467632 L110.93006,33.4221109 C110.711621,34.8199421 109.530714,35.8342301 108.121561,35.8342301 C107.974003,35.8342301 107.824663,35.8226076 107.677996,35.7993626 L106.946449,35.6844785 L106.428437,38.9964487 C107.876375,39.5047103 109.750936,40.9628891 109.282407,43.953452 L98.9591665,109.932243 C98.2784397,114.28577 94.5988599,117.445753 90.2100225,117.445753"/>
    <path fill="#FFB8AC" d="M52.5574087,16.6403593 L52.5569629,16.6403593 C50.8170307,16.6403593 49.3575027,17.8929089 49.0873518,19.6188526 L48.465024,23.5946474 C48.1645592,25.5145977 49.4783127,27.321452 51.392996,27.6227434 L51.4634313,27.6339189 L51.1286404,29.774697 C49.2193067,30.0281573 47.2649478,31.2655083 46.8173711,34.1259884 L36.4941301,100.104333 C35.6792195,105.312561 39.2415557,110.214581 44.4354962,111.031733 L66.4523475,114.49569 L66.7055582,114.535475 L88.7224094,117.999432 C89.2145655,118.076767 89.7156374,118.116104 90.2104683,118.116104 C94.9300845,118.116104 98.8873937,114.718306 99.6198325,110.03622 L109.943519,44.0574288 C110.257358,42.0512036 109.63191,40.3297301 108.183081,39.2094983 C107.840265,38.9444156 107.489426,38.7428096 107.168454,38.5912699 L107.503245,36.4504917 L107.574127,36.4616672 C107.755119,36.4902765 107.939231,36.5045811 108.121561,36.5045811 C109.861939,36.5045811 111.321021,35.2520315 111.591172,33.5260877 L112.213054,29.550293 C112.513519,27.6303427 111.200211,25.8234884 109.285528,25.522197 L53.1048431,16.6832732 C52.9234052,16.6551109 52.7392924,16.6403593 52.5574087,16.6403593 M52.5569629,17.9814189 C52.6693029,17.9814189 52.7829802,17.9903593 52.8975492,18.0082401 L109.078234,26.8471639 C110.266274,27.0340182 111.078064,28.1511209 110.891722,29.3428758 L110.26984,33.3182235 C110.10133,34.3950944 109.175417,35.1635215 108.121561,35.1635215 C108.009667,35.1635215 107.89599,35.1545811 107.781421,35.1367003 L106.389653,34.9181076 L105.6746,39.4857566 C105.6746,39.4857566 109.204394,40.1276772 108.622187,43.8495646 L98.2985004,109.828356 C97.664582,113.881932 94.1771392,116.775045 90.2104683,116.775045 C89.7883018,116.775045 89.3598942,116.742412 88.9297034,116.674912 L66.9128522,113.210955 L66.6596415,113.170724 L44.6427902,109.706767 C40.1701436,109.003604 37.1133374,104.797147 37.8154622,100.312644 L48.1387031,34.3338526 C48.60322,31.3656407 50.9583473,31.0652434 51.8940679,31.0652434 C52.1312301,31.0652434 52.2774503,31.0849123 52.2774503,31.0849123 L52.9920574,26.5168162 L51.60029,26.2977765 C50.4122502,26.1109222 49.6000144,24.9938195 49.7863561,23.8025116 L50.4086838,19.8267169 C50.5771938,18.750293 51.5035528,17.9814189 52.5569629,17.9814189"/>
    <polygon fill="#FFF" points="38.199 97.859 98.682 107.376 107.55 50.701 47.067 41.185"/>
    <polygon fill="#B4B5B5" points="41.666 95.501 96.101 104.066 104.083 53.059 49.647 44.495"/>
    <path fill="#FFB8AC" d="M49.6345188,44.578654 C64.133062,46.8597964 74.1036803,60.1085712 71.9032434,74.1704752 C69.7032523,88.2323791 56.1653941,97.7825116 41.6664051,95.5013692 L49.6345188,44.578654 Z"/>
    <path fill="#A5B6F3" d="M41.6664051,95.5013692 C43.9506512,80.9034884 58.0038467,70.9894818 73.0556197,73.357346 C88.1073927,75.7256573 98.457827,89.4791175 96.173581,104.076998 L41.6664051,95.5013692 Z"/>
    <path fill="#FFF" d="M57.6649098 94.0193195C57.4504831 94.208856 57.1803322 94.3040712 56.9057234 94.2611573 56.7024416 94.2289719 56.5343774 94.1301805 56.4260496 93.9781937 56.3177218 93.826207 56.2691303 93.6205778 56.3079143 93.3742699 56.3596263 93.0412401 56.5187746 92.7591705 56.7327555 92.5714222 56.9471822 92.3836738 57.2164415 92.2897997 57.4910503 92.3331606 57.6943322 92.364899 57.8628422 92.4636904 57.97117 92.6147831 58.0794978 92.7658758 58.1280893 92.9697169 58.0901969 93.2133427 58.038039 93.5459255 57.8788907 93.8297831 57.6649098 94.0193195M57.5971492 91.8311573C57.129066 91.757846 56.6912967 91.9004454 56.3547226 92.1713394 56.0172569 92.4422334 55.779649 92.8409752 55.7109967 93.2799487 55.6579473 93.6196838 55.7239248 93.9562897 55.9071459 94.2240546 56.090367 94.4922666 56.3899403 94.6911904 56.8014077 94.7560083 57.2690452 94.8293195 57.7063686 94.6867202 58.0438343 94.4167202 58.3804085 94.1471672 58.6180164 93.7497666 58.685777 93.3139222 58.739718 92.9710579 58.6737406 92.6326639 58.4909653 92.364005 58.3077441 92.095346 58.0086166 91.8959752 57.5971492 91.8311573M61.0301161 94.5488593C60.8156894 94.7383957 60.5455385 94.8336109 60.2709297 94.79025 60.0680936 94.7585116 59.8995837 94.6597202 59.7912558 94.5077334 59.682928 94.3557467 59.6343365 94.1501175 59.6731206 93.9033626 59.7248326 93.5707798 59.8839809 93.2887103 60.0979618 93.1009619 60.3123885 92.9132136 60.5816478 92.8193394 60.8567024 92.8627003 61.0595385 92.8944387 61.2280484 92.9932301 61.3363762 93.1443228 61.4451499 93.2954156 61.4932956 93.4992566 61.4554031 93.7428825 61.4032453 94.0754652 61.244097 94.3593228 61.0301161 94.5488593M60.9623555 92.360697C60.4942723 92.2873858 60.056503 92.4299851 59.7199289 92.7008791 59.3824632 92.9717732 59.1448552 93.3705149 59.076203 93.8094884 59.0231536 94.1492235 59.089131 94.4858295 59.272798 94.7535944 59.4555733 95.0218063 59.7551466 95.2207301 60.166614 95.285101 60.6342514 95.3588593 61.0715749 95.2162599 61.4090406 94.9462599 61.7456147 94.6762599 61.9832227 94.2793063 62.0514291 93.8434619 62.1049243 93.5005977 62.0389469 93.1622036 61.8561715 92.8935447 61.6729504 92.6244387 61.3738229 92.4255149 60.9623555 92.360697M65.3104473 95.194043L65.3064352 95.2011954C65.2119269 95.372404 65.1303467 95.4774536 65.058574 95.5369073 64.9863554 95.5963609 64.9261733 95.6111126 64.8722323 95.6026192 64.8178455 95.5941258 64.7790614 95.5681987 64.7554344 95.5293079 64.7313615 95.4904172 64.723783 95.4363278 64.7335905 95.3715099 64.7416148 95.3201026 64.7759409 95.2306987 64.8089296 95.148L65.1851793 94.3455993 65.1851793 94.3451523C65.2573979 94.1864603 65.3086641 94.0308974 65.3309538 93.8909801 65.3710752 93.6343907 65.3180258 93.4166921 65.1994447 93.2548709 65.0808636 93.0926026 64.8971967 92.987106 64.6778663 92.9522384 64.4808255 92.921394 64.2766521 92.9714603 64.0862983 93.0747219 63.9093182 93.1699371 63.7443746 93.3111954 63.6066244 93.4756987L63.9061977 92.8784801 63.3208708 92.786394 62.1702776 95.5462947 62.767641 95.6406159 63.3957641 94.1448874C63.512562 93.8726523 63.6645776 93.6759636 63.8304128 93.5539272 63.9966938 93.4318907 64.1759028 93.3849536 64.3488707 93.4122219 64.4759218 93.4318907 64.574888 93.4895563 64.6368533 93.572255 64.6992644 93.6549536 64.7255662 93.7635795 64.7063971 93.887851 64.6916859 93.9799371 64.6653841 94.0626358 64.6145636 94.1694735L64.2356391 94.9924371 64.2356391 94.9924371C64.1923971 95.0948046 64.1527215 95.2181821 64.1380103 95.3116093 64.1121543 95.4792417 64.1446972 95.6321225 64.2334101 95.7514768 64.322123 95.8708311 64.4665602 95.9553179 64.6631551 95.9861623 64.8401351 96.0138775 65.0073077 95.9763278 65.1588775 95.8699371 65.3108931 95.7635464 65.4468601 95.5887616 65.563658 95.3415596L65.5667786 95.3348543 65.3104473 95.194043zM54.2792416 93.4435132C54.0683813 93.639755 53.8009052 93.7465927 53.5240674 93.7032318 53.3042912 93.6683642 53.1464803 93.573596 53.0506347 93.4354669 52.954789 93.2982318 52.9213545 93.1176358 52.9534517 92.9106656 53.0029347 92.5959636 53.1701073 92.3018245 53.3938957 92.0984305 53.617684 91.8945894 53.898534 91.7814934 54.1753717 91.8248543 54.377762 91.8570397 54.5230907 91.9562781 54.6100204 92.1011126 54.697396 92.245947 54.7263726 92.4363775 54.692938 92.649606 54.6439008 92.9616258 54.4905478 93.2472715 54.2792416 93.4435132M55.1694913 91.7855166C55.0219337 91.5539603 54.7776388 91.3961623 54.4464142 91.3438609 54.2533856 91.3134636 54.0567907 91.3528013 53.8753527 91.434606 53.7059512 91.5110464 53.5570561 91.6263775 53.4282218 91.7564603L54.2783501 89.7287781C54.0937915 89.8177351 53.9355348 89.8807649 53.7108549 89.8454503 53.4915245 89.8110298 53.272194 89.7350364 53.1068046 89.659043 52.9391863 89.5991424 52.7399166 89.5262781 52.5406468 89.4949868 51.8300519 89.3832318 51.4422116 89.9040099 51.369993 90.3657815 51.3387875 90.5615762 51.3566192 90.7345728 51.4029817 90.9057815 51.2937623 90.8624205 51.1729523 90.828894 51.0436721 90.8087781 50.6901579 90.7529007 50.3990547 90.8092252 50.1873028 90.9375199 49.9759966 91.0653675 49.8440417 91.2651854 49.8079325 91.4954007 49.7718232 91.7256159 49.8431501 91.9066589 49.9688639 92.0595397 50.0945777 92.2124205 50.2751241 92.3375861 50.458791 92.4578344 50.6059029 92.5521556 50.7454363 92.6402185 50.8426193 92.7331987 50.8912108 92.7801358 50.929549 92.8279669 50.9531761 92.8784801 50.9768031 92.9289934 50.9861648 92.9817417 50.9772489 93.0398543 50.968333 93.0961788 50.9451518 93.1431159 50.9112715 93.1811126 50.860451 93.2383311 50.7842203 93.2758808 50.6928326 93.2951026 50.601445 93.3143245 50.4949003 93.3143245 50.3847893 93.2973377 50.1819532 93.2655993 49.9987321 93.189606 49.8788136 93.1033311 49.8395838 93.0720397 49.8114988 93.0483477 49.7905465 93.0215265 49.8360175 92.9790596 49.8721267 92.9129007 49.88238 92.8471887 49.8961996 92.7591258 49.8752473 92.672851 49.8271016 92.604457 49.7789559 92.5360629 49.7036168 92.4859967 49.6091085 92.471245 49.5119255 92.4560464 49.4192005 92.4833146 49.3469819 92.5409801 49.2747634 92.5986457 49.2230513 92.6876026 49.206557 92.7948874 49.1842673 92.9361457 49.2315214 93.0742748 49.3269212 93.2052517 49.5052386 93.4587119 49.8663314 93.6647881 50.3027633 93.7336291 50.6397832 93.7868245 50.9353443 93.753298 51.1582411 93.6357318 51.3811379 93.5181656 51.5304787 93.3152185 51.575058 93.032255 51.6098299 92.808745 51.5402861 92.627702 51.4172471 92.4734801 51.2946539 92.3197053 51.1176739 92.1918576 50.9375733 92.0720563 50.7846661 91.9701358 50.642458 91.8767086 50.5434918 91.7823874 50.4940087 91.7350033 50.4552247 91.6876192 50.4311518 91.638894 50.407079 91.5901689 50.3972715 91.5405497 50.4057416 91.4878013 50.4213444 91.3885629 50.4886592 91.3192748 50.5898543 91.279043 50.6901579 91.2392583 50.8238959 91.2298709 50.9674414 91.2526689 51.1118786 91.2750199 51.2451708 91.323298 51.3365585 91.3778344 51.3811379 91.4028675 51.4034275 91.4238775 51.4203677 91.4404172 51.3655351 91.5092583 51.344137 91.5548543 51.3352211 91.6138609 51.3075819 91.7899868 51.4328499 91.9620894 51.6147337 91.9906987 51.7061213 92.0050033 51.7966174 91.9813113 51.8679444 91.9254338 51.9397172 91.8700033 51.9927666 91.7832815 52.0101525 91.6728675 52.0311048 91.5383146 51.991875 91.3948212 51.9022705 91.2709967L51.9018247 91.2709967 51.9018247 91.2709967C51.8505584 91.1976854 51.7814605 91.1288444 51.6994344 91.0680497 51.6584214 90.9205331 51.6414813 90.7605 51.6686747 90.5875033 51.7511465 90.0604669 52.1541438 89.8745066 52.4470302 89.9205497 52.5861178 89.9424536 52.7840501 89.9817914 52.9543432 90.0255993 53.1032383 90.0738775 53.300279 90.1212616 53.4661142 90.1471887L53.4678974 90.1476358 51.9312471 93.9356821 52.5344057 94.0304503 52.7510614 93.4707815C52.7960865 93.8592417 53.0996719 94.1734967 53.5142599 94.2387616 53.9284021 94.3040265 54.3398696 94.1591921 54.6666362 93.8739934 54.9934029 93.5887947 55.2359146 93.1636788 55.3139284 92.6661457 55.3678695 92.3210464 55.317049 92.0170728 55.1694913 91.7855166"/>
    <polygon fill="#FFF" points="84.111 65.385 85.584 65.616 85.363 66.166 83.89 65.934"/>
    <path fill="#FFF" d="M96.7005535,65.108846 L96.511537,65.0793427 C96.1767461,67.2192268 95.0096586,69.0189288 93.3914281,70.2017434 C91.7731975,71.3841109 89.7069445,71.9469089 87.572485,71.611197 C85.4384713,71.2754851 83.6437066,70.1051871 82.4636911,68.482505 C81.285013,66.8598228 80.7233131,64.7878858 81.058104,62.6480017 C81.3933408,60.5076705 82.5604283,58.7079685 84.1786588,57.525154 C85.7968894,56.3427864 87.8631424,55.7795414 89.9971561,56.1152533 C92.1316155,56.4514123 93.9263803,57.6217103 95.10595,59.2443924 C96.2846281,60.8670745 96.846328,62.9390116 96.511537,65.0793427 L96.7005535,65.108846 L96.8891242,65.1383493 C97.2404095,62.8947566 96.6510704,60.7195579 95.4144391,59.0186474 C94.1786995,57.3177368 92.2938844,56.0888791 90.0568924,55.7370745 C87.8190088,55.3848228 85.6497775,55.9757831 83.9535331,57.2153692 C82.2572887,58.4549553 81.0318022,60.3449553 80.6805169,62.588548 C80.3296774,64.8316937 80.9194623,67.0073394 82.1552019,68.70825 C83.3913874,70.4091606 85.2762025,71.6380182 87.5136403,71.9898228 C89.7506322,72.3420745 91.9203094,71.7511142 93.6165538,70.5110811 C95.3127982,69.2719421 96.5382846,67.3819421 96.8891242,65.1383493 L96.7005535,65.108846 Z"/>
    <path fill="#FFF" d="M90.7646342 61.9445712C90.5921121 62.1046043 90.3736733 62.1922202 90.1472102 62.1564586 89.968447 62.1282964 89.8396126 62.0505149 89.761153 61.9383129 89.6831391 61.8256639 89.6559457 61.6781474 89.6818017 61.5096209 89.7223689 61.2521374 89.858336 61.0125348 90.0411113 60.8462434 90.2243325 60.679952 90.4534703 60.5874189 90.6794877 60.6227334 90.8448771 60.6491076 90.9630123 60.7304652 91.0343393 60.8484785 91.1061121 60.9664917 91.1292933 61.1225017 91.1020999 61.2963924 91.0624243 61.5511937 90.9367105 61.7845381 90.7646342 61.9445712M91.4912777 60.590548C91.3704676 60.4014586 91.1711979 60.2727169 90.901047 60.23025 90.7432361 60.2052169 90.5827505 60.2374023 90.4343012 60.3044553 90.2961052 60.3670381 90.1748494 60.4604652 90.0691963 60.566856L90.7632968 58.9115414C90.6126186 58.9839586 90.4837843 59.0353659 90.3001174 59.0067566 90.1213541 58.9785944 89.9416993 58.9164586 89.8075155 58.8543228 89.6702111 58.8060447 89.5074964 58.746144 89.344336 58.7206639 88.7643586 58.6290248 88.4478452 59.0545877 88.3885547 59.4314255 88.3635902 59.5914586 88.3778556 59.7327169 88.4153023 59.8726341 88.3265894 59.8373195 88.2285148 59.8100513 88.1224159 59.7930646 87.8335417 59.7474685 87.5963795 59.7935116 87.4234117 59.8981142 87.2504438 60.0027169 87.1430075 60.1658791 87.1135851 60.3536275 87.083717 60.5418228 87.1421159 60.6897864 87.2446484 60.814505 87.3476268 60.9392235 87.4947386 61.041144 87.6445252 61.1399354L87.644971 61.1399354C87.7648895 61.2168228 87.8785669 61.288346 87.9583639 61.3647864 87.9980395 61.4027831 88.0292451 61.4416738 88.0484142 61.4832467 88.0675833 61.5243725 88.0756076 61.5677334 88.0680291 61.6151175 88.0608964 61.6607136 88.0421731 61.6991573 88.0145339 61.7304487 87.9726293 61.7769387 87.910664 61.8077831 87.8362165 61.8234288 87.7613232 61.8390745 87.6743934 61.8395215 87.5838973 61.8252169 87.4185079 61.7988427 87.2691671 61.737154 87.1710925 61.6669719 87.1389954 61.6410447 87.1162599 61.6218228 87.098874 61.5999189 87.1363206 61.5654983 87.165743 61.5109619 87.1742131 61.4577666 87.1858037 61.3857964 87.1684178 61.3151672 87.1291879 61.2592897 87.0899581 61.2038593 87.0279928 61.1627334 86.9508705 61.1506639 86.8715193 61.1381474 86.7961801 61.1604983 86.7368896 61.2078825 86.6780449 61.2548195 86.6356945 61.3272368 86.6223207 61.4148526 86.6040431 61.5301838 86.6428272 61.6432798 86.7203952 61.7501175L86.720841 61.7501175C86.8661697 61.9570877 87.1612851 62.1251672 87.5174741 62.1814917 87.7925287 62.2244056 88.0341488 62.1975844 88.2155868 62.1014752 88.3974705 62.0053659 88.5200638 61.8399685 88.556173 61.6088593 88.5847038 61.4260281 88.5276422 61.2785116 88.4277845 61.152899 88.3270352 61.0268394 88.1830438 60.9222368 88.0354862 60.8247864 87.9111098 60.7416407 87.7947577 60.6652003 87.714069 60.5878659 87.6735018 60.5494222 87.6418505 60.5105315 87.6222356 60.4711937 87.6026207 60.4314089 87.5950422 60.3907301 87.6012833 60.3478162 87.6142113 60.2669056 87.6694897 60.2101341 87.7515157 60.1775017 87.8339875 60.1448692 87.9427611 60.1372699 88.0604506 60.1555977 88.1776943 60.1743725 88.2869137 60.2132632 88.3613613 60.2579652 88.3974705 60.2785281 88.4157481 60.2959619 88.4304593 60.3089255 88.3849883 60.36525 88.3680482 60.4023526 88.3604697 60.4506308 88.33818 60.5945712 88.4402667 60.7349354 88.588716 60.7581805 88.6631635 60.77025 88.7367194 60.7505811 88.7955642 60.7054321 88.8539631 60.6598361 88.8976509 60.589207 88.9119163 60.4984619 88.9288564 60.3889421 88.8967593 60.2718228 88.8236492 60.1707964 88.7812988 60.1104487 88.7251288 60.0545712 88.6573682 60.004952 88.6243794 59.8847036 88.6105598 59.7537268 88.6328495 59.6124685 88.6997186 59.1819884 89.02916 59.0304487 89.2681053 59.0679983 89.3817827 59.0858791 89.5436057 59.1180646 89.6822475 59.1538262 89.8043949 59.1931639 89.9648806 59.2320546 90.1004018 59.2530646L90.1017392 59.2535116 88.8472762 62.3464421 89.3394323 62.4237765 89.5164123 61.9669222C89.5529674 62.2838593 89.8008286 62.5404487 90.1396317 62.5940911 90.4775432 62.6472864 90.8136715 62.5288262 91.0807018 62.2963758 91.3477322 62.0634785 91.5456645 61.715697 91.609413 61.309803 91.6531007 61.0281805 91.6116419 60.7796374 91.4912777 60.590548M92.9317703 67.6608825L92.9286498 67.6666937C92.8524191 67.8052699 92.7855501 67.8906507 92.7275969 67.9389288 92.669198 67.987207 92.6201607 67.9988295 92.5764729 67.9921242 92.5323393 67.9854189 92.500688 67.9644089 92.4815189 67.9326705 92.4623498 67.9009321 92.4556628 67.8575712 92.4636871 67.8048228 92.470374 67.76325 92.4980132 67.6903858 92.5252066 67.6233328L92.8301294 66.9720248C92.8889742 66.8428361 92.9308788 66.7167765 92.9487105 66.6032334 92.9812534 66.3949222 92.9384572 66.2183493 92.8421658 66.0869255 92.7458744 65.9555017 92.5969794 65.8692268 92.418662 65.8415116 92.2586221 65.8164785 92.0932327 65.8567103 91.9380966 65.94075 91.7949968 66.0180844 91.660813 66.1325215 91.5493646 66.2661805L91.7923221 65.7811639 91.3175519 65.7065116 90.3836145 67.9469752 90.8681921 68.0229685 91.3781799 66.8093096C91.4731339 66.5884818 91.5961729 66.4284487 91.7312483 66.3292103 91.8654322 66.2304189 92.0116525 66.1924222 92.1516317 66.2143262 92.25461 66.2308659 92.3348528 66.277356 92.3852275 66.3444089 92.4360479 66.4119089 92.457446 66.4999719 92.4413975 66.6005513 92.4298068 66.6752036 92.4084087 66.7427036 92.3673957 66.8294255L92.0597982 67.4972732 92.0597982 67.4972732C92.0250263 67.5804189 91.9929292 67.6801043 91.9804469 67.7560977 91.9590488 67.8919917 91.9857965 68.0167103 92.058015 68.1132666 92.1297878 68.2102699 92.2474773 68.2786639 92.4066256 68.303697 92.5506169 68.326048 92.6861381 68.2956507 92.8096229 68.2093758 92.9322161 68.123101 93.0427729 67.9809487 93.137727 67.7806838L93.1404017 67.7748725 92.9317703 67.6608825zM15.9775079 45.4072947C23.679037 41.5454901 62.4447973 28.1590331 62.4447973 28.1590331 62.4447973 28.1590331 69.6332181 26.6145795 70.9166577 30.4759371 72.2005431 34.3377417 69.376441 37.6841325 69.376441 37.6841325L44.7588303 50.7380066 36.772439 102.29996C36.772439 102.29996 17.2609475 103.329447 6.73531625 90.2004735-3.79076077 77.0715 4.42476834 60.0807219 4.42476834 60.0807219 4.42476834 60.0807219 8.27597871 49.2686523 15.9775079 45.4072947z"/>
    <path fill="#FFB8AC" d="M5.62850005,60.665245 C5.53488341,60.8605927 -2.06946276,77.0780265 7.7772249,89.3598974 C16.3565215,100.061106 31.474272,100.941735 35.624164,100.973474 L43.5401199,49.8670331 L68.4934132,36.6356921 C68.9766534,35.9629272 70.5208822,33.5257748 69.6480184,30.9004272 C68.9244955,28.7238874 64.4317883,29.1248642 62.7997381,29.4552119 C60.8123905,30.1422815 23.9443733,42.911851 16.575852,46.6064702 C9.43736004,50.1857583 5.72077931,60.4287715 5.68422424,60.5320331 L5.62850005,60.665245 Z M35.6295136,103.664533 C31.08554,103.664533 15.1123118,102.789715 5.69314011,91.0406921 C-5.01214591,77.6882086 2.54450036,60.9280927 3.1900094,59.561553 C3.56848811,58.526702 7.53025528,48.1433245 15.3793421,44.2077616 C23.0719554,40.3508742 60.4232128,27.4387053 62.009792,26.891106 L62.1644823,26.847745 C65.2680969,26.1807914 70.8730591,26.104798 72.1854753,30.0524305 C73.6900284,34.5762715 70.5324728,38.390245 70.3973974,38.5502781 L70.2302248,38.7483079 L45.9772732,51.6086225 L37.9271335,103.581834 L36.8425178,103.639053 C36.7350815,103.644417 36.3097945,103.664086 35.6295136,103.664533 L35.6295136,103.664533 Z"/>
    <path fill="#FFF" d="M109.116171,72.8817169 L92.3596835,70.7074123 C90.171283,70.4235546 88.612343,68.3958725 88.8954219,66.201452 L89.37465,62.4867169 C89.6581747,60.2918493 91.6802941,58.7290679 93.8686946,59.0129255 L110.625182,61.1872301 C112.813583,61.4710877 114.372523,63.4987699 114.088998,65.6931904 L113.60977,69.4079255 C113.326691,71.602793 111.304571,73.1655745 109.116171,72.8817169"/>
    <path fill="#FFB8AC" d="M93.3518862,60.3206374 C92.0283252,60.3206374 90.8750573,61.3081043 90.7011978,62.6585513 L90.2219697,66.3732864 C90.0325075,67.8399586 91.0685317,69.1877235 92.5311803,69.377707 L109.287668,71.5520116 C109.991576,71.6418626 110.692363,71.4509851 111.261196,71.0120116 C111.829137,70.5730381 112.192458,69.942293 112.2834,69.2360017 L112.762628,65.5212666 C112.854016,64.8149752 112.662771,64.1122599 112.225001,63.5427566 C111.786786,62.9728063 111.157326,62.6084851 110.453418,62.517293 L93.6969304,60.3429884 C93.5814698,60.3277897 93.4660093,60.3206374 93.3518862,60.3206374 M109.636724,74.2564818 C109.40714,74.2564818 109.176219,74.2417301 108.944853,74.2117798 L92.188365,72.0374752 C89.2626221,71.6579553 87.1910195,68.9628725 87.5686066,66.0295281 L88.0482805,62.314346 C88.427205,59.3810017 91.1166774,57.3037003 94.0401914,57.6832202 L110.796679,59.8570778 C112.209399,60.040803 113.468765,60.7676573 114.343412,61.9048758 C115.217613,63.0425414 115.598321,64.4488659 115.415546,65.8654719 L114.936318,69.580207 C114.753542,70.9968129 114.028236,72.259644 112.894137,73.13625 C111.945935,73.8693626 110.809607,74.2564818 109.636724,74.2564818"/>
    <path fill="#FFF" d="M107.244195,85.2358709 L90.4877073,83.0615662 C88.2993068,82.7777086 86.7403668,80.7500265 87.0234457,78.555606 L87.5026737,74.8408709 C87.7861984,72.6460033 89.8083179,71.0832219 91.9967184,71.3670795 L108.753206,73.5413841 C110.941606,73.8252417 112.500546,75.8529238 112.217022,78.0473444 L111.737794,81.7620795 C111.454715,83.956947 109.432595,85.5197285 107.244195,85.2358709"/>
    <path fill="#FFB8AC" d="M91.47991,72.6747914 C90.1563489,72.6747914 89.0030811,73.6622583 88.8292216,75.0127053 L88.3499935,78.7274404 C88.1605313,80.1941126 89.1965555,81.5418775 90.659204,81.7318609 L107.415692,83.9061656 C108.1196,83.9964636 108.820387,83.8051391 109.38922,83.3661656 C109.957161,82.9271921 110.320482,82.296447 110.411424,81.5901556 L110.890652,77.8754205 C110.98204,77.1691291 110.790794,76.4664139 110.353025,75.8969106 C109.91481,75.3269603 109.28535,74.9626391 108.581442,74.871447 L91.8249542,72.6971424 C91.7094936,72.6819437 91.5940331,72.6747914 91.47991,72.6747914 M107.764748,86.6106358 C107.535164,86.6106358 107.304243,86.5958841 107.072876,86.5659338 L90.3163888,84.3916291 C87.3906458,84.0121093 85.3190433,81.3170265 85.6966304,78.3836821 L86.1763042,74.6685 C86.5552287,71.7351556 89.2411348,69.6560662 92.1682152,70.0373742 L108.924703,72.2112318 C110.337422,72.394957 111.596789,73.1218113 112.471436,74.2590298 C113.345637,75.3966954 113.726345,76.8030199 113.54357,78.2196258 L113.064341,81.9343609 C112.881566,83.3509669 112.15626,84.613798 111.022161,85.490404 C110.073958,86.2235166 108.937631,86.6106358 107.764748,86.6106358"/>
    <path fill="#FFF" d="M105.489329,97.9881407 L88.7323952,95.8138361 C86.5439947,95.5299785 84.9855005,93.5022964 85.2685794,91.3078758 L85.7478075,87.5931407 C86.0313322,85.3982732 88.0534517,83.8354917 90.2418521,84.1193493 L106.99834,86.293654 C109.18674,86.5775116 110.74568,88.6051937 110.462155,90.7996142 L109.982927,94.5143493 C109.699848,96.7092169 107.677729,98.2719983 105.489329,97.9881407"/>
    <path fill="#FFB8AC" d="M89.7250437,85.4270613 C88.4014827,85.4270613 87.2482148,86.4145281 87.0743553,87.7649752 L86.5951273,91.4797103 C86.405665,92.9463825 87.4416892,94.2941474 88.903892,94.4841308 L105.660825,96.6584354 C106.365625,96.7496275 107.065521,96.557856 107.634353,96.1184354 C108.202294,95.6794619 108.565616,95.0487169 108.656558,94.3424255 L109.135786,90.6276904 C109.227174,89.921399 109.035928,89.2186838 108.598159,88.6491805 C108.159944,88.0792301 107.530483,87.7149089 106.826575,87.6237169 L90.0700879,85.4494123 C89.9546274,85.4342136 89.8391668,85.4270613 89.7250437,85.4270613 M106.009882,99.3629056 C105.780298,99.3629056 105.549377,99.348154 105.31801,99.3182036 L88.5610768,97.143899 C85.6357796,96.7643791 83.564177,94.0692964 83.9417641,91.135952 L84.421438,87.4207699 C84.8003625,84.4874255 87.4907265,82.4101242 90.4133489,82.789644 L107.169836,84.9635017 C108.582556,85.1472268 109.841923,85.8740811 110.71657,87.0112997 C111.590771,88.1489652 111.971479,89.5552897 111.788703,90.9718957 L111.309475,94.6866308 C111.1267,96.1032368 110.401394,97.3660679 109.267295,98.2426738 C108.319092,98.9757864 107.182764,99.3629056 106.009882,99.3629056"/>
    <path fill="#FFF" d="M103.617352,110.819667 L86.860419,108.645363 C84.6720185,108.361505 83.1135243,106.333823 83.3966032,104.139402 L83.8758313,100.424667 C84.1593559,98.2297997 86.1814754,96.6670182 88.3698759,96.9508758 L105.126363,99.1251805 C107.314764,99.4090381 108.873704,101.43672 108.590179,103.631141 L108.110951,107.345876 C107.827872,109.540296 105.805753,111.103525 103.617352,110.819667"/>
    <path fill="#FFB8AC" d="M87.8534687 98.2583642C86.5294619 98.2583642 85.376194 99.2458311 85.2023345 100.596725L84.7231065 104.31146C84.5336442 105.778132 85.5696684 107.12545 87.0318712 107.315434L103.788804 109.489738C104.493604 109.580483 105.1935 109.389159 105.762332 108.950185 106.330273 108.510765 106.693595 107.88002 106.784537 107.174175L107.263765 103.45944C107.355153 102.753149 107.163907 102.050434 106.726138 101.480483 106.287923 100.910533 105.658463 100.546659 104.954555 100.45502L88.1980671 98.2807152C88.0826066 98.2655166 87.967146 98.2583642 87.8534687 98.2583642M104.137861 112.194656C103.908277 112.194656 103.677356 112.179904 103.445989 112.149507L86.689056 109.975202C83.7637588 109.595682 81.6921562 106.900599 82.0697433 103.967255L82.5494172 100.25252C82.9283417 97.3191755 85.6133562 95.2409801 88.5413281 95.620947L105.297816 97.7952517C106.710535 97.9785298 107.969902 98.7053841 108.844549 99.8430497 109.71875 100.980268 110.099458 102.38704 109.916682 103.803646L109.437454 107.517934C109.254679 108.93454 108.529373 110.197371 107.395274 111.074424 106.447071 111.807536 105.310744 112.194656 104.137861 112.194656M42.3272494 13.8580629L40.0857995 12.509404C40.3497093 12.0677483 42.7601149 8.17062914 45.9970218 7.28508278 49.0761178 6.44379139 53.3334461 7.22786424 53.5139925 7.26139073L53.0320896 9.83801325C52.9941972 9.83130795 49.1790961 9.13216887 46.6848812 9.81432119 44.7844634 10.3346523 42.8951904 12.9094868 42.3272494 13.8580629"/>
    <g transform="translate(33.435)">
      <mask id="soup_icon_7-b" fill="#fff">
        <use xlink:href="#soup_icon_7-a"/>
      </mask>
      <path fill="#FFB8AC" d="M2.57846982,10.6176159 L0.337019915,9.26895695 C0.511325188,8.97705298 4.67548263,2.1036755 10.0183182,0.64236755 C15.146727,-0.760380795 22.3213282,0.561903974 22.6249136,0.618675497 L22.1434566,3.19529801 C22.0743586,3.18278146 15.2501511,1.92889073 10.7061776,3.17160596 C7.10416582,4.15683775 3.61806035,8.88049669 2.57846982,10.6176159" mask="url(#soup_icon_7-b)"/>
    </g>
    <path fill="#FFB8AC" d="M97.2299333 127.952911C95.4663741 127.952911 93.9805442 127.617646 93.7041522 127.551487L94.3108772 125.001238C95.3874686 125.256487 98.552157 125.701719 100.24216 124.710228 102.474249 123.40046 104.645709 120.178788 104.667553 120.146603L106.839905 121.605228C106.737818 121.757662 104.316713 125.356619 101.562601 126.973043 100.266679 127.732977 98.6573642 127.952911 97.2299333 127.952911M97.4989697 135C94.3984757 135 91.7821134 134.387583 91.5939885 134.342434L92.2011593 131.792632C92.2715947 131.809172 99.3240485 133.45197 103.193536 131.181556 107.268981 128.79 111.141589 123.031043 111.179928 122.97293L113.352725 124.430662C113.181541 124.687699 109.101638 130.752417 104.514423 133.443924 102.457977 134.650877 99.8402774 135 97.4989697 135"/>
  </g>
</svg>
