<svg xmlns="http://www.w3.org/2000/svg" width="180" height="135" viewBox="0 0 180 135">
  <g fill="none" fill-rule="evenodd" transform="translate(33)">
    <g fill="#FFB8AC">
      <path d="M58.6224143 121.562509L8.37463062 121.562509C3.7574176 121.562509 0 117.845769 0 113.278541L0 19.3935777C0 14.8263504 3.7574176 11.1096103 8.37463062 11.1096103L58.6224143 11.1096103 58.6224143 16.6322552 8.37463062 16.6322552C6.83369858 16.6322552 5.58308708 17.872089 5.58308708 19.3935777L5.58308708 113.278541C5.58308708 114.802791 6.83369858 116.039864 8.37463062 116.039864L58.6224143 116.039864 58.6224143 121.562509zM66.9970449 127.085154L75.3716756 127.085154 75.3716756 5.58696539 66.9970449 5.58696539 66.9970449 127.085154zM78.1632191 132.607799L64.2055014 132.607799C62.6617778 132.607799 61.4139579 131.373488 61.4139579 129.846476L61.4139579 2.82564292C61.4139579 1.30139292 62.6617778.0643204602 64.2055014.0643204602L78.1632191.0643204602C79.7069427.0643204602 80.9547626 1.30139292 80.9547626 2.82564292L80.9547626 129.846476C80.9547626 131.373488 79.7069427 132.607799 78.1632191 132.607799L78.1632191 132.607799z"/>
      <path d="M108.870198,116.811101 L109.752326,119.428835 L108.87299,116.80834 L108.870198,116.811101 Z M80.9547626,6.65642558 L80.9547626,126.014589 L108.870198,116.811101 L108.870198,15.8599133 L80.9547626,6.65642558 Z M78.1632191,132.608627 C77.5853696,132.608627 77.0131032,132.429141 76.5301661,132.086737 C75.8015733,131.567609 75.3716756,130.733689 75.3716756,129.847305 L75.3716756,2.82647132 C75.3716756,1.93732549 75.8015733,1.10616743 76.5301661,0.587038803 C77.2615505,0.0623875345 78.1911345,-0.0756785887 79.0453469,0.205976303 L110.637245,10.6216846 C112.917936,11.3755257 114.453285,13.4824147 114.453285,15.8599133 L114.453285,116.811101 C114.453285,119.191361 112.917936,121.29825 110.634454,122.04933 L79.0453469,132.465038 C78.7578179,132.561685 78.4591227,132.608627 78.1632191,132.608627 L78.1632191,132.608627 Z"/>
      <polygon points="85.746 74.62 89.746 74.62 89.746 52.529 85.746 52.529"/>
      <polygon points="11.166 51.007 58.622 51.007 58.622 47.007 11.166 47.007"/>
      <polygon points="11.166 89.904 58.622 89.904 58.622 85.904 11.166 85.904"/>
    </g>
    <path fill="#A5B6F4" d="M15.4280243,2.23408384 C15.7422859,2.23408384 15.9969906,1.97383965 15.9969906,1.65274334 L15.9969906,0.581340502 C15.9969906,0.260447036 15.7422859,0 15.4280243,0 L0.568991236,0 C0.254729674,0 2.49461101e-05,0.260447036 2.49461101e-05,0.581340502 L2.49461101e-05,1.65274334 C2.49461101e-05,1.97383965 0.254729674,2.23408384 0.568991236,2.23408384 L0.937052472,2.23408384 L0.937052472,3.46512205 C0.937052472,3.46512205 2.49461101e-05,3.48784017 2.49461101e-05,4.49088581 L2.49461101e-05,22.2718727 C2.49461101e-05,23.4805985 0.958889978,24.4603175 2.14188723,24.4603175 L7.96495744,24.4603175 L8.03185961,24.4603175 L13.8551283,24.4603175 C15.0379271,24.4603175 15.9969906,23.4805985 15.9969906,22.2718727 L15.9969906,4.49088581 C15.9969906,3.48784017 15.0599631,3.46512205 15.0599631,3.46512205 L15.0599631,2.23408384 L15.4280243,2.23408384 Z" transform="translate(28.714 56.429)"/>
  </g>
</svg>
