<svg xmlns="http://www.w3.org/2000/svg" xmlns:xlink="http://www.w3.org/1999/xlink" width="98" height="98" viewBox="0 0 98 98">
  <defs>
    <polygon id="soup_icon_1-a" points="0 .508 0 88.941 54.128 88.941 54.128 .508 0 .508"/>
  </defs>
  <g fill="none" fill-rule="evenodd" transform="translate(23)">
    <path fill="#FFB8AC" d="M40.729325 53.7989375C42.2702 53.7989375 43.524075 55.0528125 43.524075 56.5945625 43.524075 58.1354375 42.2702 59.3901875 40.729325 59.3901875 39.187575 59.3901875 37.934575 58.1354375 37.934575 56.5945625 37.934575 55.0528125 39.187575 53.7989375 40.729325 53.7989375M36.840825 56.5945625C36.840825 58.7391875 38.5847 60.4839375 40.729325 60.4839375 42.87395 60.4839375 44.617825 58.7391875 44.617825 56.5945625 44.617825 54.4499375 42.87395 52.7051875 40.729325 52.7051875 38.5847 52.7051875 36.840825 54.4499375 36.840825 56.5945625M17.3341875 66.7428125C15.7941875 66.7428125 14.5403125 65.4880625 14.5403125 63.9471875 14.5403125 62.4054375 15.7941875 61.1515625 17.3341875 61.1515625 18.8759375 61.1515625 20.1298125 62.4054375 20.1298125 63.9471875 20.1298125 65.4880625 18.8759375 66.7428125 17.3341875 66.7428125M17.3341875 60.0578125C15.1904375 60.0578125 13.4465625 61.8025625 13.4465625 63.9471875 13.4465625 66.0918125 15.1904375 67.8365625 17.3341875 67.8365625 19.4796875 67.8365625 21.2235625 66.0918125 21.2235625 63.9471875 21.2235625 61.8025625 19.4796875 60.0578125 17.3341875 60.0578125M19.6746375 36.086575C22.6898875 36.086575 25.1433875 38.540075 25.1433875 41.555325 25.1433875 44.570575 22.6898875 47.024075 19.6746375 47.024075 16.6593875 47.024075 14.2058875 44.570575 14.2058875 41.555325 14.2058875 38.540075 16.6593875 36.086575 19.6746375 36.086575M19.6746375 48.117825C23.2936375 48.117825 26.2371375 45.174325 26.2371375 41.555325 26.2371375 37.936325 23.2936375 34.992825 19.6746375 34.992825 16.0556375 34.992825 13.1121375 37.936325 13.1121375 41.555325 13.1121375 45.174325 16.0556375 48.117825 19.6746375 48.117825"/>
    <g transform="translate(0 .37)">
      <mask id="soup_icon_1-b" fill="#fff">
        <use xlink:href="#soup_icon_1-a"/>
      </mask>
      <path fill="#FFB8AC" d="M49.1640625,25.50485 L42.8500625,25.50485 L5.1209375,25.614225 L5.1174375,25.50485 L4.5180625,4.92835 L4.5171875,4.8811 L49.6951875,4.92835 L49.1640625,25.50485 Z M47.6398125,84.566475 L6.4561875,84.566475 L4.9888125,27.69235 L49.1080625,27.69235 L47.6398125,84.566475 Z M53.5075625,1.21485 C53.0945625,0.792225 52.5301875,0.55335 51.9404375,0.55335 L2.1494375,0.50785 C0.9410625,0.506975 -0.0301875,1.50185 0.0004375,2.710225 L2.1380625,86.809975 C2.1686875,87.996475 3.1381875,88.941475 4.3246875,88.941475 L49.7721875,88.941475 C50.9578125,88.941475 51.9281875,87.996475 51.9579375,86.809975 L54.1270625,2.797725 C54.1428125,2.207975 53.9188125,1.6366 53.5075625,1.21485 L53.5075625,1.21485 Z" mask="url(#soup_icon_1-b)"/>
    </g>
    <g transform="translate(30.625 56.37)">
      <path fill="#FFF" d="M32.2634375,0.79765 C40.9889375,9.522275 40.9898125,23.667525 32.2634375,32.393025 C23.5379375,41.1194 9.3909375,41.1194 0.6671875,32.393025"/>
      <path stroke="#FFB8AC" stroke-width="3" d="M32.2634375,0.79765 C40.9889375,9.522275 40.9898125,23.667525 32.2634375,32.393025 C23.5379375,41.1194 9.3909375,41.1194 0.6671875,32.393025"/>
    </g>
    <g transform="translate(34.125 59.87)">
      <path fill="#FFF" d="M25.3617,0.69895 C32.206825,7.54495 32.2077,18.6452 25.362575,25.490325 C18.516575,32.33545 7.41545,32.3372 0.570325,25.4912"/>
      <path stroke="#FFB8AC" stroke-width="3" d="M25.3617,0.69895 C32.206825,7.54495 32.2077,18.6452 25.362575,25.490325 C18.516575,32.33545 7.41545,32.3372 0.570325,25.4912"/>
    </g>
    <g transform="translate(46.375 72.12)">
      <path fill="#FFF" d="M0.628425,0.75705 L12.922175,13.048175"/>
      <path stroke="#FFB8AC" stroke-width="3" d="M0.628425,0.75705 L12.922175,13.048175"/>
    </g>
    <g transform="translate(29.75 55.494)">
      <path fill="#FFF" d="M34.1074125,0.60795 L0.4776625,34.238575"/>
      <path stroke="#FFB8AC" stroke-width="3" d="M34.1074125,0.60795 L0.4776625,34.238575"/>
    </g>
    <g transform="translate(46.375 72.994)">
      <path fill="#FFF" d="M0.666925,0.477225 L0.66955,17.249225"/>
      <path stroke="#FFB8AC" stroke-width="3" d="M0.666925,0.477225 L0.66955,17.249225"/>
    </g>
    <g transform="translate(46.375 72.12)">
      <path fill="#FFF" d="M17.99595,0.79765 L0.7252,0.79765"/>
      <path stroke="#FFB8AC" stroke-width="3" d="M17.99595,0.79765 L0.7252,0.79765"/>
    </g>
  </g>
</svg>
