<svg xmlns="http://www.w3.org/2000/svg" width="261" height="262" viewBox="0 0 261 262">
  <g fill="#A5B6F3" fill-rule="evenodd">
    <g transform="translate(0 .52)">
      <path d="M257.885152,130.313004 L254.850811,130.313004 C254.843915,164.610714 240.934222,195.631486 218.41114,218.115693 C195.894954,240.593017 164.820549,254.485586 130.456643,254.485586 C96.106529,254.485586 65.0252274,240.593017 42.5090416,218.115693 C19.9928558,195.631486 6.07626687,164.610714 6.07626687,130.313004 C6.07626687,96.0152937 19.9928558,64.987638 42.5090416,42.5103148 C65.0252274,20.0329916 96.106529,6.14042242 130.456643,6.14042242 C164.820549,6.14042242 195.894954,20.0329916 218.41114,42.5103148 C240.934222,64.987638 254.843915,96.0152937 254.850811,130.313004 L257.885152,130.313004 L260.919492,130.313004 C260.919492,94.3561712 246.31328,61.7795423 222.70749,38.2213799 C199.115493,14.6563332 166.475644,0.075331523 130.456643,0.075331523 C94.4445379,0.075331523 61.811585,14.6563332 38.2126913,38.2213799 C14.6069014,61.7795423 -0.00620660558,94.3561712 0.000689622843,130.313004 C-0.00620660558,166.269837 14.6069014,198.846466 38.2126913,222.404628 C61.811585,245.962791 94.4445379,260.550677 130.456643,260.543792 C166.475644,260.550677 199.115493,245.962791 222.70749,222.404628 C246.31328,198.846466 260.919492,166.269837 260.919492,130.313004 L257.885152,130.313004 Z"/>
      <path d="M156.842302 95.4273723C154.532066 98.360095 151.311527 100.260169 147.670319 100.260169 144.787695 100.260169 142.574006 99.3652066 141.063732 97.7955803 139.560354 96.2328384 138.767288 93.9954326 138.767288 91.2898926 138.767288 87.1661815 140.318939 83.0768921 142.780893 80.0271358 145.242846 76.9773796 148.621998 74.9671565 152.25631 74.9671565 154.918255 74.9671565 156.987123 75.9447307 158.393954 77.6245062 159.800784 79.290513 160.559369 81.6656053 160.559369 84.4606415 160.559369 88.5430466 159.152539 92.4946496 156.842302 95.4273723M164.931578 72.4612619C162.579964 69.8039122 159.124954 68.2755919 154.773434 68.2824763 152.235622 68.2824763 149.794357 69.1774386 147.628941 70.5887254 145.608346 71.9036316 143.932563 73.6660189 142.532628 75.5867458L149.373687 47.9943686C147.187583 49.4951516 145.284223 50.6172967 142.325741 50.6172967 139.450014 50.6172967 136.47774 50.0872036 134.208881 49.4469613 131.940021 49.0270174 129.229804 48.4969244 126.609237 48.4969244 117.271744 48.4969244 113.340893 55.9251117 113.340893 61.9695497 113.340893 64.5305188 113.91328 66.7059657 114.851167 68.7988007 113.361582 68.4614687 111.747865 68.2824763 110.044496 68.2824763 105.396438 68.2824763 101.775918 69.5836138 99.320861 71.6420272 96.8658037 73.7004406 95.5693128 76.5161297 95.5693128 79.5314644 95.5693128 82.5399147 96.845115 84.7153616 98.7691628 86.41579 100.686314 88.1162185 103.251711 89.3485127 105.851589 90.5188481 107.927354 91.4206948 109.892779 92.2674668 111.334091 93.265694 112.051299 93.7613655 112.637478 94.2914586 113.037459 94.8903949 113.444337 95.4893312 113.665016 96.1502265 113.671912 96.9075023 113.671912 97.6441251 113.465026 98.2912518 113.113318 98.8419978 112.575412 99.6750012 111.672006 100.308359 110.534128 100.735187 109.403147 101.1689 108.037694 101.382314 106.58259 101.382314 103.913749 101.389198 101.417314 100.783378 99.7070498 99.9297213 99.1415591 99.606158 98.7346816 99.3583222 98.4105589 99.0554119 98.9139835 98.4289383 99.2381063 97.5064386 99.2381063 96.6458979 99.2381063 95.4962155 98.7967477 94.4291451 98.0450588 93.6581006 97.2864736 92.8801718 96.2175582 92.398269 94.9831333 92.398269 93.7004349 92.398269 92.5625572 92.9283621 91.7556984 93.8095558 90.9488397 94.6976338 90.4661037 95.9299281 90.4661037 97.3412148 90.4661037 99.1862141 91.3419247 100.859105 92.8315101 102.339235 95.6313788 105.216883 100.672522 107.123842 106.410184 107.123842 110.844459 107.123842 114.568422 106.104961 117.188989 104.156697 119.809556 102.201549 121.31983 99.3101319 121.31983 95.6063648 121.31983 92.6874107 120.064716 90.5119638 118.182046 88.7908824 116.292479 87.069801 113.775356 85.7962007 111.216855 84.6258654 109.051439 83.6345225 107.037741 82.7257915 105.582636 81.7137956 104.851636 81.2181242 104.258561 80.6811468 103.851683 80.1097477 103.444806 79.5383487 103.224126 78.9256437 103.224126 78.2372112 103.224126 76.9360736 103.955127 75.9171934 105.161967 75.2012235 106.375703 74.4852537 108.072175 74.0997314 109.961741 74.0997314 111.858204 74.0997314 113.665016 74.4439477 114.947715 74.9602721 115.568375 75.1943392 115.899394 75.4146376 116.147658 75.5867458 115.575271 76.5780887 115.402866 77.2045623 115.402866 77.9756068 115.402866 80.2818559 117.347602 82.23012 119.74749 82.23012 120.940537 82.23012 122.057726 81.7413329 122.864585 80.8876765 123.671444 80.0340201 124.181765 78.8223788 124.181765 77.3697861 124.181765 75.6142831 123.381802 73.85878 121.981868 72.4612619 121.175009 71.6213742 120.154367 70.8916357 118.975112 70.2720464 118.154461 68.4752374 117.616555 66.4650143 117.616555 64.2000712 117.616555 57.3019769 122.41633 54.1214184 126.257529 54.1214184 128.098822 54.1214184 130.712493 54.2246833 132.988248 54.4380974 134.995051 54.7547764 137.608721 54.9681905 139.794826 54.9681905L139.815514 54.9681905 127.712633 106.428525 135.6364 106.428525 137.291495 98.8488821C138.650052 103.7161 143.173978 107.123842 148.621998 107.123842 154.070018 107.123842 159.055992 104.445839 162.676512 100.15002 166.297031 95.8542005 168.552098 89.9267961 168.552098 83.4211084 168.552098 78.9118751 167.296985 75.1186116 164.931578 72.4612619M204.951081 179.501511L204.9166 179.597891C204.054572 181.959215 203.220128 183.459998 202.420166 184.361845 201.627099 185.256807 200.882307 185.559717 200.178891 185.559717 199.46858 185.559717 198.916882 185.311882 198.544485 184.8644 198.165193 184.416919 197.95141 183.74914 197.95141 182.909252 197.95141 182.241472 198.20657 181.036715 198.468627 179.921455L201.654684 168.982261 201.654684 168.975377C202.261552 166.820583 202.61326 164.741517 202.61326 162.91717 202.61326 159.578272 201.502967 156.920923 199.66857 155.103461 197.834174 153.285999 195.282569 152.308424 192.413738 152.308424 189.841445 152.308424 187.338114 153.354842 185.110632 155.041502 183.04866 156.604244 181.228056 158.724616 179.800536 161.092824L182.421103 152.907361 174.780082 152.907361 165.614995 190.247943 173.421525 190.247943 178.441979 170.008026C179.386763 166.318027 180.938414 163.516107 182.807292 161.636686 184.683066 159.757265 186.876067 158.800344 189.131133 158.800344 190.793124 158.800344 192.165474 159.330437 193.130946 160.259821 194.089522 161.18232 194.64122 162.510995 194.64122 164.128812 194.64122 165.3198 194.468814 166.428176 194.041248 167.887653L190.848294 179.088451 190.848294 179.088451C190.496587 180.479085 190.241426 182.117555 190.241426 183.33608 190.241426 185.511527 190.958634 187.390948 192.330983 188.726507 193.703333 190.068951 195.717032 190.846879 198.282429 190.846879 200.592665 190.846879 202.647741 190.041413 204.371798 188.389175 206.095855 186.730053 207.481997 184.237927 208.475054 180.864607L208.502639 180.775111 204.951081 179.501511z"/>
    </g>
    <text font-family="ArcherPro-BoldItalic, ArcherPro" font-size="64" font-style="italic" font-weight="bold" letter-spacing="5.333">
      <tspan x="54" y="185">9.</tspan>
    </text>
  </g>
</svg>
