<svg xmlns="http://www.w3.org/2000/svg" xmlns:xlink="http://www.w3.org/1999/xlink" width="180" height="135" viewBox="0 0 180 135">
  <defs>
    <polygon id="soup_icon_5-a" points=".079 .269 63.774 .269 63.774 93.41 .079 93.41 .079 .269"/>
    <polygon id="soup_icon_5-c" points="0 127.048 179.462 127.048 179.462 .732 0 .732"/>
  </defs>
  <g fill="none" fill-rule="evenodd" transform="translate(0 7)">
    <path fill="#FFB8AC" d="M68.0188537,92.775 C63.0351951,92.775 58.9808049,88.7206098 58.9808049,83.7369512 L58.9808049,19.2208537 C58.9808049,16.3979268 60.7947073,15.0003659 62.4549512,14.5591463 L62.4549512,12.129878 L62.1871463,12.129878 C60.4193415,12.129878 58.9808049,10.6913415 58.9808049,8.92280488 L58.9808049,5.0352439 C58.9808049,3.26743902 60.4193415,1.82890244 62.1871463,1.82890244 L117.273732,1.82890244 C119.042268,1.82890244 120.480805,3.26743902 120.480805,5.0352439 L120.480805,8.92280488 C120.480805,10.6913415 119.042268,12.129878 117.273732,12.129878 L117.006659,12.129878 L117.006659,14.5591463 C118.666902,15.0003659 120.480805,16.3979268 120.480805,19.2208537 L120.480805,83.7369512 C120.480805,88.7206098 116.426415,92.775 111.443488,92.775 L68.0188537,92.775 Z"/>
    <g transform="translate(57.805 .462)">
      <mask id="soup_icon_5-b" fill="#fff">
        <use xlink:href="#soup_icon_5-a"/>
      </mask>
      <path fill="#FFB8AC" d="M59.4692195,0.268902439 L4.38263415,0.268902439 C2.00970732,0.268902439 0.0787317073,2.19987805 0.0787317073,4.57280488 L0.0787317073,8.46036585 C0.0787317073,10.550122 1.57507317,12.2967073 3.55214634,12.6845122 L3.55214634,13.3137805 C1.76604878,14.0623171 0.0787317073,15.7518293 0.0787317073,18.7584146 L0.0787317073,83.2745122 C0.0787317073,88.8632927 4.62556098,93.410122 10.2143415,93.410122 L31.8019024,93.410122 L32.0499512,93.410122 L53.6382439,93.410122 C59.2270244,93.410122 63.7738537,88.8632927 63.7738537,83.2745122 L63.7738537,18.7584146 C63.7738537,15.7518293 62.0865366,14.0623171 60.300439,13.3137805 L60.300439,12.6845122 C62.2775122,12.2967073 63.7738537,10.550122 63.7738537,8.46036585 L63.7738537,4.57280488 C63.7738537,2.19987805 61.842878,0.268902439 59.4692195,0.268902439 M59.4692195,2.46402439 C60.6348293,2.46402439 61.5787317,3.40865854 61.5787317,4.57280488 L61.5787317,8.46036585 C61.5787317,9.62597561 60.6348293,10.569878 59.4692195,10.569878 L58.1053171,10.569878 L58.1053171,15.0362195 C58.1053171,15.0362195 61.5787317,15.1189024 61.5787317,18.7584146 L61.5787317,83.2745122 C61.5787317,87.6603659 58.0233659,91.215 53.6382439,91.215 L32.0499512,91.215 L31.8019024,91.215 L10.2143415,91.215 C5.8284878,91.215 2.27385366,87.6603659 2.27385366,83.2745122 L2.27385366,18.7584146 C2.27385366,15.1189024 5.74726829,15.0362195 5.74726829,15.0362195 L5.74726829,10.569878 L4.38263415,10.569878 C3.2177561,10.569878 2.27385366,9.62597561 2.27385366,8.46036585 L2.27385366,4.57280488 C2.27385366,3.40865854 3.2177561,2.46402439 4.38263415,2.46402439 L59.4692195,2.46402439" mask="url(#soup_icon_5-b)"/>
    </g>
    <mask id="soup_icon_5-d" fill="#fff">
      <use xlink:href="#soup_icon_5-c"/>
    </mask>
    <polygon fill="#FFF" points="60.079 81.339 119.384 81.339 119.384 25.921 60.079 25.921" mask="url(#soup_icon_5-d)"/>
    <polygon fill="#B4B5B5" points="63.043 78.567 116.418 78.567 116.418 28.691 63.043 28.691" mask="url(#soup_icon_5-d)"/>
    <path fill="#FFB8AC" d="M63,27 C77.2170732,27 88.7421951,38.1468293 88.7421951,51.8970732 C88.7421951,65.6473171 77.2170732,76.7941463 63,76.7941463 L63,27 Z" mask="url(#soup_icon_5-d)"/>
    <path fill="#A5B6F3" d="M63.0433902,78.567439 C63.0433902,64.2932927 75.0082683,52.7213415 89.7660732,52.7213415 C104.523878,52.7213415 116.488756,64.2932927 116.488756,78.567439 L63.0433902,78.567439 Z" mask="url(#soup_icon_5-d)"/>
    <path fill="#FFF" d="M78.1312683 74.751C77.9541951 74.9639268 77.7105366 75.0956341 77.4412683 75.0956341 77.2415122 75.0956341 77.0659024 75.026122 76.9393171 74.8980732 76.8127317 74.768561 76.7366341 74.5805122 76.7366341 74.3390488 76.7366341 74.013439 76.8456585 73.7207561 77.022 73.5092927 77.1998049 73.2978293 77.4434634 73.1675854 77.7134634 73.1675854 77.9117561 73.1675854 78.0873659 73.2363659 78.2139512 73.3644146 78.3405366 73.4924634 78.4180976 73.6797805 78.4180976 73.9175854 78.4180976 74.2431951 78.3083415 74.5373415 78.1312683 74.751M77.7390732 72.6729512C77.2802927 72.6729512 76.8829756 72.8749024 76.6005366 73.1836829 76.3180976 73.4931951 76.1512683 73.9095366 76.1512683 74.3390488 76.1512683 74.6712439 76.2646829 74.9822195 76.4798049 75.2105122 76.6949268 75.4388049 77.0117561 75.5836829 77.4149268 75.5836829 77.8737073 75.5836829 78.2710244 75.3817317 78.5534634 75.0736829 78.8359024 74.7656341 79.0027317 74.3507561 79.0027317 73.9241707 79.0027317 73.5890488 78.8893171 73.275878 78.6734634 73.0468537 78.4583415 72.8178293 78.1422439 72.6729512 77.7390732 72.6729512M81.431122 74.751C81.2540488 74.9639268 81.0103902 75.0956341 80.741122 75.0956341 80.5413659 75.0956341 80.3657561 75.026122 80.2391707 74.8980732 80.1125854 74.768561 80.0364878 74.5805122 80.0357561 74.3390488 80.0357561 74.013439 80.1455122 73.7207561 80.3218537 73.5092927 80.4996585 73.2978293 80.7433171 73.1675854 81.0125854 73.1675854 81.2116098 73.1675854 81.3872195 73.2363659 81.5138049 73.3644146 81.6403902 73.4924634 81.7179512 73.6797805 81.7179512 73.9175854 81.7179512 74.2431951 81.6074634 74.5373415 81.431122 74.751M81.0389268 72.6729512C80.5801463 72.6729512 80.1828293 72.8749024 79.9003902 73.1836829 79.6179512 73.4931951 79.4503902 73.9095366 79.4503902 74.3390488 79.4503902 74.6712439 79.5645366 74.9822195 79.7796585 75.2105122 79.9947805 75.4388049 80.3116098 75.5836829 80.7147805 75.5836829 81.173561 75.5836829 81.570878 75.3817317 81.8533171 75.0736829 82.1350244 74.7656341 82.3025854 74.3507561 82.3025854 73.9241707 82.3025854 73.5890488 82.188439 73.275878 81.9733171 73.0468537 81.7581951 72.8178293 81.4420976 72.6729512 81.0389268 72.6729512M85.623439 74.7242195L85.6212439 74.7315366C85.556122 74.9086098 85.4931951 75.0212927 85.4339268 75.0893415 85.3739268 75.1566585 85.3183171 75.1793415 85.2656341 75.1800732 85.2122195 75.1793415 85.1712439 75.1610488 85.1427073 75.1273902 85.1149024 75.0937317 85.0980732 75.0439756 85.0980732 74.9803171 85.0980732 74.9298293 85.1178293 74.8390976 85.1368537 74.7549512L85.3768537 73.9325122C85.4222195 73.7700732 85.448561 73.6142195 85.448561 73.4773902 85.448561 73.2264146 85.3644146 73.0266585 85.2275854 72.8898293 85.0900244 72.753 84.8983171 72.6798293 84.6831951 72.6798293 84.4892927 72.6798293 84.3012439 72.758122 84.1351463 72.885439 83.9800244 73.0025122 83.8431951 73.1620244 83.7363659 73.3398293L83.9331951 72.7251951 83.3595366 72.7251951 82.6717317 75.5320244 83.2578293 75.5320244 83.6346585 74.0100732C83.7056341 73.7334878 83.8212439 73.5220244 83.9617317 73.3808049 84.1029512 73.2395854 84.2668537 73.167878 84.4366098 73.167878 84.5617317 73.167878 84.6641707 73.2073902 84.7366098 73.2769024 84.8090488 73.3471463 84.8492927 73.4466585 84.8500244 73.568122 84.8500244 73.658122 84.8375854 73.7415366 84.8053902 73.8512927L84.8046585 73.8512927 84.5653902 74.6934878C84.5397805 74.7973902 84.5192927 74.9210488 84.5192927 75.0125122 84.5192927 75.1756829 84.573439 75.3176341 84.6766098 75.417878 84.7797805 75.518122 84.9305122 75.5773902 85.1229512 75.5773902 85.2970976 75.5773902 85.4514878 75.5166585 85.5802683 75.3922683 85.7090488 75.267878 85.8136829 75.0798293 85.8883171 74.8266585L85.8905122 74.8200732 85.623439 74.7242195zM74.8057317 74.7095122C74.6330488 74.9282927 74.3930488 75.0709756 74.1208537 75.0709756 73.9064634 75.0709756 73.7410976 75.0036585 73.6291463 74.8865854 73.5157317 74.7702439 73.4571951 74.6026829 73.4571951 74.4 73.4571951 74.0919512 73.5720732 73.7868293 73.7564634 73.5592683 73.940122 73.3309756 74.1918293 73.1809756 74.4632927 73.1809756 74.6623171 73.1809756 74.8159756 73.2541463 74.9206098 73.3792683 75.0267073 73.5043902 75.0823171 73.6814634 75.0823171 73.89 75.0823171 74.195122 74.9776829 74.4907317 74.8057317 74.7095122M75.4086585 72.9936585C75.2330488 72.7946341 74.9754878 72.6812195 74.6506098 72.6812195 74.4618293 72.6812195 74.2789024 72.7478049 74.1179268 72.8531707 73.9671951 72.9519512 73.8428049 73.0836585 73.7381707 73.2270732L74.2481707 71.165122C74.085 71.2770732 73.9430488 71.3612195 73.7228049 71.3612195 73.5076829 71.3612195 73.2867073 71.3217073 73.1169512 71.2741463 72.9479268 71.2419512 72.7459756 71.202439 72.5506098 71.202439 71.8532927 71.202439 71.559878 71.7578049 71.559878 72.2092683 71.559878 72.4009756 71.6030488 72.5634146 71.672561 72.72 71.5613415 72.695122 71.4413415 72.6812195 71.3147561 72.6812195 70.9679268 72.6812195 70.6979268 72.7778049 70.515 72.9321951 70.3313415 73.0858537 70.2347561 73.2965854 70.2347561 73.5219512 70.2347561 73.7473171 70.329878 73.9090244 70.4732927 74.0363415 70.6159756 74.1629268 70.8076829 74.255122 71.0015854 74.3429268 71.1567073 74.4102439 71.3030488 74.4731707 71.409878 74.5478049 71.4640244 74.585122 71.5079268 74.6253659 71.5379268 74.67 71.5679268 74.7146341 71.5847561 74.7636585 71.5847561 74.82 71.5847561 74.8756098 71.570122 74.9231707 71.5430488 74.964878 71.5028049 75.0270732 71.4362195 75.0746341 71.3506098 75.1060976 71.2664634 75.1382927 71.1640244 75.1543902 71.0564634 75.1543902 70.857439 75.1543902 70.6715854 75.1097561 70.5435366 75.0460976 70.5010976 75.0219512 70.4703659 75.0036585 70.4462195 74.9809756 70.4842683 74.9341463 70.5084146 74.8646341 70.5084146 74.8009756 70.5084146 74.7146341 70.4754878 74.634878 70.4191463 74.5770732 70.3628049 74.5192683 70.2830488 74.4826829 70.1908537 74.4826829 70.095 74.4826829 70.010122 74.5229268 69.950122 74.5887805 69.8893902 74.6546341 69.8535366 74.747561 69.8535366 74.8521951 69.8535366 74.9904878 69.9193902 75.1156098 70.0306098 75.2260976L70.0306098 75.2260976C70.2391463 75.4412195 70.6152439 75.5831707 71.0432927 75.5831707 71.3740244 75.5831707 71.6513415 75.5070732 71.847439 75.3614634 72.0435366 75.2158537 72.1554878 75 72.1554878 74.7234146 72.1554878 74.5046341 72.062561 74.3421951 71.9213415 74.2134146 71.780122 74.0853659 71.5920732 73.9895122 71.4018293 73.902439 71.240122 73.8278049 71.0908537 73.7604878 70.9810976 73.685122 70.9269512 73.6470732 70.8830488 73.6082927 70.8530488 73.565122 70.8223171 73.5219512 70.8054878 73.4765854 70.8054878 73.4253659 70.8054878 73.3280488 70.8596341 73.2512195 70.9503659 73.1985366 71.0403659 73.145122 71.1669512 73.1158537 71.3081707 73.1158537 71.4493902 73.1158537 71.5847561 73.1414634 71.6806098 73.1802439 71.7259756 73.1978049 71.7508537 73.2146341 71.769878 73.2270732 71.727439 73.3009756 71.7135366 73.3478049 71.7135366 73.4056098 71.7135366 73.5782927 71.859878 73.7231707 72.0384146 73.7231707 72.1276829 73.7231707 72.2103659 73.6873171 72.2703659 73.6229268 72.3310976 73.5592683 72.3691463 73.4685366 72.3691463 73.3602439 72.3691463 73.2292683 72.309878 73.097561 72.2052439 72.9929268L72.2045122 72.9929268C72.1445122 72.9307317 72.0691463 72.8758537 71.9806098 72.8297561 71.919878 72.6958537 71.8796341 72.545122 71.8796341 72.3760976 71.8796341 71.8602439 72.237439 71.622439 72.5242683 71.622439 72.6603659 71.622439 72.8564634 71.6304878 73.0254878 71.6465854 73.1754878 71.6707317 73.3708537 71.6860976 73.5340244 71.6860976L73.5354878 71.6860976 72.6318293 75.5319512 73.2230488 75.5319512 73.347439 74.9656098C73.4484146 75.3292683 73.785 75.5831707 74.1918293 75.5831707 74.5986585 75.5831707 74.9703659 75.3834146 75.2403659 75.0621951 75.5103659 74.7409756 75.6786585 74.2982927 75.6786585 73.812439 75.6786585 73.475122 75.585 73.1919512 75.4086585 72.9936585" mask="url(#soup_icon_5-d)"/>
    <polygon fill="#FFF" points="99.151 43.453 100.596 43.453 100.466 44.011 99.022 44.011" mask="url(#soup_icon_5-d)"/>
    <path fill="#FFF" d="M111.158195,41.2993171 L110.973073,41.2993171 C110.973073,43.392 110.125756,45.2849268 108.754537,46.656878 C107.382585,48.0280976 105.489659,48.8754146 103.396976,48.8754146 C101.304293,48.8754146 99.4113659,48.0280976 98.0394146,46.656878 C96.6681951,45.2849268 95.820878,43.392 95.820878,41.2993171 C95.820878,39.2066341 96.6681951,37.3137073 98.0394146,35.9424878 C99.4113659,34.5705366 101.304293,33.7232195 103.396976,33.7232195 C105.489659,33.7232195 107.382585,34.5705366 108.754537,35.9424878 C110.125756,37.3137073 110.973073,39.2066341 110.973073,41.2993171 L111.158195,41.2993171 L111.343317,41.2993171 C111.343317,39.1056585 110.453561,37.1183415 109.015756,35.6805366 C107.577951,34.2427317 105.590634,33.3529756 103.396976,33.3529756 C101.203317,33.3529756 99.216,34.2427317 97.7781951,35.6805366 C96.3403902,37.1183415 95.4506341,39.1056585 95.4506341,41.2993171 C95.4506341,43.4929756 96.3403902,45.4810244 97.7781951,46.9180976 C99.216,48.3559024 101.203317,49.2456585 103.396976,49.2456585 C105.590634,49.2456585 107.577951,48.3559024 109.015756,46.9180976 C110.453561,45.4810244 111.343317,43.4929756 111.343317,41.2993171 L111.158195,41.2993171 Z" mask="url(#soup_icon_5-d)"/>
    <path fill="#FFF" d="M105.003659 39.171C104.863171 39.3495366 104.667073 39.465878 104.444634 39.465878 104.269756 39.465878 104.135122 39.411 104.042927 39.3151463 103.951463 39.2200244 103.902439 39.0831951 103.902439 38.918561 103.902439 38.6668537 103.997561 38.4173415 104.147561 38.2314878 104.297561 38.0449024 104.502439 37.9219756 104.724146 37.9227073 104.886585 37.9227073 105.012439 37.9819756 105.098049 38.0844146 105.18439 38.186122 105.230488 38.3317317 105.230488 38.5014878 105.230488 38.751 105.144146 38.9917317 105.003659 39.171M105.496829 37.7697805C105.353415 37.6073415 105.142683 37.5144146 104.877805 37.5144146 104.722683 37.5144146 104.574146 37.5692927 104.441707 37.6549024 104.31878 37.7353902 104.217805 37.8436829 104.132927 37.9607561L104.548537 36.2763659C104.415366 36.3678293 104.299756 36.4366098 104.119756 36.4366098 103.944146 36.4366098 103.763415 36.4044146 103.625122 36.3656341 103.486829 36.3392927 103.321463 36.3070976 103.161951 36.3070976 102.593415 36.3070976 102.354146 36.7607561 102.354146 37.1295366 102.354146 37.2853902 102.389268 37.418561 102.44561 37.545878 102.35561 37.5253902 102.256829 37.5144146 102.152927 37.5144146 101.870488 37.5144146 101.649512 37.5941707 101.500244 37.7200244 101.350244 37.8451463 101.27122 38.0170976 101.27122 38.2007561 101.27122 38.3851463 101.349512 38.5175854 101.466585 38.6214878 101.582927 38.7246585 101.739512 38.8000244 101.897561 38.871L101.898293 38.871C102.024878 38.9266098 102.144146 38.9778293 102.231951 39.038561 102.275122 39.0692927 102.310976 39.1022195 102.335854 39.1388049 102.360732 39.1746585 102.373902 39.2149024 102.373902 39.261 102.373902 39.3063659 102.362195 39.3451463 102.339512 39.3795366 102.307317 39.4300244 102.252439 39.4688049 102.183659 39.4951463 102.114146 39.5214878 102.031463 39.5346585 101.942195 39.5346585 101.780488 39.5346585 101.628293 39.4973415 101.523659 39.4453902 101.488537 39.4256341 101.46439 39.411 101.444634 39.3919756 101.475366 39.3539268 101.495122 39.2975854 101.495122 39.2456341 101.495122 39.1753902 101.468049 39.1102683 101.421951 39.063439 101.376585 39.015878 101.311463 38.985878 101.236098 38.985878 101.157805 38.985878 101.088293 39.0188049 101.039268 39.0722195 100.990244 39.1263659 100.960976 39.2017317 100.960976 39.2873415 100.960976 39.4000244 101.01439 39.5024634 101.105122 39.5924634 101.274878 39.7680732 101.582195 39.8844146 101.931951 39.8844146 102.201951 39.8844146 102.428049 39.8222195 102.588293 39.7036829 102.748537 39.5844146 102.84 39.4080732 102.84 39.1819756 102.84 39.003439 102.763902 38.871 102.649024 38.7663659 102.534146 38.661 102.380488 38.583439 102.224634 38.5117317 102.092195 38.451 101.97 38.3953902 101.881463 38.3339268 101.836829 38.3031951 101.800976 38.2717317 101.776098 38.2366098 101.751951 38.2014878 101.738049 38.1641707 101.738049 38.1217317 101.738049 38.0427073 101.782683 37.9805122 101.855854 37.9366098 101.929756 37.893439 102.032927 37.8700244 102.148537 37.8700244 102.263415 37.8700244 102.373171 37.8905122 102.452195 37.9219756 102.489512 37.9366098 102.51 37.9497805 102.524634 37.9607561 102.490244 38.0207561 102.479268 38.0588049 102.48 38.1056341 102.48 38.2468537 102.598537 38.3653902 102.744146 38.3653902 102.817317 38.3653902 102.884634 38.3353902 102.93439 38.2841707 102.983415 38.2314878 103.014146 38.1575854 103.014146 38.0690488 103.014146 37.9622195 102.965854 37.8546585 102.880976 37.7690488 102.83122 37.718561 102.769024 37.6739268 102.697317 37.635878 102.646829 37.526122 102.614634 37.4031951 102.614634 37.2656341 102.614634 36.8449024 102.907317 36.6502683 103.140732 36.6502683 103.252683 36.6502683 103.412195 36.6568537 103.550488 36.6700244 103.673415 36.6890488 103.832195 36.7022195 103.965366 36.7022195L103.966829 36.7022195 103.229268 39.8419756 103.711463 39.8419756 103.813171 39.3795366C103.895122 39.6766098 104.170976 39.8844146 104.502439 39.8844146 104.835366 39.8844146 105.139024 39.7212439 105.358537 39.4592927 105.579512 39.1966098 105.717073 38.835878 105.717073 38.438561 105.717073 38.163439 105.640244 37.9322195 105.496829 37.7697805M107.934073 44.3007805L107.931878 44.3066341C107.879927 44.4507805 107.827976 44.5422439 107.779683 44.597122 107.73139 44.652 107.686024 44.6702927 107.643585 44.6702927 107.600415 44.6702927 107.566756 44.6549268 107.544073 44.6278537 107.520659 44.6007805 107.507488 44.5598049 107.507488 44.5085854 107.507488 44.4676098 107.522854 44.3937073 107.538951 44.3263902L107.733585 43.6590732 107.733585 43.6583415C107.770171 43.5266341 107.79139 43.4000488 107.79139 43.2888293 107.792122 43.0854146 107.724073 42.9229756 107.612854 42.8117561 107.500171 42.7005366 107.345049 42.6412683 107.170171 42.6412683 107.013585 42.6412683 106.860659 42.7049268 106.726024 42.8080976 106.600171 42.9039512 106.488951 43.0334634 106.401878 43.1776098L106.562122 42.6778537 106.096024 42.6778537 105.538463 44.9563902 106.013341 44.9563902 106.319195 43.7212683 106.319195 43.7212683C106.377 43.4959024 106.47139 43.3254146 106.584805 43.2105366 106.699683 43.0956585 106.832854 43.037122 106.971146 43.037122 107.07139 43.037122 107.155537 43.0700488 107.214073 43.1263902 107.27261 43.1834634 107.306268 43.2639512 107.306268 43.3627317 107.306268 43.4351707 107.295293 43.5032195 107.269683 43.5917561L107.075049 44.2751707 107.075049 44.2759024C107.053829 44.3600488 107.037732 44.4602927 107.037732 44.5349268 107.037732 44.6673659 107.081634 44.7822439 107.165049 44.8641951 107.248463 44.9454146 107.37139 44.9929756 107.527244 44.9929756 107.668463 44.9929756 107.794317 44.9432195 107.89822 44.8429756 108.003585 44.742 108.087732 44.5898049 108.148463 44.3841951L108.150659 44.3783415 107.934073 44.3007805z" mask="url(#soup_icon_5-d)"/>
    <path fill="#D4F2FF" fill-opacity=".2" d="M49.5866341,103.513024 C35.4763902,103.513024 24.036878,92.0742439 24.036878,77.9632683 L24.036878,45.9079024 C31.8288293,42.0796098 42.8080976,44.9859512 53.2305366,46.1237561 C75.0815122,40.1252195 72.5922439,41.8571707 90.5549268,45.1783902 C100.388341,39.9020488 108.921512,40.6022927 120.345659,46.6198537 C129.945659,42.7813171 141.424683,44.1042439 153.426878,46.8642439 L153.426878,78.4322927 C153.426878,92.2835122 142.198098,103.513024 128.346146,103.513024 L49.5866341,103.513024 Z" mask="url(#soup_icon_5-d)"/>
    <path fill="#EEE" d="M25.7656098,14.2925854 L25.7656098,81.7172195 C25.7656098,92.9269756 34.884878,102.046244 46.0946341,102.046244 L131.743171,102.046244 C142.73122,102.046244 151.669756,93.1062439 151.669756,82.1181951 L151.669756,14.2925854 L25.7656098,14.2925854 Z M131.743171,105.076976 L46.0946341,105.076976 C33.2143902,105.076976 22.7341463,94.5981951 22.7341463,81.7172195 L22.7341463,11.261122 L154.70122,11.261122 L154.70122,82.1181951 C154.70122,94.7781951 144.402439,105.076976 131.743171,105.076976 L131.743171,105.076976 Z" mask="url(#soup_icon_5-d)"/>
    <path fill="#FFF" d="M27.8328293,31.7474634 L27.8328293,31.7474634 C27.8328293,34.4899024 25.5894146,36.7333171 22.8469756,36.7333171 L6.50209756,36.7333171 C3.75965854,36.7333171 1.5155122,34.4899024 1.5155122,31.7474634 C1.5155122,29.0050244 3.75965854,26.7616098 6.50209756,26.7616098 L22.8469756,26.7616098 C25.5894146,26.7616098 27.8328293,29.0050244 27.8328293,31.7474634" mask="url(#soup_icon_5-d)"/>
    <path fill="#EEE" d="M6.50187805,28.2768293 C4.58846341,28.2768293 3.03139024,29.8339024 3.03139024,31.7473171 C3.03139024,33.6607317 4.58846341,35.2178049 6.50187805,35.2178049 L22.8467561,35.2178049 C24.7601707,35.2178049 26.3172439,33.6607317 26.3172439,31.7473171 C26.3172439,29.8339024 24.7601707,28.2768293 22.8474878,28.2768293 L6.50187805,28.2768293 Z M22.8467561,38.2492683 L6.50187805,38.2492683 C2.9172439,38.2492683 -7.31707319e-05,35.3326829 -7.31707319e-05,31.7473171 C-7.31707319e-05,28.1619512 2.9172439,25.2453659 6.50187805,25.2453659 L22.8474878,25.2453659 C26.432122,25.2453659 29.3487073,28.1619512 29.3487073,31.7473171 C29.3487073,35.3326829 26.432122,38.2492683 22.8467561,38.2492683 L22.8467561,38.2492683 Z" mask="url(#soup_icon_5-d)"/>
    <path fill="#FFF" d="M177.946463,31.7474634 L177.946463,31.7474634 C177.946463,34.4899024 175.703049,36.7333171 172.96061,36.7333171 L156.615,36.7333171 C153.872561,36.7333171 151.628415,34.4899024 151.628415,31.7474634 C151.628415,29.0050244 153.872561,26.7616098 156.615,26.7616098 L172.96061,26.7616098 C175.703049,26.7616098 177.946463,29.0050244 177.946463,31.7474634" mask="url(#soup_icon_5-d)"/>
    <path fill="#EEE" d="M156.615512 28.2768293C154.701366 28.2768293 153.144293 29.8339024 153.144293 31.7473171 153.144293 33.6607317 154.701366 35.2178049 156.615512 35.2178049L172.959659 35.2178049C174.873805 35.2178049 176.430878 33.6607317 176.430878 31.7473171 176.430878 29.8339024 174.873805 28.2768293 172.959659 28.2768293L156.615512 28.2768293zM172.959659 38.2492683L156.615512 38.2492683C153.030146 38.2492683 150.112829 35.3326829 150.112829 31.7473171 150.112829 28.1619512 153.030146 25.2453659 156.615512 25.2453659L172.959659 25.2453659C176.545024 25.2453659 179.462341 28.1619512 179.462341 31.7473171 179.462341 35.3326829 176.545024 38.2492683 172.959659 38.2492683L172.959659 38.2492683zM124.563293 127.047732L51.6040244 127.047732C50.5276829 127.047732 49.647439 126.166756 49.647439 125.091146L49.647439 125.090415C49.647439 124.014073 50.5276829 123.133829 51.6040244 123.133829L124.563293 123.133829C125.639634 123.133829 126.52061 124.014073 126.52061 125.090415 126.52061 126.166756 125.639634 127.047732 124.563293 127.047732M25.7427805 47.733878C32.8908293 41.7192439 42.7761951 46.8331463 50.7532683 47.6475366 54.978878 48.0799756 58.7508293 47.1294878 62.6757073 45.6426585 66.9247317 44.031439 70.9608293 42.4736341 75.5866829 43.3092439 79.6000976 44.0343659 83.3544878 45.896561 87.4849756 46.0107073 91.5876585 46.124122 95.3705854 44.3855854 99.2735122 43.3992439 104.334 42.1194878 108.437415 43.6004634 113.121073 45.4129024 116.666927 46.7855854 119.685951 47.1902195 123.460098 46.6729024 128.51839 45.9799756 133.068146 45.044122 138.202537 45.7948537 142.928634 46.4863171 147.512049 47.6621707 152.316439 47.6980244 153.449854 47.7068049 153.450585 45.9455854 152.316439 45.9375366 147.516439 45.9016829 142.933024 44.6929024 138.209122 44.0321707 134.316439 43.4885122 130.679854 43.671439 126.825951 44.3409512 122.030341 45.1743659 118.199854 45.4992439 113.589366 43.7146098 109.540098 42.1487561 105.686195 40.5785122 101.260829 41.2019268 96.8800976 41.8194878 92.8535122 44.0453415 88.3981463 44.246561 83.6720488 44.4594878 79.3169268 41.9899756 74.6983902 41.3892439 70.7632683 40.8777805 67.0930244 42.0763171 63.4600976 43.4629024 58.6286341 45.3075366 54.2654634 46.5009512 49.0447317 45.6485122 40.9344878 44.3255854 31.6952195 40.4321707 24.4974146 46.4885122 23.628878 47.2187561 24.8800976 48.459 25.7427805 47.733878" mask="url(#soup_icon_5-d)"/>
    <path fill="#FFB8AC" d="M66.1831463 119.260829L68.751439 119.260829C70.1804634 118.764732 70.9809512 118.063024 71.1960732 117.117659 71.6387561 115.174976 69.6448537 112.294244 67.4672927 110.065463 65.289 112.294244 63.2958293 115.174976 63.7385122 117.117659 63.9536341 118.063024 64.754122 118.764732 66.1831463 119.260829M68.8846098 120.890341L66.0485122 120.890341C65.9621707 120.890341 65.8758293 120.876439 65.793878 120.848634 63.729 120.165951 62.504122 119.032537 62.1499756 117.479854 61.3904634 114.147659 65.0855854 110.096927 66.7882683 108.441073 66.8197317 108.394244 66.8446098 108.365707 66.849 108.361317 67.0107073 108.180585 67.2397317 108.08839 67.4672927 108.096439 67.6977805 108.089122 67.923878 108.180585 68.0855854 108.361317 68.0892439 108.365707 68.1148537 108.394244 68.1463171 108.441073 69.849 110.096927 73.5433902 114.147659 72.783878 117.479854 72.4304634 119.032537 71.204122 120.165951 69.1407073 120.848634 69.0587561 120.876439 68.9724146 120.890341 68.8846098 120.890341M79.5868537 119.260829L82.1544146 119.260829C83.583439 118.765463 84.3839268 118.063024 84.5990488 117.11839 85.0417317 115.176439 83.048561 112.295707 80.871 110.065463 78.6927073 112.294244 76.7002683 115.174976 77.1422195 117.11839 77.3580732 118.063024 78.158561 118.764732 79.5868537 119.260829M82.2875854 120.890341L79.4522195 120.890341C79.3651463 120.890341 79.2788049 120.876439 79.1968537 120.848634 77.133439 120.165951 75.908561 119.032537 75.5544146 117.479854 74.7949024 114.14839 78.4892927 110.096927 80.1919756 108.441805 80.2227073 108.394244 80.2475854 108.365707 80.2527073 108.361317 80.4144146 108.180585 80.6492927 108.08839 80.871 108.096439 81.1073415 108.089122 81.3275854 108.180585 81.4900244 108.361317 81.4936829 108.365707 81.5192927 108.394244 81.5507561 108.441805 83.2519756 110.096927 86.9463659 114.151317 86.1875854 117.480585 85.8327073 119.033268 84.6070976 120.165951 82.5436829 120.848634 82.4617317 120.876439 82.3753902 120.890341 82.2875854 120.890341M92.990561 119.260829L95.558122 119.260829C96.9871463 118.764732 97.7869024 118.063024 98.0027561 117.11839 98.445439 115.175707 96.4515366 112.294976 94.2739756 110.065463 92.0956829 112.294976 90.1032439 115.175707 90.5451951 117.11839 90.7610488 118.063024 91.5608049 118.764732 92.990561 119.260829M95.6920244 120.890341L92.8559268 120.890341C92.7688537 120.890341 92.6825122 120.876439 92.600561 120.848634 90.5364146 120.165951 89.3115366 119.032537 88.9573902 117.480585 88.197878 114.149854 91.893 110.096927 93.5949512 108.441805 93.6256829 108.394244 93.6512927 108.365707 93.6556829 108.361317 93.8173902 108.180585 94.0332439 108.08839 94.2739756 108.096439 94.490561 108.089122 94.730561 108.180585 94.893 108.361317 94.8966585 108.365707 94.9222683 108.394244 94.9537317 108.441805 96.6556829 110.096927 100.350805 114.149854 99.590561 117.480585 99.2364146 119.032537 98.0108049 120.165951 95.948122 120.848634 95.865439 120.876439 95.7798293 120.890341 95.6920244 120.890341M106.394195 119.260829L108.961756 119.260829C110.39078 118.765463 111.191268 118.063756 111.40639 117.11839 111.849073 115.176439 109.855171 112.295707 107.67761 110.065463 105.499317 112.294244 103.506878 115.174976 103.949561 117.117659 104.164683 118.063024 104.965171 118.764732 106.394195 119.260829M109.095659 120.890341L106.259561 120.890341C106.17322 120.890341 106.086878 120.876439 106.004927 120.848634 103.940049 120.165951 102.715171 119.032537 102.360293 117.479854 101.601512 114.147659 105.296634 110.096927 106.999317 108.441805 107.030049 108.394244 107.054927 108.365707 107.059317 108.361317 107.221024 108.180585 107.442 108.08839 107.67761 108.096439 107.924927 108.089122 108.134195 108.180585 108.296634 108.361317 108.300293 108.365707 108.326634 108.394244 108.357366 108.441805 110.058585 110.096927 113.754439 114.151317 112.994927 117.480585 112.640049 119.033268 111.414439 120.165951 109.351024 120.848634 109.269073 120.876439 109.182732 120.890341 109.095659 120.890341" mask="url(#soup_icon_5-d)"/>
  </g>
</svg>
