<svg xmlns="http://www.w3.org/2000/svg" xmlns:xlink="http://www.w3.org/1999/xlink" width="100" height="119" viewBox="0 0 100 119">
  <defs>
    <polygon id="soup_s_icon4-a" points="0 106.513 99.995 106.513 99.995 .351 0 .351"/>
  </defs>
  <g fill="none" fill-rule="evenodd">
    <path fill="#A5B6F3" d="M80.8966527,56.663702 L7.08368201,56.663702 C6.72845188,58.7141816 6.54309623,60.6769446 6.54309623,62.8468858 C6.54309623,70.1469941 8.64142259,76.9462825 12.2656904,82.6875418 C12.7217573,82.6975665 13.2447699,82.8805183 13.7824268,83.1612113 C13.383682,82.4068487 13.2338912,81.7869848 13.3313808,81.2895065 C13.4062762,80.9048066 13.6317992,80.5940393 13.983682,80.3914558 C14.3343096,80.1897076 14.716318,80.1491909 15.0887029,80.2736649 C15.5723849,80.4357317 16.0410042,80.8713908 16.5046025,81.5898314 C16.5435146,80.8764032 16.6857741,80.2440084 17,79.8354997 C17.2665272,79.4888103 17.6405858,79.3054409 18.0824268,79.3054409 C18.5242678,79.3054409 18.8970711,79.4888103 19.1606695,79.8354997 C19.4715481,80.2444261 19.6075314,80.8768209 19.6384937,81.5902491 C20.0912134,80.8743147 20.5514644,80.4382379 21.0297071,80.2740826 C21.4016736,80.1466847 21.783682,80.186366 22.1359833,80.389785 C22.4857741,80.5915331 22.7121339,80.9010473 22.7903766,81.2853295 C22.8912134,81.7832256 22.748954,82.4030894 22.3610879,83.1595405 C22.9129707,82.8713289 23.4506276,82.6837825 23.9150628,82.6837825 C24.4485356,82.6837825 24.8665272,82.9185288 25.1238494,83.3637949 C25.3447699,83.7455709 25.3732218,84.1607627 25.2054393,84.5646767 C25.0096234,85.0375108 24.5376569,85.4735876 23.9443515,85.8612113 C24.7903766,85.905905 25.3941423,86.0951222 25.7719665,86.4326222 C26.0615063,86.6911773 26.2154812,87.0399551 26.2154812,87.4405275 C26.2150628,87.8431884 26.060251,88.1919663 25.7677824,88.4488506 C25.3845188,88.7850975 24.7682008,88.9667961 23.907113,88.9985412 C24.5230126,89.3861649 25.0138075,89.8251655 25.2158996,90.3051006 C25.3849372,90.7065084 25.3573222,91.1204471 25.1364017,91.5026408 C24.8769874,91.9508308 24.4543933,92.1876655 23.9129707,92.1876655 C23.4506276,92.1876655 22.916318,92.0059669 22.3665272,91.72778 C22.7539749,92.4846488 22.892887,93.104095 22.7891213,93.6011556 C22.7891213,93.6015733 22.7887029,93.601991 22.7887029,93.6024087 C28.8171548,97.7275944 36.1196653,100.140636 43.990795,100.140636 C64.6728033,100.140636 81.4384937,83.5388103 81.4384937,62.8924149 C81.4384937,60.7228914 81.2527197,58.7141816 80.8966527,56.663702"/>
    <g transform="translate(0 .067)">
      <mask id="soup_s_icon4-b" fill="#fff">
        <use xlink:href="#soup_s_icon4-a"/>
      </mask>
      <path fill="#FFB8AC" d="M84.5945188,62.598815 C84.5945188,84.949836 66.3798745,103.134319 43.9907531,103.134319 C21.6012134,103.134319 3.38615063,84.949836 3.38615063,62.598815 C3.38615063,40.2473762 21.6012134,22.0637283 43.9907531,22.0637283 C66.3798745,22.0637283 84.5945188,40.2473762 84.5945188,62.598815 M87.8631381,24.2641615 C81.7535146,16.5095978 75.5397071,13.2916522 75.2777824,13.1609127 L74.5041423,12.7185705 L64.2212971,12.7185705 L64.2212971,7.79767017 L35.6677406,7.79767017 C23.7882427,7.38790842 11.2832218,0.350949876 11.2832218,0.350949876 C11.7945188,22.1631405 23.0330126,23.7315965 23.0346862,23.7315965 C19.3141841,25.7440656 15.9125105,28.4010427 12.884477,31.4235056 C8.84472803,35.4567976 5.67359833,40.2135427 3.45811715,45.4435396 C1.1639749,50.8589944 -4.18410039e-05,56.6403527 -4.18410039e-05,62.5687407 C-4.18410039e-05,68.4962933 1.1639749,74.2638676 3.45811715,79.6789047 C5.67359833,84.9084839 8.84472803,89.6113459 12.884477,93.6442203 C16.9242259,97.6770947 21.62841,100.847005 26.8669038,103.058716 C32.2911715,105.349372 38.0522594,106.513079 43.9907531,106.513079 C49.92841,106.513079 55.6894979,105.351878 61.1146025,103.061222 C66.3522594,100.849511 71.0572803,97.6846132 75.0961925,93.6521566 C79.135523,89.6188645 82.3079079,84.9226856 84.5229707,79.6939418 C86.8175314,74.278487 87.9811297,68.5267853 87.9811297,62.598815 C87.9811297,56.6716801 86.8175314,50.9199783 84.5229707,45.5041058 C82.3079079,40.2749443 79.135523,35.5783478 75.0961925,31.5458911 C72.0514226,28.5063026 68.2949372,25.9591801 64.5505858,23.9416986 C64.551841,23.9429517 64.2212971,23.9437871 64.2212971,23.9446225 L64.2212971,22.560789 L76.133431,22.560789 C77.9472385,23.7909097 80.1576987,26.2114697 82.3535146,29.04931 C89.2062343,37.9099381 92.6807113,49.2483509 92.6807113,62.7161881 C92.6807113,64.7324165 94.3183682,66.3760582 96.3376151,66.3760582 C98.3576987,66.3760582 99.9953556,64.7457828 99.9953556,62.7291368 C99.9953556,54.352203 98.7309205,46.5608818 96.2367782,39.5623515 C94.2208787,33.9050495 91.4033054,28.7573391 87.8631381,24.2641615" mask="url(#soup_s_icon4-b)"/>
    </g>
    <path fill="#FFF" d="M13.1951464 72.0577537C12.4307113 70.8865285 13.0311297 69.214901 13.325272 68.5507611 14.5495397 65.7805879 19.0235983 63.9915873 21.4449372 63.451086 21.1579079 64.498255 20.8867782 66.257599 21.6909623 67.7295668L21.7085356 67.7596411C21.7240167 67.7838676 23.2244351 70.1977444 22.3215063 71.8301083 21.7131381 72.9299072 20.0386611 73.5113428 17.4788285 73.5113428 15.2662762 73.5113428 13.8248536 73.0226361 13.1951464 72.0577537L13.1951464 72.0577537zM16.3579079 64.2455476C15.5487029 64.6941553 14.7738075 65.2146071 14.1043515 65.803979 14.1378243 65.5358168 14.1570711 65.26306 14.1662762 64.9585582 14.1884519 64.2689387 14.1081172 63.4310365 14.0286192 62.7998948 15.1562343 63.294867 15.9474477 63.8934282 16.3579079 64.2455476L16.3579079 64.2455476zM15.785523 60.6604455C16.2516318 60.751086 16.8817573 60.9327847 17.4307113 61.2443874 16.8888703 61.576875 16.3897071 62.0263181 16.0240167 62.633651 15.8189958 62.5012407 15.5938912 62.3663243 15.3482845 62.2314078 15.4767364 61.8705167 15.64159 61.3400402 15.785523 60.6604455L15.785523 60.6604455zM20.3646025 61.4319338C20.3955649 61.8792884 20.5169038 62.2506219 20.6394979 62.5237964 19.6817573 62.7785922 18.5386611 63.1762407 17.399749 63.712565 17.3093724 63.6235953 17.1457741 63.4707178 16.9173222 63.2831714 17.6792469 61.9172989 19.4516318 61.5363583 20.3646025 61.4319338L20.3646025 61.4319338zM18.0880335 74.5944338C18.1411715 74.5923453 18.1922176 74.5890037 18.2445188 74.5864975 19.2135565 75.8801083 20.9332218 75.6549691 20.9332218 75.6549691 20.7248536 75.0739511 20.46 74.6516584 20.1725523 74.3463212 21.6938912 74.0088212 22.7386611 73.3446813 23.283431 72.3551547 24.4616736 70.2182116 22.8123013 67.4597339 22.6457741 67.1919895 21.7093724 65.453948 22.7503766 62.9970483 22.7604184 62.9728218L23.136569 62.1086046 22.1984937 62.2109406C22.06 62.2259777 21.9068619 62.2481157 21.7420084 62.2765192 21.6302929 62.0939851 21.3800837 61.594836 21.4738075 60.9202537L21.5604184 60.3003899 20.9336402 60.297466 20.9269456 60.297466C20.8039331 60.297466 19.7428452 60.3099969 18.5851046 60.70681 17.3227615 59.6700835 15.4792469 59.5059282 15.3909623 59.4988274L14.8917992 59.4574752 14.8060251 59.9507766C14.6700418 60.7339604 14.492636 61.3450526 14.3545607 61.7489666 14.0930544 61.6382766 13.8169038 61.5317636 13.5240167 61.43444L12.6553975 61.1462283 12.811046 62.0467853C12.8139749 62.0639109 13.1068619 63.7735489 13.0704603 64.9243069 13.0428452 65.8169276 12.9445188 66.368289 12.4210879 67.8724196L12.4348954 67.8774319C12.3959833 67.9542884 12.3566527 68.0303094 12.3219247 68.1088366 11.8675314 69.1367915 11.2574895 71.0941244 12.2767364 72.6554796 12.8210879 73.4892048 13.743682 74.0564387 15.0265272 74.3559282 14.7424268 74.6608478 14.4805021 75.0797989 14.2746444 75.6549691 14.2746444 75.6549691 15.9851046 75.8788552 16.9549791 74.5961046 16.9675314 74.5965223 16.9792469 74.5973577 16.9917992 74.5977754L18.0880335 74.5944338zM33.1451883 73.494802C32.9464435 73.494802 32.8054393 73.4262995 32.6866109 73.2721689 32.0267782 72.4133818 32.4422594 69.5137222 32.8966527 67.6875464L33.3221757 67.690888C33.7974895 69.5149752 34.2485356 72.4188119 33.5970711 73.2755105 33.48159 73.4271349 33.3422594 73.494802 33.1451883 73.494802L33.1451883 73.494802zM33.8958159 66.141646C33.8958159 66.5372061 33.5732218 66.8588335 33.1769874 66.8588335 32.7807531 66.8588335 32.458159 66.5372061 32.458159 66.141646 32.458159 65.7456683 32.7807531 65.4240408 33.1769874 65.4240408 33.5732218 65.4240408 33.8958159 65.7456683 33.8958159 66.141646L33.8958159 66.141646zM32.6866109 59.0107054C32.8054393 58.8565749 32.9464435 58.7880724 33.1451883 58.7880724 33.3422594 58.7880724 33.48159 58.8557395 33.5970711 59.0073639 33.9870293 59.520297 33.98159 60.7671256 33.8129707 62.0766089 33.8104603 62.0828744 33.8079498 62.0883045 33.8054393 62.0945699L33.8104603 62.0962407C33.6966527 62.9679765 33.5112971 63.8656095 33.3221757 64.5924041L32.8962343 64.5957457C32.7108787 63.8501547 32.5317992 62.9249536 32.4297071 62.033586L32.4552301 62.0227259C32.4430962 61.9947401 32.4313808 61.9688428 32.4200837 61.9412748 32.2828452 60.6840037 32.3050209 59.5073484 32.6866109 59.0107054L32.6866109 59.0107054zM30.51841 62.9629641C29.2004184 61.2524907 29.1029289 60.4592822 29.1656904 60.1376547 29.1979079 59.9734994 29.2824268 59.8594678 29.4401674 59.769245 29.5974895 59.6786046 29.7393305 59.6618967 29.9012552 59.7157797 30.2058577 59.817698 30.8297071 60.2738243 31.6451883 62.1329981 31.7368201 62.9237005 31.88159 63.6776454 32.0041841 64.2327661 31.6175732 63.8722927 31.0962343 63.4103187 30.51841 62.9629641L30.51841 62.9629641zM31.6464435 70.1365099C30.8238494 72.0128094 30.1970711 72.4593286 29.8958159 72.558323 29.7389121 72.6096999 29.5941423 72.592992 29.4389121 72.5031869 29.2824268 72.4129641 29.1979079 72.3006033 29.165272 72.1381188 29.1025105 71.8248453 29.1882845 71.0491801 30.4694561 69.3712871L30.4523013 69.3583385C31.0497908 68.9139078 31.592887 68.4494276 31.9970711 68.0843595 31.8769874 68.632797 31.7364017 69.3662748 31.6464435 70.1365099L31.6464435 70.1365099zM27.2895397 70.0997525C27.0313808 70.0997525 26.8640167 70.0095297 26.7472803 69.8073639 26.6485356 69.6369431 26.6376569 69.4828125 26.7117155 69.3069616 27.1292887 68.3153465 29.8740586 67.2535582 31.6933054 66.7523205L31.9096234 67.1178063C30.8686192 68.1135984 28.534728 70.0997525 27.2895397 70.0997525L27.2895397 70.0997525zM25.941841 66.5589264C25.8154812 66.4490718 25.7594142 66.3191677 25.7594142 66.1378868 25.7594142 65.9557704 25.8158996 65.8246132 25.9430962 65.7122525 26.1824268 65.501315 26.8832636 65.1922184 28.8794979 65.4094214 29.6171548 65.7302135 30.3527197 65.9850093 30.9029289 66.1591894 30.4 66.3124845 29.7472803 66.5292698 29.0782427 66.8007735 26.9284519 67.0877321 26.1895397 66.7740408 25.941841 66.5589264L25.941841 66.5589264zM26.7238494 62.9612933C26.6493724 62.7821009 26.6606695 62.6258818 26.7594142 62.4537902 26.876569 62.2524598 27.0343096 62.166414 27.2874477 62.166414 28.5238494 62.166414 30.8514644 64.1939202 31.8828452 65.2030786L31.6732218 65.5727413C30.9338912 65.3597153 30.041841 65.0522896 29.2171548 64.6947401L29.2217573 64.657565C29.1807531 64.6525526 29.1422594 64.6483756 29.1020921 64.6441986 27.9556485 64.1362778 26.9615063 63.5339573 26.7238494 62.9612933L26.7238494 62.9612933zM34.5853556 62.2679146C35.4037657 60.2980507 36.0393305 59.8206219 36.3481172 59.7145266 36.507113 59.6606436 36.6472803 59.6765161 36.8050209 59.7671566 36.9627615 59.8582147 37.0481172 59.972664 37.08159 60.1389078 37.1464435 60.4563583 37.0606695 61.2366182 35.8175732 62.9086634 35.1853556 63.3931931 34.6146444 63.9011139 34.2079498 64.2820545 34.3317992 63.7545019 34.48159 63.0335551 34.5853556 62.2679146L34.5853556 62.2679146zM38.9778243 62.166414C39.2309623 62.166414 39.3887029 62.2524598 39.5054393 62.4537902 39.6046025 62.6258818 39.6158996 62.7825186 39.5410042 62.9612933 39.1267782 63.9616801 36.4029289 65.0518719 34.5920502 65.5727413L34.3828452 65.2030786C34.8476987 64.7482054 35.5769874 64.0861541 36.3506276 63.4959468L36.3577406 63.5009592C36.3631799 63.4930229 36.3686192 63.4855043 36.3748954 63.4779858 37.3087866 62.7674814 38.3041841 62.166414 38.9778243 62.166414L38.9778243 62.166414zM40.3104603 65.7151764C40.4338912 65.8254486 40.4916318 65.9595297 40.4916318 66.1378868 40.4916318 66.3179146 40.4359833 66.447401 40.3108787 66.5568379 40.0711297 66.7677754 39.3539749 67.0814666 37.258159 66.8128868L37.2548117 66.8371132C36.558159 66.549737 35.8732218 66.3212562 35.3523013 66.1625309 35.9046025 65.9879332 36.6468619 65.7310489 37.3912134 65.4069152 39.3849372 65.1926361 40.0761506 65.506745 40.3104603 65.7151764L40.3104603 65.7151764zM39.5535565 69.3069616C39.6276151 69.4828125 39.6167364 69.6369431 39.5175732 69.8073639 39.4008368 70.0095297 39.2338912 70.0997525 38.9757322 70.0997525 37.7301255 70.0997525 35.3966527 68.1135984 34.3560669 67.1178063L34.5715481 66.7523205C36.3916318 67.2535582 39.1359833 68.3153465 39.5535565 69.3069616L39.5535565 69.3069616zM37.08159 72.1377011C37.0481172 72.2997679 36.960251 72.4167234 36.8054393 72.5056931 36.6493724 72.5959158 36.5096234 72.6126238 36.3523013 72.5595761 36.048954 72.4572401 35.4188285 71.9948484 34.6037657 70.0483756L34.590795 70.0538057C34.4916318 69.307797 34.3468619 68.601052 34.2242678 68.0714109 34.6468619 68.4561108 35.2309623 68.9623608 35.8748954 69.4397896 37.0728033 71.070065 37.1464435 71.8298577 37.08159 72.1377011L37.08159 72.1377011zM33.707113 74.1639542C33.9062762 74.0749845 34.0811715 73.9371442 34.223431 73.7495978 34.5359833 73.3390006 34.6711297 72.7028465 34.7016736 71.9852413 35.1569038 72.7057704 35.6200837 73.1410118 36.1004184 73.3034963 36.2401674 73.3506962 36.38159 73.3740873 36.5225941 73.3740873 36.7531381 73.3740873 36.9820084 73.3114325 37.1987448 73.1861231 37.5468619 72.9856281 37.7728033 72.67862 37.8518828 72.2985149 37.9556485 71.8014542 37.8167364 71.182008 37.4292887 70.4251392 37.9790795 70.7037438 38.5133891 70.8850248 38.9757322 70.8850248 39.5171548 70.8850248 39.939749 70.6486077 40.1991632 70.2 40.4200837 69.8178063 40.4476987 69.4038676 40.2786611 69.0024598 40.076569 68.5225248 39.5857741 68.0835241 38.9698745 67.6959004 39.8309623 67.6641553 40.4472803 67.4824567 40.8305439 67.1462098 41.1230126 66.8897432 41.2778243 66.5409653 41.2778243 66.1378868 41.2778243 65.7373144 41.1246862 65.3885365 40.834728 65.1299814 40.4569038 64.7924814 39.8531381 64.6032642 39.007113 64.5585705 39.6004184 64.1709468 40.0723849 63.73487 40.2682008 63.2620359 40.4359833 62.8581219 40.4075314 62.4429301 40.1866109 62.0611541 39.9292887 61.6163057 39.5112971 61.3811417 38.9778243 61.3811417 38.5133891 61.3811417 37.9757322 61.5686881 37.4238494 61.8568998 37.8117155 61.1004486 37.9539749 60.4805848 37.8527197 59.9826887 37.7748954 59.5984066 37.5485356 59.2888923 37.1983264 59.0871442 36.8464435 58.8841429 36.4644351 58.8444616 36.0924686 58.9714418 35.6142259 59.1355972 35.1539749 59.5716739 34.7012552 60.2876083 34.6702929 59.5741801 34.5343096 58.9417853 34.223431 58.5328589 33.9598326 58.1861696 33.5870293 58.0028001 33.1451883 58.0028001 32.7033473 58.0028001 32.3292887 58.1861696 32.0627615 58.5328589 31.7485356 58.9413676 31.6062762 59.5737624 31.567364 60.2871906 31.1037657 59.56875 30.6351464 59.133091 30.1514644 58.9710241 29.7790795 58.8465501 29.3970711 58.8870668 29.0464435 59.088815 28.6945607 59.2913985 28.4690377 59.6021658 28.3941423 59.9868657 28.2966527 60.4847618 28.4460251 61.1042079 28.8451883 61.8585705 28.2916318 61.5695235 27.7527197 61.3811417 27.2874477 61.3811417 26.7539749 61.3811417 26.3359833 61.6163057 26.0782427 62.0611541 25.8577406 62.4429301 25.8297071 62.8581219 25.9970711 63.2620359 26.1933054 63.7344524 26.6644351 64.1705291 27.2573222 64.5581528 26.4100418 64.6011757 25.8029289 64.7883045 25.4225941 65.123716 25.1284519 65.3831064 24.9723849 65.7339728 24.9723849 66.1378868 24.9723849 66.5430538 25.1292887 66.8935025 25.425523 67.1512222 25.809205 67.4845452 26.423431 67.664573 27.2786611 67.6963181 26.6711297 68.0806002 26.1866109 68.5154239 25.9866109 68.9911819 25.8175732 69.3925897 25.8451883 69.7956683 26.0661088 70.177862 26.3251046 70.6256343 26.7481172 70.8403311 27.2895397 70.8403311L27.2899582 70.8403311C27.7615063 70.8403311 28.3079498 70.6532024 28.8690377 70.3670792 28.4485356 71.1469214 28.2916318 71.7834932 28.3941423 72.2926671 28.4707113 72.6740254 28.6958159 72.9818688 29.0456067 73.183617 29.2631799 73.3093441 29.492887 73.3724165 29.725523 73.3724165 29.8640167 73.3724165 30.0037657 73.3494431 30.141841 73.3043317 30.6284519 73.1443533 31.1 72.7082766 31.5669456 71.9848236 31.6046025 72.7028465 31.7468619 73.3390006 32.0627615 73.7500155 32.2242678 73.9601176 32.4259414 74.1096535 32.6577406 74.1952816L33.707113 74.1639542zM26.8012134 77.9263274C27.3530962 75.4222277 25.8108368 75.3090316 25.8108368 75.3090316 24.5568619 77.5253373 26.8012134 77.9263274 26.8012134 77.9263274M26.5438075 80.670311C26.5438075 80.670311 28.5408787 79.9823623 27.0291632 78.4899273 27.0291632 78.4899273 24.9852301 79.0613382 26.5438075 80.670311"/>
    <path fill="#FFF" d="M27.1513808 77.946711C30.2798326 77.6000217 28.6735565 75.0144709 28.6735565 75.0144709 26.7501255 75.2337624 27.1513808 77.946711 27.1513808 77.946711M27.339749 78.2775278C27.5698745 79.9821535 29.1058577 79.2729022 29.1058577 79.2729022 29.1058577 79.2729022 29.3041841 78.4893007 28.7991632 78.0970823 28.08159 77.53862 27.339749 78.2775278 27.339749 78.2775278M26.6982427 78.1441569C26.6982427 78.1441569 25.1990795 77.3175325 24.6605858 78.896431 24.6605858 78.896431 26.0856904 79.8583895 26.6982427 78.1441569M31.6051883 88.7656745C30.8407531 87.5944493 31.4411715 85.9228218 31.7353138 85.2586819 32.9595816 82.4885087 37.4336402 80.699508 39.8549791 80.1590068 39.5679498 81.2061757 39.2968201 82.9655198 40.1010042 84.4374876L40.1185774 84.4675619C40.1340586 84.4917884 41.634477 86.9056652 40.7315481 88.5380291 40.1231799 89.637828 38.4487029 90.2192636 35.8888703 90.2192636 33.676318 90.2192636 32.2348954 89.7305569 31.6051883 88.7656745L31.6051883 88.7656745zM34.7679498 80.9534684C33.9587448 81.4020761 33.1838494 81.9225278 32.5143933 82.5118998 32.5478661 82.2437376 32.567113 81.9709808 32.576318 81.666479 32.5984937 80.9768595 32.518159 80.1389573 32.4386611 79.5078156 33.5662762 80.0027877 34.3574895 80.601349 34.7679498 80.9534684L34.7679498 80.9534684zM34.1955649 77.3683663C34.6616736 77.4590068 35.2917992 77.6407054 35.8407531 77.9523082 35.2989121 78.2847958 34.799749 78.7342389 34.4340586 79.3415718 34.2290377 79.2091615 34.0039331 79.074245 33.7583264 78.9393286 33.8867782 78.5784375 34.0516318 78.047961 34.1955649 77.3683663L34.1955649 77.3683663zM38.7746444 78.1398546C38.8056067 78.5872092 38.9269456 78.9585427 39.0495397 79.2317172 38.0917992 79.486513 36.9487029 79.8841615 35.8097908 80.4204858 35.7194142 80.3315161 35.5558159 80.1786386 35.327364 79.9910922 36.0892887 78.6252197 37.8616736 78.2442791 38.7746444 78.1398546L38.7746444 78.1398546zM36.4980753 91.3023546C36.5512134 91.3002661 36.6022594 91.2969245 36.6545607 91.2944183 37.6235983 92.5880291 39.3432636 92.3628899 39.3432636 92.3628899 39.1348954 91.7818719 38.8700418 91.3595792 38.5825941 91.054242 40.1039331 90.716742 41.1487029 90.0526021 41.6934728 89.0630755 42.8717155 86.9261324 41.2223431 84.1676547 41.0558159 83.8999103 40.1194142 82.1618688 41.1604184 79.7049691 41.1704603 79.6807426L41.5466109 78.8165254 40.6085356 78.9188614C40.4700418 78.9338985 40.3169038 78.9560365 40.1520502 78.98444 40.0403347 78.8019059 39.7901255 78.3027568 39.8838494 77.6281745L39.9704603 77.0083106 39.343682 77.0053868 39.3369874 77.0053868C39.2139749 77.0053868 38.152887 77.0179177 36.9951464 77.4147308 35.7328033 76.3780043 33.8892887 76.213849 33.8010042 76.2067481L33.301841 76.165396 33.2160669 76.6586974C33.0800837 77.4418812 32.9026778 78.0529734 32.7646025 78.4568874 32.5030962 78.3461974 32.2269456 78.2396844 31.9340586 78.1423608L31.0654393 77.8541491 31.2210879 78.7547061C31.2240167 78.7718317 31.5169038 80.4814697 31.4805021 81.6322277 31.452887 82.5248484 31.3545607 83.0762098 30.8311297 84.5803403L30.8449372 84.5853527C30.8060251 84.6622092 30.7666946 84.7382302 30.7319665 84.8167574 30.2775732 85.8447123 29.6675314 87.8020452 30.6867782 89.3634004 31.2311297 90.1971256 32.1537238 90.7643595 33.436569 91.063849 33.1524686 91.3687686 32.8905439 91.7877197 32.6846862 92.3628899 32.6846862 92.3628899 34.3951464 92.586776 35.3650209 91.3040254 35.3775732 91.3044431 35.3892887 91.3052785 35.401841 91.3056962L36.4980753 91.3023546zM51.5552301 90.2027228C51.3564854 90.2027228 51.2154812 90.1342203 51.0966527 89.9800897 50.4368201 89.1213026 50.8523013 86.2216429 51.3066946 84.3954672L51.7322176 84.3988088C52.2075314 86.222896 52.6585774 89.1267327 52.007113 89.9834313 51.8916318 90.1350557 51.7523013 90.2027228 51.5552301 90.2027228L51.5552301 90.2027228zM52.3058577 82.8495668C52.3058577 83.2451269 51.9832636 83.5667543 51.5870293 83.5667543 51.190795 83.5667543 50.8682008 83.2451269 50.8682008 82.8495668 50.8682008 82.4535891 51.190795 82.1319616 51.5870293 82.1319616 51.9832636 82.1319616 52.3058577 82.4535891 52.3058577 82.8495668L52.3058577 82.8495668zM51.0966527 75.7186262C51.2154812 75.5644957 51.3564854 75.4959932 51.5552301 75.4959932 51.7523013 75.4959932 51.8916318 75.5636603 52.007113 75.7152847 52.3970711 76.2282178 52.3916318 77.4750464 52.2230126 78.7845297 52.2205021 78.7907952 52.2179916 78.7962252 52.2154812 78.8024907L52.2205021 78.8041615C52.1066946 79.6758973 51.9213389 80.5735303 51.7322176 81.3003249L51.3062762 81.3036665C51.1209205 80.5580755 50.941841 79.6328744 50.839749 78.7415068L50.865272 78.7306467C50.8531381 78.7026609 50.8414226 78.6767636 50.8301255 78.6491955 50.692887 77.3919245 50.7150628 76.2152692 51.0966527 75.7186262L51.0966527 75.7186262zM48.9284519 79.6708849C47.6104603 77.9604115 47.5129707 77.167203 47.5757322 76.8455755 47.6079498 76.6814202 47.6924686 76.5673886 47.8502092 76.4771658 48.0075314 76.3865254 48.1493724 76.3698175 48.3112971 76.4237005 48.6158996 76.5256188 49.239749 76.981745 50.0552301 78.8409189 50.1468619 79.6316213 50.2916318 80.3855662 50.4142259 80.9406869 50.0276151 80.5802135 49.5062762 80.1182395 48.9284519 79.6708849L48.9284519 79.6708849zM50.0564854 86.8444307C49.2338912 88.7207302 48.607113 89.1672494 48.3058577 89.2662438 48.148954 89.3176207 48.0041841 89.3009127 47.848954 89.2111077 47.6924686 89.1208849 47.6079498 89.0085241 47.5753138 88.8460396 47.5125523 88.5327661 47.5983264 87.7571009 48.8794979 86.0792079L48.8623431 86.0662593C49.4598326 85.6218286 50.0029289 85.1573484 50.407113 84.7922803 50.2870293 85.3407178 50.1464435 86.0741955 50.0564854 86.8444307L50.0564854 86.8444307zM45.6995816 86.8076733C45.4414226 86.8076733 45.2740586 86.7174505 45.1573222 86.5152847 45.0585774 86.3448639 45.0476987 86.1907333 45.1217573 86.0148824 45.5393305 85.0232673 48.2841004 83.961479 50.1033473 83.4602413L50.3196653 83.8257271C49.2786611 84.8215192 46.9447699 86.8076733 45.6995816 86.8076733L45.6995816 86.8076733zM44.3518828 83.2668472C44.225523 83.1569926 44.1694561 83.0270885 44.1694561 82.8458075 44.1694561 82.6636912 44.2259414 82.532534 44.3531381 82.4201733 44.5924686 82.2092358 45.2933054 81.9001392 47.2895397 82.1173422 48.0271967 82.4381343 48.7627615 82.6929301 49.3129707 82.8671101 48.8100418 83.0204053 48.1573222 83.2371906 47.4882845 83.5086943 45.3384937 83.7956528 44.5995816 83.4819616 44.3518828 83.2668472L44.3518828 83.2668472zM45.1338912 79.6692141C45.0594142 79.4900217 45.0707113 79.3338026 45.1694561 79.161711 45.2866109 78.9603806 45.4443515 78.8743348 45.6974895 78.8743348 46.9338912 78.8743348 49.2615063 80.901841 50.292887 81.9109994L50.0832636 82.2806621C49.3439331 82.0676361 48.4518828 81.7602104 47.6271967 81.4026609L47.6317992 81.3654858C47.590795 81.3604734 47.5523013 81.3562964 47.5121339 81.3521194 46.3656904 80.8441986 45.3715481 80.2418781 45.1338912 79.6692141L45.1338912 79.6692141zM52.9953975 78.9758354C53.8138075 77.0059715 54.4493724 76.5285427 54.758159 76.4224474 54.9171548 76.3685644 55.0573222 76.3844369 55.2150628 76.4750774 55.3728033 76.5661355 55.458159 76.6805848 55.4916318 76.8468286 55.5560669 77.1642791 55.4707113 77.944539 54.2276151 79.6165842 53.5953975 80.1011139 53.0246862 80.6090347 52.6179916 80.9899752 52.741841 80.4624226 52.8916318 79.7414759 52.9953975 78.9758354L52.9953975 78.9758354zM57.3878661 78.8743348C57.6410042 78.8743348 57.7987448 78.9603806 57.9154812 79.161711 58.0146444 79.3338026 58.0259414 79.4904394 57.951046 79.6692141 57.5368201 80.6696009 54.8129707 81.7597927 53.0020921 82.2806621L52.792887 81.9109994C53.2577406 81.4561262 53.9870293 80.7940749 54.7606695 80.2038676L54.7677824 80.20888C54.7732218 80.2009437 54.7786611 80.1934251 54.7849372 80.1859066 55.7188285 79.4754022 56.7142259 78.8743348 57.3878661 78.8743348L57.3878661 78.8743348zM58.7205021 82.4230972C58.8439331 82.5333694 58.9016736 82.6674505 58.9016736 82.8458075 58.9016736 83.0258354 58.8460251 83.1553218 58.7209205 83.2647587 58.4811715 83.4756962 57.7640167 83.7893874 55.6682008 83.5208075L55.6648536 83.545034C54.9682008 83.2576578 54.2832636 83.029177 53.7623431 82.8704517 54.3146444 82.695854 55.0569038 82.4389697 55.8012552 82.114836 57.7949791 81.9005569 58.4861925 82.2146658 58.7205021 82.4230972L58.7205021 82.4230972zM57.9635983 86.0148824C58.0376569 86.1907333 58.0267782 86.3448639 57.9276151 86.5152847 57.8108787 86.7174505 57.6439331 86.8076733 57.3857741 86.8076733 56.1401674 86.8076733 53.8066946 84.8215192 52.7661088 83.8257271L52.98159 83.4602413C54.8016736 83.961479 57.5460251 85.0232673 57.9635983 86.0148824L57.9635983 86.0148824zM55.4916318 88.8456219C55.458159 89.0076887 55.3702929 89.1246442 55.2154812 89.2136139 55.0594142 89.3038366 54.9196653 89.3205446 54.7623431 89.2674969 54.4589958 89.1651609 53.8288703 88.7027692 53.0138075 86.7562964L53.0008368 86.7617265C52.9016736 86.0157178 52.7569038 85.3089728 52.6343096 84.7793317 53.0569038 85.1640316 53.6410042 85.6702816 54.2849372 86.1477104 55.4828452 87.7779858 55.5560669 88.5377785 55.4916318 88.8456219L55.4916318 88.8456219zM52.1171548 90.871875C52.316318 90.7829053 52.4912134 90.645065 52.6334728 90.4575186 52.9460251 90.0469214 53.0811715 89.4107673 53.1117155 88.6931621 53.5669456 89.4136912 54.0301255 89.8489325 54.5104603 90.0114171 54.6502092 90.058617 54.7916318 90.082008 54.932636 90.082008 55.1631799 90.082008 55.3920502 90.0193533 55.6087866 89.8940439 55.9569038 89.6935489 56.1828452 89.3865408 56.2619247 89.0064356 56.3656904 88.509375 56.2267782 87.8899288 55.8393305 87.13306 56.3891213 87.4116646 56.923431 87.5929455 57.3857741 87.5929455 57.9271967 87.5929455 58.3497908 87.3565285 58.609205 86.9079208 58.8301255 86.5257271 58.8577406 86.1117884 58.6887029 85.7103806 58.4866109 85.2304455 57.9958159 84.7914449 57.3799163 84.4038212 58.2410042 84.3720761 58.8573222 84.1903775 59.2405858 83.8541306 59.5330544 83.597664 59.6878661 83.2488861 59.6878661 82.8458075 59.6878661 82.4452351 59.534728 82.0964573 59.2447699 81.8379022 58.8669456 81.5004022 58.2631799 81.311185 57.4171548 81.2664913 58.0104603 80.8788676 58.4824268 80.4427908 58.6782427 79.9699567 58.8460251 79.5660427 58.8175732 79.1508509 58.5966527 78.7690749 58.3393305 78.3242265 57.9213389 78.0890625 57.3878661 78.0890625 56.923431 78.0890625 56.3857741 78.2766089 55.8338912 78.5648205 56.2217573 77.8083694 56.3640167 77.1885056 56.2627615 76.6906095 56.1849372 76.3063274 55.9585774 75.9968131 55.6083682 75.795065 55.2564854 75.5920637 54.874477 75.5523824 54.5025105 75.6793626 54.0242678 75.8435179 53.5640167 76.2795947 53.1112971 76.9955291 53.0803347 76.2821009 52.9443515 75.6497061 52.6334728 75.2407797 52.3698745 74.8940903 51.9970711 74.7107209 51.5552301 74.7107209 51.1133891 74.7107209 50.7393305 74.8940903 50.4728033 75.2407797 50.1585774 75.6492884 50.016318 76.2816832 49.9774059 76.9951114 49.5138075 76.2766708 49.0451883 75.8410118 48.5615063 75.6789449 48.1891213 75.5544709 47.807113 75.5949876 47.4564854 75.7967358 47.1046025 75.9993193 46.8790795 76.3100866 46.8041841 76.6947865 46.7066946 77.1926825 46.8560669 77.8121287 47.2552301 78.5664913 46.7016736 78.2774443 46.1627615 78.0890625 45.6974895 78.0890625 45.1640167 78.0890625 44.7460251 78.3242265 44.4882845 78.7690749 44.2677824 79.1508509 44.239749 79.5660427 44.407113 79.9699567 44.6033473 80.4423731 45.074477 80.8784499 45.667364 81.2660736 44.8200837 81.3090965 44.2129707 81.4962252 43.832636 81.8316368 43.5384937 82.0910272 43.3824268 82.4418936 43.3824268 82.8458075 43.3824268 83.2509746 43.5393305 83.6014233 43.8355649 83.8591429 44.2192469 84.192466 44.8334728 84.3724938 45.6887029 84.4042389 45.0811715 84.788521 44.5966527 85.2233447 44.3966527 85.6991027 44.2276151 86.1005105 44.2552301 86.5035891 44.4761506 86.8857828 44.7351464 87.3335551 45.158159 87.5482519 45.6995816 87.5482519L45.7 87.5482519C46.1715481 87.5482519 46.7179916 87.3611231 47.2790795 87.075 46.8585774 87.8548422 46.7016736 88.491414 46.8041841 89.0005879 46.8807531 89.3819462 47.1058577 89.6897896 47.4556485 89.8915377 47.6732218 90.0172649 47.9029289 90.0803373 48.1355649 90.0803373 48.2740586 90.0803373 48.4138075 90.0573639 48.5518828 90.0122525 49.0384937 89.8522741 49.5100418 89.4161974 49.9769874 88.6927444 50.0146444 89.4107673 50.1569038 90.0469214 50.4728033 90.4579363 50.6343096 90.6680384 50.8359833 90.8175743 51.0677824 90.9032024L52.1171548 90.871875zM45.2112552 94.6342481C45.7631381 92.1301485 44.2208787 92.0169524 44.2208787 92.0169524 42.9669038 94.233258 45.2112552 94.6342481 45.2112552 94.6342481M44.9538494 97.3782317C44.9538494 97.3782317 46.9509205 96.6902831 45.439205 95.1978481 45.439205 95.1978481 43.395272 95.769259 44.9538494 97.3782317"/>
    <path fill="#FFF" d="M45.5614226 94.6546318C48.6898745 94.3079425 47.0835983 91.7223917 47.0835983 91.7223917 45.1601674 91.9416832 45.5614226 94.6546318 45.5614226 94.6546318M45.7497908 94.9854486C45.9799163 96.6900743 47.5158996 95.980823 47.5158996 95.980823 47.5158996 95.980823 47.7142259 95.1972215 47.209205 94.8050031 46.4916318 94.2465408 45.7497908 94.9854486 45.7497908 94.9854486M45.1082845 94.8520777C45.1082845 94.8520777 43.6091213 94.0254533 43.0706276 95.6043518 43.0706276 95.6043518 44.4957322 96.5663103 45.1082845 94.8520777M59.8556067 93.3811541C60.4074895 90.8770545 58.8652301 90.7638583 58.8652301 90.7638583 57.6112552 92.980164 59.8556067 93.3811541 59.8556067 93.3811541M59.5982008 96.1251377C59.5982008 96.1251377 61.595272 95.437189 60.0835565 93.944754 60.0835565 93.944754 58.0396234 94.5161649 59.5982008 96.1251377"/>
    <path fill="#FFF" d="M60.2057741 93.4015377C63.3342259 93.0548484 61.7279498 90.4692976 61.7279498 90.4692976 59.8045188 90.6885891 60.2057741 93.4015377 60.2057741 93.4015377M60.3941423 93.7323546C60.6242678 95.4369802 62.160251 94.727729 62.160251 94.727729 62.160251 94.727729 62.3585774 93.9441275 61.8535565 93.551909 61.1359833 92.9934468 60.3941423 93.7323546 60.3941423 93.7323546M59.752636 93.5989836C59.752636 93.5989836 58.2534728 92.7723592 57.7149791 94.3512577 57.7149791 94.3512577 59.1400837 95.3132163 59.752636 93.5989836M45.8311297 66.6276795C45.0666946 65.4564542 45.667113 63.7848267 45.9612552 63.1206869 47.185523 60.3505136 51.6595816 58.561513 54.0809205 58.0210118 53.7938912 59.0681807 53.5227615 60.8275248 54.3269456 62.2994926L54.3445188 62.3295668C54.36 62.3537933 55.8604184 64.7676702 54.9574895 66.400034 54.3491213 67.4998329 52.6746444 68.0812686 50.1148117 68.0812686 47.9022594 68.0812686 46.4608368 67.5925619 45.8311297 66.6276795L45.8311297 66.6276795zM48.9938912 58.8154734C48.1846862 59.2640811 47.4097908 59.7845328 46.7403347 60.3739047 46.7738075 60.1057426 46.7930544 59.8329858 46.8022594 59.5284839 46.8244351 58.8388645 46.7441004 58.0009623 46.6646025 57.3698205 47.7922176 57.8647927 48.583431 58.463354 48.9938912 58.8154734L48.9938912 58.8154734zM48.4215063 55.2303713C48.8876151 55.3210118 49.5177406 55.5027104 50.0666946 55.8143131 49.5248536 56.1468007 49.0256904 56.5962438 48.66 57.2035767 48.4549791 57.0711665 48.2298745 56.93625 47.9842678 56.8013335 48.1127197 56.4404425 48.2775732 55.909966 48.4215063 55.2303713L48.4215063 55.2303713zM53.0005858 56.0018595C53.0315481 56.4492141 53.152887 56.8205476 53.2754812 57.0937222 52.3177406 57.3485179 51.1746444 57.7461665 50.0357322 58.2824907 49.9453556 58.193521 49.7817573 58.0406436 49.5533054 57.8530972 50.3152301 56.4872246 52.0876151 56.106284 53.0005858 56.0018595L53.0005858 56.0018595zM50.7240167 69.1643595C50.7771548 69.162271 50.8282008 69.1589295 50.8805021 69.1564233 51.8495397 70.450034 53.569205 70.2248948 53.569205 70.2248948 53.3608368 69.6438769 53.0959833 69.2215842 52.8085356 68.9162469 54.3298745 68.5787469 55.3746444 67.9146071 55.9194142 66.9250804 57.0976569 64.7881374 55.4482845 62.0296597 55.2817573 61.7619152 54.3453556 60.0238738 55.3863598 57.566974 55.3964017 57.5427475L55.7725523 56.6785303 54.834477 56.7808663C54.6959833 56.7959035 54.5428452 56.8180415 54.3779916 56.8464449 54.2662762 56.6639109 54.0160669 56.1647618 54.1097908 55.4901795L54.1964017 54.8703156 53.5696234 54.8673917 53.5629289 54.8673917C53.4399163 54.8673917 52.3788285 54.8799226 51.2210879 55.2767358 49.9587448 54.2400093 48.1152301 54.075854 48.0269456 54.0687531L47.5277824 54.027401 47.4420084 54.5207024C47.3060251 55.3038861 47.1286192 55.9149783 46.9905439 56.3188923 46.7290377 56.2082024 46.452887 56.1016894 46.16 56.0043657L45.2913808 55.7161541 45.4470293 56.616711C45.4499582 56.6338366 45.7428452 58.3434746 45.7064435 59.4942327 45.6788285 60.3868533 45.5805021 60.9382147 45.0570711 62.4423453L45.0708787 62.4473577C45.0319665 62.5242141 44.992636 62.6002351 44.9579079 62.6787624 44.5035146 63.7067172 43.8934728 65.6640501 44.9127197 67.2254053 45.4570711 68.0591306 46.3796653 68.6263645 47.6625105 68.925854 47.37841 69.2307735 47.1164854 69.6497246 46.9106276 70.2248948 46.9106276 70.2248948 48.6210879 70.4487809 49.5909623 69.1660303 49.6035146 69.166448 49.6152301 69.1672834 49.6277824 69.1677011L50.7240167 69.1643595zM65.7811715 68.0647277C65.5824268 68.0647277 65.4414226 67.9962252 65.3225941 67.8420947 64.6627615 66.9833075 65.0782427 64.0836479 65.532636 62.2574722L65.958159 62.2608137C66.4334728 64.084901 66.8845188 66.9887376 66.2330544 67.8454363 66.1175732 67.9970606 65.9782427 68.0647277 65.7811715 68.0647277L65.7811715 68.0647277zM66.5317992 60.7115718C66.5317992 61.1071318 66.209205 61.4287593 65.8129707 61.4287593 65.4167364 61.4287593 65.0941423 61.1071318 65.0941423 60.7115718 65.0941423 60.3155941 65.4167364 59.9939666 65.8129707 59.9939666 66.209205 59.9939666 66.5317992 60.3155941 66.5317992 60.7115718L66.5317992 60.7115718zM65.3225941 53.5806312C65.4414226 53.4265006 65.5824268 53.3579981 65.7811715 53.3579981 65.9782427 53.3579981 66.1175732 53.4256652 66.2330544 53.5772896 66.6230126 54.0902228 66.6175732 55.3370514 66.448954 56.6465347 66.4464435 56.6528001 66.4439331 56.6582302 66.4414226 56.6644957L66.4464435 56.6661665C66.332636 57.5379022 66.1472803 58.4355353 65.958159 59.1623298L65.5322176 59.1656714C65.3468619 58.4200804 65.1677824 57.4948793 65.0656904 56.6035118L65.0912134 56.5926516C65.0790795 56.5646658 65.067364 56.5387686 65.0560669 56.5112005 64.9188285 55.2539295 64.9410042 54.0772741 65.3225941 53.5806312L65.3225941 53.5806312zM63.1543933 57.5328899C61.8364017 55.8224165 61.7389121 55.0292079 61.8016736 54.7075804 61.8338912 54.5434251 61.91841 54.4293936 62.0761506 54.3391708 62.2334728 54.2485303 62.3753138 54.2318224 62.5372385 54.2857054 62.841841 54.3876238 63.4656904 54.84375 64.2811715 56.7029239 64.3728033 57.4936262 64.5175732 58.2475712 64.6401674 58.8026918 64.2535565 58.4422184 63.7322176 57.9802444 63.1543933 57.5328899L63.1543933 57.5328899zM64.2824268 64.7064356C63.4598326 66.5827351 62.8330544 67.0292543 62.5317992 67.1282488 62.3748954 67.1796256 62.2301255 67.1629177 62.0748954 67.0731126 61.91841 66.9828899 61.8338912 66.8705291 61.8012552 66.7080446 61.7384937 66.394771 61.8242678 65.6191058 63.1054393 63.9412129L63.0882845 63.9282642C63.6857741 63.4838335 64.2288703 63.0193533 64.6330544 62.6542853 64.5129707 63.2027228 64.3723849 63.9362005 64.2824268 64.7064356L64.2824268 64.7064356zM59.925523 64.6696782C59.667364 64.6696782 59.5 64.5794554 59.3832636 64.3772896 59.2845188 64.2068688 59.2736402 64.0527382 59.3476987 63.8768874 59.765272 62.8852723 62.5100418 61.8234839 64.3292887 61.3222463L64.5456067 61.6877321C63.5046025 62.6835241 61.1707113 64.6696782 59.925523 64.6696782L59.925523 64.6696782zM58.5778243 61.1288521C58.4514644 61.0189975 58.3953975 60.8890934 58.3953975 60.7078125 58.3953975 60.5256962 58.4518828 60.394539 58.5790795 60.2821782 58.81841 60.0712407 59.5192469 59.7621442 61.5154812 59.9793472 62.2531381 60.3001392 62.9887029 60.554935 63.5389121 60.7291151 63.0359833 60.8824103 62.3832636 61.0991955 61.7142259 61.3706993 59.5644351 61.6576578 58.825523 61.3439666 58.5778243 61.1288521L58.5778243 61.1288521zM59.3598326 57.5312191C59.2853556 57.3520266 59.2966527 57.1958075 59.3953975 57.023716 59.5125523 56.8223855 59.6702929 56.7363397 59.923431 56.7363397 61.1598326 56.7363397 63.4874477 58.7638459 64.5188285 59.7730043L64.309205 60.1426671C63.5698745 59.9296411 62.6778243 59.6222153 61.8531381 59.2646658L61.8577406 59.2274907C61.8167364 59.2224783 61.7782427 59.2183014 61.7380753 59.2141244 60.5916318 58.7062036 59.5974895 58.103883 59.3598326 57.5312191L59.3598326 57.5312191zM67.2213389 56.8378403C68.039749 54.8679765 68.6753138 54.3905476 68.9841004 54.2844524 69.1430962 54.2305693 69.2832636 54.2464418 69.4410042 54.3370823 69.5987448 54.4281405 69.6841004 54.5425897 69.7175732 54.7088335 69.7824268 55.026284 69.6966527 55.8065439 68.4535565 57.4785891 67.8213389 57.9631188 67.2506276 58.4710396 66.8439331 58.8519802 66.9677824 58.3244276 67.1175732 57.6034808 67.2213389 56.8378403L67.2213389 56.8378403zM71.6138075 56.7363397C71.8669456 56.7363397 72.0246862 56.8223855 72.1414226 57.023716 72.2405858 57.1958075 72.2518828 57.3524443 72.1769874 57.5312191 71.7627615 58.5316058 69.0389121 59.6217976 67.2280335 60.1426671L67.0188285 59.7730043C67.483682 59.3181312 68.2129707 58.6560798 68.9866109 58.0658725L68.9937238 58.0708849C68.9991632 58.0629486 69.0046025 58.0554301 69.0108787 58.0479115 69.9447699 57.3374072 70.9401674 56.7363397 71.6138075 56.7363397L71.6138075 56.7363397zM72.9464435 60.2851021C73.0698745 60.3953744 73.1276151 60.5294554 73.1276151 60.7078125 73.1276151 60.8878403 73.0719665 61.0173267 72.9468619 61.1267636 72.707113 61.3377011 71.9899582 61.6513923 69.8941423 61.3828125L69.890795 61.407039C69.1941423 61.1196627 68.509205 60.8911819 67.9882845 60.7324567 68.5405858 60.5578589 69.2828452 60.3009746 70.0271967 59.976841 72.0209205 59.7625619 72.7121339 60.0766708 72.9464435 60.2851021L72.9464435 60.2851021zM72.1895397 63.8768874C72.2635983 64.0527382 72.2527197 64.2068688 72.1535565 64.3772896 72.0368201 64.5794554 71.8698745 64.6696782 71.6117155 64.6696782 70.3661088 64.6696782 68.032636 62.6835241 66.9920502 61.6877321L67.2075314 61.3222463C69.0276151 61.8234839 71.7719665 62.8852723 72.1895397 63.8768874L72.1895397 63.8768874zM69.7175732 66.7076269C69.6841004 66.8696937 69.5962343 66.9866491 69.4414226 67.0756188 69.2853556 67.1658416 69.1456067 67.1825495 68.9882845 67.1295019 68.6849372 67.0271658 68.0548117 66.5647741 67.239749 64.6183014L67.2267782 64.6237314C67.1276151 63.8777228 66.9828452 63.1709777 66.860251 62.6413366 67.2828452 63.0260365 67.8669456 63.5322865 68.5108787 64.0097153 69.7087866 65.6399907 69.7824268 66.3997834 69.7175732 66.7076269L69.7175732 66.7076269zM66.3430962 68.73388C66.5422594 68.6449103 66.7171548 68.5070699 66.8594142 68.3195235 67.1719665 67.9089264 67.307113 67.2727723 67.3376569 66.5551671 67.792887 67.2756962 68.2560669 67.7109375 68.7364017 67.873422 68.8761506 67.9206219 69.0175732 67.944013 69.1585774 67.944013 69.3891213 67.944013 69.6179916 67.8813583 69.834728 67.7560489 70.1828452 67.5555538 70.4087866 67.2485458 70.4878661 66.8684406 70.5916318 66.37138 70.4527197 65.7519338 70.065272 64.995065 70.6150628 65.2736696 71.1493724 65.4549505 71.6117155 65.4549505 72.1531381 65.4549505 72.5757322 65.2185334 72.8351464 64.7699257 73.0560669 64.3877321 73.083682 63.9737933 72.9146444 63.5723855 72.7125523 63.0924505 72.2217573 62.6534499 71.6058577 62.2658261 72.4669456 62.2340811 73.0832636 62.0523824 73.4665272 61.7161355 73.7589958 61.4596689 73.9138075 61.1108911 73.9138075 60.7078125 73.9138075 60.3072401 73.7606695 59.9584623 73.4707113 59.6999072 73.092887 59.3624072 72.4891213 59.17319 71.6430962 59.1284963 72.2364017 58.7408725 72.7083682 58.3047958 72.9041841 57.8319616 73.0719665 57.4280476 73.0435146 57.0128558 72.8225941 56.6310798 72.565272 56.1862314 72.1472803 55.9510675 71.6138075 55.9510675 71.1493724 55.9510675 70.6117155 56.1386139 70.0598326 56.4268255 70.4476987 55.6703744 70.5899582 55.0505105 70.4887029 54.5526145 70.4108787 54.1683323 70.1845188 53.8588181 69.8343096 53.6570699 69.4824268 53.4540687 69.1004184 53.4143874 68.7284519 53.5413676 68.2502092 53.7055229 67.7899582 54.1415996 67.3372385 54.857534 67.3062762 54.1441058 67.1702929 53.511711 66.8594142 53.1027847 66.5958159 52.7560953 66.2230126 52.5727259 65.7811715 52.5727259 65.3393305 52.5727259 64.965272 52.7560953 64.6987448 53.1027847 64.3845188 53.5112933 64.2422594 54.1436881 64.2033473 54.8571163 63.739749 54.1386757 63.2711297 53.7030167 62.7874477 53.5409499 62.4150628 53.4164759 62.0330544 53.4569926 61.6824268 53.6587407 61.3305439 53.8613243 61.1050209 54.1720916 61.0301255 54.5567915 60.932636 55.0546875 61.0820084 55.6741337 61.4811715 56.4284963 60.9276151 56.1394493 60.3887029 55.9510675 59.923431 55.9510675 59.3899582 55.9510675 58.9719665 56.1862314 58.7142259 56.6310798 58.4937238 57.0128558 58.4656904 57.4280476 58.6330544 57.8319616 58.8292887 58.3043781 59.3004184 58.7404548 59.8933054 59.1280786 59.0460251 59.1711015 58.4389121 59.3582302 58.0585774 59.6936417 57.7644351 59.9530322 57.6083682 60.3038985 57.6083682 60.7078125 57.6083682 61.1129796 57.765272 61.4634282 58.0615063 61.7211479 58.4451883 62.0544709 59.0594142 62.2344988 59.9146444 62.2662438 59.307113 62.650526 58.8225941 63.0853496 58.6225941 63.5611077 58.4535565 63.9625155 58.4811715 64.3655941 58.7020921 64.7477877 58.9610879 65.19556 59.3841004 65.4102568 59.925523 65.4102568L59.9259414 65.4102568C60.3974895 65.4102568 60.9439331 65.2231281 61.5050209 64.937005 61.0845188 65.7168472 60.9276151 66.3534189 61.0301255 66.8625928 61.1066946 67.2439511 61.3317992 67.5517946 61.68159 67.7535427 61.8991632 67.8792698 62.1288703 67.9423422 62.3615063 67.9423422 62.5 67.9423422 62.639749 67.9193688 62.7778243 67.8742574 63.2644351 67.7142791 63.7359833 67.2782024 64.2029289 66.5547494 64.2405858 67.2727723 64.3828452 67.9089264 64.6987448 68.3199412 64.860251 68.5300433 65.0619247 68.6795792 65.2937238 68.7652073L66.3430962 68.73388zM59.4371967 72.4962531C59.9890795 69.9921535 58.4468201 69.8789573 58.4468201 69.8789573 57.1928452 72.095263 59.4371967 72.4962531 59.4371967 72.4962531M59.1797908 75.2402367C59.1797908 75.2402367 61.1768619 74.5522881 59.6651464 73.059853 59.6651464 73.059853 57.6212134 73.6312639 59.1797908 75.2402367"/>
    <path fill="#FFF" d="M59.787364 72.5166368C62.9158159 72.1699474 61.3095397 69.5843967 61.3095397 69.5843967 59.3861088 69.8036881 59.787364 72.5166368 59.787364 72.5166368M59.9757322 72.8474536C60.2058577 74.5520792 61.741841 73.842828 61.741841 73.842828 61.741841 73.842828 61.9401674 73.0592265 61.4351464 72.667008 60.7175732 72.1085458 59.9757322 72.8474536 59.9757322 72.8474536M59.3342259 72.7140826C59.3342259 72.7140826 57.8350628 71.8874582 57.296569 73.4663567 57.296569 73.4663567 58.7216736 74.4283153 59.3342259 72.7140826M65.4963598 83.3356002C64.7319247 82.164375 65.3323431 80.4927475 65.6264854 79.8286077 66.8507531 77.0584344 71.3248117 75.2694338 73.7461506 74.7289325 73.4591213 75.7761015 73.1879916 77.5354455 73.9921757 79.0074134L74.009749 79.0374876C74.0252301 79.0617141 75.5256485 81.475591 74.6227197 83.1079548 74.0143515 84.2077537 72.3398745 84.7891894 69.7800418 84.7891894 67.5674895 84.7891894 66.1260669 84.3004827 65.4963598 83.3356002L65.4963598 83.3356002zM68.6591213 75.5233942C67.8499163 75.9720019 67.0750209 76.4924536 66.4055649 77.0818255 66.4390377 76.8136634 66.4582845 76.5409066 66.4674895 76.2364047 66.4896653 75.5467853 66.4093305 74.708883 66.3298326 74.0777413 67.4574477 74.5727135 68.2486611 75.1712748 68.6591213 75.5233942L68.6591213 75.5233942zM68.0867364 71.9382921C68.5528452 72.0289325 69.1829707 72.2106312 69.7319247 72.5222339 69.1900837 72.8547215 68.6909205 73.3041646 68.3252301 73.9114975 68.1202092 73.7790873 67.8951046 73.6441708 67.6494979 73.5092543 67.7779498 73.1483632 67.9428033 72.6178868 68.0867364 71.9382921L68.0867364 71.9382921zM72.6658159 72.7097803C72.6967782 73.1571349 72.8181172 73.5284684 72.9407113 73.8016429 71.9829707 74.0564387 70.8398745 74.4540873 69.7009623 74.9904115 69.6105858 74.9014418 69.4469874 74.7485644 69.2185356 74.5610179 69.9804603 73.1951454 71.7528452 72.8142048 72.6658159 72.7097803L72.6658159 72.7097803zM70.3892469 85.8722803C70.4423849 85.8701918 70.493431 85.8668502 70.5457322 85.8643441 71.5147699 87.1579548 73.2344351 86.9328156 73.2344351 86.9328156 73.0260669 86.3517976 72.7612134 85.929505 72.4737657 85.6241677 73.9951046 85.2866677 75.0398745 84.6225278 75.5846444 83.6330012 76.762887 81.4960582 75.1135146 78.7375804 74.9469874 78.469836 74.0105858 76.7317946 75.05159 74.2748948 75.0616318 74.2506683L75.4377824 73.3864511 74.4997071 73.4887871C74.3612134 73.5038243 74.2080753 73.5259623 74.0432218 73.5543657 73.9315063 73.3718317 73.6812971 72.8726825 73.7750209 72.1981002L73.8616318 71.5782364 73.2348536 71.5753125 73.228159 71.5753125C73.1051464 71.5753125 72.0440586 71.5878434 70.886318 71.9846566 69.6239749 70.9479301 67.7804603 70.7837748 67.6921757 70.7766739L67.1930126 70.7353218 67.1072385 71.2286231C66.9712552 72.0118069 66.7938494 72.6228991 66.6557741 73.0268131 66.3942678 72.9161231 66.1181172 72.8096101 65.8252301 72.7122865L64.9566109 72.4240749 65.1122594 73.3246318C65.1151883 73.3417574 65.4080753 75.0513954 65.3716736 76.2021535 65.3440586 77.0947741 65.2457322 77.6461355 64.7223013 79.1502661L64.7361088 79.1552785C64.6971967 79.2321349 64.6578661 79.3081559 64.6231381 79.3866832 64.1687448 80.414638 63.5587029 82.3719709 64.5779498 83.9333261 65.1223013 84.7670514 66.0448954 85.3342853 67.3277406 85.6337748 67.0436402 85.9386943 66.7817155 86.3576454 66.5758577 86.9328156 66.5758577 86.9328156 68.286318 87.1567017 69.2561925 85.8739511 69.2687448 85.8743688 69.2804603 85.8752042 69.2930126 85.8756219L70.3892469 85.8722803z"/>
    <path fill="#A5B6F3" d="M16.6106276 86.8754239L16.820251 86.5057611C15.9466109 85.651151 14.1449372 84.070164 12.8625105 83.6048484 13.4821757 84.5262902 14.143682 85.4172401 14.8411715 86.2772803 15.4553975 86.5153682 16.0733891 86.7208756 16.6106276 86.8754239M16.9230763 88.4764566L16.6671358 88.0550866C16.5904031 88.0753124 16.50971 88.0989091 16.4305021 88.1210611 16.5666407 88.2650493 16.7042645 88.4080743 16.8423833 88.5501361 16.8686209 88.5265394 16.8978288 88.5000533 16.9230763 88.4764566M20.8123013 90.7423886C20.1683682 90.2649598 19.583431 89.7591275 19.1616736 89.3740099 19.2679498 89.83306 19.3892887 90.427862 19.4842678 91.0635984 20.2980753 91.7644957 21.1441004 92.4294709 22.0169038 93.0597772 21.950795 92.6312191 21.6712971 91.9119431 20.8123013 90.7423886M18.2593724 88.9936959L17.8338494 88.9899366C17.7974477 89.1352955 17.7623013 89.2890084 17.7271548 89.4460628 17.9932636 89.7062887 18.2631381 89.9627553 18.5367782 90.2154626 18.4510042 89.7814743 18.3560251 89.3646117 18.2593724 88.9936959M21.2948954 84.803224L21.2877824 84.7982116C20.5145607 85.3884189 19.785272 86.0504703 19.3195816 86.5057611L19.5287866 86.8754239C21.3405021 86.3545545 24.0639331 85.2643626 24.4785774 84.2639759 24.5530544 84.0847834 24.5421757 83.9281467 24.4425941 83.7564728 24.3258577 83.5551423 24.1681172 83.4690965 23.9153975 83.4690965 23.2413389 83.4690965 22.2459414 84.070164 21.3120502 84.7802506 21.3057741 84.7881869 21.3007531 84.7952877 21.2948954 84.803224M22.0189121 81.4416739C21.9854393 81.2754301 21.9000837 81.1605631 21.7423431 81.069505 21.5846025 80.9792822 21.4444351 80.962992 21.2854393 81.016875 20.9766527 81.1229703 20.3410879 81.6008168 19.5222594 83.5706807 19.4189121 84.3363212 19.2691213 85.0568502 19.145272 85.5848205 19.5519665 85.20388 20.1226778 84.6959592 20.7548954 84.2114295 21.9979916 82.5393843 22.0833473 81.7591244 22.0189121 81.4416739M22.3286611 86.7093889C21.5843096 87.0335226 20.8416318 87.2908246 20.289749 87.4654223 20.810251 87.6237299 21.4956067 87.8522107 22.1922594 88.1395869L22.1956067 88.1153605C24.2910042 88.384358 25.008159 88.0702491 25.2487448 87.8593116 25.3730126 87.7498747 25.4286611 87.620806 25.4286611 87.4403605 25.4286611 87.2620034 25.3709205 87.1279223 25.2479079 87.0176501 25.0135983 86.8092188 24.3223849 86.4951098 22.3286611 86.7093889M24.4550209 91.1099211C24.5537657 90.9395003 24.5650628 90.7853697 24.4910042 90.6095189 24.073431 89.6179038 21.3286611 88.5561154 19.5089958 88.0552955L19.2930962 88.4207813C20.333682 89.4161556 22.6675732 91.4023097 23.9127615 91.4023097 24.1709205 91.4023097 24.3382845 91.3120869 24.4550209 91.1099211M14.8385356 81.0182534C14.6766109 80.9643704 14.5347699 80.9810783 14.3770293 81.0717188 14.2197071 81.1623592 14.1351883 81.2759731 14.1029707 81.4405461 14.0402092 81.7617559 14.1376987 82.5553821 15.4556904 84.2654378 16.0335146 84.7132101 16.5548536 85.1747664 16.9414644 85.5352398 16.8188703 84.9801191 16.6741004 84.2265919 16.5820502 83.4354718 15.7669874 81.576298 15.1431381 81.1201717 14.8385356 81.0182534M18.0824268 80.0906714C17.883682 80.0906714 17.7426778 80.1591739 17.6238494 80.3133045 17.2422594 80.8099474 17.2200837 81.9866027 17.3573222 83.2438738 17.3686192 83.2714418 17.3803347 83.2973391 17.3924686 83.3253249L17.3669456 83.336185C17.4690377 84.2275526 17.6481172 85.1527537 17.8334728 85.8983447L18.2594142 85.8950031C18.4485356 85.1682085 18.6338912 84.2705755 18.7476987 83.3988397L18.7426778 83.3967512C18.7451883 83.3909035 18.7476987 83.3854734 18.7502092 83.3792079 18.9188285 82.0697246 18.9242678 80.822896 18.5343096 80.3099629 18.4188285 80.1583385 18.2794979 80.0906714 18.0824268 80.0906714M18.1143096 86.7265145C17.7180753 86.7265145 17.3954812 87.0485597 17.3954812 87.4441197 17.3954812 87.8396798 17.7180753 88.1617249 18.1143096 88.1617249 18.5105439 88.1617249 18.8331381 87.8396798 18.8331381 87.4441197 18.8331381 87.0485597 18.5105439 86.7265145 18.1143096 86.7265145"/>
    <path fill="#FFF" d="M19.2931381 88.4205724L19.5090377 88.0550866C21.3287029 88.5559066 24.0734728 89.6176949 24.491046 90.60931 24.5651046 90.7851609 24.5538075 90.9392915 24.4550628 91.1097123 24.3383264 91.3122958 24.1709623 91.4025186 23.9128033 91.4025186 22.6671967 91.4025186 20.3337238 89.4163645 19.2931381 88.4205724M19.1450209 85.5848205C19.2688703 85.0568502 19.4190795 84.3363212 19.5224268 83.5706807 20.3412552 81.6008168 20.9764017 81.1229703 21.2856067 81.016875 21.4446025 80.962992 21.5847699 80.9792822 21.7425105 81.069505 21.8998326 81.1605631 21.9856067 81.2754301 22.0190795 81.4416739 22.0835146 81.7591244 21.998159 82.5393843 20.7546444 84.2114295 20.1224268 84.6959592 19.5517155 85.20388 19.1450209 85.5848205M23.9153138 83.4691801C24.1680335 83.4691801 24.3257741 83.5552259 24.4429289 83.7565563 24.5420921 83.9282302 24.5529707 84.084867 24.4789121 84.2640594 24.0638494 85.2640285 21.3408368 86.354638 19.5287029 86.8755074L19.3194979 86.5058447C19.7851883 86.0505538 20.514477 85.3885025 21.2881172 84.7982952L21.2948117 84.8033075C21.3006695 84.7953713 21.3061088 84.7882704 21.3119665 84.7803342 22.2462762 84.0702475 23.2416736 83.4691801 23.9153138 83.4691801M25.2475314 87.0179425C25.3709623 87.127797 25.4287029 87.2622958 25.4287029 87.4402351 25.4287029 87.6206807 25.3730544 87.7501671 25.2483682 87.8591863 25.0082008 88.0701238 24.291046 88.3842327 22.1956485 88.1156528L22.1923013 88.1394616C21.4956485 87.8525031 20.8102929 87.6240223 20.2897908 87.465297 20.8416736 87.2906993 21.5843515 87.033815 22.3287029 86.7092636 24.3224268 86.4954022 25.0136402 86.8095111 25.2475314 87.0179425M18.7500418 83.379375C18.7475314 83.3852228 18.7450209 83.3910705 18.7429289 83.3969183L18.7475314 83.3990068C18.6341423 84.2703249 18.4483682 85.1683756 18.2592469 85.8947525L17.8337238 85.8985118C17.6479498 85.1529208 17.4692887 84.2277197 17.3667782 83.3359344L17.3923013 83.325492C17.3805858 83.2970885 17.3684519 83.2716089 17.3571548 83.2436231 17.2203347 81.9867698 17.2425105 80.8096968 17.6241004 80.3134715 17.7425105 80.159341 17.8839331 80.0908385 18.0822594 80.0908385 18.2793305 80.0908385 18.4186611 80.1585056 18.5345607 80.31013 18.9241004 80.8230631 18.9186611 82.0698917 18.7500418 83.379375M18.114477 88.1615996C17.7178243 88.1615996 17.3956485 87.8395545 17.3956485 87.4439944 17.3956485 87.0484344 17.7178243 86.7263892 18.114477 86.7263892 18.5107113 86.7263892 18.832887 87.0484344 18.832887 87.4439944 18.832887 87.8395545 18.5107113 88.1615996 18.114477 88.1615996M15.4554812 84.2657302C14.1379079 82.5552568 14.04 81.7620483 14.1031799 81.4404208 14.1353975 81.2762655 14.2194979 81.1622339 14.3772385 81.0715934 14.5349791 80.980953 14.6768201 80.964245 14.8387448 81.0181281 15.1429289 81.1200464 15.7667782 81.5761726 16.5822594 83.4353465 16.6738912 84.2264666 16.8190795 84.9804115 16.9416736 85.5355322 16.5546444 85.1746411 16.0337238 84.7130848 15.4554812 84.2657302M22.3667782 91.7279053C22.9161506 92.0060922 23.4508787 92.1877908 23.9128033 92.1877908 24.4542259 92.1877908 24.8772385 91.9509561 25.1366527 91.5027661 25.3571548 91.1205724 25.3851883 90.7066337 25.2157322 90.3052259 25.0140586 89.8248731 24.5228452 89.3862902 23.9069456 88.9986665 24.7680335 88.9669214 25.3847699 88.7852228 25.7680335 88.4485582 26.0605021 88.1920916 26.2148954 87.8433137 26.2153138 87.4402351 26.2153138 87.0396627 26.0617573 86.6908849 25.7717992 86.4323298 25.3939749 86.0952475 24.7906276 85.9056126 23.9441841 85.8613366 24.5374895 85.4732952 25.0094561 85.0372184 25.2056904 84.564802 25.3730544 84.160888 25.3450209 83.7456962 25.1241004 83.3639202 24.8663598 82.9186541 24.4483682 82.6839078 23.9153138 82.6839078 23.4508787 82.6839078 22.9128033 82.8714542 22.3609205 83.1592481 22.749205 82.4032147 22.8914644 81.7829332 22.7902092 81.2854548 22.7123849 80.9011726 22.4860251 80.5916584 22.1358159 80.3894926 21.7835146 80.1864913 21.4015063 80.1463923 21.0295397 80.2742079 20.5517155 80.4383632 20.091046 80.87444 19.6383264 81.5899567 19.607364 80.8765285 19.4717992 80.2445514 19.1609205 79.8352073 18.8973222 79.4885179 18.5241004 79.3055662 18.0822594 79.3055662 17.6408368 79.3055662 17.2663598 79.4885179 17.000251 79.8352073 16.6860251 80.2441337 16.5437657 80.8761108 16.5044351 81.589539 16.0412552 80.8715161 15.5722176 80.4358571 15.0885356 80.2737902 14.716569 80.1488985 14.3341423 80.1898329 13.9839331 80.3911634 13.6320502 80.5941646 13.4065272 80.9049319 13.3312134 81.2896318 13.2341423 81.7871101 13.3835146 82.406974 13.7822594 83.1609189 13.2446025 82.8802259 12.72159 82.6976918 12.265523 82.6872494 12.4605021 82.9963459 12.6588285 83.3025186 12.8625941 83.6049319 14.1450209 84.0702475 15.9466946 85.6512345 16.8203347 86.5058447L16.6107113 86.8755074C16.0734728 86.7209592 15.4554812 86.515034 14.8412552 86.2773639 15.3512971 86.9059994 15.8810042 87.5183447 16.4303766 88.1123113 16.4973222 88.0930972 16.565523 88.07263 16.630795 88.0550866L16.8466946 88.4205724C16.8257741 88.4410396 16.8006695 88.464013 16.7784937 88.4844802 17.0885356 88.81112 17.405272 89.1310767 17.7270293 89.446021 17.7621757 89.2889666 17.7977406 89.1352537 17.8341423 88.9898948L18.2592469 88.9936541C18.356318 89.3645699 18.4508787 89.7814325 18.5366527 90.2154208 18.8483682 90.5023793 19.1630126 90.7868317 19.4843515 91.0633478 19.388954 90.4280291 19.2676151 89.8332271 19.1617573 89.3737593 19.5835146 89.7592946 20.1684519 90.2651269 20.8123849 90.7425557 21.6713808 91.9116925 21.9508787 92.6313861 22.0169874 93.0595266 22.2717992 93.2437314 22.5287029 93.424177 22.7885356 93.6021163 22.7885356 93.6016986 22.788954 93.6012809 22.788954 93.6008632 22.8931381 93.1042203 22.7538075 92.4843564 22.3667782 91.7279053M76.1735983 67.4838769C76.7254812 64.9797772 75.1832218 64.8665811 75.1832218 64.8665811 73.9292469 67.0828868 76.1735983 67.4838769 76.1735983 67.4838769M75.9161925 70.2278605C75.9161925 70.2278605 77.9132636 69.5399118 76.4015481 68.0474768 76.4015481 68.0474768 74.3576151 68.6188877 75.9161925 70.2278605"/>
    <path fill="#FFF" d="M76.5237657 67.5042605C79.6522176 67.1575712 78.0459414 64.5720204 78.0459414 64.5720204 76.1225105 64.7913119 76.5237657 67.5042605 76.5237657 67.5042605M76.7121339 67.8350774C76.9422594 69.539703 78.4782427 68.8304517 78.4782427 68.8304517 78.4782427 68.8304517 78.676569 68.0468502 78.1715481 67.6546318 77.4539749 67.0961696 76.7121339 67.8350774 76.7121339 67.8350774M76.0706276 67.7017064C76.0706276 67.7017064 74.5714644 66.875082 74.0329707 68.4539805 74.0329707 68.4539805 75.4580753 69.415939 76.0706276 67.7017064"/>
  </g>
</svg>
