<svg xmlns="http://www.w3.org/2000/svg" width="100" height="119" viewBox="0 0 100 119">
  <g fill="none" fill-rule="evenodd">
    <path fill="#FFB8AC" d="M72.3789184,41.5818939 C65.7675918,40.447314 62.7659082,33.4816388 62.7360612,33.4115346 C62.6837143,33.2870076 62.540449,33.2284337 62.4169286,33.2810118 C62.292949,33.3335899 62.2346327,33.4774879 62.2869796,33.6020149 C62.3177449,33.6744251 65.4186122,40.8840811 72.2971837,42.0647822 C72.3114184,42.0670883 72.3247347,42.0680107 72.3385102,42.0680107 C72.4551429,42.0680107 72.5584592,41.9840702 72.5786633,41.8646165 C72.6011633,41.7313264 72.5120816,41.6044933 72.3789184,41.5818939 L72.3789184,41.5818939 Z M58.9165714,22.9969209 C58.9601939,22.8687041 58.8917755,22.7298795 58.7645816,22.6860644 C58.6369286,22.6431718 58.4987143,22.7105086 58.4550918,22.8382642 C58.4371837,22.8908423 56.6927449,28.1514191 59.2421327,33.246421 C59.2848367,33.3317451 59.3707041,33.3810947 59.4602449,33.3810947 C59.4969796,33.3810947 59.5341735,33.3727929 59.5695306,33.3552669 C59.6898367,33.294387 59.7385102,33.1467993 59.677898,33.0264232 C57.2226429,28.1200567 58.8995816,23.0476541 58.9165714,22.9969209 L58.9165714,22.9969209 Z M87.3189184,57.3991375 C87.0351429,57.8133053 86.3201939,57.9198452 85.5418776,57.6638729 C85.2801429,57.5771651 84.9940714,57.6071439 84.7543776,57.7445849 C84.5151429,57.8820258 84.3447857,58.1153988 84.2860102,58.3856686 C84.1092245,59.1964782 83.6651939,59.7425525 83.1541224,59.7762209 C82.4313673,59.8297214 81.4996837,58.83166 81.3352959,57.3285722 C81.2627449,56.6630442 81.3591735,56.0228828 81.6071327,55.525697 C81.7536122,55.2319054 81.7439694,54.8836908 81.5805,54.5986622 L78.3841224,49.0124702 C78.7023367,48.8694946 79.0549898,48.6933119 79.4618265,48.4719304 C79.8470816,48.2427084 80.1703469,48.0342409 80.4495306,47.8368424 L83.6468265,53.4271853 C83.8089184,53.7099079 84.0995816,53.8930088 84.4237653,53.9160693 C84.9825918,53.9557335 85.5877959,54.1997143 86.1277959,54.6032743 C87.3395816,55.5072485 87.7285102,56.80233 87.3189184,57.3991375 L87.3189184,57.3991375 Z M76.7177449,47.5052314 C76.0771837,47.5052314 75.2240204,46.8378586 74.8176429,46.0178248 C73.8202959,44.0097105 71.330602,43.4991495 69.683051,43.1615428 C69.4305,43.1098872 69.195398,43.0619212 68.9878469,43.0125716 C67.2672857,42.6020934 64.8726429,41.7188737 63.6498367,41.043199 C59.5727449,38.7906428 57.1101429,34.5811667 56.330449,28.5314572 C56.0650408,26.4726097 55.2577959,20.2075146 61.4462143,17.0311519 C63.0450918,16.1437813 64.7096327,15.693639 66.3939184,15.693639 C70.0724388,15.693639 72.8665714,17.8350433 73.6324898,18.6606117 C75.3842755,20.5469661 76.760449,22.7114311 77.7858061,25.1885973 C77.7536633,25.2582402 77.750449,25.3398746 77.7913163,25.4109012 C77.8000408,25.4261211 78.0066735,25.7997023 78.2688673,26.4440146 C78.6366735,27.490042 78.9447857,28.5914147 79.1987143,29.7458267 C79.588102,32.0809399 79.5421837,35.1115597 77.9598367,38.2109001 C75.7883571,42.4660361 78.6775408,45.3269302 78.7064694,45.3550641 C78.7542245,45.400724 78.8148367,45.4233233 78.8749898,45.4233233 C78.9392755,45.4233233 79.0035612,45.3984179 79.0508571,45.3481459 C79.1440714,45.2508303 79.1417755,45.0958633 79.0448878,45.0022374 C78.935602,44.8961588 76.3917245,42.3576514 78.3942245,38.4341264 C79.2042245,36.8466369 79.6220816,35.2766734 79.7924388,33.8012582 C79.8897857,35.9006924 79.5665204,37.6057908 79.2405,38.9105577 C79.1821837,39.1448531 79.1215714,39.3491697 79.0660102,39.5350379 C78.7165714,40.7143553 78.5590714,41.5251649 79.6891224,43.2565524 C80.2006531,44.0401505 80.3365714,45.1175402 79.9921837,45.6585411 C79.9393776,45.7420204 79.6725918,46.0690192 78.4998367,46.7677545 C77.2664694,47.438817 76.8463163,47.5015417 76.7475918,47.5047702 L76.7177449,47.5052314 Z M87.2918265,53.0305435 C86.6172857,52.5269007 85.8555,52.182837 85.0996837,52.034327 L81.838102,46.3309873 C82.4506531,44.9722586 82.0323367,43.2726948 81.320602,42.1823911 C80.630449,41.1243722 80.6827959,40.9472671 80.9358061,40.0949485 C80.9982551,39.8841749 81.0666735,39.6526468 81.1327959,39.3874503 C81.5800408,37.5965665 82.0350918,35.1341591 81.5818776,31.9582576 C80.7186122,25.9090094 78.5857041,21.1220967 75.0596327,17.3244824 C73.9061633,16.0824402 70.6115204,13.7339519 66.3939184,13.7339519 C64.3753469,13.7339519 62.3935102,14.266651 60.530602,15.3016093 C55.6315714,17.8156725 53.5675408,22.351225 54.3959082,28.7828174 C55.2476939,35.3928987 58.1226429,40.2259325 62.7094286,42.7598277 C64.0837653,43.5189816 66.6432551,44.4672322 68.5373878,44.9187581 C68.7633061,44.9727198 69.0186122,45.0252979 69.2927449,45.0811045 C70.6459592,45.3582925 72.4987653,45.7383307 73.0713673,46.8922815 C73.6435102,48.0448487 74.8984592,49.2781279 76.3816224,49.444164 L79.6491735,55.1553443 C79.3947857,55.8794461 79.3052449,56.7082429 79.3961633,57.5421131 C79.657898,59.9371837 81.2641224,61.7377528 83.0967245,61.7377528 C83.1582551,61.7377528 83.2197857,61.7354468 83.2822347,61.7312959 C84.4063163,61.6570408 85.3637143,60.902499 85.8876429,59.7356343 C87.1559082,59.8772262 88.290551,59.4367693 88.925602,58.5106569 C90.0097347,56.9300856 89.2915714,54.5230235 87.2918265,53.0305435 L87.2918265,53.0305435 Z"/>
    <path fill="#A5B6F3" d="M83.7418776,80.2171546 C83.5370816,81.0436453 82.9924898,83.2390114 76.2158571,83.1882781 C73.1159082,83.1656788 69.1692245,82.572561 64.4850918,81.4264507 C54.8996327,79.0825746 49.1566224,74.3616151 47.1509082,71.0312079 C46.3376939,69.6789362 46.2164694,68.0886794 46.8492245,67.0726308 C47.9508061,65.3038852 51.6490714,61.9702495 57.7617245,62.0163706 C60.5200408,62.0371251 64.4520306,62.8474735 67.5221327,66.5929709 C71.1910102,71.0704108 75.3649898,75.4915829 81.0120306,77.5066154 C84.0490714,78.5909233 83.7822857,80.0538857 83.7418776,80.2171546 L83.7418776,80.2171546 Z M81.1814694,77.0274168 C75.6510612,75.0534322 71.5358571,70.6903727 67.9133571,66.2692006 C64.7188163,62.3724258 60.6316224,61.528409 57.765398,61.5071933 C51.4291224,61.4601497 47.5733571,64.9501361 46.4198878,66.8028221 C45.687949,67.9775274 45.8077959,69.7822475 46.717898,71.2940983 C48.7736633,74.7084461 54.6287143,79.5400963 64.3652449,81.9208693 C69.0874898,83.0762038 73.0732041,83.6739337 76.2126429,83.6974555 C82.6435102,83.7454215 83.870449,81.8041828 84.2336633,80.340298 C84.3181531,79.9985404 84.567949,78.2357905 81.1814694,77.0274168 L81.1814694,77.0274168 Z M87.5269286,81.3415879 C87.0319286,83.0651347 86.1420306,84.3943459 84.8035102,85.3841054 C84.4650918,85.634082 84.3934592,86.111897 84.6423367,86.4518097 C84.8907551,86.7908001 85.3664694,86.8636715 85.7044286,86.6136949 C86.3959592,86.1022115 86.990602,85.5021755 87.4952449,84.8260397 C87.4897347,85.0501884 87.487898,85.260962 87.4883571,85.4537484 C87.4888163,86.0122753 87.4897347,86.415374 87.3359082,87.037087 C86.2710612,91.3295811 82.6099898,93.3930407 76.1428469,93.3446135 L76.1414694,93.3446135 C72.725602,93.3187857 68.4620816,92.6869261 63.4689184,91.4656384 C51.183,88.4608464 42.755602,81.5431372 42.1476429,74.0701295 C45.620449,79.7909953 53.6382551,84.7771513 63.0942245,87.0892038 C68.2605,88.352923 72.5896837,88.9949292 76.1658061,89.0216794 C78.3758571,89.0382831 80.2984592,88.8196689 81.952898,88.3672205 C82.357898,88.2565298 82.5966735,87.8368275 82.4864694,87.4305002 C82.3758061,87.0232506 81.9570306,86.7829595 81.5534082,86.8941114 C77.4767755,88.0083981 71.5560612,87.5877733 63.4537653,85.6059481 C54.350449,83.3796809 46.672898,78.6384281 43.4182041,73.2321085 C42.7358571,72.098451 42.2752959,70.9611037 42.0369796,69.8477395 L42.0167755,68.9091744 L42.0126429,68.8303073 C41.9313673,68.0167304 42.1044796,67.2257529 42.3042245,66.4195555 C43.3057041,62.3825724 50.1420306,57.9097446 57.7915714,57.9664736 C61.4232551,57.9936851 66.6069796,59.0683076 70.6771837,64.0346315 C75.382898,69.7762518 79.6707551,72.3705657 82.8010102,74.2652219 C86.2761122,76.3674233 87.6802959,77.3341223 87.5351939,80.2130037 L87.5269286,81.3415879 Z M89.5601939,80.2724999 C89.7718776,76.1063777 87.2867755,74.6028287 83.8470306,72.5213818 C80.8421327,70.7032866 76.7264694,68.2127452 72.2416224,62.7409337 C67.6741224,57.1676556 61.8705,55.9615879 57.8067245,55.9311479 C49.6966224,55.8707292 41.6971837,60.448252 40.3375408,65.9279042 C40.1056531,66.8632408 39.888,67.8700652 39.9917755,68.9908088 L40.0849898,73.3215835 C40.1566224,82.1597768 49.1469796,90.0580214 62.9895306,93.4433128 C68.2067755,94.7190234 72.5038163,95.3527278 76.1258571,95.3799393 C76.1267755,95.3799393 76.1267755,95.3799393 76.1276939,95.3804005 C83.5627959,95.4357458 87.9966735,92.7943884 89.3021327,87.5291995 C89.5170306,86.663967 89.5161122,86.0745388 89.5147347,85.4500587 C89.5142755,85.2037718 89.5133571,84.9394977 89.5294286,84.588977 L89.5601939,80.2724999 Z M61.3658571,66.4767457 L60.9516735,72.133503 L54.6962143,74.1185567 L61.5573367,74.0867331 L71.9509592,77.067081 L63.1387653,72.6062447 L61.3658571,66.4767457 Z"/>
    <path fill="#FFB8AC" d="M10.2169286,9.05297945 C10.8386633,8.63327711 10.9897347,7.78557063 10.5539694,7.16016802 C10.1191224,6.5343042 9.26182653,6.36734569 8.64055102,6.78704803 C8.01881633,7.20675037 7.8677449,8.05445685 8.30305102,8.67985946 C8.73835714,9.30572327 9.59519388,9.47268179 10.2169286,9.05297945 L10.2169286,9.05297945 Z M18.007898,24.8660722 C17.6974898,24.8407056 17.4541224,25.0745397 17.4357551,25.3734047 C17.3576939,26.6329729 16.7414694,27.7412638 15.7473367,28.4127875 C14.7302449,29.0995313 13.4316735,29.2591104 12.1859082,28.8495547 C11.9007551,28.7568512 11.5976939,28.9122795 11.505398,29.1963857 C11.4126429,29.4809531 11.5669286,29.7871974 11.8507041,29.8803621 C12.4159592,30.0657691 12.9913163,30.1575501 13.5556531,30.1575501 C14.5552959,30.1575501 15.5227959,29.8711379 16.3493265,29.3126109 C17.625398,28.4510681 18.4142755,27.0402225 18.513,25.4407415 C18.5313673,25.1418766 18.305449,24.8845206 18.007898,24.8660722 L18.007898,24.8660722 Z M24.2197347,26.0965841 C23.9286122,26.0809029 23.6659592,26.3055128 23.6475918,26.6039166 C23.570449,27.8634848 22.9542245,28.9717757 21.9596327,29.6437607 C20.9416224,30.3305044 19.6439694,30.4896223 18.3982041,30.0800666 C18.113051,29.9864407 17.8099898,30.1427914 17.7172347,30.4273588 C17.6249388,30.7119262 17.7792245,31.0181705 18.063,31.1113352 C18.6277959,31.2967422 19.2031531,31.388062 19.7674898,31.388062 C20.7671327,31.388062 21.7350918,31.102111 22.5616224,30.543584 C23.8381531,29.68158 24.6265714,28.2702732 24.7252959,26.6712534 C24.7436633,26.3723885 24.5177449,26.1150325 24.2197347,26.0965841 L24.2197347,26.0965841 Z M25.5063673,19.7779884 C25.2175408,19.7567727 24.953051,19.9873784 24.9342245,20.2857822 C24.8570816,21.5453504 24.2417755,22.6531801 23.2467245,23.325165 C22.2296327,24.0119087 20.9310612,24.1714879 19.6852959,23.7619322 C19.3992245,23.6678451 19.0970816,23.8241957 19.0047857,24.1092243 C18.9120306,24.3937917 19.0663163,24.6995749 19.3500918,24.7927396 C19.9153469,24.9781465 20.4897857,25.0699276 21.0550408,25.0699276 C22.0537653,25.0699276 23.0217245,24.7835153 23.8487143,24.2249884 C25.1252449,23.3629844 25.9136633,21.9521388 26.0119286,20.353119 C26.0302959,20.054254 25.8043776,19.7968981 25.5063673,19.7779884 L25.5063673,19.7779884 Z M36.1759592,46.5886661 L35.0234082,44.9356846 C34.938,44.8125411 34.7699388,44.783946 34.6473367,44.8688089 C34.5256531,44.9550554 34.4958061,45.1238588 34.5816735,45.246541 L35.7282551,46.8912207 L33.3423367,48.502232 L32.1911633,46.8515566 C32.1057551,46.7279519 31.9376939,46.6993568 31.815551,46.7846809 C31.6934082,46.8709274 31.6635612,47.0397308 31.7498878,47.1619518 L32.8946327,48.8043255 L29.8272857,50.8760869 C29.2133571,49.6169799 29.0021327,48.209824 29.2477959,46.8884535 C29.5191735,45.4268747 30.3222857,44.1811428 31.5074388,43.3800186 C32.3968776,42.7795215 33.453,42.462208 34.5610102,42.462208 C36.3059082,42.462208 37.9901939,43.2158274 39.2387143,44.5201331 L36.1759592,46.5886661 Z M7.3360102,27.8422691 C5.20493878,24.7793644 3.89442857,21.4729402 3.12116327,18.2859697 C4.06478571,18.4893639 5.01116327,18.6000546 5.94697959,18.6000546 C7.42784694,18.6000546 8.87840816,18.3413151 10.245398,17.8432068 C10.1765204,18.0512131 10.1159082,18.2633703 10.0750408,18.4829069 C9.83580612,19.7729151 10.1191224,21.0804493 10.8735612,22.1638348 L12.195551,24.0644868 C12.3525918,24.2909416 12.6042245,24.4122402 12.8595306,24.4122402 C13.0151939,24.4122402 13.1722347,24.3675027 13.3109082,24.2734156 L19.9915714,19.761846 C20.1720306,19.6400862 20.2960102,19.4505284 20.3359592,19.2365263 C20.3763673,19.0216018 20.3281531,18.8002204 20.2037143,18.6212703 L18.8817245,16.7206183 C18.0051429,15.4610501 16.595449,14.6885211 15.0700408,14.6013521 C16.6298878,12.8731932 17.6731531,10.7073446 18.0790714,8.31734733 C20.8309592,10.1852533 23.4822857,12.5710997 25.5711122,15.5740469 C32.4202959,25.4190646 30.645551,38.4266086 29.790551,40.8392053 C26.6662653,40.7409672 14.0152959,37.4419224 7.3360102,27.8422691 L7.3360102,27.8422691 Z M3.64095918,32.012081 C3.3902449,29.1945408 3.25754082,26.8133065 3.18912245,24.9375599 C3.85172449,26.3562461 4.63692857,27.7486432 5.56585714,29.0843113 C6.21330612,30.0150358 6.91080612,30.8881089 7.6455,31.7090651 C5.78167347,31.3257985 4.48723469,31.6034477 3.64095918,32.012081 L3.64095918,32.012081 Z M15.4534592,18.7374956 L16.4609082,20.1866217 L15.0103469,21.1662346 L13.9969286,19.7083455 C13.910602,19.5847409 13.7420816,19.556607 13.6208571,19.6410087 C13.4987143,19.726794 13.4688673,19.8960586 13.5542755,20.0187408 L14.5621837,21.4687893 L13.0675408,22.4779198 L12.200602,21.2321879 C11.6973367,20.5090085 11.5081531,19.6387026 11.6674898,18.7813107 C11.8222347,17.9460569 12.2919796,17.226106 12.9899388,16.754748 C13.5170816,16.3986928 14.1388163,16.2105186 14.7858061,16.2105186 C15.8910612,16.2105186 16.925602,16.7496746 17.5542245,17.6522653 L18.4041735,18.8740142 L16.9090714,19.8836058 L15.8961122,18.4271004 C15.8102449,18.3039569 15.6412653,18.2753618 15.5205,18.3597635 C15.397898,18.4455488 15.368051,18.6148134 15.4534592,18.7374956 L15.4534592,18.7374956 Z M2.74417347,16.5255259 C1.4832551,9.74156801 2.52606122,3.83944622 3.08902041,2.5356017 C3.11886735,2.53421807 3.15238776,2.53375686 3.19004082,2.53375686 C4.98590816,2.53375686 10.8202959,3.86204558 16.5775408,7.35479921 C16.2244286,10.58374 14.5695306,13.4045086 11.9769796,15.155267 C9.32886735,16.9443058 5.99289796,17.4322675 2.74417347,16.5255259 L2.74417347,16.5255259 Z M31.445449,11.68788 C31.4752959,11.7164751 31.5074388,11.7436865 31.5409592,11.7685919 C31.5414184,11.7690532 31.5450918,11.7722816 31.5460102,11.7732041 C28.8675918,11.1132106 26.2883571,11.1870044 24.897949,11.3041521 C23.9208061,10.2470557 22.8862653,9.27805059 21.815449,8.3975981 C24.0535102,8.12640582 27.9037653,8.3164249 31.445449,11.68788 L31.445449,11.68788 Z M33.3643776,15.6732073 C31.2521327,15.277488 29.2927959,15.2940916 28.0323367,15.3771096 C27.8114694,15.026589 27.5818776,14.6779132 27.3412653,14.3320047 C26.7227449,13.4427892 26.0578469,12.608919 25.3621837,11.8193252 C26.928,11.7243157 29.5586633,11.731695 32.1397347,12.4977671 C32.5401429,13.1028764 33.048,14.1230759 33.3643776,15.6732073 L33.3643776,15.6732073 Z M33.6297857,19.9956802 C32.3055,19.9112785 31.163051,19.9569385 30.3801429,20.0196632 C29.8291224,18.6374127 29.1591735,17.2583908 28.350551,15.9061191 C29.6270816,15.8406271 31.4991735,15.855847 33.4676939,16.2469543 C33.6316224,17.2800677 33.7101429,18.5174978 33.6297857,19.9956802 L33.6297857,19.9956802 Z M32.3188163,27.1753575 C31.9831531,25.0514791 31.4408571,22.8044574 30.590449,20.549595 C31.3462653,20.4951721 32.3968776,20.4615037 33.5907551,20.5366811 C33.447949,22.3856775 33.0668265,24.5791987 32.3188163,27.1753575 L32.3188163,27.1753575 Z M41.7095816,44.1350216 C40.0349388,41.7293432 37.362949,40.293131 34.5610102,40.293131 C33.6982041,40.293131 32.8583571,40.4379514 32.0653469,40.7091437 C32.1397347,40.4079726 32.2145816,40.0652926 32.2894286,39.6621939 C32.4074388,39.0261834 32.8808571,36.1957293 32.7844286,32.3293944 C32.8670816,32.2348461 32.9364184,32.1260002 32.9832551,32.0014732 C39.0633061,15.8784464 33.6045306,10.6709089 32.8996837,10.0842481 C27.2820306,4.76325258 21.0660612,6.18608963 19.5048367,6.66159854 C12.7667755,2.01443286 5.42259184,0.365141035 3.19004082,0.365141035 C2.57243878,0.365141035 2.15687755,0.459689364 1.84279592,0.672307801 C1.58703061,0.844339639 0.989173469,1.24836079 0.47672449,4.00363746 C-0.190010204,7.59001701 -0.404908163,13.9907083 1.50942857,20.4804133 C1.48187755,21.8852632 1.46442857,26.4992216 2.16468367,33.6258596 C2.1977449,33.9634663 2.44203061,34.2365034 2.76805102,34.3236724 C3.09544898,34.4113025 3.44626531,34.2775512 3.64187755,34.0012856 C3.65840816,33.9773026 5.25131633,31.8580364 10.4299898,34.4348243 C17.0298367,40.122944 25.2322347,42.4728159 28.8106531,42.9257255 C27.9620816,43.9242481 27.3761633,45.1404624 27.125449,46.4904281 C26.7121837,48.7130056 27.2485102,51.0993132 28.5966735,53.0373233 C28.8065204,53.3389556 29.1417245,53.5003795 29.482898,53.5003795 C29.6899898,53.5003795 29.8993776,53.4408833 30.0844286,53.315895 L41.4267245,45.6560967 C41.6673367,45.4937503 41.8321837,45.2410065 41.885449,44.9550554 C41.9387143,44.6691044 41.8748878,44.3739291 41.7095816,44.1350216 L41.7095816,44.1350216 Z" transform="translate(0 48.062)"/>
    <path fill="#A5B6F3" d="M48.4011276,39.3578405 C47.5369439,42.171691 44.9255663,46.8935729 37.1469949,46.8940341 L37.1460765,46.8940341 C37.0427602,46.8940341 36.9394439,46.8931117 36.8140867,46.8903444 C36.7745969,46.8866547 36.7341888,46.8838875 36.6910255,46.8829651 C36.6731173,46.8815814 36.6556684,46.8815814 36.637301,46.8829651 C36.5950561,46.8838875 36.5551071,46.8866547 36.4940357,46.8908056 C36.3875051,46.8931117 36.2786786,46.8940341 36.1735255,46.8940341 C28.6681684,46.8940341 26.0411786,42.5286686 25.1439337,39.9274365 C23.6658214,35.6446278 24.802301,30.1400702 27.6244439,27.9068848 C29.0456173,26.7824515 30.5342908,26.2123943 32.0495969,26.2123943 C33.6608724,26.2123943 35.0609235,26.8553229 36.0242908,27.459971 C35.7386786,27.6928827 35.43975,27.9516223 35.1380663,28.2384958 C34.9387806,28.4280536 34.9305153,28.7435222 35.1183214,28.9436879 C35.2165867,29.0479217 35.3479133,29.1000386 35.4792398,29.1000386 C35.6018418,29.1000386 35.7249031,29.0543787 35.8208724,28.96352 C36.4476582,28.3671737 37.0670969,27.8939709 37.5607194,27.5517521 C38.4979133,27.0679413 39.8667398,26.5486173 41.4504643,26.5486173 C42.9552092,26.5486173 44.404852,27.0190529 45.7599031,27.9470102 C48.5590867,29.864727 49.7442398,34.9837119 48.4011276,39.3578405 M20.1865867,39.7595556 L19.5708214,39.2706715 L18.9545969,39.7595556 C17.9099541,40.5883524 15.4606684,42.5282074 13.4081173,41.905572 C12.0925561,41.5057018 11.0258724,40.0722569 10.2388316,37.6439791 C6.58005612,26.3572146 6.04235204,18.7808956 8.68541327,15.735517 C10.0119949,14.2061401 13.1390357,14.2259722 14.2300561,14.362952 L14.8040357,14.4717979 L15.1484235,13.9741508 C15.16725,13.9515514 15.5217398,13.5419957 16.5383724,13.3791881 C16.4203622,13.7905887 16.3092398,14.216748 16.2036276,14.6525927 C15.9616378,14.5967861 15.7132194,14.5525098 15.4537806,14.5326778 C15.0474031,14.500393 14.6860255,14.810327 14.654801,15.2231112 C14.6240357,15.6345117 14.9316888,15.9942566 15.342199,16.0256189 C17.2363316,16.1685945 18.6451071,17.8690807 18.6579643,17.8843007 L18.8600051,18.1347385 C17.9861786,20.8628037 17.9168418,26.8714653 18.6735765,35.8249615 C18.6841378,35.9550231 18.7929643,36.0532611 18.9201582,36.0532611 C18.9275051,36.0532611 18.934852,36.0527999 18.9417398,36.0523387 C19.0785765,36.0408084 19.1795969,35.919971 19.1681173,35.7829912 C18.2350561,24.7383628 18.7227092,20.1613012 19.3329643,18.2707958 L19.6778112,18.0162072 C23.9468418,14.8642887 28.4877092,16.9724859 28.6787296,17.0638057 C29.04975,17.2409109 29.4933214,17.0845602 29.6714847,16.7128239 C29.8501071,16.3401651 29.6939847,15.8937125 29.3234235,15.7143013 C29.212301,15.6603395 27.8453112,15.0192557 25.8859745,14.8403057 C25.7537296,14.4865566 25.6113827,14.0511731 25.4805153,13.5604442 C25.8083724,13.7204845 26.1160255,13.90912 26.3965867,14.1420317 L26.7620969,14.4455088 L27.2277092,14.3504993 C27.2662806,14.3421975 31.147301,13.6070265 32.6993418,15.3942206 C33.8909235,16.7672468 34.4502092,19.1775374 34.3491888,22.434612 C33.4680153,21.1851904 33.2131684,19.8951822 33.2131684,19.8951822 C32.8963316,21.8027524 33.492352,23.1112091 34.2568929,23.9805925 C34.252301,24.0377827 34.2477092,24.0940505 34.2426582,24.1512407 C30.3845969,22.4821168 28.7365867,18.2403559 28.7365867,18.2403559 C29.2361786,21.1884189 30.4066378,23.052174 31.7194439,24.2319527 C29.8652602,24.3075913 28.0749031,25.0100162 26.3956684,26.3387662 C22.8526071,29.14247 21.4782704,35.3983409 23.2663316,40.5805118 C23.384801,40.9241143 23.5165867,41.2571089 23.6593929,41.5813405 C22.114699,41.0703183 20.7954643,40.2429051 20.1865867,39.7595556 M26.7024031,2.29766276 L27.9486276,4.4994858 C26.1426582,4.84816159 24.8142398,5.69171717 23.9881684,7.01862225 C22.4375051,9.50870239 23.2025051,13.0009948 23.7911786,14.8499912 C22.3980153,14.995734 20.8638827,15.443109 19.3384745,16.433791 C19.0381684,16.1446115 18.5982704,15.7761036 18.0578112,15.4384969 C20.0791378,6.72067971 24.8404133,3.32062956 26.7024031,2.29766276 M46.8793929,26.2986408 C45.8094949,25.5662371 44.6854133,25.0635168 43.5204643,24.7918633 C44.8291378,24.042856 46.1561786,22.7971241 47.329852,20.7756347 C47.329852,20.7756347 44.6427092,23.8016425 41.1758724,24.5631024 C40.8135765,24.5737103 40.4586276,24.5999993 40.1188316,24.6479653 C41.0900051,24.0110324 42.2324541,22.7417788 42.5786786,20.2355562 C42.5786786,20.2355562 41.0941378,23.3505778 38.3564847,24.3421822 C38.8565357,19.0917521 41.8100051,15.1539295 41.8426071,15.1110368 C42.1759745,14.6742696 42.094699,14.0484058 41.6603112,13.712644 C41.2263827,13.3778045 40.6018929,13.4585165 40.267148,13.8952837 C40.1183724,14.0889924 36.9040867,18.3528915 36.372352,24.2079697 C36.3255153,24.1853703 36.2841888,24.1572364 36.2387296,24.1332534 C36.637301,19.4847041 35.952199,16.1058697 34.1967398,14.0825355 C32.2603622,11.8511949 28.589648,12.1348399 27.2929133,12.3188632 C26.6367398,11.8465828 25.9052602,11.5112821 25.0869949,11.2940516 C25.0015867,10.134105 25.1205153,8.96262814 25.6724541,8.07664112 C26.3525051,6.98495382 27.672199,6.39414207 29.5952602,6.31896462 C29.9424031,6.30558949 30.2564847,6.11141951 30.4254643,5.80702001 C30.5935255,5.50262051 30.592148,5.13180657 30.4204133,4.82925192 L27.9725051,0.504934198 C27.7318929,0.0792361119 27.2176071,-0.108476912 26.7607194,0.0635549256 C26.4718929,0.171939595 20.4731173,2.52780723 17.2115357,11.3240303 C15.5079643,11.3636945 14.5060255,11.9157645 13.9894439,12.3386953 C12.6725051,12.2547548 9.08214796,12.2413797 7.18801531,14.4238319 C3.97143367,18.1310488 4.35117857,25.9282881 8.34975,38.2620023 C9.35031122,41.3475063 10.8582704,43.2158735 12.8332194,43.8154483 C13.3107704,43.9611911 13.7883214,44.024377 14.2580663,44.024377 C16.3914337,44.024377 18.3741888,42.7145368 19.5933214,41.7879631 C20.8152092,42.6070745 22.8535255,43.6484898 25.0341888,43.9381305 C27.4150561,47.1209501 31.3038827,48.8892345 36.1735255,48.8892345 C36.289699,48.8892345 36.4086276,48.8887733 36.5105663,48.8864672 C36.5688827,48.8864672 36.622148,48.8832387 36.6542908,48.8790878 C36.7075561,48.8832387 36.7520969,48.9086054 36.802148,48.8864672 C36.9183214,48.8887733 37.054699,48.8827775 37.1469949,48.8892345 C43.7601582,48.8892345 48.5540357,45.6293926 50.2993929,39.945885 C51.9079133,34.70883 50.4054643,28.7140047 46.8793929,26.2986408"/>
  </g>
</svg>
