<svg xmlns="http://www.w3.org/2000/svg" xmlns:xlink="http://www.w3.org/1999/xlink" width="100" height="119" viewBox="0 0 100 119">
  <defs>
    <polygon id="soup_s_pure-a" points="0 119 80.621 119 80.621 0 0 0"/>
  </defs>
  <g fill="none" fill-rule="evenodd">
    <path fill="#C5B283" d="M76.8849624,11.6283453 C78.431985,11.6283453 79.6853164,10.3825641 79.6853164,8.84486094 L79.6853164,3.71298594 C79.6853164,2.17714219 78.431985,0.929501562 76.8849624,0.929501562 L3.73530182,0.929501562 C2.18827928,0.929501562 0.934947841,2.17714219 0.934947841,3.71298594 L0.934947841,8.84486094 C0.934947841,10.3825641 2.18827928,11.6283453 3.73530182,11.6283453 L5.5479558,11.6283453 L5.5479558,17.5225641 C5.5479558,17.5225641 0.934947841,17.6322672 0.934947841,22.4350328 L0.934947841,107.58883 C0.934947841,113.378923 5.65645314,118.070127 11.4797677,118.070127 L40.1455155,118.070127 L40.4747488,118.070127 L69.1404965,118.070127 C74.9656817,118.070127 79.6853164,113.378923 79.6853164,107.58883 L79.6853164,22.4350328 C79.6853164,17.6322672 75.0723084,17.5225641 75.0723084,17.5225641 L75.0723084,11.6283453 L76.8849624,11.6283453 Z"/>
    <path stroke="#C5B283" d="M76.8849624,11.6283453 C78.431985,11.6283453 79.6853164,10.3825641 79.6853164,8.84486094 L79.6853164,3.71298594 C79.6853164,2.17714219 78.431985,0.929501562 76.8849624,0.929501562 L3.73530182,0.929501562 C2.18827928,0.929501562 0.934947841,2.17714219 0.934947841,3.71298594 L0.934947841,8.84486094 C0.934947841,10.3825641 2.18827928,11.6283453 3.73530182,11.6283453 L5.5479558,11.6283453 L5.5479558,17.5225641 C5.5479558,17.5225641 0.934947841,17.6322672 0.934947841,22.4350328 L0.934947841,107.58883 C0.934947841,113.378923 5.65645314,118.070127 11.4797677,118.070127 L40.1455155,118.070127 L40.4747488,118.070127 L69.1404965,118.070127 C74.9656817,118.070127 79.6853164,113.378923 79.6853164,107.58883 L79.6853164,22.4350328 C79.6853164,17.6322672 75.0723084,17.5225641 75.0723084,17.5225641 L75.0723084,11.6283453 L76.8849624,11.6283453 Z"/>
    <mask id="soup_s_pure-b" fill="#fff">
      <use xlink:href="#soup_s_pure-a"/>
    </mask>
    <polygon fill="#FFF" points=".935 104.424 79.686 104.424 79.686 31.28 .935 31.28" mask="url(#soup_s_pure-b)"/>
    <polygon fill="#B4B5B5" points="4.873 100.767 75.748 100.767 75.748 34.938 4.873 34.938" mask="url(#soup_s_pure-b)"/>
    <path fill="#FFB8AC" d="M4.87246627,35.0449422 C23.7510049,35.0449422 39.054743,49.7581766 39.054743,67.9056766 C39.054743,86.0550359 23.7510049,100.766411 4.87246627,100.766411 L4.87246627,35.0449422 Z" mask="url(#soup_s_pure-b)"/>
    <path fill="#A5B6F3" d="M4.87246627,100.766597 C4.87246627,81.92555 20.7598452,66.6526438 40.3567112,66.6526438 C59.9535771,66.6526438 75.840956,81.92555 75.840956,100.766597 L4.87246627,100.766597 Z" mask="url(#soup_s_pure-b)"/>
    <path fill="#FFF" d="M24.9078111 95.7297359C24.67211 96.0105016 24.3484886 96.1834234 23.9911956 96.1834234 23.7274348 96.1834234 23.4936043 96.0923141 23.3252463 95.9231109 23.1568884 95.7539078 23.054003 95.5028922 23.054003 95.1867984 23.054003 94.7572828 23.1999132 94.3705328 23.4356143 94.0897672 23.6694448 93.8108609 23.9949369 93.6397984 24.3522299 93.6397984 24.6159907 93.6397984 24.8498212 93.7309078 25.0181791 93.9001109 25.1846664 94.0674547 25.2875518 94.3166109 25.2875518 94.6308453 25.2875518 95.0603609 25.1416416 95.4489703 24.9078111 95.7297359M24.3859015 92.9871578C23.7779422 92.9871578 23.2485499 93.2530484 22.8744212 93.6621109 22.5002924 94.0693141 22.2776857 94.6178297 22.2776857 95.1867984 22.2776857 95.6237516 22.4292079 96.0346734 22.7154164 96.3358922 22.9997543 96.6371109 23.4206492 96.8286266 23.9556534 96.8286266 24.5654833 96.8286266 25.0930049 96.5627359 25.4671337 96.1555328 25.8431331 95.7483297 26.0657397 95.2016734 26.0657397 94.6382828 26.0657397 94.1957516 25.9142176 93.7829703 25.628009 93.4817516 25.3418005 93.1786734 24.9209056 92.9871578 24.3859015 92.9871578M29.2894204 95.7297359C29.0537193 96.0105016 28.7300979 96.1834234 28.3728049 96.1834234 28.1090441 96.1834234 27.8752136 96.0923141 27.7068556 95.9231109 27.5384977 95.7539078 27.4374829 95.5028922 27.4356123 95.1867984 27.4356123 94.7572828 27.5815225 94.3705328 27.8172236 94.0897672 28.0510541 93.8108609 28.3765462 93.6397984 28.7338392 93.6397984 28.9976 93.6397984 29.2314305 93.7309078 29.3997884 93.9001109 29.5662757 94.0674547 29.6691611 94.3166109 29.6691611 94.6308453 29.6691611 95.0603609 29.5232509 95.4489703 29.2894204 95.7297359M28.7675108 92.9871578C28.1595515 92.9871578 27.6320299 93.2530484 27.2560305 93.6621109 26.8819017 94.0693141 26.659295 94.6178297 26.659295 95.1867984 26.659295 95.6237516 26.8108172 96.0346734 27.0970257 96.3358922 27.3813636 96.6371109 27.8022585 96.8286266 28.3372627 96.8286266 28.9470926 96.8286266 29.4746142 96.5627359 29.848743 96.1555328 30.2247424 95.7483297 30.447349 95.2016734 30.447349 94.6382828 30.447349 94.1957516 30.2958269 93.7829703 30.0096183 93.4817516 29.7234098 93.1786734 29.3043856 92.9871578 28.7675108 92.9871578M34.8566438 95.6942219L34.8529026 95.7035188C34.7668529 95.9378 34.6845446 96.08655 34.6041069 96.1758 34.5255399 96.26505 34.4507141 96.2948 34.3815003 96.2948 34.3104158 96.2948 34.2561671 96.2706281 34.2187543 96.2260031 34.1794707 96.1813781 34.1588937 96.1163 34.1588937 96.0326281 34.1588937 95.9656906 34.1850827 95.8466906 34.209401 95.7351281L34.5292812 94.6492531C34.5891418 94.435425 34.6228134 94.2290344 34.6228134 94.048675 34.6228134 93.7177063 34.5124454 93.453675 34.3309929 93.2733156 34.1476698 93.0929563 33.8932622 92.9944094 33.6070537 92.9944094 33.3507755 92.9944094 33.1019798 93.0985344 32.8793732 93.2658781 32.6736024 93.4220656 32.4921499 93.632175 32.349981 93.8683156L32.6118711 93.0557688 31.850519 93.0557688 30.9357741 96.7596438 31.713962 96.7596438 32.2152946 94.7515188C32.3088268 94.3852219 32.4640902 94.1063156 32.649284 93.9203781 32.8363484 93.7344406 33.0552137 93.6396125 33.279691 93.6396125 33.4461783 93.6396125 33.5827353 93.691675 33.6781382 93.7846438 33.773541 93.8757531 33.8296603 94.0077688 33.8296603 94.167675 33.8296603 94.286675 33.8109539 94.3963781 33.7679291 94.5414094L33.4517902 95.6533156 33.4517902 95.6533156C33.416248 95.7909094 33.390059 95.952675 33.390059 96.0753938 33.390059 96.2910813 33.4611435 96.4770188 33.5995711 96.6090344 33.7342575 96.74105 33.936287 96.8191438 34.1925652 96.8191438 34.4226545 96.8191438 34.6265546 96.7391906 34.7986539 96.5755656 34.9707531 96.4119406 35.1091808 96.1627844 35.2064543 95.8299563L35.2101955 95.8206594 34.8566438 95.6942219zM20.4915949 95.6752563C20.2615057 95.9634594 19.9434962 96.1512563 19.582462 96.1512563 19.2962534 96.1512563 19.0773881 96.0620063 18.9296072 95.9076781 18.7780851 95.75335 18.699518 95.5339438 18.699518 95.2661938 18.699518 94.86085 18.8547815 94.4573656 19.0979652 94.1561469 19.3430195 93.8549281 19.6759941 93.6578344 20.0370284 93.6578344 20.3007892 93.6578344 20.5046894 93.7526625 20.6449877 93.9181469 20.7834154 94.0836313 20.8582411 94.3179125 20.8582411 94.5931 20.8582411 94.9965844 20.7198135 95.3851938 20.4915949 95.6752563M21.2922305 93.4105375C21.0584 93.1483656 20.7179428 92.9977563 20.2858241 92.9977563 20.0351578 92.9977563 19.7919741 93.0851469 19.5787207 93.2246 19.3785618 93.3547563 19.2120745 93.5295375 19.0736468 93.7173344L19.7508199 90.9970688C19.5338252 91.1439594 19.3467608 91.2555219 19.0530697 91.2555219 18.7687318 91.2555219 18.4731701 91.2034594 18.2486928 91.1402406 18.0242155 91.0993344 17.7567135 91.0454125 17.496694 91.0454125 16.5707252 91.0454125 16.1816313 91.7780063 16.1816313 92.3748656 16.1816313 92.6277406 16.2396212 92.8415688 16.3312828 93.0479594 16.1835019 93.0144906 16.0244972 92.9977563 15.8561392 92.9977563 15.3940902 92.9977563 15.0367972 93.1260531 14.7936135 93.328725 14.5504298 93.5313969 14.4213553 93.8103031 14.4213553 94.1078031 14.4213553 94.4034438 14.5485591 94.6191313 14.7374941 94.786475 14.9282998 94.9538188 15.1827074 95.0746781 15.4389856 95.1899594L15.4408563 95.1899594C15.6466271 95.2810688 15.8411741 95.3628813 15.983343 95.4614281 16.0544275 95.5116313 16.1124174 95.5636938 16.151701 95.6231938 16.1928551 95.6808344 16.2134322 95.7459125 16.2134322 95.8202875 16.2134322 95.8928031 16.1947258 95.9560219 16.1591835 96.0118031 16.1049349 96.0936156 16.0170146 96.1568344 15.904776 96.1996 15.7906667 96.2405063 15.6559803 96.2628188 15.5119407 96.2628188 15.2481799 96.2628188 15.0012549 96.2033188 14.8310263 96.1196469 14.774907 96.0861781 14.7356235 96.0620063 14.7038226 96.0322563 14.7524593 95.9708969 14.7861309 95.8797875 14.7861309 95.7942563 14.7861309 95.6808344 14.7412354 95.5767094 14.6664097 95.500475 14.5915839 95.4242406 14.4868279 95.3758969 14.3633654 95.3758969 14.2361616 95.3758969 14.1239229 95.4279594 14.0434852 95.51535 13.9630476 95.6027406 13.9162815 95.7236 13.9162815 95.8630531 13.9162815 96.0452719 14.0042017 96.2107563 14.150112 96.3557875L14.150112 96.3557875C14.4269673 96.6402719 14.9264292 96.8280688 15.4951049 96.8280688 15.9347063 96.8280688 16.3032231 96.7276625 16.5632426 96.5342875 16.8232621 96.3427719 16.9729137 96.0582875 16.9729137 95.6919906 16.9729137 95.4037875 16.8475805 95.1899594 16.6623868 95.0207563 16.4753224 94.8515531 16.2246561 94.7251156 15.9702485 94.6098344 15.7569951 94.5112875 15.5587068 94.4220375 15.4127966 94.3216313 15.3417121 94.2732875 15.2818515 94.221225 15.242568 94.1654438 15.2014138 94.1078031 15.1808368 94.0483031 15.1808368 93.9795063 15.1808368 93.8512094 15.2519212 93.7508031 15.3716424 93.6801469 15.4932343 93.6094906 15.6597216 93.5723031 15.846786 93.5723031 16.035721 93.5723031 16.2134322 93.6057719 16.340636 93.655975 16.4023673 93.6782875 16.4360388 93.7006 16.4603572 93.7173344 16.4023673 93.8158813 16.3855315 93.8772406 16.3855315 93.953475 16.3855315 94.1803188 16.5800784 94.3736938 16.8157796 94.3736938 16.9355008 94.3736938 17.0458688 94.32535 17.1244358 94.2416781 17.2048735 94.1580063 17.2553809 94.0371469 17.2553809 93.893975 17.2553809 93.7210531 17.1768138 93.5462719 17.0383862 93.4086781 16.9579485 93.3268656 16.8569337 93.25435 16.7409538 93.19485 16.6586455 93.01635 16.6062674 92.8173969 16.6062674 92.5942719 16.6062674 91.9156 17.081411 91.6013656 17.4611517 91.6013656 17.6444748 91.6013656 17.9026237 91.6106625 18.127101 91.632975 18.3272599 91.662725 18.5854087 91.6850375 18.8024034 91.6850375L18.8042741 91.6850375 17.6051913 96.7592719 18.3889911 96.7592719 18.5536078 96.0118031C18.6882941 96.4915219 19.1372487 96.8280688 19.6759941 96.8280688 20.2166102 96.8280688 20.7104602 96.5640375 21.0696239 96.1401 21.4269169 95.7161625 21.6513941 95.1323188 21.6513941 94.4908344 21.6513941 94.0464438 21.526061 93.6727094 21.2922305 93.4105375" mask="url(#soup_s_pure-b)"/>
    <polygon fill="#FFF" points="52.82 54.419 54.737 54.419 54.567 55.156 52.647 55.156" mask="url(#soup_s_pure-b)"/>
    <path fill="#FFF" d="M68.7630006,51.5777609 L68.5179462,51.5777609 C68.5179462,54.3389328 67.3918186,56.8379328 65.5698114,58.6489641 C63.7496748,60.4581359 61.2355294,61.5774797 58.4576231,61.5774797 C55.6778462,61.5774797 53.1655714,60.4581359 51.3435642,58.6489641 C49.521557,56.8379328 48.3973,54.3389328 48.3973,51.5777609 C48.3973,48.8147297 49.521557,46.3157297 51.3435642,44.5065578 C53.1655714,42.6973859 55.6778462,41.5780422 58.4576231,41.5780422 C61.2355294,41.5780422 63.7496748,42.6973859 65.5698114,44.5065578 C67.3918186,46.3157297 68.5179462,48.8147297 68.5179462,51.5777609 L68.7630006,51.5777609 L69.0080549,51.5777609 C69.0080549,48.6808547 67.8276786,46.0591359 65.9177511,44.1607141 C64.0096943,42.2641516 61.3702157,41.0890266 58.4576231,41.0890266 C55.5450305,41.0890266 52.9036813,42.2641516 50.9956244,44.1607141 C49.085697,46.0591359 47.9053206,48.6808547 47.9053206,51.5777609 C47.9053206,54.4728078 49.085697,57.0963859 50.9956244,58.9929484 C52.9036813,60.8913703 55.5450305,62.0664953 58.4576231,62.0664953 C61.3702157,62.0664953 64.0096943,60.8913703 65.9177511,58.9929484 C67.8276786,57.0963859 69.0080549,54.4728078 69.0080549,51.5777609 L68.7630006,51.5777609 Z" mask="url(#soup_s_pure-b)"/>
    <path fill="#FFF" d="M60.5907184 48.7676875C60.403654 49.0038281 60.1436345 49.1562969 59.8499434 49.1562969 59.6161129 49.1562969 59.4365311 49.0837813 59.3149392 48.9592031 59.1933474 48.8327656 59.1297455 48.6524063 59.1297455 48.4348594 59.1297455 48.1020313 59.2550786 47.7729219 59.4533669 47.5274844 59.6535258 47.2820469 59.9266398 47.1202813 60.2203309 47.1202813 60.4354549 47.1202813 60.6019423 47.198375 60.7160515 47.3341094 60.8301608 47.4679844 60.8918921 47.6595 60.8918921 47.8844844 60.8918921 48.2135938 60.7777828 48.5315469 60.5907184 48.7676875M61.2454438 46.9176094C61.0546381 46.7037813 60.7759121 46.5810625 60.4242311 46.5810625 60.2184602 46.5810625 60.020172 46.6535781 59.8462021 46.767 59.6815854 46.8729844 59.5468991 47.0161563 59.4327898 47.1704844L59.9865004 44.9485313C59.8106599 45.0693906 59.6553964 45.1605 59.4178246 45.1605 59.1839941 45.1605 58.9445517 45.115875 58.759358 45.0656719 58.5760349 45.0303438 58.3571695 44.9875781 58.1457868 44.9875781 57.3900466 44.9875781 57.0720371 45.5862969 57.0720371 46.0734531 57.0720371 46.2798438 57.1188032 46.454625 57.1954996 46.6238281 57.0739078 46.5977969 56.9429627 46.5810625 56.8064057 46.5810625 56.4304063 46.5810625 56.1367152 46.6870469 55.9384269 46.8525313 55.7401387 47.0180156 55.6353826 47.2448594 55.6353826 47.4884375 55.6353826 47.7301563 55.738268 47.9049375 55.8935315 48.0425313 56.0487949 48.180125 56.2564364 48.2786719 56.4659485 48.3735 56.6343065 48.4460156 56.7933112 48.5129531 56.9092911 48.5929063 56.9672811 48.6338125 57.0159178 48.6765781 57.0477188 48.7249219 57.0813904 48.7732656 57.0982262 48.8253281 57.0982262 48.8866875 57.0982262 48.9461875 57.083261 48.99825 57.0533307 49.042875 57.0103059 49.1098125 56.9373508 49.161875 56.8456892 49.1953438 56.7540277 49.2306719 56.6436597 49.2474063 56.5258091 49.2474063 56.3106851 49.2474063 56.1086555 49.1990625 55.9702279 49.1302656 55.9234618 49.1042344 55.8916608 49.0837813 55.8654718 49.0596094 55.9047553 49.0094063 55.9309443 48.9350313 55.9309443 48.8662344 55.9309443 48.7732656 55.8954021 48.6877344 55.8355415 48.6245156 55.7738102 48.5631563 55.6877606 48.5241094 55.5867459 48.5241094 55.4838604 48.5241094 55.3921989 48.566875 55.3267263 48.6375313 55.2612538 48.7081875 55.2219703 48.8085938 55.2219703 48.9220156 55.2219703 49.0707656 55.2930548 49.2046406 55.412776 49.3236406 55.6409945 49.5560625 56.0469243 49.7103906 56.510844 49.7103906 56.8700076 49.7103906 57.1711813 49.6267188 57.3844347 49.4705313 57.5958174 49.3124844 57.7174093 49.0800625 57.7174093 48.7825625 57.7174093 48.5464219 57.6163945 48.3716406 57.4648724 48.2340469 57.3114796 48.0945938 57.1075794 47.9923281 56.8999379 47.8975 56.725968 47.8175469 56.563222 47.7450313 56.4453714 47.6632188 56.3855108 47.6223125 56.3387447 47.5814063 56.3050731 47.5349219 56.2714015 47.4884375 56.2545657 47.4400938 56.2545657 47.3824531 56.2545657 47.2783281 56.3125557 47.1965156 56.4116998 47.138875 56.5089733 47.0812344 56.6455303 47.0514844 56.7989231 47.0514844 56.9523159 47.0514844 57.0982262 47.0775156 57.2011116 47.1202813 57.251619 47.138875 57.277808 47.1556094 57.3002557 47.1704844 57.2534896 47.2504375 57.2385245 47.3006406 57.2385245 47.362 57.2385245 47.5479375 57.3956585 47.704125 57.5902055 47.704125 57.687479 47.704125 57.7772699 47.6650781 57.8427424 47.5981406 57.908215 47.5274844 57.9493691 47.4307969 57.9493691 47.3136563 57.9493691 47.1723438 57.8857673 47.0310313 57.771658 46.9176094 57.7061854 46.8506719 57.6238771 46.7930313 57.5284743 46.7428281 57.4611311 46.5977969 57.4181063 46.4360313 57.4181063 46.2519531 57.4181063 45.6978594 57.8072002 45.4412656 58.1177271 45.4412656 58.265508 45.4412656 58.4787614 45.4505625 58.6620845 45.4672969 58.8229599 45.4933281 59.0343426 45.5100625 59.2120538 45.5100625L59.2139245 45.5100625 58.2355777 49.6546094 58.8753379 49.6546094 59.0100243 49.042875C59.1185216 49.4352031 59.4851678 49.7103906 59.9266398 49.7103906 60.3662411 49.7103906 60.7703002 49.4947031 61.0621207 49.1488594 61.3558118 48.8030156 61.5372642 48.3251563 61.5372642 47.8008125 61.5372642 47.4382344 61.4362495 47.1332969 61.2454438 46.9176094M64.4818448 55.5387875L64.4799742 55.546225C64.4088897 55.7358812 64.3415466 55.8567406 64.2779447 55.9292562 64.2124721 56.0017719 64.1526115 56.0259437 64.0946216 56.0259437 64.0385022 56.0259437 63.9936068 56.0054906 63.9636765 55.9701625 63.9337462 55.9348344 63.9150397 55.8809125 63.9150397 55.8121156 63.9150397 55.7600531 63.9356168 55.6615062 63.9580645 55.5722562L64.2143428 54.6909125C64.2648502 54.5179906 64.2929098 54.3506469 64.2929098 54.2037562 64.2929098 53.9341469 64.2031189 53.7203187 64.0534674 53.5734281 63.9056865 53.4265375 63.6999157 53.3484437 63.4679558 53.3484437 63.2603144 53.3484437 63.0564142 53.4321156 62.8768323 53.56785 62.710345 53.6942875 62.5625642 53.86535 62.4484549 54.0568656L62.6598377 53.3967875 62.0406545 53.3967875 61.2998795 56.4033969 61.9321572 56.4033969 62.3380869 54.7745844C62.4147833 54.4770844 62.5401164 54.2521 62.689768 54.0996312 62.8431608 53.9490219 63.0190013 53.8727875 63.2023244 53.8727875 63.3370108 53.8727875 63.4473788 53.9136937 63.5259458 53.9899281 63.6026422 54.0643031 63.6475377 54.1702875 63.6475377 54.3004437 63.6475377 54.3971312 63.6344431 54.4863812 63.5989009 54.6035219L63.340752 55.5053187C63.3126924 55.6168812 63.2921153 55.7488969 63.2921153 55.8474437 63.2921153 56.022225 63.3501053 56.1746937 63.4604733 56.2806781 63.5727119 56.3903812 63.7354579 56.4517406 63.9412288 56.4517406 64.1301638 56.4517406 64.2947805 56.3885219 64.4350788 56.2546469 64.5735064 56.1207719 64.685745 55.9199594 64.7661827 55.6484906L64.769924 55.6410531 64.4818448 55.5387875z" mask="url(#soup_s_pure-b)"/>
  </g>
</svg>
