<svg xmlns="http://www.w3.org/2000/svg" width="19" height="19" viewBox="0 0 19 19">
  <path fill="#A5B6F3" fill-rule="evenodd" d="M14.9997,9.51489399 C14.9997,9.71492612 14.910529,9.91254823 14.7104969,10.0234094 L13.2427913,10.8717385 L13.2427913,12.5563464 C13.2427913,12.8792899 12.9921486,13.1540328 12.6643851,13.1540328 C12.3390316,13.1540328 12.0859789,12.8792899 12.0859789,12.5563464 L12.0859789,10.8548683 L8.08774627,8.53883358 L8.08774627,13.170903 L9.5530419,14.0216421 C9.73379383,14.1300932 9.84224499,14.3469955 9.84224499,14.5470277 C9.84224499,14.8362308 9.58919229,15.1061536 9.26383882,15.1061536 C9.15538766,15.1061536 9.0469365,15.0892835 8.95535553,15.0338529 L7.5093401,14.1831138 L6.04404447,15.0338529 C5.9524635,15.0892835 5.84401234,15.1061536 5.73556118,15.1061536 C5.4463581,15.1061536 5.17643522,14.8723811 5.17643522,14.5277475 C5.17643522,14.3277153 5.26560617,14.1300932 5.4656383,14.0216421 L6.91406375,13.170903 L6.91406375,8.53883358 L2.93029126,10.8548683 L2.93029126,12.5563464 C2.93029126,12.8792899 2.66036838,13.1540328 2.33501491,13.1540328 C2.00725141,13.1540328 1.75660874,12.8792899 1.75660874,12.5563464 L1.75660874,10.8717385 L0.288903085,10.0234094 C0.108151157,9.91254823 -0.0003,9.71492612 -0.0003,9.51489399 C-0.0003,9.20882073 0.255162725,8.93648782 0.597386375,8.93648782 C0.688967352,8.93648782 0.780548329,8.95576803 0.86971928,9.00878859 L2.33501491,9.87639785 L6.36939794,7.56036314 L2.33501491,5.22745826 L0.86971928,6.09506751 C0.780548329,6.1504981 0.688967352,6.16736828 0.597386375,6.16736828 C0.30818329,6.16736828 -0.0003,5.93359579 -0.0003,5.58896211 C-0.0003,5.39134001 0.108151157,5.19130787 0.288903085,5.08285672 L1.75660874,4.23452767 L1.75660874,2.5499197 C1.75660874,2.22456623 2.00725141,1.95223332 2.33501491,1.95223332 C2.66036838,1.95223332 2.93029126,2.22456623 2.93029126,2.5499197 L2.93029126,4.24898782 L6.91406375,6.56502253 L6.91406375,1.93295312 L5.4656383,1.08462407 C5.26560617,0.976172911 5.17643522,0.776140778 5.17643522,0.57851867 C5.17643522,0.289315585 5.39333753,0.0001125 5.73556118,0.0001125 C5.84401234,0.0001125 5.9524635,0.0169826799 6.04404447,0.0700032455 L7.5093401,0.923152346 L8.95535553,0.0700032455 C9.0469365,0.0169826799 9.15538766,0.0001125 9.26383882,0.0001125 C9.5530419,0.0001125 9.84224499,0.217014814 9.84224499,0.559238464 C9.84224499,0.759270598 9.73379383,0.976172911 9.5530419,1.08462407 L8.08774627,1.93295312 L8.08774627,6.56502253 L12.0859789,4.24898782 L12.0859789,2.5499197 C12.0859789,2.22456623 12.3390316,1.95223332 12.6643851,1.95223332 C12.9921486,1.95223332 13.2427913,2.22456623 13.2427913,2.5499197 L13.2427913,4.23452767 L14.7104969,5.08285672 C14.910529,5.19130787 14.9997,5.39134001 14.9997,5.58896211 C14.9997,5.8974454 14.7466473,6.16736828 14.4020136,6.16736828 C14.3128427,6.16736828 14.2212617,6.1504981 14.1320907,6.09506751 L12.6643851,5.22745826 L8.63000206,7.56036314 L12.6643851,9.87639785 L14.1320907,9.00878859 C14.2212617,8.95576803 14.3128427,8.93648782 14.4020136,8.93648782 C14.6912167,8.93648782 14.9997,9.17026031 14.9997,9.51489399" transform="translate(2 2)"/>
</svg>
