<svg xmlns="http://www.w3.org/2000/svg" xmlns:xlink="http://www.w3.org/1999/xlink" width="100" height="119" viewBox="0 0 100 119">
  <defs>
    <polygon id="soup_s_icon1-a" points="0 65.658 99.819 65.658 99.819 0 0 0"/>
  </defs>
  <g fill="none" fill-rule="evenodd" transform="translate(0 4)">
    <mask id="soup_s_icon1-b" fill="#fff">
      <use xlink:href="#soup_s_icon1-a"/>
    </mask>
    <path fill="#FFB8AC" d="M97.1560181,34.8566063 C97.121629,35.971991 96.8492308,36.8127149 96.3695928,37.288733 L95.519819,38.1308145 L96.2872398,39.048914 C96.4469683,39.2398643 96.6370136,39.5557014 96.6370136,39.9783258 L96.6370136,61.1538914 C96.6370136,61.9620362 95.9795475,62.6190498 95.1732127,62.6190498 C94.3664253,62.6190498 93.7094118,61.9620362 93.7094118,61.1538914 L93.7094118,39.9783258 C93.7094118,39.571991 93.879095,39.1919005 94.1867873,38.90819 L95.1175566,38.0493665 L94.2845249,37.0946154 C93.7184615,36.4457466 93.4094118,35.5579638 93.3080543,35.229457 C93.2971946,33.3158824 93.199457,16.6023077 93.2329412,12.7249321 C93.2754751,7.55434389 95.9103167,3.05208145 96.9990045,2.77470588 C97.0876923,2.94076923 97.1628054,3.33624434 97.1555656,3.67108597 C97.1569231,3.94167421 97.2845249,30.7787783 97.1560181,34.8566063 L97.1560181,34.8566063 Z M99.759638,3.70954751 C99.7695928,3.41271493 99.7736652,1.88149321 98.8361086,0.910452489 C98.361448,0.419049774 97.738371,0.159321267 97.0352036,0.159321267 C93.6990045,0.159321267 90.6732127,7.17425339 90.6279638,12.7032127 C90.5926697,16.8149774 90.7030769,35.2366968 90.7039819,35.4226697 L90.7428959,35.728552 C90.7772851,35.869276 91.0415385,36.8783258 91.6741176,37.9154299 C91.3053394,38.5366968 91.1044344,39.249819 91.1044344,39.9783258 L91.1044344,61.1538914 C91.1044344,63.3982353 92.9297738,65.2240271 95.1732127,65.2240271 C97.4161991,65.2240271 99.2415385,63.3982353 99.2415385,61.1538914 L99.2415385,39.9783258 C99.2415385,39.3995928 99.1125792,38.8267421 98.8691403,38.2995928 C99.4193665,37.4131674 99.7175566,36.2878281 99.759638,34.9385068 C99.8899548,30.8136199 99.7664253,4.76565611 99.759638,3.70954751 L99.759638,3.70954751 Z M51.821629,45.8208597 C44.6578281,45.8208597 38.8306787,39.9932579 38.8306787,32.8299095 C38.8306787,25.6674661 44.6578281,19.8407692 51.821629,19.8407692 C58.9836199,19.8407692 64.8107692,25.6674661 64.8107692,32.8299095 C64.8107692,39.9932579 58.9836199,45.8208597 51.821629,45.8208597 L51.821629,45.8208597 Z M51.821629,18.1041176 C43.700362,18.1041176 37.0940271,24.71 37.0940271,32.8299095 C37.0940271,40.950724 43.700362,47.5575113 51.821629,47.5575113 C59.941086,47.5575113 66.5469683,40.950724 66.5469683,32.8299095 C66.5469683,24.71 59.941086,18.1041176 51.821629,18.1041176 L51.821629,18.1041176 Z M51.821629,62.1851131 C35.6338462,62.1851131 22.4646154,49.0163348 22.4646154,32.8299095 C22.4646154,16.6425792 35.6338462,3.47334842 51.821629,3.47334842 C68.0080543,3.47334842 81.1768326,16.6425792 81.1768326,32.8299095 C81.1768326,49.0163348 68.0080543,62.1851131 51.821629,62.1851131 L51.821629,62.1851131 Z M51.821629,-0.000407239819 C33.718914,-0.000407239819 18.9913122,14.7276471 18.9913122,32.8299095 C18.9913122,50.9317195 33.718914,65.6584163 51.821629,65.6584163 C69.9225339,65.6584163 84.6496833,50.9317195 84.6496833,32.8299095 C84.6496833,14.7276471 69.9225339,-0.000407239819 51.821629,-0.000407239819 L51.821629,-0.000407239819 Z M13.1858824,16.8828507 C13.1858824,19.0633937 11.8121267,21.0493665 9.76642534,21.8244796 L8.92570136,22.1434842 L8.92570136,61.1538914 C8.92570136,61.9344344 8.44425339,62.6190498 7.89628959,62.6190498 C7.33746606,62.6190498 6.86506787,61.948009 6.86506787,61.1538914 L6.86506787,22.1430317 L6.02434389,21.8240271 C3.97909502,21.048914 2.60488688,19.0633937 2.60488688,16.8828507 L2.60488688,13.0570588 L5.61800905,13.0570588 C5.64515837,13.0584163 5.67049774,13.0647511 5.69809955,13.0647511 C5.72524887,13.0647511 5.75058824,13.0584163 5.77773756,13.0570588 L10.0130317,13.0570588 C10.040181,13.0584163 10.0655204,13.0647511 10.0931222,13.0647511 C10.1202715,13.0647511 10.1460633,13.0584163 10.1732127,13.0570588 L13.1858824,13.0570588 L13.1858824,16.8828507 Z M14.4885973,1.01678733 C13.7691403,1.01678733 13.1858824,1.60004525 13.1858824,2.31950226 L13.1858824,10.451629 L11.3953846,10.451629 L11.3953846,2.31950226 C11.3953846,1.60004525 10.8125792,1.01678733 10.0931222,1.01678733 C9.37366516,1.01678733 8.79040724,1.60004525 8.79040724,2.31950226 L8.79040724,10.451629 L7.00036199,10.451629 L7.00036199,2.31950226 C7.00036199,1.60004525 6.41755656,1.01678733 5.69809955,1.01678733 C4.97819005,1.01678733 4.39538462,1.60004525 4.39538462,2.31950226 L4.39538462,10.451629 L2.60488688,10.451629 L2.60488688,2.31950226 C2.60488688,1.60004525 2.02208145,1.01678733 1.30262443,1.01678733 C0.582714932,1.01678733 -9.04977378e-05,1.60004525 -9.04977378e-05,2.31950226 L-9.04977378e-05,10.451629 L-9.04977378e-05,12.6308145 L-9.04977378e-05,16.8828507 C-9.04977378e-05,19.830362 1.67954751,22.5385068 4.2600905,23.8833032 L4.2600905,61.1538914 C4.2600905,63.3982353 5.89131222,65.2240271 7.89628959,65.2240271 C9.90036199,65.2240271 11.5306787,63.3982353 11.5306787,61.1538914 L11.5306787,23.8837557 C14.1116742,22.5385068 15.7913122,19.830362 15.7913122,16.8828507 L15.7913122,12.6308145 L15.7913122,10.451629 L15.7913122,2.31950226 C15.7913122,1.60004525 15.2080543,1.01678733 14.4885973,1.01678733 L14.4885973,1.01678733 Z" mask="url(#soup_s_icon1-b)"/>
  </g>
</svg>
