<svg xmlns="http://www.w3.org/2000/svg" xmlns:xlink="http://www.w3.org/1999/xlink" width="98" height="98" viewBox="0 0 98 98">
  <defs>
    <polygon id="soup_icon_3-a" points="49 55.317 98 55.317 98 0 0 0 0 55.317"/>
  </defs>
  <g fill="none" fill-rule="evenodd" transform="translate(0 7)">
    <g transform="translate(0 27.502)">
      <mask id="soup_icon_3-b" fill="#fff">
        <use xlink:href="#soup_icon_3-a"/>
      </mask>
      <path fill="#FFB8AC" d="M30.1066208,28.6829268 C31.7930375,25.8781463 34.3349125,21.858439 36.2050792,19.8321951 C38.6305792,17.2056585 40.9907458,16.3902439 51.0418708,16.3902439 C60.7377458,16.3902439 89.2618708,20.4283902 89.5456625,20.4673171 L89.8335375,20.4878049 C92.0834542,20.4878049 93.9168708,22.325561 93.9168708,24.5853659 L93.9168708,28.6829268 L30.1066208,28.6829268 Z M93.9168708,51.2195122 L91.2157458,51.2195122 L87.1324125,40.9756098 L10.8679958,40.9756098 L6.7846625,51.2195122 L4.0835375,51.2195122 L4.0835375,4.09756098 L10.2085375,4.09756098 L10.2085375,32.7804878 L93.9168708,32.7804878 L93.9168708,51.2195122 Z M20.1249125,18.4390244 L22.7504958,18.4390244 C25.5169542,18.4390244 28.4753292,20.0022439 28.5672042,23.4093659 C27.2197042,25.5093659 26.0375792,27.5130732 25.3597458,28.6829268 L14.2918708,28.6829268 L14.2918708,23.5609756 C14.2918708,20.0411707 17.3155792,18.4390244 20.1249125,18.4390244 L20.1249125,18.4390244 Z M89.9866625,16.3922927 C87.5897458,16.0521951 60.7806208,12.2926829 51.0418708,12.2926829 C40.9560375,12.2926829 36.9645792,12.9790244 33.2119958,17.0458537 C32.6689125,17.6338537 32.0849958,18.3611707 31.4888292,19.1581463 C29.8554958,16.2570732 26.6562042,14.3414634 22.7504958,14.3414634 L20.1249125,14.3414634 C17.9015375,14.3414634 15.9109125,14.970439 14.2918708,16.0337561 L14.2918708,0 L0.000204166667,0 L0.000204166667,55.3170732 L9.54907917,55.3170732 L13.6324125,45.0731707 L84.3679958,45.0731707 L88.4513292,55.3170732 L98.0002042,55.3170732 L98.0002042,30.7317073 L98.0002042,28.6829268 L98.0002042,24.5853659 C98.0002042,20.1169756 94.4191208,16.4742439 89.9866625,16.3922927 L89.9866625,16.3922927 Z" mask="url(#soup_icon_3-b)"/>
    </g>
    <polygon fill="#FFB8AC" points="82.711 25.37 68.842 23.556 84.52 6.92 85.11 2.386 66.844 0 66.317 4.062 79.918 5.841 64.555 22.143 63.918 27.043 82.185 29.43"/>
    <polygon fill="#FFB8AC" points="58.612 32.686 46.962 31.304 60.223 16.899 60.729 12.59 44.478 10.662 44 14.731 55.413 16.085 42.426 30.193 41.883 34.827 58.134 36.755"/>
    <polygon fill="#FFB8AC" points="30.119 13.845 25.104 26.079 26.078 30.108 38.296 27.138 37.334 23.157 29.986 24.943 35.113 12.438 34.192 8.639 21.979 11.61 22.938 15.593"/>
  </g>
</svg>
