<svg xmlns="http://www.w3.org/2000/svg" xmlns:xlink="http://www.w3.org/1999/xlink" width="180" height="135" viewBox="0 0 180 135">
  <defs>
    <polygon id="soup_icon_6-a" points="0 134.664 179.633 134.664 179.633 0 0 0"/>
  </defs>
  <g fill="none" fill-rule="evenodd">
    <path fill="#FFB8AC" d="M67.7490833,124.334331 C62.4549167,124.334331 58.14825,120.036261 58.14825,114.752661 L58.14825,47.0414172 C58.14825,44.0623752 60.0415833,42.5678643 61.8015833,42.0755156 L61.8015833,39.6944444 L61.6165833,39.6944444 C59.7040833,39.6944444 58.14825,38.1417166 58.14825,36.2330339 L58.14825,32.1536926 C58.14825,30.24501 59.7040833,28.6922821 61.6165833,28.6922821 L119.547417,28.6922821 C121.459917,28.6922821 123.014917,30.24501 123.014917,32.1536926 L123.014917,36.2330339 C123.014917,38.1417166 121.459917,39.6944444 119.547417,39.6944444 L119.362417,39.6944444 L119.362417,42.0755156 C121.122417,42.5678643 123.014917,44.0623752 123.014917,47.0414172 L123.014917,114.752661 C123.014917,120.036261 118.70825,124.334331 113.414917,124.334331 L67.7490833,124.334331 Z"/>
    <path fill="#FFB8AC" d="M119.547583,27.4447771 L61.6159167,27.4447771 C59.01425,27.4447771 56.8984167,29.5572189 56.8984167,32.1536926 L56.8984167,36.2330339 C56.8984167,38.4644045 58.4609167,40.338157 60.55175,40.8213573 L60.55175,41.2005988 C58.65675,42.0339321 56.8984167,43.8527944 56.8984167,47.0414172 L56.8984167,114.752661 C56.8984167,120.724052 61.7659167,125.581836 67.7484167,125.581836 L90.45175,125.581836 L90.71175,125.581836 L113.415083,125.581836 C119.397583,125.581836 124.265083,120.724052 124.265083,114.752661 L124.265083,47.0414172 C124.265083,43.8527944 122.507583,42.0339321 120.61175,41.2005988 L120.61175,40.8213573 C122.702583,40.338157 124.265083,38.4644045 124.265083,36.2330339 L124.265083,32.1536926 C124.265083,29.5572189 122.14925,27.4447771 119.547583,27.4447771 M119.547583,29.9397871 C120.772583,29.9397871 121.765083,30.9311377 121.765083,32.1536926 L121.765083,36.2330339 C121.765083,37.4564205 120.772583,38.4469395 119.547583,38.4469395 L118.11175,38.4469395 L118.11175,43.1350632 C118.11175,43.1350632 121.765083,43.2215569 121.765083,47.0414172 L121.765083,114.752661 C121.765083,119.355955 118.02675,123.086826 113.415083,123.086826 L90.71175,123.086826 L90.45175,123.086826 L67.7484167,123.086826 C63.1375833,123.086826 59.3984167,119.355955 59.3984167,114.752661 L59.3984167,47.0414172 C59.3984167,43.2215569 63.05175,43.1350632 63.05175,43.1350632 L63.05175,38.4469395 L61.6159167,38.4469395 C60.39175,38.4469395 59.3984167,37.4564205 59.3984167,36.2330339 L59.3984167,32.1536926 C59.3984167,30.9311377 60.39175,29.9397871 61.6159167,29.9397871 L119.547583,29.9397871"/>
    <mask id="soup_icon_6-b" fill="#fff">
      <use xlink:href="#soup_icon_6-a"/>
    </mask>
    <polygon fill="#FFF" points="59.398 112.236 121.765 112.236 121.765 54.073 59.398 54.073" mask="url(#soup_icon_6-b)"/>
    <polygon fill="#B4B5B5" points="62.517 109.327 118.647 109.327 118.647 56.981 62.517 56.981" mask="url(#soup_icon_6-b)"/>
    <path fill="#FFB8AC" d="M62.5163333,57.0673653 C77.4671667,57.0673653 89.5871667,68.7656354 89.5871667,83.1976048 C89.5871667,97.6287425 77.4671667,109.327013 62.5163333,109.327013 L62.5163333,57.0673653 Z" mask="url(#soup_icon_6-b)"/>
    <path fill="#A5B6F3" d="M62.5163333,109.327345 C62.5163333,94.3464737 75.0988333,82.2015968 90.6188333,82.2015968 C106.139667,82.2015968 118.7205,94.3464737 118.7205,109.327345 L62.5163333,109.327345 Z" mask="url(#soup_icon_6-b)"/>
    <path fill="#FFF" d="M78.383 105.32169C78.1971667 105.545409 77.9405 105.683466 77.6571667 105.683466 77.448 105.683466 77.263 105.611111 77.1296667 105.476381 76.9971667 105.340818 76.9163333 105.142881 76.9163333 104.889222 76.9163333 104.548237 77.0313333 104.240519 77.218 104.018463 77.403 103.796407 77.6605 103.660013 77.9438333 103.660013 78.153 103.660013 78.3371667 103.732369 78.4705 103.867099 78.6038333 104.000998 78.6838333 104.197272 78.6846667 104.447605 78.6846667 104.788589 78.5696667 105.097971 78.383 105.32169M77.9705 103.141051C77.488 103.141051 77.0705 103.353127 76.773 103.677478 76.4771667 104.00183 76.3005 104.438456 76.3005 104.889222 76.3005 105.237691 76.4205 105.564538 76.6471667 105.804059 76.873 106.04358 77.2063333 106.195775 77.6305 106.195775 78.113 106.195775 78.5305 105.983699 78.8271667 105.66018 79.1238333 105.33666 79.3005 104.901697 79.3005 104.454258 79.3005 104.102462 79.1805 103.773952 78.9538333 103.533599 78.7271667 103.293247 78.3955 103.141051 77.9705 103.141051M81.8530833 105.32169C81.66725 105.545409 81.4114167 105.683466 81.12725 105.683466 80.9180833 105.683466 80.7330833 105.611111 80.6005833 105.476381 80.46725 105.340818 80.3864167 105.142881 80.3864167 104.889222 80.3864167 104.548237 80.5014167 104.240519 80.6880833 104.018463 80.8730833 103.796407 81.1305833 103.660013 81.4139167 103.660013 81.6230833 103.660013 81.80725 103.732369 81.9405833 103.867099 82.0739167 104.000998 82.15475 104.197272 82.15475 104.447605 82.15475 104.788589 82.03975 105.097971 81.8530833 105.32169M81.4405833 103.141051C80.9580833 103.141051 80.5405833 103.353127 80.2430833 103.677478 79.94725 104.00183 79.7705833 104.438456 79.7705833 104.889222 79.7705833 105.237691 79.8914167 105.564538 80.11725 105.804059 80.3430833 106.04358 80.6764167 106.195775 81.1005833 106.195775 81.5830833 106.195775 82.0005833 105.983699 82.29725 105.66018 82.5939167 105.33666 82.7705833 104.901697 82.7705833 104.454258 82.7705833 104.102462 82.6505833 103.773952 82.42475 103.533599 82.1980833 103.293247 81.8655833 103.141051 81.4405833 103.141051M86.26225 105.293663L86.25975 105.301148C86.19225 105.487442 86.1255833 105.605539 86.0630833 105.677063 86.0005833 105.747754 85.9414167 105.771873 85.8864167 105.771873 85.82975 105.771873 85.78725 105.752745 85.75725 105.716983 85.7264167 105.681221 85.7105833 105.628826 85.7105833 105.562292 85.7105833 105.509897 85.72975 105.415086 85.7514167 105.326929L86.00225 104.462824C86.0505833 104.293164 86.0780833 104.129325 86.0780833 103.985446 86.0780833 103.721806 85.9905833 103.512226 85.8455833 103.369178 85.7005833 103.225299 85.49975 103.147954 85.2730833 103.147954 85.06975 103.147954 84.87225 103.230289 84.6964167 103.364188 84.53475 103.487275 84.3905833 103.654441 84.27725 103.840735L84.48475 103.195359 83.8814167 103.195359 83.1580833 106.141966 83.77475 106.141966 84.1705833 104.54516C84.2455833 104.254075 84.36725 104.032019 84.51475 103.883982 84.6630833 103.735113 84.8355833 103.660263 85.0139167 103.660263 85.1455833 103.660263 85.2539167 103.701846 85.32975 103.775033 85.4055833 103.84822 85.4480833 103.953011 85.4480833 104.081088 85.4480833 104.175067 85.4355833 104.262392 85.4014167 104.377162L85.4014167 104.377162 85.14975 105.261228C85.12225 105.371008 85.1014167 105.499917 85.1014167 105.596391 85.1014167 105.767715 85.1589167 105.916583 85.2664167 106.021374 85.37475 106.126996 85.5339167 106.189371 85.7364167 106.189371 85.9189167 106.189371 86.0805833 106.125333 86.2164167 105.99476 86.35225 105.864188 86.46225 105.667914 86.5405833 105.40178L86.5430833 105.394295 86.26225 105.293663zM74.8860833 105.278609C74.7044167 105.50815 74.4519167 105.657851 74.1660833 105.657851 73.94025 105.657851 73.7660833 105.587159 73.6485833 105.464904 73.53025 105.341816 73.46775 105.166334 73.46775 104.953426 73.46775 104.630739 73.5894167 104.309714 73.78275 104.071025 73.9760833 103.831504 74.2410833 103.673486 74.5260833 103.673486 74.7344167 103.674318 74.8969167 103.750832 75.00775 103.882236 75.11775 104.013639 75.1769167 104.199102 75.1769167 104.418663 75.1769167 104.738856 75.0669167 105.049069 74.8860833 105.278609M75.5210833 103.477212C75.33525 103.268463 75.0644167 103.149534 74.7235833 103.149534 74.5235833 103.149534 74.33275 103.219395 74.16275 103.330007 74.0035833 103.433965 73.87275 103.572023 73.76275 103.722555L74.2994167 101.55855C74.12775 101.675815 73.9785833 101.763972 73.7469167 101.763972 73.5210833 101.763972 73.28775 101.722389 73.11025 101.672488 72.9319167 101.639222 72.7194167 101.597638 72.5135833 101.597638 71.7810833 101.597638 71.47275 102.179807 71.47275 102.654691 71.47275 102.855123 71.51775 103.026447 71.5910833 103.190286 71.4744167 103.163673 71.3485833 103.149534 71.21525 103.149534 70.8494167 103.149534 70.56525 103.250998 70.3735833 103.413174 70.1810833 103.574518 70.0785833 103.795742 70.0785833 104.031936 70.0785833 104.26813 70.1794167 104.438623 70.3294167 104.57169 70.48025 104.705589 70.6810833 104.802063 70.88525 104.893546 71.0485833 104.96507 71.20275 105.030772 71.31525 105.108949 71.3719167 105.148037 71.41775 105.189621 71.4494167 105.237026 71.4810833 105.283599 71.4994167 105.335163 71.4994167 105.395043 71.4994167 105.452428 71.48275 105.50316 71.45525 105.546407 71.41275 105.611277 71.3419167 105.661178 71.2535833 105.695276 71.1635833 105.729375 71.0569167 105.746008 70.9435833 105.746008 70.7344167 105.746008 70.53775 105.698603 70.4035833 105.631238 70.3585833 105.606287 70.3269167 105.587159 70.3019167 105.563041 70.3410833 105.513972 70.3669167 105.441617 70.3669167 105.374251 70.3669167 105.283599 70.3319167 105.200432 70.27275 105.139721 70.2144167 105.079009 70.13025 105.040752 70.03275 105.040752 69.9319167 105.040752 69.84275 105.082335 69.7794167 105.152196 69.7160833 105.221224 69.6785833 105.317698 69.6785833 105.42831 69.6785833 105.573021 69.74775 105.704424 69.8644167 105.820027L69.8644167 105.820858C70.0835833 106.046241 70.4794167 106.195941 70.9294167 106.195941 71.2769167 106.195941 71.5694167 106.116101 71.77525 105.963074 71.9810833 105.810047 72.0985833 105.583001 72.0985833 105.292748 72.0985833 105.063207 72.0010833 104.892715 71.85275 104.757984 71.70525 104.623253 71.5069167 104.522621 71.3060833 104.431138 71.1369167 104.353792 70.9794167 104.282269 70.8644167 104.20326 70.8069167 104.164172 70.7610833 104.122588 70.7294167 104.077678 70.6969167 104.032768 70.6794167 103.984531 70.6794167 103.930472 70.6794167 103.828177 70.7369167 103.748337 70.8319167 103.692615 70.9269167 103.636061 71.0594167 103.606121 71.20775 103.606121 71.3569167 103.606121 71.4985833 103.632735 71.5994167 103.673486 71.6469167 103.691783 71.6735833 103.709248 71.6935833 103.722555 71.6485833 103.800732 71.6344167 103.848969 71.63525 103.909681 71.63525 104.090985 71.78775 104.24318 71.9760833 104.24318 72.0694167 104.24318 72.1569167 104.204923 72.22025 104.13839 72.2835833 104.071025 72.3235833 103.976214 72.3235833 103.862275 72.3235833 103.724218 72.2610833 103.586993 72.1510833 103.477212 72.08775 103.41151 72.00775 103.354125 71.91525 103.305888 71.85025 103.164504 71.8085833 103.007319 71.8085833 102.829341 71.8085833 102.288756 72.18525 102.038423 72.4869167 102.038423 72.63025 102.038423 72.8360833 102.047572 73.0144167 102.064205 73.1710833 102.089155 73.3769167 102.105788 73.5485833 102.105788L73.5494167 102.105788 72.60025 106.141883 73.2219167 106.141883 73.3519167 105.546407C73.4585833 105.928975 73.8135833 106.195941 74.2410833 106.195941 74.66775 106.195941 75.0594167 105.986361 75.3435833 105.648703 75.62775 105.311876 75.8044167 104.846973 75.8044167 104.337159 75.8044167 103.982868 75.70525 103.685961 75.5210833 103.477212" mask="url(#soup_icon_6-b)"/>
    <polygon fill="#FFF" points="100.489 72.474 102.007 72.474 101.872 73.059 100.353 73.059" mask="url(#soup_icon_6-b)"/>
    <path fill="#FFF" d="M113.11525,70.2132402 L112.921083,70.2132402 C112.921083,72.4096806 112.029417,74.3965403 110.58775,75.836161 C109.144417,77.2749501 107.154417,78.164837 104.953583,78.164837 C102.751917,78.164837 100.761917,77.2749501 99.3194167,75.836161 C97.87775,74.3965403 96.9860833,72.4096806 96.9860833,70.2132402 C96.9860833,68.0167997 97.87775,66.0307718 99.3194167,64.591151 C100.761917,63.1515303 102.751917,62.2616434 104.953583,62.2616434 C107.154417,62.2616434 109.144417,63.1515303 110.58775,64.591151 C112.029417,66.0307718 112.921083,68.0167997 112.921083,70.2132402 L113.11525,70.2132402 L113.309417,70.2132402 C113.309417,67.9111776 112.374417,65.8245176 110.86275,64.3158683 C109.35025,62.8072189 107.261083,61.8732535 104.953583,61.8732535 C102.646917,61.8732535 100.556083,62.8072189 99.0444167,64.3158683 C97.53275,65.8245176 96.5969167,67.9111776 96.5969167,70.2132402 C96.5969167,72.5161344 97.53275,74.6019627 99.0444167,76.1106121 C100.556083,77.6192615 102.646917,78.5532269 104.953583,78.5532269 C107.261083,78.5532269 109.35025,77.6192615 110.86275,76.1106121 C112.374417,74.6019627 113.309417,72.5161344 113.309417,70.2132402 L113.11525,70.2132402 Z" mask="url(#soup_icon_6-b)"/>
    <path fill="#FFF" d="M106.643083 67.9793746C106.49475 68.167332 106.288917 68.2895875 106.055583 68.2895875 105.871417 68.2895875 105.728917 68.2313706 105.63225 68.1315702 105.536417 68.0309381 105.485583 67.8878909 105.48475 67.7149035 105.48475 67.4504325 105.58475 67.1884564 105.74225 66.993014 105.89975 66.7984032 106.116417 66.6694943 106.348917 66.6694943 106.520583 66.6694943 106.65225 66.7318696 106.74225 66.839155 106.833083 66.9464405 106.880583 67.0986361 106.880583 67.2774451 106.881417 67.5385895 106.791417 67.7914172 106.643083 67.9793746M107.161417 66.508982C107.010583 66.3384897 106.78975 66.2411843 106.510583 66.2411843 106.348083 66.2411843 106.191417 66.2985695 106.053083 66.3883899 105.923917 66.4732202 105.816417 66.5863273 105.726417 66.7094145L106.16475 64.9421158C106.02475 65.0377578 105.903083 65.1101131 105.713917 65.1101131 105.528917 65.1101131 105.338917 65.0760146 105.193917 65.0352628 105.048083 65.0078177 104.87475 64.9745509 104.70725 64.9745509 104.108083 64.9745509 103.856417 65.4494345 103.856417 65.8369927 103.856417 66.0008317 103.893083 66.1405522 103.953083 66.2744511 103.858083 66.2528277 103.75475 66.2411843 103.645583 66.2411843 103.348083 66.2411843 103.116417 66.3243513 102.958917 66.4565868 102.801417 66.5879907 102.718917 66.7684631 102.718917 66.9614105 102.718083 67.154358 102.800583 67.2940785 102.923083 67.4021956 103.046417 67.5111444 103.210583 67.590153 103.37725 67.6650033 103.50975 67.7232202 103.636417 67.7772788 103.728083 67.8404857 103.77475 67.8729208 103.81225 67.9070193 103.83725 67.9452761 103.863083 67.9835329 103.878083 68.0259481 103.878083 68.074185 103.878083 68.1215902 103.86475 68.162342 103.84225 68.1981038 103.808083 68.2513307 103.74975 68.2920825 103.676417 68.3195276 103.60475 68.3469727 103.51725 68.3611111 103.423917 68.3611111 103.253083 68.3611111 103.093083 68.3228543 102.983083 68.2679641 102.946417 68.2471723 102.920583 68.2313706 102.900583 68.2122422 102.933083 68.1714904 102.953083 68.1124418 102.953083 68.0575516 102.953083 67.9835329 102.92475 67.9161677 102.876417 67.8662675 102.828917 67.8163673 102.760583 67.7855955 102.680583 67.7855955 102.598083 67.7855955 102.526417 67.8196939 102.473917 67.8762475 102.423083 67.9328011 102.390583 68.0118097 102.390583 68.1016301 102.390583 68.2205589 102.448083 68.3270126 102.543083 68.421823 102.72225 68.6064538 103.045583 68.7278776 103.413083 68.7287092 103.69725 68.7287092 103.935583 68.6630073 104.103083 68.5382568 104.270583 68.4135063 104.368083 68.2280439 104.368083 67.991018 104.368083 67.8038922 104.288083 67.6650033 104.166417 67.5543912 104.046417 67.4446108 103.883917 67.3622754 103.720583 67.2874251 103.58225 67.2242182 103.453083 67.1660013 103.35975 67.1011311 103.313083 67.0695276 103.27475 67.0354291 103.248917 66.9988357 103.223083 66.9622422 103.208917 66.922322 103.208917 66.8782435 103.208917 66.7959082 103.255583 66.7302063 103.333083 66.6844644 103.410583 66.6387226 103.518917 66.6137725 103.63975 66.6137725 103.761417 66.6137725 103.87725 66.6362275 103.958917 66.6686627L103.95975 66.6686627C103.998917 66.6836327 104.020583 66.6977711 104.036417 66.7094145 103.99975 66.7726214 103.988083 66.8125416 103.988083 66.8616101 103.988083 67.0096474 104.113917 67.1343979 104.266417 67.1343979 104.343917 67.1343979 104.41475 67.1027944 104.46725 67.0487359 104.518083 66.9938456 104.550583 66.9165003 104.550583 66.8233533 104.550583 66.7110778 104.500583 66.5979707 104.410583 66.5081504L104.40975 66.5081504C104.358917 66.4549235 104.293917 66.40835 104.218083 66.3684298 104.16475 66.2536593 104.130583 66.1247505 104.130583 65.9800399 104.130583 65.5375915 104.438083 65.3338323 104.683917 65.3338323 104.801417 65.3338323 104.96975 65.3413174 105.11475 65.3546241 105.243083 65.3754158 105.411417 65.3887226 105.550583 65.3887226L105.55225 65.3887226 104.77725 68.6846307 105.28475 68.6846307 105.390583 68.1989355C105.478083 68.5108117 105.76725 68.7287092 106.116417 68.7287092 106.465583 68.7287092 106.78475 68.5573852 107.016417 68.2821025 107.248917 68.0068197 107.393083 67.6275782 107.393083 67.2109115 107.393083 66.9214904 107.313083 66.6794744 107.161417 66.508982M109.725 73.3632735L109.7225 73.3690951C109.6675 73.5204591 109.613333 73.6169328 109.563333 73.674318 109.511667 73.7317033 109.464167 73.7516633 109.419167 73.7516633 109.373333 73.7516633 109.338333 73.7358616 109.314167 73.7067532 109.290833 73.6776447 109.276667 73.6352295 109.276667 73.581171 109.276667 73.5387558 109.2925 73.4614105 109.309167 73.3898869L109.514167 72.6896208C109.5525 72.5507319 109.575 72.4184963 109.575 72.3012309 109.575 72.0874917 109.503333 71.917831 109.386667 71.8013972 109.269167 71.6841317 109.105833 71.6217565 108.921667 71.6217565 108.756667 71.6217565 108.596667 71.6891218 108.454167 71.7972389 108.321667 71.8970393 108.205833 72.0326015 108.113333 72.1847971L108.2825 71.660845 107.7925 71.660845 107.205833 74.0510645 107.705 74.0510645 108.026667 72.7553227C108.0875 72.5191284 108.186667 72.3394877 108.306667 72.2197272 108.425833 72.0983034 108.566667 72.0375915 108.711667 72.0375915 108.818333 72.0375915 108.906667 72.07169 108.9675 72.1315702 109.029167 72.1906188 109.064167 72.2754491 109.064167 72.3785762 109.064167 72.4550898 109.053333 72.5266134 109.025833 72.6197605L108.821667 73.33666 108.821667 73.3374917C108.799167 73.4256487 108.7825 73.5312708 108.7825 73.6086161 108.7825 73.7483367 108.829167 73.8689288 108.915833 73.9537591 109.004167 74.0394212 109.133333 74.090153 109.2975 74.090153 109.445833 74.090153 109.5775 74.0385895 109.6875 73.9321357 109.798333 73.8265136 109.886667 73.666833 109.950833 73.4505988L109.951667 73.4447771 109.725 73.3632735z" mask="url(#soup_icon_6-b)"/>
    <path fill="#EEE" d="M22.2526667,52.4086826 L3.281,52.4086826 C-0.794833333,52.4086826 -0.862333333,56.1212575 1.91766667,60.3195276 C8.0985,69.6467066 22.2526667,75.4509315 22.2526667,75.4509315 L22.2526667,52.4086826 Z M153.195167,52.4086826 L26.4943333,52.4086826 L26.4943333,116.732535 C26.4943333,126.633566 36.2993333,134.664172 48.3926667,134.664172 L131.296,134.664172 C143.390167,134.664172 153.195167,126.633566 153.195167,116.732535 L153.195167,52.4086826 Z M176.3535,52.4086826 L157.380167,52.4086826 L157.380167,75.4509315 C157.380167,75.4509315 171.535167,69.6467066 177.715167,60.3195276 C180.496,56.1212575 180.429333,52.4086826 176.3535,52.4086826 L176.3535,52.4086826 Z M18.9193333,55.7353626 L18.9193333,70.1315702 C14.546,67.7721224 8.141,63.6819694 4.6985,58.4856953 C3.866,57.2282102 3.51933333,56.2934132 3.3935,55.7353626 L18.9193333,55.7353626 L18.9193333,55.7353626 Z M149.861833,55.7353626 L149.861833,116.732535 C149.861833,124.785595 141.5335,131.337492 131.296,131.337492 L48.3926667,131.337492 C38.156,131.337492 29.8276667,124.785595 29.8276667,116.732535 L29.8276667,55.7353626 L149.861833,55.7353626 L149.861833,55.7353626 Z M176.239333,55.7353626 C176.1135,56.2934132 175.766833,57.2282102 174.934333,58.4848636 C171.491,63.6811377 165.086,67.7721224 160.7135,70.1315702 L160.7135,55.7353626 L176.239333,55.7353626 L176.239333,55.7353626 Z M3.33766667,55.1922821 L3.34183333,55.1922821 L3.33766667,55.1922821 L3.33766667,55.1922821 Z" mask="url(#soup_icon_6-b)"/>
    <path fill="#EEE" d="M108.948583,67.6170991 L107.281917,67.6170991 L72.3510833,67.6170991 L70.6844167,67.6170991 L70.6844167,69.2804391 L70.6844167,118.297405 L70.6844167,119.960745 L72.3510833,119.960745 L107.281917,119.960745 L108.948583,119.960745 L108.948583,118.297405 L108.948583,69.2804391 L108.948583,67.6170991 Z M72.3510833,118.297405 L107.281917,118.297405 L107.281917,69.2804391 L72.3510833,69.2804391 L72.3510833,118.297405 Z" mask="url(#soup_icon_6-b)"/>
    <path fill="#EEE" d="M93.5775 111.906354C93.5775 113.978044 91.8925 115.658849 89.8158333 115.658849 87.7408333 115.658849 86.0558333 113.978044 86.0558333 111.906354 86.0558333 109.834664 87.7408333 108.153859 89.8158333 108.153859 91.8925 108.153859 93.5775 109.834664 93.5775 111.906354M79.5735833 108.154108C77.49775 108.154108 75.81275 109.834914 75.81275 111.906603 75.81275 113.977462 77.49775 115.658267 79.5735833 115.658267 81.6485833 115.658267 83.3344167 113.977462 83.3344167 111.906603 83.3344167 109.834914 81.6485833 108.154108 79.5735833 108.154108" mask="url(#soup_icon_6-b)"/>
    <polygon fill="#EEE" points="78.155 88.721 101.478 88.721 101.478 73.659 78.155 73.659" mask="url(#soup_icon_6-b)"/>
    <path fill="#EEE" d="M89.8160833 97.1726547C87.7410833 97.1726547 86.05525 98.8534597 86.05525 100.92515 86.05525 102.996008 87.7410833 104.678476 89.8160833 104.678476 91.8919167 104.678476 93.57775 102.996008 93.57775 100.92515 93.57775 98.8534597 91.8919167 97.1726547 89.8160833 97.1726547M100.057833 108.154108C97.9836667 108.154108 96.2978333 109.834914 96.2978333 111.906603 96.2978333 113.977462 97.9836667 115.658267 100.057833 115.658267 102.135333 115.658267 103.818667 113.977462 103.818667 111.906603 103.818667 109.834914 102.135333 108.154108 100.057833 108.154108M28.2601667 43.0970559L151.372667 43.0970559C149.536833 31.1143546 128.026833 20.8340818 99.906 18.8231038L98.3576667 18.7124917 98.3576667 15.6985196 92.6985 15.6985196 92.6985 9.62816035 102.486 9.62816035C101.207667 6.07692947 95.951 3.32659681 89.8768333 3.32659681 83.8026667 3.32659681 78.5468333 6.07692947 77.2685 9.62816035L86.9343333 9.62816035 86.9343333 15.6985196 81.2751667 15.6985196 81.2751667 18.7124917 79.7276667 18.8231038C51.6068333 20.8340818 30.096 31.1143546 28.2601667 43.0970559L28.2601667 43.0970559zM154.834333 46.4237359L24.7993333 46.4237359 24.7993333 44.7603959C24.7993333 30.3151198 47.0543333 18.1744012 77.9418333 15.624501L77.9418333 12.9548403 73.6385 12.9548403 73.6385 11.2915003C73.6385 4.95999667 80.7718333-.0000831669995 89.8768333-.0000831669995 98.9826667-.0000831669995 106.116 4.95999667 106.116 11.2915003L106.116 12.9548403 101.691 12.9548403 101.691 15.624501C132.579333 18.1744012 154.834333 30.3151198 154.834333 44.7603959L154.834333 46.4237359z" mask="url(#soup_icon_6-b)"/>
  </g>
</svg>
