<svg xmlns="http://www.w3.org/2000/svg" xmlns:xlink="http://www.w3.org/1999/xlink" width="80" height="80" viewBox="0 0 80 80">
  <defs>
    <polygon id="soup_icon_11-a" points=".096 73 42.379 73 42.379 36.553 42.379 .105 .096 .105"/>
    <polygon id="soup_icon_11-c" points="0 .231 0 66.233 34.261 66.233 34.261 .231 0 .231"/>
  </defs>
  <g fill="none" fill-rule="evenodd" transform="translate(5 6)">
    <path fill="#FFB8AC" d="M34.1484 41.2096L37.5834 41.3906C37.8854 40.7066 38.2704 40.0606 38.7314 39.4666L37.5214 36.4786C37.2614 35.8366 36.7704 35.6816 36.3654 36.0686L37.2364 38.2766 36.1124 36.3856 35.5104 37.2306 36.7514 38.9216 35.3134 37.5066 34.9744 37.9826 36.5364 39.2976 34.7844 38.2496 34.3874 38.8066 36.2164 39.7146 34.1874 39.0856 33.5854 39.9326 35.7634 40.3836 33.3714 40.2786C33.1614 40.7746 33.4694 41.1736 34.1484 41.2096M26.9111 57.277C26.6511 56.635 26.1601 56.481 25.7551 56.867L26.6261 59.075 25.5031 57.185 24.9011 58.029 26.1411 59.721 24.7041 58.305 24.3641 58.781 25.9271 60.096 24.1751 59.048 23.7771 59.605 25.6061 60.513 23.5781 59.884 22.9741 60.731 25.1541 61.182 22.7621 61.077C22.5521 61.574 22.8601 61.973 23.5381 62.008L26.9731 62.189C27.2751 61.506 27.6611 60.859 28.1211 60.266L26.9111 57.277zM43.876 20.1505L47.311 20.3315C47.613 19.6475 47.999 19.0015 48.459 18.4075L47.249 15.4195C46.989 14.7775 46.498 14.6225 46.093 15.0095L46.964 17.2175 45.841 15.3265 45.239 16.1715 46.48 17.8625 45.042 16.4475 44.702 16.9235 46.265 18.2375 44.513 17.1905 44.115 17.7465 45.944 18.6555 43.916 18.0265 43.313 18.8735 45.492 19.3245 43.1 19.2195C42.89 19.7155 43.198 20.1145 43.876 20.1505"/>
    <g transform="translate(27 .895)">
      <mask id="soup_icon_11-b" fill="#fff">
        <use xlink:href="#soup_icon_11-a"/>
      </mask>
      <path fill="#FFB8AC" d="M31.208,3.1413 C31.455,3.1253 31.749,3.1173 32.082,3.1223 C32.446,3.1303 32.856,3.1553 33.301,3.2153 C33.412,3.2283 33.524,3.2473 33.64,3.2653 C33.754,3.2863 33.871,3.3053 33.989,3.3313 C34.107,3.3543 34.227,3.3833 34.349,3.4123 C34.409,3.4263 34.47,3.4433 34.53,3.4593 C34.562,3.4673 34.592,3.4753 34.623,3.4833 C34.653,3.4923 34.684,3.5013 34.715,3.5103 C35.207,3.6523 35.715,3.8473 36.213,4.1023 C36.274,4.1353 36.337,4.1673 36.398,4.2013 C36.461,4.2353 36.521,4.2713 36.583,4.3063 C36.613,4.3243 36.645,4.3413 36.676,4.3603 C36.706,4.3783 36.735,4.3973 36.766,4.4163 C36.826,4.4553 36.888,4.4923 36.947,4.5333 C36.981,4.5563 37.015,4.5793 37.049,4.6023 L36,6.0713 L34.345,9.4083 C33.501,7.2053 32.253,4.9043 31.208,3.1413 L31.208,3.1413 Z M28.849,20.4833 C28.829,20.4153 28.81,20.3473 28.793,20.2773 C28.819,20.3293 28.847,20.3803 28.875,20.4313 L28.849,20.4833 Z M32.176,8.4083 C31.685,8.5273 31.19,8.2253 31.071,7.7343 C30.952,7.2433 31.254,6.7483 31.745,6.6293 C32.236,6.5103 32.73,6.8113 32.85,7.3033 C32.969,7.7943 32.667,8.2883 32.176,8.4083 L32.176,8.4083 Z M31.074,2.9173 C30.953,2.7143 30.836,2.5203 30.722,2.3343 C30.824,2.3093 30.943,2.2823 31.078,2.2543 C31.334,2.2013 31.646,2.1483 32.008,2.1053 C32.369,2.0643 32.779,2.0333 33.228,2.0333 C33.34,2.0313 33.454,2.0353 33.57,2.0373 C33.687,2.0423 33.806,2.0463 33.926,2.0553 C34.046,2.0623 34.168,2.0753 34.292,2.0873 C34.354,2.0933 34.416,2.1013 34.479,2.1093 L34.573,2.1213 C34.605,2.1263 34.637,2.1303 34.668,2.1353 C35.176,2.2103 35.705,2.3343 36.232,2.5203 C36.298,2.5443 36.364,2.5693 36.431,2.5933 C36.496,2.6183 36.562,2.6463 36.627,2.6733 C36.66,2.6863 36.693,2.6993 36.726,2.7133 C36.758,2.7283 36.791,2.7433 36.823,2.7583 C36.888,2.7873 36.954,2.8163 37.019,2.8483 C37.083,2.8803 37.147,2.9123 37.212,2.9453 L37.261,2.9703 L37.309,2.9963 L37.403,3.0493 C37.532,3.1183 37.655,3.1973 37.781,3.2733 C37.83,3.3063 37.879,3.3383 37.928,3.3713 L37.138,4.4773 C37.104,4.4533 37.068,4.4283 37.034,4.4043 C36.974,4.3623 36.911,4.3243 36.851,4.2843 C36.819,4.2643 36.789,4.2443 36.758,4.2243 C36.728,4.2053 36.696,4.1873 36.665,4.1683 C36.603,4.1313 36.541,4.0943 36.479,4.0583 C36.415,4.0243 36.352,3.9903 36.289,3.9553 C35.784,3.6883 35.269,3.4833 34.768,3.3323 C34.736,3.3223 34.705,3.3123 34.674,3.3033 C34.643,3.2943 34.611,3.2863 34.58,3.2773 C34.519,3.2603 34.457,3.2423 34.396,3.2263 C34.271,3.1963 34.15,3.1653 34.029,3.1403 C33.91,3.1123 33.79,3.0913 33.674,3.0683 C33.557,3.0493 33.442,3.0273 33.329,3.0123 C32.877,2.9453 32.459,2.9153 32.088,2.9023 C31.717,2.8913 31.394,2.8983 31.127,2.9143 L31.074,2.9173 Z M21.479,24.2003 C21.728,24.1843 22.02,24.1763 22.354,24.1823 C22.718,24.1893 23.128,24.2143 23.572,24.2743 C23.684,24.2873 23.796,24.3073 23.911,24.3243 C24.025,24.3453 24.143,24.3653 24.261,24.3903 C24.38,24.4133 24.499,24.4423 24.62,24.4713 C24.681,24.4853 24.741,24.5023 24.803,24.5183 C24.833,24.5263 24.863,24.5343 24.895,24.5423 C24.925,24.5513 24.955,24.5603 24.986,24.5693 C25.479,24.7113 25.986,24.9063 26.484,25.1623 C26.496,25.1673 26.507,25.1733 26.519,25.1803 L24.293,29.6643 C23.474,27.7153 22.398,25.7493 21.479,24.2003 L21.479,24.2003 Z M22.448,29.4673 C21.957,29.5863 21.462,29.2853 21.343,28.7933 C21.224,28.3023 21.525,27.8073 22.017,27.6883 C22.508,27.5693 23.003,27.8703 23.121,28.3623 C23.24,28.8533 22.939,29.3483 22.448,29.4673 L22.448,29.4673 Z M21.347,23.9763 C21.226,23.7733 21.107,23.5793 20.994,23.3933 C21.096,23.3693 21.215,23.3413 21.351,23.3133 C21.605,23.2603 21.918,23.2073 22.279,23.1643 C22.642,23.1233 23.051,23.0923 23.499,23.0923 C23.611,23.0903 23.726,23.0943 23.842,23.0963 C23.958,23.1023 24.077,23.1053 24.197,23.1153 C24.318,23.1213 24.44,23.1343 24.563,23.1463 C24.626,23.1523 24.688,23.1613 24.751,23.1683 C24.782,23.1723 24.813,23.1763 24.846,23.1803 C24.877,23.1853 24.908,23.1893 24.94,23.1943 C25.447,23.2693 25.977,23.3933 26.504,23.5793 C26.569,23.6033 26.636,23.6283 26.702,23.6523 C26.768,23.6773 26.833,23.7053 26.898,23.7323 C26.932,23.7453 26.965,23.7583 26.997,23.7723 C27.03,23.7873 27.062,23.8023 27.095,23.8173 C27.122,23.8293 27.149,23.8413 27.177,23.8543 L26.592,25.0323 C26.582,25.0263 26.571,25.0203 26.561,25.0153 C26.056,24.7473 25.54,24.5423 25.039,24.3913 C25.008,24.3813 24.977,24.3713 24.945,24.3623 C24.914,24.3533 24.884,24.3453 24.853,24.3363 C24.79,24.3193 24.729,24.3013 24.667,24.2863 C24.543,24.2553 24.422,24.2243 24.302,24.1993 C24.182,24.1713 24.062,24.1503 23.945,24.1273 C23.828,24.1083 23.714,24.0863 23.601,24.0713 C23.148,24.0043 22.73,23.9743 22.359,23.9623 C21.989,23.9513 21.665,23.9573 21.398,23.9733 C21.381,23.9743 21.363,23.9753 21.347,23.9763 L21.347,23.9763 Z M10.87,44.9993 C11.117,44.9833 11.411,44.9743 11.744,44.9803 C12.108,44.9883 12.519,45.0133 12.963,45.0733 C13.074,45.0863 13.187,45.1053 13.302,45.1233 C13.416,45.1443 13.533,45.1633 13.651,45.1893 C13.77,45.2123 13.889,45.2413 14.011,45.2693 C14.071,45.2843 14.131,45.3013 14.192,45.3173 C14.224,45.3253 14.254,45.3333 14.284,45.3413 C14.315,45.3503 14.346,45.3593 14.377,45.3683 C14.869,45.5103 15.377,45.7043 15.875,45.9603 C15.937,45.9933 15.999,46.0253 16.061,46.0583 C16.087,46.0733 16.111,46.0873 16.137,46.1023 L13.815,50.7823 C12.981,48.7293 11.839,46.6333 10.87,44.9993 L10.87,44.9993 Z M11.838,50.2663 C11.347,50.3853 10.853,50.0833 10.733,49.5923 C10.614,49.1003 10.916,48.6063 11.407,48.4873 C11.898,48.3683 12.393,48.6693 12.512,49.1613 C12.631,49.6523 12.329,50.1463 11.838,50.2663 L11.838,50.2663 Z M10.736,44.7753 C10.615,44.5723 10.498,44.3783 10.384,44.1923 C10.486,44.1673 10.605,44.1403 10.74,44.1123 C10.996,44.0593 11.309,44.0063 11.67,43.9633 C12.031,43.9223 12.441,43.8913 12.89,43.8913 C13.002,43.8893 13.116,43.8933 13.232,43.8953 C13.349,43.9003 13.467,43.9043 13.588,43.9133 C13.708,43.9203 13.83,43.9333 13.954,43.9453 C14.017,43.9513 14.078,43.9593 14.142,43.9673 C14.173,43.9713 14.204,43.9753 14.235,43.9783 C14.268,43.9843 14.299,43.9883 14.33,43.9933 C14.838,44.0683 15.367,44.1923 15.895,44.3783 C15.96,44.4023 16.026,44.4273 16.093,44.4513 C16.158,44.4763 16.224,44.5043 16.289,44.5303 C16.322,44.5443 16.355,44.5573 16.388,44.5713 C16.42,44.5863 16.452,44.6003 16.485,44.6163 C16.55,44.6463 16.616,44.6743 16.681,44.7063 C16.721,44.7253 16.76,44.7463 16.8,44.7663 L16.209,45.9563 C16.187,45.9433 16.163,45.9293 16.141,45.9163 C16.077,45.8823 16.014,45.8483 15.951,45.8133 C15.446,45.5463 14.931,45.3413 14.43,45.1903 C14.398,45.1803 14.367,45.1703 14.336,45.1613 C14.305,45.1523 14.273,45.1433 14.242,45.1353 C14.181,45.1183 14.119,45.1003 14.057,45.0843 C13.934,45.0543 13.812,45.0233 13.691,44.9973 C13.572,44.9703 13.452,44.9493 13.336,44.9263 C13.219,44.9073 13.104,44.8853 12.991,44.8703 C12.539,44.8033 12.121,44.7733 11.75,44.7603 C11.379,44.7493 11.055,44.7563 10.789,44.7723 L10.736,44.7753 Z M42.362,13.0563 C42.357,12.9853 42.351,12.8983 42.343,12.7963 C42.339,12.7453 42.335,12.6903 42.33,12.6323 C42.326,12.5733 42.318,12.5113 42.312,12.4453 C42.299,12.3143 42.284,12.1683 42.268,12.0103 C42.251,11.8523 42.227,11.6823 42.204,11.4993 C42.198,11.4543 42.192,11.4083 42.186,11.3603 C42.181,11.3133 42.172,11.2663 42.164,11.2183 C42.149,11.1213 42.134,11.0223 42.118,10.9203 C42.11,10.8693 42.102,10.8173 42.094,10.7663 C42.086,10.7133 42.074,10.6613 42.065,10.6073 C42.045,10.5013 42.025,10.3923 42.004,10.2813 C41.985,10.1693 41.959,10.0573 41.935,9.9413 C41.908,9.8273 41.885,9.7093 41.856,9.5903 C41.797,9.3533 41.74,9.1073 41.665,8.8583 C41.598,8.6083 41.514,8.3543 41.429,8.0963 C41.383,7.9673 41.336,7.8373 41.288,7.7063 C41.239,7.5763 41.185,7.4473 41.133,7.3153 C40.915,6.7913 40.654,6.2643 40.341,5.7563 C40.03,5.2463 39.661,4.7613 39.245,4.3193 L39.167,4.2353 C39.141,4.2073 39.113,4.1823 39.086,4.1553 L38.924,3.9953 C38.868,3.9433 38.812,3.8933 38.755,3.8423 L38.671,3.7663 C38.643,3.7413 38.612,3.7183 38.584,3.6933 C38.525,3.6453 38.467,3.5973 38.408,3.5493 C38.349,3.5023 38.288,3.4573 38.228,3.4123 L38.162,3.3623 C38.22,3.1313 38.157,3.0893 38.014,3.2583 C37.962,3.2233 37.91,3.1883 37.859,3.1523 C37.731,3.0743 37.607,2.9913 37.477,2.9193 L37.381,2.8643 L37.332,2.8363 C37.316,2.8283 37.3,2.8193 37.283,2.8113 C37.218,2.7773 37.152,2.7433 37.087,2.7093 C37.021,2.6753 36.954,2.6463 36.889,2.6143 C36.855,2.5993 36.822,2.5833 36.789,2.5683 C36.757,2.5533 36.723,2.5393 36.689,2.5253 C36.623,2.4973 36.557,2.4683 36.489,2.4413 C36.422,2.4153 36.355,2.3903 36.288,2.3653 C35.752,2.1683 35.214,2.0343 34.697,1.9523 L34.601,1.9353 L34.504,1.9223 C34.44,1.9143 34.377,1.9043 34.313,1.8973 C34.187,1.8833 34.062,1.8693 33.94,1.8603 C33.817,1.8493 33.696,1.8443 33.578,1.8373 C33.459,1.8343 33.343,1.8283 33.229,1.8283 C32.771,1.8233 32.354,1.8493 31.984,1.8863 C31.615,1.9263 31.295,1.9763 31.033,2.0273 C30.859,2.0603 30.712,2.0933 30.592,2.1223 C29.83,0.8913 29.286,0.1053 29.286,0.1053 L29.992,4.2113 L29.064,2.3853 C28.911,4.3363 28.77,7.2453 28.99,9.9273 L24.717,9.0003 L24.606,8.9763 L24.532,9.0113 L24.507,9.0233 L24.484,9.0343 L24.441,9.0563 C24.413,9.0703 24.386,9.0853 24.358,9.0993 C24.304,9.1293 24.25,9.1603 24.197,9.1913 C24.093,9.2543 23.989,9.3183 23.889,9.3863 C23.838,9.4203 23.789,9.4553 23.739,9.4893 C23.69,9.5253 23.641,9.5603 23.593,9.5963 C23.496,9.6693 23.401,9.7433 23.309,9.8203 C23.216,9.8973 23.126,9.9763 23.037,10.0573 C22.993,10.0983 22.948,10.1393 22.905,10.1803 L22.777,10.3063 C22.693,10.3923 22.61,10.4783 22.531,10.5683 L22.472,10.6353 L22.414,10.7033 C22.376,10.7493 22.336,10.7933 22.3,10.8413 L22.188,10.9813 L22.082,11.1243 C22.047,11.1723 22.013,11.2213 21.979,11.2703 L21.93,11.3443 C21.913,11.3693 21.896,11.3933 21.881,11.4183 L21.786,11.5693 C21.754,11.6193 21.726,11.6713 21.696,11.7233 C21.635,11.8243 21.582,11.9313 21.526,12.0343 C21.5,12.0873 21.476,12.1413 21.45,12.1943 L21.412,12.2743 C21.399,12.3003 21.389,12.3283 21.377,12.3553 L21.308,12.5173 C21.285,12.5713 21.266,12.6273 21.244,12.6823 C21.201,12.7913 21.166,12.9033 21.13,13.0143 C21.11,13.0693 21.096,13.1263 21.079,13.1833 L21.032,13.3513 L21.097,13.1883 C21.118,13.1343 21.139,13.0793 21.163,13.0273 C21.212,12.9213 21.257,12.8143 21.312,12.7113 C21.338,12.6593 21.362,12.6073 21.391,12.5563 L21.475,12.4043 C21.489,12.3793 21.502,12.3533 21.518,12.3283 L21.562,12.2543 C21.593,12.2053 21.622,12.1553 21.653,12.1063 C21.719,12.0113 21.779,11.9133 21.85,11.8213 C21.884,11.7753 21.916,11.7273 21.951,11.6833 L22.058,11.5473 C22.075,11.5243 22.094,11.5023 22.112,11.4803 L22.168,11.4143 C22.205,11.3713 22.242,11.3273 22.281,11.2853 L22.397,11.1583 L22.517,11.0363 C22.557,10.9943 22.599,10.9563 22.64,10.9163 L22.701,10.8563 L22.765,10.7993 C22.849,10.7223 22.937,10.6493 23.023,10.5763 L23.157,10.4703 L23.293,10.3673 C23.384,10.2993 23.477,10.2343 23.571,10.1713 C23.665,10.1083 23.761,10.0483 23.857,9.9903 C23.906,9.9613 23.955,9.9333 24.004,9.9053 C24.053,9.8783 24.103,9.8503 24.151,9.8253 C24.251,9.7723 24.352,9.7233 24.452,9.6763 C24.503,9.6533 24.554,9.6303 24.604,9.6103 C24.619,9.6033 24.634,9.5983 24.647,9.5923 L29.107,11.0583 C29.142,11.3293 29.181,11.5963 29.225,11.8573 L25.672,11.0873 L25.561,11.0633 L25.486,11.0983 L25.461,11.1103 L25.438,11.1203 L25.396,11.1423 C25.367,11.1573 25.34,11.1723 25.312,11.1863 C25.258,11.2163 25.205,11.2463 25.152,11.2783 C25.047,11.3403 24.944,11.4053 24.843,11.4733 C24.793,11.5063 24.743,11.5423 24.693,11.5763 C24.645,11.6123 24.596,11.6463 24.547,11.6833 C24.451,11.7553 24.355,11.8303 24.264,11.9073 C24.171,11.9833 24.08,12.0633 23.991,12.1433 C23.947,12.1853 23.903,12.2253 23.86,12.2663 L23.731,12.3933 C23.648,12.4793 23.565,12.5653 23.486,12.6553 L23.427,12.7213 L23.368,12.7903 C23.33,12.8363 23.29,12.8803 23.254,12.9273 L23.144,13.0683 L23.037,13.2113 C23.001,13.2593 22.968,13.3083 22.935,13.3573 L22.884,13.4313 C22.867,13.4553 22.851,13.4803 22.835,13.5053 L22.74,13.6563 C22.709,13.7063 22.681,13.7583 22.65,13.8093 C22.589,13.9113 22.537,14.0173 22.481,14.1213 C22.455,14.1743 22.431,14.2273 22.404,14.2813 L22.366,14.3603 C22.354,14.3873 22.343,14.4143 22.331,14.4413 L22.262,14.6043 C22.239,14.6583 22.22,14.7143 22.199,14.7683 C22.155,14.8773 22.121,14.9903 22.084,15.1013 C22.064,15.1563 22.05,15.2133 22.034,15.2693 L21.986,15.4383 L22.052,15.2753 C22.073,15.2213 22.094,15.1663 22.118,15.1143 C22.166,15.0073 22.212,14.9003 22.266,14.7973 C22.292,14.7463 22.317,14.6933 22.345,14.6423 L22.43,14.4913 C22.443,14.4653 22.457,14.4403 22.472,14.4153 L22.518,14.3413 C22.548,14.2923 22.577,14.2423 22.608,14.1933 C22.673,14.0983 22.734,14.0003 22.804,13.9083 C22.838,13.8623 22.87,13.8143 22.906,13.7693 L23.013,13.6343 C23.03,13.6113 23.049,13.5893 23.067,13.5673 L23.123,13.5013 C23.16,13.4573 23.196,13.4133 23.236,13.3713 L23.352,13.2453 L23.472,13.1223 C23.511,13.0813 23.554,13.0423 23.595,13.0023 L23.656,12.9433 L23.72,12.8863 C23.804,12.8093 23.891,12.7363 23.979,12.6623 L24.111,12.5563 L24.247,12.4533 C24.339,12.3863 24.432,12.3213 24.525,12.2583 C24.619,12.1953 24.716,12.1353 24.812,12.0773 C24.86,12.0483 24.91,12.0203 24.958,11.9923 C25.008,11.9653 25.057,11.9373 25.106,11.9113 C25.205,11.8583 25.306,11.8093 25.407,11.7633 C25.458,11.7403 25.508,11.7173 25.559,11.6963 C25.573,11.6903 25.588,11.6843 25.603,11.6793 L29.443,12.9423 C29.517,13.2433 29.598,13.5313 29.688,13.8053 L26.697,13.1573 L26.586,13.1333 L26.512,13.1673 L26.486,13.1793 L26.464,13.1903 L26.421,13.2123 C26.393,13.2263 26.365,13.2413 26.338,13.2563 C26.283,13.2863 26.23,13.3163 26.178,13.3483 C26.072,13.4103 25.969,13.4743 25.868,13.5423 C25.818,13.5763 25.769,13.6113 25.719,13.6453 C25.67,13.6813 25.621,13.7163 25.572,13.7523 C25.476,13.8253 25.381,13.8993 25.288,13.9763 C25.195,14.0533 25.105,14.1333 25.017,14.2133 C24.973,14.2543 24.929,14.2953 24.885,14.3363 L24.757,14.4623 C24.674,14.5483 24.591,14.6353 24.512,14.7243 L24.451,14.7913 L24.394,14.8593 C24.355,14.9053 24.315,14.9503 24.279,14.9973 L24.168,15.1373 L24.062,15.2813 C24.026,15.3283 23.993,15.3773 23.96,15.4273 L23.909,15.5003 C23.893,15.5253 23.876,15.5493 23.86,15.5753 L23.766,15.7253 C23.734,15.7753 23.706,15.8283 23.676,15.8793 C23.614,15.9803 23.562,16.0863 23.507,16.1903 C23.48,16.2443 23.455,16.2973 23.43,16.3503 L23.392,16.4303 C23.379,16.4563 23.368,16.4843 23.356,16.5113 L23.287,16.6733 C23.265,16.7273 23.245,16.7833 23.225,16.8383 C23.181,16.9473 23.145,17.0593 23.109,17.1703 C23.09,17.2253 23.075,17.2833 23.06,17.3393 L23.012,17.5073 L23.076,17.3453 C23.099,17.2903 23.118,17.2363 23.144,17.1833 C23.191,17.0773 23.237,16.9703 23.291,16.8673 C23.317,16.8153 23.343,16.7633 23.37,16.7123 L23.454,16.5603 C23.469,16.5353 23.482,16.5093 23.497,16.4843 L23.543,16.4113 C23.573,16.3613 23.603,16.3113 23.634,16.2633 C23.698,16.1673 23.76,16.0703 23.829,15.9773 C23.863,15.9313 23.896,15.8843 23.932,15.8393 L24.038,15.7033 C24.056,15.6813 24.073,15.6583 24.093,15.6373 L24.148,15.5713 C24.186,15.5273 24.222,15.4833 24.261,15.4413 L24.377,15.3143 L24.497,15.1923 C24.536,15.1503 24.579,15.1123 24.619,15.0723 L24.682,15.0133 L24.745,14.9553 C24.829,14.8783 24.916,14.8053 25.003,14.7323 L25.137,14.6263 L25.272,14.5233 C25.364,14.4553 25.456,14.3903 25.551,14.3283 C25.645,14.2653 25.74,14.2043 25.837,14.1463 C25.886,14.1173 25.935,14.0903 25.983,14.0613 C26.033,14.0353 26.082,14.0073 26.132,13.9813 C26.23,13.9283 26.331,13.8793 26.433,13.8323 C26.482,13.8093 26.533,13.7873 26.584,13.7663 C26.599,13.7603 26.613,13.7543 26.628,13.7483 L30.144,14.9053 C30.395,15.3823 30.69,15.7793 31.039,16.0703 L30.842,16.4673 C30.748,16.3973 30.657,16.3213 30.569,16.2383 C30.385,16.0623 30.214,15.8563 30.057,15.6193 C29.685,16.8023 29.001,17.7493 28.085,18.3583 C26.459,19.4423 24.096,19.4533 21.652,17.7603 C21.152,18.3723 20.742,19.0523 20.434,19.7753 C21.181,20.4563 21.949,21.0223 22.725,21.4753 C22.893,20.9563 23.128,20.4583 23.429,19.9953 C23.23,20.5583 23.112,21.1193 23.067,21.6673 C24.141,22.2483 25.224,22.6153 26.279,22.7753 C26.118,22.0123 26.095,21.2223 26.224,20.4413 C26.288,21.3233 26.514,22.1293 26.861,22.8433 C27.132,22.8643 27.4,22.8723 27.666,22.8663 L27.246,23.7143 C27.218,23.7003 27.188,23.6873 27.16,23.6733 C27.127,23.6583 27.095,23.6423 27.062,23.6273 C27.028,23.6123 26.994,23.5993 26.961,23.5843 C26.895,23.5563 26.828,23.5273 26.762,23.5003 C26.694,23.4743 26.627,23.4493 26.561,23.4243 C26.024,23.2273 25.485,23.0933 24.969,23.0113 L24.872,22.9953 C24.84,22.9903 24.808,22.9863 24.776,22.9813 C24.712,22.9733 24.648,22.9633 24.585,22.9563 C24.459,22.9423 24.335,22.9283 24.212,22.9193 C24.089,22.9083 23.968,22.9033 23.85,22.8963 C23.73,22.8933 23.614,22.8873 23.5,22.8873 C23.043,22.8823 22.625,22.9083 22.256,22.9463 C21.887,22.9853 21.566,23.0353 21.305,23.0863 C21.132,23.1203 20.983,23.1523 20.863,23.1823 C20.103,21.9513 19.559,21.1643 19.559,21.1643 L20.265,25.2703 L19.337,23.4443 C19.183,25.3953 19.043,28.3053 19.262,30.9863 L14.989,30.0593 L14.878,30.0363 L14.804,30.0703 L14.778,30.0823 L14.756,30.0933 L14.713,30.1153 C14.685,30.1293 14.657,30.1443 14.63,30.1593 C14.575,30.1883 14.522,30.2193 14.47,30.2503 C14.364,30.3133 14.261,30.3773 14.16,30.4453 C14.109,30.4793 14.061,30.5143 14.011,30.5483 C13.962,30.5843 13.912,30.6193 13.864,30.6553 C13.768,30.7283 13.673,30.8033 13.58,30.8793 C13.487,30.9563 13.397,31.0353 13.309,31.1163 C13.265,31.1573 13.221,31.1983 13.177,31.2393 L13.049,31.3653 C12.966,31.4523 12.883,31.5373 12.804,31.6273 L12.743,31.6943 L12.686,31.7623 C12.647,31.8083 12.607,31.8523 12.571,31.9003 L12.46,32.0403 L12.354,32.1843 C12.318,32.2313 12.285,32.2813 12.252,32.3293 L12.201,32.4033 C12.185,32.4283 12.168,32.4533 12.152,32.4773 L12.058,32.6283 C12.026,32.6793 11.997,32.7313 11.968,32.7823 C11.906,32.8833 11.854,32.9903 11.799,33.0933 C11.772,33.1463 11.747,33.2003 11.722,33.2533 L11.684,33.3333 C11.671,33.3593 11.66,33.3873 11.648,33.4143 L11.579,33.5763 C11.557,33.6303 11.537,33.6863 11.516,33.7413 C11.473,33.8503 11.437,33.9623 11.401,34.0733 C11.382,34.1283 11.367,34.1853 11.352,34.2423 L11.304,34.4103 L11.368,34.2473 C11.391,34.1933 11.41,34.1393 11.436,34.0863 C11.483,33.9803 11.529,33.8733 11.583,33.7703 C11.609,33.7183 11.634,33.6663 11.662,33.6153 L11.746,33.4633 C11.761,33.4383 11.774,33.4123 11.789,33.3873 L11.834,33.3133 C11.865,33.2643 11.895,33.2143 11.925,33.1663 C11.99,33.0703 12.052,32.9733 12.121,32.8803 C12.155,32.8343 12.187,32.7873 12.224,32.7423 L12.33,32.6063 C12.348,32.5833 12.365,32.5613 12.385,32.5393 L12.44,32.4743 C12.478,32.4303 12.514,32.3863 12.553,32.3443 L12.669,32.2173 L12.789,32.0953 C12.828,32.0533 12.871,32.0153 12.911,31.9753 L12.974,31.9163 L13.037,31.8583 C13.12,31.7813 13.208,31.7083 13.295,31.6353 L13.429,31.5293 L13.564,31.4263 C13.656,31.3583 13.748,31.2933 13.843,31.2303 C13.937,31.1673 14.032,31.1073 14.129,31.0493 C14.178,31.0203 14.227,30.9933 14.275,30.9643 C14.325,30.9373 14.374,30.9103 14.424,30.8843 C14.522,30.8313 14.623,30.7823 14.725,30.7353 C14.774,30.7123 14.825,30.6903 14.876,30.6693 C14.891,30.6623 14.905,30.6573 14.92,30.6513 L19.379,32.1183 C19.413,32.3893 19.452,32.6553 19.496,32.9163 L15.943,32.1463 L15.833,32.1223 L15.759,32.1573 L15.732,32.1693 L15.711,32.1803 L15.667,32.2023 C15.64,32.2163 15.611,32.2313 15.585,32.2453 C15.53,32.2753 15.477,32.3063 15.424,32.3373 C15.318,32.4003 15.216,32.4643 15.115,32.5323 C15.064,32.5663 15.016,32.6013 14.966,32.6353 C14.917,32.6713 14.867,32.7053 14.819,32.7423 C14.723,32.8153 14.628,32.8893 14.535,32.9663 C14.442,33.0433 14.352,33.1223 14.263,33.2033 C14.22,33.2443 14.175,33.2853 14.132,33.3263 L14.004,33.4523 C13.92,33.5383 13.837,33.6243 13.758,33.7143 L13.698,33.7813 L13.641,33.8493 C13.603,33.8953 13.562,33.9393 13.525,33.9873 L13.415,34.1273 L13.309,34.2703 C13.272,34.3183 13.239,34.3673 13.206,34.4163 L13.156,34.4903 C13.139,34.5153 13.122,34.5393 13.106,34.5643 L13.012,34.7153 C12.98,34.7653 12.952,34.8173 12.922,34.8683 C12.861,34.9703 12.809,35.0763 12.753,35.1803 C12.727,35.2333 12.702,35.2873 12.677,35.3403 L12.639,35.4193 C12.626,35.4463 12.615,35.4743 12.604,35.5003 L12.534,35.6633 C12.512,35.7173 12.492,35.7733 12.471,35.8283 C12.428,35.9363 12.393,36.0493 12.355,36.1603 C12.336,36.2153 12.322,36.2723 12.306,36.3293 L12.258,36.4973 L12.323,36.3343 C12.345,36.2803 12.365,36.2253 12.39,36.1733 C12.437,36.0663 12.483,35.9603 12.537,35.8573 C12.564,35.8053 12.589,35.7523 12.616,35.7023 L12.701,35.5503 C12.716,35.5243 12.729,35.4993 12.744,35.4743 L12.789,35.4003 C12.819,35.3513 12.849,35.3013 12.88,35.2523 C12.945,35.1573 13.006,35.0593 13.075,34.9673 C13.11,34.9213 13.143,34.8733 13.178,34.8283 L13.284,34.6933 C13.302,34.6703 13.32,34.6483 13.339,34.6263 L13.395,34.5603 C13.432,34.5163 13.469,34.4733 13.508,34.4313 L13.624,34.3043 L13.743,34.1823 C13.782,34.1403 13.825,34.1013 13.866,34.0623 L13.928,34.0023 L13.991,33.9453 C14.075,33.8683 14.162,33.7953 14.25,33.7223 L14.383,33.6153 L14.519,33.5133 C14.61,33.4453 14.703,33.3803 14.797,33.3173 C14.892,33.2543 14.987,33.1943 15.084,33.1363 C15.132,33.1073 15.182,33.0793 15.23,33.0513 C15.279,33.0243 15.328,32.9963 15.378,32.9713 C15.478,32.9173 15.578,32.8693 15.679,32.8223 C15.729,32.7993 15.78,32.7763 15.83,32.7553 C15.845,32.7493 15.859,32.7443 15.874,32.7383 L19.716,34.0013 C19.788,34.3023 19.869,34.5903 19.96,34.8643 L16.969,34.2163 L16.857,34.1923 L16.783,34.2263 L16.758,34.2383 L16.735,34.2493 L16.692,34.2713 C16.665,34.2863 16.637,34.3003 16.609,34.3153 C16.556,34.3453 16.502,34.3753 16.449,34.4073 C16.344,34.4693 16.24,34.5343 16.141,34.6013 C16.09,34.6353 16.04,34.6703 15.99,34.7043 C15.941,34.7413 15.893,34.7753 15.845,34.8113 C15.748,34.8843 15.653,34.9593 15.561,35.0363 C15.468,35.1123 15.377,35.1923 15.288,35.2723 C15.244,35.3133 15.2,35.3543 15.157,35.3953 L15.029,35.5213 C14.945,35.6073 14.862,35.6943 14.783,35.7833 L14.724,35.8503 L14.665,35.9183 C14.627,35.9653 14.587,36.0093 14.551,36.0563 L14.44,36.1963 L14.334,36.3403 C14.298,36.3883 14.265,36.4373 14.231,36.4863 L14.181,36.5593 C14.164,36.5843 14.147,36.6093 14.132,36.6343 L14.037,36.7853 C14.006,36.8353 13.978,36.8873 13.947,36.9383 C13.886,37.0393 13.834,37.1463 13.778,37.2503 C13.752,37.3033 13.728,37.3563 13.701,37.4093 L13.663,37.4893 C13.65,37.5163 13.64,37.5433 13.628,37.5703 L13.559,37.7323 C13.536,37.7873 13.517,37.8433 13.496,37.8973 C13.452,38.0063 13.418,38.1193 13.381,38.2293 C13.361,38.2853 13.347,38.3423 13.331,38.3983 L13.283,38.5663 L13.349,38.4043 C13.37,38.3493 13.391,38.2953 13.415,38.2423 C13.463,38.1363 13.509,38.0293 13.562,37.9263 C13.589,37.8743 13.614,37.8223 13.642,37.7713 L13.727,37.6203 C13.74,37.5943 13.754,37.5683 13.769,37.5443 L13.814,37.4703 C13.845,37.4203 13.874,37.3713 13.905,37.3223 C13.97,37.2263 14.031,37.1293 14.101,37.0373 C14.135,36.9913 14.168,36.9433 14.203,36.8983 L14.31,36.7623 C14.327,36.7403 14.346,36.7183 14.364,36.6963 L14.42,36.6303 C14.457,36.5863 14.494,36.5423 14.533,36.5003 L14.648,36.3743 L14.769,36.2513 C14.808,36.2093 14.851,36.1713 14.892,36.1313 L14.953,36.0723 L15.017,36.0153 C15.101,35.9373 15.187,35.8643 15.275,35.7913 L15.408,35.6853 L15.544,35.5823 C15.636,35.5153 15.729,35.4493 15.822,35.3873 C15.917,35.3243 16.013,35.2643 16.109,35.2053 C16.157,35.1763 16.207,35.1493 16.255,35.1203 C16.305,35.0943 16.354,35.0663 16.403,35.0403 C16.503,34.9873 16.604,34.9383 16.704,34.8913 C16.754,34.8683 16.806,34.8463 16.855,34.8253 C16.87,34.8193 16.885,34.8133 16.899,34.8083 L20.416,35.9643 C20.544,36.2083 20.684,36.4323 20.837,36.6303 L20.621,37.0643 C20.52,36.9463 20.421,36.8183 20.328,36.6783 C19.957,37.8613 19.272,38.8083 18.356,39.4173 C16.731,40.5023 14.367,40.5133 11.924,38.8193 C11.424,39.4323 11.014,40.1113 10.706,40.8343 C11.453,41.5153 12.221,42.0813 12.996,42.5343 C13.164,42.0163 13.399,41.5173 13.701,41.0543 C13.502,41.6173 13.385,42.1783 13.339,42.7263 C14.413,43.3083 15.496,43.6743 16.551,43.8343 C16.391,43.0713 16.366,42.2813 16.495,41.5003 C16.56,42.3823 16.785,43.1883 17.133,43.9023 C17.164,43.9043 17.194,43.9063 17.226,43.9083 L16.868,44.6293 C16.828,44.6083 16.789,44.5873 16.749,44.5673 C16.684,44.5333 16.616,44.5043 16.551,44.4723 C16.518,44.4563 16.484,44.4413 16.452,44.4263 C16.419,44.4113 16.385,44.3973 16.352,44.3833 C16.285,44.3553 16.219,44.3263 16.151,44.2993 C16.084,44.2733 16.018,44.2483 15.95,44.2233 C15.414,44.0263 14.876,43.8923 14.359,43.8093 C14.327,43.8043 14.295,43.7993 14.263,43.7933 L14.166,43.7803 C14.103,43.7723 14.039,43.7623 13.976,43.7553 C13.85,43.7413 13.725,43.7273 13.602,43.7183 C13.479,43.7073 13.358,43.7023 13.24,43.6953 C13.121,43.6923 13.005,43.6863 12.891,43.6863 C12.434,43.6813 12.016,43.7073 11.646,43.7443 C11.277,43.7843 10.957,43.8343 10.695,43.8853 C10.521,43.9183 10.374,43.9513 10.254,43.9803 C9.492,42.7493 8.948,41.9633 8.948,41.9633 L9.654,46.0693 L8.727,44.2433 C8.573,46.1943 8.433,49.1033 8.652,51.7853 L4.379,50.8583 L4.269,50.8343 L4.194,50.8693 L4.169,50.8813 L4.146,50.8923 L4.104,50.9133 C4.075,50.9283 4.048,50.9433 4.021,50.9573 C3.966,50.9873 3.912,51.0183 3.859,51.0493 C3.755,51.1123 3.651,51.1763 3.551,51.2443 C3.5,51.2783 3.451,51.3133 3.401,51.3473 C3.353,51.3833 3.303,51.4183 3.255,51.4543 C3.158,51.5273 3.063,51.6013 2.971,51.6783 C2.878,51.7553 2.788,51.8343 2.699,51.9153 C2.655,51.9563 2.61,51.9963 2.567,52.0373 L2.439,52.1643 C2.355,52.2503 2.272,52.3363 2.193,52.4263 L2.134,52.4933 L2.076,52.5613 C2.038,52.6073 1.998,52.6513 1.962,52.6993 L1.851,52.8393 L1.744,52.9823 C1.709,53.0303 1.675,53.0793 1.642,53.1283 L1.592,53.2023 C1.574,53.2263 1.559,53.2513 1.543,53.2763 L1.448,53.4273 C1.416,53.4773 1.388,53.5293 1.357,53.5803 C1.297,53.6823 1.244,53.7883 1.188,53.8923 C1.162,53.9453 1.138,53.9983 1.112,54.0523 L1.074,54.1323 C1.062,54.1583 1.051,54.1853 1.039,54.2133 L0.97,54.3753 C0.947,54.4293 0.928,54.4853 0.906,54.5393 C0.863,54.6493 0.828,54.7613 0.791,54.8723 C0.772,54.9273 0.758,54.9843 0.741,55.0403 L0.694,55.2093 L0.759,55.0463 C0.78,54.9923 0.801,54.9373 0.825,54.8853 C0.874,54.7793 0.919,54.6723 0.974,54.5693 C1,54.5173 1.024,54.4653 1.053,54.4133 L1.137,54.2623 C1.151,54.2373 1.164,54.2113 1.18,54.1863 L1.225,54.1123 C1.255,54.0633 1.284,54.0133 1.315,53.9643 C1.381,53.8693 1.441,53.7713 1.512,53.6793 C1.546,53.6333 1.578,53.5853 1.613,53.5403 L1.72,53.4053 C1.737,53.3823 1.756,53.3603 1.774,53.3383 L1.83,53.2723 C1.867,53.2293 1.904,53.1843 1.943,53.1433 L2.06,53.0163 L2.179,52.8933 C2.219,52.8523 2.261,52.8143 2.302,52.7743 L2.363,52.7143 L2.427,52.6573 C2.511,52.5803 2.599,52.5073 2.686,52.4343 L2.819,52.3273 L2.955,52.2243 C3.046,52.1573 3.139,52.0923 3.233,52.0293 C3.327,51.9663 3.423,51.9063 3.52,51.8483 C3.568,51.8193 3.617,51.7913 3.666,51.7633 C3.716,51.7363 3.765,51.7083 3.814,51.6833 C3.913,51.6303 4.014,51.5803 4.114,51.5343 C4.165,51.5113 4.216,51.4883 4.267,51.4673 C4.281,51.4613 4.295,51.4553 4.31,51.4503 L8.77,52.9163 C8.804,53.1873 8.843,53.4543 8.887,53.7153 L5.334,52.9453 L5.223,52.9213 L5.148,52.9553 L5.123,52.9683 L5.101,52.9783 L5.058,53.0003 C5.029,53.0153 5.002,53.0293 4.975,53.0443 C4.92,53.0743 4.867,53.1043 4.814,53.1363 C4.709,53.1983 4.605,53.2633 4.506,53.3313 C4.455,53.3643 4.405,53.3993 4.355,53.4343 C4.307,53.4703 4.258,53.5043 4.209,53.5413 C4.113,53.6133 4.018,53.6883 3.926,53.7653 C3.833,53.8413 3.742,53.9213 3.653,54.0013 C3.609,54.0423 3.565,54.0833 3.522,54.1243 L3.394,54.2513 C3.311,54.3373 3.228,54.4233 3.148,54.5133 L3.089,54.5793 L3.03,54.6473 C2.992,54.6943 2.952,54.7383 2.916,54.7853 L2.805,54.9253 L2.699,55.0693 C2.663,55.1173 2.63,55.1663 2.597,55.2153 L2.546,55.2883 C2.529,55.3133 2.513,55.3383 2.497,55.3633 L2.402,55.5143 C2.371,55.5643 2.343,55.6163 2.312,55.6673 C2.251,55.7683 2.199,55.8753 2.144,55.9793 C2.117,56.0323 2.092,56.0853 2.066,56.1393 L2.028,56.2183 C2.016,56.2453 2.005,56.2723 1.993,56.2993 L1.924,56.4623 C1.901,56.5163 1.882,56.5723 1.861,56.6263 C1.817,56.7353 1.783,56.8483 1.746,56.9583 C1.727,57.0143 1.712,57.0713 1.696,57.1273 L1.648,57.2953 L1.713,57.1333 C1.735,57.0793 1.756,57.0243 1.78,56.9723 C1.828,56.8653 1.874,56.7583 1.928,56.6553 C1.954,56.6043 1.979,56.5513 2.007,56.5003 L2.092,56.3493 C2.105,56.3233 2.119,56.2983 2.134,56.2733 L2.18,56.1993 C2.21,56.1493 2.239,56.1003 2.271,56.0513 C2.335,55.9553 2.396,55.8583 2.466,55.7663 C2.5,55.7203 2.532,55.6723 2.568,55.6273 L2.675,55.4923 C2.692,55.4693 2.71,55.4473 2.729,55.4253 L2.785,55.3593 C2.822,55.3153 2.858,55.2713 2.898,55.2293 L3.014,55.1033 L3.134,54.9803 C3.173,54.9393 3.216,54.9003 3.257,54.8603 L3.318,54.8013 L3.382,54.7443 C3.466,54.6663 3.553,54.5943 3.641,54.5203 L3.773,54.4143 L3.909,54.3113 C4.001,54.2443 4.094,54.1793 4.187,54.1163 C4.281,54.0533 4.378,53.9933 4.475,53.9343 C4.522,53.9063 4.572,53.8783 4.62,53.8493 C4.67,53.8233 4.719,53.7953 4.769,53.7693 C4.867,53.7163 4.968,53.6673 5.069,53.6203 C5.119,53.5973 5.17,53.5753 5.221,53.5543 C5.235,53.5483 5.25,53.5423 5.265,53.5373 L9.106,54.8003 C9.179,55.1003 9.26,55.3893 9.351,55.6633 L6.359,55.0153 L6.248,54.9913 L6.174,55.0253 L6.148,55.0373 L6.126,55.0483 L6.083,55.0703 C6.055,55.0843 6.027,55.0993 6,55.1143 C5.945,55.1433 5.893,55.1743 5.84,55.2053 C5.734,55.2683 5.631,55.3323 5.53,55.4003 C5.48,55.4343 5.431,55.4693 5.381,55.5033 C5.332,55.5393 5.283,55.5743 5.234,55.6103 C5.138,55.6833 5.043,55.7573 4.95,55.8343 C4.858,55.9113 4.768,55.9903 4.679,56.0713 C4.635,56.1123 4.591,56.1533 4.547,56.1943 L4.419,56.3203 C4.336,56.4063 4.253,56.4923 4.174,56.5823 L4.113,56.6493 L4.056,56.7173 C4.018,56.7633 3.978,56.8083 3.941,56.8553 L3.83,56.9953 L3.725,57.1393 C3.688,57.1863 3.655,57.2353 3.622,57.2853 L3.571,57.3583 C3.555,57.3833 3.538,57.4073 3.522,57.4333 L3.428,57.5833 C3.396,57.6333 3.367,57.6853 3.338,57.7373 C3.276,57.8383 3.225,57.9443 3.169,58.0483 C3.143,58.1013 3.117,58.1553 3.092,58.2083 L3.054,58.2883 C3.041,58.3143 3.03,58.3423 3.019,58.3693 L2.949,58.5313 C2.927,58.5853 2.907,58.6413 2.886,58.6963 C2.843,58.8053 2.808,58.9173 2.771,59.0283 C2.752,59.0833 2.737,59.1413 2.722,59.1973 L2.674,59.3653 L2.738,59.2033 C2.761,59.1483 2.78,59.0943 2.806,59.0413 C2.854,58.9343 2.899,58.8283 2.953,58.7253 C2.979,58.6733 3.005,58.6213 3.032,58.5703 L3.116,58.4183 C3.131,58.3933 3.145,58.3673 3.159,58.3423 L3.204,58.2683 C3.235,58.2193 3.265,58.1693 3.296,58.1213 C3.36,58.0253 3.422,57.9283 3.491,57.8353 C3.525,57.7893 3.558,57.7423 3.594,57.6973 L3.7,57.5613 C3.718,57.5383 3.735,57.5163 3.755,57.4953 L3.811,57.4293 C3.848,57.3853 3.884,57.3413 3.923,57.2993 L4.039,57.1723 L4.159,57.0503 C4.198,57.0083 4.241,56.9703 4.281,56.9303 L4.344,56.8703 L4.407,56.8133 C4.491,56.7363 4.578,56.6633 4.665,56.5903 L4.799,56.4843 L4.935,56.3813 C5.026,56.3133 5.118,56.2483 5.213,56.1853 C5.307,56.1223 5.402,56.0623 5.499,56.0043 C5.548,55.9753 5.597,55.9483 5.646,55.9193 C5.695,55.8923 5.744,55.8653 5.794,55.8393 C5.893,55.7863 5.993,55.7373 6.095,55.6903 C6.145,55.6673 6.195,55.6443 6.246,55.6243 C6.261,55.6183 6.275,55.6123 6.29,55.6063 L9.806,56.7633 C9.983,57.1013 10.184,57.3983 10.409,57.6463 L10.201,58.0653 C10.028,57.8963 9.867,57.7013 9.719,57.4763 C9.348,58.6603 8.663,59.6073 7.747,60.2163 C6.121,61.3003 3.758,61.3113 1.314,59.6183 C0.814,60.2303 0.404,60.9093 0.096,61.6333 C0.843,62.3143 1.611,62.8803 2.387,63.3333 C2.555,62.8143 2.79,62.3163 3.091,61.8533 C2.893,62.4163 2.774,62.9763 2.729,63.5253 C3.803,64.1063 4.886,64.4733 5.941,64.6333 C5.78,63.8703 5.757,63.0793 5.886,62.2993 C5.95,63.1813 6.176,63.9873 6.523,64.7013 C6.648,64.7103 6.773,64.7183 6.898,64.7223 L3.074,72.4293 L4.224,73.0003 L8.378,64.6273 C8.757,64.5653 9.127,64.4743 9.486,64.3533 C9.285,64.0753 9.106,63.7803 8.951,63.4733 L9.105,63.1613 C9.389,63.5293 9.702,63.8563 10.039,64.1413 C10.895,63.7703 11.681,63.2243 12.357,62.5123 C11.549,62.1223 10.823,61.5703 10.239,60.8773 L10.263,60.8293 C11.066,61.4283 11.937,61.8053 12.813,61.9873 C13.666,60.9093 14.302,59.5253 14.626,57.8563 C14.233,58.2773 13.695,58.5733 13.016,58.7373 C12.388,58.8903 11.815,58.8873 11.304,58.7313 L11.485,58.3663 C11.907,58.5023 12.387,58.5163 12.93,58.3843 C15.314,57.8063 15.328,55.3183 14.422,52.4483 L17.208,46.8323 C17.241,46.8603 17.274,46.8873 17.308,46.9143 C17.363,46.9633 17.418,47.0123 17.474,47.0603 L17.557,47.1343 L17.636,47.2113 C17.689,47.2633 17.743,47.3143 17.796,47.3663 C17.847,47.4203 17.897,47.4743 17.949,47.5283 C17.975,47.5553 18.001,47.5813 18.025,47.6103 L18.099,47.6943 C18.147,47.7513 18.197,47.8063 18.245,47.8643 L18.385,48.0393 C18.407,48.0693 18.432,48.0983 18.454,48.1273 L18.52,48.2183 C18.873,48.7013 19.178,49.2213 19.421,49.7593 C19.667,50.2963 19.86,50.8473 20.012,51.3903 C20.047,51.5263 20.085,51.6613 20.118,51.7953 C20.148,51.9313 20.179,52.0643 20.209,52.1973 C20.261,52.4633 20.313,52.7243 20.351,52.9793 C20.394,53.2353 20.42,53.4853 20.45,53.7263 C20.464,53.8483 20.473,53.9673 20.484,54.0843 C20.494,54.2013 20.507,54.3163 20.513,54.4293 C20.52,54.5413 20.526,54.6523 20.533,54.7603 C20.536,54.8133 20.54,54.8673 20.542,54.9203 C20.544,54.9733 20.546,55.0243 20.547,55.0763 C20.551,55.1793 20.554,55.2793 20.557,55.3763 C20.559,55.4263 20.561,55.4743 20.561,55.5213 C20.562,55.5683 20.562,55.6153 20.562,55.6613 C20.562,55.8453 20.565,56.0163 20.562,56.1753 C20.56,56.3343 20.557,56.4803 20.554,56.6123 C20.552,56.6783 20.552,56.7413 20.549,56.7993 C20.546,56.8583 20.544,56.9133 20.541,56.9643 C20.536,57.0663 20.532,57.1533 20.529,57.2243 C20.522,57.3653 20.52,57.4403 20.52,57.4403 C20.52,57.4403 20.523,57.3653 20.532,57.2243 C20.536,57.1543 20.541,57.0663 20.548,56.9643 C20.551,56.9133 20.554,56.8583 20.557,56.7993 C20.561,56.7413 20.562,56.6793 20.564,56.6133 C20.568,56.4803 20.573,56.3343 20.579,56.1763 C20.583,56.0163 20.582,55.8453 20.584,55.6613 C20.584,55.6153 20.585,55.5683 20.585,55.5203 C20.586,55.4733 20.584,55.4253 20.583,55.3763 C20.581,55.2793 20.579,55.1783 20.577,55.0753 C20.576,55.0233 20.575,54.9713 20.573,54.9183 C20.572,54.8663 20.569,54.8123 20.566,54.7583 C20.562,54.6503 20.556,54.5393 20.551,54.4263 C20.546,54.3133 20.535,54.1983 20.526,54.0803 C20.517,53.9633 20.509,53.8433 20.497,53.7223 C20.469,53.4793 20.446,53.2283 20.406,52.9713 C20.372,52.7143 20.323,52.4523 20.273,52.1833 C20.245,52.0503 20.216,51.9153 20.187,51.7793 C20.156,51.6433 20.119,51.5083 20.086,51.3703 C19.94,50.8223 19.752,50.2653 19.511,49.7193 C19.271,49.1723 18.971,48.6413 18.618,48.1473 L18.552,48.0543 C18.529,48.0233 18.506,47.9943 18.482,47.9643 L18.343,47.7843 C18.296,47.7243 18.245,47.6673 18.196,47.6093 L18.123,47.5223 C18.099,47.4933 18.072,47.4673 18.047,47.4383 C17.995,47.3833 17.943,47.3283 17.893,47.2723 C17.84,47.2183 17.785,47.1653 17.732,47.1123 L17.651,47.0323 L17.568,46.9563 C17.513,46.9063 17.457,46.8553 17.401,46.8053 C17.358,46.7703 17.316,46.7343 17.274,46.6993 L17.895,45.4463 C17.926,45.4683 17.957,45.4903 17.987,45.5143 C18.045,45.5603 18.103,45.6063 18.161,45.6533 C18.189,45.6773 18.22,45.6993 18.247,45.7243 L18.331,45.7983 C18.388,45.8473 18.444,45.8953 18.499,45.9463 L18.661,46.1013 C18.687,46.1273 18.716,46.1523 18.742,46.1793 L18.819,46.2603 C19.234,46.6913 19.606,47.1653 19.92,47.6663 C20.235,48.1653 20.501,48.6853 20.725,49.2033 C20.777,49.3333 20.833,49.4613 20.884,49.5903 C20.933,49.7203 20.98,49.8483 21.028,49.9753 C21.116,50.2323 21.203,50.4833 21.273,50.7323 C21.352,50.9793 21.41,51.2243 21.474,51.4593 C21.503,51.5773 21.528,51.6943 21.555,51.8083 C21.581,51.9233 21.608,52.0353 21.629,52.1463 C21.651,52.2573 21.673,52.3653 21.694,52.4713 C21.704,52.5243 21.716,52.5773 21.725,52.6293 C21.733,52.6813 21.742,52.7323 21.751,52.7833 C21.768,52.8843 21.785,52.9833 21.801,53.0793 C21.809,53.1283 21.817,53.1753 21.824,53.2223 C21.831,53.2693 21.838,53.3153 21.844,53.3613 C21.869,53.5423 21.895,53.7123 21.914,53.8703 C21.933,54.0283 21.949,54.1733 21.964,54.3043 C21.971,54.3703 21.979,54.4323 21.984,54.4903 C21.989,54.5493 21.994,54.6033 21.999,54.6553 C22.008,54.7573 22.016,54.8433 22.021,54.9143 C22.034,55.0553 22.041,55.1303 22.041,55.1303 C22.041,55.1303 22.035,55.0553 22.024,54.9133 C22.02,54.8433 22.013,54.7563 22.005,54.6543 C22.001,54.6033 21.997,54.5483 21.992,54.4893 C21.988,54.4313 21.98,54.3693 21.975,54.3033 C21.961,54.1723 21.946,54.0263 21.93,53.8683 C21.913,53.7103 21.889,53.5403 21.866,53.3573 C21.86,53.3123 21.854,53.2663 21.848,53.2183 C21.843,53.1713 21.834,53.1243 21.826,53.0763 C21.812,52.9793 21.796,52.8803 21.78,52.7783 C21.772,52.7273 21.764,52.6753 21.756,52.6233 C21.748,52.5713 21.737,52.5183 21.728,52.4653 C21.707,52.3593 21.687,52.2503 21.667,52.1393 C21.647,52.0273 21.621,51.9143 21.597,51.7993 C21.57,51.6843 21.547,51.5673 21.519,51.4483 C21.459,51.2113 21.402,50.9653 21.327,50.7163 C21.26,50.4663 21.176,50.2123 21.091,49.9533 C21.045,49.8253 20.998,49.6953 20.95,49.5643 C20.901,49.4343 20.847,49.3043 20.795,49.1733 C20.577,48.6493 20.316,48.1223 20.003,47.6143 C19.692,47.1043 19.322,46.6193 18.907,46.1773 L18.829,46.0933 C18.803,46.0653 18.775,46.0393 18.748,46.0133 L18.586,45.8533 C18.53,45.8013 18.474,45.7513 18.417,45.7003 L18.333,45.6243 C18.305,45.5993 18.274,45.5763 18.245,45.5513 C18.187,45.5033 18.129,45.4553 18.07,45.4073 C18.033,45.3773 17.995,45.3493 17.958,45.3213 L18.676,43.8733 C19.163,43.8143 19.639,43.7083 20.097,43.5553 C19.83,43.1873 19.604,42.7913 19.42,42.3753 L19.542,42.1273 C19.868,42.5933 20.241,42.9983 20.648,43.3433 C21.505,42.9723 22.29,42.4263 22.968,41.7133 C22.09,41.2903 21.31,40.6773 20.703,39.8993 C21.554,40.5753 22.484,40.9943 23.424,41.1883 C24.276,40.1103 24.912,38.7263 25.235,37.0583 C24.843,37.4783 24.305,37.7743 23.625,37.9383 C22.895,38.1163 22.24,38.0823 21.668,37.8433 L21.852,37.4733 C22.33,37.6913 22.889,37.7433 23.54,37.5853 C26.021,36.9843 25.935,34.3143 24.916,31.2983 L27.609,25.8703 C27.714,25.9483 27.814,26.0333 27.918,26.1163 C27.973,26.1643 28.028,26.2133 28.083,26.2623 L28.166,26.3353 L28.246,26.4123 C28.299,26.4643 28.353,26.5153 28.405,26.5683 C28.456,26.6213 28.508,26.6753 28.559,26.7293 C28.584,26.7573 28.61,26.7833 28.635,26.8113 L28.708,26.8953 C28.757,26.9523 28.807,27.0073 28.854,27.0653 L28.994,27.2413 C29.017,27.2703 29.041,27.2993 29.063,27.3283 L29.129,27.4193 C29.482,27.9023 29.787,28.4223 30.031,28.9603 C30.276,29.4983 30.47,30.0493 30.621,30.5913 C30.656,30.7273 30.694,30.8623 30.728,30.9963 C30.758,31.1323 30.788,31.2663 30.818,31.3983 C30.871,31.6643 30.924,31.9253 30.96,32.1813 C31.004,32.4363 31.029,32.6863 31.061,32.9283 C31.073,33.0493 31.083,33.1683 31.094,33.2853 C31.104,33.4023 31.117,33.5173 31.122,33.6303 C31.129,33.7433 31.136,33.8533 31.143,33.9613 C31.146,34.0153 31.149,34.0683 31.151,34.1213 C31.153,34.1743 31.155,34.2263 31.157,34.2773 C31.16,34.3803 31.163,34.4803 31.167,34.5783 C31.168,34.6273 31.171,34.6753 31.171,34.7223 L31.171,34.8623 C31.172,35.0463 31.175,35.2183 31.173,35.3763 C31.169,35.5363 31.166,35.6823 31.163,35.8133 C31.161,35.8793 31.161,35.9423 31.158,36.0003 C31.156,36.0593 31.153,36.1143 31.151,36.1653 C31.146,36.2673 31.143,36.3543 31.139,36.4253 C31.132,36.5663 31.129,36.6413 31.129,36.6413 C31.129,36.6413 31.134,36.5663 31.142,36.4253 C31.146,36.3553 31.151,36.2683 31.157,36.1653 C31.16,36.1143 31.163,36.0593 31.167,36.0013 C31.17,35.9423 31.171,35.8803 31.174,35.8143 C31.179,35.6823 31.184,35.5363 31.188,35.3773 C31.192,35.2183 31.191,35.0463 31.193,34.8623 C31.194,34.8163 31.194,34.7693 31.194,34.7223 C31.195,34.6753 31.193,34.6263 31.192,34.5783 C31.19,34.4803 31.188,34.3793 31.187,34.2763 C31.186,34.2243 31.185,34.1723 31.184,34.1203 C31.183,34.0673 31.179,34.0143 31.176,33.9593 C31.171,33.8513 31.165,33.7403 31.16,33.6273 C31.156,33.5143 31.145,33.3993 31.136,33.2823 C31.126,33.1643 31.118,33.0453 31.106,32.9233 C31.079,32.6813 31.056,32.4293 31.016,32.1723 C30.982,31.9153 30.933,31.6533 30.884,31.3853 C30.854,31.2513 30.826,31.1163 30.797,30.9803 C30.766,30.8453 30.729,30.7093 30.695,30.5713 C30.55,30.0233 30.362,29.4663 30.121,28.9203 C29.882,28.3733 29.58,27.8433 29.228,27.3483 L29.161,27.2553 C29.14,27.2243 29.115,27.1953 29.093,27.1653 L28.953,26.9853 C28.905,26.9263 28.855,26.8693 28.807,26.8103 L28.732,26.7243 C28.708,26.6953 28.682,26.6683 28.656,26.6403 C28.604,26.5843 28.554,26.5293 28.502,26.4733 C28.449,26.4193 28.395,26.3673 28.342,26.3133 L28.262,26.2343 L28.178,26.1583 C28.122,26.1073 28.066,26.0573 28.011,26.0063 C27.899,25.9143 27.791,25.8193 27.677,25.7343 L28.292,24.4933 L28.328,24.5173 L28.418,24.5823 C28.478,24.6263 28.538,24.6703 28.597,24.7153 C28.654,24.7613 28.713,24.8083 28.77,24.8543 C28.8,24.8783 28.829,24.9003 28.857,24.9253 L28.941,24.9993 C28.997,25.0483 29.054,25.0973 29.108,25.1473 L29.271,25.3023 C29.298,25.3283 29.325,25.3533 29.352,25.3803 L29.429,25.4613 C29.844,25.8923 30.216,26.3673 30.529,26.8673 C30.846,27.3673 31.11,27.8863 31.334,28.4043 C31.388,28.5343 31.443,28.6623 31.493,28.7913 C31.542,28.9213 31.59,29.0493 31.638,29.1763 C31.726,29.4333 31.812,29.6843 31.883,29.9333 C31.961,30.1803 32.02,30.4253 32.083,30.6603 C32.112,30.7783 32.138,30.8953 32.165,31.0103 C32.19,31.1243 32.219,31.2363 32.239,31.3473 C32.261,31.4583 32.282,31.5673 32.304,31.6733 C32.313,31.7253 32.325,31.7783 32.334,31.8303 C32.343,31.8823 32.352,31.9333 32.36,31.9843 C32.378,32.0863 32.395,32.1843 32.411,32.2813 C32.418,32.3293 32.428,32.3763 32.434,32.4233 C32.44,32.4703 32.447,32.5163 32.453,32.5623 C32.479,32.7443 32.505,32.9133 32.524,33.0713 C32.542,33.2293 32.559,33.3743 32.573,33.5053 C32.581,33.5713 32.589,33.6333 32.594,33.6913 C32.6,33.7503 32.604,33.8053 32.608,33.8563 C32.617,33.9583 32.625,34.0453 32.632,34.1153 C32.644,34.2563 32.65,34.3313 32.65,34.3313 C32.65,34.3313 32.645,34.2563 32.634,34.1153 C32.629,34.0443 32.622,33.9573 32.614,33.8553 C32.61,33.8043 32.606,33.7493 32.602,33.6913 C32.598,33.6323 32.59,33.5703 32.584,33.5043 C32.57,33.3733 32.556,33.2283 32.54,33.0693 C32.522,32.9123 32.498,32.7413 32.476,32.5583 C32.47,32.5133 32.464,32.4673 32.458,32.4203 C32.452,32.3723 32.443,32.3253 32.437,32.2773 C32.421,32.1813 32.405,32.0813 32.39,31.9793 C32.382,31.9283 32.374,31.8773 32.365,31.8253 C32.357,31.7723 32.347,31.7203 32.337,31.6663 C32.317,31.5603 32.297,31.4513 32.276,31.3403 C32.257,31.2283 32.23,31.1163 32.206,31.0003 C32.181,30.8863 32.156,30.7683 32.129,30.6493 C32.068,30.4123 32.012,30.1663 31.937,29.9173 C31.869,29.6673 31.785,29.4133 31.7,29.1553 C31.654,29.0263 31.607,28.8963 31.561,28.7663 C31.511,28.6353 31.457,28.5063 31.404,28.3743 C31.187,27.8503 30.926,27.3233 30.613,26.8153 C30.303,26.3063 29.933,25.8203 29.517,25.3783 L29.438,25.2943 C29.413,25.2673 29.385,25.2413 29.358,25.2143 L29.195,25.0553 C29.141,25.0023 29.083,24.9533 29.026,24.9013 L28.942,24.8263 C28.914,24.8003 28.884,24.7773 28.855,24.7523 C28.797,24.7043 28.738,24.6563 28.68,24.6083 C28.62,24.5613 28.56,24.5173 28.5,24.4713 L28.409,24.4033 L28.355,24.3663 L29.195,22.6743 C29.408,22.6243 29.618,22.5653 29.825,22.4953 C29.715,22.3443 29.612,22.1873 29.516,22.0273 L29.712,21.6313 C29.921,21.8693 30.144,22.0863 30.377,22.2843 C31.233,21.9123 32.019,21.3673 32.695,20.6543 C32.011,20.3243 31.386,19.8773 30.855,19.3283 L30.921,19.1953 C31.633,19.6653 32.39,19.9713 33.151,20.1293 C34.004,19.0513 34.64,17.6673 34.964,15.9983 C34.571,16.4193 34.033,16.7153 33.354,16.8793 C32.88,16.9943 32.438,17.0203 32.03,16.9593 L32.211,16.5953 C32.533,16.6393 32.885,16.6193 33.268,16.5263 C35.501,15.9853 35.654,13.7703 34.921,11.1343 L37.149,6.6413 L37.642,5.0533 C37.643,5.0543 37.645,5.0553 37.645,5.0563 C37.701,5.1053 37.756,5.1543 37.812,5.2033 L37.895,5.2763 L37.974,5.3533 C38.027,5.4053 38.081,5.4553 38.134,5.5083 C38.185,5.5623 38.235,5.6163 38.287,5.6703 C38.312,5.6983 38.339,5.7243 38.363,5.7523 L38.437,5.8363 C38.485,5.8933 38.535,5.9483 38.583,6.0063 L38.723,6.1823 C38.745,6.2113 38.77,6.2403 38.792,6.2693 L38.857,6.3603 C39.211,6.8433 39.516,7.3633 39.759,7.9013 C40.005,8.4383 40.198,8.9893 40.35,9.5323 C40.385,9.6683 40.423,9.8033 40.456,9.9373 C40.486,10.0733 40.517,10.2063 40.547,10.3393 C40.599,10.6053 40.651,10.8663 40.688,11.1213 C40.731,11.3773 40.758,11.6273 40.788,11.8693 C40.802,11.9903 40.811,12.1093 40.822,12.2263 C40.833,12.3433 40.845,12.4583 40.851,12.5713 C40.857,12.6833 40.864,12.7943 40.871,12.9023 C40.874,12.9553 40.878,13.0093 40.88,13.0623 C40.882,13.1153 40.884,13.1673 40.885,13.2183 C40.889,13.3213 40.892,13.4213 40.895,13.5193 C40.896,13.5683 40.898,13.6163 40.898,13.6633 C40.899,13.7103 40.899,13.7573 40.899,13.8033 C40.899,13.9873 40.903,14.1593 40.901,14.3173 C40.897,14.4763 40.895,14.6223 40.892,14.7543 C40.89,14.8203 40.89,14.8833 40.887,14.9413 C40.884,15.0003 40.882,15.0553 40.879,15.1063 C40.874,15.2083 40.87,15.2953 40.867,15.3663 C40.86,15.5073 40.857,15.5823 40.857,15.5823 C40.857,15.5823 40.861,15.5073 40.87,15.3663 C40.874,15.2963 40.879,15.2093 40.885,15.1063 C40.889,15.0553 40.892,15.0003 40.895,14.9423 C40.898,14.8833 40.899,14.8213 40.902,14.7553 C40.906,14.6223 40.911,14.4763 40.917,14.3183 C40.921,14.1593 40.92,13.9873 40.922,13.8033 C40.922,13.7573 40.923,13.7103 40.923,13.6623 C40.924,13.6153 40.922,13.5673 40.921,13.5183 C40.919,13.4213 40.917,13.3203 40.915,13.2173 C40.914,13.1653 40.912,13.1133 40.911,13.0603 C40.91,13.0083 40.907,12.9543 40.904,12.9003 C40.899,12.7923 40.894,12.6813 40.889,12.5683 C40.884,12.4553 40.873,12.3403 40.864,12.2233 C40.854,12.1053 40.847,11.9853 40.835,11.8643 C40.807,11.6213 40.784,11.3703 40.744,11.1133 C40.71,10.8563 40.661,10.5943 40.611,10.3253 C40.583,10.1923 40.555,10.0573 40.525,9.9213 C40.494,9.7863 40.457,9.6503 40.424,9.5123 C40.278,8.9643 40.09,8.4073 39.849,7.8613 C39.609,7.3143 39.309,6.7843 38.956,6.2893 L38.89,6.1963 C38.867,6.1653 38.844,6.1363 38.82,6.1063 L38.681,5.9263 C38.634,5.8673 38.583,5.8093 38.534,5.7513 L38.461,5.6643 C38.437,5.6363 38.41,5.6093 38.385,5.5803 C38.333,5.5253 38.281,5.4703 38.23,5.4143 C38.178,5.3603 38.123,5.3083 38.07,5.2543 L37.989,5.1743 L37.906,5.0993 C37.851,5.0483 37.795,4.9973 37.739,4.9473 C37.722,4.9333 37.705,4.9183 37.687,4.9043 L38.12,3.5053 L38.146,3.5233 C38.205,3.5673 38.266,3.6103 38.325,3.6563 C38.383,3.7023 38.44,3.7483 38.499,3.7953 C38.527,3.8193 38.558,3.8413 38.585,3.8663 L38.67,3.9403 C38.726,3.9893 38.782,4.0373 38.837,4.0883 L38.999,4.2433 C39.025,4.2693 39.054,4.2943 39.08,4.3213 L39.157,4.4023 C39.572,4.8333 39.944,5.3083 40.258,5.8083 C40.573,6.3083 40.839,6.8273 41.062,7.3453 C41.115,7.4753 41.171,7.6033 41.222,7.7323 C41.271,7.8623 41.318,7.9903 41.366,8.1173 C41.453,8.3743 41.541,8.6253 41.611,8.8743 C41.689,9.1213 41.748,9.3663 41.812,9.6013 C41.841,9.7193 41.866,9.8363 41.893,9.9513 C41.919,10.0653 41.946,10.1773 41.967,10.2883 C41.989,10.3993 42.011,10.5073 42.032,10.6133 C42.042,10.6663 42.054,10.7193 42.062,10.7713 C42.071,10.8233 42.08,10.8743 42.089,10.9253 C42.105,11.0273 42.122,11.1253 42.139,11.2223 C42.146,11.2703 42.155,11.3173 42.162,11.3643 C42.169,11.4113 42.176,11.4573 42.182,11.5023 C42.207,11.6843 42.233,11.8543 42.252,12.0123 C42.271,12.1703 42.287,12.3153 42.302,12.4463 C42.309,12.5123 42.317,12.5743 42.322,12.6323 C42.327,12.6913 42.332,12.7453 42.337,12.7973 C42.346,12.8993 42.354,12.9863 42.359,13.0563 C42.372,13.1973 42.379,13.2723 42.379,13.2723 C42.379,13.2723 42.373,13.1973 42.362,13.0563 L42.362,13.0563 Z" mask="url(#soup_icon_11-b)"/>
    </g>
    <g transform="translate(0 4.895)">
      <mask id="soup_icon_11-d" fill="#fff">
        <use xlink:href="#soup_icon_11-c"/>
      </mask>
      <path fill="#FFB8AC" d="M28.8506,18.3034 C28.9516,18.3204 29.0486,18.3524 29.1406,18.3974 C29.6136,18.6274 29.7806,19.1034 29.7366,19.4764 L29.5946,20.4494 L29.5906,20.4764 C29.5666,20.6764 29.4256,20.8344 29.3136,20.9314 C29.0046,21.1964 28.5586,21.3094 28.1186,21.2354 C26.4926,20.9614 24.9246,20.4594 23.4596,19.7444 C21.9956,19.0294 20.6356,18.1024 19.4186,16.9894 C19.0896,16.6884 18.9046,16.2664 18.9236,15.8604 C18.9306,15.7114 18.9686,15.5044 19.1116,15.3614 L19.8106,14.6314 C20.1786,14.2664 20.6866,14.2704 21.0276,14.4364 C21.1196,14.4814 21.2046,14.5394 21.2776,14.6054 C22.3366,15.5754 23.5216,16.3834 24.7966,17.0054 C26.0736,17.6284 27.4386,18.0654 28.8506,18.3034 L28.8506,18.3034 Z M16.6706,43.2574 C16.7716,43.2754 16.8696,43.3064 16.9606,43.3514 C17.4336,43.5814 17.6006,44.0574 17.5566,44.4304 L17.4146,45.4044 L17.4116,45.4304 C17.3856,45.6304 17.2466,45.7884 17.1336,45.8854 C16.8256,46.1504 16.3786,46.2634 15.9386,46.1894 C14.3126,45.9154 12.7456,45.4134 11.2806,44.6984 C9.8156,43.9834 8.4556,43.0564 7.2396,41.9434 C6.9106,41.6424 6.7256,41.2204 6.7446,40.8144 C6.7506,40.6654 6.7886,40.4584 6.9316,40.3154 L7.6306,39.5864 C7.9986,39.2214 8.5066,39.2244 8.8476,39.3914 C8.9396,39.4364 9.0246,39.4934 9.0976,39.5604 C10.1576,40.5294 11.3416,41.3374 12.6176,41.9594 C13.8936,42.5824 15.2586,43.0194 16.6706,43.2574 L16.6706,43.2574 Z M28.7346,15.5424 C29.8276,16.0754 31.1256,15.6024 31.6596,14.5114 L34.0366,9.6404 C34.5686,8.5484 34.1236,7.2714 33.0316,6.7384 L31.3706,5.9264 C31.5016,5.6554 31.5806,5.4414 31.6636,5.1624 L32.8936,1.0454 C33.1836,0.0754 32.9416,-0.0466 32.3556,0.7784 L29.8636,4.2854 C29.6956,4.5224 29.5756,4.7154 29.4426,4.9864 L27.8066,4.1874 C26.7146,3.6544 25.4256,4.0864 24.8926,5.1784 L22.5156,10.0484 C21.9826,11.1404 22.4166,12.4584 23.5096,12.9914 L25.1356,13.7854 L24.8636,14.3444 C24.0836,13.8784 23.3896,13.3564 22.7346,12.7564 C22.5376,12.5774 22.3106,12.4254 22.0746,12.3104 C20.9156,11.7444 19.5206,12.0264 18.5236,13.0294 L17.8226,13.7594 C17.2366,14.3534 16.8896,15.1644 16.8476,16.0454 C16.7966,17.1224 17.2206,18.1494 17.9886,18.8494 C19.0436,19.8154 20.1926,20.6514 21.4406,21.3564 L21.3646,21.5124 C19.2456,21.0454 17.0796,22.0674 16.1016,24.0704 C15.1236,26.0724 15.6506,28.4094 17.3236,29.7924 L17.2696,29.9044 L15.6426,29.1104 C14.5496,28.5774 13.2466,29.0404 12.7126,30.1324 L10.3356,35.0024 C9.8026,36.0954 10.2526,37.3814 11.3456,37.9144 L12.9716,38.7084 L12.6836,39.2994 C11.9046,38.8334 11.2086,38.3104 10.5516,37.7094 C10.3556,37.5314 10.1296,37.3794 9.8936,37.2634 C8.7356,36.6984 7.3396,36.9804 6.3436,37.9834 L5.6426,38.7134 C5.0556,39.3074 4.7096,40.1184 4.6676,40.9994 C4.6176,42.0764 5.0386,43.1014 5.8066,43.8034 C6.8636,44.7704 8.0116,45.6054 9.2606,46.3114 L9.1856,46.4664 C7.0666,45.9974 4.8856,47.0134 3.9076,49.0164 C2.9286,51.0214 3.4876,53.3744 5.1276,54.7404 L-0.0004,65.2444 L2.0276,66.2334 L7.1516,55.7284 C9.2396,56.1844 11.4566,55.1854 12.4366,53.1794 C13.4156,51.1734 12.8256,48.8034 11.2176,47.4564 L11.2926,47.3034 C12.6176,47.8544 13.9636,48.2364 15.3776,48.4744 C16.4036,48.6484 17.4546,48.3424 18.2726,47.6384 C18.9406,47.0644 19.3646,46.2914 19.4716,45.4634 L19.6116,44.4854 L19.6156,44.4614 C19.7926,43.0584 19.1596,41.7864 18.0006,41.2204 C17.7646,41.1054 17.5116,41.0244 17.2466,40.9784 C16.3686,40.8304 15.5166,40.5834 14.6946,40.2664 L14.9766,39.6874 L16.5706,40.4644 C17.6626,40.9974 18.9466,40.5574 19.4786,39.4654 L21.8556,34.5954 C22.3886,33.5024 21.9596,32.1934 20.8676,31.6604 L19.3006,30.8954 L19.3536,30.7864 C21.4036,31.2264 23.6526,30.2404 24.6316,28.2334 C25.6126,26.2254 25.0056,23.8464 23.3986,22.5014 L23.4726,22.3494 C24.7966,22.9004 26.1446,23.2834 27.5596,23.5214 C28.5846,23.6954 29.6346,23.3884 30.4536,22.6854 C31.1216,22.1114 31.5446,21.3374 31.6526,20.5094 L31.7926,19.5324 L31.7956,19.5074 C31.9736,18.1044 31.3396,16.8324 30.1816,16.2674 C29.9446,16.1514 29.6926,16.0704 29.4266,16.0244 C28.5466,15.8754 27.6866,15.6444 26.8626,15.3264 L27.1366,14.7624 L28.7346,15.5424 Z" mask="url(#soup_icon_11-d)"/>
    </g>
    <polygon fill="#A5B6F3" points="30.195 49.084 11.699 67.58 6.28 62.161 24.776 43.665 6.28 25.171 11.699 19.752 30.195 38.246 48.689 19.752 54.108 25.171 35.614 43.665 54.108 62.161 48.69 67.581"/>
    <path fill="#FFF" d="M48.6895,18.3375 L47.2755,19.7515 L30.1955,36.8325 L13.1135,19.7515 L11.6995,18.3375 L10.2855,19.7515 L6.2805,23.7565 L4.8665,25.1705 L6.2805,26.5855 L23.3615,43.6655 L6.2805,60.7465 L4.8665,62.1615 L6.2805,63.5755 L10.2855,67.5805 L11.6995,68.9945 L13.1135,67.5805 L30.1955,50.4985 L47.2765,67.5805 L48.6915,68.9945 L50.1055,67.5795 L54.1085,63.5745 L55.5225,62.1605 L54.1085,60.7465 L37.0285,43.6655 L54.1085,26.5855 L55.5225,25.1705 L54.1085,23.7565 L50.1035,19.7515 L48.6895,18.3375 Z M48.6895,21.1665 L52.6945,25.1705 L34.2005,43.6655 L52.6945,62.1615 L48.6905,66.1655 L30.1955,47.6705 L11.6995,66.1655 L7.6945,62.1615 L26.1905,43.6655 L7.6945,25.1705 L11.6995,21.1665 L30.1955,39.6605 L48.6895,21.1665 Z"/>
  </g>
</svg>
