<svg xmlns="http://www.w3.org/2000/svg" xmlns:xlink="http://www.w3.org/1999/xlink" width="100" height="118" viewBox="0 0 100 118">
  <defs>
    <polygon id="soup_s_honest-a" points="0 117.671 79.24 117.671 79.24 0 0 0"/>
  </defs>
  <g fill="none" fill-rule="evenodd">
    <path fill="#628A40" d="M75.5683759,11.4984883 C77.088907,11.4984883 78.3207763,10.266619 78.3207763,8.74608784 L78.3207763,3.67152196 C78.3207763,2.15282942 77.088907,0.919121553 75.5683759,0.919121553 L3.6713381,0.919121553 C2.15080695,0.919121553 0.918937692,2.15282942 0.918937692,3.67152196 L0.918937692,8.74608784 C0.918937692,10.266619 2.15080695,11.4984883 3.6713381,11.4984883 L5.45295199,11.4984883 L5.45295199,17.3268846 C5.45295199,17.3268846 0.918937692,17.4353626 0.918937692,22.1844944 L0.918937692,106.387354 C0.918937692,112.112789 5.55959142,116.751604 11.2831869,116.751604 L39.4580592,116.751604 L39.7816547,116.751604 L67.9565271,116.751604 C73.6819612,116.751604 78.3207763,112.112789 78.3207763,106.387354 L78.3207763,22.1844944 C78.3207763,17.4353626 73.786762,17.3268846 73.786762,17.3268846 L73.786762,11.4984883 L75.5683759,11.4984883 Z"/>
    <path stroke="#628A40" d="M75.5683759,11.4984883 C77.088907,11.4984883 78.3207763,10.266619 78.3207763,8.74608784 L78.3207763,3.67152196 C78.3207763,2.15282942 77.088907,0.919121553 75.5683759,0.919121553 L3.6713381,0.919121553 C2.15080695,0.919121553 0.918937692,2.15282942 0.918937692,3.67152196 L0.918937692,8.74608784 C0.918937692,10.266619 2.15080695,11.4984883 3.6713381,11.4984883 L5.45295199,11.4984883 L5.45295199,17.3268846 C5.45295199,17.3268846 0.918937692,17.4353626 0.918937692,22.1844944 L0.918937692,106.387354 C0.918937692,112.112789 5.55959142,116.751604 11.2831869,116.751604 L39.4580592,116.751604 L39.7816547,116.751604 L67.9565271,116.751604 C73.6819612,116.751604 78.3207763,112.112789 78.3207763,106.387354 L78.3207763,22.1844944 C78.3207763,17.4353626 73.786762,17.3268846 73.786762,17.3268846 L73.786762,11.4984883 L75.5683759,11.4984883 Z"/>
    <mask id="soup_s_honest-b" fill="#fff">
      <use xlink:href="#soup_s_honest-a"/>
    </mask>
    <polygon fill="#FFF" points=".919 103.258 78.321 103.258 78.321 30.931 .919 30.931" mask="url(#soup_s_honest-b)"/>
    <polygon fill="#B4B5B5" points="4.79 99.642 74.451 99.642 74.451 34.547 4.79 34.547" mask="url(#soup_s_honest-b)"/>
    <path fill="#FFB8AC" d="M4.78902962,34.6535853 C23.3442901,34.6535853 38.3859653,49.2025128 38.3859653,67.1473544 C38.3859653,85.0940347 23.3442901,99.6411236 4.78902962,99.6411236 L4.78902962,34.6535853 Z" mask="url(#soup_s_honest-b)"/>
    <path fill="#A5B6F3" d="M4.78902962,99.6413075 C4.78902962,81.0106639 20.4043514,65.9083146 39.6656384,65.9083146 C58.9269254,65.9083146 74.5422472,81.0106639 74.5422472,99.6413075 L4.78902962,99.6413075 Z" mask="url(#soup_s_honest-b)"/>
    <path fill="#FFF" d="M24.481287 94.6606946C24.2496221 94.9383248 23.9315424 95.1093156 23.5803677 95.1093156 23.3211236 95.1093156 23.0912972 95.0192237 22.9258223 94.8519101 22.7603473 94.6845965 22.6592237 94.4363841 22.6592237 94.1238202 22.6592237 93.6991011 22.8026353 93.3166701 23.0343003 93.0390398 23.2641267 92.7632482 23.5840449 92.594096 23.9352196 92.594096 24.1944637 92.594096 24.4242901 92.6841879 24.5897651 92.8515015 24.7534014 93.0169765 24.854525 93.2633504 24.854525 93.5740756 24.854525 93.9987947 24.7111134 94.3830644 24.481287 94.6606946M23.9683146 91.9487436C23.3707661 91.9487436 22.8504392 92.211665 22.4827171 92.6161593 22.1149949 93.0188151 21.8962002 93.5612053 21.8962002 94.1238202 21.8962002 94.5558938 22.0451277 94.9622268 22.3264351 95.2600817 22.605904 95.5579367 23.0195914 95.7473136 23.5454341 95.7473136 24.1448212 95.7473136 24.6633095 95.4843922 25.0310317 95.0817365 25.4005924 94.6790807 25.6193871 94.1385291 25.6193871 93.58143 25.6193871 93.1438407 25.4704597 92.7356691 25.1891522 92.4378141 24.9078447 92.1381205 24.4941573 91.9487436 23.9683146 91.9487436M28.7878652 94.6606946C28.5562002 94.9383248 28.2381205 95.1093156 27.8869459 95.1093156 27.6277017 95.1093156 27.3978754 95.0192237 27.2324004 94.8519101 27.0669254 94.6845965 26.9676404 94.4363841 26.9658018 94.1238202 26.9658018 93.6991011 27.1092135 93.3166701 27.3408784 93.0390398 27.5707048 92.7632482 27.8906231 92.594096 28.2417978 92.594096 28.5010419 92.594096 28.7308682 92.6841879 28.8963432 92.8515015 29.0599796 93.0169765 29.1611032 93.2633504 29.1611032 93.5740756 29.1611032 93.9987947 29.0176915 94.3830644 28.7878652 94.6606946M28.2748927 91.9487436C27.6773442 91.9487436 27.158856 92.211665 26.7892952 92.6161593 26.421573 93.0188151 26.2027783 93.5612053 26.2027783 94.1238202 26.2027783 94.5558938 26.3517058 94.9622268 26.6330133 95.2600817 26.9124821 95.5579367 27.3261696 95.7473136 27.8520123 95.7473136 28.4513994 95.7473136 28.9698876 95.4843922 29.3376098 95.0817365 29.7071706 94.6790807 29.9259653 94.1385291 29.9259653 93.58143 29.9259653 93.1438407 29.7770378 92.7356691 29.4957303 92.4378141 29.2144229 92.1381205 28.8025741 91.9487436 28.2748927 91.9487436M34.2597549 94.6255771L34.2560776 94.6347702C34.1715015 94.8664351 34.0906027 95.013524 34.0115424 95.1017773 33.9343207 95.1900306 33.8607763 95.2194484 33.7927477 95.2194484 33.7228805 95.2194484 33.6695608 95.1955465 33.6327886 95.1514198 33.5941777 95.1072932 33.573953 95.0429418 33.573953 94.9602043 33.573953 94.8940143 33.5996936 94.7763432 33.6235955 94.6660266L33.937998 93.5922778C33.9968335 93.3808376 34.0299285 93.1767518 34.0299285 92.9984065 34.0299285 92.6711338 33.9214505 92.4100511 33.7431052 92.2317058 33.5629213 92.0533606 33.3128703 91.9559142 33.0315628 91.9559142 32.7796731 91.9559142 32.5351379 92.0588764 32.3163432 92.2243514 32.114096 92.3787947 31.9357508 92.5865577 31.7960163 92.8200613L32.0534219 92.0165884 31.3051073 92.0165884 30.4060266 95.6791011 31.1708887 95.6791011 31.6636364 93.6934014C31.7555669 93.3311951 31.9081716 93.0554035 32.0901941 92.8715424 32.2740552 92.6876813 32.4891726 92.5939122 32.7098059 92.5939122 32.8734423 92.5939122 33.0076609 92.6453933 33.10143 92.7373238 33.1951992 92.8274157 33.2503575 92.9579571 33.2503575 93.1160776 33.2503575 93.2337487 33.2319714 93.3422268 33.1896834 93.4856384L32.8789581 94.5851277 32.8789581 94.5851277C32.8440245 94.7211849 32.818284 94.881144 32.818284 95.0024923 32.818284 95.2157712 32.8881512 95.3996323 33.0242084 95.5301736 33.1565884 95.660715 33.3551583 95.7379367 33.607048 95.7379367 33.8331971 95.7379367 34.0336057 95.6588764 34.2027579 95.4970787 34.3719101 95.3352809 34.5079673 95.088907 34.6035751 94.7597957L34.6072523 94.7506027 34.2597549 94.6255771zM20.1406946 94.6068233C19.9145455 94.891808 19.6019816 95.0775077 19.2471297 95.0775077 18.9658223 95.0775077 18.7507048 94.9892543 18.6054545 94.8366496 18.4565271 94.6840449 18.3793054 94.4670889 18.3793054 94.2023289 18.3793054 93.8015117 18.5319101 93.4025332 18.7709295 93.1046782 19.0117875 92.8068233 19.3390603 92.6119305 19.6939122 92.6119305 19.9531563 92.6119305 20.1535649 92.7056997 20.2914607 92.8693361 20.4275179 93.0329724 20.5010623 93.2646374 20.5010623 93.5367518 20.5010623 93.9357303 20.3650051 94.32 20.1406946 94.6068233M20.92762 92.3673953C20.6977937 92.1081512 20.3631665 91.9592237 19.9384474 91.9592237 19.6920735 91.9592237 19.4530541 92.0456384 19.2434525 92.1835342 19.0467211 92.312237 18.8830848 92.4850664 18.7470276 92.6707661L19.4126047 89.9808784C19.1993258 90.1261287 19.0154648 90.2364454 18.7268029 90.2364454 18.447334 90.2364454 18.1568335 90.1849642 17.9362002 90.1224515 17.7155669 90.082002 17.4526456 90.0286823 17.1970787 90.0286823 16.2869663 90.0286823 15.9045352 90.753095 15.9045352 91.3432891 15.9045352 91.5933401 15.9615322 91.8047804 16.0516241 92.0088662 15.9063739 91.9757712 15.7500919 91.9592237 15.584617 91.9592237 15.1304801 91.9592237 14.7793054 92.0860878 14.540286 92.2864964 14.3012666 92.486905 14.1744025 92.7626966 14.1744025 93.0568744 14.1744025 93.3492135 14.299428 93.5624923 14.4851277 93.7279673 14.672666 93.8934423 14.9227171 94.012952 15.1746067 94.1269459L15.1764454 94.1269459C15.3786925 94.2170378 15.5699081 94.2979367 15.7096425 94.395383 15.7795097 94.4450255 15.8365066 94.4965066 15.8751175 94.5553422 15.9155669 94.6123391 15.9357916 94.6766905 15.9357916 94.7502349 15.9357916 94.8219408 15.9174055 94.8844535 15.8824719 94.9396118 15.8291522 95.0205107 15.7427375 95.0830235 15.6324208 95.1253115 15.5202656 95.165761 15.3878856 95.1878243 15.2463126 95.1878243 14.9870684 95.1878243 14.7443718 95.1289888 14.5770582 95.0462513 14.5218999 95.0131563 14.4832891 94.9892543 14.4520327 94.9598366 14.4998366 94.8991624 14.5329316 94.8090705 14.5329316 94.7244944 14.5329316 94.6123391 14.4888049 94.5093769 14.4152605 94.4339939 14.341716 94.3586108 14.2387538 94.3108069 14.1174055 94.3108069 13.99238 94.3108069 13.8820633 94.362288 13.8030031 94.4487028 13.7239428 94.5351175 13.6779775 94.6546272 13.6779775 94.792523 13.6779775 94.9727068 13.7643922 95.1363432 13.9078039 95.2797549L13.9078039 95.2797549C14.1799183 95.5610623 14.6708274 95.746762 15.2297651 95.746762 15.6618386 95.746762 16.0240449 95.647477 16.2796118 95.4562615 16.5351788 95.2668846 16.6822676 94.9855771 16.6822676 94.6233708 16.6822676 94.3383861 16.5590807 94.1269459 16.3770582 93.9596323 16.1931971 93.7923187 15.9468233 93.6672932 15.6967722 93.5532993 15.4871706 93.4558529 15.2922778 93.3675996 15.1488662 93.2683146 15.078999 93.2205107 15.0201634 93.1690296 14.9815526 93.1138713 14.9411032 93.0568744 14.9208784 92.9980388 14.9208784 92.9300102 14.9208784 92.8031461 14.9907457 92.7038611 15.1084168 92.6339939 15.2279265 92.5641267 15.3915628 92.5273544 15.5754239 92.5273544 15.7611236 92.5273544 15.9357916 92.5604494 16.0608172 92.6100919 16.1214913 92.6321553 16.1545863 92.6542186 16.1784883 92.6707661 16.1214913 92.7682125 16.1049438 92.8288866 16.1049438 92.9042697 16.1049438 93.1285802 16.2961593 93.3197957 16.5278243 93.3197957 16.6454954 93.3197957 16.7539734 93.2719918 16.8311951 93.1892543 16.9102554 93.1065169 16.9598979 92.9870072 16.9598979 92.8454341 16.9598979 92.6744433 16.8826762 92.5016139 16.746619 92.3655567 16.6675587 92.2846578 16.5682737 92.212952 16.4542799 92.1541164 16.373381 91.9776098 16.3218999 91.7808784 16.3218999 91.5602451 16.3218999 90.8891522 16.788907 90.578427 17.162145 90.578427 17.3423289 90.578427 17.5960572 90.58762 17.8166905 90.6096834 18.0134219 90.6391011 18.2671502 90.6611645 18.480429 90.6611645L18.4822676 90.6611645 17.3037181 95.6787334 18.074096 95.6787334 18.2358938 94.9396118C18.3682737 95.4139734 18.8095403 95.746762 19.3390603 95.746762 19.8704188 95.746762 20.3558121 95.4856793 20.7088253 95.066476 21.06 94.6472727 21.2806333 94.0699489 21.2806333 93.4356282 21.2806333 92.9962002 21.1574464 92.6266394 20.92762 92.3673953" mask="url(#soup_s_honest-b)"/>
    <polygon fill="#FFF" points="51.915 53.812 53.8 53.812 53.632 54.54 51.746 54.54" mask="url(#soup_s_honest-b)"/>
    <path fill="#FFF" d="M67.5854954,51.0017773 L67.3446374,51.0017773 C67.3446374,53.7321144 66.2377937,56.2032074 64.4469867,57.9940143 C62.6580184,59.7829826 60.1869254,60.8898264 57.4565884,60.8898264 C54.7244127,60.8898264 52.2551583,59.7829826 50.4643514,57.9940143 C48.6735444,56.2032074 47.5685393,53.7321144 47.5685393,51.0017773 C47.5685393,48.2696016 48.6735444,45.7985087 50.4643514,44.0095403 C52.2551583,42.220572 54.7244127,41.1137283 57.4565884,41.1137283 C60.1869254,41.1137283 62.6580184,42.220572 64.4469867,44.0095403 C66.2377937,45.7985087 67.3446374,48.2696016 67.3446374,51.0017773 L67.5854954,51.0017773 L67.8263534,51.0017773 C67.8263534,48.1372217 66.66619,45.5447804 64.7889683,43.6675587 C62.9135853,41.7921757 60.3193054,40.6301736 57.4565884,40.6301736 C54.5938713,40.6301736 51.9977528,41.7921757 50.1223698,43.6675587 C48.2451481,45.5447804 47.0849847,48.1372217 47.0849847,51.0017773 C47.0849847,53.8644944 48.2451481,56.4587743 50.1223698,58.3341573 C51.9977528,60.211379 54.5938713,61.373381 57.4565884,61.373381 C60.3193054,61.373381 62.9135853,60.211379 64.7889683,58.3341573 C66.66619,56.4587743 67.8263534,53.8644944 67.8263534,51.0017773 L67.5854954,51.0017773 Z" mask="url(#soup_s_honest-b)"/>
    <path fill="#FFF" d="M59.5531563 48.2230848C59.3692952 48.4565884 59.1137283 48.6073544 58.8250664 48.6073544 58.59524 48.6073544 58.4187334 48.5356486 58.2992237 48.4124617 58.179714 48.2874362 58.1172012 48.1090909 58.1172012 47.8939734 58.1172012 47.5648621 58.2403882 47.239428 58.4352809 46.9967314 58.6320123 46.7540347 58.9004494 46.5940756 59.1891113 46.5940756 59.4005516 46.5940756 59.5641879 46.6712972 59.6763432 46.8055158 59.7884985 46.9378958 59.8491726 47.1272727 59.8491726 47.3497446 59.8491726 47.6751788 59.7370174 47.9895812 59.5531563 48.2230848M60.1966701 46.393667C60.0091318 46.1822268 59.7351788 46.0608784 59.3895199 46.0608784 59.1872727 46.0608784 58.99238 46.1325843 58.8213892 46.2447395 58.6595914 46.3495403 58.5272114 46.4911134 58.4150562 46.6437181L58.959285 44.4465781C58.7864556 44.5660878 58.6338509 44.6561798 58.4003473 44.6561798 58.1705209 44.6561798 57.9351788 44.6120531 57.7531563 44.5624106 57.5729724 44.527477 57.357855 44.485189 57.1500919 44.485189 56.4072932 44.485189 56.0947293 45.0772217 56.0947293 45.5589377 56.0947293 45.7630235 56.1406946 45.9358529 56.2160776 46.1031665 56.0965679 46.0774259 55.9678652 46.0608784 55.8336466 46.0608784 55.4640858 46.0608784 55.1754239 46.1656793 54.9805312 46.3293156 54.7856384 46.492952 54.6826762 46.7172625 54.6826762 46.9581205 54.6826762 47.1971399 54.7837998 47.3699694 54.9364045 47.5060266 55.0890092 47.6420838 55.293095 47.7395301 55.4990194 47.8332993 55.6644944 47.9050051 55.8207763 47.9711951 55.9347702 48.0502554 55.9917671 48.0907048 56.039571 48.1329928 56.0708274 48.1807967 56.1039224 48.2286006 56.1204699 48.2800817 56.1204699 48.3407559 56.1204699 48.3995914 56.105761 48.4510725 56.0763432 48.4951992 56.0340552 48.5613892 55.9623493 48.6128703 55.8722574 48.6459653 55.7821655 48.6808989 55.6736874 48.6974464 55.557855 48.6974464 55.3464147 48.6974464 55.1478447 48.6496425 55.0117875 48.5816139 54.9658223 48.5558733 54.9345659 48.5356486 54.9088253 48.5117467 54.9474362 48.4621042 54.9731767 48.3885598 54.9731767 48.3205312 54.9731767 48.2286006 54.9382431 48.1440245 54.8794076 48.0815117 54.8187334 48.0208376 54.7341573 47.9822268 54.6348723 47.9822268 54.5337487 47.9822268 54.4436568 48.0245148 54.3793054 48.094382 54.314954 48.1642492 54.2763432 48.2635342 54.2763432 48.3756895 54.2763432 48.5227783 54.3462104 48.6551583 54.4638815 48.7728294 54.688192 49.0026558 55.0871706 49.1552605 55.5431461 49.1552605 55.8961593 49.1552605 56.1921757 49.072523 56.4017773 48.9180797 56.6095403 48.7617978 56.7290501 48.5319714 56.7290501 48.2377937 56.7290501 48.0042901 56.6297651 47.8314607 56.4808376 47.6954035 56.3300715 47.5575077 56.1296629 47.4563841 55.9255771 47.3626149 55.7545863 47.2835546 55.5946272 47.2118488 55.4787947 47.1309499 55.4199591 47.0905005 55.3739939 47.0500511 55.3408989 47.0040858 55.3078039 46.9581205 55.2912564 46.9103166 55.2912564 46.8533197 55.2912564 46.7503575 55.3482533 46.6694586 55.4456997 46.6124617 55.5413075 46.5554648 55.675526 46.526047 55.8262921 46.526047 55.9770582 46.526047 56.1204699 46.5517875 56.2215935 46.5940756 56.271236 46.6124617 56.2969765 46.6290092 56.3190398 46.6437181 56.2730746 46.7227783 56.2583657 46.7724208 56.2583657 46.833095 56.2583657 47.0169561 56.412809 47.1713994 56.6040245 47.1713994 56.6996323 47.1713994 56.7878856 47.1327886 56.852237 47.0665986 56.9165884 46.9967314 56.9570378 46.9011236 56.9570378 46.7852911 56.9570378 46.6455567 56.894525 46.5058223 56.7823698 46.393667 56.7180184 46.327477 56.6371195 46.2704801 56.5433504 46.2208376 56.4771604 46.0774259 56.4348723 45.9174668 56.4348723 45.7354443 56.4348723 45.1875383 56.8173034 44.93381 57.1225128 44.93381 57.267763 44.93381 57.4773647 44.9430031 57.6575485 44.9595506 57.8156691 44.9852911 58.0234321 45.0018386 58.1981001 45.0018386L58.1999387 45.0018386 57.2383453 49.1001021 57.8671502 49.1001021 57.9995301 48.4951992C58.1061696 48.8831461 58.4665373 49.1552605 58.9004494 49.1552605 59.332523 49.1552605 59.7296629 48.9419816 60.0164862 48.6 60.3051481 48.2580184 60.4834934 47.7854954 60.4834934 47.2670072 60.4834934 46.908478 60.3842084 46.6069459 60.1966701 46.393667M63.3776507 54.91857L63.3758121 54.9259244C63.3059448 55.1134627 63.2397549 55.2329724 63.1772421 55.3046782 63.1128907 55.3763841 63.0540552 55.400286 62.9970582 55.400286 62.9418999 55.400286 62.8977732 55.3800613 62.8683555 55.3451277 62.8389377 55.3101941 62.8205516 55.2568744 62.8205516 55.1888458 62.8205516 55.1373647 62.8407763 55.0399183 62.8628396 54.951665L63.1147293 54.0801634C63.1643718 53.9091726 63.191951 53.7436977 63.191951 53.5984474 63.191951 53.3318488 63.1036977 53.1204086 62.9566088 52.9751583 62.8113585 52.8299081 62.6091113 52.7526864 62.3811236 52.7526864 62.1770378 52.7526864 61.9766292 52.8354239 61.8001226 52.9696425 61.6364862 53.094668 61.491236 53.2638202 61.3790807 53.4531971L61.5868437 52.8004903 60.9782635 52.8004903 60.2501736 55.773524 60.8716241 55.773524 61.2706027 54.1629009C61.3459857 53.8687232 61.4691726 53.6462513 61.6162615 53.4954852 61.7670276 53.3465577 61.939857 53.2711747 62.1200409 53.2711747 62.2524208 53.2711747 62.3608989 53.3116241 62.4381205 53.3870072 62.5135036 53.4605516 62.5576302 53.5653524 62.5576302 53.6940552 62.5576302 53.7896629 62.54476 53.8779162 62.5098264 53.9937487L62.2560981 54.885475C62.2285189 54.9957916 62.2082942 55.126333 62.2082942 55.2237794 62.2082942 55.3966088 62.2652911 55.5473749 62.3737692 55.6521757 62.4840858 55.7606537 62.6440449 55.8213279 62.8462921 55.8213279 63.0319918 55.8213279 63.1937896 55.7588151 63.3316854 55.6264351 63.4677426 55.4940552 63.5780592 55.2954852 63.6571195 55.027048L63.6607967 55.0196936 63.3776507 54.91857z" mask="url(#soup_s_honest-b)"/>
  </g>
</svg>
