<svg xmlns="http://www.w3.org/2000/svg" width="205" height="46" viewBox="0 0 205 46">
  <path fill="#A5B6F3" fill-rule="evenodd" d="M116.776,1434 L129.976,1434 L129.976,1429.152 L125.8,1429.152 L125.8,1420.896 L135.112,1420.896 L135.112,1416.24 L125.8,1416.24 L125.8,1407.216 L134.872,1407.216 L134.872,1411.44 L140.056,1411.44 L140.056,1402.416 L116.776,1402.416 L116.776,1407.264 L120.376,1407.264 L120.376,1429.152 L116.776,1429.152 L116.776,1434 Z M143.08,1434 L154.696,1434 L154.696,1429.68 L151.576,1429.68 L151.576,1398.864 L143.08,1398.864 L143.08,1403.28 L146.344,1403.28 L146.344,1429.68 L143.08,1429.68 L143.08,1434 Z M164.488,1434.384 C160.888,1434.384 157.672,1432.416 157.672,1428.48 C157.672,1424.544 161.128,1422.144 166.12,1422.144 C168.28,1422.144 170.296,1422.432 171.448,1422.72 L171.448,1421.04 C171.448,1419.792 171.16,1418.832 170.632,1418.16 C169.768,1417.056 168.376,1416.624 166.504,1416.624 C165.592,1416.624 164.92,1416.768 164.44,1416.96 C164.536,1417.248 164.632,1417.728 164.632,1418.016 C164.632,1419.6 163.384,1420.752 161.8,1420.752 C160.216,1420.752 159.016,1419.648 159.016,1417.92 C159.016,1415.328 161.656,1412.592 167.368,1412.592 C170.968,1412.592 173.416,1413.6 174.904,1415.424 C176.008,1416.768 176.536,1418.592 176.536,1420.704 L176.536,1429.68 L179.656,1429.68 L179.656,1434 L171.544,1434 L171.544,1431.696 C169.864,1433.136 167.32,1434.384 164.488,1434.384 Z M166.168,1430.592 C168.04,1430.592 169.864,1429.872 171.448,1428.72 L171.448,1425.408 C170.248,1425.12 168.76,1424.928 167.128,1424.928 C164.584,1424.928 163.048,1426.08 163.048,1428 C163.048,1429.68 164.296,1430.592 166.168,1430.592 Z M191.464,1434.384 L195.208,1434.384 L203.56,1417.392 L206.008,1417.392 L206.008,1412.976 L195.304,1412.976 L195.304,1417.152 L198.472,1417.152 L193.432,1428.096 L188.392,1417.152 L191.416,1417.152 L191.416,1412.976 L180.664,1412.976 L180.664,1417.392 L183.112,1417.392 L191.464,1434.384 Z M219.064,1434.384 C212.104,1434.384 207.88,1429.344 207.88,1423.488 C207.88,1417.728 212.2,1412.592 219.064,1412.592 C226.024,1412.592 230.248,1417.632 230.248,1423.488 C230.248,1429.248 225.928,1434.384 219.064,1434.384 Z M219.064,1430.016 C222.472,1430.016 224.872,1427.328 224.872,1423.488 C224.872,1419.648 222.472,1416.96 219.064,1416.96 C215.656,1416.96 213.256,1419.648 213.256,1423.488 C213.256,1427.328 215.656,1430.016 219.064,1430.016 Z M248.2,1412.592 C245.512,1412.592 243.304,1414.896 241.528,1417.728 L241.528,1412.976 L233.368,1412.976 L233.368,1417.392 L236.488,1417.392 L236.488,1429.68 L233.368,1429.68 L233.368,1434 L245.368,1434 L245.368,1429.68 L241.72,1429.68 L241.72,1421.424 C242.68,1419.6 244.408,1417.968 245.896,1417.44 C246.328,1418.4 247.384,1419.312 248.968,1419.312 C250.696,1419.312 252.088,1417.824 252.088,1416.048 C252.088,1414.176 250.792,1412.592 248.2,1412.592 Z M259.576,1409.76 C261.448,1409.76 263.128,1408.224 263.128,1406.304 C263.128,1404.384 261.544,1402.848 259.672,1402.848 C257.8,1402.848 256.12,1404.384 256.12,1406.304 C256.12,1408.224 257.704,1409.76 259.576,1409.76 Z M254.296,1434 L265.864,1434 L265.864,1429.68 L262.744,1429.68 L262.744,1412.976 L254.296,1412.976 L254.296,1417.392 L257.512,1417.392 L257.512,1429.68 L254.296,1429.68 L254.296,1434 Z M277.048,1412.976 L268.888,1412.976 L268.888,1417.392 L272.008,1417.392 L272.008,1429.68 L268.888,1429.68 L268.888,1434 L280.12,1434 L280.12,1429.68 L277.24,1429.68 L277.24,1419.792 C278.92,1418.4 280.84,1417.344 282.664,1417.344 C283.912,1417.344 284.776,1417.824 285.256,1418.736 C285.544,1419.264 285.688,1420.032 285.688,1420.896 L285.688,1429.68 L282.808,1429.68 L282.808,1434 L294.04,1434 L294.04,1429.68 L290.92,1429.68 L290.92,1419.6 C290.92,1417.872 290.536,1416.432 289.816,1415.28 C288.712,1413.6 286.888,1412.592 284.392,1412.592 C281.32,1412.592 279.064,1414.368 277.048,1416.336 L277.048,1412.976 Z M317.32,1417.392 L317.32,1434.048 C317.32,1436.64 316.648,1438.8 315.352,1440.384 C313.624,1442.496 310.888,1443.6 307.48,1443.6 C303.832,1443.6 300.712,1442.448 299.224,1440.96 C298.408,1440.144 298.072,1439.232 298.072,1438.224 C298.072,1436.736 299.176,1435.296 300.904,1435.296 C302.536,1435.296 303.832,1436.448 303.832,1438.032 C303.832,1438.272 303.784,1438.656 303.736,1438.848 C304.6,1439.136 305.608,1439.376 306.856,1439.376 C308.728,1439.376 310.216,1438.8 311.128,1437.552 C311.752,1436.688 312.088,1435.488 312.088,1433.904 L312.088,1430.88 C310.504,1432.464 308.824,1433.568 306.04,1433.568 C300.712,1433.568 296.44,1429.488 296.44,1423.248 C296.44,1417.248 300.808,1412.592 306.28,1412.592 C308.968,1412.592 310.888,1413.648 312.28,1414.848 L312.28,1412.976 L320.44,1412.976 L320.44,1417.392 L317.32,1417.392 Z M307.384,1417.104 C304.168,1417.104 301.816,1419.216 301.816,1423.2 C301.816,1427.04 304.168,1429.152 307.384,1429.152 C309.16,1429.152 310.744,1428.336 312.088,1427.088 L312.088,1418.736 C310.84,1417.776 309.256,1417.104 307.384,1417.104 Z" transform="translate(-116 -1398)"/>
</svg>
