<svg xmlns="http://www.w3.org/2000/svg" xmlns:xlink="http://www.w3.org/1999/xlink" width="80" height="80" viewBox="0 0 80 80">
  <defs>
    <polygon id="soup_icon_8-a" points="0 .194 0 18.645 29 18.645 29 .194"/>
    <polygon id="soup_icon_8-c" points="0 72.165 76.408 72.165 76.408 0 0 0"/>
  </defs>
  <g fill="none" fill-rule="evenodd" transform="translate(2 7)">
    <path fill="#FFB8AC" d="M71.2959 32.8909C71.3549 31.0859 70.7689 24.3949 59.5719 19.9159 50.7269 16.3769 49.2569 6.9199 49.0189 3.4619L45.9999 3.4619C46.2429 7.3349 47.8689 18.4799 58.4529 22.7139 68.6039 26.7739 68.3279 32.3809 68.2799 32.8909L71.2959 32.8909zM69.6943.0002C69.6913.0092 69.6823.0292 69.6753.0462L69.8053.0462 69.6943.0002z"/>
    <g transform="translate(0 37.165)">
      <mask id="soup_icon_8-b" fill="#fff">
        <use xlink:href="#soup_icon_8-a"/>
      </mask>
      <polygon fill="#FFB8AC" points="21.619 14.016 21.619 4.823 29 4.823 29 .194 0 .194 0 18.645 29 18.645 29 14.016" mask="url(#soup_icon_8-b)"/>
    </g>
    <polygon fill="#FFB8AC" points="52.58 37.359 52 37.359 52 41.988 56.414 41.988 60.922 41.988 60.922 51.181 52 51.181 52 55.811 54.241 55.811 58.629 55.811 65.551 55.811 65.551 37.359 56.51 37.359"/>
    <mask id="soup_icon_8-d" fill="#fff">
      <use xlink:href="#soup_icon_8-c"/>
    </mask>
    <polygon fill="#FFB8AC" points="67.428 55.415 70.735 55.415 70.735 37.752 67.428 37.752" mask="url(#soup_icon_8-d)"/>
    <path fill="#FFB8AC" d="M72.585,17.1824 C68.522,12.4674 69.064,6.6244 69.789,3.4624 L66.687,3.4624 C65.904,7.3234 65.629,13.7274 70.303,19.1504 C76.043,25.8074 72.155,32.5924 71.987,32.8774 L72.01,32.8904 L75.285,32.8904 C76.419,29.9974 77.994,23.4554 72.585,17.1824" mask="url(#soup_icon_8-d)"/>
    <polygon fill="#FFB8AC" points="72.755 55.415 76.062 55.415 76.062 37.752 72.755 37.752" mask="url(#soup_icon_8-d)"/>
    <polygon fill="#A5B6F3" points="38.816 52.255 20.32 70.751 14.901 65.332 33.397 46.836 14.901 28.342 20.32 22.923 38.816 41.417 57.311 22.923 62.73 28.342 44.235 46.836 62.73 65.332 57.312 70.752" mask="url(#soup_icon_8-d)"/>
    <path fill="#FFF" d="M57.3105,21.5081 L55.8965,22.9221 L38.8155,40.0031 L21.7345,22.9221 L20.3205,21.5081 L18.9065,22.9221 L14.9015,26.9271 L13.4865,28.3411 L14.9015,29.7561 L31.9825,46.8361 L14.9015,63.9171 L13.4865,65.3321 L14.9015,66.7461 L18.9065,70.7511 L20.3205,72.1651 L21.7345,70.7511 L38.8165,53.6691 L55.8975,70.7511 L57.3115,72.1651 L58.7265,70.7501 L62.7295,66.7451 L64.1435,65.3311 L62.7295,63.9171 L45.6495,46.8361 L62.7295,29.7561 L64.1435,28.3411 L62.7295,26.9271 L58.7245,22.9221 L57.3105,21.5081 Z M57.3105,24.3371 L61.3155,28.3411 L42.8215,46.8361 L61.3155,65.3321 L57.3115,69.3361 L38.8165,50.8411 L20.3205,69.3361 L16.3155,65.3321 L34.8105,46.8361 L16.3155,28.3411 L20.3205,24.3371 L38.8165,42.8311 L57.3105,24.3371 Z" mask="url(#soup_icon_8-d)"/>
  </g>
</svg>
