<svg xmlns="http://www.w3.org/2000/svg" width="101" height="81" viewBox="0 0 101 81">
  <g fill="none" fill-rule="evenodd" transform="translate(17)">
    <path fill="#A5B6F3" d="M59.3551,14.3722 L48.6131,27.1142 C48.3831,27.3872 48.0511,27.5502 47.6961,27.5642 C47.6771,27.5652 47.6601,27.5652 47.6421,27.5652 C47.3051,27.5652 46.9821,27.4332 46.7441,27.1942 L41.7021,22.1532 C41.2061,21.6572 41.2061,20.8522 41.7021,20.3572 C42.1981,19.8612 43.0011,19.8602 43.4981,20.3562 L43.8071,20.6652 L47.5611,24.4202 L55.5611,14.9312 L57.4131,12.7352 C57.8651,12.2002 58.6661,12.1312 59.2021,12.5832 C59.7391,13.0352 59.8061,13.8362 59.3551,14.3722 M51.3111,6.3522 C48.5001,6.3522 45.8881,7.2062 43.7221,8.6702 C42.2781,9.6452 41.0321,10.8922 40.0561,12.3362 C38.5921,14.5022 37.7381,17.1142 37.7381,19.9252 C37.7381,22.7362 38.5921,25.3472 40.0561,27.5142 C41.0321,28.9582 42.2781,30.2042 43.7221,31.1802 C45.8881,32.6432 48.5001,33.4972 51.3111,33.4972 C55.9971,33.4972 60.1261,31.1242 62.5661,27.5142 C64.0301,25.3472 64.8841,22.7362 64.8841,19.9252 C64.8841,17.1142 64.0301,14.5022 62.5661,12.3362 C61.5901,10.8922 60.3441,9.6452 58.9001,8.6702 C56.7341,7.2062 54.1221,6.3522 51.3111,6.3522"/>
    <path fill="#FFB8AC" d="M3.0787 54.4386C3.0787 53.9506 3.4757 53.5526 3.9637 53.5526L25.8487 53.5526C26.3367 53.5526 26.7337 53.9506 26.7337 54.4386L26.7337 73.8766C26.7337 75.9276 25.0647 77.5966 23.0147 77.5966L6.7977 77.5966C4.7467 77.5966 3.0787 75.9276 3.0787 73.8766L3.0787 54.4386zM26.7337 48.0566L26.7337 50.7836C26.7337 51.2086 26.3887 51.5526 25.9647 51.5526L25.8487 51.5526 3.9637 51.5526 3.8487 51.5526C3.4237 51.5526 3.0787 51.2086 3.0787 50.7836L3.0787 48.0566C3.0787 47.6316 3.4237 47.2876 3.8487 47.2876L25.9647 47.2876C26.3887 47.2876 26.7337 47.6316 26.7337 48.0566L26.7337 48.0566zM26.7337 41.7906L26.7337 44.5176C26.7337 44.9426 26.3887 45.2876 25.9647 45.2876L3.8487 45.2876C3.4237 45.2876 3.0787 44.9426 3.0787 44.5176L3.0787 41.7906C3.0787 41.3656 3.4237 41.0206 3.8487 41.0206L25.9647 41.0206C26.3887 41.0206 26.7337 41.3656 26.7337 41.7906L26.7337 41.7906zM26.7337 35.5246L26.7337 38.2506C26.7337 38.6756 26.3887 39.0206 25.9647 39.0206L3.8487 39.0206C3.4237 39.0206 3.0787 38.6756 3.0787 38.2506L3.0787 35.5246C3.0787 35.0996 3.4237 34.7546 3.8487 34.7546L25.9647 34.7546C26.3887 34.7546 26.7337 35.0996 26.7337 35.5246L26.7337 35.5246zM26.7337 31.9856C26.7337 32.4106 26.3887 32.7546 25.9647 32.7546L3.8487 32.7546C3.4237 32.7546 3.0787 32.4106 3.0787 31.9856L3.0787 25.1816C3.0787 24.8736 3.0997 24.5786 3.1197 24.2816 4.4757 23.9056 8.7247 23.1886 15.3667 26.2546 20.1887 28.4816 23.4567 29.0196 25.4897 29.0196 25.9757 29.0196 26.3847 28.9866 26.7337 28.9406L26.7337 31.9856zM10.1937 12.8086L10.3417 12.6916C11.0467 12.1316 11.4507 11.2966 11.4507 10.3986L11.4507 9.7146 18.3627 9.7146 18.3627 10.3986C18.3627 11.2966 18.7667 12.1316 19.4717 12.6916L19.6177 12.8086C21.7477 14.4926 26.7337 18.4376 26.7337 25.1816L26.7337 26.9106C25.5137 27.1236 22.2527 27.2306 16.2047 24.4386 10.0317 21.5896 5.6397 21.7576 3.4397 22.1646 4.6117 17.2406 8.4057 14.2226 10.1937 12.8086L10.1937 12.8086zM19.7647 4.0006L19.7647 7.7146 10.0487 7.7146 10.0487 4.0006C10.0487 3.5086 10.4487 3.1086 10.9397 3.1086L18.8717 3.1086C19.3637 3.1086 19.7647 3.5086 19.7647 4.0006L19.7647 4.0006zM21.4817 10.4566L21.3617 10.3616C22.1987 9.8746 22.7647 8.9736 22.7647 7.9426L22.7647 4.0006C22.7647 1.8546 21.0177.1076 18.8727.1076L10.9397.1076C8.7947.1076 7.0487 1.8546 7.0487 4.0006L7.0487 7.9426C7.0487 8.9736 7.6137 9.8746 8.4507 10.3526 8.4507 10.3616 8.3307 10.4566 8.3307 10.4566 6.0737 12.2426.0787 16.9866.0787 25.1816L.0787 31.9846C.0787 32.6246.2387 33.2266.5197 33.7546.2387 34.2826.0787 34.8846.0787 35.5236L.0787 38.2506C.0787 38.8906.2387 39.4926.5197 40.0206.2387 40.5486.0787 41.1506.0787 41.7906L.0787 44.5176C.0787 45.1566.2387 45.7586.5197 46.2866.2387 46.8146.0787 47.4176.0787 48.0566L.0787 50.7836C.0787 51.4396.2477 52.0586.5437 52.5966.2467 53.1446.0787 53.7716.0787 54.4386L.0787 73.8766C.0787 77.5826 3.0937 80.5966 6.7987 80.5966L23.0147 80.5966C26.7197 80.5966 29.7337 77.5826 29.7337 73.8766L29.7337 54.4386C29.7337 53.7716 29.5647 53.1446 29.2687 52.5966 29.5647 52.0586 29.7337 51.4396 29.7337 50.7836L29.7337 48.0566C29.7337 47.4176 29.5737 46.8146 29.2927 46.2866 29.5737 45.7586 29.7337 45.1566 29.7337 44.5176L29.7337 41.7906C29.7337 41.1506 29.5737 40.5486 29.2927 40.0206 29.5737 39.4926 29.7337 38.8906 29.7337 38.2506L29.7337 35.5236C29.7337 34.8846 29.5737 34.2826 29.2927 33.7546 29.5737 33.2266 29.7337 32.6246 29.7337 31.9846L29.7337 25.1816C29.7337 16.9866 23.7387 12.2426 21.4817 10.4566L21.4817 10.4566zM60.444 76.8575C60.433 76.9915 60.319 77.0965 60.185 77.0965L42.437 77.0965C42.302 77.0965 42.189 76.9915 42.178 76.8575L40.1 50.5355C41.707 50.1735 45.797 49.7435 51.863 52.5445 56.617 54.7385 59.84 55.2685 61.845 55.2685 61.953 55.2685 62.048 55.2635 62.149 55.2605L60.444 76.8575zM63.188 42.0965L62.308 53.2435C60.735 53.3275 57.677 53.0245 52.701 50.7275 46.44 47.8385 42.046 48.0955 39.941 48.5195L39.434 42.0965 63.188 42.0965zM64.811 39.0965L37.811 39.0965C37.393 39.0965 36.993 39.2715 36.71 39.5785 36.425 39.8855 36.283 40.2975 36.316 40.7145L39.188 77.0935C39.321 78.7775 40.748 80.0965 42.437 80.0965L60.185 80.0965C61.874 80.0965 63.301 78.7775 63.434 77.0935L66.306 40.7145C66.34 40.2975 66.197 39.8855 65.913 39.5785 65.63 39.2715 65.23 39.0965 64.811 39.0965L64.811 39.0965z"/>
    <path fill="#FFB8AC" d="M47.8941,65.212 C46.2391,65.212 44.8911,63.864 44.8911,62.208 C44.8911,61.763 45.0011,61.316 45.1911,60.93 L47.8941,56.188 L50.5821,60.903 C50.7911,61.332 50.8971,61.771 50.8971,62.208 C50.8971,63.864 49.5501,65.212 47.8941,65.212 M52.3341,59.94 L48.7631,53.673 C48.5851,53.36 48.2541,53.168 47.8941,53.168 C47.5351,53.168 47.2041,53.36 47.0261,53.673 L43.4261,59.989 C43.0721,60.704 42.8911,61.45 42.8911,62.208 C42.8911,64.967 45.1351,67.212 47.8941,67.212 C50.6541,67.212 52.8971,64.967 52.8971,62.208 C52.8971,61.45 52.7171,60.704 52.3621,59.989 C52.3541,59.973 52.3441,59.956 52.3341,59.94"/>
  </g>
</svg>
