<svg xmlns="http://www.w3.org/2000/svg" xmlns:xlink="http://www.w3.org/1999/xlink" width="80" height="80" viewBox="0 0 80 80">
  <defs>
    <polygon id="soup_icon_9-a" points="55.513 74 55.513 .634 .161 .634 .161 74"/>
    <polygon id="soup_icon_9-c" points="0 .781 0 51.438 50.657 51.438 50.657 .781 0 .781"/>
  </defs>
  <g fill="none" fill-rule="evenodd" transform="translate(11 5)">
    <g transform="translate(2 .366)">
      <mask id="soup_icon_9-b" fill="#fff">
        <use xlink:href="#soup_icon_9-a"/>
      </mask>
      <path fill="#FFB8AC" d="M52.0931,48.3218 C52.0931,50.1608 49.4121,51.7738 46.3561,51.7738 L45.7091,51.7738 L45.7091,34.4348 L46.3561,34.4348 C49.4121,34.4348 52.0931,36.0478 52.0931,37.8868 L52.0931,48.3218 Z M41.0121,15.9738 L21.6421,15.9738 L3.6301,15.9738 C3.5401,15.5418 3.4921,15.0778 3.4991,14.5808 C3.5471,11.0518 6.9711,10.3948 9.0091,10.3178 C9.6961,10.2918 10.3051,9.8478 10.5251,9.2138 C11.3941,6.6948 15.1631,3.8778 18.9041,3.8778 C21.8901,3.8778 24.5801,5.1788 25.9241,7.2738 C26.1761,7.6688 26.5931,7.9388 27.0661,8.0158 C27.5271,8.0908 28.0221,7.9658 28.3901,7.6758 C29.5251,6.7828 31.0121,6.2908 32.5771,6.2908 C35.4151,6.2908 37.9051,7.9438 38.4961,10.2198 C38.6631,10.8638 39.2081,11.3398 39.8861,11.4298 C41.6341,11.6648 42.9521,12.9078 42.9521,14.3228 C42.9521,14.9338 42.7151,15.5028 42.3111,15.9738 L41.0121,15.9738 Z M42.2891,68.8468 C39.4761,69.3978 32.3621,70.5798 23.1661,70.5798 C14.0051,70.5798 6.9531,69.4008 4.1601,68.8498 L4.1601,35.5918 L4.1611,35.5918 L4.1611,19.3938 L21.6421,19.3938 L37.5931,19.3938 L42.2871,19.3938 L42.2871,35.2568 L42.2891,35.2578 L42.2891,68.8468 Z M46.3561,31.0158 L45.7091,31.0158 L45.7091,27.6928 L45.7071,27.6928 L45.7071,16.7848 C46.0801,16.0298 46.2891,15.1968 46.2891,14.3228 C46.2891,11.5848 44.3311,9.2368 41.3991,8.4318 C40.0611,5.2038 36.5411,3.0478 32.5771,3.0478 C30.8571,3.0478 29.1841,3.4548 27.7201,4.2268 C25.6181,1.9728 22.3451,0.6338 18.9041,0.6338 C14.5171,0.6338 9.6831,3.4858 7.8011,7.1548 C3.0691,7.6738 0.2181,10.4228 0.1621,14.5378 C0.1451,15.7758 0.3431,16.9168 0.7401,17.9338 L0.7401,30.2598 L0.7401,70.2338 C0.7401,71.0228 1.2801,71.7088 2.0461,71.8958 C2.3991,71.9818 10.8351,73.9998 23.1661,73.9998 C35.4941,73.9998 44.0411,71.9828 44.3981,71.8968 C45.1671,71.7118 45.7091,71.0238 45.7091,70.2338 L45.7091,55.1938 L46.3561,55.1938 C51.4901,55.1938 55.5131,52.1748 55.5131,48.3218 L55.5131,37.8868 C55.5131,34.0338 51.4901,31.0158 46.3561,31.0158 L46.3561,31.0158 Z" mask="url(#soup_icon_9-b)"/>
    </g>
    <path fill="#FFB8AC" d="M8.8421,27.7226 L8.8421,34.6726 L8.8421,34.6726 L8.8421,62.5016 L8.8421,66.9726 C12.2341,67.5296 18.0521,68.2636 25.1661,68.2636 C32.3191,68.2636 38.1891,67.5256 41.6081,66.9676 L41.6081,62.4966 L41.6081,30.0876 L41.6081,27.7226 L41.6071,27.7226 L8.8421,27.7226 Z"/>
    <polygon fill="#A5B6F3" points="25.329 52.893 6.833 71.389 1.414 65.97 19.91 47.474 1.414 28.98 6.833 23.561 25.329 42.055 43.824 23.561 49.243 28.98 30.748 47.474 49.243 65.97 43.825 71.39"/>
    <g transform="translate(0 21.366)">
      <mask id="soup_icon_9-d" fill="#fff">
        <use xlink:href="#soup_icon_9-c"/>
      </mask>
      <path fill="#FFF" d="M43.8236,0.7808 L42.4096,2.1948 L25.3286,19.2758 L8.2476,2.1948 L6.8336,0.7808 L5.4196,2.1948 L1.4146,6.1998 L-0.0004,7.6138 L1.4146,9.0288 L18.4956,26.1088 L1.4146,43.1898 L-0.0004,44.6048 L1.4146,46.0188 L5.4196,50.0238 L6.8336,51.4378 L8.2476,50.0238 L25.3296,32.9418 L42.4106,50.0238 L43.8246,51.4378 L45.2396,50.0228 L49.2426,46.0178 L50.6566,44.6038 L49.2426,43.1898 L32.1626,26.1088 L49.2426,9.0288 L50.6566,7.6138 L49.2426,6.1998 L45.2376,2.1948 L43.8236,0.7808 Z M43.8236,3.6098 L47.8286,7.6138 L29.3346,26.1088 L47.8286,44.6048 L43.8246,48.6088 L25.3296,30.1138 L6.8336,48.6088 L2.8286,44.6048 L21.3236,26.1088 L2.8286,7.6138 L6.8336,3.6098 L25.3296,22.1038 L43.8236,3.6098 Z" mask="url(#soup_icon_9-d)"/>
    </g>
  </g>
</svg>
