<svg xmlns="http://www.w3.org/2000/svg" xmlns:xlink="http://www.w3.org/1999/xlink" width="98" height="98" viewBox="0 0 98 98">
  <defs>
    <polygon id="soup_icon_2-a" points="0 .312 0 94.756 88.996 94.756 88.996 .312 0 .312"/>
  </defs>
  <g fill="none" fill-rule="evenodd" transform="translate(5 2)">
    <path fill="#FFB8AC" d="M71.9980209,50.4089451 L6.30447699,50.4089451 C5.98832218,52.2330849 5.82335565,53.9791906 5.82335565,55.9096053 C5.82335565,62.4038997 7.69086611,68.4526565 10.9164644,73.5601735 C11.322364,73.5690917 11.7878452,73.7318485 12.2663598,73.9815576 C11.911477,73.3104644 11.7781632,72.7590235 11.8649289,72.3164588 C11.9315858,71.9742235 12.1323013,71.6977599 12.445477,71.5175383 C12.7575356,71.3380599 13.097523,71.3020156 13.4289456,71.4127497 C13.8594226,71.5569269 14.2764937,71.9444963 14.6890962,72.5836326 C14.723728,71.9489553 14.8503389,71.3863667 15.13,71.0229508 C15.3672092,70.7145303 15.7001213,70.5514019 16.0933598,70.5514019 C16.4865983,70.5514019 16.8183933,70.7145303 17.0529958,71.0229508 C17.3296778,71.3867383 17.4507029,71.9493269 17.4782594,72.5840042 C17.8811799,71.9470974 18.2908033,71.5591565 18.7164393,71.4131213 C19.0474895,71.299786 19.387477,71.3350872 19.7010251,71.5160519 C20.0123389,71.6955303 20.2137992,71.9708792 20.2834351,72.3127428 C20.3731799,72.7556792 20.246569,73.3071201 19.9013682,73.9800713 C20.3925439,73.7236735 20.8710586,73.5568292 21.2844059,73.5568292 C21.7591967,73.5568292 22.1312092,73.7656633 22.3602259,74.1617792 C22.5568452,74.5014133 22.5821674,74.8707747 22.432841,75.2301031 C22.2585649,75.650744 21.8385146,76.0386849 21.3104728,76.3835213 C22.0634351,76.4232815 22.6007866,76.5916122 22.9370502,76.8918576 C23.1947406,77.1218724 23.3317782,77.4321508 23.3317782,77.7885065 C23.3314059,78.1467201 23.1936234,78.4569985 22.9333264,78.6855269 C22.5922218,78.9846576 22.0436987,79.1462997 21.2773305,79.1745406 C21.8254812,79.5193769 22.2622887,79.909919 22.4421506,80.3368769 C22.5925941,80.6939758 22.5680167,81.0622224 22.3713975,81.4022281 C22.1405188,81.8009451 21.76441,82.0116372 21.2825439,82.0116372 C20.8710586,82.0116372 20.395523,81.8499951 19.9062092,81.6025156 C20.2510377,82.2758383 20.3746695,82.8269076 20.282318,83.2691008 C20.282318,83.2694724 20.2819456,83.269844 20.2819456,83.2702156 C25.6472678,86.9400474 32.1465021,89.0867281 39.1518075,89.0867281 C57.558795,89.0867281 72.4802594,74.3174758 72.4802594,55.9501088 C72.4802594,54.0200656 72.3149205,52.2330849 71.9980209,50.4089451"/>
    <g transform="translate(0 .06)">
      <mask id="soup_icon_2-b" fill="#fff">
        <use xlink:href="#soup_icon_2-a"/>
      </mask>
      <path fill="#FFB8AC" d="M75.2891218,55.6889175 C75.2891218,75.572747 59.0780883,91.7499573 39.1517703,91.7499573 C19.2250799,91.7499573 3.01367406,75.572747 3.01367406,55.6889175 C3.01367406,35.8047164 19.2250799,19.6282493 39.1517703,19.6282493 C59.0780883,19.6282493 75.2891218,35.8047164 75.2891218,55.6889175 M78.1981929,21.5857902 C72.760628,14.687205 67.2303393,11.8244686 66.9972264,11.7081607 L66.3086866,11.3146459 L57.1569544,11.3146459 L57.1569544,6.93693341 L31.7442891,6.93693341 C21.171536,6.57240273 10.0420674,0.312210682 10.0420674,0.312210682 C10.4971218,19.716688 20.4993812,21.1120118 20.5008707,21.1120118 C17.1896238,22.9023368 14.1621343,25.2660266 11.4671845,27.9548584 C7.87180795,31.5429402 5.04950251,35.7746175 3.07772427,40.4273073 C1.03593766,45.2449834 -3.72384939e-05,50.3881732 -3.72384939e-05,55.662163 C-3.72384939e-05,60.9354095 1.03593766,66.0663368 3.07772427,70.8836414 C5.04950251,75.5359595 7.87180795,79.7197016 11.4671845,83.3074118 C15.0625611,86.895122 19.2492849,89.7151255 23.9115444,91.6826993 C28.7391427,93.7205039 33.8665109,94.7557561 39.1517703,94.7557561 C44.4362849,94.7557561 49.5636531,93.7227334 54.3919962,91.6849289 C59.0535109,89.717355 63.2409795,86.9018107 66.8356113,83.314472 C70.4306155,79.7263902 73.2540381,75.5485936 75.2254439,70.8970186 C77.2676029,66.0793425 78.3032054,60.9625357 78.3032054,55.6889175 C78.3032054,50.4160425 77.2676029,45.2992357 75.2254439,40.481188 C73.2540381,35.8292414 70.4306155,31.6510732 66.8356113,28.0637345 C64.1257661,25.3596675 60.7824941,23.0937061 57.4500213,21.298922 C57.4511385,21.3000368 57.1569544,21.30078 57.1569544,21.3015232 L57.1569544,20.0704425 L67.7587536,20.0704425 C69.3730423,21.1647777 71.3403519,23.318147 73.294628,25.8427357 C79.3935485,33.7252936 82.4858331,43.8121289 82.4858331,55.7933345 C82.4858331,57.5870039 83.9433477,59.0492141 85.7404774,59.0492141 C87.5383519,59.0492141 88.9958665,57.5988948 88.9958665,55.8048539 C88.9958665,48.3525982 87.8705192,41.421313 85.6507326,35.1953073 C83.856582,30.16248 81.3489418,25.5829936 78.1981929,21.5857902" mask="url(#soup_icon_2-b)"/>
    </g>
    <path fill="#FFF" d="M11.7436803 64.1037423C11.0633331 63.0618014 11.5977054 61.5746945 11.8594921 60.983865 12.9490904 58.5194741 16.9310025 56.9279502 19.0859941 56.4471116 18.8305381 57.37869 18.5892326 58.9438309 19.3049565 60.2533173L19.3205967 60.2800718C19.3343749 60.3016241 20.6697473 62.449048 19.8661406 63.9012252 19.3246929 64.8796241 17.8344084 65.3968786 15.5561573 65.3968786 13.5869858 65.3968786 12.3041197 64.9621173 11.7436803 64.1037423L11.7436803 64.1037423zM14.5585381 57.1538775C13.8383456 57.5529661 13.1486887 58.0159684 12.5528728 58.5402832 12.5826636 58.3017218 12.5997933 58.059073 12.6079858 57.7881832 12.6277222 57.1746866 12.5562243 56.4292752 12.4854711 55.8678014 13.4890485 56.3081366 14.1932285 56.8406264 14.5585381 57.1538775L14.5585381 57.1538775zM14.0491155 53.9645127C14.4639523 54.045148 15.024764 54.20679 15.5133331 54.4839968 15.0310946 54.7797832 14.5868393 55.179615 14.2613749 55.7199082 14.0789063 55.6021139 13.8785632 55.48209 13.6599732 55.3620661 13.7742954 55.0410116 13.9210151 54.5690911 14.0491155 53.9645127L14.0491155 53.9645127zM18.1244962 54.6508411C18.1520527 55.048815 18.2600444 55.3791593 18.3691531 55.6221798 17.516764 55.8488502 16.4994084 56.2026048 15.4857766 56.6797275 15.4053414 56.6005786 15.2597389 56.4645764 15.0564167 56.297732 15.7345297 55.0826298 17.3119523 54.7437389 18.1244962 54.6508411L18.1244962 54.6508411zM16.0983498 66.3604139C16.1456427 66.3585559 16.1910736 66.3555832 16.2376218 66.3533536 17.1000653 67.5041707 18.6305674 67.3038832 18.6305674 67.3038832 18.4451197 66.7870002 18.2094 66.4113218 17.9535715 66.1396889 19.3075632 65.8394434 20.2374084 65.2486139 20.7222536 64.368315 21.7708895 62.4672559 20.3029481 60.0132695 20.1547389 59.7750798 19.3213414 58.22889 20.2478351 56.0431923 20.2567724 56.02164L20.5915464 55.2528184 19.7566594 55.3438582C19.6334 55.3572355 19.4971071 55.3769298 19.3503874 55.402198 19.2509607 55.2398127 19.0282745 54.7957616 19.1116887 54.1956423L19.1887724 53.6442014 18.6309397 53.6416002 18.6249816 53.6416002C18.5155004 53.6416002 17.5711322 53.652748 16.5407431 54.0057593 15.4172577 53.0834707 13.7765297 52.9374355 13.6979565 52.9311184L13.2537013 52.8943309 13.1773623 53.3331798C13.0563372 54.0299127 12.898446 54.5735502 12.775559 54.9328786 12.5428184 54.834407 12.2970444 54.7396514 12.0363749 54.6530707L11.2633038 54.396673 11.401831 55.197823C11.4044377 55.2130582 11.6651071 56.7339798 11.6327096 57.7577127 11.6081322 58.5518025 11.5206218 59.0423025 11.0547682 60.3804014L11.0670569 60.3848605C11.0324251 60.4532332 10.9974209 60.5208627 10.966513 60.5907218 10.5621029 61.505207 10.0191657 63.246482 10.9262954 64.6354889 11.4107682 65.3771843 12.231877 65.8818048 13.3736092 66.1482355 13.1207598 66.4194968 12.8876469 66.7922025 12.7044335 67.3038832 12.7044335 67.3038832 14.2267431 67.5030559 15.0899314 66.3619002 15.1011029 66.3622718 15.1115297 66.363015 15.1227013 66.3633866L16.0983498 66.3604139zM29.4992176 65.3821636C29.3223347 65.3821636 29.196841 65.3212227 29.0910837 65.1841057 28.5038326 64.4201148 28.8736109 61.8405307 29.2780209 60.2159352L29.6567364 60.218908C30.0797657 61.8416455 30.4811967 64.4249455 29.9013933 65.1870784 29.7986151 65.3219659 29.6746109 65.3821636 29.4992176 65.3821636L29.4992176 65.3821636zM30.1672762 58.8406773C30.1672762 59.1925739 29.8801674 59.4786989 29.5275188 59.4786989 29.1748703 59.4786989 28.8877615 59.1925739 28.8877615 58.8406773 28.8877615 58.4884091 29.1748703 58.2022841 29.5275188 58.2022841 29.8801674 58.2022841 30.1672762 58.4884091 30.1672762 58.8406773L30.1672762 58.8406773zM29.0910837 52.4968773C29.196841 52.3597602 29.3223347 52.2988193 29.4992176 52.2988193 29.6746109 52.2988193 29.7986151 52.359017 29.9013933 52.4939045 30.2484561 52.9502182 30.2436151 54.059417 30.0935439 55.2243545 30.0913096 55.2299284 30.0890753 55.2347591 30.086841 55.240333L30.0913096 55.2418193C29.9900209 56.0173295 29.8250544 56.8158784 29.6567364 57.4624466L29.2776485 57.4654193C29.112682 56.8021295 28.9533013 55.9790557 28.8624393 55.1860807L28.8851548 55.1764193C28.8743556 55.1515227 28.8639289 55.1284841 28.8538745 55.1039591 28.7317322 53.9854705 28.7514686 52.9386989 29.0910837 52.4968773L29.0910837 52.4968773zM27.1613849 56.0128705C25.9883724 54.4912057 25.9016067 53.7855545 25.9574644 53.4994295 25.9861381 53.3533943 26.0613598 53.25195 26.201749 53.1716864 26.3417657 53.0910511 26.4680042 53.0761875 26.6121172 53.1241227 26.8832134 53.2147909 27.4384393 53.6205682 28.1642176 55.2745193 28.2457699 55.9779409 28.3746151 56.6486625 28.4837238 57.1425068 28.1396402 56.8218239 27.6756485 56.4108443 27.1613849 56.0128705L27.1613849 56.0128705zM28.1653347 62.3945727C27.4332259 64.0637591 26.8753933 64.4609898 26.6072762 64.5490568 26.4676318 64.5947625 26.3387866 64.5798989 26.2006318 64.5000068 26.0613598 64.4197432 25.9861381 64.3197852 25.9570921 64.1752364 25.9012343 63.8965432 25.9775732 63.2064989 27.1178159 61.7138182L27.1025481 61.7022989C27.6343138 61.3069261 28.1176695 60.893717 28.4773933 60.5689466 28.3705188 61.0568455 28.2453975 61.7093591 28.1653347 62.3945727L28.1653347 62.3945727zM24.2876904 62.3618727C24.0579289 62.3618727 23.9089749 62.2816091 23.8050795 62.1017591 23.7171967 61.95015 23.7075146 61.813033 23.7734268 61.6565932 24.1450669 60.7744364 26.5879121 59.8298523 28.2070418 59.3839432L28.3995649 59.7090852C27.4730711 60.594958 25.3959079 62.3618727 24.2876904 62.3618727L24.2876904 62.3618727zM23.0882385 59.2118966C22.9757782 59.1141682 22.9258787 58.9986034 22.9258787 58.837333 22.9258787 58.6753193 22.9761506 58.5586398 23.0893556 58.4586818 23.3023598 58.2710284 23.9261046 57.9960511 25.7027531 58.1892784 26.3592678 58.4746602 27.0139205 58.7013307 27.5036067 58.8562841 27.056 58.992658 26.4750795 59.1855136 25.879636 59.4270477 23.9663222 59.6823307 23.3086904 59.4032659 23.0882385 59.2118966L23.0882385 59.2118966zM23.7842259 56.0113841C23.7179414 55.8519716 23.7279958 55.7129966 23.8158787 55.5599011 23.9201464 55.3807943 24.0605356 55.3042466 24.2858285 55.3042466 25.3862259 55.3042466 27.4578033 57.1079489 28.3757322 58.0057125L28.1891674 58.3345705C27.5311632 58.1450591 26.7372385 57.8715682 26.0032678 57.5534864L26.007364 57.5204148C25.9708703 57.5159557 25.9366109 57.5122398 25.9008619 57.5085239 24.8805272 57.0566693 23.9957406 56.5208352 23.7842259 56.0113841L23.7842259 56.0113841zM30.7809665 55.3945432C31.5093515 53.6421205 32.0750042 53.217392 32.3498243 53.123008 32.4913305 53.0750727 32.6160795 53.0891932 32.7564686 53.1698284 32.8968577 53.2508352 32.9728243 53.3526511 33.0026151 53.5005443 33.0603347 53.7829534 32.9839958 54.4770852 31.8776402 55.9645636 31.3149665 56.3956091 30.8070335 56.8474636 30.4450753 57.1863545 30.5553013 56.7170352 30.6886151 56.0756693 30.7809665 55.3945432L30.7809665 55.3945432zM34.6902636 55.3042466C34.9155565 55.3042466 35.0559456 55.3807943 35.159841 55.5599011 35.2480962 55.7129966 35.2581506 55.8523432 35.1914937 56.0113841 34.8228326 56.9013443 32.3986067 57.8711966 30.7869247 58.3345705L30.6007322 58.0057125C31.0144519 57.60105 31.6635188 57.0120784 32.3520586 56.4870205L32.3583891 56.4914795C32.3632301 56.4844193 32.3680711 56.4777307 32.3736569 56.471042 33.2048201 55.8389659 34.0907238 55.3042466 34.6902636 55.3042466L34.6902636 55.3042466zM35.8763096 58.461283C35.9861632 58.559383 36.0375523 58.6786636 36.0375523 58.837333 36.0375523 58.9974886 35.9880251 59.1126818 35.876682 59.2100386 35.6633054 59.397692 35.0250377 59.6767568 33.1597615 59.4378239L33.1567824 59.4593761C32.5367615 59.2037216 31.9271674 59.0004614 31.4635481 58.8592568 31.9550962 58.7039318 32.6157071 58.4754034 33.2781799 58.1870489 35.0525941 57.9964227 35.6677741 58.2758591 35.8763096 58.461283L35.8763096 58.461283zM35.2026653 61.6565932C35.2685774 61.813033 35.2588954 61.95015 35.1706402 62.1017591 35.0667448 62.2816091 34.9181632 62.3618727 34.6884017 62.3618727 33.5798117 62.3618727 31.5030209 60.594958 30.5768996 59.7090852L30.7686778 59.3839432C32.3885523 59.8298523 34.8310251 60.7744364 35.2026653 61.6565932L35.2026653 61.6565932zM33.0026151 64.1748648C32.9728243 64.319042 32.8946234 64.4230875 32.756841 64.5022364 32.6179414 64.5825 32.4935649 64.5973636 32.3535481 64.5501716 32.083569 64.4591318 31.5227573 64.0477807 30.7973515 62.316167L30.7858075 62.3209977C30.6975523 61.6573364 30.5687071 61.0286045 30.4595983 60.5574273 30.8357071 60.8996625 31.3555565 61.3500307 31.9286569 61.7747591 32.994795 63.2250784 33.0603347 63.9010023 33.0026151 64.1748648L33.0026151 64.1748648zM29.9993305 65.9774523C30.1765858 65.8983034 30.3322427 65.7756784 30.4588536 65.6088341 30.7370251 65.2435602 30.8573054 64.6776273 30.8844895 64.0392341 31.2896444 64.6802284 31.7018745 65.0674261 32.1293724 65.211975 32.253749 65.2539648 32.3796151 65.2747739 32.5051088 65.2747739 32.7102929 65.2747739 32.9139874 65.2190352 33.1068828 65.107558 33.4167071 64.9291943 33.617795 64.656075 33.6881757 64.3179273 33.7805272 63.8757341 33.6568954 63.3246648 33.3120669 62.651342 33.8013808 62.8991932 34.2769163 63.0604636 34.6884017 63.0604636 35.1702678 63.0604636 35.5463766 62.8501432 35.7772552 62.4510545 35.9738745 62.1110489 35.9984519 61.7428023 35.8480084 61.3857034 35.6681464 60.9587455 35.2313389 60.5682034 34.6831883 60.223367 35.4495565 60.1951261 35.9980795 60.0334841 36.3391841 59.7343534 36.5994812 59.5061966 36.7372636 59.1959182 36.7372636 58.837333 36.7372636 58.4809773 36.6009707 58.1706989 36.3429079 57.9406841 36.0066444 57.6404386 35.4692929 57.472108 34.7163305 57.4323477 35.2443724 57.0875114 35.6644226 56.6995705 35.8386987 56.2789295 35.9880251 55.9196011 35.9627029 55.5502398 35.7660837 55.2106057 35.5370669 54.8148614 35.1650544 54.6056557 34.6902636 54.6056557 34.2769163 54.6056557 33.7984017 54.7725 33.3072259 55.0288977 33.6524268 54.3559466 33.7790377 53.8045057 33.6889205 53.3615693 33.6196569 53.0197057 33.4181967 52.7443568 33.1065105 52.5648784 32.7933347 52.3842852 32.4533473 52.3489841 32.1222971 52.4619477 31.6966611 52.607983 31.2870377 52.9959239 30.8841172 53.6328307 30.8565607 52.9981534 30.7355356 52.4355648 30.4588536 52.0717773 30.224251 51.7633568 29.8924561 51.6002284 29.4992176 51.6002284 29.1059791 51.6002284 28.7730669 51.7633568 28.5358577 52.0717773 28.2561967 52.4351932 28.1295858 52.9977818 28.094954 53.6324591 27.6823515 52.9933227 27.2652803 52.6057534 26.8348033 52.4615761 26.5033808 52.350842 26.1633933 52.3868864 25.8513347 52.5663648 25.538159 52.7465864 25.3374435 53.02305 25.2707866 53.3652852 25.1840209 53.8082216 25.3169623 54.3592909 25.6722176 55.0303841 25.1795523 54.7732432 24.6999205 54.6056557 24.2858285 54.6056557 23.8110377 54.6056557 23.4390251 54.8148614 23.209636 55.2106057 23.0133891 55.5502398 22.9884393 55.9196011 23.1373933 56.2789295 23.3120418 56.6991989 23.7313473 57.0871398 24.2590167 57.4319761 23.5049372 57.47025 22.9646067 57.6367227 22.6261088 57.9351102 22.3643222 58.1658682 22.2254226 58.4780045 22.2254226 58.837333 22.2254226 59.1977761 22.3650669 59.5095409 22.6287155 59.7388125 22.9701925 60.035342 23.5168536 60.1954977 24.2780084 60.2237386 23.7373054 60.5656023 23.3060837 60.9524284 23.1280837 61.3756705 22.9776402 61.7327693 23.0022176 62.0913545 23.1988368 62.4313602 23.4293431 62.8297057 23.8058243 63.0207034 24.2876904 63.0207034L24.2880628 63.0207034C24.7077406 63.0207034 25.1940753 62.8542307 25.6934435 62.5996909 25.3191967 63.2934511 25.1795523 63.8597557 25.2707866 64.312725 25.3389331 64.6519875 25.5392762 64.92585 25.85059 65.1053284 26.0442301 65.2171773 26.2486695 65.2732875 26.4557155 65.2732875 26.5789749 65.2732875 26.7033515 65.25285 26.8262385 65.2127182 27.2593222 65.0703989 27.679 64.682458 28.0945816 64.0388625 28.1280962 64.6776273 28.2547071 65.2435602 28.5358577 65.6092057 28.6795983 65.7961159 28.8590879 65.9291455 29.0653891 66.0053216L29.9993305 65.9774523zM23.8530799 69.3245202C24.3442556 67.0968327 22.9716448 66.9961316 22.9716448 66.9961316 21.8556071 68.967793 23.8530799 69.3245202 23.8530799 69.3245202M23.6239887 71.7656124C23.6239887 71.7656124 25.401382 71.1536022 24.0559552 69.8259078 24.0559552 69.8259078 22.2368548 70.3342442 23.6239887 71.7656124"/>
    <path fill="#FFF" d="M24.1647289 69.3426539C26.949051 69.0342334 25.5194653 66.7340857 25.5194653 66.7340857 23.8076117 66.9291709 24.1647289 69.3426539 24.1647289 69.3426539M24.3323766 69.6369539C24.5371883 71.1534164 25.9042134 70.522455 25.9042134 70.522455 25.9042134 70.522455 26.0807238 69.8253505 25.6312552 69.4764266 24.9926151 68.9796095 24.3323766 69.6369539 24.3323766 69.6369539M23.761436 69.5183049C23.761436 69.5183049 22.4271808 68.7829265 21.9479213 70.1875401 21.9479213 70.1875401 23.2162644 71.043314 23.761436 69.5183049M28.1286176 78.9673786C27.4482703 77.9254377 27.9826427 76.4383309 28.2444293 75.8475014 29.3340276 73.3831105 33.3159397 71.7915866 35.4709314 71.310748 35.2154753 72.2423264 34.9741699 73.8074673 35.6898937 75.1169536L35.7055339 75.1437082C35.7193121 75.1652605 37.0546845 77.3126843 36.2510778 78.7648616 35.7096301 79.7432605 34.2193456 80.260515 31.9410946 80.260515 29.971923 80.260515 28.6890569 79.8257536 28.1286176 78.9673786L28.1286176 78.9673786zM30.9434753 72.0175139C30.2232828 72.4166025 29.5336259 72.8796048 28.93781 73.4039195 28.9676008 73.1653582 28.9847305 72.9227093 28.992923 72.6518195 29.0126594 72.038323 28.9411615 71.2929116 28.8704084 70.7314377 29.8739858 71.171773 30.5781657 71.7042627 30.9434753 72.0175139L30.9434753 72.0175139zM30.4340527 68.8281491C30.8488895 68.9087843 31.4097013 69.0704264 31.8982703 69.3476332 31.4160318 69.6434195 30.9717766 70.0432514 30.6463121 70.5835445 30.4638435 70.4657502 30.2635004 70.3457264 30.0449105 70.2257025 30.1592326 69.904648 30.3059523 69.4327275 30.4340527 68.8281491L30.4340527 68.8281491zM34.5094335 69.5144775C34.53699 69.9124514 34.6449816 70.2427957 34.7540904 70.4858161 33.9017013 70.7124866 32.8843456 71.0662411 31.8707138 71.5433639 31.7902787 71.464215 31.6446762 71.3282127 31.441354 71.1613684 32.1194669 69.9462661 33.6968895 69.6073752 34.5094335 69.5144775L34.5094335 69.5144775zM32.483287 81.2240502C32.5305799 81.2221923 32.5760109 81.2192195 32.622559 81.21699 33.4850025 82.367807 35.0155046 82.1675195 35.0155046 82.1675195 34.8300569 81.6506366 34.5943372 81.2749582 34.3385088 81.0033252 35.6925004 80.7030798 36.6223456 80.1122502 37.1071908 79.2319514 38.1558268 77.3308923 36.6878854 74.8769059 36.5396762 74.6387161 35.7062787 73.0925264 36.6327724 70.9068286 36.6417096 70.8852764L36.9764837 70.1164548 36.1415967 70.2074945C36.0183372 70.2208718 35.8820444 70.2405661 35.7353247 70.2658343 35.6358979 70.1034491 35.4132117 69.659398 35.4966259 69.0592786L35.5737096 68.5078377 35.015877 68.5052366 35.0099188 68.5052366C34.9004377 68.5052366 33.9560695 68.5163843 32.9256803 68.8693957 31.802195 67.947107 30.1614669 67.8010718 30.0828937 67.7947548L29.6386385 67.7579673 29.5622996 68.1968161C29.4412745 68.8935491 29.2833833 69.4371866 29.1604962 69.796515 28.9277556 69.6980434 28.6819816 69.6032877 28.4213121 69.516707L27.648241 69.2603093 27.7867682 70.0614593C27.7893749 70.0766945 28.0500444 71.5976161 28.0176469 72.6213491 27.9930695 73.4154389 27.905559 73.9059389 27.4397054 75.2440377L27.4519941 75.2484968C27.4173623 75.3168695 27.3823582 75.3844991 27.3514502 75.4543582 26.9470402 76.3688434 26.4041029 78.1101184 27.3112326 79.4991252 27.7957054 80.2408207 28.6168142 80.7454411 29.7585464 81.0118718 29.5056971 81.2831332 29.2725841 81.6558389 29.0893707 82.1675195 29.0893707 82.1675195 30.6116803 82.3666923 31.4748686 81.2255366 31.4860402 81.2259082 31.4964669 81.2266514 31.5076385 81.227023L32.483287 81.2240502zM45.8841548 80.2458C45.707272 80.2458 45.5817782 80.1848591 45.4760209 80.047742 44.8887699 79.2837511 45.2585481 76.704167 45.6629582 75.0795716L46.0416736 75.0825443C46.4647029 76.7052818 46.8661339 79.2885818 46.2863305 80.0507148 46.1835523 80.1856023 46.0595481 80.2458 45.8841548 80.2458L45.8841548 80.2458zM46.5522134 73.7043136C46.5522134 74.0562102 46.2651046 74.3423352 45.9124561 74.3423352 45.5598075 74.3423352 45.2726987 74.0562102 45.2726987 73.7043136 45.2726987 73.3520455 45.5598075 73.0659205 45.9124561 73.0659205 46.2651046 73.0659205 46.5522134 73.3520455 46.5522134 73.7043136L46.5522134 73.7043136zM45.4760209 67.3605136C45.5817782 67.2233966 45.707272 67.1624557 45.8841548 67.1624557 46.0595481 67.1624557 46.1835523 67.2226534 46.2863305 67.3575409 46.6333933 67.8138545 46.6285523 68.9230534 46.4784812 70.0879909 46.4762469 70.0935648 46.4740126 70.0983955 46.4717782 70.1039693L46.4762469 70.1054557C46.3749582 70.8809659 46.2099916 71.6795148 46.0416736 72.326083L45.6625858 72.3290557C45.4976192 71.6657659 45.3382385 70.842692 45.2473766 70.049717L45.2700921 70.0400557C45.2592929 70.0151591 45.2488661 69.9921205 45.2388117 69.9675955 45.1166695 68.8491068 45.1364059 67.8023352 45.4760209 67.3605136L45.4760209 67.3605136zM43.5463222 70.8765068C42.3733096 69.354842 42.2865439 68.6491909 42.3424017 68.3630659 42.3710753 68.2170307 42.4462971 68.1155864 42.5866862 68.0353227 42.7267029 67.9546875 42.8529414 67.9398239 42.9970544 67.9877591 43.2681506 68.0784273 43.8233766 68.4842045 44.5491548 70.1381557 44.6307071 70.8415773 44.7595523 71.5122989 44.8686611 72.0061432 44.5245774 71.6854602 44.0605858 71.2744807 43.5463222 70.8765068L43.5463222 70.8765068zM44.550272 77.2582091C43.8181632 78.9273955 43.2603305 79.3246261 42.9922134 79.4126932 42.852569 79.4583989 42.7237238 79.4435352 42.585569 79.3636432 42.4462971 79.2833795 42.3710753 79.1834216 42.3420293 79.0388727 42.2861715 78.7601795 42.3625105 78.0701352 43.5027531 76.5774545L43.4874854 76.5659352C44.019251 76.1705625 44.5026067 75.7573534 44.8623305 75.432583 44.7554561 75.9204818 44.6303347 76.5729955 44.550272 77.2582091L44.550272 77.2582091zM40.6726276 77.2255091C40.4428661 77.2255091 40.2939121 77.1452455 40.1900167 76.9653955 40.1021339 76.8137864 40.0924519 76.6766693 40.158364 76.5202295 40.5300042 75.6380727 42.9728494 74.6934886 44.5919791 74.2475795L44.7845021 74.5727216C43.8580084 75.4585943 41.7808452 77.2255091 40.6726276 77.2255091L40.6726276 77.2255091zM39.4731757 74.075533C39.3607155 73.9778045 39.3108159 73.8622398 39.3108159 73.7009693 39.3108159 73.5389557 39.3610879 73.4222761 39.4742929 73.3223182 39.6872971 73.1346648 40.3110418 72.8596875 42.0876904 73.0529148 42.744205 73.3382966 43.3988577 73.564967 43.8885439 73.7199205 43.4409372 73.8562943 42.8600167 74.04915 42.2645732 74.2906841 40.3512594 74.545967 39.6936276 74.2669023 39.4731757 74.075533L39.4731757 74.075533zM40.1691632 70.8750205C40.1028787 70.715608 40.1129331 70.576633 40.2008159 70.4235375 40.3050837 70.2444307 40.4454728 70.167883 40.6707657 70.167883 41.7711632 70.167883 43.8427406 71.9715852 44.7606695 72.8693489L44.5741046 73.1982068C43.9161004 73.0086955 43.1221757 72.7352045 42.388205 72.4171227L42.3923013 72.3840511C42.3558075 72.379592 42.3215481 72.3758761 42.2857992 72.3721602 41.2654644 71.9203057 40.3806778 71.3844716 40.1691632 70.8750205L40.1691632 70.8750205zM47.1659038 70.2581795C47.8942887 68.5057568 48.4599414 68.0810284 48.7347615 67.9866443 48.8762678 67.9387091 49.0010167 67.9528295 49.1414059 68.0334648 49.281795 68.1144716 49.3577615 68.2162875 49.3875523 68.3641807 49.4448996 68.6465898 49.3689331 69.3407216 48.2625774 70.8282 47.6999038 71.2592455 47.1919707 71.7111 46.8300126 72.0499909 46.9402385 71.5806716 47.0735523 70.9393057 47.1659038 70.2581795L47.1659038 70.2581795zM51.0752008 70.167883C51.3004937 70.167883 51.4408828 70.2444307 51.5447782 70.4235375 51.6330335 70.576633 51.6430879 70.7159795 51.576431 70.8750205 51.2077699 71.7649807 48.7835439 72.734833 47.1718619 73.1982068L46.9856695 72.8693489C47.3993891 72.4646864 48.0484561 71.8757148 48.7369958 71.3506568L48.7433264 71.3551159C48.7481674 71.3480557 48.7530084 71.341367 48.7585941 71.3346784 49.5897573 70.7026023 50.4756611 70.167883 51.0752008 70.167883L51.0752008 70.167883zM52.2612469 73.3249193C52.3711004 73.4230193 52.4224895 73.5423 52.4224895 73.7009693 52.4224895 73.861125 52.3729623 73.9763182 52.2616192 74.073675 52.0482427 74.2613284 51.4099749 74.5403932 49.5446987 74.3014602L49.5417197 74.3230125C48.9216987 74.067358 48.3121046 73.8640977 47.8484854 73.7228932 48.3400335 73.5675682 49.0006444 73.3390398 49.6631172 73.0506852 51.4375314 72.8600591 52.0527113 73.1394955 52.2612469 73.3249193L52.2612469 73.3249193zM51.5876025 76.5202295C51.6535146 76.6766693 51.6438326 76.8137864 51.5555774 76.9653955 51.451682 77.1452455 51.3031004 77.2255091 51.0733389 77.2255091 49.964749 77.2255091 47.8879582 75.4585943 46.9618368 74.5727216L47.1536151 74.2475795C48.7734895 74.6934886 51.2159623 75.6380727 51.5876025 76.5202295L51.5876025 76.5202295zM49.3875523 79.0385011C49.3577615 79.1826784 49.2795607 79.2867239 49.1417782 79.3658727 49.0028787 79.4461364 48.8785021 79.461 48.7384854 79.413808 48.4685063 79.3227682 47.9076946 78.911417 47.1822887 77.1798034L47.1707448 77.1846341C47.0824895 76.5209727 46.9536444 75.8922409 46.8445356 75.4210636 47.2206444 75.7632989 47.7404937 76.213667 48.3135941 76.6383955 49.3797322 78.0887148 49.4448996 78.7646386 49.3875523 79.0385011L49.3875523 79.0385011zM46.3842678 80.8410886C46.561523 80.7619398 46.7171799 80.6393148 46.8437908 80.4724705 47.1219623 80.1071966 47.2422427 79.5412636 47.2694268 78.9028705 47.6745816 79.5438648 48.0868117 79.9310625 48.5143096 80.0756114 48.6386862 80.1176011 48.7645523 80.1384102 48.890046 80.1384102 49.0952301 80.1384102 49.2989247 80.0826716 49.4918201 79.9711943 49.8016444 79.7928307 50.0027322 79.5197114 50.073113 79.1815636 50.1654644 78.7393705 50.0418326 78.1883011 49.6970042 77.5149784 50.186318 77.7628295 50.6618536 77.9241 51.0733389 77.9241 51.555205 77.9241 51.9313138 77.7137795 52.1621925 77.3146909 52.3588117 76.9746852 52.3833891 76.6064386 52.2329456 76.2493398 52.0530837 75.8223818 51.6162762 75.4318398 51.0681255 75.0870034 51.8344937 75.0587625 52.3830167 74.8971205 52.7241213 74.5979898 52.9844184 74.369833 53.1222008 74.0595545 53.1222008 73.7009693 53.1222008 73.3446136 52.9859079 73.0343352 52.7278452 72.8043205 52.3915816 72.504075 51.8542301 72.3357443 51.1012678 72.2959841 51.6293096 71.9511477 52.0493598 71.5632068 52.223636 71.1425659 52.3729623 70.7832375 52.3476402 70.4138761 52.1510209 70.074242 51.9220042 69.6784977 51.5499916 69.469292 51.0752008 69.469292 50.6618536 69.469292 50.1833389 69.6361364 49.6921632 69.8925341 50.037364 69.219583 50.1639749 68.668142 50.0738577 68.2252057 50.0045941 67.883342 49.8031339 67.6079932 49.4914477 67.4285148 49.178272 67.2479216 48.8382845 67.2126205 48.5072343 67.3255841 48.0815983 67.4716193 47.6719749 67.8595602 47.2690544 68.496467 47.2414979 67.8617898 47.1204728 67.2992011 46.8437908 66.9354136 46.6091883 66.6269932 46.2773933 66.4638648 45.8841548 66.4638648 45.4909163 66.4638648 45.1580042 66.6269932 44.920795 66.9354136 44.6411339 67.2988295 44.514523 67.8614182 44.4798912 68.4960955 44.0672887 67.8569591 43.6502176 67.4693898 43.2197406 67.3252125 42.888318 67.2144784 42.5483305 67.2505227 42.236272 67.4300011 41.9230962 67.6102227 41.7223808 67.8866864 41.6557238 68.2289216 41.5689582 68.671858 41.7018996 69.2229273 42.0571548 69.8940205 41.5644895 69.6368795 41.0848577 69.469292 40.6707657 69.469292 40.1959749 69.469292 39.8239623 69.6784977 39.5945732 70.074242 39.3983264 70.4138761 39.3733766 70.7832375 39.5223305 71.1425659 39.6969791 71.5628352 40.1162845 71.9507761 40.643954 72.2956125 39.8898745 72.3338864 39.3495439 72.5003591 39.011046 72.7987466 38.7492594 73.0295045 38.6103598 73.3416409 38.6103598 73.7009693 38.6103598 74.0614125 38.7500042 74.3731773 39.0136527 74.6024489 39.3551297 74.8989784 39.9017908 75.0591341 40.6629456 75.087375 40.1222427 75.4292386 39.6910209 75.8160648 39.5130209 76.2393068 39.3625774 76.5964057 39.3871548 76.9549909 39.5837741 77.2949966 39.8142803 77.693342 40.1907615 77.8843398 40.6726276 77.8843398L40.673 77.8843398C41.0926778 77.8843398 41.5790126 77.717867 42.0783808 77.4633273 41.7041339 78.1570875 41.5644895 78.723392 41.6557238 79.1763614 41.7238703 79.5156239 41.9242134 79.7894864 42.2355272 79.9689648 42.4291674 80.0808136 42.6336067 80.1369239 42.8406527 80.1369239 42.9639121 80.1369239 43.0882887 80.1164864 43.2111757 80.0763545 43.6442594 79.9340352 44.0639372 79.5460943 44.4795188 78.9024989 44.5130335 79.5412636 44.6396444 80.1071966 44.920795 80.472842 45.0645356 80.6597523 45.2440251 80.7927818 45.4503264 80.868958L46.3842678 80.8410886zM40.2380172 84.1881566C40.7291929 81.9604691 39.356582 81.859768 39.356582 81.859768 38.2405444 83.8314293 40.2380172 84.1881566 40.2380172 84.1881566M40.0089259 86.6292487C40.0089259 86.6292487 41.7863192 86.0172385 40.4408925 84.6895442 40.4408925 84.6895442 38.6217921 85.1978806 40.0089259 86.6292487"/>
    <path fill="#FFF" d="M40.5496661 84.2062902C43.3339883 83.8978698 41.9044025 81.597722 41.9044025 81.597722 40.192549 81.7928073 40.5496661 84.2062902 40.5496661 84.2062902M40.7173138 84.5005902C40.9221255 86.0170527 42.2891506 85.3860914 42.2891506 85.3860914 42.2891506 85.3860914 42.4656611 84.6889868 42.0161925 84.340063 41.3775523 83.8432459 40.7173138 84.5005902 40.7173138 84.5005902M40.1463732 84.3819412C40.1463732 84.3819412 38.812118 83.6465628 38.3328586 85.0511765 38.3328586 85.0511765 39.6012017 85.9069503 40.1463732 84.3819412M53.27149 83.0733839C53.7626657 80.8456964 52.3900548 80.7449952 52.3900548 80.7449952 51.2740172 82.7166566 53.27149 83.0733839 53.27149 83.0733839M53.0423987 85.514476C53.0423987 85.514476 54.8197921 84.9024658 53.4743653 83.5747715 53.4743653 83.5747715 51.6552649 84.0831078 53.0423987 85.514476"/>
    <path fill="#FFF" d="M53.5831389 83.0915175C56.3674611 82.783097 54.9378753 80.4829493 54.9378753 80.4829493 53.2260218 80.6780345 53.5831389 83.0915175 53.5831389 83.0915175M53.7507866 83.3858175C53.9555983 84.90228 55.3226234 84.2713186 55.3226234 84.2713186 55.3226234 84.2713186 55.4991339 83.5742141 55.0496653 83.2252902 54.4110251 82.7284732 53.7507866 83.3858175 53.7507866 83.3858175M53.179846 83.2671685C53.179846 83.2671685 51.8455908 82.5317901 51.3663314 83.9364037 51.3663314 83.9364037 52.6346745 84.7921776 53.179846 83.2671685M40.7897054 59.2730605C40.1093582 58.2311195 40.6437305 56.7440127 40.9055172 56.1531832 41.9951155 53.6887923 45.9770276 52.0972684 48.1320192 51.6164298 47.8765632 52.5480082 47.6352577 54.1131491 48.3509816 55.4226355L48.3666218 55.44939C48.3804 55.4709423 49.7157724 57.6183661 48.9121657 59.0705434 48.370718 60.0489423 46.8804335 60.5661968 44.6021824 60.5661968 42.6330109 60.5661968 41.3501448 60.1314355 40.7897054 59.2730605L40.7897054 59.2730605zM43.6045632 52.3231957C42.8843707 52.7222843 42.1947138 53.1852866 41.5988979 53.7096014 41.6286887 53.47104 41.6458184 53.2283911 41.6540109 52.9575014 41.6737473 52.3440048 41.6022494 51.5985934 41.5314962 51.0371195 42.5350736 51.4774548 43.2392536 52.0099445 43.6045632 52.3231957L43.6045632 52.3231957zM43.0951406 49.1338309C43.5099774 49.2144661 44.0707891 49.3761082 44.5593582 49.653315 44.0771197 49.9491014 43.6328644 50.3489332 43.3074 50.8892264 43.1249314 50.771432 42.9245883 50.6514082 42.7059983 50.5313843 42.8203205 50.2103298 42.9670402 49.7384093 43.0951406 49.1338309L43.0951406 49.1338309zM47.1705213 49.8201593C47.1980778 50.2181332 47.3060695 50.5484775 47.4151782 50.791498 46.5627891 51.0181684 45.5454335 51.371923 44.5318017 51.8490457 44.4513665 51.7698968 44.305764 51.6338945 44.1024418 51.4670502 44.7805548 50.251948 46.3579774 49.913057 47.1705213 49.8201593L47.1705213 49.8201593zM45.1443749 61.529732C45.1916678 61.5278741 45.2370987 61.5249014 45.2836469 61.5226718 46.1460904 62.6734889 47.6765925 62.4732014 47.6765925 62.4732014 47.4911448 61.9563184 47.2554251 61.58064 46.9995967 61.309007 48.3535883 61.0087616 49.2834335 60.417932 49.7682787 59.5376332 50.8169146 57.6365741 49.3489732 55.1825877 49.200764 54.944398 48.3673665 53.3982082 49.2938603 51.2125105 49.3027975 51.1909582L49.6375715 50.4221366 48.8026845 50.5131764C48.6794251 50.5265536 48.5431322 50.546248 48.3964126 50.5715161 48.2969858 50.4091309 48.0742996 49.9650798 48.1577138 49.3649605L48.2347975 48.8135195 47.6769649 48.8109184 47.6710067 48.8109184C47.5615255 48.8109184 46.6171573 48.8220661 45.5867682 49.1750775 44.4632828 48.2527889 42.8225548 48.1067536 42.7439816 48.1004366L42.2997264 48.0636491 42.2233874 48.502498C42.1023623 49.1992309 41.9444711 49.7428684 41.8215841 50.1021968 41.5888435 50.0037252 41.3430695 49.9089695 41.0824 49.8223889L40.3093289 49.5659911 40.4478561 50.3671411C40.4504628 50.3823764 40.7111322 51.903298 40.6787347 52.9270309 40.6541573 53.7211207 40.5666469 54.2116207 40.1007933 55.5497195L40.113082 55.5541786C40.0784502 55.6225514 40.043446 55.6901809 40.0125381 55.76004 39.608128 56.6745252 39.0651908 58.4158002 39.9723205 59.804807 40.4567933 60.5465025 41.2779021 61.051123 42.4196343 61.3175536 42.1667849 61.588815 41.933672 61.9615207 41.7504586 62.4732014 41.7504586 62.4732014 43.2727682 62.6723741 44.1359565 61.5312184 44.147128 61.53159 44.1575548 61.5323332 44.1687264 61.5327048L45.1443749 61.529732zM58.5452427 60.5514818C58.3683598 60.5514818 58.2428661 60.4905409 58.1371088 60.3534239 57.5498577 59.589433 57.919636 57.0098489 58.324046 55.3852534L58.7027615 55.3882261C59.1257908 57.0109636 59.5272218 59.5942636 58.9474184 60.3563966 58.8446402 60.4912841 58.720636 60.5514818 58.5452427 60.5514818L58.5452427 60.5514818zM59.2133013 54.0099955C59.2133013 54.361892 58.9261925 54.648017 58.5735439 54.648017 58.2208954 54.648017 57.9337866 54.361892 57.9337866 54.0099955 57.9337866 53.6577273 58.2208954 53.3716023 58.5735439 53.3716023 58.9261925 53.3716023 59.2133013 53.6577273 59.2133013 54.0099955L59.2133013 54.0099955zM58.1371088 47.6661955C58.2428661 47.5290784 58.3683598 47.4681375 58.5452427 47.4681375 58.720636 47.4681375 58.8446402 47.5283352 58.9474184 47.6632227 59.2944812 48.1195364 59.2896402 49.2287352 59.139569 50.3936727 59.1373347 50.3992466 59.1351004 50.4040773 59.1328661 50.4096511L59.1373347 50.4111375C59.036046 51.1866477 58.8710795 51.9851966 58.7027615 52.6317648L58.3236736 52.6347375C58.1587071 51.9714477 57.9993264 51.1483739 57.9084644 50.3553989L57.9311799 50.3457375C57.9203808 50.3208409 57.909954 50.2978023 57.8998996 50.2732773 57.7777573 49.1547886 57.7974937 48.108017 58.1371088 47.6661955L58.1371088 47.6661955zM56.20741 51.1821886C55.0343975 49.6605239 54.9476318 48.9548727 55.0034895 48.6687477 55.0321632 48.5227125 55.1073849 48.4212682 55.2477741 48.3410045 55.3877908 48.2603693 55.5140293 48.2455057 55.6581423 48.2934409 55.9292385 48.3841091 56.4844644 48.7898864 57.2102427 50.4438375 57.291795 51.1472591 57.4206402 51.8179807 57.529749 52.311825 57.1856653 51.991142 56.7216736 51.5801625 56.20741 51.1821886L56.20741 51.1821886zM57.2113598 57.5638909C56.479251 59.2330773 55.9214184 59.630308 55.6533013 59.718375 55.5136569 59.7640807 55.3848117 59.749217 55.2466569 59.669325 55.1073849 59.5890614 55.0321632 59.4891034 55.0031172 59.3445545 54.9472594 59.0658614 55.0235983 58.375817 56.163841 56.8831364L56.1485732 56.871617C56.6803389 56.4762443 57.1636946 56.0630352 57.5234184 55.7382648 57.4165439 56.2261636 57.2914226 56.8786773 57.2113598 57.5638909L57.2113598 57.5638909zM53.3337155 57.5311909C53.103954 57.5311909 52.955 57.4509273 52.8511046 57.2710773 52.7632218 57.1194682 52.7535397 56.9823511 52.8194519 56.8259114 53.1910921 55.9437545 55.6339372 54.9991705 57.2530669 54.5532614L57.44559 54.8784034C56.5190962 55.7642761 54.4419331 57.5311909 53.3337155 57.5311909L53.3337155 57.5311909zM52.1342636 54.3812148C52.0218033 54.2834864 51.9719038 54.1679216 51.9719038 54.0066511 51.9719038 53.8446375 52.0221757 53.727958 52.1353808 53.628 52.3483849 53.4403466 52.9721297 53.1653693 54.7487782 53.3585966 55.4052929 53.6439784 56.0599456 53.8706489 56.5496318 54.0256023 56.1020251 54.1619761 55.5211046 54.3548318 54.9256611 54.5963659 53.0123473 54.8516489 52.3547155 54.5725841 52.1342636 54.3812148L52.1342636 54.3812148zM52.830251 51.1807023C52.7639665 51.0212898 52.7740209 50.8823148 52.8619038 50.7292193 52.9661715 50.5501125 53.1065607 50.4735648 53.3318536 50.4735648 54.432251 50.4735648 56.5038285 52.277267 57.4217573 53.1750307L57.2351925 53.5038886C56.5771883 53.3143773 55.7832636 53.0408864 55.0492929 52.7228045L55.0533891 52.689733C55.0168954 52.6852739 54.982636 52.681558 54.946887 52.677842 53.9265523 52.2259875 53.0417657 51.6901534 52.830251 51.1807023L52.830251 51.1807023zM59.8269916 50.5638614C60.5553766 48.8114386 61.1210293 48.3867102 61.3958494 48.2923261 61.5373556 48.2443909 61.6621046 48.2585114 61.8024937 48.3391466 61.9428828 48.4201534 62.0188494 48.5219693 62.0486402 48.6698625 62.1063598 48.9522716 62.0300209 49.6464034 60.9236653 51.1338818 60.3609916 51.5649273 59.8530586 52.0167818 59.4911004 52.3556727 59.6013264 51.8863534 59.7346402 51.2449875 59.8269916 50.5638614L59.8269916 50.5638614zM63.7362887 50.4735648C63.9615816 50.4735648 64.1019707 50.5501125 64.2058661 50.7292193 64.2941213 50.8823148 64.3041757 51.0216614 64.2375188 51.1807023 63.8688577 52.0706625 61.4446318 53.0405148 59.8329498 53.5038886L59.6467573 53.1750307C60.060477 52.7703682 60.7095439 52.1813966 61.3980837 51.6563386L61.4044142 51.6607977C61.4092552 51.6537375 61.4140962 51.6470489 61.419682 51.6403602 62.2508452 51.0082841 63.136749 50.4735648 63.7362887 50.4735648L63.7362887 50.4735648zM64.9223347 53.6306011C65.0321883 53.7287011 65.0835774 53.8479818 65.0835774 54.0066511 65.0835774 54.1668068 65.0340502 54.282 64.9227071 54.3793568 64.7093305 54.5670102 64.0710628 54.846075 62.2057866 54.607142L62.2028075 54.6286943C61.5827866 54.3730398 60.9731925 54.1697795 60.5095732 54.028575 61.0011213 53.87325 61.6617322 53.6447216 62.324205 53.356367 64.0986192 53.1657409 64.7137992 53.4451773 64.9223347 53.6306011L64.9223347 53.6306011zM64.2486904 56.8259114C64.3146025 56.9823511 64.3049205 57.1194682 64.2166653 57.2710773 64.1127699 57.4509273 63.9641883 57.5311909 63.7344268 57.5311909 62.6258368 57.5311909 60.549046 55.7642761 59.6229247 54.8784034L59.8147029 54.5532614C61.4345774 54.9991705 63.8770502 55.9437545 64.2486904 56.8259114L64.2486904 56.8259114zM62.0486402 59.344183C62.0188494 59.4883602 61.9406485 59.5924057 61.8028661 59.6715545 61.6639665 59.7518182 61.53959 59.7666818 61.3995732 59.7194898 61.1295941 59.62845 60.5687824 59.2170989 59.8433766 57.4854852L59.8318326 57.4903159C59.7435774 56.8266545 59.6147322 56.1979227 59.5056234 55.7267455 59.8817322 56.0689807 60.4015816 56.5193489 60.974682 56.9440773 62.0408201 58.3943966 62.1063598 59.0703205 62.0486402 59.344183L62.0486402 59.344183zM59.0453556 61.1467705C59.2226109 61.0676216 59.3782678 60.9449966 59.5048787 60.7781523 59.7830502 60.4128784 59.9033305 59.8469455 59.9305146 59.2085523 60.3356695 59.8495466 60.7478996 60.2367443 61.1753975 60.3812932 61.2997741 60.423283 61.4256402 60.444092 61.5511339 60.444092 61.756318 60.444092 61.9600126 60.3883534 62.1529079 60.2768761 62.4627322 60.0985125 62.6638201 59.8253932 62.7342008 59.4872455 62.8265523 59.0450523 62.7029205 58.493983 62.3580921 57.8206602 62.8474059 58.0685114 63.3229414 58.2297818 63.7344268 58.2297818 64.2162929 58.2297818 64.5924017 58.0194614 64.8232803 57.6203727 65.0198996 57.280367 65.044477 56.9121205 64.8940335 56.5550216 64.7141715 56.1280636 64.277364 55.7375216 63.7292134 55.3926852 64.4955816 55.3644443 65.0441046 55.2028023 65.3852092 54.9036716 65.6455063 54.6755148 65.7832887 54.3652364 65.7832887 54.0066511 65.7832887 53.6502955 65.6469958 53.340017 65.3889331 53.1100023 65.0526695 52.8097568 64.515318 52.6414261 63.7623556 52.6016659 64.2903975 52.2568295 64.7104477 51.8688886 64.8847238 51.4482477 65.0340502 51.0889193 65.008728 50.719558 64.8121088 50.3799239 64.5830921 49.9841795 64.2110795 49.7749739 63.7362887 49.7749739 63.3229414 49.7749739 62.8444268 49.9418182 62.353251 50.1982159 62.6984519 49.5252648 62.8250628 48.9738239 62.7349456 48.5308875 62.665682 48.1890239 62.4642218 47.913675 62.1525356 47.7341966 61.8393598 47.5536034 61.4993724 47.5183023 61.1683222 47.6312659 60.7426862 47.7773011 60.3330628 48.165242 59.9301423 48.8021489 59.9025858 48.1674716 59.7815607 47.604883 59.5048787 47.2410955 59.2702762 46.932675 58.9384812 46.7695466 58.5452427 46.7695466 58.1520042 46.7695466 57.8190921 46.932675 57.5818828 47.2410955 57.3022218 47.6045114 57.1756109 48.1671 57.1409791 48.8017773 56.7283766 48.1626409 56.3113054 47.7750716 55.8808285 47.6308943 55.5494059 47.5201602 55.2094184 47.5562045 54.8973598 47.735683 54.5841841 47.9159045 54.3834686 48.1923682 54.3168117 48.5346034 54.230046 48.9775398 54.3629874 49.5286091 54.7182427 50.1997023 54.2255774 49.9425614 53.7459456 49.7749739 53.3318536 49.7749739 52.8570628 49.7749739 52.4850502 49.9841795 52.2556611 50.3799239 52.0594142 50.719558 52.0344644 51.0889193 52.1834184 51.4482477 52.3580669 51.868517 52.7773724 52.256458 53.3050418 52.6012943 52.5509623 52.6395682 52.0106318 52.8060409 51.6721339 53.1044284 51.4103473 53.3351864 51.2714477 53.6473227 51.2714477 54.0066511 51.2714477 54.3670943 51.4110921 54.6788591 51.6747406 54.9081307 52.0162176 55.2046602 52.5628787 55.3648159 53.3240335 55.3930568 52.7833305 55.7349205 52.3521088 56.1217466 52.1741088 56.5449886 52.0236653 56.9020875 52.0482427 57.2606727 52.2448619 57.6006784 52.4753682 57.9990239 52.8518494 58.1900216 53.3337155 58.1900216L53.3340879 58.1900216C53.7537657 58.1900216 54.2401004 58.0235489 54.7394686 57.7690091 54.3652218 58.4627693 54.2255774 59.0290739 54.3168117 59.4820432 54.3849582 59.8213057 54.5853013 60.0951682 54.8966151 60.2746466 55.0902552 60.3864955 55.2946946 60.4426057 55.5017406 60.4426057 55.625 60.4426057 55.7493766 60.4221682 55.8722636 60.3820364 56.3053473 60.239717 56.7250251 59.8517761 57.1406067 59.2081807 57.1741213 59.8469455 57.3007322 60.4128784 57.5818828 60.7785239 57.7256234 60.9654341 57.905113 61.0984636 58.1114142 61.1746398L59.0453556 61.1467705zM52.899105 64.4938384C53.3902808 62.2661509 52.0176699 62.1654498 52.0176699 62.1654498 50.9016322 64.1371111 52.899105 64.4938384 52.899105 64.4938384M52.6700138 66.9349306C52.6700138 66.9349306 54.4474071 66.3229203 53.1019803 64.995226 53.1019803 64.995226 51.2828799 65.5035624 52.6700138 66.9349306"/>
    <path fill="#FFF" d="M53.210754 64.511972C55.9950762 64.2035516 54.5654904 61.9034039 54.5654904 61.9034039 52.8536368 62.0984891 53.210754 64.511972 53.210754 64.511972M53.3784017 64.806272C53.5832134 66.3227345 54.9502385 65.6917732 54.9502385 65.6917732 54.9502385 65.6917732 55.126749 64.9946686 54.6772803 64.6457448 54.0386402 64.1489277 53.3784017 64.806272 53.3784017 64.806272M52.8074611 64.6876231C52.8074611 64.6876231 51.4732059 63.9522447 50.9939464 65.3568583 50.9939464 65.3568583 52.2622895 66.2126322 52.8074611 64.6876231M58.2917603 74.1366968C57.611413 73.0947559 58.1457854 71.6076491 58.407572 71.0168195 59.4971703 68.5524286 63.4790824 66.9609048 65.6340741 66.4800661 65.378618 67.4116445 65.1373126 68.9767855 65.8530364 70.2862718L65.8686766 70.3130264C65.8824548 70.3345786 67.2178272 72.4820025 66.4142205 73.9341798 65.8727728 74.9125786 64.3824883 75.4298332 62.1042372 75.4298332 60.1350657 75.4298332 58.8521996 74.9950718 58.2917603 74.1366968L58.2917603 74.1366968zM61.106618 67.186832C60.3864255 67.5859207 59.6967686 68.048923 59.1009527 68.5732377 59.1307435 68.3346764 59.1478732 68.0920275 59.1560657 67.8211377 59.1758021 67.2076411 59.1043042 66.4622298 59.033551 65.9007559 60.0371285 66.3410911 60.7413084 66.8735809 61.106618 67.186832L61.106618 67.186832zM60.5971954 63.9974673C61.0120322 64.0781025 61.5728439 64.2397445 62.061413 64.5169514 61.5791745 64.8127377 61.1349192 65.2125695 60.8094548 65.7528627 60.6269862 65.6350684 60.4266431 65.5150445 60.2080531 65.3950207 60.3223753 65.0739661 60.469095 64.6020457 60.5971954 63.9974673L60.5971954 63.9974673zM64.6725762 64.6837957C64.7001326 65.0817695 64.8081243 65.4121139 64.9172331 65.6551343 64.0648439 65.8818048 63.0474883 66.2355593 62.0338565 66.712682 61.9534213 66.6335332 61.8078188 66.4975309 61.6044967 66.3306866 62.2826096 65.1155843 63.8600322 64.7766934 64.6725762 64.6837957L64.6725762 64.6837957zM62.6464297 76.3933684C62.6937226 76.3915105 62.7391536 76.3885377 62.7857017 76.3863082 63.6481452 77.5371252 65.1786473 77.3368377 65.1786473 77.3368377 64.9931996 76.8199548 64.7574799 76.4442764 64.5016515 76.1726434 65.8556431 75.872398 66.7854883 75.2815684 67.2703335 74.4012695 68.3189695 72.5002105 66.851028 70.0462241 66.7028188 69.8080343 65.8694213 68.2618445 66.7959151 66.0761468 66.8048523 66.0545945L67.1396264 65.285773 66.3047393 65.3768127C66.1814799 65.39019 66.045187 65.4098843 65.8984674 65.4351525 65.7990406 65.2727673 65.5763544 64.8287161 65.6597686 64.2285968L65.7368523 63.6771559 65.1790197 63.6745548 65.1730615 63.6745548C65.0635803 63.6745548 64.1192121 63.6857025 63.088823 64.0387139 61.9653377 63.1164252 60.3246096 62.97039 60.2460364 62.964073L59.8017812 62.9272855 59.7254423 63.3661343C59.6044172 64.0628673 59.4465259 64.6065048 59.3236389 64.9658332 59.0908983 64.8673616 58.8451243 64.7726059 58.5844548 64.6860252L57.8113837 64.4296275 57.9499109 65.2307775C57.9525176 65.2460127 58.213187 66.7669343 58.1807895 67.7906673 58.1562121 68.584757 58.0687017 69.075257 57.6028481 70.4133559L57.6151368 70.417815C57.580505 70.4861877 57.5455008 70.5538173 57.5145929 70.6236764 57.1101828 71.5381616 56.5672456 73.2794366 57.4743753 74.6684434 57.9588481 75.4101389 58.7799569 75.9147593 59.9216891 76.18119 59.6688397 76.4524514 59.4357268 76.825157 59.2525134 77.3368377 59.2525134 77.3368377 60.774823 77.5360105 61.6380113 76.3948548 61.6491828 76.3952264 61.6596096 76.3959695 61.6707812 76.3963411L62.6464297 76.3933684zM14.7834586 77.2857811L14.9700234 76.9569232C14.1924837 76.1966482 12.5889941 74.7901766 11.4476343 74.3762243 11.9991364 75.1959539 12.587877 75.9885573 13.2086427 76.753663 13.7553038 76.9654698 14.3053163 77.1482925 14.7834586 77.2857811M15.05724 78.7066466L14.8316861 78.3352282C14.7640635 78.3530563 14.6929508 78.3738557 14.6231469 78.3933817 14.7431224 78.5203007 14.8644067 78.6463707 14.9861273 78.7715918 15.0092498 78.7507924 15.03499 78.7274461 15.05724 78.7066466M18.5229481 80.7258955C17.9498477 80.301167 17.4292536 79.8511705 17.0538895 79.5085636 17.1484753 79.916942 17.2564669 80.4460875 17.3409983 81.0116489 18.065287 81.6351784 18.8182494 82.2267511 19.5950444 82.7874818 19.5362075 82.4062295 19.2874544 81.76635 18.5229481 80.7258955M16.2508414 79.1702301L15.8721259 79.1668858C15.8397285 79.2961994 15.8084481 79.4329449 15.7771678 79.5726631 16.0140046 79.8041642 16.2541929 80.032321 16.4977326 80.2571335 16.4213937 79.8710506 16.3368623 79.5002028 16.2508414 79.1702301M18.9524569 75.4423186L18.9461264 75.4378595C18.257959 75.9629175 17.6088921 76.5518891 17.1944276 76.9569232L17.3806201 77.2857811C18.9930469 76.8224073 21.4169004 75.852555 21.7859339 74.9625948 21.8522184 74.8031823 21.8425364 74.6638357 21.7539088 74.5111118 21.6500134 74.332005 21.5096243 74.2554573 21.2847038 74.2554573 20.6847916 74.2554573 19.7988879 74.7901766 18.9677247 75.4218811 18.9621389 75.4289414 18.9576703 75.4352584 18.9524569 75.4423186M19.5968318 72.4518293C19.567041 72.3039361 19.4910745 72.2017486 19.3506854 72.1207418 19.2102962 72.0404782 19.0855473 72.0259861 18.944041 72.0739214 18.6692209 72.1683055 18.1035682 72.5934055 17.3748109 74.3458282 17.2828318 75.0269543 17.149518 75.6679486 17.0392921 76.1376395 17.4012502 75.7987486 17.9091833 75.3468941 18.4718569 74.9158486 19.5782126 73.4283702 19.6541791 72.7342384 19.5968318 72.4518293M19.8725084 77.1380738C19.2100356 77.4264283 18.5490523 77.6553283 18.0578766 77.8106533 18.5211234 77.9514863 19.13109 78.1547465 19.7511109 78.410401L19.75409 78.3888488C21.6189937 78.6281533 22.2572615 78.3487169 22.4713828 78.1610635 22.5819812 78.0637067 22.6315084 77.9488851 22.6315084 77.7883578 22.6315084 77.6296885 22.5801192 77.5104078 22.4706381 77.4123078 22.2621025 77.226884 21.6469226 76.9474476 19.8725084 77.1380738M21.7649686 81.0528583C21.8528515 80.9012492 21.8629059 80.7641322 21.7969937 80.6076924 21.4253536 79.7255356 18.9825084 78.7809515 17.3630063 78.335414L17.1708556 78.660556C18.096977 79.5460572 20.1741402 81.3129719 21.2823577 81.3129719 21.5121192 81.3129719 21.6610732 81.2327083 21.7649686 81.0528583M13.2062967 72.0751476C13.0621837 72.0272124 12.9359452 72.042076 12.7955561 72.1227112 12.6555393 72.2033465 12.5803176 72.3044192 12.5516439 72.450826 12.4957862 72.7365794 12.5825519 73.4426022 13.7555644 74.9638953 14.269828 75.3622408 14.7338197 75.7728487 15.0779033 76.0935317 14.9687946 75.5996874 14.8399494 74.9293374 14.7580247 74.2255442 14.0326188 72.5715931 13.4773929 72.1658158 13.2062967 72.0751476M16.0933598 71.2499557C15.916477 71.2499557 15.7909833 71.3108966 15.6852259 71.4480136 15.3456109 71.8898352 15.3258745 72.9366068 15.4480167 74.0550955 15.4580711 74.0796205 15.4684979 74.1026591 15.4792971 74.1275557L15.4565816 74.137217C15.5474435 74.930192 15.7068243 75.7532659 15.8717908 76.4165557L16.2508787 76.413583C16.4191967 75.7670148 16.5841632 74.9684659 16.6854519 74.1929557L16.6809833 74.1910977C16.6832176 74.1858955 16.6854519 74.1810648 16.6876862 74.1754909 16.8377573 73.0105534 16.8425983 71.9013545 16.4955356 71.4450409 16.3927573 71.3101534 16.2687531 71.2499557 16.0933598 71.2499557M16.1217356 77.153309C15.769087 77.153309 15.4819782 77.4398056 15.4819782 77.7917022 15.4819782 78.1435988 15.769087 78.4300953 16.1217356 78.4300953 16.4743841 78.4300953 16.7614929 78.1435988 16.7614929 77.7917022 16.7614929 77.4398056 16.4743841 77.153309 16.1217356 77.153309"/>
    <path fill="#FFF" d="M17.1708929 78.6603702L17.3630435 78.3352282C18.9825456 78.7807657 21.4253908 79.7253498 21.797031 80.6075066 21.8629431 80.7639464 21.8528887 80.9010634 21.7650059 81.0526725 21.6611105 81.2328941 21.5121565 81.3131577 21.282395 81.3131577 20.173805 81.3131577 18.0970142 79.546243 17.1708929 78.6603702M17.0390686 76.1376395C17.1492946 75.6679486 17.2829808 75.0269543 17.3749598 74.3458282 18.1037172 72.5934055 18.6689975 72.1683055 18.94419 72.0739214 19.0856962 72.0259861 19.2104452 72.0404782 19.3508343 72.1207418 19.490851 72.2017486 19.56719 72.3039361 19.5969808 72.4518293 19.654328 72.7342384 19.5783615 73.4283702 18.4716335 74.9158486 17.9089598 75.3468941 17.4010268 75.7987486 17.0390686 76.1376395M21.2846293 74.2555316C21.5095498 74.2555316 21.6499389 74.3320793 21.7542067 74.5111861 21.8424619 74.66391 21.8521439 74.8032566 21.7862318 74.9626691 21.4168259 75.8522577 18.9933448 76.8224816 17.3805456 77.2858555L17.1943531 76.9569975C17.6088176 76.5519634 18.2578845 75.9629918 18.9464243 75.4379339L18.9523824 75.442393C18.9575958 75.4353327 18.9624368 75.4290157 18.9676502 75.4219555 19.7991858 74.7902509 20.6850895 74.2555316 21.2846293 74.2555316M22.4703029 77.412568C22.5801565 77.5102964 22.6315456 77.6299486 22.6315456 77.7882464 22.6315456 77.9487736 22.5820184 78.0639668 22.4710477 78.160952 22.2572987 78.3486055 21.619031 78.6280418 19.7541272 78.3891089L19.7511481 78.4102895C19.1311272 78.1550066 18.5211607 77.9517464 18.0579138 77.8105418 18.5490895 77.6552168 19.2100728 77.4266884 19.8725456 77.1379623 21.6469598 76.9477077 22.2621397 77.2271441 22.4703029 77.412568M16.6875372 74.1756395C16.6853029 74.1808418 16.6830686 74.1860441 16.6812067 74.1912464L16.6853029 74.1931043C16.5843866 74.968243 16.4190477 75.7671634 16.2507297 76.41336L15.8720142 76.4167043C15.7066753 75.7534145 15.5476669 74.9303407 15.4564326 74.1369941L15.4791481 74.1277043C15.4687213 74.1024361 15.4579222 74.0797691 15.4478678 74.0548725 15.3260979 72.9367555 15.3458343 71.8896123 15.6854494 71.4481623 15.7908343 71.3110452 15.9167004 71.2501043 16.0932109 71.2501043 16.2686042 71.2501043 16.3926084 71.310302 16.495759 71.4451895 16.8424494 71.9015032 16.8376084 73.010702 16.6875372 74.1756395M16.1218845 78.4299839C15.7688636 78.4299839 15.4821272 78.1434873 15.4821272 77.7915907 15.4821272 77.4396941 15.7688636 77.1531975 16.1218845 77.1531975 16.4745331 77.1531975 16.7612695 77.4396941 16.7612695 77.7915907 16.7612695 78.1434873 16.4745331 78.4299839 16.1218845 78.4299839M13.7553782 74.9641555C12.5827381 73.4424907 12.4956 72.7368395 12.5518301 72.4507145 12.5805038 72.3046793 12.6553531 72.203235 12.7957423 72.1225998 12.9361314 72.0419645 13.0623699 72.0271009 13.2064828 72.0750361 13.4772067 72.1657043 14.0324326 72.5714816 14.7582109 74.2254327 14.8397632 74.9292259 14.9689808 75.5999475 15.0780895 76.0937918 14.7336335 75.7727373 14.2700142 75.3621293 13.7553782 74.9641555M19.9064326 81.602627C20.3953741 81.8501066 20.871282 82.0117486 21.282395 82.0117486 21.7642611 82.0117486 22.1407423 81.8010566 22.3716209 81.4023395 22.5678678 81.0623339 22.5928176 80.6940873 22.4420017 80.3369884 22.2625121 79.9096589 21.8253322 79.5194884 21.2771816 79.174652 22.0435498 79.1464111 22.5924452 78.9847691 22.9335498 78.6852668 23.1938469 78.45711 23.3312569 78.1468316 23.3316293 77.7882464 23.3316293 77.4318907 23.194964 77.1216123 22.9369013 76.8915975 22.6006377 76.5917236 22.0636586 76.4230214 21.3103238 76.3836327 21.8383657 76.0384248 22.2584159 75.6504839 22.4330644 75.2302145 22.5820184 74.8708861 22.5570686 74.5015248 22.3604494 74.1618907 22.1310603 73.7657748 21.7590477 73.5569407 21.2846293 73.5569407 20.871282 73.5569407 20.392395 73.723785 19.9012192 73.9798111 20.2467925 73.3072316 20.3734033 72.7554191 20.2832862 72.3128543 20.2140226 71.9709907 20.0125623 71.6956418 19.7008762 71.5157918 19.387328 71.3351986 19.0473406 71.2995259 18.7162904 71.4132327 18.2910268 71.559268 17.881031 71.9472089 17.4781105 72.5837441 17.450554 71.9490668 17.3299013 71.3868498 17.0532192 71.0226907 16.8186167 70.7142702 16.4864494 70.5515134 16.0932109 70.5515134 15.7003448 70.5515134 15.3670603 70.7142702 15.1302234 71.0226907 14.8505623 71.3864782 14.7239515 71.9486952 14.6889473 72.5833725 14.2767172 71.9446077 13.8592736 71.5570384 13.4287967 71.4128611 13.0977464 71.3017555 12.7573866 71.3381714 12.4457004 71.5172782 12.1325247 71.6978714 11.9318092 71.974335 11.8647799 72.3165702 11.7783866 72.759135 11.911328 73.3105759 12.2662109 73.9812975 11.7876962 73.7315884 11.3222151 73.5692032 10.9163155 73.5599134 11.0898469 73.8348907 11.2663573 74.1072668 11.4477088 74.3762986 12.5890686 74.7902509 14.1925582 76.1967225 14.9700979 76.9569975L14.7835331 77.2858555C14.3053908 77.1483668 13.7553782 76.9651725 13.2087172 76.7537373 13.6626544 77.3129816 14.1340937 77.8577339 14.6230351 78.3861361 14.6826167 78.369043 14.7433155 78.350835 14.8014075 78.3352282L14.9935582 78.6603702C14.9749389 78.6785782 14.9525958 78.6990157 14.9328594 78.7172236 15.2087967 79.0078077 15.4906921 79.2924464 15.7770561 79.5726259 15.8083364 79.4329077 15.8399891 79.2961623 15.8723866 79.1668486L16.2507297 79.170193C16.337123 79.5001657 16.421282 79.8710134 16.4976209 80.2570964 16.7750477 80.5123793 17.0550812 80.7654327 17.3410728 81.0114259 17.256169 80.4462361 17.1481774 79.9170907 17.053964 79.5083407 17.429328 79.8513191 17.9499222 80.3013157 18.5230226 80.7260441 19.2875289 81.766127 19.536282 82.4063782 19.5951188 82.7872589 19.8219013 82.9511305 20.0505456 83.1116577 20.2817967 83.2699555 20.2817967 83.2695839 20.282169 83.2692123 20.282169 83.2688407 20.3748929 82.8270191 20.2508887 82.2755782 19.9064326 81.602627M67.7945025 60.0347475C68.2856782 57.80706 66.9130674 57.7063589 66.9130674 57.7063589 65.7970297 59.6780202 67.7945025 60.0347475 67.7945025 60.0347475M67.5654113 62.4758397C67.5654113 62.4758397 69.3428046 61.8638294 67.9973778 60.5361351 67.9973778 60.5361351 66.1782774 61.0444715 67.5654113 62.4758397"/>
    <path fill="#FFF" d="M68.1061515 60.0528811C70.8904736 59.7444607 69.4608879 57.444313 69.4608879 57.444313 67.7490343 57.6393982 68.1061515 60.0528811 68.1061515 60.0528811M68.2737992 60.3471811C68.4786109 61.8636436 69.845636 61.2326823 69.845636 61.2326823 69.845636 61.2326823 70.0221464 60.5355777 69.5726778 60.1866539 68.9340377 59.6898368 68.2737992 60.3471811 68.2737992 60.3471811M67.7028586 60.2285322C67.7028586 60.2285322 66.3686033 59.4931538 65.8893439 60.8977674 65.8893439 60.8977674 67.157687 61.7535413 67.7028586 60.2285322"/>
  </g>
</svg>
