<svg xmlns="http://www.w3.org/2000/svg" xmlns:xlink="http://www.w3.org/1999/xlink" width="101" height="81" viewBox="0 0 101 81">
  <defs>
    <polygon id="soup_icon_14-a" points="0 77.875 0 .929 30.591 .929 30.591 77.875 0 77.875"/>
  </defs>
  <g fill="none" fill-rule="evenodd">
    <path fill="#A5B6F3" d="M94.984,59.9952 L84.242,72.7372 C84.012,73.0102 83.68,73.1732 83.324,73.1872 C83.306,73.1882 83.289,73.1882 83.271,73.1882 C82.934,73.1882 82.611,73.0562 82.373,72.8172 L77.331,67.7752 C76.835,67.2792 76.835,66.4742 77.331,65.9782 C77.827,65.4822 78.63,65.4822 79.127,65.9782 L79.436,66.2882 L83.191,70.0432 L91.192,60.5532 L93.042,58.3582 C93.495,57.8232 94.296,57.7542 94.831,58.2062 C95.368,58.6582 95.435,59.4592 94.984,59.9952 M86.94,51.9742 C84.597,51.9742 82.393,52.5682 80.47,53.6132 C79.701,54.0312 78.977,54.5202 78.306,55.0742 C77.636,55.6272 77.02,56.2432 76.466,56.9132 C74.53,59.2602 73.367,62.2682 73.367,65.5472 C73.367,68.8272 74.53,71.8352 76.466,74.1812 C77.02,74.8512 77.636,75.4682 78.306,76.0212 C78.977,76.5742 79.701,77.0642 80.47,77.4822 C82.393,78.5272 84.597,79.1202 86.94,79.1202 C94.436,79.1202 100.513,73.0432 100.513,65.5472 C100.513,58.0512 94.436,51.9742 86.94,51.9742"/>
    <g transform="translate(0 2.597)">
      <mask id="soup_icon_14-b" fill="#fff">
        <use xlink:href="#soup_icon_14-a"/>
      </mask>
      <path fill="#FFB8AC" d="M17.8883,21.4289 L12.7023,21.4289 C12.1793,21.4289 11.6683,21.4759 11.1633,21.5449 L2.8463,9.5789 C2.4863,8.7829 2.8143,7.8329 3.6013,7.4319 C3.9923,7.2339 4.4383,7.1999 4.8593,7.3369 C5.2803,7.4739 5.6213,7.7639 5.8553,8.2189 L11.7843,18.4389 C12.0973,18.9789 12.7403,19.2349 13.3363,19.0549 C13.9343,18.8769 14.3333,18.3129 14.3003,17.6899 L13.6463,5.2799 C13.6463,4.3699 14.3853,3.6299 15.2953,3.6299 C16.2053,3.6299 16.9453,4.3699 16.9473,5.2079 L16.2903,17.6899 C16.2583,18.3129 16.6563,18.8769 17.2543,19.0549 C17.8533,19.2349 18.4943,18.9789 18.8073,18.4389 L24.7723,8.1539 C24.9693,7.7639 25.3113,7.4739 25.7323,7.3369 C26.1543,7.1999 26.6003,7.2339 26.9893,7.4319 C27.3793,7.6309 27.6693,7.9719 27.8063,8.3939 C27.9353,8.7889 27.9133,9.2069 27.7453,9.5789 L19.4263,21.5439 C18.9213,21.4759 18.4103,21.4289 17.8883,21.4289 M24.1373,27.0129 C25.9323,29.1509 26.6893,32.2189 26.1483,35.3029 C26.1353,35.4199 25.4973,41.0919 24.3713,48.3459 L13.3793,48.3459 C12.6333,48.3459 12.0293,48.9499 12.0293,49.6969 C12.0293,50.4429 12.6333,51.0469 13.3793,51.0469 L23.9413,51.0469 C22.7513,58.3079 21.1283,66.5799 19.1893,72.3859 C18.6313,74.0539 17.0673,75.1739 15.2953,75.1739 C13.5243,75.1739 11.9593,74.0539 11.4023,72.3859 C10.5383,69.7999 9.7393,66.7209 9.0103,63.4629 L14.8793,63.4629 C15.6243,63.4629 16.2303,62.8589 16.2303,62.1129 C16.2303,61.3669 15.6243,60.7619 14.8793,60.7619 L8.4303,60.7619 C6.7023,52.3849 5.4533,43.3909 4.8463,38.6299 L18.7123,38.6299 C19.4573,38.6299 20.0633,38.0259 20.0633,37.2799 C20.0633,36.5329 19.4573,35.9289 18.7123,35.9289 L4.5133,35.9289 C4.4623,35.4969 4.4343,35.2489 4.4303,35.2179 C3.9023,32.2189 4.6593,29.1509 6.4533,27.0129 C7.4123,25.8699 8.6213,25.0459 9.9843,24.5779 C10.4383,24.4229 10.9103,24.3149 11.3943,24.2409 C11.5853,24.2109 11.7773,24.1839 11.9723,24.1679 C12.2133,24.1479 12.4553,24.1299 12.7023,24.1299 L17.8883,24.1299 C18.1343,24.1299 18.3773,24.1479 18.6183,24.1679 C18.8143,24.1839 19.0053,24.2109 19.1973,24.2409 C19.6803,24.3149 20.1533,24.4229 20.6063,24.5779 C21.9683,25.0459 23.1783,25.8699 24.1373,27.0129 M28.2143,5.0259 C27.1813,4.4999 26.0043,4.4079 24.8973,4.7689 C23.7893,5.1289 22.8903,5.8959 22.4003,6.8639 L19.2813,12.2409 L19.6463,5.2799 C19.6463,2.8809 17.6943,0.9289 15.2953,0.9289 C12.8973,0.9289 10.9453,2.8809 10.9473,5.3509 L11.3093,12.2409 L8.2263,6.9289 C7.7003,5.8959 6.8013,5.1289 5.6943,4.7689 C4.5873,4.4079 3.4093,4.4999 2.3753,5.0259 C0.2383,6.1149 -0.6157,8.7389 0.4733,10.8759 C0.5013,10.9309 0.5323,10.9839 0.5683,11.0329 L8.4013,22.3009 C6.8693,22.9509 5.4993,23.9479 4.3843,25.2769 C2.0483,28.0599 1.0963,31.8539 1.7583,35.6009 C1.8693,36.6069 4.5383,60.3659 8.8403,73.2419 C9.7673,76.0129 12.3603,77.8749 15.2953,77.8749 C18.2303,77.8749 20.8243,76.0129 21.7503,73.2419 C26.0523,60.3659 28.7213,36.6069 28.8213,35.6869 C29.4953,31.8539 28.5423,28.0599 26.2053,25.2769 C25.0913,23.9479 23.7213,22.9509 22.1903,22.3009 L30.0233,11.0329 C30.0593,10.9839 30.0893,10.9309 30.1173,10.8759 C30.6433,9.8429 30.7353,8.6649 30.3743,7.5579 C30.0143,6.4499 29.2473,5.5509 28.2143,5.0259" mask="url(#soup_icon_14-b)"/>
    </g>
    <path fill="#FFB8AC" d="M73.1315,45.295 C73.7065,46.608 73.0445,48.847 71.9105,49.424 C71.3175,49.726 70.8055,50.114 70.3605,50.537 L70.3605,23.907 C70.3605,18.049 67.0135,12.629 61.7975,9.945 C61.8495,9.377 62.1525,9.143 62.6935,8.731 C63.1875,8.354 63.8175,7.838 64.1945,6.996 C64.8835,6.682 65.4975,6.629 66.0515,6.865 C67.1255,7.324 67.9005,8.761 68.1905,9.982 C68.6225,11.794 70.5265,11.454 71.4395,11.293 C72.2295,11.151 73.0475,11.005 73.4775,11.363 C73.9815,11.782 74.2835,12.313 74.3075,12.82 C74.3245,13.203 74.1765,13.554 73.8675,13.863 C72.4095,15.32 71.0935,17.152 73.9425,20.475 C75.6265,22.441 74.8605,23.13 73.7975,24.084 C73.3505,24.487 71.9875,25.715 72.0345,27.509 C72.0705,28.808 72.8365,30.07 74.3145,31.264 C75.0745,31.878 75.4395,32.673 75.4285,33.693 C75.4095,35.378 74.3635,37.075 73.6155,37.652 C71.7175,39.118 71.5545,41.69 73.1315,45.295 M37.7655,49.871 C36.2095,49.482 36.1085,48.611 36.0265,47.911 C36.0265,47.908 36.0135,47.81 36.0135,47.807 C35.9045,46.945 36.1835,46.627 36.6855,46.05 C37.1395,45.53 37.7605,44.817 37.8625,43.694 C38.0665,41.453 36.7155,40.636 35.9095,40.147 C35.4435,39.864 35.3305,39.773 35.3095,39.656 C35.0045,38.073 35.4695,37.698 36.3145,37.017 C37.0465,36.427 38.0485,35.619 38.0975,34.013 C38.1495,32.301 37.0215,31.235 36.1135,30.38 C35.0255,29.353 34.6335,28.876 34.8405,27.944 C34.9385,27.506 35.1445,27.357 35.9145,26.957 C36.7275,26.534 37.8405,25.957 38.3415,24.456 C38.9825,22.534 37.7965,21.335 37.0125,20.542 L36.7515,20.275 C34.9335,18.379 34.9275,16.563 35.0855,15.648 C35.2945,14.441 35.9565,13.608 36.4855,13.344 C38.5135,12.329 39.7895,10.352 41.0395,6.292 C41.3235,5.366 41.9475,4.708 42.9465,4.281 C44.7005,3.531 46.9665,3.812 47.4335,4.045 C48.9855,4.822 53.4265,5.6 56.5065,2.862 C57.0915,2.341 58.7815,2.338 60.2685,3.165 C60.9975,3.571 62.1765,4.463 61.9635,5.908 C61.8665,6.206 61.6325,6.396 61.1775,6.743 C60.3055,7.409 58.9855,8.416 59.3585,11.02 C59.4515,11.681 59.3755,12.157 59.1285,12.435 C58.4275,13.222 56.1455,13.165 54.6315,13.128 C52.0835,13.062 50.6885,14.831 50.4455,16.609 C50.1735,18.61 51.2435,20.379 52.9905,20.816 C54.5015,21.194 55.1945,21.837 55.5185,22.419 C55.7745,22.878 55.7995,23.298 55.8125,23.52 C55.8485,24.131 55.6025,24.824 55.1865,25.287 C54.8525,25.659 54.4305,25.859 53.9335,25.885 C51.1095,26.021 48.8975,27.602 48.2925,29.914 C47.8295,31.69 48.4025,33.502 49.7935,34.935 C50.2095,35.363 50.6905,35.762 51.2475,36.11 C53.7735,37.69 54.4755,38.772 54.6185,39.401 C54.6765,39.656 54.6985,40.02 54.3515,40.569 C53.9915,41.138 53.2015,41.656 52.3655,42.205 C50.7505,43.267 48.7385,44.587 48.7385,47.193 C48.7385,49.37 50.2795,50.453 51.5175,51.323 C52.6395,52.112 53.2745,52.603 53.2745,53.495 C53.2745,53.907 53.2745,54.031 51.8845,54.474 C50.7055,54.849 49.0925,55.362 48.3085,57.141 C47.7735,58.353 47.7085,59.494 48.1135,60.535 C48.6055,61.793 49.7395,62.796 51.5845,63.601 C52.5925,64.041 53.0425,65.309 53.0425,66.369 L53.0425,71.863 C53.0425,72.554 53.6025,73.113 54.2925,73.113 C54.9845,73.113 55.5425,72.554 55.5425,71.863 L55.5425,66.369 C55.5425,64.081 54.3815,62.095 52.5845,61.31 C51.3975,60.791 50.6765,60.226 50.4435,59.627 C50.2855,59.223 50.3355,58.739 50.5955,58.15 C50.9095,57.44 51.5775,57.195 52.6435,56.857 C53.8895,56.459 55.7745,55.859 55.7745,53.495 C55.7745,51.261 54.1445,50.115 52.9555,49.278 C51.7625,48.44 51.2385,47.989 51.2385,47.193 C51.2385,46.021 52.1835,45.316 53.7385,44.295 C54.7595,43.625 55.8155,42.932 56.4645,41.905 C57.0925,40.911 57.2925,39.882 57.0565,38.846 C56.6845,37.212 55.2595,35.669 52.5725,33.991 C51.8285,33.526 51.2825,32.97 50.9635,32.378 C50.6455,31.787 50.5525,31.159 50.7125,30.546 C50.9445,29.657 51.6605,28.989 52.6715,28.643 C53.0855,28.501 53.5425,28.407 54.0445,28.384 C55.2195,28.328 56.2565,27.835 57.0455,26.959 C57.9105,25.995 58.3835,24.655 58.3085,23.373 C58.2265,21.976 57.6475,20.816 56.6565,19.93 C55.8835,19.237 54.8655,18.708 53.5975,18.391 C53.0505,18.254 52.8425,17.545 52.9235,16.946 C52.9795,16.539 53.2385,15.576 54.5695,15.628 C55.9015,15.661 57.4245,15.692 58.7495,15.355 C59.6225,15.132 60.4125,14.753 60.9965,14.096 C61.3345,13.716 61.5625,13.267 61.7105,12.771 C65.4895,15.18 67.8605,19.39 67.8605,23.907 L67.8605,63.563 C67.8605,68.505 64.1565,72.69 59.2455,73.297 C58.6185,73.374 58.1485,73.906 58.1485,74.537 L58.1485,76.049 C58.1485,77.054 57.3305,77.871 56.3265,77.871 L52.9985,77.871 C51.9945,77.871 51.1775,77.054 51.1775,76.049 L51.1775,74.537 C51.1775,73.906 50.7065,73.374 50.0805,73.297 C45.1685,72.69 41.4645,68.505 41.4645,63.563 L41.4645,56.541 L41.4645,55.878 C41.4445,55.22 41.3895,54.459 41.2175,53.686 C40.8575,52.076 39.9715,50.422 37.7655,49.871 M75.2885,44.352 C74.1995,41.863 74.1205,40.236 75.0545,39.516 C76.3565,38.51 77.7555,36.137 77.7815,33.72 C77.8015,31.982 77.1125,30.499 75.7925,29.432 C74.8895,28.702 74.4035,28.016 74.3885,27.445 C74.3755,26.969 74.6965,26.441 75.3715,25.834 C76.4305,24.882 78.9095,22.653 75.7295,18.943 C74.0615,16.998 74.4615,16.598 75.5315,15.527 C76.3065,14.753 76.7065,13.753 76.6585,12.712 C76.6045,11.544 75.9925,10.393 74.9805,9.553 C73.7085,8.496 72.0935,8.783 71.0265,8.976 C70.8345,9.01 70.5835,9.054 70.3855,9.077 C69.9065,7.407 68.7935,5.477 66.9755,4.7 C66.3395,4.43 65.4395,4.239 64.3425,4.473 C64.0005,3.074 63.0185,1.834 61.4855,0.981 C59.4595,-0.144 56.5295,-0.502 54.8465,0.993 C52.6955,2.905 49.4325,2.25 48.5515,1.809 C47.3855,1.227 44.3715,0.952 41.9635,1.982 C40.2965,2.696 39.1505,3.932 38.6505,5.557 C37.4015,9.617 36.3335,10.624 35.3665,11.107 C33.9935,11.794 32.9435,13.37 32.6215,15.222 C32.3835,16.601 32.3675,19.316 34.9465,22.006 L35.2355,22.3 C36.0475,23.122 36.0975,23.282 35.9695,23.665 C35.7975,24.182 35.4555,24.378 34.7635,24.738 C33.9175,25.177 32.7605,25.777 32.4005,27.401 C31.8645,29.808 33.3285,31.189 34.3975,32.197 C35.1525,32.911 35.6145,33.377 35.5985,33.937 C35.5855,34.35 35.4145,34.531 34.7455,35.07 C33.7585,35.866 32.2655,37.069 32.8545,40.129 C33.0905,41.362 34.0075,41.917 34.6135,42.285 C35.2775,42.687 35.4345,42.782 35.3715,43.468 C35.3465,43.758 35.1945,43.956 34.8015,44.407 C34.1975,45.1 33.2855,46.146 33.5425,48.202 C33.6385,49.015 33.9275,51.489 37.1595,52.297 C38.6625,52.673 38.9645,54.199 38.9645,56.541 L38.9645,63.563 C38.9645,69.392 43.0685,74.38 48.6775,75.592 L48.6775,76.049 C48.6775,78.432 50.6165,80.371 52.9985,80.371 L56.3265,80.371 C58.7095,80.371 60.6485,78.432 60.6485,76.049 L60.6485,75.592 C66.2575,74.38 70.3605,69.392 70.3605,63.563 L70.3605,54.715 C70.6505,53.994 71.4645,52.292 72.9795,51.522 C75.2275,50.377 76.3715,46.825 75.2885,44.352"/>
    <path fill="#FFB8AC" d="M57.7096 71.5841C57.7856 71.5841 57.8646 71.5751 57.9426 71.5571 60.3706 70.9741 64.9596 68.2971 64.9596 62.3341L64.9596 54.3341C64.9596 53.7811 64.5126 53.3341 63.9596 53.3341 63.4076 53.3341 62.9596 53.7811 62.9596 54.3341L62.9596 62.3341C62.9596 68.1731 57.7236 69.5501 57.4756 69.6121 56.9386 69.7411 56.6086 70.2811 56.7376 70.8171 56.8476 71.2761 57.2576 71.5841 57.7096 71.5841M61.0133 19.0919C62.2873 21.0279 62.9593 23.4069 62.9593 25.9759L62.9593 39.5839C62.9593 40.1369 63.4083 40.5839 63.9593 40.5839 64.5123 40.5839 64.9593 40.1369 64.9593 39.5839L64.9593 25.9759C64.9593 23.0159 64.1733 20.2549 62.6853 17.9929 62.3763 17.5229 62.0433 17.0819 61.6983 16.6819 61.3373 16.2659 60.7043 16.2189 60.2873 16.5809 59.8693 16.9429 59.8253 17.5739 60.1863 17.9919 60.4753 18.3239 60.7523 18.6949 61.0133 19.0919M40.7096 47.4591C42.3186 47.4591 43.0246 48.2991 43.3376 49.0491 43.5296 49.5111 43.5756 49.9361 43.5846 50.1131L43.5846 62.5841C43.5846 69.2151 48.3016 70.9561 48.5016 71.0271 48.6126 71.0651 48.7256 71.0841 48.8346 71.0841 49.2466 71.0841 49.6336 70.8271 49.7776 70.4171 49.9626 69.8971 49.6886 69.3251 49.1676 69.1411 49.1316 69.1281 45.5846 67.8161 45.5846 62.5841L45.5846 50.0841C45.5556 49.1861 45.2146 47.9061 44.3136 46.9161 43.5596 46.0851 42.4116 45.4591 40.7096 45.4591 40.1576 45.4591 39.7096 45.9061 39.7096 46.4591 39.7096 47.0121 40.1576 47.4591 40.7096 47.4591"/>
  </g>
</svg>
