<svg xmlns="http://www.w3.org/2000/svg" width="88" height="19" viewBox="0 0 88 19">
  <path fill="#4A4A4A" fill-rule="evenodd" d="M23,2 L28.12,16.28 L30.76,16.28 L35.88,2 L33.52,2 L29.48,13.84 L29.42,13.84 L25.36,2 L23,2 Z M41.94,5.66 C43.5,5.66 44.76,6.18 45.7,7.22 C46.62,8.24 47.1,9.54 47.1,11.12 C47.1,12.68 46.64,13.98 45.72,14.98 C44.76,16.02 43.5,16.56 41.94,16.56 C40.38,16.56 39.12,16.02 38.16,14.98 C37.24,13.98 36.78,12.68 36.78,11.12 C36.78,9.54 37.24,8.24 38.18,7.22 C39.12,6.18 40.38,5.66 41.94,5.66 Z M41.94,7.4 C40.96,7.4 40.2,7.78 39.66,8.56 C39.18,9.22 38.96,10.08 38.96,11.12 C38.96,12.16 39.18,13 39.66,13.66 C40.2,14.42 40.96,14.82 41.94,14.82 C42.92,14.82 43.68,14.42 44.24,13.66 C44.72,12.98 44.96,12.14 44.96,11.12 C44.96,10.08 44.72,9.22 44.24,8.56 C43.68,7.78 42.92,7.4 41.94,7.4 Z M52.26,2.6 L50.14,3.48 L50.14,5.94 L48.22,5.94 L48.22,7.7 L50.14,7.7 L50.14,13.7 C50.14,14.52 50.32,15.14 50.72,15.58 C51.12,16.04 51.78,16.28 52.66,16.28 L54.36,16.28 L54.36,14.52 L53,14.52 C52.74,14.52 52.56,14.44 52.44,14.32 C52.32,14.18 52.26,13.98 52.26,13.7 L52.26,7.7 L54.62,7.7 L54.62,5.94 L52.26,5.94 L52.26,2.6 Z M60.7,5.66 C62.38,5.66 63.68,6.22 64.56,7.38 C65.36,8.42 65.78,9.86 65.8,11.7 L57.96,11.7 C58.04,12.7 58.3,13.48 58.78,14.02 C59.26,14.54 59.92,14.82 60.76,14.82 C61.5,14.82 62.1,14.64 62.56,14.3 C62.92,14.02 63.22,13.56 63.5,12.96 L65.62,12.96 C65.38,13.92 64.92,14.74 64.2,15.38 C63.3,16.16 62.16,16.56 60.78,16.56 C59.26,16.56 58.04,16.08 57.16,15.14 C56.2,14.14 55.72,12.8 55.72,11.1 C55.72,9.56 56.16,8.28 57.08,7.24 C57.96,6.18 59.18,5.66 60.7,5.66 Z M60.76,7.4 C59.96,7.4 59.34,7.62 58.86,8.1 C58.42,8.56 58.12,9.22 58,10.1 L63.58,10.1 C63.38,8.3 62.44,7.4 60.76,7.4 Z"/>
</svg>
