<svg xmlns="http://www.w3.org/2000/svg" width="88" height="19" viewBox="0 0 88 19">
  <path fill="#4A4A4A" fill-rule="evenodd" d="M1037.294,1971.118 C1037.888,1971.118 1038.196,1971.272 1038.196,1971.536 C1038.13,1971.91 1037.844,1972.152 1037.338,1972.262 L1037.316,1972.262 C1037.382,1972.416 1037.426,1972.548 1037.426,1972.636 C1037.382,1975.936 1037.338,1979.192 1037.294,1982.448 C1037.162,1983.9 1036.92,1984.604 1036.546,1984.604 C1036.238,1984.56 1036.04,1983.9 1035.93,1982.624 C1035.974,1981.832 1036.018,1981.084 1036.062,1980.336 C1035.776,1980.468 1035.446,1980.6 1035.094,1980.732 C1033.84,1981.612 1033.07,1982.03 1032.806,1982.03 C1031.508,1981.964 1030.782,1981.59 1030.65,1980.908 C1030.65,1980.776 1030.716,1980.688 1030.848,1980.688 C1030.98,1980.732 1031.134,1980.754 1031.288,1980.754 C1031.882,1980.754 1032.432,1980.644 1032.938,1980.402 C1032.872,1980.182 1032.828,1979.896 1032.806,1979.566 C1032.916,1977.806 1032.982,1976.024 1032.982,1974.264 C1032.982,1973.956 1032.872,1973.648 1032.652,1973.384 L1032.608,1973.384 C1031.728,1973.296 1031.288,1973.032 1031.266,1972.57 C1031.288,1972.394 1031.86,1972.218 1032.982,1972.02 C1035.05,1971.47 1036.48,1971.162 1037.294,1971.118 Z M1034.038,1979.984 C1034.742,1979.72 1035.424,1979.434 1036.106,1979.17 C1036.194,1976.926 1036.26,1974.858 1036.26,1973.01 C1036.238,1972.834 1036.172,1972.658 1036.084,1972.482 C1035.688,1972.57 1035.27,1972.658 1034.83,1972.768 C1034.456,1972.9 1034.148,1973.01 1033.884,1973.098 C1034.06,1973.274 1034.148,1973.494 1034.17,1973.758 C1034.126,1973.846 1034.082,1974.22 1034.082,1974.902 C1034.17,1974.88 1034.28,1974.858 1034.368,1974.814 C1034.698,1974.704 1034.962,1974.638 1035.182,1974.594 C1035.622,1974.638 1035.864,1974.858 1035.864,1975.21 C1035.82,1975.496 1035.6,1975.65 1035.248,1975.694 C1034.852,1975.826 1034.61,1975.892 1034.5,1975.914 C1034.324,1975.914 1034.17,1975.914 1034.06,1975.892 C1034.038,1976.332 1034.038,1976.816 1034.038,1977.344 C1034.126,1977.3 1034.236,1977.278 1034.368,1977.234 C1034.698,1977.124 1034.962,1977.058 1035.182,1977.036 C1035.622,1977.08 1035.864,1977.278 1035.864,1977.63 C1035.82,1977.916 1035.6,1978.07 1035.248,1978.114 C1034.852,1978.224 1034.61,1978.29 1034.5,1978.29 C1034.302,1978.29 1034.148,1978.29 1034.038,1978.268 L1034.038,1979.984 Z M1041.958,1974.264 C1042.53,1974.308 1042.838,1974.638 1042.838,1975.254 C1042.794,1975.628 1042.53,1976.068 1042.046,1976.596 C1041.782,1976.926 1041.562,1977.124 1041.364,1977.212 C1041.144,1977.212 1041.034,1977.124 1041.034,1976.948 C1041.056,1976.816 1041.078,1976.684 1041.122,1976.552 C1040.88,1976.662 1040.594,1976.794 1040.264,1976.926 C1039.604,1977.19 1039.142,1977.344 1038.922,1977.344 C1038.57,1977.344 1038.394,1977.19 1038.394,1976.882 C1038.394,1976.684 1038.79,1976.024 1039.626,1974.88 C1039.89,1974.462 1040.132,1974.066 1040.352,1973.714 C1039.384,1974.198 1038.79,1974.44 1038.526,1974.44 C1038.196,1974.44 1038.042,1974.286 1038.042,1973.934 C1038.042,1973.406 1038.262,1972.944 1038.702,1972.548 C1039.406,1972.064 1039.78,1971.338 1039.846,1970.37 C1039.846,1970.282 1039.802,1970.15 1039.714,1970.018 C1039.714,1969.974 1039.736,1969.908 1039.78,1969.82 C1040.44,1969.864 1040.814,1970.128 1040.902,1970.59 C1040.902,1971.118 1040.55,1971.932 1039.868,1973.054 C1040.154,1972.944 1040.528,1972.812 1040.968,1972.658 C1041.32,1971.998 1041.496,1971.514 1041.496,1971.228 C1041.452,1971.184 1041.43,1971.096 1041.408,1970.964 C1041.408,1970.7 1041.628,1970.568 1042.068,1970.568 C1042.552,1970.568 1042.816,1970.92 1042.816,1971.624 C1042.816,1971.932 1042.376,1972.592 1041.54,1973.56 C1040.792,1974.528 1040.396,1975.166 1040.33,1975.452 C1040.33,1975.54 1040.374,1975.562 1040.462,1975.562 C1040.704,1975.562 1041.012,1975.474 1041.364,1975.342 C1041.386,1975.144 1041.408,1974.99 1041.43,1974.858 C1041.408,1974.792 1041.386,1974.726 1041.386,1974.638 C1041.43,1974.418 1041.606,1974.308 1041.958,1974.264 Z M1044.136,1969.358 C1044.796,1969.402 1045.17,1969.666 1045.258,1970.128 C1045.258,1970.656 1044.972,1971.536 1044.422,1972.724 C1044.664,1972.636 1044.972,1972.548 1045.368,1972.416 C1045.632,1971.91 1045.786,1971.536 1045.786,1971.294 C1045.742,1971.25 1045.72,1971.14 1045.698,1971.008 C1045.698,1970.766 1045.918,1970.634 1046.358,1970.634 C1046.842,1970.634 1047.106,1970.986 1047.106,1971.668 C1047.106,1971.954 1046.71,1972.504 1045.94,1973.34 C1045.258,1974.176 1044.884,1974.704 1044.818,1974.946 C1044.818,1975.012 1044.862,1975.034 1044.95,1975.034 C1045.258,1975.034 1045.632,1974.968 1046.072,1974.836 C1046.028,1974.66 1046.006,1974.462 1046.006,1974.242 C1046.006,1974.066 1046.072,1973.978 1046.204,1973.978 C1046.6,1974.066 1046.952,1974.286 1047.304,1974.66 C1047.612,1974.99 1047.766,1975.32 1047.766,1975.672 C1047.722,1976.398 1047.458,1976.75 1046.952,1976.75 C1046.754,1976.75 1046.556,1976.53 1046.336,1976.09 C1046.314,1976.046 1046.292,1975.98 1046.27,1975.892 C1045.918,1976.024 1045.478,1976.2 1044.95,1976.398 C1044.202,1976.662 1043.674,1976.816 1043.41,1976.816 C1043.058,1976.816 1042.882,1976.662 1042.882,1976.354 C1042.882,1976.178 1043.256,1975.584 1044.026,1974.572 C1044.29,1974.176 1044.532,1973.824 1044.752,1973.472 C1043.872,1973.912 1043.322,1974.11 1043.08,1974.11 C1042.75,1974.11 1042.596,1973.956 1042.596,1973.604 C1042.596,1973.032 1042.794,1972.57 1043.19,1972.174 C1043.806,1971.646 1044.136,1970.898 1044.202,1969.908 C1044.202,1969.798 1044.158,1969.688 1044.07,1969.556 C1044.07,1969.49 1044.092,1969.424 1044.136,1969.358 Z M1044.048,1977.08 C1043.608,1977.124 1043.366,1977.278 1043.278,1977.52 C1043.542,1977.872 1043.696,1978.224 1043.696,1978.576 C1043.696,1980.336 1043.63,1982.118 1043.52,1983.878 C1043.63,1985 1043.828,1985.572 1044.114,1985.66 C1044.51,1985.66 1044.774,1985.176 1044.862,1984.252 C1044.862,1983.174 1044.862,1982.228 1044.884,1981.392 C1044.972,1981.414 1045.126,1981.414 1045.302,1981.414 C1045.412,1981.414 1045.632,1981.392 1045.962,1981.348 C1046.006,1981.986 1046.16,1982.316 1046.402,1982.316 C1046.666,1982.316 1046.864,1982.14 1047.04,1981.766 C1047.348,1981.106 1047.59,1980.116 1047.81,1978.818 C1047.744,1978.224 1047.392,1977.872 1046.732,1977.784 C1046.424,1977.784 1046.204,1977.894 1046.116,1978.07 C1046.138,1978.136 1046.182,1978.18 1046.226,1978.202 C1046.292,1978.246 1046.358,1978.356 1046.424,1978.488 C1046.424,1979.192 1046.38,1979.764 1046.314,1980.226 C1046.292,1980.226 1046.27,1980.204 1046.248,1980.204 C1046.006,1980.226 1045.698,1980.292 1045.324,1980.402 C1045.17,1980.446 1045.016,1980.468 1044.884,1980.512 C1044.906,1978.972 1044.95,1978.158 1045.016,1978.026 C1044.972,1977.41 1044.642,1977.08 1044.048,1977.08 Z M1040.924,1977.432 C1041.804,1977.586 1042.288,1977.894 1042.332,1978.378 C1042.288,1978.554 1042.222,1978.862 1042.178,1979.346 C1042.178,1981.546 1041.958,1982.932 1041.54,1983.548 C1041.122,1984.384 1040.506,1984.846 1039.67,1984.956 C1039.538,1984.956 1039.45,1984.89 1039.384,1984.736 C1039.45,1984.604 1039.538,1984.494 1039.67,1984.406 C1040.11,1984.01 1040.418,1983.416 1040.638,1982.646 C1040.704,1982.492 1040.77,1982.162 1040.836,1981.634 L1040.814,1981.634 C1040.286,1981.634 1039.846,1981.7 1039.494,1981.788 C1039.01,1982.008 1038.746,1982.118 1038.658,1982.118 C1038.35,1982.096 1038.196,1981.964 1038.174,1981.722 C1038.174,1981.59 1038.24,1981.194 1038.372,1980.556 C1038.482,1980.028 1038.548,1979.654 1038.57,1979.39 C1038.57,1979.236 1038.504,1979.126 1038.372,1979.082 C1038.284,1979.082 1038.262,1979.06 1038.262,1978.994 C1038.262,1978.752 1038.504,1978.62 1038.988,1978.62 C1039.516,1978.664 1039.802,1978.928 1039.846,1979.39 C1039.846,1979.522 1039.824,1979.676 1039.802,1979.852 C1039.736,1980.138 1039.692,1980.358 1039.692,1980.49 C1039.692,1980.644 1039.736,1980.71 1039.846,1980.71 C1040.286,1980.578 1040.572,1980.512 1040.704,1980.49 C1040.792,1980.49 1040.858,1980.512 1040.902,1980.534 C1040.924,1980.072 1040.946,1979.544 1040.968,1978.928 C1040.924,1978.488 1040.748,1978.092 1040.44,1977.784 C1040.484,1977.608 1040.66,1977.476 1040.924,1977.432 Z M1058.26943,1971.008 C1058.70943,1971.074 1058.95143,1971.382 1058.99543,1971.954 C1058.95143,1972.46 1058.75343,1973.032 1058.35743,1973.67 C1058.09343,1974.22 1057.89543,1974.616 1057.78543,1974.836 C1057.78543,1974.924 1057.82943,1974.946 1057.91743,1974.946 L1059.17143,1974.572 C1059.65543,1973.648 1059.89743,1972.988 1059.89743,1972.636 C1059.85343,1972.592 1059.83143,1972.504 1059.80943,1972.394 C1059.80943,1972.174 1060.00743,1972.042 1060.40343,1972.042 C1060.84343,1972.042 1061.08543,1972.372 1061.08543,1972.988 C1061.08543,1973.384 1060.66743,1974.176 1059.83143,1975.386 C1059.08343,1976.596 1058.68743,1977.388 1058.62143,1977.74 C1058.62143,1977.828 1058.66543,1977.85 1058.79743,1977.85 C1059.10543,1977.806 1059.47943,1977.696 1059.94143,1977.476 C1059.89743,1977.256 1059.85343,1977.014 1059.85343,1976.75 C1059.85343,1976.574 1059.91943,1976.464 1060.07343,1976.464 C1060.46943,1976.53 1060.84343,1976.706 1061.19543,1977.014 C1061.50343,1977.3 1061.65743,1977.586 1061.65743,1977.872 C1061.65743,1978.092 1061.63543,1978.29 1061.59143,1978.422 C1062.42743,1978.092 1063.35143,1977.41 1064.40743,1976.398 C1064.56143,1976.266 1064.71543,1976.112 1064.84743,1975.98 C1063.98943,1975.54 1063.17543,1975.254 1062.42743,1975.122 C1062.25143,1975.122 1062.16343,1975.056 1062.16343,1974.924 C1062.29543,1974.572 1062.58143,1974.374 1063.04343,1974.352 C1063.54943,1974.396 1064.38543,1974.704 1065.55143,1975.232 C1066.16743,1974.55 1066.62943,1973.868 1066.98143,1973.164 C1066.98143,1972.944 1066.89343,1972.812 1066.71743,1972.812 C1066.47543,1972.834 1066.01343,1972.988 1065.30943,1973.252 C1064.56143,1973.538 1064.09943,1973.692 1063.90143,1973.714 C1063.41743,1973.714 1063.19743,1973.516 1063.19743,1973.12 C1063.19743,1972.944 1063.57143,1972.438 1064.31943,1971.58 C1065.02343,1970.744 1065.39743,1970.128 1065.39743,1969.732 C1065.37543,1969.6 1065.35343,1969.49 1065.33143,1969.38 C1065.33143,1969.248 1065.44143,1969.182 1065.70543,1969.182 C1066.14543,1969.27 1066.36543,1969.556 1066.40943,1969.996 C1066.40943,1970.128 1066.34343,1970.37 1066.21143,1970.678 C1065.94743,1971.206 1065.79343,1971.58 1065.70543,1971.822 C1065.70543,1971.954 1065.74943,1971.998 1065.83743,1971.998 C1067.04743,1971.624 1067.72943,1971.426 1067.86143,1971.426 C1068.69743,1971.536 1069.13743,1971.844 1069.18143,1972.35 C1069.18143,1972.658 1068.78543,1973.208 1068.01543,1974.044 C1067.57543,1974.66 1067.13543,1975.232 1066.67343,1975.76 C1066.87143,1975.87 1067.09143,1975.98 1067.31143,1976.09 C1068.80743,1976.75 1070.28143,1977.19 1071.75543,1977.41 C1072.23943,1977.52 1072.50343,1977.608 1072.50343,1977.674 C1072.32743,1978.598 1071.62343,1979.126 1070.34743,1979.214 C1069.68743,1979.214 1068.41143,1978.488 1066.51943,1977.036 C1066.29943,1976.882 1066.07943,1976.728 1065.90343,1976.596 C1065.48543,1977.036 1065.06743,1977.454 1064.64943,1977.806 C1063.72543,1978.862 1062.97743,1979.39 1062.40543,1979.39 C1061.67943,1979.39 1061.26143,1979.258 1061.15143,1978.972 C1061.01943,1979.038 1060.90943,1979.06 1060.77743,1979.06 C1060.57943,1979.06 1060.40343,1978.884 1060.22743,1978.51 C1059.80943,1978.73 1059.28143,1979.016 1058.64343,1979.368 C1057.78543,1979.786 1057.21343,1980.006 1056.90543,1980.006 C1056.46543,1980.006 1056.26743,1979.83 1056.26743,1979.456 C1056.26743,1979.236 1056.72943,1978.422 1057.69743,1977.058 C1057.87343,1976.794 1058.02743,1976.552 1058.15943,1976.332 C1057.52143,1976.596 1056.94943,1976.75 1056.46543,1976.794 C1056.02543,1976.794 1055.78343,1976.574 1055.71743,1976.112 C1055.71743,1975.826 1056.11343,1975.1 1056.90543,1973.956 C1057.60943,1973.032 1057.98343,1972.218 1058.02743,1971.558 C1058.02743,1971.492 1058.00543,1971.448 1057.98343,1971.404 C1057.91743,1971.36 1057.89543,1971.294 1057.89543,1971.228 C1057.89543,1971.096 1058.00543,1971.008 1058.26943,1971.008 Z M1056.68543,1980.798 C1056.15743,1981.282 1055.62943,1981.546 1055.14543,1981.612 C1054.88143,1981.59 1054.66143,1981.568 1054.44143,1981.568 C1054.24343,1981.568 1054.15543,1981.678 1054.15543,1981.898 C1054.19943,1982.778 1054.61743,1983.24 1055.38743,1983.284 C1055.78343,1983.24 1056.11343,1983.02 1056.42143,1982.602 C1056.72943,1982.162 1056.88343,1981.7 1056.92743,1981.238 C1056.92743,1980.952 1056.83943,1980.798 1056.68543,1980.798 Z M1060.22743,1979.764 C1061.30543,1979.83 1061.85543,1980.204 1061.85543,1980.864 C1061.83343,1981.48 1061.56943,1981.788 1061.06343,1981.832 C1060.73343,1981.788 1060.46943,1981.612 1060.29343,1981.304 C1060.00743,1980.908 1059.85343,1980.49 1059.83143,1980.006 C1059.83143,1979.852 1059.96343,1979.764 1060.22743,1979.764 Z M1058.00543,1980.446 C1057.74143,1980.446 1057.60943,1980.534 1057.60943,1980.688 C1057.63143,1981.15 1057.76343,1981.568 1058.00543,1981.964 C1058.13743,1982.294 1058.35743,1982.47 1058.62143,1982.492 C1059.14943,1982.448 1059.41343,1982.14 1059.45743,1981.524 C1059.45743,1980.864 1058.97343,1980.512 1058.00543,1980.446 Z M1063.15343,1979.764 C1063.30743,1979.764 1063.46143,1979.83 1063.61543,1979.962 C1063.87943,1979.852 1064.36343,1979.72 1065.04543,1979.566 C1066.01343,1979.302 1066.87143,1979.148 1067.59743,1979.104 C1068.91743,1979.236 1069.62143,1979.742 1069.70943,1980.622 C1069.70943,1981.282 1069.51143,1981.92 1069.11543,1982.492 C1069.02743,1982.646 1068.96143,1982.756 1068.91743,1982.844 C1069.20343,1982.976 1069.35743,1983.174 1069.35743,1983.46 C1069.29143,1983.79 1069.04943,1983.988 1068.60943,1984.032 C1067.04743,1984.164 1066.01343,1984.252 1065.50743,1984.274 C1065.24343,1984.274 1065.04543,1984.274 1064.86943,1984.23 C1064.82543,1984.604 1064.69343,1984.802 1064.42943,1984.824 C1064.09943,1984.824 1063.76943,1984.494 1063.46143,1983.812 C1063.15343,1983.174 1062.95543,1982.338 1062.86743,1981.304 C1062.86743,1980.358 1062.95543,1979.852 1063.15343,1979.764 Z M1064.78143,1983.372 C1065.24343,1983.284 1065.88143,1983.152 1066.69543,1983.02 C1066.98143,1982.976 1067.22343,1982.932 1067.42143,1982.888 C1067.44343,1982.646 1067.53143,1982.382 1067.66343,1982.074 C1067.77343,1981.7 1067.83943,1981.238 1067.83943,1980.688 C1067.81743,1980.49 1067.75143,1980.38 1067.61943,1980.38 C1067.22343,1980.424 1066.78343,1980.512 1066.25543,1980.622 C1065.81543,1980.798 1065.39743,1980.886 1065.00143,1980.886 C1064.69343,1980.886 1064.42943,1980.864 1064.20943,1980.82 C1064.20943,1980.842 1064.23143,1980.842 1064.23143,1980.842 C1064.31943,1981.48 1064.45143,1982.118 1064.60543,1982.734 C1064.67143,1982.976 1064.73743,1983.196 1064.78143,1983.372 Z M1084.54686,1970.414 C1085.31686,1970.502 1085.75686,1970.876 1085.84486,1971.536 C1085.82286,1972.13 1085.51486,1972.526 1084.92086,1972.746 C1083.93086,1973.274 1083.00686,1973.538 1082.17086,1973.538 C1081.29086,1973.538 1080.87286,1973.406 1080.87286,1973.12 C1080.87286,1972.9 1081.04886,1972.724 1081.44486,1972.636 C1082.30286,1972.284 1083.00686,1971.888 1083.55686,1971.47 C1084.04086,1971.14 1084.30486,1970.876 1084.34886,1970.656 C1084.37086,1970.502 1084.43686,1970.414 1084.54686,1970.414 Z M1083.99686,1973.406 C1084.50286,1973.406 1084.78886,1973.912 1084.87686,1974.902 C1085.82286,1974.704 1086.70286,1974.528 1087.51686,1974.396 C1087.49486,1974.374 1087.49486,1974.352 1087.49486,1974.352 C1086.87886,1971.272 1086.21886,1969.534 1085.47086,1969.138 C1085.64686,1968.676 1085.99886,1968.434 1086.57086,1968.39 C1087.36286,1968.39 1087.78086,1968.742 1087.84686,1969.402 C1087.89086,1970.876 1088.13286,1972.482 1088.57286,1974.242 C1089.62886,1974.088 1090.53086,1974 1091.27886,1973.956 C1092.18086,1973.956 1092.64286,1974.264 1092.64286,1974.858 C1092.64286,1975.254 1092.37886,1975.452 1091.87286,1975.452 C1090.94886,1975.452 1089.95886,1975.518 1088.92486,1975.606 C1089.23286,1976.75 1089.60686,1977.916 1090.04686,1979.126 C1090.35486,1978.444 1090.59686,1977.696 1090.79486,1976.86 C1090.79486,1976.684 1090.75086,1976.574 1090.66286,1976.508 C1090.66286,1976.332 1090.75086,1976.244 1090.94886,1976.244 C1091.52086,1976.244 1091.80686,1976.662 1091.80686,1977.498 C1091.60886,1978.818 1091.30086,1979.918 1090.88286,1980.798 C1092.07086,1982.998 1093.03886,1984.098 1093.78686,1984.098 C1093.98486,1983.57 1094.11686,1983.262 1094.20486,1983.13 C1094.57886,1983.306 1094.77686,1983.878 1094.77686,1984.846 C1094.77686,1985.682 1094.40286,1986.122 1093.65486,1986.122 C1092.42286,1986.122 1091.23486,1984.802 1090.04686,1982.118 C1089.56286,1982.69 1088.96886,1983.108 1088.30886,1983.35 C1087.75886,1983.57 1087.34086,1983.68 1087.03286,1983.68 C1086.70286,1983.68 1086.54886,1983.548 1086.54886,1983.262 C1086.54886,1983.262 1086.70286,1983.13 1087.03286,1982.866 C1087.95686,1982.25 1088.74886,1981.458 1089.36486,1980.446 C1088.83686,1979.104 1088.35286,1977.542 1087.86886,1975.738 C1087.78086,1975.76 1087.73686,1975.76 1087.69286,1975.76 C1086.63686,1975.98 1085.71286,1976.156 1084.89886,1976.288 L1084.89886,1978.312 C1085.42686,1978.048 1085.99886,1977.784 1086.57086,1977.476 C1086.79086,1977.476 1086.92286,1977.608 1086.92286,1977.85 C1086.87886,1978.246 1086.19686,1978.884 1084.87686,1979.808 C1084.85486,1980.644 1084.83286,1981.062 1084.83286,1981.062 C1084.63486,1983.746 1084.06286,1985.088 1083.09486,1985.088 C1082.21486,1985.088 1081.64286,1984.538 1081.37886,1983.394 C1081.37886,1983.262 1081.44486,1983.196 1081.62086,1983.196 L1082.74286,1983.196 C1083.13886,1982.976 1083.40286,1982.316 1083.49086,1981.216 C1083.49086,1981.018 1083.51286,1980.842 1083.51286,1980.666 C1082.41286,1981.304 1081.53286,1981.612 1080.87286,1981.612 C1079.75086,1981.524 1079.15686,1981.26 1079.11286,1980.798 C1079.11286,1980.556 1079.33286,1980.402 1079.79486,1980.314 C1080.71886,1980.138 1081.97286,1979.676 1083.57886,1978.928 C1083.62286,1977.938 1083.64486,1977.124 1083.68886,1976.486 C1082.65486,1976.662 1081.81886,1976.75 1081.18086,1976.75 C1080.38886,1976.728 1079.90486,1976.574 1079.68486,1976.266 C1079.68486,1976.178 1079.92686,1976.068 1080.41086,1975.936 C1081.59886,1975.628 1082.69886,1975.364 1083.73286,1975.144 L1083.73286,1974.814 C1083.68886,1974.374 1083.62286,1974.088 1083.51286,1973.912 C1083.44686,1973.846 1083.40286,1973.758 1083.40286,1973.626 C1083.40286,1973.494 1083.60086,1973.406 1083.99686,1973.406 Z M1090.64086,1970.524 C1091.52086,1970.678 1091.98286,1971.162 1092.02686,1971.998 C1092.02686,1972.57 1091.69686,1972.856 1091.03686,1972.856 C1090.09086,1972.636 1089.40886,1971.976 1088.96886,1970.898 C1089.21086,1970.656 1089.76086,1970.524 1090.64086,1970.524 Z M1105.01628,1977.718 C1105.85228,1977.718 1106.29228,1979.39 1106.29228,1982.69 C1106.29228,1983.746 1106.02828,1984.252 1105.50028,1984.252 C1104.97228,1984.252 1104.68628,1983.878 1104.64228,1983.108 C1104.73028,1981.524 1104.86228,1979.94 1105.01628,1978.334 C1104.99428,1978.158 1104.90628,1978.026 1104.75228,1977.96 C1104.75228,1977.806 1104.84028,1977.718 1105.01628,1977.718 Z M1106.16028,1971.096 C1107.10628,1971.404 1107.59028,1971.8 1107.59028,1972.328 C1107.59028,1972.988 1107.10628,1974.066 1106.16028,1975.606 C1104.48828,1978.026 1103.41028,1979.214 1102.97028,1979.214 C1102.70628,1979.214 1102.59628,1979.082 1102.59628,1978.774 C1102.59628,1978.686 1102.79428,1978.378 1103.16828,1977.85 C1104.48828,1975.738 1105.21428,1973.824 1105.39028,1972.13 L1105.32428,1971.536 C1105.45628,1971.25 1105.72028,1971.096 1106.16028,1971.096 Z M1110.07628,1973.208 C1109.94428,1973.23 1109.74628,1973.296 1109.52628,1973.384 C1109.41628,1973.428 1109.30628,1973.472 1109.21828,1973.516 C1109.04228,1973.12 1108.80028,1972.9 1108.49228,1972.878 C1108.31628,1972.878 1108.25028,1972.966 1108.25028,1973.12 C1108.42628,1973.296 1108.53628,1973.956 1108.53628,1975.1 C1108.49228,1977.564 1108.29428,1980.204 1107.94228,1982.998 C1108.05228,1984.23 1108.36028,1984.824 1108.86628,1984.824 C1109.39428,1984.824 1109.65828,1982.184 1109.65828,1976.904 L1109.65828,1976.86 C1109.83428,1976.904 1110.07628,1976.948 1110.38428,1976.97 C1110.69228,1976.97 1111.13228,1976.684 1111.72628,1976.112 C1112.38628,1975.43 1112.73828,1974.946 1112.76028,1974.682 C1112.76028,1974.506 1112.65028,1974.396 1112.47428,1974.396 C1112.43028,1974.418 1112.40828,1974.44 1112.38628,1974.462 L1112.38628,1971.756 C1112.18828,1971.184 1111.79228,1970.832 1111.17628,1970.744 C1110.64828,1970.788 1110.18628,1970.898 1109.74628,1971.096 C1108.99828,1971.448 1108.64628,1971.756 1108.64628,1972.042 C1108.73428,1972.196 1109.04228,1972.306 1109.57028,1972.35 C1110.09828,1972.174 1110.60428,1971.998 1111.08828,1971.844 C1111.19828,1971.844 1111.26428,1971.998 1111.26428,1972.262 C1111.26428,1973.362 1111.17628,1974.066 1111.04428,1974.418 C1111.04428,1974.726 1111.08828,1974.99 1111.19828,1975.166 C1110.56028,1975.54 1110.03228,1975.782 1109.63628,1975.892 C1109.59228,1975.276 1109.54828,1974.748 1109.46028,1974.308 C1109.59228,1974.352 1109.76828,1974.352 1109.98828,1974.352 C1110.01028,1974.352 1110.05428,1974.33 1110.14228,1974.242 C1110.49428,1974.198 1110.71428,1974.044 1110.75828,1973.78 C1110.75828,1973.428 1110.51628,1973.252 1110.07628,1973.208 Z M1113.35428,1971.096 C1114.03628,1971.184 1114.38828,1971.734 1114.38828,1972.746 C1114.47628,1972.702 1114.58628,1972.658 1114.71828,1972.614 C1114.96028,1972.526 1115.15828,1972.46 1115.33428,1972.438 C1115.77428,1972.482 1116.01628,1972.68 1116.01628,1973.032 C1115.97228,1973.318 1115.75228,1973.472 1115.40028,1973.494 C1115.24628,1973.582 1115.13628,1973.626 1115.09228,1973.626 C1114.74028,1973.626 1114.47628,1973.604 1114.30028,1973.516 C1114.27828,1973.824 1114.25628,1974.132 1114.25628,1974.484 C1114.34428,1974.814 1114.49828,1974.968 1114.71828,1974.968 C1114.87228,1974.924 1115.09228,1974.792 1115.37828,1974.594 C1115.99428,1974.638 1116.32428,1974.902 1116.39028,1975.386 C1116.39028,1975.672 1116.23628,1975.826 1115.97228,1975.826 C1115.75228,1975.826 1115.46628,1975.848 1115.09228,1975.87 C1114.89428,1975.892 1114.60828,1975.936 1114.23428,1976.002 C1113.42028,1976.002 1113.02428,1975.65 1113.02428,1974.902 C1113.13428,1974.11 1113.22228,1973.34 1113.28828,1972.614 C1113.28828,1971.866 1113.15628,1971.448 1112.91428,1971.338 C1113.00228,1971.184 1113.13428,1971.096 1113.35428,1971.096 Z M1116.14828,1969.798 C1117.31428,1969.93 1117.90828,1970.48 1117.90828,1971.47 C1117.90828,1971.646 1117.86428,1972.02 1117.77628,1972.57 C1117.82028,1976.42 1117.86428,1980.16 1117.90828,1983.812 C1117.84228,1985.088 1117.42428,1985.814 1116.67628,1985.968 C1115.90628,1985.858 1115.46628,1985.462 1115.35628,1984.758 C1115.35628,1984.45 1115.40028,1984.296 1115.48828,1984.296 L1115.90628,1984.296 C1116.25828,1984.296 1116.50028,1983.856 1116.58828,1982.976 C1116.58828,1979.83 1116.61028,1976.684 1116.63228,1973.538 C1116.63228,1971.932 1116.34628,1971.118 1115.79628,1971.118 C1115.46628,1971.184 1115.15828,1971.25 1114.87228,1971.316 C1114.30028,1971.316 1114.03628,1971.162 1114.03628,1970.832 C1114.03628,1970.722 1114.08028,1970.656 1114.21228,1970.612 C1115.15828,1970.128 1115.79628,1969.864 1116.14828,1969.798 Z" transform="translate(-1030 -1968)"/>
</svg>
