<svg xmlns="http://www.w3.org/2000/svg" width="87" height="19" viewBox="0 0 87 19">
  <path fill="#4A4A4A" fill-rule="evenodd" d="M380.84,1975.276 C379.872,1975.276 379.234,1975.43 378.948,1975.694 C379.454,1976.794 380.268,1977.476 381.39,1977.718 C382.094,1977.718 382.446,1977.41 382.446,1976.794 C382.38,1975.936 381.852,1975.43 380.84,1975.276 Z M383.502,1978.818 C383.084,1979.038 382.116,1979.962 380.62,1981.59 C379.85,1982.25 379.322,1982.58 379.014,1982.58 C378.75,1982.58 378.618,1982.712 378.618,1982.976 C378.618,1983.526 379.168,1983.79 380.312,1983.79 C381.808,1983.724 382.952,1982.184 383.7,1979.148 C383.7,1978.928 383.634,1978.818 383.502,1978.818 Z M382.38,1970.964 C381.5,1970.964 380.95,1971.096 380.708,1971.36 C381.126,1972.504 381.808,1973.208 382.776,1973.45 C383.436,1973.45 383.766,1973.164 383.766,1972.592 C383.7,1971.668 383.238,1971.14 382.38,1970.964 Z M388.166,1973.34 C388.298,1973.494 388.364,1973.736 388.408,1974.066 L388.408,1975.606 C387.264,1975.826 386.01,1976.112 384.602,1976.442 C384.162,1976.552 383.942,1976.662 383.942,1976.75 C384.14,1977.014 384.58,1977.146 385.284,1977.168 C386.032,1977.168 387.066,1977.058 388.386,1976.838 C388.386,1977.454 388.364,1978.136 388.364,1978.906 C387.308,1979.17 386.802,1979.412 386.802,1979.61 C386.802,1980.05 387.352,1980.292 388.452,1980.292 C388.826,1980.292 389.222,1980.204 389.618,1979.984 C390.102,1979.852 390.52,1979.742 390.872,1979.676 C391.004,1979.676 391.07,1979.786 391.07,1980.006 C391.07,1980.622 391.026,1981.172 390.938,1981.612 C390.828,1981.964 390.762,1982.294 390.74,1982.58 C390.432,1982.624 390.102,1982.69 389.75,1982.734 C388.782,1982.888 388.078,1983.02 387.594,1983.108 C387.55,1982.976 387.484,1982.822 387.396,1982.624 C387.242,1982.14 387.11,1981.634 387.022,1981.128 C386.648,1980.424 386.296,1980.05 385.944,1980.05 C385.746,1980.138 385.658,1980.644 385.658,1981.59 C385.746,1982.404 385.944,1983.064 386.274,1983.548 C386.604,1984.098 386.934,1984.362 387.286,1984.362 C387.484,1984.362 387.616,1984.208 387.682,1983.944 C387.88,1983.988 388.122,1984.01 388.43,1984.01 C388.98,1983.988 390.124,1983.9 391.84,1983.768 C392.28,1983.724 392.544,1983.548 392.588,1983.196 C392.588,1982.888 392.434,1982.69 392.148,1982.558 C392.236,1982.426 392.324,1982.25 392.412,1982.03 C392.786,1981.37 392.984,1980.688 392.984,1979.94 C392.918,1979.06 392.214,1978.554 390.85,1978.422 C390.498,1978.444 390.102,1978.488 389.684,1978.576 C389.706,1978.048 389.75,1977.388 389.816,1976.596 C390.08,1976.552 390.366,1976.508 390.674,1976.442 C391.95,1976.288 393.116,1976.2 394.15,1976.2 C394.612,1976.2 394.854,1976.024 394.854,1975.672 C394.854,1975.144 394.436,1974.88 393.622,1974.88 C392.654,1974.924 391.4,1975.056 389.904,1975.32 C389.926,1974.792 389.97,1974.22 390.036,1973.604 C390.036,1973.34 389.948,1973.12 389.816,1972.944 C391.18,1972.548 391.862,1971.998 391.862,1971.316 C391.73,1970.612 391.268,1970.216 390.454,1970.15 C390.146,1970.15 390.014,1970.216 390.014,1970.326 C390.014,1970.832 389.662,1971.25 388.958,1971.558 C388.188,1971.998 387.176,1972.438 385.922,1972.878 C385.482,1973.076 385.262,1973.208 385.262,1973.296 C385.262,1973.538 385.482,1973.648 385.944,1973.648 C386.758,1973.56 387.506,1973.472 388.166,1973.34 Z M408.283428,1969.666 C409.053428,1969.732 409.493428,1970.106 409.603428,1970.766 C409.603428,1971.25 408.987428,1971.646 407.755428,1971.91 C407.799428,1972.042 407.843428,1972.196 407.865428,1972.35 C407.843428,1972.504 407.821428,1972.68 407.799428,1972.878 C408.965428,1972.702 409.933428,1972.592 410.681428,1972.548 C411.165428,1972.592 411.429428,1972.812 411.429428,1973.208 C411.385428,1973.516 411.143428,1973.67 410.747428,1973.714 C409.603428,1973.89 408.613428,1974.044 407.733428,1974.176 C407.711428,1974.44 407.689428,1974.726 407.689428,1975.034 C408.217428,1974.946 408.701428,1974.88 409.141428,1974.88 C410.219428,1974.88 410.769428,1975.276 410.769428,1976.024 C410.769428,1976.816 410.549428,1977.74 410.131428,1978.752 C410.219428,1978.862 410.285428,1978.972 410.285428,1979.104 C410.241428,1979.346 410.065428,1979.478 409.735428,1979.522 C408.877428,1979.676 408.151428,1979.786 407.579428,1979.874 L407.579428,1980.622 C408.217428,1980.512 408.767428,1980.446 409.229428,1980.402 C409.691428,1980.446 409.933428,1980.666 409.933428,1981.018 C409.889428,1981.282 409.669428,1981.436 409.295428,1981.48 C408.635428,1981.612 408.041428,1981.7 407.557428,1981.766 L407.557428,1982.778 C408.305428,1982.558 409.031428,1982.404 409.691428,1982.294 C409.889428,1982.294 409.999428,1982.382 409.999428,1982.514 C409.757428,1982.998 408.855428,1983.57 407.293428,1984.274 C406.149428,1984.758 405.137428,1985.022 404.213428,1985.088 C403.487428,1985.088 403.135428,1984.78 403.135428,1984.12 C403.135428,1983.944 403.201428,1983.834 403.377428,1983.834 C403.421428,1983.856 403.487428,1983.856 403.575428,1983.856 C404.587428,1983.636 405.401428,1983.438 406.017428,1983.262 C406.061428,1982.91 406.127428,1982.47 406.171428,1981.964 C405.643428,1982.052 405.247428,1982.096 404.983428,1982.118 C404.191428,1982.118 403.773428,1981.942 403.729428,1981.546 C403.817428,1981.392 404.675428,1981.172 406.259428,1980.864 C406.259428,1980.622 406.281428,1980.358 406.303428,1980.072 C406.061428,1980.116 405.863428,1980.138 405.731428,1980.138 L405.489428,1980.138 C405.423428,1980.314 405.313428,1980.402 405.181428,1980.402 C404.807428,1980.402 404.433428,1980.182 404.081428,1979.742 C403.707428,1979.346 403.465428,1978.818 403.377428,1978.158 C403.377428,1977.322 403.465428,1976.86 403.641428,1976.772 C403.949428,1976.772 404.279428,1977.102 404.609428,1977.74 C404.741428,1978.136 404.939428,1978.532 405.159428,1978.928 C405.269428,1979.104 405.357428,1979.236 405.423428,1979.346 C405.665428,1979.302 405.973428,1979.214 406.347428,1979.126 C406.347428,1978.862 406.347428,1978.576 406.369428,1978.268 C406.281428,1978.29 406.193428,1978.29 406.149428,1978.29 C405.445428,1978.29 405.049428,1978.136 405.005428,1977.784 C405.049428,1977.696 405.511428,1977.52 406.391428,1977.256 L406.391428,1976.486 C405.731428,1976.596 405.291428,1976.662 405.027428,1976.662 C404.279428,1976.662 403.905428,1976.596 403.883428,1976.42 C403.883428,1976.112 404.697428,1975.76 406.369428,1975.32 L406.413428,1975.32 L406.413428,1974.352 C405.115428,1974.528 404.169428,1974.638 403.553428,1974.682 C402.717428,1974.682 402.255428,1974.484 402.189428,1974.066 C402.365428,1973.868 403.751428,1973.56 406.391428,1973.12 C406.347428,1972.724 406.237428,1972.416 406.083428,1972.196 C405.731428,1972.24 405.357428,1972.284 404.983428,1972.306 C404.301428,1972.306 403.971428,1972.13 403.971428,1971.778 C403.971428,1971.734 404.147428,1971.646 404.499428,1971.514 C405.511428,1971.228 406.347428,1970.942 406.985428,1970.634 C407.557428,1970.436 407.843428,1970.172 407.843428,1969.82 C407.843428,1969.732 407.975428,1969.666 408.283428,1969.666 Z M407.909428,1976.926 C408.305428,1976.97 408.525428,1977.146 408.525428,1977.454 C408.481428,1977.718 408.283428,1977.85 407.953428,1977.872 C407.821428,1977.916 407.689428,1977.96 407.601428,1977.96 C407.601428,1978.268 407.579428,1978.576 407.579428,1978.884 L407.601428,1978.884 C408.019428,1978.796 408.393428,1978.73 408.745428,1978.686 C408.965428,1978.07 409.119428,1977.366 409.163428,1976.574 C409.163428,1976.266 409.053428,1976.112 408.855428,1976.068 C408.415428,1976.156 407.997428,1976.244 407.645428,1976.288 C407.623428,1976.508 407.623428,1976.728 407.623428,1976.948 C407.711428,1976.948 407.821428,1976.926 407.909428,1976.926 Z M416.203428,1974.462 C417.215428,1974.462 417.721428,1975.078 417.765428,1976.266 C417.655428,1978.906 417.303428,1980.93 416.709428,1982.316 C416.313428,1983.592 415.763428,1984.274 415.015428,1984.362 C414.201428,1984.252 413.739428,1983.856 413.607428,1983.196 C413.607428,1982.91 413.717428,1982.756 413.959428,1982.756 C414.003428,1982.756 414.091428,1982.778 414.201428,1982.822 C414.773428,1982.822 415.235428,1982.294 415.543428,1981.216 C416.093428,1980.028 416.379428,1978.598 416.379428,1976.926 C416.379428,1976.354 416.071428,1976.024 415.477428,1975.892 C415.191428,1975.936 414.927428,1975.98 414.663428,1976.002 C413.431428,1982.074 411.583428,1985.242 409.119428,1985.528 C408.789428,1985.528 408.635428,1985.462 408.635428,1985.352 C408.635428,1985.308 408.921428,1984.978 409.515428,1984.318 C411.363428,1982.294 412.595428,1979.61 413.255428,1976.222 L412.397428,1976.354 C411.737428,1976.31 411.363428,1976.178 411.297428,1975.958 C411.319428,1975.606 412.023428,1975.254 413.431428,1974.858 C413.453428,1974.858 413.475428,1974.858 413.497428,1974.836 C413.585428,1974.132 413.673428,1973.406 413.739428,1972.636 C413.739428,1972.416 413.629428,1972.24 413.431428,1972.152 C413.607428,1971.8 413.915428,1971.624 414.355428,1971.58 C414.971428,1971.712 415.279428,1971.998 415.279428,1972.46 C415.169428,1973.208 415.059428,1973.89 414.949428,1974.55 C415.345428,1974.506 415.763428,1974.484 416.203428,1974.462 Z M433.548856,1968.742 C434.076856,1968.94 434.362856,1969.314 434.362856,1969.886 C434.318856,1970.128 434.164856,1970.48 433.900856,1970.964 C434.582856,1971.382 435.792856,1972.262 437.552856,1973.626 C439.114856,1974.66 440.566856,1975.254 441.886856,1975.43 C442.216856,1975.518 442.392856,1975.65 442.392856,1975.826 C442.106856,1976.75 441.358856,1977.278 440.126856,1977.454 C439.158856,1977.454 438.146856,1976.75 437.068856,1975.298 C436.144856,1974.33 435.000856,1973.208 433.680856,1971.976 C433.548856,1971.976 433.438856,1971.954 433.350856,1971.91 C432.734856,1972.856 431.898856,1974.066 430.842856,1975.518 C429.566856,1977.19 428.488856,1978.114 427.608856,1978.312 C426.860856,1978.29 426.354856,1978.07 426.090856,1977.674 C426.090856,1977.586 426.200856,1977.454 426.464856,1977.322 C428.752856,1975.826 430.820856,1973.45 432.646856,1970.194 C432.822856,1969.93 432.910856,1969.71 432.954856,1969.512 C432.888856,1969.336 432.844856,1969.204 432.822856,1969.072 C432.844856,1968.852 433.086856,1968.742 433.548856,1968.742 Z M435.660856,1976.178 C436.408856,1976.31 436.782856,1976.728 436.782856,1977.41 C436.650856,1977.74 436.606856,1978.224 436.606856,1978.884 C436.628856,1980.358 436.650856,1981.92 436.650856,1983.592 C436.562856,1985.352 436.232856,1986.254 435.704856,1986.254 C435.264856,1986.254 435.044856,1985.44 435.022856,1983.856 C435.154856,1982.756 435.220856,1981.612 435.220856,1980.468 C435.154856,1978.378 434.890856,1977.212 434.450856,1976.948 C434.714856,1976.442 435.110856,1976.178 435.660856,1976.178 Z M431.326856,1976.662 C431.920856,1976.75 432.272856,1977.036 432.382856,1977.52 C432.184856,1982.272 430.930856,1984.912 428.620856,1985.484 C428.114856,1985.484 427.872856,1985.352 427.872856,1985.132 C427.872856,1985 428.004856,1984.89 428.268856,1984.736 C429.962856,1983.504 430.842856,1981.238 430.930856,1977.982 C430.886856,1977.674 430.754856,1977.388 430.556856,1977.08 C430.556856,1976.816 430.798856,1976.662 431.326856,1976.662 Z M452.566285,1971.404 C453.006285,1971.47 453.248285,1971.778 453.292285,1972.35 C453.270285,1972.834 453.094285,1973.406 452.742285,1974.022 C452.522285,1974.572 452.346285,1974.946 452.258285,1975.166 C452.258285,1975.254 452.302285,1975.298 452.390285,1975.298 L453.490285,1974.946 C454.018285,1973.956 454.304285,1973.274 454.304285,1972.878 C454.260285,1972.834 454.238285,1972.746 454.216285,1972.614 C454.216285,1972.394 454.414285,1972.284 454.832285,1972.284 C455.272285,1972.284 455.514285,1972.614 455.514285,1973.23 C455.514285,1973.626 455.096285,1974.44 454.260285,1975.672 C453.534285,1976.882 453.138285,1977.674 453.072285,1978.048 C453.072285,1978.136 453.116285,1978.158 453.248285,1978.158 C453.622285,1978.114 454.128285,1977.938 454.744285,1977.63 C454.700285,1977.388 454.656285,1977.124 454.656285,1976.86 C454.656285,1976.684 454.722285,1976.596 454.898285,1976.596 C455.272285,1976.662 455.624285,1976.838 455.976285,1977.146 C456.284285,1977.41 456.438285,1977.696 456.438285,1978.004 C456.394285,1978.796 456.108285,1979.192 455.536285,1979.192 C455.360285,1979.192 455.206285,1979.038 455.030285,1978.686 C454.568285,1978.95 453.952285,1979.28 453.160285,1979.72 C452.192285,1980.204 451.554285,1980.468 451.246285,1980.49 C450.762285,1980.49 450.542285,1980.292 450.542285,1979.874 C450.542285,1979.654 451.026285,1978.818 452.016285,1977.41 C452.192285,1977.146 452.346285,1976.882 452.500285,1976.64 C451.884285,1976.992 451.334285,1977.19 450.872285,1977.234 C450.432285,1977.234 450.168285,1976.992 450.102285,1976.508 C450.102285,1976.222 450.476285,1975.496 451.246285,1974.352 C451.928285,1973.406 452.280285,1972.614 452.302285,1971.954 C452.302285,1971.866 452.280285,1971.822 452.258285,1971.778 C452.214285,1971.734 452.192285,1971.668 452.192285,1971.602 C452.192285,1971.47 452.302285,1971.404 452.566285,1971.404 Z M451.026285,1981.194 C450.586285,1981.59 450.146285,1981.832 449.728285,1981.898 C449.464285,1981.876 449.222285,1981.854 449.002285,1981.854 C448.804285,1981.854 448.716285,1981.964 448.716285,1982.184 C448.782285,1983.042 449.200285,1983.504 449.970285,1983.57 C450.278285,1983.526 450.586285,1983.306 450.850285,1982.91 C451.092285,1982.492 451.224285,1982.052 451.268285,1981.612 C451.268285,1981.348 451.180285,1981.194 451.026285,1981.194 Z M454.744285,1979.896 C455.756285,1979.962 456.284285,1980.314 456.284285,1980.974 C456.240285,1981.59 455.976285,1981.92 455.448285,1981.964 C455.140285,1981.92 454.920285,1981.744 454.766285,1981.436 C454.502285,1981.04 454.370285,1980.622 454.348285,1980.16 C454.348285,1979.984 454.480285,1979.896 454.744285,1979.896 Z M452.522285,1980.82 C452.258285,1980.82 452.126285,1980.908 452.126285,1981.084 C452.148285,1981.546 452.280285,1981.964 452.500285,1982.36 C452.654285,1982.668 452.874285,1982.844 453.160285,1982.888 C453.688285,1982.844 453.952285,1982.514 453.974285,1981.898 C453.974285,1981.238 453.490285,1980.886 452.522285,1980.82 Z M462.664285,1971.03 C460.244285,1971.294 458.418285,1971.602 457.230285,1971.998 C457.010285,1972.13 456.900285,1972.284 456.900285,1972.438 C456.900285,1972.702 457.384285,1972.9 458.374285,1973.01 C458.726285,1973.01 459.056285,1972.988 459.364285,1972.9 C459.408285,1972.9 459.452285,1972.878 459.496285,1972.878 L459.496285,1973.186 C459.452285,1974.198 459.122285,1975.232 458.484285,1976.266 C458.044285,1977.102 457.516285,1977.762 456.878285,1978.246 C456.702285,1978.378 456.636285,1978.51 456.636285,1978.598 C456.636285,1978.796 456.856285,1978.884 457.296285,1978.884 C458.110285,1978.708 458.836285,1978.158 459.452285,1977.256 C460.156285,1976.376 460.618285,1975.188 460.816285,1973.648 C460.772285,1973.208 460.684285,1972.856 460.508285,1972.57 C461.124285,1972.416 461.784285,1972.284 462.488285,1972.152 C462.884285,1972.152 463.126285,1972.284 463.192285,1972.504 C463.346285,1972.812 463.434285,1973.164 463.434285,1973.56 C463.346285,1975.716 462.906285,1976.86 462.158285,1976.948 C462.004285,1976.948 461.872285,1976.948 461.784285,1976.904 C461.564285,1976.904 461.476285,1976.992 461.476285,1977.124 C461.608285,1977.982 461.982285,1978.4 462.598285,1978.4 C463.368285,1978.356 463.940285,1977.916 464.314285,1977.036 C464.710285,1976.222 464.930285,1974.88 464.930285,1973.01 C464.886285,1971.734 464.138285,1971.074 462.664285,1971.03 Z M462.576285,1983.02 C462.290285,1983.064 461.982285,1983.108 461.630285,1983.152 C460.574285,1983.284 459.782285,1983.416 459.232285,1983.526 C459.188285,1983.394 459.122285,1983.262 459.078285,1983.086 C458.902285,1982.448 458.748285,1981.81 458.638285,1981.172 C458.264285,1980.468 457.912285,1980.094 457.560285,1980.094 C457.362285,1980.182 457.274285,1980.688 457.274285,1981.634 C457.362285,1982.646 457.582285,1983.46 457.934285,1984.076 C458.286285,1984.736 458.660285,1985.066 459.012285,1985.066 C459.276285,1985.022 459.408285,1984.824 459.408285,1984.406 C459.562285,1984.45 459.760285,1984.45 459.980285,1984.45 C460.618285,1984.428 461.938285,1984.34 463.962285,1984.208 C464.402285,1984.164 464.666285,1983.988 464.732285,1983.636 C464.732285,1983.328 464.556285,1983.108 464.248285,1982.976 C464.600285,1982.382 464.820285,1981.678 464.930285,1980.864 C464.864285,1979.918 464.138285,1979.324 462.752285,1979.06 C460.068285,1979.28 458.660285,1979.654 458.528285,1980.182 C458.528285,1980.49 458.836285,1980.666 459.474285,1980.732 C460.002285,1980.71 460.376285,1980.644 460.596285,1980.534 C460.926285,1980.424 461.278285,1980.336 461.652285,1980.27 C462.576285,1980.314 463.060285,1980.6 463.104285,1981.106 C463.104285,1981.392 463.016285,1981.788 462.840285,1982.272 C462.708285,1982.58 462.620285,1982.844 462.576285,1983.02 Z" transform="translate(-378 -1968)"/>
</svg>
