<svg xmlns="http://www.w3.org/2000/svg" width="88" height="18" viewBox="0 0 88 18">
  <path fill="#4A4A4A" fill-rule="evenodd" d="M513.964,1969.688 C513.106,1969.688 512.556,1969.82 512.336,1970.062 C512.754,1970.986 513.436,1971.558 514.382,1971.756 C515.02,1971.756 515.35,1971.492 515.35,1970.92 C515.306,1970.216 514.844,1969.82 513.964,1969.688 Z M515.636,1972.306 C516.076,1972.306 516.296,1972.57 516.296,1973.098 C516.296,1973.34 516.164,1973.516 515.944,1973.604 C515.504,1973.78 514.91,1973.89 514.206,1973.912 C513.634,1974.044 513.106,1974.154 512.622,1974.264 C510.994,1974.704 509.894,1974.946 509.344,1974.968 C508.596,1974.968 508.112,1974.704 507.914,1974.176 C507.826,1973.934 507.958,1973.802 508.266,1973.802 C508.442,1973.802 508.64,1973.824 508.816,1973.846 C509.432,1973.846 510.752,1973.516 512.82,1972.834 C513.744,1972.482 514.69,1972.306 515.636,1972.306 Z M514.602,1974.814 C514.998,1974.814 515.218,1975.012 515.218,1975.364 C515.218,1976.244 514.228,1976.662 512.27,1976.662 C511.39,1976.574 510.884,1976.376 510.752,1976.024 C510.774,1976.002 510.818,1975.958 510.906,1975.892 C512.226,1975.43 513.458,1975.078 514.602,1974.814 Z M514.602,1976.904 C513.546,1977.146 512.38,1977.498 511.126,1977.938 C511.038,1978.004 510.972,1978.048 510.972,1978.07 C511.104,1978.422 511.61,1978.62 512.49,1978.708 C514.294,1978.708 515.218,1978.29 515.218,1977.454 C515.218,1977.102 514.998,1976.904 514.602,1976.904 Z M510.708,1980.38 C511.104,1980.38 511.478,1980.776 511.874,1981.524 C511.918,1981.92 512.006,1982.294 512.094,1982.646 C512.094,1982.712 512.116,1982.756 512.138,1982.8 C512.446,1982.712 512.886,1982.624 513.414,1982.492 C513.612,1982.448 513.788,1982.404 513.942,1982.36 C513.986,1982.184 514.052,1982.008 514.14,1981.788 C514.25,1981.48 514.316,1981.084 514.316,1980.622 C514.294,1980.446 514.206,1980.336 514.074,1980.336 C513.898,1980.38 513.7,1980.424 513.48,1980.512 C513.304,1980.622 513.106,1980.666 512.93,1980.666 C511.918,1980.666 511.412,1980.446 511.412,1980.028 C511.412,1979.896 511.764,1979.72 512.468,1979.522 C513.084,1979.302 513.612,1979.192 514.052,1979.17 C515.284,1979.302 515.944,1979.764 516.01,1980.556 C516.01,1981.128 515.812,1981.678 515.46,1982.162 C515.416,1982.25 515.372,1982.338 515.328,1982.382 C515.482,1982.492 515.57,1982.646 515.57,1982.866 C515.504,1983.174 515.284,1983.328 514.888,1983.372 C513.788,1983.57 513.04,1983.68 512.688,1983.702 C512.512,1983.702 512.358,1983.702 512.226,1983.68 C512.182,1983.944 512.05,1984.098 511.852,1984.098 C511.544,1984.098 511.258,1983.9 510.95,1983.504 C510.664,1983.13 510.488,1982.646 510.4,1982.03 C510.4,1981.018 510.488,1980.468 510.708,1980.38 Z M520.124,1971.976 C520.718,1972.042 521.026,1972.328 521.026,1972.856 C520.916,1973.076 520.872,1973.362 520.872,1973.714 C520.894,1974.924 520.916,1976.112 520.96,1977.278 C522.17,1977.058 523.16,1976.926 523.93,1976.882 C524.876,1976.882 525.36,1977.212 525.36,1977.828 C525.36,1978.246 525.096,1978.444 524.568,1978.444 C523.688,1978.444 522.742,1978.51 521.686,1978.642 C521.444,1978.686 521.224,1978.73 521.004,1978.752 C521.004,1979.808 521.026,1980.842 521.07,1981.854 C521.07,1984.692 520.806,1986.1 520.322,1986.1 C519.772,1986.1 519.508,1985.286 519.508,1983.658 C519.552,1982.074 519.596,1980.512 519.64,1978.972 C518.584,1979.126 517.77,1979.214 517.198,1979.214 C516.384,1979.192 515.856,1979.016 515.636,1978.708 C515.636,1978.598 515.878,1978.488 516.384,1978.356 C517.616,1978.026 518.716,1977.762 519.684,1977.542 C519.706,1976.134 519.75,1974.704 519.794,1973.296 C519.794,1972.944 519.662,1972.658 519.442,1972.46 C519.53,1972.196 519.772,1972.042 520.124,1971.976 Z M522.324,1969.82 C521.774,1969.864 521.07,1969.974 520.19,1970.194 C518.254,1970.634 517.242,1970.942 517.132,1971.118 C517.22,1971.646 517.814,1971.91 518.914,1971.91 C519.464,1971.866 520.63,1971.668 522.412,1971.316 C522.94,1971.272 523.226,1971.052 523.292,1970.656 C523.292,1970.172 522.962,1969.886 522.324,1969.82 Z M518.826,1973.758 C518.958,1973.758 519.046,1973.912 519.046,1974.176 C519.024,1974.594 518.87,1975.012 518.584,1975.408 C518.276,1975.804 517.946,1976.002 517.572,1976.046 C516.846,1976.002 516.45,1975.562 516.406,1974.726 C516.406,1974.528 516.494,1974.418 516.67,1974.418 C516.868,1974.418 517.088,1974.44 517.352,1974.462 C517.836,1974.396 518.32,1974.154 518.826,1973.758 Z M523.028,1972.548 C523.93,1972.592 524.392,1972.9 524.392,1973.428 C524.37,1973.934 523.952,1974.572 523.116,1975.32 C522.588,1975.804 522.06,1976.068 521.532,1976.112 C521.29,1976.112 521.18,1976.046 521.18,1975.914 C521.18,1975.826 521.246,1975.716 521.422,1975.54 C522.082,1974.528 522.456,1973.692 522.544,1973.032 C522.544,1972.944 522.522,1972.834 522.5,1972.724 C522.522,1972.614 522.698,1972.548 523.028,1972.548 Z M540.285428,1969.732 C541.209428,1969.732 541.671428,1970.062 541.671428,1970.678 C541.671428,1971.03 541.539428,1971.426 541.275428,1971.844 C541.297428,1971.91 541.319428,1971.976 541.319428,1972.042 C541.275428,1972.284 541.077428,1972.416 540.769428,1972.438 C540.043428,1972.57 539.559428,1972.636 539.339428,1972.658 C539.119428,1972.658 538.965428,1972.658 538.855428,1972.614 L538.855428,1972.812 C538.855428,1973.472 539.075428,1973.802 539.515428,1973.802 C540.527428,1973.758 541.033428,1973.56 541.033428,1973.186 C541.055428,1972.79 541.121428,1972.57 541.231428,1972.57 C541.781428,1972.746 542.089428,1973.076 542.133428,1973.538 C542.133428,1974.33 541.297428,1974.726 539.625428,1974.77 C538.371428,1974.748 537.755428,1974.132 537.755428,1972.922 C537.799428,1972.284 537.865428,1971.734 537.953428,1971.272 C537.953428,1970.854 537.865428,1970.568 537.711428,1970.392 C537.711428,1970.304 537.777428,1970.238 537.909428,1970.238 C538.085428,1970.238 538.217428,1970.304 538.349428,1970.414 C538.525428,1970.282 538.767428,1970.172 539.075428,1970.04 C539.515428,1969.842 539.933428,1969.732 540.285428,1969.732 Z M538.745428,1971.008 C538.789428,1971.074 538.833428,1971.382 538.855428,1971.932 C539.075428,1971.866 539.361428,1971.8 539.713428,1971.712 C539.889428,1971.668 540.043428,1971.646 540.197428,1971.602 C540.241428,1971.47 540.285428,1971.338 540.307428,1971.162 C540.307428,1970.898 540.219428,1970.766 540.043428,1970.722 C539.471428,1970.898 539.097428,1971.008 538.965428,1971.008 L538.745428,1971.008 Z M544.795428,1969.006 C545.719428,1969.006 546.181428,1969.336 546.181428,1969.974 C546.181428,1970.392 545.961428,1970.854 545.565428,1971.382 C545.565428,1971.448 545.587428,1971.492 545.587428,1971.514 C545.543428,1971.756 545.367428,1971.888 545.059428,1971.932 C544.377428,1972.064 543.937428,1972.152 543.717428,1972.152 C543.519428,1972.152 543.365428,1972.152 543.255428,1972.108 L543.255428,1972.284 C543.255428,1972.9 543.519428,1973.208 544.091428,1973.208 C545.367428,1973.186 546.005428,1972.944 546.005428,1972.46 C546.027428,1972.02 546.093428,1971.778 546.225428,1971.778 C546.863428,1971.976 547.215428,1972.35 547.281428,1972.9 C547.281428,1973.824 546.247428,1974.286 544.201428,1974.33 C542.793428,1974.308 542.089428,1973.648 542.089428,1972.372 C542.133428,1971.712 542.199428,1971.14 542.287428,1970.656 C542.287428,1970.216 542.199428,1969.908 542.045428,1969.732 C542.045428,1969.622 542.111428,1969.556 542.265428,1969.556 C542.441428,1969.556 542.595428,1969.622 542.727428,1969.754 C542.903428,1969.622 543.189428,1969.49 543.563428,1969.314 C544.003428,1969.116 544.421428,1969.006 544.795428,1969.006 Z M543.101428,1970.304 C543.123428,1970.348 543.145428,1970.37 543.145428,1970.37 C543.189428,1970.436 543.233428,1970.788 543.255428,1971.426 C543.475428,1971.36 543.717428,1971.294 544.025428,1971.206 C544.245428,1971.162 544.421428,1971.118 544.597428,1971.074 C544.707428,1970.876 544.773428,1970.678 544.817428,1970.458 C544.817428,1970.194 544.729428,1970.062 544.553428,1970.018 C543.959428,1970.194 543.585428,1970.304 543.431428,1970.304 L543.101428,1970.304 Z M541.385428,1980.314 C541.517428,1980.314 541.583428,1980.446 541.583428,1980.71 C541.539428,1981.106 541.363428,1981.524 541.011428,1981.92 C540.659428,1982.316 540.241428,1982.514 539.801428,1982.536 C539.097428,1982.492 538.745428,1982.074 538.701428,1981.304 C538.701428,1981.106 538.767428,1980.996 538.943428,1980.996 C539.141428,1980.996 539.361428,1981.018 539.581428,1981.04 C540.153428,1980.996 540.769428,1980.754 541.385428,1980.314 Z M543.651428,1974.506 C544.355428,1974.55 544.729428,1974.924 544.773428,1975.584 C544.751428,1975.628 544.729428,1975.672 544.729428,1975.716 C545.125428,1975.672 545.499428,1975.65 545.807428,1975.628 C546.291428,1975.672 546.555428,1975.892 546.555428,1976.266 C546.489428,1976.574 546.269428,1976.728 545.873428,1976.772 C545.345428,1976.86 544.861428,1976.926 544.399428,1976.97 C544.267428,1977.366 544.157428,1977.784 544.025428,1978.18 C545.037428,1978.048 545.895428,1977.982 546.599428,1977.96 C547.391428,1977.96 547.787428,1978.224 547.787428,1978.752 C547.787428,1979.104 547.567428,1979.28 547.127428,1979.28 C546.093428,1979.28 544.949428,1979.346 543.695428,1979.434 C541.275428,1979.786 539.493428,1979.962 538.393428,1979.962 C537.711428,1979.962 537.271428,1979.83 537.095428,1979.566 C537.095428,1979.478 537.293428,1979.368 537.733428,1979.258 C538.657428,1979.082 539.537428,1978.906 540.373428,1978.752 C540.241428,1978.444 540.131428,1978.048 539.999428,1977.542 C539.691428,1977.586 539.427428,1977.608 539.251428,1977.608 C538.415428,1977.608 537.953428,1977.41 537.909428,1976.992 C537.997428,1976.882 538.613428,1976.706 539.735428,1976.486 C539.647428,1976.178 539.559428,1975.804 539.471428,1975.408 C539.471428,1975.32 539.603428,1975.254 539.889428,1975.254 C540.395428,1975.254 540.747428,1975.518 540.923428,1976.024 C540.967428,1976.112 540.989428,1976.178 541.033428,1976.266 C541.495428,1976.2 542.001428,1976.112 542.551428,1976.024 C542.771428,1975.98 542.991428,1975.958 543.189428,1975.914 C543.189428,1975.804 543.211428,1975.694 543.211428,1975.606 C543.211428,1975.342 543.101428,1975.122 542.881428,1974.902 C542.881428,1974.638 543.123428,1974.506 543.651428,1974.506 Z M543.101428,1977.168 C542.375428,1977.278 541.759428,1977.366 541.231428,1977.41 C541.231428,1977.718 541.253428,1978.048 541.275428,1978.4 C541.253428,1978.488 541.231428,1978.554 541.231428,1978.598 C541.825428,1978.51 542.375428,1978.422 542.903428,1978.334 C542.991428,1977.938 543.057428,1977.542 543.101428,1977.168 Z M534.939428,1970.722 C534.125428,1970.722 533.597428,1970.854 533.355428,1971.074 C533.773428,1972.108 534.455428,1972.746 535.423428,1972.966 C535.973428,1972.966 536.259428,1972.724 536.259428,1972.218 C536.215428,1971.382 535.775428,1970.898 534.939428,1970.722 Z M534.037428,1973.978 C533.179428,1973.978 532.629428,1974.088 532.365428,1974.286 C532.827428,1975.342 533.597428,1976.002 534.653428,1976.222 C535.181428,1976.222 535.445428,1976.002 535.445428,1975.518 C535.379428,1974.66 534.917428,1974.154 534.037428,1973.978 Z M533.157428,1977.366 C534.323428,1977.498 534.917428,1977.96 534.917428,1978.796 C534.851428,1978.994 534.785428,1979.214 534.741428,1979.434 C534.785428,1979.742 534.983428,1980.006 535.313428,1980.204 C535.885428,1980.468 536.171428,1980.842 536.171428,1981.348 C536.149428,1981.59 536.105428,1981.81 536.039428,1982.008 C536.523428,1982.074 537.403428,1982.338 538.701428,1982.778 C540.835428,1983.416 542.837428,1983.724 544.685428,1983.724 C546.379428,1983.724 547.809428,1983.68 548.997428,1983.548 C549.151428,1983.614 549.239428,1983.746 549.239428,1983.922 C549.129428,1984.472 548.645428,1985 547.809428,1985.484 C547.237428,1985.836 546.577428,1986.034 545.829428,1986.034 C544.289428,1986.034 541.715428,1985.264 538.107428,1983.768 C536.787428,1983.196 535.951428,1982.866 535.577428,1982.822 L535.577428,1982.844 C535.049428,1983.526 534.543428,1983.9 534.037428,1983.944 C533.553428,1983.9 533.311428,1983.702 533.289428,1983.394 C533.289428,1982.91 533.619428,1982.558 534.323428,1982.294 C534.609428,1982.162 534.763428,1981.986 534.763428,1981.722 C534.719428,1981.304 534.521428,1981.018 534.147428,1980.842 C533.663428,1980.578 533.421428,1980.226 533.399428,1979.786 C533.421428,1979.566 533.443428,1979.346 533.487428,1979.126 C533.487428,1978.862 533.355428,1978.62 533.113428,1978.4 C532.629428,1978.29 532.365428,1978.114 532.299428,1977.894 C532.321428,1977.608 532.607428,1977.432 533.157428,1977.366 Z M544.927428,1980.204 C545.719428,1980.336 546.159428,1980.776 546.203428,1981.524 C546.203428,1981.986 545.939428,1982.206 545.411428,1982.206 C544.487428,1982.008 543.805428,1981.436 543.387428,1980.512 C543.607428,1980.314 544.135428,1980.204 544.927428,1980.204 Z M560.732856,1969.93 C561.678856,1970.062 562.184856,1970.502 562.228856,1971.25 C562.228856,1971.8 561.898856,1972.064 561.282856,1972.064 C560.204856,1971.866 559.434856,1971.272 558.950856,1970.304 C559.214856,1970.062 559.808856,1969.93 560.732856,1969.93 Z M562.228856,1972.482 C562.668856,1972.482 562.910856,1972.746 562.910856,1973.274 C562.910856,1973.516 562.778856,1973.692 562.558856,1973.78 C562.118856,1973.956 561.524856,1974.066 560.820856,1974.088 C560.248856,1974.22 559.720856,1974.33 559.236856,1974.44 C557.608856,1974.88 556.508856,1975.122 555.958856,1975.144 C555.232856,1975.144 554.770856,1974.902 554.572856,1974.374 C554.484856,1974.154 554.594856,1974.022 554.902856,1974.022 C555.078856,1974.022 555.276856,1974.044 555.452856,1974.044 C556.068856,1974.044 557.388856,1973.714 559.434856,1973.01 C560.358856,1972.658 561.304856,1972.482 562.228856,1972.482 Z M561.238856,1974.968 C561.634856,1974.968 561.832856,1975.166 561.832856,1975.518 C561.832856,1976.376 560.842856,1976.794 558.862856,1976.794 C558.026856,1976.706 557.520856,1976.508 557.388856,1976.156 C557.410856,1976.156 557.454856,1976.112 557.542856,1976.024 C558.862856,1975.562 560.094856,1975.21 561.238856,1974.968 Z M561.238856,1977.036 C561.634856,1977.036 561.832856,1977.234 561.832856,1977.586 C561.832856,1978.4 560.908856,1978.796 559.060856,1978.796 C558.202856,1978.73 557.718856,1978.532 557.586856,1978.18 C557.586856,1978.158 557.652856,1978.114 557.740856,1978.048 C558.994856,1977.608 560.160856,1977.278 561.238856,1977.036 Z M557.344856,1980.446 C557.718856,1980.446 558.092856,1980.842 558.488856,1981.59 C558.532856,1981.964 558.620856,1982.338 558.708856,1982.69 C558.752856,1982.8 558.774856,1982.888 558.796856,1982.932 C559.126856,1982.844 559.566856,1982.756 560.094856,1982.646 C560.270856,1982.602 560.402856,1982.58 560.534856,1982.558 C560.534856,1982.338 560.622856,1982.096 560.754856,1981.832 C560.864856,1981.524 560.930856,1981.15 560.930856,1980.71 C560.908856,1980.534 560.842856,1980.424 560.710856,1980.424 C560.534856,1980.468 560.314856,1980.512 560.094856,1980.578 C559.918856,1980.71 559.742856,1980.754 559.566856,1980.754 C558.554856,1980.732 558.048856,1980.512 558.048856,1980.116 C558.048856,1979.984 558.400856,1979.808 559.104856,1979.61 C559.720856,1979.412 560.248856,1979.302 560.688856,1979.28 C561.898856,1979.39 562.536856,1979.852 562.602856,1980.644 C562.602856,1981.194 562.404856,1981.722 562.052856,1982.206 C561.986856,1982.316 561.920856,1982.404 561.876856,1982.492 C562.140856,1982.602 562.272856,1982.778 562.272856,1983.02 C562.228856,1983.328 562.008856,1983.482 561.634856,1983.526 C560.446856,1983.702 559.676856,1983.79 559.324856,1983.812 C559.104856,1983.812 558.950856,1983.812 558.840856,1983.79 C558.774856,1984.01 558.664856,1984.12 558.488856,1984.12 C558.180856,1984.12 557.894856,1983.922 557.586856,1983.526 C557.300856,1983.174 557.124856,1982.69 557.036856,1982.096 C557.036856,1981.084 557.124856,1980.534 557.344856,1980.446 Z M568.058856,1974.022 C568.652856,1974.088 569.092856,1974.22 569.356856,1974.396 C569.246856,1974.198 569.136856,1973.978 569.048856,1973.714 C568.036856,1971.536 567.354856,1970.304 567.002856,1969.996 C566.694856,1969.996 566.540856,1969.952 566.518856,1969.82 C566.540856,1969.49 566.804856,1969.314 567.310856,1969.314 C567.838856,1969.49 568.476856,1970.216 569.202856,1971.47 C570.346856,1973.142 571.380856,1974 572.348856,1974.066 C572.480856,1974.11 572.546856,1974.176 572.546856,1974.264 C572.326856,1974.88 571.688856,1975.254 570.632856,1975.386 C570.368856,1975.386 570.104856,1975.298 569.884856,1975.078 C569.906856,1975.166 569.928856,1975.232 569.928856,1975.298 C569.928856,1975.892 569.730856,1976.442 569.356856,1976.97 C569.290856,1977.08 569.246856,1977.168 569.224856,1977.212 C569.510856,1977.3 569.664856,1977.498 569.664856,1977.784 C569.620856,1978.092 569.400856,1978.246 569.004856,1978.29 C567.926856,1978.422 567.090856,1978.488 566.518856,1978.532 C566.672856,1978.708 566.760856,1978.884 566.760856,1979.082 C566.936856,1978.994 567.134856,1978.928 567.376856,1978.884 C567.926856,1978.95 568.234856,1979.28 568.300856,1979.852 C568.146856,1980.292 567.992856,1980.974 567.860856,1981.898 C567.860856,1982.47 567.904856,1982.888 568.014856,1983.152 C568.234856,1983.548 568.564856,1983.746 569.004856,1983.768 C570.896856,1983.768 571.864856,1983.108 571.908856,1981.744 C572.744856,1981.986 573.162856,1982.536 573.206856,1983.416 C573.184856,1984.494 571.908856,1985.044 569.400856,1985.11 C568.278856,1985 567.618856,1984.824 567.398856,1984.538 C566.980856,1984.296 566.760856,1983.79 566.738856,1983.02 C566.738856,1982.052 566.782856,1981.084 566.892856,1980.116 C566.870856,1979.896 566.782856,1979.72 566.650856,1979.61 C566.386856,1980.226 565.726856,1981.304 564.670856,1982.844 C563.878856,1983.922 563.218856,1984.516 562.690856,1984.648 C562.118856,1984.626 561.722856,1984.45 561.524856,1984.142 C561.524856,1984.098 561.590856,1984.01 561.744856,1983.922 C563.086856,1982.998 564.296856,1981.524 565.352856,1979.478 C565.484856,1979.258 565.572856,1979.082 565.616856,1978.906 C565.572856,1978.774 565.528856,1978.686 565.528856,1978.598 C565.418856,1978.598 565.352856,1978.576 565.308856,1978.576 C565.286856,1978.972 565.154856,1979.17 564.912856,1979.17 C564.604856,1979.17 564.318856,1978.928 564.010856,1978.444 C563.724856,1978.004 563.548856,1977.41 563.460856,1976.684 C563.460856,1975.76 563.548856,1975.276 563.746856,1975.188 C564.098856,1975.188 564.428856,1975.54 564.780856,1976.244 C564.868856,1976.684 564.956856,1977.146 565.088856,1977.586 C565.110856,1977.674 565.132856,1977.74 565.154856,1977.784 C565.594856,1977.696 566.254856,1977.564 567.090856,1977.41 C567.310856,1977.366 567.530856,1977.344 567.750856,1977.3 C567.772856,1977.08 567.838856,1976.838 567.948856,1976.574 C568.058856,1976.244 568.124856,1975.848 568.124856,1975.364 L568.102856,1975.034 C567.750856,1975.078 567.354856,1975.166 566.892856,1975.298 C566.518856,1975.474 566.144856,1975.562 565.792856,1975.562 C564.912856,1975.562 564.450856,1975.364 564.450856,1975.012 C564.450856,1974.858 564.934856,1974.66 565.902856,1974.418 C566.738856,1974.176 567.442856,1974.044 568.058856,1974.022 Z M565.220856,1970.678 C565.682856,1970.854 565.924856,1971.184 565.924856,1971.668 C565.880856,1971.932 565.462856,1972.702 564.670856,1973.934 C564.230856,1974.616 563.834856,1974.99 563.526856,1975.078 C562.888856,1975.056 562.470856,1974.88 562.272856,1974.528 C562.272856,1974.506 562.294856,1974.462 562.382856,1974.418 C563.152856,1973.89 563.834856,1973.054 564.450856,1971.91 C564.582856,1971.69 564.670856,1971.514 564.714856,1971.338 C564.648856,1971.184 564.604856,1971.052 564.604856,1970.964 C564.604856,1970.788 564.824856,1970.678 565.220856,1970.678 Z M584.194285,1972.416 C585.316285,1972.416 585.888285,1972.966 585.888285,1974.044 C585.888285,1978.62 585.756285,1980.93 585.514285,1980.952 C585.448285,1981.26 585.206285,1981.458 584.766285,1981.502 C584.436285,1981.458 584.238285,1981.216 584.150285,1980.776 C583.402285,1981.172 582.610285,1981.348 581.730285,1981.348 C580.938285,1981.348 580.476285,1980.644 580.300285,1979.214 C580.344285,1978.51 580.366285,1977.014 580.410285,1974.77 C580.432285,1974.616 580.498285,1974.528 580.586285,1974.484 C581.202285,1974.484 581.598285,1975.056 581.730285,1976.2 L581.730285,1976.398 C582.280285,1976.2 582.808285,1976.046 583.292285,1975.936 C583.688285,1975.936 583.908285,1976.134 583.908285,1976.486 C583.908285,1977.146 583.380285,1977.476 582.324285,1977.476 C582.104285,1977.476 581.906285,1977.432 581.730285,1977.388 C581.730285,1977.982 581.730285,1978.554 581.752285,1979.126 C581.752285,1979.632 581.972285,1979.874 582.434285,1979.874 C582.896285,1979.874 583.512285,1979.72 584.304285,1979.412 C584.392285,1978.532 584.436285,1977.058 584.436285,1975.034 C584.392285,1974.374 584.216285,1973.978 583.908285,1973.868 C583.644285,1973.868 583.006285,1973.978 582.016285,1974.176 C581.532285,1974.176 581.246285,1974.066 581.202285,1973.802 C581.224285,1973.67 581.554285,1973.428 582.214285,1973.076 C582.676285,1972.79 583.336285,1972.57 584.194285,1972.416 Z M588.176285,1972.306 C588.726285,1972.306 589.012285,1972.724 589.012285,1973.538 C589.012285,1973.956 589.034285,1974.374 589.056285,1974.77 C589.914285,1974.506 590.728285,1974.308 591.476285,1974.154 C591.916285,1974.154 592.136285,1974.352 592.136285,1974.748 C592.136285,1975.452 591.388285,1975.782 589.914285,1975.782 C589.562285,1975.76 589.298285,1975.716 589.100285,1975.628 C589.144285,1976.464 589.166285,1977.256 589.210285,1978.026 L589.210285,1978.356 C590.046285,1978.092 590.838285,1977.894 591.586285,1977.762 C592.026285,1977.762 592.246285,1977.96 592.246285,1978.356 C592.246285,1979.06 591.454285,1979.39 589.914285,1979.39 C589.628285,1979.368 589.386285,1979.324 589.166285,1979.258 C588.946285,1983.108 587.714285,1985.286 585.492285,1985.836 C585.272285,1985.836 585.118285,1985.748 585.074285,1985.616 C585.250285,1985.396 585.470285,1985.11 585.778285,1984.758 C587.208285,1982.536 587.978285,1979.786 588.088285,1976.486 C588.088285,1975.848 588.044285,1974.946 587.978285,1973.802 C587.890285,1973.428 587.714285,1973.164 587.428285,1973.032 C587.626285,1972.636 587.868285,1972.394 588.176285,1972.306 Z M591.454285,1969.996 C593.566285,1970.304 594.644285,1971.008 594.732285,1972.108 C594.688285,1972.46 594.622285,1972.856 594.578285,1973.252 C594.644285,1976.552 594.710285,1979.83 594.798285,1983.108 C594.798285,1985.22 594.226285,1986.276 593.104285,1986.276 C592.224285,1986.21 591.652285,1985.682 591.432285,1984.692 C591.432285,1984.428 591.498285,1984.296 591.674285,1984.296 L592.576285,1984.296 C592.994285,1984.164 593.214285,1983.438 593.214285,1982.074 C593.236285,1979.214 593.258285,1976.376 593.280285,1973.538 C593.280285,1972.042 592.840285,1971.294 591.960285,1971.294 C591.168285,1971.47 590.376285,1971.624 589.606285,1971.8 C588.550285,1971.712 588.044285,1971.536 588.044285,1971.272 C588.044285,1971.14 588.132285,1971.03 588.330285,1970.92 C589.606285,1970.436 590.640285,1970.128 591.454285,1969.996 Z" transform="translate(-507 -1969)"/>
</svg>
