<svg xmlns="http://www.w3.org/2000/svg" width="88" height="19" viewBox="0 0 88 19">
  <path fill="#4A4A4A" fill-rule="evenodd" d="M250.61,1970.92 C251.05,1970.986 251.292,1971.294 251.336,1971.866 C251.292,1972.438 251.05,1973.054 250.588,1973.736 C250.28,1974.352 250.082,1974.792 249.95,1975.034 C249.95,1975.122 249.972,1975.144 250.038,1975.144 L251.468,1974.682 C252.128,1973.626 252.48,1972.9 252.48,1972.504 C252.436,1972.46 252.414,1972.372 252.392,1972.24 C252.392,1972.02 252.59,1971.888 253.008,1971.888 C253.492,1971.888 253.734,1972.218 253.734,1972.878 C253.734,1973.274 253.206,1974.088 252.15,1975.32 C251.226,1976.552 250.72,1977.344 250.632,1977.696 C250.632,1977.784 250.676,1977.828 250.808,1977.828 C251.116,1977.784 251.468,1977.674 251.908,1977.454 C251.864,1977.234 251.82,1976.97 251.798,1976.706 C251.798,1976.53 251.864,1976.42 252.04,1976.42 C252.48,1976.508 252.876,1976.706 253.25,1977.058 C253.602,1977.366 253.778,1977.674 253.778,1978.004 C253.734,1978.73 253.47,1979.082 252.964,1979.082 C252.722,1979.082 252.48,1978.884 252.238,1978.466 C251.82,1978.708 251.248,1979.038 250.544,1979.434 C249.664,1979.874 249.092,1980.116 248.784,1980.138 C248.322,1980.138 248.102,1979.94 248.102,1979.544 C248.102,1979.302 248.674,1978.466 249.818,1977.058 C249.994,1976.838 250.148,1976.618 250.302,1976.398 C249.708,1976.662 249.18,1976.794 248.74,1976.816 C248.344,1976.816 248.102,1976.618 248.058,1976.2 C248.058,1975.892 248.454,1975.144 249.246,1973.956 C249.95,1972.988 250.324,1972.152 250.368,1971.47 C250.368,1971.404 250.346,1971.36 250.324,1971.316 C250.258,1971.272 250.236,1971.206 250.236,1971.14 C250.236,1971.008 250.346,1970.92 250.61,1970.92 Z M248.542,1981.018 C248.102,1981.59 247.684,1981.92 247.288,1982.008 C247.046,1981.986 246.826,1981.964 246.606,1981.964 C246.43,1981.964 246.342,1982.074 246.342,1982.272 C246.386,1983.108 246.782,1983.57 247.53,1983.614 C247.838,1983.57 248.102,1983.328 248.366,1982.888 C248.608,1982.404 248.74,1981.92 248.762,1981.436 C248.762,1981.172 248.674,1981.018 248.542,1981.018 Z M252.04,1979.874 C253.25,1979.94 253.866,1980.292 253.866,1980.952 C253.822,1981.524 253.558,1981.832 253.074,1981.876 C252.678,1981.854 252.392,1981.678 252.194,1981.37 C251.864,1980.996 251.688,1980.578 251.666,1980.116 C251.666,1979.962 251.776,1979.874 252.04,1979.874 Z M249.862,1980.798 C249.598,1980.798 249.466,1980.886 249.466,1981.062 C249.488,1981.546 249.642,1981.986 249.906,1982.382 C250.082,1982.712 250.324,1982.888 250.654,1982.932 C251.182,1982.888 251.446,1982.558 251.468,1981.942 C251.468,1981.238 250.918,1980.864 249.862,1980.798 Z M254.834,1972.592 C255.582,1972.636 255.956,1973.89 255.956,1976.376 C255.956,1981.348 255.67,1983.834 255.12,1983.834 C254.636,1983.834 254.35,1983.284 254.262,1982.184 C254.614,1979.544 254.834,1977.036 254.878,1974.704 C254.878,1973.626 254.79,1973.01 254.614,1972.834 C254.614,1972.68 254.68,1972.592 254.834,1972.592 Z M261.016,1970.018 C262.842,1970.282 263.788,1970.876 263.854,1971.8 L263.722,1972.79 C263.744,1976.002 263.788,1979.192 263.832,1982.382 C263.832,1984.23 263.348,1985.132 262.38,1985.132 C261.588,1985.066 261.104,1984.626 260.906,1983.746 C260.906,1983.526 260.972,1983.416 261.126,1983.416 L261.896,1983.416 C262.248,1983.306 262.446,1982.668 262.446,1981.48 C262.49,1978.664 262.556,1975.848 262.6,1973.054 C262.6,1971.734 262.204,1971.052 261.456,1971.052 C259.828,1971.338 258.2,1971.624 256.594,1971.91 C255.758,1971.822 255.362,1971.69 255.362,1971.492 C255.362,1971.404 255.428,1971.294 255.582,1971.206 C257.782,1970.59 259.608,1970.194 261.016,1970.018 Z M258.574,1972.988 C258.684,1972.988 258.75,1973.098 258.75,1973.318 C258.728,1973.692 258.596,1974.066 258.332,1974.44 C258.068,1974.792 257.782,1974.968 257.474,1974.99 C256.902,1974.946 256.594,1974.616 256.55,1973.956 C256.55,1973.802 256.616,1973.714 256.77,1973.714 C256.924,1973.714 257.1,1973.736 257.298,1973.736 C257.694,1973.692 258.134,1973.428 258.574,1972.988 Z M260.818,1972.152 C261.412,1972.152 261.72,1972.438 261.72,1972.966 C261.72,1973.318 261.39,1973.868 260.752,1974.616 C260.62,1974.792 260.488,1974.946 260.378,1975.056 C260.818,1974.99 261.214,1974.946 261.566,1974.924 C262.006,1974.968 262.248,1975.166 262.248,1975.496 C262.204,1975.76 261.984,1975.914 261.632,1975.958 C260.928,1976.09 260.312,1976.178 259.784,1976.244 C259.828,1976.376 259.872,1976.508 259.872,1976.64 C259.784,1976.992 259.718,1977.3 259.674,1977.542 C260.246,1977.454 260.73,1977.41 261.126,1977.388 C261.786,1977.388 262.116,1977.608 262.116,1978.026 C262.116,1978.334 261.918,1978.466 261.566,1978.466 C261.082,1978.466 260.532,1978.488 259.96,1978.532 C259.124,1978.62 258.486,1978.686 258.024,1978.73 C258.288,1978.994 258.42,1979.434 258.42,1980.028 C258.42,1980.05 258.398,1980.072 258.398,1980.072 C258.486,1980.402 258.662,1980.556 258.904,1980.556 C259.344,1980.468 259.938,1980.27 260.686,1979.918 C261.302,1979.962 261.632,1980.226 261.698,1980.71 C261.698,1980.996 261.544,1981.15 261.28,1981.172 C260.928,1981.172 260.444,1981.194 259.828,1981.238 C259.52,1981.304 259.036,1981.414 258.398,1981.59 C257.606,1981.59 257.21,1981.238 257.21,1980.49 C257.276,1980.292 257.32,1980.094 257.364,1979.896 C257.364,1979.236 257.254,1978.84 257.078,1978.708 C256.726,1978.664 256.484,1978.576 256.374,1978.4 C256.374,1978.334 256.55,1978.246 256.902,1978.158 C257.496,1978.026 258.046,1977.894 258.53,1977.762 C258.53,1977.432 258.552,1977.168 258.552,1976.992 C258.53,1976.75 258.486,1976.574 258.398,1976.442 C258.024,1976.486 257.738,1976.53 257.54,1976.53 C256.77,1976.53 256.352,1976.354 256.308,1975.98 C256.418,1975.848 257.342,1975.606 259.102,1975.298 C259.19,1975.078 259.366,1974.77 259.608,1974.352 C259.916,1973.736 260.092,1973.23 260.136,1972.856 C260.136,1972.68 260.092,1972.526 260.048,1972.394 C260.048,1972.24 260.29,1972.152 260.818,1972.152 Z M271.893428,1972.988 C272.267428,1972.988 272.641428,1973.384 273.037428,1974.132 C273.103428,1974.572 273.191428,1974.99 273.301428,1975.43 C273.345428,1975.606 273.389428,1975.76 273.433428,1975.892 C273.697428,1975.804 274.005428,1975.716 274.357428,1975.606 C274.775428,1975.474 275.127428,1975.408 275.391428,1975.364 L275.413428,1975.364 C275.435428,1975.188 275.479428,1975.012 275.545428,1974.814 C275.633428,1974.352 275.699428,1973.78 275.699428,1973.12 C275.677428,1972.944 275.611428,1972.834 275.501428,1972.834 C275.325428,1972.878 275.149428,1972.944 274.951428,1973.054 C274.775428,1973.208 274.621428,1973.274 274.467428,1973.274 C273.477428,1973.274 272.971428,1973.054 272.971428,1972.636 C272.971428,1972.482 273.301428,1972.306 273.961428,1972.086 C274.533428,1971.844 275.039428,1971.712 275.457428,1971.69 C276.689428,1971.822 277.327428,1972.262 277.393428,1973.054 C277.393428,1973.824 277.217428,1974.55 276.865428,1975.21 C276.513428,1976.09 276.205428,1976.53 275.963428,1976.53 C275.787428,1976.53 275.677428,1976.508 275.611428,1976.442 C275.545428,1976.464 275.501428,1976.464 275.457428,1976.464 C275.413428,1976.486 275.369428,1976.486 275.369428,1976.486 C275.435428,1976.618 275.479428,1976.772 275.479428,1976.948 C275.457428,1977.344 275.435428,1977.696 275.435428,1978.048 C275.787428,1977.916 276.117428,1977.828 276.447428,1977.74 C276.843428,1977.74 277.063428,1977.938 277.063428,1978.29 L277.063428,1978.4 C277.085428,1978.4 277.107428,1978.378 277.129428,1978.378 C277.921428,1978.07 278.845428,1977.388 279.901428,1976.376 C280.121428,1976.2 280.297428,1976.002 280.473428,1975.804 C279.593428,1975.408 278.779428,1975.144 278.031428,1975.012 C277.833428,1975.012 277.745428,1974.946 277.745428,1974.792 C277.877428,1974.396 278.185428,1974.198 278.713428,1974.154 C279.241428,1974.198 280.077428,1974.462 281.243428,1974.946 C281.727428,1974.352 282.123428,1973.758 282.409428,1973.164 C282.409428,1972.944 282.321428,1972.812 282.145428,1972.812 C281.925428,1972.834 281.441428,1972.988 280.737428,1973.252 C280.011428,1973.538 279.549428,1973.692 279.351428,1973.714 C278.867428,1973.714 278.647428,1973.516 278.647428,1973.12 C278.647428,1972.944 279.021428,1972.438 279.769428,1971.58 C280.473428,1970.744 280.847428,1970.128 280.847428,1969.732 C280.803428,1969.6 280.781428,1969.49 280.759428,1969.38 C280.759428,1969.248 280.891428,1969.182 281.155428,1969.182 C281.595428,1969.27 281.815428,1969.556 281.859428,1969.996 C281.859428,1970.128 281.793428,1970.37 281.661428,1970.678 C281.397428,1971.206 281.243428,1971.58 281.155428,1971.822 C281.155428,1971.954 281.177428,1971.998 281.265428,1971.998 C282.475428,1971.624 283.157428,1971.426 283.289428,1971.426 C284.147428,1971.536 284.587428,1971.844 284.609428,1972.35 C284.609428,1972.658 284.235428,1973.208 283.487428,1974.022 C283.135428,1974.55 282.761428,1975.012 282.409428,1975.452 C282.673428,1975.584 282.915428,1975.694 283.179428,1975.804 C284.719428,1976.42 286.281428,1976.838 287.821428,1977.058 C288.327428,1977.146 288.591428,1977.234 288.591428,1977.3 C288.415428,1978.312 287.623428,1978.862 286.259428,1978.972 C285.577428,1978.972 284.257428,1978.268 282.299428,1976.86 C282.035428,1976.684 281.793428,1976.53 281.573428,1976.398 C281.089428,1976.904 280.627428,1977.366 280.143428,1977.784 C279.263428,1978.84 278.537428,1979.346 277.965428,1979.346 C277.305428,1979.346 276.887428,1979.236 276.733428,1978.972 C276.535428,1979.104 276.293428,1979.148 275.985428,1979.148 C275.721428,1979.126 275.523428,1979.104 275.391428,1979.06 C275.347428,1979.962 275.325428,1980.71 275.303428,1981.304 C275.721428,1981.172 276.161428,1981.04 276.601428,1980.864 C276.843428,1980.864 276.975428,1980.996 276.975428,1981.26 C276.931428,1981.568 276.249428,1982.096 274.929428,1982.844 C273.785428,1983.482 272.905428,1983.79 272.289428,1983.79 C271.101428,1983.702 270.463428,1983.416 270.419428,1982.932 C270.419428,1982.668 270.661428,1982.492 271.167428,1982.404 C271.431428,1982.382 271.717428,1982.338 272.069428,1982.25 C271.893428,1980.886 271.673428,1979.764 271.387428,1978.84 C271.387428,1978.62 271.453428,1978.488 271.629428,1978.422 C272.135428,1978.422 272.553428,1978.796 272.883428,1979.522 C273.125428,1979.742 273.257428,1980.534 273.301428,1981.92 C273.565428,1981.876 273.829428,1981.788 274.093428,1981.7 C274.049428,1979.72 274.027428,1978.268 274.027428,1977.344 C273.983428,1977.102 273.939428,1976.926 273.873428,1976.794 C273.697428,1976.794 273.543428,1976.772 273.455428,1976.728 C273.367428,1976.948 273.257428,1977.058 273.081428,1977.058 C272.773428,1977.058 272.465428,1976.838 272.157428,1976.354 C271.849428,1975.914 271.673428,1975.32 271.585428,1974.616 C271.585428,1973.604 271.673428,1973.076 271.893428,1972.988 Z M278.757428,1979.962 C279.109428,1979.962 279.483428,1980.336 279.835428,1981.04 C279.945428,1981.568 280.077428,1982.074 280.231428,1982.58 C280.319428,1982.8 280.385428,1982.998 280.429428,1983.152 C280.803428,1983.064 281.309428,1982.976 281.947428,1982.844 C282.321428,1982.756 282.651428,1982.712 282.937428,1982.668 C282.959428,1982.426 283.003428,1982.162 283.091428,1981.898 C283.179428,1981.48 283.223428,1980.974 283.223428,1980.38 C283.201428,1980.16 283.113428,1980.05 282.959428,1980.05 C282.717428,1980.094 282.431428,1980.16 282.123428,1980.248 C281.859428,1980.38 281.617428,1980.446 281.375428,1980.446 C280.231428,1980.424 279.637428,1980.182 279.615428,1979.72 C279.615428,1979.544 280.055428,1979.346 280.935428,1979.126 C281.705428,1978.906 282.365428,1978.774 282.915428,1978.73 C284.323428,1978.862 285.049428,1979.39 285.137428,1980.314 C285.137428,1981.018 284.939428,1981.7 284.565428,1982.338 C284.455428,1982.58 284.367428,1982.756 284.279428,1982.888 C284.367428,1983.02 284.433428,1983.152 284.433428,1983.306 C284.367428,1983.658 284.103428,1983.834 283.663428,1983.878 C282.365428,1984.054 281.507428,1984.142 281.111428,1984.142 C280.847428,1984.142 280.605428,1984.142 280.429428,1984.098 C280.341428,1984.296 280.231428,1984.406 280.055428,1984.406 C279.725428,1984.406 279.395428,1984.142 279.087428,1983.57 C278.757428,1983.042 278.559428,1982.36 278.471428,1981.502 C278.471428,1980.556 278.559428,1980.05 278.757428,1979.962 Z M298.258856,1970.04 C299.138856,1970.106 299.600856,1970.612 299.600856,1971.58 C299.468856,1971.976 299.358856,1972.658 299.292856,1973.67 C299.710856,1973.604 300.084856,1973.56 300.392856,1973.538 C301.008856,1973.604 301.338856,1973.868 301.338856,1974.352 C301.272856,1974.748 300.986856,1974.968 300.480856,1975.012 C299.996856,1975.1 299.578856,1975.188 299.204856,1975.254 L299.204856,1975.43 C299.182856,1976.178 299.160856,1976.882 299.160856,1977.498 C299.600856,1977.278 300.062856,1977.036 300.546856,1976.772 C300.810856,1976.772 300.942856,1976.904 300.942856,1977.146 C300.898856,1977.542 300.304856,1978.18 299.116856,1979.082 C299.050856,1981.392 298.962856,1982.866 298.830856,1983.482 C298.566856,1984.582 298.148856,1985.132 297.576856,1985.132 C296.828856,1985.132 296.388856,1984.582 296.300856,1983.482 C296.300856,1983.196 296.344856,1983.042 296.454856,1983.042 C296.696856,1983.064 296.960856,1983.086 297.268856,1983.13 C297.422856,1983.13 297.532856,1982.8 297.576856,1982.14 C297.664856,1981.942 297.730856,1981.216 297.796856,1979.984 C297.202856,1980.314 296.718856,1980.468 296.344856,1980.468 C295.156856,1980.38 294.540856,1980.094 294.496856,1979.61 C294.496856,1979.346 294.738856,1979.17 295.222856,1979.082 C295.882856,1978.95 296.762856,1978.642 297.862856,1978.114 C297.862856,1977.344 297.884856,1976.464 297.884856,1975.474 C297.312856,1975.562 296.894856,1975.628 296.630856,1975.65 C295.552856,1975.65 294.980856,1975.408 294.914856,1974.88 C295.024856,1974.682 296.014856,1974.374 297.906856,1973.978 L297.906856,1972.108 C297.906856,1971.536 297.796856,1971.184 297.576856,1971.008 C297.356856,1970.854 297.246856,1970.722 297.246856,1970.612 C297.422856,1970.304 297.774856,1970.106 298.258856,1970.04 Z M306.090856,1970.172 C307.212856,1970.172 307.784856,1970.656 307.784856,1971.602 C307.674856,1972.482 307.564856,1973.384 307.454856,1974.308 C307.476856,1974.814 307.696856,1975.056 308.136856,1975.056 C308.224856,1975.056 308.510856,1975.012 308.972856,1974.924 C309.390856,1974.946 309.654856,1974.99 309.742856,1975.078 C309.874856,1975.166 309.962856,1975.298 310.006856,1975.474 C310.006856,1975.98 309.676856,1976.288 309.038856,1976.398 L307.718856,1976.398 C306.662856,1976.288 306.156856,1975.65 306.156856,1974.506 C306.178856,1973.78 306.222856,1973.01 306.310856,1972.218 C306.310856,1971.734 306.090856,1971.47 305.694856,1971.47 C304.638856,1971.58 303.912856,1971.624 303.538856,1971.624 C303.098856,1971.58 302.878856,1971.426 302.878856,1971.184 C303.142856,1970.7 304.220856,1970.348 306.090856,1970.172 Z M303.208856,1972.284 C303.912856,1972.284 304.264856,1972.658 304.264856,1973.406 C303.868856,1975.606 302.922856,1976.794 301.426856,1976.992 C301.272856,1976.97 301.206856,1976.904 301.206856,1976.816 C301.206856,1976.794 301.250856,1976.684 301.360856,1976.508 C302.350856,1975.342 302.856856,1974.352 302.856856,1973.538 C302.856856,1973.274 302.790856,1973.098 302.680856,1973.01 C302.570856,1972.922 302.526856,1972.856 302.526856,1972.768 C302.614856,1972.482 302.834856,1972.328 303.208856,1972.284 Z M307.124856,1976.728 C307.740856,1976.728 308.070856,1977.102 308.070856,1977.828 C307.806856,1979.192 307.168856,1980.38 306.156856,1981.37 C307.212856,1982.14 308.488856,1982.8 309.962856,1983.35 C311.018856,1983.702 311.568856,1983.988 311.568856,1984.23 C311.568856,1984.934 310.754856,1985.374 309.170856,1985.55 C308.532856,1985.55 307.388856,1984.648 305.738856,1982.8 C305.518856,1982.624 305.320856,1982.448 305.166856,1982.294 C303.582856,1983.79 302.196856,1984.538 301.030856,1984.538 C300.590856,1984.538 300.392856,1984.428 300.392856,1984.208 C300.392856,1984.12 300.458856,1984.01 300.634856,1983.922 C302.130856,1983.086 303.318856,1982.25 304.198856,1981.458 C303.010856,1980.446 302.262856,1979.874 301.976856,1979.72 C301.800856,1979.72 301.646856,1979.764 301.558856,1979.808 C301.448856,1979.808 301.404856,1979.72 301.404856,1979.522 C301.404856,1979.082 301.668856,1978.84 302.196856,1978.84 C302.790856,1979.038 303.758856,1979.61 305.078856,1980.578 C305.738856,1979.83 306.134856,1979.104 306.288856,1978.4 C306.288856,1978.312 306.222856,1978.246 306.090856,1978.246 C305.210856,1978.312 304.352856,1978.378 303.538856,1978.466 C302.966856,1978.466 302.636856,1978.334 302.592856,1978.092 C302.592856,1977.982 302.658856,1977.916 302.834856,1977.894 C304.396856,1977.124 305.826856,1976.728 307.124856,1976.728 Z M329.288285,1968.786 C329.926285,1968.852 330.256285,1969.138 330.256285,1969.622 C330.190285,1970.018 329.904285,1970.216 329.376285,1970.26 C329.156285,1970.304 328.958285,1970.326 328.782285,1970.348 C328.892285,1970.568 328.958285,1970.81 328.958285,1971.118 C328.936285,1971.25 328.936285,1971.382 328.936285,1971.492 C329.354285,1971.448 329.772285,1971.426 330.168285,1971.404 C331.444285,1971.536 332.104285,1971.998 332.170285,1972.79 C332.170285,1973.582 331.928285,1974.308 331.488285,1975.012 C331.026285,1975.936 330.652285,1976.376 330.344285,1976.376 C329.948285,1976.376 329.728285,1976.2 329.684285,1975.804 C326.912285,1976.178 325.086285,1976.398 324.184285,1976.442 C324.008285,1976.442 323.876285,1976.442 323.744285,1976.42 C323.700285,1976.75 323.568285,1976.926 323.326285,1976.948 C322.930285,1976.948 322.512285,1976.64 322.094285,1976.024 C321.698285,1975.43 321.434285,1974.66 321.324285,1973.736 C321.324285,1972.988 321.390285,1972.592 321.544285,1972.548 C321.698285,1972.548 321.852285,1972.636 321.984285,1972.79 C322.424285,1972.614 323.172285,1972.416 324.272285,1972.218 C324.184285,1971.822 324.118285,1971.404 324.052285,1970.964 C323.876285,1971.008 323.722285,1971.008 323.612285,1971.008 C322.534285,1971.008 321.962285,1970.766 321.874285,1970.238 C322.028285,1970.018 323.480285,1969.688 326.230285,1969.204 C327.484285,1968.962 328.496285,1968.83 329.288285,1968.786 Z M324.514285,1973.56 C324.030285,1973.648 323.590285,1973.67 323.150285,1973.67 C322.864285,1973.67 322.644285,1973.67 322.490285,1973.626 C322.666285,1974.11 322.908285,1974.594 323.172285,1975.056 C323.304285,1975.254 323.414285,1975.408 323.502285,1975.54 C323.876285,1975.452 324.360285,1975.364 324.954285,1975.254 C324.822285,1974.902 324.668285,1974.33 324.514285,1973.56 Z M330.036285,1974.572 C330.212285,1974.088 330.300285,1973.538 330.300285,1972.878 C330.278285,1972.658 330.234285,1972.526 330.190285,1972.526 C329.750285,1972.57 329.266285,1972.636 328.782285,1972.702 C328.628285,1973.626 328.430285,1974.286 328.210285,1974.726 C328.914285,1974.638 329.486285,1974.572 329.970285,1974.55 C329.992285,1974.55 330.014285,1974.572 330.036285,1974.572 Z M325.614285,1975.144 C326.032285,1975.078 326.494285,1975.012 327.000285,1974.924 C327.066285,1974.924 327.132285,1974.902 327.220285,1974.88 C327.286285,1974.176 327.352285,1973.538 327.396285,1972.944 C327.088285,1972.988 326.802285,1973.054 326.516285,1973.098 C326.230285,1973.208 325.966285,1973.296 325.702285,1973.34 C325.724285,1973.736 325.746285,1974.154 325.746285,1974.594 C325.702285,1974.836 325.658285,1975.012 325.614285,1975.144 Z M325.570285,1971.998 C326.230285,1971.866 326.846285,1971.756 327.440285,1971.668 L327.440285,1971.272 C327.440285,1970.986 327.374285,1970.788 327.264285,1970.7 C327.198285,1970.656 327.154285,1970.634 327.132285,1970.59 C326.384285,1970.7 325.746285,1970.788 325.218285,1970.832 C325.306285,1971.008 325.394285,1971.206 325.438285,1971.404 C325.482285,1971.536 325.526285,1971.734 325.570285,1971.998 Z M329.354285,1976.992 C328.452285,1977.036 326.846285,1977.212 324.536285,1977.52 C323.304285,1977.652 322.666285,1977.74 322.644285,1977.828 C322.666285,1978.356 323.172285,1978.664 324.140285,1978.752 C324.580285,1978.752 325.394285,1978.664 326.626285,1978.488 C327.748285,1978.378 328.672285,1978.312 329.398285,1978.268 C329.970285,1978.136 330.300285,1977.872 330.388285,1977.454 C330.388285,1977.146 330.036285,1976.992 329.354285,1976.992 Z M326.120285,1980.996 C324.096285,1981.216 322.556285,1981.326 321.500285,1981.326 C320.708285,1981.304 320.224285,1981.15 320.004285,1980.842 C320.004285,1980.754 320.246285,1980.644 320.730285,1980.512 C325.878285,1979.632 329.662285,1979.148 332.126285,1979.082 C333.028285,1979.082 333.490285,1979.39 333.490285,1979.984 C333.490285,1980.402 333.226285,1980.6 332.720285,1980.6 C331.400285,1980.6 329.948285,1980.666 328.320285,1980.776 C328.012285,1980.82 327.748285,1980.842 327.506285,1980.864 C327.638285,1981.26 327.726285,1981.788 327.748285,1982.426 C327.748285,1984.054 327.726285,1984.846 327.704285,1984.846 C327.528285,1985.946 327.066285,1986.496 326.274285,1986.496 C325.658285,1986.496 325.240285,1985.902 325.064285,1984.736 C325.064285,1984.604 325.152285,1984.516 325.328285,1984.516 C325.460285,1984.516 325.658285,1984.538 325.922285,1984.538 C326.076285,1984.472 326.164285,1984.274 326.208285,1983.922 C326.252285,1982.778 326.296285,1982.118 326.296285,1981.92 C326.252285,1981.502 326.208285,1981.194 326.120285,1980.996 Z M324.184285,1982.206 C324.338285,1982.206 324.426285,1982.36 324.426285,1982.646 C324.382285,1983.108 324.206285,1983.57 323.854285,1984.01 C323.502285,1984.428 323.084285,1984.648 322.644285,1984.692 C321.852285,1984.626 321.412285,1984.142 321.346285,1983.24 C321.346285,1983.02 321.434285,1982.888 321.654285,1982.888 C321.874285,1982.888 322.138285,1982.91 322.402285,1982.932 C322.974285,1982.866 323.568285,1982.624 324.184285,1982.206 Z M329.816285,1981.656 C331.532285,1981.744 332.390285,1982.294 332.390285,1983.284 C332.368285,1983.856 332.104285,1984.164 331.598285,1984.208 C331.026285,1984.164 330.564285,1983.922 330.256285,1983.526 C329.772285,1983.042 329.486285,1982.492 329.442285,1981.898 C329.442285,1981.744 329.552285,1981.656 329.816285,1981.656 Z" transform="translate(-246 -1968)"/>
</svg>
