<svg xmlns="http://www.w3.org/2000/svg" width="88" height="19" viewBox="0 0 88 19">
  <path fill="#4A4A4A" fill-rule="evenodd" d="M394,1 L394,15.28 L396.18,15.28 L396.18,5.08 L396.26,5.08 L400.64,15.28 L402.52,15.28 L406.9,5.08 L406.98,5.08 L406.98,15.28 L409.16,15.28 L409.16,1 L406.58,1 L401.62,12.44 L401.56,12.44 L396.58,1 L394,1 Z M416.42,4.66 C417.94,4.66 419.06,5.04 419.78,5.8 C420.4,6.46 420.72,7.42 420.72,8.68 L420.72,15.28 L418.76,15.28 L418.76,13.82 C418.36,14.34 417.86,14.76 417.26,15.06 C416.58,15.38 415.78,15.56 414.86,15.56 C413.78,15.56 412.94,15.28 412.34,14.74 C411.68,14.2 411.36,13.5 411.36,12.64 C411.36,11.48 411.82,10.58 412.74,9.96 C413.58,9.36 414.78,9.06 416.3,9.02 L418.62,8.96 L418.62,8.54 C418.62,7.1 417.84,6.38 416.28,6.38 C415.62,6.38 415.08,6.5 414.68,6.74 C414.2,7.02 413.9,7.44 413.78,8.02 L411.68,7.84 C411.9,6.72 412.46,5.88 413.34,5.36 C414.1,4.88 415.14,4.66 416.42,4.66 Z M418.62,10.5 L416.44,10.56 C414.5,10.6 413.54,11.28 413.54,12.56 C413.54,12.96 413.7,13.28 414.04,13.54 C414.36,13.8 414.8,13.94 415.34,13.94 C416.24,13.94 417,13.66 417.64,13.12 C418.28,12.58 418.62,11.9 418.62,11.1 L418.62,10.5 Z M428.32,4.66 C429.84,4.66 431.02,5.2 431.9,6.28 C432.7,7.28 433.1,8.56 433.1,10.16 C433.1,11.68 432.7,12.94 431.92,13.94 C431.08,15.02 429.9,15.56 428.42,15.56 C427.14,15.56 426.1,14.96 425.26,13.76 L425.26,19.24 L423.14,19.24 L423.14,4.94 L425.12,4.94 L425.12,6.18 C425.84,5.16 426.92,4.66 428.32,4.66 Z M428,6.38 C427.08,6.38 426.36,6.74 425.86,7.48 C425.42,8.12 425.2,8.98 425.2,10.04 L425.2,10.22 C425.2,11.32 425.46,12.22 426.02,12.9 C426.5,13.52 427.14,13.84 427.94,13.84 C428.98,13.84 429.74,13.5 430.24,12.82 C430.68,12.18 430.92,11.3 430.92,10.16 C430.92,9.02 430.7,8.14 430.3,7.5 C429.8,6.74 429.04,6.38 428,6.38 Z" transform="translate(-370)"/>
</svg>
