<svg xmlns="http://www.w3.org/2000/svg" width="88" height="19" viewBox="0 0 88 19">
  <path fill="#4A4A4A" fill-rule="evenodd" d="M510,2.2 L514.1,16.48 L516.44,16.48 L519.34,5.46 L519.42,5.46 L522.32,16.48 L524.64,16.48 L528.76,2.2 L526.3,2.2 L523.52,13.32 L523.44,13.32 L520.52,2.2 L518.24,2.2 L515.32,13.32 L515.24,13.32 L512.46,2.2 L510,2.2 Z M531.56,2 C531.14,2 530.8,2.12 530.52,2.4 C530.24,2.66 530.1,3 530.1,3.42 C530.1,3.82 530.24,4.18 530.52,4.46 C530.8,4.72 531.14,4.86 531.56,4.86 C531.96,4.86 532.32,4.72 532.6,4.46 C532.88,4.18 533.04,3.84 533.04,3.42 C533.04,3 532.9,2.66 532.62,2.4 C532.34,2.12 531.98,2 531.56,2 Z M530.5,6.14 L530.5,16.48 L532.62,16.48 L532.62,6.14 L530.5,6.14 Z M540.72,5.86 C540.08,5.86 539.5,5.98 538.98,6.26 C538.46,6.52 538,6.9 537.6,7.42 L537.6,6.14 L535.48,6.14 L535.48,16.48 L537.6,16.48 L537.6,10.26 C537.68,9.42 537.98,8.76 538.46,8.28 C538.9,7.84 539.44,7.64 540.04,7.64 C541.64,7.64 542.46,8.52 542.46,10.28 L542.46,16.48 L544.58,16.48 L544.58,10.1 C544.58,7.26 543.28,5.86 540.72,5.86 Z M552.24,5.86 C551.6,5.86 551.02,5.98 550.5,6.26 C549.98,6.52 549.52,6.9 549.12,7.42 L549.12,6.14 L547,6.14 L547,16.48 L549.12,16.48 L549.12,10.26 C549.2,9.42 549.5,8.76 549.98,8.28 C550.42,7.84 550.96,7.64 551.56,7.64 C553.16,7.64 553.98,8.52 553.98,10.28 L553.98,16.48 L556.1,16.48 L556.1,10.1 C556.1,7.26 554.8,5.86 552.24,5.86 Z M562.9,5.86 C564.58,5.86 565.88,6.42 566.76,7.58 C567.56,8.62 567.98,10.06 568,11.9 L560.16,11.9 C560.24,12.9 560.5,13.68 560.98,14.22 C561.46,14.74 562.12,15.02 562.96,15.02 C563.7,15.02 564.3,14.84 564.76,14.5 C565.12,14.22 565.42,13.76 565.7,13.16 L567.82,13.16 C567.58,14.12 567.12,14.94 566.4,15.58 C565.5,16.36 564.36,16.76 562.98,16.76 C561.46,16.76 560.24,16.28 559.36,15.34 C558.4,14.34 557.92,13 557.92,11.3 C557.92,9.76 558.36,8.48 559.28,7.44 C560.16,6.38 561.38,5.86 562.9,5.86 Z M562.96,7.6 C562.16,7.6 561.54,7.82 561.06,8.3 C560.62,8.76 560.32,9.42 560.2,10.3 L565.78,10.3 C565.58,8.5 564.64,7.6 562.96,7.6 Z M574.6,5.86 C573.96,5.86 573.4,6.04 572.92,6.44 C572.52,6.72 572.18,7.14 571.92,7.7 L571.92,6.14 L569.8,6.14 L569.8,16.48 L571.92,16.48 L571.92,11 C571.92,10.1 572.18,9.36 572.72,8.8 C573.22,8.28 573.8,8.02 574.44,8.02 C574.92,8.02 575.42,8.08 575.94,8.24 L575.94,6.12 C575.58,5.94 575.12,5.86 574.6,5.86 Z" transform="translate(-499)"/>
</svg>
