<svg xmlns="http://www.w3.org/2000/svg" width="88" height="19" viewBox="0 0 88 19">
  <path fill="#4A4A4A" fill-rule="evenodd" d="M774.8,2 C772.52,2 770.8,2.74 769.6,4.26 C768.52,5.6 768,7.32 768,9.44 C768,11.6 768.5,13.32 769.54,14.6 C770.72,16.08 772.48,16.84 774.82,16.84 C776.36,16.84 777.68,16.4 778.78,15.52 C779.96,14.58 780.7,13.28 781.02,11.62 L778.9,11.62 C778.62,12.74 778.12,13.58 777.4,14.14 C776.72,14.66 775.84,14.92 774.8,14.92 C773.2,14.92 772.02,14.42 771.26,13.42 C770.54,12.48 770.18,11.16 770.18,9.44 C770.18,7.78 770.54,6.46 771.28,5.5 C772.06,4.44 773.22,3.92 774.76,3.92 C775.8,3.92 776.64,4.14 777.32,4.6 C778,5.06 778.46,5.78 778.7,6.74 L780.82,6.74 C780.6,5.3 779.96,4.14 778.92,3.3 C777.84,2.42 776.46,2 774.8,2 Z M787.78,5.94 C789.34,5.94 790.6,6.46 791.54,7.5 C792.46,8.52 792.94,9.82 792.94,11.4 C792.94,12.96 792.48,14.26 791.56,15.26 C790.6,16.3 789.34,16.84 787.78,16.84 C786.22,16.84 784.96,16.3 784,15.26 C783.08,14.26 782.62,12.96 782.62,11.4 C782.62,9.82 783.08,8.52 784.02,7.5 C784.96,6.46 786.22,5.94 787.78,5.94 Z M787.78,7.68 C786.8,7.68 786.04,8.06 785.5,8.84 C785.02,9.5 784.8,10.36 784.8,11.4 C784.8,12.44 785.02,13.28 785.5,13.94 C786.04,14.7 786.8,15.1 787.78,15.1 C788.76,15.1 789.52,14.7 790.08,13.94 C790.56,13.26 790.8,12.42 790.8,11.4 C790.8,10.36 790.56,9.5 790.08,8.84 C789.52,8.06 788.76,7.68 787.78,7.68 Z M800.2,5.94 C799.56,5.94 798.98,6.06 798.46,6.34 C797.94,6.6 797.48,6.98 797.08,7.5 L797.08,6.22 L794.96,6.22 L794.96,16.56 L797.08,16.56 L797.08,10.34 C797.16,9.5 797.46,8.84 797.94,8.36 C798.38,7.92 798.92,7.72 799.52,7.72 C801.12,7.72 801.94,8.6 801.94,10.36 L801.94,16.56 L804.06,16.56 L804.06,10.18 C804.06,7.34 802.76,5.94 800.2,5.94 Z M809.62,2.88 L807.5,3.76 L807.5,6.22 L805.58,6.22 L805.58,7.98 L807.5,7.98 L807.5,13.98 C807.5,14.8 807.68,15.42 808.08,15.86 C808.48,16.32 809.14,16.56 810.02,16.56 L811.72,16.56 L811.72,14.8 L810.36,14.8 C810.1,14.8 809.92,14.72 809.8,14.6 C809.68,14.46 809.62,14.26 809.62,13.98 L809.62,7.98 L811.98,7.98 L811.98,6.22 L809.62,6.22 L809.62,2.88 Z M818.34,5.94 C819.86,5.94 820.98,6.32 821.7,7.08 C822.32,7.74 822.64,8.7 822.64,9.96 L822.64,16.56 L820.68,16.56 L820.68,15.1 C820.28,15.62 819.78,16.04 819.18,16.34 C818.5,16.66 817.7,16.84 816.78,16.84 C815.7,16.84 814.86,16.56 814.26,16.02 C813.6,15.48 813.28,14.78 813.28,13.92 C813.28,12.76 813.74,11.86 814.66,11.24 C815.5,10.64 816.7,10.34 818.22,10.3 L820.54,10.24 L820.54,9.82 C820.54,8.38 819.76,7.66 818.2,7.66 C817.54,7.66 817,7.78 816.6,8.02 C816.12,8.3 815.82,8.72 815.7,9.3 L813.6,9.12 C813.82,8 814.38,7.16 815.26,6.64 C816.02,6.16 817.06,5.94 818.34,5.94 Z M820.54,11.78 L818.36,11.84 C816.42,11.88 815.46,12.56 815.46,13.84 C815.46,14.24 815.62,14.56 815.96,14.82 C816.28,15.08 816.72,15.22 817.26,15.22 C818.16,15.22 818.92,14.94 819.56,14.4 C820.2,13.86 820.54,13.18 820.54,12.38 L820.54,11.78 Z M829.66,5.94 C828.06,5.94 826.82,6.48 825.92,7.56 C825.08,8.56 824.66,9.84 824.66,11.4 C824.66,13 825.08,14.28 825.94,15.28 C826.82,16.32 828.04,16.84 829.62,16.84 C830.94,16.84 832.02,16.5 832.82,15.84 C833.62,15.16 834.16,14.12 834.4,12.74 L832.3,12.74 C832.1,14.3 831.22,15.1 829.64,15.1 C828.72,15.1 828.04,14.76 827.58,14.12 C827.08,13.46 826.84,12.54 826.84,11.38 C826.84,10.22 827.08,9.3 827.6,8.66 C828.1,8 828.78,7.68 829.66,7.68 C830.38,7.68 830.96,7.84 831.4,8.18 C831.84,8.5 832.12,9.02 832.26,9.72 L834.36,9.72 C834.16,8.44 833.64,7.48 832.84,6.84 C832.04,6.24 830.98,5.94 829.66,5.94 Z M839.36,2.88 L837.24,3.76 L837.24,6.22 L835.32,6.22 L835.32,7.98 L837.24,7.98 L837.24,13.98 C837.24,14.8 837.42,15.42 837.82,15.86 C838.22,16.32 838.88,16.56 839.76,16.56 L841.46,16.56 L841.46,14.8 L840.1,14.8 C839.84,14.8 839.66,14.72 839.54,14.6 C839.42,14.46 839.36,14.26 839.36,13.98 L839.36,7.98 L841.72,7.98 L841.72,6.22 L839.36,6.22 L839.36,2.88 Z" transform="translate(-761)"/>
</svg>
