<svg xmlns="http://www.w3.org/2000/svg" width="86" height="19" viewBox="0 0 86 19">
  <path fill="#4A4A4A" fill-rule="evenodd" d="M649.364,1968.258 C650.068,1968.258 650.42,1968.588 650.42,1969.204 C650.42,1969.578 650.046,1970.172 649.342,1970.964 C648.99,1971.404 648.682,1971.712 648.418,1971.91 C649.298,1971.778 650.046,1971.69 650.662,1971.646 C651.212,1971.712 651.498,1971.954 651.498,1972.372 C651.454,1972.724 651.19,1972.9 650.75,1972.944 C649.694,1973.12 648.748,1973.274 647.956,1973.384 C648,1973.516 648.044,1973.648 648.044,1973.802 C648.022,1974 648,1974.176 648,1974.33 C648.924,1974.198 649.694,1974.132 650.31,1974.088 C650.838,1974.154 651.124,1974.396 651.124,1974.792 C651.058,1975.122 650.816,1975.298 650.376,1975.342 C649.43,1975.474 648.616,1975.562 647.934,1975.65 C647.89,1976.112 647.868,1976.508 647.868,1976.86 L647.934,1976.86 C649.76,1976.596 651.234,1976.464 652.378,1976.42 C652.906,1976.464 653.192,1976.706 653.192,1977.146 C653.148,1977.476 652.884,1977.674 652.444,1977.718 C650.332,1977.938 648.55,1978.136 647.12,1978.268 C647.538,1978.444 647.758,1978.73 647.758,1979.126 C647.67,1979.434 647.604,1979.698 647.538,1979.962 C649.826,1979.698 651.674,1979.566 653.038,1979.522 C653.896,1979.522 654.336,1979.808 654.336,1980.358 C654.336,1980.754 654.094,1980.93 653.61,1980.93 C652.29,1980.93 650.794,1980.996 649.166,1981.084 C648.792,1981.128 648.462,1981.172 648.154,1981.172 C649.298,1982.206 650.31,1982.91 651.19,1983.284 C651.85,1983.658 652.532,1983.988 653.258,1984.252 C654.27,1984.56 654.798,1984.802 654.798,1984.978 C654.666,1985.462 653.896,1985.792 652.488,1985.968 C651.564,1985.968 650.86,1985.814 650.376,1985.506 C649.98,1985.132 649.562,1984.714 649.144,1984.186 C648.374,1983.24 647.648,1982.36 646.988,1981.568 C645.822,1984.472 644.128,1985.968 641.928,1986.144 C641.532,1986.144 641.334,1986.056 641.334,1985.924 C641.334,1985.902 641.598,1985.726 642.17,1985.396 C643.842,1984.384 644.964,1983.042 645.58,1981.392 C644.172,1981.48 643.072,1981.546 642.258,1981.546 C641.51,1981.524 641.048,1981.37 640.85,1981.106 C640.85,1980.996 641.07,1980.886 641.532,1980.776 C643.16,1980.534 644.634,1980.336 645.954,1980.16 C646.02,1979.874 646.064,1979.588 646.108,1979.324 C646.108,1979.082 645.976,1978.906 645.756,1978.796 C645.844,1978.62 645.976,1978.466 646.13,1978.378 C644.788,1978.51 643.776,1978.576 643.116,1978.62 C642.17,1978.62 641.664,1978.4 641.598,1977.938 C641.796,1977.74 643.446,1977.432 646.548,1977.036 C646.548,1976.574 646.526,1976.156 646.526,1975.804 C645.69,1975.892 645.052,1975.958 644.634,1975.98 C643.71,1975.98 643.226,1975.76 643.16,1975.32 C643.292,1975.144 644.414,1974.902 646.526,1974.572 L646.526,1974.242 C646.482,1973.978 646.438,1973.758 646.35,1973.626 C645.316,1973.78 644.546,1973.868 644.062,1973.912 C643.116,1973.912 642.61,1973.692 642.544,1973.23 C642.72,1973.01 644.304,1972.636 647.318,1972.108 C647.362,1972.108 647.428,1972.086 647.472,1972.086 C647.428,1972.042 647.406,1971.976 647.406,1971.888 C647.406,1971.8 647.626,1971.382 648.022,1970.678 C648.33,1970.018 648.506,1969.468 648.55,1969.072 C648.55,1968.852 648.506,1968.676 648.44,1968.544 C648.44,1968.368 648.748,1968.258 649.364,1968.258 Z M646.24,1969.402 C646.394,1969.402 646.482,1969.556 646.482,1969.842 C646.46,1970.282 646.306,1970.7 646.042,1971.14 C645.756,1971.536 645.426,1971.734 645.074,1971.778 C644.26,1971.712 643.82,1971.228 643.776,1970.326 C643.776,1970.106 643.864,1969.974 644.062,1969.974 C644.282,1969.974 644.546,1969.996 644.832,1970.018 C645.272,1969.974 645.756,1969.754 646.24,1969.402 Z M671.175428,1970.92 C670.559428,1971.778 669.657428,1972.9 668.469428,1974.286 C667.149428,1975.76 666.049428,1976.596 665.147428,1976.772 C664.399428,1976.75 663.915428,1976.53 663.673428,1976.134 C663.673428,1976.046 663.783428,1975.958 664.047428,1975.848 C666.401428,1974.55 668.513428,1972.482 670.361428,1969.644 C670.537428,1969.38 670.625428,1969.16 670.669428,1968.94 C670.603428,1968.786 670.559428,1968.654 670.537428,1968.522 C670.559428,1968.302 670.801428,1968.17 671.263428,1968.17 C671.791428,1968.39 672.077428,1968.764 672.077428,1969.336 C672.033428,1969.534 671.923428,1969.798 671.725428,1970.128 C672.605428,1970.568 673.639428,1971.206 674.827428,1972.042 C676.895428,1973.186 678.501428,1973.758 679.667428,1973.78 C679.821428,1973.846 679.909428,1973.978 679.909428,1974.154 C679.491428,1975.298 678.853428,1975.892 677.995428,1975.98 C677.511428,1975.98 676.323428,1975.144 674.475428,1973.428 C673.067428,1972.196 671.967428,1971.36 671.175428,1970.92 Z M673.221428,1974.594 C674.453428,1974.594 675.069428,1975.034 675.069428,1975.87 C675.069428,1976.728 674.805428,1977.674 674.299428,1978.73 C674.321428,1978.796 674.343428,1978.862 674.343428,1978.928 C674.343428,1979.874 672.825428,1980.336 669.811428,1980.336 C669.679428,1980.336 669.569428,1980.314 669.503428,1980.292 C669.437428,1981.48 669.393428,1982.668 669.349428,1983.834 C669.349428,1984.406 669.371428,1984.692 669.459428,1984.692 C669.767428,1984.67 670.097428,1984.56 670.493428,1984.362 C671.043428,1984.12 671.505428,1983.944 671.857428,1983.856 C672.055428,1983.856 672.165428,1983.966 672.165428,1984.186 C672.121428,1984.648 671.835428,1985.088 671.263428,1985.572 C670.735428,1986.1 670.009428,1986.408 669.085428,1986.474 C668.425428,1986.474 667.985428,1986.188 667.765428,1985.616 C667.765428,1985.33 667.831428,1985.022 667.963428,1984.714 C668.095428,1984.362 668.161428,1984.01 668.161428,1983.636 C668.205428,1981.766 668.271428,1979.896 668.315428,1978.026 C668.315428,1977.476 668.161428,1977.102 667.875428,1976.882 C667.875428,1976.618 668.007428,1976.486 668.315428,1976.486 C668.997428,1976.574 669.415428,1976.926 669.547428,1977.52 C670.383428,1977.278 671.175428,1977.08 671.923428,1976.948 C672.231428,1976.948 672.385428,1977.102 672.385428,1977.366 C672.385428,1977.938 671.637428,1978.224 670.141428,1978.224 C669.921428,1978.224 669.723428,1978.18 669.569428,1978.136 C669.569428,1978.598 669.547428,1979.06 669.525428,1979.5 C670.625428,1979.192 671.681428,1978.95 672.649428,1978.73 C672.957428,1978.092 673.155428,1977.366 673.221428,1976.53 C673.221428,1976.178 673.111428,1975.958 672.913428,1975.914 C671.197428,1976.288 670.097428,1976.486 669.657428,1976.486 C668.821428,1976.486 668.403428,1976.398 668.381428,1976.222 C668.381428,1975.892 669.129428,1975.496 670.669428,1975.056 C671.615428,1974.748 672.473428,1974.594 673.221428,1974.594 Z M675.201428,1979.698 C675.993428,1979.786 676.455428,1980.138 676.543428,1980.754 C676.543428,1981.128 676.301428,1981.502 675.839428,1981.854 C675.377428,1982.206 674.959428,1982.426 674.585428,1982.536 L674.607428,1982.536 C676.587428,1983.658 677.577428,1984.538 677.577428,1985.154 C677.577428,1985.792 677.269428,1986.122 676.697428,1986.122 C676.235428,1986.034 675.113428,1985.132 673.331428,1983.416 C671.813428,1982.316 670.999428,1981.678 670.867428,1981.524 C670.867428,1981.238 670.977428,1981.084 671.219428,1981.084 C671.593428,1981.084 672.429428,1981.414 673.727428,1982.074 C674.453428,1981.326 674.827428,1980.776 674.827428,1980.468 C674.827428,1980.16 674.761428,1979.962 674.651428,1979.83 C674.695428,1979.742 674.871428,1979.698 675.201428,1979.698 Z M672.209428,1972.878 C672.891428,1972.878 673.243428,1973.032 673.243428,1973.34 C673.155428,1973.758 672.847428,1974.044 672.275428,1974.176 C672.077428,1974.198 671.835428,1974.242 671.549428,1974.286 C671.241428,1974.374 671.021428,1974.396 670.911428,1974.396 C669.943428,1974.308 669.459428,1974 669.437428,1973.472 C669.437428,1973.406 669.679428,1973.34 670.207428,1973.252 C671.175428,1973.032 671.835428,1972.922 672.209428,1972.878 Z M700.950856,1974.506 C701.764856,1974.638 702.182856,1975.1 702.182856,1975.914 C702.094856,1976.904 701.434856,1977.652 700.224856,1978.136 C699.960856,1978.136 699.828856,1978.07 699.828856,1977.938 C699.982856,1977.168 700.092856,1976.596 700.158856,1976.2 C700.158856,1975.936 700.048856,1975.804 699.828856,1975.804 C699.608856,1975.804 699.168856,1975.914 698.552856,1976.09 L698.552856,1978.312 C698.464856,1979.94 698.156856,1980.754 697.672856,1980.754 C697.276856,1980.754 697.078856,1980.028 697.056856,1978.554 C697.100856,1977.872 697.122856,1977.19 697.166856,1976.508 C696.682856,1976.684 696.154856,1976.86 695.626856,1977.036 C695.582856,1977.872 695.582856,1978.752 695.582856,1979.698 C695.736856,1981.722 696.880856,1982.712 699.036856,1982.712 C701.368856,1982.712 702.534856,1982.36 702.534856,1981.612 C702.534856,1981.348 702.512856,1981.084 702.512856,1980.864 C702.512856,1980.71 702.600856,1980.622 702.820856,1980.622 C703.568856,1980.864 704.008856,1981.37 704.140856,1982.118 C704.140856,1983.438 702.512856,1984.142 699.300856,1984.186 C696.000856,1984.186 694.306856,1982.734 694.262856,1979.786 C694.262856,1978.906 694.306856,1978.136 694.350856,1977.454 C694.108856,1977.498 693.888856,1977.52 693.690856,1977.52 C693.140856,1977.52 692.854856,1977.366 692.832856,1977.058 C692.832856,1976.948 693.360856,1976.684 694.416856,1976.288 C694.416856,1976.046 694.438856,1975.826 694.460856,1975.606 C694.460856,1974.682 694.306856,1974.11 694.042856,1973.846 C694.042856,1973.604 694.240856,1973.472 694.658856,1973.472 C695.362856,1973.472 695.736856,1973.934 695.736856,1974.836 C695.692856,1975.144 695.670856,1975.496 695.670856,1975.848 C695.736856,1975.826 695.802856,1975.804 695.890856,1975.76 C696.374856,1975.584 696.792856,1975.452 697.188856,1975.32 C697.210856,1974.616 697.232856,1973.912 697.232856,1973.208 C697.166856,1971.272 696.924856,1970.194 696.528856,1969.974 C696.770856,1969.512 697.144856,1969.27 697.650856,1969.27 C698.332856,1969.402 698.684856,1969.776 698.684856,1970.392 C698.552856,1970.7 698.508856,1971.162 698.508856,1971.756 C698.508856,1972.79 698.530856,1973.846 698.530856,1974.924 C699.564856,1974.66 700.378856,1974.506 700.950856,1974.506 Z M691.864856,1975.452 C692.238856,1975.452 692.436856,1975.628 692.436856,1975.958 C692.436856,1976.596 691.930856,1977.036 690.940856,1977.278 C690.874856,1978.114 690.830856,1978.818 690.786856,1979.412 C691.556856,1979.038 692.282856,1978.752 692.942856,1978.576 C693.250856,1978.576 693.404856,1978.708 693.404856,1978.928 C693.184856,1979.566 692.348856,1980.336 690.918856,1981.26 C689.862856,1981.92 688.938856,1982.294 688.102856,1982.338 C687.266856,1982.338 686.848856,1981.964 686.848856,1981.216 C686.848856,1980.996 686.936856,1980.886 687.134856,1980.886 C687.200856,1980.93 687.288856,1980.93 687.376856,1980.93 C688.256856,1980.622 688.960856,1980.336 689.532856,1980.072 C689.510856,1979.104 689.510856,1978.246 689.510856,1977.476 C689.114856,1977.52 688.718856,1977.52 688.278856,1977.52 C687.464856,1977.454 687.002856,1977.256 686.870856,1976.926 C686.892856,1976.926 686.936856,1976.882 687.024856,1976.816 C687.882856,1976.508 688.696856,1976.244 689.488856,1976.024 L689.488856,1973.296 C689.444856,1972.768 689.268856,1972.416 688.960856,1972.262 C689.224856,1971.866 689.620856,1971.668 690.104856,1971.668 C690.896856,1971.756 691.314856,1972.13 691.314856,1972.79 C691.226856,1973.846 691.138856,1974.792 691.072856,1975.628 C691.336856,1975.562 691.600856,1975.496 691.864856,1975.452 Z M717.240285,1978.972 C717.328285,1978.972 717.394285,1978.994 717.482285,1979.038 C717.658285,1978.95 717.878285,1978.862 718.186285,1978.774 C718.692285,1978.598 719.132285,1978.488 719.528285,1978.444 C720.386285,1978.532 720.848285,1978.862 720.892285,1979.412 C720.892285,1979.676 720.760285,1979.94 720.540285,1980.182 C720.474285,1980.27 720.430285,1980.314 720.408285,1980.358 C720.430285,1980.446 720.452285,1980.512 720.452285,1980.556 C720.408285,1980.776 720.232285,1980.908 719.968285,1980.93 C719.396285,1981.106 719.000285,1981.194 718.824285,1981.194 C718.648285,1981.194 718.516285,1981.194 718.428285,1981.172 C718.384285,1981.26 718.318285,1981.326 718.230285,1981.326 C717.988285,1981.326 717.746285,1981.216 717.482285,1980.974 C717.240285,1980.754 717.086285,1980.446 717.042285,1980.094 C717.042285,1979.39 717.108285,1979.016 717.240285,1978.972 Z M718.318285,1980.534 C718.538285,1980.468 718.780285,1980.402 719.066285,1980.314 C719.242285,1980.27 719.374285,1980.226 719.506285,1980.182 C719.506285,1980.116 719.528285,1980.028 719.572285,1979.918 C719.616285,1979.786 719.638285,1979.632 719.638285,1979.456 C719.638285,1979.324 719.594285,1979.236 719.528285,1979.236 C719.352285,1979.28 719.132285,1979.368 718.890285,1979.456 C718.692285,1979.61 718.494285,1979.676 718.318285,1979.676 C718.186285,1979.676 718.076285,1979.676 717.988285,1979.654 C717.988285,1979.698 718.010285,1979.742 718.032285,1979.742 C718.098285,1979.984 718.186285,1980.226 718.274285,1980.446 L718.318285,1980.534 Z M715.678285,1971.602 C715.854285,1971.602 716.030285,1971.712 716.184285,1971.888 C716.448285,1971.778 716.910285,1971.646 717.570285,1971.514 C718.582285,1971.272 719.440285,1971.14 720.166285,1971.118 C721.244285,1971.206 721.816285,1971.602 721.860285,1972.306 C721.860285,1972.614 721.706285,1972.922 721.420285,1973.186 C721.332285,1973.274 721.288285,1973.34 721.244285,1973.384 C721.266285,1973.45 721.288285,1973.516 721.288285,1973.582 C721.244285,1973.824 721.068285,1973.956 720.760285,1973.978 C720.276285,1974.066 719.836285,1974.154 719.440285,1974.22 C719.528285,1974.396 719.572285,1974.572 719.572285,1974.748 C719.528285,1974.88 719.484285,1975.012 719.440285,1975.1 C720.342285,1974.968 721.354285,1974.814 722.498285,1974.66 C723.136285,1974.66 723.466285,1974.858 723.466285,1975.232 C723.466285,1975.65 723.070285,1975.892 722.322285,1975.936 C719.946285,1976.2 717.636285,1976.508 715.436285,1976.86 C714.644285,1976.86 714.204285,1976.684 714.138285,1976.288 C714.138285,1976.068 715.436285,1975.76 718.032285,1975.32 L718.032285,1975.188 C717.988285,1974.88 717.922285,1974.638 717.790285,1974.484 C717.636285,1974.506 717.504285,1974.528 717.416285,1974.528 L717.174285,1974.528 C717.152285,1974.726 717.064285,1974.836 716.910285,1974.858 C716.602285,1974.858 716.316285,1974.66 716.008285,1974.264 C715.700285,1973.912 715.524285,1973.45 715.436285,1972.878 C715.436285,1972.086 715.502285,1971.668 715.678285,1971.602 Z M717.020285,1973.802 C717.438285,1973.67 718.076285,1973.538 718.912285,1973.362 C719.374285,1973.274 719.770285,1973.186 720.100285,1973.142 C720.100285,1973.054 720.144285,1972.966 720.210285,1972.878 C720.254285,1972.746 720.298285,1972.57 720.298285,1972.35 C720.276285,1972.174 720.232285,1972.064 720.188285,1972.064 C719.748285,1972.13 719.198285,1972.24 718.582285,1972.372 C718.098285,1972.57 717.592285,1972.658 717.108285,1972.658 C716.888285,1972.658 716.734285,1972.658 716.602285,1972.614 C716.690285,1972.966 716.800285,1973.296 716.932285,1973.604 C716.976285,1973.692 716.998285,1973.758 717.020285,1973.802 Z M721.046285,1976.816 C722.410285,1976.86 723.092285,1977.454 723.136285,1978.642 C723.136285,1980.182 722.982285,1981.304 722.718285,1981.964 C722.498285,1982.69 722.124285,1983.064 721.618285,1983.108 C721.156285,1983.108 720.848285,1982.91 720.672285,1982.47 C719.110285,1982.734 718.076285,1982.866 717.548285,1982.91 C717.306285,1982.91 717.130285,1982.91 716.998285,1982.866 C716.932285,1983.13 716.800285,1983.284 716.602285,1983.284 C716.272285,1983.284 715.942285,1982.866 715.612285,1982.03 C715.282285,1981.238 715.062285,1980.226 714.974285,1978.994 C714.974285,1978.202 715.040285,1977.762 715.216285,1977.696 C715.326285,1977.696 715.436285,1977.74 715.546285,1977.828 L715.568285,1977.806 C716.778285,1977.41 718.604285,1977.08 721.046285,1976.816 Z M716.954285,1982.118 C717.438285,1981.986 718.164285,1981.832 719.132285,1981.634 C719.924285,1981.458 720.584285,1981.37 721.090285,1981.348 C721.222285,1981.37 721.332285,1981.392 721.398285,1981.414 C721.618285,1981.084 721.728285,1980.336 721.772285,1979.148 C721.772285,1978.796 721.684285,1978.466 721.530285,1978.158 C721.464285,1977.96 721.244285,1977.85 720.892285,1977.85 C720.078285,1977.96 719.286285,1978.07 718.538285,1978.18 C718.230285,1978.268 717.878285,1978.356 717.438285,1978.4 C717.130285,1978.466 716.756285,1978.488 716.338285,1978.488 C716.206285,1978.488 716.118285,1978.466 716.030285,1978.444 C716.074285,1978.51 716.096285,1978.554 716.118285,1978.598 C716.250285,1979.39 716.426285,1980.182 716.646285,1980.974 C716.800285,1981.436 716.910285,1981.81 716.954285,1982.118 Z M721.970285,1969.204 C724.566285,1969.336 725.864285,1970.282 725.908285,1972.086 C725.908285,1972.504 725.886285,1975.848 725.842285,1982.14 C725.842285,1984.604 725.292285,1985.836 724.236285,1985.836 C723.862285,1985.77 723.532285,1985.528 723.246285,1985.132 C723.158285,1985 723.070285,1984.846 722.982285,1984.714 C722.938285,1984.736 722.894285,1984.736 722.872285,1984.736 C718.560285,1985 715.700285,1985.154 714.336285,1985.198 C714.028285,1985.198 713.764285,1985.176 713.566285,1985.132 C713.500285,1985.616 713.192285,1985.88 712.620285,1985.88 C712.180285,1985.792 711.960285,1984.208 711.938285,1981.106 C712.026285,1978.554 712.114285,1976.002 712.224285,1973.45 C712.224285,1972.658 712.202285,1972.196 712.180285,1972.042 C712.114285,1971.91 712.004285,1971.734 711.850285,1971.47 C711.850285,1971.25 711.960285,1971.14 712.180285,1971.14 C713.126285,1971.36 713.610285,1972.24 713.654285,1973.736 C713.566285,1975.848 713.478285,1977.96 713.412285,1980.072 C713.412285,1981.964 713.456285,1983.35 713.522285,1984.23 C714.490285,1984.076 716.184285,1983.878 718.626285,1983.636 C720.342285,1983.46 721.728285,1983.35 722.784285,1983.306 C723.312285,1983.372 723.620285,1983.57 723.686285,1983.9 C724.126285,1983.636 724.346285,1983.218 724.346285,1982.602 C724.390285,1981.216 724.412285,1978.906 724.412285,1975.672 L724.412285,1972.13 C724.412285,1970.942 723.422285,1970.326 721.442285,1970.326 C719.836285,1970.436 718.538285,1970.524 717.526285,1970.612 C716.470285,1970.766 715.326285,1970.92 714.094285,1971.074 C713.478285,1971.074 713.104285,1970.942 712.994285,1970.678 C713.962285,1970.084 716.954285,1969.6 721.970285,1969.204 Z" transform="translate(-640 -1968)"/>
</svg>
