<svg xmlns="http://www.w3.org/2000/svg" width="370" height="36" viewBox="0 0 370 36">
  <g fill="#E50012" fill-rule="evenodd">
    <path d="M197.684901,26.9830835 L204.328637,26.9830835 L204.328637,24.7988637 L197.684901,24.7988637 L197.684901,26.9830835 Z M193.322967,13.0287978 L208.323011,13.0287978 L208.323011,10.918578 L193.322967,10.918578 L193.322967,13.0287978 Z M208.323011,17.2850176 L208.323011,15.8050176 L193.322967,15.8050176 L193.322967,16.803611 L189.491231,17.2484242 L189.491231,17.8770176 L211.665209,17.8770176 L213.703055,16.433611 L208.323011,17.2850176 Z M215.496945,1.59132527 L219.369341,4.77413846 L217.575451,6.44035824 L210.727604,6.44035824 L215.904352,10.030578 L214.437363,11.214578 L214.437363,15.915611 L214.477209,15.8782044 L219.980857,19.5798308 L218.227626,21.1712374 L218.227626,30.7953033 C218.227626,33.4967099 216.923275,34.8669297 214.355231,34.8669297 L210.890242,34.8669297 C210.890242,32.6461165 209.504571,31.5718967 206.733231,31.5718967 L206.77389,30.4244901 L204.328637,30.7953033 L204.328637,29.6104901 L197.684088,29.6104901 L197.684088,30.9807099 L191.936484,31.6467099 L191.936484,20.7638308 L197.684088,21.3940505 L197.684088,22.2080505 L204.491275,22.2080505 L206.243692,20.7638308 L211.339121,24.2800505 L209.912791,25.3542703 L209.912791,29.1664901 C210.401516,29.1664901 210.890242,29.1290835 211.339121,29.1290835 C211.909978,29.1290835 212.195407,28.7590835 212.195407,28.0190835 L212.195407,20.6898308 L189.491231,20.6898308 L189.491231,34.3855231 L183.54033,35.0523363 L183.54033,15.9522044 L187.249275,16.3222044 L187.249275,6.58835824 L193.322967,7.21695165 L193.322967,8.06835824 L208.526308,8.06835824 L210.156747,6.44035824 L183.010132,6.44035824 L182.194505,3.55273187 L197.846725,3.55273187 L197.846725,0.258512088 L204.695385,1.03591868 L204.695385,3.55273187 L213.091538,3.55273187 L215.496945,1.59132527 Z"/>
    <path d="M242.763912,30.6473033 L245.372615,30.6473033 L245.372615,25.0216769 L242.763912,25.0216769 L242.763912,30.6473033 Z M242.763912,22.2080505 L245.372615,22.2080505 L245.372615,16.803611 L242.763912,16.803611 L242.763912,22.2080505 Z M242.763912,14.0282044 L245.372615,14.0282044 L245.372615,8.91976484 L242.763912,8.91976484 L242.763912,14.0282044 Z M233.83756,5.25554505 L237.220418,8.03176484 C237.831934,5.66295165 238.320659,3.10873187 238.687407,0.406512088 L244.67978,1.33273187 C244.353692,3.03473187 243.946286,4.66273187 243.497407,6.14435824 L245.943473,6.14435824 L246.881077,0.739918681 L252.791319,1.59132527 L250.223275,6.14435824 L250.998242,6.14435824 L253.321516,4.18213846 L257.193099,7.29176484 L255.359363,8.91976484 L250.875451,8.91976484 L250.875451,14.0282044 L251.282857,14.0282044 L253.362176,12.4733912 L256.826352,15.249611 L255.195912,16.803611 L250.875451,16.803611 L250.875451,22.2080505 L250.998242,22.2080505 L253.198725,20.468644 L256.826352,23.3928637 L255.114593,25.0216769 L250.875451,25.0216769 L250.875451,30.6473033 L251.038088,30.6473033 L253.443495,28.6118967 L257.437868,31.7947099 L255.562659,33.4235231 L242.763912,33.4235231 L242.763912,34.5709297 L237.09844,35.1621165 L237.09844,30.7578967 L233.103253,33.2381165 C232.940615,32.3493033 232.777165,31.5353033 232.614527,30.7953033 C228.823451,31.9793033 225.195824,32.9795231 221.690989,33.8309297 L220.997341,28.5370835 C221.812967,28.5370835 222.62778,28.5004901 223.402747,28.4264901 C225.929319,23.2440505 227.845187,17.913611 229.06822,12.4359846 L234.652374,13.3622044 C233.756242,16.6922044 232.533209,19.6172374 230.984088,22.1340505 C229.965165,24.3174571 228.823451,26.3162703 227.519912,28.0930835 C229.108879,27.9450835 230.536022,27.7604901 231.758242,27.5002703 C231.391495,26.3162703 231.024747,25.2428637 230.698659,24.2442703 L233.266703,22.7260505 C234.774352,24.8728637 236.038857,27.1302703 237.09844,29.4633033 L237.09844,18.4324242 C236.527582,19.0984242 235.916066,19.7278308 235.304549,20.3198308 L233.47,17.9884242 C234.937802,15.249611 236.120176,12.1773912 237.05778,8.69776484 L235.753429,9.77117143 L229.06822,9.77117143 C226.826264,17.3590176 224.21756,22.9854571 221.282769,26.6496769 L219.000154,25.2428637 C220.059736,22.9480505 221.201451,19.3212374 222.42367,14.3607978 C222.791231,12.8807978 223.117319,11.3259846 223.443407,9.77117143 L219.814967,9.77117143 L219.040813,7.10635824 L223.972791,7.10635824 C224.339538,4.95954505 224.66644,2.77532527 224.992527,0.517918681 L231.147538,1.44251209 C230.698659,3.44132527 230.24978,5.32954505 229.801714,7.10635824 L231.717582,7.10635824 L233.83756,5.25554505 Z"/>
    <path d="M284.378747,10.104578 L287.23222,10.104578 L287.23222,7.21695165 L284.378747,7.21695165 L284.378747,10.104578 Z M284.378747,14.6202044 C284.338088,15.2862044 284.297429,15.841611 284.21611,16.285611 L287.23222,16.285611 L287.23222,12.8059846 L284.378747,12.8059846 L284.378747,14.6202044 Z M279.120681,16.285611 C279.283319,15.619611 279.364637,14.953611 279.364637,14.2502044 L279.364637,12.8059846 L276.919385,12.8059846 L276.919385,16.285611 L279.120681,16.285611 Z M276.919385,10.104578 L279.364637,10.104578 L279.364637,7.21695165 L276.919385,7.21695165 L276.919385,10.104578 Z M281.036549,21.8380505 C279.40611,23.2440505 277.164154,24.2800505 274.229363,24.9468637 L281.403297,24.9468637 L281.403297,21.4672374 C281.240659,21.6152374 281.117868,21.7640505 281.036549,21.8380505 L281.036549,21.8380505 Z M276.919385,3.51532527 L276.919385,4.62695165 L277.735011,4.62695165 C278.142418,3.25673187 278.509165,1.77673187 278.835253,0.221918681 L285.683099,1.47991868 C284.623516,2.70132527 283.563934,3.73813846 282.584857,4.62695165 L286.742681,4.62695165 L289.392044,2.44273187 L294.487473,6.03295165 L292.775714,7.51295165 L292.775714,19.5424242 L287.23222,20.172644 L287.23222,18.9878308 L283.278505,18.9878308 C283.033736,19.5058308 282.748308,19.9124242 282.503538,20.246644 L287.762418,20.8012374 L287.762418,24.9468637 L288.739868,24.9468637 L291.022484,22.8374571 L295.016857,26.0942703 L293.101802,27.6116769 L287.762418,27.6116769 L287.762418,34.4595231 L281.403297,35.1995231 L281.403297,27.6116769 L270.561077,27.6116769 L269.78611,24.9468637 L272.558264,24.9468637 L271.294571,23.132644 C273.821956,22.2812374 275.696352,21.2452374 276.960044,20.0238308 C277.286132,19.6912374 277.61222,19.3578308 277.856989,18.9878308 L276.919385,18.9878308 L276.919385,20.0238308 L271.457209,20.6540505 L271.457209,2.92413846 L276.919385,3.51532527 Z M262.652835,24.6874571 L264.323934,24.6874571 L264.323934,6.81035824 L262.652835,6.81035824 L262.652835,24.6874571 Z M262.652835,2.84932527 L262.652835,3.77554505 L264.284088,3.77554505 L266.117824,1.99791868 L271.172593,5.32954505 L269.623473,6.73554505 L269.623473,29.8333033 L264.323934,30.3138967 L264.323934,27.7230835 L262.652835,27.7230835 L262.652835,31.0904901 L257.313451,31.6833033 L257.313451,2.25732527 L262.652835,2.84932527 Z"/>
    <path d="M322.529407,15.9158549 C322.529407,16.3972615 322.814835,16.6184484 323.426352,16.6184484 L323.996396,16.6184484 L323.996396,11.214822 L322.529407,11.214822 L322.529407,15.9158549 Z M316.945253,8.5126022 L318.208945,8.5126022 L318.208945,4.77356923 L316.945253,4.77356923 L316.945253,8.5126022 Z M311.035011,29.8335473 L323.996396,29.8335473 L323.996396,26.1319209 L311.035011,26.1319209 L311.035011,29.8335473 Z M312.665451,14.5090418 L312.665451,11.214822 L311.035011,11.214822 L311.035011,19.9126681 C312.094593,18.2846681 312.665451,16.5078549 312.665451,14.5090418 L312.665451,14.5090418 Z M323.996396,23.4662945 L323.996396,20.6534813 L321.061604,20.6534813 C319.145736,20.6534813 318.208945,19.5800747 318.208945,17.4332615 L318.208945,11.214822 L316.945253,11.214822 L316.945253,13.9170418 C316.945253,17.3958549 315.436791,20.2834813 312.420681,22.5042945 L311.035011,21.4674813 L311.035011,23.4662945 L323.996396,23.4662945 Z M304.47178,5.10778901 L299.988681,9.29082198 C298.68433,6.4771956 297.297846,4.14497582 295.830857,2.36897582 L298.032154,0.517349451 C300.722176,2.07297582 302.882,3.59038242 304.47178,5.10778901 L304.47178,5.10778901 Z M305.287407,11.5482286 L305.287407,6.51378901 L311.035011,7.1066022 L311.035011,8.5126022 L312.665451,8.5126022 L312.665451,4.77438242 L304.390462,4.77438242 L303.575648,2.10875604 L326.075714,2.10875604 L328.35833,0.000162637363 L332.352703,3.22038242 L330.436835,4.77438242 L322.529407,4.77438242 L322.529407,8.5126022 L323.793099,8.5126022 L326.52378,6.4031956 L331.781846,10.0674154 L329.94811,11.6222286 L329.94811,34.2369538 L323.996396,34.903767 L323.996396,32.4983604 L311.035011,32.4983604 L311.035011,34.6069538 L305.287407,35.273767 L305.287407,13.7316352 L300.151319,25.3537011 C301.65978,26.7605143 303.24956,28.6479209 304.961319,31.0167341 L298.929099,35.273767 C298.113473,31.3501407 296.809121,27.9453275 295.016044,25.0577011 L304.023714,10.992822 L305.287407,11.5482286 Z M302.393275,12.8810418 L297.991495,16.9152615 C296.64567,14.2496352 295.219341,12.0662286 293.751538,10.3634154 L296.156945,8.32800879 C298.765648,9.84541538 300.844154,11.362822 302.393275,12.8810418 L302.393275,12.8810418 Z"/>
    <path d="M361.005259,26.7240022 C361.534644,26.7240022 361.820886,26.3905956 361.820886,25.7245956 L361.820886,14.9897165 L358.518534,14.9897165 L358.518534,26.649189 C359.37482,26.7240022 360.189633,26.7240022 361.005259,26.7240022 L361.005259,26.7240022 Z M344.13082,27.7965956 C343.477831,27.1305956 342.826468,26.5020022 342.214952,25.909189 L344.13082,24.3177824 C344.374776,24.429189 344.578886,24.5397824 344.782182,24.6137824 L344.782182,23.2443758 L339.809545,23.2443758 L339.809545,28.4268154 C341.439985,28.2414088 342.866314,28.0194088 344.13082,27.7965956 L344.13082,27.7965956 Z M339.809545,20.542156 L344.782182,20.542156 L344.782182,19.0613429 L339.809545,19.0613429 L339.809545,20.542156 Z M339.809545,16.5079363 L344.782182,16.5079363 L344.782182,15.0279363 L339.809545,15.0279363 L339.809545,16.5079363 Z M365.773787,2.47965055 L369.484358,5.44046374 L367.731127,6.92127692 L361.290688,6.92127692 C362.59504,7.69868352 363.735941,8.47609011 364.715018,9.21609011 L359.864358,12.1769033 C358.926754,10.6220901 357.826512,9.14209011 356.56282,7.73527692 C355.502424,8.84609011 354.402182,9.80809011 353.3426,10.6220901 L358.518534,11.1409033 L358.518534,12.3249033 L361.372007,12.3249033 L364.062842,9.9934967 L369.280248,13.5471231 L367.649809,15.0645297 L367.649809,28.2414088 C367.649809,30.758222 366.385303,32.0170352 363.858732,32.0170352 L360.434402,32.0170352 C360.434402,30.7208154 359.78304,29.8328154 358.518534,29.3880022 L358.518534,34.3858484 L352.404996,35.0884418 L352.404996,30.018222 L348.5326,33.6084418 C347.717787,32.2756286 346.90216,31.128222 346.086534,30.092222 C342.663018,31.9056286 338.464534,33.4596286 333.491897,34.7558484 L331.535369,29.2034088 C332.350182,29.1294088 333.206468,29.0928154 334.021281,29.0180022 L334.021281,11.0294967 L331.616688,9.80809011 C334.592138,6.81068352 336.589325,3.66446374 337.648908,0.370243956 L343.804732,2.03565055 C343.274534,2.88705714 342.744336,3.66446374 342.214952,4.33046374 L345.883237,4.33046374 L348.125193,2.44305714 L351.874798,5.44046374 L350.12238,6.92127692 L343.844578,6.92127692 C345.067611,7.73527692 346.128007,8.51268352 347.024138,9.2534967 L342.051501,12.2883099 C341.235875,10.6220901 340.299084,9.10468352 339.238688,7.73527692 C338.015655,8.95668352 336.752776,9.9934967 335.448424,10.8449033 L339.809545,11.2889033 L339.809545,12.3623099 L344.252798,12.3623099 L346.983479,10.1414967 L352.200886,13.8057165 L350.407809,15.3231231 L350.407809,24.059189 L344.904974,24.6877824 C347.921084,26.131189 350.448468,27.5380022 352.404996,28.9440022 L352.404996,11.2523099 L349.429545,9.73409011 C352.078908,6.73587033 353.872798,3.59046374 354.76893,0.295430769 L360.883281,1.96165055 C360.353084,2.84965055 359.822886,3.62705714 359.33416,4.33046374 L363.573303,4.33046374 L365.773787,2.47965055 Z"/>
    <polygon points="66.806 27.127 66.806 4.588 57.904 4.588 57.904 33.047 60.307 33.047 66.806 33.047 73.629 33.047 73.629 27.127"/>
    <polygon points="52.372 10.345 52.407 4.588 36.847 4.607 36.847 33.064 39.053 33.064 45.708 33.064 52.372 33.064 52.372 27.148 45.708 27.148 45.708 21.674 52.372 21.674 52.372 15.78 45.708 15.78 45.708 10.345"/>
    <polygon points="91.794 10.333 91.794 4.588 76.235 4.588 76.235 33.048 78.461 33.048 85.132 33.048 91.794 33.048 91.794 27.126 85.132 27.126 85.132 21.674 91.794 21.674 91.794 15.755 85.132 15.755 85.132 10.333"/>
    <polygon points="135.383 10.333 135.36 4.608 119.833 4.588 119.833 33.048 122.077 33.048 128.714 33.048 135.383 33.048 135.383 27.126 128.714 27.126 128.714 21.674 135.383 21.674 135.383 15.755 128.714 15.755 128.714 10.333"/>
    <polygon points="23.451 21.771 32.568 21.771 32.568 15.854 23.451 15.854"/>
    <path d="M16.2239714,4.58767473 L8.13186813e-05,4.58767473 L8.13186813e-05,11.2468615 L9.00368571,11.2338505 C9.00368571,11.2338505 10.9959934,7.00527912 16.2239714,4.58767473"/>
    <path d="M14.0909824,24.7203912 L14.0909824,33.512567 L6.29252088,33.512567 L6.29252088,26.1190725 C6.29252088,26.1190725 6.29252088,25.9328527 6.30390549,25.611644 C6.34375165,21.6741934 8.07096044,6.44645714 21.1266747,4.13212747 L21.1250484,12.0371165 C21.1250484,12.0371165 14.8407407,12.7454022 14.0909824,24.7203912"/>
    <polygon points="116.361 4.773 110.163 4.773 106.606 24.732 103.484 4.773 95.164 4.804 99.594 32.848 107.897 32.848 107.887 32.839 111.878 32.811"/>
    <path d="M155.317462 4.17311209C151.53289 4.39511209 148.953462 6.45898022 148.953462 6.45898022L148.953462 4.89115604 140.064516 4.89115604 140.064516 33.4828044 148.953462 33.4828044 148.953462 12.7457275 148.953462 12.5725187C149.104714 11.2340132 153.059242 9.5555956 153.161703 13.4832879L153.161703 33.4828044 162.065286 33.4828044 162.065286 8.52691429C161.982341 5.96456264 158.815791 3.92265055 155.317462 4.17311209M165.303233 32.0025604L166.051365 32.0025604 166.051365 30.2940549 166.64987 30.2940549C167.084925 30.2940549 167.368727 30.3306484 167.536244 30.4412418 167.788332 30.6144505 167.937145 30.9275275 167.937145 31.4211319L167.937145 31.7789341 167.937145 31.9196154 167.937145 31.9732857 167.937145 32.0025604 168.679585 32.0025604 168.640552 31.9732857C168.640552 31.9196154 168.640552 31.8277253 168.630793 31.7203846L168.630793 31.4211319 168.630793 31.082033C168.630793 30.8706044 168.548662 30.6388462 168.375453 30.4168462 168.190859 30.1956593 167.937145 30.0574176 167.619189 29.9948022 167.887541 29.9508901 168.110354 29.8955934 168.265673 29.758978 168.548662 29.5808901 168.679585 29.3035934 168.679585 28.9026923 168.679585 28.3741209 168.451892 28.0073736 168.013585 27.7910659 167.759057 27.7203187 167.368727 27.6495714 166.814134 27.6495714L165.303233 27.6495714 165.303233 32.0025604zM167.4842 29.6443187C167.28009 29.7199451 167.084925 29.758978 166.780793 29.758978L166.051365 29.758978 166.051365 28.1911538 166.711673 28.1911538C167.135343 28.1911538 167.449233 28.252956 167.677738 28.3586703 167.8542 28.4651978 167.937145 28.6628022 167.937145 28.9791319 167.937145 29.3296154 167.788332 29.5320989 167.4842 29.6443187L167.4842 29.6443187zM169.47976 27.290956C168.759277 26.581044 167.915189 26.2175495 166.919848 26.2175495 165.900112 26.2175495 165.063343 26.581044 164.360749 27.290956 163.621563 27.9748462 163.267013 28.8408901 163.267013 29.8533077 163.267013 30.8543407 163.621563 31.7146923 164.324969 32.422978 165.036508 33.1320769 165.900112 33.5118352 166.919848 33.5118352 167.915189 33.5118352 168.759277 33.1320769 169.47976 32.422978 170.191299 31.7146923 170.533651 30.8543407 170.533651 29.8533077 170.533651 28.8408901 170.191299 27.9748462 169.47976 27.290956L169.47976 27.290956zM169.108134 27.6186703C169.705826 28.252956 170.027848 28.9791319 170.027848 29.8533077 170.027848 30.7266703 169.705826 31.452033 169.108134 32.0594835 168.503123 32.6888901 167.759057 32.9596813 166.919848 32.9596813 166.021277 32.9596813 165.303233 32.6888901 164.686837 32.0594835 164.089145 31.452033 163.794771 30.7266703 163.794771 29.8533077 163.794771 28.9791319 164.089145 28.252956 164.686837 27.6186703 165.303233 27.0291099 166.051365 26.7331099 166.919848 26.7331099 167.759057 26.7331099 168.503123 27.0291099 169.108134 27.6186703L169.108134 27.6186703z"/>
  </g>
</svg>
