<svg xmlns="http://www.w3.org/2000/svg" width="88" height="19" viewBox="0 0 88 19">
  <path fill="#4A4A4A" fill-rule="evenodd" d="M647.8,2 C646.28,2 645.02,2.34 644.02,3.02 C642.96,3.74 642.44,4.72 642.44,5.98 C642.44,7.22 642.98,8.18 644.08,8.84 C644.52,9.08 645.6,9.46 647.36,10.02 C648.94,10.5 649.88,10.82 650.2,10.98 C651.1,11.44 651.56,12.06 651.56,12.86 C651.56,13.5 651.24,14 650.6,14.36 C649.96,14.72 649.1,14.92 648.02,14.92 C646.82,14.92 645.94,14.7 645.36,14.26 C644.72,13.78 644.32,12.96 644.16,11.84 L642,11.84 C642.12,13.64 642.76,14.96 643.94,15.8 C644.92,16.48 646.28,16.84 648.02,16.84 C649.82,16.84 651.22,16.48 652.22,15.76 C653.22,15.02 653.72,14.02 653.72,12.74 C653.72,11.42 653.1,10.4 651.88,9.66 C651.32,9.32 650.06,8.86 648.14,8.26 C646.8,7.86 645.98,7.56 645.66,7.38 C644.94,7 644.6,6.5 644.6,5.86 C644.6,5.14 644.9,4.62 645.52,4.3 C646.02,4.02 646.74,3.88 647.68,3.88 C648.76,3.88 649.56,4.08 650.12,4.5 C650.68,4.9 651.04,5.58 651.24,6.5 L653.4,6.5 C653.26,4.94 652.7,3.8 651.7,3.06 C650.76,2.34 649.46,2 647.8,2 Z M659.92,5.94 C661.6,5.94 662.9,6.5 663.78,7.66 C664.58,8.7 665,10.14 665.02,11.98 L657.18,11.98 C657.26,12.98 657.52,13.76 658,14.3 C658.48,14.82 659.14,15.1 659.98,15.1 C660.72,15.1 661.32,14.92 661.78,14.58 C662.14,14.3 662.44,13.84 662.72,13.24 L664.84,13.24 C664.6,14.2 664.14,15.02 663.42,15.66 C662.52,16.44 661.38,16.84 660,16.84 C658.48,16.84 657.26,16.36 656.38,15.42 C655.42,14.42 654.94,13.08 654.94,11.38 C654.94,9.84 655.38,8.56 656.3,7.52 C657.18,6.46 658.4,5.94 659.92,5.94 Z M659.98,7.68 C659.18,7.68 658.56,7.9 658.08,8.38 C657.64,8.84 657.34,9.5 657.22,10.38 L662.8,10.38 C662.6,8.58 661.66,7.68 659.98,7.68 Z M671.48,5.94 C673,5.94 674.12,6.32 674.84,7.08 C675.46,7.74 675.78,8.7 675.78,9.96 L675.78,16.56 L673.82,16.56 L673.82,15.1 C673.42,15.62 672.92,16.04 672.32,16.34 C671.64,16.66 670.84,16.84 669.92,16.84 C668.84,16.84 668,16.56 667.4,16.02 C666.74,15.48 666.42,14.78 666.42,13.92 C666.42,12.76 666.88,11.86 667.8,11.24 C668.64,10.64 669.84,10.34 671.36,10.3 L673.68,10.24 L673.68,9.82 C673.68,8.38 672.9,7.66 671.34,7.66 C670.68,7.66 670.14,7.78 669.74,8.02 C669.26,8.3 668.96,8.72 668.84,9.3 L666.74,9.12 C666.96,8 667.52,7.16 668.4,6.64 C669.16,6.16 670.2,5.94 671.48,5.94 Z M673.68,11.78 L671.5,11.84 C669.56,11.88 668.6,12.56 668.6,13.84 C668.6,14.24 668.76,14.56 669.1,14.82 C669.42,15.08 669.86,15.22 670.4,15.22 C671.3,15.22 672.06,14.94 672.7,14.4 C673.34,13.86 673.68,13.18 673.68,12.38 L673.68,11.78 Z M683,5.94 C682.36,5.94 681.8,6.12 681.32,6.52 C680.92,6.8 680.58,7.22 680.32,7.78 L680.32,6.22 L678.2,6.22 L678.2,16.56 L680.32,16.56 L680.32,11.08 C680.32,10.18 680.58,9.44 681.12,8.88 C681.62,8.36 682.2,8.1 682.84,8.1 C683.32,8.1 683.82,8.16 684.34,8.32 L684.34,6.2 C683.98,6.02 683.52,5.94 683,5.94 Z M690.24,5.94 C688.64,5.94 687.4,6.48 686.5,7.56 C685.66,8.56 685.24,9.84 685.24,11.4 C685.24,13 685.66,14.28 686.52,15.28 C687.4,16.32 688.62,16.84 690.2,16.84 C691.52,16.84 692.6,16.5 693.4,15.84 C694.2,15.16 694.74,14.12 694.98,12.74 L692.88,12.74 C692.68,14.3 691.8,15.1 690.22,15.1 C689.3,15.1 688.62,14.76 688.16,14.12 C687.66,13.46 687.42,12.54 687.42,11.38 C687.42,10.22 687.66,9.3 688.18,8.66 C688.68,8 689.36,7.68 690.24,7.68 C690.96,7.68 691.54,7.84 691.98,8.18 C692.42,8.5 692.7,9.02 692.84,9.72 L694.94,9.72 C694.74,8.44 694.22,7.48 693.42,6.84 C692.62,6.24 691.56,5.94 690.24,5.94 Z M696.8,2 L696.8,16.56 L698.92,16.56 L698.92,10.76 C698.92,9.86 699.14,9.12 699.6,8.54 C700.04,7.96 700.62,7.68 701.34,7.68 C702.14,7.68 702.76,7.92 703.16,8.42 C703.52,8.9 703.72,9.58 703.72,10.5 L703.72,16.56 L705.84,16.56 L705.84,10.14 C705.84,8.78 705.54,7.74 704.94,7.04 C704.3,6.3 703.36,5.94 702.12,5.94 C701.46,5.94 700.88,6.06 700.36,6.34 C699.78,6.62 699.3,7.08 698.92,7.68 L698.92,2 L696.8,2 Z" transform="translate(-630)"/>
</svg>
