<svg xmlns="http://www.w3.org/2000/svg" width="88" height="19" viewBox="0 0 88 19">
  <path fill="#4A4A4A" fill-rule="evenodd" d="M244.8,2 C243.28,2 242.02,2.34 241.02,3.02 C239.96,3.74 239.44,4.72 239.44,5.98 C239.44,7.22 239.98,8.18 241.08,8.84 C241.52,9.08 242.6,9.46 244.36,10.02 C245.94,10.5 246.88,10.82 247.2,10.98 C248.1,11.44 248.56,12.06 248.56,12.86 C248.56,13.5 248.24,14 247.6,14.36 C246.96,14.72 246.1,14.92 245.02,14.92 C243.82,14.92 242.94,14.7 242.36,14.26 C241.72,13.78 241.32,12.96 241.16,11.84 L239,11.84 C239.12,13.64 239.76,14.96 240.94,15.8 C241.92,16.48 243.28,16.84 245.02,16.84 C246.82,16.84 248.22,16.48 249.22,15.76 C250.22,15.02 250.72,14.02 250.72,12.74 C250.72,11.42 250.1,10.4 248.88,9.66 C248.32,9.32 247.06,8.86 245.14,8.26 C243.8,7.86 242.98,7.56 242.66,7.38 C241.94,7 241.6,6.5 241.6,5.86 C241.6,5.14 241.9,4.62 242.52,4.3 C243.02,4.02 243.74,3.88 244.68,3.88 C245.76,3.88 246.56,4.08 247.12,4.5 C247.68,4.9 248.04,5.58 248.24,6.5 L250.4,6.5 C250.26,4.94 249.7,3.8 248.7,3.06 C247.76,2.34 246.46,2 244.8,2 Z M256.92,5.94 C258.6,5.94 259.9,6.5 260.78,7.66 C261.58,8.7 262,10.14 262.02,11.98 L254.18,11.98 C254.26,12.98 254.52,13.76 255,14.3 C255.48,14.82 256.14,15.1 256.98,15.1 C257.72,15.1 258.32,14.92 258.78,14.58 C259.14,14.3 259.44,13.84 259.72,13.24 L261.84,13.24 C261.6,14.2 261.14,15.02 260.42,15.66 C259.52,16.44 258.38,16.84 257,16.84 C255.48,16.84 254.26,16.36 253.38,15.42 C252.42,14.42 251.94,13.08 251.94,11.38 C251.94,9.84 252.38,8.56 253.3,7.52 C254.18,6.46 255.4,5.94 256.92,5.94 Z M256.98,7.68 C256.18,7.68 255.56,7.9 255.08,8.38 C254.64,8.84 254.34,9.5 254.22,10.38 L259.8,10.38 C259.6,8.58 258.66,7.68 256.98,7.68 Z M264.06,2 L264.06,16.56 L266.18,16.56 L266.18,2 L264.06,2 Z M273.2,5.94 C274.88,5.94 276.18,6.5 277.06,7.66 C277.86,8.7 278.28,10.14 278.3,11.98 L270.46,11.98 C270.54,12.98 270.8,13.76 271.28,14.3 C271.76,14.82 272.42,15.1 273.26,15.1 C274,15.1 274.6,14.92 275.06,14.58 C275.42,14.3 275.72,13.84 276,13.24 L278.12,13.24 C277.88,14.2 277.42,15.02 276.7,15.66 C275.8,16.44 274.66,16.84 273.28,16.84 C271.76,16.84 270.54,16.36 269.66,15.42 C268.7,14.42 268.22,13.08 268.22,11.38 C268.22,9.84 268.66,8.56 269.58,7.52 C270.46,6.46 271.68,5.94 273.2,5.94 Z M273.26,7.68 C272.46,7.68 271.84,7.9 271.36,8.38 C270.92,8.84 270.62,9.5 270.5,10.38 L276.08,10.38 C275.88,8.58 274.94,7.68 273.26,7.68 Z M284.7,5.94 C283.1,5.94 281.86,6.48 280.96,7.56 C280.12,8.56 279.7,9.84 279.7,11.4 C279.7,13 280.12,14.28 280.98,15.28 C281.86,16.32 283.08,16.84 284.66,16.84 C285.98,16.84 287.06,16.5 287.86,15.84 C288.66,15.16 289.2,14.12 289.44,12.74 L287.34,12.74 C287.14,14.3 286.26,15.1 284.68,15.1 C283.76,15.1 283.08,14.76 282.62,14.12 C282.12,13.46 281.88,12.54 281.88,11.38 C281.88,10.22 282.12,9.3 282.64,8.66 C283.14,8 283.82,7.68 284.7,7.68 C285.42,7.68 286,7.84 286.44,8.18 C286.88,8.5 287.16,9.02 287.3,9.72 L289.4,9.72 C289.2,8.44 288.68,7.48 287.88,6.84 C287.08,6.24 286.02,5.94 284.7,5.94 Z M294.4,2.88 L292.28,3.76 L292.28,6.22 L290.36,6.22 L290.36,7.98 L292.28,7.98 L292.28,13.98 C292.28,14.8 292.46,15.42 292.86,15.86 C293.26,16.32 293.92,16.56 294.8,16.56 L296.5,16.56 L296.5,14.8 L295.14,14.8 C294.88,14.8 294.7,14.72 294.58,14.6 C294.46,14.46 294.4,14.26 294.4,13.98 L294.4,7.98 L296.76,7.98 L296.76,6.22 L294.4,6.22 L294.4,2.88 Z M299.96,2.08 C299.54,2.08 299.2,2.2 298.92,2.48 C298.64,2.74 298.5,3.08 298.5,3.5 C298.5,3.9 298.64,4.26 298.92,4.54 C299.2,4.8 299.54,4.94 299.96,4.94 C300.36,4.94 300.72,4.8 301,4.54 C301.28,4.26 301.44,3.92 301.44,3.5 C301.44,3.08 301.3,2.74 301.02,2.48 C300.74,2.2 300.38,2.08 299.96,2.08 Z M298.9,6.22 L298.9,16.56 L301.02,16.56 L301.02,6.22 L298.9,6.22 Z M308.64,5.94 C310.2,5.94 311.46,6.46 312.4,7.5 C313.32,8.52 313.8,9.82 313.8,11.4 C313.8,12.96 313.34,14.26 312.42,15.26 C311.46,16.3 310.2,16.84 308.64,16.84 C307.08,16.84 305.82,16.3 304.86,15.26 C303.94,14.26 303.48,12.96 303.48,11.4 C303.48,9.82 303.94,8.52 304.88,7.5 C305.82,6.46 307.08,5.94 308.64,5.94 Z M308.64,7.68 C307.66,7.68 306.9,8.06 306.36,8.84 C305.88,9.5 305.66,10.36 305.66,11.4 C305.66,12.44 305.88,13.28 306.36,13.94 C306.9,14.7 307.66,15.1 308.64,15.1 C309.62,15.1 310.38,14.7 310.94,13.94 C311.42,13.26 311.66,12.42 311.66,11.4 C311.66,10.36 311.42,9.5 310.94,8.84 C310.38,8.06 309.62,7.68 308.64,7.68 Z M321.06,5.94 C320.42,5.94 319.84,6.06 319.32,6.34 C318.8,6.6 318.34,6.98 317.94,7.5 L317.94,6.22 L315.82,6.22 L315.82,16.56 L317.94,16.56 L317.94,10.34 C318.02,9.5 318.32,8.84 318.8,8.36 C319.24,7.92 319.78,7.72 320.38,7.72 C321.98,7.72 322.8,8.6 322.8,10.36 L322.8,16.56 L324.92,16.56 L324.92,10.18 C324.92,7.34 323.62,5.94 321.06,5.94 Z" transform="translate(-238)"/>
</svg>
