<svg xmlns="http://www.w3.org/2000/svg" width="88" height="19" viewBox="0 0 88 19">
  <path fill="#4A4A4A" fill-rule="evenodd" d="M109,2.28 L109,16.56 L111.16,16.56 L111.16,2.28 L109,2.28 Z M119.04,5.94 C118.4,5.94 117.82,6.06 117.3,6.34 C116.78,6.6 116.32,6.98 115.92,7.5 L115.92,6.22 L113.8,6.22 L113.8,16.56 L115.92,16.56 L115.92,10.34 C116,9.5 116.3,8.84 116.78,8.36 C117.22,7.92 117.76,7.72 118.36,7.72 C119.96,7.72 120.78,8.6 120.78,10.36 L120.78,16.56 L122.9,16.56 L122.9,10.18 C122.9,7.34 121.6,5.94 119.04,5.94 Z M128.46,2.88 L126.34,3.76 L126.34,6.22 L124.42,6.22 L124.42,7.98 L126.34,7.98 L126.34,13.98 C126.34,14.8 126.52,15.42 126.92,15.86 C127.32,16.32 127.98,16.56 128.86,16.56 L130.56,16.56 L130.56,14.8 L129.2,14.8 C128.94,14.8 128.76,14.72 128.64,14.6 C128.52,14.46 128.46,14.26 128.46,13.98 L128.46,7.98 L130.82,7.98 L130.82,6.22 L128.46,6.22 L128.46,2.88 Z M137.32,5.94 C136.68,5.94 136.12,6.12 135.64,6.52 C135.24,6.8 134.9,7.22 134.64,7.78 L134.64,6.22 L132.52,6.22 L132.52,16.56 L134.64,16.56 L134.64,11.08 C134.64,10.18 134.9,9.44 135.44,8.88 C135.94,8.36 136.52,8.1 137.16,8.1 C137.64,8.1 138.14,8.16 138.66,8.32 L138.66,6.2 C138.3,6.02 137.84,5.94 137.32,5.94 Z M144.72,5.94 C146.28,5.94 147.54,6.46 148.48,7.5 C149.4,8.52 149.88,9.82 149.88,11.4 C149.88,12.96 149.42,14.26 148.5,15.26 C147.54,16.3 146.28,16.84 144.72,16.84 C143.16,16.84 141.9,16.3 140.94,15.26 C140.02,14.26 139.56,12.96 139.56,11.4 C139.56,9.82 140.02,8.52 140.96,7.5 C141.9,6.46 143.16,5.94 144.72,5.94 Z M144.72,7.68 C143.74,7.68 142.98,8.06 142.44,8.84 C141.96,9.5 141.74,10.36 141.74,11.4 C141.74,12.44 141.96,13.28 142.44,13.94 C142.98,14.7 143.74,15.1 144.72,15.1 C145.7,15.1 146.46,14.7 147.02,13.94 C147.5,13.26 147.74,12.42 147.74,11.4 C147.74,10.36 147.5,9.5 147.02,8.84 C146.46,8.06 145.7,7.68 144.72,7.68 Z M159.34,2 L161.46,2 L161.46,16.56 L159.48,16.56 L159.48,15.32 C158.76,16.32 157.68,16.84 156.28,16.84 C154.76,16.84 153.56,16.3 152.7,15.22 C151.9,14.22 151.5,12.92 151.5,11.34 C151.5,9.82 151.88,8.56 152.68,7.56 C153.52,6.48 154.7,5.94 156.18,5.94 C157.44,5.94 158.5,6.54 159.34,7.76 L159.34,2 Z M156.66,7.66 C155.62,7.66 154.84,8 154.34,8.72 C153.9,9.32 153.68,10.2 153.68,11.34 C153.68,12.48 153.88,13.36 154.3,14 C154.78,14.74 155.56,15.12 156.6,15.12 C157.52,15.12 158.22,14.74 158.74,14.02 C159.18,13.36 159.4,12.52 159.4,11.48 L159.4,11.3 C159.4,10.18 159.12,9.28 158.6,8.6 C158.08,7.96 157.44,7.66 156.66,7.66 Z M163.86,6.22 L163.86,12.66 C163.86,15.44 165.1,16.84 167.6,16.84 C168.9,16.84 169.98,16.28 170.86,15.16 L170.86,16.56 L172.98,16.56 L172.98,6.22 L170.86,6.22 L170.86,12.54 C170.68,13.3 170.34,13.92 169.86,14.38 C169.38,14.82 168.88,15.06 168.32,15.06 C167.5,15.06 166.9,14.84 166.54,14.44 C166.16,14.04 165.98,13.4 165.98,12.52 L165.98,6.22 L163.86,6.22 Z M180,5.94 C178.4,5.94 177.16,6.48 176.26,7.56 C175.42,8.56 175,9.84 175,11.4 C175,13 175.42,14.28 176.28,15.28 C177.16,16.32 178.38,16.84 179.96,16.84 C181.28,16.84 182.36,16.5 183.16,15.84 C183.96,15.16 184.5,14.12 184.74,12.74 L182.64,12.74 C182.44,14.3 181.56,15.1 179.98,15.1 C179.06,15.1 178.38,14.76 177.92,14.12 C177.42,13.46 177.18,12.54 177.18,11.38 C177.18,10.22 177.42,9.3 177.94,8.66 C178.44,8 179.12,7.68 180,7.68 C180.72,7.68 181.3,7.84 181.74,8.18 C182.18,8.5 182.46,9.02 182.6,9.72 L184.7,9.72 C184.5,8.44 183.98,7.48 183.18,6.84 C182.38,6.24 181.32,5.94 180,5.94 Z M190.94,5.94 C192.62,5.94 193.92,6.5 194.8,7.66 C195.6,8.7 196.02,10.14 196.04,11.98 L188.2,11.98 C188.28,12.98 188.54,13.76 189.02,14.3 C189.5,14.82 190.16,15.1 191,15.1 C191.74,15.1 192.34,14.92 192.8,14.58 C193.16,14.3 193.46,13.84 193.74,13.24 L195.86,13.24 C195.62,14.2 195.16,15.02 194.44,15.66 C193.54,16.44 192.4,16.84 191.02,16.84 C189.5,16.84 188.28,16.36 187.4,15.42 C186.44,14.42 185.96,13.08 185.96,11.38 C185.96,9.84 186.4,8.56 187.32,7.52 C188.2,6.46 189.42,5.94 190.94,5.94 Z M191,7.68 C190.2,7.68 189.58,7.9 189.1,8.38 C188.66,8.84 188.36,9.5 188.24,10.38 L193.82,10.38 C193.62,8.58 192.68,7.68 191,7.68 Z" transform="translate(-108)"/>
</svg>
