<svg xmlns="http://www.w3.org/2000/svg" width="87" height="19" viewBox="0 0 87 19">
  <path fill="#4A4A4A" fill-rule="evenodd" d="M774.996,1971.844 C774.402,1971.91 774.05,1972.196 773.962,1972.702 C775.238,1972.834 776.426,1973.582 777.57,1974.902 C775.37,1979.544 773.39,1981.854 771.652,1981.854 C771.3,1981.898 771.124,1982.052 771.124,1982.316 C771.322,1982.998 771.894,1983.328 772.862,1983.328 C774.446,1983.108 776.25,1980.908 778.23,1976.706 C778.34,1976.574 778.45,1976.398 778.538,1976.2 C778.89,1976.772 779.264,1977.432 779.638,1978.158 C781.706,1981.854 783.554,1983.68 785.226,1983.68 C786.568,1983.68 787.338,1983.306 787.536,1982.536 C787.536,1982.294 787.294,1982.03 786.832,1981.766 C785.072,1981.524 782.498,1979.258 779.066,1974.99 C777.834,1973.01 776.492,1971.954 774.996,1971.844 Z M802.285428,1969.732 C803.209428,1969.732 803.671428,1970.062 803.671428,1970.678 C803.671428,1971.03 803.539428,1971.426 803.275428,1971.844 C803.297428,1971.91 803.319428,1971.976 803.319428,1972.042 C803.275428,1972.284 803.077428,1972.416 802.769428,1972.438 C802.043428,1972.57 801.559428,1972.636 801.339428,1972.658 C801.119428,1972.658 800.965428,1972.658 800.855428,1972.614 L800.855428,1972.812 C800.855428,1973.472 801.075428,1973.802 801.515428,1973.802 C802.527428,1973.758 803.033428,1973.56 803.033428,1973.186 C803.055428,1972.79 803.121428,1972.57 803.231428,1972.57 C803.781428,1972.746 804.089428,1973.076 804.133428,1973.538 C804.133428,1974.33 803.297428,1974.726 801.625428,1974.77 C800.371428,1974.748 799.755428,1974.132 799.755428,1972.922 C799.799428,1972.284 799.865428,1971.734 799.953428,1971.272 C799.953428,1970.854 799.865428,1970.568 799.711428,1970.392 C799.711428,1970.304 799.777428,1970.238 799.909428,1970.238 C800.085428,1970.238 800.217428,1970.304 800.349428,1970.414 C800.525428,1970.282 800.767428,1970.172 801.075428,1970.04 C801.515428,1969.842 801.933428,1969.732 802.285428,1969.732 Z M800.745428,1971.008 C800.789428,1971.074 800.833428,1971.382 800.855428,1971.932 C801.075428,1971.866 801.361428,1971.8 801.713428,1971.712 C801.889428,1971.668 802.043428,1971.646 802.197428,1971.602 C802.241428,1971.47 802.285428,1971.338 802.307428,1971.162 C802.307428,1970.898 802.219428,1970.766 802.043428,1970.722 C801.471428,1970.898 801.097428,1971.008 800.965428,1971.008 L800.745428,1971.008 Z M806.795428,1969.006 C807.719428,1969.006 808.181428,1969.336 808.181428,1969.974 C808.181428,1970.392 807.961428,1970.854 807.565428,1971.382 C807.565428,1971.448 807.587428,1971.492 807.587428,1971.514 C807.543428,1971.756 807.367428,1971.888 807.059428,1971.932 C806.377428,1972.064 805.937428,1972.152 805.717428,1972.152 C805.519428,1972.152 805.365428,1972.152 805.255428,1972.108 L805.255428,1972.284 C805.255428,1972.9 805.519428,1973.208 806.091428,1973.208 C807.367428,1973.186 808.005428,1972.944 808.005428,1972.46 C808.027428,1972.02 808.093428,1971.778 808.225428,1971.778 C808.863428,1971.976 809.215428,1972.35 809.281428,1972.9 C809.281428,1973.824 808.247428,1974.286 806.201428,1974.33 C804.793428,1974.308 804.089428,1973.648 804.089428,1972.372 C804.133428,1971.712 804.199428,1971.14 804.287428,1970.656 C804.287428,1970.216 804.199428,1969.908 804.045428,1969.732 C804.045428,1969.622 804.111428,1969.556 804.265428,1969.556 C804.441428,1969.556 804.595428,1969.622 804.727428,1969.754 C804.903428,1969.622 805.189428,1969.49 805.563428,1969.314 C806.003428,1969.116 806.421428,1969.006 806.795428,1969.006 Z M805.101428,1970.304 C805.123428,1970.348 805.145428,1970.37 805.145428,1970.37 C805.189428,1970.436 805.233428,1970.788 805.255428,1971.426 C805.475428,1971.36 805.717428,1971.294 806.025428,1971.206 C806.245428,1971.162 806.421428,1971.118 806.597428,1971.074 C806.707428,1970.876 806.773428,1970.678 806.817428,1970.458 C806.817428,1970.194 806.729428,1970.062 806.553428,1970.018 C805.959428,1970.194 805.585428,1970.304 805.431428,1970.304 L805.101428,1970.304 Z M803.385428,1980.314 C803.517428,1980.314 803.583428,1980.446 803.583428,1980.71 C803.539428,1981.106 803.363428,1981.524 803.011428,1981.92 C802.659428,1982.316 802.241428,1982.514 801.801428,1982.536 C801.097428,1982.492 800.745428,1982.074 800.701428,1981.304 C800.701428,1981.106 800.767428,1980.996 800.943428,1980.996 C801.141428,1980.996 801.361428,1981.018 801.581428,1981.04 C802.153428,1980.996 802.769428,1980.754 803.385428,1980.314 Z M805.651428,1974.506 C806.355428,1974.55 806.729428,1974.924 806.773428,1975.584 C806.751428,1975.628 806.729428,1975.672 806.729428,1975.716 C807.125428,1975.672 807.499428,1975.65 807.807428,1975.628 C808.291428,1975.672 808.555428,1975.892 808.555428,1976.266 C808.489428,1976.574 808.269428,1976.728 807.873428,1976.772 C807.345428,1976.86 806.861428,1976.926 806.399428,1976.97 C806.267428,1977.366 806.157428,1977.784 806.025428,1978.18 C807.037428,1978.048 807.895428,1977.982 808.599428,1977.96 C809.391428,1977.96 809.787428,1978.224 809.787428,1978.752 C809.787428,1979.104 809.567428,1979.28 809.127428,1979.28 C808.093428,1979.28 806.949428,1979.346 805.695428,1979.434 C803.275428,1979.786 801.493428,1979.962 800.393428,1979.962 C799.711428,1979.962 799.271428,1979.83 799.095428,1979.566 C799.095428,1979.478 799.293428,1979.368 799.733428,1979.258 C800.657428,1979.082 801.537428,1978.906 802.373428,1978.752 C802.241428,1978.444 802.131428,1978.048 801.999428,1977.542 C801.691428,1977.586 801.427428,1977.608 801.251428,1977.608 C800.415428,1977.608 799.953428,1977.41 799.909428,1976.992 C799.997428,1976.882 800.613428,1976.706 801.735428,1976.486 C801.647428,1976.178 801.559428,1975.804 801.471428,1975.408 C801.471428,1975.32 801.603428,1975.254 801.889428,1975.254 C802.395428,1975.254 802.747428,1975.518 802.923428,1976.024 C802.967428,1976.112 802.989428,1976.178 803.033428,1976.266 C803.495428,1976.2 804.001428,1976.112 804.551428,1976.024 C804.771428,1975.98 804.991428,1975.958 805.189428,1975.914 C805.189428,1975.804 805.211428,1975.694 805.211428,1975.606 C805.211428,1975.342 805.101428,1975.122 804.881428,1974.902 C804.881428,1974.638 805.123428,1974.506 805.651428,1974.506 Z M805.101428,1977.168 C804.375428,1977.278 803.759428,1977.366 803.231428,1977.41 C803.231428,1977.718 803.253428,1978.048 803.275428,1978.4 C803.253428,1978.488 803.231428,1978.554 803.231428,1978.598 C803.825428,1978.51 804.375428,1978.422 804.903428,1978.334 C804.991428,1977.938 805.057428,1977.542 805.101428,1977.168 Z M796.939428,1970.722 C796.125428,1970.722 795.597428,1970.854 795.355428,1971.074 C795.773428,1972.108 796.455428,1972.746 797.423428,1972.966 C797.973428,1972.966 798.259428,1972.724 798.259428,1972.218 C798.215428,1971.382 797.775428,1970.898 796.939428,1970.722 Z M796.037428,1973.978 C795.179428,1973.978 794.629428,1974.088 794.365428,1974.286 C794.827428,1975.342 795.597428,1976.002 796.653428,1976.222 C797.181428,1976.222 797.445428,1976.002 797.445428,1975.518 C797.379428,1974.66 796.917428,1974.154 796.037428,1973.978 Z M795.157428,1977.366 C796.323428,1977.498 796.917428,1977.96 796.917428,1978.796 C796.851428,1978.994 796.785428,1979.214 796.741428,1979.434 C796.785428,1979.742 796.983428,1980.006 797.313428,1980.204 C797.885428,1980.468 798.171428,1980.842 798.171428,1981.348 C798.149428,1981.59 798.105428,1981.81 798.039428,1982.008 C798.523428,1982.074 799.403428,1982.338 800.701428,1982.778 C802.835428,1983.416 804.837428,1983.724 806.685428,1983.724 C808.379428,1983.724 809.809428,1983.68 810.997428,1983.548 C811.151428,1983.614 811.239428,1983.746 811.239428,1983.922 C811.129428,1984.472 810.645428,1985 809.809428,1985.484 C809.237428,1985.836 808.577428,1986.034 807.829428,1986.034 C806.289428,1986.034 803.715428,1985.264 800.107428,1983.768 C798.787428,1983.196 797.951428,1982.866 797.577428,1982.822 L797.577428,1982.844 C797.049428,1983.526 796.543428,1983.9 796.037428,1983.944 C795.553428,1983.9 795.311428,1983.702 795.289428,1983.394 C795.289428,1982.91 795.619428,1982.558 796.323428,1982.294 C796.609428,1982.162 796.763428,1981.986 796.763428,1981.722 C796.719428,1981.304 796.521428,1981.018 796.147428,1980.842 C795.663428,1980.578 795.421428,1980.226 795.399428,1979.786 C795.421428,1979.566 795.443428,1979.346 795.487428,1979.126 C795.487428,1978.862 795.355428,1978.62 795.113428,1978.4 C794.629428,1978.29 794.365428,1978.114 794.299428,1977.894 C794.321428,1977.608 794.607428,1977.432 795.157428,1977.366 Z M806.927428,1980.204 C807.719428,1980.336 808.159428,1980.776 808.203428,1981.524 C808.203428,1981.986 807.939428,1982.206 807.411428,1982.206 C806.487428,1982.008 805.805428,1981.436 805.387428,1980.512 C805.607428,1980.314 806.135428,1980.204 806.927428,1980.204 Z M823.546856,1980.446 C823.348856,1980.534 823.260856,1981.04 823.260856,1982.008 C823.348856,1982.954 823.590856,1983.724 823.986856,1984.318 C824.382856,1984.956 824.756856,1985.264 825.130856,1985.264 C825.350856,1985.22 825.482856,1985.066 825.526856,1984.78 C825.702856,1984.824 825.922856,1984.824 826.186856,1984.824 C826.758856,1984.802 827.924856,1984.692 829.684856,1984.494 C830.146856,1984.45 830.410856,1984.252 830.476856,1983.922 C830.476856,1983.702 830.388856,1983.526 830.212856,1983.372 C830.322856,1983.196 830.454856,1982.976 830.586856,1982.69 C831.092856,1981.876 831.356856,1981.018 831.356856,1980.116 C831.268856,1979.236 830.564856,1978.708 829.200856,1978.576 C828.276856,1978.62 827.198856,1978.774 825.944856,1979.082 C825.350856,1979.214 824.866856,1979.324 824.514856,1979.412 C824.932856,1979.104 825.372856,1978.73 825.834856,1978.29 C828.298856,1975.54 829.662856,1973.692 829.948856,1972.724 C829.948856,1972.24 829.574856,1971.932 828.848856,1971.778 C827.968856,1971.778 827.154856,1971.954 826.450856,1972.284 C826.142856,1972.372 825.878856,1972.438 825.614856,1972.504 C826.186856,1971.712 826.472856,1971.096 826.472856,1970.634 C826.472856,1969.996 826.098856,1969.666 825.394856,1969.666 C824.778856,1969.666 824.470856,1969.776 824.470856,1969.952 C824.536856,1970.106 824.580856,1970.282 824.580856,1970.48 C824.448856,1971.316 823.854856,1972.416 822.776856,1973.78 C821.434856,1975.232 820.730856,1976.068 820.686856,1976.266 C820.686856,1976.464 820.774856,1976.574 820.994856,1976.618 C821.764856,1976.618 822.864856,1975.782 824.294856,1974.11 C824.492856,1973.89 824.690856,1973.67 824.888856,1973.428 L824.976856,1973.428 C825.834856,1973.164 826.692856,1973.01 827.572856,1973.01 C827.748856,1973.01 827.858856,1973.12 827.858856,1973.318 C827.770856,1974.11 827.000856,1975.188 825.592856,1976.53 L825.592856,1976.486 C825.592856,1975.98 824.910856,1975.694 823.546856,1975.65 C823.282856,1975.65 823.150856,1975.738 823.150856,1975.892 C823.194856,1976.288 823.392856,1976.662 823.766856,1976.992 C823.964856,1977.212 824.250856,1977.366 824.602856,1977.41 C823.194856,1978.84 821.544856,1979.962 819.696856,1980.754 C819.080856,1980.996 818.794856,1981.172 818.794856,1981.282 C818.816856,1981.546 819.102856,1981.678 819.630856,1981.678 C820.862856,1981.612 822.248856,1981.04 823.788856,1979.94 C823.876856,1980.292 824.448856,1980.49 825.460856,1980.512 C826.032856,1980.512 826.626856,1980.402 827.242856,1980.182 C828.012856,1980.028 828.672856,1979.918 829.222856,1979.852 C829.354856,1979.852 829.442856,1979.962 829.464856,1980.182 C829.464856,1980.974 829.332856,1981.656 829.112856,1982.228 C828.892856,1982.624 828.738856,1982.954 828.672856,1983.262 C828.364856,1983.328 827.990856,1983.394 827.572856,1983.46 C826.604856,1983.636 825.878856,1983.768 825.372856,1983.878 C825.328856,1983.746 825.240856,1983.57 825.152856,1983.35 C824.932856,1982.734 824.756856,1982.14 824.624856,1981.524 C824.272856,1980.82 823.898856,1980.446 823.546856,1980.446 Z M852.266285,1973.824 C853.630285,1974.066 854.334285,1974.66 854.400285,1975.584 C854.268285,1976.816 853.960285,1977.916 853.498285,1978.862 C853.146285,1979.654 852.750285,1980.05 852.332285,1980.072 C851.980285,1980.072 851.716285,1979.918 851.562285,1979.588 L851.562285,1979.566 C851.100285,1979.61 850.682285,1979.654 850.330285,1979.676 L850.330285,1980.776 C852.002285,1980.622 853.850285,1980.49 855.874285,1980.358 C856.688285,1980.6 857.128285,1980.93 857.216285,1981.326 C857.216285,1981.7 856.820285,1981.876 856.072285,1981.876 C853.234285,1981.986 851.320285,1982.052 850.308285,1982.096 L850.308285,1985.088 C850.176285,1986.144 849.890285,1986.672 849.450285,1986.672 C849.120285,1986.584 848.900285,1985.902 848.768285,1984.648 C848.812285,1983.834 848.834285,1983.042 848.878285,1982.25 C846.810285,1982.47 844.984285,1982.558 843.400285,1982.558 C842.740285,1982.448 842.432285,1982.25 842.432285,1981.986 C842.432285,1981.854 843.554285,1981.634 845.798285,1981.326 C846.744285,1981.194 847.778285,1981.062 848.900285,1980.93 C848.900285,1980.556 848.922285,1980.182 848.922285,1979.786 C848.702285,1979.808 848.504285,1979.83 848.372285,1979.83 C847.998285,1979.83 847.712285,1979.808 847.536285,1979.742 L847.536285,1979.764 C847.536285,1980.16 847.404285,1980.38 847.140285,1980.402 C846.744285,1980.402 846.370285,1980.072 845.974285,1979.368 C845.600285,1978.708 845.358285,1977.872 845.248285,1976.838 C845.248285,1975.826 845.336285,1975.298 845.556285,1975.21 C845.930285,1975.21 846.304285,1975.584 846.678285,1976.332 C846.810285,1977.014 846.986285,1977.696 847.184285,1978.356 C847.272285,1978.62 847.360285,1978.84 847.404285,1979.016 C847.756285,1978.928 848.262285,1978.84 848.944285,1978.708 C848.944285,1978.334 848.966285,1977.96 848.966285,1977.608 C848.790285,1977.652 848.636285,1977.652 848.548285,1977.652 C847.690285,1977.652 847.228285,1977.454 847.184285,1977.036 C847.250285,1976.926 847.844285,1976.772 848.966285,1976.552 L848.966285,1976.508 C848.966285,1976.178 848.878285,1975.87 848.702285,1975.584 C848.372285,1975.65 847.976285,1975.694 847.536285,1975.694 C846.920285,1975.628 846.634285,1975.452 846.634285,1975.166 C846.810285,1974.528 848.680285,1974.088 852.266285,1973.824 Z M850.242285,1975.166 C850.374285,1975.342 850.440285,1975.584 850.484285,1975.87 C850.462285,1975.914 850.440285,1976.046 850.440285,1976.266 C850.704285,1976.222 850.946285,1976.2 851.144285,1976.178 C851.650285,1976.222 851.914285,1976.442 851.914285,1976.838 C851.870285,1977.146 851.628285,1977.3 851.232285,1977.344 C850.924285,1977.388 850.638285,1977.432 850.374285,1977.454 C850.352285,1977.762 850.352285,1978.092 850.352285,1978.466 C850.880285,1978.378 851.320285,1978.334 851.672285,1978.312 C851.760285,1978.312 851.826285,1978.334 851.892285,1978.356 C851.958285,1978.18 852.024285,1977.982 852.112285,1977.784 C852.398285,1976.948 852.552285,1976.31 852.552285,1975.826 C852.508285,1975.298 852.068285,1975.012 851.232285,1974.968 C850.880285,1975.012 850.550285,1975.078 850.242285,1975.166 Z M850.110285,1970.062 C849.934285,1970.128 849.846285,1970.612 849.846285,1971.492 C849.934285,1972.064 850.132285,1972.504 850.462285,1972.856 C850.770285,1973.252 851.100285,1973.428 851.430285,1973.428 C851.562285,1973.428 851.672285,1973.34 851.738285,1973.164 C851.914285,1973.208 852.112285,1973.208 852.376285,1973.208 C852.574285,1973.208 852.992285,1973.12 853.652285,1972.988 C854.070285,1972.944 854.312285,1972.768 854.356285,1972.46 C854.356285,1972.372 854.334285,1972.262 854.290285,1972.152 C854.378285,1972.02 854.510285,1971.844 854.642285,1971.602 C854.994285,1971.096 855.192285,1970.546 855.192285,1969.974 C855.126285,1969.182 854.488285,1968.72 853.256285,1968.588 C852.772285,1968.632 852.222285,1968.764 851.584285,1969.028 C850.836285,1969.248 850.484285,1969.468 850.484285,1969.644 C850.484285,1970.04 850.990285,1970.26 851.980285,1970.26 C852.178285,1970.26 852.376285,1970.172 852.596285,1969.996 C852.860285,1969.864 853.080285,1969.776 853.278285,1969.732 C853.410285,1969.732 853.476285,1969.842 853.476285,1970.04 C853.476285,1970.502 853.410285,1970.898 853.322285,1971.228 C853.190285,1971.448 853.124285,1971.668 853.102285,1971.866 C852.926285,1971.91 852.728285,1971.976 852.508285,1972.02 C852.134285,1972.108 851.826285,1972.196 851.584285,1972.284 C851.540285,1972.24 851.518285,1972.174 851.496285,1972.108 C851.342285,1971.756 851.210285,1971.404 851.100285,1971.052 C850.770285,1970.392 850.440285,1970.062 850.110285,1970.062 Z M844.676285,1970.854 C844.984285,1970.854 845.314285,1971.184 845.644285,1971.822 C845.754285,1972.174 845.886285,1972.526 846.062285,1972.878 C846.084285,1972.922 846.106285,1972.944 846.106285,1972.944 C846.370285,1972.856 846.678285,1972.768 847.052285,1972.636 C847.228285,1972.592 847.404285,1972.526 847.536285,1972.482 C847.536285,1972.306 847.580285,1972.108 847.624285,1971.888 C847.668285,1971.58 847.712285,1971.228 847.712285,1970.832 C847.690285,1970.634 847.624285,1970.524 847.514285,1970.524 C847.338285,1970.568 847.162285,1970.656 846.964285,1970.766 C846.788285,1970.942 846.612285,1971.008 846.458285,1971.008 C845.468285,1971.008 844.962285,1970.788 844.962285,1970.392 C844.962285,1970.216 845.292285,1970.018 845.952285,1969.798 C846.546285,1969.556 847.052285,1969.424 847.470285,1969.38 C848.702285,1969.512 849.340285,1969.974 849.406285,1970.766 C849.406285,1971.294 849.252285,1971.778 848.944285,1972.24 C848.856285,1972.372 848.790285,1972.504 848.746285,1972.592 C848.856285,1972.724 848.922285,1972.856 848.922285,1973.032 C848.878285,1973.362 848.636285,1973.538 848.218285,1973.582 C847.558285,1973.78 847.118285,1973.89 846.898285,1973.912 C846.678285,1973.912 846.480285,1973.912 846.326285,1973.868 C846.260285,1974.088 846.150285,1974.198 846.018285,1974.198 C845.688285,1974.198 845.358285,1974.022 845.028285,1973.626 C844.698285,1973.274 844.500285,1972.812 844.412285,1972.24 C844.412285,1971.382 844.500285,1970.92 844.676285,1970.854 Z" transform="translate(-771 -1968)"/>
</svg>
