<?xml version="1.0" encoding="UTF-8"?>
<svg width="120px" height="44px" viewBox="0 0 120 44" version="1.1" xmlns="http://www.w3.org/2000/svg" xmlns:xlink="http://www.w3.org/1999/xlink">
    <!-- Generator: Sketch 41.2 (35397) - http://www.bohemiancoding.com/sketch -->
    <title>benefit_line_normal</title>
    <desc>Created with Sketch.</desc>
    <defs>
        <polygon id="path-1" points="25.2375206 24.5001628 0 24.5001628 0 0.116561381 25.2375206 0.116561381 25.2375206 24.5001628"></polygon>
    </defs>
    <g id="Page-1" stroke="none" stroke-width="1" fill="none" fill-rule="evenodd">
        <g id="Artboard" transform="translate(-360.000000, -31.000000)">
            <g id="benefit_line_normal" transform="translate(362.000000, 34.000000)">
                <rect id="Rectangle-10" fill="#00B900" x="0" y="0" width="116" height="38" rx="8"></rect>
                <g id="Page-1" transform="translate(6.755556, 5.755556)">
                    <g id="Group-3" transform="translate(0.000000, 0.031924)">
                        <mask id="mask-2" fill="white">
                            <use xlink:href="#path-1"></use>
                        </mask>
                        <g id="Clip-2"></g>
                        <path d="M25.2375206,10.5002946 C25.2375206,4.77468082 19.5769118,0.116531683 12.6187383,0.116531683 C5.66129711,0.116531683 -4.39306358e-05,4.77468082 -4.39306358e-05,10.5002946 C-4.39306358e-05,15.633153 4.48922775,19.9321149 10.5532663,20.7447779 C10.9641642,20.8347603 11.5235476,21.0194767 11.6648578,21.3756942 C11.7922566,21.6990963 11.7481796,22.2058785 11.7057133,22.5326958 C11.7057133,22.5326958 11.5578135,23.4354897 11.5257441,23.6280758 C11.4706844,23.951478 11.2721179,24.8933236 12.6187383,24.317941 C13.9655052,23.7424099 19.8858906,19.9788879 22.5332971,16.8888977 L22.5327114,16.8888977 C24.3615437,14.8553842 25.2375206,12.7918765 25.2375206,10.5002946" id="Fill-1" fill="#FFFFFF" mask="url(#mask-2)"></path>
                    </g>
                    <path d="M10.0548586,7.76536373 L9.16965626,7.76536373 C9.0339106,7.76536373 8.92379114,7.87687659 8.92379114,8.01422599 L8.92379114,13.5895721 C8.92379114,13.726773 9.0339106,13.8381374 9.16965626,13.8381374 L10.0548586,13.8381374 C10.1904578,13.8381374 10.3005773,13.726773 10.3005773,13.5895721 L10.3005773,8.01422599 C10.3005773,7.87687659 10.1904578,7.76536373 10.0548586,7.76536373" id="Fill-4" fill="#00B900"></path>
                    <path d="M16.1471592,7.76536373 L15.2621033,7.76536373 C15.1263576,7.76536373 15.0163846,7.87687659 15.0163846,8.01422599 L15.0163846,11.3264995 L12.4965233,7.87613416 C12.4908123,7.86722501 12.4842227,7.8589098 12.4773403,7.85074308 L12.4758759,7.84910974 C12.4710435,7.84376425 12.4660647,7.83871573 12.4610859,7.8338157 C12.4594751,7.83247932 12.4581572,7.83099446 12.4565464,7.82965809 C12.4522998,7.82579746 12.4479067,7.82193683 12.4433672,7.81852165 C12.4413171,7.81673982 12.4391206,7.81510648 12.4370705,7.81347314 C12.4328239,7.81050342 12.4285773,7.80738522 12.4243306,7.80456399 C12.4218412,7.80293064 12.4194983,7.80159427 12.4168624,7.80010941 C12.4124694,7.79758515 12.4080763,7.79491241 12.4038297,7.79268512 C12.4010474,7.79149723 12.398558,7.79001237 12.3959222,7.78882449 C12.3913827,7.78689417 12.3868432,7.78466688 12.3818644,7.78273657 C12.3790821,7.78169717 12.3765927,7.78080625 12.3738104,7.78006382 C12.3691245,7.77813351 12.3642921,7.77650016 12.3593133,7.7750153 C12.356531,7.77442136 12.3537487,7.77367893 12.35082,7.7729365 C12.3459877,7.77160013 12.3414482,7.77056073 12.3366158,7.76966981 C12.3332478,7.76892739 12.3295869,7.76863041 12.3262189,7.76833344 C12.3219723,7.76744253 12.3177256,7.76699707 12.3133326,7.7667001 C12.3090859,7.76625464 12.3049857,7.76595767 12.3005927,7.76580918 C12.2975175,7.76580918 12.2950281,7.76536373 12.291953,7.76536373 L11.4068971,7.76536373 C11.2712979,7.76536373 11.1611784,7.87687659 11.1611784,8.01422599 L11.1611784,13.5895721 C11.1611784,13.726773 11.2712979,13.8381374 11.4068971,13.8381374 L12.291953,13.8381374 C12.4278451,13.8381374 12.5379645,13.726773 12.5379645,13.5895721 L12.5379645,10.278338 L15.0607545,13.7331579 C15.0780339,13.7579551 15.0995599,13.7784461 15.123136,13.7944826 C15.1238682,13.7950765 15.1248933,13.7956705 15.1256254,13.7965614 C15.1307507,13.7998281 15.1357295,13.8030948 15.1408547,13.805916 C15.1431977,13.8072524 15.1453942,13.8084402 15.1477372,13.8096281 C15.1515445,13.8117069 15.1556447,13.8136373 15.1595985,13.8155676 C15.1635522,13.8172009 15.1673595,13.8191312 15.1714597,13.8206161 C15.1740956,13.8216555 15.1762921,13.8226949 15.1789279,13.8234373 C15.1846389,13.8255161 15.190057,13.8272979 15.1956216,13.8289313 C15.1967931,13.8290798 15.1979645,13.8295252 15.199136,13.8296737 C15.2191977,13.8351677 15.2402844,13.8381374 15.2621033,13.8381374 L16.1471592,13.8381374 C16.2830513,13.8381374 16.3930243,13.726773 16.3930243,13.5895721 L16.3930243,8.01422599 C16.3930243,7.87687659 16.2830513,7.76536373 16.1471592,7.76536373" id="Fill-6" fill="#00B900"></path>
                    <path d="M7.9212501,12.4422369 L5.51619422,12.4422369 L5.51619422,8.01438932 C5.51619422,7.87689144 5.40622119,7.76537857 5.27047553,7.76537857 L4.38541965,7.76537857 C4.24967399,7.76537857 4.13955453,7.87689144 4.13955453,8.01438932 L4.13955453,13.5891415 L4.13955453,13.589587 C4.13955453,13.6564056 4.16576647,13.7169878 4.20823276,13.7615336 C4.2092578,13.7628699 4.21028285,13.7642063 4.21160077,13.7653942 C4.21291869,13.7665821 4.21409017,13.7676215 4.21526166,13.7689579 C4.25948516,13.8118703 4.31893796,13.8383007 4.38498035,13.8383007 L4.38541965,13.8383007 L7.9212501,13.8383007 C8.05684933,13.8383007 8.16667592,13.7264909 8.16667592,13.5891415 L8.16667592,12.6915446 C8.16667592,12.5538983 8.05684933,12.4422369 7.9212501,12.4422369" id="Fill-8" fill="#00B900"></path>
                    <path d="M21.0351453,9.16148694 C21.1707445,9.16148694 21.2805711,9.04997408 21.2805711,8.91217923 L21.2805711,8.01473084 C21.2805711,7.87708447 21.1707445,7.76542312 21.0351453,7.76542312 L17.4993148,7.76542312 L17.4988755,7.76542312 C17.4325403,7.76542312 17.3727946,7.79215057 17.3284247,7.83565692 C17.3275461,7.83669632 17.3263746,7.83743875 17.325496,7.83832966 C17.324178,7.83996301 17.3227137,7.84129938 17.3215422,7.84263575 C17.2795152,7.88732999 17.2534497,7.94776373 17.2534497,8.01428538 L17.2534497,8.01473084 L17.2534497,13.5890376 L17.2534497,13.589483 C17.2534497,13.6563017 17.2796617,13.7170324 17.3221279,13.7615781 C17.323153,13.762766 17.3243245,13.7642509 17.325496,13.7654387 C17.326521,13.7664782 17.3279854,13.767666 17.3291568,13.768557 C17.3732339,13.8116178 17.4328331,13.8383453 17.4988755,13.8383453 L17.4993148,13.8383453 L21.0351453,13.8383453 C21.1707445,13.8383453 21.2805711,13.7266839 21.2805711,13.5890376 L21.2805711,12.6914407 C21.2805711,12.5539428 21.1707445,12.4422815 21.0351453,12.4422815 L18.6302358,12.4422815 L18.6302358,11.4998419 L21.0351453,11.4998419 C21.1707445,11.4998419 21.2805711,11.388329 21.2805711,11.2505342 L21.2805711,10.3530858 C21.2805711,10.2154394 21.1707445,10.1037781 21.0351453,10.1037781 L18.6302358,10.1037781 L18.6302358,9.16148694 L21.0351453,9.16148694 Z" id="Fill-10" fill="#00B900"></path>
                </g>
                <text id="用LINE分享" font-family="PingFangTC-Semibold, PingFang TC" font-size="12" font-weight="500" fill="#FFFFFF">
                    <tspan x="41" y="24">用</tspan>
                    <tspan x="53" y="24" font-family="Helvetica-Bold, Helvetica" font-weight="bold">LINE</tspan>
                    <tspan x="80.3339844" y="24">分享</tspan>
                </text>
            </g>
        </g>
    </g>
</svg>