<?xml version="1.0" encoding="UTF-8"?>
<svg width="339px" height="53px" viewBox="0 0 339 53" version="1.1" xmlns="http://www.w3.org/2000/svg" xmlns:xlink="http://www.w3.org/1999/xlink">
    <!-- Generator: Sketch 41.1 (35376) - http://www.bohemiancoding.com/sketch -->
    <title>big_tit_method</title>
    <desc>Created with Sketch.</desc>
    <defs>
        <polygon id="path-1" points="0.88772846 0.6245 0.88772846 0.1245 0.382750612 0.1245 0.382750612 0.6245 0.88772846 0.6245"></polygon>
        <polygon id="path-3" points="0 0.3994 0 0.8994 0.939749347 0.8994 0.939749347 0.3994 0 0.3994"></polygon>
        <polygon id="path-5" points="0.0738590078 0.5 1.03881984 0.5 1.03881984 0.13685 0.0738590078 0.13685"></polygon>
        <polygon id="path-7" points="0.41591352 0.5 2.09477285 0.5 2.09477285 0.288680824 0.41591352 0.288680824"></polygon>
        <polygon id="path-9" points="14.8119868 0.19797054 0 0.19797054 0 29.6562226 14.8119868 29.6562226"></polygon>
        <polygon id="path-11" points="14.8119868 0.19797054 0 0.19797054 0 29.6562226 14.8119868 29.6562226"></polygon>
    </defs>
    <g id="Page-1" stroke="none" stroke-width="1" fill="none" fill-rule="evenodd">
        <g id="Artboard-3" transform="translate(-28.000000, -276.000000)">
            <g id="big_tit_method" transform="translate(28.000000, 276.000000)">
                <g id="Page-1" transform="translate(0.000000, 48.000000)">
                    <path d="M0,2.42925 L339.112272,2.42925 L0,2.42925 Z" id="Fill-1" fill="#FEFEFE"></path>
                    <g id="Group-168" transform="translate(0.000000, 0.358400)">
                        <g id="Group-4" transform="translate(338.224543, 0.500000)">
                            <mask id="mask-2" fill="white">
                                <use xlink:href="#path-1"></use>
                            </mask>
                            <g id="Clip-3"></g>
                            <path d="M0.491535248,0.3535 C0.991326371,0.372 0.812005222,0.1625 0.887462141,0.1245 C0.0503342037,0.171 0.511953003,0.408 0.491535248,0.3535" id="Fill-2" fill="#231815" mask="url(#mask-2)"></path>
                        </g>
                        <polygon id="Fill-5" fill="#231815" points="330.450883 1.3291 330.597358 1.2436 329.379394 1.4531"></polygon>
                        <path d="M322.723117,1.3252 C323.45283,1.6822 325.523013,1.2677 326.89988,1.3947 L327.127138,1.4757 L327.748548,1.1887 C326.074292,1.2342 323.901133,1.4247 322.723117,1.3252" id="Fill-7" fill="#231815"></path>
                        <path d="M318.601749,0.5532 C318.856527,0.6922 317.71047,0.6727 319.563159,0.5967 C319.469948,0.5817 319.442428,0.5727 319.389164,0.5617 C319.222272,0.5637 318.99235,0.5632 318.601749,0.5532" id="Fill-9" fill="#231815"></path>
                        <path d="M319.388898,0.5615 C320.202945,0.5515 318.856261,0.445 319.388898,0.5615" id="Fill-11" fill="#231815"></path>
                        <path d="M315.62999,0.6411 L316.702366,0.5171 C316.47777,0.4351 315.52435,0.4166 315.878554,0.3571 C314.778658,0.4246 315.005029,0.5061 315.62999,0.6411" id="Fill-13" fill="#231815"></path>
                        <path d="M314.613896,0.9016 L315.169614,0.8491 C315.071963,0.8146 314.925488,0.8026 314.613896,0.9016" id="Fill-15" fill="#231815"></path>
                        <path d="M316.347718,0.7383 L315.169702,0.8493 C315.325055,0.9068 315.341034,1.0223 315.709441,0.8093 C315.613567,0.9148 315.847039,0.8133 316.347718,0.7383" id="Fill-17" fill="#231815"></path>
                        <path d="M317.014402,0.7927 C317.616282,0.8702 318.393044,0.9192 317.317117,1.0427 C319.366883,0.9937 319.065943,0.7427 317.014402,0.7927" id="Fill-19" fill="#231815"></path>
                        <path d="M322.327812,1.69435 L323.132094,1.79885 L323.827185,1.67935 C323.480084,1.73835 322.278099,1.58235 322.327812,1.69435" id="Fill-21" fill="#231815"></path>
                        <path d="M308.951164,0.4563 C308.884585,0.5323 309.311582,0.6588 309.391478,0.7558 L310.184219,0.6688 C309.776752,0.6168 309.006204,0.5688 308.951164,0.4563" id="Fill-23" fill="#231815"></path>
                        <path d="M309.391567,0.75585 L308.207337,0.88635 C309.265509,0.90185 309.459034,0.83935 309.391567,0.75585" id="Fill-25" fill="#231815"></path>
                        <polygon id="Fill-27" fill="#231815" points="314.422324 1.29785 316.368225 1.02385 314.046815 1.30135"></polygon>
                        <polygon id="Fill-29" fill="#231815" points="304.426679 0.4468 305.097802 0.2708 303.901144 0.5368"></polygon>
                        <path d="M301.424559,0.47755 C301.922574,0.33205 300.742783,0.23105 301.268319,0.14155 C300.453384,0.16755 299.757405,0.29255 299.130668,0.40505 C299.796465,0.34205 300.506648,0.35855 301.424559,0.47755" id="Fill-31" fill="#231815"></path>
                        <path d="M298.077379,0.56885 C298.410277,0.53385 298.755603,0.47135 299.131112,0.40485 C298.776909,0.43885 298.428919,0.48685 298.077379,0.56885" id="Fill-33" fill="#231815"></path>
                        <path d="M306.189175,0.84865 C306.096851,0.80265 305.920193,0.68265 305.256172,0.63165 L305.72223,0.84565 C305.865154,0.84665 306.024945,0.84765 306.189175,0.84865" id="Fill-35" fill="#231815"></path>
                        <path d="M305.738386,0.8523 L305.72152,0.8453 C305.216402,0.8408 304.865749,0.8358 304.715723,0.8333 C304.844444,0.8353 305.152486,0.8408 305.738386,0.8523" id="Fill-37" fill="#231815"></path>
                        <path d="M306.306178,0.8496 C306.262679,0.8491 306.231608,0.8486 306.188997,0.8486 C306.233384,0.8696 306.260903,0.8766 306.306178,0.8496" id="Fill-39" fill="#231815"></path>
                        <path d="M311.316162,1.1045 C310.620183,1.224 309.168747,1.352 310.573133,1.534 C311.072924,1.388 310.268642,1.284 311.316162,1.1045" id="Fill-41" fill="#231815"></path>
                        <path d="M306.885332,1.1167 L308.143243,1.1657 C308.119274,1.1092 307.892016,1.0267 308.236454,0.9677 L306.885332,1.1167 Z" id="Fill-43" fill="#231815"></path>
                        <polygon id="Fill-45" fill="#231815" points="306.268893 1.18455 306.884977 1.11655 306.418919 1.09855"></polygon>
                        <path d="M300.233405,0.7688 C299.690115,0.8618 299.095337,0.8698 298.423326,0.8843 C299.143274,0.9263 299.887191,0.9493 300.59471,0.9488 C300.695023,0.8818 301.004841,0.7613 300.233405,0.7688" id="Fill-47" fill="#231815"></path>
                        <path d="M302.908752,0.82815 C302.871467,0.83315 302.822642,0.83565 302.788021,0.84015 C302.861702,0.85865 302.922068,0.86415 302.908752,0.82815" id="Fill-49" fill="#231815"></path>
                        <path d="M291.810371,0.88305 C291.847655,0.89455 291.878726,0.90955 291.916898,0.92205 C291.924888,0.90955 291.931102,0.89755 291.940867,0.88505 L291.810371,0.88305 Z" id="Fill-51" fill="#231815"></path>
                        <path d="M300.715441,0.98855 C301.256068,1.03005 301.580089,0.97755 301.888131,0.91155 C301.483326,0.93305 301.055441,0.94705 300.59471,0.94855 C300.549436,0.97905 300.541446,0.99905 300.715441,0.98855" id="Fill-53" fill="#231815"></path>
                        <path d="M296.23259,0.6687 C296.514,0.7132 296.83447,0.7512 297.170031,0.7862 C296.894836,0.7187 296.332016,0.6132 296.23259,0.6687" id="Fill-55" fill="#231815"></path>
                        <path d="M302.605326,0.78125 C302.632846,0.77775 302.657702,0.77375 302.686997,0.77175 C302.509452,0.72575 302.531645,0.74825 302.605326,0.78125" id="Fill-57" fill="#231815"></path>
                        <path d="M302.605326,0.78125 C302.327467,0.81225 302.108198,0.86475 301.888042,0.91175 C302.217389,0.89475 302.522768,0.87175 302.788198,0.84025 C302.721619,0.82525 302.654151,0.80225 302.605326,0.78125" id="Fill-59" fill="#231815"></path>
                        <path d="M289.806945,2.25465 C289.901932,2.05665 291.324961,1.87365 292.553577,2.08615 C293.761775,1.93765 292.970809,1.28615 291.917076,0.92165 C291.878903,1.00815 291.878903,1.08815 290.636084,1.20515 C291.07107,1.31315 293.395144,1.45815 292.344961,1.63715 C290.698225,1.73915 290.995614,1.56715 290.194883,1.46265 C290.87577,1.70915 288.098956,1.82165 288.457598,2.18415 L289.901932,2.05665 C289.929452,2.11315 289.405692,2.20315 289.806945,2.25465" id="Fill-61" fill="#231815"></path>
                        <path d="M294.286334,0.94215 L294.797666,0.91765 C294.214428,0.88315 293.797196,0.80415 293.028423,0.64915 C292.177091,0.74565 292.000433,0.81915 291.940956,0.88515 L294.461217,0.91265 L294.286334,0.94215 Z" id="Fill-63" fill="#231815"></path>
                        <path d="M297.095995,0.91675 C296.696517,1.13225 295.467013,1.22375 296.219807,1.45725 C297.721843,1.44225 297.271765,1.27725 298.169258,1.18375 C295.74576,1.23725 298.865238,1.06325 297.114637,0.94125 C297.591347,0.90475 298.019232,0.89375 298.423149,0.88475 C297.987274,0.85825 297.566491,0.82575 297.169676,0.78625 C297.191869,0.79125 297.207849,0.79475 297.225603,0.79975 L297.237144,0.79875 C297.237144,0.80025 297.23448,0.80075 297.23448,0.80225 C297.338345,0.82925 297.372966,0.84525 297.255786,0.82975 C297.247796,0.83275 297.218501,0.83325 297.205185,0.83425 C297.188319,0.86425 297.143932,0.89025 297.095995,0.91575 C296.393802,0.87125 296.985029,0.85975 297.205185,0.83425 C297.213175,0.82375 297.231817,0.81325 297.23448,0.80225 C297.231817,0.80125 297.228266,0.80025 297.225603,0.79975 L294.797666,0.91725 C295.311661,0.94775 295.955264,0.94125 297.095995,0.91675" id="Fill-65" fill="#231815"></path>
                        <path d="M309.278914,1.99755 C309.203457,1.97855 309.207008,1.96305 309.200794,1.94755 C309.043666,1.97405 308.984188,1.99205 309.278914,1.99755" id="Fill-67" fill="#231815"></path>
                        <path d="M308.279332,1.86745 C308.45599,1.83745 308.603352,1.75145 309.177713,1.77345 C309.674841,1.83795 309.17505,1.87695 309.200794,1.94745 C309.547008,1.89045 310.410768,1.79295 309.326851,1.68845 L309.154632,1.71745 C308.178131,1.64345 306.921995,1.37495 307.092439,1.34545 C307.377399,1.53895 307.629514,1.67745 308.279332,1.86745" id="Fill-69" fill="#231815"></path>
                        <path d="M302.618287,1.447 L300.59693,1.5525 L301.625807,1.739 L301.573431,1.627 C302.723039,1.671 302.475363,1.533 302.618287,1.447" id="Fill-71" fill="#231815"></path>
                        <polygon id="Fill-73" fill="#231815" points="291.57894 0.7759 291.847922 0.5484 290.679671 0.8694"></polygon>
                        <polygon id="Fill-75" fill="#231815" points="288.952151 0.8032 289.048914 0.6052 288.355598 0.7247"></polygon>
                        <path d="M140.701943,3.2583 L140.108052,3.3143 C140.388574,3.2973 140.569671,3.2783 140.701943,3.2583" id="Fill-77" fill="#231815"></path>
                        <path d="M145.002721,3.27175 L145.10836,3.17425 C144.908621,3.22825 144.82695,3.26775 145.002721,3.27175" id="Fill-79" fill="#231815"></path>
                        <path d="M224.430627,0.82545 C223.565091,0.64045 222.599243,0.35395 222.703995,0.57645 L222.969426,0.79345 C223.573969,0.75445 224.037363,0.77895 224.430627,0.82545" id="Fill-81" fill="#231815"></path>
                        <path d="M180.2427,2.1206 C180.325258,2.1416 180.41048,2.1641 180.495702,2.1866 C180.705206,2.1121 180.904057,2.0436 181.079828,1.9791 C180.828601,2.0236 180.542752,2.0706 180.2427,2.1206" id="Fill-83" fill="#231815"></path>
                        <path d="M179.632386,3.0183 L178.491655,2.8783 C178.748209,2.9273 179.114841,2.9738 179.632386,3.0183" id="Fill-85" fill="#231815"></path>
                        <path d="M117.214423,3.4883 L116.521107,3.7093 C117.605911,3.7078 117.128313,3.5968 117.214423,3.4883" id="Fill-87" fill="#231815"></path>
                        <path d="M262.045457,0.88305 C261.298877,0.79855 260.704099,0.76255 260.182115,0.75205 C261.082272,0.87655 261.807546,1.06355 262.045457,0.88305" id="Fill-89" fill="#231815"></path>
                        <path d="M142.394131,0.9563 C142.03105,0.9958 141.875697,1.0398 141.88635,1.0883 C142.260084,1.0508 142.471363,1.0093 142.394131,0.9563" id="Fill-91" fill="#231815"></path>
                        <path d="M258.025556,0.75295 C258.15694,0.77445 258.286548,0.78545 258.420595,0.80395 C258.966548,0.76745 259.516052,0.73845 260.182736,0.75245 C259.518715,0.65945 258.757044,0.60245 258.025556,0.75295" id="Fill-93" fill="#231815"></path>
                        <path d="M32.031906,3.3086 C31.969765,3.2986 31.8951958,3.2941 31.8392689,3.2826 C31.8206266,3.3121 31.9058486,3.3136 32.031906,3.3086" id="Fill-95" fill="#231815"></path>
                        <path d="M7.21536815,1.11965 C7.45949347,1.10615 7.85808355,1.10615 8.23448042,1.10315 C8.05072063,1.08815 7.74356658,1.08965 7.21536815,1.11965" id="Fill-97" fill="#231815"></path>
                        <path d="M278.381791,0.7085 C278.939285,0.6945 278.470564,0.6845 278.381791,0.7085" id="Fill-99" fill="#231815"></path>
                        <path d="M281.09176,1.5664 C280.972804,1.5909 280.883144,1.6219 280.86894,1.6719 C280.915102,1.6194 280.992334,1.5864 281.09176,1.5664" id="Fill-101" fill="#231815"></path>
                        <path d="M252.475478,2.10305 C252.459499,2.10305 252.44707,2.10255 252.42754,2.10255 C252.593546,2.14455 252.565138,2.13655 252.475478,2.10305" id="Fill-103" fill="#231815"></path>
                        <path d="M279.220073,0.80715 C279.011457,0.78065 278.769995,0.75815 278.507227,0.74265 C278.622632,0.75965 278.839238,0.78065 279.220073,0.80715" id="Fill-105" fill="#231815"></path>
                        <path d="M279.107332,0.7046 C279.299969,0.7146 279.450883,0.7196 279.594695,0.7256 C279.664825,0.6896 279.602684,0.6666 279.107332,0.7046" id="Fill-107" fill="#231815"></path>
                        <path d="M277.605828,0.7202 C277.923634,0.7167 278.221023,0.7272 278.50776,0.7427 C278.398569,0.7282 278.352407,0.7157 278.381702,0.7087 C278.21836,0.7117 277.987551,0.7162 277.605828,0.7202" id="Fill-109" fill="#231815"></path>
                        <path d="M77.6732219,2.72805 C77.6359373,2.72105 77.5942141,2.71705 77.5533786,2.70755 C76.9914465,2.79755 77.238235,2.78305 77.6732219,2.72805" id="Fill-111" fill="#231815"></path>
                        <path d="M209.929582,3.0781 C209.955326,3.0761 209.96953,3.0701 209.992611,3.0676 C209.966867,3.0656 209.934021,3.0626 209.91094,3.0601 L209.929582,3.0781 Z" id="Fill-113" fill="#231815"></path>
                        <path d="M207.927843,3.23975 C208.780063,2.96975 209.264762,3.00275 209.910141,3.06025 L209.247896,2.43475 L207.927843,3.23975 Z" id="Fill-115" fill="#231815"></path>
                        <path d="M71.7218016,1.1045 L72.0884334,1.1675 C71.2601828,1.237 71.4918799,1.1745 71.7218016,1.1045 M274.160287,1.0095 C274.348486,0.976 274.336057,0.9425 274.256162,0.9085 C274.12389,0.9695 273.701332,0.974 273.219295,0.957 C273.352454,1.02 273.59658,1.0635 274.160287,1.0095 M272.274752,0.905 C272.256997,0.9085 272.244569,0.9115 272.231253,0.9165 C271.323107,0.8225 271.645352,0.8595 272.274752,0.905 M183.335013,2.584 C183.032298,2.664 182.564465,2.6245 182.036266,2.533 C182.419765,2.5135 182.852977,2.5225 183.335013,2.584 M151.407859,3.165 C151.000392,3.2155 150.189008,3.372 149.891619,3.2295 C150.355013,2.953 150.713655,3.0855 151.407859,3.165 M130.404204,3.321 L131.810366,3.5155 C130.113916,3.8365 128.887076,3.726 130.205352,4 C130.404204,3.321 135.668433,3.9305 135.863734,3.252 L136.790522,3.395 C136.525091,3.388 136.48248,3.428 136.219713,3.4215 C138.021802,3.7465 137.558407,2.9305 139.879817,3.027 C140.688538,3.079 141.254021,3.1775 140.701854,3.2585 L142.50483,3.0905 C143.029478,3.1035 142.900757,3.2215 142.378773,3.2085 L145.128068,3.1545 L145.10765,3.1745 C145.500026,3.0675 146.38953,2.903 146.823629,2.833 C147.522272,2.9305 146.472977,2.905 146.65141,2.99 L148.174752,2.825 C148.794386,3.001 147.532037,3.172 146.480966,3.1465 C147.902219,3.8245 147.744204,2.976 150.812193,3.372 L149.374961,3.458 C150.301749,3.8435 151.423838,3.7035 153.049269,3.944 C152.663107,3.8185 149.794856,3.3385 151.447807,3.1695 C151.912977,3.2205 152.527285,3.245 153.418564,3.1085 C153.426554,3.35 154.297415,3.2905 155.38577,3.277 L155.312089,3.5965 C156.489217,3.5045 156.396005,3.3415 157.089321,3.1975 C158.401384,3.229 158.673029,3.477 158.981958,3.6855 C161.084099,3.7365 157.53141,3.2885 160.018825,3.228 C161.766762,3.3505 162.993603,3.2195 165.084204,3.0285 C166.307493,3.1385 164.871149,3.224 165.309687,3.3155 L166.394491,3.0605 C166.659034,3.0665 166.573812,3.145 166.530313,3.1845 C167.443786,3.0855 166.60577,2.865 168.042115,2.778 C168.429164,2.4255 170.991149,3.2925 172.769269,2.8925 C173.206919,2.9835 172.557102,3.0885 172.691149,3.2125 C175.130627,2.95 174.782637,3.0215 176.785352,2.6685 L178.491567,2.8785 C177.238094,2.638 178.840444,2.354 180.243055,2.1205 C179.798303,2.0045 179.418355,1.903 179.163577,1.8545 L181.40154,1.683 C181.672298,1.7355 181.446815,1.8455 181.080183,1.979 C181.232872,1.9525 181.377572,1.9265 181.490313,1.9025 C182.291044,2.0205 181.875587,2.205 181.302115,2.384 C181.029582,2.321 180.758825,2.2535 180.496057,2.1865 C179.943003,2.381 179.425457,2.596 179.540862,2.783 C179.686449,2.7465 179.966084,2.7145 180.275013,2.697 C180.130313,2.7495 180.037102,2.7965 180.104569,2.8285 C180.180026,2.8625 180.414386,2.7915 180.780131,2.71 L181.288799,3.0665 L181.413081,2.925 L184.342585,3.148 C186.437624,2.789 188.261018,2.261 191.588225,2.1135 C190.762637,2.375 191.410679,2.5405 191.365405,2.8505 C190.457258,2.5225 188.789217,2.99 187.06436,2.923 C187.964517,2.9575 187.766554,3.105 187.53752,3.1565 L190.612611,2.8585 C190.543368,3.112 191.265979,3.0485 192.069373,3.153 C191.461279,2.6525 194.361488,2.8195 195.612298,2.666 C195.68953,2.834 195.389478,3.006 193.863473,2.9655 C195.547493,3.3425 196.040183,2.377 197.693133,2.6975 C197.320287,2.7015 197.118773,2.676 196.97141,2.761 C197.842272,2.612 199.970157,2.73 199.470366,2.8765 L199.098407,2.88 C201.572507,2.9395 206.629896,2.884 206.999191,2.4585 C207.024935,2.5135 206.67517,2.971 206.526031,3.057 L210.940705,1.626 C210.55188,1.9915 212.045039,2.8615 209.992611,3.0675 C210.582063,3.1195 211.310888,3.1805 212.55282,3.0515 C212.150679,2.9995 211.551462,2.5235 212.100078,2.49 C213.608329,2.8965 213.14671,2.7075 215.005614,3.054 C214.402846,2.976 215.072193,2.403 216.023838,2.4215 C215.875587,2.507 216.103734,2.987 215.755744,3.0465 L218.125091,2.484 C217.532977,2.5855 218.020339,2.9605 218.551201,3.1195 C218.3053,3.0095 220.600078,3.13 221.230366,3.074 L220.227232,2.944 C222.901958,3.029 222.869112,2.153 225.52342,2.1825 C225.202063,2.299 224.729791,2.8975 226.079138,2.9685 C226.698773,2.68 228.818668,1.583 231.167598,1.3615 L231.617676,1.526 L233.419765,1.3385 C232.297676,1.7715 229.148903,2.6835 227.430261,3.0385 C228.430731,3.1685 227.70812,3.2325 229.208381,3.2175 C229.737467,3.372 228.390783,3.4515 227.949582,3.4605 L231.440131,3.5605 C231.285666,3.224 234.10953,3.223 233.977258,2.943 L230.184883,3.2915 C230.032193,2.956 232.377572,2.3375 234.850783,2.3965 C235.480183,2.5305 234.380287,2.995 234.432663,3.107 C234.753133,2.9915 236.779817,2.886 237.007076,2.9685 L235.956893,3.148 C237.334648,3.2745 238.205509,2.7025 239.859347,3.023 C240.430157,3.0445 241.564674,3.456 241.663211,3.257 C240.731984,2.8735 240.55,1.687 241.170522,1.399 C241.371149,1.425 244.169269,1.7655 244.821749,1.955 C245.761854,2.256 243.410261,2.672 244.210104,2.93 C244.244726,2.8385 244.764047,2.725 244.980653,2.6885 C245.580757,2.767 244.732977,2.973 246.036162,2.9315 C246.253655,2.591 248.686919,2.9605 246.652245,2.6435 C247.927023,2.546 248.007807,2.7135 249.503629,2.6985 C249.027807,2.4785 250.848538,1.949 252.125091,1.852 C252.049634,1.9385 252.337258,2.0515 252.475744,2.103 C255.089217,2.134 256.491828,2.2885 258.928642,2.2915 C259.153238,2.374 260.32859,2.474 259.828799,2.6205 C260.179452,2.5605 260.501697,2.445 261.252715,2.4365 C262.706815,2.731 259.577572,2.4825 260.686345,2.8365 C260.780444,2.6385 262.629582,2.563 263.700183,2.4395 C263.370836,2.1335 261.226084,2.381 260.154595,2.5045 C260.149269,2.0825 262.016162,1.6405 264.563055,1.4455 C266.587076,1.341 265.440131,1.7185 265.792559,1.658 C269.593812,1.732 269.030992,0.9215 272.188642,1.226 C273.441227,1.4945 272.244569,1.7605 272.523316,1.9545 C270.873029,2.0565 269.990627,1.784 268.872977,1.7945 L270.248956,1.922 C269.724308,2.011 268.624413,2.079 268.024308,2.001 C269.074491,2.2425 274.447911,2.0475 277.380966,2.2705 C277.902063,2.1805 278.802219,2.087 278.376997,1.979 L277.449321,2.0165 C276.595326,1.8 279.194595,1.717 278.020131,1.6155 C279.265614,1.463 280.661123,1.2235 282.413499,1.346 L282.742846,1.653 C282.705561,1.563 281.597676,1.47 281.104987,1.5635 C281.835587,1.4275 283.793029,1.9785 284.592872,1.577 L283.365144,1.365 C284.615065,1.2105 286.159713,0.8855 287.713238,0.982 C287.006606,0.679 287.355483,1.0165 286.252037,0.6625 C287.209008,1.103 282.277676,0.644 283.815222,1.107 C282.68248,0.696 281.85423,0.9325 280.374386,0.582 C280.419661,0.683 280.898146,0.7755 279.594961,0.7255 C279.535483,0.755 279.396997,0.7925 279.308225,0.8145 C279.268277,0.812 279.254073,0.8105 279.220339,0.807 C279.246084,0.811 279.265614,0.8155 279.292245,0.819 C279.235431,0.834 279.230104,0.8375 279.318877,0.8235 C279.629582,0.8675 279.881697,0.9205 279.982898,0.977 C279.336632,1.209 277.262898,1.202 276.561593,1.322 C275.787493,1.274 276.884726,1.206 276.462167,1.098 L275.414648,1.278 C275.310783,1.053 273.358668,0.905 275.182063,0.773 L273.540653,0.763 C272.574804,0.637 271.245875,0.587 270.426501,0.6815 C269.652402,0.633 268.471723,0.93 269.146397,0.7545 L266.57376,0.8935 L266.548903,0.8375 C264.010888,0.809 261.323734,1.209 258.420862,0.804 C257.565979,0.8605 256.682689,0.93 255.252559,0.866 L254.973812,0.672 C253.87658,0.74 251.677676,0.4775 251.206292,0.68 C250.02295,0.157 245.880809,0.566 243.950888,0.473 L243.878094,0.727 C242.549164,0.7125 241.276162,0.7845 239.626762,0.886 L239.727963,1.1105 C238.30671,1.2945 236.072298,0.951 233.823681,0.974 C233.977258,0.888 234.546292,0.9105 234.951097,0.9625 C232.263943,0.456 229.282063,1.331 226.846136,0.962 C226.238042,1.0435 225.798616,1.0155 225.372507,0.959 C225.429321,0.9585 225.480809,0.9545 225.52342,0.9475 C225.461279,0.945 225.368956,0.9445 225.273969,0.945 C225.005875,0.9065 224.729791,0.8615 224.430627,0.8255 C224.685405,0.88 224.928642,0.925 225.140809,0.9455 C224.672089,0.95 223.961906,0.978 223.265039,1.034 L222.968538,0.7935 C222.912611,0.7965 222.866449,0.796 222.808747,0.8005 C222.125196,0.7115 222.259243,0.9145 222.623211,1.0955 C222.272559,1.135 221.952089,1.1825 221.702637,1.2405 C221.147807,0.852 219.875692,1.3715 219.119347,0.957 C218.649739,1.159 215.619034,1.109 215.247963,1.5345 C215.223995,1.479 215.01893,1.4525 215.394439,1.449 C214.618564,1.4005 213.842689,1.3525 213.14671,1.472 L212.817363,1.166 L211.123577,1.5775 C210.093812,1.391 209.666815,1.2825 210.68859,1.047 C208.220705,1.4095 208.686762,1.1835 206.586397,1.5425 L206.689373,1.3445 C205.939243,1.3525 204.739034,1.6175 204.28718,1.454 C202.608486,1.0775 195.981593,1.402 191.673446,1.0525 C192.508799,1.635 189.669843,0.791 189.498512,1.2425 C189.248172,1.105 188.64718,1.027 189.345822,0.907 C187.146919,1.0425 186.041697,0.6885 184.523681,1.0695 C184.272454,0.931 184.994178,0.8675 184.77047,0.7855 C184.593812,0.8155 184.071828,0.9055 183.842794,0.8235 C183.618198,0.741 184.165039,0.7075 184.513029,0.6475 C182.267076,0.6705 182.039817,1.0955 181.875587,1.494 C180.73752,1.3055 180.170261,1.332 179.348225,1.5935 C178.952298,1.463 178.290052,1.3265 179.686449,1.28 C178.900809,1.2605 174.889164,1.0885 174.809269,1.408 C174.563368,1.327 173.712037,1.3845 173.505196,1.4215 C171.743055,1.4025 171.58859,1.3735 169.858407,1.404 L170.337781,1.456 C169.655117,1.8415 168.899661,1.542 167.505039,1.5885 L167.544987,1.549 C164.346501,1.271 166.164569,1.682 163.009582,1.365 L163.180914,1.6045 C162.886188,2.1205 160.385457,1.3005 158.554073,1.4975 L159.215431,1.6345 C158.214961,1.811 156.419974,0.933 155.415065,0.8685 C155.196684,0.8235 155.761279,0.7965 156.066658,0.7635 C153.437206,0.459 155.72577,1.0775 153.766554,1.1505 C153.405248,0.981 154.232611,0.7195 152.913446,0.688 C152.256527,0.551 149.088225,1.2385 147.288799,0.9135 C147.685614,1.044 148.078877,1.1745 147.168956,1.2725 C145.773446,1.319 143.397885,0.779 142.138198,1.1905 C141.960653,1.155 141.893185,1.1205 141.886084,1.088 C140.819922,1.1945 138.420392,1.2645 137.778564,1.488 C136.793185,0.6595 131.149008,1.8905 131.172977,1.1265 L127.89282,1.1675 L127.97893,1.0895 C125.882115,1.039 125.140862,1.222 124.403159,1.4055 C123.91846,1.3535 124.272663,1.282 124.312611,1.242 C121.249948,1.088 120.944569,1.1205 118.376371,1.501 L118.109164,1.2535 C117.413185,1.3975 113.680287,0.865 110.675326,1.154 C110.705509,1.1255 110.766762,1.0775 111.005561,1.0425 C107.625091,1.3335 102.913029,0.355 101.67376,1.258 L99.4437859,1.48 C102.329791,1.5505 99.0132376,1.872 100.201018,2.0215 C99.0656136,2.0745 97.266188,1.7495 98.6608094,1.703 L98.8791906,1.7485 C99.3914099,1.278 95.2927676,1.5815 95.3708877,1.261 C89.691201,1.2845 84.1562141,1.024 78.8369452,1.004 L79.4494778,1.3695 L77.5941253,1.3485 C77.1067624,1.2635 76.9398695,1.0625 78.2643603,1.0775 C77.5674935,0.8705 76.0441514,1.251 76.0059791,1.331 C73.413812,1.1825 77.0179896,0.9045 76.2234726,0.8955 L75.1439948,0.923 L75.3872324,0.9655 C74.5128198,1.115 74.4346997,1.2735 72.8438903,1.2555 C71.8372063,1.182 72.3272324,1.03 71.9313055,1.0155 C71.9330809,0.99 71.7990339,0.9775 71.3232115,1.005 L68.9849347,0.974 L69.9197128,1.2625 C68.8837337,1.405 67.7216971,1.2475 68.8002872,1.5745 C67.2174674,1.0705 60.0801305,1.3935 59.1080679,1.237 C57.6566319,1.4475 56.2238381,1.444 54.4492689,1.4185 C54.89047,1.4785 55.1541253,1.803 53.6236815,1.7635 C54.1838381,1.0935 50.8211227,1.4725 49.584517,0.9905 C50.6897389,1.3105 45.2328721,1.0695 46.9674935,1.5235 C45.6900522,1.469 46.8893734,1.2725 45.9208616,1.115 C42.8812794,1.3745 39.2220627,0.9465 35.4643081,1.034 C35.405718,1.122 36.0351175,1.2565 35.2290601,1.387 L33.2449869,0.9475 C32.5037337,0.9905 32.5623238,1.455 31.2067624,1.15 C31.397624,1.224 31.6834726,1.3355 31.1854569,1.3635 C23.8253003,0.935 16.1446736,1.7145 8.67,0.9095 C9.68201044,1.08 9.00733681,1.0965 8.23412533,1.103 C8.73657963,1.144 8.22258486,1.3205 8.32201044,1.4395 L5.1918799,1.1085 C4.62195822,1.439 1.83715405,1.131 1.51046997,1.447 L2.50117493,1.39 C1.1837859,1.7635 4.34587467,2.2195 4.15234987,2.6985 C5.6286423,2.2745 8.04415144,3.327 10.4649869,2.7195 C10.9993995,2.8175 10.0086945,2.874 10.2954308,2.985 C10.9088512,2.78 11.6501044,2.737 13.0234204,2.829 L12.8680679,2.88 C16.7270235,2.83 18.3817493,3.032 22.7165274,3.167 L22.3951697,2.93 C23.3263969,2.962 23.5234726,3.036 23.9593473,3.0955 C25.0281723,2.7365 21.3432115,3.075 22.3170496,2.679 C23.5527676,3.161 28.8862402,2.6865 29.720705,3.234 C31.1543864,3.237 29.3008094,2.96 30.7336031,2.963 L31.1135509,3.1115 L31.4757441,2.9205 C32.4149608,2.952 32.8890078,3.137 32.9236292,3.2625 C32.6963708,3.248 32.2755875,3.298 32.0323499,3.3085 C33.2503133,3.483 35.4669713,3.249 35.8850914,3.306 L34.5091123,3.2145 C38.4195561,3.076 43.1946475,3.2705 46.9728198,2.969 L46.6860836,2.8575 C49.571201,2.6505 48.9968407,2.98 52.1651436,2.8845 L52.0497389,2.911 C52.6844648,2.8 53.53047,2.7435 54.3977807,2.7565 C53.5979373,2.887 55.9033681,3.011 54.8540731,3.1555 C57.9824282,2.9335 56.4013838,2.981 58.4680157,2.566 L58.9438381,2.751 C59.6486945,2.5835 59.7072846,2.495 61.2901044,2.447 C59.9922454,2.606 62.2994517,2.7295 60.8462402,2.94 C64.1654569,3.3455 65.7757963,2.5305 67.2991384,3.1235 C68.8233681,2.6105 64.4255614,2.8385 65.2795561,2.729 C64.564047,2.561 66.5383551,2.345 67.5796606,2.3965 C68.6404961,2.408 69.3835248,3.053 72.0511488,3.0435 C71.785718,3.041 71.7679634,3.08 71.5025326,3.0775 C72.5012272,3.2085 73.4590862,2.9005 74.6841514,3.113 C75.3703655,2.8025 76.2740731,3.131 76.4720366,2.735 L74.0245692,2.8265 C75.4120888,2.723 76.712611,2.26 78.9985117,2.4845 C78.8209661,2.5645 78.1400783,2.6695 77.6731332,2.728 C78.3415927,2.8445 78.9603394,2.6505 79.6527676,2.7705 C79.4548042,3.167 76.6788773,2.8565 75.1919321,3.1585 C75.9092167,3.326 78.0042559,2.872 77.2567885,3.301 C78.3309399,2.7555 79.8853525,3.3695 81.6927676,2.953 L81.573812,3.1905 C81.8587728,3.153 82.4517755,3.041 82.9781984,3.047 L82.0247781,3.3545 C83.4877546,3.0925 84.8450914,3.584 86.2477023,3.4415 C83.3102089,3.4485 85.5890078,3.1555 84.3470757,2.9825 C87.9698956,2.665 86.4296867,3.603 90.4866057,3.4895 C89.9379896,3.5225 88.4244125,3.3465 89.2837337,3.237 C90.0560574,3.2855 91.0760574,3.3765 91.5492167,3.501 C94.2372585,3.452 91.1373107,3.257 92.280705,3.1115 C93.195953,3.4005 93.6007572,2.9935 94.7787728,2.901 L94.7867624,3.1425 C97.8503133,3.297 95.5990339,2.6395 98.3563185,2.8265 L97.1907311,3.161 L98.6288512,3.0745 L98.3323499,3.349 C99.8956397,3.1455 100.383003,3.198 101.915222,3.275 C101.559243,3.105 102.114961,2.8375 103.47141,2.83 C104.397311,2.973 102.953864,3.059 104.876684,3.0245 C104.442585,3.1755 103.966762,3.365 103.129634,3.143 C103.044413,3.2215 102.701749,3.294 102.613864,3.372 C103.609896,3.5365 105.117258,3.4095 105.813238,3.407 C105.546031,3.398 105.225561,3.3855 105.061332,3.351 L107.847911,3.0165 C108.286449,3.107 107.93846,3.18 107.594021,3.251 C108.158616,3.225 108.549217,3.1145 109.379243,3.0935 C109.164413,3.2895 109.215901,3.492 108.041436,3.584 L110.696632,3.3665 C110.874178,3.452 112.059295,3.601 111.714856,3.673 C113.187598,3.7885 115.327023,3.2925 117.278251,3.445 C117.380339,3.4065 117.583629,3.3705 117.998198,3.3425 C119.833133,3.3865 121.458564,3.627 123.633499,3.3585 L124.866554,3.71 C126.570104,3.63 123.196736,3.267 126.032141,3.1345 C128.039295,3.0225 126.781384,3.4345 127.485352,3.532 C128.484047,3.355 130.219556,2.9945 132.064256,3.2805 C131.453499,3.3465 130.975013,3.2945 130.404204,3.321" id="Fill-117" fill="#231815"></path>
                        <path d="M179.714768,2.9143 C179.599363,2.8733 179.567405,2.8288 179.540773,2.7833 C179.380982,2.8238 179.377431,2.8708 179.714768,2.9143" id="Fill-119" fill="#231815"></path>
                        <path d="M117.3427,3.4475 C117.321394,3.4455 117.300089,3.4465 117.278783,3.445 C117.243274,3.459 117.224632,3.474 117.213979,3.4885 L117.3427,3.4475 Z" id="Fill-121" fill="#231815"></path>
                        <path d="M244.959347,3.0547 C244.57141,3.0202 244.353916,2.9757 244.210104,2.9302 C244.189687,2.9892 244.365457,3.0392 244.959347,3.0547" id="Fill-123" fill="#231815"></path>
                        <path d="M284.148564,0.5996 L282.941253,0.6621 C283.525379,0.6506 283.733995,0.7031 284.028721,0.7416 C284.002089,0.6851 283.771279,0.6036 284.148564,0.5996" id="Fill-125" fill="#231815"></path>
                        <path d="M294.629619,2.0923 C294.806277,2.0628 295.00424,2.0893 295.177347,2.0593 L295.12941,1.9468 C294.378392,1.9543 293.852856,2.0448 294.629619,2.0923" id="Fill-127" fill="#231815"></path>
                        <path d="M285.266836,1.4011 C285.361822,1.6041 286.119943,1.5351 286.965948,1.4976 C286.91446,1.4981 286.866522,1.5001 286.815922,1.4976 C287.065373,1.2136 286.164329,1.3076 285.266836,1.4011" id="Fill-129" fill="#231815"></path>
                        <path d="M287.161958,1.4907 C287.42295,1.4812 287.689269,1.4757 287.944047,1.4857 C288.042585,1.3717 287.62624,1.4617 287.161958,1.4907" id="Fill-131" fill="#231815"></path>
                        <path d="M276.550851,0.875 C276.951217,0.927 276.802078,0.6155 277.029337,0.698 C277.476752,0.44 274.354611,1.0105 276.550851,0.875" id="Fill-133" fill="#231815"></path>
                        <polygon id="Fill-135" fill="#231815" points="285.951718 2.0696 285.648115 1.8191 285.174068 2.0211"></polygon>
                        <path d="M279.272982,1.88575 L280.624104,1.95525 C280.603687,1.91325 280.775906,1.88825 280.987185,1.86975 C280.153608,1.86125 279.241023,1.81175 279.272982,1.88575" id="Fill-137" fill="#231815"></path>
                        <path d="M280.98683,1.86965 C281.420042,1.87465 281.832836,1.86915 282.075185,1.82815 C281.839937,1.83065 281.33482,1.83915 280.98683,1.86965" id="Fill-139" fill="#231815"></path>
                        <polygon id="Fill-141" fill="#231815" points="284.104355 2.1448 283.704877 2.0928 282.750569 2.0743"></polygon>
                        <path d="M264.74424,1.8374 L263.269723,1.9094 C263.118809,1.9949 263.52095,2.0474 264.070454,2.0134 C264.42377,1.9534 264.970611,1.9204 264.74424,1.8374" id="Fill-143" fill="#231815"></path>
                        <path d="M269.205431,2.52345 C268.806841,2.47145 268.780209,2.41545 268.554726,2.33295 L268.510339,2.64345 L269.205431,2.52345 Z" id="Fill-145" fill="#231815"></path>
                        <path d="M264.903676,2.59595 C264.756313,2.68195 262.763363,2.84345 264.632031,2.82395 C264.782057,2.73845 266.259238,2.66695 264.903676,2.59595" id="Fill-147" fill="#231815"></path>
                        <polygon id="Fill-149" fill="#231815" points="242.678418 2.20315 243.053927 2.19915 242.998888 1.69015"></polygon>
                        <path d="M223.089446,3.4214 C224.837384,3.5434 223.504903,3.1074 225.084172,3.2594 C225.494303,3.1394 223.792527,3.1354 224.214198,3.0314 C223.158689,3.1584 222.604747,3.0864 223.089446,3.4214" id="Fill-151" fill="#231815"></path>
                        <path d="M224.213843,3.03125 C224.382512,3.01125 224.561833,2.98675 224.751807,2.95375 C224.446428,2.98575 224.302616,3.01025 224.213843,3.03125" id="Fill-153" fill="#231815"></path>
                        <polygon id="Fill-155" fill="#231815" points="3.09755091 0.8462 1.97368668 0.7402 2.69896084 0.9112"></polygon>
                        <g id="Group-159" transform="translate(0.000000, 0.500000)">
                            <mask id="mask-4" fill="white">
                                <use xlink:href="#path-3"></use>
                            </mask>
                            <g id="Clip-158"></g>
                            <path d="M0.939749347,0.7239 L0.675206266,0.3994 L-0.000355091384,0.6929 C0.254422977,0.6789 0.747112272,0.6509 0.939749347,0.7239" id="Fill-157" fill="#231815" mask="url(#mask-4)"></path>
                        </g>
                        <g id="Group-162" transform="translate(153.577023, 3.500000)">
                            <mask id="mask-6" fill="white">
                                <use xlink:href="#path-5"></use>
                            </mask>
                            <g id="Clip-161"></g>
                            <path d="M0.952710183,0.31885 L1.03881984,0.24085 C0.863937337,0.15635 0.601169713,0.14985 0.0738590078,0.13685 L0.952710183,0.31885 Z" id="Fill-160" fill="#231815" mask="url(#mask-6)"></path>
                        </g>
                        <polygon id="Fill-163" fill="#231815" points="139.285838 3.57595 139.548606 3.58245 139.057692 3.28895"></polygon>
                        <g id="Group-167" transform="translate(126.057441, 3.500000)">
                            <mask id="mask-8" fill="white">
                                <use xlink:href="#path-7"></use>
                            </mask>
                            <g id="Clip-166"></g>
                            <path d="M0.434720627,0.4502 C0.956704961,0.4622 1.57012533,0.3972 2.09477285,0.4092 C0.956704961,0.4622 0.293571802,0.0842 0.434720627,0.4502" id="Fill-165" fill="#231815" mask="url(#mask-8)"></path>
                        </g>
                    </g>
                </g>
                <g id="Group-8" transform="translate(52.000000, 0.000000)">
                    <text id="活動辦法" font-family="DFNMing-W9-WIN-BF, DFNMingXBold-B5" font-size="20" font-weight="bold" letter-spacing="2" fill="#000000">
                        <tspan x="61" y="21">活動辦法</tspan>
                    </text>
                    <g id="Page-1">
                        <path d="M15.0650132,12.1663895 L15.0752763,12.1762095 L15.4700132,12.5690082 L18.6275132,15.7110049 L15.4700132,18.8530016 L15.0752763,19.2458003 L15.0650132,19.2564059 L11.5029079,15.7110049 L15.0650132,12.1663895 Z M15.4700132,0.992445172 C15.3385658,0.988517185 15.2075132,0.982625205 15.0752763,0.982232406 C15.0721184,0.982232406 15.0685658,0.981839607 15.0650132,0.981839607 C6.89001316,0.981839607 0.263171053,7.57614403 0.263171053,15.7110049 C0.263171053,23.8458658 6.89001316,30.4401702 15.0650132,30.4401702 C15.0685658,30.4401702 15.0721184,30.4397774 15.0752763,30.4397774 C15.2075132,30.4397774 15.3385658,30.4338854 15.4700132,30.4303502 C23.4571184,30.2158822 29.8668553,23.710743 29.8668553,15.7110049 C29.8668553,7.71165957 23.4571184,1.20652046 15.4700132,0.992445172 L15.4700132,0.992445172 Z" id="Fill-1" fill="#8E7D38"></path>
                        <g id="Group-5" transform="translate(0.000000, 0.194907)">
                            <mask id="mask-10" fill="white">
                                <use xlink:href="#path-9"></use>
                            </mask>
                            <g id="Clip-4"></g>
                            <path d="M14.8017237,26.7106252 C8.26211842,26.7106252 2.96040789,21.4345532 2.96040789,14.9270573 C2.96040789,8.41956137 8.26211842,3.14388216 14.8017237,3.14388216 L14.8119868,3.14388216 L14.8119868,0.198284779 C14.8088289,0.198284779 14.8052763,0.19789198 14.8017237,0.19789198 C6.62711842,0.19789198 -0.000118421053,6.7921964 -0.000118421053,14.9270573 C-0.000118421053,23.0619182 6.62711842,29.6562226 14.8017237,29.6562226 C14.8052763,29.6562226 14.8088289,29.6558298 14.8119868,29.6558298 L14.8119868,26.7102324 C14.8088289,26.7102324 14.8052763,26.7106252 14.8017237,26.7106252" id="Fill-3" fill="#D1B346" mask="url(#mask-10)"></path>
                        </g>
                        <path d="M14.8017237,20.8889165 L13.6854079,19.7780818 L10.1229079,16.2326809 L9.00619737,15.1218462 L10.1229079,14.0110115 L13.6854079,10.4660033 L14.8017237,9.35516858 L14.8119868,9.36538134 L14.8119868,3.33867103 L14.8017237,3.33867103 C8.26211842,3.33867103 2.96040789,8.61435025 2.96040789,15.1218462 C2.96040789,21.6297349 8.26211842,26.9054141 14.8017237,26.9054141 C14.8052763,26.9054141 14.8088289,26.9050213 14.8119868,26.9050213 L14.8119868,20.8787038 L14.8017237,20.8889165 Z" id="Fill-6" fill="#E2C66A"></path>
                        <polygon id="Fill-8" fill="#A5944A" points="14.8017237 18.6671293 11.2396184 15.1221211 14.8017237 11.5771129 14.8119868 11.5873257 14.8119868 9.3652635 14.8017237 9.35505074 13.6854079 10.4658854 10.1229079 14.0108936 9.00619737 15.1221211 10.1229079 16.2329558 13.6854079 19.777964 14.8017237 20.8887987 14.8119868 20.8785859 14.8119868 18.6569165"></polygon>
                        <path d="M15.2068816,0.403129296 C15.0754342,0.399201309 14.9447763,0.393702128 14.8121447,0.393309329 L14.8121447,3.33890671 C14.9447763,3.33929951 15.0758289,3.34440589 15.2068816,3.34872668 C21.5589868,3.56162357 26.6435921,8.74931588 26.6435921,15.1220818 C26.6435921,21.494455 21.5589868,26.6821473 15.2068816,26.8950442 C15.0758289,26.899365 14.9447763,26.9048642 14.8121447,26.905257 L14.8121447,29.8508543 C14.9447763,29.8508543 15.0754342,29.8445696 15.2068816,29.8410344 C23.1939868,29.6265663 29.6041184,23.1214272 29.6041184,15.1220818 C29.6041184,7.1223437 23.1939868,0.617204583 15.2068816,0.403129296" id="Fill-10" fill="#99883F"></path>
                        <path d="M15.2068816,3.34872668 C15.0758289,3.34440589 14.9447763,3.33929951 14.8121447,3.33890671 L14.8121447,9.36522422 L15.2068816,9.75802291 L15.9185921,10.4658462 L19.4806974,14.0112471 L20.5974079,15.1220818 L19.4806974,16.2329165 L15.9185921,19.7779247 L15.2068816,20.485748 L14.8121447,20.8785466 L14.8121447,26.905257 C14.9447763,26.9048642 15.0758289,26.899365 15.2068816,26.8950442 C21.5589868,26.6821473 26.6435921,21.494455 26.6435921,15.1220818 C26.6435921,8.74931588 21.5589868,3.56162357 15.2068816,3.34872668" id="Fill-12" fill="#D3B45B"></path>
                        <polygon id="Fill-14" fill="#8E7D38" points="19.4807368 14.01109 15.9186316 10.4660818 15.2069211 9.75825859 14.8121842 9.3654599 14.8121842 11.5871293 15.2069211 11.979928 18.3644211 15.1219247 15.2069211 18.2639214 14.8121842 18.6567201 14.8121842 20.8783895 15.2069211 20.4855908 15.9186316 19.7781604 19.4807368 16.2327594 20.5974474 15.1219247"></polygon>
                    </g>
                    <g id="Page-1-Copy-5" transform="translate(185.000000, 0.000000)">
                        <path d="M15.0650132,12.1663895 L15.0752763,12.1762095 L15.4700132,12.5690082 L18.6275132,15.7110049 L15.4700132,18.8530016 L15.0752763,19.2458003 L15.0650132,19.2564059 L11.5029079,15.7110049 L15.0650132,12.1663895 Z M15.4700132,0.992445172 C15.3385658,0.988517185 15.2075132,0.982625205 15.0752763,0.982232406 C15.0721184,0.982232406 15.0685658,0.981839607 15.0650132,0.981839607 C6.89001316,0.981839607 0.263171053,7.57614403 0.263171053,15.7110049 C0.263171053,23.8458658 6.89001316,30.4401702 15.0650132,30.4401702 C15.0685658,30.4401702 15.0721184,30.4397774 15.0752763,30.4397774 C15.2075132,30.4397774 15.3385658,30.4338854 15.4700132,30.4303502 C23.4571184,30.2158822 29.8668553,23.710743 29.8668553,15.7110049 C29.8668553,7.71165957 23.4571184,1.20652046 15.4700132,0.992445172 L15.4700132,0.992445172 Z" id="Fill-1" fill="#8E7D38"></path>
                        <g id="Group-5" transform="translate(0.000000, 0.194907)">
                            <mask id="mask-12" fill="white">
                                <use xlink:href="#path-11"></use>
                            </mask>
                            <g id="Clip-4"></g>
                            <path d="M14.8017237,26.7106252 C8.26211842,26.7106252 2.96040789,21.4345532 2.96040789,14.9270573 C2.96040789,8.41956137 8.26211842,3.14388216 14.8017237,3.14388216 L14.8119868,3.14388216 L14.8119868,0.198284779 C14.8088289,0.198284779 14.8052763,0.19789198 14.8017237,0.19789198 C6.62711842,0.19789198 -0.000118421053,6.7921964 -0.000118421053,14.9270573 C-0.000118421053,23.0619182 6.62711842,29.6562226 14.8017237,29.6562226 C14.8052763,29.6562226 14.8088289,29.6558298 14.8119868,29.6558298 L14.8119868,26.7102324 C14.8088289,26.7102324 14.8052763,26.7106252 14.8017237,26.7106252" id="Fill-3" fill="#D1B346" mask="url(#mask-12)"></path>
                        </g>
                        <path d="M14.8017237,20.8889165 L13.6854079,19.7780818 L10.1229079,16.2326809 L9.00619737,15.1218462 L10.1229079,14.0110115 L13.6854079,10.4660033 L14.8017237,9.35516858 L14.8119868,9.36538134 L14.8119868,3.33867103 L14.8017237,3.33867103 C8.26211842,3.33867103 2.96040789,8.61435025 2.96040789,15.1218462 C2.96040789,21.6297349 8.26211842,26.9054141 14.8017237,26.9054141 C14.8052763,26.9054141 14.8088289,26.9050213 14.8119868,26.9050213 L14.8119868,20.8787038 L14.8017237,20.8889165 Z" id="Fill-6" fill="#E2C66A"></path>
                        <polygon id="Fill-8" fill="#A5944A" points="14.8017237 18.6671293 11.2396184 15.1221211 14.8017237 11.5771129 14.8119868 11.5873257 14.8119868 9.3652635 14.8017237 9.35505074 13.6854079 10.4658854 10.1229079 14.0108936 9.00619737 15.1221211 10.1229079 16.2329558 13.6854079 19.777964 14.8017237 20.8887987 14.8119868 20.8785859 14.8119868 18.6569165"></polygon>
                        <path d="M15.2068816,0.403129296 C15.0754342,0.399201309 14.9447763,0.393702128 14.8121447,0.393309329 L14.8121447,3.33890671 C14.9447763,3.33929951 15.0758289,3.34440589 15.2068816,3.34872668 C21.5589868,3.56162357 26.6435921,8.74931588 26.6435921,15.1220818 C26.6435921,21.494455 21.5589868,26.6821473 15.2068816,26.8950442 C15.0758289,26.899365 14.9447763,26.9048642 14.8121447,26.905257 L14.8121447,29.8508543 C14.9447763,29.8508543 15.0754342,29.8445696 15.2068816,29.8410344 C23.1939868,29.6265663 29.6041184,23.1214272 29.6041184,15.1220818 C29.6041184,7.1223437 23.1939868,0.617204583 15.2068816,0.403129296" id="Fill-10" fill="#99883F"></path>
                        <path d="M15.2068816,3.34872668 C15.0758289,3.34440589 14.9447763,3.33929951 14.8121447,3.33890671 L14.8121447,9.36522422 L15.2068816,9.75802291 L15.9185921,10.4658462 L19.4806974,14.0112471 L20.5974079,15.1220818 L19.4806974,16.2329165 L15.9185921,19.7779247 L15.2068816,20.485748 L14.8121447,20.8785466 L14.8121447,26.905257 C14.9447763,26.9048642 15.0758289,26.899365 15.2068816,26.8950442 C21.5589868,26.6821473 26.6435921,21.494455 26.6435921,15.1220818 C26.6435921,8.74931588 21.5589868,3.56162357 15.2068816,3.34872668" id="Fill-12" fill="#D3B45B"></path>
                        <polygon id="Fill-14" fill="#8E7D38" points="19.4807368 14.01109 15.9186316 10.4660818 15.2069211 9.75825859 14.8121842 9.3654599 14.8121842 11.5871293 15.2069211 11.979928 18.3644211 15.1219247 15.2069211 18.2639214 14.8121842 18.6567201 14.8121842 20.8783895 15.2069211 20.4855908 15.9186316 19.7781604 19.4807368 16.2327594 20.5974474 15.1219247"></polygon>
                    </g>
                </g>
            </g>
        </g>
    </g>
</svg>