<?xml version="1.0" encoding="UTF-8"?>
<svg width="30px" height="34px" viewBox="0 0 30 34" version="1.1" xmlns="http://www.w3.org/2000/svg" xmlns:xlink="http://www.w3.org/1999/xlink">
    <!-- Generator: Sketch 41.1 (35376) - http://www.bohemiancoding.com/sketch -->
    <title>bottom_tab_3</title>
    <desc>Created with Sketch.</desc>
    <defs>
        <polygon id="path-1" points="0 32.6785714 30 32.6785714 30 0.313928571 0 0.313928571"></polygon>
    </defs>
    <g id="Page-1" stroke="none" stroke-width="1" fill="none" fill-rule="evenodd">
        <g id="Artboard-3" transform="translate(-189.000000, -45.000000)">
            <g id="Page-1" transform="translate(189.000000, 45.000000)">
                <polygon id="Fill-1" fill="#FFFFFF" points="17.6785714 32.3646964 0.535714286 32.3646964 0.535714286 3.436125 2.67857143 1.29326786 4.82142857 3.436125 6.96428571 1.29326786 9.10714286 3.436125 11.25 1.29326786 13.3928571 3.436125 15.5357143 1.29326786 17.6785714 3.436125 19.8214286 1.29326786 21.9642857 3.436125 21.9642857 28.0789821"></polygon>
                <polygon id="Fill-2" fill="#700019" points="19.821375 0.535607143 17.6785179 2.679 15.5356607 0.535607143 13.3928036 2.679 11.2499464 0.535607143 9.10708929 2.679 6.96423214 0.535607143 4.821375 2.679 2.67851786 0.535607143 -5.35714285e-05 3.21417857 -5.35714285e-05 32.90025 17.6785179 32.90025 17.6785179 31.8293571 1.071375 31.8293571 1.071375 3.65775 2.67851786 2.05114286 4.821375 4.19346429 6.96423214 2.05114286 9.10708929 4.19346429 11.2499464 2.05114286 13.3928036 4.19346429 15.5356607 2.05114286 17.6785179 4.19346429 19.821375 2.05114286 21.4285179 3.65775 21.4285179 28.0788214 22.4999464 28.0788214 22.4999464 3.21417857"></polygon>
                <polygon id="Fill-3" fill="#ACF0F2" points="17.6785714 32.3646964 17.6785714 28.0789821 21.9642857 28.0789821"></polygon>
                <g id="Group-36" transform="translate(0.000000, 0.221839)">
                    <path d="M18.2142857,28.3928571 L18.2142857,30.8496429 L20.6710714,28.3928571 L18.2142857,28.3928571 Z M17.6785714,32.6785714 C17.6094643,32.6785714 17.5398214,32.6657143 17.4733929,32.6378571 C17.2735714,32.5553571 17.1428571,32.3592857 17.1428571,32.1428571 L17.1428571,27.8571429 C17.1428571,27.5608929 17.3828571,27.3214286 17.6785714,27.3214286 L21.9642857,27.3214286 C22.1807143,27.3214286 22.37625,27.4516071 22.4592857,27.6519643 C22.5423214,27.8523214 22.49625,28.0826786 22.3430357,28.2358929 L18.0573214,32.5216071 C17.955,32.6239286 17.8178571,32.6785714 17.6785714,32.6785714 Z" id="Fill-4" fill="#700019"></path>
                    <path d="M6.96428571,9.64285714 C6.96428571,10.82625 6.00482143,11.7857143 4.82142857,11.7857143 C3.63803571,11.7857143 2.67857143,10.82625 2.67857143,9.64285714 C2.67857143,8.45946429 3.63803571,7.5 4.82142857,7.5 C6.00482143,7.5 6.96428571,8.45946429 6.96428571,9.64285714" id="Fill-6" fill="#FFB957"></path>
                    <path d="M5.35714286,11.4718393 L3.90696429,10.0216607 C3.6975,9.81219643 3.6975,9.473625 3.90696429,9.26416071 C4.11642857,9.05469643 4.455,9.05469643 4.66446429,9.26416071 L5.35714286,9.95683929 L7.12125,8.19273214 C7.33071429,7.98326786 7.66928571,7.98326786 7.87875,8.19273214 C8.08821429,8.40219643 8.08821429,8.74076786 7.87875,8.95023214 L5.35714286,11.4718393 Z" id="Fill-8" fill="#700019"></path>
                    <path d="M6.96428571,16.0714286 C6.96428571,17.2548214 6.00482143,18.2142857 4.82142857,18.2142857 C3.63803571,18.2142857 2.67857143,17.2548214 2.67857143,16.0714286 C2.67857143,14.8880357 3.63803571,13.9285714 4.82142857,13.9285714 C6.00482143,13.9285714 6.96428571,14.8880357 6.96428571,16.0714286" id="Fill-10" fill="#FFB957"></path>
                    <path d="M5.35714286,17.9004107 L3.90696429,16.4502321 C3.6975,16.2407679 3.6975,15.9021964 3.90696429,15.6927321 C4.11642857,15.4832679 4.455,15.4832679 4.66446429,15.6927321 L5.35714286,16.3854107 L7.12125,14.6213036 C7.33071429,14.4118393 7.66928571,14.4118393 7.87875,14.6213036 C8.08821429,14.8307679 8.08821429,15.1693393 7.87875,15.3788036 L5.35714286,17.9004107 Z" id="Fill-12" fill="#700019"></path>
                    <path d="M6.96428571,22.5 C6.96428571,23.6833929 6.00482143,24.6428571 4.82142857,24.6428571 C3.63803571,24.6428571 2.67857143,23.6833929 2.67857143,22.5 C2.67857143,21.3166071 3.63803571,20.3571429 4.82142857,20.3571429 C6.00482143,20.3571429 6.96428571,21.3166071 6.96428571,22.5" id="Fill-14" fill="#FFB957"></path>
                    <path d="M5.35714286,24.3289821 L3.90696429,22.8788036 C3.6975,22.6693393 3.6975,22.3307679 3.90696429,22.1213036 C4.11642857,21.9118393 4.455,21.9118393 4.66446429,22.1213036 L5.35714286,22.8139821 L7.12125,21.049875 C7.33071429,20.8404107 7.66928571,20.8404107 7.87875,21.049875 C8.08821429,21.2593393 8.08821429,21.5979107 7.87875,21.807375 L5.35714286,24.3289821 Z" id="Fill-16" fill="#700019"></path>
                    <mask id="mask-2" fill="white">
                        <use xlink:href="#path-1"></use>
                    </mask>
                    <g id="Clip-19"></g>
                    <polygon id="Fill-18" fill="#700019" mask="url(#mask-2)" points="9.64285714 9.10714286 19.2857143 9.10714286 19.2857143 8.03571429 9.64285714 8.03571429"></polygon>
                    <polygon id="Fill-20" fill="#700019" mask="url(#mask-2)" points="9.64285714 11.25 16.0714286 11.25 16.0714286 10.1785714 9.64285714 10.1785714"></polygon>
                    <polygon id="Fill-21" fill="#700019" mask="url(#mask-2)" points="9.64285714 15.5357143 19.2857143 15.5357143 19.2857143 14.4642857 9.64285714 14.4642857"></polygon>
                    <polygon id="Fill-22" fill="#700019" mask="url(#mask-2)" points="9.64285714 17.6785714 13.9285714 17.6785714 13.9285714 16.6071429 9.64285714 16.6071429"></polygon>
                    <polygon id="Fill-23" fill="#700019" mask="url(#mask-2)" points="9.64285714 21.9642857 19.2857143 21.9642857 19.2857143 20.8928571 9.64285714 20.8928571"></polygon>
                    <polygon id="Fill-24" fill="#700019" mask="url(#mask-2)" points="9.64285714 24.1071429 12.8571429 24.1071429 12.8571429 23.0357143 9.64285714 23.0357143"></polygon>
                    <polygon id="Fill-25" fill="#700019" mask="url(#mask-2)" points="13.9285714 24.1071429 17.1428571 24.1071429 17.1428571 23.0357143 13.9285714 23.0357143"></polygon>
                    <polygon id="Fill-26" fill="#FFFFFF" mask="url(#mask-2)" points="29.4642857 27.3214286 29.4642857 29.4642857 27.3214286 31.6071429 25.1785714 29.4642857 25.1785714 27.3214286"></polygon>
                    <polygon id="Fill-27" fill="#700019" mask="url(#mask-2)" points="24.6428571 26.7857143 25.7142857 26.7857143 25.7142857 5.35714286 24.6428571 5.35714286"></polygon>
                    <polygon id="Fill-28" fill="#700019" mask="url(#mask-2)" points="28.9285714 26.7857143 30 26.7857143 30 5.35714286 28.9285714 5.35714286"></polygon>
                    <polygon id="Fill-29" fill="#700019" mask="url(#mask-2)" points="27.3214286 32.3646964 24.6428571 29.686125 24.6428571 26.7857679 25.7142857 26.7857679 25.7142857 29.2425536 27.3214286 30.8496964 28.9285714 29.2425536 28.9285714 26.7857679 30 26.7857679 30 29.686125"></polygon>
                    <polygon id="Fill-30" fill="#4D5152" mask="url(#mask-2)" points="26.7857143 32.6785714 27.8571429 32.6785714 27.8571429 31.6071429 26.7857143 31.6071429"></polygon>
                    <polygon id="Fill-31" fill="#FFB957" mask="url(#mask-2)" points="25.7142857 26.25 28.9285714 26.25 28.9285714 5.89285714 25.7142857 5.89285714"></polygon>
                    <polygon id="Fill-32" fill="#700019" mask="url(#mask-2)" points="26.7857143 26.25 27.8571429 26.25 27.8571429 5.35714286 26.7857143 5.35714286"></polygon>
                    <polygon id="Fill-33" fill="#4D5152" mask="url(#mask-2)" points="25.7142857 27.3214286 28.9285714 27.3214286 28.9285714 26.25 25.7142857 26.25"></polygon>
                    <path d="M25.1785714,2.67857143 C25.1785714,1.79142857 25.8980357,1.07142857 26.7857143,1.07142857 L27.8571429,1.07142857 C28.7448214,1.07142857 29.4642857,1.79142857 29.4642857,2.67857143 L29.4642857,5.35714286 L25.1785714,5.35714286 L25.1785714,2.67857143 Z" id="Fill-34" fill="#FFFFFF" mask="url(#mask-2)"></path>
                    <path d="M25.7142857,4.82142857 L28.9285714,4.82142857 L28.9285714,2.67857143 C28.9285714,2.08767857 28.4480357,1.60714286 27.8571429,1.60714286 L26.7857143,1.60714286 C26.1948214,1.60714286 25.7142857,2.08767857 25.7142857,2.67857143 L25.7142857,4.82142857 Z M30,5.89285714 L24.6428571,5.89285714 L24.6428571,2.67857143 C24.6428571,1.49678571 25.6039286,0.535714286 26.7857143,0.535714286 L27.8571429,0.535714286 C29.0389286,0.535714286 30,1.49678571 30,2.67857143 L30,5.89285714 Z" id="Fill-35" fill="#700019" mask="url(#mask-2)"></path>
                </g>
            </g>
        </g>
    </g>
</svg>