<?xml version="1.0" encoding="UTF-8"?>
<svg width="98px" height="35px" viewBox="0 0 98 35" version="1.1" xmlns="http://www.w3.org/2000/svg" xmlns:xlink="http://www.w3.org/1999/xlink">
    <!-- Generator: Sketch 41.1 (35376) - http://www.bohemiancoding.com/sketch -->
    <title>btn_line_joinin</title>
    <desc>Created with Sketch.</desc>
    <defs>
        <polygon id="path-1" points="0 34.7586207 97.3417586 34.7586207 97.3417586 0.174275862 0 0.174275862"></polygon>
        <polygon id="path-3" points="0 34.8257241 97.3417586 34.8257241 97.3417586 0.24137931 0 0.24137931"></polygon>
    </defs>
    <g id="Page-1" stroke="none" stroke-width="1" fill="none" fill-rule="evenodd">
        <g id="Artboard" transform="translate(-93.000000, -319.000000)">
            <g id="btn_line_joinin" transform="translate(93.000000, 319.000000)">
                <g id="Group-3" transform="translate(0.000000, 0.067103)">
                    <mask id="mask-2" fill="white">
                        <use xlink:href="#path-1"></use>
                    </mask>
                    <g id="Clip-2"></g>
                    <path d="M91.0868241,0.174155172 L6.3033069,0.174155172 C2.84506552,0.169568966 0.00499655172,2.97005172 -7.24137931e-05,6.42925862 L-7.24137931e-05,28.4541552 C-0.00441724138,31.9138448 2.7963069,34.7536724 6.25503103,34.7587414 L91.0387897,34.7587414 C94.4977552,34.7626034 97.3368586,31.9626034 97.3419276,28.5026724 L97.3419276,6.47753448 C97.3469966,3.01808621 94.5465138,0.178982759 91.0868241,0.174155172" id="Fill-1" fill="#00B900" mask="url(#mask-2)"></path>
                </g>
                <path d="M29.8269276,16.0128138 C29.8269276,10.3785379 24.1786517,5.79474483 17.2353759,5.79474483 C10.2930655,5.79474483 4.64406552,10.3785379 4.64406552,16.0128138 C4.64406552,21.0639172 9.12358276,25.2940897 15.1744793,26.0940207 C15.5845828,26.1823655 16.1426517,26.3643655 16.2838586,26.7148483 C16.4105828,27.0329862 16.3668931,27.5319172 16.3244103,27.8534345 C16.3244103,27.8534345 16.1766862,28.7417103 16.1448241,28.9314345 C16.090031,29.2495724 15.8918586,30.176469 17.2353759,29.6099517 C18.5793759,29.0436759 24.4868931,25.3404345 27.1285483,22.2995379 L27.1278241,22.2995379 C28.9528931,20.2985034 29.8269276,18.2677793 29.8269276,16.0128138" id="Fill-4" fill="#FFFFFF"></path>
                <path d="M14.677069,13.2901276 L13.7938621,13.2901276 C13.6584483,13.2901276 13.5486207,13.3999552 13.5486207,13.5351276 L13.5486207,19.0214379 C13.5486207,19.1566103 13.6584483,19.2661966 13.7938621,19.2661966 L14.677069,19.2661966 C14.8124828,19.2661966 14.9223103,19.1566103 14.9223103,19.0214379 L14.9223103,13.5351276 C14.9223103,13.3999552 14.8124828,13.2901276 14.677069,13.2901276" id="Fill-6" fill="#00B900"></path>
                <path d="M20.7563517,13.2901276 L19.8731448,13.2901276 C19.7374897,13.2901276 19.6279034,13.3999552 19.6279034,13.5351276 L19.6279034,16.7944724 L17.1134552,13.3989897 C17.1079034,13.3903 17.1011448,13.3820931 17.0946276,13.3741276 C17.0939034,13.3736448 17.0931793,13.3729207 17.0929379,13.3726793 C17.0881103,13.3671276 17.0830414,13.3623 17.0782138,13.3574724 C17.0765241,13.3560241 17.0753172,13.3548172 17.0736276,13.353369 C17.0695241,13.3495069 17.0651793,13.3456448 17.0603517,13.3425069 C17.0584207,13.3405759 17.0562483,13.3391276 17.0540759,13.3374379 C17.0499724,13.3345414 17.0456276,13.3314034 17.0412828,13.3287483 C17.0391103,13.3270586 17.0366966,13.3256103 17.0340414,13.3244034 C17.0296966,13.3217483 17.0253517,13.3190931 17.0210069,13.3169207 C17.0183517,13.3157138 17.0156966,13.3145069 17.0132828,13.3133 C17.0086966,13.3111276 17.0041103,13.3089552 16.9990414,13.3072655 C16.9961448,13.3063 16.9939724,13.3050931 16.9910759,13.3046103 C16.9862483,13.3026793 16.9816621,13.3009897 16.9765931,13.2997828 C16.9739379,13.2988172 16.9710414,13.2983345 16.9681448,13.2976103 C16.9633172,13.2961621 16.958731,13.2951966 16.9539034,13.2944724 C16.9505241,13.2937483 16.9469034,13.2932655 16.9437655,13.2930241 C16.9394207,13.2920586 16.9350759,13.2918172 16.930731,13.2913345 C16.9266276,13.2908517 16.9222828,13.2906103 16.9179379,13.2906103 C16.9150414,13.2906103 16.9123862,13.2901276 16.9094897,13.2901276 L16.0262828,13.2901276 C15.890869,13.2901276 15.7810414,13.3999552 15.7810414,13.5351276 L15.7810414,19.0214379 C15.7810414,19.1566103 15.890869,19.2661966 16.0262828,19.2661966 L16.9094897,19.2661966 C17.0451448,19.2661966 17.1549724,19.1566103 17.1549724,19.0214379 L17.1549724,15.7630586 L19.6723172,19.1628862 C19.6894552,19.1872655 19.7109379,19.2073 19.7345931,19.223231 C19.7353172,19.2237138 19.7360414,19.2241966 19.7370069,19.2251621 C19.7420759,19.2283 19.7469034,19.2314379 19.7522138,19.2343345 C19.7546276,19.2357828 19.7565586,19.2369897 19.7589724,19.2381966 C19.7628345,19.2401276 19.7666966,19.2420586 19.7708,19.2439897 C19.7749034,19.2454379 19.7785241,19.2471276 19.782869,19.2488172 C19.7855241,19.2497828 19.7874552,19.2507483 19.7901103,19.2514724 C19.7959034,19.2536448 19.8012138,19.2553345 19.8067655,19.2570241 C19.8079724,19.2572655 19.8091793,19.2575069 19.8103862,19.2577483 C19.8301793,19.2630586 19.8511793,19.2661966 19.8731448,19.2661966 L20.7563517,19.2661966 C20.8920069,19.2661966 21.0015931,19.1566103 21.0015931,19.0214379 L21.0015931,13.5351276 C21.0015931,13.3999552 20.8920069,13.2901276 20.7563517,13.2901276" id="Fill-8" fill="#00B900"></path>
                <path d="M12.5481517,17.8923621 L10.1483586,17.8923621 L10.1483586,13.5352241 C10.1483586,13.3998103 10.038531,13.2899828 9.90311724,13.2899828 L9.01991034,13.2899828 C8.88449655,13.2899828 8.77466897,13.3998103 8.77466897,13.5352241 L8.77466897,19.0210517 L8.77466897,19.0212931 C8.77466897,19.0871897 8.80097931,19.1468103 8.84322069,19.1907414 C8.84418621,19.1919483 8.84515172,19.1933966 8.8466,19.1946034 C8.8478069,19.195569 8.84901379,19.1965345 8.85022069,19.1977414 C8.8943931,19.2402241 8.95377241,19.2662931 9.01942759,19.2662931 L9.01991034,19.2662931 L12.5481517,19.2662931 C12.6835655,19.2662931 12.7929103,19.1562241 12.7929103,19.0210517 L12.7929103,18.1376034 C12.7929103,18.002431 12.6835655,17.8923621 12.5481517,17.8923621" id="Fill-10" fill="#00B900"></path>
                <path d="M25.6336621,14.6639138 C25.7690759,14.6639138 25.8786621,14.5540862 25.8786621,14.4186724 L25.8786621,13.5357069 C25.8786621,13.4000517 25.7690759,13.2902241 25.6336621,13.2902241 L22.1054207,13.2902241 L22.1049379,13.2902241 C22.0388,13.2902241 21.9791793,13.3165345 21.9350069,13.3592586 C21.9340414,13.3602241 21.9328345,13.3611897 21.9321103,13.3619138 C21.9306621,13.3633621 21.9292138,13.3648103 21.9280069,13.3662586 C21.8862483,13.4101897 21.8601793,13.469569 21.8601793,13.5352241 L21.8601793,13.5357069 L21.8601793,19.0210517 L21.8601793,19.0212931 C21.8601793,19.0871897 21.8864897,19.1468103 21.928731,19.1907414 C21.9296966,19.1919483 21.9309034,19.1933966 21.9321103,19.1946034 C21.9330759,19.195569 21.9345241,19.1967759 21.935731,19.1977414 C21.9794207,19.2399828 22.0390414,19.2662931 22.1049379,19.2662931 L22.1054207,19.2662931 L25.6336621,19.2662931 C25.7690759,19.2662931 25.8786621,19.1562241 25.8786621,19.0210517 L25.8786621,18.1376034 C25.8786621,18.002431 25.7690759,17.8923621 25.6336621,17.8923621 L23.2341103,17.8923621 L23.2341103,16.9649828 L25.6336621,16.9649828 C25.7690759,16.9649828 25.8786621,16.8553966 25.8786621,16.7197414 L25.8786621,15.8365345 C25.8786621,15.7011207 25.7690759,15.5910517 25.6336621,15.5910517 L23.2341103,15.5910517 L23.2341103,14.6639138 L25.6336621,14.6639138 Z" id="Fill-12" fill="#00B900"></path>
                <mask id="mask-4" fill="white">
                    <use xlink:href="#path-3"></use>
                </mask>
                <g id="Clip-15"></g>
                <path d="M45.1741379,20.4066897 L47.005,20.4066897 L47.005,14.3582069 L45.1741379,14.3582069 L45.1741379,20.4066897 Z M48.070931,22.1914483 L47.005,22.1914483 L47.005,21.4612759 L45.1741379,21.4612759 L45.1741379,22.1914483 L44.1197931,22.1914483 L44.1197931,13.3038621 L48.070931,13.3038621 L48.070931,22.1914483 Z M40.8985862,11.7049655 L40.8985862,13.9526897 L43.2274138,13.9526897 C43.2274138,17.7302759 43.1694828,20.0593448 43.0538621,20.9514828 C42.9377586,21.8320345 42.3584483,22.2723103 41.3388621,22.2723103 C41.1534828,22.2723103 40.852,22.2493793 40.4348966,22.2143793 L40.157069,21.2063793 C40.5507586,21.2411379 40.887,21.2643103 41.1648276,21.2643103 C41.6516897,21.2643103 41.9413448,20.9862414 42.0224483,20.4532759 C42.0919655,19.9084828 42.1267241,18.1010345 42.1498966,15.0188621 L40.8985862,15.0188621 C40.829069,18.3906897 40.0759655,20.8587931 38.6274483,22.4345172 L37.8045862,21.7045862 C39.0908966,20.3142414 39.7628966,18.0778621 39.8092414,15.0188621 L38.0478966,15.0188621 L38.0478966,13.9526897 L39.8092414,13.9526897 L39.8092414,11.7049655 L40.8985862,11.7049655 Z" id="Fill-14" fill="#F3F3F2" mask="url(#mask-4)"></path>
                <path d="M52.7860103,13.1185069 L52.7860103,12.0523345 L55.3120448,12.0523345 C55.6248724,15.5634379 57.2121828,18.6456103 60.0858034,21.2875069 L59.4601483,22.2378172 C57.1194931,20.1286448 55.5901138,17.6953 54.871769,14.9377828 C54.0489069,18.0663 52.4731828,20.4880586 50.1325276,22.2144034 L49.4605276,21.2759207 C52.0094931,19.3987138 53.6665621,16.6757138 54.4199069,13.1185069 L52.7860103,13.1185069 Z" id="Fill-16" fill="#F3F3F2" mask="url(#mask-4)"></path>
                <path d="M68.3698207,16.4439655 L68.3698207,15.1115517 C68.9488897,14.589931 69.5168552,13.9645172 70.0498207,13.245931 L66.1797862,13.245931 L66.1797862,12.18 L71.3127172,12.18 L71.3127172,13.245931 C70.7684069,14.0222069 70.1543379,14.7523793 69.4707517,15.4475517 L69.4707517,16.4439655 L71.7300621,16.4439655 L71.7300621,17.5101379 L69.4707517,17.5101379 L69.4707517,20.9514828 C69.4707517,21.8088621 69.1345103,22.2377931 68.4854414,22.2377931 L66.7706828,22.2377931 L66.4810276,21.1947931 C66.9563034,21.1947931 67.4776828,21.2063793 68.0335793,21.2063793 C68.2539586,21.2063793 68.3698207,21.0094138 68.3698207,20.6154828 L68.3698207,17.5101379 L65.8553724,17.5101379 L65.8553724,16.4439655 L68.3698207,16.4439655 Z M64.4995448,14.8448276 L63.4220276,14.8448276 C63.1553034,15.9805172 62.8774759,16.9421724 62.5994069,17.7186897 C62.9701655,17.9735862 63.3177517,18.2284828 63.6305793,18.4602069 C64.1172,17.3942759 64.4068552,16.189069 64.4995448,14.8448276 L64.4995448,14.8448276 Z M64.0245103,11.6583793 C63.8970621,12.4233103 63.7696138,13.130069 63.6421655,13.7904828 L65.5773034,13.7904828 L65.5773034,14.3929655 C65.4962,16.2006552 65.1367862,17.7766207 64.5113724,19.1206207 C65.1599586,19.6188276 65.6813379,20.0706897 66.0755103,20.4648621 L65.3224069,21.3338276 C64.9516483,20.9514828 64.4995448,20.5343793 63.9897517,20.0941034 C63.4220276,20.9978276 62.7150276,21.7856897 61.8692345,22.4345172 L61.116131,21.5076207 C61.9387517,20.9167241 62.6109931,20.2099655 63.1323724,19.3871034 C62.5994069,18.9584138 62.0198552,18.5181379 61.3944414,18.0546897 C61.7417862,17.0580345 62.0430276,15.9921034 62.3210966,14.8448276 L61.2088207,14.8448276 L61.2088207,13.7904828 L62.5528207,13.7904828 C62.6920966,13.0721379 62.831131,12.3306207 62.9469931,11.565931 L64.0245103,11.6583793 Z" id="Fill-17" fill="#F3F3F2" mask="url(#mask-4)"></path>
                <path d="M79.1449207,19.2133345 C79.9327828,18.5065759 80.5005069,17.6839552 80.8712655,16.7568172 L77.4996793,16.7568172 C77.8704379,17.7071276 78.4149897,18.5181621 79.1449207,19.2133345 L79.1449207,19.2133345 Z M76.1090931,13.1764379 C76.1670241,12.6898172 76.2247138,12.1916103 76.2713,11.6815759 L77.3835759,11.6815759 C77.3256448,12.2031966 77.2677138,12.7014034 77.2097828,13.1764379 L83.119231,13.1764379 L83.119231,14.242369 L77.0591621,14.242369 C76.9664724,14.7755759 76.8737828,15.2737828 76.7810931,15.737231 L82.0183,15.737231 L82.0183,16.6988862 C81.5898517,17.9156793 80.9062655,18.9700241 79.9559552,19.8737483 C80.8596793,20.5109897 81.9721966,20.9978517 83.2932655,21.3338517 L82.7368862,22.3418517 C81.2651966,21.9247483 80.0486448,21.3338517 79.0985759,20.5920931 C78.1021621,21.3106793 76.9085414,21.9131621 75.5181966,22.3884379 L74.950231,21.3454379 C76.2713,20.9746793 77.3835759,20.476231 78.2873,19.8737483 C77.4530931,19.016369 76.8621966,18.008369 76.5146103,16.8495069 C76.3871621,17.3129552 76.2481276,17.7418862 76.1090931,18.1358172 C75.4950241,19.6767828 74.5794724,21.0557828 73.3745069,22.2723345 L72.6675069,21.3686103 C73.7452655,20.2560931 74.5563,19.0279552 75.1008517,17.6605414 C75.4486793,16.7336448 75.7267483,15.5866103 75.9468862,14.242369 L73.0150931,14.242369 L73.0150931,13.1764379 L76.1090931,13.1764379 Z" id="Fill-18" fill="#F3F3F2" mask="url(#mask-4)"></path>
            </g>
        </g>
    </g>
</svg>