<?xml version="1.0" encoding="UTF-8"?>
<svg width="46px" height="46px" viewBox="0 0 46 46" version="1.1" xmlns="http://www.w3.org/2000/svg" xmlns:xlink="http://www.w3.org/1999/xlink">
    <!-- Generator: Sketch 41.1 (35376) - http://www.bohemiancoding.com/sketch -->
    <title>btn_replay_active</title>
    <desc>Created with Sketch.</desc>
    <defs>
        <rect id="path-1" x="0.0992771161" y="0.343137255" width="34.3137255" height="34.3137255" rx="17.1568627"></rect>
        <filter x="-50%" y="-50%" width="200%" height="200%" filterUnits="objectBoundingBox" id="filter-2">
            <feOffset dx="0" dy="0" in="SourceAlpha" result="shadowOffsetOuter1"></feOffset>
            <feGaussianBlur stdDeviation="3" in="shadowOffsetOuter1" result="shadowBlurOuter1"></feGaussianBlur>
            <feColorMatrix values="0 0 0 0 0   0 0 0 0 0   0 0 0 0 0  0 0 0 0.2 0" type="matrix" in="shadowBlurOuter1"></feColorMatrix>
        </filter>
    </defs>
    <g id="Page-1" stroke="none" stroke-width="1" fill="none" fill-rule="evenodd">
        <g id="Artboard" transform="translate(-413.000000, -1441.000000)">
            <g id="bottom" transform="translate(52.000000, 1436.000000)"></g>
            <g id="top" transform="translate(54.000000, 1439.000000)">
                <g id="btn_replay_active" transform="translate(381.748737, 24.748737) scale(1, -1) rotate(-45.000000) translate(-381.748737, -24.748737) translate(364.248737, 7.248737)">
                    <g id="Rectangle-2">
                        <use fill="black" fill-opacity="1" filter="url(#filter-2)" xlink:href="#path-1"></use>
                        <use fill="#FFEFEF" fill-rule="evenodd" xlink:href="#path-1"></use>
                    </g>
                    <g id="Group" transform="translate(5.932610, 5.490196)" stroke="#BA0017" fill="#BA0017">
                        <path d="M21.9994286,10.3570043 C21.8918485,9.67540667 21.7639978,8.9966085 21.6231632,8.32127632 C21.5684458,8.05892856 21.4526514,7.80977817 21.3677268,7.55342922 C21.3299677,7.43931861 21.3157915,7.31467676 21.2635913,7.20816464 C20.9204479,6.50777077 20.5941304,5.7992452 20.1452617,5.1551068 C19.3556344,4.02226571 18.3795967,3.08351931 17.2592798,2.289944 C16.4715072,1.73192179 15.631667,1.26961385 14.7451911,0.890889264 C14.2201419,0.66653394 13.6801216,0.48390364 13.1202281,0.379524425 C12.6275059,0.287676048 12.1284243,0.220489427 11.6293428,0.173832051 C10.5564565,0.0738519605 9.49191692,0.162367668 8.44301093,0.399787057 C7.78997851,0.547624285 7.15774668,0.766647337 6.54101593,1.03459398 C5.3055671,1.5711538 4.20658071,2.30914018 3.25372838,3.26255033 C2.14149322,4.37539539 1.31927387,5.67993562 0.748648868,7.14937634 C0.447504076,7.92468862 0.233668751,8.7234629 0.116019575,9.54476602 C-0.0120961371,10.4384547 -0.0380637478,11.3380089 0.0578574267,12.2390295 C0.138012552,12.9916796 0.274739972,13.7337985 0.5059312,14.4533886 C0.763355015,15.2553622 1.09682683,16.0254755 1.5221127,16.7551969 C2.16163136,17.8521784 2.97338418,18.7955906 3.96518792,19.5827671 C4.5653577,20.0590723 5.22196729,20.4469951 5.89407795,20.8074566 C6.13706059,20.9376973 6.40256616,21.0255465 6.65787017,21.1327252 C6.66568695,21.1161951 6.67337125,21.0996651 6.68118803,21.083135 L5.1664549,20.1853138 C5.17427168,20.1707834 5.18222095,20.1563863 5.19017021,20.1418558 C5.27893705,20.1895796 5.36465666,20.2443687 5.45713315,20.2832943 C5.76649219,20.4132684 6.0771761,20.5400432 6.39011231,20.6608191 C6.43158099,20.6766827 6.48881573,20.6509544 6.53863114,20.6445557 C6.5260448,20.5970985 6.52273261,20.5440424 6.49861983,20.5035171 C6.4564887,20.4327312 6.40163875,20.3696771 6.35208831,20.303557 C6.9586175,20.4855207 7.53586689,20.7176078 8.1694236,20.7329381 C8.14557579,20.6800153 8.11550106,20.6428227 8.07654964,20.6241598 C7.92511608,20.5513743 7.77209266,20.4813882 7.61747938,20.4159346 C6.45145417,19.921633 5.42348125,19.2132407 4.50163106,18.349946 C3.67450967,17.5753002 3.0307514,16.6550835 2.51457889,15.6487505 C2.28881966,15.2087048 2.09075038,14.7489297 1.93123506,14.280623 C1.71051037,13.6319521 1.58318958,12.9592861 1.50926139,12.2740892 C1.40592089,11.3156134 1.46792519,10.3690019 1.65195076,9.42918903 C1.76814257,8.8354406 1.95720267,8.26235472 2.19064619,7.70259951 C2.54465362,6.8539685 3.00756603,6.07319064 3.58123825,5.35799973 C4.23241583,4.54576147 4.99660552,3.8589649 5.86718292,3.2934775 C6.44363738,2.91888543 7.05520112,2.61654563 7.703199,2.38365868 C8.27859355,2.17689985 8.86763436,2.0423933 9.47204375,1.9697411 C9.91826269,1.91615177 10.3640842,1.84629901 10.8120255,1.82563646 C11.5589917,1.79124331 12.300261,1.85869654 13.0379532,1.99933521 C13.7467629,2.1346416 14.4229807,2.35926353 15.0780005,2.65427145 C15.3411212,2.7729145 15.5875486,2.92981659 15.8518618,3.04526026 C15.946723,3.08671867 16.284037,3.31240707 16.3239158,3.33773536 C17.4303215,4.04186181 18.3352133,4.95621307 19.0927786,6.02413375 C19.6412781,6.79744642 20.0770305,7.63101377 20.4067927,8.5212365 C20.4448167,8.62414934 20.5025814,8.72066345 20.5325236,8.8255759 C20.5787618,8.98847679 20.6175808,9.15471036 20.6446083,9.32201037 C20.7343025,9.87789968 20.8282364,10.4335224 20.8987199,10.9920778 C20.940851,11.3240117 20.9480054,11.6611446 20.9599293,11.9962778 C20.9702633,12.2875532 20.9865593,12.5813613 20.9615191,12.8706371 C20.9311794,13.2195009 20.8728848,13.5672983 20.8033287,13.9108299 C20.7128395,14.3576743 20.6336118,14.8114506 20.4888026,15.2414983 C20.1885852,16.1310545 19.7255403,16.947292 19.2326857,17.7395342 C18.718368,18.5663029 18.0338035,19.2483004 17.2800803,19.858179 C17.0348454,20.0568061 16.7791439,20.2419692 16.5308618,20.4368637 C16.4419625,20.5067165 16.3769109,20.5928327 16.4165248,20.7332047 C17.050479,20.3786087 17.6192491,19.9489609 18.1698685,19.4889192 C18.1650989,19.5163804 18.1544999,19.5385093 18.1379389,19.5542395 C17.7671055,19.9085689 17.4019691,20.2715633 16.9762858,20.5597726 C16.615654,20.8039906 16.2493252,21.0420766 15.8698801,21.2549675 C15.3975611,21.5198481 14.9142455,21.7669989 14.4258955,22.0009523 C14.132435,22.1413243 13.8192338,22.2394381 13.5172941,22.3626136 C13.4387288,22.3946072 13.3690402,22.4487298 13.295377,22.492721 C13.3035912,22.5080513 13.3119379,22.5235149 13.3200197,22.5387119 C13.3661255,22.5387119 13.414616,22.54831 13.457807,22.5372455 C13.7646488,22.4580613 14.0729479,22.3834095 14.3755501,22.2898281 C14.5745468,22.2282404 14.7653292,22.1389248 14.9587614,22.0593407 C15.1902176,21.9641596 15.4265759,21.8781767 15.6503478,21.7671322 C16.0307203,21.5785031 16.4120202,21.3882743 16.7763617,21.1705843 C17.0802887,20.9891538 17.3619578,20.7694642 17.6499863,20.5619055 C17.7032464,20.5235132 17.734381,20.4548602 17.7853889,20.4120687 C18.0588437,20.1819812 18.3476671,19.9689569 18.6070783,19.7242057 C18.8362822,19.5078487 19.0383261,19.2613645 19.2443446,19.021279 C19.4996486,18.7237382 19.761577,18.4301967 19.9939606,18.1149261 C20.5359683,17.3802724 20.9588694,16.5746995 21.277635,15.720203 C21.4787515,15.1808437 21.636412,14.6236213 21.7889055,14.0674654 C21.9497457,13.4813155 22.022349,12.8781022 22.0521588,12.2711564 C22.0836909,11.6319504 22.0994569,10.9906114 21.9994286,10.3570043" id="Fill-5"></path>
                        <path d="M10.0549504,19.0039757 C10.0581301,18.9635838 10.0526981,18.9199925 10.0666093,18.8838663 C10.0897947,18.823745 10.1119201,18.7389618 10.1584233,18.7177661 C10.2501049,18.6757744 10.3097244,18.7248313 10.3599373,18.8265444 C10.5116358,19.1339499 10.6388241,19.4710827 10.8600788,19.7210329 C11.0680846,19.9560528 11.2022948,20.2307981 11.3881752,20.4746162 C11.5939288,20.7446958 11.771065,21.0449027 11.9128269,21.3540411 C12.1102338,21.7842221 12.0107354,22.1924075 11.7200572,22.5575348 C11.591014,22.7195025 11.4318962,22.8260147 11.233032,22.8937345 C10.9157237,23.0015797 10.607557,23.1366195 10.2944883,23.2571288 C9.80388597,23.4460245 9.31527092,23.6402525 8.82029646,23.8166174 C8.55585079,23.9108653 8.27775888,23.9505907 7.99410248,23.9113985 C7.86002482,23.8928689 7.84637857,23.8010205 7.87685077,23.7009071 C7.89778384,23.6322541 7.95395867,23.5750655 7.98469585,23.5082788 C8.00271419,23.4692199 8.02377975,23.406699 8.00602638,23.3797711 C7.88109038,23.1900755 7.87128628,23.0078451 8.03186151,22.8216155 C8.00019692,22.8184162 7.98575575,22.8180162 7.97171204,22.8154834 C7.90997272,22.8034858 7.84836589,22.7906884 7.78662657,22.7782908 C7.82253077,22.7296338 7.85114813,22.6724452 7.89553155,22.633653 C8.49305157,22.1125567 9.25048438,21.851942 9.88973807,21.3984323 C9.94101085,21.3619062 9.99347602,21.3275131 10.0487234,21.2896539 C9.9914887,21.1276862 9.92670217,20.9721172 9.88205377,20.8108159 C9.80057377,20.5164746 9.72452577,20.2201336 9.65814937,19.9219263 C9.57733181,19.5594651 9.50631834,19.1946044 9.43649727,18.8296105 C9.41967132,18.7417613 9.41609415,18.6493797 9.42006878,18.5596642 C9.42536829,18.4363554 9.51956713,18.3789002 9.61429591,18.4519523 C9.70558001,18.5227382 9.7796407,18.6211186 9.84561963,18.7180327 C9.9089488,18.8112141 9.95253729,18.9181262 10.0047375,19.0190394 C10.0214309,19.0141071 10.0382569,19.0090414 10.0549504,19.0039757" id="Fill-1"></path>
                        <path d="M11.3882414,20.4746429 C11.202361,20.2308248 11.0681509,19.9559462 10.8600125,19.7210596 C10.6388904,19.4711094 10.5115696,19.1338432 10.3600035,18.8265711 C10.3097907,18.724858 10.2500387,18.6758011 10.1584896,18.7176594 C10.1119864,18.7388552 10.0897284,18.8237716 10.0666755,18.8837597 C10.0527643,18.9200191 10.0581963,18.9637437 10.0550166,19.0040024 C10.0381907,19.0090681 10.0214972,19.0141337 10.0046712,19.0190661 C9.95247104,18.9181528 9.90901504,18.8111075 9.84555338,18.7180593 C9.77957445,18.6211453 9.70564625,18.5226316 9.61436215,18.451979 C9.51963337,18.3787936 9.42543454,18.4363821 9.42000254,18.5596909 C9.4160279,18.6494063 9.41960507,18.7417879 9.43643102,18.8296371 C9.50638459,19.1944978 9.57726557,19.5594918 9.65808313,19.9219529 C9.72459201,20.2201602 9.80064001,20.5163679 9.88212002,20.8107093 C9.92676841,20.9720105 9.99155495,21.1275795 10.0487897,21.2896806 C9.99340978,21.3274064 9.94094461,21.3619329 9.88967182,21.3984589 C9.25041814,21.8519686 8.49311782,22.1125834 7.89559779,22.6335463 C7.85108189,22.6723386 7.82259701,22.7296605 7.78669281,22.7783175 C7.84829965,22.790715 7.91003896,22.8035125 7.97177828,22.8155101 C7.9856895,22.8180429 8.00013068,22.8184428 8.03192775,22.8215089 C7.87122004,23.0078718 7.88115662,23.1901022 8.00609263,23.3797977 C8.02371351,23.4067257 8.00264794,23.4692466 7.98476209,23.5083055 C7.95389243,23.5750922 7.89785009,23.6322808 7.87691701,23.7009338 C7.84644482,23.8010472 7.86009106,23.8928955 7.99403624,23.9114252 C8.27769264,23.9506174 8.55591704,23.9107586 8.82023022,23.8165107 C9.31533717,23.6402792 9.80395221,23.4460512 10.2944221,23.2571555 C10.6074908,23.1366461 10.9156574,23.0016064 11.2329657,22.8936279 C11.4318299,22.8260413 11.5909478,22.7195292 11.7201234,22.5575614 C12.0106692,22.1924342 12.1101675,21.7842488 11.9128932,21.3540678 C11.7711312,21.044796 11.593995,20.7445891 11.3882414,20.4746429" id="Fill-3"></path>
                    </g>
                </g>
            </g>
        </g>
    </g>
</svg>