<?xml version="1.0" encoding="UTF-8"?>
<svg width="250px" height="83px" viewBox="0 0 250 83" version="1.1" xmlns="http://www.w3.org/2000/svg" xmlns:xlink="http://www.w3.org/1999/xlink">
    <!-- Generator: Sketch 41.1 (35376) - http://www.bohemiancoding.com/sketch -->
    <title>btn_start_active</title>
    <desc>Created with Sketch.</desc>
    <defs>
        <polygon id="path-1" points="249.835805 82.6269435 249.835805 0.229872881 0 0.229872881 0 82.6269435"></polygon>
        <polygon id="path-3" points="0 83.4567797 249.835805 83.4567797 249.835805 1.0595339 0 1.0595339"></polygon>
    </defs>
    <g id="Page-1" stroke="none" stroke-width="1" fill="none" fill-rule="evenodd">
        <g id="Artboard" transform="translate(-614.000000, -518.000000)">
            <g id="btn_start_active" transform="translate(614.000000, 517.000000)">
                <g id="Group-3" transform="translate(0.000000, 0.829661)">
                    <mask id="mask-2" fill="white">
                        <use xlink:href="#path-1"></use>
                    </mask>
                    <g id="Clip-2"></g>
                    <path d="M249.800318,39.4370763 C249.924258,32.6775424 249.684852,25.8936441 249.699682,19.1309322 C249.704979,16.9677966 249.696504,14.8088983 249.766419,12.646822 C249.786547,12.0133475 249.847987,11.3841102 249.753708,10.7569915 C249.372352,8.2029661 247.108581,7.22733051 244.863877,6.80042373 C245.128708,5.94025424 245.270657,5.07478814 245.143538,4.23262712 C244.708157,1.36292373 241.467691,-0.0322033898 238.803496,0.45190678 C236.45286,0.879872881 234.511123,1.95932203 233.770657,4.36504237 C233.480403,5.30677966 233.552436,6.33220339 233.446504,7.30677966 C233.358581,8.11504237 233.166843,8.90211864 232.941208,9.68177966 C231.353284,10.2686441 229.872352,11.2358051 229.194386,12.5154661 C228.81197,13.2379237 228.738877,13.9519068 228.746292,14.6902542 C226.572564,14.3036017 224.501589,13.4338983 222.334216,13.0483051 C220.402013,12.7040254 218.296081,12.7686441 216.353284,12.6754237 C212.457097,12.4900424 208.560911,12.4444915 204.661547,12.4137712 C175.739936,12.1966102 125.627648,12.307839 96.7060381,12.2983051 C72.96875,12.2898305 49.2335805,12.3163136 25.498411,12.2993644 C23.4295551,12.2972458 21.346928,12.3205508 19.2653602,12.3247881 C19.4507415,11.5122881 19.5079449,10.709322 19.2706568,9.98474576 C18.8829449,8.79512712 18.0534958,8.05042373 17.0619703,7.54724576 C17.2600636,6.91271186 17.4560381,6.28135593 17.65625,5.66165254 C17.96875,4.69766949 18.0206568,3.7220339 17.4549788,2.80360169 C16.0471398,0.51970339 12.8130297,-0.183686441 10.3956568,0.454025424 C7.99523305,1.08644068 6.06832627,2.44131356 5.62341102,5.01652542 C5.45074153,6.01652542 5.48675847,7.04194915 5.27489407,8.03877119 C5.20074153,8.38940678 5.11069915,8.73792373 5.01112288,9.08432203 C4.73146186,9.16059322 4.44120763,9.24110169 4.10858051,9.33326271 C3.17743644,9.59067797 2.36599576,10.1489407 1.78336864,10.9540254 C0.0873940678,13.2993644 0.641419492,16.3894068 0.592690678,19.0694915 C0.54184322,21.8120763 0.217690678,24.525 0.203919492,27.2739407 C0.189088983,30.117161 0.160487288,32.9614407 0.148834746,35.8057203 C0.137182203,38.6807203 0.0143008475,41.554661 0.00158898305,44.4275424 C-0.0333686441,52.7983051 0.326800847,61.1817797 0.0672669492,69.5536017 C0.0121822034,71.3141949 -0.282309322,73.0292373 1.02701271,74.4158898 C1.63930085,75.0641949 2.36599576,75.5430085 3.16366525,75.870339 C3.11069915,76.057839 3.04713983,76.2400424 3.00264831,76.4338983 C2.32680085,79.3608051 3.88082627,81.0631356 6.45709746,82.1002119 C7.67955508,82.5927966 9.12129237,82.7103814 10.4179025,82.4741525 C11.909428,82.2019068 13.8363347,81.6711864 14.939089,80.5366525 C15.6414195,79.8141949 16.0206568,78.7040254 16.2558263,77.7336864 C16.2717161,76.1923729 16.4560381,74.6701271 16.7886653,73.1627119 C18.5768008,72.6023305 20.2060381,71.4868644 20.7176907,69.771822 C20.9073093,69.1383475 20.9920551,68.4614407 21.03125,67.7707627 C22.6424788,67.992161 24.2431144,68.2516949 25.8448093,68.5536017 C26.5037076,68.9286017 27.1954449,69.2834746 27.8945975,69.4476695 C30.3130297,70.0144068 33.0662076,69.8110169 35.5333686,69.9074153 C45.2547669,70.2834746 54.9952331,70.1913136 64.7198093,70.2114407 C94.403072,70.2707627 124.086335,70.3194915 153.769597,70.3417373 C165.62553,70.3512712 198.666843,70.275 210.522775,70.3025424 C216.21875,70.3152542 222.016419,70.0239407 227.699682,70.3936441 C228.717691,70.459322 229.735699,70.4646186 230.754767,70.4550847 C230.536547,71.3385593 230.447564,72.2061441 230.652013,72.9752119 C230.987818,74.2400424 231.862818,75.0228814 232.914725,75.5430085 C232.357521,77.0165254 231.732521,77.7686441 232.152013,79.2951271 C232.767479,81.5355932 235.244174,82.429661 237.331038,82.6023305 C238.635064,82.7114407 239.887182,82.4508475 241.106462,81.9582627 C243.036547,81.1775424 243.569386,80.1934322 244.219809,78.4413136 C244.697564,77.1584746 244.339513,75.8385593 244.582097,74.525 C244.629767,74.2644068 244.698623,74.0059322 244.768538,73.7463983 C245.819386,73.5027542 246.481462,73.3300847 247.410487,72.4444915 C248.011123,71.8724576 248.323623,71.2516949 248.665784,70.4858051 C249.717691,68.1224576 249.068326,65.2432203 249.232521,62.7326271 C249.739936,54.9858051 249.658369,47.2029661 249.800318,39.4370763" id="Fill-1" fill="#000000" mask="url(#mask-2)"></path>
                </g>
                <polygon id="Fill-4" fill="#CE0013" points="24.2393008 17.6940678 24.2393008 41.3529661 24.2393008 65.3635593 225.510487 65.3635593 225.510487 41.3529661 225.510487 17.6940678"></polygon>
                <mask id="mask-4" fill="white">
                    <use xlink:href="#path-3"></use>
                </mask>
                <g id="Clip-7"></g>
                <polygon id="Fill-6" fill="#A81126" mask="url(#mask-4)" points="24.5932203 41.8826271 225.864407 41.8826271 225.864407 18.2237288 24.5932203 18.2237288"></polygon>
                <polygon id="Fill-8" fill="#8B0714" mask="url(#mask-4)" points="24.5932203 65.3635593 225.864407 65.3635593 225.864407 41.3529661 24.5932203 41.3529661"></polygon>
                <polygon id="Fill-9" fill="#DB5657" mask="url(#mask-4)" points="14 41.3529661 15.4120763 41.3529661 15.4120763 17.6940678 14 17.6940678"></polygon>
                <polygon id="Fill-10" fill="#CC5258" mask="url(#mask-4)" points="14 65.3635593 15.4120763 65.3635593 15.4120763 41.3529661 14 41.3529661"></polygon>
                <polygon id="Fill-11" fill="#FFE91D" mask="url(#mask-4)" points="15.4120763 41.3529661 24.2394068 41.3529661 24.2394068 17.6940678 15.4120763 17.6940678"></polygon>
                <polygon id="Fill-12" fill="#EDCB00" mask="url(#mask-4)" points="15.4120763 65.3635593 24.2394068 65.3635593 24.2394068 41.3529661 15.4120763 41.3529661"></polygon>
                <path d="M10.4681144,15.5754237 L10.4681144,15.5754237 C8.91408898,15.5754237 7.64396186,14.3052966 7.64396186,12.7512712 L7.64396186,7.80741525 C7.64396186,6.25338983 8.91408898,4.98220339 10.4681144,4.98220339 C12.0221398,4.98220339 13.2933263,6.25338983 13.2933263,7.80741525 L13.2933263,12.7512712 C13.2933263,14.3052966 12.0221398,15.5754237 10.4681144,15.5754237" id="Fill-13" fill="#7F6A5B" mask="url(#mask-4)"></path>
                <path d="M10.4681144,78.0754237 L10.4681144,78.0754237 C8.91408898,78.0754237 7.64396186,76.8052966 7.64396186,75.2512712 L7.64396186,70.3074153 C7.64396186,68.7533898 8.91408898,67.4822034 10.4681144,67.4822034 C12.0221398,67.4822034 13.2933263,68.7533898 13.2933263,70.3074153 L13.2933263,75.2512712 C13.2933263,76.8052966 12.0221398,78.0754237 10.4681144,78.0754237" id="Fill-14" fill="#6D5337" mask="url(#mask-4)"></path>
                <path d="M15.5887712,14.0754237 C15.5887712,12.7639831 14.515678,11.6919492 13.2052966,11.6919492 L7.37902542,11.6919492 C6.06758475,11.6919492 4.99555085,12.7639831 4.99555085,14.0754237 L4.99555085,41.7057203 L15.5887712,41.7057203 L15.5887712,14.0754237 Z" id="Fill-15" fill="#FFFFFF" mask="url(#mask-4)"></path>
                <path d="M7.37902542,71.5436441 L13.2052966,71.5436441 C14.515678,71.5436441 15.5887712,70.4705508 15.5887712,69.1601695 L15.5887712,41.7057203 L4.99555085,41.7057203 L4.99555085,69.1601695 C4.99555085,70.4705508 6.06758475,71.5436441 7.37902542,71.5436441" id="Fill-16" fill="#F8F8F8" mask="url(#mask-4)"></path>
                <polygon id="Fill-17" fill="#DB5657" mask="url(#mask-4)" points="233.809322 41.3529661 235.221398 41.3529661 235.221398 17.6940678 233.809322 17.6940678"></polygon>
                <polygon id="Fill-18" fill="#CC5258" mask="url(#mask-4)" points="233.809322 65.3635593 235.221398 65.3635593 235.221398 41.3529661 233.809322 41.3529661"></polygon>
                <polygon id="Fill-19" fill="#FFE91D" mask="url(#mask-4)" points="224.980932 41.3529661 233.809322 41.3529661 233.809322 17.6940678 224.980932 17.6940678"></polygon>
                <polygon id="Fill-20" fill="#EDCB00" mask="url(#mask-4)" points="224.980932 65.3635593 233.809322 65.3635593 233.809322 41.3529661 224.980932 41.3529661"></polygon>
                <path d="M238.752013,15.5754237 L238.752013,15.5754237 C240.306038,15.5754237 241.577225,14.3052966 241.577225,12.7512712 L241.577225,7.80741525 C241.577225,6.25338983 240.306038,4.98220339 238.752013,4.98220339 C237.197987,4.98220339 235.92786,6.25338983 235.92786,7.80741525 L235.92786,12.7512712 C235.92786,14.3052966 237.197987,15.5754237 238.752013,15.5754237" id="Fill-21" fill="#7F6A5B" mask="url(#mask-4)"></path>
                <path d="M238.752013,78.0754237 L238.752013,78.0754237 C240.306038,78.0754237 241.577225,76.8052966 241.577225,75.2512712 L241.577225,70.3074153 C241.577225,68.7533898 240.306038,67.4822034 238.752013,67.4822034 C237.197987,67.4822034 235.92786,68.7533898 235.92786,70.3074153 L235.92786,75.2512712 C235.92786,76.8052966 237.197987,78.0754237 238.752013,78.0754237" id="Fill-22" fill="#6D5337" mask="url(#mask-4)"></path>
                <path d="M233.632203,14.0754237 C233.632203,12.7639831 234.705297,11.6919492 236.015678,11.6919492 L241.841949,11.6919492 C243.152331,11.6919492 244.225424,12.7639831 244.225424,14.0754237 L244.225424,41.7057203 L233.632203,41.7057203 L233.632203,14.0754237 Z" id="Fill-23" fill="#FFFFFF" mask="url(#mask-4)"></path>
                <path d="M241.841949,71.5436441 L236.015678,71.5436441 C234.705297,71.5436441 233.632203,70.4705508 233.632203,69.1601695 L233.632203,41.7057203 L244.225424,41.7057203 L244.225424,69.1601695 C244.225424,70.4705508 243.152331,71.5436441 241.841949,71.5436441" id="Fill-24" fill="#F8F8F8" mask="url(#mask-4)"></path>
                <path d="M75.8698093,35.1305085 C76.2924788,34.9175847 76.7575212,34.8105932 77.1865466,34.7110169 C78.1272246,34.4949153 78.835911,34.3317797 79.0212924,33.3063559 L75.8698093,33.3063559 L75.8698093,35.1305085 Z M75.8496822,40.1845339 L78.5753178,38.3074153 L75.8496822,37.7618644 L75.8496822,40.1845339 Z M75.9079449,43.395339 C77.2776483,43.395339 78.0657839,43.3476695 78.3083686,43.0966102 C78.4503178,42.9493644 78.4820975,42.6347458 78.4704449,42.0902542 L75.8496822,41.5012712 L75.8496822,43.395339 L75.9079449,43.395339 Z M83.7352754,56.1993644 C82.7522246,56.1983051 82.1494703,55.6230932 81.8380297,54.3868644 C81.7606992,54.082839 81.5011653,53.7724576 81.1738347,53.3794492 C80.9820975,53.1495763 80.7712924,52.8963983 80.5583686,52.5997881 C80.4587924,52.4620763 80.4577331,52.2766949 80.5551907,52.1379237 C80.6314619,52.0309322 80.7532839,51.9694915 80.8793432,51.9694915 C80.9174788,51.9694915 80.9545551,51.9747881 80.9916314,51.9853814 C81.6399364,52.1760593 82.2776483,52.2724576 82.8846398,52.2724576 C84.3369703,52.2724576 85.61875,51.7226695 86.5922669,50.6834746 C87.9058263,49.2809322 88.5710805,47.1061441 88.4852754,44.520339 L76.1960805,46.6972458 L76.9058263,51.829661 C76.9270127,51.984322 76.8560381,52.1379237 76.7236229,52.2216102 C76.6579449,52.2618644 76.585911,52.2809322 76.5117585,52.2809322 C76.434428,52.2809322 76.3581568,52.2586864 76.2903602,52.2141949 C70.4503178,48.2925847 70.5763771,34.1538136 73.1070975,28.5934322 C73.1632415,28.4705508 73.2776483,28.3847458 73.4121822,28.3646186 C73.4301907,28.3614407 73.4503178,28.3603814 73.4683263,28.3603814 C73.5827331,28.3603814 73.6918432,28.4091102 73.7681144,28.4970339 C74.5996822,29.4514831 75.4566737,29.895339 76.4651483,29.895339 C77.3878178,29.895339 78.3253178,29.5341102 79.3200212,29.1516949 C80.085911,28.8561441 80.8793432,28.5510593 81.6886653,28.4144068 C81.86875,28.3847458 82.0541314,28.3434322 82.240572,28.303178 C82.6494703,28.2120763 83.0731992,28.1188559 83.4863347,28.1188559 C83.7130297,28.1188559 83.9153602,28.145339 84.1028602,28.2036017 C84.9333686,28.4557203 85.7585805,29.1866525 86.023411,29.9038136 C86.3136653,30.6930085 84.7373941,31.8847458 84.6706568,31.9334746 C84.3168432,32.1972458 83.9005297,32.3222458 83.496928,32.4419492 C83.2935381,32.5033898 83.0869703,32.5637712 82.8952331,32.645339 C82.8856992,32.6898305 82.8761653,32.7491525 82.86875,32.7957627 C84.1462924,33.4726695 84.7935381,33.8497881 84.8804025,34.5023305 C84.9778602,35.2258475 84.3104873,35.9091102 82.7024364,37.4207627 C82.7225636,37.4292373 82.740572,37.4355932 82.7585805,37.4408898 C83.3592161,37.615678 83.9651483,37.7756356 84.5689619,37.9355932 L85.2034958,38.1050847 C85.339089,38.142161 85.4471398,38.2491525 85.4831568,38.3858051 C85.5191737,38.5235169 85.4799788,38.6707627 85.3793432,38.7713983 C85.1833686,38.9641949 84.9842161,39.1559322 84.7840042,39.3455508 C84.3486229,39.7608051 83.8994703,40.1887712 83.5117585,40.6432203 C83.1727754,41.0383475 82.8666314,41.4896186 82.4799788,42.0605932 C82.3931144,42.1887712 82.3020127,42.3233051 82.2045551,42.4663136 C82.9248941,42.4790254 83.6070975,42.5097458 84.2554025,42.5372881 C85.0138771,42.5701271 85.7278602,42.6029661 86.4090042,42.6029661 C87.4174788,42.6029661 88.2183263,42.5288136 88.9323093,42.3730932 C89.3751059,42.2756356 89.7787076,42.2258475 90.1304025,42.2258475 C92.4418432,42.2258475 92.5128178,44.3021186 92.55625,45.5436441 C92.7246822,50.3635593 89.7649364,54.5330508 85.1907839,55.9197034 C84.7373941,56.0584746 84.2087924,56.1993644 83.7352754,56.1993644 L83.7352754,56.1993644 Z" id="Fill-25" fill="#050505" mask="url(#mask-4)"></path>
                <path d="M76.2474576,42.9967161 L76.2474576,41.9977754 L77.0557203,42.1799788 L78.0737288,42.4087924 C78.0694915,42.5973517 78.0536017,42.7668432 78.0165254,42.8272246 C77.8449153,42.9681144 76.8724576,42.9924788 76.2474576,42.9967161 L76.2474576,42.9967161 Z M76.2474576,39.4278602 L76.2474576,38.2467161 L77.4275424,38.4829449 L77.5769068,38.5136653 L76.2474576,39.4278602 Z M76.2675847,33.7043432 L78.4635593,33.7043432 C78.2411017,34.0401483 77.8194915,34.1577331 77.0980932,34.3240466 C76.8290254,34.3865466 76.5472458,34.4511653 76.2675847,34.5422669 L76.2675847,33.7043432 Z M83.4858051,27.7212924 L83.4858051,27.7212924 C83.0292373,27.7212924 82.584322,27.8198093 82.1542373,27.9151483 C81.9741525,27.9543432 81.7961864,27.9935381 81.6224576,28.0221398 C80.7739407,28.1662076 79.9625,28.4787076 79.1775424,28.7806144 C78.2188559,29.1492585 77.3141949,29.4977754 76.4646186,29.4977754 C75.9074153,29.4977754 75.0525424,29.3674788 74.0663136,28.2361229 C73.9148305,28.0613347 73.6966102,27.9638771 73.4688559,27.9638771 C73.4307203,27.9638771 73.3925847,27.9670551 73.3544492,27.9723517 C73.0864407,28.0115466 72.8576271,28.1842161 72.745339,28.4289195 C70.2008475,34.0189619 69.8533898,48.3685381 76.0694915,52.5433263 C76.2029661,52.6333686 76.3576271,52.6789195 76.5122881,52.6789195 C76.6584746,52.6789195 76.804661,52.6386653 76.932839,52.5570975 C77.1987288,52.3907839 77.3427966,52.0846398 77.2993644,51.7742585 L76.9042373,48.9172669 L76.6415254,47.0221398 L88.0959746,44.9935381 C88.090678,47.2689619 87.465678,49.1704449 86.3025424,50.4119703 C85.4063559,51.3685381 84.2241525,51.8748941 82.8851695,51.8748941 C82.3152542,51.8748941 81.715678,51.7837924 81.1023305,51.6047669 C81.0292373,51.5825212 80.9540254,51.5729873 80.8798729,51.5729873 C80.6266949,51.5729873 80.3819915,51.69375 80.2315678,51.9087924 C80.0345339,52.1863347 80.0366525,52.5560381 80.2358051,52.8314619 C80.4603814,53.1429025 80.6775424,53.4034958 80.8692797,53.6333686 C81.153178,53.973411 81.396822,54.2679025 81.4519068,54.4840042 C81.8057203,55.884428 82.5747881,56.5952331 83.7347458,56.5952331 C84.2612288,56.5952331 84.8247881,56.4458686 85.3067797,56.3007415 C90.054661,54.8600636 93.1288136,50.5316737 92.9540254,45.5295551 C92.9116525,44.3282839 92.8237288,41.8282839 90.1288136,41.8282839 C89.7442797,41.8282839 89.3247881,41.8791314 88.8470339,41.9850636 C88.1627119,42.1354873 87.3883475,42.2054025 86.4105932,42.2054025 C85.7400424,42.2054025 85.0271186,42.1746822 84.2728814,42.1407839 C83.8396186,42.1217161 83.3989407,42.101589 82.9413136,42.0878178 C83.2707627,41.6047669 83.5260593,41.2361229 83.8131356,40.9013771 C84.1891949,40.4606992 84.6129237,40.0581568 85.0610169,39.6291314 C85.2622881,39.4395127 85.4625,39.2477754 85.6595339,39.0528602 C85.8608051,38.8526483 85.9402542,38.5602754 85.8682203,38.2848517 C85.7951271,38.0104873 85.5811441,37.7954449 85.3067797,37.7223517 L84.6436441,37.5454449 C84.2559322,37.4416314 83.8661017,37.3378178 83.4794492,37.2318856 C84.8279661,35.94375 85.3851695,35.2689619 85.2739407,34.4490466 C85.1807203,33.7498941 84.6521186,33.3272246 83.7029661,32.7954449 C84.0959746,32.6778602 84.528178,32.535911 84.9074153,32.2520127 C85.3502119,31.9225636 86.7654661,30.7657839 86.396822,29.7668432 C86.0927966,28.9426907 85.1563559,28.1079449 84.2177966,27.8240466 C83.9932203,27.7541314 83.7527542,27.7212924 83.4858051,27.7212924 L83.4858051,27.7212924 Z M75.4529661,41.0041314 L75.4529661,43.7912076 C75.6118644,43.7912076 75.7654661,43.7922669 75.9105932,43.7922669 C78.7686441,43.7922669 78.929661,43.5994703 78.8586864,41.7710805 C77.9582627,41.5676907 77.0610169,41.3664195 75.4529661,41.0041314 L75.4529661,40.9395127 C77.1288136,39.785911 78.1764831,39.0645127 79.5737288,38.1026483 C77.8788136,37.7636653 76.7665254,37.5412076 75.4529661,37.2774364 L75.4529661,40.9395127 C75.4286017,40.9554025 75.4063559,40.9712924 75.3819915,40.9882415 C75.4063559,40.9935381 75.4286017,40.9977754 75.4529661,41.0041314 L75.4529661,41.0041314 Z M75.4730932,35.9098517 C76.6987288,34.5899364 79.3427966,35.6619703 79.4614407,32.9098517 L75.4730932,32.9098517 L75.4730932,35.9098517 L75.4730932,35.9098517 Z M83.4858051,28.5157839 C83.6605932,28.5157839 83.8290254,28.535911 83.9879237,28.5835805 C84.6574153,28.7869703 85.4201271,29.4172669 85.6510593,30.0422669 C85.7771186,30.384428 84.9709746,31.2128178 84.432839,31.6164195 C83.932839,31.9882415 83.2114407,32.0507415 82.6266949,32.3304025 C82.4836864,32.3981992 82.4900424,32.7816737 82.4286017,33.0115466 C85.242161,34.4977754 85.242161,34.4977754 82.0355932,37.5020127 C82.2612288,37.6217161 82.4423729,37.7626059 82.6478814,37.821928 C83.4614407,38.0581568 84.2824153,38.2689619 85.0991525,38.4882415 C84.465678,39.1174788 83.7877119,39.7085805 83.209322,40.384428 C82.6754237,41.0073093 82.2495763,41.7212924 81.4519068,42.8558263 C83.3311441,42.8558263 84.9444915,42.9998941 86.4105932,42.9998941 C87.3269068,42.9998941 88.1860169,42.9426907 89.0175847,42.7604873 C89.4434322,42.6662076 89.8120763,42.6227754 90.1288136,42.6227754 C91.8735169,42.6227754 92.1033898,43.9416314 92.1595339,45.5570975 C92.3237288,50.2551907 89.3851695,54.2329449 85.0758475,55.5401483 C84.5673729,55.69375 84.1213983,55.8007415 83.7347458,55.8007415 C83.0165254,55.8007415 82.5101695,55.4278602 82.2230932,54.289089 C82.0716102,53.69375 81.4858051,53.2075212 80.8798729,52.3674788 C81.5769068,52.5708686 82.2485169,52.6693856 82.8851695,52.6693856 C86.6447034,52.6693856 89.1987288,49.2456568 88.8597458,44.0507415 C84.3904661,44.8420551 79.9794492,45.6227754 75.7495763,46.3727754 C76.0122881,48.2700212 76.2220339,49.7837924 76.5122881,51.884428 C70.8544492,48.0856992 70.9434322,34.3070975 73.4688559,28.7583686 C74.4709746,29.9087924 75.4677966,30.2922669 76.4646186,30.2922669 C78.2146186,30.2922669 79.9677966,29.1090042 81.7548729,28.8060381 C82.3216102,28.7106992 82.9338983,28.5157839 83.4858051,28.5157839 L83.4858051,28.5157839 Z" id="Fill-26" fill="#FFFFFF" mask="url(#mask-4)"></path>
                <path d="M100.071822,55.1117585 C98.8038136,55.1117585 96.9838983,53.9020127 96.5940678,52.8003178 C96.3917373,52.2293432 96.4023305,51.7833686 96.6226695,51.4337924 C96.9743644,50.876589 97.7360169,50.7960805 98.4086864,50.7240466 C98.6947034,50.6943856 98.9648305,50.6657839 99.1692797,50.6064619 C99.7201271,50.4486229 100.287924,50.3797669 100.837712,50.3151483 C101.048517,50.2886653 101.259322,50.2643008 101.468008,50.2346398 C106.144915,49.5556144 106.144915,49.5556144 106.181992,44.7431144 L106.185169,44.2833686 C106.216949,40.1679025 106.249788,35.9115466 106.486017,31.7325212 C106.536864,30.814089 107.507203,28.7748941 108.423517,28.7590042 L108.425636,28.7590042 C109.310169,28.7590042 110.009322,29.0386653 110.510381,29.5672669 C111.069703,30.153072 111.337712,30.9962924 111.286864,32.0058263 C111.238136,32.9507415 111.249788,33.9210805 111.261441,34.9486229 C111.264619,35.2706568 111.267797,35.6011653 111.269915,35.9422669 C111.385381,35.8988347 111.49661,35.8532839 111.607839,35.8098517 C112.134322,35.6001059 112.631144,35.4020127 113.123729,35.4020127 C113.233898,35.4020127 113.339831,35.4104873 113.445763,35.4316737 C114.2625,35.59375 115.014619,35.9952331 115.743432,36.3829449 C116.038983,36.5418432 116.335593,36.6986229 116.634322,36.840572 C116.742373,36.8914195 116.822881,36.9888771 116.851483,37.1054025 C116.880085,37.2208686 116.854661,37.3448093 116.781568,37.439089 C116.609958,37.6647246 116.453178,37.9179025 116.295339,38.1689619 C115.905508,38.7897246 115.502966,39.4316737 114.880085,39.7643008 C114.033686,40.2145127 113.080297,40.435911 112.069703,40.6710805 C111.718008,40.7526483 111.35572,40.8373941 110.983898,40.9348517 L110.983898,49.3575212 C111.59089,49.3554025 112.2,49.3522246 112.810169,49.346928 C113.560169,49.3416314 114.312288,49.3363347 115.065466,49.3363347 C116.223305,49.3363347 117.385381,49.3490466 118.54322,49.3956568 C119.626907,49.4401483 120.738136,49.7791314 121.515678,50.3056144 C122.102542,50.7018008 122.593008,52.0810381 122.241314,52.748411 C121.87161,53.4443856 120.84089,54.0778602 119.990254,54.1329449 C113.876907,54.5227754 106.95,54.965572 100.114195,55.1117585 L100.071822,55.1117585 Z" id="Fill-27" fill="#050505" mask="url(#mask-4)"></path>
                <path d="M108.484322,28.3606992 L108.484322,28.3606992 L108.416525,28.3617585 C107.200424,28.3829449 106.150636,30.6054025 106.088136,31.7092161 C105.852966,35.8871822 105.820127,40.1382415 105.788347,44.248411 L105.785169,44.6435381 L105.785169,44.7378178 C105.767161,47.0429025 105.757627,48.3119703 105.31589,48.8268008 C104.877331,49.3384534 103.572246,49.5270127 101.411229,49.840572 C101.204661,49.8712924 100.997034,49.8956568 100.788347,49.9210805 C100.223729,49.9878178 99.6389831,50.0566737 99.0595339,50.2251059 C98.8889831,50.2748941 98.6230932,50.3024364 98.3667373,50.3289195 C97.6432203,50.40625 96.7417373,50.5005297 96.2862288,51.221928 C96.0012712,51.6742585 95.9779661,52.2494703 96.2194915,52.9327331 C96.6612288,54.1848517 98.642161,55.5100636 100.072246,55.5100636 C106.974788,55.3617585 113.902754,54.9189619 120.015042,54.5291314 C121.00339,54.4666314 122.160169,53.7505297 122.591314,52.9327331 C123.052119,52.0630297 122.483263,50.4793432 121.738559,49.9761653 C120.887924,49.4020127 119.729025,49.0450212 118.560593,48.998411 C117.540466,48.9570975 116.430297,48.9380297 115.068008,48.9380297 C114.313771,48.9380297 113.560593,48.9443856 112.808475,48.9496822 C112.33178,48.9528602 111.856144,48.9560381 111.380508,48.9581568 L111.380508,41.2431144 C111.646398,41.1784958 111.905932,41.1170551 112.160169,41.0577331 C113.195127,40.8172669 114.173941,40.5895127 115.06589,40.1149364 C115.783051,39.7335805 116.233263,39.0164195 116.630508,38.3818856 C116.790466,38.1276483 116.939831,37.8871822 117.097669,37.6806144 C117.243856,37.4899364 117.294703,37.2431144 117.2375,37.0100636 C117.180297,36.7770127 117.021398,36.5820975 116.804237,36.4804025 C116.508686,36.3416314 116.218432,36.1869703 115.927119,36.03125 C115.175,35.6297669 114.396398,35.215572 113.522458,35.0418432 C113.395339,35.0164195 113.261864,35.0037076 113.125212,35.0037076 C112.626271,35.0037076 112.137924,35.1742585 111.662288,35.3596398 C111.661229,35.2198093 111.65911,35.0810381 111.658051,34.9433263 C111.645339,33.9221398 111.635805,32.9581568 111.683475,32.0270127 C111.738559,30.9051907 111.433475,29.9613347 110.8,29.2939619 C110.220551,28.6837924 109.419703,28.3617585 108.484322,28.3606992 M108.484322,29.1551907 C109.990678,29.15625 110.977966,30.21875 110.890042,31.9867585 C110.818008,33.3914195 110.875212,34.8034958 110.875212,36.4994703 C111.713136,36.248411 112.470551,35.7981992 113.125212,35.7981992 C113.207839,35.7981992 113.288347,35.8056144 113.367797,35.8215042 C114.449364,36.0354873 115.437712,36.7166314 116.465254,37.1996822 C115.886864,37.9602754 115.459958,39.0058263 114.693008,39.4136653 C113.535169,40.0291314 112.138983,40.1996822 110.586017,40.6308263 L110.586017,49.7547669 C112.071186,49.7547669 113.566949,49.7325212 115.068008,49.7325212 C116.220551,49.7325212 117.375212,49.7452331 118.527754,49.7918432 C119.473729,49.8310381 120.524576,50.1149364 121.293644,50.6340042 C121.755508,50.9465042 122.124153,52.1181144 121.888983,52.5630297 C121.58072,53.1445975 120.656992,53.6922669 119.964195,53.7367585 C113.349788,54.159428 106.730085,54.5725636 100.106144,54.7145127 C100.094492,54.715572 100.082839,54.715572 100.072246,54.715572 C98.9949153,54.715572 97.3052966,53.623411 96.9684322,52.6679025 C96.3455508,50.9020127 98.2872881,51.2759534 99.2809322,50.9878178 C100.00339,50.7791314 100.774576,50.7356992 101.525636,50.6276483 C106.570127,49.8945975 106.539407,49.8956568 106.579661,44.6498941 C106.6125,40.3490466 106.640042,36.0450212 106.881568,31.7547669 C106.934534,30.8130297 107.875212,29.1657839 108.429237,29.15625 C108.448305,29.15625 108.465254,29.1551907 108.484322,29.1551907" id="Fill-28" fill="#FFFFFF" mask="url(#mask-4)"></path>
                <path d="M161.789725,42.515678 C159.296081,43.3048729 159.136123,43.7942797 159.333157,44.8398305 C159.393538,45.1597458 159.757945,45.509322 160.219809,45.953178 C160.353284,46.0813559 160.494174,46.2169492 160.64036,46.3631356 L161.789725,42.515678 Z M156.06303,55.0983051 C155.948623,55.0983051 155.837394,55.0495763 155.760064,54.9574153 L155.368114,54.4923729 C155.247352,54.3472458 155.244174,54.1385593 155.361758,53.9902542 L158.92214,49.4870763 C155.644597,48.4775424 155.476165,48.1290254 155.840572,44.8800847 L153.542903,43.0834746 C153.445445,43.0082627 153.389301,42.8917373 153.389301,42.7699153 C153.389301,42.6480932 153.445445,42.5326271 153.541843,42.4574153 C153.763242,42.2836864 153.988877,42.1152542 154.215572,41.946822 C154.719809,41.5686441 155.196504,41.2137712 155.632945,40.8038136 C155.760064,40.6830508 155.894597,40.5612288 156.030191,40.4394068 C156.569386,39.9552966 157.126589,39.4542373 157.298199,38.9118644 C157.707097,37.6131356 158.046081,36.2625 158.373411,34.9552966 C158.730403,33.5368644 159.099047,32.0707627 159.560911,30.6523305 C159.775953,29.9913136 160.368114,29.5135593 160.940148,29.0516949 C161.176377,28.8610169 161.411547,28.6735169 161.613877,28.4722458 C161.689089,28.3980932 161.789725,28.357839 161.893538,28.357839 C161.926377,28.357839 161.959216,28.3620763 161.990996,28.3694915 C162.126589,28.4044492 162.233581,28.5072034 162.273835,28.640678 C162.367055,28.9521186 162.498411,29.2699153 162.629767,29.5887712 C162.947564,30.357839 163.274894,31.1544492 163.126589,31.9161017 C162.777013,33.6904661 162.213453,35.4489407 161.671081,37.1502119 C161.498411,37.6883475 161.325742,38.229661 161.158369,38.7741525 C161.284428,38.7858051 161.404131,38.7900424 161.516419,38.7900424 C162.876589,38.7900424 163.006886,37.9838983 163.120233,36.5580508 C163.189089,35.6788136 163.261123,34.7699153 163.867055,34.1904661 C163.941208,34.1173729 164.040784,34.0792373 164.141419,34.0792373 C164.183792,34.0792373 164.226165,34.0855932 164.266419,34.1004237 C165.629767,34.5538136 166.533369,35.2783898 166.950742,36.2508475 C167.384004,37.2625 167.273835,38.482839 166.621292,39.8779661 C165.821504,41.5845339 165.334216,43.4224576 164.862818,45.2 C164.684852,45.8716102 164.511123,46.5241525 164.32786,47.1449153 C164.675318,47.5654661 165.017479,47.9690678 165.353284,48.3641949 C166.381886,49.5771186 167.353284,50.7211864 168.149894,51.9838983 C168.457097,52.4690678 168.017479,53.1417373 167.551377,53.8536017 C167.426377,54.0463983 167.31197,54.2190678 167.247352,54.3472458 C167.190148,54.4637712 167.07786,54.5442797 166.949682,54.5633475 C166.930614,54.5665254 166.910487,54.5675847 166.891419,54.5675847 C166.783369,54.5675847 166.677436,54.5230932 166.602225,54.4425847 L163.29714,50.917161 L156.263242,55.0432203 C156.201801,55.0802966 156.131886,55.0983051 156.06303,55.0983051 L156.06303,55.0983051 Z" id="Fill-29" fill="#050505" mask="url(#mask-4)"></path>
                <path d="M160.446928,45.6212924 C160.101589,45.2897246 159.759428,44.9539195 159.723411,44.7664195 C159.603708,44.126589 159.531674,43.7452331 161.188453,43.1382415 L160.446928,45.6212924 Z M161.892903,27.9602754 C161.686335,27.9602754 161.484004,28.0407839 161.33464,28.1912076 C161.151377,28.3712924 160.92786,28.5524364 160.690572,28.7420551 C160.102648,29.2176907 159.434216,29.7558263 159.183157,30.5291314 C158.717055,31.9602754 158.348411,33.4316737 157.99036,34.8564619 C157.66303,36.1573093 157.325106,37.5047669 156.918326,38.7929025 C156.780614,39.2325212 156.263665,39.6954449 155.763665,40.1445975 C155.624894,40.2685381 155.488242,40.3914195 155.359004,40.5143008 C154.939513,40.9115466 154.468114,41.2621822 153.970233,41.6340042 C153.744597,41.8034958 153.518962,41.9708686 153.297564,42.1435381 C153.104767,42.2939619 152.992479,42.5248941 152.992479,42.7695975 C152.992479,43.0143008 153.104767,43.2452331 153.297564,43.3945975 L153.807097,43.7939619 L155.422564,45.0577331 C155.095233,48.126589 155.374894,48.7452331 158.255191,49.6912076 L155.048623,53.7441737 C154.815572,54.0397246 154.820869,54.4592161 155.064513,54.748411 L155.454343,55.2134534 C155.611123,55.3977754 155.83464,55.4962924 156.063453,55.4962924 C156.201165,55.4962924 156.339936,55.4602754 156.464936,55.3871822 L160.833581,52.8236229 L163.22447,51.4210805 L166.312394,54.7134534 C166.463877,54.8744703 166.674682,54.9645127 166.891843,54.9645127 C166.929979,54.9645127 166.968114,54.9613347 167.00625,54.9570975 C167.264725,54.9189619 167.487182,54.7579449 167.602648,54.5248941 C167.651377,54.4274364 167.770021,54.2462924 167.884428,54.0715042 C168.398199,53.2854873 168.929979,52.4740466 168.486123,51.7717161 C167.674682,50.4878178 166.695869,49.3342161 165.659852,48.1128178 C165.368538,47.7674788 165.069809,47.4157839 164.768962,47.0545551 C164.931038,46.4920551 165.08464,45.9126059 165.245657,45.3066737 C165.712818,43.5450212 166.195869,41.721928 166.980826,40.0460805 C167.684216,38.5439619 167.796504,37.2145127 167.315572,36.0948093 C166.851589,35.0121822 165.867479,34.2145127 164.392903,33.7229873 C164.309216,33.6954449 164.22447,33.6816737 164.140784,33.6816737 C163.939513,33.6816737 163.741419,33.7590042 163.592055,33.9020127 C162.877013,34.5863347 162.795445,35.6170551 162.723411,36.5259534 C162.612182,37.9412076 162.495657,38.3426907 161.69375,38.3893008 C161.811335,38.0132415 161.929979,37.6393008 162.050742,37.2653602 C162.596292,35.5556144 163.16197,33.7876059 163.514725,31.9931144 C163.689513,31.1149364 163.337818,30.2632415 162.997775,29.439089 C162.864301,29.1170551 162.739301,28.8130297 162.654555,28.528072 C162.575106,28.2600636 162.361123,28.0545551 162.090996,27.9856992 C162.025318,27.96875 161.95964,27.9602754 161.892903,27.9602754 L161.892903,27.9602754 Z M160.822987,47.1371822 C161.464936,44.9888771 161.868538,43.6371822 162.38125,41.9221398 C159.371716,42.7971398 158.650318,43.3596398 158.942691,44.9136653 C159.070869,45.59375 159.939513,46.1340042 160.822987,47.1371822 L160.822987,47.1371822 Z M161.892903,28.7547669 C162.201165,29.7886653 162.920445,30.903072 162.736123,31.8395127 C162.253072,34.2907839 161.374894,36.6636653 160.642903,39.1054025 C160.971292,39.1615466 161.260487,39.189089 161.515784,39.189089 C164.449047,39.189089 162.863242,35.6996822 164.140784,34.4761653 C166.868538,35.3861229 167.370657,37.3395127 166.260487,39.7092161 C165.103708,42.1784958 164.581462,44.9443856 163.886547,47.2335805 C165.340996,49.0079449 166.741419,50.498411 167.813453,52.1954449 C168.05286,52.5725636 167.135487,53.6806144 166.891843,54.1700212 C165.507309,52.6943856 164.278496,51.3829449 163.369597,50.4136653 C160.311335,52.2092161 158.187394,53.4560381 156.062394,54.7007415 C155.932097,54.5471398 155.80286,54.3914195 155.672564,54.2367585 C156.958581,52.6106992 158.245657,50.9835805 159.595233,49.2770127 C155.86536,48.153072 155.86536,48.153072 156.260487,44.7049788 C155.327225,43.9751059 154.557097,43.3723517 153.78697,42.7706568 C154.496716,42.2145127 155.252013,41.7081568 155.904555,41.0926907 C156.566631,40.4666314 157.424682,39.8278602 157.676801,39.03125 C158.532733,36.310911 159.057097,33.4856992 159.938453,30.7748941 C160.199047,29.9740466 161.220233,29.4210805 161.892903,28.7547669 L161.892903,28.7547669 Z" id="Fill-30" fill="#FFFFFF" mask="url(#mask-4)"></path>
                <path d="M142.826377,35.6912076 C143.113453,36.1753178 143.433369,36.248411 143.741631,36.248411 C144.066843,36.248411 144.438665,36.1488347 144.832733,36.0407839 C145.271292,35.9221398 145.724682,35.7992585 146.180191,35.7992585 C146.224682,35.7992585 146.268114,35.8003178 146.311547,35.8024364 L146.311547,30.7886653 C146.18125,30.7876059 146.05625,30.7865466 145.936547,30.7865466 C143.737394,30.7865466 143.421716,31.0598517 143.270233,31.8373941 L145.834852,32.4337924 C145.982097,32.4676907 146.097564,32.5831568 146.131462,32.7314619 C146.16536,32.8797669 146.112394,33.0333686 145.99375,33.1297669 L142.826377,35.6912076 Z M146.803072,56.3215042 C146.164301,56.3215042 145.147352,55.8066737 144.700318,55.534428 C144.281886,55.2823093 144.007521,54.8723517 143.689725,54.3988347 C143.546716,54.1837924 143.389936,53.9496822 143.203496,53.7081568 C143.101801,53.5768008 143.093326,53.3945975 143.183369,53.2526483 C143.256462,53.1371822 143.383581,53.0683263 143.518114,53.0683263 C143.546716,53.0683263 143.575318,53.0715042 143.603919,53.0778602 C144.054131,53.1774364 144.453496,53.2282839 144.791419,53.2282839 C145.334852,53.2282839 145.722564,53.1032839 145.97786,52.84375 C146.505403,52.3087924 146.488453,51.2060381 146.471504,50.0397246 L146.468326,49.7060381 C146.439725,47.0460805 146.446081,44.3829449 146.451377,41.6636653 L146.455614,38.6689619 C146.060487,38.7367585 145.677013,38.8077331 145.305191,38.8776483 C144.093326,39.1043432 142.948199,39.3172669 141.807309,39.3183263 C141.028708,39.3183263 139.488453,38.3829449 139.469386,37.5852754 C139.417479,35.2685381 139.52447,32.9772246 139.626165,30.7643008 C139.659004,30.064089 139.690784,29.3755297 139.716208,28.7049788 C139.724682,28.4994703 139.888877,28.3342161 140.094386,28.3236229 C141.019174,28.278072 141.870869,28.2452331 142.668538,28.2145127 C144.348623,28.1509534 145.798835,28.0958686 147.22786,27.9348517 C147.377225,27.9179025 147.518114,27.9104873 147.652648,27.9104873 C149.128284,27.9104873 150.066843,28.9210805 150.098623,30.5492585 C150.22786,37.1647246 150.347564,44.8617585 150.127225,52.501589 C150.091208,53.7547669 148.703496,54.9570975 147.589089,55.9242585 L147.330614,56.1488347 C147.199258,56.2632415 147.022352,56.3215042 146.803072,56.3215042 L146.803072,56.3215042 Z" id="Fill-31" fill="#050505" mask="url(#mask-4)"></path>
                <path d="M143.385064,35.7490466 L144.905191,34.5212924 L145.914725,33.7045551 L145.914725,35.4132415 C145.503708,35.4471398 145.110699,35.5541314 144.729343,35.6579449 C144.361758,35.7575212 144.01536,35.8518008 143.742055,35.8518008 C143.64036,35.8518008 143.518538,35.8518008 143.385064,35.7490466 L143.385064,35.7490466 Z M143.798199,31.5520127 C144.012182,31.246928 144.506886,31.184428 145.914725,31.1833686 L145.914725,32.0445975 L144.479343,31.7098517 L143.798199,31.5520127 Z M147.650953,27.5128178 C147.503708,27.5128178 147.347987,27.5212924 147.183792,27.5403602 C145.769597,27.6981992 144.326801,27.7532839 142.65625,27.8179025 C141.855403,27.8475636 141.002648,27.8793432 140.074682,27.9270127 C139.662606,27.9481992 139.336335,28.2787076 139.320445,28.6897246 C139.295021,29.3623941 139.262182,30.0520127 139.229343,30.7554025 C139.126589,32.9736229 139.020657,35.2670551 139.072564,37.5943856 C139.095869,38.6452331 140.844809,39.7151483 141.807733,39.7151483 C142.98464,39.7151483 144.145657,39.4979873 145.37553,39.2681144 C145.599047,39.2268008 145.826801,39.1833686 146.058792,39.1420551 C146.057733,39.9990466 146.055614,40.8475636 146.055614,41.6918432 C146.049258,44.4503178 146.042903,47.05625 146.070445,49.710911 L146.074682,50.0456568 C146.090572,51.0795551 146.105403,52.1473517 145.695445,52.5647246 C145.629767,52.6314619 145.433792,52.8306144 144.791843,52.8306144 C144.482521,52.8306144 144.112818,52.7829449 143.690148,52.6897246 C143.631886,52.6770127 143.575742,52.6717161 143.518538,52.6717161 C143.25053,52.6717161 142.995233,52.8073093 142.847987,53.0393008 C142.667903,53.3210805 142.684852,53.6854873 142.888242,53.9503178 C143.069386,54.184428 143.219809,54.4100636 143.35964,54.6176907 C143.689089,55.1102754 144.00053,55.5763771 144.494174,55.8751059 C144.637182,55.9619703 145.910487,56.7183263 146.803496,56.7183263 C147.120233,56.7183263 147.386123,56.6272246 147.592691,56.4471398 L147.846928,56.2257415 C149.020657,55.2077331 150.482521,53.9407839 150.523835,52.5128178 C150.744174,44.8634534 150.62447,37.1600636 150.496292,30.5414195 C150.460275,28.7024364 149.34375,27.5128178 147.650953,27.5128178 L147.650953,27.5128178 Z M143.742055,36.6462924 C144.506886,36.6462924 145.385064,36.1960805 146.181674,36.1960805 C146.362818,36.1960805 146.539725,36.2193856 146.709216,36.276589 L146.709216,30.3973517 C146.431674,30.3920551 146.174258,30.3888771 145.935911,30.3888771 C143.441208,30.3888771 143.033369,30.7225636 142.817267,32.1399364 C143.807733,32.3698093 144.775953,32.5943856 145.745233,32.8200212 C144.693326,33.6695975 143.643538,34.5191737 142.326801,35.5837924 C142.689089,36.4079449 143.185911,36.6462924 143.742055,36.6462924 L143.742055,36.6462924 Z M147.650953,28.3073093 C149.160487,28.3073093 149.679555,29.4429025 149.701801,30.5573093 C149.844809,37.8676907 149.940148,45.184428 149.729343,52.490572 C149.696504,53.6590042 148.148835,54.9047669 147.069386,55.8496822 C147.010064,55.9005297 146.917903,55.9238347 146.803496,55.9238347 C146.319386,55.9238347 145.433792,55.5149364 144.90625,55.1950212 C144.392479,54.8846398 144.096928,54.2162076 143.518538,53.4662076 C144.012182,53.5742585 144.432733,53.6251059 144.791843,53.6251059 C147.050318,53.6251059 146.885064,51.6378178 146.864936,49.7024364 C146.825742,45.9238347 146.853284,42.1441737 146.853284,38.1992585 C144.957097,38.5011653 143.381886,38.9195975 141.807733,38.9206568 C141.128708,38.9206568 139.877648,38.0657839 139.867055,37.5763771 C139.798199,34.5329449 140.007945,31.4820975 140.113877,28.7204449 C142.995233,28.5763771 145.146716,28.5689619 147.272775,28.3295551 C147.405191,28.3136653 147.53125,28.3073093 147.650953,28.3073093 L147.650953,28.3073093 Z" id="Fill-32" fill="#FFFFFF" mask="url(#mask-4)"></path>
                <path d="M130.474576,33.4918432 C130.903602,32.8308263 131.680085,32.6041314 132.32839,32.415572 C132.876059,32.2566737 133.393008,32.1051907 133.585805,31.7524364 C133.704449,31.5342161 133.71928,31.2143008 133.631356,30.79375 L130.476695,31.2407839 C130.476695,31.2407839 130.474576,33.3329449 130.474576,33.4918432 M128.602754,55.9367585 C128.441737,55.9367585 128.295551,55.8403602 128.235169,55.6888771 C128.125,55.41875 127.98411,55.1486229 127.84428,54.8784958 C127.510593,54.2376059 127.166314,53.5755297 127.176907,52.8731992 C127.288136,45.5289195 127.510593,38.0649364 127.725636,30.8477754 L127.759534,29.6920551 C127.770127,29.3297669 127.930085,29.0034958 128.058263,28.7407839 C128.102754,28.6496822 128.144068,28.5659958 128.173729,28.4865466 C128.231992,28.3329449 128.379237,28.2301907 128.545551,28.2301907 C129.087924,28.2301907 129.623941,28.2439619 130.154661,28.2566737 C130.667373,28.2683263 131.173729,28.2810381 131.676907,28.2810381 C132.389831,28.2810381 132.972458,28.2556144 133.513771,28.201589 C133.90678,28.1623941 134.256356,28.1401483 134.565678,28.1401483 C135.447034,28.1401483 136.01589,28.3191737 136.411017,28.7206568 C136.884534,29.2037076 137.067797,29.9590042 137.040254,31.3276483 C137.028602,31.9748941 136.949153,32.6041314 136.866525,33.2704449 C136.84428,33.4547669 136.819915,33.6412076 136.798729,33.8297669 L137.972458,34.0776483 C138.081568,34.0998941 138.174788,34.1676907 138.230932,34.2619703 C138.288136,34.35625 138.304025,34.4706568 138.272246,34.5755297 C137.412076,37.5628178 135.192797,39.296928 132.992585,40.8191737 C132.82839,40.9325212 132.625,40.9886653 132.373941,40.9886653 C132.088983,40.9886653 131.777542,40.9166314 131.475636,40.8456568 C131.276483,40.8001059 131.076271,40.7524364 130.895127,40.7333686 C130.784958,40.7206568 130.683263,40.6634534 130.618644,40.573411 C130.551907,40.484428 130.526483,40.3700212 130.547669,40.2619703 C130.585805,40.0681144 130.606992,39.8647246 130.628178,39.6592161 C130.681144,39.1369703 130.737288,38.5977754 131.040254,38.1708686 C131.59428,37.3933263 132.253178,36.6909958 132.950212,35.9452331 C133.108051,35.7768008 133.270127,35.6051907 133.433263,35.4293432 C133.433263,35.4293432 130.480932,34.5585805 130.474576,34.5564619 C130.473517,35.6539195 130.474576,36.7513771 130.478814,37.8488347 C130.485169,39.3604873 130.494703,40.8710805 130.503178,42.3827331 C130.525424,45.7524364 130.54661,49.1242585 130.525424,52.4939619 C130.520127,53.2206568 130.356992,53.9335805 130.198093,54.6242585 C130.127119,54.9325212 130.056144,55.2407839 130.001059,55.5490466 C129.967161,55.7291314 129.816737,55.8626059 129.634534,55.8742585 C129.634534,55.8742585 128.611229,55.9367585 128.602754,55.9367585" id="Fill-33" fill="#050505" mask="url(#mask-4)"></path>
                <path d="M130.874894,37.7239407 C130.871716,36.8447034 130.870657,35.9665254 130.870657,35.0883475 L131.908792,35.3934322 L132.704343,35.6275424 C132.687394,35.6455508 132.671504,35.6635593 132.655614,35.6805085 C132.014725,36.3637712 131.406674,37.0120763 130.874894,37.7239407 L130.874894,37.7239407 Z M130.873835,31.5851695 L133.290148,31.2440678 C133.294386,31.3807203 133.277436,31.4887712 133.236123,31.5618644 C133.122775,31.7705508 132.66197,31.9050847 132.218114,32.034322 C131.799682,32.1561441 131.307097,32.3002119 130.872775,32.5692797 L130.873835,31.5851695 Z M134.565572,27.7430085 C134.255191,27.7430085 133.898199,27.7641949 133.473411,27.8065678 C132.946928,27.8584746 132.375953,27.8838983 131.67786,27.8838983 C131.17786,27.8838983 130.674682,27.8711864 130.165148,27.8584746 C129.63125,27.846822 129.092055,27.8330508 128.545445,27.8330508 C128.214936,27.8330508 127.918326,28.0375 127.80286,28.346822 C127.776377,28.4146186 127.739301,28.4877119 127.701165,28.5661017 C127.563453,28.8478814 127.375953,29.2324153 127.363242,29.6805085 L127.321928,31.0375 C127.110064,38.1911017 126.889725,45.5883475 126.779555,52.8669492 C126.766843,53.6699153 127.151377,54.409322 127.491419,55.0618644 C127.632309,55.3351695 127.766843,55.5925847 127.866419,55.8394068 C127.988242,56.1402542 128.281674,56.3341102 128.602648,56.3341102 C128.618538,56.3341102 128.635487,56.3341102 128.651377,56.3330508 L129.658792,56.2716102 C130.023199,56.2493644 130.325106,55.9802966 130.390784,55.6211864 C130.446928,55.3182203 130.515784,55.0163136 130.585699,54.7144068 C130.748835,54.0025424 130.917267,53.2673729 130.922564,52.4972458 C130.94375,49.096822 130.921504,45.6413136 130.900318,42.2991525 C130.89714,41.9103814 130.896081,41.5216102 130.892903,41.132839 C131.033792,41.1508475 131.205403,41.1911017 131.386547,41.2334746 C131.70964,41.3086864 132.044386,41.3860169 132.374894,41.3860169 C132.705403,41.3860169 132.988242,41.3055085 133.218114,41.1455508 C135.477648,39.5830508 137.758369,37.7959746 138.654555,34.6868644 C138.714936,34.475 138.685275,34.2461864 138.571928,34.0565678 C138.457521,33.8680085 138.270021,33.7345339 138.054979,33.6889831 L137.236123,33.5163136 C137.244597,33.4474576 137.253072,33.3786017 137.261547,33.3118644 C137.345233,32.6370763 137.425742,32.0004237 137.437394,31.3362288 C137.458581,30.2483051 137.383369,29.1444915 136.69375,28.4432203 C136.078284,27.8150424 135.184216,27.7430085 134.565572,27.7430085 L134.565572,27.7430085 Z M134.565572,28.5375 C136.221292,28.5375 136.683157,29.1974576 136.642903,31.320339 C136.625953,32.2355932 136.467055,33.1487288 136.364301,34.1444915 C136.800742,34.2366525 137.244597,34.3298729 137.890784,34.4665254 C137.066631,37.3277542 134.957521,38.9771186 132.766843,40.4919492 C132.66197,40.5639831 132.528496,40.5915254 132.374894,40.5915254 C131.955403,40.5915254 131.392903,40.3870763 130.938453,40.3383475 C131.067691,39.6836864 131.011547,38.8966102 131.364301,38.4019068 C132.13125,37.3235169 133.104767,36.3944915 134.155614,35.228178 C132.587818,34.7663136 131.583581,34.4697034 130.607945,34.1815678 C131.132309,32.0438559 134.890784,33.5947034 133.928919,30.3510593 C132.815572,30.507839 131.765784,30.6572034 130.079343,30.8955508 C130.079343,33.2154661 130.071928,35.534322 130.081462,37.8510593 C130.10053,42.7324153 130.158792,47.6127119 130.128072,52.4919492 C130.120657,53.4887712 129.791208,54.4824153 129.610064,55.478178 C129.273199,55.4983051 128.938453,55.5194915 128.602648,55.5396186 C128.243538,54.6519068 127.560275,53.7610169 127.574047,52.879661 C127.691631,45.1529661 127.92786,37.4283898 128.157733,29.7038136 C128.168326,29.3108051 128.433157,28.9230932 128.545445,28.6275424 C129.614301,28.6275424 130.654555,28.6783898 131.67786,28.6783898 C132.309216,28.6783898 132.933157,28.6582627 133.55286,28.596822 C133.932097,28.5597458 134.267903,28.5375 134.565572,28.5375 L134.565572,28.5375 Z" id="Fill-34" fill="#FFFFFF" mask="url(#mask-4)"></path>
                <path d="M171.789195,48.7040254 C172.022246,49.0006356 172.236229,49.2961864 172.431144,49.5673729 C172.975636,50.3194915 173.444915,50.9699153 173.909958,51.0641949 C174.239407,51.1298729 174.521186,51.1616525 174.770127,51.1616525 C175.901483,51.1616525 176.57839,50.5726695 177.210805,47.3396186 L171.789195,48.7040254 Z M172.131356,55.3639831 C171.858051,55.3639831 171.460805,55.3269068 171.122881,55.1542373 C169.827331,54.4911017 168.82839,51.5949153 168.552966,50.7241525 C167.934322,48.7654661 167.486229,46.2654661 168.085805,45.1298729 C168.355932,44.6182203 169.095339,44.1362288 169.699153,44.0811441 C171.063559,43.9519068 172.432203,43.8597458 173.800847,43.7665254 C175.433263,43.6552966 177.121822,43.5408898 178.772246,43.3639831 C178.907839,43.3491525 179.042373,43.3417373 179.174788,43.3417373 C180.172669,43.3417373 181.081568,43.7432203 181.669492,44.4434322 C182.201271,45.0758475 182.413136,45.8925847 182.264831,46.7411017 C182.184322,47.2019068 182.106992,47.6637712 182.03072,48.1256356 C181.751059,49.8036017 181.462924,51.5387712 181.002119,53.2072034 C180.78072,54.0112288 179.595339,54.6690678 178.84322,54.7866525 C177.423729,55.0080508 176.022246,55.1023305 174.400424,55.2114407 C173.741525,55.2559322 173.052966,55.3014831 172.326271,55.3586864 L172.131356,55.3639831 Z" id="Fill-35" fill="#050505" mask="url(#mask-4)"></path>
                <path d="M172.468856,48.9430085 L174.913771,48.3275424 L176.692373,47.8805085 C176.101271,50.5372881 175.510169,50.7650424 174.769703,50.7650424 C174.547246,50.7650424 174.291949,50.734322 173.987924,50.6739407 C173.676483,50.6114407 173.186017,49.9334746 172.753814,49.3338983 C172.662712,49.207839 172.567373,49.0764831 172.468856,48.9430085 M179.174364,42.9451271 C179.027119,42.9451271 178.879873,42.9536017 178.729449,42.9684322 C177.083263,43.145339 175.395763,43.2608051 173.762288,43.3709746 C172.419068,43.4620763 171.030297,43.5563559 169.662712,43.6845339 C168.916949,43.7555085 168.070551,44.3074153 167.734746,44.9440678 C166.908475,46.5097458 167.861864,49.8550847 168.174364,50.8434322 C168.543008,52.0086864 169.548305,54.7936441 170.942373,55.5065678 C171.269703,55.675 171.671186,55.7608051 172.135169,55.7608051 C172.200847,55.7608051 172.254873,55.7597458 172.288771,55.7576271 L172.295127,55.7576271 C172.315254,55.7576271 172.3375,55.7576271 172.358686,55.7555085 C173.082203,55.6972458 173.767585,55.6516949 174.424364,55.6082627 C175.988983,55.5023305 177.467797,55.4038136 178.903178,55.1802966 C179.74322,55.0489407 181.110805,54.3074153 181.385169,53.3127119 C181.850212,51.6220339 182.142585,49.8752119 182.423305,48.1855932 C182.500636,47.7269068 182.575847,47.2682203 182.656356,46.8095339 C182.824788,45.8434322 182.582203,44.9112288 181.973093,44.1866525 C181.309958,43.3985169 180.289831,42.9451271 179.174364,42.9451271 M174.769703,51.5595339 C176.437076,51.5595339 177.099153,50.2735169 177.714619,46.803178 C175.592797,47.3370763 173.778178,47.7936441 171.080085,48.4726695 C172.230508,49.7777542 172.9,51.2650424 173.831144,51.4525424 C174.175424,51.5224576 174.486864,51.5595339 174.769703,51.5595339 M179.174364,43.7396186 C180.842797,43.7396186 182.164831,45.0033898 181.873517,46.6728814 C181.497458,48.8264831 181.197669,51.0023305 180.61928,53.1019068 C180.461441,53.675 179.466737,54.2872881 178.781356,54.3942797 C176.796186,54.7036017 174.772881,54.7661017 172.295127,54.9631356 L172.289831,54.9631356 C172.270763,54.9631356 172.215678,54.9663136 172.135169,54.9663136 C171.934958,54.9663136 171.5875,54.9451271 171.303602,54.8 C169.573729,53.9133475 167.49428,47.1040254 168.437076,45.3148305 C168.651059,44.9080508 169.270763,44.5192797 169.736864,44.4758475 C172.758051,44.1919492 175.798305,44.0817797 178.814195,43.7586864 C178.934958,43.7470339 179.05572,43.7396186 179.174364,43.7396186" id="Fill-36" fill="#FFFFFF" mask="url(#mask-4)"></path>
                <path d="M139.243962,56.6055085 C139.207945,56.6055085 139.171928,56.6002119 139.134852,56.5896186 C138.974894,56.5440678 138.860487,56.4042373 138.847775,56.2368644 L138.273623,48.459322 C138.142267,48.4381356 138.019386,48.4275424 137.906038,48.4275424 C137.094597,48.4275424 136.884852,48.9572034 136.585064,49.8915254 C136.440996,50.3396186 136.292691,50.8014831 136.018326,51.1786017 C135.406038,52.021822 134.710064,52.8141949 134.037394,53.5800847 C133.743962,53.9137712 133.44947,54.2485169 133.162394,54.5875 C133.084004,54.679661 132.971716,54.7283898 132.859428,54.7283898 C132.784216,54.7283898 132.709004,54.7072034 132.642267,54.6637712 L132.09036,54.3036017 C131.922987,54.1944915 131.862606,53.9773305 131.95053,53.7972458 L133.79375,50.0186441 C133.692055,50.0016949 133.591419,49.9847458 133.493962,49.9688559 C132.927225,49.8745763 132.390148,49.7855932 131.926165,49.5313559 C131.40286,49.2485169 130.925106,48.5514831 130.815996,47.9137712 C130.709004,47.2930085 131.725953,46.6775424 132.003496,46.5472458 C133.222775,45.9730932 134.275742,45.4783898 134.329767,45.1510593 C134.383792,44.834322 133.560699,44.0302966 132.688877,43.179661 C132.510911,43.0048729 132.430403,42.7760593 132.366843,42.5927966 C132.343538,42.5302966 132.322352,42.4667373 132.295869,42.4095339 C132.217479,42.2379237 132.270445,42.0324153 132.425106,41.9222458 C134.491843,40.4264831 137.801165,39.7442797 140.002436,39.7442797 C141.229131,39.7442797 142.822352,39.932839 143.44947,40.8269068 C143.545869,40.9646186 143.544809,41.15 143.446292,41.2866525 L141.220657,44.3788136 C141.297987,44.3745763 141.374258,44.370339 141.44947,44.3661017 C141.878496,44.3417373 142.285275,44.3173729 142.663453,44.3173729 C144.142267,44.3173729 145.533157,44.6648305 145.694174,47.1743644 C145.707945,47.3883475 145.549047,47.5747881 145.336123,47.5949153 L141.873199,47.9307203 C141.817055,48.4360169 141.76303,48.9370763 141.710064,49.432839 C141.535275,51.0673729 141.371081,52.6108051 141.112606,54.1701271 C141.033157,54.6394068 140.725953,55.0059322 140.301165,55.5144068 C140.086123,55.7697034 139.836123,56.0684322 139.565996,56.4413136 C139.489725,56.5461864 139.368962,56.6055085 139.243962,56.6055085" id="Fill-37" fill="#050505" mask="url(#mask-4)"></path>
                <path d="M140.001165,39.3470339 L140.001165,39.3470339 C137.663242,39.3470339 134.341208,40.0430085 132.191843,41.6002119 C131.885699,41.8216102 131.777648,42.2283898 131.934428,42.5726695 C131.955614,42.6192797 131.972564,42.6701271 131.990572,42.7209746 C132.064725,42.9338983 132.166419,43.2241525 132.411123,43.4635593 C133.00964,44.0472458 133.74375,44.7633475 133.909004,45.0811441 C133.639936,45.3385593 132.646292,45.8057203 131.834852,46.1870763 C131.818962,46.1944915 130.247987,46.9466102 130.424894,47.9805085 C130.554131,48.7389831 131.107097,49.5377119 131.736335,49.8809322 C132.193962,50.1309322 132.685487,50.2326271 133.203496,50.3216102 L131.593326,53.6224576 C131.417479,53.9815678 131.538242,54.4169492 131.872987,54.6362288 L132.148411,54.8163136 L132.424894,54.995339 C132.558369,55.0822034 132.708792,55.1256356 132.858157,55.1256356 C133.084852,55.1256356 133.309428,55.0292373 133.465148,54.8449153 C133.752225,54.5069915 134.044597,54.1733051 134.33697,53.840678 C135.014936,53.0673729 135.716208,52.2686441 136.340148,51.4137712 C136.651589,50.9847458 136.816843,50.4688559 136.96303,50.0133475 C137.286123,49.0059322 137.428072,48.8258475 137.903708,48.8247881 L138.089089,51.3608051 L138.451377,56.2675847 C138.475742,56.5991525 138.704555,56.8819915 139.026589,56.9730932 C139.097564,56.9932203 139.171716,57.0027542 139.242691,57.0027542 C139.49375,57.0027542 139.735275,56.8851695 139.886758,56.6743644 C140.147352,56.3163136 140.389936,56.025 140.604979,55.7697034 C141.054131,55.2336864 141.407945,54.8110169 141.504343,54.2358051 C141.762818,52.6701271 141.928072,51.1256356 142.10286,49.4900424 C142.145233,49.0949153 142.187606,48.6966102 142.232097,48.2951271 L145.374047,47.9900424 C145.800953,47.9487288 146.117691,47.5769068 146.090148,47.1489407 C145.906886,44.2877119 144.162182,43.9211864 142.662182,43.9211864 C142.455614,43.9211864 142.244809,43.9275424 142.028708,43.9370763 L142.719386,42.9773305 L143.769174,41.5197034 C143.965148,41.245339 143.968326,40.8766949 143.77447,40.6002119 C143.049894,39.5641949 141.32214,39.3470339 140.001165,39.3470339 M140.001165,40.1415254 C141.487394,40.1415254 142.689725,40.4349576 143.122987,41.054661 C142.348623,42.1330508 141.598623,43.1754237 140.420657,44.8120763 C141.234216,44.7908898 141.994809,44.715678 142.662182,44.715678 C144.140996,44.715678 145.162182,45.0822034 145.297775,47.1997881 C143.991631,47.3258475 142.726801,47.4487288 141.514936,47.5663136 C141.256462,49.8226695 141.073199,51.9773305 140.720445,54.1055085 C140.626165,54.6701271 140.011758,55.1489407 139.24375,56.2082627 C139.014936,53.1129237 138.832733,50.6436441 138.648411,48.1288136 C138.366631,48.0620763 138.121928,48.0302966 137.906886,48.0302966 C136.208792,48.0302966 136.419597,49.9540254 135.698199,50.9444915 C134.832733,52.1330508 133.811547,53.2072034 132.859216,54.3311441 C132.674894,54.2103814 132.491631,54.090678 132.307309,53.9709746 C132.967267,52.6182203 133.627225,51.2665254 134.377225,49.7283898 C133.467267,49.528178 132.709852,49.5069915 132.116631,49.182839 C131.680191,48.9466102 131.292479,48.3427966 131.207733,47.8459746 C131.163242,47.5885593 131.769174,47.0959746 132.172775,46.9063559 C135.425953,45.3756356 135.445021,45.3141949 132.965148,42.8957627 C132.803072,42.7358051 132.755403,42.4582627 132.656886,42.2432203 C134.529767,40.8883475 137.629343,40.1415254 140.001165,40.1415254" id="Fill-38" fill="#FFFFFF" mask="url(#mask-4)"></path>
                <path d="M169.747034,43.0329449 C169.635805,43.0329449 169.524576,43.0244703 169.414407,43.0075212 C168.368856,42.835911 167.4875,41.8909958 167.242797,41.6049788 C166.850847,41.1494703 167.038347,40.1007415 167.357203,39.6176907 C169.718432,36.0371822 171.730085,33.0435381 173.87839,30.0679025 C174.181356,29.651589 174.635805,29.3740466 174.999153,29.1801907 C175.148517,29.1007415 175.301059,29.023411 175.45572,28.9471398 C175.699364,28.8253178 175.944068,28.7056144 176.166525,28.5679025 C176.229025,28.5287076 176.301059,28.5085805 176.374153,28.5085805 C176.429237,28.5085805 176.484322,28.5202331 176.536229,28.5424788 C176.655932,28.5965042 176.742797,28.7066737 176.765042,28.835911 C176.787288,28.9651483 176.820127,29.0996822 176.856144,29.2363347 C176.914407,29.4566737 176.983263,29.6833686 177.052119,29.9100636 L177.117797,30.1240466 C177.373093,30.9768008 177.574364,31.7924788 177.22161,32.3920551 C176.267161,34.0096398 175.063771,35.4990466 173.899576,36.9376059 C173.495975,37.4376059 173.092373,37.9354873 172.698305,38.4397246 L172.709958,38.4630297 L177.009746,37.4534958 L178.867797,34.5615466 C178.936653,34.4534958 179.053178,34.3856992 179.180297,34.3793432 C179.187712,34.3782839 179.195127,34.3782839 179.202542,34.3782839 C179.321186,34.3782839 179.435593,34.4323093 179.510805,34.5255297 C179.797881,34.8804025 180.115678,35.2236229 180.432415,35.5679025 C181.216314,36.4195975 182.028814,37.2998941 182.425,38.3613347 C182.70678,39.1176907 182.216314,40.0488347 181.741737,40.9492585 C181.58072,41.2554025 181.421822,41.5573093 181.298941,41.8433263 C181.129449,42.2426907 180.462076,42.246928 180.434534,42.246928 C180.252331,42.246928 180.110381,42.2066737 180.001271,42.1240466 C179.259746,41.5647246 178.477966,41.2924788 177.610381,41.2924788 C176.658051,41.2924788 175.716314,41.6018008 174.718432,41.93125 C173.829661,42.2225636 172.910169,42.5255297 171.970551,42.5933263 C171.665466,42.6145127 171.345551,42.7045551 171.006568,42.7988347 C170.598729,42.9143008 170.175,43.0329449 169.747034,43.0329449" id="Fill-39" fill="#050505" mask="url(#mask-4)"></path>
                <path d="M176.374047,28.1114407 C176.22786,28.1114407 176.083792,28.1506356 175.955614,28.2290254 C175.754343,28.3540254 175.521292,28.4705508 175.27553,28.5923729 C175.11875,28.6707627 174.96303,28.7491525 174.810487,28.8307203 C174.410064,29.046822 173.903708,29.3550847 173.557309,29.8360169 C171.270233,33.0012712 169.067903,36.3021186 167.026589,39.3985169 C166.683369,39.9197034 166.361335,41.1908898 166.941843,41.8646186 C167.285064,42.2639831 168.206674,43.2131356 169.350742,43.3995763 C169.481038,43.4197034 169.613453,43.4302966 169.747987,43.4302966 C170.229979,43.4302966 170.680191,43.3042373 171.114513,43.1824153 C171.433369,43.0934322 171.733157,43.0086864 171.999047,42.9896186 C172.988453,42.9186441 173.93125,42.6082627 174.844386,42.3074153 C175.809428,41.990678 176.721504,41.6898305 177.610275,41.6898305 C178.39947,41.6898305 179.083792,41.9292373 179.762818,42.4408898 C179.940784,42.5754237 180.166419,42.6442797 180.433369,42.6442797 C180.593326,42.6442797 181.402648,42.6125 181.66536,41.9980932 C181.777648,41.734322 181.93125,41.4430085 182.093326,41.1336864 C182.609216,40.1559322 183.143114,39.145339 182.796716,38.2216102 C182.372987,37.0891949 181.537182,36.1802966 180.726801,35.3021186 C180.403708,34.9504237 180.098623,34.6188559 179.820021,34.2745763 C179.668538,34.0891949 179.441843,33.9811441 179.203496,33.9811441 C179.187606,33.9811441 179.173835,33.9811441 179.159004,33.9822034 C178.904767,33.9970339 178.671716,34.1315678 178.534004,34.3466102 L177.72786,35.6008475 L176.762818,37.1029661 L175.844386,37.3180085 L173.696081,37.8233051 C173.864513,37.6125 174.035064,37.4016949 174.205614,37.1908898 C175.380403,35.7385593 176.594386,34.2375 177.563665,32.5934322 C177.997987,31.8550847 177.780826,30.9514831 177.497987,30.0108051 L177.429131,29.7851695 C177.363453,29.5658898 177.295657,29.3476695 177.239513,29.1347458 C177.206674,29.0086864 177.177013,28.8836864 177.154767,28.7639831 C177.108157,28.5055085 176.936547,28.2862288 176.69714,28.1792373 C176.593326,28.1336864 176.484216,28.1114407 176.374047,28.1114407 M176.374047,28.9059322 C176.398411,29.0447034 176.433369,29.1898305 176.471504,29.3360169 C176.548835,29.6315678 176.646292,29.9377119 176.737394,30.2396186 C176.965148,30.9970339 177.15053,31.7279661 176.879343,32.1908898 C175.573199,34.4059322 173.809428,36.3508475 172.224682,38.4027542 L172.507521,38.9175847 C174.287182,38.5012712 176.066843,38.082839 177.257521,37.803178 C178.083792,36.517161 178.644174,35.645339 179.202436,34.7756356 C180.196081,36.0002119 181.528708,37.0987288 182.052013,38.5002119 C182.357097,39.3148305 181.386758,40.6241525 180.934428,41.6866525 C180.897352,41.7745763 180.633581,41.8497881 180.433369,41.8497881 C180.351801,41.8497881 180.280826,41.8370763 180.240572,41.8074153 C179.346504,41.1326271 178.472564,40.895339 177.610275,40.895339 C175.698199,40.895339 173.842267,42.0605932 171.941843,42.1972458 C171.205614,42.2491525 170.450318,42.6358051 169.747987,42.6358051 C169.656886,42.6358051 169.566843,42.6294492 169.47786,42.6146186 C168.769174,42.4991525 168.036123,41.9197034 167.543538,41.3466102 C167.308369,41.0733051 167.432309,40.2279661 167.689725,39.8360169 C169.808369,36.6220339 171.94714,33.4207627 174.200318,30.3 C174.435487,29.9769068 174.794597,29.740678 175.186547,29.5309322 C175.579555,29.3201271 176.004343,29.1336864 176.374047,28.9059322" id="Fill-40" fill="#FFFFFF" mask="url(#mask-4)"></path>
                <path d="M70.7242585,52.7706568 C70.1755297,52.7706568 69.2295551,52.278072 68.9467161,51.7251059 C68.3037076,50.4634534 67.7676907,49.0376059 67.3534958,47.4846398 C67.1808263,46.8331568 67.9181144,45.9867585 68.3323093,45.6975636 C68.459428,45.6085805 68.6299788,45.564089 68.8397246,45.564089 C69.2337924,45.564089 69.8990466,45.7356992 70.1416314,46.1212924 C70.7623941,47.1022246 71.3058263,48.1212924 71.8799788,49.2007415 C72.0865466,49.5895127 72.2973517,49.9846398 72.5166314,50.3893008 C72.5886653,50.5185381 72.58125,50.6763771 72.4986229,50.7992585 C72.3619703,51.0047669 72.2422669,51.2208686 72.1268008,51.4284958 C71.83125,51.9634534 71.5505297,52.4676907 71.0643008,52.7007415 C70.9668432,52.7473517 70.8513771,52.7706568 70.7242585,52.7706568" id="Fill-41" fill="#050505" mask="url(#mask-4)"></path>
                <path d="M68.8394068,45.167161 C68.5480932,45.167161 68.3002119,45.2349576 68.1052966,45.3716102 C67.6487288,45.6894068 66.7302966,46.6883475 66.9697034,47.5866525 C67.3913136,49.1650424 67.9358051,50.6184322 68.5936441,51.9044492 C68.9495763,52.604661 70.0512712,53.1682203 70.7239407,53.1682203 C70.9103814,53.1682203 71.0830508,53.1311441 71.2355932,53.0580508 C71.8362288,52.7730932 72.1614407,52.1872881 72.475,51.6216102 C72.5841102,51.4224576 72.6985169,51.2158898 72.8288136,51.0199153 C72.9930085,50.7752119 73.007839,50.4584746 72.8669492,50.1989407 C72.6466102,49.7942797 72.4358051,49.3980932 72.2271186,49.009322 C71.6497881,47.9256356 71.1052966,46.9012712 70.478178,45.9086864 C70.1338983,45.3652542 69.3086864,45.167161 68.8394068,45.167161 M68.8394068,45.9616525 C69.1826271,45.9616525 69.6752119,46.1247881 69.8065678,46.3334746 C70.6413136,47.6544492 71.3415254,49.0591102 72.1688559,50.578178 C71.7048729,51.2720339 71.4315678,52.0845339 70.8934322,52.3408898 C70.8478814,52.3631356 70.790678,52.3737288 70.7239407,52.3737288 C70.2917373,52.3737288 69.5014831,51.9383475 69.3012712,51.5442797 C68.629661,50.2286017 68.1180085,48.8112288 67.7377119,47.3822034 C67.6381356,47.0082627 68.1476695,46.3101695 68.5586864,46.0241525 C68.6211864,45.9807203 68.721822,45.9616525 68.8394068,45.9616525" id="Fill-42" fill="#FFFFFF" mask="url(#mask-4)"></path>
                <path d="M85.8795551,50.3385593 L84.8075212,50.1574153 C84.6581568,50.1319915 84.5342161,50.021822 84.4918432,49.8756356 L83.3064619,45.7707627 C83.2545551,45.5917373 83.3350636,45.4 83.4981992,45.3110169 L84.4600636,44.7866525 C84.5204449,44.7548729 84.5850636,44.7389831 84.6496822,44.7389831 C84.764089,44.7389831 84.8763771,44.7887712 84.9537076,44.8819915 C85.1454449,45.1086864 85.359428,45.3290254 85.5723517,45.5493644 C86.1115466,46.1055085 86.66875,46.679661 86.9113347,47.4010593 C87.1115466,47.9974576 86.8477754,48.6669492 86.5924788,49.3141949 C86.4939619,49.5641949 86.3943856,49.8141949 86.3287076,50.0514831 C86.2810381,50.2273305 86.1221398,50.3438559 85.9452331,50.3438559 C85.9240466,50.3438559 85.9018008,50.3417373 85.8795551,50.3385593" id="Fill-43" fill="#050505" mask="url(#mask-4)"></path>
                <path d="M84.6495763,44.3416314 C84.520339,44.3416314 84.3889831,44.3723517 84.2692797,44.4380297 L83.3074153,44.9623941 C82.9811441,45.1403602 82.8211864,45.5227754 82.925,45.8808263 L84.1114407,49.9856992 C84.1951271,50.2791314 84.4408898,50.498411 84.7417373,50.5481992 L85.8127119,50.7293432 C85.8582627,50.7367585 85.9027542,50.7409958 85.9461864,50.7409958 C86.2978814,50.7409958 86.6135593,50.5068856 86.7110169,50.1583686 C86.7692797,49.9475636 86.8625,49.7102754 86.9620763,49.4602754 C87.2311441,48.7791314 87.5351695,48.0090042 87.2872881,47.2738347 C87.017161,46.46875 86.4292373,45.8628178 85.8603814,45.2748941 C85.6516949,45.0619703 85.4440678,44.8479873 85.2586864,44.626589 C85.1040254,44.4401483 84.8783898,44.3416314 84.6495763,44.3416314 M84.6495763,45.1361229 C85.3074153,45.9221398 86.2300847,46.6202331 86.5341102,47.5270127 C86.7576271,48.1922669 86.171822,49.1308263 85.9461864,49.9465042 C85.5891949,49.8861229 85.2311441,49.8257415 84.8741525,49.7653602 C84.4790254,48.3967161 84.0838983,47.028072 83.6887712,45.659428 C84.0086864,45.4846398 84.3286017,45.3098517 84.6495763,45.1361229" id="Fill-44" fill="#FFFFFF" mask="url(#mask-4)"></path>
                <path d="M79.6819915,50.9644068 C79.6512712,50.9644068 79.6184322,50.9601695 79.5877119,50.9527542 C79.453178,50.9209746 79.3461864,50.820339 79.3038136,50.6889831 L78.0961864,46.9400424 C78.0644068,46.8372881 78.0612288,46.6911017 78.1110169,46.596822 C78.1597458,46.5025424 78.2349576,46.3955508 78.3355932,46.3637712 L79.3461864,46.0586864 C79.384322,46.0459746 79.4224576,46.0417373 79.4616525,46.0417373 C79.5411017,46.0417373 79.6194915,46.0650424 79.6872881,46.1116525 C80.6618644,46.7853814 81.167161,47.4866525 81.2370763,48.257839 C81.3091102,49.0766949 80.8927966,49.9241525 79.9627119,50.8489407 C79.8864407,50.9241525 79.7858051,50.9644068 79.6819915,50.9644068" id="Fill-45" fill="#050505" mask="url(#mask-4)"></path>
                <path d="M79.4615466,45.6440678 C79.3842161,45.6440678 79.3068856,45.6557203 79.2306144,45.6779661 L79.0876059,45.7213983 L78.2200212,45.9851695 C78.0166314,46.0466102 77.8471398,46.1885593 77.7475636,46.3760593 C77.6490466,46.565678 77.6299788,46.7860169 77.6945975,46.9894068 L78.3556144,49.0402542 L78.9255297,50.8114407 C79.0102754,51.0741525 79.2253178,51.2733051 79.4943856,51.3389831 C79.5568856,51.3548729 79.6193856,51.3612288 79.6818856,51.3612288 C79.8895127,51.3612288 80.0918432,51.2807203 80.2422669,51.1313559 C81.2613347,50.1175847 81.7168432,49.1663136 81.6331568,48.2224576 C81.5526483,47.3262712 80.9901483,46.5286017 79.9138771,45.7849576 C79.7793432,45.6927966 79.6204449,45.6440678 79.4615466,45.6440678 M79.4615466,46.4385593 C80.9647246,47.4766949 81.5346398,48.7256356 79.6818856,50.5667373 C79.271928,49.2934322 78.8619703,48.0190678 78.4509534,46.7447034 C78.7878178,46.6430085 79.1257415,46.5413136 79.4615466,46.4385593" id="Fill-46" fill="#FFFFFF" mask="url(#mask-4)"></path>
            </g>
        </g>
    </g>
</svg>