<?xml version="1.0" encoding="UTF-8"?>
<svg width="343px" height="53px" viewBox="0 0 343 53" version="1.1" xmlns="http://www.w3.org/2000/svg" xmlns:xlink="http://www.w3.org/1999/xlink">
    <!-- Generator: Sketch 41.1 (35376) - http://www.bohemiancoding.com/sketch -->
    <title>download_sticker_active</title>
    <desc>Created with Sketch.</desc>
    <defs>
        <rect id="path-1" x="0" y="0" width="335" height="45" rx="6"></rect>
        <filter x="-50%" y="-50%" width="200%" height="200%" filterUnits="objectBoundingBox" id="filter-2">
            <feOffset dx="0" dy="0" in="SourceAlpha" result="shadowOffsetOuter1"></feOffset>
            <feGaussianBlur stdDeviation="2" in="shadowOffsetOuter1" result="shadowBlurOuter1"></feGaussianBlur>
            <feColorMatrix values="0 0 0 0 0   0 0 0 0 0   0 0 0 0 0  0 0 0 0.2 0" type="matrix" in="shadowBlurOuter1"></feColorMatrix>
        </filter>
        <polygon id="path-3" points="14.8119868 0.19972028 0 0.19972028 0 29.9183357 14.8119868 29.9183357"></polygon>
    </defs>
    <g id="Page-1" stroke="none" stroke-width="1" fill="none" fill-rule="evenodd">
        <g id="Artboard" transform="translate(-688.000000, -1541.000000)">
            <g id="bottom" transform="translate(52.000000, 1436.000000)">
                <g id="btn_下載" transform="translate(633.000000, 0.000000)">
                    <g id="download_sticker_active" transform="translate(7.000000, 109.000000)">
                        <g id="Rectangle-4">
                            <use fill="black" fill-opacity="1" filter="url(#filter-2)" xlink:href="#path-1"></use>
                            <use fill="#6B0214" fill-rule="evenodd" xlink:href="#path-1"></use>
                        </g>
                        <text id="下載貼圖" font-family="DFMing-W14-WINP-BF, DFPMingSUBold-B5" font-size="20" font-weight="bold" letter-spacing="2.5" fill="#FFFFFF">
                            <tspan x="141" y="29">下載貼圖</tspan>
                        </text>
                        <g id="Page-1" transform="translate(107.000000, 7.000000)">
                            <path d="M15.0650132,12.2739207 L15.0752763,12.2838275 L15.4700132,12.6800979 L18.6275132,15.8498648 L15.4700132,19.0196317 L15.0752763,19.4159021 L15.0650132,19.4266014 L11.5029079,15.8498648 L15.0650132,12.2739207 Z M15.4700132,1.00121678 C15.3385658,0.997254079 15.2075132,0.991310023 15.0752763,0.990913753 C15.0721184,0.990913753 15.0685658,0.990517483 15.0650132,0.990517483 C6.89001316,0.990517483 0.263171053,7.6431049 0.263171053,15.8498648 C0.263171053,24.0566247 6.89001316,30.7092121 15.0650132,30.7092121 C15.0685658,30.7092121 15.0721184,30.7088159 15.0752763,30.7088159 C15.2075132,30.7088159 15.3385658,30.7028718 15.4700132,30.6993054 C23.4571184,30.4829417 29.8668553,23.9203077 29.8668553,15.8498648 C29.8668553,7.77981818 23.4571184,1.21718415 15.4700132,1.00121678 L15.4700132,1.00121678 Z" id="Fill-1" fill="#8E7D38"></path>
                            <g id="Group-5" transform="translate(0.000000, 0.196629)">
                                <mask id="mask-4" fill="white">
                                    <use xlink:href="#path-3"></use>
                                </mask>
                                <g id="Clip-4"></g>
                                <path d="M14.8017237,26.946704 C8.26211842,26.946704 2.96040789,21.624 2.96040789,15.0589883 C2.96040789,8.49397669 8.26211842,3.171669 14.8017237,3.171669 L14.8119868,3.171669 L14.8119868,0.200037296 C14.8088289,0.200037296 14.8052763,0.199641026 14.8017237,0.199641026 C6.62711842,0.199641026 -0.000118421053,6.85222844 -0.000118421053,15.0589883 C-0.000118421053,23.2657483 6.62711842,29.9183357 14.8017237,29.9183357 C14.8052763,29.9183357 14.8088289,29.9179394 14.8119868,29.9179394 L14.8119868,26.9463077 C14.8088289,26.9463077 14.8052763,26.946704 14.8017237,26.946704" id="Fill-3" fill="#D1B346" mask="url(#mask-4)"></path>
                            </g>
                            <path d="M14.8017237,21.0735408 L13.6854079,19.9528881 L10.1229079,16.3761515 L9.00619737,15.2554988 L10.1229079,14.1348462 L13.6854079,10.5585058 L14.8017237,9.43785315 L14.8119868,9.44815618 L14.8119868,3.36817949 L14.8017237,3.36817949 C8.26211842,3.36817949 2.96040789,8.69048718 2.96040789,15.2554988 C2.96040789,21.8209068 8.26211842,27.1432145 14.8017237,27.1432145 C14.8052763,27.1432145 14.8088289,27.1428182 14.8119868,27.1428182 L14.8119868,21.0632378 L14.8017237,21.0735408 Z" id="Fill-6" fill="#E2C66A"></path>
                            <polygon id="Fill-8" fill="#A5944A" points="14.8017237 18.8321166 11.2396184 15.2557762 14.8017237 11.6794359 14.8119868 11.6897389 14.8119868 9.4480373 14.8017237 9.43773427 13.6854079 10.5583869 10.1229079 14.1347273 9.00619737 15.2557762 10.1229079 16.3764289 13.6854079 19.9527692 14.8017237 21.0734219 14.8119868 21.0631189 14.8119868 18.8218135"></polygon>
                            <path d="M15.2068816,0.406692308 C15.0754342,0.402729604 14.9447763,0.397181818 14.8121447,0.396785548 L14.8121447,3.36841725 C14.9447763,3.36881352 15.0758289,3.37396503 15.2068816,3.37832401 C21.5589868,3.59310256 26.6435921,8.82664569 26.6435921,15.2557366 C26.6435921,21.6844312 21.5589868,26.9179744 15.2068816,27.1327529 C15.0758289,27.1371119 14.9447763,27.1426597 14.8121447,27.1430559 L14.8121447,30.1146876 C14.9447763,30.1146876 15.0754342,30.1083473 15.2068816,30.1047809 C23.1939868,29.8884172 29.6041184,23.3257832 29.6041184,15.2557366 C29.6041184,7.18529371 23.1939868,0.622659674 15.2068816,0.406692308" id="Fill-10" fill="#99883F"></path>
                            <path d="M15.2068816,3.37832401 C15.0758289,3.37396503 14.9447763,3.36881352 14.8121447,3.36841725 L14.8121447,9.44799767 L15.2068816,9.84426807 L15.9185921,10.5583473 L19.4806974,14.1350839 L20.5974079,15.2557366 L19.4806974,16.3763893 L15.9185921,19.9527296 L15.2068816,20.6668089 L14.8121447,21.0630793 L14.8121447,27.1430559 C14.9447763,27.1426597 15.0758289,27.1371119 15.2068816,27.1327529 C21.5589868,26.9179744 26.6435921,21.6844312 26.6435921,15.2557366 C26.6435921,8.82664569 21.5589868,3.59310256 15.2068816,3.37832401" id="Fill-12" fill="#D3B45B"></path>
                            <polygon id="Fill-14" fill="#8E7D38" points="19.4807368 14.1349254 15.9186316 10.5585851 15.2069211 9.84450583 14.8121842 9.44823543 14.8121842 11.6895408 15.2069211 12.0858112 18.3644211 15.2555781 15.2069211 18.425345 14.8121842 18.8216154 14.8121842 21.0629207 15.2069211 20.6666503 15.9186316 19.9529674 19.4807368 16.3762308 20.5974474 15.2555781"></polygon>
                        </g>
                    </g>
                </g>
            </g>
        </g>
    </g>
</svg>