<?xml version="1.0" encoding="UTF-8"?>
<svg width="432px" height="43px" viewBox="0 0 432 43" version="1.1" xmlns="http://www.w3.org/2000/svg" xmlns:xlink="http://www.w3.org/1999/xlink">
    <!-- Generator: Sketch 41.1 (35376) - http://www.bohemiancoding.com/sketch -->
    <title>game_wave</title>
    <desc>Created with Sketch.</desc>
    <defs>
        <polygon id="path-1" points="215.99985 55 0 55 0 0.951 215.99985 0.951 431.9997 0.951 431.9997 55 215.99985 55"></polygon>
    </defs>
    <g id="Page-1" stroke="none" stroke-width="1" fill="none" fill-rule="evenodd">
        <g id="Artboard-2" transform="translate(-434.000000, -592.000000)">
            <g id="game_wave" transform="translate(434.000000, 591.000000)">
                <path d="M215.8921,53.4336 C218.1341,53.4336 219.9781,54.1226 221.4541,55.0486 L210.3231,55.0486 C211.8001,54.1226 213.6461,53.4336 215.8921,53.4336 M263.8181,53.4336 C266.0641,53.4336 267.9121,54.1226 269.3881,55.0486 L258.2551,55.0486 C259.7321,54.1226 261.5761,53.4336 263.8181,53.4336 M168.1821,53.4336 C170.4251,53.4336 172.2681,54.1226 173.7451,55.0486 L162.6111,55.0486 C164.0881,54.1226 165.9341,53.4336 168.1821,53.4336 M120.2001,53.4336 C122.4441,53.4336 124.2881,54.1226 125.7661,55.0486 L114.6321,55.0486 C116.1081,54.1226 117.9541,53.4336 120.2001,53.4336 M431.0831,40.0316 C431.4001,40.0316 431.6991,40.0586 431.9991,40.0836 L431.9991,46.2696 C431.7061,46.2266 431.4041,46.1956 431.0831,46.1956 C427.0381,46.1956 425.1711,49.9956 425.1711,49.9956 L420.9991,46.5156 C420.9991,46.5156 424.1811,40.0316 431.0831,40.0316 M311.5291,53.4336 C313.7751,53.4336 315.6221,54.1226 317.0991,55.0486 L305.9661,55.0486 C307.4431,54.1226 309.2871,53.4336 311.5291,53.4336 M72.4891,53.4336 C74.7331,53.4336 76.5781,54.1226 78.0551,55.0486 L66.9211,55.0486 C68.3971,54.1226 70.2431,53.4336 72.4891,53.4336 M359.5171,53.4336 C361.7611,53.4336 363.6051,54.1226 365.0831,55.0486 L353.9471,55.0486 C355.4251,54.1226 357.2711,53.4336 359.5171,53.4336 M407.2261,53.4336 C409.4701,53.4336 411.3161,54.1226 412.7921,55.0486 L401.6601,55.0486 C403.1361,54.1226 404.9821,53.4336 407.2261,53.4336 M287.6711,46.1956 C283.6381,46.1956 281.7711,49.9956 281.7711,49.9956 L277.5871,46.5156 C277.5871,46.5156 280.7811,40.0316 287.6711,40.0316 C294.5761,40.0316 297.7591,46.5156 297.7591,46.5156 L293.5871,49.9956 C293.5871,49.9956 291.7201,46.1956 287.6711,46.1956 M383.3721,46.1956 C379.3291,46.1956 377.4621,49.9956 377.4621,49.9956 L373.2901,46.5156 C373.2901,46.5156 376.4701,40.0316 383.3721,40.0316 C390.2691,40.0316 393.4601,46.5156 393.4601,46.5156 L389.2791,49.9956 C389.2791,49.9956 387.4121,46.1956 383.3721,46.1956 M192.0331,46.1956 C187.9891,46.1956 186.1211,49.9956 186.1211,49.9956 L181.9491,46.5156 C181.9491,46.5156 185.1341,40.0316 192.0331,40.0316 C198.9291,40.0316 202.1211,46.5156 202.1211,46.5156 L197.9391,49.9956 C197.9391,49.9956 196.0701,46.1956 192.0331,46.1956 M335.5171,46.1956 C331.4841,46.1956 329.6171,49.9956 329.6171,49.9956 L325.4331,46.5156 C325.4331,46.5156 328.6241,40.0316 335.5171,40.0316 C342.4251,40.0316 345.6051,46.5156 345.6051,46.5156 L341.4331,49.9956 C341.4331,49.9956 339.5661,46.1956 335.5171,46.1956 M24.6441,53.4336 C26.8871,53.4336 28.7321,54.1226 30.2091,55.0486 L19.0761,55.0486 C20.5531,54.1226 22.3981,53.4336 24.6441,53.4336 M239.8311,46.1956 C235.7921,46.1956 233.9231,49.9956 233.9231,49.9956 L229.7471,46.5156 C229.7471,46.5156 232.9391,40.0316 239.8311,40.0316 C246.7301,40.0316 249.9131,46.5156 249.9131,46.5156 L245.7461,49.9956 C245.7461,49.9956 243.8741,46.1956 239.8311,46.1956 M0.7891,46.1956 C0.5161,46.1956 0.2541,46.2146 0.0001,46.2476 L0.0001,40.0766 C0.2611,40.0566 0.5171,40.0316 0.7891,40.0316 C7.6851,40.0316 10.8731,46.5156 10.8731,46.5156 L6.6951,49.9956 C6.6951,49.9956 4.8271,46.1956 0.7891,46.1956 M96.3441,46.1956 C92.3001,46.1956 90.4321,49.9956 90.4321,49.9956 L86.2611,46.5156 C86.2611,46.5156 89.4421,40.0316 96.3441,40.0316 C103.2401,40.0316 106.4321,46.5156 106.4321,46.5156 L102.2501,49.9956 C102.2501,49.9956 100.3821,46.1956 96.3441,46.1956 M48.4991,46.1956 C44.4561,46.1956 42.5881,49.9956 42.5881,49.9956 L38.4161,46.5156 C38.4161,46.5156 41.5971,40.0316 48.4991,40.0316 C55.3951,40.0316 58.5831,46.5156 58.5831,46.5156 L54.4061,49.9956 C54.4061,49.9956 52.5371,46.1956 48.4991,46.1956 M144.1891,46.1956 C140.1451,46.1956 138.2761,49.9956 138.2761,49.9956 L134.1051,46.5156 C134.1051,46.5156 137.2871,40.0316 144.1891,40.0316 C151.0841,40.0316 154.2761,46.5156 154.2761,46.5156 L150.0941,49.9956 C150.0941,49.9956 148.2261,46.1956 144.1891,46.1956 M144.1891,19.5446 C140.1451,19.5446 138.2761,23.3456 138.2761,23.3456 L134.1051,19.8656 C134.1051,19.8656 137.2871,13.3806 144.1891,13.3806 C151.0841,13.3806 154.2761,19.8656 154.2761,19.8656 L150.0941,23.3456 C150.0941,23.3456 148.2261,19.5446 144.1891,19.5446 M96.3441,19.5446 C92.3001,19.5446 90.4321,23.3456 90.4321,23.3456 L86.2611,19.8656 C86.2611,19.8656 89.4421,13.3806 96.3441,13.3806 C103.2401,13.3806 106.4321,19.8656 106.4321,19.8656 L102.2501,23.3456 C102.2501,23.3456 100.3821,19.5446 96.3441,19.5446 M0.7891,19.5446 C0.5161,19.5446 0.2541,19.5646 0.0001,19.5976 L0.0001,13.4256 C0.2611,13.4066 0.5171,13.3806 0.7891,13.3806 C7.6851,13.3806 10.8731,19.8656 10.8731,19.8656 L6.6951,23.3456 C6.6951,23.3456 4.8271,19.5446 0.7891,19.5446 M192.0331,19.5446 C187.9891,19.5446 186.1211,23.3456 186.1211,23.3456 L181.9491,19.8656 C181.9491,19.8656 185.1341,13.3806 192.0331,13.3806 C198.9291,13.3806 202.1211,19.8656 202.1211,19.8656 L197.9391,23.3456 C197.9391,23.3456 196.0701,19.5446 192.0331,19.5446 M48.4991,19.5446 C44.4561,19.5446 42.5881,23.3456 42.5881,23.3456 L38.4161,19.8656 C38.4161,19.8656 41.5971,13.3806 48.4991,13.3806 C55.3951,13.3806 58.5831,19.8656 58.5831,19.8656 L54.4061,23.3456 C54.4061,23.3456 52.5371,19.5446 48.4991,19.5446 M431.0831,13.3806 C431.4001,13.3806 431.6991,13.4086 431.9991,13.4336 L431.9991,19.6196 C431.7061,19.5766 431.4041,19.5446 431.0831,19.5446 C427.0381,19.5446 425.1711,23.3456 425.1711,23.3456 L420.9991,19.8656 C420.9991,19.8656 424.1811,13.3806 431.0831,13.3806 M335.5171,19.5446 C331.4841,19.5446 329.6171,23.3456 329.6171,23.3456 L325.4331,19.8656 C325.4331,19.8656 328.6241,13.3806 335.5171,13.3806 C342.4251,13.3806 345.6051,19.8656 345.6051,19.8656 L341.4331,23.3456 C341.4331,23.3456 339.5661,19.5446 335.5171,19.5446 M383.3721,19.5446 C379.3291,19.5446 377.4621,23.3456 377.4621,23.3456 L373.2901,19.8656 C373.2901,19.8656 376.4701,13.3806 383.3721,13.3806 C390.2691,13.3806 393.4601,19.8656 393.4601,19.8656 L389.2791,23.3456 C389.2791,23.3456 387.4121,19.5446 383.3721,19.5446 M239.8311,19.5446 C235.7921,19.5446 233.9231,23.3456 233.9231,23.3456 L229.7471,19.8656 C229.7471,19.8656 232.9391,13.3806 239.8311,13.3806 C246.7301,13.3806 249.9131,19.8656 249.9131,19.8656 L245.7461,23.3456 C245.7461,23.3456 243.8741,19.5446 239.8311,19.5446 M287.6711,19.5446 C283.6381,19.5446 281.7711,23.3456 281.7711,23.3456 L277.5871,19.8656 C277.5871,19.8656 280.7811,13.3806 287.6711,13.3806 C294.5761,13.3806 297.7591,19.8656 297.7591,19.8656 L293.5871,23.3456 C293.5871,23.3456 291.7201,19.5446 287.6711,19.5446 M422.2791,30.2616 C420.4021,31.0876 418.7461,32.1246 417.3041,33.2446 C417.2031,33.0406 414.0111,26.7836 407.2261,26.7836 C400.4371,26.7836 397.2511,33.0446 397.1521,33.2446 C395.7121,32.1246 394.0561,31.0876 392.1791,30.2616 C393.1031,28.6246 397.9191,20.9786 407.2261,20.9786 C416.5271,20.9786 421.3511,28.6246 422.2791,30.2616 M409.8861,41.9826 C409.0311,41.8786 408.1441,41.8246 407.2261,41.8246 C406.3081,41.8246 405.4231,41.8786 404.5681,41.9826 C404.3291,41.5176 402.4991,38.0766 398.9531,34.7756 L401.3161,36.7476 C401.3161,36.7476 403.1811,32.9476 407.2261,32.9476 C411.2631,32.9476 413.1341,36.7476 413.1341,36.7476 L415.5251,34.7556 C411.9621,38.0626 410.1241,41.5176 409.8861,41.9826 M380.6381,28.5916 C379.9921,27.3766 375.9991,20.3616 368.2511,16.9846 C368.9721,15.6696 373.7981,7.5766 383.3721,7.5766 C392.9411,7.5766 397.7711,15.6656 398.4961,16.9846 C390.7471,20.3596 386.7511,27.3746 386.1051,28.5916 C385.2261,28.4826 384.3181,28.4216 383.3721,28.4216 C382.4271,28.4216 381.5171,28.4826 380.6381,28.5916 M369.5951,33.2446 C369.4921,33.0376 366.2981,26.7836 359.5171,26.7836 C352.6171,26.7836 349.4251,33.2636 349.4251,33.2636 L353.6051,36.7476 C353.6051,36.7476 355.4721,32.9476 359.5171,32.9476 C363.5541,32.9476 365.4251,36.7476 365.4251,36.7476 L367.8061,34.7616 C364.2491,38.0666 362.4131,41.5176 362.1751,41.9826 C361.3201,41.8786 360.4351,41.8246 359.5171,41.8246 C358.5541,41.8246 357.6281,41.8886 356.7341,41.9996 C356.4231,41.3886 352.4641,33.8926 344.4311,30.3086 C345.2831,28.7876 350.1091,20.9786 359.5171,20.9786 C368.8181,20.9786 373.6401,28.6246 374.5681,30.2616 C372.6911,31.0876 371.0351,32.1246 369.5951,33.2446 M332.6601,28.6096 C332.0441,27.4476 328.0831,20.4436 320.3721,17.0336 C321.0131,15.8536 325.8491,7.5766 335.5171,7.5766 C345.1991,7.5766 350.0291,15.8596 350.6671,17.0356 C342.9541,20.4456 338.9961,27.4516 338.3801,28.6096 C337.4621,28.4906 336.5091,28.4216 335.5171,28.4216 C334.5271,28.4216 333.5781,28.4906 332.6601,28.6096 M314.3141,41.9996 C313.4191,41.8886 312.4921,41.8246 311.5291,41.8246 C310.6111,41.8246 309.7241,41.8786 308.8691,41.9826 C308.6301,41.5156 306.7871,38.0466 303.2101,34.7346 L305.6241,36.7476 C305.6241,36.7476 307.4921,32.9476 311.5291,32.9476 C315.5781,32.9476 317.4451,36.7476 317.4451,36.7476 L321.6171,33.2636 C321.6171,33.2636 318.4331,26.7836 311.5291,26.7836 C304.7421,26.7836 301.5501,33.0526 301.4541,33.2466 C300.0151,32.1266 298.3591,31.0876 296.4821,30.2636 C297.4081,28.6266 302.2301,20.9786 311.5291,20.9786 C320.9371,20.9786 325.7571,28.7876 326.6071,30.3086 C318.5761,33.8946 314.6221,41.3926 314.3141,41.9996 M284.9391,28.5916 C284.2921,27.3746 280.3001,20.3616 272.5541,16.9846 C273.2751,15.6696 278.1051,7.5766 287.6711,7.5766 C297.2491,7.5766 302.0741,15.6736 302.7941,16.9866 C295.0481,20.3636 291.0561,27.3786 290.4121,28.5916 C289.5311,28.4846 288.6191,28.4216 287.6711,28.4216 C286.7281,28.4216 285.8181,28.4826 284.9391,28.5916 M273.8961,33.2446 C273.7921,33.0356 270.6071,26.7836 263.8181,26.7836 C256.9271,26.7836 253.7341,33.2636 253.7341,33.2636 L257.9131,36.7476 C257.9131,36.7476 259.7811,32.9476 263.8181,32.9476 C267.8671,32.9476 269.7341,36.7476 269.7341,36.7476 L272.0721,34.7966 C268.5381,38.0896 266.7161,41.5196 266.4781,41.9826 C265.6221,41.8786 264.7361,41.8246 263.8181,41.8246 C262.8551,41.8246 261.9291,41.8886 261.0351,41.9996 C260.7241,41.3926 256.7731,33.8926 248.7421,30.3086 C249.5951,28.7856 254.4211,20.9786 263.8181,20.9786 C273.1241,20.9786 277.9431,28.6226 278.8711,30.2616 C276.9941,31.0876 275.3371,32.1246 273.8961,33.2446 M237.0191,28.6016 C236.3921,27.4196 232.4171,20.4106 224.6931,17.0136 C225.3651,15.7816 230.1991,7.5766 239.8311,7.5766 C249.5071,7.5766 254.3351,15.8536 254.9761,17.0336 C247.2651,20.4436 243.3041,27.4476 242.6871,28.6096 C241.7711,28.4906 240.8201,28.4216 239.8311,28.4216 C238.8571,28.4216 237.9231,28.4886 237.0191,28.6016 M218.6261,41.9926 C217.7471,41.8846 216.8371,41.8246 215.8921,41.8246 C214.9731,41.8246 214.0861,41.8806 213.2291,41.9826 C212.9931,41.5196 211.1621,38.0746 207.6111,34.7716 L209.9761,36.7476 C209.9761,36.7476 211.8451,32.9476 215.8921,32.9476 C219.9291,32.9476 221.7961,36.7476 221.7961,36.7476 L225.9761,33.2636 C225.9761,33.2636 222.7831,26.7836 215.8921,26.7836 C209.0961,26.7836 205.9111,33.0506 205.8141,33.2466 C204.3741,32.1266 202.7181,31.0876 200.8411,30.2636 C201.7661,28.6266 206.5831,20.9786 215.8921,20.9786 C225.2511,20.9786 230.0781,28.7246 230.9581,30.2906 C222.9211,33.8596 218.9561,41.3476 218.6261,41.9926 M189.2991,28.5916 C188.6531,27.3766 184.6611,20.3616 176.9151,16.9846 C177.6361,15.6696 182.4601,7.5766 192.0331,7.5766 C201.6051,7.5766 206.4341,15.6716 207.1551,16.9866 C199.4081,20.3636 195.4161,27.3786 194.7711,28.5916 C193.8911,28.4846 192.9801,28.4216 192.0331,28.4216 C191.0881,28.4216 190.1781,28.4826 189.2991,28.5916 M178.2551,33.2466 C178.1591,33.0526 174.9681,26.7836 168.1821,26.7836 C161.2761,26.7836 158.0941,33.2636 158.0941,33.2636 L162.2661,36.7476 C162.2661,36.7476 164.1341,32.9476 168.1821,32.9476 C172.2191,32.9476 174.0841,36.7476 174.0841,36.7476 L176.5021,34.7326 C172.9251,38.0446 171.0791,41.5156 170.8401,41.9826 C169.9851,41.8786 169.0991,41.8246 168.1821,41.8246 C167.2181,41.8246 166.2901,41.8886 165.3951,41.9996 C165.0861,41.3946 161.1361,33.8966 153.1031,30.3106 C153.9531,28.7906 158.7721,20.9786 168.1821,20.9786 C177.4801,20.9786 182.3031,28.6246 183.2291,30.2616 C181.3511,31.0876 179.6961,32.1266 178.2551,33.2466 M141.3301,28.6096 C140.7151,27.4476 136.7541,20.4436 129.0441,17.0336 C129.6831,15.8556 134.5131,7.5766 144.1891,7.5766 C153.8621,7.5766 158.6981,15.8556 159.3381,17.0336 C151.6261,20.4456 147.6661,27.4496 147.0511,28.6096 C146.1321,28.4906 145.1811,28.4216 144.1891,28.4216 C143.1981,28.4216 142.2481,28.4906 141.3301,28.6096 M122.9861,41.9996 C122.0911,41.8886 121.1641,41.8246 120.2001,41.8246 C119.2821,41.8246 118.3961,41.8786 117.5401,41.9826 C117.3031,41.5176 115.4701,38.0706 111.9161,34.7676 L114.2871,36.7476 C114.2871,36.7476 116.1551,32.9476 120.2001,32.9476 C124.2371,32.9476 126.1051,36.7476 126.1051,36.7476 L130.2871,33.2636 C130.2871,33.2636 127.0951,26.7836 120.2001,26.7836 C113.4011,26.7836 110.2191,33.0566 110.1251,33.2466 C108.6841,32.1266 107.0291,31.0876 105.1511,30.2636 C106.0761,28.6266 110.8921,20.9786 120.2001,20.9786 C129.6021,20.9786 134.4261,28.7886 135.2771,30.3106 C127.2461,33.8946 123.2951,41.3946 122.9861,41.9996 M93.6091,28.5916 C92.9631,27.3766 88.9711,20.3616 81.2241,16.9846 C81.9451,15.6676 86.7691,7.5766 96.3441,7.5766 C105.9141,7.5766 110.7441,15.6696 111.4661,16.9846 C103.7191,20.3616 99.7271,27.3786 99.0821,28.5916 C98.2011,28.4846 97.2901,28.4216 96.3441,28.4216 C95.3981,28.4216 94.4891,28.4826 93.6091,28.5916 M82.5661,33.2446 C82.4621,33.0376 79.2711,26.7836 72.4891,26.7836 C65.5871,26.7836 62.4061,33.2636 62.4061,33.2636 L66.5771,36.7476 C66.5771,36.7476 68.4451,32.9476 72.4891,32.9476 C76.5261,32.9476 78.3951,36.7476 78.3951,36.7476 L80.7861,34.7556 C77.2241,38.0606 75.3861,41.5156 75.1471,41.9826 C74.2921,41.8786 73.4061,41.8246 72.4891,41.8246 C71.5261,41.8246 70.6001,41.8886 69.7051,41.9996 C69.3961,41.3906 65.4441,33.8946 57.4121,30.3086 C58.2631,28.7876 63.0821,20.9786 72.4891,20.9786 C81.7901,20.9786 86.6131,28.6246 87.5391,30.2616 C85.6631,31.0876 84.0061,32.1246 82.5661,33.2446 M45.7651,28.5916 C45.1191,27.3766 41.1251,20.3616 33.3781,16.9846 C34.1001,15.6696 38.9251,7.5766 48.4991,7.5766 C58.1681,7.5766 63.0071,15.8516 63.6481,17.0336 C55.9371,20.4416 51.9751,27.4476 51.3591,28.6096 C50.4401,28.4906 49.4901,28.4216 48.4991,28.4216 C47.5541,28.4216 46.6441,28.4826 45.7651,28.5916 M34.7221,33.2446 C34.6201,33.0406 31.4251,26.7836 24.6441,26.7836 C17.8491,26.7836 14.6671,33.0506 14.5701,33.2446 C13.1291,32.1246 11.4721,31.0876 9.5941,30.2616 C10.5201,28.6226 15.3381,20.9786 24.6441,20.9786 C33.9451,20.9786 38.7681,28.6246 39.6951,30.2616 C37.8181,31.0876 36.1621,32.1246 34.7221,33.2446 M27.3031,41.9826 C26.4481,41.8786 25.5621,41.8246 24.6441,41.8246 C23.7271,41.8246 22.8411,41.8786 21.9861,41.9826 C21.7481,41.5176 19.9191,38.0786 16.3741,34.7796 L18.7311,36.7476 C18.7311,36.7476 20.6001,32.9476 24.6441,32.9476 C28.6821,32.9476 30.5511,36.7476 30.5511,36.7476 L32.9471,34.7496 C29.3821,38.0586 27.5421,41.5156 27.3031,41.9826 M431.0831,1.7716 C417.0871,1.7716 410.3591,14.4126 409.8861,15.3316 C409.0311,15.2286 408.1441,15.1736 407.2261,15.1736 C406.3081,15.1736 405.4231,15.2286 404.5681,15.3316 C404.0951,14.4106 397.3711,1.7716 383.3721,1.7716 C369.3781,1.7716 362.6481,14.4106 362.1751,15.3316 C361.3201,15.2286 360.4351,15.1736 359.5171,15.1736 C358.5541,15.1736 357.6281,15.2386 356.7341,15.3496 C356.3241,14.5426 349.5831,1.7716 335.5171,1.7716 C321.4511,1.7716 314.7221,14.5486 314.3141,15.3496 C313.4191,15.2386 312.4921,15.1736 311.5291,15.1736 C310.6111,15.1736 309.7241,15.2286 308.8691,15.3316 C308.3981,14.4126 301.6731,1.7716 287.6711,1.7716 C273.6791,1.7716 266.9511,14.4126 266.4781,15.3316 C265.6221,15.2286 264.7361,15.1736 263.8181,15.1736 C262.8551,15.1736 261.9291,15.2386 261.0351,15.3496 C260.6261,14.5486 253.9001,1.7716 239.8311,1.7716 C225.7901,1.7716 219.0601,14.4946 218.6261,15.3416 C217.7471,15.2346 216.8371,15.1736 215.8921,15.1736 C214.9731,15.1736 214.0861,15.2306 213.2291,15.3316 C212.7601,14.4136 206.0321,1.7716 192.0331,1.7716 C178.0391,1.7716 171.3121,14.4106 170.8401,15.3316 C169.9851,15.2286 169.0991,15.1736 168.1821,15.1736 C167.2181,15.1736 166.2901,15.2386 165.3951,15.3496 C164.9881,14.5506 158.2611,1.7716 144.1891,1.7716 C130.1201,1.7716 123.3931,14.5506 122.9861,15.3496 C122.0911,15.2386 121.1641,15.1736 120.2001,15.1736 C119.2821,15.1736 118.3961,15.2286 117.5401,15.3316 C117.0691,14.4126 110.3421,1.7716 96.3441,1.7716 C82.3501,1.7716 75.6201,14.4106 75.1471,15.3316 C74.2921,15.2286 73.4061,15.1736 72.4891,15.1736 C71.5261,15.1736 70.6001,15.2386 69.7051,15.3496 C69.2971,14.5466 62.5701,1.7716 48.4991,1.7716 C34.5061,1.7716 27.7751,14.4106 27.3031,15.3316 C26.4481,15.2286 25.5621,15.1736 24.6441,15.1736 C23.7271,15.1736 22.8411,15.2286 21.9861,15.3316 C21.5141,14.4106 14.7871,1.7716 0.7891,1.7716 C0.5211,1.7716 0.2621,1.7836 0.0001,1.7926 L0.0001,7.6176 C0.2641,7.6056 0.5171,7.5766 0.7891,7.5766 C10.3561,7.5766 15.1881,15.6696 15.9111,16.9846 C8.1641,20.3616 4.1701,27.3766 3.5241,28.5916 C2.6441,28.4826 1.7351,28.4216 0.7891,28.4216 C0.5211,28.4216 0.2621,28.4336 0.0001,28.4436 L0.0001,34.2676 C0.2641,34.2556 0.5171,34.2266 0.7891,34.2266 C10.3561,34.2266 15.1881,42.3206 15.9111,43.6346 C8.5241,46.8556 4.5431,53.3946 3.6281,55.0486 L10.8201,55.0486 C12.9261,52.2146 17.4441,47.6286 24.6441,47.6286 C31.8401,47.6286 36.3591,52.2146 38.4681,55.0486 L45.6611,55.0486 C44.7461,53.3946 40.7651,46.8556 33.3781,43.6346 C34.1001,42.3206 38.9251,34.2266 48.4991,34.2266 C58.1681,34.2266 63.0071,42.5016 63.6481,43.6836 C56.3301,46.9176 52.3831,53.4046 51.4731,55.0486 L58.6651,55.0486 C60.7711,52.2146 65.2881,47.6286 72.4891,47.6286 C79.6851,47.6286 84.2041,52.2146 86.3121,55.0486 L93.5051,55.0486 C92.5911,53.3946 88.6111,46.8536 81.2241,43.6346 C81.9451,42.3186 86.7691,34.2266 96.3441,34.2266 C105.9141,34.2266 110.7441,42.3206 111.4661,43.6346 C104.0801,46.8556 100.1001,53.3946 99.1861,55.0486 L106.3771,55.0486 C108.4831,52.2146 112.9991,47.6286 120.2001,47.6286 C127.3951,47.6286 131.9151,52.2146 134.0221,55.0486 L141.2161,55.0486 C140.3071,53.4046 136.3611,46.9196 129.0441,43.6836 C129.6831,42.5056 134.5131,34.2266 144.1891,34.2266 C153.8621,34.2266 158.6981,42.5056 159.3381,43.6836 C152.0201,46.9196 148.0751,53.4046 147.1651,55.0486 L154.3571,55.0486 C156.4631,52.2146 160.9811,47.6286 168.1821,47.6286 C175.3751,47.6286 179.8941,52.2146 182.0011,55.0486 L189.1941,55.0486 C188.2801,53.3946 184.3001,46.8556 176.9151,43.6346 C177.6361,42.3206 182.4601,34.2266 192.0331,34.2266 C201.6051,34.2266 206.4341,42.3226 207.1551,43.6366 C199.7691,46.8556 195.7901,53.3946 194.8761,55.0486 L202.0671,55.0486 C204.1741,52.2146 208.6911,47.6286 215.8921,47.6286 C223.0851,47.6286 227.6051,52.2146 229.7141,55.0486 L236.9101,55.0486 C235.9971,53.4006 232.0371,46.8946 224.6931,43.6636 C225.3651,42.4316 230.1991,34.2266 239.8311,34.2266 C249.5071,34.2266 254.3351,42.5036 254.9761,43.6836 C247.6581,46.9196 243.7101,53.4046 242.8001,55.0486 L249.9961,55.0486 C252.1051,52.2146 256.6261,47.6286 263.8181,47.6286 C271.0191,47.6286 275.5371,52.2146 277.6441,55.0486 L284.8351,55.0486 C283.9211,53.3946 279.9411,46.8556 272.5541,43.6346 C273.2751,42.3206 278.1051,34.2266 287.6711,34.2266 C297.2491,34.2266 302.0741,42.3246 302.7941,43.6366 C295.4101,46.8556 291.4311,53.3946 290.5151,55.0486 L297.7081,55.0486 C299.8181,52.2146 304.3371,47.6286 311.5291,47.6286 C318.7301,47.6286 323.2471,52.2146 325.3531,55.0486 L332.5461,55.0486 C331.6361,53.4046 327.6911,46.9196 320.3721,43.6836 C321.0131,42.5036 325.8491,34.2266 335.5171,34.2266 C345.1991,34.2266 350.0291,42.5096 350.6671,43.6856 C343.3471,46.9216 339.4041,53.4046 338.4961,55.0486 L345.6851,55.0486 C347.7941,52.2146 352.3161,47.6286 359.5171,47.6286 C366.7121,47.6286 371.2321,52.2146 373.3391,55.0486 L380.5351,55.0486 C379.6191,53.3946 375.6381,46.8556 368.2511,43.6346 C368.9721,42.3206 373.7981,34.2266 383.3721,34.2266 C392.9411,34.2266 397.7711,42.3166 398.4961,43.6346 C391.1071,46.8536 387.1241,53.3946 386.2081,55.0486 L393.4061,55.0486 C395.5111,52.2146 400.0271,47.6286 407.2261,47.6286 C414.4211,47.6286 418.9431,52.2146 421.0501,55.0486 L428.2441,55.0486 C427.3291,53.3946 423.3491,46.8556 415.9621,43.6346 C416.6831,42.3206 421.5071,34.2266 431.0831,34.2266 C431.4001,34.2266 431.6951,34.2576 431.9991,34.2756 L431.9991,28.4476 C431.6971,28.4356 431.3941,28.4216 431.0831,28.4216 C430.1381,28.4216 429.2281,28.4846 428.3491,28.5916 C427.7031,27.3766 423.7081,20.3616 415.9621,16.9846 C416.6831,15.6696 421.5071,7.5766 431.0831,7.5766 C431.4001,7.5766 431.6951,7.6076 431.9991,7.6246 L431.9991,1.7966 C431.6971,1.7856 431.3941,1.7716 431.0831,1.7716" id="Fill-1" fill="#D1B346"></path>
                <path d="M90.0972,50.3535 C91.1212,51.4785 92.7742,54.0665 93.3912,55.0485 L95.6752,55.0485 C95.9962,55.0335 96.3122,55.0355 96.6152,55.0485 L99.3142,55.0485 C100.1542,53.1235 102.6162,50.4805 102.6162,50.4805 C95.9732,40.5155 90.0972,50.3535 90.0972,50.3535 L90.0972,50.3535 Z M185.9032,50.3535 C186.9272,51.4785 188.5802,54.0665 189.1972,55.0485 L191.4802,55.0485 C191.8032,55.0335 192.1182,55.0355 192.4212,55.0485 L195.1202,55.0485 C195.9602,53.1235 198.4222,50.4805 198.4222,50.4805 C191.7792,40.5155 185.9032,50.3535 185.9032,50.3535 L185.9032,50.3535 Z M138.0002,50.3535 C139.0242,51.4785 140.6772,54.0665 141.2942,55.0485 L143.5772,55.0485 C143.8992,55.0335 144.2152,55.0355 144.5182,55.0485 L147.2172,55.0485 C148.0562,53.1235 150.5182,50.4805 150.5182,50.4805 C143.8762,40.5155 138.0002,50.3535 138.0002,50.3535 L138.0002,50.3535 Z M0.0002,46.0955 L0.0002,55.0485 L0.1242,55.0485 C0.4462,55.0335 0.7612,55.0355 1.0642,55.0485 L3.7642,55.0485 C4.6032,53.1235 7.0652,50.4805 7.0652,50.4805 C4.4962,46.6265 2.0442,45.7405 0.0002,46.0955 L0.0002,46.0955 Z M42.1942,50.3535 C43.2182,51.4785 44.8702,54.0665 45.4882,55.0485 L47.7712,55.0485 C48.0932,55.0335 48.4092,55.0355 48.7122,55.0485 L51.4112,55.0485 C52.2502,53.1235 54.7122,50.4805 54.7122,50.4805 C48.0702,40.5155 42.1942,50.3535 42.1942,50.3535 L42.1942,50.3535 Z M424.9082,50.3535 C425.9312,51.4785 427.5832,54.0665 428.2012,55.0485 L430.4842,55.0485 C430.8062,55.0335 431.1222,55.0355 431.4252,55.0485 L431.9992,55.0485 L431.9992,46.0955 C427.8862,45.3735 424.9082,50.3535 424.9082,50.3535 L424.9082,50.3535 Z M377.2592,50.3535 C378.2832,51.4785 379.9372,54.0665 380.5542,55.0485 L382.8372,55.0485 C383.1592,55.0335 383.4742,55.0355 383.7772,55.0485 L386.4762,55.0485 C387.3162,53.1235 389.7792,50.4805 389.7792,50.4805 C383.1362,40.5155 377.2592,50.3535 377.2592,50.3535 L377.2592,50.3535 Z M281.4542,50.3535 C282.4782,51.4785 284.1302,54.0665 284.7472,55.0485 L287.0312,55.0485 C287.3532,55.0335 287.6692,55.0355 287.9722,55.0485 L290.6712,55.0485 C291.5112,53.1235 293.9722,50.4805 293.9722,50.4805 C287.3292,40.5155 281.4542,50.3535 281.4542,50.3535 L281.4542,50.3535 Z M233.5502,50.3535 C234.5742,51.4785 236.2282,54.0665 236.8452,55.0485 L239.1282,55.0485 C239.4512,55.0335 239.7652,55.0355 240.0682,55.0485 L242.7672,55.0485 C243.6072,53.1235 246.0702,50.4805 246.0702,50.4805 C239.4272,40.5155 233.5502,50.3535 233.5502,50.3535 L233.5502,50.3535 Z M329.3572,50.3535 C330.3802,51.4785 332.0332,54.0665 332.6502,55.0485 L334.9332,55.0485 C335.2552,55.0335 335.5722,55.0355 335.8742,55.0485 L338.5742,55.0485 C339.4132,53.1235 341.8742,50.4805 341.8742,50.4805 C335.2322,40.5155 329.3572,50.3535 329.3572,50.3535 L329.3572,50.3535 Z M207.2622,43.8335 C207.2622,43.8335 202.4472,34.2265 192.0332,34.2265 C181.6162,34.2265 176.8082,43.8335 176.8082,43.8335 L181.9492,46.5155 C181.9492,46.5155 185.1342,40.0315 192.0332,40.0315 C198.9292,40.0315 202.1212,46.5155 202.1212,46.5155 L207.2622,43.8335 Z M239.8312,34.2265 C229.4172,34.2265 224.6012,43.8335 224.6012,43.8335 L229.7472,46.5155 C229.7472,46.5155 232.9392,40.0315 239.8312,40.0315 C246.7302,40.0315 249.9132,46.5155 249.9132,46.5155 L255.0562,43.8335 C255.0562,43.8335 250.2472,34.2265 239.8312,34.2265 L239.8312,34.2265 Z M144.1892,34.2265 C133.7722,34.2265 128.9642,43.8335 128.9642,43.8335 L134.1052,46.5155 C134.1052,46.5155 137.2862,40.0315 144.1892,40.0315 C151.0842,40.0315 154.2762,46.5155 154.2762,46.5155 L159.4182,43.8335 C159.4182,43.8335 154.6022,34.2265 144.1892,34.2265 L144.1892,34.2265 Z M302.9002,43.8335 C302.9002,43.8335 298.0932,34.2265 287.6712,34.2265 C277.2632,34.2265 272.4472,43.8335 272.4472,43.8335 L277.5872,46.5155 C277.5872,46.5155 280.7812,40.0315 287.6712,40.0315 C294.5762,40.0315 297.7592,46.5155 297.7592,46.5155 L302.9002,43.8335 Z M16.0182,43.8335 C16.0182,43.8335 11.2002,34.2265 0.7892,34.2265 C0.5172,34.2265 0.2642,34.2595 0.0002,34.2715 L0.0002,40.0765 C0.2612,40.0565 0.5172,40.0315 0.7892,40.0315 C7.6852,40.0315 10.8732,46.5155 10.8732,46.5155 L16.0182,43.8335 Z M415.8552,43.8335 L420.9992,46.5155 C420.9992,46.5155 424.1812,40.0315 431.0832,40.0315 C431.4002,40.0315 431.6992,40.0585 431.9992,40.0835 L431.9992,34.2795 C431.6952,34.2615 431.4002,34.2265 431.0832,34.2265 C420.6632,34.2265 415.8552,43.8335 415.8552,43.8335 L415.8552,43.8335 Z M111.5732,43.8335 C111.5732,43.8335 106.7582,34.2265 96.3442,34.2265 C85.9242,34.2265 81.1162,43.8335 81.1162,43.8335 L86.2612,46.5155 C86.2612,46.5155 89.4422,40.0315 96.3442,40.0315 C103.2402,40.0315 106.4312,46.5155 106.4312,46.5155 L111.5732,43.8335 Z M335.5172,34.2265 C325.1072,34.2265 320.2922,43.8335 320.2922,43.8335 L325.4332,46.5155 C325.4332,46.5155 328.6242,40.0315 335.5172,40.0315 C342.4252,40.0315 345.6052,46.5155 345.6052,46.5155 L350.7452,43.8335 C350.7452,43.8335 345.9372,34.2265 335.5172,34.2265 L335.5172,34.2265 Z M48.4992,34.2265 C38.0802,34.2265 33.2712,43.8335 33.2712,43.8335 L38.4162,46.5155 C38.4162,46.5155 41.5972,40.0315 48.4992,40.0315 C55.3952,40.0315 58.5832,46.5155 58.5832,46.5155 L63.7282,43.8335 C63.7282,43.8335 58.9102,34.2265 48.4992,34.2265 L48.4992,34.2265 Z M72.4892,47.6285 C65.2882,47.6285 60.7712,52.2145 58.6652,55.0485 L66.9212,55.0485 C68.3972,54.1235 70.2432,53.4335 72.4892,53.4335 C74.7332,53.4335 76.5772,54.1235 78.0552,55.0485 L86.3122,55.0485 C84.2042,52.2145 79.6852,47.6285 72.4892,47.6285 L72.4892,47.6285 Z M263.8182,47.6285 C256.6262,47.6285 252.1052,52.2145 249.9952,55.0485 L258.2552,55.0485 C259.7322,54.1235 261.5762,53.4335 263.8182,53.4335 C266.0642,53.4335 267.9112,54.1235 269.3882,55.0485 L277.6442,55.0485 C275.5362,52.2145 271.0192,47.6285 263.8182,47.6285 L263.8182,47.6285 Z M359.5172,47.6285 C352.3162,47.6285 347.7942,52.2145 345.6852,55.0485 L353.9472,55.0485 C355.4252,54.1235 357.2712,53.4335 359.5172,53.4335 C361.7612,53.4335 363.6052,54.1235 365.0832,55.0485 L373.3392,55.0485 C371.2322,52.2145 366.7122,47.6285 359.5172,47.6285 L359.5172,47.6285 Z M407.2262,47.6285 C400.0272,47.6285 395.5112,52.2145 393.4062,55.0485 L401.6592,55.0485 C403.1362,54.1235 404.9822,53.4335 407.2262,53.4335 C409.4702,53.4335 411.3162,54.1235 412.7922,55.0485 L421.0502,55.0485 C418.9432,52.2145 414.4212,47.6285 407.2262,47.6285 L407.2262,47.6285 Z M215.8922,47.6285 C208.6912,47.6285 204.1742,52.2145 202.0672,55.0485 L210.3232,55.0485 C211.8002,54.1235 213.6462,53.4335 215.8922,53.4335 C218.1342,53.4335 219.9782,54.1235 221.4542,55.0485 L229.7142,55.0485 C227.6052,52.2145 223.0852,47.6285 215.8922,47.6285 L215.8922,47.6285 Z M311.5292,47.6285 C304.3372,47.6285 299.8182,52.2145 297.7082,55.0485 L305.9662,55.0485 C307.4432,54.1235 309.2862,53.4335 311.5292,53.4335 C313.7752,53.4335 315.6222,54.1235 317.0992,55.0485 L325.3532,55.0485 C323.2472,52.2145 318.7302,47.6285 311.5292,47.6285 L311.5292,47.6285 Z M24.6442,47.6285 C17.4442,47.6285 12.9262,52.2145 10.8202,55.0485 L19.0762,55.0485 C20.5532,54.1235 22.3982,53.4335 24.6442,53.4335 C26.8872,53.4335 28.7322,54.1235 30.2092,55.0485 L38.4682,55.0485 C36.3592,52.2145 31.8402,47.6285 24.6442,47.6285 L24.6442,47.6285 Z M398.6032,43.8335 C398.6032,43.8335 393.7862,34.2265 383.3722,34.2265 C372.9522,34.2265 368.1442,43.8335 368.1442,43.8335 L373.2902,46.5155 C373.2902,46.5155 376.4702,40.0315 383.3722,40.0315 C390.2692,40.0315 393.4602,46.5155 393.4602,46.5155 L398.6032,43.8335 Z M168.1812,47.6285 C160.9812,47.6285 156.4632,52.2145 154.3572,55.0485 L162.6112,55.0485 C164.0882,54.1235 165.9342,53.4335 168.1812,53.4335 C170.4252,53.4335 172.2682,54.1235 173.7452,55.0485 L182.0012,55.0485 C179.8942,52.2145 175.3752,47.6285 168.1812,47.6285 L168.1812,47.6285 Z M120.2002,47.6285 C112.9992,47.6285 108.4832,52.2145 106.3772,55.0485 L114.6322,55.0485 C116.1082,54.1235 117.9542,53.4335 120.2002,53.4335 C122.4442,53.4335 124.2882,54.1235 125.7652,55.0485 L134.0222,55.0485 C131.9152,52.2145 127.3952,47.6285 120.2002,47.6285 L120.2002,47.6285 Z M90.0972,23.7035 C91.3742,25.1075 93.6352,28.7915 93.6352,28.7915 C96.0232,27.8765 99.1622,28.7915 99.1622,28.7915 C99.7972,26.8555 102.6162,23.8305 102.6162,23.8305 C95.9732,13.8655 90.0972,23.7035 90.0972,23.7035 L90.0972,23.7035 Z M66.1862,37.0275 C67.4642,38.4335 69.7242,42.1175 69.7242,42.1175 C72.1132,41.2035 75.2522,42.1175 75.2522,42.1175 C75.8862,40.1795 78.7052,37.1545 78.7052,37.1545 C72.0622,27.1915 66.1862,37.0275 66.1862,37.0275 L66.1862,37.0275 Z M138.0002,23.7035 C139.2772,25.1075 141.5382,28.7915 141.5382,28.7915 C143.9262,27.8765 147.0652,28.7915 147.0652,28.7915 C147.7002,26.8555 150.5182,23.8305 150.5182,23.8305 C143.8762,13.8655 138.0002,23.7035 138.0002,23.7035 L138.0002,23.7035 Z M185.9032,23.7035 C187.1802,25.1075 189.4412,28.7915 189.4412,28.7915 C191.8292,27.8765 194.9692,28.7915 194.9692,28.7915 C195.6032,26.8555 198.4222,23.8305 198.4222,23.8305 C191.7792,13.8655 185.9032,23.7035 185.9032,23.7035 L185.9032,23.7035 Z M161.9932,37.0275 C163.2702,38.4335 165.5312,42.1175 165.5312,42.1175 C167.9192,41.2035 171.0582,42.1175 171.0582,42.1175 C171.6922,40.1795 174.5112,37.1545 174.5112,37.1545 C167.8682,27.1915 161.9932,37.0275 161.9932,37.0275 L161.9932,37.0275 Z M424.9082,23.7035 C426.1852,25.1075 428.4452,28.7915 428.4452,28.7915 C429.6012,28.3495 430.9332,28.3355 431.9992,28.4395 L431.9992,19.4455 C427.8862,18.7225 424.9082,23.7035 424.9082,23.7035 L424.9082,23.7035 Z M42.1942,23.7035 C43.4712,25.1075 45.7322,28.7915 45.7322,28.7915 C48.1202,27.8765 51.2592,28.7915 51.2592,28.7915 C51.8932,26.8555 54.7122,23.8305 54.7122,23.8305 C48.0702,13.8655 42.1942,23.7035 42.1942,23.7035 L42.1942,23.7035 Z M18.2832,37.0275 C19.5602,38.4335 21.8212,42.1175 21.8212,42.1175 C24.2092,41.2035 27.3482,42.1175 27.3482,42.1175 C27.9832,40.1795 30.8022,37.1545 30.8022,37.1545 C24.1592,27.1915 18.2832,37.0275 18.2832,37.0275 L18.2832,37.0275 Z M3.6122,28.7915 C4.2462,26.8555 7.0652,23.8305 7.0652,23.8305 C4.4962,19.9765 2.0442,19.0895 0.0002,19.4455 L0.0002,28.4045 C1.8732,28.2875 3.6122,28.7915 3.6122,28.7915 L3.6122,28.7915 Z M114.0892,37.0275 C115.3672,38.4335 117.6272,42.1175 117.6272,42.1175 C120.0152,41.2035 123.1552,42.1175 123.1552,42.1175 C123.7892,40.1795 126.6082,37.1545 126.6082,37.1545 C119.9652,27.1915 114.0892,37.0275 114.0892,37.0275 L114.0892,37.0275 Z M209.6402,37.0275 C210.9172,38.4335 213.1782,42.1175 213.1782,42.1175 C215.5662,41.2035 218.7042,42.1175 218.7042,42.1175 C219.3392,40.1795 222.1582,37.1545 222.1582,37.1545 C215.5162,27.1915 209.6402,37.0275 209.6402,37.0275 L209.6402,37.0275 Z M400.9952,37.0275 C402.2732,38.4335 404.5342,42.1175 404.5342,42.1175 C406.9212,41.2035 410.0622,42.1175 410.0622,42.1175 C410.6952,40.1795 413.5152,37.1545 413.5152,37.1545 C406.8722,27.1915 400.9952,37.0275 400.9952,37.0275 L400.9952,37.0275 Z M329.3572,23.7035 C330.6342,25.1075 332.8942,28.7915 332.8942,28.7915 C335.2832,27.8765 338.4212,28.7915 338.4212,28.7915 C339.0562,26.8555 341.8742,23.8305 341.8742,23.8305 C335.2322,13.8655 329.3572,23.7035 329.3572,23.7035 L329.3572,23.7035 Z M377.2592,23.7035 C378.5362,25.1075 380.7982,28.7915 380.7982,28.7915 C383.1852,27.8765 386.3262,28.7915 386.3262,28.7915 C386.9582,26.8555 389.7792,23.8305 389.7792,23.8305 C383.1362,13.8655 377.2592,23.7035 377.2592,23.7035 L377.2592,23.7035 Z M353.3492,37.0275 C354.6262,38.4335 356.8862,42.1175 356.8862,42.1175 C359.2752,41.2035 362.4132,42.1175 362.4132,42.1175 C363.0482,40.1795 365.8672,37.1545 365.8672,37.1545 C359.2242,27.1915 353.3492,37.0275 353.3492,37.0275 L353.3492,37.0275 Z M233.5502,23.7035 C234.8272,25.1075 237.0892,28.7915 237.0892,28.7915 C239.4762,27.8765 242.6172,28.7915 242.6172,28.7915 C243.2492,26.8555 246.0702,23.8305 246.0702,23.8305 C239.4272,13.8655 233.5502,23.7035 233.5502,23.7035 L233.5502,23.7035 Z M257.5422,37.0275 C258.8202,38.4335 261.0812,42.1175 261.0812,42.1175 C263.4702,41.2035 266.6092,42.1175 266.6092,42.1175 C267.2432,40.1795 270.0622,37.1545 270.0622,37.1545 C263.4192,27.1915 257.5422,37.0275 257.5422,37.0275 L257.5422,37.0275 Z M305.4452,37.0275 C306.7222,38.4335 308.9842,42.1175 308.9842,42.1175 C311.3722,41.2035 314.5112,42.1175 314.5112,42.1175 C315.1462,40.1795 317.9642,37.1545 317.9642,37.1545 C311.3222,27.1915 305.4452,37.0275 305.4452,37.0275 L305.4452,37.0275 Z M281.4542,23.7035 C282.7322,25.1075 284.9922,28.7915 284.9922,28.7915 C287.3802,27.8765 290.5192,28.7915 290.5192,28.7915 C291.1542,26.8555 293.9722,23.8305 293.9722,23.8305 C287.3292,13.8655 281.4542,23.7035 281.4542,23.7035 L281.4542,23.7035 Z M335.5172,13.3805 C342.4252,13.3805 345.6052,19.8655 345.6052,19.8655 L350.7452,17.1835 C350.7452,17.1835 345.9372,7.5765 335.5172,7.5765 C325.1072,7.5765 320.2922,17.1835 320.2922,17.1835 L325.4332,19.8655 C325.4332,19.8655 328.6242,13.3805 335.5172,13.3805 L335.5172,13.3805 Z M344.2812,30.5855 L349.4252,33.2635 C349.4252,33.2635 352.6172,26.7835 359.5172,26.7835 C366.4112,26.7835 369.6052,33.2635 369.6052,33.2635 L374.7452,30.5855 C374.7452,30.5855 369.9292,20.9785 359.5172,20.9785 C349.0952,20.9785 344.2812,30.5855 344.2812,30.5855 L344.2812,30.5855 Z M239.8312,13.3805 C246.7302,13.3805 249.9132,19.8655 249.9132,19.8655 L255.0562,17.1835 C255.0562,17.1835 250.2472,7.5765 239.8312,7.5765 C229.4172,7.5765 224.6012,17.1835 224.6012,17.1835 L229.7472,19.8655 C229.7472,19.8655 232.9392,13.3805 239.8312,13.3805 L239.8312,13.3805 Z M296.3042,30.5855 L301.4452,33.2635 C301.4452,33.2635 304.6362,26.7835 311.5292,26.7835 C318.4332,26.7835 321.6172,33.2635 321.6172,33.2635 L326.7572,30.5855 C326.7572,30.5855 321.9512,20.9785 311.5292,20.9785 C301.1202,20.9785 296.3042,30.5855 296.3042,30.5855 L296.3042,30.5855 Z M287.6712,13.3805 C294.5762,13.3805 297.7592,19.8655 297.7592,19.8655 L302.9002,17.1835 C302.9002,17.1835 298.0932,7.5765 287.6712,7.5765 C277.2632,7.5765 272.4472,17.1835 272.4472,17.1835 L277.5872,19.8655 C277.5872,19.8655 280.7812,13.3805 287.6712,13.3805 L287.6712,13.3805 Z M383.3722,13.3805 C390.2692,13.3805 393.4602,19.8655 393.4602,19.8655 L398.6032,17.1835 C398.6032,17.1835 393.7862,7.5765 383.3722,7.5765 C372.9522,7.5765 368.1442,17.1835 368.1442,17.1835 L373.2902,19.8655 C373.2902,19.8655 376.4702,13.3805 383.3722,13.3805 L383.3722,13.3805 Z M431.0832,7.5765 C420.6632,7.5765 415.8552,17.1835 415.8552,17.1835 L420.9992,19.8655 C420.9992,19.8655 424.1812,13.3805 431.0832,13.3805 C431.4002,13.3805 431.6992,13.4085 431.9992,13.4335 L431.9992,7.6285 C431.6952,7.6115 431.4002,7.5765 431.0832,7.5765 L431.0832,7.5765 Z M10.8732,19.8655 L16.0182,17.1835 C16.0182,17.1835 11.2002,7.5765 0.7892,7.5765 C0.5172,7.5765 0.2642,7.6095 0.0002,7.6215 L0.0002,13.4255 C0.2612,13.4065 0.5172,13.3805 0.7892,13.3805 C7.6852,13.3805 10.8732,19.8655 10.8732,19.8655 L10.8732,19.8655 Z M417.3142,33.2635 L422.4562,30.5855 C422.4562,30.5855 417.6402,20.9785 407.2262,20.9785 C396.8062,20.9785 392.0012,30.5855 392.0012,30.5855 L397.1422,33.2635 C397.1422,33.2635 400.3272,26.7835 407.2262,26.7835 C414.1222,26.7835 417.3142,33.2635 417.3142,33.2635 L417.3142,33.2635 Z M248.5892,30.5855 L253.7342,33.2635 C253.7342,33.2635 256.9272,26.7835 263.8182,26.7835 C270.7222,26.7835 273.9062,33.2635 273.9062,33.2635 L279.0482,30.5855 C279.0482,30.5855 274.2402,20.9785 263.8182,20.9785 C253.4092,20.9785 248.5892,30.5855 248.5892,30.5855 L248.5892,30.5855 Z M57.2612,30.5855 L62.4062,33.2635 C62.4062,33.2635 65.5872,26.7835 72.4892,26.7835 C79.3852,26.7835 82.5762,33.2635 82.5762,33.2635 L87.7172,30.5855 C87.7172,30.5855 82.9032,20.9785 72.4892,20.9785 C62.0692,20.9785 57.2612,30.5855 57.2612,30.5855 L57.2612,30.5855 Z M9.4162,30.5855 L14.5602,33.2635 C14.5602,33.2635 17.7422,26.7835 24.6442,26.7835 C31.5362,26.7835 34.7312,33.2635 34.7312,33.2635 L39.8732,30.5855 C39.8732,30.5855 35.0572,20.9785 24.6442,20.9785 C14.2232,20.9785 9.4162,30.5855 9.4162,30.5855 L9.4162,30.5855 Z M96.3442,13.3805 C103.2402,13.3805 106.4312,19.8655 106.4312,19.8655 L111.5732,17.1835 C111.5732,17.1835 106.7582,7.5765 96.3442,7.5765 C85.9242,7.5765 81.1162,17.1835 81.1162,17.1835 L86.2612,19.8655 C86.2612,19.8655 89.4422,13.3805 96.3442,13.3805 L96.3442,13.3805 Z M48.4992,13.3805 C55.3952,13.3805 58.5832,19.8655 58.5832,19.8655 L63.7282,17.1835 C63.7282,17.1835 58.9102,7.5765 48.4992,7.5765 C38.0802,7.5765 33.2712,17.1835 33.2712,17.1835 L38.4162,19.8655 C38.4162,19.8655 41.5972,13.3805 48.4992,13.3805 L48.4992,13.3805 Z M152.9532,30.5855 L158.0942,33.2635 C158.0942,33.2635 161.2762,26.7835 168.1812,26.7835 C175.0742,26.7835 178.2642,33.2635 178.2642,33.2635 L183.4072,30.5855 C183.4072,30.5855 178.5922,20.9785 168.1812,20.9785 C157.7612,20.9785 152.9532,30.5855 152.9532,30.5855 L152.9532,30.5855 Z M192.0332,13.3805 C198.9292,13.3805 202.1212,19.8655 202.1212,19.8655 L207.2622,17.1835 C207.2622,17.1835 202.4472,7.5765 192.0332,7.5765 C181.6162,7.5765 176.8082,17.1835 176.8082,17.1835 L181.9492,19.8655 C181.9492,19.8655 185.1342,13.3805 192.0332,13.3805 L192.0332,13.3805 Z M104.9742,30.5855 L110.1162,33.2635 C110.1162,33.2635 113.2972,26.7835 120.2002,26.7835 C127.0952,26.7835 130.2862,33.2635 130.2862,33.2635 L135.4282,30.5855 C135.4282,30.5855 130.6132,20.9785 120.2002,20.9785 C109.7792,20.9785 104.9742,30.5855 104.9742,30.5855 L104.9742,30.5855 Z M200.6632,30.5855 L205.8052,33.2635 C205.8052,33.2635 208.9902,26.7835 215.8922,26.7835 C222.7832,26.7835 225.9762,33.2635 225.9762,33.2635 L231.1202,30.5855 C231.1202,30.5855 226.3002,20.9785 215.8922,20.9785 C205.4722,20.9785 200.6632,30.5855 200.6632,30.5855 L200.6632,30.5855 Z M134.1052,19.8655 L128.9642,17.1835 C128.9642,17.1835 133.7722,7.5765 144.1892,7.5765 C154.6022,7.5765 159.4182,17.1835 159.4182,17.1835 L154.2762,19.8655 C154.2762,19.8655 151.0842,13.3805 144.1892,13.3805 C137.2862,13.3805 134.1052,19.8655 134.1052,19.8655 L134.1052,19.8655 Z" id="Fill-3" fill="#D1B346"></path>
                <g id="Group-7" transform="translate(0.000000, 0.048800)">
                    <mask id="mask-2" fill="white">
                        <use xlink:href="#path-1"></use>
                    </mask>
                    <g id="Clip-6"></g>
                    <path d="M326.3217,55 L324.3647,55 C322.2067,52.283 317.9837,48.352 311.5287,48.352 C305.0657,48.352 300.8447,52.283 298.6947,55 L296.7437,55 C298.7627,52.102 303.5407,46.809 311.5287,46.809 C319.5227,46.809 324.3007,52.102 326.3217,55 M263.8177,52.613 C266.7647,52.613 269.0537,53.695 270.7587,55 L267.7317,55 C266.6047,54.492 265.3057,54.154 263.8177,54.154 C262.3337,54.154 261.0347,54.492 259.9097,55 L256.8857,55 C258.5917,53.695 260.8807,52.613 263.8177,52.613 M311.5287,52.613 C314.4757,52.613 316.7647,53.695 318.4697,55 L315.4427,55 C314.3157,54.492 313.0167,54.154 311.5287,54.154 C310.0447,54.154 308.7457,54.492 307.6187,55 L304.5967,55 C306.3017,53.695 308.5917,52.613 311.5287,52.613 M278.6107,55 L276.6517,55 C274.4977,52.283 270.2727,48.352 263.8177,48.352 C257.3527,48.352 253.1327,52.283 250.9837,55 L249.0327,55 C251.0517,52.102 255.8297,46.809 263.8177,46.809 C271.8117,46.809 276.5897,52.102 278.6107,55 M407.2257,52.613 C410.1677,52.613 412.4567,53.695 414.1617,55 L411.1377,55 C410.0107,54.492 408.7127,54.154 407.2257,54.154 C405.7397,54.154 404.4407,54.492 403.3137,55 L400.2867,55 C401.9917,53.695 404.2807,52.613 407.2257,52.613 M422.0127,55 L420.0597,55 C417.9077,52.283 413.6807,48.352 407.2257,48.352 C400.7517,48.352 396.5367,52.283 394.3877,55 L392.4387,55 C394.4607,52.102 399.2357,46.809 407.2257,46.809 C415.2147,46.809 419.9957,52.102 422.0127,55 M374.3017,55 L372.3467,55 C370.1927,52.283 365.9697,48.352 359.5167,48.352 C353.0467,48.352 348.8237,52.283 346.6737,55 L344.7217,55 C346.7437,52.102 351.5247,46.809 359.5167,46.809 C367.5057,46.809 372.2847,52.102 374.3017,55 M359.5167,52.613 C362.4567,52.613 364.7457,53.695 366.4527,55 L363.4287,55 C362.3007,54.492 361.0037,54.154 359.5167,54.154 C358.0287,54.154 356.7297,54.492 355.6027,55 L352.5737,55 C354.2787,53.695 356.5697,52.613 359.5167,52.613 M72.4887,52.613 C75.4287,52.613 77.7177,53.695 79.4237,55 L76.3997,55 C75.2727,54.492 73.9747,54.154 72.4887,54.154 C71.0017,54.154 69.7027,54.492 68.5747,55 L65.5487,55 C67.2527,53.695 69.5427,52.613 72.4887,52.613 M87.2757,55 L85.3207,55 C83.1667,52.283 78.9437,48.352 72.4887,48.352 C66.0147,48.352 61.7977,52.283 59.6497,55 L57.6987,55 C59.7207,52.102 64.4967,46.809 72.4887,46.809 C80.4757,46.809 85.2567,52.102 87.2757,55 M24.6447,52.613 C27.5847,52.613 29.8727,53.695 31.5787,55 L28.5557,55 C27.4287,54.492 26.1307,54.154 24.6447,54.154 C23.1567,54.154 21.8587,54.492 20.7307,55 L17.7037,55 C19.4087,53.695 21.6977,52.613 24.6447,52.613 M134.9877,55 L133.0317,55 C130.8787,52.283 126.6547,48.352 120.1997,48.352 C113.7257,48.352 109.5087,52.283 107.3607,55 L105.4107,55 C107.4317,52.102 112.2077,46.809 120.1997,46.809 C128.1867,46.809 132.9677,52.102 134.9877,55 M182.9667,55 L181.0107,55 C178.8577,52.283 174.6347,48.352 168.1817,48.352 C161.7047,48.352 157.4877,52.283 155.3387,55 L153.3887,55 C155.4107,52.102 160.1877,46.809 168.1817,46.809 C176.1687,46.809 180.9467,52.102 182.9667,55 M120.1997,52.613 C123.1397,52.613 125.4277,53.695 127.1337,55 L124.1107,55 C122.9837,54.492 121.6857,54.154 120.1997,54.154 C118.7127,54.154 117.4137,54.492 116.2857,55 L113.2597,55 C114.9647,53.695 117.2537,52.613 120.1997,52.613 M230.6757,55 L228.7217,55 C226.5677,52.283 222.3427,48.352 215.8917,48.352 C209.4157,48.352 205.1977,52.283 203.0497,55 L201.0997,55 C203.1207,52.102 207.8977,46.809 215.8917,46.809 C223.8807,46.809 228.6577,52.102 230.6757,55 M168.1817,52.613 C171.1197,52.613 173.4077,53.695 175.1137,55 L172.0907,55 C170.9637,54.492 169.6667,54.154 168.1817,54.154 C166.6947,54.154 165.3957,54.492 164.2677,55 L161.2387,55 C162.9447,53.695 165.2347,52.613 168.1817,52.613 M215.8917,52.613 C218.8317,52.613 221.1187,53.695 222.8237,55 L219.8017,55 C218.6757,54.492 217.3767,54.154 215.8917,54.154 C214.4047,54.154 213.1057,54.492 211.9777,55 L208.9497,55 C210.6557,53.695 212.9457,52.613 215.8917,52.613 M39.4317,55 L37.4747,55 C35.3207,52.283 31.0967,48.352 24.6447,48.352 C18.1707,48.352 13.9537,52.283 11.8037,55 L9.8527,55 C11.8747,52.102 16.6497,46.809 24.6447,46.809 C32.6317,46.809 37.4117,52.102 39.4317,55 M427.1067,27.953 C425.4957,28.24 423.9957,28.688 422.6067,29.252 C421.0717,26.764 416.1557,20.158 407.2257,20.158 C398.2947,20.158 393.3827,26.766 391.8427,29.252 C390.4547,28.688 388.9527,28.238 387.3417,27.953 C389.3037,24.76 395.7847,15.893 407.2257,15.893 C418.6437,15.893 425.1377,24.762 427.1067,27.953 M413.4567,35.723 C412.6807,34.541 410.6767,32.127 407.2257,32.127 C403.7647,32.127 401.7627,34.553 400.9957,35.732 C400.1657,34.836 399.2087,33.918 398.1307,33.033 C399.0307,31.576 402.0077,27.504 407.2257,27.504 C412.4387,27.504 415.4177,31.57 416.3197,33.031 C415.2417,33.912 414.2867,34.83 413.4567,35.723 M409.4547,41.119 C408.7317,41.049 407.9917,41.004 407.2257,41.004 C406.4607,41.004 405.7177,41.051 404.9937,41.121 C404.5467,40.332 403.5697,38.75 402.0557,36.936 C402.3667,36.381 404.0187,33.67 407.2257,33.67 C410.4367,33.67 412.0857,36.389 412.3857,36.939 C410.8747,38.75 409.9017,40.332 409.4547,41.119 M393.2747,29.895 C394.7987,27.529 399.3447,21.701 407.2257,21.701 C415.0837,21.701 419.6477,27.527 421.1757,29.893 C419.8547,30.539 418.6477,31.285 417.5507,32.082 C416.4157,30.262 413.1007,25.963 407.2257,25.963 C401.3377,25.963 398.0347,30.266 396.8997,32.084 C395.8017,31.287 394.5947,30.541 393.2747,29.895 M398.8297,42.623 C397.3877,40.244 392.4567,33.408 383.3727,33.408 C374.2787,33.408 369.3547,40.248 367.9117,42.625 C366.5187,42.064 365.0187,41.617 363.4017,41.336 C365.2647,38.268 371.7667,29.145 383.3727,29.145 C394.9567,29.145 401.4697,38.27 403.3337,41.338 C401.7197,41.617 400.2197,42.062 398.8297,42.623 M393.7597,45.434 C392.6907,43.684 389.3627,39.211 383.3727,39.211 C377.3627,39.211 374.0467,43.689 372.9797,45.437 C371.8787,44.643 370.6657,43.9 369.3427,43.26 C370.7927,40.971 375.3667,34.949 383.3727,34.949 C391.3507,34.949 395.9407,40.971 397.3957,43.258 C396.0737,43.9 394.8607,44.641 393.7597,45.434 M389.6617,49.066 C388.9347,47.926 386.9177,45.375 383.3727,45.375 C379.8177,45.375 377.8007,47.934 377.0797,49.072 C376.2457,48.18 375.2907,47.266 374.2107,46.387 C375.0247,45.037 378.0167,40.752 383.3727,40.752 C388.7177,40.752 391.7147,45.029 392.5287,46.383 C391.4507,47.262 390.4937,48.174 389.6617,49.066 M359.5167,41.004 C358.7047,41.004 357.9197,41.053 357.1537,41.131 C356.7177,40.361 355.7667,38.814 354.2907,37.033 C354.3807,36.871 356.0287,33.67 359.5167,33.67 C362.7237,33.67 364.3767,36.393 364.6767,36.939 C363.1637,38.752 362.1907,40.332 361.7457,41.121 C361.0207,41.049 360.2827,41.004 359.5167,41.004 M351.0077,42.668 C349.5967,40.332 344.6677,33.408 335.5167,33.408 C326.3827,33.408 321.4467,40.326 320.0367,42.666 C318.6497,42.1 317.1537,41.646 315.5447,41.357 C317.3897,38.309 323.8937,29.145 335.5167,29.145 C347.1307,29.145 353.6517,38.309 355.5037,41.357 C353.8917,41.646 352.3957,42.1 351.0077,42.668 M345.9567,45.508 C344.9387,43.816 341.6167,39.211 335.5167,39.211 C329.4387,39.211 326.1087,43.812 325.0917,45.504 C323.9937,44.705 322.7847,43.959 321.4647,43.311 C322.8707,41.068 327.4587,34.949 335.5167,34.949 C343.5717,34.949 348.1677,41.072 349.5817,43.312 C348.2627,43.961 347.0537,44.707 345.9567,45.508 M341.8687,49.156 C341.1947,48.064 339.1617,45.375 335.5167,45.375 C331.8897,45.375 329.8547,48.055 329.1767,49.15 C328.3487,48.258 327.3957,47.342 326.3197,46.457 C327.0677,45.189 330.0797,40.752 335.5167,40.752 C340.9737,40.752 343.9777,45.197 344.7277,46.461 C343.6517,47.346 342.6987,48.262 341.8687,49.156 M311.5287,41.004 C310.7647,41.004 310.0267,41.049 309.3037,41.119 C308.8567,40.332 307.8847,38.752 306.3727,36.939 C306.6717,36.393 308.3217,33.67 311.5287,33.67 C315.0127,33.67 316.6617,36.865 316.7577,37.031 C315.2807,38.813 314.3277,40.361 313.8897,41.131 C313.1267,41.053 312.3417,41.004 311.5287,41.004 M303.1357,42.625 C301.6927,40.248 296.7707,33.408 287.6717,33.408 C278.5877,33.408 273.6597,40.246 272.2177,42.625 C270.8257,42.064 269.3257,41.617 267.7127,41.338 C269.5717,38.27 276.0717,29.145 287.6717,29.145 C299.2597,29.145 305.7747,38.268 307.6437,41.336 C306.0287,41.617 304.5287,42.064 303.1357,42.625 M298.0697,45.436 C297.0017,43.687 293.6827,39.211 287.6717,39.211 C281.6787,39.211 278.3567,43.686 277.2887,45.436 C276.1867,44.641 274.9717,43.9 273.6497,43.258 C275.1007,40.969 279.6827,34.949 287.6717,34.949 C295.6557,34.949 300.2477,40.973 301.7047,43.26 C300.3827,43.902 299.1697,44.643 298.0697,45.436 M293.9677,49.072 C293.2477,47.934 291.2317,45.375 287.6717,45.375 C284.1307,45.375 282.1107,47.926 281.3857,49.066 C280.5537,48.174 279.5967,47.262 278.5187,46.385 C279.3317,45.031 282.3277,40.752 287.6717,40.752 C293.0327,40.752 296.0227,45.039 296.8357,46.389 C295.7577,47.268 294.8017,48.18 293.9677,49.072 M263.8177,41.004 C263.0087,41.004 262.2277,41.053 261.4647,41.131 C261.0287,40.361 260.0797,38.814 258.6047,37.035 L258.6067,37.037 C258.6767,36.902 260.3277,33.67 263.8177,33.67 C267.0327,33.67 268.6827,36.385 268.9917,36.938 C267.4757,38.75 266.5017,40.332 266.0537,41.121 C265.3277,41.051 264.5857,41.004 263.8177,41.004 M255.3177,42.666 C253.9077,40.328 248.9777,33.408 239.8317,33.408 C230.7067,33.408 225.7747,40.299 224.3547,42.652 C222.9667,42.086 221.4697,41.635 219.8587,41.35 C221.7107,38.291 228.2127,29.145 239.8317,29.145 C251.4427,29.145 257.9627,38.307 259.8117,41.357 C258.2027,41.645 256.7047,42.1 255.3177,42.666 M250.2647,45.508 C249.2517,43.816 245.9287,39.211 239.8317,39.211 C233.7747,39.211 230.4467,43.773 229.4137,45.484 C228.3157,44.686 227.1047,43.941 225.7847,43.293 C227.2047,41.037 231.7907,34.949 239.8317,34.949 C247.8807,34.949 252.4737,41.072 253.8897,43.312 C252.5697,43.961 251.3607,44.707 250.2647,45.508 M246.1767,49.158 C245.5057,48.064 243.4757,45.375 239.8317,45.375 C236.2277,45.375 234.1947,48.016 233.5037,49.127 C232.6737,48.234 231.7197,47.318 230.6457,46.437 C231.4117,45.145 234.4157,40.752 239.8317,40.752 C245.2847,40.752 248.2887,45.197 249.0347,46.461 C247.9587,47.346 247.0077,48.264 246.1767,49.158 M215.8917,41.004 C215.1237,41.004 214.3827,41.051 213.6557,41.121 C213.2087,40.334 212.2347,38.75 210.7197,36.939 C211.0267,36.389 212.6767,33.67 215.8917,33.67 C219.2767,33.67 220.9267,36.701 221.0877,37.008 C219.6027,38.797 218.6457,40.352 218.2047,41.127 C217.4547,41.053 216.6867,41.004 215.8917,41.004 M207.4917,42.625 C206.0507,40.246 201.1217,33.408 192.0327,33.408 C182.9407,33.408 178.0167,40.246 176.5727,42.625 C175.1807,42.062 173.6797,41.615 172.0647,41.336 C173.9267,38.268 180.4267,29.145 192.0327,29.145 C203.6157,29.145 210.1307,38.27 211.9977,41.338 C210.3837,41.617 208.8837,42.064 207.4917,42.625 M202.4227,45.436 C201.3547,43.686 198.0297,39.211 192.0327,39.211 C186.0237,39.211 182.7087,43.689 181.6407,45.436 C180.5397,44.643 179.3267,43.9 178.0037,43.26 C179.4537,40.971 184.0277,34.949 192.0327,34.949 C200.0147,34.949 204.6057,40.971 206.0597,43.258 C204.7367,43.9 203.5237,44.641 202.4227,45.436 M198.3237,49.066 C197.5987,47.926 195.5787,45.375 192.0327,45.375 C188.4767,45.375 186.4627,47.936 185.7417,49.072 C184.9077,48.18 183.9517,47.266 182.8727,46.387 C183.6867,45.037 186.6767,40.752 192.0327,40.752 C197.3827,40.752 200.3787,45.033 201.1897,46.385 C200.1117,47.264 199.1567,48.176 198.3237,49.066 M168.1817,41.004 C167.3687,41.004 166.5837,41.053 165.8187,41.131 C165.3817,40.361 164.4297,38.814 162.9537,37.033 C163.0407,36.875 164.6937,33.67 168.1817,33.67 C171.3927,33.67 173.0407,36.396 173.3377,36.941 C171.8257,38.752 170.8527,40.332 170.4057,41.119 C169.6837,41.049 168.9457,41.004 168.1817,41.004 M159.6727,42.666 C158.2637,40.328 153.3287,33.408 144.1887,33.408 C135.0427,33.408 130.1137,40.328 128.7027,42.668 C127.3147,42.1 125.8177,41.645 124.2067,41.357 C126.0517,38.307 132.5577,29.145 144.1887,29.145 C155.7977,29.145 162.3157,38.311 164.1637,41.357 C162.5547,41.646 161.0587,42.1 159.6727,42.666 M154.6187,45.504 C153.6017,43.812 150.2697,39.211 144.1887,39.211 C138.0927,39.211 134.7717,43.814 133.7547,45.506 C132.6567,44.707 131.4477,43.961 130.1277,43.311 C131.5347,41.07 136.1137,34.949 144.1887,34.949 C152.2387,34.949 156.8357,41.068 158.2457,43.311 C156.9257,43.959 155.7157,44.705 154.6187,45.504 M150.5337,49.152 C149.8537,48.055 147.8197,45.375 144.1887,45.375 C140.5457,45.375 138.5147,48.064 137.8417,49.156 C137.0127,48.262 136.0597,47.344 134.9837,46.461 C135.7327,45.195 138.7367,40.752 144.1887,40.752 C149.6327,40.752 152.6427,45.191 153.3887,46.459 C152.3137,47.342 151.3617,48.258 150.5337,49.152 M120.1997,41.004 C119.4327,41.004 118.6907,41.051 117.9657,41.121 C117.5177,40.332 116.5437,38.75 115.0287,36.936 C115.3397,36.381 116.9917,33.67 120.1997,33.67 C123.6947,33.67 125.3437,36.902 125.4097,37.037 L125.4157,37.033 C123.9417,38.814 122.9907,40.361 122.5547,41.131 C121.7917,41.053 121.0097,41.004 120.1997,41.004 M111.8007,42.625 C110.3617,40.246 105.4307,33.408 96.3437,33.408 C87.2507,33.408 82.3267,40.248 80.8837,42.625 C79.4907,42.064 77.9897,41.617 76.3737,41.336 C78.2357,38.268 84.7377,29.145 96.3437,29.145 C107.9267,29.145 114.4417,38.27 116.3067,41.338 C114.6927,41.617 113.1927,42.064 111.8007,42.625 M106.7327,45.436 C105.6637,43.686 102.3377,39.211 96.3437,39.211 C90.3337,39.211 87.0187,43.689 85.9507,45.437 C84.8507,44.643 83.6367,43.902 82.3147,43.26 C83.7637,40.973 88.3387,34.949 96.3437,34.949 C104.3237,34.949 108.9137,40.973 110.3677,43.26 C109.0457,43.9 107.8327,44.641 106.7327,45.436 M102.6347,49.066 C101.9077,47.926 99.8897,45.375 96.3437,45.375 C92.7877,45.375 90.7707,47.936 90.0517,49.072 C89.2177,48.18 88.2617,47.266 87.1827,46.387 C87.9957,45.037 90.9877,40.752 96.3437,40.752 C101.6927,40.752 104.6887,45.033 105.5007,46.385 C104.4227,47.264 103.4677,48.176 102.6347,49.066 M72.4887,41.004 C71.6767,41.004 70.8917,41.053 70.1267,41.131 C69.6907,40.361 68.7397,38.814 67.2637,37.033 C67.3477,36.881 68.9977,33.67 72.4887,33.67 C75.6977,33.67 77.3497,36.393 77.6477,36.939 C76.1357,38.752 75.1627,40.332 74.7167,41.119 C73.9927,41.049 73.2537,41.004 72.4887,41.004 M63.9817,42.666 C62.5737,40.326 57.6387,33.408 48.4997,33.408 C39.4067,33.408 34.4837,40.246 33.0377,42.625 C31.6457,42.062 30.1447,41.617 28.5297,41.336 C30.3907,38.268 36.8937,29.145 48.4997,29.145 C60.1057,29.145 66.6247,38.309 68.4737,41.357 C66.8637,41.646 65.3677,42.1 63.9817,42.666 M58.9287,45.504 C57.9107,43.811 54.5797,39.211 48.4997,39.211 C42.4897,39.211 39.1737,43.687 38.1057,45.436 C37.0047,44.643 35.7927,43.9 34.4697,43.26 C35.9197,40.973 40.4937,34.949 48.4997,34.949 C56.5467,34.949 61.1427,41.068 62.5547,43.311 C61.2347,43.959 60.0257,44.705 58.9287,45.504 M54.8437,49.15 C54.1637,48.053 52.1287,45.375 48.4997,45.375 C44.9437,45.375 42.9277,47.934 42.2057,49.072 C41.3727,48.18 40.4167,47.266 39.3377,46.387 C40.1507,45.037 43.1427,40.752 48.4997,40.752 C53.9417,40.752 56.9517,45.187 57.6997,46.457 C56.6247,47.34 55.6717,48.256 54.8437,49.15 M24.6447,41.004 C23.8767,41.004 23.1347,41.051 22.4097,41.121 C21.9627,40.332 20.9887,38.75 19.4737,36.938 C19.7827,36.383 21.4327,33.67 24.6447,33.67 C27.8517,33.67 29.5047,36.391 29.8027,36.939 C28.2907,38.75 27.3177,40.332 26.8697,41.119 C26.1477,41.049 25.4087,41.004 24.6447,41.004 M15.5467,33.033 C16.4477,31.574 19.4257,27.504 24.6447,27.504 C29.8547,27.504 32.8347,31.57 33.7357,33.031 C32.6587,33.914 31.7027,34.83 30.8727,35.725 C30.0987,34.541 28.0947,32.127 24.6447,32.127 C21.1817,32.127 19.1807,34.551 18.4127,35.73 C17.5817,34.836 16.6247,33.918 15.5467,33.033 M34.9667,32.08 C33.8307,30.262 30.5177,25.963 24.6447,25.963 C18.7557,25.963 15.4517,30.266 14.3167,32.084 C13.2187,31.287 12.0107,30.541 10.6907,29.895 C12.2157,27.529 16.7647,21.701 24.6447,21.701 C32.4977,21.701 37.0617,27.529 38.5907,29.895 C37.2707,30.539 36.0637,31.285 34.9667,32.08 M24.6447,15.893 C36.0607,15.893 42.5537,24.762 44.5237,27.953 C42.9117,28.24 41.4127,28.686 40.0247,29.252 C38.4887,26.762 33.5707,20.158 24.6447,20.158 C15.7087,20.158 10.7987,26.764 9.2577,29.252 C7.8687,28.686 6.3677,28.238 4.7557,27.953 C6.7217,24.76 13.1997,15.893 24.6447,15.893 M48.4997,2.494 C60.1057,2.494 66.6247,11.658 68.4737,14.707 C66.8637,14.996 65.3677,15.449 63.9817,16.016 C62.5737,13.676 57.6387,6.758 48.4997,6.758 C39.4067,6.758 34.4837,13.596 33.0377,15.975 C31.6457,15.412 30.1447,14.967 28.5297,14.686 C30.3907,11.617 36.8937,2.494 48.4997,2.494 M38.1057,18.785 C37.0047,17.992 35.7927,17.25 34.4697,16.609 C35.9197,14.322 40.4937,8.299 48.4997,8.299 C56.5467,8.299 61.1427,14.418 62.5547,16.66 C61.2347,17.309 60.0257,18.055 58.9287,18.854 C57.9107,17.16 54.5797,12.561 48.4997,12.561 C42.4897,12.561 39.1737,17.037 38.1057,18.785 M48.4997,14.102 C53.9417,14.102 56.9517,18.537 57.6997,19.807 C56.6247,20.689 55.6717,21.605 54.8437,22.5 C54.1637,21.402 52.1287,18.725 48.4997,18.725 C44.9437,18.725 42.9277,21.283 42.2057,22.422 C41.3727,21.529 40.4167,20.615 39.3377,19.736 C40.1507,18.387 43.1427,14.102 48.4997,14.102 M46.1747,27.721 C45.6897,26.883 44.7347,25.367 43.2757,23.629 C43.3657,23.467 45.0157,20.266 48.4997,20.266 C51.9917,20.266 53.6447,23.502 53.7097,23.635 L53.9367,23.523 C52.4207,25.313 51.4347,26.881 50.9417,27.732 C50.1527,27.648 49.3387,27.602 48.4997,27.602 C47.7017,27.602 46.9277,27.645 46.1747,27.721 M82.8117,32.08 C81.6757,30.262 78.3617,25.963 72.4887,25.963 C66.5277,25.963 63.2147,30.373 62.1187,32.15 C61.0257,31.348 59.8197,30.598 58.5027,29.945 C59.9957,27.611 64.5557,21.701 72.4887,21.701 C80.3447,21.701 84.9077,27.529 86.4347,29.893 C85.1157,30.539 83.9087,31.285 82.8117,32.08 M78.7177,35.725 C77.9427,34.543 75.9397,32.127 72.4887,32.127 C68.9407,32.127 66.9257,34.674 66.2017,35.816 C65.3757,34.92 64.4227,33.998 63.3467,33.107 C64.1867,31.723 67.1737,27.504 72.4887,27.504 C77.6977,27.504 80.6787,31.57 81.5807,33.031 C80.5037,33.912 79.5477,34.83 78.7177,35.725 M72.4887,15.893 C83.9047,15.893 90.3987,24.762 92.3687,27.953 C90.7567,28.24 89.2577,28.686 87.8687,29.252 C86.3327,26.762 81.4147,20.158 72.4887,20.158 C63.5017,20.158 58.5857,26.844 57.0767,29.295 C55.6937,28.723 54.1957,28.27 52.5877,27.975 C54.5367,24.803 61.0197,15.893 72.4887,15.893 M96.3437,2.494 C107.9267,2.494 114.4417,11.619 116.3067,14.687 C114.6927,14.967 113.1927,15.414 111.8007,15.975 C110.3617,13.596 105.4307,6.758 96.3437,6.758 C87.2507,6.758 82.3267,13.598 80.8837,15.975 C79.4907,15.414 77.9897,14.967 76.3737,14.686 C78.2357,11.617 84.7377,2.494 96.3437,2.494 M85.9507,18.787 C84.8507,17.992 83.6367,17.252 82.3147,16.609 C83.7637,14.322 88.3387,8.299 96.3437,8.299 C104.3237,8.299 108.9137,14.322 110.3677,16.609 C109.0457,17.25 107.8327,17.99 106.7327,18.785 C105.6637,17.035 102.3377,12.561 96.3437,12.561 C90.3337,12.561 87.0187,17.039 85.9507,18.787 M96.3437,14.102 C101.6927,14.102 104.6887,18.383 105.5007,19.734 C104.4227,20.613 103.4677,21.525 102.6347,22.416 C101.9077,21.275 99.8897,18.725 96.3437,18.725 C92.7877,18.725 90.7707,21.285 90.0517,22.422 C89.2177,21.529 88.2617,20.615 87.1827,19.736 C87.9957,18.387 90.9877,14.102 96.3437,14.102 M94.0197,27.721 C93.5337,26.883 92.5797,25.367 91.1207,23.629 C91.2127,23.463 92.8627,20.266 96.3437,20.266 C99.8397,20.266 101.4887,23.502 101.5537,23.635 L101.5567,23.633 C100.0997,25.369 99.1467,26.883 98.6617,27.719 C97.9107,27.645 97.1387,27.602 96.3437,27.602 C95.5467,27.602 94.7727,27.645 94.0197,27.721 M130.5647,32.148 C129.4677,30.369 126.1447,25.963 120.1997,25.963 C114.3097,25.963 111.0067,30.268 109.8717,32.084 C108.7747,31.287 107.5667,30.541 106.2467,29.895 C107.7707,27.529 112.3197,21.701 120.1997,21.701 C128.1087,21.701 132.6847,27.609 134.1807,29.943 C132.8637,30.598 131.6577,31.346 130.5647,32.148 M126.4837,35.811 C125.7537,34.666 123.7367,32.127 120.1997,32.127 C116.7377,32.127 114.7357,34.551 113.9677,35.73 C113.1367,34.836 112.1797,33.918 111.1017,33.033 C112.0037,31.576 114.9807,27.504 120.1997,27.504 C125.5067,27.504 128.4967,31.719 129.3367,33.105 C128.2607,33.994 127.3097,34.914 126.4837,35.811 M120.1997,15.893 C131.6457,15.893 138.1407,24.803 140.0927,27.977 C138.4867,28.27 136.9907,28.723 135.6077,29.295 C134.1017,26.842 129.1797,20.158 120.1997,20.158 C111.2657,20.158 106.3537,26.766 104.8157,29.254 C103.4267,28.688 101.9247,28.238 100.3117,27.953 C102.2777,24.76 108.7577,15.893 120.1997,15.893 M144.1887,2.494 C155.7977,2.494 162.3157,11.66 164.1637,14.707 C162.5547,14.996 161.0587,15.449 159.6727,16.016 C158.2637,13.678 153.3287,6.758 144.1887,6.758 C135.0427,6.758 130.1137,13.678 128.7027,16.018 C127.3147,15.449 125.8177,14.994 124.2067,14.707 C126.0517,11.656 132.5577,2.494 144.1887,2.494 M133.7547,18.855 C132.6567,18.057 131.4477,17.311 130.1277,16.66 C131.5347,14.42 136.1137,8.299 144.1887,8.299 C152.2387,8.299 156.8357,14.418 158.2457,16.66 C156.9257,17.309 155.7157,18.055 154.6187,18.854 C153.6017,17.162 150.2697,12.561 144.1887,12.561 C138.0927,12.561 134.7717,17.164 133.7547,18.855 M144.1887,14.102 C149.6327,14.102 152.6427,18.541 153.3887,19.809 C152.3137,20.691 151.3617,21.607 150.5337,22.502 C149.8537,21.404 147.8197,18.725 144.1887,18.725 C140.5457,18.725 138.5147,21.414 137.8417,22.506 C137.0127,21.611 136.0597,20.693 134.9837,19.811 C135.7327,18.545 138.7367,14.102 144.1887,14.102 M141.7397,27.732 C141.2467,26.881 140.2607,25.316 138.7447,23.527 L138.9627,23.635 C139.0377,23.502 140.6907,20.266 144.1887,20.266 C147.6837,20.266 149.3337,23.502 149.3997,23.635 L149.6297,23.521 C148.1127,25.313 147.1267,26.881 146.6337,27.732 C145.8437,27.648 145.0297,27.602 144.1887,27.602 C143.3467,27.602 142.5307,27.648 141.7397,27.732 M178.5017,32.082 C177.3657,30.264 174.0527,25.963 168.1817,25.963 C162.2197,25.963 158.9047,30.373 157.8087,32.15 C156.7147,31.348 155.5097,30.598 154.1917,29.945 C155.6857,27.611 160.2457,21.701 168.1817,21.701 C176.0357,21.701 180.5997,27.529 182.1257,29.895 C180.8057,30.539 179.5987,31.285 178.5017,32.082 M174.4067,35.725 C173.6337,34.543 171.6307,32.127 168.1817,32.127 C164.6317,32.127 162.6157,34.674 161.8907,35.816 C161.0647,34.92 160.1127,33.998 159.0367,33.107 C159.8787,31.725 162.8657,27.504 168.1817,27.504 C173.3897,27.504 176.3697,31.57 177.2707,33.031 C176.1937,33.914 175.2377,34.832 174.4067,35.725 M168.1817,15.893 C179.5977,15.893 186.0887,24.762 188.0577,27.953 C186.4477,28.24 184.9477,28.686 183.5607,29.252 C182.0227,26.762 177.1077,20.158 168.1817,20.158 C159.1907,20.158 154.2747,26.844 152.7677,29.295 C151.3837,28.723 149.8857,28.27 148.2777,27.975 C150.2257,24.803 156.7097,15.893 168.1817,15.893 M192.0327,2.494 C203.6157,2.494 210.1307,11.619 211.9977,14.687 C210.3837,14.967 208.8837,15.414 207.4917,15.975 C206.0507,13.596 201.1217,6.758 192.0327,6.758 C182.9407,6.758 178.0167,13.596 176.5727,15.975 C175.1807,15.412 173.6797,14.965 172.0647,14.686 C173.9267,11.617 180.4267,2.494 192.0327,2.494 M181.6407,18.785 C180.5397,17.992 179.3267,17.25 178.0037,16.609 C179.4537,14.32 184.0277,8.299 192.0327,8.299 C200.0147,8.299 204.6057,14.32 206.0597,16.607 C204.7367,17.25 203.5237,17.99 202.4227,18.785 C201.3547,17.035 198.0297,12.561 192.0327,12.561 C186.0237,12.561 182.7087,17.039 181.6407,18.785 M192.0327,14.102 C197.3827,14.102 200.3787,18.383 201.1897,19.734 C200.1117,20.613 199.1567,21.525 198.3237,22.416 C197.5987,21.275 195.5787,18.725 192.0327,18.725 C188.4767,18.725 186.4627,21.285 185.7417,22.422 C184.9077,21.529 183.9517,20.615 182.8727,19.736 C183.6867,18.387 186.6767,14.102 192.0327,14.102 M189.7117,27.721 C189.2247,26.883 188.2697,25.365 186.8107,23.629 C186.9067,23.461 188.5557,20.266 192.0327,20.266 C195.5257,20.266 197.1747,23.494 197.2457,23.633 C195.7897,25.369 194.8367,26.883 194.3517,27.719 C193.6007,27.645 192.8287,27.602 192.0327,27.602 C191.2367,27.602 190.4637,27.645 189.7117,27.721 M226.2417,32.129 C225.1347,30.336 221.8097,25.963 215.8917,25.963 C210.0027,25.963 206.6967,30.266 205.5607,32.084 C204.4637,31.287 203.2557,30.541 201.9357,29.895 C203.4597,27.529 208.0087,21.701 215.8917,21.701 C223.7807,21.701 228.3547,27.586 229.8607,29.928 C228.5427,30.58 227.3377,31.328 226.2417,32.129 M222.1577,35.785 C221.4157,34.627 219.4017,32.127 215.8917,32.127 C212.4267,32.127 210.4267,34.553 209.6577,35.73 C208.8267,34.836 207.8697,33.918 206.7917,33.035 C207.6947,31.576 210.6717,27.504 215.8917,27.504 C221.1697,27.504 224.1557,31.676 225.0127,33.084 C223.9367,33.971 222.9857,34.891 222.1577,35.785 M215.8917,15.893 C227.3277,15.893 233.8197,24.789 235.7787,27.969 C234.1717,28.26 232.6737,28.711 231.2887,29.281 C229.7747,26.818 224.8567,20.158 215.8917,20.158 C206.9557,20.158 202.0437,26.766 200.5047,29.254 C199.1147,28.688 197.6137,28.238 196.0017,27.953 C197.9667,24.76 204.4477,15.893 215.8917,15.893 M239.8317,2.494 C251.4427,2.494 257.9627,11.656 259.8117,14.707 C258.2027,14.994 256.7047,15.449 255.3177,16.016 C253.9077,13.678 248.9777,6.758 239.8317,6.758 C230.7067,6.758 225.7747,13.648 224.3547,16.002 C222.9667,15.436 221.4697,14.984 219.8587,14.699 C221.7107,11.641 228.2127,2.494 239.8317,2.494 M229.4137,18.834 C228.3157,18.035 227.1047,17.291 225.7847,16.643 C227.2047,14.387 231.7907,8.299 239.8317,8.299 C247.8807,8.299 252.4737,14.422 253.8897,16.662 C252.5697,17.311 251.3607,18.057 250.2647,18.857 C249.2517,17.166 245.9287,12.561 239.8317,12.561 C233.7747,12.561 230.4467,17.123 229.4137,18.834 M239.8317,14.102 C245.2847,14.102 248.2887,18.547 249.0347,19.811 C247.9587,20.695 247.0077,21.613 246.1767,22.508 C245.5057,21.414 243.4757,18.725 239.8317,18.725 C236.2277,18.725 234.1947,21.365 233.5037,22.477 C232.6737,21.584 231.7197,20.668 230.6457,19.787 C231.4117,18.494 234.4157,14.102 239.8317,14.102 M237.4257,27.727 C236.9347,26.879 235.9587,25.33 234.4607,23.557 L234.6187,23.635 C234.6847,23.502 236.3357,20.266 239.8317,20.266 C243.3297,20.266 244.9797,23.502 245.0537,23.635 L245.2767,23.523 C243.7597,25.314 242.7747,26.881 242.2807,27.732 C241.4897,27.648 240.6737,27.602 239.8317,27.602 C239.0057,27.602 238.2027,27.645 237.4257,27.727 M274.1497,32.084 C273.0107,30.266 269.7067,25.963 263.8177,25.963 C257.8747,25.963 254.5507,30.371 253.4567,32.148 C252.3607,31.348 251.1557,30.596 249.8377,29.943 C251.3317,27.609 255.8977,21.701 263.8177,21.701 C271.6767,21.701 276.2417,27.531 277.7707,29.895 C276.4527,30.541 275.2457,31.287 274.1497,32.084 M270.0517,35.732 C269.2847,34.553 267.2847,32.127 263.8177,32.127 C260.2827,32.127 258.2647,34.666 257.5347,35.811 C256.7107,34.914 255.7597,33.994 254.6847,33.105 C255.5227,31.721 258.5107,27.504 263.8177,27.504 C269.0387,27.504 272.0167,31.576 272.9177,33.035 C271.8397,33.918 270.8827,34.838 270.0517,35.732 M263.8177,15.893 C275.2417,15.893 281.7357,24.76 283.7067,27.953 C282.0947,28.238 280.5947,28.686 279.2067,29.252 C277.6657,26.764 272.7537,20.158 263.8177,20.158 C254.8357,20.158 249.9177,26.842 248.4137,29.295 C247.0287,28.723 245.5327,28.27 243.9237,27.977 C245.8727,24.803 252.3527,15.893 263.8177,15.893 M287.6717,2.494 C299.2597,2.494 305.7747,11.617 307.6437,14.686 C306.0287,14.967 304.5287,15.414 303.1357,15.975 C301.6927,13.598 296.7707,6.758 287.6717,6.758 C278.5877,6.758 273.6597,13.596 272.2177,15.975 C270.8257,15.414 269.3257,14.967 267.7127,14.687 C269.5717,11.619 276.0717,2.494 287.6717,2.494 M277.2887,18.785 C276.1867,17.99 274.9717,17.25 273.6497,16.607 C275.1007,14.318 279.6827,8.299 287.6717,8.299 C295.6557,8.299 300.2477,14.322 301.7047,16.609 C300.3827,17.252 299.1697,17.992 298.0697,18.785 C297.0017,17.037 293.6827,12.561 287.6717,12.561 C281.6787,12.561 278.3567,17.035 277.2887,18.785 M287.6717,14.102 C293.0327,14.102 296.0227,18.389 296.8357,19.738 C295.7577,20.617 294.8017,21.529 293.9677,22.422 C293.2477,21.283 291.2317,18.725 287.6717,18.725 C284.1307,18.725 282.1107,21.275 281.3857,22.416 C280.5537,21.523 279.5967,20.611 278.5187,19.734 C279.3317,18.381 282.3277,14.102 287.6717,14.102 M285.3587,27.719 C284.8747,26.883 283.9217,25.367 282.4647,23.633 C282.5367,23.492 284.1847,20.266 287.6717,20.266 C291.1517,20.266 292.8017,23.459 292.8997,23.629 C291.4407,25.365 290.4857,26.883 289.9997,27.721 C289.2457,27.645 288.4697,27.602 287.6717,27.602 C286.8787,27.602 286.1087,27.645 285.3587,27.719 M321.9017,32.15 C320.8037,30.373 317.4897,25.963 311.5287,25.963 C305.6557,25.963 302.3427,30.264 301.2087,32.082 C300.1107,31.285 298.9037,30.541 297.5837,29.895 C299.1047,27.529 303.6637,21.701 311.5287,21.701 C319.4387,21.701 324.0147,27.611 325.5147,29.945 C324.2007,30.598 322.9957,31.348 321.9017,32.15 M317.8177,35.816 C317.0927,34.674 315.0797,32.127 311.5287,32.127 C308.0797,32.127 306.0777,34.543 305.3017,35.725 C304.4717,34.83 303.5167,33.914 302.4387,33.031 C303.3397,31.572 306.3177,27.504 311.5287,27.504 C316.8447,27.504 319.8317,31.725 320.6737,33.107 C319.5967,33.998 318.6437,34.92 317.8177,35.816 M311.5287,15.893 C322.9797,15.893 329.4777,24.803 331.4307,27.975 C329.8237,28.27 328.3257,28.723 326.9427,29.295 C325.4347,26.844 320.5187,20.158 311.5287,20.158 C302.6007,20.158 297.6847,26.764 296.1497,29.252 C294.7607,28.688 293.2607,28.24 291.6497,27.955 C293.6127,24.762 300.0927,15.893 311.5287,15.893 M335.5167,2.494 C347.1307,2.494 353.6517,11.658 355.5037,14.707 C353.8917,14.996 352.3957,15.449 351.0077,16.018 C349.5967,13.682 344.6677,6.758 335.5167,6.758 C326.3827,6.758 321.4467,13.676 320.0367,16.016 C318.6497,15.449 317.1537,14.996 315.5447,14.707 C317.3897,11.658 323.8937,2.494 335.5167,2.494 M325.0917,18.854 C323.9937,18.055 322.7847,17.309 321.4647,16.66 C322.8707,14.418 327.4587,8.299 335.5167,8.299 C343.5717,8.299 348.1677,14.422 349.5817,16.662 C348.2627,17.311 347.0537,18.057 345.9567,18.857 C344.9387,17.166 341.6167,12.561 335.5167,12.561 C329.4387,12.561 326.1087,17.162 325.0917,18.854 M335.5167,14.102 C340.9737,14.102 343.9777,18.547 344.7277,19.811 C343.6517,20.695 342.6987,21.611 341.8687,22.506 C341.1947,21.414 339.1617,18.725 335.5167,18.725 C331.8897,18.725 329.8547,21.404 329.1767,22.5 C328.3487,21.607 327.3957,20.691 326.3197,19.807 C327.0677,18.539 330.0797,14.102 335.5167,14.102 M333.0777,27.732 C332.5857,26.879 331.5987,25.313 330.0817,23.521 L330.3117,23.635 C330.3767,23.502 332.0267,20.266 335.5167,20.266 C339.0187,20.266 340.6737,23.502 340.7477,23.635 L340.9647,23.527 C339.4487,25.316 338.4627,26.883 337.9697,27.732 C337.1767,27.648 336.3607,27.602 335.5167,27.602 C334.6787,27.602 333.8667,27.648 333.0777,27.732 M369.8397,32.082 C368.7047,30.262 365.3917,25.963 359.5167,25.963 C353.5577,25.963 350.2377,30.369 349.1437,32.148 C348.0507,31.348 346.8447,30.598 345.5267,29.943 C347.0207,27.611 351.5897,21.701 359.5167,21.701 C367.3707,21.701 371.9347,27.529 373.4627,29.895 C372.1437,30.541 370.9367,31.285 369.8397,32.082 M365.7457,35.725 C364.9717,34.543 362.9697,32.127 359.5167,32.127 C355.9677,32.127 353.9547,34.674 353.2297,35.816 C352.4037,34.92 351.4507,33.996 350.3747,33.107 C351.2127,31.723 354.2027,27.504 359.5167,27.504 C364.7277,27.504 367.7087,31.57 368.6087,33.031 C367.5307,33.914 366.5757,34.83 365.7457,35.725 M359.5167,15.893 C370.9347,15.893 377.4287,24.762 379.3957,27.953 C377.7847,28.24 376.2847,28.688 374.8957,29.252 C373.3627,26.764 368.4447,20.158 359.5167,20.158 C350.5307,20.158 345.6067,26.842 344.1007,29.295 C342.7177,28.723 341.2217,28.271 339.6167,27.977 C341.5617,24.805 348.0467,15.893 359.5167,15.893 M383.3727,12.561 C377.3627,12.561 374.0467,17.039 372.9797,18.787 C371.8787,17.992 370.6657,17.25 369.3427,16.609 C370.7927,14.32 375.3667,8.299 383.3727,8.299 C391.3507,8.299 395.9407,14.32 397.3957,16.607 C396.0737,17.25 394.8607,17.99 393.7597,18.783 C392.6907,17.033 389.3627,12.561 383.3727,12.561 M383.3727,18.725 C379.8177,18.725 377.8007,21.283 377.0797,22.422 C376.2457,21.529 375.2907,20.615 374.2107,19.736 C375.0247,18.387 378.0167,14.102 383.3727,14.102 C388.7177,14.102 391.7147,18.379 392.5287,19.732 C391.4507,20.611 390.4937,21.523 389.6617,22.416 C388.9347,21.275 386.9177,18.725 383.3727,18.725 M383.3727,27.602 C382.5757,27.602 381.8007,27.645 381.0487,27.721 C380.5617,26.883 379.6087,25.367 378.1497,23.629 C378.2397,23.465 379.8877,20.266 383.3727,20.266 C386.8687,20.266 388.5187,23.502 388.5817,23.635 C387.1267,25.369 386.1737,26.883 385.6887,27.719 C384.9387,27.645 384.1677,27.602 383.3727,27.602 M383.3727,2.494 C394.9567,2.494 401.4697,11.619 403.3337,14.687 C401.7197,14.967 400.2197,15.412 398.8297,15.973 C397.3877,13.594 392.4567,6.758 383.3727,6.758 C374.2787,6.758 369.3547,13.598 367.9117,15.975 C366.5187,15.414 365.0187,14.967 363.4017,14.686 C365.2647,11.617 371.7667,2.494 383.3727,2.494 M431.0837,2.494 C431.3977,2.494 431.6927,2.525 431.9997,2.539 L431.9997,0.975 C431.6967,0.963 431.3937,0.951 431.0837,0.951 C417.9077,0.951 410.9077,11.906 409.4547,14.469 C408.7317,14.398 407.9917,14.354 407.2257,14.354 C406.4607,14.354 405.7177,14.4 404.9937,14.471 C403.5387,11.908 396.5347,0.951 383.3727,0.951 C370.1967,0.951 363.1967,11.908 361.7457,14.471 C361.0207,14.398 360.2827,14.354 359.5167,14.354 C358.7047,14.354 357.9197,14.402 357.1537,14.48 C355.7147,11.941 348.7147,0.951 335.5167,0.951 C322.3417,0.951 315.3317,11.941 313.8897,14.48 C313.1267,14.402 312.3417,14.354 311.5287,14.354 C310.7647,14.354 310.0267,14.398 309.3037,14.469 C307.8507,11.906 300.8487,0.951 287.6717,0.951 C274.5147,0.951 267.5107,11.908 266.0537,14.471 C265.3277,14.4 264.5857,14.354 263.8177,14.354 C263.0087,14.354 262.2277,14.402 261.4647,14.48 C260.0247,11.939 253.0227,0.951 239.8317,0.951 C226.6577,0.951 219.6517,11.928 218.2047,14.477 C217.4547,14.402 216.6867,14.354 215.8917,14.354 C215.1237,14.354 214.3827,14.4 213.6557,14.471 C212.2007,11.908 205.1957,0.951 192.0327,0.951 C178.8607,0.951 171.8597,11.906 170.4057,14.469 C169.6837,14.398 168.9457,14.354 168.1817,14.354 C167.3687,14.354 166.5837,14.402 165.8187,14.48 C164.3767,11.941 157.3707,0.951 144.1887,0.951 C130.9967,0.951 123.9937,11.939 122.5547,14.48 C121.7917,14.402 121.0097,14.354 120.1997,14.354 C119.4327,14.354 118.6907,14.4 117.9657,14.471 C116.5117,11.908 109.5067,0.951 96.3437,0.951 C83.1677,0.951 76.1697,11.906 74.7167,14.469 C73.9927,14.398 73.2537,14.354 72.4887,14.354 C71.6767,14.354 70.8917,14.402 70.1267,14.48 C68.6877,11.941 61.6817,0.951 48.4997,0.951 C35.3227,0.951 28.3257,11.906 26.8697,14.469 C26.1477,14.398 25.4087,14.354 24.6447,14.354 C23.8767,14.354 23.1347,14.4 22.4097,14.471 C20.9557,11.908 13.9507,0.951 0.7887,0.951 C0.5217,0.951 0.2617,0.963 -0.0003,0.973 L-0.0003,2.531 C0.2647,2.521 0.5187,2.494 0.7887,2.494 C12.3687,2.494 18.8847,11.619 20.7507,14.687 C19.1367,14.967 17.6367,15.412 16.2457,15.975 C14.8057,13.596 9.8747,6.758 0.7887,6.758 C0.5187,6.758 0.2627,6.783 -0.0003,6.795 L-0.0003,8.336 C0.2627,8.322 0.5187,8.299 0.7887,8.299 C8.7677,8.299 13.3577,14.32 14.8127,16.607 C13.4897,17.25 12.2767,17.99 11.1767,18.783 C10.1077,17.033 6.7827,12.561 0.7887,12.561 C0.5187,12.561 0.2597,12.578 -0.0003,12.596 L-0.0003,14.141 C0.2587,14.121 0.5187,14.102 0.7887,14.102 C6.1337,14.102 9.1317,18.381 9.9447,19.734 C8.8657,20.611 7.9107,21.523 7.0777,22.416 C6.3517,21.273 4.3337,18.725 0.7887,18.725 C0.5157,18.725 0.2547,18.744 -0.0003,18.773 L-0.0003,20.33 C0.2527,20.293 0.5127,20.266 0.7887,20.266 C4.2787,20.266 5.9317,23.496 5.9987,23.633 C4.5427,25.367 3.5897,26.883 3.1037,27.719 C2.3547,27.645 1.5837,27.602 0.7887,27.602 C0.5217,27.602 0.2617,27.613 -0.0003,27.623 L-0.0003,29.182 C0.2647,29.172 0.5187,29.145 0.7887,29.145 C12.3687,29.145 18.8847,38.27 20.7507,41.338 C19.1367,41.617 17.6367,42.062 16.2457,42.625 C14.8057,40.246 9.8747,33.408 0.7887,33.408 C0.5187,33.408 0.2627,33.434 -0.0003,33.445 L-0.0003,34.986 C0.2627,34.973 0.5187,34.949 0.7887,34.949 C8.7677,34.949 13.3577,40.971 14.8127,43.258 C13.4897,43.9 12.2767,44.641 11.1767,45.434 C10.1077,43.684 6.7827,39.211 0.7887,39.211 C0.5187,39.211 0.2597,39.229 -0.0003,39.246 L-0.0003,40.791 C0.2587,40.771 0.5187,40.752 0.7887,40.752 C6.1337,40.752 9.1317,45.031 9.9447,46.385 C8.8657,47.262 7.9107,48.174 7.0777,49.066 C6.3517,47.924 4.3337,45.375 0.7887,45.375 C0.5157,45.375 0.2547,45.395 -0.0003,45.424 L-0.0003,46.98 C0.2527,46.943 0.5127,46.916 0.7887,46.916 C4.2787,46.916 5.9317,50.146 5.9987,50.283 C3.9677,52.703 2.9047,54.703 2.7537,55 L4.5157,55 C6.1447,52.232 12.6807,42.543 24.6447,42.543 C36.5767,42.543 43.1317,52.232 44.7627,55 L46.5257,55 C46.3737,54.703 45.3097,52.701 43.2757,50.279 C43.3657,50.117 45.0157,46.916 48.4997,46.916 C51.9917,46.916 53.6447,50.152 53.7097,50.285 L53.9367,50.174 C51.8437,52.645 50.7507,54.701 50.5977,55 L52.3627,55 C53.9887,52.232 60.5287,42.543 72.4887,42.543 C84.4217,42.543 90.9767,52.232 92.6077,55 L94.3697,55 C94.2187,54.703 93.1547,52.701 91.1207,50.279 C91.2127,50.113 92.8627,46.916 96.3437,46.916 C99.8397,46.916 101.4887,50.152 101.5537,50.285 L101.5567,50.283 C99.5257,52.703 98.4627,54.703 98.3117,55 L100.0727,55 C101.6997,52.232 108.2387,42.543 120.1997,42.543 C132.1347,42.543 138.6877,52.232 140.3187,55 L142.0837,55 C141.9297,54.701 140.8377,52.646 138.7447,50.178 L138.9627,50.285 C139.0377,50.152 140.6907,46.916 144.1887,46.916 C147.6837,46.916 149.3337,50.152 149.3997,50.285 L149.6297,50.172 C147.5347,52.643 146.4427,54.701 146.2907,55 L148.0517,55 C149.6787,52.232 156.2177,42.543 168.1817,42.543 C180.1137,42.543 186.6667,52.232 188.2967,55 L190.0627,55 C189.9097,54.703 188.8447,52.701 186.8107,50.279 C186.9067,50.111 188.5557,46.916 192.0327,46.916 C195.5257,46.916 197.1747,50.145 197.2457,50.283 C195.2147,52.703 194.1527,54.703 194.0007,55 L195.7617,55 C197.3887,52.232 203.9287,42.543 215.8917,42.543 C227.8257,42.543 234.3787,52.232 236.0097,55 L237.7727,55 C237.6187,54.701 236.5347,52.662 234.4607,50.207 L234.6187,50.285 C234.6847,50.152 236.3357,46.916 239.8317,46.916 C243.3297,46.916 244.9797,50.152 245.0537,50.285 L245.2767,50.174 C243.1827,52.645 242.0917,54.701 241.9367,55 L243.6987,55 C245.3257,52.232 251.8607,42.543 263.8177,42.543 C275.7587,42.543 282.3157,52.232 283.9447,55 L285.7107,55 C285.5577,54.703 284.4957,52.703 282.4647,50.283 C282.5367,50.143 284.1847,46.916 287.6717,46.916 C291.1517,46.916 292.8017,50.109 292.8997,50.279 C290.8647,52.701 289.8007,54.703 289.6477,55 L291.4117,55 C293.0367,52.232 299.5757,42.543 311.5287,42.543 C323.4697,42.543 330.0267,52.232 331.6557,55 L333.4217,55 C333.2687,54.701 332.1757,52.643 330.0817,50.172 L330.3117,50.285 C330.3767,50.152 332.0267,46.916 335.5167,46.916 C339.0187,46.916 340.6737,50.152 340.7477,50.285 L340.9647,50.178 C338.8727,52.646 337.7787,54.701 337.6247,55 L339.3917,55 C341.0167,52.232 347.5557,42.543 359.5167,42.543 C371.4507,42.543 378.0057,52.232 379.6357,55 L381.3977,55 C381.2477,54.703 380.1827,52.701 378.1497,50.279 C378.2397,50.115 379.8877,46.916 383.3727,46.916 C386.8687,46.916 388.5187,50.152 388.5817,50.285 C386.5517,52.703 385.4897,54.703 385.3377,55 L387.1007,55 C388.7277,52.232 395.2667,42.543 407.2257,42.543 C419.1617,42.543 425.7167,52.232 427.3467,55 L429.1107,55 C428.9587,54.703 427.8937,52.701 425.8587,50.279 C425.9527,50.109 427.6027,46.916 431.0837,46.916 C431.4057,46.916 431.7087,46.951 431.9997,47.002 L431.9997,45.441 C431.7047,45.402 431.4037,45.375 431.0837,45.375 C427.5287,45.375 425.5107,47.934 424.7907,49.072 C423.9567,48.18 423.0017,47.266 421.9217,46.387 C422.7377,45.037 425.7277,40.752 431.0837,40.752 C431.3977,40.752 431.7027,40.771 431.9997,40.799 L431.9997,39.254 C431.7007,39.23 431.3977,39.211 431.0837,39.211 C425.0737,39.211 421.7577,43.689 420.6887,45.436 C419.5897,44.643 418.3767,43.9 417.0537,43.26 C418.5037,40.973 423.0777,34.949 431.0837,34.949 C431.3977,34.949 431.6967,34.975 431.9997,34.992 L431.9997,33.451 C431.6947,33.436 431.3977,33.408 431.0837,33.408 C421.9877,33.408 417.0657,40.248 415.6227,42.625 C414.2297,42.064 412.7277,41.617 411.1127,41.336 C412.9757,38.268 419.4777,29.145 431.0837,29.145 C431.3977,29.145 431.6927,29.176 431.9997,29.189 L431.9997,27.625 C431.6967,27.613 431.3937,27.602 431.0837,27.602 C430.2867,27.602 429.5127,27.645 428.7597,27.721 C428.2747,26.883 427.3197,25.365 425.8587,23.629 C425.9527,23.459 427.6027,20.266 431.0837,20.266 C431.4057,20.266 431.7087,20.301 431.9997,20.352 L431.9997,18.791 C431.7047,18.752 431.4037,18.725 431.0837,18.725 C427.5287,18.725 425.5107,21.283 424.7907,22.422 C423.9567,21.529 423.0017,20.615 421.9217,19.736 C422.7377,18.387 425.7277,14.102 431.0837,14.102 C431.3977,14.102 431.7027,14.121 431.9997,14.148 L431.9997,12.604 C431.7007,12.58 431.3977,12.561 431.0837,12.561 C425.0737,12.561 421.7577,17.039 420.6887,18.785 C419.5897,17.992 418.3767,17.25 417.0537,16.609 C418.5037,14.322 423.0777,8.299 431.0837,8.299 C431.3977,8.299 431.6967,8.324 431.9997,8.342 L431.9997,6.801 C431.6947,6.785 431.3977,6.758 431.0837,6.758 C421.9877,6.758 417.0657,13.598 415.6227,15.975 C414.2297,15.414 412.7277,14.967 411.1127,14.686 C412.9757,11.617 419.4777,2.494 431.0837,2.494" id="Fill-5" fill="#000000" mask="url(#mask-2)"></path>
                </g>
            </g>
        </g>
    </g>
</svg>