<?xml version="1.0" encoding="UTF-8"?>
<svg width="284px" height="46px" viewBox="0 0 284 46" version="1.1" xmlns="http://www.w3.org/2000/svg" xmlns:xlink="http://www.w3.org/1999/xlink">
    <!-- Generator: Sketch 41.1 (35376) - http://www.bohemiancoding.com/sketch -->
    <title>gametitle_result</title>
    <desc>Created with Sketch.</desc>
    <defs>
        <path d="M13.4343017,1.80415488 C13.4679922,2.00023827 13.2694916,2.16160834 13.0691699,2.09781087 C11.4456535,1.58836932 10.4941255,0.435323902 10.45224,0.472851824 L11.2426002,2.34174237 C11.2981439,2.4702755 11.1861459,2.60631422 11.0377257,2.59411765 C9.99058955,2.49654505 9.01265543,2.11094564 8.35250437,1.48704393 C9.14286454,2.88402085 9.9332247,4.27912137 10.7345115,5.69486225 C1.24836842,8.53854058 -0.721158123,17.0658228 1.63171131,22.4726582 C3.95908525,27.8232018 10.8355829,31.5872524 15.750749,29.9904393 C15.3446423,29.946344 15.0377859,29.9200745 14.7327505,29.8778555 C9.25486258,29.1244825 4.91334499,25.4232911 3.65313938,20.4339538 C2.42207147,15.5665823 4.46535282,10.5650484 8.78046437,7.50089352 C11.3491349,5.67703649 16.1559452,6.01197319 17.1211315,7.87335815 C15.0805819,7.79642591 14.2865795,8.61359643 14.1927925,10.2732688 C14.1654759,10.7536262 11.7934849,11.6327178 12.6202672,13.3927774 C13.0946654,14.4060313 14.7245556,14.224959 15.0723869,14.224959 C14.7163606,16.8312733 14.5415344,19.3381385 16.3089181,21.5166344 C18.1536989,23.7898883 20.6185663,24.333105 23.5132149,23.7392256 C20.6121925,25.8004468 17.3879236,26.3980789 13.926911,25.8257781 C10.4822883,25.2572301 7.81618854,23.4352494 5.65635639,20.8777215 C8.4044059,27.3203276 16.4282006,30.0880119 23.001484,26.9394192 C30.4279558,23.3817722 31.1909994,15.2860611 28.8226505,11.5717349 C28.872731,12.6281459 29.0120456,13.6639166 28.9546807,14.6893671 C28.7734807,17.9130156 27.5478761,20.5681162 24.1833821,21.9435145 C20.9390811,23.2701266 16.9044199,21.6367238 16.2151311,18.6532539 C16.5629624,18.8089948 16.8297545,18.9384661 17.128416,19.0519881 C19.5368291,19.9723604 21.4453486,18.6982874 21.3151395,16.2524051 C21.2477586,14.9914669 20.5375271,13.7624274 20.2661823,12.4977364 C19.628795,9.53584512 22.1646856,10.7104691 22.8448689,8.51039464 C23.4185174,6.65182427 21.7995538,4.69099032 20.9518288,2.89246463 C20.8826268,3.07447506 20.8798951,3.78656739 20.8471152,4.22282949 C20.8389202,4.33259866 20.7014267,4.38607595 20.6121925,4.3138347 C19.4594321,3.37376024 18.6280971,1.33693224 18.5215623,1.3556962 C18.5634478,1.58649293 18.5925855,2.29577066 18.5871222,2.75548771 C18.5853011,2.92530156 18.3831583,3.02099777 18.2320064,2.92717796 C17.0564823,2.19725987 15.8909742,0.439076694 15.8263249,0.460655249 L16.1240758,1.97678332 C16.162319,2.17099032 15.9656396,2.34080417 15.7662284,2.2779449 C14.4577635,1.86795235 13.9806336,0.91099032 13.2139478,0.132285927 C13.1784363,0.31523455 13.3295881,1.19526433 13.4343017,1.80415488 Z M15.6870103,9.71410276 C15.7298063,9.34163812 16.349893,8.77590469 16.7286831,8.76746091 C17.0810672,8.75995532 17.702975,9.35758749 17.7348444,9.72442293 C17.7667138,10.0921966 17.2167396,10.5059419 16.7013665,11.1898883 C16.1960095,10.5003127 15.6433037,10.075309 15.6870103,9.71410276 Z M21.854187,10.5969471 C21.126655,10.5969471 20.5712176,11.2959047 20.7560599,11.9629635 C20.8452941,12.2828891 21.0902329,12.5709159 21.5555256,12.6928816 C22.4760948,12.9311839 23.4085013,13.1300819 24.3372655,13.3486821 C24.2999329,11.8475652 23.0989132,10.6260313 21.8815036,10.5969471 L21.854187,10.5969471 Z" id="path-1"></path>
        <polygon id="path-3" points="0 0.16124108 0 28.2185597 31.326945 28.2185597 31.326945 0.16124108"></polygon>
    </defs>
    <g id="Page-1" stroke="none" stroke-width="1" fill="none" fill-rule="evenodd">
        <g id="Artboard" transform="translate(-54.000000, -1441.000000)">
            <g id="bottom" transform="translate(52.000000, 1436.000000)"></g>
            <g id="top" transform="translate(51.000000, 1439.000000)">
                <g id="遊戲title" transform="translate(3.000000, 8.000000)">
                    <g id="Group-7">
                        <g id="Group-5" transform="translate(0.000000, 1.000000)">
                            <g id="Group-4">
                                <path d="M20.1721685,23.0314155 C20.5445495,22.1698051 20.8645495,21.309152 21.1102638,20.4341387 C21.1855019,20.2445844 21.2512162,20.049286 21.3178828,19.854945 C21.3312162,20.1163001 21.3474066,20.376698 21.348359,20.6428399 C21.3493114,20.8008018 21.3597876,20.901323 21.3769304,20.9587637 C21.0969304,21.7351705 20.6874066,22.4206295 20.1721685,23.0314155 L20.1721685,23.0314155 Z M10.8940733,26.365848 C10.1197876,26.3457438 9.37312092,26.1705497 8.64835902,25.8613273 C9.39216854,26.115981 10.1645495,26.2787297 10.9455019,26.3639334 C10.9293114,26.3648907 10.9112162,26.3648907 10.8940733,26.365848 L10.8940733,26.365848 Z M2.78454949,21.4929622 C2.81121616,21.5245546 2.83788283,21.556147 2.86454949,21.586782 C3.97121616,23.7829313 5.84550188,25.4984935 8.05216854,26.3897817 C8.28645426,26.526682 8.52645426,26.6530515 8.77121616,26.7727197 C6.06740664,25.9474883 3.83597807,24.1113007 2.78454949,21.4929622 L2.78454949,21.4929622 Z M6.25026378,9.33180912 C6.90740664,8.79186656 7.56550188,8.25096665 8.22264473,7.7091094 C10.1597876,6.94706281 12.2750257,6.97099644 14.2055019,7.5473181 C11.8693114,7.13278773 9.43788283,7.47743192 7.4140733,8.84643522 C7.38835902,8.86366743 7.36645426,8.88568636 7.33978759,8.90291857 C6.87693045,9.18437799 6.44740664,9.49742979 6.04550188,9.84207398 L6.25026378,9.33180912 Z M20.8893114,11.2867075 C20.6740733,11.0674755 20.4493114,10.8520729 20.2178828,10.6424144 C19.90074,10.1110879 19.5312162,9.60943915 19.1055019,9.14895623 C19.8016924,9.78463328 20.3988352,10.4988126 20.8893114,11.2867075 L20.8893114,11.2867075 Z M1.9493114,15.4827505 C1.8693114,15.958551 1.8140733,16.4381808 1.80264473,16.924512 C1.63502568,15.5803997 1.84359711,14.2525622 2.27883521,12.9333409 C2.32073997,12.8040993 2.37883521,12.6806018 2.42645426,12.5542323 C2.13216854,13.4886009 1.96835902,14.4746663 1.9493114,15.4827505 L1.9493114,15.4827505 Z M22.3721685,13.0903454 C21.3445495,9.34904132 18.7045495,6.11704473 14.7369304,5.09555765 C12.8893114,4.62071455 11.188359,4.85239203 9.66740664,5.53019227 C5.30645426,6.20320578 0.0712161609,10.0143961 0.000739970435,14.8269692 C-0.0316409819,17.0202465 1.00169235,19.2738366 2.51502568,21.1607635 C2.87502568,22.2980893 3.38454949,23.3722303 4.10740664,24.3630824 C6.36550188,27.4572213 10.5388352,28.9640823 14.26074,28.2106518 C15.9740733,27.8640929 17.2893114,27.1661884 18.3197876,26.0796019 C20.9702638,24.3267033 21.9216924,22.1047056 22.2845495,18.9722729 C22.3140733,18.7137898 21.9274066,17.3964831 21.8731209,17.9211081 C21.8721685,18.0493924 21.8588352,18.1671458 21.8531209,18.2916006 C21.848359,18.1575723 21.8416924,18.0292881 21.8340733,17.9057906 C21.9074066,17.5084924 21.9674066,17.1044929 22.0121685,16.6918772 C22.0274066,16.5492328 21.9426447,16.5463608 21.8321685,16.5980574 C21.8321685,16.5961427 21.8331209,16.5923133 21.8331209,16.5903986 C21.8835971,16.5377447 21.9245495,16.4697732 21.9169304,16.3836121 C21.8474066,15.5564661 21.7159781,14.7283627 21.5216924,13.9165341 C21.9721685,14.9839738 22.2540733,16.1174702 22.3550257,17.3227675 C22.4655019,17.9756768 22.8797876,18.6764533 23.2026447,19.2422442 C23.1597876,19.1666139 23.6645495,20.2062906 23.7369304,19.7774 C24.1626447,17.2557534 23.8264543,15.2156513 22.3721685,13.0903454 L22.3721685,13.0903454 Z" id="Page-1" fill="#BA0016"></path>
                                <path d="M50.6487598,23.031379 C51.0211408,22.1697685 51.3411408,21.3091154 51.586855,20.4341021 C51.6620931,20.2445478 51.7278074,20.0492494 51.7944741,19.8549084 C51.8078074,20.1162635 51.8239979,20.3766614 51.8249503,20.6428033 C51.8259027,20.8007652 51.8363788,20.9012864 51.8535217,20.9587271 C51.5735217,21.7351339 51.1639979,22.4205929 50.6487598,23.031379 L50.6487598,23.031379 Z M41.3706646,26.3658115 C40.5963788,26.3457072 39.8497122,26.1705131 39.1249503,25.8612907 C39.8687598,26.1159444 40.6411408,26.2786931 41.4220931,26.3638968 C41.4059027,26.3648541 41.3878074,26.3648541 41.3706646,26.3658115 L41.3706646,26.3658115 Z M33.2611408,21.4929256 C33.2878074,21.524518 33.3144741,21.5561104 33.3411408,21.5867454 C34.4478074,23.7828948 36.3220931,25.4984569 38.5287598,26.3897451 C38.7630455,26.5266454 39.0030455,26.653015 39.2478074,26.7726831 C36.5439979,25.9474517 34.3125693,24.1112641 33.2611408,21.4929256 L33.2611408,21.4929256 Z M36.726855,9.33177253 C37.3839979,8.79182997 38.0420931,8.25093007 38.699236,7.70907282 C40.6363788,6.94702623 42.7516169,6.97095985 44.6820931,7.54728152 C42.3459027,7.13275115 39.9144741,7.47739534 37.8906646,8.84639863 C37.8649503,8.86363084 37.8430455,8.88564978 37.8163788,8.90288199 C37.3535217,9.18434141 36.9239979,9.49739321 36.5220931,9.8420374 L36.726855,9.33177253 Z M51.3659027,11.2866709 C51.1506646,11.0674389 50.9259027,10.8520363 50.6944741,10.6423778 C50.3773312,10.1110513 50.0078074,9.60940257 49.5820931,9.14891964 C50.2782836,9.7845967 50.8754265,10.498776 51.3659027,11.2866709 L51.3659027,11.2866709 Z M32.4259027,15.4827139 C32.3459027,15.9585144 32.2906646,16.4381442 32.279236,16.9244754 C32.1116169,15.5803631 32.3201884,14.2525256 32.7554265,12.9333043 C32.7973312,12.8040627 32.8554265,12.6805652 32.9030455,12.5541957 C32.6087598,13.4885644 32.4449503,14.4746297 32.4259027,15.4827139 L32.4259027,15.4827139 Z M52.8487598,13.0903089 C51.8211408,9.34900474 49.1811408,6.11700814 45.2135217,5.09552107 C43.3659027,4.62067797 41.6649503,4.85235545 40.1439979,5.53015568 C35.7830455,6.20316919 30.5478074,10.0143595 30.4773312,14.8269326 C30.4449503,17.0202099 31.4782836,19.2738 32.9916169,21.1607269 C33.3516169,22.2980527 33.8611408,23.3721938 34.5839979,24.3630458 C36.8420931,27.4571847 41.0154265,28.9640457 44.7373312,28.2106152 C46.4506646,27.8640563 47.7659027,27.1661519 48.7963788,26.0795653 C51.446855,24.3266667 52.3982836,22.104669 52.7611408,18.9722363 C52.7906646,18.7137532 52.4039979,17.3964465 52.3497122,17.9210715 C52.3487598,18.0493558 52.3354265,18.1671092 52.3297122,18.291564 C52.3249503,18.1575357 52.3182836,18.0292515 52.3106646,17.905754 C52.3839979,17.5084559 52.4439979,17.1044563 52.4887598,16.6918406 C52.5039979,16.5491962 52.419236,16.5463242 52.3087598,16.5980208 C52.3087598,16.5961061 52.3097122,16.5922767 52.3097122,16.590362 C52.3601884,16.5377081 52.4011408,16.4697366 52.3935217,16.3835755 C52.3239979,15.5564295 52.1925693,14.7283261 51.9982836,13.9164976 C52.4487598,14.9839372 52.7306646,16.1174336 52.8316169,17.3227309 C52.9420931,17.9756402 53.3563788,18.6764167 53.679236,19.2422076 C53.6363788,19.1665773 54.1411408,20.206254 54.2135217,19.7773634 C54.639236,17.2557168 54.3030455,15.2156147 52.8487598,13.0903089 L52.8487598,13.0903089 Z" id="Page-1-Copy" fill="#BA0016" transform="translate(42.430711, 16.623724) rotate(-56.000000) translate(-42.430711, -16.623724) "></path>
                                <path d="M81.1245495,23.0314155 C81.4969304,22.1698051 81.8169304,21.309152 82.0626447,20.4341387 C82.1378828,20.2445844 82.2035971,20.049286 82.2702638,19.854945 C82.2835971,20.1163001 82.2997876,20.376698 82.30074,20.6428399 C82.3016924,20.8008018 82.3121685,20.901323 82.3293114,20.9587637 C82.0493114,21.7351705 81.6397876,22.4206295 81.1245495,23.0314155 L81.1245495,23.0314155 Z M71.8464543,26.365848 C71.0721685,26.3457438 70.3255019,26.1705497 69.60074,25.8613273 C70.3445495,26.115981 71.1169304,26.2787297 71.8978828,26.3639334 C71.8816924,26.3648907 71.8635971,26.3648907 71.8464543,26.365848 L71.8464543,26.365848 Z M63.7369304,21.4929622 C63.7635971,21.5245546 63.7902638,21.556147 63.8169304,21.586782 C64.9235971,23.7829313 66.7978828,25.4984935 69.0045495,26.3897817 C69.2388352,26.526682 69.4788352,26.6530515 69.7235971,26.7727197 C67.0197876,25.9474883 64.788359,24.1113007 63.7369304,21.4929622 L63.7369304,21.4929622 Z M67.2026447,9.33180912 C67.8597876,8.79186656 68.5178828,8.25096665 69.1750257,7.7091094 C71.1121685,6.94706281 73.2274066,6.97099644 75.1578828,7.5473181 C72.8216924,7.13278773 70.3902638,7.47743192 68.3664543,8.84643522 C68.34074,8.86366743 68.3188352,8.88568636 68.2921685,8.90291857 C67.8293114,9.18437799 67.3997876,9.49742979 66.9978828,9.84207398 L67.2026447,9.33180912 Z M81.8416924,11.2867075 C81.6264543,11.0674755 81.4016924,10.8520729 81.1702638,10.6424144 C80.8531209,10.1110879 80.4835971,9.60943915 80.0578828,9.14895623 C80.7540733,9.78463328 81.3512162,10.4988126 81.8416924,11.2867075 L81.8416924,11.2867075 Z M62.9016924,15.4827505 C62.8216924,15.958551 62.7664543,16.4381808 62.7550257,16.924512 C62.5874066,15.5803997 62.7959781,14.2525622 63.2312162,12.9333409 C63.2731209,12.8040993 63.3312162,12.6806018 63.3788352,12.5542323 C63.0845495,13.4886009 62.92074,14.4746663 62.9016924,15.4827505 L62.9016924,15.4827505 Z M83.3245495,13.0903454 C82.2969304,9.34904132 79.6569304,6.11704473 75.6893114,5.09555765 C73.8416924,4.62071455 72.14074,4.85239203 70.6197876,5.53019227 C66.2588352,6.20320578 61.0235971,10.0143961 60.9531209,14.8269692 C60.92074,17.0202465 61.9540733,19.2738366 63.4674066,21.1607635 C63.8274066,22.2980893 64.3369304,23.3722303 65.0597876,24.3630824 C67.3178828,27.4572213 71.4912162,28.9640823 75.2131209,28.2106518 C76.9264543,27.8640929 78.2416924,27.1661884 79.2721685,26.0796019 C81.9226447,24.3267033 82.8740733,22.1047056 83.2369304,18.9722729 C83.2664543,18.7137898 82.8797876,17.3964831 82.8255019,17.9211081 C82.8245495,18.0493924 82.8112162,18.1671458 82.8055019,18.2916006 C82.80074,18.1575723 82.7940733,18.0292881 82.7864543,17.9057906 C82.8597876,17.5084924 82.9197876,17.1044929 82.9645495,16.6918772 C82.9797876,16.5492328 82.8950257,16.5463608 82.7845495,16.5980574 C82.7845495,16.5961427 82.7855019,16.5923133 82.7855019,16.5903986 C82.8359781,16.5377447 82.8769304,16.4697732 82.8693114,16.3836121 C82.7997876,15.5564661 82.668359,14.7283627 82.4740733,13.9165341 C82.9245495,14.9839738 83.2064543,16.1174702 83.3074066,17.3227675 C83.4178828,17.9756768 83.8321685,18.6764533 84.1550257,19.2422442 C84.1121685,19.1666139 84.6169304,20.2062906 84.6893114,19.7774 C85.1150257,17.2557534 84.7788352,15.2156513 83.3245495,13.0903454 L83.3245495,13.0903454 Z" id="Page-1-Copy-3" fill="#BA0016"></path>
                                <path d="M111.601141,23.031379 C111.973522,22.1697685 112.293522,21.3091154 112.539236,20.4341021 C112.614474,20.2445478 112.680188,20.0492494 112.746855,19.8549084 C112.760188,20.1162635 112.776379,20.3766614 112.777331,20.6428033 C112.778284,20.8007652 112.78876,20.9012864 112.805903,20.9587271 C112.525903,21.7351339 112.116379,22.4205929 111.601141,23.031379 L111.601141,23.031379 Z M102.323046,26.3658115 C101.54876,26.3457072 100.802093,26.1705131 100.077331,25.8612907 C100.821141,26.1159444 101.593522,26.2786931 102.374474,26.3638968 C102.358284,26.3648541 102.340188,26.3648541 102.323046,26.3658115 L102.323046,26.3658115 Z M94.2135217,21.4929256 C94.2401884,21.524518 94.266855,21.5561104 94.2935217,21.5867454 C95.4001884,23.7828948 97.2744741,25.4984569 99.4811408,26.3897451 C99.7154265,26.5266454 99.9554265,26.653015 100.200188,26.7726831 C97.4963788,25.9474517 95.2649503,24.1112641 94.2135217,21.4929256 L94.2135217,21.4929256 Z M97.679236,9.33177253 C98.3363788,8.79182997 98.9944741,8.25093007 99.6516169,7.70907282 C101.58876,6.94702623 103.703998,6.97095985 105.634474,7.54728152 C103.298284,7.13275115 100.866855,7.47739534 98.8430455,8.84639863 C98.8173312,8.86363084 98.7954265,8.88564978 98.7687598,8.90288199 C98.3059027,9.18434141 97.8763788,9.49739321 97.4744741,9.8420374 L97.679236,9.33177253 Z M112.318284,11.2866709 C112.103046,11.0674389 111.878284,10.8520363 111.646855,10.6423778 C111.329712,10.1110513 110.960188,9.60940257 110.534474,9.14891964 C111.230665,9.7845967 111.827807,10.498776 112.318284,11.2866709 L112.318284,11.2866709 Z M93.3782836,15.4827139 C93.2982836,15.9585144 93.2430455,16.4381442 93.2316169,16.9244754 C93.0639979,15.5803631 93.2725693,14.2525256 93.7078074,12.9333043 C93.7497122,12.8040627 93.8078074,12.6805652 93.8554265,12.5541957 C93.5611408,13.4885644 93.3973312,14.4746297 93.3782836,15.4827139 L93.3782836,15.4827139 Z M113.801141,13.0903089 C112.773522,9.34900474 110.133522,6.11700814 106.165903,5.09552107 C104.318284,4.62067797 102.617331,4.85235545 101.096379,5.53015568 C96.7354265,6.20316919 91.5001884,10.0143595 91.4297122,14.8269326 C91.3973312,17.0202099 92.4306646,19.2738 93.9439979,21.1607269 C94.3039979,22.2980527 94.8135217,23.3721938 95.5363788,24.3630458 C97.7944741,27.4571847 101.967807,28.9640457 105.689712,28.2106152 C107.403046,27.8640563 108.718284,27.1661519 109.74876,26.0795653 C112.399236,24.3266667 113.350665,22.104669 113.713522,18.9722363 C113.743046,18.7137532 113.356379,17.3964465 113.302093,17.9210715 C113.301141,18.0493558 113.287807,18.1671092 113.282093,18.291564 C113.277331,18.1575357 113.270665,18.0292515 113.263046,17.905754 C113.336379,17.5084559 113.396379,17.1044563 113.441141,16.6918406 C113.456379,16.5491962 113.371617,16.5463242 113.261141,16.5980208 C113.261141,16.5961061 113.262093,16.5922767 113.262093,16.590362 C113.312569,16.5377081 113.353522,16.4697366 113.345903,16.3835755 C113.276379,15.5564295 113.14495,14.7283261 112.950665,13.9164976 C113.401141,14.9839372 113.683046,16.1174336 113.783998,17.3227309 C113.894474,17.9756402 114.30876,18.6764167 114.631617,19.2422076 C114.58876,19.1665773 115.093522,20.206254 115.165903,19.7773634 C115.591617,17.2557168 115.255426,15.2156147 113.801141,13.0903089 L113.801141,13.0903089 Z" id="Page-1-Copy-2" fill="#BA0016" transform="translate(103.383092, 16.623724) rotate(-56.000000) translate(-103.383092, -16.623724) "></path>
                                <g id="Page-1" transform="translate(1.904762, 5.801822)" fill="#FFFFFF">
                                    <path d="M4.35161371,6.26647461 C4.10430002,5.78749305 4.37671421,5.62045626 5.16885629,5.7161098 C7.24998261,5.6675692 9.05869473,5.42843533 10.6688176,4.94873993 C12.2043773,4.54185545 13.4424223,4.30272158 14.3600669,4.2306245 C14.706306,4.2306245 14.904157,4.51829898 14.9536197,5.02155084 C14.9536197,5.59618595 14.8052315,5.9074169 14.5328173,5.97951397 C13.0216199,6.50632231 11.6588107,7.00886034 10.4207657,7.48855574 C9.15762021,7.9675373 8.26581439,8.11101762 7.79481099,7.89544023 C7.24998261,7.7276896 6.48220277,7.79907285 5.46710923,8.1588444 C5.02046807,8.35015149 4.77241613,8.20667117 4.74805388,7.7276896 C4.69859114,7.22515157 4.57530342,6.74545617 4.35161371,6.26647461 M0.26466257,14.8417437 C-0.280165816,14.0029905 0.0166106215,13.7395864 1.15646838,14.0029905 C3.80678533,13.524009 7.00266891,13.0214709 10.7670049,12.5417755 C12.501892,12.3497546 14.1363772,12.2305446 15.7472383,12.1827178 C17.282798,12.1591614 18.1989661,12.0870643 18.520843,11.9428701 C18.7194322,11.8957572 18.8678204,12.0392375 19.0162086,12.3497546 C19.1158724,12.7095262 19.2642606,12.9251036 19.5115743,13.0685839 C19.7101635,13.2120642 19.809089,13.6203764 19.809089,14.2428382 C19.7596262,14.8895704 19.5366748,15.1051478 19.1645969,14.8417437 C16.6877686,14.2428382 13.7893997,14.0993579 10.4702284,14.3863186 C6.55602775,14.7453763 3.53437113,15.2486281 1.45324482,15.8953603 C1.15646838,16.063111 0.735665971,15.7276097 0.26466257,14.8417437" id="Fill-1"></path>
                                    <path d="M45.0332862,4.92525485 C44.5622828,4.56619713 43.8690662,4.44627328 43.0267231,4.54192683 C42.8288721,4.54192683 42.6302829,4.56619713 42.506257,4.5897536 L42.506257,4.63829421 C41.9621668,5.8353912 41.8381408,6.52995016 42.1349173,6.64987401 C42.2833055,6.8169108 42.6302829,6.93683465 43.274775,6.93683465 C43.5220887,6.98537526 43.670477,7.1052991 43.7701407,7.24877942 C44.1171181,7.1052991 44.5135583,6.86545141 44.9838234,6.52995016 C45.5781146,6.0509686 45.5781146,5.54771673 45.0332862,4.92525485 M39.6078881,19.6794575 C38.69172,18.4816466 37.9734029,17.5479538 37.4780373,16.8769513 C37.2550858,16.6135471 37.3289108,16.4943371 37.8242764,16.5414501 C38.2709176,16.7099145 38.69172,16.8533948 39.1383612,17.0454158 C39.1870857,16.9497622 39.2616489,16.8769513 39.3856749,16.8055681 C40.3018429,15.2965263 40.6739208,14.5063138 40.5498949,14.4099464 C40.4258689,14.2664661 39.6580891,14.4820435 38.3698431,15.0088518 C37.0077721,15.5842008 36.2643545,15.9910853 36.1403285,16.230933 C35.9919403,16.4700668 35.8184516,16.4465104 35.6206006,16.1588359 C35.4220114,15.8711614 35.2485227,15.5842008 35.0506718,15.2251431 C34.8520826,14.8896418 34.9761085,14.6976209 35.4471119,14.577697 C36.2887168,14.3863899 37.1310598,14.1708125 38.0228656,13.8838519 C38.8903092,13.6204477 39.8064773,13.3806 40.7728463,13.1885791 C41.3176747,13.0929256 41.8868653,13.1407523 42.5313575,13.2849465 C43.1256486,13.4762536 43.4482638,13.6440042 43.5220887,13.7396578 C43.5220887,13.9074084 43.1751113,14.3863899 42.506257,15.1287757 C41.8868653,15.8240485 40.9950595,16.5899907 39.8315778,17.3566467 C40.4258689,17.6678776 40.9706973,17.9791086 41.4911634,18.3146098 C41.6395516,18.4102634 41.5900889,18.8414182 41.3914997,19.6073604 C41.144186,20.3747302 40.8717718,20.7816147 40.6237199,20.8294415 C40.3513057,20.9015386 40.1534547,20.8294415 40.103992,20.6138641 C40.0043282,20.3982867 39.8315778,20.0870558 39.6078881,19.6794575 M31.4339858,7.72776099 C31.9788142,7.15312588 32.6476685,6.57777694 33.4649111,5.90748828 C33.5645748,5.8353912 33.6383998,5.8111209 33.712963,5.85966151 C33.7624258,5.90748828 33.7624258,5.97958535 33.7373253,6.07452507 C33.3903479,7.15312588 33.2419596,7.99116516 33.3408851,8.61362704 C33.4405489,9.21253245 33.2921606,9.50020692 32.9451832,9.42882368 C32.548743,9.35672661 32.1279406,9.09332244 31.632575,8.68643795 C31.1364711,8.25456933 30.9629824,8.01472163 31.1121088,7.94333838 C31.1859338,7.89551161 31.2855976,7.82412837 31.4339858,7.72776099 M33.4900116,13.0929256 C34.9517463,12.0871357 36.5869697,10.2425927 38.4436681,7.58428067 C38.4436681,7.53574006 38.4436681,7.48862712 38.493869,7.41581621 C38.4436681,7.36870327 38.4193058,7.32016267 38.4687686,7.24877942 C38.4193058,6.57777694 38.3698431,5.95531505 38.3698431,5.45206318 C38.1963544,5.50060379 38.0228656,5.54771673 37.8995779,5.54771673 C37.5031378,5.5955435 37.1805226,5.66764058 36.8837461,5.73973766 C36.8342834,5.95531505 36.8091829,6.17089245 36.8091829,6.36291337 C36.6607947,6.76979786 36.6851569,7.34443297 36.8837461,7.99116516 C36.9332089,8.18247225 36.6851569,8.42231995 36.1646908,8.70999442 C35.6693251,9.02122536 35.1001345,9.21253245 34.4061797,9.23680276 C33.7373253,9.2839157 33.6132993,9.21253245 34.0843027,8.97339859 C35.0506718,8.35022287 35.5452992,7.58428067 35.6206006,6.64987401 C35.6206006,6.43429662 35.5955002,6.26654599 35.5711379,6.17089245 C35.272885,6.31437277 35.0506718,6.45785309 34.8520826,6.57777694 C34.6047689,6.72197109 34.4061797,6.57777694 34.2821537,6.0995092 C34.1094032,5.69191088 34.1337655,5.47561966 34.3567169,5.47561966 C34.7036943,5.40423641 35.1495972,5.26075609 35.7195261,5.0451787 C36.2643545,4.8296013 37.0077721,4.56619713 38.0228656,4.18286911 C38.0723284,4.13504234 38.1719921,4.11077204 38.3203803,4.06294527 L38.3203803,4.01511849 C38.2709176,3.56040723 38.1963544,3.24846246 38.1468916,3.05715536 C38.0479661,3.05715536 37.9734029,3.05715536 37.9483024,3.03359889 C37.6020632,2.88940474 37.0815971,2.96150182 36.3883805,3.22490599 C36.0665036,3.39265661 35.8679143,3.27273276 35.8435521,2.84157797 C35.7438884,2.45824995 35.6206006,2.05136546 35.4714742,1.69230775 C35.272885,1.30897973 35.4965747,1.16478558 36.1403285,1.21261235 C37.5275,1.14051528 38.741921,0.949208183 39.8064773,0.637977241 C40.8223091,0.3267463 41.6144511,0.134725375 42.2589433,0.0626282987 C42.5815584,0.0626282987 42.7543089,0.3267463 42.8037716,0.805727864 C42.8532344,1.3325362 42.7299467,1.64376714 42.4818947,1.73942069 C41.6395516,2.00282486 40.896134,2.26622903 40.2774807,2.50607672 C40.2272797,2.60173027 40.1785552,2.69809765 40.1534547,2.74521059 C40.103992,2.76948089 40.0545292,3.10498214 40.0294287,3.70388755 C40.7477458,3.60752017 41.6144511,3.53613693 42.6553834,3.46403985 C43.6217525,3.41621308 44.4138946,3.51258046 45.0332862,3.72744402 C45.4791891,3.8238114 46.3709949,4.8296013 47.7087036,6.74552756 C48.0054801,7.17668235 48.0054801,7.39225974 47.7087036,7.39225974 C47.3868267,7.41581621 46.9158233,7.48862712 46.3458944,7.63210744 C45.7021405,7.75203129 44.834697,7.79914423 43.7701407,7.75203129 C43.670477,7.96760869 43.472626,8.18247225 43.1751113,8.35022287 C42.8288721,8.54152996 42.3829692,8.54152996 41.8130404,8.35022287 C41.3914997,8.15891578 41.0947233,7.91906808 40.9706973,7.65566391 C40.8223091,7.46435682 40.8223091,6.96181879 41.02016,6.17089245 C41.1190855,5.62052764 41.0947233,5.18865902 40.9950595,4.90169838 C40.896134,4.92525485 40.8223091,4.94881132 40.7979468,4.97308162 C40.4996939,5.0451787 40.2272797,5.11727577 39.9305032,5.16510255 C39.8810405,5.76400796 39.8315778,6.50639369 39.8064773,7.34443297 C39.8064773,7.46435682 39.782115,7.56001037 39.731914,7.63210744 L39.7577528,7.65566391 C40.2523802,8.15891578 40.7728463,8.61362704 41.3914997,8.94912828 C41.9621668,9.3324563 42.7786712,9.95563202 43.8941667,10.8179416 C44.9092602,11.7273641 46.049118,12.3748101 47.3366257,12.7816946 C48.5510467,13.2121356 49.5668785,13.7153875 50.3841211,14.2193532 C50.8049235,14.4342167 51.0035127,14.6497941 50.9540499,14.8653715 C50.9038489,15.1052192 50.0866064,15.2008728 48.5008457,15.1052192 C47.2377002,14.9852954 46.1975062,14.841815 45.4297263,14.6733506 C44.636846,14.4820435 44.2655063,14.1708125 44.3149691,13.7396578 C44.2160436,12.733154 43.7701407,12.0150386 43.0023609,11.6074403 C42.1851183,11.2005558 41.5657267,10.8414981 41.1936487,10.5545374 C40.7477458,10.2425927 40.3269434,9.93136172 39.906141,9.66795755 C39.3354739,9.47593662 38.865947,9.59586047 38.5433318,9.95563202 C38.3949436,10.074842 38.2952798,10.1947659 38.1963544,10.2911333 C38.1963544,10.3146897 38.1963544,10.3382462 38.2465553,10.3625165 C38.815746,10.8893248 39.4351376,11.3440361 40.1283542,11.7038077 C40.4258689,11.8237315 40.4996939,12.0393089 40.4509694,12.2784428 C40.3764062,12.5418469 40.2029174,12.6617708 39.9548655,12.6617708 C39.7577528,12.6382143 39.4107754,12.613944 38.9884964,12.613944 C38.493869,12.613944 38.0966906,12.494734 37.7755519,12.2548863 C37.5769627,12.2784428 37.4780373,11.9907683 37.4780373,11.3925767 C37.4285745,11.2005558 37.4285745,11.0570755 37.4780373,10.9371516 C36.3138173,12.0150386 35.4471119,12.7581382 34.9015453,13.1885791 C34.1839665,13.7396578 33.7373253,14.2193532 33.6132993,14.6733506 C33.6132993,15.0331221 33.2670601,15.3443531 32.5982058,15.5842008 C31.9293514,15.7990643 31.0870083,15.8954317 30.0962771,15.7990643 C29.1055458,15.7519514 28.9815198,15.6077572 29.6998369,15.3207966 C31.334322,14.4577732 32.5982058,13.7153875 33.4900116,13.0929256" id="Fill-3"></path>
                                    <path d="M60.9546881,10.5543947 C60.4342219,9.69208508 60.7066361,9.40441061 61.8464939,9.71564155 C64.4724486,9.23665999 67.5930307,8.78194873 71.2591794,8.35008011 C72.9682278,8.18304332 74.5783507,8.08738977 76.1146487,8.039563 C77.6258461,8.01457886 78.5176519,7.94319562 78.8646293,7.8239856 C79.0130175,7.77544499 79.1614058,7.91963915 79.309794,8.23087009 C79.4087195,8.5899278 79.5822082,8.8055052 79.8302601,8.94898552 C80.0281111,9.09317967 80.1026743,9.50006416 80.1026743,10.1232399 C80.0532116,10.7699721 79.8302601,10.9855495 79.43382,10.7457018 C77.0308167,10.1232399 74.1826488,9.95548925 70.9373025,10.1946231 C67.1220273,10.5301244 64.1741957,10.9855495 62.1432703,11.6080113 C61.8464939,11.7522055 61.4500537,11.4159904 60.9546881,10.5543947" id="Fill-5"></path>
                                    <path d="M108.313053,9.57216123 C107.049908,8.92542905 104.226102,9.02179643 99.8408983,9.8355654 C99.3706331,9.90766248 98.9247302,9.97904572 98.52829,10.0511428 C98.4544651,12.5417042 98.6279538,14.0271895 99.1727822,14.5539978 C99.5441218,15.7275383 101.426659,16.1108663 104.795293,15.7039819 C105.34086,15.5119609 105.637636,15.7039819 105.712199,16.2307902 C105.712199,16.7818688 105.390322,17.1887533 104.74583,17.428601 C101.426659,18.0746194 99.2960699,17.8840261 98.3799018,16.8532521 C97.7848724,16.4941944 97.4135328,16.014499 97.2651446,15.4641342 C96.8687044,14.5539978 96.7203162,12.8293786 96.8192417,10.3623737 C95.3331447,10.6500482 94.2678502,10.8656256 93.6735591,11.0333762 C92.6577273,11.3203369 91.7164587,11.7036649 90.8741156,12.15909 C90.4776755,12.3746674 90.2052613,12.2783 90.0819736,11.847859 C89.9335853,11.4638172 89.7593584,10.9612792 89.5615074,10.4102005 C89.3141937,9.8355654 89.6109702,9.66781478 90.4282127,9.78773863 C92.8563165,9.52433446 94.5653649,9.23665999 95.6299212,8.94898552 C96.0263613,8.8297755 96.4235397,8.73340812 96.8930666,8.61348427 C96.9927304,5.57184427 96.9927304,3.75157156 96.9181671,3.17693645 C96.521727,2.43455071 96.8930666,2.09904947 98.0572866,2.17114655 C99.1727822,2.26680009 99.5441218,2.55447456 99.2717076,3.00918582 C98.9749312,3.91932218 98.7512415,5.66749781 98.6279538,8.18304332 C98.7268793,8.15948685 98.8509052,8.13450271 98.9992934,8.11094624 C100.411565,7.87109854 101.897662,7.67979145 103.557248,7.46421405 C105.14227,7.27219313 106.50508,7.12871281 107.619837,7.03305926 C108.090102,6.93740572 108.437079,7.41567345 108.685131,8.42289101 C108.857882,9.45223739 108.758956,9.8355654 108.313053,9.57216123" id="Fill-7"></path>
                                </g>
                            </g>
                        </g>
                        <g id="Page-1" opacity="0.799999952" transform="translate(122.000000, 0.000000)">
                            <g id="Group-3" transform="translate(65.886426, 0.644542)">
                                <mask id="mask-2" fill="white">
                                    <use xlink:href="#path-1"></use>
                                </mask>
                                <g id="Clip-2"></g>
                                <polygon id="Fill-1" fill="#BA0017" mask="url(#mask-2)" points="-2.5868816 33.7751303 33.3317099 33.7751303 33.3317099 -3.28181683 -2.5868816 -3.28181683"></polygon>
                            </g>
                            <g id="Group-13" transform="translate(0.000000, 0.644542)">
                                <g id="Group-6" transform="translate(0.000000, 0.759494)">
                                    <mask id="mask-4" fill="white">
                                        <use xlink:href="#path-3"></use>
                                    </mask>
                                    <g id="Clip-5"></g>
                                    <path d="M22.5756183,10.6429903 C23.3623362,9.08933433 23.6901354,7.80681757 23.6901354,6.75978853 C23.6245756,6.52336262 23.1984367,6.42109903 22.3789388,6.45581236 C22.0183597,6.52336262 21.6577807,6.59091288 21.3299815,6.65752494 C21.0021824,7.02905138 20.6752938,7.60416679 20.4130545,8.31344453 C20.0187849,9.02178407 19.6263365,9.7310618 19.2985374,10.3390141 C19.8876653,10.6767655 20.5769541,10.9807416 21.3299815,11.1833924 C21.8544602,11.2509427 22.2478191,11.1158421 22.5756183,10.6429903 M22.9361974,15.3715086 C22.2150392,15.0665942 21.1669925,15.2016947 19.7893255,15.7083217 C19.2329776,15.7758719 18.9379583,16.3500491 18.9379583,17.3633031 C18.8723985,18.4103321 19.069078,18.9845093 19.5279968,19.0520596 C20.6416033,18.9845093 21.4947917,18.8831839 22.1166995,18.7480834 C22.5100585,18.5454326 22.8378576,17.9712554 23.1328768,16.9580015 C23.3623362,15.9785227 23.3295563,15.4381206 22.9361974,15.3715086 M26.2141888,7.63700372 C25.4602508,10.2714639 24.6735328,12.2304214 23.8212551,13.4801013 C24.0834944,13.5138764 24.3457337,13.5814267 24.607973,13.6489769 C26.8370072,14.3920298 27.5581653,15.1350827 26.8042273,15.7758719 C25.6569303,17.1268771 24.9029922,18.7143083 24.6735328,20.5381653 C24.607973,21.0110171 24.4112935,21.1789546 24.1162743,21.1123425 C23.7884751,21.0447923 23.4934559,21.0110171 23.2639965,21.0110171 C22.2150392,20.9096917 21.1342126,21.0110171 20.0187849,21.3487684 C19.823016,21.4153805 19.5935566,21.550481 19.3968771,21.6865197 C19.1674177,21.8891705 18.9051784,21.7869069 18.7084989,21.3487684 C17.6267617,19.4573611 16.8400438,17.6335041 16.4794647,15.8434222 C16.0861057,15.3715086 16.0861057,15.0665942 16.4794647,14.9999821 C16.7744839,14.9314937 17.1678429,14.8301683 17.6923216,14.6950678 C18.3151399,14.5271303 19.3968771,14.2222159 21.0021824,13.8178526 C21.4611012,13.682752 21.8872401,13.5814267 22.2805991,13.5138764 C21.9855798,13.2099002 21.6577807,12.9734743 21.3627615,12.8383738 C20.6416033,12.4330722 19.8876653,11.7575696 19.069078,10.8456411 C19.0035181,10.9131914 18.9707382,10.9807416 19.0035181,10.9807416 C18.0856805,12.6019479 17.4300822,13.5814267 17.0039434,13.8178526 C16.3155651,14.3573165 15.7583066,14.5937424 15.3977275,14.5271303 C15.0371485,14.4586418 15.0043686,14.3244795 15.3649476,14.1218287 C16.1516656,13.3787759 16.8072639,12.2641966 17.3973023,10.811866 C18.0201207,9.29198511 18.3479199,8.24495607 18.3806998,7.63700372 C17.9873408,7.8405927 17.6595416,8.04324348 17.3973023,8.24495607 C17.135063,8.41476992 16.9056036,8.31344453 16.741704,7.80681757 C16.5122446,7.33396575 16.3155651,6.92866418 16.1844455,6.62468801 C15.987766,6.28599851 16.4139049,6.11806106 17.4956421,6.11806106 C18.5118194,5.84786001 19.7574562,5.51010871 21.2972016,4.96970663 C22.7722978,4.4968548 24.1162743,4.42930454 25.394691,4.76705585 C26.8697871,5.51010871 27.4270457,5.98296054 27.0664666,6.25316158 C26.6731076,6.52336262 26.3780884,6.96243931 26.2141888,7.63700372 M22.0839196,24.6240179 C26.1804984,25.0630946 29.1306907,25.6372718 30.933586,26.4478749 C31.4580646,26.6505257 31.4580646,26.7856262 30.933586,26.9207267 C28.638992,27.7313299 26.3125286,28.1366314 24.0179345,28.2041817 C21.6577807,28.2717319 20.4458344,28.1028563 20.4130545,27.6637796 C20.1499046,26.6167506 19.2657575,25.8061474 17.7906613,25.3332956 C16.381125,24.6915681 15.3977275,24.3538168 14.9388087,24.3538168 C14.4143301,24.3538168 13.4318432,23.8471899 11.989527,22.8001608 C10.5144308,21.8216203 8.64597566,21.2812182 6.48341185,21.1461176 L6.35229219,21.1461176 C6.15470215,21.4153805 5.95802266,21.6865197 5.76225372,21.9220074 C4.94275586,22.8001608 4.54939688,23.4428265 4.68051654,23.7796396 C4.74516582,24.1173909 4.64773662,24.387592 4.45105714,24.5226925 C3.50043961,25.16442 2.84484132,25.5359464 2.45148234,25.7385972 C1.99256354,25.941248 1.33696524,26.0763485 0.419127631,26.0763485 C-0.0725710889,26.1438987 -0.138130918,25.9750231 0.255228058,25.5359464 C1.86144388,24.2187163 3.04152081,23.0713001 3.86101867,22.0233328 C5.33520428,20.3017394 6.09005287,18.5116575 6.15470215,16.6202502 C6.15470215,16.2824989 6.51528121,16.2149486 7.23643933,16.4175994 C7.95759745,16.6202502 8.25261669,16.7891258 8.18705686,16.9242264 C8.0559372,17.093102 7.85925771,17.5659538 7.59701839,18.3090067 C7.85925771,18.646758 8.41651626,18.9845093 9.36713379,19.3222606 C9.43269361,18.3427818 9.53103336,16.6878004 9.69493293,14.2222159 C9.36713379,14.2907044 9.07211455,14.3920298 8.84265515,14.4933552 C6.22117253,15.3715086 4.22159773,16.1811735 2.84484132,16.9580015 C2.582602,17.1944274 2.09090328,16.8904512 1.43530499,16.1145614 C0.714146863,15.3367952 0.943606266,14.9652688 2.12368319,15.0337573 C3.9265785,14.2907044 6.0563624,13.5138764 8.61319575,12.5681727 C8.94099489,12.4668474 9.30157396,12.365522 9.69493293,12.2641966 C9.69493293,11.6562442 9.69493293,11.0482919 9.76049276,10.305239 L9.76049276,10.2039136 C8.48207609,10.5078898 7.76091797,10.811866 7.56423848,11.1158421 C7.30199916,11.4873686 6.94233065,11.1158421 6.45063193,9.83238719 C5.92524274,8.65025763 5.826903,8.10985555 6.18748206,8.17834401 C6.31860172,8.21118094 7.49867865,7.90720477 9.79327268,7.23264036 C9.79327268,3.75380194 9.69493293,1.59313179 9.56381327,0.781590469 C9.49825344,0.308738645 9.69493293,0.107026061 10.1538517,0.173638124 C10.8750099,0.275901713 11.4650483,0.410064036 12.0550868,0.613653016 C12.6769946,0.883854058 12.7762449,1.25444229 12.4156659,1.65974386 C11.8256274,2.06504542 11.5633881,3.34850037 11.6289479,5.51010871 C11.6289479,5.88163515 11.596168,6.32071184 11.596168,6.7260134 C13.0057043,6.18561132 13.7259519,6.11806106 13.7587318,6.45581236 C13.7587318,6.79262547 13.7924223,7.26547729 13.8570715,7.87342964 C13.9235419,8.44760685 13.6276121,8.88668354 12.906454,9.12310946 C12.4475352,9.32576024 11.989527,9.52934922 11.5306082,9.69728667 C11.4650483,10.3390141 11.4322684,11.0482919 11.4650483,11.7575696 C11.6617278,11.7237945 11.8574967,11.6900194 12.0550868,11.6562442 C13.1359134,11.3860432 13.7587318,11.2171675 13.9235419,11.1158421 C14.0546616,11.0482919 14.2176506,11.1496173 14.4143301,11.3522681 C14.5454498,11.6224691 14.7093493,11.8251199 14.9715886,11.8926701 C15.1682681,11.9939955 15.2666079,12.3317468 15.3977275,12.8721489 C15.4632874,13.4801013 15.2993878,13.7165272 14.9715886,13.5814267 C13.7924223,13.5138764 12.6123453,13.6142636 11.3994885,13.8178526 C11.3339287,14.3244795 11.3011488,14.8648816 11.3011488,15.3367952 C11.6289479,15.6417096 12.0223069,15.743035 12.4475352,15.539446 C13.0375737,15.4052837 13.6603921,15.3030201 14.284121,15.1350827 C14.6110096,15.0665942 14.8076891,15.3715086 14.9060288,16.013236 C14.9715886,16.7215756 14.8741595,17.0593269 14.6447,17.1268771 C14.1193109,17.2619777 13.5629629,17.4646284 12.9392339,17.6672792 C12.3164156,17.86993 11.7600676,18.1739062 11.3339287,18.5116575 C11.3994885,19.1196098 11.4650483,19.5924617 11.596168,19.9639881 L11.596168,20.200414 C12.1206466,20.5381653 13.6603921,21.2136679 16.2172254,22.2269218 C18.8396186,23.7120894 20.7736335,24.4889173 22.0839196,24.6240179" id="Fill-4" fill="#000000" mask="url(#mask-4)"></path>
                                </g>
                                <path d="M52.9412071,18.2580849 C52.580628,17.9203336 52.6789678,17.7514579 53.2690062,17.6839077 C55.268581,17.9541087 57.0050059,18.4269605 58.6112218,19.068688 C58.8079013,19.1362383 58.8734611,19.7779657 58.8406812,20.892545 C58.7751213,22.0071243 58.5784418,22.6816888 58.3162025,22.8515026 C57.9884034,23.0194401 57.7261641,22.9518898 57.5303951,22.6816888 C57.2672453,22.4124259 56.9403567,22.0408995 56.6444269,21.5342725 C55.0391216,20.1494922 53.7934849,19.0349129 52.9412071,18.2580849 L52.9412071,18.2580849 Z M52.1544891,10.9298198 C52.0889293,11.8755235 52.0561494,12.8550022 52.0889293,13.9010931 C52.8428673,13.7669308 53.5312455,13.6318302 54.1540639,13.4629546 C54.3835233,13.3616292 54.6129827,12.9901028 54.8096622,12.3146001 C55.0063417,11.6728727 54.9735618,11.3351214 54.7113225,11.2675711 C53.9573844,10.9635949 53.0723267,10.8622695 52.1544891,10.9298198 L52.1544891,10.9298198 Z M50.4827135,14.1722323 L50.4827135,12.3146001 C50.4180642,11.9430737 50.3843737,11.6053224 50.4499336,11.2675711 C49.5648759,11.503997 48.6479488,11.8417483 47.7301112,12.2470499 C47.402312,12.3483753 47.2711924,12.7536768 47.3039723,13.4291794 C47.3039723,14.137519 47.435092,14.5090454 47.8284509,14.5090454 C48.7790685,14.40772 49.6632156,14.3073328 50.4827135,14.1722323 L50.4827135,14.1722323 Z M52.0233695,16.0298645 C51.82669,19.7779657 51.9250297,22.2435503 52.3511686,23.3909665 C52.4822883,23.8638183 52.0561494,24.2353448 51.1710917,24.4379955 C50.2532541,24.6406463 49.9591454,24.302895 50.2532541,23.3581296 C50.3197245,22.6816888 50.3843737,21.1627461 50.4499336,18.8322621 C49.892675,19.0011378 49.1715169,19.5077647 48.352019,20.2845927 C47.2056326,21.2293582 45.7960962,21.9386359 44.1571005,22.4799762 C43.8293013,22.5465882 43.5342821,22.5465882 43.3376026,22.4799762 C43.1081432,22.4124259 43.2073935,22.2088369 43.6654018,21.8373105 C45.4027373,20.5547937 46.9761732,19.1700134 48.3857095,17.7176828 C48.8774082,17.1435056 49.3026365,16.6368786 49.6969061,16.164965 C49.1715169,16.2991273 48.7125981,16.468003 48.2873697,16.6706538 C48.0906903,16.7044289 47.8940108,16.8057543 47.6973313,16.9746299 C47.435092,17.1435056 47.2384125,17.0421802 47.0745129,16.6706538 C45.9927757,15.2183232 45.1404979,13.8007059 44.6160193,12.3821504 C44.2882202,11.9092986 44.2882202,11.6728727 44.6487992,11.5715473 C44.9438184,11.5377722 45.3043975,11.4364468 45.7633163,11.3013462 C46.7139338,11.0311452 48.2873697,10.5920685 50.4499336,10.0178913 C50.3843737,9.24106329 50.3515938,8.56556069 50.4180642,7.89005808 C48.5168291,8.26158451 47.3367522,8.66688608 46.9433932,9.10596277 C46.6811539,9.4774892 46.3205749,9.03841251 45.9272159,7.72212063 C45.4682971,6.43866567 45.4027373,5.86448846 45.7960962,5.96581385 C45.9927757,6.03336411 47.4678719,5.83071333 50.3515938,5.29031124 C50.2204742,3.26380343 50.1221344,1.94657334 50.0237947,1.30484587 C49.9591454,0.831994043 50.1221344,0.629343261 50.6138331,0.696893522 C51.3349913,0.764443783 51.9578096,0.900482502 52.6134079,1.06841996 C53.3017861,1.37239613 53.4329058,1.74392256 52.973987,2.14922413 C52.4822883,2.52075056 52.187269,3.46645421 52.1544891,4.95255994 C52.8428673,4.85123455 53.6623652,4.71613403 54.5474229,4.54725838 C55.6938094,4.20950707 56.2838478,4.20950707 56.3503182,4.47970812 C56.3503182,4.74990916 56.3503182,5.12143559 56.3821876,5.59428742 C56.3821876,6.10091437 56.0880789,6.40489054 55.5308203,6.53999106 C54.4818631,6.94435443 53.367346,7.31588086 52.1544891,7.58608191 L52.1544891,9.61258972 C53.8918246,9.24106329 55.268581,9.24106329 56.2838478,9.61258972 C58.3817624,10.3556426 59.1029205,11.0311452 58.3817624,11.6390975 C57.365585,12.6185763 56.7427666,13.8007059 56.5133072,15.1854862 C56.4486579,15.658338 56.2519785,15.8600506 55.9897391,15.7587252 C55.66194,15.691175 55.3997007,15.658338 55.2030212,15.658338 C54.1868438,15.5222993 53.1051067,15.5570127 52.0233695,15.691175 L52.0233695,16.0298645 Z M38.0609469,10.1867669 C37.7003679,8.83669993 37.6675879,7.72212063 37.9626072,6.9115175 C38.6182055,5.66183768 39.2082439,5.39163663 39.7982824,6.06713924 C39.9294021,6.23601489 40.0933016,6.572828 40.3555409,7.18078034 C40.5522204,7.75589576 40.7816798,8.29535964 41.1750388,8.73443634 C41.5019274,9.17351303 41.7650773,9.61258972 41.9608462,10.0178913 C42.0919659,10.2205421 41.9945367,10.4907431 41.7313868,10.7609442 C41.4044982,11.0986955 40.9127995,11.2000208 40.3555409,10.9973701 C39.6999427,10.8284944 39.175464,10.727169 38.782105,10.6596188 C38.3231862,10.5920685 38.0609469,10.456968 38.0609469,10.1867669 L38.0609469,10.1867669 Z M39.6016029,21.0614207 C38.2576264,19.068688 37.5692482,17.1772807 37.5364683,15.2868116 C37.5364683,15.0156724 37.4709085,14.7454713 37.3397888,14.4424334 C37.1431093,14.137519 37.1758892,13.9358064 37.4709085,13.834481 C37.6675879,13.7669308 37.8314875,13.6993805 38.0937268,13.5980551 C38.2904063,13.5295666 38.5198657,13.6318302 38.8476649,13.9010931 C39.1099042,14.1722323 39.568823,14.4762085 40.322761,14.7454713 C40.9455794,15.0156724 40.9783593,15.4885242 40.4538807,16.0964765 C39.6016029,17.1097305 39.568823,18.1229844 40.3555409,19.1362383 C41.0439192,20.1832673 41.5356179,20.9263202 41.8625065,21.4657841 C41.9608462,21.8373105 42.0919659,22.1750618 42.2886454,22.4452628 C42.2886454,22.5803634 42.3551157,22.7154639 42.5181048,22.7830141 C42.6492244,22.8167893 42.7803441,22.8515026 42.9442437,22.9181147 C43.7637415,23.223029 44.6815791,23.4932301 45.7960962,23.6949427 C46.4189146,23.9651437 47.6973313,24.4717707 49.6304357,25.1134981 C51.4661109,25.856551 53.4984656,26.2618526 55.66194,26.363178 C57.7917239,26.4982785 60.3157773,27.0724557 63.2650591,27.9843842 C63.6593286,28.1194847 63.6921085,28.2883604 63.4298692,28.5247863 C62.0203329,29.0304751 60.840256,29.4020015 59.9224184,29.6055905 C58.9718008,29.8082413 57.7261641,29.9086284 56.2519785,29.8420164 C54.7113225,29.7735279 53.5968054,29.740691 52.9084272,29.6731407 C52.220049,29.6384274 51.6955703,29.234064 51.433331,28.457236 C50.5154934,26.9711303 49.1396475,26.126752 47.3367522,25.9916515 C46.0255556,25.9916515 44.8782586,25.7890007 43.8948612,25.4174743 C42.8786838,25.079723 41.7313868,24.8432971 40.4538807,24.7081966 C39.1099042,24.6068712 37.9953871,24.8770722 37.2414491,25.58635 C36.7825302,26.126752 36.2580516,25.9578764 35.6680131,24.9783976 C35.0461053,24.0664691 34.946855,23.4932301 35.4385537,23.2896411 C35.8974726,23.0869903 37.0447696,22.8852777 38.9132247,22.7154639 C39.3393636,22.6488518 39.7982824,22.6150767 40.2899811,22.6150767 C40.3555409,22.5465882 40.3883209,22.4799762 40.4538807,22.3786508 C40.5522204,22.1084497 40.2899811,21.70221 39.6016029,21.0614207 L39.6016029,21.0614207 Z" id="Fill-7" fill="#000000"></path>
                                <path d="M120.990831,13.3956858 C121.187511,13.1592599 121.318631,12.5850827 121.38419,11.7407044 C121.44975,10.8963261 121.44975,10.4572494 121.38419,10.3221489 C121.023611,10.085723 120.499133,10.0519479 119.876314,10.2545987 C119.679635,10.3221489 119.515735,10.3559241 119.417395,10.3559241 L119.417395,11.5380536 C119.679635,11.4705034 119.941874,11.4029531 120.204113,11.3016277 C120.400793,11.2340774 120.531913,11.4367282 120.663032,11.8758049 C120.728592,12.2811065 120.663032,12.5175324 120.531913,12.5850827 C120.138554,12.6526329 119.777975,12.7539583 119.384616,12.8552837 L119.384616,14.1387386 C120.335233,13.8685376 120.859712,13.6321117 120.990831,13.3956858 L120.990831,13.3956858 Z M115.680485,14.9821787 C115.746956,15.0506672 116.304214,14.9493418 117.418731,14.6791407 L117.418731,13.4294609 C117.058152,13.5645614 116.697573,13.699662 116.368863,13.8347625 C115.909945,14.0036381 115.583056,14.240064 115.386377,14.5093269 C115.451936,14.7457528 115.550276,14.8808533 115.680485,14.9821787 L115.680485,14.9821787 Z M117.385951,10.8963261 C116.435334,11.1665272 115.746956,11.4705034 115.320817,11.7407044 C115.189697,11.8758049 115.124137,12.0784557 115.124137,12.3486567 C115.386377,12.6188578 115.648616,12.686408 115.943635,12.5175324 C116.401643,12.3824319 116.893342,12.2473313 117.385951,12.0784557 L117.385951,10.8963261 Z M125.12019,19.20407 C123.449325,18.8325436 121.51531,18.7649933 119.417395,18.9676441 C119.417395,20.0822234 119.417395,21.2305778 119.450175,22.4127074 C119.581295,23.9663634 119.450175,24.708478 119.122376,24.708478 C118.237319,24.5396024 117.483381,24.2694013 116.991682,23.8978749 C116.532763,23.6961623 116.532763,23.4597364 117.025372,23.1885972 C117.450601,22.9183961 117.68006,22.581583 117.68006,22.1087312 C117.6145,21.1292524 117.54894,20.1835488 117.54894,19.1702949 C115.583056,19.474271 113.97684,19.8457975 112.829543,20.2848742 C112.567304,20.4199747 112.206725,20.1497736 111.747806,19.3729456 C111.256107,18.6298928 111.485567,18.3596917 112.468964,18.5623425 C113.8785,18.157041 115.550276,17.7517394 117.517071,17.3126627 C117.450601,16.9749114 117.418731,16.6380983 117.450601,16.2665719 C117.090022,16.366959 116.664793,16.4682844 116.270524,16.5696098 C115.779736,16.6380983 115.451936,16.7384855 115.320817,16.8398109 C115.189697,16.9749114 114.993018,16.7731988 114.796338,16.1980834 C113.91128,14.6115905 113.452362,12.9566091 113.485141,11.2678526 C113.419582,10.8287759 113.485141,10.59235 113.714601,10.59235 C113.91128,10.59235 114.17352,10.5585748 114.468539,10.4572494 C115.124137,10.2545987 116.074755,9.98439762 117.385951,9.61287118 L117.385951,8.2956411 C116.368863,8.53206701 115.746956,8.80226806 115.517496,9.0734073 C115.320817,9.30983321 115.058577,9.03869397 114.763558,8.12770365 C114.468539,7.28332539 114.402979,6.91179896 114.632438,6.97934922 C114.763558,6.97934922 115.680485,6.80953537 117.385951,6.405172 C117.385951,5.76344453 117.385951,5.15549218 117.418731,4.58131497 C116.468114,4.75019062 115.812515,4.88529114 115.419156,5.05416679 C114.960238,5.32436783 114.665218,5.15549218 114.566879,4.54753984 C114.468539,3.93958749 114.599659,3.70316158 115.091357,3.77071184 C115.615836,3.8382621 116.729442,3.5005108 118.499558,2.75745793 C120.204113,2.04818019 121.908669,1.84552941 123.646004,2.08195532 C124.989981,2.55480715 126.300267,4.31111392 127.578684,7.31710052 C127.775363,7.65391363 127.250885,7.89033954 126.070808,8.09392852 C124.858861,8.2956411 123.743434,8.33035443 122.760947,8.16054058 C121.54809,7.958828 121.41697,7.72240208 122.465928,7.41748771 C123.678784,6.94557409 124.367163,6.37139687 124.595711,5.69589427 C124.727742,4.6150901 124.137703,3.70316158 122.859287,2.99388384 C122.629827,2.96010871 121.974229,3.19653462 120.958051,3.63561132 C120.695812,3.73693671 120.466353,3.8382621 120.269673,3.90581236 C120.204113,4.04091288 120.138554,4.14223827 120.105774,4.20978853 C119.810754,4.54753984 119.614075,5.05416679 119.614075,5.79721966 C119.548515,5.83099479 119.548515,5.86476992 119.614075,5.89854505 C119.941874,5.83099479 120.236893,5.76344453 120.630252,5.66211914 C121.51531,5.35814296 121.974229,5.32436783 122.039789,5.52701862 C122.039789,5.76344453 122.039789,6.0674207 122.105348,6.43894713 C122.105348,6.8442487 121.875889,7.11444974 121.41697,7.24955026 C120.859712,7.48597617 120.204113,7.68862695 119.515735,7.82372748 C119.450175,8.22902904 119.417395,8.66716754 119.450175,9.0734073 C120.466353,8.80226806 121.154731,8.70188086 121.51531,8.76849293 C122.990406,8.90359345 123.972893,9.27511988 124.464592,9.95062249 C124.530152,10.1532733 124.399943,10.4234743 124.104013,10.7274505 C123.743434,11.0652018 123.219866,12.5513075 122.661696,15.1172792 C122.597047,15.4221936 122.498707,15.590131 122.432237,15.6586195 C122.236468,15.7599449 121.810329,15.7599449 121.253071,15.6914564 C120.859712,15.6914564 120.204113,15.7599449 119.384616,15.8950454 L119.384616,16.8745242 C120.400793,16.7047103 121.38419,16.5696098 122.432237,16.4682844 C123.449325,16.366959 124.039363,16.2665719 124.300692,16.1314713 C124.498282,16.096758 124.661271,16.2318585 124.825171,16.5696098 C124.956291,16.9073611 125.15297,17.143787 125.415209,17.2788876 C125.579109,17.4139881 125.677449,17.8192897 125.710229,18.5285674 C125.710229,19.2378451 125.480769,19.474271 125.12019,19.20407 L125.12019,19.20407 Z M110.698849,7.04596128 C111.354447,6.27007148 112.141165,5.45946835 113.091783,4.6150901 C113.222902,4.51376471 113.321242,4.47998958 113.386802,4.54753984 C113.452362,4.6150901 113.452362,4.71641549 113.419582,4.81774088 C113.059003,6.20252122 112.895103,7.31710052 112.993443,8.09392852 C113.091783,8.90359345 112.960663,9.24134475 112.534524,9.14001936 C112.075605,9.10624423 111.551127,8.80226806 110.961088,8.26186597 C110.37105,7.75617722 110.175281,7.48597617 110.33827,7.38465078 C110.436609,7.31710052 110.567729,7.21577513 110.698849,7.04596128 L110.698849,7.04596128 Z M105.422193,9.91684736 C105.028834,8.56678034 104.996054,7.48597617 105.323853,6.64159792 C105.979452,5.39191809 106.56949,5.12171705 107.159528,5.79721966 C107.290648,5.96609531 107.454548,6.30384661 107.684007,6.91179896 C107.880687,7.5197513 108.142926,8.02544006 108.536285,8.46545495 C108.864084,8.93830678 109.093543,9.34267014 109.323003,9.74797171 C109.454123,9.95062249 109.355783,10.2208235 109.059853,10.4910246 C108.765744,10.8287759 108.274046,10.9301013 107.684007,10.7274505 C107.061189,10.5585748 106.50393,10.4910246 106.143351,10.4234743 C105.684432,10.3559241 105.422193,10.1870484 105.422193,9.91684736 L105.422193,9.91684736 Z M107.093969,20.7915011 C105.749992,18.8325436 105.028834,16.9073611 104.996054,15.016892 C104.996054,14.7457528 104.930494,14.5093269 104.832155,14.1725138 C104.635475,13.8685376 104.668255,13.6658868 104.930494,13.5645614 C105.127174,13.4970112 105.323853,13.4294609 105.586093,13.3281355 C105.782772,13.2943604 106.012231,13.3619106 106.307251,13.6321117 C106.56949,13.9023127 107.061189,14.2062889 107.782347,14.4764899 C108.437945,14.7457528 108.470725,15.2186046 107.913467,15.826557 C107.093969,16.8398109 107.061189,17.8530648 107.815127,18.9000938 C108.536285,19.9133477 108.995204,20.6564006 109.323003,21.1968027 C109.454123,21.6021042 109.585242,21.9060804 109.781011,22.1753433 C109.781011,22.2438317 109.814702,22.3104438 109.879351,22.3789322 C110.07603,22.4127074 110.27271,22.4455443 110.469389,22.5140328 C111.321667,22.8170707 112.272285,23.08821 113.386802,23.2570856 C114.0424,23.5263485 115.320817,23.9992003 117.287612,24.6409278 C119.220716,25.3164304 121.285851,25.7217319 123.449325,25.8230573 C125.546329,25.9243827 128.135942,26.3972345 131.118914,27.3429382 C131.512273,27.4442636 131.544143,27.6469144 131.250034,27.8833403 C129.840498,28.3899672 128.660421,28.7952688 127.775363,28.9641445 C126.791966,29.2005704 125.546329,29.3018958 124.039363,29.2671824 C122.531487,29.2343455 121.35141,29.2005704 120.663032,29.1667952 C119.941874,29.1330201 119.450175,28.7614937 119.122376,27.9846657 C118.237319,26.4647848 116.828693,25.6879568 114.960238,25.5528563 C113.616261,25.5528563 112.436184,25.3839806 111.485567,25.0124542 C110.436609,24.6747029 109.257443,24.5058273 107.978116,24.3707267 C106.63505,24.2694013 105.553313,24.5743157 104.766595,25.2826552 C104.307676,25.8568325 103.750417,25.6541817 103.160379,24.708478 C102.504781,23.7965495 102.406441,23.2233105 102.89814,23.0534966 C103.357058,22.8170707 104.504355,22.581583 106.40559,22.3789322 C106.930069,22.3104438 107.421768,22.2776069 107.847907,22.2438317 C107.847907,22.1753433 107.847907,22.1425063 107.913467,22.1087312 C108.044586,21.8385302 107.749567,21.4332286 107.093969,20.7915011 L107.093969,20.7915011 Z" id="Fill-9" fill="#000000"></path>
                                <path d="M153.349532,10.4235681 C153.578992,8.76858675 153.480652,7.68778258 153.087293,7.18115562 C152.890613,7.11454356 152.595594,7.18115562 152.202235,7.35096947 C151.972776,8.76858675 151.677756,9.95071631 151.415517,10.8626448 C151.939996,11.1328459 152.497254,11.3692718 153.185633,11.5381474 C153.185633,11.166621 153.218412,10.7950946 153.349532,10.4235681 M141.713573,19.6094654 C141.844693,19.6094654 143.516468,19.2717141 146.7289,18.5962115 C146.925579,18.0558094 147.089479,17.5154073 147.220599,16.907455 C147.286158,16.5359285 147.712297,16.5359285 148.530885,16.8736798 C149.317603,17.2452063 149.612622,17.5154073 149.481502,17.6167327 C149.350383,17.6842829 149.252043,17.8531586 149.186483,18.0895845 C151.087718,17.7518332 152.431695,17.7180581 153.283972,17.9882591 C153.972351,18.3260104 154.693509,18.7988622 155.414667,19.3392643 C156.135825,19.9134415 156.167694,20.3525182 155.644126,20.6227193 C155.380976,20.9266955 154.889278,21.9061742 154.20181,23.5949308 C153.480652,25.3165242 152.825054,26.7688548 152.202235,27.9172092 C151.776096,28.626487 151.382737,29.2344393 151.054938,29.7410663 C150.661579,30.2139181 150.39934,30.3480804 150.23544,30.1454296 C150.038761,29.9437171 149.645402,29.6059657 149.154614,29.1331139 C148.433455,28.7953626 147.253379,27.6807833 145.614383,25.6542755 C145.286584,25.1138734 145.319364,24.9787729 145.745502,25.2151988 C147.351718,26.4648786 148.695695,26.9715056 149.809301,26.7013045 C150.071541,26.6337543 150.563239,25.8907014 151.251618,24.3708206 C151.907216,22.9184899 152.202235,21.6359732 152.267795,20.4876188 C151.907216,19.4405897 150.596019,19.1703887 148.335116,19.6432405 C148.268645,19.8121162 148.203996,19.9809918 148.137526,20.1160923 C147.450058,21.5346478 146.499441,22.7167774 145.286584,23.6953179 C144.073727,24.6747967 143.483688,25.4516247 143.516468,25.9244765 C143.516468,26.3973284 143.352569,26.7350797 143.057549,26.8701802 C141.648013,27.6470082 140.632746,28.11986 140.042708,28.3225108 C139.41989,28.5589367 138.403712,28.6593239 137.125295,28.5927118 C136.568037,28.5589367 136.535257,28.3562859 137.059736,27.9847595 C139.583789,26.5999792 141.452244,25.3502993 142.76253,24.1681698 C144.106507,22.9522651 145.188244,21.6697483 145.974962,20.3525182 C145.516043,20.4538436 145.122684,20.6227193 144.729325,20.7915949 C143.254229,21.331997 142.369171,21.7025853 142.106932,21.838624 C141.779133,22.0741117 141.583364,22.0412748 141.516893,21.7372986 C141.385774,21.4333224 141.222785,20.9942457 141.091665,20.3862934 C140.894075,19.8458913 141.091665,19.5756902 141.713573,19.6094654 M157.77391,9.68051526 C159.249006,11.3354966 160.166844,13.2606791 160.461863,15.3885123 C160.592983,16.3332777 160.724102,17.0097185 160.888002,17.3803068 C161.019122,17.7518332 160.953562,18.0895845 160.756882,18.3260104 C159.216226,18.6975369 157.77391,18.6299866 156.462713,18.1233596 C154.758158,17.447857 153.677331,16.3670529 153.382312,14.9494356 C153.185633,14.3077081 153.087293,13.6322055 153.152853,12.9229278 C152.759494,12.9229278 152.235015,12.9567029 151.644977,13.0242532 C151.251618,13.0580283 150.923818,13.0580283 150.661579,12.990478 C150.49768,13.6322055 150.4649,14.0375071 150.628799,14.1378943 C150.727139,14.273933 150.33378,14.7458466 149.384073,15.5236128 C148.498105,16.2319523 147.712297,16.6034788 146.991139,16.6034788 C146.925579,16.9412301 146.69612,17.0425555 146.368321,16.907455 C145.024344,17.177656 143.614808,17.5491824 142.139712,17.954484 C140.468847,18.5286612 139.551009,18.9001876 139.38711,19.0352882 C138.731511,19.50814 138.370932,19.6094654 138.305372,19.2717141 C138.174253,18.9677379 137.977573,18.6299866 137.715334,18.2922353 C137.453095,17.954484 137.420315,17.7856083 137.682554,17.7180581 C137.879234,17.6842829 138.108693,17.6167327 138.403712,17.5491824 C139.25599,17.2789814 140.468847,16.8736798 142.139712,16.4017662 C142.205272,16.3670529 142.303611,16.3332777 142.467511,16.2666657 C142.467511,16.1981772 142.467511,16.130627 142.500291,16.0302398 L142.500291,15.0169859 C141.484114,15.353799 140.926855,15.5902249 140.862206,15.6915503 C140.468847,15.9955264 140.108268,15.8266508 139.813248,15.1520864 C139.714909,14.9822725 139.649349,14.8481102 139.682129,14.7458466 C139.551009,14.8481102 139.41989,14.9494356 139.32155,14.9822725 C137.780894,15.320962 137.190855,15.320962 137.616994,14.9156605 C137.944793,14.5779092 138.567612,13.9361817 139.615658,13.0580283 C139.911588,12.5176262 140.173828,12.0785495 140.370507,11.7070231 C138.502052,12.3149754 137.453095,12.7540521 137.223635,12.9567029 C136.666377,13.3957796 136.305798,13.497105 136.207458,13.1931288 C136.076338,12.8891526 135.879659,12.5514013 135.650199,12.21365 C135.42074,11.9096739 135.38796,11.7407982 135.617419,11.7070231 C135.814099,11.673248 136.043558,11.6056977 136.338578,11.5381474 C137.485875,11.1328459 139.15765,10.5924438 141.385774,9.91694118 C141.648013,9.81561579 142.008592,9.68051526 142.467511,9.54541474 C142.402862,9.03878779 142.369171,8.53216083 142.369171,8.02553388 C141.091665,8.36422338 140.272167,8.70197468 139.976237,9.03878779 C139.780469,9.34276396 139.485449,9.00501266 139.09209,7.92420849 C138.633172,6.91189278 138.567612,6.40526582 138.895411,6.47281608 C139.026531,6.50659121 140.141048,6.2701653 142.336391,5.69598809 C142.270832,2.5886761 142.402862,0.967469844 142.72975,0.79953239 C142.99199,0.731043931 143.549248,0.933694713 144.434306,1.37370961 C145.253804,1.84562323 145.516043,2.11676247 145.221024,2.21714966 C144.794885,2.48735071 144.532646,3.46682949 144.467086,5.08803574 C144.794885,5.02048548 145.188244,4.91916009 145.647163,4.8178347 C146.79446,4.41253313 147.384498,4.34498287 147.450058,4.61518392 C147.450058,4.85160983 147.482838,5.25691139 147.547487,5.72976322 C147.547487,6.23639017 147.253379,6.54036634 146.7289,6.74301713 C146.040522,7.0460551 145.253804,7.31625614 144.467086,7.55268206 L144.467086,8.97123753 C145.286584,8.73481162 146.237201,8.46554877 147.318028,8.12779747 C147.515618,7.99269695 147.712297,8.33044825 147.908066,9.10633805 C148.006406,9.91694118 147.810637,10.2209173 147.220599,9.98449144 C146.76168,10.0520417 146.368321,10.1533671 146.007742,10.2209173 C146.073302,10.7275443 146.171641,10.9977453 146.335541,10.9977453 C146.53222,11.2003961 146.957449,11.2679464 147.712297,11.166621 C148.072876,11.166621 148.268645,11.3354966 148.335116,11.673248 C148.335116,11.9772241 148.137526,12.3149754 147.843417,12.6189516 C147.450058,12.9229278 146.925579,12.990478 146.302761,12.8216024 C145.909402,12.720277 145.614383,12.5514013 145.450483,12.3487506 C145.253804,12.2474252 145.122684,11.9096739 144.991564,11.2341713 C144.860445,10.9301951 144.762105,10.6937692 144.696545,10.5248935 C143.975387,10.659994 143.287009,10.8288697 142.631411,11.0315205 C142.402862,11.3017215 142.205272,11.5719226 142.074152,11.7745733 C141.681704,12.21365 141.222785,12.8553775 140.763866,13.5646552 C140.501627,13.8348563 140.272167,14.1050573 140.108268,14.3077081 L140.141048,14.3077081 C140.272167,14.3077081 141.057975,14.1378943 142.467511,13.7335309 L142.467511,12.7878273 C142.172492,12.0109993 142.467511,11.7745733 143.483688,12.0109993 C144.434306,12.2812003 144.794885,12.6189516 144.598205,12.9567029 C144.532646,12.990478 144.499866,13.0918034 144.499866,13.2944542 C144.499866,13.2944542 144.532646,13.2944542 144.598205,13.2606791 C145.614383,12.8553775 146.106082,12.8553775 146.106082,13.1931288 C146.040522,13.5646552 146.040522,13.8686314 146.106082,14.0712822 C146.106082,14.3077081 145.745502,14.3743202 145.057124,14.3077081 C144.794885,14.3743202 144.565426,14.4428086 144.434306,14.4765838 L144.434306,14.7458466 C144.368746,15.1520864 144.368746,15.4888995 144.434306,15.7253254 C145.024344,15.5573879 145.679943,15.353799 146.466661,15.1520864 C146.565,15.0169859 146.7289,15.2871869 146.925579,15.9289144 C147.908066,15.117373 148.760344,14.1050573 149.515193,12.8553775 C149.515193,12.7878273 149.515193,12.720277 149.579842,12.6527267 C149.448722,12.6527267 149.384073,12.6527267 149.384073,12.5851765 C149.219263,12.6527267 149.023494,12.2812003 148.891464,11.5043723 C148.695695,10.7275443 148.727564,10.2209173 148.989803,9.91694118 C149.186483,9.64674013 149.350383,9.68051526 149.612622,9.95071631 C149.744652,10.0520417 149.940421,10.1533671 150.20266,10.2884676 C150.26822,9.64674013 150.36656,8.9384006 150.563239,8.12779747 C150.23544,8.29573492 149.940421,8.46554877 149.678182,8.63348622 C149.317603,9.03878779 148.989803,8.86991214 148.727564,8.12779747 C148.399765,7.41758153 148.465325,7.0460551 148.925154,7.01321817 C149.055363,6.97944304 149.547062,6.74301713 150.4649,6.2701653 C150.596019,6.23639017 150.694359,6.16883991 150.825479,6.06751452 C151.153278,3.66948027 151.284398,2.1495994 151.218838,1.4740968 C151.087718,0.933694713 151.448297,0.832369322 152.267795,1.13728369 C153.054513,1.4740968 153.349532,1.77807297 153.218412,1.98072375 C153.021733,2.1495994 152.792274,3.29795383 152.530034,5.29068652 C152.595594,5.25691139 152.693934,5.22313626 152.857833,5.18936113 C153.546212,4.91916009 154.365709,4.85160983 155.316327,4.95293522 C156.266945,5.08803574 156.725863,5.29068652 156.725863,5.4933373 C156.725863,5.69598809 156.462713,6.20261504 156.004705,6.91189278 C155.479316,7.65400745 155.020397,9.10633805 154.726289,11.2003961 C154.33293,13.3282293 154.464049,14.8809471 155.151517,15.8604259 C155.479316,16.1653403 156.004705,16.2995026 156.692173,16.1653403 C157.413331,16.0968518 157.77391,15.9289144 157.90503,15.7253254 C158.036149,15.5236128 158.134489,14.9494356 158.200049,14.0037319 C158.265609,13.0918034 157.93781,11.7407982 157.249431,9.91694118 C156.987192,9.47786448 156.921632,9.20766344 157.086442,9.10633805 C157.151092,9.07350112 157.380551,9.24143857 157.77391,9.68051526" id="Fill-11" fill="#000000"></path>
                            </g>
                        </g>
                    </g>
                </g>
            </g>
        </g>
    </g>
</svg>