<?xml version="1.0" encoding="UTF-8"?>
<svg width="220px" height="184px" viewBox="0 0 220 184" version="1.1" xmlns="http://www.w3.org/2000/svg" xmlns:xlink="http://www.w3.org/1999/xlink">
    <!-- Generator: Sketch 41.1 (35376) - http://www.bohemiancoding.com/sketch -->
    <title>gmae_ckicken</title>
    <desc>Created with Sketch.</desc>
    <defs>
        <polygon id="path-1" points="0.22006875 34.7860697 31.5254105 34.7860697 31.5254105 0.643224705 0.22006875 0.643224705 0.22006875 34.7860697"></polygon>
        <polygon id="path-3" points="3.72694497e-20 0.00187444812 3.72694497e-20 46.5185675 78.1817938 46.5185675 78.1817938 0.00187444812 0 0.00187444812"></polygon>
        <polygon id="path-5" points="94.3020833 35.0735124 94.3020833 0.463173391 0.262335901 0.463173391 0.262335901 35.0735124 94.3020833 35.0735124"></polygon>
    </defs>
    <g id="Page-1" stroke="none" stroke-width="1" fill="none" fill-rule="evenodd">
        <g id="Artboard-2" transform="translate(-434.000000, -203.000000)">
            <g id="gmae_ckicken" transform="translate(434.000000, 203.000000)">
                <g id="Group-63" transform="translate(0.000000, 34.988378)">
                    <path d="M217.537467,87.6400239 C217.537467,87.6400239 209.5478,84.8360836 199.182133,83.0592478 C188.81555,81.2814965 177.509383,90.6343721 166.204133,89.6191682 C139.773883,82.8340537 154.898883,110.879865 154.898883,110.879865 C154.898883,110.879865 160.9388,100.810213 182.923217,101.267924 C214.634383,104.62478 217.537467,87.6400239 217.537467,87.6400239" id="Fill-1" fill="#E5001F"></path>
                    <path d="M44.8693667,118.834157 C44.1626167,119.452068 43.7602,120.281441 43.8692833,120.89752 C43.9875333,121.561202 44.65395,122.104048 45.39645,122.517819 C45.9987,121.126376 46.2526167,119.577481 46.1233667,118.066117 C45.6687,118.259272 45.2387833,118.511928 44.8693667,118.834157" id="Fill-3" fill="#FFF125"></path>
                    <path d="M54.1402583,116.117365 C54.4207583,115.499455 54.619675,114.836689 54.732425,114.159276 C53.5948417,112.778818 52.397675,111.620808 51.1418417,110.690738 C50.981425,111.922898 50.720175,113.242022 50.392925,114.358838 C51.710175,114.72043 52.942175,115.352072 54.1402583,116.117365" id="Fill-5" fill="#FFF125"></path>
                    <path d="M49.4208917,109.574472 C48.597725,109.117676 47.753475,108.749676 46.8853917,108.475049 C46.4765583,108.345059 46.084225,108.252601 45.7001417,108.178452 C45.924725,110.793815 45.3738083,112.888302 43.8658917,115.092641 C45.052975,114.427128 46.3903917,114.049974 47.7635583,114.017934 C48.0376417,114.012442 48.2998083,114.038989 48.5656417,114.057298 C48.9671417,112.760143 49.2898083,110.997954 49.4208917,109.574472" id="Fill-7" fill="#FFF125"></path>
                    <path d="M54.5655,120.920681 C54.0393333,120.516064 53.5269167,120.130671 53.0190833,119.771825 C53.0695,121.451626 52.7083333,123.134173 51.9594167,124.645536 C52.2885,124.727924 52.61575,124.810312 52.9494167,124.8927 C53.8156667,125.107825 54.692,125.332103 55.5701667,125.565536 C56.078,124.478929 56.2503333,123.250432 56.05325,122.065875 L54.5655,120.920681 Z" id="Fill-9" fill="#FFF125"></path>
                    <path d="M55.6908,117.184382 C56.0629667,117.457178 56.4342167,117.735467 56.80455,118.021079 L57.8926333,118.858691 C57.3316333,117.852641 56.74955,116.921656 56.1491333,116.052004 C56.0198833,116.441059 55.86405,116.817298 55.6908,117.184382" id="Fill-11" fill="#FFF125"></path>
                    <path d="M47.9317667,117.684111 C48.1316,119.565305 47.8281833,121.508748 47.0765167,123.247136 C48.0775167,123.594082 49.09135,123.892509 50.1271833,124.170798 C51.06035,122.480927 51.3912667,120.437703 51.03835,118.539116 C50.0080167,118.00634 48.9841,117.679534 47.9317667,117.684111" id="Fill-13" fill="#FFF125"></path>
                    <path d="M43.4240583,108.075741 C42.5165583,108.204816 41.6521417,108.569154 40.9233917,109.128478 C39.9508083,109.877294 39.3815583,110.949254 39.4723083,111.857353 C39.569475,112.818547 40.3376417,113.755025 41.8391417,114.751005 C43.5368083,112.554905 44.1170583,110.631602 43.8411417,108.046448 C43.7018083,108.055602 43.5578917,108.056517 43.4240583,108.075741" id="Fill-15" fill="#FFF125"></path>
                    <path d="M64.6166583,125.63996 L62.6504083,123.177473 C62.6504083,123.177473 65.079575,120.913632 65.3747417,120.668299 C64.689075,120.079682 63.998825,119.376637 63.4864083,118.778866 C63.0069917,119.19996 62.095825,119.828856 61.6787417,120.309453 L60.7382417,118.91801 C60.7382417,118.91801 60.9637417,119.679642 60.5054083,120.016517 C60.047075,120.353393 59.0781583,119.771184 59.0781583,119.771184 C59.0781583,119.771184 61.3294917,122.224517 60.4742417,123.312955 C60.399075,123.408159 60.330325,123.496955 60.2652417,123.580259 C59.796825,124.178945 58.9342417,124.284219 58.3319917,123.821015 L57.9689917,123.540896 C57.9121583,124.410547 57.7077417,125.268299 57.371325,126.071124 C58.639075,126.449194 59.904075,126.873035 61.1406583,127.398488 C61.1406583,127.398488 62.552325,126.587423 63.237075,126.175483 C63.726575,125.880716 64.1794083,125.714109 64.6166583,125.63996" id="Fill-17" fill="#FFF125"></path>
                    <path d="M67.5214833,119.055873 C66.8119833,118.496549 66.1199,117.928072 65.4479833,117.35044 C65.2802333,117.455713 65.1088167,117.554579 64.9438167,117.66443 C65.4864833,118.286002 66.2262333,119.011932 66.8523167,119.51633 C67.0714,119.357962 67.2987333,119.209664 67.5214833,119.055873" id="Fill-19" fill="#FFF125"></path>
                    <path d="M65.6151833,128.244521 C65.3759333,127.943347 65.1394333,127.663228 64.9047667,127.437118 C64.7040167,127.474651 64.4647667,127.573516 64.18335,127.743785 C63.41885,128.203327 62.7707667,128.862432 62.27485,129.613994 C62.4957667,130.349994 62.9476833,130.995367 63.5426,131.353298 C64.2282667,131.765238 65.14035,131.794531 65.76185,131.428362 C66.3311,131.090571 66.68035,130.341755 66.5401,129.759546 C66.42735,129.29085 66.0377667,128.776382 65.6151833,128.244521" id="Fill-21" fill="#FFF125"></path>
                    <path d="M65.761575,131.427904 C65.140075,131.794074 64.2279917,131.765696 63.5432417,131.35284 C62.9474083,130.994909 62.4954917,130.349536 62.2754917,129.614452 C62.7704917,128.861974 63.4194917,128.203785 64.183075,127.743327 C64.4644917,127.573974 64.7037417,127.475108 64.9044917,127.437576 C65.140075,127.66277 65.3756583,127.94289 65.6149083,128.244064 C66.0384083,128.775924 66.4279917,129.291307 66.5407417,129.759089 C66.680075,130.341298 66.3317417,131.090113 65.761575,131.427904 L65.761575,131.427904 Z M57.371325,126.07085 C57.7077417,125.268024 57.9121583,124.410273 57.9689917,123.540621 L58.3319917,123.819825 C58.9342417,124.283944 59.796825,124.178671 60.2652417,123.579984 C60.330325,123.496681 60.3999917,123.407885 60.4742417,123.312681 C61.3294917,122.224243 59.0781583,119.771825 59.0781583,119.771825 C59.0781583,119.771825 60.047075,120.353118 60.5054083,120.016243 C60.9637417,119.680283 60.7382417,118.917735 60.7382417,118.917735 L61.6787417,120.309178 C62.0949083,119.829497 63.0069917,119.199686 63.4864083,118.779506 C63.998825,119.376362 64.689075,120.079407 65.3747417,120.668024 C65.079575,120.914273 62.6504083,123.177198 62.6504083,123.177198 L64.6166583,125.639686 C64.1794083,125.713835 63.726575,125.880442 63.237075,126.175208 C62.552325,126.587148 61.1397417,127.398213 61.1397417,127.398213 C59.904075,126.87276 58.639075,126.448919 57.371325,126.07085 L57.371325,126.07085 Z M56.804825,118.020621 C56.433575,117.735009 56.062325,117.457636 55.691075,117.183924 C55.864325,116.817755 56.0201583,116.440601 56.1494083,116.051546 C56.7489083,116.921198 57.3319083,117.852183 57.8929083,118.859148 L56.804825,118.020621 Z M55.570075,125.565536 C54.6919083,125.332103 53.815575,125.107825 52.949325,124.8927 C52.6156583,124.810312 52.2884083,124.727924 51.959325,124.645536 C52.7082417,123.134173 53.0694083,121.451626 53.0199083,119.771825 C53.526825,120.130671 54.0392417,120.516064 54.5654083,120.920681 L56.0531583,122.065875 C56.2502417,123.250432 56.078825,124.478929 55.570075,125.565536 L55.570075,125.565536 Z M50.1269083,124.171347 C49.091075,123.893059 48.0772417,123.593715 47.0762417,123.24677 C47.828825,121.508382 48.131325,119.565855 47.9314917,117.683745 C48.9847417,117.679168 50.0077417,118.005974 51.038075,118.53875 C51.3919083,120.437337 51.060075,122.480561 50.1269083,124.171347 L50.1269083,124.171347 Z M43.866075,115.092183 C45.3739917,112.88876 45.9249083,110.793357 45.700325,108.178909 C46.0844083,108.253059 46.475825,108.344601 46.885575,108.474591 C47.7527417,108.749218 48.5979083,109.117218 49.421075,109.574014 C49.2899917,110.997497 48.967325,112.759686 48.565825,114.057755 C48.2999917,114.039447 48.037825,114.0129 47.7637417,114.018392 C46.390575,114.049516 45.0531583,114.427586 43.866075,115.092183 L43.866075,115.092183 Z M45.3969083,122.518094 C44.6544083,122.104322 43.987075,121.561477 43.8697417,120.897795 C43.7606583,120.2808 44.1621583,119.451427 44.8689083,118.834432 C45.238325,118.512203 45.6682417,118.258631 46.123825,118.065477 C46.2521583,119.57684 45.9991583,121.126651 45.3969083,122.518094 L45.3969083,122.518094 Z M51.1416583,110.69083 C52.3974917,111.6209 53.595575,112.778909 54.7322417,114.159367 C54.6194917,114.83678 54.420575,115.499546 54.140075,116.117457 C52.9429083,115.352163 51.7099917,114.720521 50.3927417,114.358929 C50.7199917,113.242113 50.9812417,111.922989 51.1416583,110.69083 L51.1416583,110.69083 Z M65.448075,117.350531 C66.1199917,117.928163 66.812075,118.496641 67.521575,119.055964 C67.298825,119.209755 67.0714917,119.357138 66.8524083,119.516422 C66.226325,119.012024 65.486575,118.286094 64.9439083,117.664521 C65.1089083,117.554671 65.280325,117.45489 65.448075,117.350531 L65.448075,117.350531 Z M41.839325,114.75073 C40.337825,113.75475 39.5696583,112.818273 39.4724917,111.857079 C39.3817417,110.948979 39.9509917,109.877019 40.923575,109.129118 C41.652325,108.56888 42.5167417,108.204541 43.4242417,108.075467 C43.558075,108.056243 43.7019917,108.055327 43.8404083,108.046173 C44.1172417,110.631327 43.5369917,112.554631 41.839325,114.75073 L41.839325,114.75073 Z M68.4859083,125.967407 C68.0119917,125.369636 67.494075,124.759964 66.8267417,124.267467 C67.9991583,123.174452 68.5152417,122.467745 69.207325,121.576123 C69.8984917,120.684501 70.4374917,117.907108 68.269575,115.780581 C66.102575,113.653138 63.2269917,114.351606 62.651325,114.785516 C62.0756583,115.220342 61.2964917,115.786989 60.6804917,116.359128 C57.1861583,110.373178 52.927325,106.545795 47.9947417,104.984084 C46.1751583,104.406452 44.4637417,104.22886 42.906325,104.450392 C41.3736583,104.669178 39.9152417,105.283427 38.6859917,106.229059 C36.702325,107.755069 35.6059917,110.051865 35.825075,112.223248 C36.1284917,115.247805 38.6447417,117.160123 40.728325,118.377636 C40.2571583,119.401994 40.0756583,120.497755 40.2589917,121.534929 C40.6586583,123.79877 42.4929083,125.519765 45.7094917,126.651228 C47.812325,127.391805 49.9747417,127.927327 52.0656583,128.446372 C54.3747417,129.019427 56.568325,129.580581 58.669325,130.371506 C59.1047417,132.10074 60.1854917,133.609357 61.6521583,134.489994 C62.3332417,134.899188 63.0812417,135.16283 63.844825,135.279089 C65.1529083,135.477735 66.5049917,135.244302 67.6324917,134.576959 C69.5794917,133.423526 70.6189917,131.037019 70.1047417,128.901337 C69.8169083,127.707626 69.146825,126.795865 68.4859083,125.967407 L68.4859083,125.967407 Z" id="Fill-23" fill="#000000"></path>
                    <path d="M126.556558,139.335053 C127.166142,140.049083 127.990225,140.461938 128.608975,140.361242 C129.275392,140.252306 129.828142,139.594117 130.252558,138.858117 C128.867475,138.237461 127.319225,137.963749 125.803975,138.072685 C125.990975,138.529481 126.239392,138.96156 126.556558,139.335053" id="Fill-25" fill="#FFF125"></path>
                    <path d="M123.960925,130.040947 C123.345842,129.753504 122.684925,129.544788 122.009342,129.423952 C120.610508,130.540768 119.435342,131.720748 118.486592,132.962062 C119.719508,133.138738 121.035842,133.417942 122.149592,133.759395 C122.529092,132.449425 123.178092,131.22642 123.960925,130.040947" id="Fill-27" fill="#FFF125"></path>
                    <path d="M117.346442,134.665847 C116.878025,135.481489 116.497608,136.320016 116.211608,137.182344 C116.075942,137.589707 115.977858,137.980593 115.898108,138.362324 C118.519775,138.173747 120.610692,138.751379 122.796942,140.286543 C122.147025,139.091916 121.786775,137.752653 121.773942,136.380434 C121.771192,136.106722 121.802358,135.844911 121.823442,135.579439 C120.530025,135.162006 118.770025,134.815976 117.346442,134.665847" id="Fill-29" fill="#FFF125"></path>
                    <path d="M128.776083,129.681095 C128.363583,130.200139 127.97125,130.708199 127.604583,131.208935 C129.287583,131.181473 130.967833,131.56595 132.471167,132.333075 C132.557333,132.006269 132.644417,131.681294 132.7315,131.34808 C132.958833,130.485751 133.194417,129.614269 133.440083,128.74004 C132.358417,128.218249 131.131,128.029672 129.943,128.210925 L128.776083,129.681095 Z" id="Fill-31" fill="#FFF125"></path>
                    <path d="M125.050383,128.507339 C125.328133,128.139339 125.6123,127.772255 125.902883,127.406086 L126.7563,126.331379 C125.740633,126.877887 124.801967,127.44728 123.922883,128.034066 C124.310633,128.168633 124.68555,128.329747 125.050383,128.507339" id="Fill-33" fill="#FFF125"></path>
                    <path d="M125.446017,136.261612 C127.332517,136.087682 129.274017,136.416318 131.004683,137.190766 C131.364933,136.195701 131.678433,135.186905 131.971767,134.157055 C130.291517,133.202269 128.2501,132.844338 126.34435,133.171144 C125.796183,134.192756 125.455183,135.210706 125.446017,136.261612" id="Fill-35" fill="#FFF125"></path>
                    <path d="M115.7651,140.634038 C115.881517,141.542137 116.23535,142.409958 116.786267,143.145043 C117.52235,144.125461 118.587517,144.7095 119.497767,144.630774 C120.4621,144.546555 121.409933,143.791331 122.427433,142.3056 C120.252183,140.581859 118.332683,139.975849 115.741267,140.216605 C115.7486,140.356665 115.747683,140.500386 115.7651,140.634038" id="Fill-37" fill="#FFF125"></path>
                    <path d="M133.636525,119.70802 L131.144108,121.637731 C131.144108,121.637731 128.911108,119.181652 128.669108,118.885055 C128.069608,119.561552 127.356442,120.240796 126.751442,120.744279 C127.166692,121.229453 127.784525,122.147622 128.259358,122.569632 L126.854108,123.490547 C126.854108,123.490547 127.619525,123.275423 127.950442,123.737711 C128.281358,124.2 127.685525,125.159363 127.685525,125.159363 C127.685525,125.159363 130.171525,122.944955 131.250442,123.812776 C131.344858,123.888756 131.432858,123.959244 131.515358,124.025154 C132.108442,124.501174 132.202858,125.363502 131.729858,125.959443 L131.445692,126.318289 C132.315608,126.38603 133.170858,126.601154 133.970192,126.949015 C134.366192,125.687562 134.808025,124.430687 135.350692,123.202189 C135.350692,123.202189 134.557775,121.782368 134.153525,121.093055 C133.865692,120.599642 133.704358,120.145592 133.636525,119.70802" id="Fill-39" fill="#FFF125"></path>
                    <path d="M127.082908,116.719073 C126.513658,117.420287 125.935242,118.103192 125.347658,118.765958 C125.450325,118.935311 125.547492,119.108326 125.655658,119.274018 C126.284492,118.740326 127.021492,118.01165 127.535742,117.393739 C127.378992,117.172207 127.234158,116.943351 127.082908,116.719073" id="Fill-41" fill="#FFF125"></path>
                    <path d="M136.257642,118.745636 C135.952392,118.9809 135.669142,119.212501 135.439975,119.445019 C135.474808,119.645497 135.570142,119.885337 135.736975,120.169118 C136.187058,120.938074 136.837892,121.594432 137.584058,122.099745 C138.323808,121.889198 138.976475,121.446133 139.342225,120.856601 C139.764808,120.177357 139.806058,119.267427 139.446725,118.642193 C139.116725,118.069138 138.371475,117.710293 137.786642,117.842113 C137.316392,117.948302 136.795725,118.330034 136.257642,118.745636" id="Fill-43" fill="#FFF125"></path>
                    <g id="Group-47" transform="translate(111.833333, 113.512438)">
                        <mask id="mask-2" fill="white">
                            <use xlink:href="#path-1"></use>
                        </mask>
                        <g id="Clip-46"></g>
                        <path d="M27.61385,5.12993831 C27.9722667,5.75517214 27.9310167,6.66510249 27.5084333,7.34434627 C27.1426833,7.93387861 26.4900167,8.37602786 25.7511833,8.58657512 C25.0041,8.08217711 24.3541833,7.42581891 23.9031833,6.65594826 C23.7372667,6.37308259 23.6419333,6.13324179 23.6061833,5.93184876 C23.83535,5.70024677 24.1195167,5.46864478 24.4247667,5.23338109 C24.9619333,4.8177791 25.4835167,4.43604776 25.9537667,4.32985871 C26.5386,4.19712239 27.28385,4.55688358 27.61385,5.12993831 L27.61385,5.12993831 Z M22.1367667,13.4364856 C21.3374333,13.0886249 20.4821833,12.8735005 19.6122667,12.8057592 L19.89735,12.4469134 C20.3694333,11.8509731 20.2750167,10.9886448 19.6819333,10.5126249 C19.5994333,10.4467144 19.5114333,10.3762269 19.4179333,10.3002468 C18.3381,9.43242587 15.8521,11.6468338 15.8521,11.6468338 C15.8521,11.6468338 16.4479333,10.6874706 16.1170167,10.2251821 C15.7861,9.76380896 15.0206833,9.97801791 15.0206833,9.97801791 L16.4259333,9.05710249 C15.9511,8.63509254 15.3332667,7.71692338 14.9180167,7.23174925 C15.5239333,6.72826667 16.2361833,6.04902289 16.8356833,5.37252537 C17.0767667,5.66912239 19.3106833,8.12520199 19.3106833,8.12520199 L21.8031,6.19549055 C21.8709333,6.63306269 22.0322667,7.08711244 22.3210167,7.58052537 C22.72435,8.26983881 23.5172667,9.6896597 23.5172667,9.6896597 C22.9746,10.9181572 22.5327667,12.1750328 22.1367667,13.4364856 L22.1367667,13.4364856 Z M14.0691833,13.894197 C13.7786,14.2603662 13.49535,14.6274507 13.2166833,14.9945353 C12.85185,14.8169433 12.4769333,14.6558289 12.0891833,14.5212617 C12.96735,13.9344756 13.90785,13.3650826 14.9226,12.8185751 L14.0691833,13.894197 Z M21.6069333,15.2279682 C21.3612667,16.1012816 21.1256833,16.9736796 20.89835,17.8350925 C20.8112667,18.1683065 20.7241833,18.4932816 20.6371,18.821003 C19.1346833,18.0529632 17.4544333,17.669401 15.7714333,17.6968637 C16.1381,17.1952119 16.5304333,16.6880677 16.9429333,16.1690229 L18.10985,14.6988537 C19.29785,14.5166846 20.5252667,14.7052617 21.6069333,15.2279682 L21.6069333,15.2279682 Z M20.1375167,20.6445254 C19.8451,21.6743761 19.5316,22.6831721 19.17135,23.6782368 C17.4406833,22.9037891 15.4991833,22.5751522 13.6126833,22.7490826 C13.62185,21.6981771 13.96285,20.6802269 14.5110167,19.6586149 C16.4167667,19.331809 18.4581833,19.6897393 20.1375167,20.6445254 L20.1375167,20.6445254 Z M10.9635167,26.774197 C8.77726667,25.2390328 6.68635,24.6604856 4.0656,24.8499781 C4.14443333,24.4682468 4.24251667,24.0773612 4.37818333,23.669998 C4.66418333,22.8076697 5.0446,21.9691423 5.51301667,21.1535005 C6.9366,21.3027144 8.6966,21.6496597 9.99001667,22.0670925 C9.96801667,22.3325652 9.93776667,22.5943761 9.94051667,22.8671721 C9.95335,24.239391 10.3136,25.5795701 10.9635167,26.774197 L10.9635167,26.774197 Z M18.4196833,25.3461373 C17.9952667,26.0821373 17.4425167,26.7403264 16.7761,26.8492617 C16.15735,26.9499582 15.33235,26.5361871 14.7227667,25.8221572 C14.4056,25.4495801 14.1581,25.0175005 13.9711,24.5597891 C15.4854333,24.4517692 17.0336833,24.7254806 18.4196833,25.3461373 L18.4196833,25.3461373 Z M6.65335,19.4498985 C7.6021,18.2085851 8.77726667,17.028605 10.1751833,15.9117891 C10.8516833,16.0326249 11.5126,16.2404259 12.1276833,16.5287841 C11.34485,17.7142567 10.69585,18.9372617 10.31635,20.2472318 C9.2026,19.9057791 7.88626667,19.6265751 6.65335,19.4498985 L6.65335,19.4498985 Z M13.5146,5.2535204 C14.1021833,4.59075423 14.6806,3.90784876 15.24985,3.20663483 C15.4001833,3.43091343 15.5459333,3.65976915 15.7017667,3.88130149 C15.1884333,4.49921194 14.4514333,5.22788856 13.8226,5.7615801 C13.7135167,5.59588856 13.6172667,5.42287363 13.5146,5.2535204 L13.5146,5.2535204 Z M10.5941,28.7936199 C9.5766,30.2793512 8.62968333,31.0336597 7.66443333,31.1178786 C6.75418333,31.196605 5.68901667,30.6134806 4.95293333,29.6321473 C4.40201667,28.8970627 4.04818333,28.0292418 3.93176667,27.1211423 C3.91435,26.9874905 3.91526667,26.8437692 3.90793333,26.7046249 C6.49935,26.4629532 8.41885,27.0689632 10.5941,28.7936199 L10.5941,28.7936199 Z M22.1826,2.33606766 C21.5785167,2.80201791 20.9606833,3.31007761 20.45835,3.97009751 C19.38035,2.78462488 18.6791,2.25917214 17.7954333,1.55704279 C16.9126833,0.854913433 14.13885,0.279112438 11.9801,2.41479403 C9.82135,4.55047562 10.48135,7.43131144 10.9085167,8.01168955 C11.3366,8.59206766 11.8930167,9.37841592 12.4576833,10.0009035 C6.41685,13.4099383 2.52835,17.6117294 0.8976,22.5165652 C0.29535,24.3254408 0.0946,26.0317891 0.29535,27.5889234 C0.49335,29.1222567 1.08826667,30.5878488 2.01868333,31.8282468 C3.5211,33.8293612 5.80543333,34.9544159 7.9816,34.7658388 C11.0157667,34.502197 12.9636833,32.0159085 14.21035,29.9516299 C15.2296833,30.4358886 16.3241833,30.6327045 17.3655167,30.4624358 C19.6370167,30.0935204 21.3851,28.2846448 22.5621,25.0889035 C23.3321,22.998993 23.8967667,20.8468338 24.4440167,18.7660776 C25.0499333,16.4674507 25.6411833,14.2850826 26.4616,12.1979184 C28.1977667,11.7859781 29.7231,10.7277493 30.6241833,9.27497313 C31.0440167,8.60030647 31.3171833,7.85698308 31.4436833,7.09535124 C31.6609333,5.79178905 31.4455167,4.43970945 30.7919333,3.30458507 C29.6635167,1.34466468 27.2875167,0.2736199 25.1425167,0.759709453 C23.9435167,1.03067463 23.0222667,1.68703284 22.1826,2.33606766 L22.1826,2.33606766 Z" id="Fill-45" fill="#000000" mask="url(#mask-2)"></path>
                    </g>
                    <path d="M68.8727417,68.3303682 C68.4602417,68.4759204 68.1009083,68.6901294 67.859825,68.9345473 C66.7909917,70.0193234 64.7651583,70.8807363 63.2544917,71.4116816 C58.5794917,73.0557811 51.0719917,74.2467463 43.7129917,72.9642388 C39.8666583,73.5720796 36.4264083,70.4568955 33.0989083,67.4323383 C30.4919083,65.0623085 27.7969083,62.6126368 25.6564917,62.7188259 C24.7994083,62.7618507 23.967075,63.2424478 23.1136583,64.1899104 C20.7376583,66.8254129 20.4094917,70.0797413 22.2354917,72.8919204 C24.0349083,75.6656517 27.8702417,77.8086567 32.8266583,77.1651144 C33.721325,77.0488557 35.761825,76.7669055 36.215575,78.387204 C36.6684083,80.0075025 34.5169917,80.6290746 33.4564083,80.7782886 C26.8564083,81.7028657 21.6451583,78.7149254 19.1591583,74.8838806 C16.454075,70.7187065 16.8812417,65.7653532 20.2509083,61.9031841 C17.922575,60.8477015 15.802325,60.2206368 14.1431583,60.4760398 C13.118325,60.634408 12.1081583,60.8870647 11.1401583,61.227602 C7.45790833,62.52201 4.85090833,64.8645771 3.98649167,67.6566169 C3.124825,70.4376716 3.960825,73.5812338 6.46974167,77.0030846 L6.60999167,77.1934925 C8.40299167,79.7667463 16.663075,84.2532338 27.2019917,84.7905871 C27.949075,84.8281194 29.447825,85.444199 29.486325,86.8942289 C29.5239083,88.3433433 27.3871583,88.4779104 26.3614083,88.412 C17.3661583,87.8389453 9.90174167,84.7008756 5.93165833,81.6067463 C5.572325,84.3987861 6.41840833,87.0306269 8.462575,89.4610746 C9.733075,90.9724378 11.424325,92.3501493 13.4162417,93.5731542 C18.5009917,96.2626667 25.9434083,96.1683781 29.3414917,95.4287164 C30.0354083,95.2776716 31.1179917,95.2694328 31.7999917,96.4311045 C32.481075,97.5936915 31.141825,98.0651343 30.6981583,98.2207562 C30.0509917,98.4477811 29.2507417,98.6546667 28.356075,98.8313433 C34.197075,99.8218308 40.3919083,99.8657711 45.8992417,98.7022687 C48.5392417,98.1447761 51.1004083,97.4325771 53.510325,96.5848955 C67.0494917,91.8246965 75.2729083,83.1428259 74.4579917,74.4664478 C74.2242417,71.5846965 73.3534083,69.5890746 71.9362417,68.6709055 C71.0489083,68.0951045 69.903075,67.9678607 68.8727417,68.3303682" id="Fill-48" fill="#FFFFFF"></path>
                    <g id="Group-52" transform="translate(0.000000, 56.756219)">
                        <mask id="mask-4" fill="white">
                            <use xlink:href="#path-3"></use>
                        </mask>
                        <g id="Clip-51"></g>
                        <path d="M74.4582667,17.7098627 C75.2731833,26.3871562 67.0497667,35.0681114 53.5096833,39.8292259 C51.1006833,40.675992 48.5395167,41.388191 45.8995167,41.9456836 C40.3912667,43.1091861 34.19735,43.0652458 28.35635,42.0756736 C29.2510167,41.898997 30.0512667,41.6921114 30.6984333,41.4641711 C31.1421,41.3085493 32.48135,40.8380219 31.8002667,39.6754348 C31.1182667,38.5128478 30.0356833,38.5210866 29.3417667,38.6721313 C25.9436833,39.411793 18.5012667,39.5060816 13.4165167,36.8165692 C11.4246,35.5944796 9.73335,34.2158527 8.46285,32.705405 C6.41776667,30.2749572 5.5726,27.642201 5.93193333,24.8510766 C9.90201667,27.945206 17.3664333,31.0823602 26.3616833,31.6563303 C27.3865167,31.7213254 29.5241833,31.5876736 29.4856833,30.1376438 C29.4481,28.6876139 27.94935,28.0724498 27.2022667,28.034002 C16.66335,27.4966488 8.40235,23.0110766 6.61026667,20.4369075 L6.47001667,20.2464995 C3.96018333,16.8255642 3.1251,13.6810866 3.98676667,10.9000318 C4.85026667,8.10890746 7.45818333,5.76542488 11.1395167,4.47101692 C12.1075167,4.13139502 13.1186,3.87782289 14.1434333,3.72037015 C15.8026,3.46405174 17.92285,4.09203184 20.2511833,5.14751443 C16.8815167,9.00876816 16.45435,13.9630368 19.1585167,18.1282109 C21.6454333,21.9583403 26.8557667,24.9462806 33.4566833,24.0217035 C34.5172667,23.8724896 36.6677667,23.2509174 36.2149333,21.6306189 C35.7621,20.0103204 33.7216,20.2922706 32.8260167,20.4085294 C27.8705167,21.0520716 24.0351833,18.9090667 22.23485,16.1362507 C20.4097667,13.3231562 20.7370167,10.0697433 23.1139333,7.43332537 C23.96735,6.48677811 24.7996833,6.00526567 25.6567667,5.9622408 C27.7971833,5.85605174 30.4921833,8.30572338 33.0982667,10.6757532 C36.4266833,13.7012259 39.8669333,16.8154945 43.7132667,16.2076537 C51.07135,17.4901612 58.5797667,16.299196 63.25385,14.6560119 C64.7654333,14.1241512 66.7912667,13.2636537 67.8591833,12.1788776 C68.1002667,11.9335443 68.4605167,11.7193353 68.8730167,11.5737831 C69.90335,11.212191 71.0491833,11.3394348 71.9365167,11.9143204 C73.3527667,12.8324896 74.2245167,14.8290269 74.4582667,17.7098627 M73.9330167,8.84307662 C72.09785,7.65394229 69.7511833,7.38389254 67.6556833,8.11989254 C66.7124333,8.45127562 65.8791833,8.96665871 65.2457667,9.610201 C64.98635,9.87292736 64.0192667,10.5045692 62.0365167,11.2021214 C57.0562667,12.9533254 48.53035,14.1580219 40.8899333,11.7898229 C40.4627667,11.6570866 40.02735,11.5023801 39.5864333,11.3339423 C38.2866,10.4386587 36.9152667,9.19368358 35.56685,7.96793234 C32.4052667,5.0944199 29.13735,2.12387264 25.4734333,2.30512637 C24.8317667,2.33716617 24.2084333,2.47264876 23.6034333,2.69784279 C19.9890167,0.845942289 16.5964333,-0.363331343 13.58335,0.101703483 C12.3357667,0.293942289 11.1037667,0.602439801 9.92218333,1.01712637 C5.13443333,2.70058905 1.69418333,5.90823085 0.483266667,9.81800199 C-0.316066667,12.3976637 -0.497566667,16.4877731 2.93993333,21.5967483 C1.33668333,26.3944796 2.26618333,31.0310965 5.6551,35.0607881 C6.41685,35.9661413 7.3381,36.8467781 8.38493333,37.6935443 L8.36751667,37.7127682 C9.65268333,38.9293652 11.1349333,39.8630965 12.7134333,40.5817035 C21.34385,45.3812657 34.4705167,48.1019025 46.6585167,45.5277333 C49.4534333,44.9372856 52.1686,44.1820617 54.7279333,43.2831164 L54.72885,43.282201 C69.9079333,37.9452856 79.0856,27.7731065 78.1111833,17.3912955 C77.69685,12.2951363 75.6105167,9.92968358 73.9330167,8.84307662" id="Fill-50" fill="#231814" mask="url(#mask-4)"></path>
                    </g>
                    <path d="M70.4174167,71.9759483 C70.33125,71.9677095 70.246,71.973202 70.16075,71.990595 C69.9985,72.0253811 69.8454167,72.103192 69.70425,72.2130428 L71.3955,75.2458388 C71.566,74.9565652 71.6668333,74.6077891 71.6136667,74.2031721 C71.4376667,72.8556697 70.8115833,72.1892418 70.4174167,71.9759483" id="Fill-53" fill="#9E9E9F"></path>
                    <path d="M69.1636917,72.9440995 C69.052775,73.1912637 68.9721083,73.4686368 68.937275,73.7707264 C68.8098583,74.8738109 69.3103583,75.9219701 70.029025,76.0592836 C70.243525,76.0995622 70.524025,76.0254129 70.7916917,75.8633831 L69.1636917,72.9440995 Z" id="Fill-55" fill="#9E9E9F"></path>
                    <path d="M71.61385,74.2032637 C71.6670167,74.6078806 71.5661833,74.9566567 71.3956833,75.2459303 L69.7044333,72.2131343 C69.8456,72.1032836 69.9986833,72.0254726 70.1609333,71.9906866 C70.2452667,71.9723781 70.3314333,71.967801 70.4176,71.9760398 C70.8117667,72.1893333 71.43785,72.8557612 71.61385,74.2032637 M70.0289333,76.0588259 C69.3102667,75.9224279 68.8097667,74.8733532 68.9371833,73.7702687 C68.9720167,73.4690945 69.0536,73.190806 69.1636,72.9445572 L70.7916,75.8629254 C70.52485,76.0249552 70.2434333,76.1000199 70.0289333,76.0588259 M70.8704333,70.2413134 L70.7081833,70.1909652 C70.3992667,70.1323781 70.0866833,70.1351244 69.7805167,70.199204 C68.4926,70.472 67.4961833,71.7810547 67.30185,73.4590249 C67.0580167,75.5718209 68.1882667,77.5445572 69.8226833,77.8548856 C70.1206,77.9125572 70.4304333,77.9070647 70.7457667,77.8402388 C72.1482667,77.5445572 73.5021833,76.0011542 73.2446,74.0229254 C72.96135,71.8579502 71.7880167,70.632199 70.8704333,70.2413134" id="Fill-57" fill="#000000"></path>
                    <path d="M130.239267,2.72118607 C128.73135,2.14080796 127.200517,1.61993234 125.6321,1.2024995 C124.341433,0.861046766 123.03335,0.692608955 121.695933,0.692608955 C117.179517,0.692608955 112.983017,2.54450945 109.612433,4.03207164 C107.243767,5.07656915 105.37285,5.9022806 103.798017,5.9022806 C103.633933,5.9022806 103.47535,5.89312637 103.3241,5.87664876 C100.663933,5.57730547 99.0322667,3.50844975 98.1495167,1.49085771 C73.1831833,7.91529552 49.7119333,29.6849672 43.0404333,54.7318527 C38.6092667,71.3687483 39.8036833,85.5056239 46.5897667,96.7497632 C53.31535,107.892291 65.28335,115.81436 82.1619333,120.298101 C91.0251833,122.652569 100.371517,123.897544 109.18985,123.897544 C151.213517,123.89846 162.255683,99.4740617 165.05335,88.9732458 C169.512933,72.2292458 168.079267,52.2766886 161.21985,35.6013453 C158.567933,29.1549373 155.24135,23.4692458 151.3666,18.6138428 C150.616767,17.7533453 141.363933,7.32850945 130.239267,2.72118607" id="Fill-59" fill="#FFFFFF"></path>
                    <path d="M158.050383,94.0315065 C154.127967,99.4480637 148.429967,103.246153 141.3643,101.017099 C135.799217,99.260402 132.2783,94.9487602 131.038967,89.6548697 C126.825967,94.9203821 120.746633,97.2217552 113.9083,95.8266507 C110.3553,95.1016358 106.770217,93.6159045 104.183383,91.0133572 C102.018217,88.8337353 101.5223,86.4069493 100.601967,83.9160836 C95.8893833,89.0918846 89.78805,92.0944716 82.8653833,88.9417552 C76.92905,86.2394269 74.6997167,81.0160239 73.7408833,75.1335164 C71.8534667,77.7397254 70.3776333,80.7221731 67.2527167,82.0367204 C64.0544667,83.3833075 60.1467167,83.0656557 57.0493,81.6009791 C51.7729667,79.1064517 49.9029667,73.7814368 50.38055,68.4664915 C48.1658833,71.7327204 44.0253,72.9062925 40.4328833,72.2243025 C40.2733833,81.4755662 42.3258,89.6841632 46.5901333,96.749397 C53.3148,107.891924 65.2828,115.814909 82.1613833,120.298651 C91.0246333,122.653118 100.370967,123.897178 109.190217,123.897178 C140.619967,123.898094 154.717383,110.237238 160.9993,98.9555662 C159.633467,97.5833473 158.670967,95.8843224 158.050383,94.0315065" id="Fill-61" fill="#0773B7"></path>
                </g>
                <g id="Page-1" transform="translate(97.000000, 1.000000)">
                    <path d="M63.0650182,42.0818073 C61.6948364,35.3536982 56.5884121,35.0125709 55.5789576,35.0125709 L52.4710788,35.0125709 L53.7200485,31.7747527 C53.8538667,31.43748 56.3149576,25.07748 53.3321697,19.3313164 C52.1830788,26.0237709 49.5144727,32.5254255 46.5025939,38.1732982 C46.3309576,38.4941891 44.9142303,40.0205891 44.6824727,40.2605345 C49.3573818,43.9059709 54.7576242,47.0956073 58.4463515,52.1720436 C60.4875636,50.75068 64.1462303,47.3895164 63.0650182,42.0818073" id="Fill-1" fill="#009BDE"></path>
                    <path d="M4.10482424,37.3667345 L4.11064242,37.3667345 C5.04349091,37.3667345 6.97415758,36.46188 8.84179394,35.5859345 C12.6051879,33.82248 17.760097,31.4066436 23.4609455,31.4066436 C25.2558545,31.4066436 27.0187636,31.64948 28.7021576,32.1274436 C30.5436121,32.5957709 32.3491879,33.2491164 34.1111273,34.0161709 C39.328097,36.1515891 43.4822788,38.60308 47.7925818,42.2350255 C50.4233697,38.8478436 51.500703,36.3587709 51.500703,36.3587709 L52.7506424,33.3743891 C52.9242182,32.9725527 56.9785212,23.3246255 48.1930667,17.5823164 C46.8257939,16.7844255 45.3014303,16.35368 43.7421576,16.35368 C39.5976727,16.35368 35.9700364,19.3207164 34.2265212,20.7468982 C33.2451879,21.5496073 32.7516121,21.9533709 31.9438545,21.9533709 L31.0100364,21.9533709 L30.3913697,21.1747527 C29.728097,20.31808 29.8784,19.5163345 30.1751273,17.9176618 C30.7491879,14.8426982 32.0922182,7.64144364 28.8544,3.46118909 C26.8112485,0.822752727 23.0517333,-0.321083636 17.760097,0.0778618182 C11.9273697,0.811189091 7.44930909,3.38024364 4.54215758,7.70504364 C-1.93929697,17.3481527 1.12203636,32.7451345 1.15403636,32.8993164 C1.35088485,34.0508618 2.28082424,37.1479891 4.10482424,37.3667345" id="Fill-3" fill="#77BC1F"></path>
                    <path d="M30.8481939,19.6405473 C30.8656485,19.17222 30.9723152,18.6229473 31.1100121,17.9175655 C31.7092848,14.8426018 33.1124364,7.64134727 29.7291636,3.46109273 C27.5938909,0.822656364 23.6656485,-0.32118 18.1364364,0.0777654545 C12.0418909,0.811092727 7.36213333,3.38014727 4.32310303,7.70494727 C-2.44829091,17.3480564 0.750739394,32.7450382 0.783709091,32.89922 C0.989284848,34.0507655 1.96092121,37.1478927 3.86734545,37.3666382 L3.87316364,37.3666382 C4.84770909,37.3666382 6.86564848,36.4617836 8.81764848,35.5858382 C12.7488,33.8223836 18.1364364,31.4065473 24.0932848,31.4065473 C25.4993455,31.4065473 28.2368,31.8132018 28.2368,31.8132018 C28.2368,31.8132018 30.2043152,25.7952927 30.8481939,19.6405473" id="Fill-5" fill="#FF8300"></path>
                </g>
                <g id="Group-107" transform="translate(36.666667, 0.202308)">
                    <path d="M24.5751,131.162432 C22.9911,130.467626 21.4226833,129.736203 19.86985,128.969079 C19.7910167,129.151248 19.7176833,129.337079 19.6507667,129.523825 C19.5829333,129.713317 19.5224333,129.904641 19.4674333,130.097795 C21.1275167,130.93083 22.8059333,131.724501 24.5026833,132.476064 C24.4907667,132.032999 24.5155167,131.594511 24.5751,131.162432 M26.8099333,126.773895 C25.4972667,126.251188 24.1946833,125.703765 22.9031,125.13071 C22.55385,125.40076 22.2247667,125.688203 21.91585,125.993954 C23.2505167,126.605457 24.5961833,127.192243 25.9537667,127.749735 C26.2104333,127.400959 26.4955167,127.075984 26.8099333,126.773895 M24.8455167,129.943089 C24.9701833,129.54488 25.1232667,129.16681 25.3047667,128.807049 C23.8876,128.206531 22.4805167,127.577636 21.0871833,126.920362 C20.8415167,127.235268 20.6132667,127.56482 20.40885,127.912681 C21.8736833,128.621218 23.3531833,129.298631 24.8455167,129.943089 M24.6511833,133.894969 C22.8151,133.078412 20.9991833,132.212422 19.2061833,131.299745 C19.1411,131.719924 19.1044333,132.147427 19.0934333,132.581337 C21.0560167,133.589218 23.0461,134.541258 25.0609333,135.436541 C24.8821833,134.922074 24.7456,134.405775 24.6511833,133.894969 M25.8016,137.133735 C23.54935,136.145079 21.3282667,135.084103 19.1420167,133.955387 C19.1887667,134.440561 19.26485,134.933059 19.3711833,135.429218 C21.8755167,136.72271 24.4229333,137.928322 27.0125167,139.039646 C26.54685,138.417158 26.1426,137.780024 25.8016,137.133735 M55.6281,140.397218 C55.6491833,140.154631 55.6611,139.908382 55.6656833,139.663049 C53.3886833,139.397576 51.1254333,139.057954 48.8796,138.645099 C48.6834333,138.112322 48.4469333,137.5887 48.1701,137.077895 C50.6295167,137.534691 53.1100167,137.905437 55.6079333,138.184641 C55.5575167,137.681158 55.4750167,137.184084 55.3650167,136.691586 C52.5966833,136.388581 49.8466833,135.97481 47.1232667,135.453019 C46.67685,134.856163 46.1754333,134.285855 45.6272667,133.74484 C48.6981,134.364581 51.80285,134.847009 54.93235,135.185715 C54.7499333,134.668501 54.5372667,134.163188 54.2961833,133.666113 C47.5504333,132.929198 40.9220167,131.517616 34.4870167,129.501855 C33.99935,131.623805 33.4951833,133.733855 32.97635,135.831089 C35.26985,136.632999 37.5890167,137.36076 39.9329333,138.01071 C39.4929333,140.259904 39.0364333,142.496283 38.5634333,144.72076 C32.0954333,142.702253 25.8281833,140.118014 19.8185167,137.023885 C20.0137667,137.600601 20.2502667,138.180979 20.5252667,138.759526 C23.9352667,140.497914 27.42685,142.073357 30.99085,143.4767 C30.87535,143.904203 30.75985,144.33079 30.6434333,144.757377 C27.5652667,143.523387 24.5430167,142.161238 21.58035,140.678253 C22.0405167,141.411506 22.5630167,142.136521 23.1441833,142.845974 C25.4899333,143.986591 27.8732667,145.052143 30.2905167,146.038969 C30.1722667,146.467387 30.0531,146.89489 29.9330167,147.321477 C28.4865167,146.720959 27.05285,146.092064 25.6311,145.43479 C27.7440167,147.325138 30.3317667,148.971984 33.2816,150.105278 C36.2589333,151.251387 39.2766,151.740223 42.0825167,151.616641 C41.3510167,151.402432 40.6222667,151.1809 39.8971833,150.952959 C40.9504333,150.869656 41.9541833,150.671009 42.8864333,150.37075 C43.80035,150.627984 44.7179333,150.874233 45.6391833,151.109497 C46.5375167,150.885218 47.3946,150.594113 48.2031,150.238014 C47.1241833,149.993596 46.04985,149.734531 44.9810167,149.458989 C45.5466,149.139506 46.0681833,148.774253 46.5402667,148.367805 C47.7511833,148.655248 48.9685167,148.924382 50.1904333,149.172462 C50.75235,148.81087 51.2757667,148.412661 51.7606833,147.983327 C50.4012667,147.733417 49.0491833,147.45879 47.7035167,147.159447 C48.0252667,146.75483 48.3076,146.321835 48.5459333,145.867785 C50.02635,146.178113 51.5141,146.458233 53.0091833,146.708143 C53.3657667,146.283387 53.6911833,145.836661 53.9799333,145.371626 C52.34735,145.122631 50.7230167,144.836103 49.10785,144.512959 C49.2481,144.063487 49.34985,143.599367 49.4131,143.121516 C49.4140167,143.116939 49.4149333,143.111447 49.4149333,143.105954 C51.17035,143.443745 52.9367667,143.737596 54.71235,143.988422 C54.9149333,143.529795 55.0872667,143.057437 55.2256833,142.572263 C53.3006833,142.319606 51.3857667,142.01477 49.4836833,141.659586 C49.46535,141.15885 49.4057667,140.662691 49.3076833,140.171108 C51.3720167,140.551009 53.4501,140.870492 55.5401,141.127725 C55.5767667,140.886969 55.6070167,140.643467 55.6281,140.397218 M41.86985,127.400959 C44.8471833,128.060979 47.8556833,128.589178 50.88985,128.977317 C50.30135,128.392362 49.6725167,127.840362 49.0070167,127.319487 C46.6860167,126.989019 44.3787667,126.577079 42.0907667,126.085497 C42.0174333,126.523984 41.9441,126.962472 41.86985,127.400959 M29.2739333,125.071208 C27.9979333,124.608919 26.7301833,124.12283 25.4716,123.612024 C24.9866833,123.829895 24.5201,124.072482 24.07735,124.335208 C25.3414333,124.873477 26.6146833,125.387944 27.8971,125.877696 C28.3251833,125.578352 28.7871833,125.309218 29.2739333,125.071208 M41.4142667,130.038293 C45.3687667,130.971108 49.3819333,131.673238 53.4372667,132.130034 C53.0981,131.595427 52.7277667,131.073636 52.3244333,130.571984 C48.7274333,130.145397 45.1625167,129.523825 41.64435,128.718253 C41.5682667,129.159487 41.4921833,129.59889 41.4142667,130.038293 M33.5355167,123.857357 C32.0991,123.417039 30.67185,122.944681 29.2546833,122.443029 C28.5277667,122.581258 27.82835,122.75885 27.1555167,122.973059 C28.4461833,123.466472 29.7460167,123.934253 31.0541,124.377317 C31.83785,124.137477 32.6665167,123.963546 33.5355167,123.857357 M39.3059333,122.763427 C36.7942667,122.172979 34.3696833,121.973417 32.1110167,122.096084 C36.7640167,123.576322 41.5169333,124.727924 46.3404333,125.524342 C44.2110167,124.295845 41.84235,123.359367 39.3059333,122.763427" id="Fill-70" fill="#FFFFFF"></path>
                    <path d="M124.553092,70.3874149 C131.412508,87.0627582 132.846175,107.015315 128.386592,123.759315 C125.588925,134.260131 114.546758,158.684529 72.5230917,158.683614 C63.7047583,158.683614 54.358425,157.438639 45.495175,155.084171 C28.6165917,150.601345 16.6485917,142.67836 9.92300833,131.535833 C3.136925,120.291694 1.94250833,106.154818 6.373675,89.5179224 C13.045175,64.4710368 36.516425,42.7013652 61.4827583,36.2769274 C62.3655083,38.2945194 63.997175,40.3633751 66.6573417,40.6627184 C66.8085917,40.679196 66.967175,40.6883502 67.1312583,40.6883502 C68.7060917,40.6883502 70.5770083,39.8626388 72.945675,38.8181413 C76.3162583,37.3305791 80.5127583,35.4786786 85.029175,35.4786786 C86.3665917,35.4786786 87.6755917,35.6471164 88.9653417,35.9885692 C90.5337583,36.406002 92.0645917,36.9268776 93.5725083,37.5072557 C104.697175,42.1145791 113.950925,52.5394149 114.699842,53.3999124 C118.574592,58.2553154 121.901175,63.941007 124.553092,70.3874149 M67.473175,11.1073751 C70.170925,7.32942488 74.3270917,5.08389254 79.7400083,4.44309652 C84.6560917,4.0943204 88.1385083,5.09487761 90.0360083,7.39991244 C93.0408417,11.0524498 91.794175,17.3441512 91.2625083,20.0309174 C90.985675,21.4278527 90.8463417,22.1281512 91.4623417,22.8769672 L92.036175,23.5571264 L92.902425,23.5571264 C93.653175,23.5571264 94.1105917,23.2046886 95.0217583,22.5025592 C96.6387583,21.2566687 100.005675,18.664191 103.852008,18.664191 C105.298508,18.664191 106.713842,19.0404299 107.982508,19.7370667 C116.136258,24.7544995 112.372425,33.1855443 112.211092,33.5361512 L111.052425,36.1432756 L113.936258,36.1432756 C114.874008,36.1432756 119.612258,36.4179025 120.884592,41.8353751 C121.886508,46.1067383 118.497592,48.8118129 116.601925,49.9579224 C111.050592,43.3302607 104.280092,38.0015841 96.3573417,34.6566289 C96.328925,34.6666985 96.298675,34.672191 96.2702583,34.6822607 C94.2123417,33.7494448 92.0792583,32.9695045 89.893925,32.4458826 C88.3328417,32.0284498 86.695675,31.8169871 85.029175,31.8169871 C79.7390917,31.8169871 74.955925,33.9270368 71.463425,35.468609 C69.7300083,36.2329871 67.937925,37.0239124 67.0725917,37.0239124 L67.0680083,37.0239124 C65.374925,36.8335045 64.5123417,34.126599 64.3290083,33.1214647 C64.299675,32.9859821 61.4580083,19.5329274 67.473175,11.1073751 M124.454092,40.999594 C123.115758,35.2974249 119.045758,33.4089075 116.357175,32.7864199 C117.565342,28.2395144 117.253675,21.1413254 109.830508,16.5761114 C107.937592,15.5325294 105.925508,15.0024995 103.852008,15.0024995 C100.487842,15.0024995 97.5205917,16.4076736 95.377425,17.7588378 C95.8825083,14.0660219 95.9787583,8.85543483 92.869425,5.07565373 C90.487925,2.18108657 86.6910917,0.713663682 81.5852583,0.713663682 C80.9115083,0.713663682 80.2038417,0.739295522 79.3953417,0.797882587 C72.8200917,1.57507662 67.800425,4.33233035 64.4775083,8.99549453 C58.5283417,17.3450667 59.9290083,29.1796537 60.532175,32.7635343 C34.3668417,39.5715343 9.81300833,62.3628179 2.83075833,88.5768677 C-1.86624167,106.209743 -0.536158333,121.299574 6.78250833,133.426181 C14.015925,145.409982 26.7227583,153.886798 44.5528417,158.623196 C53.7185917,161.058221 63.3912583,162.345305 72.5230917,162.345305 L72.5258417,162.345305 C103.442258,162.345305 125.651258,148.271594 131.929508,124.70037 C138.252675,100.960708 133.328342,72.2493851 118.887175,52.8607284 C122.103758,50.781803 125.793342,46.703594 124.454092,40.999594" id="Fill-72" fill="#000000"></path>
                    <path d="M132.89485,115.644458 C132.1991,114.963383 131.6491,114.42603 131.054183,114.245692 L130.907517,114.194428 C128.0411,113.054726 113.729183,115.952955 102.830017,121.412537 C97.1870167,124.239363 93.7146833,127.156816 93.05285,129.628458 C93.0519333,129.631204 93.0510167,129.63395 93.0501,129.636697 C93.6771,129.648597 94.4626833,129.671483 95.4242667,129.782249 C102.910683,122.449711 119.883683,117.668458 128.9816,122.397532 C135.561433,123.940935 141.028433,121.837294 146.256183,119.506627 C138.5901,120.408318 135.52385,118.21405 132.89485,115.644458" id="Fill-74" fill="#E5001F"></path>
                    <g id="Group-78" transform="translate(88.916667, 109.850746)">
                        <mask id="mask-6" fill="white">
                            <use xlink:href="#path-5"></use>
                        </mask>
                        <g id="Clip-77"></g>
                        <path d="M40.0649333,12.5467861 C30.9670167,7.81771144 13.9940167,12.5989652 6.5076,19.9315025 C5.54601667,19.8207363 4.76043333,19.7978507 4.13343333,19.7859502 C4.13435,19.783204 4.13526667,19.7804577 4.13618333,19.7777114 C4.79801667,17.3060697 8.27035,14.3886169 13.91335,11.561791 C24.8125167,6.10220896 39.1244333,3.2039801 41.99085,4.34368159 L42.1375167,4.39494527 C42.7324333,4.57528358 43.2824333,5.11263682 43.9781833,5.79371144 C46.6071833,8.36330348 49.6734333,10.5575721 57.3395167,9.6558806 C52.1117667,11.9865473 46.6447667,14.0901891 40.0649333,12.5467861 L40.0649333,12.5467861 Z M91.3799333,9.26591045 C88.3961833,10.5520796 85.72685,9.384 82.0326833,7.76644776 C77.14685,5.62527363 71.0666,2.96139303 61.7441,5.14193035 C51.0979333,7.63096517 48.5734333,5.16206965 46.5430167,3.17743284 C45.6309333,2.28489552 44.6867667,1.36306468 43.2732667,0.91359204 C38.2591,-0.972179104 22.0936833,3.36692537 12.26885,8.28823881 C5.48551667,11.6862886 1.5576,15.2335522 0.593266667,18.8311642 C0.247683333,20.1219104 0.000183333333,21.3650547 0.7656,22.3784279 C1.53743333,23.4009552 2.68051667,23.42201 3.89143333,23.4439801 C4.66418333,23.4577114 5.62576667,23.4751045 6.8816,23.6801592 L7.85968333,23.8385274 L8.52885,23.1098507 C15.1306833,15.9109652 31.3932667,11.9911244 38.5322667,15.8798408 L38.74035,15.9933532 L38.9722667,16.0501095 C47.4596833,18.1345274 54.2421,15.0751841 60.2261,12.3746866 C65.84985,9.83530348 70.70635,7.64378109 76.36035,9.41329353 L76.3612667,9.41054726 C77.8481,9.93142289 79.2304333,10.5365174 80.5605167,11.1196418 C83.6359333,12.4662289 86.58485,13.758806 89.7840167,13.4329154 C87.1660167,23.3908856 77.19635,24.2019502 61.7010167,24.2687761 C49.5249333,24.3209552 36.9336,24.3758806 29.3426833,32.5908856 L32.0376833,35.0735124 C38.5460167,28.0302488 50.3251833,27.9799005 61.7166,27.9304677 C76.58035,27.8663881 91.9510167,27.8004776 93.92735,11.1626667 L94.3022667,8.00537313 L91.3799333,9.26591045 Z" id="Fill-76" fill="#000000" mask="url(#mask-6)"></path>
                    </g>
                    <path d="M109.770925,125.324414 C109.413425,125.276812 109.060508,125.341807 108.802008,125.501091 C107.239092,126.466862 104.162758,126.758882 100.573092,126.283777 C97.3610917,125.858105 91.1928417,124.438285 85.9678417,119.712872 C83.3718417,117.365727 80.9793417,113.79924 78.665675,110.350842 C75.8680083,106.182006 72.698175,101.456593 70.1975083,100.95128 C69.9665083,100.903678 69.7327583,100.86523 69.4980917,100.834105 C66.447425,100.429489 63.5278417,101.384275 61.687175,103.38722 C59.4532583,105.819499 58.835425,109.635897 59.8987583,114.424474 L59.9427583,114.624036 C60.5798417,117.889349 65.9945917,125.292374 74.818425,128.827737 C74.818425,128.827737 76.2860083,129.669011 76.066925,131.314026 C75.8790083,132.732016 73.4058417,131.772653 73.4058417,131.772653 C65.9010917,128.765489 60.4542583,123.471598 57.881175,119.073906 C56.7692583,122.114941 56.9700083,125.438842 58.497175,128.998006 C59.1360917,130.484653 60.004175,131.95116 61.032675,133.372812 C64.5288417,137.482145 69.972925,139.060334 71.2260083,139.04111 C72.7898417,139.017309 73.4828417,139.455797 73.7935917,140.593668 C74.0970083,141.702245 72.0345083,142.469369 70.899675,142.37325 C74.7487583,144.767996 78.9837583,146.461528 83.024425,146.997051 C97.1915083,148.874583 109.152175,142.919757 111.464008,132.83912 C112.419175,128.856115 111.695008,127.0033 111.178008,126.252653 C110.714175,125.577986 110.156842,125.375678 109.770925,125.324414" id="Fill-79" fill="#FFFFFF"></path>
                    <path d="M87.8260167,116.411033 C87.7215167,112.532386 86.5390167,109.182854 84.4875167,107.24765 C83.1986833,106.031053 81.5670167,105.373779 79.6310167,105.253859 C80.3212667,106.242515 81.0124333,107.270535 81.71185,108.312287 C83.7074333,111.286496 85.7644333,114.341262 87.8260167,116.411033" id="Fill-81" fill="#FFFFFF"></path>
                    <path d="M111.463733,132.839029 C109.1519,142.919666 97.19215,148.874492 83.02415,146.996959 C78.9834833,146.461437 74.7494,144.767904 70.8994,142.373158 C72.0342333,142.469278 74.0967333,141.702153 73.7942333,140.593576 C73.4825667,139.455705 72.7895667,139.018133 71.22665,139.041019 C69.97265,139.060243 64.5285667,137.482054 61.0324,133.37272 C60.0039,131.951069 59.1358167,130.484561 58.4978167,128.997914 C56.9697333,125.43875 56.7689833,122.11485 57.8809,119.073815 C60.4539833,123.471506 65.9008167,128.765397 73.4055667,131.772561 C73.4055667,131.772561 75.8787333,132.731924 76.06665,131.313934 C76.2857333,129.668919 74.81815,128.827646 74.81815,128.827646 C65.9943167,125.292283 60.5795667,117.889258 59.9424833,114.623944 L59.8984833,114.424382 C58.83515,109.635805 59.4539,105.819407 61.6869,103.387128 C63.5275667,101.384183 66.44715,100.429397 69.4987333,100.834014 C69.7334,100.865138 69.9662333,100.903586 70.1972333,100.951188 C72.6979,101.456501 75.8677333,106.181914 78.6654,110.35075 C80.9790667,113.799148 83.3715667,117.365636 85.9684833,119.71278 C91.1925667,124.438193 97.3617333,125.858014 100.573733,126.283686 C104.1634,126.75879 107.239733,126.46677 108.80265,125.500999 C109.060233,125.341715 109.41315,125.27672 109.77065,125.324322 C110.157483,125.375586 110.714817,125.577895 111.177733,126.252561 C111.694733,127.003208 112.4189,128.856024 111.463733,132.839029 M84.48715,107.247467 C86.53865,109.183586 87.72115,112.532203 87.82565,116.41085 C85.7649833,114.341079 83.7070667,111.287228 81.7114833,108.313019 C81.0129833,107.270352 80.3209,106.242332 79.63065,105.253676 C81.5675667,105.373596 83.1992333,106.03087 84.48715,107.247467 M110.253733,121.694671 C109.053817,121.535387 107.852983,121.781636 106.873067,122.38673 C106.4404,122.654949 104.374233,123.093437 101.0559,122.654034 C98.8650667,122.363845 95.0957333,121.538133 91.4034,119.233099 C91.9469833,113.145536 90.3382333,107.73081 87.0052333,104.586332 C85.1865667,102.868999 81.9965667,101.044561 76.9384,101.697258 C75.0399833,99.4498945 73.0810667,97.7975562 70.9259833,97.3618149 C70.6134,97.2986507 70.2980667,97.2455562 69.9809,97.2034468 C65.7440667,96.6422925 61.6337333,98.0291582 58.9854833,100.91274 C56.9138167,103.166511 54.7899,107.321616 56.1548167,114.423467 C53.0179833,119.171765 52.6604833,124.692681 55.1272333,130.439705 C55.2363167,130.692362 55.3710667,130.941357 55.4893167,131.192183 L55.4755667,131.197676 C55.9824833,132.475606 56.6773167,133.646432 57.5004833,134.710153 C62.9079,142.73475 73.0407333,149.367904 82.5419833,150.626611 C98.6285667,152.758631 112.294233,145.621079 115.033233,133.67481 C116.251483,128.59879 115.253233,125.709715 114.2009,124.180044 C113.242983,122.787686 111.8414,121.905218 110.253733,121.694671" id="Fill-83" fill="#000000"></path>
                    <path d="M107.835567,129.017779 C107.747567,128.980247 107.654983,128.95553 107.558733,128.942714 C107.3754,128.917998 107.18565,128.938137 106.9959,128.992147 L107.698067,132.431391 C107.981317,132.219013 108.213233,131.926078 108.30215,131.526953 C108.59915,130.200505 108.176567,129.356486 107.835567,129.017779" id="Fill-85" fill="#9E9E9F"></path>
                    <path d="M106.162467,129.490229 C105.957133,129.683383 105.771967,129.916816 105.627133,130.187781 C105.096383,131.1801 105.249467,132.339025 105.961717,132.718925 C106.17255,132.831522 106.49705,132.858985 106.83805,132.800398 L106.162467,129.490229 Z" id="Fill-87" fill="#9E9E9F"></path>
                    <path d="M108.302425,131.527136 C108.212592,131.926261 107.981592,132.218281 107.697425,132.430659 L106.996175,128.99233 C107.185008,128.93832 107.375675,128.918181 107.558092,128.942898 C107.655258,128.954798 107.747842,128.98043 107.835842,129.017962 C108.175925,129.355753 108.598508,130.200689 108.302425,131.527136 M105.961258,132.719017 C105.249925,132.339116 105.096842,131.180191 105.626675,130.187873 C105.771508,129.916907 105.956675,129.683475 106.162925,129.49032 L106.837592,132.80049 C106.497508,132.859077 106.173008,132.831614 105.961258,132.719017 M108.936758,127.545962 L108.783675,127.442519 C108.477508,127.279574 108.146592,127.173385 107.800092,127.127614 C106.339842,126.933544 104.816342,127.816927 104.009675,129.325544 C102.994008,131.225047 103.481675,133.47241 105.098675,134.333823 C105.392925,134.491276 105.722925,134.594718 106.079508,134.641405 C107.669008,134.851952 109.654508,133.874281 110.091758,131.927176 C110.568425,129.793325 109.768175,128.233445 108.936758,127.545962" id="Fill-89" fill="#000000"></path>
                    <path d="M49.97905,83.5010308 C47.4499667,83.3060458 43.7732167,81.860593 40.2889667,79.9949612 C39.7536333,82.3485134 38.3263833,84.6041154 37.15855,86.1484338 C40.2101333,87.6204338 43.5953833,89.7863244 45.5753833,91.6235781 C46.8064667,90.1900259 48.6847167,87.5224836 49.97905,83.5010308" id="Fill-91" fill="#B01948"></path>
                    <path d="M50.53675,79.8629572 C50.7301667,79.8629572 50.86125,79.8464796 50.94375,79.830002 C52.2784167,75.7298229 52.1895,69.116808 51.1674167,66.7788179 C50.9969167,66.7431164 50.6889167,66.7019224 50.1838333,66.7019224 C45.5170833,66.7019224 36.57225,69.6504995 34.24025,71.277206 C36.2715833,73.669206 46.23025,79.8620418 50.5358333,79.8629572 L50.53675,79.8629572 Z" id="Fill-93" fill="#FFF125"></path>
                    <path d="M32.3220333,91.3781532 C32.6557,92.7686806 33.68695,95.3034866 36.8430333,96.6500736 C37.53145,96.9494169 38.20245,97.0995463 38.85145,97.0995463 C40.9396167,97.0995463 42.5887,95.5662129 43.4338667,94.5812179 C41.5748667,92.6185512 34.6787833,88.6071682 32.30645,88.1512876 C32.1341167,88.6840637 31.9636167,89.8860139 32.3220333,91.3781532" id="Fill-95" fill="#FFF125"></path>
                    <path d="M38.8515417,97.0991801 C38.2025417,97.0991801 37.5315417,96.9499662 36.843125,96.6506229 C33.6870417,95.3031204 32.6557917,92.7692299 32.322125,91.3777871 C31.9637083,89.8865632 32.1342083,88.6836975 32.3065417,88.1518368 C34.678875,88.606802 41.5749583,92.6181851 43.4339583,94.5808517 C42.5887917,95.5667622 40.9397083,97.0991801 38.8515417,97.0991801 M40.288875,79.9954189 C43.7740417,81.8610507 47.449875,83.3055881 49.9789583,83.5014886 C48.684625,87.5229413 46.806375,90.1904836 45.5752917,91.6240358 C43.5952917,89.7858667 40.2100417,87.6199761 37.1584583,86.1488915 C38.3262917,84.6045731 39.7535417,82.3489711 40.288875,79.9954189 M34.2407083,71.2769313 C36.5727083,69.6511403 45.516625,66.7016478 50.1842917,66.7016478 C50.6884583,66.7016478 50.997375,66.7428418 51.167875,66.7785433 C52.1899583,69.1165333 52.2779583,75.7304637 50.9432917,79.8297274 C50.8617083,79.846205 50.730625,79.8626826 50.5372083,79.8626826 L50.5362917,79.8626826 C46.2307083,79.8617672 36.2720417,73.6689313 34.2407083,71.2769313 M54.2139583,64.6840557 C53.2789583,63.0399562 50.9497083,63.0399562 50.1842917,63.0399562 C45.643125,63.0399562 32.0397917,66.4737075 30.4869583,70.1006129 C30.2302917,70.7011303 30.0992083,71.6815483 30.933375,72.9439164 C31.8812083,74.3774687 34.120625,76.2202149 36.8312083,77.9650109 C36.9934583,79.9752796 35.0849583,82.9348418 33.6017917,84.7336478 C32.954625,84.5514786 32.3817083,84.4471204 31.9242917,84.4471204 C31.2404583,84.4471204 30.6592917,84.6265433 30.1972917,84.9789811 C28.568375,86.2239562 28.2677083,88.9015682 28.529875,90.992394 C29.035875,95.023001 31.604375,98.3963343 35.3892917,100.012056 C36.5305417,100.50913 37.6947083,100.760872 38.8515417,100.760872 C43.3395417,100.760872 46.231625,97.0698866 47.0107917,95.9384239 C47.1217083,95.7773095 47.282125,95.4825433 47.359125,95.0916577 C48.9687917,93.503399 52.8050417,89.0169114 54.393625,81.062802 C56.1022917,75.9318567 56.0225417,67.8633194 54.2139583,64.6840557" id="Fill-97" fill="#000000"></path>
                    <path d="M95.3777917,63.4202229 C86.9930417,63.632601 78.665125,63.9539144 70.4545417,65.8039841 C68.8247083,66.1719841 68.3590417,68.3030886 69.9797083,69.0839443 C75.711625,71.847606 81.5049583,73.9100537 86.414625,78.0962826 C88.1012917,79.5344119 90.2142083,76.826591 88.5339583,75.3939542 C84.7994583,72.2101134 80.5937917,70.1906905 76.2707917,68.2142925 C82.724125,67.2375363 89.2407083,66.9940338 95.7930417,66.8283423 C98.003125,66.7725015 97.5732083,63.3643821 95.3777917,63.4202229" id="Fill-99" fill="#000000"></path>
                    <path d="M43.256675,59.5372736 C44.505175,59.5940299 45.5565917,58.2181493 44.9002583,57.0528159 C42.4142583,52.6359005 39.3635917,48.7069055 35.6520083,45.2456915 C34.046925,43.7498905 31.4545917,46.0073234 33.073425,47.5159403 C35.8280083,50.0837015 38.2150083,52.9004577 40.2527583,56.0156418 C35.383425,55.9067065 30.5260083,56.0348657 25.6585083,56.4010348 C23.462175,56.5658109 24.1808417,59.9254129 26.3625083,59.7615522 C31.9908417,59.3386269 37.6200917,59.2809552 43.256675,59.5372736" id="Fill-101" fill="#000000"></path>
                    <polygon id="Fill-103" fill="#000000" points="86.1838083 58.826997 98.2278917 52.9252657 99.5543083 48.1778826 96.612725 49.6379821 89.2381417 53.2520716 88.764225 49.0978826 77.3948083 54.5739423 75.715475 59.4476537 85.706225 54.636191"></polygon>
                    <polygon id="Fill-105" fill="#000000" points="46.5134083 42.1617234 46.1284083 49.9730269 49.9527417 46.8688279 50.504575 35.6722905 44.8267417 38.9064796 44.652575 36.2078129 44.5499083 34.0089672 41.0464083 37.2623801 41.5469083 44.9912955"></polygon>
                </g>
            </g>
        </g>
    </g>
</svg>