<?xml version="1.0" encoding="UTF-8"?>
<svg width="46px" height="98px" viewBox="0 0 46 98" version="1.1" xmlns="http://www.w3.org/2000/svg" xmlns:xlink="http://www.w3.org/1999/xlink">
    <!-- Generator: Sketch 41.1 (35376) - http://www.bohemiancoding.com/sketch -->
    <title>img_temple4</title>
    <desc>Created with Sketch.</desc>
    <defs>
        <polygon id="path-1" points="-1.61099419e-13 84.1132575 -1.61099419e-13 98.8494371 45.7056 98.8494371 45.7056 0.155635284 -1.61099419e-13 0.155635284 -1.61099419e-13 84.1132575 -8.36363638e-05 98.849395 45.7055164 98.849395 45.7055164 84.1132575"></polygon>
        <polygon id="path-3" points="0 98.8494371 45.7056 98.8494371 45.7056 0.155635284 0 0.155635284"></polygon>
    </defs>
    <g id="Page-1" stroke="none" stroke-width="1" fill="none" fill-rule="evenodd" opacity="0.4">
        <g id="Artboard" transform="translate(-495.000000, -355.000000)">
            <g id="img_temple4" transform="translate(495.000000, 355.000000)">
                <polygon id="Fill-1" fill="#B4B5B5" points="32.4826073 87.708769 13.1856073 87.708769 15.2836255 10.7786688 30.3850073 10.7786688"></polygon>
                <polygon id="Fill-2" fill="#89212E" points="32.3270018 10.9899542 27.8800564 12.674601 22.6302018 2.85485587"></polygon>
                <polygon id="Fill-3" fill="#89212E" points="12.94854 10.9899542 17.3950673 12.674601 22.63614 2.89313374"></polygon>
                <polygon id="Fill-4" fill="#C30F23" points="27.8899673 12.6747693 17.3618218 12.6747693 22.6217127 2.84661141"></polygon>
                <g id="Group-279" transform="translate(0.000000, 0.265001)">
                    <path d="M23.8175873,1.33972535 C23.8175873,1.99339354 23.2898418,2.52423605 22.6395691,2.52423605 C21.9888782,2.52423605 21.4611327,1.99339354 21.4611327,1.33972535 C21.4611327,0.685636521 21.9888782,0.155635284 22.6395691,0.155635284 C23.2898418,0.155635284 23.8175873,0.685636521 23.8175873,1.33972535 Z" id="Fill-5" fill="#C30F23"></path>
                    <path d="M23.8861691,2.71398491 C23.8861691,3.05301744 23.7678236,3.32769269 23.4316055,3.32769269 L21.8943691,3.32769269 C21.5577327,3.32769269 21.3921327,3.05301744 21.3921327,2.71398491 C21.3921327,2.37621428 21.5577327,2.1011184 21.8943691,2.1011184 L23.4316055,2.1011184 C23.7678236,2.1011184 23.8861691,2.37621428 23.8861691,2.71398491" id="Fill-7" fill="#89212E"></path>
                    <path d="M17.1237927,13.9811803 C16.0770836,13.9811803 15.34652,15.0925003 15.34652,16.6833453 L15.34652,19.2694148 L15.34652,20.0433849 L16.0988291,20.2032265 L17.8982655,20.5860052 L19.0440836,20.829974 L19.0440836,19.6521935 L19.0440836,16.9819968 C19.0440836,15.6813906 18.5138291,14.1931807 17.3517018,14.0001089 C17.2743382,13.9870692 17.1994836,13.9811803 17.1237927,13.9811803" id="Fill-9" fill="#9F9FA0"></path>
                    <path d="M17.1458727,14.8793641 C16.6076727,14.8793641 16.2317273,15.6331436 16.2317273,16.7108128 L16.2317273,19.4445255 L18.1340364,19.8403439 L18.1340364,16.9135593 C18.1340364,16.0323271 17.8613818,15.0228009 17.2625455,14.8924038 C17.2240727,14.8831498 17.1851818,14.8793641 17.1458727,14.8793641" id="Fill-11" fill="#FEFEFE"></path>
                    <path d="M28.4102273,13.9811803 L28.4102273,13.9811803 C28.3345364,13.9811803 28.2588455,13.9870692 28.1819,14.0001089 C27.0193545,14.1931807 26.4891,15.6813906 26.4891,16.9819968 L26.4891,19.6521935 L26.4891,20.829974 L27.6349182,20.5860052 L29.4343545,20.2032265 L30.1870818,20.0433849 L30.1870818,19.2694148 L30.1870818,16.6833453 C30.1870818,15.0925003 29.4561,13.9811803 28.4102273,13.9811803" id="Fill-13" fill="#9F9FA0"></path>
                    <path d="M28.3873527,14.8793641 L28.3873527,14.8793641 C28.3484618,14.8793641 28.3091527,14.8831498 28.2698436,14.8924038 C27.6714255,15.0228009 27.3991891,16.0323271 27.3991891,16.9135593 L27.3991891,19.8403439 L29.3019164,19.4445255 L29.3019164,16.7108128 C29.3019164,15.6331436 28.9247164,14.8793641 28.3873527,14.8793641" id="Fill-15" fill="#FEFEFE"></path>
                    <path d="M25.8210964,20.8301002 L19.9908055,20.8301002 L19.9908055,16.9198689 C19.9908055,15.3025238 21.2988782,13.9867747 22.9055327,13.9867747 C24.5130236,13.9867747 25.8210964,15.3025238 25.8210964,16.9198689 L25.8210964,20.8301002 Z" id="Fill-17" fill="#9F9FA0"></path>
                    <path d="M21.1071418,19.8464852 L24.70476,19.8464852 L24.70476,16.7804701 C24.70476,15.7827218 23.8976691,14.9713151 22.9057418,14.9713151 C21.9142327,14.9713151 21.1071418,15.7827218 21.1071418,16.7804701 L21.1071418,19.8464852 Z" id="Fill-19" fill="#FEFEFE"></path>
                    <polygon id="Fill-21" fill="#89212E" points="12.55892 22.7933762 17.2755927 24.5810788 18.7772836 19.9393616 15.0738655 19.1788519"></polygon>
                    <polygon id="Fill-23" fill="#C30F23" points="17.7800873 19.737204 15.8008327 24.017595 16.0090873 24.102984 17.9908509 19.7759025"></polygon>
                    <polygon id="Fill-25" fill="#C30F23" points="16.6292509 19.5032884 14.4693418 23.5212025 14.6495782 23.587663 16.8140873 19.5382012"></polygon>
                    <polygon id="Fill-27" fill="#C30F23" points="15.6242345 19.301972 13.3284164 23.0847507 13.4906709 23.1440604 15.7898345 19.3322578"></polygon>
                    <polygon id="Fill-29" fill="#89212E" points="33.1041509 22.7997699 28.3883145 24.5870518 26.8862055 19.944914 30.5892055 19.1856662"></polygon>
                    <polygon id="Fill-31" fill="#C30F23" points="27.88382 19.7437659 29.86182 24.0224743 29.6544018 24.109546 27.67222 19.7803613"></polygon>
                    <polygon id="Fill-33" fill="#C30F23" points="29.03382 19.5092193 31.1937291 23.5262922 31.0143291 23.593594 28.8489836 19.5449734"></polygon>
                    <polygon id="Fill-35" fill="#C30F23" points="30.0400909 19.3079451 32.3342364 23.0903031 32.1724 23.1500334 29.8740727 19.3369689"></polygon>
                    <polygon id="Fill-37" fill="#C30F23" points="28.4061291 24.5809106 17.23942 24.5809106 18.7306564 19.9320426 26.9161473 19.9320426"></polygon>
                    <polygon id="Fill-39" fill="#760519" points="19.1751 19.9319164 18.9810636 19.9319164 18.5327727 24.5807844 18.7280636 24.5807844"></polygon>
                    <polygon id="Fill-41" fill="#760519" points="20.2373236 19.9319164 20.0487236 19.9319164 19.7794145 24.5807844 19.9675964 24.5807844"></polygon>
                    <polygon id="Fill-43" fill="#760519" points="21.2995055 19.9319164 21.1159236 19.9319164 21.0255964 24.5807844 21.2104327 24.5807844"></polygon>
                    <polygon id="Fill-45" fill="#760519" points="22.3645727 19.9319164 22.1793182 19.9319164 22.2688091 24.5807844 22.4544818 24.5807844"></polygon>
                    <polygon id="Fill-47" fill="#760519" points="23.4304345 19.9319164 23.2414164 19.9319164 23.5107255 24.5807844 23.6997436 24.5807844"></polygon>
                    <polygon id="Fill-49" fill="#760519" points="24.4999764 19.9319164 24.3034309 19.9319164 24.7513036 24.5807844 24.9457582 24.5807844"></polygon>
                    <polygon id="Fill-51" fill="#760519" points="25.5691418 19.9319164 25.3642327 19.9319164 25.9894145 24.5807844 26.19516 24.5807844"></polygon>
                    <polygon id="Fill-53" fill="#760519" points="26.6398964 19.9319164 26.4220236 19.9319164 27.2261873 24.5807844 27.4448964 24.5807844"></polygon>
                    <path d="M16.8567418,25.9865916 C15.7590145,25.9865916 14.9920691,27.153015 14.9920691,28.8229395 L14.9920691,31.5377236 L14.9920691,32.3503922 L15.7811782,32.5178053 L17.6701055,32.9199332 L18.8727964,33.1756798 L18.8727964,31.9398515 L18.8727964,29.1363133 C18.8727964,27.7709291 18.3166145,26.209108 17.09636,26.0067821 C17.0152327,25.9924805 16.9357782,25.9865916 16.8567418,25.9865916" id="Fill-55" fill="#9F9FA0"></path>
                    <path d="M16.8804109,26.9293208 C16.3162836,26.9293208 15.9206836,27.7205369 15.9206836,28.8516269 L15.9206836,31.7216256 L17.91792,32.1372139 L17.91792,29.0653099 C17.91792,28.1394903 17.6314655,27.0803291 17.0033564,26.9427811 C16.9619564,26.9339478 16.9218109,26.9293208 16.8804109,26.9293208" id="Fill-57" fill="#FEFEFE"></path>
                    <path d="M28.7042509,25.9865916 L28.7042509,25.9865916 C28.6252145,25.9865916 28.5461782,25.9924805 28.4650509,26.0067821 C27.2447964,26.209108 26.6886145,27.7709291 26.6886145,29.1363133 L26.6886145,31.9398515 L26.6886145,33.1756798 L27.8913055,32.9199332 L29.7793964,32.5178053 L30.5701782,32.3503922 L30.5701782,31.5377236 L30.5701782,28.8229395 C30.5701782,27.153015 29.8028145,25.9865916 28.7042509,25.9865916" id="Fill-59" fill="#9F9FA0"></path>
                    <path d="M28.681,26.9293208 L28.681,26.9293208 C28.6396,26.9293208 28.5994545,26.9339478 28.5576364,26.9427811 C27.9299455,27.0803291 27.6434909,28.1394903 27.6434909,29.0653099 L27.6434909,32.1372139 L29.6403091,31.7216256 L29.6403091,28.8516269 C29.6403091,27.7205369 29.2455455,26.9293208 28.681,26.9293208" id="Fill-61" fill="#FEFEFE"></path>
                    <path d="M25.9873236,33.1755957 L19.8668145,33.1755957 L19.8668145,29.0714512 C19.8668145,27.374606 21.2392873,25.9923964 22.9262327,25.9923964 C24.6144327,25.9923964 25.9873236,27.374606 25.9873236,29.0714512 L25.9873236,33.1755957 Z" id="Fill-63" fill="#9F9FA0"></path>
                    <path d="M21.03856,32.1433131 L24.8147418,32.1433131 L24.8147418,28.9254485 C24.8147418,27.8784857 23.9679236,27.0262774 22.9262327,27.0262774 C21.8853782,27.0262774 21.03856,27.8784857 21.03856,28.9254485 L21.03856,32.1433131 Z" id="Fill-65" fill="#FEFEFE"></path>
                    <polygon id="Fill-67" fill="#89212E" points="12.0655909 35.2370902 17.0168636 37.1127057 18.5929909 32.2413213 14.7055727 31.443375"></polygon>
                    <polygon id="Fill-69" fill="#C30F23" points="17.5464909 32.0286898 15.4681273 36.5215019 15.6876727 36.6119386 17.7668727 32.0690709"></polygon>
                    <polygon id="Fill-71" fill="#C30F23" points="16.3384891 31.7830385 14.0711073 36.0007547 14.2597073 36.0705802 16.5321073 31.8196338"></polygon>
                    <polygon id="Fill-73" fill="#C30F23" points="15.2828309 31.571711 12.8736855 35.5425139 13.0438855 35.604768 15.4567945 31.6036793"></polygon>
                    <polygon id="Fill-75" fill="#89212E" points="33.6321891 35.2434418 28.6821709 37.1194779 27.1047891 32.2468316 30.9917891 31.4497266"></polygon>
                    <polygon id="Fill-77" fill="#C30F23" points="28.1517491 32.0358827 30.2292764 36.5274329 30.0109855 36.6182902 27.9301127 32.0745812"></polygon>
                    <polygon id="Fill-79" fill="#C30F23" points="29.3592909 31.7894321 31.6266727 36.0063071 31.4389091 36.0769739 29.1652545 31.8268687"></polygon>
                    <polygon id="Fill-81" fill="#C30F23" points="30.4157855 31.5780626 32.8236764 35.5484449 32.6543127 35.6115403 30.2409855 31.6083484"></polygon>
                    <polygon id="Fill-83" fill="#C30F23" points="28.7009891 37.1128739 16.9785164 37.1128739 18.5441891 32.2330768 27.1369891 32.2330768"></polygon>
                    <polygon id="Fill-85" fill="#760519" points="19.01134 32.2330348 18.8068491 32.2330348 18.3368127 37.1128319 18.5413036 37.1128319"></polygon>
                    <polygon id="Fill-87" fill="#760519" points="20.1254182 32.2330348 19.9276182 32.2330348 19.6449273 37.1128319 19.8427273 37.1128319"></polygon>
                    <polygon id="Fill-89" fill="#760519" points="21.2407091 32.2330348 21.0470909 32.2330348 20.953 37.1128319 21.1474545 37.1128319"></polygon>
                    <polygon id="Fill-91" fill="#760519" points="22.3584255 32.2330348 22.1643891 32.2330348 22.25848 37.1128319 22.4533527 37.1128319"></polygon>
                    <polygon id="Fill-93" fill="#760519" points="23.4778145 32.2330348 23.27876 32.2330348 23.5618691 37.1128319 23.7600873 37.1128319"></polygon>
                    <polygon id="Fill-95" fill="#760519" points="24.5996291 32.2330348 24.3951382 32.2330348 24.86392 37.1128319 25.0688291 37.1128319"></polygon>
                    <polygon id="Fill-97" fill="#760519" points="25.7226564 32.2330348 25.5064564 32.2330348 26.1642564 37.1128319 26.3787836 37.1128319"></polygon>
                    <polygon id="Fill-99" fill="#760519" points="26.8465618 32.2330348 26.6173982 32.2330348 27.4625436 37.1128319 27.6917073 37.1128319"></polygon>
                    <path d="M16.6272018,38.2094717 C15.4859836,38.2094717 14.6885109,39.422165 14.6885109,41.1581294 L14.6885109,43.9810169 L14.6885109,44.8256538 L15.5094018,44.9997971 L17.4727655,45.4174886 L18.7235473,45.6837511 L18.7235473,44.3987084 L18.7235473,41.4841222 C18.7235473,40.0644761 18.14562,38.4404008 16.8764382,38.2300829 C16.7928018,38.2153606 16.7095836,38.2094717 16.6272018,38.2094717" id="Fill-101" fill="#9F9FA0"></path>
                    <path d="M16.6525436,39.1895534 C16.0649982,39.1895534 15.6543436,40.0123172 15.6543436,41.1875739 L15.6543436,44.1711444 L17.7301982,44.6043994 L17.7301982,41.4096697 C17.7301982,40.448096 17.4328709,39.3464506 16.7800891,39.203855 C16.7378527,39.1941804 16.6943618,39.1895534 16.6525436,39.1895534" id="Fill-103" fill="#FEFEFE"></path>
                    <path d="M28.9447891,38.2094717 L28.9447891,38.2094717 C28.8636618,38.2094717 28.7800255,38.2153606 28.6963891,38.2300829 C27.4280436,38.4404008 26.84928,40.0644761 26.84928,41.4841222 L26.84928,44.3987084 L26.84928,45.6837511 L28.1000618,45.4174886 L30.0638436,44.9997971 L30.8843164,44.8256538 L30.8843164,43.9810169 L30.8843164,41.1581294 C30.8843164,39.422165 30.0868436,38.2094717 28.9447891,38.2094717" id="Fill-105" fill="#9F9FA0"></path>
                    <path d="M28.9202836,39.1895534 L28.9202836,39.1895534 C28.8776291,39.1895534 28.8353927,39.1941804 28.7927382,39.203855 C28.1403745,39.3464506 27.8422109,40.448096 27.8422109,41.4096697 L27.8422109,44.6043994 L29.9184836,44.1711444 L29.9184836,41.1875739 C29.9184836,40.0123172 29.5078291,39.1895534 28.9202836,39.1895534" id="Fill-107" fill="#FEFEFE"></path>
                    <path d="M26.1204309,45.6835408 L19.7569582,45.6835408 L19.7569582,41.4161895 C19.7569582,39.6520426 21.1842127,38.2151503 22.9380673,38.2151503 C24.6927582,38.2151503 26.1204309,39.6520426 26.1204309,41.4161895 L26.1204309,45.6835408 Z" id="Fill-109" fill="#9F9FA0"></path>
                    <path d="M20.9756655,44.6102041 L24.9011382,44.6102041 L24.9011382,41.2644662 C24.9011382,40.1758604 24.0204473,39.2900012 22.9377745,39.2900012 C21.85552,39.2900012 20.9756655,40.1758604 20.9756655,41.2644662 L20.9756655,44.6102041 Z" id="Fill-111" fill="#FEFEFE"></path>
                    <polygon id="Fill-113" fill="#89212E" points="11.6457782 47.8265545 16.7940145 49.7774638 18.4324509 44.7121663 14.3907236 43.8822516"></polygon>
                    <polygon id="Fill-115" fill="#C30F23" points="17.3435055 44.4912483 15.1835964 49.16241 15.4123418 49.2562118 17.5739236 44.5328913"></polygon>
                    <polygon id="Fill-117" fill="#C30F23" points="16.0885836 44.2355437 13.7308745 48.6210937 13.9270018 48.693443 16.2897291 44.2742422"></polygon>
                    <polygon id="Fill-119" fill="#C30F23" points="14.9908564 44.0160139 12.4859473 48.1445552 12.6632564 48.2093332 15.1719291 44.0492441"></polygon>
                    <polygon id="Fill-121" fill="#89212E" points="34.0687709 47.8337474 28.9213709 49.7838154 27.2820982 44.7176766 31.3238255 43.8894445"></polygon>
                    <polygon id="Fill-123" fill="#C30F23" points="28.37142 44.4984412 30.5300745 49.168341 30.30342 49.2625634 28.1401655 44.5388222"></polygon>
                    <polygon id="Fill-125" fill="#C30F23" points="29.6259655 44.2425263 31.9836745 48.6268143 31.7883836 48.7000049 29.42482 44.2812248"></polygon>
                    <polygon id="Fill-127" fill="#C30F23" points="30.7236927 44.0231647 33.2273473 48.1508648 33.0512927 48.2160633 30.5430382 44.0538711"></polygon>
                    <polygon id="Fill-129" fill="#C30F23" points="28.9415273 49.7773376 16.7540364 49.7773376 18.3820182 44.7032067 27.3148 44.7032067"></polygon>
                    <polygon id="Fill-131" fill="#760519" points="18.8667745 44.7032067 18.6543382 44.7032067 18.1659018 49.7773376 18.3783382 49.7773376"></polygon>
                    <polygon id="Fill-133" fill="#760519" points="20.0253473 44.7032067 19.82002 44.7032067 19.5272927 49.7773376 19.7313655 49.7773376"></polygon>
                    <polygon id="Fill-135" fill="#760519" points="21.1851745 44.7032067 20.9844473 44.7032067 20.8853382 49.7773376 21.0885745 49.7773376"></polygon>
                    <polygon id="Fill-137" fill="#760519" points="22.3482218 44.7032067 22.1454036 44.7032067 22.24284 49.7773376 22.44524 49.7773376"></polygon>
                    <polygon id="Fill-139" fill="#760519" points="23.5108927 44.7032067 23.3055655 44.7032067 23.5982927 49.7773376 23.8044564 49.7773376"></polygon>
                    <polygon id="Fill-141" fill="#760519" points="24.67762 44.7032067 24.4643473 44.7032067 24.9523655 49.7773376 25.1648018 49.7773376"></polygon>
                    <polygon id="Fill-143" fill="#760519" points="25.8447655 44.7032067 25.62062 44.7032067 26.3043473 49.7773376 26.5280745 49.7773376"></polygon>
                    <polygon id="Fill-145" fill="#760519" points="27.0135836 44.7032067 26.7748018 44.7032067 27.6534018 49.7773376 27.8926018 49.7773376"></polygon>
                    <path d="M16.3752473,49.9815143 C15.1888655,49.9815143 14.3600291,51.2425807 14.3600291,53.0475294 L14.3600291,55.9827267 L14.3600291,56.8610145 L15.2135382,57.0414673 L17.25552,57.4759842 L18.5556473,57.7527626 L18.5556473,56.416823 L18.5556473,53.3861413 C18.5556473,51.9101299 17.9538836,50.222118 16.6349382,50.0029667 C16.5475382,49.9874032 16.4613927,49.9815143 16.3752473,49.9815143" id="Fill-147" fill="#9F9FA0"></path>
                    <path d="M16.4025964,51.0008413 C15.7907964,51.0008413 15.3642509,51.8555734 15.3642509,53.078362 L15.3642509,56.1805518 L17.5224873,56.6306322 L17.5224873,53.3088705 C17.5224873,52.3090189 17.2130327,51.1636274 16.5343236,51.0159842 C16.4899964,51.0054683 16.4460873,51.0008413 16.4025964,51.0008413" id="Fill-149" fill="#FEFEFE"></path>
                    <path d="M29.1836964,49.9815143 L29.1836964,49.9815143 C29.0983873,49.9815143 29.0122418,49.9874032 28.9248418,50.0029667 C27.6058964,50.222118 27.0041327,51.9101299 27.0041327,53.3861413 L27.0041327,56.416823 L27.0041327,57.7527626 L28.3038418,57.4759842 L30.3462418,57.0414673 L31.2001691,56.8610145 L31.2001691,55.9827267 L31.2001691,53.0475294 C31.2001691,51.2425807 30.3709145,49.9815143 29.1836964,49.9815143" id="Fill-151" fill="#9F9FA0"></path>
                    <path d="M29.1571418,51.0008413 L29.1571418,51.0008413 C29.1136509,51.0008413 29.0697418,51.0054683 29.0254145,51.0159842 C28.3454509,51.1636274 28.0359964,52.3090189 28.0359964,53.3088705 L28.0359964,56.6306322 L30.1946509,56.1805518 L30.1946509,53.078362 C30.1946509,51.8555734 29.7676873,51.0008413 29.1571418,51.0008413" id="Fill-153" fill="#FEFEFE"></path>
                    <path d="M26.24622,57.7528047 L19.6297473,57.7528047 L19.6297473,53.3159372 C19.6297473,51.4811233 21.1142927,49.9874453 22.9371473,49.9874453 C24.7616745,49.9874453 26.24622,51.4811233 26.24622,53.3159372 L26.24622,57.7528047 Z" id="Fill-155" fill="#9F9FA0"></path>
                    <path d="M20.8972564,56.6367314 L24.9791291,56.6367314 L24.9791291,53.1576519 C24.9791291,52.0261413 24.0628927,51.1049487 22.9371473,51.1049487 C21.8122382,51.1049487 20.8972564,52.0261413 20.8972564,53.1576519 L20.8972564,56.6367314 Z" id="Fill-157" fill="#FEFEFE"></path>
                    <polygon id="Fill-159" fill="#89212E" points="11.1969855 59.9814599 16.5488764 62.0093455 18.2533855 56.7434047 14.05024 55.8802598"></polygon>
                    <polygon id="Fill-161" fill="#C30F23" points="17.1209491 56.5132748 14.8748945 61.3690956 15.1124218 61.4666832 17.3597309 56.5570209"></polygon>
                    <polygon id="Fill-163" fill="#C30F23" points="15.8149673 56.2473067 13.3644218 60.8065792 13.5680764 60.8827143 16.0253127 56.2876877"></polygon>
                    <polygon id="Fill-165" fill="#C30F23" points="14.6743345 56.019322 12.0698982 60.3114908 12.2538982 60.3792132 14.8620982 56.0525523"></polygon>
                    <polygon id="Fill-167" fill="#89212E" points="34.5106218 59.9886527 29.1587309 62.0165384 27.4542218 56.7480737 31.6565309 55.8874527"></polygon>
                    <polygon id="Fill-169" fill="#C30F23" points="28.58624 56.5214772 30.8318764 61.3764568 30.5956036 61.4736237 28.34704 56.5631201"></polygon>
                    <polygon id="Fill-171" fill="#C30F23" points="29.8918455 56.2544996 32.3419727 60.8133515 32.1391545 60.8886453 29.6815 56.2948806"></polygon>
                    <polygon id="Fill-173" fill="#C30F23" points="31.0332727 56.0265149 33.6364545 60.3174217 33.4528727 60.3859854 30.8455091 56.0584832"></polygon>
                    <polygon id="Fill-175" fill="#C30F23" points="29.17964 62.0092614 16.5074764 62.0092614 18.2002764 56.7340666 27.4885127 56.7340666"></polygon>
                    <polygon id="Fill-177" fill="#760519" points="18.7042273 56.7340666 18.4842636 56.7340666 17.9757545 62.0092614 18.1961364 62.0092614"></polygon>
                    <polygon id="Fill-179" fill="#760519" points="19.9089673 56.7340666 19.6952764 56.7340666 19.3904218 62.0092614 19.6036945 62.0092614"></polygon>
                    <polygon id="Fill-181" fill="#760519" points="21.11492 56.7340666 20.9062473 56.7340666 20.8037927 62.0092614 21.0141382 62.0092614"></polygon>
                    <polygon id="Fill-183" fill="#760519" points="22.3229218 56.7340666 22.1134127 56.7340666 22.2146127 62.0092614 22.4253764 62.0092614"></polygon>
                    <polygon id="Fill-185" fill="#760519" points="23.5329309 56.7340666 23.31924 56.7340666 23.6240945 62.0092614 23.8377855 62.0092614"></polygon>
                    <polygon id="Fill-187" fill="#760519" points="24.7458255 56.7340666 24.5246073 56.7340666 25.03228 62.0092614 25.2526618 62.0092614"></polygon>
                    <polygon id="Fill-189" fill="#760519" points="25.9599327 56.7340666 25.7265873 56.7340666 26.4374964 62.0092614 26.6700055 62.0092614"></polygon>
                    <polygon id="Fill-191" fill="#760519" points="27.1744582 56.7340666 26.9264764 56.7340666 27.84104 62.0092614 28.08944 62.0092614"></polygon>
                    <path d="M16.1261364,62.3119931 C14.8937545,62.3119931 14.0323,63.6218533 14.0323,65.4953656 L14.0323,68.5428727 L14.0323,69.4548113 L14.9196818,69.6436769 L17.0411182,70.0937573 L18.3897545,70.3810516 L18.3897545,68.994215 L18.3897545,65.8465966 C18.3897545,64.3150612 17.7649909,62.5614302 16.3954455,62.3347074 C16.3055364,62.317882 16.2160455,62.3119931 16.1261364,62.3119931" id="Fill-193" fill="#9F9FA0"></path>
                    <path d="M16.1539036,63.3711963 C15.5195218,63.3711963 15.0754127,64.2578968 15.0754127,65.5286379 L15.0754127,68.7486057 L17.3177036,69.2150909 L17.3177036,65.7671384 C17.3177036,64.7285884 16.9961218,63.5386094 16.2906491,63.385498 C16.2454855,63.3758233 16.1990673,63.3711963 16.1539036,63.3711963" id="Fill-195" fill="#FEFEFE"></path>
                    <path d="M29.4254473,62.3119931 L29.4254473,62.3119931 C29.3376291,62.3119931 29.2473018,62.317882 29.1569745,62.3347074 C27.7870109,62.5614302 27.1626655,64.3150612 27.1626655,65.8465966 L27.1626655,68.994215 L27.1626655,70.3810516 L28.5129745,70.0937573 L30.6331564,69.6436769 L31.5192836,69.4548113 L31.5192836,68.5428727 L31.5192836,65.4953656 C31.5192836,63.6218533 30.6590836,62.3119931 29.4254473,62.3119931" id="Fill-197" fill="#9F9FA0"></path>
                    <path d="M29.3993109,63.3711963 L29.3993109,63.3711963 C29.3537291,63.3711963 29.3073109,63.3758233 29.2608927,63.385498 C28.5550018,63.5386094 28.2342564,64.7285884 28.2342564,65.7671384 L28.2342564,69.2150909 L30.4757109,68.7486057 L30.4757109,65.5286379 C30.4757109,64.2578968 30.0328564,63.3711963 29.3993109,63.3711963" id="Fill-199" fill="#FEFEFE"></path>
                    <path d="M26.3756891,70.3809254 L19.5057982,70.3809254 L19.5057982,65.774121 C19.5057982,63.8686404 21.0472164,62.3181764 22.9390709,62.3181764 C24.8338527,62.3181764 26.3756891,63.8686404 26.3756891,65.774121 L26.3756891,70.3809254 Z" id="Fill-201" fill="#9F9FA0"></path>
                    <path d="M20.8216909,69.2223259 L25.0603818,69.2223259 L25.0603818,65.6094841 C25.0603818,64.4350687 24.1086,63.478122 22.9389455,63.478122 C21.7718,63.478122 20.8216909,64.4350687 20.8216909,65.6094841 L20.8216909,69.2223259 Z" id="Fill-203" fill="#FEFEFE"></path>
                    <polygon id="Fill-205" fill="#89212E" points="10.7481509 72.6950118 16.3066236 74.8011357 18.0759509 69.3337103 13.7122236 68.4373351"></polygon>
                    <polygon id="Fill-207" fill="#C30F23" points="16.9004418 69.0939478 14.5682418 74.136531 14.8137145 74.2374836 17.1484236 69.1389558"></polygon>
                    <polygon id="Fill-209" fill="#C30F23" points="15.5441945 68.8185154 12.99914 73.5523518 13.2119945 73.6305901 15.7620673 68.8601584"></polygon>
                    <polygon id="Fill-211" fill="#C30F23" points="14.3599036 68.5811085 11.6555218 73.0381665 11.8457945 73.1084127 14.5551945 68.6156006"></polygon>
                    <polygon id="Fill-213" fill="#89212E" points="34.9574073 72.7034665 29.4006073 74.8083286 27.6304436 69.3396412 31.9937527 68.444528"></polygon>
                    <polygon id="Fill-215" fill="#C30F23" points="28.8059527 69.1021502 31.1377345 74.1447334 30.8922618 74.245686 28.5562982 69.1458963"></polygon>
                    <polygon id="Fill-217" fill="#C30F23" points="30.1605691 68.825498 32.7060418 73.5593344 32.4952782 73.6375727 29.9435327 68.8671409"></polygon>
                    <polygon id="Fill-219" fill="#C30F23" points="31.3460727 68.5880911 34.0504545 73.0438872 33.8593455 73.1153953 31.1507818 68.6213213"></polygon>
                    <polygon id="Fill-221" fill="#C30F23" points="29.4213909 74.801304 16.2628818 74.801304 18.0205 69.3233626 27.6658636 69.3233626"></polygon>
                    <polygon id="Fill-223" fill="#760519" points="18.5445655 69.3231523 18.31582 69.3231523 17.7876564 74.8010937 18.01682 74.8010937"></polygon>
                    <polygon id="Fill-225" fill="#760519" points="19.7954309 69.3231523 19.5737945 69.3231523 19.2580673 74.8010937 19.4784491 74.8010937"></polygon>
                    <polygon id="Fill-227" fill="#760519" points="21.0483455 69.3231523 20.8304727 69.3231523 20.7246727 74.8010937 20.9425455 74.8010937"></polygon>
                    <polygon id="Fill-229" fill="#760519" points="22.3024727 69.3231523 22.0846 69.3231523 22.1895636 74.8010937 22.4082727 74.8010937"></polygon>
                    <polygon id="Fill-231" fill="#760519" points="23.5582727 69.3231523 23.3366364 69.3231523 23.6536182 74.8010937 23.8752545 74.8010937"></polygon>
                    <polygon id="Fill-233" fill="#760519" points="24.8181291 69.3231523 24.5885473 69.3231523 25.11462 74.8010937 25.3454564 74.8010937"></polygon>
                    <polygon id="Fill-235" fill="#760519" points="26.0783618 69.3231523 25.8358164 69.3231523 26.5743255 74.8010937 26.8160345 74.8010937"></polygon>
                    <polygon id="Fill-237" fill="#760519" points="27.3398491 69.3231523 27.0826673 69.3231523 28.0315218 74.8010937 28.28954 74.8010937"></polygon>
                    <polygon id="Fill-239" fill="#A94E47" points="44.6703073 85.1093233 35.8236709 85.1093233 30.53158 79.5258023 15.1742709 79.5258023 9.88218 85.1093233 0.831052727 85.1093233 0.831052727 84.0775034 9.37659818 84.0775034 14.6695255 78.4944031 31.03758 78.4944031 36.3292527 84.0775034 44.6703073 84.0775034"></polygon>
                    <path d="M16.3817709,77.2369962 C16.3817709,77.750172 15.9686073,78.1661809 15.4584255,78.1661809 C14.9482436,78.1661809 14.5354982,77.750172 14.5354982,77.2369962 C14.5354982,76.724241 14.9482436,76.3090734 15.4584255,76.3090734 C15.9686073,76.3090734 16.3817709,76.724241 16.3817709,77.2369962" id="Fill-241" fill="#A94E47"></path>
                    <path d="M14.4787091,85.2703427 L14.4787091,78.8287245 C14.4787091,78.2831597 14.9161273,77.8419127 15.4585091,77.8419127 C16.0000545,77.8419127 16.4391455,78.2831597 16.4391455,78.8287245 L16.4391455,85.2703427 L14.4787091,85.2703427 Z" id="Fill-243" fill="#A94E47"></path>
                    <path d="M31.2060236,77.2369962 C31.2060236,77.750172 30.79286,78.1661809 30.2826782,78.1661809 C29.7724964,78.1661809 29.3597509,77.750172 29.3597509,77.2369962 C29.3597509,76.724241 29.7724964,76.3090734 30.2826782,76.3090734 C30.79286,76.3090734 31.2060236,76.724241 31.2060236,77.2369962" id="Fill-245" fill="#A94E47"></path>
                    <path d="M29.3029618,85.2703427 L29.3029618,78.8287245 C29.3029618,78.2831597 29.7412164,77.8419127 30.2827618,77.8419127 C30.8243073,77.8419127 31.2633982,78.2831597 31.2633982,78.8287245 L31.2633982,85.2703427 L29.3029618,85.2703427 Z" id="Fill-247" fill="#A94E47"></path>
                    <path d="M37.5481691,82.7387455 C37.5481691,83.2519213 37.1350055,83.6679302 36.6252418,83.6679302 C36.1146418,83.6679302 35.7014782,83.2519213 35.7014782,82.7387455 C35.7014782,82.2259904 36.1146418,81.8108227 36.6252418,81.8108227 C37.1350055,81.8108227 37.5481691,82.2259904 37.5481691,82.7387455" id="Fill-249" fill="#A94E47"></path>
                    <path d="M35.6446891,90.772092 L35.6446891,84.3304738 C35.6446891,83.7849091 36.0829436,83.343662 36.6253255,83.343662 C37.1668709,83.343662 37.6059618,83.7849091 37.6059618,84.3304738 L37.6059618,90.772092 L35.6446891,90.772092 Z" id="Fill-251" fill="#A94E47"></path>
                    <path d="M45.3968145,82.7387455 C45.3968145,83.2519213 44.9828145,83.6679302 44.4730509,83.6679302 C43.9632873,83.6679302 43.5497055,83.2519213 43.5497055,82.7387455 C43.5497055,82.2259904 43.9632873,81.8108227 44.4730509,81.8108227 C44.9828145,81.8108227 45.3968145,82.2259904 45.3968145,82.7387455" id="Fill-253" fill="#A94E47"></path>
                    <path d="M43.4929582,90.772092 L43.4929582,84.3304738 C43.4929582,83.7849091 43.9307945,83.343662 44.4731764,83.343662 C45.0147218,83.343662 45.4538127,83.7849091 45.4538127,84.3304738 L45.4538127,90.772092 L43.4929582,90.772092 Z" id="Fill-255" fill="#A94E47"></path>
                    <path d="M2.03290727,82.7387455 C2.03290727,83.2519213 1.61974364,83.6679302 1.10956182,83.6679302 C0.59938,83.6679302 0.187052727,83.2519213 0.187052727,82.7387455 C0.187052727,82.2259904 0.59938,81.8108227 1.10956182,81.8108227 C1.61974364,81.8108227 2.03290727,82.2259904 2.03290727,82.7387455" id="Fill-257" fill="#A94E47"></path>
                    <path d="M0.129845455,90.772092 L0.129845455,84.3304738 C0.129845455,83.7849091 0.567681818,83.343662 1.10964545,83.343662 C1.65119091,83.343662 2.0907,83.7849091 2.0907,84.3304738 L2.0907,90.772092 L0.129845455,90.772092 Z" id="Fill-259" fill="#A94E47"></path>
                    <path d="M9.88117636,82.7387455 C9.88117636,83.2519213 9.46717636,83.6679302 8.95783091,83.6679302 C8.44764909,83.6679302 8.03406727,83.2519213 8.03406727,82.7387455 C8.03406727,82.2259904 8.44764909,81.8108227 8.95783091,81.8108227 C9.46717636,81.8108227 9.88117636,82.2259904 9.88117636,82.7387455" id="Fill-261" fill="#A94E47"></path>
                    <path d="M7.97732,90.772092 L7.97732,84.3304738 C7.97732,83.7849091 8.41557455,83.343662 8.95795636,83.343662 C9.50033818,83.343662 9.93859273,83.7849091 9.93859273,84.3304738 L9.93859273,90.772092 L7.97732,90.772092 Z" id="Fill-263" fill="#A94E47"></path>
                    <g id="Group-267">
                        <mask id="mask-2" fill="white">
                            <use xlink:href="#path-1"></use>
                        </mask>
                        <g id="Clip-266"></g>
                        <path d="M15.8255891,94.109249 C15.8255891,90.8181937 18.4781164,88.1492589 21.7516436,88.1492589 L23.9542073,88.1492589 C27.2268982,88.1492589 29.8798436,90.8181937 29.8798436,94.109249 L29.8798436,98.849395 L45.7055164,98.849395 L45.7055164,89.6967784 L35.5637709,89.6967784 L31.29748,84.1132575 L14.4087891,84.1132575 L10.14208,89.6967784 L-8.36363638e-05,89.6967784 L-8.36363638e-05,98.849395 L15.8255891,98.849395 L15.8255891,94.109249 Z" id="Fill-265" fill="#DBDADB" mask="url(#mask-2)"></path>
                    </g>
                    <mask id="mask-4" fill="white">
                        <use xlink:href="#path-3"></use>
                    </mask>
                    <g id="Clip-269"></g>
                    <polygon id="Fill-268" fill="#C8C9CA" mask="url(#mask-4)" points="1.85505455 92.3156996 5.22852727 92.3156996 5.22852727 90.8905852 1.85505455 90.8905852"></polygon>
                    <polygon id="Fill-270" fill="#EEEEEF" mask="url(#mask-4)" points="3.74816364 94.0175925 7.12163636 94.0175925 7.12163636 92.592478 3.74816364 92.592478"></polygon>
                    <polygon id="Fill-271" fill="#C8C9CA" mask="url(#mask-4)" points="32.8854 95.6854138 36.2592909 95.6854138 36.2592909 94.2602994 32.8854 94.2602994"></polygon>
                    <polygon id="Fill-272" fill="#EEEEEF" mask="url(#mask-4)" points="34.7785091 97.3868861 38.1524 97.3868861 38.1524 95.9621923 34.7785091 95.9621923"></polygon>
                    <polygon id="Fill-273" fill="#C8C9CA" mask="url(#mask-4)" points="23.6143091 86.0238278 26.1024909 86.0238278 26.1024909 84.972238 23.6143091 84.972238"></polygon>
                    <polygon id="Fill-274" fill="#EEEEEF" mask="url(#mask-4)" points="25.0114545 87.2785847 27.4992182 87.2785847 27.4992182 86.2274156 25.0114545 86.2274156"></polygon>
                    <polygon id="Fill-275" fill="#C8C9CA" mask="url(#mask-4)" points="12.4045273 96.1321292 14.8927091 96.1321292 14.8927091 95.08096 12.4045273 95.08096"></polygon>
                    <polygon id="Fill-276" fill="#EEEEEF" mask="url(#mask-4)" points="11.0082182 97.3868861 13.4959818 97.3868861 13.4959818 96.3361376 11.0082182 96.3361376"></polygon>
                    <polygon id="Fill-277" fill="#EEEEEF" mask="url(#mask-4)" points="42.6127273 91.927032 45.1017455 91.927032 45.1017455 90.8758629 42.6127273 90.8758629"></polygon>
                    <polygon id="Fill-278" fill="#C8C9CA" mask="url(#mask-4)" points="41.2172545 93.1822096 43.7046 93.1822096 43.7046 92.1310405 41.2172545 92.1310405"></polygon>
                </g>
            </g>
        </g>
    </g>
</svg>