<?xml version="1.0" encoding="UTF-8"?>
<svg width="91px" height="59px" viewBox="0 0 91 59" version="1.1" xmlns="http://www.w3.org/2000/svg" xmlns:xlink="http://www.w3.org/1999/xlink">
    <!-- Generator: Sketch 41.1 (35376) - http://www.bohemiancoding.com/sketch -->
    <title>img_cloud_mirror</title>
    <desc>Created with Sketch.</desc>
    <defs></defs>
    <g id="Page-1" stroke="none" stroke-width="1" fill="none" fill-rule="evenodd">
        <g id="Artboard" transform="translate(-296.000000, -429.000000)" fill="#FFFFFF">
            <path d="M346.634218,467.787174 C344.267365,468.918718 342.084985,470.295676 339.703308,471.031921 C333.689821,472.891473 327.985986,471.893343 323.346163,467.596113 C316.976907,461.697922 317.741152,449.875187 324.563355,444.454648 C328.511404,441.318609 333.737587,441.419081 337.539046,444.708299 C341.06709,447.75869 341.05556,453.520173 337.509398,456.046793 C336.353149,456.870332 334.967955,457.361162 334.011002,456.097852 C333.044166,454.819719 334.172416,453.968179 335.124428,453.022755 C335.840907,452.311217 336.456915,451.016613 336.361384,450.058012 C336.015498,446.587616 331.309792,444.675357 328.000809,446.510203 C322.631331,449.483182 320.961192,458.937417 324.929007,463.880302 C330.482958,470.794741 342.763582,469.093308 346.808808,460.877676 C349.549548,455.312195 349.185544,449.687419 347.235402,444.029702 C345.83209,439.96471 343.206646,436.934084 339.344245,434.975707 C333.526761,432.025788 327.534686,431.95661 321.570612,434.211462 C315.860188,436.37243 312.267908,440.462128 311.044128,446.635381 C309.815407,452.830047 311.119893,458.645884 313.112859,464.412309 C313.821103,466.462922 313.173801,467.41164 310.999657,467.309521 C309.817054,467.253521 308.614686,467.115166 307.451848,467.263403 C305.23982,467.545054 302.994851,467.93047 301.637658,470.023908 C299.799517,472.856884 300.440231,478.94449 302.854849,481.284989 C303.44121,481.853232 304.220278,482.419827 304.989464,482.56477 C307.170197,482.97654 309.392107,483.406428 311.599193,483.413016 C331.425087,483.475605 351.252628,483.477252 371.080169,483.414663 C373.423963,483.406428 375.803993,483.081953 378.098374,482.584535 C382.665725,481.59464 384.424806,477.672944 382.318192,473.55854 C380.664524,470.328618 375.220927,469.269546 373.058312,471.862049 C372.183713,472.911238 371.188877,473.731484 370.136393,472.896414 C369.513797,472.402291 369.462738,470.952861 369.480855,469.93826 C369.513797,468.114943 370.067216,466.273508 369.917331,464.479839 C369.319442,457.303514 361.428285,453.078756 355.011263,456.361385 C349.992613,458.930829 349.180603,464.967374 351.003919,469.134485 C352.408878,472.34629 355.189148,473.359244 358.274128,471.731929 C359.28214,471.198276 360.164975,469.710963 360.352742,468.53989 C360.540509,467.368816 359.968972,466.037976 358.198362,465.767855 C357.598825,465.677266 356.742344,464.478192 356.783521,463.834184 C356.821404,463.269236 357.890358,462.429225 358.601896,462.31393 C360.566862,461.996043 362.538416,463.481709 363.394897,465.596559 C365.51963,470.850742 362.624064,475.309386 356.630342,476.009394 C351.726987,476.580931 347.993058,473.507481 346.634218,467.787174 M352.725117,453.198993 C357.88377,450.924376 362.665241,451.019907 367.389065,453.925355 C372.261125,456.919745 373.654554,461.554626 373.814321,466.966929 C377.444484,466.321274 380.679348,466.89281 383.37397,469.195427 C386.230005,471.636399 387.379666,474.856439 386.730717,478.549191 C386.020826,482.59277 383.33444,485.076566 379.518157,486.030225 C376.678592,486.740116 373.679261,487.114003 370.749106,487.12718 C350.590503,487.217769 330.430251,487.207887 310.27,487.143651 C306.575602,487.133768 302.711553,486.835647 300.179992,483.714431 C298.79974,482.014646 297.711021,479.779559 297.315722,477.635062 C296.314297,472.198053 296.936893,467.625761 301.626128,465.252319 C303.729448,464.186659 306.185244,463.822654 308.647627,463.091351 C308.267152,461.243328 307.746675,459.049418 307.372788,456.829155 C306.410894,451.130261 306.687603,445.538427 309.326224,440.277655 C312.648383,433.654749 318.51528,430.484122 325.451131,429.37399 C331.117084,428.468096 336.743507,429.145046 341.882394,432.096612 C348.138001,435.688892 351.018743,441.409199 352.087698,448.26599 C352.329818,449.815892 352.492879,451.37897 352.725117,453.198993" id="img_cloud_mirror" transform="translate(341.906871, 458.096751) scale(-1, 1) translate(-341.906871, -458.096751) "></path>
        </g>
    </g>
</svg>