<?xml version="1.0" encoding="UTF-8"?>
<svg width="346px" height="501px" viewBox="0 0 346 501" version="1.1" xmlns="http://www.w3.org/2000/svg" xmlns:xlink="http://www.w3.org/1999/xlink">
    <!-- Generator: Sketch 41.1 (35376) - http://www.bohemiancoding.com/sketch -->
    <title>img_billboard</title>
    <desc>Created with Sketch.</desc>
    <defs>
        <polygon id="path-1" points="0 306.583 345.11 306.583 345.11 0 0 0"></polygon>
    </defs>
    <g id="Page-1" stroke="none" stroke-width="1" fill="none" fill-rule="evenodd">
        <g id="Artboard-2" transform="translate(-26.000000, -21.000000)">
            <g id="img_billboard" transform="translate(26.000000, 20.000000)">
                <g id="Page-1" transform="translate(132.000000, 0.000000)">
                    <polygon id="Fill-1" fill="#EEA74E" points="18.9287 17.1259 16.9947 15.2409 16.6457 9.6709 18.9287 6.0179 23.2357 5.6309 25.5657 7.3299 24.7737 11.0599 28.6477 10.3319 31.4987 11.3779 32.4397 14.2429 35.1787 16.3159 36.2717 19.2989 33.5067 21.8849 30.0697 21.8849 26.6327 18.0349"></polygon>
                    <g id="Group-17" transform="translate(0.000000, 0.660000)">
                        <path d="M32.3252,27.985 L28.9712,19.686 L25.1322,17.02 L18.3892,17.02 L14.7552,21.225 L13.3682,30.13 L14.9292,43.398 L21.1582,54.482 L31.4832,60.857 L42.2762,62.266 C42.2762,62.266 29.2492,58.421 27.8222,48.623 C26.3952,38.826 33.1692,32.347 33.1692,32.347 L32.3252,27.985 Z" id="Fill-2" fill="#E04444"></path>
                        <path d="M33.0254,35.9943 C32.9534,36.1613 32.8724,36.3213 32.8064,36.4933 C30.5964,42.3873 33.7574,49.0223 39.8674,51.3143 C45.9764,53.6053 52.7214,50.6853 54.9314,44.7913 C54.9964,44.6193 55.0414,44.4453 55.0954,44.2713 L33.0254,35.9943 Z" id="Fill-4" fill="#00A158"></path>
                        <g id="Group-8" transform="translate(6.000000, 0.000000)" fill="#2D313A">
                            <path d="M54.8438,71.2828 L53.1848,71.2828 C52.5208,71.2828 51.9838,71.8208 51.9838,72.4838 C51.9838,73.1478 52.5208,73.6848 53.1848,73.6848 L54.8438,73.6848 C55.5068,73.6848 56.0448,73.1478 56.0448,72.4838 C56.0448,71.8208 55.5068,71.2828 54.8438,71.2828 L54.8438,71.2828 Z M72.6058,6.7598 L72.9478,6.9788 C73.1488,7.1068 73.3718,7.1678 73.5938,7.1678 C73.9898,7.1678 74.3778,6.9718 74.6068,6.6138 C74.9638,6.0548 74.8008,5.3128 74.2418,4.9548 L73.8998,4.7358 C73.3428,4.3788 72.5988,4.5418 72.2408,5.1008 C71.8838,5.6588 72.0468,6.4018 72.6058,6.7598 L72.6058,6.7598 Z M71.9358,32.1468 L71.5408,32.1468 C70.8768,32.1468 70.3398,32.6848 70.3398,33.3478 C70.3398,34.0118 70.8768,34.5498 71.5408,34.5498 L71.9358,34.5498 C72.5998,34.5498 73.1368,34.0118 73.1368,33.3478 C73.1368,32.6848 72.5998,32.1468 71.9358,32.1468 L71.9358,32.1468 Z M73.5948,20.5228 L73.3318,20.5228 C72.6678,20.5228 72.1298,21.0608 72.1298,21.7238 C72.1298,22.3878 72.6678,22.9258 73.3318,22.9258 L73.5948,22.9258 C74.2588,22.9258 74.7958,22.3878 74.7958,21.7238 C74.7958,21.0608 74.2588,20.5228 73.5948,20.5228 L73.5948,20.5228 Z M74.5858,12.2038 L74.0058,11.9928 C73.3818,11.7658 72.6948,12.0868 72.4668,12.7098 C72.2398,13.3338 72.5618,14.0228 73.1838,14.2498 L73.7638,14.4608 C73.8998,14.5108 74.0378,14.5338 74.1748,14.5338 C74.6648,14.5338 75.1248,14.2308 75.3028,13.7438 C75.5308,13.1198 75.2088,12.4308 74.5858,12.2038 L74.5858,12.2038 Z M38.1018,46.7488 L38.6778,46.9598 C38.8138,47.0098 38.9528,47.0328 39.0908,47.0328 C39.5798,47.0328 40.0398,46.7318 40.2188,46.2448 C40.4478,45.6228 40.1268,44.9318 39.5048,44.7038 L38.9288,44.4928 C38.3068,44.2648 37.6148,44.5838 37.3878,45.2068 C37.1588,45.8298 37.4798,46.5198 38.1018,46.7488 L38.1018,46.7488 Z M70.7068,20.4368 C55.4408,18.6328 52.4238,35.6238 52.3958,35.7958 C52.2858,36.4498 52.7268,37.0678 53.3808,37.1778 C53.4478,37.1888 53.5148,37.1948 53.5808,37.1948 C54.1568,37.1948 54.6638,36.7798 54.7648,36.1938 C54.8678,35.5848 57.4498,21.2868 70.4258,22.8218 C71.0878,22.8968 71.6818,22.4288 71.7588,21.7698 C71.8368,21.1108 71.3648,20.5138 70.7068,20.4368 L70.7068,20.4368 Z M71.0328,10.8558 C65.1868,8.3888 57.6108,9.9418 53.4098,14.4638 C48.1098,20.1728 47.5038,31.0368 47.4818,31.4968 C47.4478,32.1588 47.9568,32.7218 48.6188,32.7568 C48.6408,32.7568 48.6608,32.7578 48.6818,32.7578 C49.3168,32.7578 49.8478,32.2598 49.8798,31.6178 C49.8858,31.5138 50.4688,21.1628 55.1708,16.0978 C58.7178,12.2788 65.1358,10.9758 70.0998,13.0698 C70.7108,13.3258 71.4138,13.0398 71.6728,12.4288 C71.9308,11.8188 71.6438,11.1138 71.0328,10.8558 L71.0328,10.8558 Z M12.5148,20.5298 C11.8478,20.4658 11.2638,20.9398 11.1958,21.5988 C11.1258,22.2598 11.6048,22.8498 12.2648,22.9188 L15.6358,23.2698 C15.6788,23.2748 15.7198,23.2768 15.7618,23.2768 C16.3688,23.2768 16.8908,22.8178 16.9548,22.2008 C17.0238,21.5408 16.5448,20.9498 15.8848,20.8818 L12.5148,20.5298 Z M37.8148,63.8518 C37.4418,63.8658 37.0688,63.8758 36.6958,63.8758 C35.5548,63.8758 34.4218,63.8008 33.2988,63.6878 L33.6828,70.0408 C33.7098,70.4918 33.4818,70.9198 33.0928,71.1488 L32.8648,71.2828 L36.5138,71.2828 L38.8888,69.0638 L37.8148,63.8518 Z M12.6408,15.6428 C14.4668,15.0928 16.7048,15.1568 19.4298,15.8568 C21.7878,16.4618 23.5118,18.1998 24.7748,20.4118 C26.5038,20.0438 29.0708,19.0938 29.0708,17.6518 C29.0708,17.1798 28.8888,16.9558 28.7308,16.8148 C27.9578,16.1208 26.0638,16.0748 25.2648,16.1588 C24.8168,16.2128 24.3718,15.9978 24.1268,15.6158 C23.8808,15.2348 23.8698,14.7458 24.1018,14.3548 C24.1128,14.3358 25.3908,12.0948 24.2148,11.0388 C22.8808,9.8418 19.9658,11.4758 19.0488,12.1418 C18.5728,12.4898 17.9118,12.4388 17.4948,12.0228 C17.0768,11.6068 17.0228,10.9498 17.3658,10.4708 C17.3728,10.4608 18.4778,8.8558 18.1098,6.8908 C18.0158,6.3938 17.4078,5.9638 16.5598,5.7948 C15.2718,5.5418 13.5548,5.9108 12.6308,7.3258 C10.7888,10.1468 11.9348,13.9058 12.6408,15.6428 L12.6408,15.6428 Z M47.5568,44.9768 L27.7208,37.5378 C27.4478,38.4468 27.3188,39.3698 27.3118,40.2858 L36.2148,43.5448 C36.8378,43.7728 37.1568,44.4628 36.9298,45.0858 C36.7518,45.5718 36.2918,45.8738 35.8018,45.8738 C35.6648,45.8738 35.5258,45.8498 35.3898,45.8008 L27.6628,42.9718 C28.5188,46.1448 30.8948,48.9158 34.2888,50.1888 C36.9498,51.1868 39.8248,51.1268 42.3848,50.0198 C44.7218,49.0078 46.5368,47.2308 47.5568,44.9768 L47.5568,44.9768 Z M69.7398,33.3708 C69.7268,34.0348 69.1948,34.5608 68.5158,34.5488 C60.6328,34.4198 59.8918,38.1768 58.8978,43.4038 C58.6488,44.7138 58.3918,46.0668 57.9958,47.3878 C54.6578,58.5118 47.6408,62.7158 40.2268,63.6568 L41.3768,69.2388 C41.4608,69.6488 41.3258,70.0738 41.0208,70.3598 L40.0318,71.2828 L49.7078,71.2828 C50.3708,71.2828 50.9088,71.8208 50.9088,72.4838 C50.9088,73.1478 50.3708,73.6848 49.7078,73.6848 L6.4898,73.6848 C5.8258,73.6848 5.2878,73.1478 5.2878,72.4838 C5.2878,71.8208 5.8258,71.2828 6.4898,71.2828 L28.1278,71.2828 L31.2398,69.4508 L30.8738,63.3748 C30.1308,63.2538 29.3948,63.1198 28.6768,62.9658 C5.9528,58.0968 5.7698,35.2808 6.2548,28.4038 C6.3758,26.6878 6.5608,25.1858 6.8108,23.8608 C4.2328,23.1328 1.4098,21.7568 1.2738,21.6888 C0.8168,21.4648 0.5508,20.9768 0.6098,20.4708 C0.6678,19.9658 1.0398,19.5518 1.5358,19.4398 C4.0298,18.8738 6.8758,19.1118 8.3028,19.2938 C8.8908,18.2058 9.6098,17.3598 10.4788,16.7118 C9.6088,14.6448 8.0978,9.8758 10.6198,6.0118 C12.1558,3.6598 14.9438,3.0258 17.0298,3.4388 C18.8718,3.8058 20.1908,4.9598 20.4698,6.4478 C20.6208,7.2528 20.6128,8.0108 20.5188,8.6888 C22.1818,8.0918 24.2458,7.8398 25.8208,9.2518 C27.2418,10.5298 27.2958,12.3008 26.9148,13.7658 C28.0278,13.8658 29.3878,14.1758 30.3358,15.0278 C31.0788,15.6958 31.4728,16.6028 31.4728,17.6518 C31.4728,20.7708 27.9238,22.1138 25.8378,22.6328 C27.7338,27.3348 28.1248,33.0318 28.2048,35.1538 L36.6158,38.3088 C37.9558,37.8258 42.6148,35.8568 42.5028,31.8268 C42.4808,31.0368 42.4288,30.1388 42.3728,29.1608 C42.0178,22.9388 41.4818,13.5358 46.8358,7.5288 C52.4858,1.1938 63.4208,-2.3822 71.2378,2.8848 C71.7868,3.2548 71.9328,4.0018 71.5618,4.5518 C71.1928,5.1018 70.4458,5.2478 69.8958,4.8758 C63.1538,0.3318 53.6068,3.5448 48.6288,9.1278 C43.9358,14.3918 44.4388,23.1978 44.7718,29.0248 C44.8278,30.0278 44.8808,30.9498 44.9038,31.7608 C45.0148,35.7678 42.1238,38.1948 39.7888,39.4988 L49.5178,43.1478 C50.1178,43.3728 50.4358,44.0298 50.2398,44.6388 L50.1898,44.8018 C50.1498,44.9388 50.1078,45.0758 50.0568,45.2118 C48.8718,48.3708 46.4868,50.8618 43.3388,52.2238 C41.6848,52.9398 39.9238,53.2998 38.1528,53.2998 C36.5688,53.2998 34.9778,53.0128 33.4458,52.4378 C28.5328,50.5958 25.3638,46.1748 24.9598,41.3888 C24.9418,41.3058 24.9338,41.2208 24.9338,41.1348 C24.8268,39.4548 25.0578,37.7368 25.6828,36.0718 C25.7248,35.9598 25.7728,35.8548 25.8198,35.7488 C25.7458,31.1088 24.3828,19.6078 18.8318,18.1818 C16.1138,17.4848 14.0628,17.4958 12.5928,18.2198 C12.5898,18.2208 12.5888,18.2228 12.5858,18.2238 C12.5758,18.2288 12.5668,18.2318 12.5568,18.2368 C12.3518,18.3398 12.1558,18.4568 11.9738,18.5888 C10.0668,19.9638 9.0408,23.0428 8.6518,28.5728 C8.0728,36.7618 8.9168,56.2748 29.1808,60.6178 C43.3028,63.6428 51.9768,59.0908 55.6948,46.6978 C56.0548,45.4958 56.3008,44.2048 56.5378,42.9558 C57.5028,37.8828 58.5928,32.1438 68.0988,32.1438 C68.2508,32.1438 68.4048,32.1448 68.5618,32.1478 C69.2248,32.1598 69.7518,32.7078 69.7398,33.3708 L69.7398,33.3708 Z" id="Fill-6"></path>
                        </g>
                        <path d="M38,72.4777 L38,91.2137" id="Stroke-9" stroke="#2D313A" stroke-width="3"></path>
                        <path d="M41.8066,186.7408 L43.3776,188.3128 L43.3786,188.3128 C43.6486,188.5818 43.7966,188.9398 43.7966,189.3208 C43.7966,189.7008 43.6486,190.0588 43.3776,190.3288 C42.8236,190.8848 41.9176,190.8848 41.3626,190.3288 L39.7906,188.7568 L41.8066,186.7408 Z M35.8986,184.8648 L37.9136,182.8478 L39.9306,184.8648 L37.9136,186.8808 L35.8986,184.8648 Z M34.4656,190.3288 C33.9106,190.8848 33.0046,190.8848 32.4506,190.3288 C31.8946,189.7728 31.8946,188.8678 32.4506,188.3128 L34.0216,186.7408 L36.0376,188.7568 L34.4656,190.3288 Z M32.0056,180.9708 L34.0216,178.9558 L36.0376,180.9718 L34.0216,182.9878 L32.0056,180.9708 Z M32.4506,171.6148 C32.7276,171.3368 33.0926,171.1978 33.4576,171.1978 C33.8226,171.1978 34.1886,171.3368 34.4656,171.6148 L36.0376,173.1858 L34.0216,175.2028 L32.4506,173.6308 C31.8946,173.0748 31.8946,172.1708 32.4506,171.6148 L32.4506,171.6148 Z M37.9136,175.0628 L39.9306,177.0788 L37.9136,179.0948 L35.8976,177.0788 L37.9136,175.0628 Z M41.3626,171.6148 C41.9186,171.0578 42.8246,171.0598 43.3776,171.6148 C43.9346,172.1708 43.9346,173.0748 43.3776,173.6308 L41.8066,175.2028 L39.7906,173.1858 L41.3626,171.6148 Z M43.8236,180.9708 L41.8066,182.9878 L39.7906,180.9718 L41.8076,178.9558 L43.8236,180.9708 Z M26.0386,182.2848 C25.1836,182.2848 24.5896,181.9808 24.2226,181.3558 C24.0776,181.1068 24.0776,180.7858 24.2226,180.5378 C24.5896,179.9118 25.1836,179.6088 26.0386,179.6088 C27.3726,179.6088 28.2496,180.3788 28.7136,180.9468 C28.2496,181.5148 27.3726,182.2848 26.0386,182.2848 L26.0386,182.2848 Z M49.9086,179.4858 C50.7636,179.4858 51.3586,179.7898 51.7246,180.4138 C51.8696,180.6628 51.8696,180.9848 51.7246,181.2338 C51.3586,181.8588 50.7636,182.1618 49.9086,182.1618 C48.5746,182.1618 47.6986,181.3918 47.2326,180.8238 C47.6986,180.2558 48.5746,179.4858 49.9086,179.4858 L49.9086,179.4858 Z M42.3706,193.3978 C43.4146,193.3978 44.4596,193.0008 45.2546,192.2058 C46.0256,191.4348 46.4506,190.4098 46.4506,189.3208 C46.4506,188.2308 46.0256,187.2068 45.2546,186.4368 L43.6836,184.8648 L45.5926,182.9548 C46.4716,183.8568 47.8786,184.8158 49.9086,184.8158 C51.7086,184.8158 53.1666,184.0198 54.0146,182.5738 C54.6466,181.4948 54.6466,180.1538 54.0136,179.0728 C53.1666,177.6278 51.7086,176.8318 49.9086,176.8318 C47.7656,176.8318 46.3136,177.9018 45.4486,178.8438 L43.6836,177.0788 L45.2546,175.5068 C46.8456,173.9168 46.8456,171.3288 45.2546,169.7388 C43.6646,168.1478 41.0776,168.1478 39.4856,169.7388 L39.3006,169.9228 L39.3006,162.2358 L36.6466,162.2358 L36.6466,170.0418 L36.3426,169.7388 C34.7516,168.1468 32.1626,168.1468 30.5736,169.7388 C28.9826,171.3288 28.9826,173.9168 30.5736,175.5068 L32.1456,177.0788 L32.0156,177.2088 L30.3816,178.8428 C29.5046,177.9338 28.0886,176.9548 26.0386,176.9548 C24.2396,176.9548 22.7816,177.7508 21.9336,179.1958 C21.3006,180.2758 21.3006,181.6178 21.9336,182.6978 C22.7816,184.1428 24.2396,184.9378 26.0386,184.9378 C28.0706,184.9378 29.4786,183.9778 30.3566,183.0748 L32.1456,184.8648 L30.5736,186.4358 C28.9826,188.0268 28.9826,190.6148 30.5736,192.2048 C31.3686,193.0008 32.4126,193.3978 33.4576,193.3978 C34.5026,193.3978 35.5466,193.0008 36.3426,192.2048 L37.1856,191.3618 C37.3846,192.6848 37.3586,213.9998 37.3586,213.9998 L40.0236,213.9998 C40.0806,213.1198 40.0636,193.4348 39.9996,192.6248 C40.7076,193.1328 41.5356,193.3978 42.3706,193.3978 Z" id="Fill-11" fill="#2D313A"></path>
                        <path d="M39.3301,163.9518 L39.3301,159.5588 C54.7911,158.8728 67.3041,146.6828 68.5081,131.3608 L72.9131,131.3608 C71.6941,149.1068 57.2141,163.2588 39.3301,163.9518 L39.3301,163.9518 Z M3.0001,131.3608 L7.4051,131.3608 C8.6051,146.6308 21.0351,158.7928 36.4231,159.5548 L36.4231,163.9478 C18.6131,163.1768 4.2161,149.0538 3.0001,131.3608 L3.0001,131.3608 Z M36.4231,93.9278 L36.4231,98.3208 C20.3901,99.1148 7.5651,112.2848 7.3121,128.4528 L2.9201,128.4528 C3.1741,109.8628 17.9671,94.7268 36.4231,93.9278 L36.4231,93.9278 Z M39.3301,101.2238 C53.8351,101.9338 65.4401,113.8348 65.6931,128.4528 C65.6961,128.6148 65.7051,128.7748 65.7051,128.9378 C65.7051,129.7548 65.6631,130.5608 65.5931,131.3608 C64.4001,145.0788 53.1871,155.9728 39.3301,156.6518 C38.8751,156.6738 38.4171,156.6858 37.9571,156.6858 C37.4411,156.6858 36.9311,156.6698 36.4231,156.6418 C22.6391,155.8868 11.5091,145.0258 10.3201,131.3608 C10.2511,130.5608 10.2081,129.7548 10.2081,128.9378 C10.2081,128.7748 10.2171,128.6148 10.2201,128.4528 C10.4721,113.8888 21.9931,102.0238 36.4231,101.2328 C36.9311,101.2048 37.4411,101.1888 37.9571,101.1888 C38.4171,101.1888 38.8751,101.2018 39.3301,101.2238 L39.3301,101.2238 Z M39.3301,93.9228 C57.8601,94.6418 72.7381,109.8088 72.9931,128.4528 L68.6011,128.4528 C68.3471,112.2318 55.4371,99.0308 39.3301,98.3158 L39.3301,93.9228 Z M37.9571,90.9808 C17.0271,90.9808 0.0001,108.0078 0.0001,128.9378 C0.0001,149.8668 17.0271,166.8938 37.9571,166.8938 C58.8861,166.8938 75.9131,149.8668 75.9131,128.9378 C75.9131,108.0078 58.8861,90.9808 37.9571,90.9808 L37.9571,90.9808 Z" id="Fill-13" fill="#2D313A"></path>
                        <path d="M65.4961,128.8473 C65.4961,144.1003 53.1301,156.4663 37.8771,156.4663 C22.6231,156.4663 10.2571,144.1003 10.2571,128.8473 C10.2571,113.5933 22.6231,101.2273 37.8771,101.2273 C53.1301,101.2273 65.4961,113.5933 65.4961,128.8473" id="Fill-15" fill="#E04444"></path>
                    </g>
                </g>
                <g id="Page-1" transform="translate(0.000000, 195.000000)">
                    <path d="M46.2919,171.1614 L300.3299,171.1614 C303.7629,171.1614 306.5459,168.3784 306.5459,164.9464 L306.5459,33.5114 C306.5459,30.0794 303.7629,27.2964 300.3299,27.2964 L46.2919,27.2964 C42.8589,27.2964 40.0769,30.0794 40.0769,33.5114 L40.0769,164.9464 C40.0769,168.3784 42.8589,171.1614 46.2919,171.1614 Z" id="Fill-1" fill="#E04444"></path>
                    <mask id="mask-2" fill="white">
                        <use xlink:href="#path-1"></use>
                    </mask>
                    <g id="Clip-4"></g>
                    <polygon id="Fill-3" fill="#C6C29B" mask="url(#mask-2)" points="312.467 181.786 317.872 181.786 317.872 16.671 312.467 16.671"></polygon>
                    <path d="M308.0047,9.5071 C308.0047,13.4641 311.2127,16.6721 315.1697,16.6721 C319.1257,16.6721 322.3337,13.4641 322.3337,9.5071 C322.3337,5.5501 319.1257,2.3421 315.1697,2.3421 C311.2127,2.3421 308.0047,5.5501 308.0047,9.5071" id="Fill-5" fill="#EEA74E" mask="url(#mask-2)"></path>
                    <path d="M308.0047,189.5272 C308.0047,193.4842 311.2127,196.6922 315.1697,196.6922 C319.1257,196.6922 322.3337,193.4842 322.3337,189.5272 C322.3337,185.5702 319.1257,182.3622 315.1697,182.3622 C311.2127,182.3622 308.0047,185.5702 308.0047,189.5272" id="Fill-6" fill="#00A158" mask="url(#mask-2)"></path>
                    <polygon id="Fill-7" fill="#C6C29B" mask="url(#mask-2)" points="28.751 181.498 34.155 181.498 34.155 16.383 28.751 16.383"></polygon>
                    <path d="M24.2879,9.219 C24.2879,13.176 27.4959,16.384 31.4529,16.384 C35.4099,16.384 38.6179,13.176 38.6179,9.219 C38.6179,5.262 35.4099,2.054 31.4529,2.054 C27.4959,2.054 24.2879,5.262 24.2879,9.219" id="Fill-8" fill="#00A158" mask="url(#mask-2)"></path>
                    <path d="M24.2879,189.2391 C24.2879,193.1961 27.4959,196.4041 31.4529,196.4041 C35.4099,196.4041 38.6179,193.1961 38.6179,189.2391 C38.6179,185.2821 35.4099,182.0741 31.4529,182.0741 C27.4959,182.0741 24.2879,185.2821 24.2879,189.2391" id="Fill-9" fill="#EEA74E" mask="url(#mask-2)"></path>
                    <path d="M315.1688,194.6375 C312.3508,194.6375 310.0598,192.3455 310.0598,189.5275 C310.0598,186.7085 312.3508,184.4165 315.1688,184.4165 C317.9868,184.4165 320.2798,186.7085 320.2798,189.5275 C320.2798,192.3455 317.9868,194.6375 315.1688,194.6375 L315.1688,194.6375 Z M306.0498,175.8845 L40.5718,175.8845 C38.1658,175.8845 36.2088,173.9275 36.2088,171.5215 L36.2088,26.9365 C36.2088,24.5305 38.1658,22.5735 40.5718,22.5735 L306.0498,22.5735 C308.4558,22.5735 310.4128,24.5305 310.4128,26.9365 L310.4128,171.5215 C310.4128,173.9275 308.4558,175.8845 306.0498,175.8845 L306.0498,175.8845 Z M31.4528,194.3485 C28.6348,194.3485 26.3428,192.0575 26.3428,189.2395 C26.3428,186.4205 28.6348,184.1295 31.4528,184.1295 C34.2718,184.1295 36.5638,186.4205 36.5638,189.2395 C36.5638,192.0575 34.2718,194.3485 31.4528,194.3485 L31.4528,194.3485 Z M32.1008,18.4375 L32.1008,26.9365 L32.1008,171.5215 L32.1008,179.4445 L30.8048,179.4445 L30.8048,18.4375 L32.1008,18.4375 Z M31.4528,4.1085 C34.2718,4.1085 36.5638,6.4005 36.5638,9.2185 C36.5638,12.0365 34.2718,14.3295 31.4528,14.3295 C28.6348,14.3295 26.3428,12.0365 26.3428,9.2185 C26.3428,6.4005 28.6348,4.1085 31.4528,4.1085 L31.4528,4.1085 Z M315.8168,18.7255 L315.8168,179.7325 L314.5208,179.7325 L314.5208,171.5215 L314.5208,26.9365 L314.5208,18.7255 L315.8168,18.7255 Z M315.1688,4.3965 C317.9868,4.3965 320.2798,6.6885 320.2798,9.5065 C320.2798,12.3255 317.9868,14.6175 315.1688,14.6175 C312.3508,14.6175 310.0598,12.3255 310.0598,9.5065 C310.0598,6.6885 312.3508,4.3965 315.1688,4.3965 L315.1688,4.3965 Z M319.9258,181.6445 L319.9258,17.3895 C322.5948,15.7725 324.3888,12.8485 324.3888,9.5065 C324.3888,4.4245 320.2528,0.2885 315.1688,0.2885 C310.0868,0.2885 305.9508,4.4245 305.9508,9.5065 C305.9508,12.8485 307.7438,15.7725 310.4128,17.3885 L310.4128,19.6885 C309.1368,18.9175 307.6468,18.4655 306.0498,18.4655 L40.5718,18.4655 C38.9748,18.4655 37.4848,18.9175 36.2088,19.6885 L36.2088,17.1015 C38.8788,15.4845 40.6718,12.5605 40.6718,9.2185 C40.6718,4.1365 36.5358,0.0005 31.4528,0.0005 C26.3698,0.0005 22.2338,4.1365 22.2338,9.2185 C22.2338,12.5605 24.0268,15.4835 26.6958,17.1005 L26.6958,181.3585 C24.0268,182.9745 22.2338,185.8975 22.2338,189.2395 C22.2338,194.3215 26.3698,198.4575 31.4528,198.4575 C36.5358,198.4575 40.6718,194.3215 40.6718,189.2395 C40.6718,185.8975 38.8788,182.9745 36.2088,181.3575 L36.2088,178.7685 C37.4848,179.5405 38.9748,179.9925 40.5718,179.9925 L306.0498,179.9925 C307.6468,179.9925 309.1368,179.5405 310.4128,178.7685 L310.4128,181.6455 C307.7438,183.2625 305.9508,186.1855 305.9508,189.5275 C305.9508,194.6095 310.0868,198.7455 315.1688,198.7455 C320.2528,198.7455 324.3888,194.6095 324.3888,189.5275 C324.3888,186.1855 322.5948,183.2615 319.9258,181.6445 L319.9258,181.6445 Z" id="Fill-10" fill="#2D313A" mask="url(#mask-2)"></path>
                    <path d="M24.077,289.2576 C24.077,289.2576 18.056,294.1336 7.426,295.0996 C7.426,295.0996 7.647,302.8306 15.751,305.2906 C15.751,305.2906 24.031,301.5336 27.172,291.9256 L24.077,289.2576 Z" id="Fill-11" fill="#EEA74E" mask="url(#mask-2)"></path>
                    <polygon id="Fill-12" fill="#E04444" mask="url(#mask-2)" points="20.8671 237.1219 32.6031 248.8579 44.3401 237.1219 32.6031 225.3849"></polygon>
                    <polygon id="Fill-13" fill="#E04444" mask="url(#mask-2)" points="27.0682 237.1219 32.6032 242.6559 38.1372 237.1219 32.6032 231.5869"></polygon>
                    <path d="M11.3788,284.1619 C11.3788,285.5199 12.4808,286.6219 13.8388,286.6219 C15.1978,286.6219 16.2988,285.5199 16.2988,284.1619 C16.2988,282.8029 15.1978,281.7019 13.8388,281.7019 C12.4808,281.7019 11.3788,282.8029 11.3788,284.1619" id="Fill-14" fill="#ECECE9" mask="url(#mask-2)"></path>
                    <path d="M1.2919,276.1766 C1.2919,277.5356 2.3939,278.6366 3.7519,278.6366 C5.1099,278.6366 6.2119,277.5356 6.2119,276.1766 C6.2119,274.8186 5.1099,273.7166 3.7519,273.7166 C2.3939,273.7166 1.2919,274.8186 1.2919,276.1766" id="Fill-15" fill="#C6C29B" mask="url(#mask-2)"></path>
                    <path d="M52.2137,280.6189 C52.2137,281.9769 53.3157,283.0789 54.6737,283.0789 C56.0317,283.0789 57.1337,281.9769 57.1337,280.6189 C57.1337,279.2599 56.0317,278.1589 54.6737,278.1589 C53.3157,278.1589 52.2137,279.2599 52.2137,280.6189" id="Fill-16" fill="#ECECE9" mask="url(#mask-2)"></path>
                    <polygon id="Fill-17" fill="#EEA74E" mask="url(#mask-2)" points="58.6024 231.9744 51.4194 231.9744 55.0114 225.8464"></polygon>
                    <polygon id="Fill-18" fill="#00A158" mask="url(#mask-2)" points="12.0721 259.4852 5.7781 256.0242 11.8781 252.3842"></polygon>
                    <path d="M24.2313,290.0809 L24.8413,291.3479 C25.7353,293.2039 28.5463,291.8529 27.6513,289.9939 L27.0423,288.7269 C26.6683,287.9519 25.7363,287.6259 24.9603,287.9989 C24.1843,288.3729 23.8583,289.3049 24.2313,290.0809" id="Fill-19" fill="#00A158" mask="url(#mask-2)"></path>
                    <path d="M8.3758,255.9783 L10.7188,257.2663 L10.6468,254.6243 L8.3758,255.9783 Z M5.1158,254.9153 L11.2168,251.2753 C11.6098,251.0403 12.0988,251.0333 12.5008,251.2523 C12.9018,251.4743 13.1568,251.8913 13.1698,252.3493 L13.3628,259.4503 C13.3758,259.9133 13.1398,260.3463 12.7448,260.5873 C12.5388,260.7133 12.3058,260.7773 12.0718,260.7773 C11.8578,260.7773 11.6438,260.7233 11.4498,260.6173 L5.1558,257.1563 C4.7498,256.9333 4.4948,256.5093 4.4868,256.0463 C4.4788,255.5833 4.7188,255.1523 5.1158,254.9153 L5.1158,254.9153 Z M53.6738,230.6823 L56.3488,230.6823 L55.0118,228.4003 L53.6738,230.6823 Z M50.2998,232.6163 C50.0688,232.2143 50.0718,231.7203 50.3058,231.3213 L53.8968,225.1933 C54.1288,224.7973 54.5528,224.5543 55.0118,224.5543 C55.4698,224.5543 55.8938,224.7973 56.1258,225.1933 L59.7168,231.3213 C59.9508,231.7203 59.9528,232.2143 59.7238,232.6163 C59.4928,233.0183 59.0648,233.2653 58.6028,233.2653 L51.4198,233.2653 C50.9568,233.2653 50.5298,233.0183 50.2998,232.6163 L50.2998,232.6163 Z M55.8418,280.6193 C55.8418,279.9743 55.3178,279.4503 54.6738,279.4503 C54.0288,279.4503 53.5058,279.9743 53.5058,280.6193 C53.5058,281.2623 54.0288,281.7873 54.6738,281.7873 C55.3178,281.7873 55.8418,281.2623 55.8418,280.6193 L55.8418,280.6193 Z M58.4258,280.6193 C58.4258,282.6873 56.7418,284.3703 54.6738,284.3703 C52.6048,284.3703 50.9218,282.6873 50.9218,280.6193 C50.9218,278.5493 52.6048,276.8673 54.6738,276.8673 C56.7418,276.8673 58.4258,278.5493 58.4258,280.6193 L58.4258,280.6193 Z M4.9198,276.1763 C4.9198,275.5333 4.3958,275.0083 3.7518,275.0083 C3.1078,275.0083 2.5838,275.5333 2.5838,276.1763 C2.5838,276.8213 3.1078,277.3453 3.7518,277.3453 C4.3958,277.3453 4.9198,276.8213 4.9198,276.1763 L4.9198,276.1763 Z M3.7518,279.9283 C1.6838,279.9283 -0.0002,278.2463 -0.0002,276.1763 C-0.0002,274.1083 1.6838,272.4253 3.7518,272.4253 C5.8198,272.4253 7.5038,274.1083 7.5038,276.1763 C7.5038,278.2463 5.8198,279.9283 3.7518,279.9283 L3.7518,279.9283 Z M12.6708,284.1613 C12.6708,284.8053 13.1948,285.3303 13.8388,285.3303 C14.4828,285.3303 15.0078,284.8053 15.0078,284.1613 C15.0078,283.5173 14.4828,282.9933 13.8388,282.9933 C13.1948,282.9933 12.6708,283.5173 12.6708,284.1613 L12.6708,284.1613 Z M13.8388,280.4103 C15.9068,280.4103 17.5918,282.0923 17.5918,284.1613 C17.5918,286.2303 15.9068,287.9133 13.8388,287.9133 C11.7708,287.9133 10.0868,286.2303 10.0868,284.1613 C10.0868,282.0923 11.7708,280.4103 13.8388,280.4103 L13.8388,280.4103 Z M45.9898,267.2863 C45.6338,266.6783 45.0548,266.3823 44.2218,266.3823 C42.9228,266.3823 42.0698,267.1323 41.6168,267.6853 C42.0698,268.2383 42.9228,268.9883 44.2218,268.9883 C45.0548,268.9883 45.6338,268.6923 45.9898,268.0833 C46.1318,267.8423 46.1318,267.5293 45.9898,267.2863 L45.9898,267.2863 Z M36.3348,273.4463 L34.3718,275.4083 L35.9018,276.9393 C36.4418,277.4803 37.3238,277.4803 37.8648,276.9393 C38.1278,276.6763 38.2718,276.3283 38.2718,275.9573 C38.2718,275.5863 38.1278,275.2383 37.8648,274.9763 L36.3348,273.4463 Z M29.1878,276.9393 L30.7188,275.4093 L28.7558,273.4463 L27.2258,274.9763 C26.6848,275.5173 26.6848,276.3983 27.2258,276.9393 C27.7658,277.4803 28.6468,277.4803 29.1878,276.9393 L29.1878,276.9393 Z M23.5888,267.8053 C23.1368,267.2513 22.2828,266.5023 20.9838,266.5023 C20.1508,266.5023 19.5728,266.7973 19.2158,267.4073 C19.0738,267.6483 19.0738,267.9613 19.2158,268.2033 C19.5728,268.8113 20.1508,269.1073 20.9838,269.1073 C22.2828,269.1073 23.1368,268.3583 23.5888,267.8053 L23.5888,267.8053 Z M28.7558,262.2123 L30.7188,260.2493 L29.1878,258.7193 C28.9178,258.4493 28.5628,258.3143 28.2068,258.3143 C27.8518,258.3143 27.4958,258.4493 27.2258,258.7193 C26.6848,259.2603 26.6848,260.1413 27.2258,260.6823 L28.7558,262.2123 Z M22.6928,237.1223 L32.6038,247.0313 L42.5128,237.1223 L32.6038,227.2113 L22.6928,237.1223 Z M32.5768,222.7253 C33.1158,221.7203 33.7448,220.2163 33.8258,218.5713 C33.8908,217.2653 33.1788,216.6183 32.4898,216.5693 C32.4618,216.5673 32.4338,216.5663 32.4048,216.5663 C31.6948,216.5663 31.1978,217.2183 31.0988,218.2923 C30.9188,220.2343 31.8108,221.7803 32.5768,222.7253 L32.5768,222.7253 Z M35.9008,258.7193 L34.3718,260.2493 L36.3348,262.2123 L37.8648,260.6823 C38.4058,260.1413 38.4058,259.2603 37.8648,258.7193 C37.3248,258.1803 36.4438,258.1783 35.9008,258.7193 L35.9008,258.7193 Z M38.2978,267.8293 L36.3348,265.8663 L34.3718,267.8303 L36.3348,269.7913 L38.2978,267.8293 Z M28.7558,265.8673 L26.7928,267.8293 L28.7558,269.7913 L30.7188,267.8293 L28.7558,265.8673 Z M30.5818,264.0403 L32.5448,266.0023 L34.5078,264.0403 L32.5448,262.0773 L30.5818,264.0403 Z M34.5078,271.6193 L32.5458,269.6563 L30.5828,271.6193 L32.5458,273.5823 L34.5078,271.6193 Z M25.2478,293.3323 C24.0378,292.8793 23.7138,291.9823 23.3858,291.3013 C21.0618,292.7663 16.1008,295.3473 8.8748,296.2433 C8.9798,296.7583 9.1548,297.4083 9.4388,298.1143 C11.1448,297.7033 14.9328,296.5633 18.6838,293.9133 C20.0768,292.9283 21.5698,295.0363 20.1748,296.0233 C16.5098,298.6133 12.8768,299.8743 10.7618,300.4453 C11.1728,300.9873 11.6688,301.5183 12.2638,302.0143 C13.6888,301.3283 16.9838,299.6493 18.9258,297.8963 C19.4558,297.4183 20.2728,297.4613 20.7498,297.9903 C21.2288,298.5193 21.1868,299.3363 20.6568,299.8143 C19.0088,301.3023 16.6208,302.6833 14.8728,303.5963 C15.1198,303.7023 15.3728,303.8043 15.6408,303.8973 C17.1678,303.0693 22.4418,299.8213 25.2478,293.3323 L25.2478,293.3323 Z M26.0048,290.7873 C26.1568,291.1053 26.6408,290.8743 26.4878,290.5533 C26.0358,289.6173 25.8948,288.9813 25.5208,289.1633 C25.1438,289.3443 25.5558,289.8533 26.0048,290.7873 L26.0048,290.7873 Z M48.2188,265.9803 C48.8348,267.0323 48.8348,268.3383 48.2198,269.3893 C47.3948,270.7973 45.9748,271.5723 44.2218,271.5723 C42.2458,271.5723 40.8758,270.6373 40.0208,269.7593 L38.1618,271.6193 L39.6918,273.1493 C40.4418,273.8993 40.8548,274.8963 40.8548,275.9573 C40.8548,277.0183 40.4418,278.0153 39.6918,278.7663 C38.9178,279.5403 37.8998,279.9263 36.8848,279.9263 C36.0708,279.9263 35.2648,279.6673 34.5758,279.1733 C34.7468,281.3753 34.5978,284.0303 33.3728,286.0773 C32.0238,288.3323 30.1708,289.3953 28.9768,289.8763 C29.2638,290.8683 28.9868,291.9223 28.2868,292.6473 C24.9338,302.4413 16.6408,306.3063 16.2848,306.4673 C16.1148,306.5433 15.9338,306.5823 15.7508,306.5823 C15.6248,306.5823 15.4988,306.5653 15.3758,306.5273 C13.8078,306.0513 12.5098,305.3893 11.4278,304.6243 C11.4008,304.6083 11.3778,304.5893 11.3518,304.5723 C9.6278,303.3333 8.4718,301.8323 7.6978,300.3923 C7.5958,300.2633 7.5188,300.1143 7.4708,299.9493 C6.2278,297.4103 6.1358,295.1803 6.1338,295.1363 C6.1148,294.4553 6.6288,293.8743 7.3088,293.8133 C16.0508,293.0183 21.5918,289.4503 22.9388,288.4923 C23.6528,286.3843 26.3678,285.8813 27.8018,287.5663 C31.8478,286.1493 32.4748,282.1833 31.8358,277.9443 L31.0158,278.7653 C30.2408,279.5403 29.2238,279.9263 28.2068,279.9263 C27.1888,279.9263 26.1728,279.5403 25.3978,278.7653 C23.8508,277.2173 23.8508,274.6983 25.3978,273.1493 L26.9288,271.6193 L25.1878,269.8773 C24.3318,270.7553 22.9618,271.6913 20.9838,271.6913 C19.2308,271.6913 17.8128,270.9163 16.9878,269.5093 C16.3708,268.4583 16.3708,267.1523 16.9868,266.1003 C17.8128,264.6933 19.2308,263.9183 20.9838,263.9183 C22.9798,263.9183 24.3578,264.8723 25.2118,265.7563 L26.8028,264.1663 L26.9288,264.0403 L25.3978,262.5093 C23.8508,260.9603 23.8508,258.4413 25.3978,256.8933 C26.9458,255.3443 29.4668,255.3443 31.0158,256.8933 L31.3118,257.1893 L31.3118,249.3933 L19.9528,238.0353 C19.7108,237.7923 19.5738,237.4633 19.5738,237.1223 C19.5738,236.7793 19.7108,236.4503 19.9528,236.2073 L31.1538,225.0063 C30.0198,223.8203 28.2188,221.3833 28.5258,218.0553 C28.7998,215.0823 30.8598,213.8533 32.6728,213.9933 C34.5888,214.1283 36.5478,215.8233 36.4058,218.6983 C36.2618,221.6463 34.8178,224.1233 34.1578,225.1133 L45.2528,236.2073 C45.7578,236.7123 45.7578,237.5303 45.2528,238.0353 L33.8958,249.3923 L33.8958,257.0733 L34.0748,256.8933 C35.6248,255.3443 38.1438,255.3443 39.6918,256.8933 C41.2398,258.4413 41.2398,260.9613 39.6918,262.5093 L38.1618,264.0403 L39.8798,265.7573 C40.7218,264.8403 42.1358,263.7993 44.2218,263.7993 C45.9748,263.7993 47.3948,264.5743 48.2188,265.9803 L48.2188,265.9803 Z M32.6038,240.8303 L36.3118,237.1223 L32.6038,233.4143 L28.8958,237.1223 L32.6038,240.8303 Z M32.6038,243.9483 C32.2608,243.9483 31.9318,243.8123 31.6888,243.5703 L26.1538,238.0353 C25.9118,237.7923 25.7758,237.4633 25.7758,237.1223 C25.7758,236.7793 25.9118,236.4503 26.1538,236.2073 L31.6888,230.6733 C31.9318,230.4313 32.2608,230.2953 32.6038,230.2953 C32.9458,230.2953 33.2738,230.4313 33.5168,230.6733 L39.0518,236.2073 C39.5558,236.7123 39.5558,237.5303 39.0518,238.0353 L33.5168,243.5693 C33.2738,243.8123 32.9458,243.9483 32.6038,243.9483 L32.6038,243.9483 Z M60.1048,255.7303 L57.0088,255.7303 C56.2948,255.7303 55.7168,256.3083 55.7168,257.0213 C55.7168,257.7353 56.2948,258.3133 57.0088,258.3133 L60.1048,258.3133 C60.8188,258.3133 61.3968,257.7353 61.3968,257.0213 C61.3968,256.3083 60.8188,255.7303 60.1048,255.7303 L60.1048,255.7303 Z M51.7768,257.0213 C51.7768,256.3083 51.1988,255.7303 50.4848,255.7303 L47.3888,255.7303 C46.6748,255.7303 46.0968,256.3083 46.0968,257.0213 C46.0968,257.7353 46.6748,258.3133 47.3888,258.3133 L50.4848,258.3133 C51.1988,258.3133 51.7768,257.7353 51.7768,257.0213 L51.7768,257.0213 Z M53.7458,258.9913 C53.0328,258.9913 52.4538,259.5703 52.4538,260.2833 L52.4538,263.3803 C52.4538,264.0933 53.0328,264.6713 53.7458,264.6713 C54.4598,264.6713 55.0378,264.0933 55.0378,263.3803 L55.0378,260.2833 C55.0378,259.5703 54.4598,258.9913 53.7458,258.9913 L53.7458,258.9913 Z M55.0378,250.6633 C55.0378,249.9493 54.4598,249.3713 53.7458,249.3713 C53.0328,249.3713 52.4538,249.9493 52.4538,250.6633 L52.4538,253.7593 C52.4538,254.4733 53.0328,255.0513 53.7458,255.0513 C54.4598,255.0513 55.0378,254.4733 55.0378,253.7593 L55.0378,250.6633 Z M1.5378,237.8783 C1.5378,237.1653 2.1158,236.5863 2.8298,236.5863 L4.9198,236.5863 L4.9198,234.4963 C4.9198,233.7833 5.4978,233.2043 6.2118,233.2043 C6.9258,233.2043 7.5038,233.7833 7.5038,234.4963 L7.5038,236.5863 L9.5948,236.5863 C10.3088,236.5863 10.8868,237.1653 10.8868,237.8783 C10.8868,238.5913 10.3088,239.1693 9.5948,239.1693 L7.5038,239.1693 L7.5038,241.2613 C7.5038,241.9743 6.9258,242.5523 6.2118,242.5523 C5.4978,242.5523 4.9198,241.9743 4.9198,241.2613 L4.9198,239.1693 L2.8298,239.1693 C2.1158,239.1693 1.5378,238.5913 1.5378,237.8783 L1.5378,237.8783 Z" id="Fill-20" fill="#2D313A" mask="url(#mask-2)"></path>
                    <path d="M32.3876,215.5311 C31.6926,215.5311 31.1296,214.9681 31.1296,214.2731 L31.1296,198.1521 C31.1296,197.4571 31.6926,196.8941 32.3876,196.8941 C33.0816,196.8941 33.6456,197.4571 33.6456,198.1521 L33.6456,214.2731 C33.6456,214.9681 33.0816,215.5311 32.3876,215.5311" id="Fill-21" fill="#2D313A" mask="url(#mask-2)"></path>
                    <path d="M307.7889,289.2576 C307.7889,289.2576 301.7679,294.1336 291.1389,295.0996 C291.1389,295.0996 291.3599,302.8306 299.4639,305.2906 C299.4639,305.2906 307.7429,301.5336 310.8849,291.9256 L307.7889,289.2576 Z" id="Fill-22" fill="#EEA74E" mask="url(#mask-2)"></path>
                    <polygon id="Fill-23" fill="#E04444" mask="url(#mask-2)" points="304.5789 237.1219 316.3149 248.8579 328.0529 237.1219 316.3149 225.3849"></polygon>
                    <polygon id="Fill-24" fill="#E04444" mask="url(#mask-2)" points="310.7811 237.1219 316.3151 242.6559 321.8501 237.1219 316.3151 231.5869"></polygon>
                    <path d="M295.0916,284.1619 C295.0916,285.5199 296.1936,286.6219 297.5516,286.6219 C298.9096,286.6219 300.0116,285.5199 300.0116,284.1619 C300.0116,282.8029 298.9096,281.7019 297.5516,281.7019 C296.1936,281.7019 295.0916,282.8029 295.0916,284.1619" id="Fill-25" fill="#ECECE9" mask="url(#mask-2)"></path>
                    <path d="M285.0047,276.1766 C285.0047,277.5356 286.1067,278.6366 287.4647,278.6366 C288.8227,278.6366 289.9247,277.5356 289.9247,276.1766 C289.9247,274.8186 288.8227,273.7166 287.4647,273.7166 C286.1067,273.7166 285.0047,274.8186 285.0047,276.1766" id="Fill-26" fill="#C6C29B" mask="url(#mask-2)"></path>
                    <path d="M335.9266,280.6189 C335.9266,281.9769 337.0276,283.0789 338.3866,283.0789 C339.7446,283.0789 340.8466,281.9769 340.8466,280.6189 C340.8466,279.2599 339.7446,278.1589 338.3866,278.1589 C337.0276,278.1589 335.9266,279.2599 335.9266,280.6189" id="Fill-27" fill="#ECECE9" mask="url(#mask-2)"></path>
                    <polygon id="Fill-28" fill="#EEA74E" mask="url(#mask-2)" points="342.3153 231.9744 335.1323 231.9744 338.7233 225.8464"></polygon>
                    <polygon id="Fill-29" fill="#00A158" mask="url(#mask-2)" points="295.784 259.4852 289.491 256.0242 295.591 252.3842"></polygon>
                    <path d="M307.9442,290.0809 L308.5532,291.3479 C309.4482,293.2039 312.2582,291.8529 311.3642,289.9939 L310.7542,288.7269 C310.3812,287.9519 309.4492,287.6259 308.6732,287.9989 C307.8962,288.3729 307.5702,289.3049 307.9442,290.0809" id="Fill-30" fill="#00A158" mask="url(#mask-2)"></path>
                    <path d="M292.0887,255.9783 L294.4317,257.2663 L294.3597,254.6243 L292.0887,255.9783 Z M288.8287,254.9153 L294.9287,251.2753 C295.3227,251.0403 295.8117,251.0333 296.2137,251.2523 C296.6147,251.4743 296.8687,251.8913 296.8817,252.3493 L297.0757,259.4503 C297.0887,259.9133 296.8527,260.3463 296.4567,260.5873 C296.2507,260.7133 296.0177,260.7773 295.7847,260.7773 C295.5707,260.7773 295.3567,260.7233 295.1627,260.6173 L288.8677,257.1563 C288.4617,256.9333 288.2067,256.5093 288.1987,256.0463 C288.1907,255.5833 288.4307,255.1523 288.8287,254.9153 L288.8287,254.9153 Z M337.3867,230.6823 L340.0617,230.6823 L338.7237,228.4003 L337.3867,230.6823 Z M334.0117,232.6163 C333.7807,232.2143 333.7837,231.7203 334.0177,231.3213 L337.6097,225.1933 C337.8417,224.7973 338.2657,224.5543 338.7237,224.5543 C339.1827,224.5543 339.6067,224.7973 339.8387,225.1933 L343.4297,231.3213 C343.6627,231.7203 343.6657,232.2143 343.4357,232.6163 C343.2047,233.0183 342.7777,233.2653 342.3157,233.2653 L335.1327,233.2653 C334.6697,233.2653 334.2417,233.0183 334.0117,232.6163 L334.0117,232.6163 Z M339.5547,280.6193 C339.5547,279.9743 339.0297,279.4503 338.3857,279.4503 C337.7417,279.4503 337.2177,279.9743 337.2177,280.6193 C337.2177,281.2623 337.7417,281.7873 338.3857,281.7873 C339.0297,281.7873 339.5547,281.2623 339.5547,280.6193 L339.5547,280.6193 Z M342.1387,280.6193 C342.1387,282.6873 340.4547,284.3703 338.3857,284.3703 C336.3177,284.3703 334.6337,282.6873 334.6337,280.6193 C334.6337,278.5493 336.3177,276.8673 338.3857,276.8673 C340.4547,276.8673 342.1387,278.5493 342.1387,280.6193 L342.1387,280.6193 Z M288.6327,276.1763 C288.6327,275.5333 288.1087,275.0083 287.4647,275.0083 C286.8197,275.0083 286.2967,275.5333 286.2967,276.1763 C286.2967,276.8213 286.8197,277.3453 287.4647,277.3453 C288.1087,277.3453 288.6327,276.8213 288.6327,276.1763 L288.6327,276.1763 Z M287.4647,279.9283 C285.3957,279.9283 283.7127,278.2463 283.7127,276.1763 C283.7127,274.1083 285.3957,272.4253 287.4647,272.4253 C289.5327,272.4253 291.2167,274.1083 291.2167,276.1763 C291.2167,278.2463 289.5327,279.9283 287.4647,279.9283 L287.4647,279.9283 Z M296.3837,284.1613 C296.3837,284.8053 296.9067,285.3303 297.5517,285.3303 C298.1957,285.3303 298.7197,284.8053 298.7197,284.1613 C298.7197,283.5173 298.1957,282.9933 297.5517,282.9933 C296.9067,282.9933 296.3837,283.5173 296.3837,284.1613 L296.3837,284.1613 Z M297.5517,280.4103 C299.6197,280.4103 301.3037,282.0923 301.3037,284.1613 C301.3037,286.2303 299.6197,287.9133 297.5517,287.9133 C295.4827,287.9133 293.7997,286.2303 293.7997,284.1613 C293.7997,282.0923 295.4827,280.4103 297.5517,280.4103 L297.5517,280.4103 Z M329.7017,267.2863 C329.3457,266.6783 328.7677,266.3823 327.9347,266.3823 C326.6357,266.3823 325.7827,267.1323 325.3297,267.6853 C325.7827,268.2383 326.6357,268.9883 327.9347,268.9883 C328.7677,268.9883 329.3457,268.6923 329.7027,268.0833 C329.8447,267.8423 329.8447,267.5293 329.7017,267.2863 L329.7017,267.2863 Z M320.0477,273.4463 L318.0847,275.4083 L319.6147,276.9393 C320.1547,277.4803 321.0367,277.4803 321.5767,276.9393 C321.8407,276.6763 321.9847,276.3283 321.9847,275.9573 C321.9847,275.5863 321.8407,275.2383 321.5777,274.9763 L321.5767,274.9763 L320.0477,273.4463 Z M312.9007,276.9393 L314.4307,275.4093 L312.4687,273.4463 L310.9387,274.9763 C310.3977,275.5173 310.3977,276.3983 310.9387,276.9393 C311.4787,277.4803 312.3597,277.4803 312.9007,276.9393 L312.9007,276.9393 Z M307.3007,267.8053 C306.8487,267.2513 305.9957,266.5023 304.6967,266.5023 C303.8637,266.5023 303.2857,266.7973 302.9287,267.4073 C302.7867,267.6483 302.7867,267.9613 302.9287,268.2033 C303.2857,268.8113 303.8637,269.1073 304.6967,269.1073 C305.9957,269.1073 306.8487,268.3583 307.3007,267.8053 L307.3007,267.8053 Z M312.4687,262.2123 L314.4307,260.2493 L312.9007,258.7193 C312.6307,258.4493 312.2747,258.3143 311.9187,258.3143 C311.5647,258.3143 311.2077,258.4493 310.9387,258.7193 C310.3977,259.2603 310.3977,260.1413 310.9387,260.6823 L312.4687,262.2123 Z M306.4057,237.1223 L316.3157,247.0313 L326.2257,237.1223 L316.3157,227.2113 L306.4057,237.1223 Z M316.2897,222.7253 C316.8277,221.7203 317.4577,220.2163 317.5387,218.5713 C317.6037,217.2653 316.8917,216.6183 316.2027,216.5693 C316.1747,216.5673 316.1457,216.5663 316.1177,216.5663 C315.4067,216.5663 314.9097,217.2183 314.8107,218.2923 C314.6317,220.2343 315.5237,221.7803 316.2897,222.7253 L316.2897,222.7253 Z M319.6137,258.7193 L318.0847,260.2493 L320.0477,262.2123 L321.5767,260.6823 C322.1177,260.1413 322.1177,259.2603 321.5767,258.7193 C321.0377,258.1803 320.1557,258.1783 319.6137,258.7193 L319.6137,258.7193 Z M322.0107,267.8293 L320.0477,265.8663 L318.0847,267.8303 L320.0467,269.7913 L322.0107,267.8293 Z M312.4687,265.8673 L310.5057,267.8293 L312.4687,269.7913 L314.4307,267.8293 L312.4687,265.8673 Z M314.2947,264.0403 L316.2577,266.0023 L318.2207,264.0403 L316.2577,262.0773 L314.2947,264.0403 Z M318.2207,271.6193 L316.2577,269.6563 L314.2957,271.6193 L316.2577,273.5823 L318.2207,271.6193 Z M308.9607,293.3323 C307.7507,292.8793 307.4257,291.9823 307.0987,291.3013 C304.7737,292.7663 299.8137,295.3473 292.5877,296.2433 C292.6927,296.7583 292.8667,297.4083 293.1517,298.1143 C294.8567,297.7033 298.6457,296.5633 302.3967,293.9133 C303.7897,292.9283 305.2827,295.0363 303.8877,296.0233 C300.2217,298.6133 296.5897,299.8743 294.4737,300.4453 C294.8857,300.9873 295.3817,301.5183 295.9757,302.0143 C297.4017,301.3283 300.6967,299.6493 302.6387,297.8963 C303.1687,297.4183 303.9857,297.4613 304.4627,297.9903 C304.9417,298.5193 304.8997,299.3363 304.3697,299.8143 C302.7217,301.3023 300.3327,302.6833 298.5847,303.5963 C298.8327,303.7023 299.0847,303.8043 299.3537,303.8973 C300.8807,303.0693 306.1547,299.8213 308.9607,293.3323 L308.9607,293.3323 Z M309.7177,290.7873 C309.8697,291.1053 310.3537,290.8743 310.1997,290.5533 C309.7487,289.6173 309.6077,288.9813 309.2337,289.1633 C308.8567,289.3443 309.2677,289.8533 309.7177,290.7873 L309.7177,290.7873 Z M331.9317,265.9803 C332.5477,267.0323 332.5477,268.3383 331.9317,269.3893 C331.1067,270.7973 329.6877,271.5723 327.9347,271.5723 C325.9587,271.5723 324.5887,270.6373 323.7337,269.7593 L321.8737,271.6193 L323.4037,273.1493 C324.1547,273.8993 324.5677,274.8963 324.5677,275.9573 C324.5677,277.0183 324.1547,278.0153 323.4037,278.7663 C322.6307,279.5403 321.6127,279.9263 320.5967,279.9263 C319.7837,279.9263 318.9777,279.6673 318.2877,279.1733 C318.4597,281.3753 318.3107,284.0303 317.0857,286.0773 C315.7357,288.3323 313.8837,289.3953 312.6887,289.8763 C312.9767,290.8683 312.6997,291.9223 311.9997,292.6473 C308.6457,302.4413 300.3527,306.3063 299.9967,306.4673 C299.8277,306.5433 299.6467,306.5823 299.4637,306.5823 C299.3367,306.5823 299.2107,306.5653 299.0887,306.5273 C297.5207,306.0513 296.2227,305.3893 295.1407,304.6243 C295.1137,304.6083 295.0897,304.5893 295.0647,304.5723 C293.3407,303.3333 292.1837,301.8323 291.4097,300.3923 C291.3077,300.2633 291.2317,300.1143 291.1837,299.9493 C289.9407,297.4103 289.8477,295.1803 289.8467,295.1363 C289.8267,294.4553 290.3407,293.8743 291.0217,293.8133 C299.7637,293.0183 305.3047,289.4503 306.6517,288.4923 C307.3657,286.3843 310.0807,285.8813 311.5147,287.5663 C315.5597,286.1493 316.1867,282.1833 315.5487,277.9443 L314.7277,278.7653 C313.9537,279.5403 312.9367,279.9263 311.9187,279.9263 C310.9017,279.9263 309.8847,279.5403 309.1107,278.7653 C307.5627,277.2173 307.5627,274.6983 309.1107,273.1493 L310.6417,271.6193 L308.9007,269.8773 C308.0447,270.7553 306.6747,271.6913 304.6967,271.6913 C302.9437,271.6913 301.5257,270.9163 300.6997,269.5093 C300.0837,268.4583 300.0837,267.1523 300.6997,266.1003 C301.5257,264.6933 302.9437,263.9183 304.6967,263.9183 C306.6927,263.9183 308.0707,264.8723 308.9247,265.7563 L310.5157,264.1663 L310.6417,264.0403 L309.1107,262.5093 C307.5627,260.9603 307.5627,258.4413 309.1107,256.8933 C310.6587,255.3443 313.1797,255.3443 314.7277,256.8933 L315.0237,257.1893 L315.0237,249.3933 L303.6647,238.0353 C303.4227,237.7923 303.2867,237.4633 303.2867,237.1223 C303.2867,236.7793 303.4227,236.4503 303.6647,236.2073 L314.8667,225.0063 C313.7317,223.8203 311.9317,221.3833 312.2377,218.0553 C312.5127,215.0823 314.5727,213.8533 316.3847,213.9933 C318.3007,214.1283 320.2607,215.8233 320.1187,218.6983 C319.9737,221.6463 318.5307,224.1233 317.8707,225.1133 L328.9657,236.2073 C329.4697,236.7123 329.4697,237.5303 328.9657,238.0353 L317.6077,249.3923 L317.6077,257.0733 L317.7877,256.8933 C319.3367,255.3443 321.8567,255.3443 323.4037,256.8933 C324.9527,258.4413 324.9527,260.9613 323.4037,262.5093 L321.8747,264.0403 L323.5927,265.7573 C324.4347,264.8403 325.8477,263.7993 327.9347,263.7993 C329.6877,263.7993 331.1067,264.5743 331.9317,265.9803 L331.9317,265.9803 Z M316.3157,240.8303 L320.0237,237.1223 L316.3157,233.4143 L312.6077,237.1223 L316.3157,240.8303 Z M316.3157,243.9483 C315.9737,243.9483 315.6447,243.8123 315.4017,243.5703 L309.8667,238.0353 C309.6247,237.7923 309.4877,237.4633 309.4877,237.1223 C309.4877,236.7793 309.6247,236.4503 309.8667,236.2073 L315.4017,230.6733 C315.6447,230.4313 315.9737,230.2953 316.3157,230.2953 C316.6577,230.2953 316.9867,230.4313 317.2297,230.6733 L322.7637,236.2073 C323.2687,236.7123 323.2687,237.5303 322.7637,238.0353 L317.2297,243.5693 C316.9867,243.8123 316.6577,243.9483 316.3157,243.9483 L316.3157,243.9483 Z M343.8177,255.7303 L340.7207,255.7303 C340.0067,255.7303 339.4287,256.3083 339.4287,257.0213 C339.4287,257.7353 340.0067,258.3133 340.7207,258.3133 L343.8177,258.3133 C344.5317,258.3133 345.1097,257.7353 345.1097,257.0213 C345.1097,256.3083 344.5317,255.7303 343.8177,255.7303 L343.8177,255.7303 Z M335.4897,257.0213 C335.4897,256.3083 334.9117,255.7303 334.1977,255.7303 L331.1007,255.7303 C330.3867,255.7303 329.8087,256.3083 329.8087,257.0213 C329.8087,257.7353 330.3867,258.3133 331.1007,258.3133 L334.1977,258.3133 C334.9117,258.3133 335.4897,257.7353 335.4897,257.0213 L335.4897,257.0213 Z M337.4587,258.9913 C336.7447,258.9913 336.1667,259.5703 336.1667,260.2833 L336.1667,263.3803 C336.1667,264.0933 336.7447,264.6713 337.4587,264.6713 C338.1727,264.6713 338.7507,264.0933 338.7507,263.3803 L338.7507,260.2833 C338.7507,259.5703 338.1727,258.9913 337.4587,258.9913 L337.4587,258.9913 Z M338.7507,250.6633 C338.7507,249.9493 338.1727,249.3713 337.4587,249.3713 C336.7447,249.3713 336.1667,249.9493 336.1667,250.6633 L336.1667,253.7593 C336.1667,254.4733 336.7447,255.0513 337.4587,255.0513 C338.1727,255.0513 338.7507,254.4733 338.7507,253.7593 L338.7507,250.6633 Z M285.2497,237.8783 C285.2497,237.1653 285.8277,236.5863 286.5417,236.5863 L288.6327,236.5863 L288.6327,234.4963 C288.6327,233.7833 289.2107,233.2043 289.9237,233.2043 C290.6377,233.2043 291.2167,233.7833 291.2167,234.4963 L291.2167,236.5863 L293.3067,236.5863 C294.0207,236.5863 294.5987,237.1653 294.5987,237.8783 C294.5987,238.5913 294.0207,239.1693 293.3067,239.1693 L291.2167,239.1693 L291.2167,241.2613 C291.2167,241.9743 290.6377,242.5523 289.9237,242.5523 C289.2107,242.5523 288.6327,241.9743 288.6327,241.2613 L288.6327,239.1693 L286.5417,239.1693 C285.8277,239.1693 285.2497,238.5913 285.2497,237.8783 L285.2497,237.8783 Z" id="Fill-31" fill="#2D313A" mask="url(#mask-2)"></path>
                    <path d="M316.0995,215.5311 C315.4055,215.5311 314.8415,214.9681 314.8415,214.2731 L314.8415,198.1521 C314.8415,197.4571 315.4055,196.8941 316.0995,196.8941 C316.7945,196.8941 317.3575,197.4571 317.3575,198.1521 L317.3575,214.2731 C317.3575,214.9681 316.7945,215.5311 316.0995,215.5311" id="Fill-32" fill="#2D313A" mask="url(#mask-2)"></path>
                    <text id="點擊畫面速速-G-就會開始狂奔，-點擊愈" mask="url(#mask-2)" font-family="DFNMing-W9-WIN-BF, DFNMingXBold-B5" font-size="15" font-weight="bold" line-spacing="28" letter-spacing="1.07142854">
                        <tspan x="53.3328686" y="52" fill="#FFFFFF">點擊畫面速速 </tspan>
                        <tspan x="158.332868" y="52" font-family="DFMing-W14-WINP-BF, DFPMingSUBold-B5" fill="#FFFFFF">G</tspan>
                        <tspan x="170.595703" y="52" fill="#FFFFFF"> 就會開始狂奔，</tspan>
                        <tspan x="61.3685828" y="80" fill="#FFFFFF">點擊愈</tspan>
                        <tspan x="109.582868" y="80" font-family="DFMing-W14-WINP-BF, DFPMingSUBold-B5" fill="#000000">快</tspan>
                        <tspan x="125.654297" y="80" fill="#FFFFFF">，速速 </tspan>
                        <tspan x="182.440011" y="80" font-family="DFMing-W14-WINP-BF, DFPMingSUBold-B5" fill="#FFFFFF">G</tspan>
                        <tspan x="194.702846" y="80" fill="#FFFFFF"> 跑得愈</tspan>
                        <tspan x="251.48856" y="80" font-family="DFMing-W14-WINP-BF, DFPMingSUBold-B5" fill="#000000">快</tspan>
                        <tspan x="267.559989" y="80" fill="#FFFFFF">！</tspan>
                        <tspan x="107.918527" y="108" font-family="DFMing-W14-WINP-BF, DFPMingSUBold-B5" font-size="20" letter-spacing="1.42857134" fill="#000000">限時 15 秒</tspan>
                        <tspan x="215.652902" y="108" font-size="20" letter-spacing="1.42857134" fill="#000000">，</tspan>
                        <tspan x="237.081473" y="108" fill="#FFFFFF"></tspan>
                        <tspan x="71.1537391" y="136" fill="#FFFFFF">贏得你 </tspan>
                        <tspan x="127.939453" y="136" font-family="DFMing-W14-WINP-BF, DFPMingSUBold-B5" fill="#FFFFFF">2017</tspan>
                        <tspan x="168.846261" y="136" fill="#FFFFFF"> 年的運勢吧！</tspan>
                    </text>
                </g>
            </g>
        </g>
    </g>
</svg>