<?xml version="1.0" encoding="UTF-8"?>
<svg width="118px" height="76px" viewBox="0 0 118 76" version="1.1" xmlns="http://www.w3.org/2000/svg" xmlns:xlink="http://www.w3.org/1999/xlink">
    <!-- Generator: Sketch 41.1 (35376) - http://www.bohemiancoding.com/sketch -->
    <title>img_cloud</title>
    <desc>Created with Sketch.</desc>
    <defs></defs>
    <g id="Page-1" stroke="none" stroke-width="1" fill="none" fill-rule="evenodd">
        <g id="Artboard" transform="translate(-296.000000, -429.000000)" fill="#FFFFFF">
            <path d="M361.360089,479.273307 C358.292334,480.739937 355.463681,482.524657 352.376713,483.478928 C344.582439,485.889154 337.189514,484.595445 331.17569,479.025667 C322.920292,471.380831 323.910855,456.057002 332.753332,449.031268 C337.870525,444.966547 344.644349,445.096772 349.571543,449.360032 C354.144355,453.313743 354.129411,460.781387 349.533116,464.05622 C348.034464,465.123637 346.239069,465.759817 344.998732,464.1224 C343.745585,462.46577 345.207945,461.362062 346.441878,460.136668 C347.370531,459.21442 348.168958,457.536441 348.045138,456.293969 C347.596823,451.795876 341.497606,449.317336 337.208727,451.695539 C330.249173,455.548912 328.084453,467.802852 333.227264,474.209484 C340.42592,483.171512 356.343232,480.96623 361.586381,470.317684 C365.138743,463.104085 364.666945,455.813632 362.139303,448.480481 C360.320425,443.211714 356.917502,439.283622 351.91132,436.745306 C344.371091,432.921821 336.60457,432.832158 328.874341,435.754744 C321.472876,438.555644 316.816806,443.856434 315.230625,451.857787 C313.63804,459.886892 315.328828,467.424986 317.911975,474.899035 C318.829953,477.556902 317.990964,478.786566 315.172985,478.654206 C313.640175,478.581622 312.081747,478.402296 310.574555,478.594431 C307.707475,478.959487 304.797698,479.459038 303.038596,482.17241 C300.656123,485.844322 301.486573,493.734664 304.616237,496.768261 C305.376238,497.504778 306.386014,498.239161 307.382981,498.427026 C310.209499,498.960734 313.089388,499.517925 315.950064,499.526465 C341.647044,499.607588 367.34616,499.609723 393.045275,499.528599 C396.083142,499.517925 399.167975,499.097363 402.141797,498.452644 C408.061688,497.169609 410.341689,492.086573 407.611238,486.753761 C405.467866,482.567354 398.412244,481.194657 395.609209,484.554883 C394.475613,485.914772 393.186174,486.977918 391.822016,485.895558 C391.015049,485.255108 390.948869,483.376456 390.972352,482.061399 C391.015049,479.698139 391.732353,477.311396 391.538083,474.986563 C390.763139,465.685098 380.535156,460.209252 372.217848,464.463973 C365.713013,467.794312 364.66054,475.618474 367.0238,481.0196 C368.844812,485.182524 372.44841,486.495446 376.446951,484.386232 C377.753469,483.694546 378.897739,481.766792 379.14111,480.248926 C379.384481,478.73106 378.643694,477.006115 376.348749,476.656003 C375.57167,476.538587 374.461557,474.984429 374.514928,474.149709 C374.564029,473.417461 375.949535,472.328697 376.871783,472.179259 C379.418638,471.767236 381.974033,473.692855 383.084146,476.43398 C385.83808,483.244096 382.085044,489.023088 374.316388,489.930392 C367.960991,490.671179 363.121326,486.687581 361.360089,479.273307 M369.2547,460.365095 C375.940996,457.416891 382.138415,457.540711 388.261115,461.306556 C394.57595,465.187682 396.382018,471.195101 396.589097,478.210161 C401.294268,477.373306 405.48708,478.114093 408.979666,481.098589 C412.681466,484.262411 414.171579,488.436009 413.330455,493.222304 C412.410342,498.463318 408.92843,501.682646 403.982023,502.918714 C400.301571,503.838827 396.414041,504.323434 392.616174,504.340512 C366.487957,504.457928 340.357605,504.445119 314.227254,504.361861 C309.438824,504.349052 304.430507,503.962647 301.149269,499.917139 C299.36028,497.713992 297.949155,494.817024 297.436795,492.037472 C296.138817,484.990389 296.945784,479.064094 303.023652,475.9878 C305.749834,474.606563 308.932869,474.134765 312.124444,473.1869 C311.631298,470.791617 310.95669,467.94802 310.472083,465.070266 C309.225341,457.683745 309.583993,450.435988 313.003995,443.617333 C317.309952,435.033171 324.914226,430.923618 333.904006,429.484741 C341.247831,428.310583 348.540419,429.187999 355.201097,433.013619 C363.309191,437.669689 367.043013,445.083963 368.42852,453.971271 C368.74234,455.980148 368.953689,458.006105 369.2547,460.365095" id="img_cloud"></path>
        </g>
    </g>
</svg>