<?xml version="1.0" encoding="UTF-8"?>
<svg width="324px" height="76px" viewBox="0 0 324 76" version="1.1" xmlns="http://www.w3.org/2000/svg" xmlns:xlink="http://www.w3.org/1999/xlink">
    <!-- Generator: Sketch 41.1 (35376) - http://www.bohemiancoding.com/sketch -->
    <title>method_kv</title>
    <desc>Created with Sketch.</desc>
    <defs>
        <text id="text-1" font-family="DFMing-W14-WINP-BF, DFPMingSUBold-B5" font-size="20" font-weight="bold" letter-spacing="1.99999988">
            <tspan x="0.34961015" y="26">台北     香港來回機票</tspan>
        </text>
        <filter x="-50%" y="-50%" width="200%" height="200%" filterUnits="objectBoundingBox" id="filter-2">
            <feOffset dx="0" dy="0" in="SourceAlpha" result="shadowOffsetOuter1"></feOffset>
            <feGaussianBlur stdDeviation="1" in="shadowOffsetOuter1" result="shadowBlurOuter1"></feGaussianBlur>
            <feColorMatrix values="0 0 0 0 0   0 0 0 0 0   0 0 0 0 0  0 0 0 0.2 0" type="matrix" in="shadowBlurOuter1"></feColorMatrix>
        </filter>
        <path d="M13.6954839,21.6034194 C13.3806452,22.706 14.5832258,23.2563226 17.3045161,23.2563226 L16.4025806,26.4130968 L0,26.4130968 L0.901935484,23.2563226 C4.08451613,23.2563226 5.83354839,22.706 6.1483871,21.6047097 L10.1645161,7.54664516 L5.04387097,7.54664516 L5.73677419,4.58212903 C9.35290323,4.50470968 12.2651613,2.97825806 14.4774194,0.000193548387 L19.9774194,0.422774194 C19.7032258,1.1143871 19.476129,1.70406452 19.2993548,2.19116129 C19.1212903,2.67825806 18.9709677,3.13890323 18.8464516,3.57503226 L13.6954839,21.6034194 Z" id="path-3"></path>
        <filter x="-50%" y="-50%" width="200%" height="200%" filterUnits="objectBoundingBox" id="filter-4">
            <feMorphology radius="3" operator="dilate" in="SourceAlpha" result="shadowSpreadOuter1"></feMorphology>
            <feOffset dx="0" dy="2" in="shadowSpreadOuter1" result="shadowOffsetOuter1"></feOffset>
            <feGaussianBlur stdDeviation="2" in="shadowOffsetOuter1" result="shadowBlurOuter1"></feGaussianBlur>
            <feComposite in="shadowBlurOuter1" in2="SourceAlpha" operator="out" result="shadowBlurOuter1"></feComposite>
            <feColorMatrix values="0 0 0 0 0   0 0 0 0 0   0 0 0 0 0  0 0 0 0.5 0" type="matrix" in="shadowBlurOuter1"></feColorMatrix>
        </filter>
        <mask id="mask-5" maskContentUnits="userSpaceOnUse" maskUnits="objectBoundingBox" x="-3" y="-3" width="25.9774194" height="32.4129032">
            <rect x="-3" y="-2.99980645" width="25.9774194" height="32.4129032" fill="white"></rect>
            <use xlink:href="#path-3" fill="black"></use>
        </mask>
        <path d="M23.7103714,19.1827286 C23.6660143,19.5163714 23.5830857,19.9188 23.4609429,20.3919429 C23.3381571,20.8650857 23.2365857,21.2424429 23.1568714,21.5233714 C22.9595143,22.2144429 22.6830857,22.8656571 22.3295143,23.4802286 C21.9746571,24.0941571 21.5265857,24.6315857 20.9865857,25.0912286 C20.4453,25.5515143 19.8236571,25.9166571 19.1203714,26.1853714 C18.4164429,26.4540857 17.6295857,26.5878 16.7604429,26.5878 C15.3538714,26.5878 14.2500857,26.4663 13.4503714,26.2226571 C12.6493714,25.9803 11.9396571,25.7115857 11.3205857,25.4178 C10.7008714,25.1233714 10.0747286,24.8553 9.44087143,24.6116571 C8.80637143,24.3693 7.96551429,24.2471571 6.91701429,24.2471571 C6.02087143,24.2471571 5.24108571,24.4072286 4.5738,24.7273714 C3.90651429,25.0468714 3.30287143,25.5264429 2.76222857,26.1654429 L-0.000128571429,26.1654429 C1.00465714,23.9919429 2.10908571,22.2080143 3.31315714,20.8136571 C4.51722857,19.4199429 5.74444286,18.2563714 6.99608571,17.3223 C8.24772857,16.3888714 9.4833,15.6026571 10.7015143,14.9630143 C11.9203714,14.3233714 13.0524429,13.6715143 14.0996571,13.0068 C15.1462286,12.3408 16.0668,11.5809429 16.8620143,10.7233714 C17.6565857,9.86708571 18.2512286,8.74787143 18.6459429,7.36637143 C19.0406571,5.98487143 18.9538714,4.92415714 18.3855857,4.18165714 C17.8173,3.44108571 16.8678,3.06951429 15.5383714,3.06951429 C14.2590857,3.06951429 13.2453,3.26108571 12.4963714,3.64487143 C11.7474429,4.02865714 11.1515143,4.50244286 10.7098714,5.0643 C11.2395857,5.09001429 11.6632286,5.3523 11.9808,5.85115714 C12.2996571,6.34937143 12.3523714,6.97037143 12.1395857,7.71158571 C11.8843714,8.60708571 11.3970857,9.34894286 10.6790143,9.93715714 C9.96094286,10.5253714 9.10401429,10.8191571 8.1063,10.8191571 C7.13365714,10.8191571 6.47537143,10.5060857 6.13015714,9.8793 C5.78558571,9.25315714 5.75087143,8.45408571 6.02922857,7.48144286 C6.25551429,6.6888 6.6798,5.85115714 7.30337143,4.96851429 C7.92565714,4.08587143 8.74465714,3.28101429 9.75908571,2.55137143 C10.7728714,1.82237143 11.9756571,1.21487143 13.3680857,0.728871429 C14.7598714,0.243514286 16.3252286,-0.000128571428 18.0648,-0.000128571428 C19.3698,-0.000128571428 20.6111571,0.128442857 21.7920857,0.383657143 C22.9717286,0.639514286 23.9604429,1.07408571 24.7569429,1.68801429 C25.5534429,2.30194286 26.1063,3.12094286 26.4155143,4.14372857 C26.7234429,5.16715714 26.6591571,6.4458 26.2207286,7.97965714 C25.7167286,9.74494286 24.9343714,11.1843 23.8749429,12.2964429 C22.8148714,13.4092286 21.6153,14.3169429 20.2768714,15.0202286 C18.9378,15.7241571 17.5344429,16.2930857 16.0674429,16.7283 C14.6004429,17.1628714 13.1906571,17.5974429 11.8387286,18.0326571 C10.4868,18.4678714 9.27758571,18.9590143 8.21301429,19.5093 C7.1478,20.0589429 6.35194286,20.8078714 5.82672857,21.7535143 C6.75758571,21.0888 7.67237143,20.6156571 8.57172857,20.3340857 C9.47108571,20.0531571 10.4321571,19.9123714 11.4555857,19.9123714 C12.3247286,19.9123714 13.0569429,19.9888714 13.6528714,20.1418714 C14.2481571,20.2955143 14.7894429,20.4626571 15.2748,20.6413714 C15.7608,20.8207286 16.2378,20.9865857 16.7058,21.1395857 C17.1738,21.2932286 17.7138,21.3697286 18.3277286,21.3697286 C19.0438714,21.3697286 19.6803,21.2231571 20.2383,20.9287286 C20.7950143,20.6355857 21.2623714,20.0531571 21.6384429,19.1827286 L23.7103714,19.1827286 Z" id="path-6"></path>
        <filter x="-50%" y="-50%" width="200%" height="200%" filterUnits="objectBoundingBox" id="filter-7">
            <feMorphology radius="3" operator="dilate" in="SourceAlpha" result="shadowSpreadOuter1"></feMorphology>
            <feOffset dx="0" dy="2" in="shadowSpreadOuter1" result="shadowOffsetOuter1"></feOffset>
            <feGaussianBlur stdDeviation="2" in="shadowOffsetOuter1" result="shadowBlurOuter1"></feGaussianBlur>
            <feComposite in="shadowBlurOuter1" in2="SourceAlpha" operator="out" result="shadowBlurOuter1"></feComposite>
            <feColorMatrix values="0 0 0 0 0   0 0 0 0 0   0 0 0 0 0  0 0 0 0.5 0" type="matrix" in="shadowBlurOuter1"></feColorMatrix>
        </filter>
        <mask id="mask-8" maskContentUnits="userSpaceOnUse" maskUnits="objectBoundingBox" x="-3" y="-3" width="32.6065659" height="32.5879286">
            <rect x="-3.00012857" y="-3.00012857" width="32.6065659" height="32.5879286" fill="white"></rect>
            <use xlink:href="#path-6" fill="black"></use>
        </mask>
    </defs>
    <g id="Page-1" stroke="none" stroke-width="1" fill="none" fill-rule="evenodd">
        <g id="Artboard-3" transform="translate(-861.000000, -49.000000)">
            <g id="method_kv" transform="translate(862.000000, 49.000000)">
                <g id="台北-香港來回機票" fill="#83071C">
                    <use fill-opacity="1" filter="url(#filter-2)" xlink:href="#text-1"></use>
                    <use fill-rule="evenodd" xlink:href="#text-1"></use>
                    <use fill-opacity="1" xlink:href="#text-1"></use>
                </g>
                <g id="Page-1" transform="translate(47.000000, 42.000000)">
                    <g id="Fill-1">
                        <use fill="black" fill-opacity="1" filter="url(#filter-4)" xlink:href="#path-3"></use>
                        <use fill="#83071C" fill-rule="evenodd" xlink:href="#path-3"></use>
                        <use stroke="#FFFFFF" mask="url(#mask-5)" stroke-width="6" xlink:href="#path-3"></use>
                    </g>
                </g>
                <g id="Page-1" transform="translate(142.000000, 41.000000)">
                    <g id="Fill-1">
                        <use fill="black" fill-opacity="1" filter="url(#filter-7)" xlink:href="#path-6"></use>
                        <use fill="#83071C" fill-rule="evenodd" xlink:href="#path-6"></use>
                        <use stroke="#FFFFFF" mask="url(#mask-8)" stroke-width="6" xlink:href="#path-6"></use>
                    </g>
                </g>
                <text id="人中獎-人同行" font-family="DFMing-W14-WINP-BF, DFPMingSUBold-B5" font-size="20" font-weight="bold" letter-spacing="1.99999988" fill="#83071C">
                    <tspan x="73.1796881" y="61">人中獎    人同行</tspan>
                </text>
                <path d="M254.683059,45.7536941 C253.590289,42.3655382 253,38.7517038 253,35 C253,15.6700338 268.670034,0 288,0 C307.329966,0 323,15.6700338 323,35 C323,54.3299662 307.329966,70 288,70 C277.243867,70 267.620977,65.1480079 261.200623,57.5133164 L246.04498,57.8929625 L254.683059,45.7536941 Z" id="Combined-Shape" fill="#BA0017"></path>
                <text id="共-組" font-family="PingFangTC-Medium, PingFang TC" font-size="14" font-weight="400" letter-spacing="1.39999986" fill="#FFFFFF">
                    <tspan x="258" y="40">共     組</tspan>
                </text>
                <g id="Page-1" transform="translate(275.000000, 21.000000)" fill="#FFFFFF">
                    <path d="M11.0052417,10.9668851 C11.8625684,10.9197002 12.6895048,10.7981389 13.4868506,10.6022014 C14.2801977,10.4062639 15.0095652,10.1231541 15.6701546,9.7520724 C16.3307441,9.38338992 16.9001626,8.91873804 17.3768106,8.36211548 C17.8534587,7.80469317 18.2061462,7.13050809 18.4340736,6.33636124 C18.7763645,5.14634059 18.6468058,4.19544371 18.0445977,3.48686959 C17.4431894,2.77669597 16.2579673,2.41920993 14.4913304,2.41361171 C13.4628583,2.41041273 12.4511808,2.57436047 11.4578974,2.90625467 C10.464614,3.23734913 9.58809346,3.76278163 8.82673616,4.4809527 C9.47213042,4.53213638 9.97197109,4.76966066 10.3262581,5.19192606 C10.6797455,5.61579094 10.7637187,6.15002064 10.5789776,6.79381541 C10.3654457,7.53837807 9.93198383,8.17017666 9.2817911,8.68921121 C8.63079862,9.20824575 7.84384948,9.46656341 6.92094368,9.46336443 C6.05002131,9.46016545 5.44701353,9.19145111 5.11192035,8.65642166 C4.77682717,8.12219196 4.7312417,7.43281172 4.97356445,6.58908068 C5.17270097,5.89570171 5.54698166,5.16473472 6.09800601,4.39617972 C6.64823061,3.62842446 7.39279326,2.92065008 8.33169397,2.27365633 C9.27139441,1.62426334 10.4110311,1.08283593 11.7514038,0.646175129 C13.0901771,0.209514326 14.6448815,-0.006416841 16.4131178,-1.88805102e-05 C17.7310977,0.0039798448 18.9443109,0.126340839 20.0503583,0.366264358 C21.155606,0.606187876 22.0785118,0.982068055 22.8166765,1.49390489 C23.5532417,2.00654148 24.0690773,2.64953651 24.361784,3.419691 C24.6552904,4.19064524 24.6496922,5.11115181 24.3425901,6.17881146 C23.9075288,7.69352861 23.0589993,8.89714493 21.8002005,9.78726118 C20.5406021,10.6781772 18.7283798,11.3307691 16.3651331,11.7458368 C18.7523721,12.0769313 20.3974477,12.8094978 21.3003599,13.9435363 C22.2024723,15.0783745 22.407207,16.501121 21.9153638,18.2149746 C21.5218893,19.5809392 20.8884912,20.7533655 20.0135701,21.7330532 C19.1378492,22.7119411 18.087784,23.5164846 16.8633743,24.145884 C15.6389646,24.7768829 14.2769988,25.243934 12.7774768,25.5494366 C11.2763553,25.8541395 9.70805522,26.0052913 8.07257657,25.9996931 C6.51547293,25.9940948 5.18869587,25.7909596 4.08824667,25.3902873 C2.98859721,24.9904148 2.11047713,24.4849759 1.45468618,23.8739707 C0.797295744,23.2645649 0.364633666,22.5855814 0.15669995,21.840219 C-0.0512337661,21.0948566 -0.0520335111,20.3630899 0.15510046,19.6433193 C0.403021429,18.7755959 0.848479428,18.075819 1.49067471,17.5439885 C2.13047076,17.0129578 2.91342118,16.7482422 3.83632698,16.7514412 C4.73284119,16.7538404 5.36463979,17.0161568 5.72932354,17.5399898 C6.09480703,18.0622233 6.16278536,18.7204135 5.93485802,19.5145604 C5.7925034,20.0104023 5.47340512,20.4750542 4.98076216,20.9061168 C4.48571997,21.3403783 3.96748517,21.5803019 3.42605776,21.6282866 C3.5972032,22.2240966 4.17861786,22.7103416 5.16630301,23.0854221 C6.15478791,23.4613022 7.32161595,23.6516416 8.66758689,23.65644 C10.5653819,23.662838 12.1264843,23.2397729 13.3492945,22.3864449 C14.5697054,21.5347164 15.4062388,20.3271013 15.854096,18.7643995 C16.4315119,16.7554399 16.2627657,15.2975046 15.3494569,14.3873948 C14.4345485,13.4788844 12.7414882,12.9214621 10.2646778,12.7143281 L11.0052417,10.9668851 Z" id="Fill-1"></path>
                </g>
                <g id="Page-1" transform="translate(53.000000, 6.000000)" fill="#D0011B">
                    <path d="M0.0165833333,15.6588333 L0.872416667,12.463 L0.0165833333,9.26716667 C-0.04925,9.02133333 0.0874166667,8.7355 0.319916667,8.633 L0.98075,8.3405 C1.21408333,8.23716667 1.51658333,8.32883333 1.65408333,8.54216667 L3.14575,10.8613333 L11.4824167,10.3955 L7.69408333,0.646333333 C7.55658333,0.291333333 7.75491667,-0.000333333333 8.13658333,-0.000333333333 L11.1040833,-0.000333333333 C11.48575,-0.000333333333 11.9674167,0.261333333 12.1749167,0.582166667 L18.2974167,10.0155 L22.0774167,9.80383333 C23.54575,9.72133333 24.80325,10.8455 24.88575,12.3138333 C24.9665833,13.783 23.84325,15.0396667 22.3749167,15.1221667 C22.27575,15.1271667 22.1749167,15.1271667 22.0774167,15.1221667 L18.33075,14.9121667 L12.1765833,24.3446667 C11.96825,24.6646667 11.48575,24.9255 11.1040833,24.9255 L8.13658333,24.9255 C7.75491667,24.9255 7.55658333,24.6346667 7.69575,24.2796667 L11.5024167,14.5305 L3.14575,14.0638333 L1.65408333,16.3838333 C1.51658333,16.5971667 1.21408333,16.688 0.98075,16.5855 L0.319916667,16.293 C0.0874166667,16.1896667 -0.04925,15.9046667 0.0165833333,15.6588333" id="Fill-1"></path>
                </g>
            </g>
        </g>
    </g>
</svg>