<?xml version="1.0" encoding="UTF-8"?>
<svg width="324px" height="76px" viewBox="0 0 324 76" version="1.1" xmlns="http://www.w3.org/2000/svg" xmlns:xlink="http://www.w3.org/1999/xlink">
    <!-- Generator: Sketch 41.1 (35376) - http://www.bohemiancoding.com/sketch -->
    <title>method_kv</title>
    <desc>Created with Sketch.</desc>
    <defs>
        <path d="M13.6954839,21.6034194 C13.3806452,22.706 14.5832258,23.2563226 17.3045161,23.2563226 L16.4025806,26.4130968 L0,26.4130968 L0.901935484,23.2563226 C4.08451613,23.2563226 5.83354839,22.706 6.1483871,21.6047097 L10.1645161,7.54664516 L5.04387097,7.54664516 L5.73677419,4.58212903 C9.35290323,4.50470968 12.2651613,2.97825806 14.4774194,0.000193548387 L19.9774194,0.422774194 C19.7032258,1.1143871 19.476129,1.70406452 19.2993548,2.19116129 C19.1212903,2.67825806 18.9709677,3.13890323 18.8464516,3.57503226 L13.6954839,21.6034194 Z" id="path-1"></path>
        <filter x="-50%" y="-50%" width="200%" height="200%" filterUnits="objectBoundingBox" id="filter-2">
            <feMorphology radius="3" operator="dilate" in="SourceAlpha" result="shadowSpreadOuter1"></feMorphology>
            <feOffset dx="0" dy="2" in="shadowSpreadOuter1" result="shadowOffsetOuter1"></feOffset>
            <feGaussianBlur stdDeviation="2" in="shadowOffsetOuter1" result="shadowBlurOuter1"></feGaussianBlur>
            <feComposite in="shadowBlurOuter1" in2="SourceAlpha" operator="out" result="shadowBlurOuter1"></feComposite>
            <feColorMatrix values="0 0 0 0 0   0 0 0 0 0   0 0 0 0 0  0 0 0 0.5 0" type="matrix" in="shadowBlurOuter1"></feColorMatrix>
        </filter>
        <mask id="mask-3" maskContentUnits="userSpaceOnUse" maskUnits="objectBoundingBox" x="-3" y="-3" width="25.9774194" height="32.4129032">
            <rect x="-3" y="-2.99980645" width="25.9774194" height="32.4129032" fill="white"></rect>
            <use xlink:href="#path-1" fill="black"></use>
        </mask>
        <path d="M23.7103714,19.1827286 C23.6660143,19.5163714 23.5830857,19.9188 23.4609429,20.3919429 C23.3381571,20.8650857 23.2365857,21.2424429 23.1568714,21.5233714 C22.9595143,22.2144429 22.6830857,22.8656571 22.3295143,23.4802286 C21.9746571,24.0941571 21.5265857,24.6315857 20.9865857,25.0912286 C20.4453,25.5515143 19.8236571,25.9166571 19.1203714,26.1853714 C18.4164429,26.4540857 17.6295857,26.5878 16.7604429,26.5878 C15.3538714,26.5878 14.2500857,26.4663 13.4503714,26.2226571 C12.6493714,25.9803 11.9396571,25.7115857 11.3205857,25.4178 C10.7008714,25.1233714 10.0747286,24.8553 9.44087143,24.6116571 C8.80637143,24.3693 7.96551429,24.2471571 6.91701429,24.2471571 C6.02087143,24.2471571 5.24108571,24.4072286 4.5738,24.7273714 C3.90651429,25.0468714 3.30287143,25.5264429 2.76222857,26.1654429 L-0.000128571429,26.1654429 C1.00465714,23.9919429 2.10908571,22.2080143 3.31315714,20.8136571 C4.51722857,19.4199429 5.74444286,18.2563714 6.99608571,17.3223 C8.24772857,16.3888714 9.4833,15.6026571 10.7015143,14.9630143 C11.9203714,14.3233714 13.0524429,13.6715143 14.0996571,13.0068 C15.1462286,12.3408 16.0668,11.5809429 16.8620143,10.7233714 C17.6565857,9.86708571 18.2512286,8.74787143 18.6459429,7.36637143 C19.0406571,5.98487143 18.9538714,4.92415714 18.3855857,4.18165714 C17.8173,3.44108571 16.8678,3.06951429 15.5383714,3.06951429 C14.2590857,3.06951429 13.2453,3.26108571 12.4963714,3.64487143 C11.7474429,4.02865714 11.1515143,4.50244286 10.7098714,5.0643 C11.2395857,5.09001429 11.6632286,5.3523 11.9808,5.85115714 C12.2996571,6.34937143 12.3523714,6.97037143 12.1395857,7.71158571 C11.8843714,8.60708571 11.3970857,9.34894286 10.6790143,9.93715714 C9.96094286,10.5253714 9.10401429,10.8191571 8.1063,10.8191571 C7.13365714,10.8191571 6.47537143,10.5060857 6.13015714,9.8793 C5.78558571,9.25315714 5.75087143,8.45408571 6.02922857,7.48144286 C6.25551429,6.6888 6.6798,5.85115714 7.30337143,4.96851429 C7.92565714,4.08587143 8.74465714,3.28101429 9.75908571,2.55137143 C10.7728714,1.82237143 11.9756571,1.21487143 13.3680857,0.728871429 C14.7598714,0.243514286 16.3252286,-0.000128571428 18.0648,-0.000128571428 C19.3698,-0.000128571428 20.6111571,0.128442857 21.7920857,0.383657143 C22.9717286,0.639514286 23.9604429,1.07408571 24.7569429,1.68801429 C25.5534429,2.30194286 26.1063,3.12094286 26.4155143,4.14372857 C26.7234429,5.16715714 26.6591571,6.4458 26.2207286,7.97965714 C25.7167286,9.74494286 24.9343714,11.1843 23.8749429,12.2964429 C22.8148714,13.4092286 21.6153,14.3169429 20.2768714,15.0202286 C18.9378,15.7241571 17.5344429,16.2930857 16.0674429,16.7283 C14.6004429,17.1628714 13.1906571,17.5974429 11.8387286,18.0326571 C10.4868,18.4678714 9.27758571,18.9590143 8.21301429,19.5093 C7.1478,20.0589429 6.35194286,20.8078714 5.82672857,21.7535143 C6.75758571,21.0888 7.67237143,20.6156571 8.57172857,20.3340857 C9.47108571,20.0531571 10.4321571,19.9123714 11.4555857,19.9123714 C12.3247286,19.9123714 13.0569429,19.9888714 13.6528714,20.1418714 C14.2481571,20.2955143 14.7894429,20.4626571 15.2748,20.6413714 C15.7608,20.8207286 16.2378,20.9865857 16.7058,21.1395857 C17.1738,21.2932286 17.7138,21.3697286 18.3277286,21.3697286 C19.0438714,21.3697286 19.6803,21.2231571 20.2383,20.9287286 C20.7950143,20.6355857 21.2623714,20.0531571 21.6384429,19.1827286 L23.7103714,19.1827286 Z" id="path-4"></path>
        <filter x="-50%" y="-50%" width="200%" height="200%" filterUnits="objectBoundingBox" id="filter-5">
            <feMorphology radius="3" operator="dilate" in="SourceAlpha" result="shadowSpreadOuter1"></feMorphology>
            <feOffset dx="0" dy="2" in="shadowSpreadOuter1" result="shadowOffsetOuter1"></feOffset>
            <feGaussianBlur stdDeviation="2" in="shadowOffsetOuter1" result="shadowBlurOuter1"></feGaussianBlur>
            <feComposite in="shadowBlurOuter1" in2="SourceAlpha" operator="out" result="shadowBlurOuter1"></feComposite>
            <feColorMatrix values="0 0 0 0 0   0 0 0 0 0   0 0 0 0 0  0 0 0 0.5 0" type="matrix" in="shadowBlurOuter1"></feColorMatrix>
        </filter>
        <mask id="mask-6" maskContentUnits="userSpaceOnUse" maskUnits="objectBoundingBox" x="-3" y="-3" width="32.6065659" height="32.5879286">
            <rect x="-3.00012857" y="-3.00012857" width="32.6065659" height="32.5879286" fill="white"></rect>
            <use xlink:href="#path-4" fill="black"></use>
        </mask>
    </defs>
    <g id="Page-1" stroke="none" stroke-width="1" fill="none" fill-rule="evenodd">
        <g id="Artboard-3" transform="translate(-861.000000, -49.000000)">
            <g id="method_kv" transform="translate(863.000000, 49.000000)">
                <path d="M6.0097664,10.6875 L10.2089851,12.1914062 C10.6256539,12.3085943 10.8339851,12.4908842 10.8339851,12.7382812 C10.8339851,12.9335947 10.664716,13.0377604 10.3261726,13.0507812 C10.1048174,13.0898439 9.95507929,13.1484371 9.8769539,13.2265625 L6.1269539,17.015625 C8.05404687,16.9765623 10.6386564,16.9309898 13.8808601,16.8789062 C13.386066,15.8372344 12.682948,14.9388059 11.7714851,14.1835938 L12.0253914,13.890625 C14.5774875,14.5937535 16.2571582,15.3359336 17.0644539,16.1171875 C17.8587287,16.8984414 18.2558601,17.7578078 18.2558601,18.6953125 C18.2558601,19.2161484 18.0996117,19.7044248 17.7871101,20.1601562 C17.3704414,20.6028668 16.9407582,20.8242188 16.4980476,20.8242188 C15.5214803,20.8242188 14.8509141,20.0299559 14.4863289,18.4414062 C14.4212244,18.2330719 14.3626312,18.0182303 14.3105476,17.796875 C10.4303199,18.9296932 7.02540605,19.815101 4.0957039,20.453125 L6.7910164,21.3515625 L12.0839851,21.3515625 L13.6464851,19.828125 L16.5175789,21.546875 C16.7779969,21.7291676 16.9082039,21.885416 16.9082039,22.015625 C16.9082039,22.2630221 16.8235693,22.4322912 16.6542976,22.5234375 C16.4720051,22.6145838 16.3613291,22.7252598 16.3222664,22.8554688 L16.3222664,28.2460938 C16.3222664,28.4804699 16.1269559,28.630208 15.7363289,28.6953125 C14.0045494,28.9296887 13.0735691,29.046875 12.9433601,29.046875 C12.5527332,29.046875 12.3574226,28.7343781 12.3574226,28.109375 L12.3574226,27.5820312 L6.2050789,27.5820312 L6.2050789,28.3046875 C6.2050789,28.5520846 6.02278906,28.7148434 5.6582039,28.7929688 C4.0175707,29.014324 3.13867324,29.125 3.02148515,29.125 C2.6308582,29.125 2.43554765,28.8190135 2.43554765,28.2070312 L2.43554765,21.3710938 C2.27929687,21.4882818 2.14257949,21.546875 2.0253914,21.546875 C1.85611972,21.546875 1.69987128,21.3450541 1.5566414,20.9414062 L0.5019539,16.859375 C1.27018691,17.0156258 2.04491874,17.09375 2.82617265,17.09375 L3.84179765,17.09375 C4.72721874,14.789051 5.29361933,13.2981805 5.5410164,12.6210938 C5.81445527,11.8789025 5.9707037,11.2343777 6.0097664,10.6875 Z M6.2050789,27.0351562 L12.3574226,27.0351562 L12.3574226,21.8789062 L6.2050789,21.8789062 L6.2050789,27.0351562 Z M22.5605475,16.5664062 C23.3157596,16.6705734 24.0514294,16.7226562 24.7675788,16.7226562 L26.4472663,16.7226562 L26.4472663,12.3476562 C26.4472663,11.8789039 26.3951835,11.3971379 26.2910163,10.9023438 L29.94336,11.1757812 C30.4772169,11.2408857 30.7441413,11.3841135 30.7441413,11.6054688 C30.7441413,11.8138031 30.6529964,11.9895826 30.4707038,12.1328125 C30.3014321,12.197917 30.1907561,12.308593 30.1386725,12.4648438 L30.1386725,28.421875 C30.1386725,28.6562512 29.9498723,28.81901 29.5722663,28.9101562 C27.9706958,29.0924488 27.1243501,29.1835938 27.0332038,29.1835938 C26.6425768,29.1835938 26.4472663,28.8971383 26.4472663,28.3242188 L26.4472663,24.6132812 L24.3574225,27.0351562 C24.2402344,27.2174488 24.1555999,27.3671869 24.1035163,27.484375 C23.9863282,27.7317721 23.8365901,27.8554688 23.6542975,27.8554688 C23.4589841,27.8554688 23.2832046,27.6471375 23.1269538,27.2304688 L22.1894538,23.1679688 C22.7363315,23.1679688 23.1204423,23.1419273 23.3417975,23.0898438 C24.305344,22.8945303 25.3404899,22.6015645 26.4472663,22.2109375 L26.4472663,17.2890625 L24.7675788,17.2890625 C24.1555966,17.2890625 23.5371132,17.3411453 22.91211,17.4453125 L22.5605475,16.5664062 Z M31.3300788,10.9804688 L35.3925788,11.3515625 C35.6660176,11.4296879 35.802735,11.5468742 35.802735,11.703125 C35.802735,12.0026057 35.6920591,12.2109369 35.4707038,12.328125 C35.2753903,12.3802086 35.1386729,12.4778639 35.0605475,12.6210938 L35.0605475,17.2695312 C35.516279,16.5012982 35.887369,15.8502631 36.1738288,15.3164062 C36.4212259,14.7955703 36.6035157,14.3463561 36.7207038,13.96875 L40.1582038,16.4882812 C40.4186217,16.6835947 40.5488288,16.9049467 40.5488288,17.1523438 C40.522787,17.4127617 40.3339868,17.5429688 39.9824225,17.5429688 C39.8782553,17.5429688 39.7480483,17.529948 39.5917975,17.5039062 C37.8730389,18.4934945 36.3626374,19.2812471 35.0605475,19.8671875 L35.0605475,24.1445312 C35.0605475,24.8085971 35.2102856,25.1601561 35.5097663,25.1992188 C35.8092469,25.3033859 36.2649716,25.3554688 36.8769538,25.3554688 C37.4759151,25.3554688 37.8014327,25.1406271 37.8535163,24.7109375 C37.9707044,24.1249971 38.0553389,23.2786514 38.1074225,22.171875 L38.615235,22.171875 C38.6803395,23.5520902 38.856119,24.3203117 39.1425788,24.4765625 C39.4420594,24.7630223 39.988929,24.9453121 40.7832038,25.0234375 C40.4707022,26.6510498 40.041019,27.7447889 39.4941413,28.3046875 C39.2076815,28.7083354 38.6543016,28.9101562 37.833985,28.9101562 L36.8769538,28.96875 C34.6894428,28.96875 33.3938829,28.8776051 32.990235,28.6953125 C31.9876259,28.3567691 31.4863288,27.3151129 31.4863288,25.5703125 L31.4863288,13.2460938 C31.4863288,12.4908816 31.434246,11.7356809 31.3300788,10.9804688 Z M101.904297,13.578125 C100.589186,13.6562504 99.3587296,13.7343746 98.2128906,13.8125 L98.2128906,15.5703125 L101.826172,15.5703125 L103.544922,13.34375 L105.634766,15.0625 C105.934246,15.322918 106.083984,15.5312492 106.083984,15.6875 C106.083984,15.9609389 105.927736,16.0976562 105.615234,16.0976562 L98.6816406,16.0976562 C99.2285183,16.4622414 99.9706984,16.7486969 100.908203,16.9570312 C102.067063,17.2565119 103.792306,17.4973949 106.083984,17.6796875 L106.083984,18.109375 C104.807936,18.5781273 104.000653,19.6718664 103.662109,21.390625 C101.7871,20.7395801 100.48503,20.0690139 99.7558593,19.3789062 C99.1438771,18.8320285 98.6295593,18.0507863 98.2128906,17.0351562 L98.2128906,20.2578125 C98.2128906,20.5052096 98.0110697,20.6744787 97.6074218,20.765625 C95.8626214,20.9609385 94.9772136,21.0585938 94.9511718,21.0585938 C94.5084613,21.0585938 94.2871093,20.7526072 94.2871093,20.140625 L94.2871093,18.4609375 C94.0136704,18.6692719 93.727215,18.838541 93.4277343,18.96875 C92.4772087,19.4505232 91.4225318,19.854165 90.2636718,20.1796875 L93.9746093,21.4296875 L98.9355468,21.4296875 L100.146484,19.984375 L102.958984,21.6445312 C103.219402,21.8398447 103.349609,22.0091139 103.349609,22.1523438 C103.349609,22.373699 103.310547,22.5364578 103.232422,22.640625 C103.141276,22.7187504 103.082682,22.8294264 103.056641,22.9726562 L103.056641,28.3242188 C103.056641,28.5585949 102.85482,28.7213537 102.451172,28.8125 C100.758455,29.0208344 99.8535162,29.125 99.7363281,29.125 C99.3457011,29.125 99.1503906,28.8190135 99.1503906,28.2070312 L99.1503906,28.1484375 L93.4863281,28.1484375 L93.4863281,28.421875 C93.4863281,28.6692721 93.3170589,28.8255205 92.9785156,28.890625 C91.4160078,29.0859385 90.5891931,29.1835938 90.4980468,29.1835938 C90.1204408,29.1835938 89.9316406,28.8971383 89.9316406,28.3242188 L89.9316406,21.5859375 C89.9316406,21.143227 89.8925785,20.7200541 89.8144531,20.3164062 C89.0331992,20.5507824 88.2454466,20.746093 87.4511718,20.9023438 L87.2753906,20.5898438 C88.6686267,19.8867152 89.7558554,19.1901076 90.5371093,18.5 C91.1490915,17.9401014 91.787106,17.1393281 92.4511718,16.0976562 L90.3027343,16.0976562 C89.4824177,16.0976562 88.6490927,16.1562494 87.8027343,16.2734375 L87.4902343,15.3359375 C88.4407599,15.4921883 89.3782505,15.5703125 90.3027343,15.5703125 L94.2871093,15.5703125 L94.2871093,14.0078125 C92.1386611,14.0859379 90.4134179,14.125 89.1113281,14.125 L88.9941406,13.7539062 C92.1842607,13.0247359 95.2115742,12.1458385 98.0761718,11.1171875 C98.5449242,10.9479158 98.9160142,10.7526053 99.1894531,10.53125 L102.685547,13.0117188 C102.932944,13.1679695 103.056641,13.3046869 103.056641,13.421875 C103.017578,13.6562512 102.835288,13.7734375 102.509766,13.7734375 C102.418619,13.7734375 102.216798,13.708334 101.904297,13.578125 Z M93.4863281,27.5820312 L99.1503906,27.5820312 L99.1503906,25.0039062 L93.4863281,25.0039062 L93.4863281,27.5820312 Z M93.4863281,24.4570312 L99.1503906,24.4570312 L99.1503906,21.9570312 L93.4863281,21.9570312 L93.4863281,24.4570312 Z M119.939453,14.1445312 L119.939453,17.2890625 L120.876953,17.2890625 L120.876953,14.1445312 L119.939453,14.1445312 Z M124.529297,17.25 L125.896484,15.5703125 L127.576172,16.9179688 C127.810548,17.1132822 127.927734,17.276041 127.927734,17.40625 C127.927734,17.6796889 127.804038,17.8164062 127.55664,17.8164062 L123.552734,17.8164062 C123.904298,18.1940123 124.340492,18.5065092 124.861328,18.7539062 C125.590498,19.0273451 126.638665,19.2682281 128.005859,19.4765625 L128.005859,19.90625 C126.781895,20.3489605 126.000653,21.3906168 125.662109,23.03125 C124.893876,22.4973932 124.320965,21.957034 123.943359,21.4101562 L123.943359,23.9492188 C123.943359,24.1575531 123.76758,24.2942705 123.416015,24.359375 C121.853508,24.5677094 121.020183,24.671875 120.916015,24.671875 C120.538409,24.671875 120.349609,24.3919299 120.349609,23.8320312 L120.349609,23.3046875 L119.001953,23.3046875 L119.001953,25.0820312 C119.001953,25.3033865 119.112629,25.479166 119.333984,25.609375 C119.659507,25.7526049 120.356114,25.8242188 121.423828,25.8242188 L123.357422,25.8046875 C124.008467,25.8046875 124.418619,25.6744805 124.58789,25.4140625 C124.770183,25.1015609 124.965494,24.4049533 125.173828,23.3242188 L125.583984,23.3242188 C125.583984,24.3919324 125.69466,24.9713537 125.916015,25.0625 C126.137371,25.3359389 126.599606,25.5442701 127.302734,25.6875 C127.055337,26.8854227 126.690757,27.725258 126.208984,28.2070312 C125.662106,28.6757836 124.737637,28.9101562 123.435547,28.9101562 L121.423828,28.96875 C119.027983,28.96875 117.517581,28.8971361 116.892578,28.7539062 C116.020178,28.532551 115.583984,27.9205779 115.583984,26.9179688 L115.583984,20.9023438 C114.972002,21.1888035 114.327477,21.4361969 113.65039,21.6445312 L113.33789,23.4609375 C113.246744,23.7343764 113.201172,24.0013008 113.201172,24.2617188 C113.201172,24.3919277 113.253255,24.5286451 113.357422,24.671875 C113.956383,25.4791707 114.255859,26.1627576 114.255859,26.7226562 C114.255859,27.3737012 114.041018,27.9466121 113.611328,28.4414062 C113.168617,28.8450541 112.608727,29.046875 111.93164,29.046875 C111.462888,29.046875 111.039715,28.8841162 110.662109,28.5585938 C110.271482,28.2330713 110.076172,27.7252639 110.076172,27.0351562 C110.076172,26.813801 110.167317,26.3841178 110.349609,25.7460938 C110.544923,25.3164041 110.642578,24.9583348 110.642578,24.671875 C110.642578,24.1119764 110.186853,23.7083346 109.27539,23.4609375 L109.27539,23.03125 C110.004561,23.0052082 110.434244,22.8619805 110.564453,22.6015625 L114.509765,15.1210938 L114.802734,15.3554688 L114.470703,17.2890625 L116.248047,17.2890625 L116.248047,14.1640625 C115.779294,14.1770834 115.317059,14.2226559 114.861328,14.3007812 L114.568359,13.3828125 C115.141279,13.5000006 115.701169,13.5716145 116.248047,13.5976562 L116.248047,11.78125 C116.248047,11.520832 116.195964,11.1822937 116.091797,10.765625 L119.685547,11 C120.219404,11.0390627 120.486328,11.1888008 120.486328,11.4492188 C120.486328,11.5794277 120.388673,11.6966141 120.193359,11.8007812 C120.06315,11.9049484 119.978516,12.0286451 119.939453,12.171875 L119.939453,13.5976562 L120.876953,13.5976562 L120.876953,11.78125 C120.876953,11.520832 120.811849,11.1822937 120.68164,10.765625 L124.314453,11 C124.84831,11.0390627 125.115234,11.1888008 125.115234,11.4492188 C125.115234,11.5794277 125.004558,11.6966141 124.783203,11.8007812 C124.652994,11.9049484 124.568359,12.0286451 124.529297,12.171875 L124.529297,13.5976562 L124.763672,13.5976562 L126.033203,12.1132812 L127.537109,13.3046875 C127.745444,13.4739592 127.849609,13.6236973 127.849609,13.7539062 C127.849609,14.0143242 127.738933,14.1445312 127.517578,14.1445312 L124.529297,14.1445312 L124.529297,17.25 Z M114.373047,17.8164062 L113.865234,20.4921875 C114.09961,20.2708322 114.294921,20.0755217 114.451172,19.90625 C114.880861,19.4114559 115.323565,18.7148482 115.779297,17.8164062 L114.373047,17.8164062 Z M119.001953,20.1601562 L119.001953,22.7382812 L120.349609,22.7382812 L120.349609,20.1601562 L119.001953,20.1601562 Z M120.173828,19.6328125 L121.46289,18.265625 L123.103515,19.2226562 C122.999348,18.7929666 122.908203,18.3242213 122.830078,17.8164062 L119.705078,17.8164062 C119.132158,18.4804721 118.585289,19.0143209 118.064453,19.4179688 L118.65039,19.6328125 L120.173828,19.6328125 Z M110.310547,11.1953125 C111.873055,11.1953125 112.89518,11.4036438 113.376953,11.8203125 C113.871747,12.2109395 114.11914,12.7057262 114.11914,13.3046875 C114.11914,13.747398 113.962892,14.1510398 113.65039,14.515625 C113.272784,14.8671893 112.869143,15.0429688 112.439453,15.0429688 C112.10091,15.0429688 111.814454,14.8736996 111.580078,14.5351562 C111.345702,14.2747383 111.208984,13.9427104 111.169922,13.5390625 C111.169922,13.2265609 111.091797,12.9075537 110.935547,12.5820312 C110.818359,12.2955715 110.551434,11.9700539 110.134765,11.6054688 L110.310547,11.1953125 Z M109.470703,15.8242188 C110.785814,15.8242188 111.64518,16.0065086 112.048828,16.3710938 C112.491538,16.6835953 112.71289,17.1002578 112.71289,17.6210938 C112.71289,18.0768252 112.543621,18.499998 112.205078,18.890625 C111.853514,19.2421893 111.449872,19.4179688 110.99414,19.4179688 C110.720702,19.4179688 110.492839,19.274741 110.310547,18.9882812 C110.180338,18.7278633 110.095703,18.4153664 110.05664,18.0507812 C110.05664,17.7382797 109.991537,17.4388035 109.861328,17.1523438 C109.770182,16.865884 109.574871,16.5468768 109.27539,16.1953125 L109.470703,15.8242188 Z M134.224609,14.2226562 C133.456376,14.2226562 132.668624,14.2747391 131.861328,14.3789062 L131.568359,13.4609375 C132.466801,13.6041674 133.352209,13.6757812 134.224609,13.6757812 L138.521484,13.6757812 L138.521484,12.1328125 C138.521484,11.6640602 138.462891,11.1822941 138.345703,10.6875 L142.095703,10.9414062 C142.642581,10.9934898 142.916015,11.1367176 142.916015,11.3710938 C142.916015,11.592449 142.81185,11.7617182 142.603515,11.8789062 C142.434244,11.9440107 142.330078,12.0677074 142.291015,12.25 L142.291015,13.6757812 L145.669922,13.6757812 L147.310547,11.625 L149.24414,13.2460938 C149.556642,13.467449 149.71289,13.6562492 149.71289,13.8125 C149.71289,14.0859389 149.550132,14.2226562 149.224609,14.2226562 L142.291015,14.2226562 L142.291015,19.9257812 C142.564454,19.2096318 142.818358,18.4674518 143.052734,17.6992188 C143.261068,16.9700484 143.436848,16.2148477 143.580078,15.4335938 C143.632161,15.016925 143.658203,14.7044281 143.658203,14.4960938 L147.349609,15.3554688 C147.623048,15.4335941 147.759765,15.5703115 147.759765,15.765625 C147.759765,15.9348967 147.636069,16.052083 147.388672,16.1171875 C147.2194,16.1562502 147.108724,16.2213537 147.05664,16.3125 C146.75716,16.6901061 146.490235,17.0481754 146.255859,17.3867188 C147.271489,17.5950531 147.974607,17.8294258 148.365234,18.0898438 C148.938154,18.4153662 149.224609,18.7864563 149.224609,19.203125 C149.224609,19.7239609 149.087892,20.2122373 148.814453,20.6679688 C148.384763,21.0976584 147.94857,21.3125 147.505859,21.3125 C146.880856,21.3125 146.457683,20.8437547 146.236328,19.90625 C146.027993,19.3072887 145.754559,18.7799502 145.416015,18.3242188 C145.350911,18.4023441 145.266276,18.473958 145.162109,18.5390625 C144.354813,19.2942746 143.462895,19.9778615 142.486328,20.5898438 C143.280603,21.3450559 144.120438,21.9700496 145.005859,22.4648438 C146.138677,23.1549514 147.779286,23.7083313 149.927734,24.125 L149.927734,24.6132812 C148.964188,25.1731799 148.306642,26.4882709 147.955078,28.5585938 C145.81965,27.4257756 144.270187,26.2083398 143.30664,24.90625 C142.902992,24.3854141 142.564454,23.8450549 142.291015,23.2851562 L142.291015,28.4804688 C142.291015,28.7278658 142.095705,28.8906246 141.705078,28.96875 C140.064445,29.1640635 139.192058,29.2617188 139.08789,29.2617188 C138.710284,29.2617188 138.521484,28.9687529 138.521484,28.3828125 L138.521484,25.1210938 C137.649084,25.7460969 136.926435,26.1953111 136.353515,26.46875 C134.843091,27.1979203 133.248055,27.8424451 131.568359,28.4023438 L131.353515,28.0117188 C133.176441,26.6054617 134.758457,25.1145912 136.099609,23.5390625 C136.711591,22.8489549 137.518875,21.6380295 138.521484,19.90625 L138.521484,14.2226562 L134.224609,14.2226562 Z M133.873047,14.4960938 L137.36914,15.3164062 C137.629558,15.3945316 137.759765,15.5247387 137.759765,15.7070312 C137.759765,15.8763029 137.642579,15.9869789 137.408203,16.0390625 C137.238931,16.0781252 137.128255,16.130208 137.076172,16.1953125 C136.802733,16.638023 136.548829,17.0546855 136.314453,17.4453125 C136.874351,17.5885424 137.271483,17.7578115 137.505859,17.953125 C137.974611,18.2656266 138.208984,18.6302063 138.208984,19.046875 C138.208984,19.5286482 138.078777,19.9843729 137.818359,20.4140625 C137.440753,20.7916686 137.037111,20.9804688 136.607422,20.9804688 C136.138669,20.9804688 135.819662,20.5442752 135.65039,19.671875 C135.572265,19.3333316 135.468099,19.0403658 135.33789,18.7929688 C135.207681,18.9361986 135.083985,19.0598953 134.966797,19.1640625 C134.042313,20.2187553 133.000657,21.1627563 131.841797,21.9960938 L131.568359,21.8007812 C132.128258,20.7200467 132.610024,19.5872455 133.013672,18.4023438 C133.300131,17.4908809 133.547525,16.5664109 133.755859,15.6289062 C133.833984,15.1341121 133.873047,14.7565117 133.873047,14.4960938 Z M153.74414,10.5117188 L158.11914,12.3671875 L167.123046,12.3671875 L168.724609,10.53125 L171.498046,12.4257812 C171.732423,12.582032 171.849609,12.7252598 171.849609,12.8554688 C171.849609,13.0898449 171.758464,13.2656244 171.576171,13.3828125 C171.393879,13.4739588 171.276693,13.5976555 171.224609,13.7539062 L171.224609,28.4023438 C171.224609,28.6497408 171.029298,28.8124996 170.638671,28.890625 C168.945955,29.0859385 168.034505,29.1835938 167.904296,29.1835938 C167.52669,29.1835938 167.33789,28.8841176 167.33789,28.2851562 L167.33789,27.6601562 L157.435546,27.6601562 L157.435546,28.578125 C157.435546,28.8125012 157.253257,28.97526 156.888671,29.0664062 C155.378247,29.2486988 154.577474,29.3398438 154.486328,29.3398438 C154.121743,29.3398438 153.939453,29.0533883 153.939453,28.4804688 L153.939453,11.9375 C153.939453,11.4817686 153.874349,11.0065129 153.74414,10.5117188 Z M157.435546,27.1328125 L167.33789,27.1328125 L167.33789,12.9140625 L157.435546,12.9140625 L157.435546,27.1328125 Z M158.27539,14.203125 L161.830078,15.4140625 L162.96289,15.4140625 L164.271484,14.1835938 L166.673828,15.6484375 C166.895183,15.8046883 167.005859,15.9348953 167.005859,16.0390625 C167.005859,16.2473969 166.921224,16.397135 166.751953,16.4882812 C166.582681,16.5664066 166.478515,16.6510412 166.439453,16.7421875 L166.439453,25.140625 C166.439453,25.3619803 166.270184,25.505208 165.93164,25.5703125 C164.447258,25.7395842 163.659505,25.8242188 163.568359,25.8242188 C163.242836,25.8242188 163.080078,25.5638047 163.080078,25.0429688 L163.080078,23.8515625 L161.55664,23.8515625 L161.55664,25.4140625 C161.55664,25.6223969 161.393881,25.7526039 161.068359,25.8046875 C159.727206,25.9739592 159.017578,26.0585938 158.939453,26.0585938 C158.600909,26.0585938 158.43164,25.8112004 158.43164,25.3164062 L158.43164,15.5898438 C158.43164,15.1341123 158.379557,14.6718773 158.27539,14.203125 Z M161.55664,23.3046875 L163.080078,23.3046875 L163.080078,15.9414062 L161.55664,15.9414062 L161.55664,23.3046875 Z M182.736328,10.8242188 L185.373046,11.78125 C185.386067,11.78125 185.399088,11.7877604 185.412109,11.8007812 C185.399088,11.4361961 185.379557,11.0651061 185.353515,10.6875 L188.458984,10.9414062 C188.745444,10.9804689 188.888671,11.1041656 188.888671,11.3125 C188.888671,11.4687508 188.804037,11.5794268 188.634765,11.6445312 C188.452473,11.6835939 188.341797,11.7486975 188.302734,11.8398438 L188.302734,13.265625 C188.472006,13.2916668 188.615233,13.3177082 188.732421,13.34375 C188.888672,12.445308 188.992838,11.8789074 189.044921,11.6445312 C189.083984,11.3450506 189.110025,11.0976572 189.123046,10.9023438 L191.779296,11.859375 C192.026693,11.9375004 192.15039,12.0611971 192.15039,12.2304688 C192.15039,12.3346359 192.052735,12.3932291 191.857421,12.40625 C191.68815,12.4322918 191.577474,12.4583332 191.52539,12.484375 L189.767578,13.6171875 C190.054037,13.7343756 190.262369,13.8320309 190.392578,13.9101562 C190.522787,13.9882816 190.620442,14.0598955 190.685546,14.125 L190.861328,13.7734375 C191.04362,13.447915 191.167317,13.1158871 191.232421,12.7773438 L193.751953,14.28125 C193.869141,14.3463545 193.927734,14.4309891 193.927734,14.5351562 C193.927734,14.6783861 193.843099,14.7630207 193.673828,14.7890625 C193.387368,14.8411461 193.205078,14.8932289 193.126953,14.9453125 C192.163406,15.6875037 191.238936,16.3710906 190.353515,16.9960938 C190.809247,16.9830729 191.284502,16.9635418 191.779296,16.9375 C191.701171,16.7421865 191.610026,16.5533863 191.505859,16.3710938 L191.662109,16.1367188 C192.534509,16.4492203 193.094399,16.7421861 193.341796,17.015625 C193.589193,17.2369803 193.71289,17.4843736 193.71289,17.7578125 C193.71289,18.1093768 193.589193,18.4218736 193.341796,18.6953125 C193.094399,18.9817723 192.781902,19.125 192.404296,19.125 C192.287108,19.125 192.182943,19.0338551 192.091796,18.8515625 C192.00065,18.6953117 191.948567,18.3437527 191.935546,17.796875 C191.935546,17.7317705 191.929036,17.6796877 191.916015,17.640625 L190.392578,18.8320312 C190.679037,18.9361984 190.900389,19.0338537 191.05664,19.125 C191.304037,19.2682299 191.427734,19.4440094 191.427734,19.6523438 C191.427734,19.9257826 191.336589,20.1796863 191.154296,20.4140625 C191.024087,20.5703133 190.854818,20.6744789 190.646484,20.7265625 L191.251953,20.7265625 L192.384765,19.3398438 L193.791015,20.453125 C193.986329,20.6093758 194.083984,20.7330725 194.083984,20.8242188 C194.083984,21.1236994 193.979818,21.2734375 193.771484,21.2734375 L188.810546,21.2734375 C188.849609,21.5208346 188.895181,21.7226555 188.947265,21.8789062 C189.064453,22.3867213 189.233722,22.861977 189.455078,23.3046875 C189.624349,23.0052068 189.806639,22.7187514 190.001953,22.4453125 C190.223308,22.1458318 190.412108,21.7942729 190.568359,21.390625 L193.205078,23.2460938 C193.413412,23.3763027 193.530598,23.5130201 193.55664,23.65625 C193.530598,23.8385426 193.445964,23.9557289 193.302734,24.0078125 C193.159504,24.0078125 192.996745,24.0208332 192.814453,24.046875 C192.20247,24.6588572 191.64909,25.1796854 191.154296,25.609375 C191.440756,25.8567721 191.642577,25.9804688 191.759765,25.9804688 C191.83789,25.9804688 191.942056,25.9153652 192.072265,25.7851562 L193.283203,24.4960938 L193.634765,24.671875 C193.257159,25.17969 193.068359,25.5963525 193.068359,25.921875 C193.068359,26.4036482 193.328773,26.9309867 193.849609,27.5039062 C193.849609,27.8554705 193.673829,28.272133 193.322265,28.7539062 C192.944659,29.170575 192.554038,29.391927 192.15039,29.4179688 C191.42122,29.4179688 190.49675,28.9166717 189.376953,27.9140625 C189.129556,27.6796863 188.927735,27.4713551 188.771484,27.2890625 C187.11783,28.1354209 185.373056,28.7473939 183.537109,29.125 L183.419921,28.8515625 C184.917325,28.0052041 186.238926,26.9765686 187.384765,25.765625 C187.423828,25.7395832 187.45638,25.7070314 187.482421,25.6679688 C187.039711,24.9127566 186.675131,24.1380248 186.388671,23.34375 C186.2194,22.7708305 186.076172,22.0807332 185.958984,21.2734375 L184.923828,21.2734375 C184.897786,21.976566 184.845703,22.5950494 184.767578,23.1289062 C185.496748,23.4023451 185.998045,23.6888006 186.271484,23.9882812 C186.597006,24.274741 186.759765,24.6132793 186.759765,25.0039062 C186.759765,25.3815123 186.629558,25.7135402 186.36914,26 C186.108722,26.3125016 185.783205,26.46875 185.392578,26.46875 C185.184243,26.46875 184.975912,26.3515637 184.767578,26.1171875 C184.598306,25.921874 184.49414,25.4921908 184.455078,24.828125 L184.455078,24.7890625 C184.429036,24.854167 184.409505,24.9127602 184.396484,24.9648438 C184.097003,25.7591186 183.738934,26.4036434 183.322265,26.8984375 C182.723304,27.6145869 181.824875,28.3046842 180.626953,28.96875 L180.353515,28.7539062 C180.744142,28.1549449 181.037108,27.5494822 181.232421,26.9375 C181.375651,26.5078104 181.479817,26.0455754 181.544921,25.5507812 C181.649089,24.6002557 181.740233,23.4479234 181.818359,22.09375 C181.597004,22.1979172 181.395183,22.25 181.21289,22.25 C180.809242,22.25 180.548828,21.768234 180.43164,20.8046875 C180.366536,20.4140605 180.275391,20.0755223 180.158203,19.7890625 L180.158203,28.4414062 C180.158203,28.6497406 179.988933,28.7929684 179.65039,28.8710938 C178.270175,29.0403654 177.527995,29.125 177.423828,29.125 C177.111326,29.125 176.955078,28.8710963 176.955078,28.3632812 L176.955078,23.1484375 C176.473304,23.9036496 176.011069,24.5156227 175.568359,24.984375 L175.353515,24.75 C175.639975,23.3828057 175.906899,21.8268316 176.154296,20.0820312 C176.297526,18.8841086 176.421223,17.4388105 176.52539,15.7460938 C176.186847,15.7591146 175.841798,15.7981768 175.490234,15.8632812 L175.197265,14.9648438 C175.770185,15.0950527 176.343096,15.1601562 176.916015,15.1601562 L176.955078,15.1601562 L176.955078,12.0351562 C176.955078,11.6575502 176.902995,11.2539084 176.798828,10.8242188 L179.982421,11.0585938 C180.451174,11.1106773 180.685546,11.234374 180.685546,11.4296875 C180.685546,11.6119801 180.600912,11.7617182 180.43164,11.8789062 C180.301431,11.9309898 180.210286,12.0351555 180.158203,12.1914062 L180.158203,14.7695312 L180.822265,13.9492188 L181.642578,14.6132812 C181.551431,14.2226543 181.382162,13.8710953 181.134765,13.5585938 L181.291015,13.3242188 C181.603517,13.4023441 181.863931,13.473958 182.072265,13.5390625 C182.319662,12.6145787 182.488931,12.0026057 182.580078,11.703125 C182.671224,11.3645816 182.723307,11.0716158 182.736328,10.8242188 Z M180.158203,18.1289062 C180.496746,18.2460943 180.802732,18.3567703 181.076171,18.4609375 L180.978515,18.03125 L182.072265,18.03125 C182.43685,17.3541633 182.736326,16.7812523 182.970703,16.3125 C182.840494,16.3645836 182.690756,16.390625 182.521484,16.390625 C182.339191,16.390625 182.176432,16.2929697 182.033203,16.0976562 C181.955077,16.0195309 181.889974,15.8958342 181.83789,15.7265625 L180.158203,15.7265625 L180.158203,18.1289062 Z M190.177734,20.7265625 C190.060546,20.7005207 189.96289,20.6484379 189.884765,20.5703125 C189.741535,20.4661453 189.656901,20.1992209 189.630859,19.7695312 C189.617838,19.678385 189.598307,19.5807297 189.572265,19.4765625 C189.533202,19.5677088 189.507161,19.6328123 189.49414,19.671875 C189.416015,19.8281258 189.311849,19.90625 189.18164,19.90625 C189.064452,19.90625 188.960286,19.7695326 188.86914,19.4960938 L188.439453,17.484375 C188.504557,18.8385484 188.595702,19.9192668 188.71289,20.7265625 L190.177734,20.7265625 Z M185.841796,20.7265625 C185.789713,20.3359355 185.74414,19.9648455 185.705078,19.6132812 C185.483722,19.8085947 185.203777,19.90625 184.865234,19.90625 C184.748046,19.90625 184.64388,19.8085947 184.552734,19.6132812 C184.474608,19.4830723 184.422526,19.2617203 184.396484,18.9492188 L182.677734,20.1992188 C182.690755,20.2643232 182.697265,20.3489578 182.697265,20.453125 C182.697265,20.5442713 182.690755,20.6354162 182.677734,20.7265625 L185.841796,20.7265625 Z M185.548828,17.3476562 C185.522786,16.9309875 185.503255,16.514325 185.490234,16.0976562 C185.177732,16.384116 184.891277,16.6380197 184.630859,16.859375 C185.034507,17.0416676 185.340493,17.2044264 185.548828,17.3476562 Z M185.451171,14.1445312 C185.43815,13.6367162 185.43164,13.1158881 185.43164,12.5820312 L185.43164,12.328125 C185.28841,12.3541668 185.190755,12.3867186 185.138671,12.4257812 L183.166015,13.9882812 C183.283203,14.0403648 183.393879,14.0924477 183.498046,14.1445312 C183.667318,14.2617193 183.771484,14.3723953 183.810546,14.4765625 C183.992839,14.1380191 184.116536,13.7799498 184.18164,13.4023438 L185.451171,14.1445312 Z M184.298828,18.03125 C184.233723,17.7578111 184.162109,17.5234385 184.083984,17.328125 C183.810545,17.5625012 183.52409,17.7968738 183.224609,18.03125 L184.298828,18.03125 Z M188.302734,14.0664062 C188.315755,15.1862035 188.354817,16.1692666 188.419921,17.015625 L189.044921,17.015625 C189.31836,16.624998 189.539712,16.2473977 189.708984,15.8828125 C189.669921,15.8958334 189.624349,15.9023438 189.572265,15.9023438 C189.324868,15.9023438 189.103516,15.8242195 188.908203,15.6679688 C188.72591,15.5377598 188.615234,15.2252629 188.576171,14.7304688 C188.537109,14.4700508 188.445964,14.2486988 188.302734,14.0664062 Z M199.287109,12.5039062 C198.792315,12.5039062 198.297528,12.5559891 197.802734,12.6601562 L197.490234,11.7421875 C198.089195,11.8854174 198.688147,11.9570312 199.287109,11.9570312 L213.076171,11.9570312 L214.15039,10.6679688 L215.498046,11.703125 C215.69336,11.8593758 215.791015,11.9895828 215.791015,12.09375 C215.791015,12.3671889 215.686849,12.5039062 215.478515,12.5039062 L210.146484,12.5039062 L210.146484,14.3007812 L210.71289,14.3007812 L212.138671,12.953125 L214.716796,14.4765625 C214.951172,14.671876 215.068359,14.8281244 215.068359,14.9453125 C215.068359,15.140626 214.990235,15.2968744 214.833984,15.4140625 C214.677733,15.4921879 214.573567,15.5898432 214.521484,15.7070312 L214.521484,18.8710938 C214.521484,19.0794281 214.345704,19.2161455 213.99414,19.28125 C213.486325,19.3463545 213.056642,19.391927 212.705077,19.4179688 L213.388671,19.984375 C213.636068,20.1666676 213.759765,20.322916 213.759765,20.453125 C213.759765,20.7265639 213.629558,20.8632812 213.36914,20.8632812 L201.259765,20.8632812 C200.647783,20.8632812 200.04232,20.9153641 199.443359,21.0195312 L199.15039,20.1015625 C199.840498,20.2447924 200.543616,20.3164062 201.259765,20.3164062 L210.576171,20.3164062 L211.259765,19.4960938 C211.077472,19.3919266 210.973307,19.2291678 210.947265,19.0078125 L201.767577,19.0078125 L201.767577,19.203125 C201.767577,19.4114594 201.611329,19.5546871 201.298827,19.6328125 C199.87955,19.8151051 199.130859,19.90625 199.052734,19.90625 C198.688149,19.90625 198.505859,19.6458359 198.505859,19.125 L198.505859,14.4570312 C198.505859,14.0012998 198.447266,13.5390648 198.330077,13.0703125 L202.216796,14.3007812 L202.490234,14.3007812 L202.490234,12.5039062 L199.287109,12.5039062 Z M201.767577,18.4414062 L202.490234,18.4414062 L202.490234,14.8671875 L201.767577,14.8671875 L201.767577,18.4414062 Z M205.927734,18.4414062 L206.708984,18.4414062 L206.708984,14.8671875 L205.927734,14.8671875 L205.927734,18.4414062 Z M210.146484,18.4414062 L210.927734,18.4414062 L210.927734,14.8671875 L210.146484,14.8671875 L210.146484,18.4414062 Z M206.708984,14.3007812 L206.708984,12.5039062 L205.927734,12.5039062 L205.927734,14.3007812 L206.708984,14.3007812 Z M199.93164,22.9921875 C199.280595,22.9921875 198.62956,23.0442703 197.978515,23.1484375 L197.646484,22.2304688 C198.414717,22.3736986 199.176428,22.4453125 199.93164,22.4453125 L212.490234,22.4453125 L213.896484,20.7265625 L215.576171,22.09375 C215.810547,22.2760426 215.927734,22.4257807 215.927734,22.5429688 C215.927734,22.8424494 215.804037,22.9921875 215.55664,22.9921875 L208.662109,22.9921875 L208.662109,26.5078125 C208.662109,27.2890664 208.49284,27.8489566 208.154296,28.1875 C207.698565,28.6171896 206.578784,29.0013004 204.794921,29.3398438 C204.573566,28.4804645 204.313152,27.8684914 204.013671,27.5039062 C203.70117,27.152342 203.193362,26.8398451 202.490234,26.5664062 L202.490234,26.1953125 L204.46289,26.1953125 C204.775392,26.1953125 204.93164,26.0651055 204.93164,25.8046875 L204.93164,22.9921875 L199.93164,22.9921875 Z M199.658202,23.3242188 L203.623046,24.2421875 C203.922527,24.3203129 204.072265,24.470051 204.072265,24.6914062 C204.072265,24.8867197 203.942058,25.0169268 203.68164,25.0820312 C203.486326,25.1210939 203.36263,25.1861975 203.310546,25.2773438 C202.555334,26.0325559 201.819664,26.6184875 201.103515,27.0351562 C200.113927,27.6601594 199.013677,28.2330703 197.802734,28.7539062 L197.490234,28.5 C198.024091,27.7447879 198.473305,26.9440146 198.83789,26.0976562 C199.12435,25.4596322 199.371743,24.8085971 199.580077,24.1445312 C199.632161,23.7669252 199.658202,23.4934904 199.658202,23.3242188 Z M209.677734,23.8125 C211.956391,24.203127 213.453772,24.6328102 214.169921,25.1015625 C214.87305,25.5703148 215.224609,26.0781223 215.224609,26.625 C215.224609,27.1848986 215.06836,27.7057268 214.755859,28.1875 C214.313148,28.6562523 213.844403,28.890625 213.349609,28.890625 C212.542313,28.890625 211.982423,28.3242244 211.669921,27.1914062 C211.266273,25.9544209 210.498052,24.9388061 209.365234,24.1445312 L209.677734,23.8125 Z" id="台北-香港來回機票" fill="#83071C"></path>
                <g id="Page-1" transform="translate(46.000000, 42.000000)">
                    <g id="Fill-1">
                        <use fill="black" fill-opacity="1" filter="url(#filter-2)" xlink:href="#path-1"></use>
                        <use fill="#83071C" fill-rule="evenodd" xlink:href="#path-1"></use>
                        <use stroke="#FFFFFF" mask="url(#mask-3)" stroke-width="6" xlink:href="#path-1"></use>
                    </g>
                </g>
                <g id="Page-1" transform="translate(141.000000, 41.000000)">
                    <g id="Fill-1">
                        <use fill="black" fill-opacity="1" filter="url(#filter-5)" xlink:href="#path-4"></use>
                        <use fill="#83071C" fill-rule="evenodd" xlink:href="#path-4"></use>
                        <use stroke="#FFFFFF" mask="url(#mask-6)" stroke-width="6" xlink:href="#path-4"></use>
                    </g>
                </g>
                <path d="M78.7617193,45.9804688 L83.2734381,46.3515625 C83.8333367,46.3776043 84.1132818,46.5078113 84.1132818,46.7421875 C84.1132818,47.0286473 83.9830748,47.2304682 83.7226568,47.3476562 C83.5013016,47.4388025 83.3645842,47.5494785 83.3125006,47.6796875 C83.2994797,48.7343803 83.2604176,49.7174434 83.1953131,50.6289062 C83.58594,51.8268289 84.0416647,52.8489541 84.5625006,53.6953125 C85.7213606,55.6614682 88.0195147,57.6992082 91.4570318,59.8085938 L91.2617193,60.21875 C90.4544236,60.5052098 89.868492,60.9088516 89.5039068,61.4296875 C88.9570291,62.0807324 88.4622424,62.9270781 88.0195318,63.96875 C86.4700449,62.7578064 85.1549539,61.2018324 84.0742193,59.3007812 C83.3580699,57.9986914 82.8502625,56.4948002 82.5507818,54.7890625 C82.4205729,55.3098984 82.2838555,55.765623 82.1406256,56.15625 C81.4374971,57.9921967 80.4153719,59.4505154 79.0742193,60.53125 C77.5898369,61.8333398 75.5651176,62.9531203 73.0000006,63.890625 L72.8046881,63.5195312 C75.2265752,61.2669158 76.8281217,59.2747482 77.6093756,57.5429688 C78.455734,56.0585863 78.8984379,52.9010658 78.9375006,48.0703125 C78.9375006,47.3281213 78.8789074,46.6315137 78.7617193,45.9804688 Z M95.2539067,48.3046875 L99.882813,50.2382812 L102.050782,50.2382812 L102.050782,47.1914062 C102.050782,46.6966121 101.985678,46.195315 101.855469,45.6875 L105.78125,45.9609375 C106.35417,46.0130211 106.640625,46.1627592 106.640625,46.4101562 C106.640625,46.6445324 106.53646,46.8203119 106.328125,46.9375 C106.132812,47.0026045 106.009115,47.1328115 105.957032,47.328125 L105.957032,50.2382812 L108.652344,50.2382812 L110.332032,48.4023438 L113.027344,50.2578125 C113.26172,50.4401051 113.378907,50.5963535 113.378907,50.7265625 C113.378907,50.9348969 113.281251,51.0911453 113.085938,51.1953125 C112.890625,51.3255215 112.766928,51.4492182 112.714844,51.5664062 L112.714844,58.03125 C112.714844,58.2526053 112.526044,58.4023434 112.148438,58.4804688 C110.468742,58.701824 109.570314,58.8125 109.453125,58.8125 C109.08854,58.8125 108.90625,58.5130238 108.90625,57.9140625 L108.90625,57.5039062 L105.957032,57.5039062 L105.957032,63.5390625 C105.957032,63.7864596 105.755211,63.9557287 105.351563,64.046875 C103.658846,64.2421885 102.753907,64.3398438 102.636719,64.3398438 C102.246092,64.3398438 102.050782,64.0338572 102.050782,63.421875 L102.050782,57.5039062 L99.101563,57.5039062 L99.101563,58.4023438 C99.101563,58.6497408 98.9127628,58.8124996 98.5351567,58.890625 C96.959628,59.0859385 96.126303,59.1835938 96.0351567,59.1835938 C95.6575507,59.1835938 95.4687505,58.8906279 95.4687505,58.3046875 L95.4687505,49.828125 C95.4687505,49.3333309 95.3971366,48.8255234 95.2539067,48.3046875 Z M99.101563,56.9570312 L102.050782,56.9570312 L102.050782,50.8046875 L99.101563,50.8046875 L99.101563,56.9570312 Z M105.957032,50.8046875 L105.957032,56.9570312 L108.90625,56.9570312 L108.90625,50.8046875 L105.957032,50.8046875 Z M117.234375,46.46875 L120.710938,46.7226562 C121.17969,46.7617189 121.414063,46.891926 121.414063,47.1132812 C121.414063,47.2825529 121.322918,47.41276 121.140625,47.5039062 C121.010416,47.5559898 120.919271,47.6406244 120.867188,47.7578125 L120.867188,49.3007812 L121.550782,49.3007812 L121.550782,47.1523438 C121.550782,46.6966123 121.492188,46.2343773 121.375,45.765625 L125.007813,46.0195312 C125.489586,46.0585939 125.730469,46.1953113 125.730469,46.4296875 C125.730469,46.5989592 125.632814,46.7356766 125.4375,46.8398438 C125.307291,46.8919273 125.216146,46.9895826 125.164063,47.1328125 L125.164063,48.4804688 C125.281251,48.3372389 125.391927,48.1940111 125.496094,48.0507812 C125.847658,47.5429662 126.166666,46.983076 126.453125,46.3710938 C126.609376,45.9934877 126.707031,45.7135426 126.746094,45.53125 L130.398438,46.0976562 C130.658856,46.2018234 130.789063,46.3320305 130.789063,46.4882812 C130.789063,46.6315111 130.665366,46.7356768 130.417969,46.8007812 C130.300781,46.8528648 130.190105,46.8984373 130.085938,46.9375 C129.955729,47.0546881 129.851563,47.145833 129.773438,47.2109375 L130.925782,47.2109375 L132.507813,46.0585938 L135.085938,47.71875 C135.333335,47.848959 135.457032,48.0312488 135.457032,48.265625 C135.444011,48.4218758 135.300783,48.5130207 135.027344,48.5390625 C134.766926,48.5911461 134.604167,48.66276 134.539063,48.7539062 C133.48437,49.4440139 132.403652,50.0364559 131.296875,50.53125 L133.015625,50.6484375 C133.484378,50.6875002 133.71875,50.8046865 133.71875,51 C133.71875,51.130209 133.640626,51.260416 133.484375,51.390625 C133.367187,51.4817713 133.282553,51.5859369 133.230469,51.703125 L133.230469,52.2890625 L133.308594,52.2890625 L134.285157,50.7265625 L135.4375,51.9960938 C135.606772,52.2044281 135.691407,52.3606766 135.691407,52.4648438 C135.691407,52.6992199 135.535158,52.8164062 135.222657,52.8164062 L133.230469,52.8164062 L133.230469,53.7734375 C133.230469,54.7239631 132.774744,55.4335914 131.863282,55.9023438 C131.576822,56.0065109 131.322918,56.0976559 131.101563,56.1757812 C131.192709,56.3580738 131.238282,56.5338533 131.238282,56.703125 C131.238282,57.1197937 131.095054,57.4973941 130.808594,57.8359375 C130.704427,57.9401047 130.613282,58.0182289 130.535157,58.0703125 L131.882813,58.0703125 L133.367188,56.1953125 L135.144532,57.6601562 C135.40495,57.8815115 135.535157,58.057291 135.535157,58.1875 C135.535157,58.4609389 135.398439,58.5976562 135.125,58.5976562 L127.332032,58.5976562 C128.230474,58.9622414 129.154944,59.2291658 130.105469,59.3984375 C131.342454,59.6328137 133.126291,59.75 135.457032,59.75 L135.457032,60.1796875 C134.350255,60.9088578 133.757813,62.1458246 133.679688,63.890625 C131.908846,63.5390607 130.463548,62.9856809 129.34375,62.2304688 C128.354162,61.5924447 127.488285,60.6809955 126.746094,59.4960938 C126.420572,60.5377656 125.873702,61.3320285 125.105469,61.8789062 C123.712233,62.8684945 121.06903,63.5651021 117.175782,63.96875 L117.019532,63.5 C119.076834,62.9401014 120.515621,62.321618 121.335938,61.6445312 C122.182296,61.0846326 122.683593,60.0690178 122.839844,58.5976562 L119.382813,58.5976562 C118.679684,58.5976562 117.970056,58.6562494 117.253907,58.7734375 L116.960938,57.8359375 C117.755213,57.9921883 118.562496,58.0703125 119.382813,58.0703125 L122.878907,58.0703125 C122.878907,57.367184 122.826824,56.6770867 122.722657,56 C122.358071,56.0390627 122.14974,56.0585938 122.097657,56.0585938 C121.733071,56.0585938 121.550782,55.7786486 121.550782,55.21875 L121.550782,52.2109375 L121.199219,52.2109375 C120.795571,53.55209 120.339847,54.5221324 119.832032,55.1210938 C119.194008,55.8763059 118.223965,56.397134 116.921875,56.6835938 L116.804688,56.3710938 C117.091148,56.0065086 117.345051,55.440108 117.566407,54.671875 C117.696616,54.16406 117.807292,53.3632867 117.898438,52.2695312 C117.677083,52.295573 117.4362,52.3281248 117.175782,52.3671875 L116.882813,51.4882812 C117.598962,51.5924484 118.321611,51.6445312 119.050782,51.6445312 L121.550782,51.6445312 L121.550782,49.8671875 L120.867188,49.8671875 L120.867188,50.53125 C120.867188,50.7265635 120.691408,50.8632809 120.339844,50.9414062 C118.842441,51.1106779 118.041668,51.1953125 117.9375,51.1953125 C117.572915,51.1953125 117.390625,50.9414088 117.390625,50.4335938 L117.390625,47.7773438 C117.390625,47.3476541 117.338543,46.9114605 117.234375,46.46875 Z M129.050782,58.0703125 L128.953125,57.9726562 C128.783854,57.7643219 128.692709,57.5104182 128.679688,57.2109375 C128.679688,56.9505195 128.608074,56.7031262 128.464844,56.46875 C128.373698,56.2343738 128.158856,55.9869805 127.820313,55.7265625 L127.996094,55.3554688 C128.555993,55.3554688 129.031248,55.3880205 129.421875,55.453125 C129.239583,54.94531 128.940107,54.5481785 128.523438,54.2617188 L128.523438,53.890625 L129.207032,53.890625 C129.545575,53.890625 129.714844,53.7083352 129.714844,53.34375 L129.714844,52.8164062 L125.164063,52.8164062 L125.164063,55.3164062 C125.164063,55.5507824 124.975263,55.7070309 124.597657,55.7851562 C124.167967,55.8242189 123.809898,55.8632811 123.523438,55.9023438 L126.902344,56.2539062 C127.462243,56.279948 127.742188,56.4231758 127.742188,56.6835938 C127.742188,56.9179699 127.611981,57.1132805 127.351563,57.2695312 C127.156249,57.3736984 127.039063,57.4843744 127,57.6015625 L127,58.0703125 L129.050782,58.0703125 Z M129.714844,52.2890625 L129.714844,51.703125 C129.714844,51.5208324 129.701823,51.3255219 129.675782,51.1171875 C128.334629,51.5989607 126.830738,51.9700508 125.164063,52.2304688 L125.164063,52.2890625 L129.714844,52.2890625 Z M125.164063,51.78125 C125.476564,51.6640619 125.789061,51.5403652 126.101563,51.4101562 C126.010417,51.2148428 125.938803,51.0065115 125.886719,50.7851562 C125.769531,50.3684875 125.619793,50.0234389 125.4375,49.75 C125.346354,49.7890627 125.255209,49.8216145 125.164063,49.8476562 L125.164063,51.78125 Z M126.550782,49.3007812 C126.850262,49.3789066 127.065104,49.4570309 127.195313,49.5351562 C127.507814,49.7565115 127.664063,49.9713531 127.664063,50.1796875 C127.664063,50.3359383 127.651042,50.4661453 127.625,50.5703125 C127.833335,50.4010408 128.054687,50.238282 128.289063,50.0820312 C128.328126,50.0559895 128.360677,50.029948 128.386719,50.0039062 C128.334636,49.8997391 128.282553,49.7825527 128.230469,49.6523438 C128.139323,49.3007795 127.996095,48.9817723 127.800782,48.6953125 C127.592447,48.8515633 127.384116,48.97526 127.175782,49.0664062 C126.980468,49.1575525 126.772137,49.2356768 126.550782,49.3007812 Z M128.582032,48.2070312 C129.063805,48.2851566 129.395833,48.3763016 129.578125,48.4804688 C129.721355,48.5455732 129.819011,48.6106768 129.871094,48.6757812 C130.196617,48.3893215 130.483072,48.0768246 130.730469,47.7382812 L129.148438,47.7382812 C128.927083,47.9205738 128.738282,48.0768223 128.582032,48.2070312 Z M125.632813,53.1875 C126.674485,53.1875 127.364582,53.2851553 127.703125,53.4804688 C128.028648,53.6888031 128.191407,53.9361965 128.191407,54.2226562 C128.191407,54.6002623 128.06771,54.9388006 127.820313,55.2382812 C127.507811,55.5377619 127.175783,55.6875 126.824219,55.6875 C126.615885,55.6875 126.433595,55.576824 126.277344,55.3554688 C126.173177,55.1861971 126.114584,54.9778658 126.101563,54.7304688 C126.101563,54.5221344 126.04948,54.3203135 125.945313,54.125 C125.880208,53.9427074 125.71745,53.7278658 125.457032,53.4804688 L125.632813,53.1875 Z M179.402344,45.9804688 L183.914062,46.3515625 C184.473961,46.3776043 184.753906,46.5078113 184.753906,46.7421875 C184.753906,47.0286473 184.623699,47.2304682 184.363281,47.3476562 C184.141926,47.4388025 184.005208,47.5494785 183.953125,47.6796875 C183.940104,48.7343803 183.901042,49.7174434 183.835937,50.6289062 C184.226564,51.8268289 184.682289,52.8489541 185.203125,53.6953125 C186.361985,55.6614682 188.660139,57.6992082 192.097656,59.8085938 L191.902344,60.21875 C191.095048,60.5052098 190.509116,60.9088516 190.144531,61.4296875 C189.597653,62.0807324 189.102867,62.9270781 188.660156,63.96875 C187.110669,62.7578064 185.795578,61.2018324 184.714844,59.3007812 C183.998694,57.9986914 183.490887,56.4948002 183.191406,54.7890625 C183.061197,55.3098984 182.92448,55.765623 182.78125,56.15625 C182.078121,57.9921967 181.055996,59.4505154 179.714844,60.53125 C178.230461,61.8333398 176.205742,62.9531203 173.640625,63.890625 L173.445312,63.5195312 C175.867199,61.2669158 177.468746,59.2747482 178.25,57.5429688 C179.096358,56.0585863 179.539062,52.9010658 179.578125,48.0703125 C179.578125,47.3281213 179.519532,46.6315137 179.402344,45.9804688 Z M195.953125,45.9414062 L199.78125,47.2109375 L209.566406,47.2109375 L210.992187,45.8242188 L213.472656,47.3671875 C213.798178,47.5364592 213.960937,47.699218 213.960937,47.8554688 C213.960937,48.0117195 213.863282,48.1549473 213.667968,48.2851562 C213.511718,48.3763025 213.414062,48.4999992 213.375,48.65625 L213.375,61.625 C213.375,62.4322957 212.873703,63.1028619 211.871093,63.6367188 C211.089839,64.0143248 210.217452,64.2486975 209.253906,64.3398438 C209.01953,62.7382732 208.160163,61.6901066 206.675781,61.1953125 L206.675781,60.8242188 L209.449218,60.8242188 C209.683595,60.8242188 209.800781,60.7005221 209.800781,60.453125 L209.800781,47.7382812 L199.371093,47.7382812 L199.371093,63.65625 C199.371093,63.8776053 199.221355,64.020833 198.921875,64.0859375 C197.502597,64.2552092 196.747396,64.3398438 196.65625,64.3398438 C196.317706,64.3398438 196.148437,64.0794297 196.148437,63.5585938 L196.148437,47.3671875 C196.148437,46.8854143 196.083334,46.4101586 195.953125,45.9414062 Z M202.164062,50.9414062 C201.539059,50.9414062 200.914065,50.9934891 200.289062,51.0976562 L199.957031,50.1796875 C200.67318,50.3359383 201.40885,50.4140625 202.164062,50.4140625 L206.109375,50.4140625 L207.4375,48.7734375 L209.039062,50.0625 C209.29948,50.2447926 209.429687,50.401041 209.429687,50.53125 C209.429687,50.8046889 209.29297,50.9414062 209.019531,50.9414062 L202.164062,50.9414062 Z M200.25,52.1523438 L203.941406,53.3632812 L205.054687,53.3632812 L206.304687,52.09375 L208.765625,53.5585938 C208.98698,53.7408863 209.097656,53.8906244 209.097656,54.0078125 C209.097656,54.1901051 209.045573,54.3333328 208.941406,54.4375 C208.824218,54.5026045 208.752604,54.6002598 208.726562,54.7304688 L208.726562,59.8476562 C208.726562,60.0429697 208.544272,60.1731768 208.179687,60.2382812 C206.695305,60.4335947 205.901042,60.53125 205.796875,60.53125 C205.458331,60.53125 205.289062,60.2643256 205.289062,59.7304688 L205.289062,59.5351562 L203.609375,59.5351562 L203.609375,60.5507812 C203.609375,60.7460947 203.453126,60.8763018 203.140625,60.9414062 C201.734368,61.1106779 200.985677,61.1953125 200.894531,61.1953125 C200.569008,61.1953125 200.40625,60.9544295 200.40625,60.4726562 L200.40625,53.5195312 C200.40625,53.0637998 200.354167,52.6080752 200.25,52.1523438 Z M203.609375,59.0078125 L205.289062,59.0078125 L205.289062,53.9296875 L203.609375,53.9296875 L203.609375,59.0078125 Z M227.445312,48.3632812 C226.598954,48.3632812 225.765629,48.4153641 224.945312,48.5195312 L224.613281,47.6015625 C225.550785,47.7447924 226.494786,47.8164062 227.445312,47.8164062 L230.84375,47.8164062 L232.5625,45.6289062 L234.613281,47.3476562 C234.938803,47.5820324 235.101562,47.7838533 235.101562,47.953125 C235.101562,48.2265639 234.932293,48.3632812 234.59375,48.3632812 L227.445312,48.3632812 Z M226.742187,52.9921875 C225.895829,52.9921875 225.062504,53.0442703 224.242187,53.1484375 L224.046875,52.5429688 C223.473955,53.1809928 222.920575,53.7669244 222.386718,54.3007812 L222.738281,54.3789062 C222.998699,54.4700525 223.128906,54.5742182 223.128906,54.6914062 C223.128906,54.8606779 223.057292,54.9713539 222.914062,55.0234375 C222.822916,55.088542 222.764323,55.1796869 222.738281,55.296875 L222.738281,63.5585938 C222.738281,63.779949 222.575522,63.9296871 222.25,64.0078125 C220.752596,64.1770842 219.951823,64.2617188 219.847656,64.2617188 C219.496092,64.2617188 219.320312,63.9947943 219.320312,63.4609375 L219.320312,56.9765625 C218.760413,57.3932312 218.220054,57.7708316 217.699218,58.109375 L217.523437,57.71875 C218.851569,55.6484271 219.964839,53.5781354 220.863281,51.5078125 C221.032552,51.1432273 221.188801,50.7265648 221.332031,50.2578125 L221.273437,50.3164062 C220.218744,51.24089 219.066412,52.0872357 217.816406,52.8554688 L217.523437,52.640625 C218.122398,51.6249949 218.636716,50.5572973 219.066406,49.4375 C219.391928,48.6041625 219.665363,47.725265 219.886718,46.8007812 C219.964844,46.3320289 220.003906,45.9869803 220.003906,45.765625 L223.871093,46.6640625 C224.170574,46.729167 224.320312,46.8723947 224.320312,47.09375 C224.320312,47.2890635 224.196615,47.4127602 223.949218,47.4648438 C223.740884,47.5039064 223.610677,47.5624996 223.558593,47.640625 C223.011716,48.4348998 222.484377,49.0989557 221.976562,49.6328125 L224.808593,50.8828125 C225.19922,51.0651051 225.394531,51.2604156 225.394531,51.46875 C225.368489,51.6250008 225.277344,51.7226561 225.121093,51.7617188 C224.886717,51.7877605 224.730469,51.8072916 224.652343,51.8203125 C224.522134,51.9635424 224.404948,52.1197908 224.300781,52.2890625 C225.108076,52.3932297 225.92187,52.4453125 226.742187,52.4453125 L231.839843,52.4453125 L233.558593,50.21875 L235.648437,51.9375 C235.947918,52.197918 236.097656,52.3997389 236.097656,52.5429688 C236.097656,52.8424494 235.941407,52.9921875 235.628906,52.9921875 L232.855468,52.9921875 L232.855468,61.3710938 C232.855468,62.1783895 232.666668,62.7513004 232.289062,63.0898438 C231.794268,63.5325543 230.550791,63.9231754 228.558593,64.2617188 C228.337238,63.3632768 228.057293,62.718752 227.71875,62.328125 C227.419269,61.9244771 226.87891,61.5794285 226.097656,61.2929688 L226.097656,60.9023438 L228.558593,60.9023438 C228.884116,60.9023438 229.046875,60.759116 229.046875,60.4726562 L229.046875,52.9921875 L226.742187,52.9921875 Z" id="人中獎-人同行" fill="#83071C"></path>
                <path d="M253.683059,45.7536941 C252.590289,42.3655382 252,38.7517038 252,35 C252,15.6700338 267.670034,0 287,0 C306.329966,0 322,15.6700338 322,35 C322,54.3299662 306.329966,70 287,70 C276.243867,70 266.620977,65.1480079 260.200623,57.5133164 L245.04498,57.8929625 L253.683059,45.7536941 Z" id="Combined-Shape" fill="#BA0017"></path>
                <path d="M258.414,31.25 L258.414,32.538 L260.85,32.538 L260.85,35.576 L257.714,35.576 L257.714,36.878 L270.286,36.878 L270.286,35.576 L267.15,35.576 L267.15,32.538 L269.6,32.538 L269.6,31.25 L267.15,31.25 L267.15,28.534 L265.82,28.534 L265.82,31.25 L262.18,31.25 L262.18,28.478 L260.85,28.478 L260.85,31.25 L258.414,31.25 Z M262.18,35.576 L262.18,32.538 L265.82,32.538 L265.82,35.576 L262.18,35.576 Z M261.886,37.13 C260.752,38.32 259.352,39.356 257.686,40.252 L258.61,41.456 C260.304,40.476 261.732,39.342 262.894,38.04 L261.886,37.13 Z M266.24,37.158 L265.274,38.096 C266.982,39.3 268.312,40.406 269.264,41.442 L270.328,40.378 C269.208,39.314 267.85,38.25 266.24,37.158 Z M315.267999,28.996 L309.303999,28.996 L309.303999,39.93 L308.337999,39.93 L308.337999,41.204 L316.135999,41.204 L316.135999,39.93 L315.267999,39.93 L315.267999,28.996 Z M310.563999,39.93 L310.563999,37.564 L314.007999,37.564 L314.007999,39.93 L310.563999,39.93 Z M310.563999,36.346 L310.563999,33.896 L314.007999,33.896 L314.007999,36.346 L310.563999,36.346 Z M310.563999,32.678 L310.563999,30.228 L314.007999,30.228 L314.007999,32.678 L310.563999,32.678 Z M303.885999,37.97 C303.801999,39.09 303.619999,40.084 303.325999,40.952 L304.515999,41.33 C304.767999,40.392 304.935999,39.328 305.019999,38.124 L303.885999,37.97 Z M306.559999,37.802 L305.481999,38.04 C305.649999,38.852 305.803999,39.79 305.943999,40.854 L307.119999,40.574 C306.951999,39.58 306.769999,38.656 306.559999,37.802 Z M307.917999,34.162 L306.909999,34.498 C307.035999,34.834 307.161999,35.17 307.287999,35.52 C306.643999,35.716 305.985999,35.884 305.341999,36.01 C306.153999,35.016 307.147999,33.434 308.323999,31.25 L307.147999,30.802 C306.839999,31.418 306.531999,31.992 306.251999,32.524 C305.775999,32.608 305.313999,32.678 304.851999,32.734 C305.495999,31.782 306.139999,30.55 306.769999,29.038 L305.537999,28.562 C305.075999,29.962 304.529999,31.236 303.913999,32.384 C303.745999,32.608 303.577999,32.762 303.381999,32.846 L303.689999,33.98 C304.347999,33.896 304.977999,33.798 305.593999,33.7 C304.977999,34.736 304.473999,35.464 304.053999,35.898 C303.913999,36.038 303.731999,36.15 303.507999,36.248 L303.829999,37.382 C305.019999,37.228 306.279999,36.948 307.595999,36.528 L307.791999,37.298 L308.855999,37.018 C308.575999,35.94 308.267999,34.988 307.917999,34.162 Z M308.169999,37.424 L307.175999,37.746 C307.413999,38.404 307.609999,39.104 307.749999,39.832 L308.827999,39.552 C308.631999,38.74 308.421999,38.04 308.169999,37.424 Z" id="共-組" fill="#FFFFFF"></path>
                <g id="Page-1" transform="translate(274.000000, 21.000000)" fill="#FFFFFF">
                    <path d="M11.0052417,10.9668851 C11.8625684,10.9197002 12.6895048,10.7981389 13.4868506,10.6022014 C14.2801977,10.4062639 15.0095652,10.1231541 15.6701546,9.7520724 C16.3307441,9.38338992 16.9001626,8.91873804 17.3768106,8.36211548 C17.8534587,7.80469317 18.2061462,7.13050809 18.4340736,6.33636124 C18.7763645,5.14634059 18.6468058,4.19544371 18.0445977,3.48686959 C17.4431894,2.77669597 16.2579673,2.41920993 14.4913304,2.41361171 C13.4628583,2.41041273 12.4511808,2.57436047 11.4578974,2.90625467 C10.464614,3.23734913 9.58809346,3.76278163 8.82673616,4.4809527 C9.47213042,4.53213638 9.97197109,4.76966066 10.3262581,5.19192606 C10.6797455,5.61579094 10.7637187,6.15002064 10.5789776,6.79381541 C10.3654457,7.53837807 9.93198383,8.17017666 9.2817911,8.68921121 C8.63079862,9.20824575 7.84384948,9.46656341 6.92094368,9.46336443 C6.05002131,9.46016545 5.44701353,9.19145111 5.11192035,8.65642166 C4.77682717,8.12219196 4.7312417,7.43281172 4.97356445,6.58908068 C5.17270097,5.89570171 5.54698166,5.16473472 6.09800601,4.39617972 C6.64823061,3.62842446 7.39279326,2.92065008 8.33169397,2.27365633 C9.27139441,1.62426334 10.4110311,1.08283593 11.7514038,0.646175129 C13.0901771,0.209514326 14.6448815,-0.006416841 16.4131178,-1.88805102e-05 C17.7310977,0.0039798448 18.9443109,0.126340839 20.0503583,0.366264358 C21.155606,0.606187876 22.0785118,0.982068055 22.8166765,1.49390489 C23.5532417,2.00654148 24.0690773,2.64953651 24.361784,3.419691 C24.6552904,4.19064524 24.6496922,5.11115181 24.3425901,6.17881146 C23.9075288,7.69352861 23.0589993,8.89714493 21.8002005,9.78726118 C20.5406021,10.6781772 18.7283798,11.3307691 16.3651331,11.7458368 C18.7523721,12.0769313 20.3974477,12.8094978 21.3003599,13.9435363 C22.2024723,15.0783745 22.407207,16.501121 21.9153638,18.2149746 C21.5218893,19.5809392 20.8884912,20.7533655 20.0135701,21.7330532 C19.1378492,22.7119411 18.087784,23.5164846 16.8633743,24.145884 C15.6389646,24.7768829 14.2769988,25.243934 12.7774768,25.5494366 C11.2763553,25.8541395 9.70805522,26.0052913 8.07257657,25.9996931 C6.51547293,25.9940948 5.18869587,25.7909596 4.08824667,25.3902873 C2.98859721,24.9904148 2.11047713,24.4849759 1.45468618,23.8739707 C0.797295744,23.2645649 0.364633666,22.5855814 0.15669995,21.840219 C-0.0512337661,21.0948566 -0.0520335111,20.3630899 0.15510046,19.6433193 C0.403021429,18.7755959 0.848479428,18.075819 1.49067471,17.5439885 C2.13047076,17.0129578 2.91342118,16.7482422 3.83632698,16.7514412 C4.73284119,16.7538404 5.36463979,17.0161568 5.72932354,17.5399898 C6.09480703,18.0622233 6.16278536,18.7204135 5.93485802,19.5145604 C5.7925034,20.0104023 5.47340512,20.4750542 4.98076216,20.9061168 C4.48571997,21.3403783 3.96748517,21.5803019 3.42605776,21.6282866 C3.5972032,22.2240966 4.17861786,22.7103416 5.16630301,23.0854221 C6.15478791,23.4613022 7.32161595,23.6516416 8.66758689,23.65644 C10.5653819,23.662838 12.1264843,23.2397729 13.3492945,22.3864449 C14.5697054,21.5347164 15.4062388,20.3271013 15.854096,18.7643995 C16.4315119,16.7554399 16.2627657,15.2975046 15.3494569,14.3873948 C14.4345485,13.4788844 12.7414882,12.9214621 10.2646778,12.7143281 L11.0052417,10.9668851 Z" id="Fill-1"></path>
                </g>
                <g id="Page-1" transform="translate(52.000000, 6.000000)" fill="#D0011B">
                    <path d="M0.0165833333,15.6588333 L0.872416667,12.463 L0.0165833333,9.26716667 C-0.04925,9.02133333 0.0874166667,8.7355 0.319916667,8.633 L0.98075,8.3405 C1.21408333,8.23716667 1.51658333,8.32883333 1.65408333,8.54216667 L3.14575,10.8613333 L11.4824167,10.3955 L7.69408333,0.646333333 C7.55658333,0.291333333 7.75491667,-0.000333333333 8.13658333,-0.000333333333 L11.1040833,-0.000333333333 C11.48575,-0.000333333333 11.9674167,0.261333333 12.1749167,0.582166667 L18.2974167,10.0155 L22.0774167,9.80383333 C23.54575,9.72133333 24.80325,10.8455 24.88575,12.3138333 C24.9665833,13.783 23.84325,15.0396667 22.3749167,15.1221667 C22.27575,15.1271667 22.1749167,15.1271667 22.0774167,15.1221667 L18.33075,14.9121667 L12.1765833,24.3446667 C11.96825,24.6646667 11.48575,24.9255 11.1040833,24.9255 L8.13658333,24.9255 C7.75491667,24.9255 7.55658333,24.6346667 7.69575,24.2796667 L11.5024167,14.5305 L3.14575,14.0638333 L1.65408333,16.3838333 C1.51658333,16.5971667 1.21408333,16.688 0.98075,16.5855 L0.319916667,16.293 C0.0874166667,16.1896667 -0.04925,15.9046667 0.0165833333,15.6588333" id="Fill-1"></path>
                </g>
            </g>
        </g>
    </g>
</svg>