<?xml version="1.0" encoding="UTF-8"?>
<svg width="250px" height="70px" viewBox="0 0 250 70" version="1.1" xmlns="http://www.w3.org/2000/svg" xmlns:xlink="http://www.w3.org/1999/xlink">
    <!-- Generator: Sketch 41.2 (35397) - http://www.bohemiancoding.com/sketch -->
    <title>nav_means_nor</title>
    <desc>Created with Sketch.</desc>
    <defs>
        <polygon id="path-1" points="0.0705542152 30.9804186 24.7143708 30.9804186 24.7143708 0.1515889 0.0705542152 0.1515889"></polygon>
        <polygon id="path-3" points="3.9986949e-20 0.0173740194 3.9986949e-20 5.37229963 5.4353661 5.37229963 5.4353661 0.0173740194 0 0.0173740194"></polygon>
        <polygon id="path-5" points="27.5958078 33.5632286 27.5958078 0.0133600998 0.331735018 0.0133600998 0.331735018 33.5632286"></polygon>
        <polygon id="path-7" points="7.06066493 0.0174074074 0.02411491 0.0174074074 0.02411491 7.05372359 7.06066493 7.05372359 7.06066493 0.0174074074"></polygon>
    </defs>
    <g id="Page-1" stroke="none" stroke-width="1" fill="none" fill-rule="evenodd">
        <g id="Artboard-2" transform="translate(-127.000000, -92.000000)">
            <g id="nav_means_nor" transform="translate(129.000000, 93.000000)">
                <g id="Page-1" transform="translate(83.000000, 9.000000)">
                    <path d="M46.4180718,17.7083704 C46.5726051,17.999365 46.6083801,18.1236555 46.6876752,18.2066388 C47.1276709,18.6661817 47.6023352,19.0973258 47.9866399,19.5985447 C48.0231525,19.645753 47.3275684,20.3723176 47.2869988,20.3431812 C46.7643886,19.9688345 46.101629,19.605921 45.8526792,19.0652389 C44.622314,16.3946531 44.9689996,15.8447507 48.4863836,15.4408988 C47.7834231,16.2113523 47.0804627,16.9821746 46.4180718,17.7083704 M53.9389372,12.4568206 C53.9267663,15.044792 54.004955,17.4730667 51.5759427,18.9350474 C51.3162973,18.0329271 51.3162973,18.0329271 52.7631566,15.8425378 C52.223581,15.2074392 51.7861669,14.6925742 51.3487529,14.1777091 C52.2121477,13.6038337 53.0755425,13.0303272 53.9389372,12.4568206 M71.7998862,10.9944711 C71.5686395,8.87194361 70.2718877,8.33384324 68.3905649,9.18838645 C67.5529871,9.56900303 66.5641954,9.61694891 65.4806184,9.85077731 C65.857178,8.07124731 66.3867956,6.63397718 66.3783129,5.19965756 C66.3731495,4.37093137 65.5009032,3.54736857 65.0188626,2.72122408 C64.3538901,3.25600511 63.3942347,3.66096344 63.089594,4.3539659 C62.5577634,5.5640463 62.3475392,6.93935559 62.1561244,8.26745663 C61.9864698,9.44471254 61.6999009,10.1631632 60.2570985,10.0945637 C59.0141937,10.0359222 58.4274098,11.0453675 58.8493336,12.094276 C59.0934888,12.7020823 60.0771171,13.0122553 60.9272345,13.5927693 C59.4342734,18.0635387 57.8859901,22.6995371 56.4837573,26.8981214 C54.6005904,27.2466512 52.9999355,27.5428092 51.3989117,27.8389673 C51.2882674,27.7036123 51.177623,27.5682574 51.0666098,27.4332713 C51.420303,26.9977014 51.6954386,26.4356281 52.1457611,26.1556978 C52.8649494,25.7090635 53.7678073,25.5493668 54.4648667,25.0783907 C54.9561276,24.7464576 55.2349514,24.1006634 55.6085605,23.5946499 C54.9955908,23.2667738 54.4043811,22.7312551 53.7637503,22.6637621 C52.9748561,22.58041 52.1442858,22.8872637 50.929042,23.0941686 C51.2642944,22.2783509 51.4372684,21.4378227 51.63901,21.4308152 C54.0023733,21.349676 55.0158756,19.9175693 55.6624074,17.8780251 C55.8895972,17.1621561 56.7153728,16.6550361 57.0443554,15.9483876 C57.4747619,15.0245072 57.8778762,14.0098985 57.939837,13.0122553 C58.0257708,11.6325202 57.2117972,10.8948912 55.7409649,10.9457876 C54.3011131,10.9955775 52.8575731,10.9564832 51.4158772,10.9564832 C51.3233047,10.7230236 51.2311011,10.489564 51.1385287,10.2557356 C51.5929081,9.87770077 51.990859,9.35840994 52.5131003,9.1489233 C53.7589557,8.64881083 55.1191436,8.40981903 56.3203725,7.83114907 C56.892035,7.55601345 57.2066338,6.74609679 57.6377779,6.17849126 C56.947726,5.83844429 56.251773,5.20629622 55.5690973,5.2210488 C54.2727144,5.24870989 52.9844453,5.64702956 51.6220445,5.9048309 C51.4365308,3.86159853 53.1456172,4.67003993 53.8684937,4.12087513 C54.4110198,3.70890933 55.3282615,3.15790045 55.2876919,2.74740991 C55.2150354,2.01531311 54.6666082,1.19802016 54.0776115,0.699014135 C53.7235496,0.398799126 52.8195852,0.428304287 52.3290619,0.661026241 C49.8004696,1.8600422 47.3157663,3.15494994 44.8436027,4.46903602 C44.5341673,4.63352729 44.3906985,5.11114208 43.9713564,5.74402777 C45.5701672,5.52200144 46.8233989,5.34828981 48.1662526,5.16203848 C48.7309076,6.62844496 48.1754729,7.22776854 46.9034317,7.46897322 C45.3389206,7.7658689 43.7887932,8.13984681 42.2331336,8.48468838 C41.0577218,8.74507142 40.041269,9.25145373 40.2868994,10.6691767 C40.5314235,12.0795234 41.7739595,12.0489118 42.7826672,11.8881086 C44.5806379,11.6015398 46.3468906,11.1165487 48.4273732,10.646679 C48.2237876,11.1774031 48.1717848,11.8139769 47.9040254,11.9235148 C46.7861487,12.3826889 45.6155314,12.9300096 44.4415949,12.9890199 C42.1803931,13.1026148 41.4128901,13.7609487 42.0358178,16.0564502 C42.5761311,18.0476797 43.3882606,19.9983397 44.3320569,21.8376176 C45.4842335,24.0829603 45.8076838,24.0774281 47.9549218,22.8658724 C47.7635071,23.4858496 47.4747254,24.1043516 46.9901031,24.4370222 C46.3988934,24.8423494 45.5753307,24.9079984 44.9811705,25.310375 C44.5492887,25.6028449 44.001968,26.2851517 44.0926963,26.6462211 C44.2048159,27.0913802 44.8815906,27.5841164 45.3931363,27.6951296 C46.1953078,27.86921 47.0631284,27.7412314 47.9032878,27.7412314 C48.0028677,27.8765863 48.1020788,28.0119413 48.2016588,28.1469274 C47.805552,28.493613 47.4636609,28.9837675 47.0026428,29.1582167 C45.8025204,29.6125962 44.5522392,29.9367842 43.3174482,30.2967471 C41.8569428,30.7223591 41.6448745,31.631118 42.7598007,32.5011514 C43.3985874,32.9997886 44.5946529,33.3516377 45.3020391,33.100475 C48.803564,31.8572013 52.2257938,30.3911636 55.7789528,28.9620074 C55.5049236,30.6142964 55.2404836,32.209788 54.9756748,33.8052795 C55.6070852,33.6595978 55.8077203,33.434621 55.981432,33.1908346 C59.8421822,27.7648355 62.3962227,21.7424635 63.7737449,15.2642366 C64.2797584,12.8839078 65.5145493,11.8154522 67.8288604,11.5993269 C67.9265962,11.7708256 68.135714,11.9725672 68.1515731,12.1886925 C68.5867742,18.0915687 68.1703826,23.8421244 65.1106975,29.1228106 C64.4910891,30.191635 63.5937634,30.4811544 62.4589211,30.2576528 C61.4955777,30.0680821 60.5370288,29.8552762 59.576267,29.6524282 C59.6526116,30.2226154 59.9424998,30.4346838 60.2106279,30.6714627 C60.4865012,30.9152491 60.9194894,31.1487086 60.9766556,31.4456043 C61.5199194,34.2780997 62.9778432,33.6846772 65.1232371,33.0753956 C67.2505592,32.4712775 68.5458358,31.4905997 69.5014342,29.6166532 C71.6140037,25.4730222 71.7360813,20.9963517 71.8625846,16.5148866 C71.9145875,14.6748711 71.9983084,12.8156771 71.7998862,10.9944711" id="Fill-1" fill="#000000"></path>
                    <g id="Group-5" transform="translate(92.203627, 3.304799)">
                        <mask id="mask-2" fill="white">
                            <use xlink:href="#path-1"></use>
                        </mask>
                        <g id="Clip-4"></g>
                        <path d="M22.6792523,15.9406056 C21.6827155,15.9631032 20.6939238,16.3127394 19.5579751,16.5535753 C19.6527605,14.7264682 19.6306316,13.1697022 21.6273933,12.6205374 C22.0607504,12.5010415 22.5151298,12.1089917 22.7493271,11.7173106 C22.9672964,11.3532907 23.0488044,10.7698262 22.9101302,10.3836774 C22.8293598,10.1583317 22.192786,10.016707 21.8173328,10.0373606 C21.0966693,10.0768237 20.3841196,10.2586493 19.6682507,10.3814645 C19.5812104,10.2531171 19.4938014,10.1247696 19.4063924,9.99642216 C20.4047732,9.04340547 21.5340833,8.187387 22.3451064,7.09532725 C22.7401067,6.56349673 22.5416845,5.59056406 22.6117592,4.81752885 C21.9231826,5.11958793 20.9594703,5.23465806 20.6009826,5.76132517 C19.7464393,7.01603213 19.2175593,8.4872332 18.4743981,9.8245546 C18.1867228,10.342739 17.6759147,10.7366329 17.124537,11.3433327 C16.8689486,9.81053965 16.8221091,8.68639303 16.4477624,7.68469283 C16.2899098,7.26424429 15.4386859,7.10307235 14.9027984,6.82387977 C14.6936806,7.33837601 14.2326625,7.90450627 14.3256037,8.35704167 C14.5409914,9.40447487 15.0245072,10.3965859 15.4080743,11.4355364 C14.7888347,11.6446542 14.1836101,11.7084591 13.7712755,12.0241643 C13.2645244,12.4121572 12.9185764,13.0103743 12.5029224,13.5178631 C13.0749537,13.8781948 13.6060466,14.3890029 14.2300808,14.55792 C14.8994791,14.7390079 15.6562865,14.5988584 16.4142003,14.5988584 L16.4142003,17.2642808 C14.7327749,17.4534827 13.1612563,17.6301448 11.7409517,17.7902103 C11.7409517,14.5667715 11.8150834,11.3879593 11.7003821,8.21615453 C11.6609189,7.12778292 11.3972165,5.85942983 10.7554793,5.05688947 C10.4043679,4.61726257 9.05155627,4.97796316 8.12841356,4.97796316 C8.31355844,4.15993259 8.83727504,3.10475428 8.67389022,2.16980951 C8.5436987,1.42296013 7.69173719,0.482851952 6.95521462,0.233164531 C5.7624685,-0.172162612 5.91552652,1.02648454 5.78976077,1.77185865 C5.56884088,3.08151897 5.33316841,4.38822877 5.10376579,5.69641382 C4.93300467,5.56069008 4.76261237,5.42496634 4.59222007,5.28924261 C3.88741555,5.85463525 3.18261102,6.42002788 2.4778065,6.98542052 C2.98455763,7.58179358 3.49167758,8.17816664 4.23557644,9.05373228 C3.04098625,14.8813703 0.303644984,20.8978414 0.0705542152,27.4985146 C1.24485961,25.7890593 2.3328624,24.0526806 2.97164913,22.1639816 C4.46350381,17.7540665 5.72816875,13.2678068 7.11601774,8.82248558 C7.3107518,8.19882025 7.68325445,7.6304771 7.97351147,7.03668574 C8.56103298,7.44643866 8.72847476,7.67289076 8.70966522,7.8823774 C8.32204118,12.144029 8.1877927,16.4536265 7.42028971,20.6474163 C6.81469629,23.9590018 6.46690421,23.8951968 3.14167261,23.5890808 C3.36296132,24.3149078 3.50274202,25.0248757 3.79779362,25.6632936 C4.03678542,26.1800027 4.36724322,26.8460817 4.82457321,27.030489 C5.82037238,27.4313903 9.1692081,25.6979622 9.57785457,24.6494225 C10.1502547,23.181172 10.6311888,21.6775152 10.9723422,20.7020008 C12.9366483,20.5994704 14.6508981,20.5102173 16.3850639,20.4198578 C16.9290653,23.7598419 15.8724118,27.3572586 17.1171607,30.9804923 C18.6639688,30.0673076 19.1353137,28.9501685 19.1489598,27.5885053 C19.1707199,25.3763559 19.0980634,23.1597807 19.2389506,20.956114 C19.2721439,20.4386673 19.9053984,19.7467713 20.429115,19.5199504 C21.4267582,19.0880686 22.6467966,19.1160985 23.5743651,18.5968076 C24.1456588,18.2763078 24.3466627,17.2959989 24.7143708,16.611848 C24.0357521,16.3721185 23.3523388,15.9254842 22.6792523,15.9406056" id="Fill-3" fill="#000000" mask="url(#mask-2)"></path>
                    </g>
                    <path d="M93.4705414,20.1512133 C93.1828661,19.7750225 92.5116237,19.6175387 91.9761051,19.533449 C91.6618751,19.4840278 91.2971175,19.754 90.8379435,19.9236547 C90.6457911,18.1924394 91.1658196,17.1225085 92.5662083,16.3129607 C93.1729081,15.9622181 93.4207515,14.9900231 93.8316108,14.3003399 C93.1695888,14.1502324 92.5064603,14.0049195 91.8473888,13.8426411 C91.7629303,13.8219875 91.7009694,13.7109743 91.6910114,13.7013852 C92.483225,12.5433076 93.3687486,11.450879 93.9931516,10.2256773 C94.2122274,9.79637717 93.7903036,9.04067624 93.6608497,8.43360757 C93.1142666,8.67776277 92.3168897,8.7725481 92.067571,9.19299664 C91.2292557,10.6066626 90.6354643,12.1634287 89.8443572,13.6084439 C89.5282832,14.1856386 88.9418681,14.6149387 88.2448087,15.3617881 C88.1526051,13.6571274 88.2488656,12.4584803 87.963772,11.3586754 C87.8096076,10.7634088 87.0044855,10.3374281 86.4933086,9.83473388 C86.2163289,10.5310557 85.6328643,11.2734793 85.7291249,11.9137413 C85.9032054,13.0736629 86.482613,14.1727301 86.9030615,15.3252754 C85.949676,15.7033103 85.0018227,15.9839782 84.160188,16.4553231 C83.7769897,16.6703419 83.3381005,17.3131856 83.4070688,17.6676164 C83.4830446,18.0563469 84.0849499,18.5597787 84.5120371,18.6191578 C85.5185318,18.7589385 86.5571135,18.6637844 87.5248828,18.6637844 C88.2864847,21.0813635 86.9314602,21.5726244 85.1290637,21.7559252 C84.219936,21.8484976 83.3108082,22.1826436 83.6305704,23.3484662 C83.9108694,24.3704512 84.6005525,25.0564462 85.8312866,24.6802554 C86.208215,24.5648165 86.5888315,24.4637613 87.265975,24.2716089 C86.3686493,27.4854585 85.5487746,30.4201156 84.7292688,33.3551414 C87.2010636,31.8839404 88.3141458,29.5851195 89.1716395,27.1749167 C89.9664348,24.9424825 90.0014722,22.289231 92.9899761,21.5069754 C93.2743321,21.4324749 93.6398273,20.3732396 93.4705414,20.1512133" id="Fill-6" fill="#000000"></path>
                    <path d="M105.900771,9.00018041 C108.885218,8.16739725 111.802171,7.06574832 114.674499,5.88959886 C115.064336,5.72990218 115.302221,4.59616638 115.170923,4.01233302 C115.102324,3.70621698 114.075175,3.45173497 113.48876,3.46796281 C112.789119,3.48714116 112.097961,3.82128711 111.689314,3.93783249 C110.747731,2.57137474 110.163529,1.31777423 109.209405,0.489048036 C108.630736,-0.0136461368 107.481141,0.140887142 106.587503,0 C106.779655,0.823931608 106.942303,1.65597714 107.180557,2.46626261 C107.260958,2.74029179 107.595104,2.93318177 107.704273,3.20684214 C108.137631,4.29226323 108.309129,5.28068611 106.664585,5.41936036 C106.24008,5.45476656 105.737386,5.46767506 105.42168,5.69781532 C104.818669,6.13744221 104.324457,6.72570135 103.785251,7.25236846 C104.500382,7.87050158 105.397339,9.14069874 105.900771,9.00018041" id="Fill-8" fill="#000000"></path>
                    <path d="M85.9385009,9.25879314 C88.6983399,8.53222857 91.3943739,7.521308 94.0313977,6.41597092 C94.4636483,6.234883 94.7653385,5.01668869 94.6067483,4.41478341 C94.5060619,4.03195395 93.4571535,3.76087529 92.8102528,3.70481548 C92.3234177,3.66313945 91.8004387,4.04264957 91.6009101,4.11825655 C90.9178656,2.94468879 90.5088503,1.6383478 89.6240643,0.908832708 C88.8875417,0.30176403 87.1467373,-0.167736838 86.6374044,0.253449329 C85.5667359,1.1374977 86.8384083,2.01785793 87.4591231,2.79236839 C88.7064538,4.34876561 88.2660893,5.45447151 86.2689587,5.77755301 C85.9672685,5.82623653 85.5778003,5.76759502 85.3782717,5.93577444 C84.7984953,6.42519129 84.2943259,7.00459888 83.7602825,7.54860028 C84.4956986,8.15456251 85.4000317,9.40078673 85.9385009,9.25879314" id="Fill-10" fill="#000000"></path>
                    <path d="M23.9881012,23.6405673 C23.3113266,25.6683095 22.843301,27.3825593 22.1278009,28.9869024 C21.9548268,29.3748953 20.978206,29.4925471 20.3504837,29.5751615 C16.5269837,30.079331 16.5247709,30.0638408 15.4482013,25.9891781 C18.1910748,25.2349524 20.8170341,24.5128136 23.9881012,23.6405673 M30.3058937,10.6029745 C29.6884982,10.1017556 28.6418027,9.89927642 27.8049626,9.9472223 C26.2924543,10.0338937 24.795805,10.4045523 22.8436698,10.7316908 C23.9921582,8.56047976 22.6618443,7.7099935 21.4170953,6.87167813 C20.1144425,5.99463723 18.8715376,6.57773297 18.6104169,8.14593225 C18.5503001,8.50737047 18.5244831,8.88393008 18.5510378,9.24831881 C18.6683208,10.8463921 17.9557711,11.514684 16.3436829,11.6397121 C14.3303245,11.7964582 12.327293,12.1590029 10.3364323,12.5230228 C7.92807352,12.9637562 7.53233556,14.159084 9.07840597,16.0370874 C10.0033928,17.1601276 11.0928708,17.4872661 12.5146507,17.0690304 C14.106823,16.600636 15.7436217,16.2838243 17.5596644,15.8541554 C17.347596,17.2294647 17.2332635,18.201291 17.0436929,19.1587334 C16.4594907,22.1114624 16.0807182,22.3423402 13.1158184,21.6552388 C11.6162186,21.3074467 10.7885988,21.9060327 11.0076747,23.4856652 C11.4934034,26.9953041 12.5530074,30.3183228 15.1155306,32.9287919 C15.5300781,33.3510845 16.2831974,33.7291193 16.8382632,33.6774853 C19.644204,33.4185775 22.4483007,33.0818499 25.2228922,32.5987029 C25.8063567,32.4969101 26.7531036,31.600322 26.696675,31.1835616 C26.3868708,28.9009686 27.8820448,27.2700709 28.5632452,25.3699385 C29.4786428,22.8184798 29.3676296,22.0218404 26.9168572,20.8231933 C25.9653158,20.3577494 24.7312625,20.3861481 23.6211308,20.3547989 C22.7370824,20.3297195 21.8456578,20.5561716 20.8103954,20.6900513 C21.1880615,18.9713757 21.4469693,17.4629243 21.882908,16.0079511 C22.014206,15.5697995 22.5973017,15.0412883 23.0446737,14.962362 C25.09602,14.602399 27.1886735,14.469257 29.2326435,14.0790512 C30.0373968,13.9252556 31.2482148,13.4336258 31.3835697,12.8781912 C31.544004,12.2213326 30.9243957,11.104931 30.3058937,10.6029745" id="Fill-12" fill="#000000"></path>
                    <path d="M14.5651487,6.39218239 C18.0935971,5.99386272 21.6154069,5.53911443 25.138323,5.09284888 C26.6006725,4.907704 26.94367,3.99009351 26.5991973,2.71178242 C26.2067787,1.25533394 24.6887381,0.262854099 23.5712302,0.711701354 C20.7427917,1.84765004 17.9084522,2.96958377 15.1069373,4.1678621 C14.3309515,4.49979515 13.6611844,5.07994037 12.9427337,5.54649072 C12.9928925,5.72425932 13.0430513,5.90276554 13.0928412,6.08090295 C13.584471,6.19228493 14.0919597,6.44566049 14.5651487,6.39218239" id="Fill-14" fill="#000000"></path>
                    <path d="M9.4579161,7.52348401 C10.1391165,5.12397683 7.55262035,2.54559461 4.08760806,2.64001112 C3.83570775,2.82552482 3.13975478,3.14012359 2.7768413,3.6793304 C2.5632977,3.99651088 2.69164515,4.87392059 2.98927846,5.14794977 C4.28418619,6.33774537 5.64916868,7.46631776 7.08275067,8.48535224 C8.31311587,9.35981144 9.03709874,9.00648714 9.4579161,7.52348401" id="Fill-16" fill="#000000"></path>
                    <path d="M3.83006489,24.5534201 C3.99640023,23.726538 4.10003711,22.8867473 4.30620442,21.5840945 C3.81125535,22.1435861 3.66151666,22.2586562 3.58259036,22.410239 C2.83352809,23.8467715 2.8007036,25.8368946 0.574539239,26.1400601 C0.3676343,26.16809 0.046396865,27.0307471 0.154090701,27.3947671 C0.544296449,28.715123 0.884343425,30.1398534 1.66475492,31.2215864 C2.12282254,31.856685 3.37716068,31.9175394 4.27337993,32.2369327 C4.39619516,31.1751158 4.97117698,29.8577103 4.54630266,29.1053287 C3.68991538,27.5883947 3.50550812,26.1666148 3.83006489,24.5534201" id="Fill-18" fill="#000000"></path>
                    <g id="Group-22" transform="translate(0.000000, 12.525162)">
                        <mask id="mask-4" fill="white">
                            <use xlink:href="#path-3"></use>
                        </mask>
                        <g id="Clip-21"></g>
                        <path d="M4.41588985,1.05421939 C3.4864773,0.439774418 2.26275076,0.186030037 1.12827734,0.0189570657 C0.796713098,-0.0297264493 -0.0172605189,1.06048923 7.37629016e-05,1.0800364 C1.24740443,2.46714776 2.55632711,3.79819932 4.09280835,5.37229963 C4.78396673,4.36691129 5.47660038,3.81073901 5.43344908,3.31910927 C5.36263669,2.51804416 5.01558224,1.45069498 4.41588985,1.05421939" id="Fill-20" fill="#000000" mask="url(#mask-4)"></path>
                    </g>
                    <g id="Group-25" transform="translate(133.142037, 0.354283)">
                        <mask id="mask-6" fill="white">
                            <use xlink:href="#path-5"></use>
                        </mask>
                        <g id="Clip-24"></g>
                        <path d="M27.558115,18.2489418 C27.3748142,16.9289547 24.7901621,15.6742477 23.1102121,15.9593413 C20.7129178,16.3665126 18.2953387,16.6545567 15.8936186,16.9923908 C15.2242203,12.7318456 15.3178992,12.5389556 18.7563568,10.7948318 C18.9750638,10.6838186 19.264952,10.6126374 19.3870296,10.4319183 C19.7993642,9.82263676 20.4702378,9.1550825 20.4377821,8.54174398 C20.4038512,7.89521215 19.8093222,7.00563156 19.2199566,6.72348846 C18.2684152,6.26837136 17.1202956,6.22337599 16.0470454,6.00356254 C16.0470454,5.17336109 16.0363498,4.19452739 16.0492583,3.21569369 C16.0706496,1.59844207 14.8037717,-0.0951541428 13.4668191,0.0188095399 C11.7448242,0.166335343 11.6212713,1.55971655 11.5984048,2.89298099 C11.5688997,4.6042803 11.5910286,6.31668606 11.5910286,7.98151474 C10.1253597,8.36397539 8.81975635,8.70512881 7.51378419,9.04517578 C6.54785899,9.29707609 6.25797079,9.80677774 6.60354998,10.8184359 C7.34265425,12.9826395 8.49851892,13.6719538 11.6161079,13.5148388 C11.6161079,14.1912446 11.5216914,14.8768708 11.6352863,15.5263531 C11.9093155,17.0930771 11.3306455,17.6466677 9.73478515,17.8299685 C7.30503517,18.1087923 4.88966897,18.6310336 2.5133971,19.2285131 C-0.00339309346,19.86103 -0.364462496,21.131596 1.54378376,22.922928 C2.13573105,23.4787315 3.42805708,23.6159305 4.31542478,23.4610284 C6.15359628,23.1412662 7.93460154,22.4965785 9.73884211,21.9857704 C9.84727357,22.1273952 9.95607385,22.2693887 10.0648741,22.4113823 C8.58887847,24.7161042 7.20398,27.0872126 5.59041653,29.2908793 C4.98076615,30.1229248 3.90456542,30.5791484 4.6388751,31.8574595 C5.34589251,33.0892999 6.2557579,33.8431568 7.79039507,33.4393049 C9.03588166,33.1114288 10.2931703,32.8263352 11.5500901,32.5441921 C14.0340559,31.9861757 16.5217097,31.4432808 19.0071507,30.8944848 C19.304784,31.681535 19.3615814,32.3468763 19.7241261,32.6670073 C20.2290331,33.1132729 21.3624001,33.7022696 21.5309483,33.5337214 C22.4249547,32.6404527 23.7718653,31.4993406 23.7268699,30.4994845 C23.5896709,27.4645099 21.9425453,24.9200586 19.7351905,22.8764574 C19.2859744,22.4604347 18.1780557,22.7562239 17.37404,22.7237682 C17.3633444,23.4647166 17.2423732,24.2259497 17.3762529,24.9396058 C17.4920607,25.559583 17.8959126,26.1257132 18.2219446,26.8209286 C15.6151636,27.4608217 13.1961093,28.0549819 10.7763173,28.6491421 C10.645757,28.4853884 10.5151966,28.3220036 10.3846363,28.15825 C12.0771261,25.8527905 13.7452741,23.5281527 15.4905043,21.2632628 C15.7401918,20.9394436 16.3609066,20.7723707 16.8163925,20.7587245 C19.6204892,20.6746348 22.428274,20.5721044 25.2301578,20.6458673 C26.9215412,20.690125 27.7930498,19.9388499 27.558115,18.2489418" id="Fill-23" fill="#000000" mask="url(#mask-6)"></path>
                    </g>
                    <path d="M130.943607,23.2463415 C130.903407,23.0652536 130.751455,22.909245 130.482958,22.4585537 C130.128159,24.2004646 129.839008,25.6211381 129.55207,27.0303783 C127.823437,27.0104623 127.391555,27.5721668 127.955841,29.1536434 C128.241672,29.9532333 128.654376,30.7081966 129.02319,31.476806 C129.611081,32.7009014 130.693551,33.7180918 131.857899,32.9749305 C132.463861,32.5884129 132.468287,30.8468708 132.319654,29.7762023 C132.015014,27.5780679 131.428599,25.4182901 130.943607,23.2463415" id="Fill-26" fill="#000000"></path>
                    <path d="M130.049269,6.93821227 C131.943132,6.82314214 133.056214,7.97458103 134.397961,8.88850338 C135.511781,9.64752363 135.989396,8.90104307 136.013737,7.86799364 C136.074223,5.29588127 134.523358,3.72473147 131.357823,3.66977811 C131.061665,3.8272619 130.181674,4.11641247 129.544731,4.67996104 C128.701621,5.42570397 129.063797,6.99832903 130.049269,6.93821227" id="Fill-28" fill="#000000"></path>
                    <path d="M131.089105,13.3796683 C130.307218,13.0809285 129.310681,13.3446309 128.41188,13.3512696 C128.772581,14.2980164 128.890602,15.5069903 129.557049,16.1229106 C130.350001,16.8561138 131.613928,17.080353 132.757253,17.5601807 C133.982455,16.0074716 133.296091,14.2235159 131.089105,13.3796683" id="Fill-30" fill="#000000"></path>
                </g>
                <g id="icon_pen">
                    <path d="M21.8897778,10.722963 L19.3138519,10.5974074 L20.4931111,12.8911111 L21.8897778,10.722963 Z M17.6071852,9.93740741 C17.6012593,9.80703704 17.634963,9.6762963 17.7082963,9.56259259 C17.8312593,9.37185185 18.0471852,9.26074074 18.2742222,9.27148148 L23.0538519,9.50481481 C23.2805185,9.51555556 23.484963,9.64740741 23.5886667,9.84962963 C23.6923704,10.0518519 23.6812593,10.2944444 23.5579259,10.4851852 L20.9664444,14.5077778 C20.8434815,14.6985185 20.6271852,14.8096296 20.4001481,14.7988889 C20.1731111,14.7877778 19.9686667,14.6559259 19.864963,14.4537037 L17.6771852,10.1988889 C17.634963,10.1159259 17.6116296,10.027037 17.6071852,9.93740741 L17.6071852,9.93740741 Z" id="Fill-1" fill="#2D313A"></path>
                    <path d="M38.5658519,24.4331852 C38.5658519,24.4331852 42.8673333,15.880963 43.0043704,15.6083704 C44.7862222,12.0657778 45.6717778,8.91281481 43.1125185,7.62577778 C40.5536296,6.33874074 38.5502963,8.92911111 36.7684444,12.4713333 C36.6206667,12.765037 32.3417778,21.3028148 32.3417778,21.3028148 C32.0443704,21.8942963 31.9028889,22.5202222 31.8973333,23.1283704 L37.3632593,25.8772593 C37.8484444,25.5102222 38.2680741,25.025037 38.5658519,24.4331852" id="Fill-3" fill="#EEA74E"></path>
                    <path d="M35.5461111,29.9124074 L29.3238889,26.725 C29.3238889,26.725 27.8787037,28.2009259 27.3646296,29.2224074 C26.6935185,30.5568519 26.4324074,31.9505556 26.5438889,33.165 L32.0353704,35.9272222 C33.0772222,35.2927778 34.0405556,34.2524074 34.7116667,32.9175926 C35.2153704,31.9157407 35.5461111,29.9124074 35.5461111,29.9124074" id="Fill-5" fill="#00A158"></path>
                    <path d="M28.5344074,23.8313333 L27.7710741,24.6105926 C27.6066296,24.7787407 26.147,26.2857778 25.547,27.4791111 C24.7788519,29.0061481 24.4336667,30.690963 24.5744074,32.2228148 L24.6495926,33.0413333 L25.384037,33.410963 L30.8755185,36.1728148 L31.609963,36.5420741 L32.3118148,36.1146667 C33.6258889,35.3142963 34.7729259,34.0324444 35.5407037,32.5057778 C36.1292222,31.3357778 36.4758889,29.3035556 36.5136667,29.0757778 L36.6895926,28.0087407 L35.7273704,27.5157778 L29.5051481,24.3287407 L28.5344074,23.8313333 Z M28.8295926,25.6468889 L35.0518148,28.8346667 C35.0518148,28.8346667 34.7210741,30.838 34.2173704,31.8398519 C33.5458889,33.1746667 32.5832963,34.215037 31.5410741,34.8494815 L26.0495926,32.0872593 C25.9377407,30.8728148 26.1992222,29.4791111 26.8703333,28.1446667 C27.3844074,27.1231852 28.8295926,25.6468889 28.8295926,25.6468889 L28.8295926,25.6468889 Z" id="Fill-7" fill="#2D313A"></path>
                    <g id="Group-11" transform="translate(41.481481, 0.352963)">
                        <mask id="mask-8" fill="white">
                            <use xlink:href="#path-7"></use>
                        </mask>
                        <g id="Clip-10"></g>
                        <path d="M4.42922222,1.70174074 C3.41811111,1.21285185 2.19737037,1.63766667 1.70848148,2.64914815 C1.21959259,3.65988889 1.64477778,4.88062963 2.65588889,5.36951852 C3.667,5.85840741 4.88774074,5.43322222 5.37662963,4.42211111 C5.86514815,3.411 5.43996296,2.19025926 4.42922222,1.70174074 M2.01107407,6.70322222 C0.264407407,5.85914815 -0.470037037,3.75062963 0.374777778,2.00396296 C1.21922222,0.257666667 3.327,-0.476777778 5.07366667,0.367666667 C6.8207037,1.21248148 7.55440741,3.32025926 6.71033333,5.06692593 C5.86588889,6.81359259 3.75811111,7.54766667 2.01107407,6.70322222" id="Fill-9" fill="#2D313A" mask="url(#mask-8)"></path>
                    </g>
                    <path d="M31.1085556,22.1097037 L36.5826296,24.863037 C36.8818889,24.5945185 37.1241111,24.2778519 37.3048519,23.9182222 L42.0415185,14.5015556 C44.1663333,10.2763704 44.1937407,8.03118519 42.1326296,6.99451852 C40.0718889,5.95822222 38.285963,7.31859259 36.1607778,11.5437778 C36.0070741,11.8497037 31.4389259,20.9663704 31.4389259,20.9663704 C31.2567037,21.3282222 31.1467037,21.7111852 31.1085556,22.1097037 L31.1085556,22.1097037 Z M36.7296667,26.5952593 L29.6292963,23.0237778 L29.6148519,22.5834074 C29.5892963,21.7919259 29.7622593,21.0026667 30.1148519,20.3015556 C30.1141111,20.3026667 34.6833704,11.1841481 34.8370741,10.8782222 C35.8485556,8.86748148 38.5348519,3.52674074 42.7981852,5.67118519 C47.0622593,7.81562963 44.375963,13.1567407 43.3648519,15.1671111 L38.6285556,24.5837778 C38.2767037,25.283037 37.7452222,25.8919259 37.0911481,26.3448889 L36.7296667,26.5952593 Z" id="Fill-12" fill="#2D313A"></path>
                    <path d="M30.0227407,38.2858889 L24.2942222,35.4047778 C22.6471852,35.9410741 21.1612593,37.2758889 20.2816296,39.0251481 C19.4264444,40.7255185 19.3823704,42.0910741 19.3427407,43.2958889 C19.2927407,44.8373704 19.244963,46.2932963 17.4097778,47.4436667 C17.3012593,47.5118148 17.289037,47.6110741 17.2986667,47.6821852 C17.3053333,47.7344074 17.3360741,47.8607037 17.4871852,47.9077407 C19.7923704,48.6310741 23.2127407,49.0429259 26.4179259,46.8992222 C26.4371852,46.8862593 26.4575556,46.8736667 26.4782963,46.8625556 C27.7364444,46.1844074 28.8123704,45.0492222 29.5082963,43.6655185 C30.3879259,41.917 30.5742222,39.9281111 30.0227407,38.2858889" id="Fill-14" fill="#FFFFFF"></path>
                    <path d="M26.4177778,46.8991852 C23.212963,49.0428889 19.7922222,48.631037 17.4874074,47.9077037 C17.3359259,47.8606667 17.3051852,47.7343704 17.2985185,47.6821481 C17.2892593,47.611037 17.3014815,47.5117778 17.41,47.4436296 C19.2451852,46.2932593 19.292963,44.8377037 19.3425926,43.2958519 C19.3822222,42.0914074 19.4262963,40.7254815 20.2818519,39.0251111 C21.1614815,37.2762222 22.647037,35.941037 24.2944444,35.4047407 L30.0225926,38.2858519 C30.5744444,39.9280741 30.3881481,41.916963 29.5085185,43.6658519 C28.8125926,45.0491852 27.7366667,46.1843704 26.4781481,46.8625185 C26.4574074,46.874 26.4374074,46.8862222 26.4177778,46.8991852 M31.3074074,37.4854815 C31.2407407,37.3154815 31.1137037,37.1762222 30.9507407,37.0943704 L24.6974074,33.9491852 C24.5348148,33.866963 24.347037,33.8484444 24.1711111,33.8962222 C21.9874074,34.4873333 20.0874074,36.1143704 18.9581481,38.3591852 C17.9562963,40.3514074 17.9040741,41.9573333 17.8618519,43.2484444 C17.8155556,44.6721481 17.79,45.4565926 16.6233333,46.1884444 C16.0462963,46.5499259 15.7422222,47.1947407 15.8292593,47.871037 C15.9044444,48.4602963 16.2574074,48.9521481 16.772963,49.2114074 C16.8585185,49.2543704 16.9496296,49.2914074 17.0437037,49.321037 C19.6507407,50.1391852 23.5285185,50.5977037 27.2122222,48.1499259 C28.7222222,47.326963 30.0066667,45.9721481 30.8318519,44.3314074 C31.9611111,42.0865926 32.1344444,39.591037 31.3074074,37.4854815" id="Fill-16" fill="#2D313A"></path>
                    <path d="M28.9865185,38.8012963 L24.4983704,36.5438889 C23.1417037,36.9109259 21.9287407,37.9912963 21.0928148,39.4727778 C19.7561481,41.842037 20.9213333,44.6524074 19.8220741,45.7783333 C19.3320741,46.2798148 19.5091111,47.1261111 20.190963,47.2909259 C21.8146667,47.6835185 23.9139259,47.3798148 26.2672593,45.8053704 C27.2324444,45.2853704 28.0939259,44.4172222 28.6654074,43.282037 C29.4294815,41.7616667 29.5005926,40.1094444 28.9865185,38.8012963" id="Fill-18" fill="#E04444"></path>
                    <path d="M13.3712593,49.9825926 C13.2908889,49.9825926 13.2094074,49.9692593 13.129037,49.9414815 C7.65940741,48.0481481 8.31459259,43.1355556 8.7482963,39.8840741 C9.08533333,37.3562963 7.81792593,35.3607407 4.87348148,33.7833333 C-0.475777778,30.9177778 -0.0372592593,26.7244444 0.042,26.1951852 C0.390888889,21.1351852 5.39681481,19.797037 8.00088889,19.797037 C8.40977778,19.797037 8.74162963,20.1288889 8.74162963,20.5377778 C8.74162963,20.9466667 8.41051852,21.2777778 8.002,21.2785185 C7.75051852,21.2792593 1.8382963,21.3559259 1.51792593,26.3262963 L1.50755556,26.4107407 C1.48385185,26.5518519 0.964962963,30.0088889 5.57274074,32.4774074 C9.07644444,34.3548148 10.639037,36.9125926 10.2164444,40.0803704 C9.69051852,44.0259259 9.60644444,47.1544444 13.6134815,48.5414815 C14.0001481,48.6755556 14.204963,49.097037 14.0712593,49.4837037 C13.9653333,49.79 13.6782963,49.9825926 13.3712593,49.9825926" id="Fill-20" fill="#2D313A"></path>
                    <path d="M13.2786667,14.3340741 C11.7979259,14.3340741 10.5934815,15.5385185 10.5934815,17.0192593 C10.5934815,18.5 11.7979259,19.7044444 13.2786667,19.7044444 C14.7594074,19.7044444 15.9638519,18.5 15.9638519,17.0192593 C15.9638519,15.5385185 14.7594074,14.3340741 13.2786667,14.3340741 M13.2786667,21.1859259 C10.9812593,21.1859259 9.112,19.3166667 9.112,17.0192593 C9.112,14.7218519 10.9812593,12.8525926 13.2786667,12.8525926 C15.5760741,12.8525926 17.4453333,14.7218519 17.4453333,17.0192593 C17.4453333,19.3166667 15.5760741,21.1859259 13.2786667,21.1859259" id="Fill-22" fill="#2D313A"></path>
                    <path d="M28.9268148,11.8340741 C28.9268148,12.55 28.3464444,13.1303704 27.6305185,13.1303704 C26.9145926,13.1303704 26.3342222,12.55 26.3342222,11.8340741 C26.3342222,11.1181481 26.9145926,10.5377778 27.6305185,10.5377778 C28.3464444,10.5377778 28.9268148,11.1181481 28.9268148,11.8340741" id="Fill-24" fill="#2D313A"></path>
                    <path d="M49.357963,12.7042963 C49.2812963,12.7042963 49.2035185,12.6920741 49.1264815,12.6668889 C48.737963,12.5391111 48.5264815,12.1205926 48.6542593,11.7317037 C49.8231481,8.17651852 47.1812963,6.74577778 47.0683333,6.68651852 C46.7075926,6.49762963 46.5646296,6.0517037 46.7512963,5.68985185 C46.9383333,5.328 47.3812963,5.18318519 47.7431481,5.36762963 C49.0953704,6.05466667 51.3205556,8.36540741 50.0616667,12.1946667 C49.9590741,12.5065185 49.6694444,12.7042963 49.357963,12.7042963" id="Fill-26" fill="#2D313A"></path>
                </g>
            </g>
        </g>
    </g>
</svg>