<?xml version="1.0" encoding="UTF-8"?>
<svg width="255px" height="70px" viewBox="0 0 255 70" version="1.1" xmlns="http://www.w3.org/2000/svg" xmlns:xlink="http://www.w3.org/1999/xlink">
    <!-- Generator: Sketch 41.2 (35397) - http://www.bohemiancoding.com/sketch -->
    <title>nav_award_act</title>
    <desc>Created with Sketch.</desc>
    <defs>
        <polygon id="path-1" points="0.339571692 34.3533949 30.7207061 34.3533949 30.7207061 0.113019161 0.339571692 0.113019161 0.339571692 34.3533949"></polygon>
        <polygon id="path-3" points="11.6903 0.256 0.0828697416 0.256 0.0828697416 12.8396 11.6903 12.8396 11.6903 0.256"></polygon>
    </defs>
    <g id="Page-1" stroke="none" stroke-width="1" fill="none" fill-rule="evenodd">
        <g id="Artboard-2" transform="translate(-607.000000, -458.000000)">
            <g id="nav_award_act" transform="translate(609.000000, 459.000000)">
                <g id="Page-1" transform="translate(78.000000, 9.000000)">
                    <path d="M102.8139,24.9399434 C102.710109,25.3057705 102.67137,25.3671681 102.680507,25.42016 C103.445052,29.95627 103.44688,29.9686957 107.945713,29.2673748 C108.625471,29.1613909 109.671788,29.0616199 109.872792,28.6380498 C110.704948,26.8849303 111.277626,25.0082847 112.078718,22.8122257 C108.622547,23.6060084 105.697758,24.2777269 102.8139,24.9399434 M95.910695,7.90833423 C96.5118794,7.22053541 97.053859,6.46768442 97.7255775,5.85736347 C99.6033195,4.15211942 101.541363,2.51338939 103.441763,0.833362195 C104.534493,-0.132187478 106.587657,0.447434695 107.254625,1.96775515 C107.466958,2.45162637 107.534568,2.99908792 107.755307,3.85317179 C108.848037,3.4062122 110.048579,3.19899544 110.855153,2.52216047 C112.201513,1.39178759 113.15281,2.12015266 114.038324,2.91978274 C115.13215,3.90726011 115.057962,5.09391408 113.990814,6.10295369 C112.178855,7.81514151 110.24739,9.40636153 108.501214,11.1810433 C106.771119,12.9381829 105.276381,14.9270252 103.546651,16.6845302 C102.384483,17.8657023 100.99317,18.8213845 99.7045524,19.8775687 C99.7352511,20.0581067 99.7659499,20.2382793 99.7970142,20.4188174 C100.612359,20.5251667 101.447804,20.8010902 102.240125,20.7089939 C105.679119,20.3088134 109.102033,19.7745085 112.537373,19.3407055 C115.451929,18.9723202 117.723639,21.8868768 116.591073,24.5072368 C115.988792,25.9003766 115.334616,27.2704923 114.721737,28.6588811 C114.555086,29.0356721 114.325576,29.4468164 114.343119,29.832013 C114.462259,32.4341 114.38734,32.5890557 111.870771,32.8887342 C109.637434,33.1551558 107.396058,33.3671235 105.153951,33.5472961 C101.643326,33.8290671 101.410527,33.8403964 100.036757,30.3378119 C99.0299102,27.7704439 98.550059,24.99659 97.811461,22.2274871 C96.5074939,23.509892 95.0292015,25.0389835 93.4675839,26.4774406 C91.8902514,27.9301506 90.2295937,29.2929571 88.3511208,30.4529324 C91.4491392,24.8237266 96.1646908,20.4893515 100.255303,15.1495913 C99.6577733,14.6905715 98.9001713,14.309395 98.4444406,13.7016323 C98.0004047,13.1095844 97.4470958,12.0194123 97.6959751,11.6283683 C98.0406055,11.0871196 99.1333358,10.6876701 99.8291748,10.7830556 C100.863066,10.9241238 101.830077,11.5519869 103.054008,12.0694806 C104.681044,10.1932005 106.452802,8.15026984 108.242102,6.08687338 C107.339777,5.68925111 106.576693,5.35229547 105.41818,4.84138009 C102.708282,5.98162043 99.5419219,7.31409359 96.3755622,8.64656676 C96.2206065,8.40061107 96.0656507,8.15428992 95.910695,7.90833423" id="Fill-1" fill="#000000"></path>
                    <g id="Group-5" transform="translate(129.738885, 1.532015)">
                        <mask id="mask-2" fill="white">
                            <use xlink:href="#path-1"></use>
                        </mask>
                        <g id="Clip-4"></g>
                        <path d="M10.3767353,3.08752964 C6.99219498,3.06962202 5.8808261,4.29318761 7.04226322,6.75859189 C9.71853887,6.3448893 10.3887955,5.6073877 10.3767353,3.08752964 M13.205043,12.0639986 C8.44636687,11.8681112 8.21137503,15.0618805 10.1041009,19.064051 C13.4502678,18.7983604 13.4502678,18.7983604 13.2152759,17.0883654 C12.9908825,17.0660722 12.7211718,17.1081003 12.5252843,17.0072329 C11.7446582,16.6063214 10.5240163,16.3157794 10.3167996,15.6985147 C9.88299661,14.4088006 11.1102168,14.1964673 12.1071962,14.0513791 C13.3790027,13.8664555 13.3512276,13.013468 13.205043,12.0639986 M16.6973945,12.5734522 C17.7301891,13.1293193 18.3514739,13.4633513 18.9727587,13.7973832 C18.5791565,14.4797001 18.3474538,15.4587719 17.7568678,15.781109 C16.6100492,16.4082412 16.5833705,17.0869035 16.9674706,18.0864411 C20.0823003,17.4012005 22.1555642,13.5024557 21.0854925,10.0663853 C19.894453,11.4730471 17.3314705,10.4004172 16.6973945,12.5734522 M13.2675369,23.576406 C13.2251434,22.8392699 13.1915209,22.2505111 13.1308543,21.1906724 C12.013638,21.8148809 11.0594177,22.209214 10.2755024,22.8213622 C9.33005314,23.5595948 8.65906555,23.3107154 8.19821841,22.418258 C6.33546039,18.8071315 5.11920403,15.0326436 5.49526407,10.883923 C5.53290662,10.4676622 5.46712352,9.95674677 5.25077022,9.61613651 C3.8835782,7.46466379 3.54004425,5.07417916 3.69865461,2.62375881 C3.82218064,0.706181542 4.43981083,0.448896542 6.27333191,0.966390235 C6.87670909,1.13669536 7.60215047,0.987952472 8.24828666,0.86333005 C9.13928216,0.690832153 9.9973861,0.345470896 10.8891125,0.178820384 C12.0797866,-0.0441112209 13.110023,0.271282181 13.4542878,1.55916903 C13.5800066,2.02915271 13.5164163,2.79662217 13.2127177,3.09228064 C11.8524694,4.41378996 13.2616895,7.20408964 10.6058797,7.82354713 C9.55590843,8.06840644 8.57245114,8.59796036 7.53344368,9.46775908 C8.47998934,9.51782733 9.43165147,9.65560637 10.3719843,9.60188351 C13.7506772,9.4085543 17.1271774,9.16479138 20.5011193,8.90312084 C21.0200749,8.86292006 21.5382995,8.66520531 22.0327691,8.47735802 C23.8604428,7.78298089 25.3953817,8.61915714 25.3412934,10.5177304 C25.2331167,14.3276681 23.7683465,17.6760277 20.9067818,20.1703034 C19.9825292,20.9761464 18.3456265,20.9640861 16.8695269,21.3715759 L16.8695269,23.2610126 C19.531915,23.0841292 22.1752991,22.9116313 24.8183178,22.7318241 C25.788253,22.666041 26.8104492,22.3590532 27.7120431,22.5713865 C28.6260627,22.7866434 29.6504517,23.3264302 30.2183791,24.0463897 C31.2738323,25.3847102 30.5933427,26.5527257 28.8606891,26.5125249 C27.284453,26.4759787 25.7144297,26.1788584 24.1378282,26.1328102 C21.7769459,26.0641034 19.4127745,26.1149026 16.8227478,26.1149026 C16.9945148,29.2202302 16.4901777,31.942554 13.7970909,34.3535045 C13.61034,31.685269 13.4440549,29.3181739 13.2649787,26.7676171 C10.4447112,26.8779865 7.92594949,27.864002 5.41632435,28.9154352 C3.985542,29.5151578 2.53100464,30.0308242 1.2135154,28.636588 C-0.183644478,27.1590265 0.0867971413,25.9171878 2.07965951,25.4895977 C4.98654145,24.8657547 7.9372788,24.4454738 10.8708394,23.9447913 C11.6339234,23.814687 12.4017583,23.7087031 13.2675369,23.576406" id="Fill-3" fill="#000000" mask="url(#mask-2)"></path>
                    </g>
                    <path d="M151.273274,3.37701181 C147.805408,3.64416427 147.047806,4.44781444 147.883252,6.829528 C150.358158,6.55945184 151.107354,5.82341208 151.273274,3.37701181 M146.08847,0.456973244 C147.158176,0.519832648 148.234095,0.683194004 149.295761,0.616314523 C150.311744,0.552358734 151.3259,0.0509453537 152.317032,0.113439295 C153.116663,0.163873003 154.13959,0.579037435 154.580336,1.18424192 C154.939951,1.67834607 154.6823,2.71260253 154.523324,3.47056999 C154.322686,4.42405943 153.979517,5.35415932 153.623923,6.26525521 C153.48651,6.61719478 153.208028,7.01810621 152.886056,7.1763511 C151.071905,8.06698113 149.241673,8.93093247 147.372336,9.69511278 C147.071196,9.81827335 146.432369,9.50251449 146.143654,9.20283594 C144.930687,7.9434551 144.236675,2.53900825 145.05604,0.995298251 C145.244984,0.639704068 145.587056,0.365973294 145.859325,0.0542345085 C145.935707,0.188724395 146.012088,0.32284882 146.08847,0.456973244" id="Fill-6" fill="#000000"></path>
                    <path d="M28.796514,22.6097599 C28.796514,25.1935738 28.8878794,27.5058496 28.7705662,29.8075271 C28.6547149,32.0733893 27.8525266,33.9566132 25.3202428,34.5662032 C24.4372875,34.7789019 23.4468864,35.5935159 22.7813807,35.3570622 C22.1473048,35.1323033 21.8695539,33.8966775 21.4415983,33.1017984 C21.220494,32.690654 21.0132773,32.2722004 20.7771891,31.8128151 C24.8835161,31.427984 24.8853434,31.427984 24.9065402,27.2558739 C24.913484,25.9921075 24.9076366,24.7279756 24.9076366,23.3034061 C23.4048583,23.6396309 22.1717907,23.9155544 20.9474942,24.1892852 C21.3491365,27.0150346 20.9222773,28.7385518 19.7115029,28.7246642 C17.5307932,28.7005438 18.5398328,26.4098301 17.4500262,25.249124 C16.6624564,25.5031198 15.7784046,25.9117059 14.854883,26.0436376 C14.2160561,26.135003 13.3312734,26.0670271 12.8879685,25.6854852 C11.2185397,24.2481245 11.443664,23.0545268 13.5655344,22.4686917 C17.1317091,21.4845035 20.7519722,20.6980301 24.4924722,19.7938779 C24.4329019,19.2054847 24.3685807,18.573236 24.2856209,17.7553329 C22.802212,18.1482041 21.4807027,18.6434047 20.120089,18.802746 C19.3164388,18.8970351 18.3340779,18.640481 17.6510301,18.2011961 C17.1580224,17.8839754 17.0260907,17.0061365 16.7329905,16.3782734 C17.256697,16.1399924 17.7606686,15.8322737 18.3077647,15.6758561 C20.7600124,14.9745352 23.2429588,14.3762745 25.6783952,13.6223271 C27.2663261,13.1307812 28.7862811,13.3665039 29.1352969,14.4515596 C29.6568107,16.072382 28.4694258,16.5420002 27.2641333,16.9100201 C27.6215548,17.6932044 27.9464502,18.4054891 28.3521126,19.2942919 C29.2270278,19.1492036 30.1688225,18.8608544 31.1080589,18.8688945 C32.3919257,18.8798584 33.7587522,18.9003242 34.9161693,19.3575167 C35.414659,19.5541351 35.7983937,20.9363111 35.6251649,21.6270336 C35.5078517,22.0929972 34.3442218,22.499756 33.6151258,22.5666355 C32.0732431,22.7084346 30.5094327,22.6097599 28.796514,22.6097599" id="Fill-8" fill="#000000"></path>
                    <path d="M21.7969001,11.339544 C22.8698955,10.6733074 24.2213727,10.3118659 24.6347098,9.48299884 C25.6755446,7.39475098 26.6959135,5.17932247 26.2566286,2.0897097 C24.8269427,4.27443943 21.0849809,2.47234805 21.1039849,6.00270756 C22.3374179,6.10101675 24.1493768,5.8784506 24.3280875,6.31846643 C25.4866009,9.17564559 22.4733696,8.61612381 21.2297037,9.60981403 C21.3890449,10.0955126 21.5334023,10.5362593 21.7969001,11.339544 M17.4533885,5.64455515 C17.6514687,4.22400572 17.6777819,2.91821126 18.0710186,1.73411552 C18.239131,1.2283166 19.1546124,0.695108054 19.7601824,0.657830966 C22.1956188,0.507626229 24.6628504,0.727999602 27.0796483,0.461578061 C29.2552414,0.22183522 30.5263171,1.08322832 30.2767068,3.26247613 C29.9375583,6.22746648 29.6049882,9.32767763 27.0891503,11.3187127 C25.6897976,12.4267924 23.8752805,13.1094748 22.1473779,13.6806913 C19.5935319,14.5252732 18.9517812,14.1302091 18.3268418,11.429813 C17.8791513,9.49505907 17.7220028,7.49306016 17.4533885,5.64455515" id="Fill-10" fill="#000000"></path>
                    <path d="M8.02265064,33.7608354 C7.7390524,32.711595 7.29099642,31.7803987 7.26760687,30.838604 C7.180627,27.3272485 7.23288802,23.8126039 7.23288802,20.5292964 C5.13404177,22.2239421 2.91751688,24.0136078 0.700626525,25.8036389 C0.467096532,25.6304101 0.233566539,25.4575467 3.65461647e-05,25.2846834 C0.559558329,23.9368608 0.959738833,22.4925564 1.70820429,21.2598542 C3.9455605,17.5738081 6.27501304,13.9403884 8.68230891,10.3628843 C9.09637696,9.74744688 10.5834404,9.04283683 10.6992917,9.1707484 C11.4177893,9.96562749 11.9064116,10.9757635 12.4169615,11.9435059 C12.4991904,12.0991926 12.3478892,12.4211643 12.2364234,12.6302084 C9.44246914,17.850828 10.2296735,23.4964795 10.4485851,29.0248179 C10.5271593,31.0125638 10.5227738,32.5972055 8.02265064,33.7608354" id="Fill-12" fill="#000000"></path>
                    <path d="M5.72923261,8.70080127 C4.38871929,8.65731133 3.88036214,8.03383376 4.65440991,7.22506714 C6.5697944,5.22379915 8.60687763,3.32888051 10.7225351,1.54177305 C11.0079607,1.30056837 12.3364137,1.7299858 12.6317068,2.19704579 C13.0647788,2.88155545 13.429875,4.22462701 13.0655097,4.67706853 C12.1584339,5.80378679 10.9213462,6.77116377 9.63163209,7.45348067 C8.37882956,8.11679356 6.89651712,8.34593801 5.72923261,8.70080127" id="Fill-14" fill="#000000"></path>
                    <path d="M66.8120173,11.6776691 C66.6340375,10.7932519 66.4951621,10.1054531 66.3413027,9.34163827 C64.56589,10.2355575 63.089425,10.978541 61.1491891,11.95542 C62.984172,11.95542 64.2504966,11.9711348 65.5160903,11.945187 C65.8662026,11.9378778 66.2133911,11.8059462 66.8120173,11.6776691 M57.148115,6.84845891 C58.3687569,5.69213826 59.6146156,4.55993807 60.7998077,3.36816764 C61.3538476,2.81120409 61.9089838,2.19686306 62.2536142,1.50394777 C62.7312726,0.543880024 63.3105293,-0.361733939 64.4171471,0.14589229 C65.1254118,0.470422233 65.552271,1.40929321 66.1052145,2.07297156 C66.0200619,2.2955377 65.9352748,2.51810385 65.8501223,2.74066999 C67.4665591,2.44647336 69.0745904,2.0696824 70.7041839,1.89974274 C71.3163321,1.83615241 72.2329099,2.07077879 72.542456,2.50385084 C72.822765,2.89635665 72.6776768,3.88895049 72.3520504,4.36478155 C71.2849024,5.92091725 70.0500075,7.36156706 68.8797993,8.8468032 C68.7456749,8.62533344 68.6119159,8.40422914 68.4777915,8.18275938 C69.0614338,9.23126885 69.645076,10.2797783 70.2089833,11.292838 C71.3346052,11.4240387 72.5808294,11.4993238 73.7890456,11.7555125 C74.1303868,11.8278739 74.5985432,12.4451386 74.5744227,12.7817288 C74.5503022,13.1259936 74.0437724,13.6127885 73.6593067,13.7205997 C72.5647491,14.027953 71.4252397,14.1741376 70.1165215,14.4186315 C70.1165215,15.1546712 70.044891,15.9385865 70.1296782,16.7049595 C70.3917142,19.0727856 68.6393256,20.1329898 67.1179087,21.2757884 C66.8335796,21.489218 65.9414877,21.2184109 65.5544638,20.8993629 C64.8414481,20.3117005 64.2954484,19.5215725 63.708517,18.8487576 C64.4741592,18.5827015 65.7540058,18.5194766 66.2590738,17.8616457 C66.8372342,17.1080637 66.7279611,15.8263897 66.9450454,14.6189045 L62.7418709,14.6189045 C62.8061922,14.8264867 62.8109432,14.9584183 62.8774572,15.0391854 C63.4472119,15.7302733 64.0527819,16.3954135 64.5574844,17.1299914 C64.5965888,17.186638 63.8481234,18.0367018 63.6354247,17.9709187 C62.4692366,17.6091117 61.1660003,17.295911 60.2848723,16.5328271 C59.5886678,15.9298154 59.5788004,14.6167117 58.1410743,14.6963823 C57.8662471,14.7113663 57.5450063,13.8930976 57.1839302,13.3712184 C56.7281995,13.4307886 56.2103404,13.4987645 55.7367021,13.560893 C54.9791001,16.4560802 56.7822879,19.8486606 53.5826711,22.265824 C51.7692504,20.0112911 53.0147437,17.3722925 52.3919971,15.0848681 C49.709874,15.3297274 49.662364,15.3914904 49.2113844,18.0593604 C48.9208423,19.7777611 48.6109309,21.5078565 46.2182535,22.1536273 C46.5921207,20.2619978 46.9663535,18.3703683 47.3672649,16.3416907 C47.0935341,16.2982007 46.7759479,16.3325541 46.5669039,16.1980642 C45.9774142,15.8183496 44.9285393,15.2972013 44.9760493,14.962073 C45.0718003,14.2910854 45.6583662,13.3598891 46.2540687,13.1570579 C47.6161443,12.693287 49.1035732,12.5916887 50.5438575,12.3669298 C51.1359054,12.274468 51.7381862,12.2441347 52.4566838,12.1736006 L52.4566838,9.35223666 C51.1114195,9.62012005 49.772368,9.9293006 48.4179671,10.1430957 C47.1944015,10.3360594 46.5840806,9.79005971 46.6721568,8.4999801 C46.7635222,7.1649487 46.651691,5.79446752 46.9287109,4.50365698 C47.0540643,3.91891834 47.9044935,3.4895009 48.4256418,2.98954937 C48.8035292,3.6696735 49.3367377,4.312886 49.510332,5.04161652 C49.6503038,5.62964431 49.3561072,6.32109775 49.2534124,6.97454318 C52.3075754,7.22159525 52.5557239,7.00853111 52.5747279,4.26829968 C52.5754588,4.14660095 52.5729006,4.02453676 52.5754588,3.90283803 C52.6174869,1.90559012 53.497884,0.630859896 54.7283934,0.994128774 C56.433272,1.49736946 56.3265572,2.89160565 56.0268786,4.2862073 C55.9501317,4.64180148 55.8748466,5.0065322 55.8726538,5.36760831 C55.8591317,7.67549862 55.86571,9.98338892 55.86571,12.2349981 C58.2178212,10.9821956 60.763627,9.62560197 63.3244168,8.26133364 C63.313453,8.17654654 63.3251477,8.06434981 63.2831196,7.97810086 C63.0035415,7.405057 62.712634,6.8371296 62.4250157,6.26774035 C63.0967342,6.16870024 63.81779,5.86207792 64.4306692,6.00862804 C66.5945676,6.52539081 66.9169048,6.46326233 68.2501089,4.55153245 C64.4204363,4.65093802 60.7621652,5.22398188 57.5267332,7.64479984 C57.400649,7.37947468 57.2741992,7.11378407 57.148115,6.84845891" id="Fill-16" fill="#000000"></path>
                    <path d="M60.2269466,23.5678542 C63.8545189,23.25977 67.4798985,22.9114851 71.1118563,22.6721077 C72.0489,22.6103447 73.0959476,22.7031719 73.9240837,23.088003 C74.4064931,23.312031 74.8603965,24.3090104 74.7639146,24.8597611 C74.6758383,25.3622709 73.8721882,26.0149854 73.3075499,26.1015998 C72.1205305,26.2835997 70.8816155,26.0869813 69.6675519,26.1348568 C65.9694455,26.2810415 62.2691463,26.414435 58.5801764,26.6921858 C57.9241728,26.7415231 57.1906912,27.3463622 56.7123019,27.8883418 C54.9858611,29.8457544 53.3869664,31.9157291 51.6649111,33.8775273 C51.0936946,34.5287799 50.2966227,34.9815869 49.6029765,35.5253938 L49.0204306,35.1420246 C50.0682092,32.8224395 51.1156223,30.5028544 52.2850995,27.9128277 C51.3151643,28.157687 50.5232089,28.3491889 49.7360046,28.5578675 C48.7996918,28.8063815 47.792845,29.4148751 46.9541105,29.2328752 C46.0660387,29.0410078 45.3402319,28.1028678 44.5435255,27.4907195 C45.1041436,26.8829568 45.5704727,25.9064433 46.2429221,25.7346763 C48.5292502,25.1503031 50.9105983,24.9452791 53.2082557,24.3959903 C54.1694198,24.1661149 55.1638409,23.5908783 55.8713747,22.8965011 C56.9915146,21.796827 57.8773937,20.4596029 58.8740076,19.2327481 C59.5234329,18.433849 60.2876132,18.0102789 61.1987091,18.8190455 C62.1229616,19.6402379 62.5205839,20.6909401 61.6131426,21.687554 C61.1106329,22.2397666 60.2466815,22.4626982 59.5453606,22.8340072 L60.2269466,23.5678542 Z" id="Fill-18" fill="#000000"></path>
                    <path d="M69.2826477,33.7185149 C68.9785836,34.0470649 68.4669373,35.0732812 67.8116646,35.1748796 C67.1611428,35.275747 66.135292,34.6138959 65.6821195,33.9900529 C64.6697908,32.5954513 63.8807591,31.0327373 63.0690688,29.5021839 C62.8450408,29.0800757 62.861852,28.5296904 62.7682938,28.0381445 C63.2203699,27.9756506 63.6921809,27.7969398 64.1212328,27.8693012 C66.8819301,28.3341685 69.3422179,30.8967855 69.2826477,33.7185149" id="Fill-20" fill="#000000"></path>
                    <path d="M74.6653496,21.7826471 C73.5952779,21.1759808 72.5200897,20.7377923 71.6839134,20.0207565 C71.2650944,19.6611423 70.94495,18.4437895 71.1704398,18.2256089 C71.7007247,17.7132317 72.669929,17.2110874 73.3087559,17.3598303 C74.2479924,17.5791073 75.1514136,18.2669061 75.8794132,18.9568977 C76.2774009,19.3336886 76.5609991,20.2298006 76.3844812,20.7005152 C76.214907,21.1536876 75.3867709,21.3605389 74.6653496,21.7826471" id="Fill-22" fill="#000000"></path>
                    <path d="M61.7248277,7.45596581 C60.607246,8.42334279 59.4896643,9.39071977 58.4020504,10.3328799 C56.2966259,8.47048734 57.8604363,8.02608598 61.3418239,7.02252829 C61.46937,7.16688564 61.5972816,7.31124299 61.7248277,7.45596581" id="Fill-24" fill="#000000"></path>
                </g>
                <g id="icon_-money" transform="translate(1.000000, 0.000000)">
                    <path d="M32.3518797,34.9849624 L36.7278195,34.9849624 L36.7278195,30.6090226 L32.3518797,30.6090226 L32.3518797,34.9849624 Z M26.7774436,27.568797 C28.4639098,31.1030075 28.6567669,35.1575188 27.368797,38.8078947 C32.9518797,45.4620301 43.8981203,41.5398496 43.8981203,32.7973684 C43.8981203,23.568797 31.9131579,19.9582707 26.7774436,27.568797 L26.7774436,27.568797 Z" id="Fill-1" fill="#00A158"></path>
                    <path d="M20.8045113,20.1691729 L25.1804511,20.1691729 L25.1804511,15.7932331 L20.8045113,15.7932331 L20.8045113,20.1691729 Z M22.9928571,8.46578947 C16.9860902,8.46578947 12.4421053,14.0048872 13.6766917,19.924812 C17.5883459,19.8740602 21.2917293,21.5003759 23.893985,24.3616541 C25.9917293,21.7003759 29.0116541,19.9191729 32.4037594,19.387218 C33.2650376,13.6090226 28.7650376,8.46578947 22.9928571,8.46578947 L22.9928571,8.46578947 Z" id="Fill-3" fill="#EEA74E"></path>
                    <path d="M11.6718045,35.6902256 L16.0477444,35.6902256 L16.0477444,31.3142857 L11.6718045,31.3142857 L11.6718045,35.6902256 Z M13.8597744,24.225188 C8.73609023,24.225188 4.58270677,28.3785714 4.58270677,33.5022556 C4.58270677,38.6259398 8.73609023,42.7796992 13.8597744,42.7796992 C18.9834586,42.7796992 23.1368421,38.6259398 23.1368421,33.5022556 C23.1368421,28.3785714 18.9834586,24.225188 13.8597744,24.225188 L13.8597744,24.225188 Z" id="Fill-4" fill="#E04444"></path>
                    <polygon id="Fill-5" fill="#C6C29B" points="49.1054887 22.432594 43.6344361 21.5848496 47.0934586 17.3404887"></polygon>
                    <polygon id="Fill-6" fill="#C6C29B" points="9.7175188 4.92221805 4.58255639 6.99289474 5.38368421 1.57635338"></polygon>
                    <path d="M14.6989098,48.4781579 L13.859812,48.4781579 C12.8395113,48.4781579 12.8383835,46.933797 13.859812,46.933797 L14.6989098,46.933797 C15.7188346,46.933797 15.7199624,48.4781579 14.6989098,48.4781579 L14.6989098,48.4781579 Z M11.3143233,48.1954511 C3.15642857,46.7890602 0.203421053,40.640188 0.0816165414,40.3792857 C-0.349210526,39.4548496 1.04815789,38.802594 1.48011278,39.7255263 C1.59139098,39.9597368 4.24364662,45.4093609 11.5767293,46.6740226 C12.5778571,46.846203 12.3252256,48.3766541 11.3143233,48.1954511 L11.3143233,48.1954511 Z M38.3959023,15.1642481 L38.3959023,16.0104887 C38.3959023,16.4371805 38.0500376,16.7826692 37.6237218,16.7826692 C37.197406,16.7826692 36.8519173,16.4371805 36.8519173,16.0104887 L36.8519173,15.1642481 C36.8519173,14.7375564 37.197406,14.3916917 37.6237218,14.3916917 C38.0500376,14.3916917 38.3959023,14.7375564 38.3959023,15.1642481 L38.3959023,15.1642481 Z M29.3327444,4.68868421 C29.4143233,4.27101504 29.8139474,3.99507519 30.2342481,4.07740602 C30.4819925,4.12477444 36.3244737,5.31838346 38.1519173,12.4668797 C38.2575564,12.8800376 38.0079323,13.3007143 37.5951504,13.4059774 C37.5308647,13.4225188 37.4665789,13.4300376 37.4034211,13.4300376 C37.0590602,13.4300376 36.7451504,13.1980827 36.6556767,12.8495865 C35.078609,6.68003759 30.1511654,5.63492481 29.9421429,5.59357143 C29.5248496,5.51086466 29.2515414,5.10597744 29.3327444,4.68868421 L29.3327444,4.68868421 Z M18.2797368,1.54432331 C18.4564286,1.54432331 18.5996617,1.68793233 18.5996617,1.86424812 C18.5996617,2.04093985 18.4564286,2.18417293 18.2797368,2.18417293 C18.1034211,2.18417293 17.959812,2.04093985 17.959812,1.86424812 C17.959812,1.68793233 18.1034211,1.54432331 18.2797368,1.54432331 L18.2797368,1.54432331 Z M18.2797368,3.72853383 C19.3079323,3.72853383 20.1440226,2.89206767 20.1440226,1.86424812 C20.1440226,0.836428571 19.3079323,-3.75939849e-05 18.2797368,-3.75939849e-05 C17.2519173,-3.75939849e-05 16.4158271,0.836428571 16.4158271,1.86424812 C16.4158271,2.89206767 17.2519173,3.72853383 18.2797368,3.72853383 L18.2797368,3.72853383 Z M21.3695865,9.85409774 L22.2504135,9.85409774 C23.2703383,9.85409774 23.2714662,11.3984586 22.2504135,11.3984586 L21.3695865,11.3984586 C20.3496617,11.3984586 20.3485338,9.85409774 21.3695865,9.85409774 L21.3695865,9.85409774 Z M14.6951504,16.227406 C15.4079323,13.4255263 18.7489098,9.9093609 19.6079323,11.4728947 C19.8135714,11.8469549 19.6774812,12.3165038 19.303797,12.5217669 C16.9346241,13.8251504 16.1989098,16.5800376 16.1917669,16.6082331 C16.1019173,16.9559774 15.7880075,17.1879323 15.4443985,17.1879323 C15.3808647,17.1879323 15.3169549,17.1804135 15.2530451,17.1634962 C14.8406391,17.058609 14.591015,16.6405639 14.6951504,16.227406 L14.6951504,16.227406 Z M26.6323684,42.2492105 C26.3759774,42.0465789 26.3263534,41.990188 26.0752256,41.7477068 C25.3316165,41.0439474 26.3959023,39.9259023 27.1361278,40.6251504 C27.3560526,40.8334211 27.3665789,40.8616165 27.5906391,41.0386842 C28.3880075,41.6702632 27.4334962,42.8841729 26.6323684,42.2492105 L26.6323684,42.2492105 Z M12.7199624,21.2368045 C10.5131955,14.2853008 15.7398872,7.20635338 22.9925188,7.20635338 C29.9376316,7.20635338 35.1135714,13.7270301 33.4631955,20.5266541 C29.4714662,20.8702632 25.9669549,23.1142481 23.9680827,26.4721429 C21.4079323,22.7988346 17.1030451,20.8307895 12.7199624,21.2368045 L12.7199624,21.2368045 Z M35.0496617,20.4909398 C36.6530451,12.7796617 30.7259774,5.66199248 22.9925188,5.66199248 C14.810188,5.66199248 8.83349624,13.5623684 11.1823684,21.4796617 C5.67296992,22.7056015 1.5406391,27.6292857 1.5406391,33.502218 C1.5406391,35.8977068 2.22860902,38.2202632 3.53086466,40.2183835 C3.76394737,40.5759023 4.2425188,40.677406 4.59928571,40.4439474 C5.90078947,39.5954511 3.08462406,38.402218 3.08462406,33.502218 C3.08462406,28.0811654 7.10981203,23.5845489 12.3278571,22.8383083 C27.9545489,20.602218 28.691015,44.277406 13.859812,44.277406 C12.9135714,44.277406 11.9748496,44.1552256 11.0703383,43.9127444 C10.0831203,43.6503383 9.68650376,45.1413158 10.6718421,45.4052256 C11.7064286,45.6815414 12.778985,45.8221429 13.859812,45.8221429 C22.9492857,45.8221429 28.9609398,36.2266541 24.8917669,28.0165038 C26.6692105,24.4161278 30.3710902,22.0225188 34.5395113,22.0225188 C40.4812406,22.0225188 45.3146992,26.8556015 45.3146992,32.7969549 C45.3146992,40.9052256 36.660188,46.0849248 29.5372556,42.3431955 C28.6304887,41.8668797 27.9173308,43.2368045 28.8192105,43.7097368 C30.5703383,44.6304135 32.5485338,45.1168797 34.5395113,45.1168797 C41.3327444,45.1168797 46.8590602,39.589812 46.8590602,32.7969549 C46.8590602,26.1755263 41.6068045,20.7597368 35.0496617,20.4909398 L35.0496617,20.4909398 Z M33.1240977,34.2127444 L35.9556767,34.2127444 L35.9556767,31.3815414 L33.1240977,31.3815414 L33.1240977,34.2127444 Z M36.7278571,35.7574812 C37.1541729,35.7574812 37.4996617,35.4116165 37.4996617,34.9849248 L37.4996617,30.6093609 C37.4996617,30.1826692 37.1541729,29.8371805 36.7278571,29.8371805 L32.3519173,29.8371805 C31.9256015,29.8371805 31.5801128,30.1826692 31.5801128,30.6093609 L31.5801128,34.9849248 C31.5801128,35.4116165 31.9256015,35.7574812 32.3519173,35.7574812 L36.7278571,35.7574812 Z M12.4436466,34.9180075 L15.2756015,34.9180075 L15.2756015,32.0868045 L12.4436466,32.0868045 L12.4436466,34.9180075 Z M11.6718421,36.4627444 L16.047782,36.4627444 C16.4740977,36.4627444 16.8195865,36.1168797 16.8195865,35.690188 L16.8195865,31.3146241 C16.8195865,30.8879323 16.4740977,30.5424436 16.047782,30.5424436 L11.6718421,30.5424436 C11.2455263,30.5424436 10.9000376,30.8879323 10.9000376,31.3146241 L10.9000376,35.690188 C10.9000376,36.1168797 11.2455263,36.4627444 11.6718421,36.4627444 L11.6718421,36.4627444 Z M21.5767293,19.3969549 L24.4083083,19.3969549 L24.4083083,16.5653759 L21.5767293,16.5653759 L21.5767293,19.3969549 Z M20.8045489,20.9413158 L25.1804887,20.9413158 C25.6068045,20.9413158 25.9526692,20.5958271 25.9526692,20.1691353 L25.9526692,15.7935714 C25.9526692,15.3668797 25.6068045,15.021015 25.1804887,15.021015 L20.8045489,15.021015 C20.3782331,15.021015 20.0327444,15.3668797 20.0327444,15.7935714 L20.0327444,20.1691353 C20.0327444,20.5958271 20.3782331,20.9413158 20.8045489,20.9413158 L20.8045489,20.9413158 Z M5.99364662,42.983797 C5.21056391,42.3307895 6.1962782,41.1431955 6.98236842,41.7973308 C7.09853383,41.8939474 7.21657895,41.9879323 7.3368797,42.0792857 C7.67597744,42.3379323 7.74176692,42.8221429 7.4831203,43.1612406 C7.3312406,43.3612406 7.10116541,43.4657519 6.86845865,43.4657519 C6.52409774,43.4657519 6.27484962,43.2176316 5.99364662,42.983797 L5.99364662,42.983797 Z M5.95454887,2.99244361 L8.1793609,4.71011278 L5.54327068,5.77289474 L5.95454887,2.99244361 Z M4.58274436,7.765 C4.68011278,7.765 4.77823308,7.74620301 4.87146617,7.70898496 L10.0064286,5.63793233 C10.2631955,5.53492481 10.4447744,5.30184211 10.4827444,5.02778195 C10.5203383,4.7537218 10.4086842,4.48003759 10.1895113,4.3112406 L5.85530075,0.965 C5.63800752,0.797330827 5.34853383,0.757105263 5.09477444,0.860112782 C4.8406391,0.962744361 4.65981203,1.19206767 4.61958647,1.4631203 L3.81921053,6.88003759 C3.77860902,7.1537218 3.88763158,7.42853383 4.10492481,7.59921053 C4.24327068,7.70860902 4.41244361,7.765 4.58274436,7.765 L4.58274436,7.765 Z M45.0838722,21.027782 L46.8594361,18.8495865 L47.8921429,21.4634962 L45.0838722,21.027782 Z M49.8237218,22.1492105 L47.8113158,17.0571053 C47.7105639,16.802218 47.4823684,16.6195113 47.2116917,16.577782 C46.9402632,16.5360526 46.6677068,16.6405639 46.4951504,16.8529699 C42.7872556,21.402218 42.6989098,21.3033459 42.9131955,21.8612406 C43.0124436,22.1198872 43.2425188,22.3052256 43.5158271,22.3477068 C49.3917669,23.258609 49.3075564,23.4172556 49.7086842,22.9146241 C49.8812406,22.6988346 49.9252256,22.4063534 49.8237218,22.1492105 L49.8237218,22.1492105 Z" id="Fill-7" fill="#2D313A"></path>
                </g>
                <g id="Page-1" transform="translate(84.000000, 49.000000)">
                    <path d="M7.763,11.1883 C8.337,10.6423 8.449,10.1233 8.099,9.5913 C7.931,9.3533 7.483,9.3253 6.768,9.5073 C6.054,9.6753 5.606,9.8573 5.438,10.0533 C5.367,10.7113 5.564,11.1743 6.082,11.4403 C6.138,11.4963 6.39,11.4963 6.852,11.4123 C7.286,11.3423 7.595,11.2723 7.763,11.1883 M8.911,2.9513 C9.052,3.0913 8.743,3.2593 8.001,3.4703 C7.175,3.6523 6.754,3.8623 6.726,4.1423 C6.783,4.3523 6.446,4.6323 5.718,4.9263 C4.948,5.2493 4.429,5.4313 4.177,5.4733 C3.869,5.5153 3.841,5.4593 4.093,5.2343 C4.877,4.3803 5.97,3.5263 7.399,2.6293 C7.707,2.4613 7.917,2.2933 8.085,2.1533 C8.197,2.0133 8.323,2.0833 8.505,2.3493 C8.645,2.6153 8.785,2.8253 8.911,2.9513 M8.729,12.3093 C7.469,12.2243 6.53,12.3513 5.9,12.6593 C5.788,12.7153 5.718,12.7013 5.704,12.5883 C5.676,12.4913 5.578,12.3363 5.409,12.1403 C4.653,11.3983 4.177,10.6003 4.009,9.7033 C3.869,9.5213 3.911,9.4093 4.149,9.3813 C4.331,9.3953 5.003,9.2273 6.152,8.8913 C6.208,8.8633 6.264,8.8493 6.348,8.8203 C6.348,8.6813 6.348,8.4843 6.376,8.2463 C6.376,7.9663 6.376,7.6303 6.39,7.2243 C5.353,7.4343 4.513,7.6723 3.911,7.9103 C3.771,7.9943 3.575,7.8403 3.294,7.4343 C3.028,7.0423 3.14,6.8883 3.687,7.0003 C4.457,6.7613 5.367,6.5373 6.418,6.2853 C6.446,5.5993 6.446,5.2073 6.418,5.0663 C6.25,4.6463 6.432,4.5063 6.978,4.6603 C7.497,4.8293 7.693,4.9973 7.581,5.1923 C7.525,5.2493 7.483,5.5433 7.455,6.0613 C7.945,5.9773 8.435,5.9073 8.939,5.8513 C9.514,5.7953 9.85,5.7393 9.962,5.6693 C10.046,5.6273 10.102,5.6833 10.186,5.8373 C10.242,6.0053 10.326,6.1033 10.466,6.1453 C10.578,6.2013 10.635,6.3973 10.635,6.6913 C10.635,7.0143 10.551,7.1263 10.368,7.0273 C9.486,6.8743 8.505,6.8883 7.413,7.0563 L7.413,7.0983 C7.357,7.8123 7.343,8.3163 7.385,8.5963 C7.959,8.5263 8.477,8.5413 8.939,8.6383 C10.018,8.9893 10.438,9.2693 10.228,9.4653 C9.99,9.5913 9.71,10.0113 9.43,10.6693 C9.121,11.3283 8.968,11.8183 8.995,12.0843 C8.995,12.2523 8.897,12.3363 8.729,12.3093 M1.347,4.8983 C1.081,4.3243 0.983,3.8483 1.081,3.4563 C1.277,2.8963 1.501,2.7413 1.81,2.9933 C1.88,3.0493 1.978,3.2043 2.104,3.4563 C2.216,3.7083 2.37,3.9183 2.552,4.1003 C2.72,4.2823 2.86,4.4363 2.986,4.6043 C3.042,4.6743 3.014,4.7863 2.93,4.9263 C2.818,5.0953 2.622,5.1653 2.356,5.1233 C2.076,5.0953 1.852,5.0813 1.683,5.0663 C1.488,5.0663 1.375,5.0103 1.347,4.8983 M0.045,10.0813 C-0.068,9.1993 0.031,8.2883 0.353,7.3223 C0.577,6.4533 0.787,6.0893 1.039,6.2433 C1.263,6.4113 1.459,6.5933 1.683,6.7753 C1.866,6.9723 1.796,7.1823 1.431,7.3923 C0.913,7.7843 0.605,8.4573 0.493,9.4233 C0.353,10.3893 0.409,10.9223 0.661,11.0343 C1.123,11.0623 1.557,10.6983 1.992,9.8993 C2.412,9.1153 2.664,8.2603 2.79,7.3223 C2.846,6.9163 2.916,6.9853 3,7.5043 C2.972,8.3303 2.874,9.0733 2.706,9.7313 C2.51,10.3893 2.188,11.1043 1.74,11.8463 C1.599,12.0563 1.488,12.2943 1.404,12.5333 C1.291,12.7853 1.096,12.6873 0.801,12.2243 C0.395,11.6783 0.129,10.9643 0.045,10.0813" id="Fill-1" fill="#E61F1F"></path>
                    <path d="M17.9387,7.6444 C18.0507,7.5044 18.1487,7.2384 18.2187,6.8174 C18.3027,6.4254 18.3167,6.1874 18.2747,6.1314 C18.0647,6.0054 17.7847,5.9914 17.4907,6.0614 C17.3507,6.0894 17.2247,6.1174 17.1407,6.1454 L17.1407,6.8324 C17.6167,6.6494 17.8407,6.6354 17.8407,6.7904 C17.8127,6.9724 17.8127,7.1124 17.8547,7.2094 C17.8547,7.2934 17.6727,7.3364 17.3507,7.3084 C17.2667,7.3364 17.1967,7.3504 17.1407,7.3504 L17.1407,7.4064 C17.1117,7.6024 17.0987,7.7984 17.1267,7.9664 C17.6167,7.8264 17.8827,7.7284 17.9387,7.6444 M23.9617,8.3584 C23.6817,9.6614 23.4017,10.7824 23.1217,11.7204 C22.9537,12.0844 22.7997,12.4064 22.6307,12.6444 C22.4627,12.8974 22.3227,12.9814 22.2387,12.8694 C22.1267,12.7854 21.9307,12.6304 21.6647,12.4494 C21.4127,12.2804 21.0067,11.7764 20.4457,10.8944 C20.3057,10.6134 20.3347,10.5294 20.5437,10.6694 C21.0627,11.1884 21.5387,11.4264 21.9727,11.3704 C22.1407,11.2864 22.3937,10.6134 22.7857,9.3674 C23.1357,8.1344 23.2337,7.0984 23.0797,6.2434 C22.9677,5.9494 22.5617,5.8934 21.8467,6.0614 C21.6087,7.0984 21.2587,8.0644 20.8377,8.9604 C20.2927,10.0814 20.0537,10.7404 20.1377,10.8944 C20.1937,11.0764 20.1517,11.2724 20.0397,11.4684 C19.1437,12.2524 18.2047,12.7434 17.2807,12.9254 C17.0427,12.9954 17.0277,12.8974 17.2387,12.6444 C17.6027,12.2674 18.1907,11.6924 19.0177,10.9084 C19.8997,9.7734 20.5167,8.3584 20.8947,6.6354 C20.8947,6.5514 20.9087,6.4674 20.9507,6.3554 C20.5437,6.5094 20.2927,6.6074 20.2217,6.6494 C20.1097,6.7334 20.0257,6.7334 19.9977,6.6354 C19.9557,6.5234 19.8997,6.3694 19.8437,6.1734 C19.7597,5.9914 19.8297,5.8934 20.0537,5.8934 C20.0817,5.8934 20.4317,5.8094 21.1047,5.6134 C21.3427,4.3804 21.4967,3.3994 21.5807,2.6574 C21.5807,2.4474 21.6787,2.3914 21.8887,2.4754 C22.1127,2.5594 22.2947,2.6574 22.4907,2.7694 C22.6877,2.8814 22.7437,2.9794 22.6727,3.0494 C22.4777,3.1754 22.2677,3.9184 22.0287,5.2634 C22.0007,5.3054 21.9867,5.3474 22.0007,5.3894 C22.6877,5.2064 23.1777,5.1504 23.4717,5.2344 C23.7797,5.3054 24.0737,5.4164 24.3967,5.5714 C24.6897,5.7394 24.7467,5.9074 24.5787,6.0474 C24.4107,6.2854 24.1997,7.0704 23.9617,8.3584 M16.3697,6.3414 C15.7957,6.4534 15.3897,6.5934 15.1797,6.7484 C15.0667,6.8884 15.0957,7.1674 15.2637,7.5744 C15.3897,7.9804 15.5007,8.2324 15.6137,8.3024 C15.6417,8.3304 15.8797,8.2884 16.3697,8.1624 C16.3417,7.9804 16.3417,7.7984 16.3697,7.6024 C16.2017,7.6584 16.1037,7.7004 16.0897,7.7284 C15.9217,7.8544 15.7817,7.7984 15.6557,7.5184 C15.4877,7.2514 15.5297,7.1404 15.7957,7.1544 C15.8237,7.1544 16.0057,7.1124 16.3697,7.0144 C16.3417,6.7904 16.3417,6.5794 16.3697,6.3414 M18.6527,10.6984 C17.7427,11.1744 16.8887,11.5244 16.0617,11.7764 C15.2217,12.0144 14.6607,12.2244 14.3807,12.3784 C14.1847,12.5194 14.0027,12.4354 13.8347,12.0984 C13.6387,11.7764 13.5547,11.5804 13.6107,11.4964 C13.6387,11.4264 13.7367,11.3844 13.9187,11.3564 C14.7027,11.2164 15.5157,11.0194 16.3557,10.7684 C16.3837,10.6274 16.3977,10.4034 16.3977,10.1374 C15.6557,10.2634 15.2217,10.4174 15.0817,10.5714 C14.9977,10.6844 14.8847,10.5584 14.7727,10.1794 C14.6467,9.8294 14.6187,9.6614 14.7167,9.6894 C14.7727,9.7174 15.3187,9.6194 16.3837,9.4094 C16.3557,9.2134 16.3417,9.0174 16.3697,8.8204 C16.1737,8.8764 15.9917,8.9334 15.8377,8.9604 C15.6137,9.0024 15.4737,9.0594 15.4457,9.1154 C15.3897,9.1714 15.2917,9.1014 15.1927,8.8914 C14.6467,8.1904 14.2967,7.4344 14.1847,6.6494 C14.1287,6.4254 14.1567,6.3134 14.2967,6.2994 C14.4087,6.2994 14.5487,6.2714 14.7167,6.2014 C15.0817,6.0894 15.6137,5.9634 16.3557,5.7954 L16.3557,5.1794 C16.3277,5.1794 16.2997,5.1924 16.2857,5.1924 C15.1927,5.4454 14.5767,5.6134 14.4367,5.6974 C14.0867,5.9214 13.8767,5.9494 13.8487,5.7814 C13.7927,5.6134 13.7087,5.4454 13.5967,5.2344 C13.4707,5.0394 13.4707,4.9404 13.5967,4.9404 C13.7087,4.9404 13.8487,4.9264 14.0167,4.8984 C14.5347,4.7724 15.2917,4.6184 16.3277,4.4224 C16.2997,4.1284 16.2717,3.9044 16.2717,3.7644 C16.1317,3.8344 15.9637,3.8904 15.7817,3.9464 C15.1237,4.1424 14.6747,4.2404 14.4227,4.2404 C14.1707,4.2544 14.1567,4.1844 14.3807,4.0164 C15.2077,3.3574 16.2997,2.7274 17.6727,2.1114 C17.9527,1.9994 18.1487,1.9154 18.2747,1.8034 C18.3867,1.7054 18.4847,1.7754 18.5967,1.9854 C18.6817,2.2234 18.7657,2.4054 18.8627,2.5314 C18.9477,2.6434 18.6817,2.7554 18.0787,2.8394 C17.3647,2.9234 16.9307,3.0634 16.7907,3.2464 C17.2517,3.3864 17.4347,3.5544 17.3367,3.7224 C17.2807,3.7644 17.2517,3.9464 17.2517,4.2404 C17.7707,4.1564 18.4147,4.0444 19.1997,3.8904 C19.2837,3.8344 19.3537,4.0164 19.4097,4.3944 C19.4657,4.7864 19.3537,4.8984 19.0597,4.7724 C18.4567,4.8294 17.8267,4.8984 17.1967,5.0104 C17.1677,5.1924 17.1547,5.3894 17.1677,5.5854 C17.7427,5.4584 18.1347,5.4034 18.3167,5.4314 C19.0027,5.5154 19.4377,5.7254 19.6617,6.0334 C19.6897,6.1174 19.6197,6.2294 19.4517,6.3694 C19.2697,6.5094 18.9757,7.1824 18.6257,8.3724 C18.5967,8.4704 18.5547,8.5404 18.5127,8.5544 C18.4567,8.5824 18.3027,8.5684 18.0647,8.5124 C17.8687,8.5124 17.5607,8.5684 17.1267,8.6524 L17.1267,9.2414 C17.4067,9.1854 17.7007,9.1294 18.0367,9.0594 C18.3587,8.9754 18.5267,8.9604 18.5547,9.0314 C18.5547,9.1154 18.5547,9.2274 18.5687,9.3534 C18.5687,9.4934 18.4847,9.5774 18.3167,9.6194 C17.9667,9.7594 17.5747,9.8854 17.1547,9.9834 C17.1547,10.1934 17.1677,10.3754 17.1967,10.5164 C18.0507,10.2494 18.5967,10.1094 18.8627,10.0674 C18.9477,10.0674 18.9757,10.1514 18.9607,10.3194 C18.9337,10.4874 18.8207,10.6134 18.6527,10.6984" id="Fill-3" fill="#E61F1F"></path>
                    <path d="M33.5496,10.0394 C33.9136,9.6894 33.9556,9.3674 33.7316,9.0444 C33.5916,8.9054 33.2976,8.9054 32.8206,9.0444 C32.3306,9.1994 32.0506,9.3394 31.9666,9.4794 C31.8546,9.8154 31.9106,10.0954 32.1626,10.2774 C32.1906,10.3334 32.3866,10.3334 32.7936,10.2494 C33.1436,10.1794 33.3816,10.1234 33.5496,10.0394 M32.3446,8.5264 C33.1716,8.2604 33.8576,8.1764 34.4036,8.2884 C35.2166,8.5544 35.5526,8.7784 35.3986,8.9334 C35.2026,9.0314 35.0206,9.3254 34.8386,9.7594 C34.6136,10.2214 34.5166,10.5584 34.5296,10.7404 C34.5296,10.8794 34.4606,10.9504 34.3206,10.9504 C33.2836,10.9084 32.4996,11.0344 31.9806,11.3144 C31.8686,11.3564 31.8126,11.3424 31.8126,11.2584 C31.7846,11.1744 31.6866,11.0484 31.5606,10.8664 C31.0846,10.3474 30.8036,9.8014 30.7196,9.1994 C30.6086,9.0174 30.6506,8.9334 30.8746,8.9334 C31.0146,8.9334 31.5046,8.8074 32.3446,8.5264 M29.1096,5.1374 C29.2916,5.1794 29.4176,5.1924 29.4736,5.1644 C30.1596,4.8984 30.9166,4.6184 31.7286,4.3104 C31.8126,4.2964 31.8686,4.3104 31.9246,4.3524 C31.9526,4.4084 31.9106,4.5064 31.7986,4.6324 C31.3926,5.0104 30.9166,5.4734 30.3976,6.0334 C30.2856,6.1034 30.2016,6.2014 30.1736,6.3134 C30.1456,6.4254 30.0616,6.4534 29.9216,6.3694 C29.7676,6.2574 29.5156,6.0334 29.2076,5.6694 C28.9266,5.2904 28.8846,5.1084 29.1096,5.1374 M33.6336,6.6494 C35.0346,6.4394 36.2116,6.4954 37.1636,6.7894 C38.1156,7.0564 38.4526,7.3644 38.1576,7.7284 C38.0046,7.9524 37.8916,8.4984 37.8356,9.3814 C37.7516,10.2494 37.3876,11.4964 36.7576,13.0794 C36.7016,13.4014 36.5476,13.4714 36.2956,13.2894 C36.0566,13.1074 35.6366,12.8974 35.0346,12.6594 C34.6136,12.4494 34.3346,12.2524 34.1796,12.0564 C33.9556,11.8744 33.8856,11.7484 33.9416,11.6924 C33.9556,11.6504 34.1236,11.6924 34.4316,11.8044 C35.1886,12.0704 35.6926,12.0424 35.9036,11.7064 C36.1276,11.4264 36.3226,10.7404 36.5336,9.6054 C36.7296,8.4844 36.6736,7.8124 36.3936,7.5324 C36.0146,7.2384 35.2446,7.1824 34.1236,7.3224 C32.9756,7.4904 31.9946,7.6864 31.1966,7.8964 C30.3836,8.1204 29.9216,8.3164 29.8656,8.4564 C29.6136,9.0594 29.5996,10.2074 29.8376,11.9024 C29.8656,12.0984 29.8656,12.2244 29.8656,12.2804 C29.8376,12.3364 29.7256,12.4064 29.5436,12.4774 C29.3196,12.5334 29.1656,12.2524 29.0526,11.5944 C28.9136,10.9354 28.8006,10.2074 28.7316,9.4094 C28.5496,8.4284 28.5496,7.9244 28.7446,7.8964 C28.9416,7.8964 29.4456,7.7564 30.2856,7.4344 C30.7766,7.2384 31.4066,7.0834 32.2046,6.9154 C32.2186,6.8034 32.2336,6.4954 32.2606,5.9774 C32.2606,5.3744 32.2756,4.5764 32.3176,3.5964 C32.3446,2.6014 32.3306,2.0274 32.2886,1.8454 C32.1066,1.3544 32.3176,1.2004 32.9476,1.3824 C33.5496,1.5514 33.7876,1.7614 33.6476,1.9714 C33.5636,2.0834 33.4796,2.9234 33.4236,4.4644 C33.3956,4.7724 33.3816,5.0524 33.3956,5.3054 C34.0816,4.7864 34.8386,4.1844 35.6786,3.4844 C35.8046,3.3304 35.9456,3.3724 36.1126,3.6104 C36.2536,3.8344 36.3646,4.0444 36.4776,4.2124 C36.5616,4.3664 36.4776,4.4784 36.2536,4.5344 C35.8886,4.6884 35.5106,4.8984 35.1326,5.1374 C34.7126,5.4034 34.3346,5.5714 33.9976,5.6834 C33.7316,5.7674 33.5216,5.8234 33.3956,5.8514 C33.3816,6.2574 33.3816,6.5514 33.4376,6.6774 C33.4936,6.6774 33.5496,6.6774 33.6336,6.6494" id="Fill-5" fill="#E61F1F"></path>
                    <path d="M47.3533,8.3866 C47.3533,9.6056 47.3813,11.0066 47.4653,12.5466 C47.4373,13.0656 47.4233,13.4296 47.4233,13.5976 C47.4233,13.7516 47.2973,13.7656 47.0453,13.6116 C46.1213,13.2476 45.2943,12.7426 44.5803,12.0286 C44.3133,11.7626 44.3003,11.6926 44.5663,11.8046 C45.3083,12.1966 45.8963,12.3226 46.3453,12.1686 C46.5133,12.0706 46.5833,11.5246 46.5553,10.5296 C46.5273,9.9696 46.4993,9.2136 46.4993,8.2606 C46.3593,8.4006 46.2053,8.5686 46.0643,8.7646 C45.5463,9.3816 45.0563,9.8576 44.6223,10.1796 C44.1873,10.5296 43.9633,10.7406 43.9633,10.8516 C43.9633,10.9646 43.8943,11.0756 43.7813,11.1746 C43.6133,11.2306 43.4173,11.3146 43.2073,11.4126 C42.9833,11.5246 42.4933,11.5666 41.7363,11.5106 C41.4423,11.4826 41.4003,11.4126 41.6243,11.3146 C41.9043,11.1326 42.3803,10.8796 43.0673,10.5716 C43.7533,10.1376 44.2863,9.6616 44.6923,9.1576 C45.0703,8.6666 45.4483,8.2326 45.8273,7.8126 C45.9113,7.7146 45.9953,7.6026 46.0933,7.4906 C45.0283,7.7286 44.1873,7.9666 43.5853,8.2186 C43.4453,8.3026 43.2633,8.1626 43.0113,7.7846 C42.7313,7.3916 42.8573,7.2516 43.3753,7.3366 C44.2583,7.0836 45.2943,6.8036 46.4993,6.5096 L46.4993,5.7256 C46.4993,5.5856 46.4853,5.4726 46.4853,5.3326 C46.3453,5.3616 46.2333,5.3616 46.1903,5.3326 C45.9663,5.2486 45.6453,5.3046 45.2383,5.4876 C45.0283,5.6136 44.8883,5.5296 44.8463,5.2626 C44.7903,4.9826 44.6923,4.7306 44.5663,4.4506 C44.4123,4.2126 44.5383,4.1006 45.0003,4.1286 C45.5183,4.0726 46.0083,3.9886 46.4853,3.8766 C46.4573,2.7136 46.4433,1.9436 46.4433,1.5516 C46.3593,1.2286 46.6113,1.1446 47.1853,1.3126 C47.7313,1.4666 47.9143,1.6486 47.7313,1.8176 C47.5633,1.9706 47.4513,2.5736 47.4093,3.6106 C47.9413,3.4286 48.3763,3.3156 48.7263,3.2736 C48.9223,3.2596 49.0483,3.4286 49.1043,3.7506 C49.1323,4.0866 49.0623,4.2966 48.9083,4.3526 C48.3343,4.5766 47.8153,4.8006 47.3813,5.0106 C47.3533,5.4306 47.3393,5.8656 47.3533,6.3276 C47.8993,6.2156 48.4323,6.1316 48.9643,6.0756 C49.5663,6.0196 49.9163,5.9486 50.0423,5.8936 C50.1273,5.8516 50.1973,5.9076 50.2813,6.0616 C50.3233,6.2156 50.4073,6.3276 50.5473,6.3696 C50.6593,6.4256 50.7153,6.6216 50.7293,6.9296 C50.7293,7.2386 50.6313,7.3496 50.4493,7.2386 C49.5523,7.0836 48.5443,7.0976 47.4373,7.2516 C47.4373,7.2656 47.4513,7.2806 47.4933,7.3076 C47.7463,7.6446 48.1243,8.0506 48.6423,8.5406 C49.1323,9.0316 49.6083,9.4236 50.0423,9.6616 C50.5053,9.9836 51.0793,10.2496 51.7663,10.5016 C52.4523,10.7406 52.9003,10.9916 53.1243,11.2436 C53.2083,11.3706 53.1803,11.4546 53.0543,11.4546 C52.5923,11.5246 51.9343,11.5526 51.0793,11.5386 C50.2113,11.5386 49.7493,11.4126 49.7493,11.1746 C49.7213,10.9226 49.6653,10.7406 49.5813,10.5716 C49.4133,10.2636 49.1743,10.0256 48.8803,9.8016 C48.5723,9.5916 48.2493,9.2826 47.9143,8.8636 C47.7173,8.6386 47.5213,8.4846 47.3533,8.3866" id="Fill-7" fill="#E61F1F"></path>
                    <path d="M64.1272,11.6224 C64.6172,11.0484 64.6732,10.5434 64.2952,10.0954 C64.1552,9.8714 63.7492,9.8294 63.1042,9.9414 C62.4462,10.0674 62.0262,10.1934 61.8862,10.3614 C61.7462,10.9924 61.9142,11.4544 62.3762,11.7624 C62.4322,11.8324 62.6842,11.8464 63.1602,11.8044 C63.6372,11.7624 63.9452,11.7064 64.1272,11.6224 L64.1272,11.6224 Z M62.5442,9.2974 C63.5942,9.0174 64.4352,8.9754 65.1072,9.1294 C66.1162,9.4794 66.5222,9.7314 66.3262,9.9274 C66.0742,10.0814 65.8502,10.4744 65.6262,11.1184 C65.3872,11.7764 65.2612,12.2384 65.2902,12.4914 C65.3172,12.6594 65.2332,12.7574 65.0652,12.7854 C63.8332,12.6444 62.8802,12.7284 62.2222,13.0234 C62.0822,13.0514 62.0122,13.0234 62.0402,12.9114 C62.0402,12.8124 61.9702,12.6724 61.8442,12.4624 C61.1852,11.6924 60.7932,10.8794 60.6952,10.0114 C60.5272,9.8994 60.5272,9.8014 60.6952,9.7034 C60.8772,9.7174 61.4932,9.5774 62.5442,9.2974 L62.5442,9.2974 Z M62.6282,4.7584 C62.6002,3.3024 62.5582,2.4474 62.5162,2.1534 C62.4882,1.9714 62.5582,1.8874 62.7822,1.9014 C63.1182,1.9294 63.3982,1.9854 63.6792,2.0694 C63.9732,2.1954 64.0292,2.3494 63.8332,2.5454 C63.6792,2.6434 63.6082,2.9934 63.6372,3.5544 C63.6372,3.8624 63.6232,4.2264 63.6082,4.6324 C64.2112,4.5064 64.8552,4.3524 65.5272,4.1704 C65.8082,4.0584 66.0602,4.2824 66.3402,4.8144 C66.5922,5.3474 66.5222,5.5434 66.1442,5.4314 C65.8222,5.2904 65.3172,5.3194 64.6592,5.4874 C64.2952,5.5714 63.9312,5.6414 63.5812,5.6974 C63.5242,6.4114 63.5242,6.9304 63.6082,7.2384 C63.9592,7.1964 64.2952,7.1674 64.6452,7.1404 C64.9952,7.1124 65.2062,7.0834 65.2902,7.0564 C65.3452,7.0274 65.4012,7.0834 65.4722,7.2094 C65.5272,7.3364 65.5982,7.4344 65.6962,7.4624 C65.7802,7.5184 65.8222,7.6864 65.8222,7.9244 C65.7942,8.1904 65.7102,8.2744 65.5692,8.1764 C64.9952,8.0504 64.3092,8.0364 63.5392,8.1204 C62.6282,8.2324 61.9282,8.3864 61.4232,8.5544 C61.2972,8.6384 61.1152,8.4844 60.8912,8.1064 C60.6532,7.7424 60.7792,7.6024 61.2692,7.7144 C61.6202,7.6304 62.0402,7.5324 62.5442,7.4204 C62.5442,7.4064 62.5442,7.3784 62.5722,7.3504 C62.6002,7.1544 62.6142,6.6224 62.6142,5.7674 C62.5442,5.7674 62.4602,5.7814 62.3762,5.7814 C61.5222,5.8094 60.9612,5.9214 60.7092,6.0754 C60.5132,6.2154 60.3872,6.0754 60.3312,5.6414 C60.2472,5.2344 60.2752,5.0394 60.4432,5.0394 C61.1292,5.0104 61.8572,4.9404 62.6282,4.8144 L62.6282,4.7584 Z M59.0702,10.7264 C58.8602,10.3194 58.7762,9.9834 58.8602,9.6894 C59.0002,9.3114 59.1542,9.1994 59.3502,9.3674 C59.4062,9.4234 59.4762,9.5354 59.5742,9.6894 C59.6452,9.8714 59.7562,10.0254 59.8972,10.1514 C60.0082,10.2634 60.1062,10.3894 60.2052,10.5014 C60.2192,10.5584 60.2052,10.6424 60.1632,10.7404 C60.0792,10.8374 59.9392,10.8794 59.7712,10.8514 C59.5882,10.8374 59.4202,10.8374 59.3082,10.8374 C59.1682,10.8374 59.0842,10.7954 59.0702,10.7264 L59.0702,10.7264 Z M57.5012,11.2864 C57.3612,10.7534 57.3472,10.3474 57.4872,10.0534 C57.6832,9.7174 57.8522,9.6474 58.0052,9.8434 C58.0622,9.9134 58.1042,10.0534 58.1602,10.2494 C58.1882,10.4744 58.2582,10.6694 58.3702,10.8244 C58.4542,10.9924 58.5102,11.1604 58.5802,11.3004 C58.6082,11.3424 58.5802,11.4124 58.4962,11.4964 C58.4262,11.5804 58.2862,11.5944 58.1182,11.5384 C57.9212,11.4824 57.7812,11.4544 57.6972,11.4264 C57.5852,11.3984 57.5152,11.3564 57.5012,11.2864 L57.5012,11.2864 Z M55.7082,11.9164 C55.9322,11.2444 56.2412,10.4744 56.6752,9.6054 C56.7032,9.5634 56.7312,9.5494 56.7872,9.5494 C56.8152,9.5634 56.8292,9.5914 56.8292,9.6474 C56.7032,10.7114 56.7032,11.5244 56.8432,12.0984 C56.9832,12.4344 56.9552,12.6024 56.7592,12.6024 C56.5492,12.6304 56.2692,12.5754 55.9742,12.4204 C55.6382,12.2804 55.5122,12.1824 55.5682,12.1124 C55.6242,12.0564 55.6662,12.0004 55.7082,11.9164 L55.7082,11.9164 Z M58.5522,8.8494 C57.4312,9.1154 56.5772,9.4794 56.0022,9.8994 C55.8902,10.0534 55.7512,9.8854 55.6102,9.3954 C55.4562,8.9054 55.4422,8.6664 55.5682,8.6944 C55.6242,8.6944 55.8202,8.6524 56.1702,8.5544 C56.5352,8.1484 56.9552,7.6024 57.4452,6.9014 C57.4732,6.8594 57.5012,6.8174 57.5292,6.7614 C57.3332,6.7194 57.0812,6.7474 56.7592,6.8594 C56.3252,6.9994 56.0442,7.1254 55.9192,7.2094 C55.8352,7.3084 55.7642,7.3084 55.7222,7.1964 C55.6662,7.0834 55.5682,6.9304 55.4702,6.7054 C55.3582,6.4954 55.3582,6.3834 55.4982,6.3554 C55.9042,6.3554 56.3382,5.9354 56.8292,5.0524 C57.2912,4.1984 57.6132,3.6234 57.8102,3.3444 C57.9632,3.0784 58.1042,2.8534 58.2152,2.6854 C58.3002,2.5594 58.4262,2.5594 58.6082,2.6994 C58.7762,2.8394 58.9162,2.9934 59.0282,3.1334 C59.1262,3.2594 59.1122,3.3574 58.9862,3.3994 C58.7622,3.5964 58.3982,4.0584 57.8792,4.8004 C57.3332,5.5294 57.1792,5.9074 57.3892,5.8794 C57.7252,5.8374 57.9922,5.7954 58.2152,5.7534 C58.4822,5.3194 58.7482,4.9264 59.0142,4.6044 C59.0842,4.3944 59.2102,4.3524 59.3782,4.4784 C59.5462,4.6044 59.7142,4.7164 59.9242,4.8294 C60.0932,4.9404 60.0652,5.0664 59.8402,5.2064 C59.4902,5.4314 58.9862,5.9494 58.3282,6.7614 C57.7252,7.4484 57.3752,7.9384 57.3192,8.2324 C57.5152,8.1764 57.7392,8.1204 57.9782,8.0504 C58.1182,8.0504 58.2152,8.0224 58.2722,7.9524 C58.3002,7.5884 58.4962,7.3364 58.9162,7.2244 C59.2382,7.1124 59.5742,7.2094 59.9242,7.4904 C60.2472,7.7984 60.4292,8.0364 60.4712,8.2044 C60.5272,8.4004 60.4852,8.5124 60.3452,8.5404 C60.2052,8.5964 60.0232,8.6384 59.7712,8.6524 C59.2802,8.7084 59.0982,8.6944 59.2382,8.5824 C59.3782,8.4844 59.4622,8.3864 59.5182,8.2744 C59.6032,7.7844 59.4202,7.5184 59.0002,7.4624 C58.8042,7.4764 58.6502,7.5604 58.5522,7.7144 C58.4542,7.8544 58.4682,8.1484 58.6502,8.5824 C58.6502,8.7784 58.6082,8.8764 58.5522,8.8494 L58.5522,8.8494 Z" id="Fill-9" fill="#E61F1F"></path>
                    <path d="M75.2556,6.0194 C75.2556,6.4254 75.2556,6.8594 75.2696,7.3084 C75.5356,7.2384 75.7876,7.1824 76.0266,7.1124 C76.1376,7.0704 76.2496,6.9014 76.3896,6.6074 C76.4746,6.3274 76.4606,6.1734 76.3616,6.1314 C76.0266,6.0194 75.6616,5.9774 75.2556,6.0194 M74.4286,7.5044 L74.4286,6.1594 C74.0506,6.2714 73.6306,6.4394 73.1966,6.6494 C73.0426,6.7194 73.0146,6.9304 73.1406,7.2384 C73.2526,7.5744 73.3926,7.7284 73.5606,7.6724 C73.8546,7.6164 74.1486,7.5604 74.4286,7.5044 M75.3256,9.5214 C75.3536,10.4314 75.3816,11.4124 75.4376,12.4774 C75.4376,12.9814 75.4376,13.3174 75.4516,13.4854 C75.4516,13.6534 75.3256,13.6674 75.0736,13.5414 C74.2756,13.2614 73.5746,12.8544 72.9586,12.3224 C72.6216,12.0284 72.6086,11.9444 72.9306,12.0564 C73.5326,12.2524 73.9806,12.2674 74.2756,12.0704 C74.4436,11.9724 74.5126,11.4264 74.4846,10.4314 C74.4566,10.0114 74.4436,9.4794 74.4436,8.8494 C73.5186,9.8574 72.8036,10.5584 72.3416,10.9084 C71.7956,11.3284 71.5016,11.6224 71.4876,11.7904 C71.4596,11.9024 71.2216,12.0564 70.7736,12.2384 C70.2826,12.4354 69.7366,12.3934 69.1336,12.0984 C68.9936,12.0284 69.0076,11.9724 69.2046,11.9304 C69.8906,11.7344 70.4646,11.4824 70.9556,11.2164 C71.5856,10.8104 72.2156,10.1934 72.8746,9.3814 C73.0146,9.1714 73.1406,8.9894 73.2946,8.7924 C73.2386,8.7654 73.1966,8.7234 73.1826,8.6664 C72.5516,8.0084 72.0616,7.3504 71.7396,6.6914 C71.5716,6.4954 71.5716,6.3694 71.7396,6.3414 C71.8656,6.3134 72.0336,6.2714 72.2576,6.1874 C72.6926,6.0754 73.4206,5.8934 74.4286,5.5854 C74.4016,5.3194 74.3866,5.0524 74.4146,4.8144 C74.1766,4.8424 73.9526,4.8714 73.7706,4.8714 C73.1116,4.8844 72.4826,5.0104 71.8936,5.2774 C71.4876,5.5294 71.2766,5.5154 71.2636,5.2214 C71.2076,4.9134 71.1516,4.6604 71.0956,4.4084 C71.0106,4.1844 71.0816,4.0864 71.3186,4.1144 C71.5716,4.2544 72.1736,4.2404 73.1546,4.0444 C73.6026,3.9604 74.0086,3.8764 74.4146,3.7784 C74.3866,2.5734 74.3596,1.7894 74.3446,1.3824 C74.2606,1.0744 74.4996,1.0044 75.0736,1.1444 C75.6196,1.3124 75.8016,1.4664 75.6056,1.6214 C75.4376,1.7894 75.3396,2.4334 75.2976,3.5544 C75.3816,3.5264 75.4656,3.4984 75.5916,3.4704 C76.2496,3.2734 77.0066,3.1334 77.8466,3.0074 C78.0706,2.9514 78.1826,2.9934 78.2116,3.1204 C78.2116,3.2464 78.2806,3.3864 78.4356,3.5124 C78.5756,3.6524 78.6596,3.8764 78.7156,4.2124 C78.7436,4.5344 78.5756,4.6184 78.2536,4.4224 C77.3986,4.1704 76.5866,4.1704 75.8576,4.4364 C75.6336,4.5064 75.4236,4.5764 75.2696,4.6324 L75.2696,4.7444 C75.2416,4.9404 75.2276,5.1504 75.2556,5.3744 C76.0116,5.2074 76.6286,5.2074 77.1326,5.3614 C78.0856,5.6974 78.3936,6.0194 78.0706,6.2854 C77.5806,6.7334 77.2586,7.2664 77.1466,7.8684 C77.1326,8.0784 77.0486,8.1624 76.9226,8.1344 C76.7826,8.1064 76.6426,8.1064 76.5446,8.1064 C76.2356,8.0784 75.9556,8.0924 75.6756,8.1204 C75.7036,8.1484 75.7316,8.1904 75.7596,8.2184 C76.0266,8.5264 76.4316,8.9184 76.9646,9.3534 C77.4826,9.7874 77.9586,10.1374 78.4216,10.3474 C78.8836,10.6004 79.4716,10.7954 80.1446,10.9504 C80.8026,11.1184 81.2366,11.3144 81.4886,11.5104 C81.6006,11.6364 81.5866,11.7204 81.4466,11.7484 C81.0126,11.8604 80.3816,11.9444 79.5836,12.0144 C78.7716,12.0984 78.3226,12.0284 78.2956,11.8184 C78.2536,11.5944 78.1696,11.4124 78.0706,11.2724 C77.8746,11.0064 77.6366,10.7954 77.3286,10.6564 C77.0346,10.5164 76.6846,10.2774 76.3346,9.9274 C75.9976,9.6334 75.6616,9.5074 75.3256,9.5214" id="Fill-11" fill="#E61F1F"></path>
                    <path d="M88.2048,7.4759 C88.2048,7.2379 88.2748,7.0279 88.4568,6.8459 C88.6248,6.6779 88.8208,6.6079 89.0738,6.6079 C89.2978,6.6079 89.4938,6.6779 89.6898,6.8459 C89.8578,7.0139 89.9418,7.2519 89.9558,7.5879 C89.9558,8.1349 89.8018,8.6249 89.5218,9.0449 C89.2268,9.4509 88.8078,9.7309 88.3028,9.9139 L88.2048,9.8299 C88.7238,9.4089 88.9898,8.9189 89.0448,8.3589 C88.8208,8.3589 88.6248,8.2749 88.4568,8.1059 C88.2888,7.9379 88.2048,7.7419 88.2048,7.4759" id="Fill-13" fill="#E61F1F"></path>
                    <path d="M103.1853,6.9857 C103.5633,6.2717 103.8303,5.6127 103.9563,4.9967 C104.0963,4.3947 104.2223,3.8347 104.3623,3.3017 C104.4743,2.7837 104.5163,2.4477 104.5023,2.2787 C104.4463,2.0837 104.6423,2.0837 105.1183,2.2517 C105.5523,2.4197 105.7213,2.5597 105.6503,2.6857 C105.5103,2.8817 105.3283,3.3577 105.1323,4.1007 C104.9083,4.8147 104.6843,5.4027 104.4883,5.8517 C104.7543,5.8517 105.0763,5.7807 105.4553,5.6407 C105.9453,5.4587 106.5613,5.2627 107.3173,5.0667 C107.4573,5.0387 107.5273,5.1787 107.5833,5.4587 C107.6123,5.7387 107.5693,5.9067 107.4723,5.9637 C107.1493,6.1317 106.7573,6.2997 106.3093,6.4677 C106.2113,6.8457 106.1553,7.2657 106.1553,7.7147 C106.1273,8.3447 105.9733,8.9747 105.7213,9.5637 C105.6793,9.6897 105.6233,9.8017 105.5663,9.8997 C105.8053,10.1377 106.0153,10.3477 106.1973,10.5577 C106.4073,10.7957 106.8833,11.0897 107.6403,11.4127 C108.2423,11.7627 108.6903,12.0287 109.0123,12.2527 C109.3343,12.4767 109.4893,12.6167 109.4753,12.6867 C109.4473,12.7707 109.3203,12.8127 109.1103,12.8127 C108.0883,12.8827 107.1353,12.7987 106.2533,12.5887 C106.1133,12.5887 106.0423,12.3787 106.0573,11.9167 C106.0573,11.4827 105.8323,11.1597 105.4133,10.9077 C105.2723,10.8517 105.1603,10.7817 105.0903,10.7117 C104.9223,10.9077 104.7683,11.1047 104.6283,11.2857 C104.4743,11.4127 104.4043,11.5527 104.4463,11.6787 C104.4743,11.8187 104.2923,11.9587 103.9413,12.0987 C103.2273,12.4207 102.6673,12.5467 102.2473,12.5187 C101.7003,12.4487 101.6583,12.3227 102.1483,12.1407 C103.0453,11.7347 103.7043,11.2857 104.1103,10.7677 C104.2493,10.5857 104.3763,10.3897 104.5163,10.1657 C104.4883,10.1517 104.4743,10.1517 104.4743,10.1237 C104.2493,9.8157 103.8993,9.5487 103.3953,9.2977 C103.1853,9.1567 103.1433,8.8487 103.2833,8.3587 C103.3813,7.8547 103.5213,7.7417 103.7043,7.9667 C103.8443,8.2187 104.0543,8.4847 104.3903,8.7647 C104.5443,8.9327 104.7403,9.1007 104.9643,9.2977 C105.1043,8.9187 105.1743,8.5407 105.2303,8.1767 C105.2583,7.5467 105.1883,7.1117 105.0483,6.8597 C104.9923,6.8737 104.9363,6.8877 104.9083,6.9017 C104.6563,6.9857 104.4183,6.8597 104.1803,6.5097 C104.0963,6.6777 104.0683,6.7897 104.1233,6.8457 C104.1523,6.9577 104.1383,7.0837 104.0813,7.2097 C103.9563,7.3217 103.8153,7.4757 103.6893,7.6727 C103.5213,7.8547 103.1013,8.1067 102.4293,8.4007 C102.1353,8.4987 102.0643,8.4567 102.2333,8.2607 C102.4013,7.9807 102.7233,7.5607 103.1853,6.9857 M102.2753,3.0077 C102.2193,3.2317 102.1353,3.6377 102.0223,4.2127 C102.1353,4.2127 102.2473,4.2127 102.4143,4.1847 C103.0733,4.0027 103.3813,4.0297 103.3533,4.2547 C103.2973,4.4787 103.2693,4.6607 103.2973,4.7867 C103.2973,4.9127 103.0593,4.9407 102.6113,4.8427 C102.2473,4.8847 101.9803,4.9127 101.7983,4.9407 C101.6583,5.2777 101.5183,5.5987 101.3503,5.9067 C101.1543,6.1877 101.0003,6.3417 100.8743,6.3697 C100.7343,6.3977 100.7203,6.2577 100.8603,5.9357 C100.9443,5.5707 101.0143,5.2487 101.0843,4.9267 C101.0423,4.8847 101.0003,4.8147 100.9863,4.7167 C100.8463,4.3807 100.9163,4.2547 101.1823,4.2967 L101.2243,4.2827 C101.2803,3.9037 101.3223,3.5957 101.3503,3.3437 C101.3503,2.8117 101.3363,2.4757 101.3083,2.3077 C101.2243,2.0277 101.3643,1.9437 101.7143,2.0127 C102.0513,2.0967 102.2753,2.1527 102.4433,2.1817 C102.5833,2.2097 102.5833,2.3207 102.4713,2.5177 C102.3873,2.6157 102.3173,2.7837 102.2753,3.0077 M99.2073,10.1097 C99.4733,9.7317 99.4733,9.4237 99.2213,9.1717 C99.1373,9.0867 98.9553,9.1147 98.7033,9.2407 C98.4223,9.3667 98.2543,9.4797 98.2123,9.5637 C98.0863,9.8997 98.1283,10.1657 98.3803,10.3757 C98.4093,10.4037 98.5353,10.3757 98.7593,10.2917 C98.9833,10.2217 99.1233,10.1517 99.2073,10.1097 M97.7783,4.9127 C97.8343,4.9127 98.2543,4.8987 99.0673,4.8427 C99.1233,4.8147 99.1793,4.8007 99.2353,4.7727 C98.9273,3.6797 98.8293,3.0917 98.9553,2.9937 C99.0673,2.9377 99.3053,2.9797 99.7113,3.0917 C100.0893,3.2037 100.2293,3.3017 100.1183,3.3717 C99.9493,3.5117 99.9073,3.9457 100.0053,4.6607 C100.0893,5.4027 100.1603,5.8377 100.2153,5.9637 C100.2713,6.1177 100.1873,6.2297 99.9773,6.2577 C99.7393,6.3137 99.5993,6.2437 99.5853,6.0477 C99.5013,5.7957 99.4313,5.5707 99.3753,5.3607 L99.2913,5.3607 C98.6043,5.5987 98.2413,5.7537 98.2123,5.7957 C98.0023,5.9917 97.7783,5.8797 97.5683,5.4727 C97.3583,5.0667 97.4283,4.8987 97.7783,4.9127 M97.9603,10.7957 C97.5683,10.3337 97.3583,9.8577 97.3163,9.3397 C97.2323,9.2137 97.2603,9.1427 97.4143,9.1427 C97.4983,9.1427 97.8063,9.0307 98.3673,8.8207 C98.8853,8.6107 99.3193,8.5267 99.7113,8.5827 C100.3133,8.7927 100.5523,8.9607 100.4543,9.0587 C100.3133,9.1567 100.1733,9.4087 100.0613,9.7877 C99.9213,10.1797 99.8653,10.4597 99.8933,10.6137 C99.8933,10.7257 99.8523,10.7677 99.7673,10.7677 C99.0813,10.7957 98.5773,10.9227 98.2543,11.1177 C98.1703,11.1597 98.1283,11.1467 98.1283,11.0757 C98.1143,11.0197 98.0443,10.9357 97.9603,10.7957 M101.9663,9.3397 C101.7983,10.3757 101.6163,11.2727 101.4343,11.9867 C101.3223,12.3227 101.2103,12.6027 101.1123,12.8267 C101.0143,13.0657 100.9023,13.1347 100.8183,13.0657 C100.7063,12.9947 100.5103,12.8977 100.2713,12.7707 C100.0193,12.6727 99.5573,12.3227 98.8853,11.6927 C98.7033,11.4967 98.7033,11.4407 98.9133,11.4967 C99.5153,11.8187 99.9923,11.9027 100.3843,11.7487 C100.5103,11.6647 100.6923,11.1467 100.9303,10.1657 C101.1403,9.2137 101.1683,8.4147 101.0283,7.7707 C100.8883,7.4207 100.2713,7.4477 99.1933,7.8397 C98.8573,7.9387 98.6613,8.0087 98.5913,8.0647 C98.3943,8.2467 98.2123,8.4007 98.0863,8.5127 C97.8063,8.7087 97.5823,8.8487 97.4563,8.9047 C97.0643,9.0587 96.9943,8.9887 97.2603,8.6667 C97.8343,7.9667 98.4513,7.1397 99.1093,6.1597 C99.1933,6.0337 99.3053,6.0337 99.4733,6.1597 C99.6413,6.2997 99.7813,6.4257 99.8793,6.5377 C99.9923,6.6497 99.9493,6.7477 99.7813,6.8317 C99.6413,6.9297 99.5153,7.0417 99.4033,7.1677 C99.5433,7.1397 99.7113,7.0977 99.9073,7.0417 C100.6223,6.8457 101.0983,6.7897 101.3783,6.8457 C101.6163,6.9017 101.8963,6.9997 102.2053,7.1117 C102.4713,7.2377 102.5273,7.3787 102.3593,7.5187 C102.2473,7.7147 102.1213,8.3307 101.9663,9.3397" id="Fill-15" fill="#E61F1F"></path>
                    <g id="Group-19" transform="translate(111.000000, 0.743900)">
                        <mask id="mask-4" fill="white">
                            <use xlink:href="#path-3"></use>
                        </mask>
                        <g id="Clip-18"></g>
                        <path d="M5.6673,11.2706 C5.6673,9.9396 5.7513,8.5116 5.9333,6.9846 C5.9613,6.6056 6.0873,6.4526 6.3113,6.4946 C6.3813,6.5496 6.7733,6.4946 7.4883,6.2706 C8.1603,6.0736 8.7213,6.0176 9.1973,6.1016 C9.8553,6.1996 10.1353,6.3686 10.0653,6.6056 C9.9253,6.8866 9.8833,7.7826 9.9393,9.2956 C9.9673,10.8086 10.0093,11.7746 10.0793,12.1956 C10.1353,12.5876 10.0793,12.8116 9.9393,12.8396 C9.6453,12.6996 9.2253,12.5036 8.6793,12.2376 C8.1043,11.9996 7.6563,11.6906 7.3623,11.2846 C7.1103,10.9766 7.0963,10.8646 7.3203,10.9626 C8.0343,11.4806 8.5663,11.6626 8.9453,11.4666 C9.0573,10.9766 9.0573,10.1226 8.9733,8.9036 C8.8613,7.6986 8.7493,7.0266 8.6503,6.8586 C8.5393,6.7186 8.3143,6.6896 8.0063,6.7746 C7.6703,6.8586 7.4043,6.9286 7.1803,6.9706 C6.9563,7.0266 6.8443,7.0966 6.8153,7.1946 C6.7313,7.3206 6.6473,7.5446 6.5913,7.8526 C6.6203,7.8526 6.6623,7.8526 6.7173,7.8386 C7.1243,7.7546 7.5443,7.6566 7.9643,7.5586 C8.0763,7.5306 8.1323,7.6426 8.1883,7.8526 C8.2163,8.0906 8.1883,8.2166 8.1183,8.2456 C7.7263,8.3006 7.3203,8.4136 6.9143,8.5536 C6.7463,8.5956 6.5913,8.6656 6.4653,8.7636 C6.4383,8.9036 6.4093,9.0716 6.4093,9.2396 C6.4933,9.2956 6.5913,9.3096 6.7043,9.2536 C7.1103,9.1556 7.5303,9.0436 7.9503,8.9176 C8.0623,8.8896 8.1323,9.0016 8.1743,9.2256 C8.2023,9.4496 8.1743,9.5756 8.1183,9.6036 C7.7263,9.6876 7.3203,9.8136 6.9143,9.9546 C6.6893,10.0236 6.4933,10.1496 6.3673,10.2906 C6.3393,10.6126 6.3253,10.9766 6.3253,11.3266 C6.3533,11.8586 6.2553,12.1396 6.0313,12.1956 C5.8073,12.2506 5.6953,12.1816 5.6953,11.9996 C5.6673,11.8166 5.6533,11.5786 5.6673,11.2706 M5.6113,2.6006 C5.6953,2.6006 6.2413,2.4876 7.2783,2.2776 C7.2503,2.2636 7.2503,2.2496 7.2783,2.2356 C7.3063,1.3816 7.2923,0.8916 7.2503,0.7226 C7.0823,0.3026 7.2643,0.1626 7.8103,0.3166 C8.3283,0.4706 8.5393,0.6386 8.4263,0.8206 C8.3713,0.8916 8.3143,1.2976 8.2863,2.0676 C8.4823,2.0396 8.7073,1.9976 8.9593,1.9416 C9.6453,1.7316 9.9673,1.7456 9.9393,1.9556 C9.9113,2.2076 9.8973,2.3896 9.9253,2.5296 C9.9253,2.6696 9.6873,2.7116 9.2113,2.6276 C8.8473,2.6846 8.5393,2.7536 8.2583,2.8106 L8.2583,2.9786 C8.2303,3.1746 8.2163,3.3566 8.2443,3.5106 C8.3283,3.4826 8.4403,3.4686 8.5813,3.4406 C9.2673,3.2026 9.5893,3.2026 9.5613,3.4546 C9.5333,3.6926 9.5193,3.8886 9.5473,4.0146 C9.5753,4.1546 9.3233,4.1826 8.8333,4.1266 C8.6233,4.1546 8.4133,4.1966 8.2303,4.2246 C8.2303,4.5046 8.2303,4.7016 8.2583,4.7996 C8.3143,4.7996 8.3713,4.7996 8.4403,4.7706 C9.0423,4.6876 9.6173,4.6176 10.1643,4.5756 C10.6823,4.5466 11.0043,4.5046 11.1163,4.4356 C11.2003,4.4066 11.2703,4.4776 11.3263,4.6176 C11.3823,4.7566 11.4663,4.8696 11.5783,4.9256 C11.6483,4.9816 11.6903,5.1636 11.6903,5.4436 C11.6623,5.7376 11.5783,5.8356 11.4383,5.7236 C10.5563,5.5136 9.5473,5.4716 8.3983,5.5836 C7.0263,5.7376 5.9753,5.9196 5.2613,6.1716 C5.1633,6.2416 5.0083,6.1016 4.8133,5.7796 C4.6033,5.4576 4.6873,5.3456 5.1353,5.4576 C5.7373,5.3176 6.4233,5.1636 7.2223,4.9956 C7.2223,4.8546 7.2223,4.6876 7.2503,4.4356 C6.7313,4.5616 6.4513,4.6596 6.4233,4.7146 C6.2413,4.8546 6.0453,4.7566 5.8773,4.4066 C5.7233,4.0706 5.7793,3.9166 6.0733,3.9446 C6.1293,3.9446 6.5213,3.8746 7.2643,3.7066 C7.2363,3.4966 7.2363,3.2586 7.2643,3.0066 C6.4383,3.2026 6.0033,3.3426 5.9613,3.4126 C5.7513,3.5666 5.5553,3.4826 5.3873,3.0906 C5.2053,2.7266 5.2613,2.5586 5.6113,2.6006 M2.4593,3.1886 C2.3193,2.6556 2.3193,2.2356 2.4733,1.9136 C2.7813,1.3956 3.0343,1.2836 3.2713,1.5916 C3.3283,1.6616 3.3973,1.8156 3.4823,2.0536 C3.5383,2.3056 3.6363,2.5156 3.8043,2.6846 C3.9163,2.8796 4.0143,3.0486 4.1123,3.2026 C4.1403,3.2866 4.0983,3.3986 4.0003,3.5246 C3.8603,3.6506 3.6503,3.6786 3.4123,3.5806 C3.1313,3.5106 2.9073,3.4546 2.7533,3.4126 C2.5573,3.3846 2.4593,3.3146 2.4593,3.1886 M2.5573,9.4636 C2.2913,9.5336 2.0953,9.6036 2.0113,9.6876 C1.9553,9.7856 1.9693,9.9676 2.0673,10.2206 C2.1513,10.4866 2.2353,10.6266 2.3053,10.6686 C2.3053,10.6966 2.4733,10.6546 2.8103,10.5566 C3.1043,10.4446 3.2713,10.3606 3.3003,10.3046 C3.3553,10.2206 3.3973,10.0516 3.4403,9.7856 C3.4543,9.5196 3.4543,9.3796 3.4263,9.3376 C3.3133,9.2816 3.1883,9.2816 3.0623,9.3236 C2.8943,9.3796 2.7253,9.4216 2.5573,9.4636 M1.4223,8.2166 C1.3113,7.9086 1.3383,7.7546 1.5073,7.7406 C1.7453,7.6846 2.0253,7.6146 2.3193,7.4886 C2.5993,7.3766 3.1313,7.2226 3.9583,7.0406 C4.1123,6.9706 4.2103,7.0686 4.2383,7.3346 C4.2663,7.6146 4.1543,7.7686 3.9303,7.8106 C3.5383,7.9786 3.1183,8.1046 2.6833,8.1616 C2.2213,8.2306 1.8993,8.3296 1.7313,8.4976 C1.6053,8.6096 1.4933,8.5116 1.4223,8.2166 M1.3673,6.9006 C1.2543,6.5786 1.2833,6.4236 1.4513,6.4106 C1.7173,6.3536 2.0113,6.2706 2.3053,6.1446 C2.6133,6.0176 3.1733,5.8636 4.0003,5.6676 C4.1543,5.6116 4.2523,5.7236 4.2943,5.9616 C4.3223,6.2416 4.2103,6.4106 3.9863,6.4526 C3.5663,6.6056 3.1313,6.7316 2.6833,6.8166 C2.2213,6.9006 1.8853,7.0406 1.7033,7.1946 C1.5773,7.3206 1.4513,7.2226 1.3673,6.9006 M4.7423,9.4076 C4.6163,9.5336 4.4063,10.1226 4.1263,11.1586 C4.1263,11.3126 4.0843,11.4106 4.0423,11.4526 C3.9583,11.4946 3.7343,11.5086 3.3973,11.4946 C3.2863,11.4946 3.0343,11.5226 2.6693,11.5506 C2.3893,11.5786 2.2213,11.6346 2.1653,11.6906 C2.0813,11.7476 1.9833,11.6486 1.8713,11.3546 C1.4373,10.7946 1.1563,10.1916 1.0593,9.5476 C1.0023,9.3376 1.0303,9.2256 1.1433,9.1976 C1.2273,9.1976 1.3673,9.1696 1.5633,9.0996 C1.7453,9.0296 2.0393,8.9316 2.4453,8.8196 C2.9633,8.6236 3.3003,8.5396 3.4543,8.5536 C4.1683,8.6096 4.6453,8.8056 4.9113,9.0996 C4.9383,9.1836 4.8823,9.2956 4.7423,9.4076 M0.1203,5.2336 C0.0363,5.0516 0.0923,4.9676 0.3023,4.9676 C0.4423,5.0376 0.7923,4.9956 1.3673,4.8546 C1.9133,4.7286 2.3753,4.5756 2.7813,4.4066 C3.1603,4.2526 3.5943,4.1406 4.0843,4.0286 C4.2523,3.9726 4.3503,4.0006 4.3923,4.1126 C4.3923,4.2106 4.4623,4.3226 4.6163,4.4206 C4.7143,4.5336 4.7983,4.7286 4.8823,4.9816 C4.9383,5.2616 4.8133,5.3176 4.5183,5.1916 C4.0003,5.0656 3.5103,5.0936 3.1043,5.2896 C2.6693,5.4716 2.2773,5.5836 1.9133,5.5976 C1.5353,5.6256 1.1563,5.7236 0.8343,5.8916 C0.5123,6.1296 0.3303,6.1296 0.3023,5.8916 C0.2463,5.6396 0.1763,5.4156 0.1203,5.2336" id="Fill-17" fill="#E61F1F" mask="url(#mask-4)"></path>
                    </g>
                    <path d="M131.1716,11.3983 C131.9136,10.3763 132.3196,8.9753 132.4186,7.1963 C132.5026,5.4173 132.4746,4.3103 132.3346,3.8343 C132.1096,3.3993 132.1376,3.2043 132.4456,3.2313 C132.5716,3.2733 132.8106,3.2593 133.1326,3.1753 C133.4686,3.1063 133.8466,2.9933 134.3096,2.8393 C134.7856,2.6853 135.3456,2.6573 136.0316,2.7693 C136.4656,2.9093 136.5786,3.0493 136.3686,3.1753 C136.2556,3.3443 136.1576,3.9883 136.0886,5.0953 C136.0176,6.2713 136.0606,8.3303 136.2286,11.2303 C136.1996,11.8043 136.1996,12.3363 136.2416,12.7993 C136.2416,13.2893 136.1716,13.4993 136.0466,13.4013 C135.8786,13.3173 135.6676,13.2473 135.4576,13.1773 C134.5756,12.7293 133.9166,12.2523 133.4966,11.7343 C133.3286,11.5803 133.2726,11.4823 133.3426,11.4263 C133.3706,11.3843 133.4966,11.4263 133.7206,11.5663 C134.1966,11.8043 134.6306,11.9023 135.0656,11.8743 C135.2336,11.6503 135.2756,10.8943 135.2056,9.6053 C135.1216,8.3303 135.0936,6.9853 135.1356,5.5853 C135.1636,4.2123 135.0936,3.4983 134.9256,3.4413 C134.4356,3.3303 133.9026,3.4563 133.3566,3.7923 C133.2726,3.9323 133.2446,4.4223 133.2866,5.2773 C133.3706,5.3053 133.4686,5.3053 133.5806,5.2633 C133.7626,5.2073 133.9726,5.1503 134.2116,5.0953 C134.3096,5.0663 134.3936,5.1793 134.4486,5.4173 C134.4776,5.6553 134.4356,5.7953 134.3516,5.8233 C134.1696,5.8793 133.9586,5.9493 133.7626,6.0333 C133.5806,6.0753 133.4126,6.1593 133.3006,6.2573 C133.2726,6.6493 133.2306,7.0003 133.2026,7.3223 L133.2306,7.3223 C133.5666,7.2383 133.9026,7.1683 134.2676,7.0703 C134.3646,7.0423 134.4486,7.1543 134.5046,7.3783 C134.5336,7.6303 134.5046,7.7703 134.4216,7.7983 C134.1276,7.8683 133.7906,7.9803 133.4406,8.0923 C133.2446,8.1483 133.0906,8.2463 132.9646,8.3583 C132.7966,8.9333 132.6846,9.3673 132.6426,9.6473 C132.5586,10.0113 132.5716,10.2503 132.7126,10.3893 C132.7966,10.5293 132.6136,10.8243 132.1936,11.3003 C131.6196,11.9723 131.1716,12.4203 130.8356,12.6033 C130.5126,12.7853 130.3306,12.8693 130.3026,12.8133 C130.2756,12.7853 130.3306,12.6453 130.4996,12.4353 C130.6386,12.2103 130.8496,11.8743 131.1716,11.3983 M129.6306,9.6613 C129.5326,9.5493 129.5746,9.4933 129.7846,9.5213 C130.3026,9.6473 130.7656,9.8433 131.1576,10.0673 C131.2136,10.1093 131.1856,10.2923 131.0876,10.6563 C130.9756,11.0063 130.8626,11.2023 130.7656,11.2303 C130.6256,11.2583 130.5416,11.2303 130.5126,11.1183 C130.4566,11.0063 130.3866,10.8663 130.3026,10.6843 C130.0086,10.2353 129.7706,9.9133 129.6306,9.6613 M128.5096,7.2943 C128.7336,7.2523 128.9726,7.2103 129.2106,7.1543 C129.3226,7.1263 129.3786,7.2243 129.4066,7.4063 C129.4066,7.6023 129.3786,7.7143 129.3366,7.7283 C129.1116,7.7843 128.8886,7.8403 128.6506,7.9103 C128.5096,7.9523 128.3976,8.0083 128.2856,8.0923 C128.2856,8.3723 128.2996,8.5963 128.3556,8.7933 C128.7066,8.7093 129.1966,8.5963 129.8546,8.4573 C129.9106,8.2743 129.9386,7.8683 129.9386,7.2523 C129.9106,6.6353 129.9106,5.8513 129.9386,4.8983 C129.4206,5.0523 128.8596,5.1793 128.2856,5.2633 L128.2856,6.0473 C128.3416,6.0613 128.4116,6.0613 128.5096,6.0473 C128.7336,6.0053 128.9726,5.9493 129.2106,5.8933 C129.3226,5.8653 129.3786,5.9633 129.4066,6.1453 C129.4066,6.3413 129.3786,6.4533 129.3366,6.4673 C129.1116,6.5233 128.8886,6.5933 128.6506,6.6493 C128.4826,6.7063 128.3556,6.7753 128.2716,6.8453 C128.2436,7.0003 128.2436,7.1543 128.2716,7.2803 C128.3276,7.3223 128.4116,7.3223 128.5096,7.2943 M126.6326,11.2863 C127.0676,10.8793 127.5856,10.4603 128.2016,10.0253 C128.2576,9.9973 128.2996,9.9973 128.3416,10.0113 C128.3696,10.0393 128.3696,10.0813 128.3416,10.1373 C127.8936,10.8663 127.6416,11.4683 127.5856,11.9303 C127.5856,12.2943 127.4876,12.4493 127.2916,12.3643 C127.0816,12.2943 126.8576,12.1123 126.6606,11.8463 C126.4086,11.5663 126.3246,11.4123 126.4366,11.3843 C126.4926,11.3563 126.5486,11.3283 126.6326,11.2863 M131.3676,8.9603 C130.4006,9.1013 129.3646,9.3113 128.2576,9.5773 C127.0256,9.9273 126.3386,10.1513 126.1986,10.2503 C125.8206,10.5023 125.5966,10.5443 125.5546,10.3473 C125.4846,10.1653 125.3726,9.9833 125.2596,9.7593 C125.1206,9.5633 125.1206,9.4513 125.2596,9.4373 C125.4006,9.4373 125.5256,9.4233 125.6946,9.3813 C126.1286,9.2693 126.7316,9.1293 127.5156,8.9603 L127.5156,8.1203 C127.4876,7.4203 127.4736,6.5093 127.4876,5.3613 C127.1096,5.4593 126.8286,5.5573 126.7026,5.6693 C126.5346,5.8093 126.3946,5.6693 126.2966,5.2633 C126.1846,4.8563 126.2126,4.6473 126.3806,4.6473 C126.7026,4.6183 127.0676,4.5763 127.4736,4.5203 C127.4736,3.8203 127.4456,3.3993 127.4036,3.2463 C127.2496,2.8813 127.4036,2.7553 127.8936,2.8673 C128.3696,2.9933 128.5376,3.1333 128.4536,3.3153 C128.3976,3.3863 128.3556,3.7363 128.3276,4.3663 C128.8456,4.2823 129.3786,4.1563 129.9526,4.0023 C129.9526,2.8813 129.9246,2.2093 129.8966,1.9853 C129.7286,1.6063 129.8966,1.4813 130.4006,1.6063 C130.8916,1.7473 131.0876,1.9153 130.9756,2.0693 C130.8916,2.1813 130.8206,2.7553 130.7936,3.7643 C130.8206,3.7503 130.8626,3.7363 130.9336,3.7223 C131.1296,3.6523 131.3396,3.7923 131.5776,4.1843 C131.7736,4.5903 131.7316,4.7583 131.4516,4.6603 C131.2696,4.6043 131.0316,4.6043 130.7656,4.6603 C130.7366,4.8843 130.7236,5.1083 130.7516,5.3473 C130.6946,6.9163 130.7096,7.8823 130.7936,8.2603 C130.9896,8.2323 131.2136,8.1903 131.4656,8.1343 C131.5496,8.0783 131.6196,8.2463 131.6896,8.5963 C131.7456,8.9603 131.6336,9.0733 131.3676,8.9603" id="Fill-20" fill="#E61F1F"></path>
                    <g id="Group-24" transform="translate(138.000000, 0.743900)" fill="#E61F1F">
                        <path d="M10.281,5.5558 C8.6,5.9058 7.732,6.1438 7.662,6.2558 C7.382,6.4658 7.143,6.3268 6.933,5.8638 C6.695,5.3878 6.779,5.1918 7.185,5.2478 C7.241,5.2478 7.662,5.1628 8.474,4.9948 C8.446,4.6028 8.432,4.2248 8.446,3.8748 C7.48,4.0148 6.891,4.1828 6.681,4.4068 C6.569,4.5468 6.429,4.3788 6.275,3.9028 C6.121,3.4268 6.107,3.2018 6.233,3.2438 C6.345,3.2728 7.073,3.1748 8.446,2.9358 C8.446,1.3398 8.544,0.5268 8.74,0.4428 C8.88,0.4148 9.146,0.5128 9.594,0.7228 C10.001,0.9608 10.127,1.1158 9.987,1.1708 C9.721,1.2978 9.552,1.8158 9.525,2.7258 C9.987,2.6418 10.519,2.5438 11.15,2.4318 C11.612,2.3198 11.85,2.3058 11.864,2.4038 L11.864,2.8518 C11.864,3.0348 11.738,3.1598 11.514,3.2168 C10.911,3.4268 10.239,3.5808 9.497,3.7208 C9.469,4.1688 9.469,4.5338 9.497,4.7848 C9.637,4.7568 9.777,4.7288 9.945,4.7148 C10.8,4.4068 11.206,4.4068 11.177,4.7148 C11.121,5.0098 11.108,5.2618 11.164,5.4158 C11.192,5.5838 10.884,5.6398 10.281,5.5558 M10.435,7.8108 C10.351,8.5808 10.337,9.8558 10.393,11.6068 C10.393,12.0408 10.435,12.3768 10.519,12.6578 C10.575,12.9378 10.477,13.0498 10.239,12.9798 C8.978,12.5318 7.886,11.8448 6.961,10.9068 C6.723,10.5838 6.737,10.4998 7.003,10.6128 C8.236,11.3828 9.034,11.6768 9.385,11.4808 C9.469,11.3548 9.497,10.8788 9.483,10.0238 C9.455,9.2958 9.441,8.5808 9.441,7.8948 L9.413,7.8948 C8.67,7.9788 8.012,8.0768 7.451,8.1748 C7.48,8.2308 7.522,8.3288 7.578,8.4698 C7.634,8.6798 7.718,8.8478 7.844,9.0018 C7.956,9.1698 8.026,9.3238 8.096,9.4358 C8.124,9.5198 8.082,9.6178 7.984,9.7158 C7.886,9.8278 7.718,9.8558 7.493,9.7718 C7.256,9.6878 7.059,9.6458 6.933,9.6178 C6.793,9.5898 6.723,9.5338 6.709,9.4218 C6.597,8.9598 6.597,8.6098 6.737,8.3428 L6.751,8.3288 C6.387,8.4128 6.093,8.5118 5.855,8.5958 C5.742,8.6648 5.589,8.5248 5.379,8.1888 C5.155,7.8528 5.266,7.7408 5.7,7.8388 C6.751,7.5728 7.97,7.2928 9.427,7.0128 L9.427,6.2838 C9.343,5.8778 9.567,5.7658 10.085,5.9478 C10.575,6.1438 10.785,6.3268 10.701,6.4658 C10.645,6.4938 10.603,6.6198 10.589,6.8298 C10.869,6.8028 11.135,6.7748 11.416,6.7458 C12.018,6.6898 12.368,6.6348 12.509,6.5778 C12.593,6.5498 12.648,6.6198 12.732,6.7748 C12.788,6.9428 12.872,7.0548 13.012,7.0968 C13.125,7.1668 13.167,7.3628 13.167,7.6848 C13.167,8.0208 13.069,8.1328 12.872,8.0068 C12.13,7.8388 11.318,7.7828 10.435,7.8108 M4.006,2.6978 C4.37,2.2358 4.552,1.9138 4.594,1.7598 C4.594,1.6188 4.692,1.6338 4.916,1.7738 C5.07,1.9278 5.239,2.0958 5.421,2.2638 C5.56,2.4178 5.603,2.5438 5.547,2.5998 C5.239,2.9778 4.818,3.4688 4.272,4.0148 C3.698,4.5888 3.053,5.0368 2.353,5.3458 C2.185,5.3878 2.156,5.3178 2.297,5.1628 C3.067,3.9868 3.628,3.1598 4.006,2.6978 M2.367,8.0908 C3.025,7.2928 3.656,6.3118 4.272,5.1208 C4.328,4.9818 4.398,4.8548 4.468,4.7288 C4.552,4.6028 4.776,4.6598 5.155,4.8968 C5.547,5.1498 5.616,5.3178 5.392,5.3878 C5.14,5.5838 4.874,5.8498 4.594,6.1718 C4.566,6.3118 4.552,6.4518 4.552,6.5498 C4.524,8.1748 4.496,9.4078 4.482,10.2898 C4.454,10.8088 4.454,11.2428 4.454,11.5788 C4.384,11.8308 4.09,11.8728 3.614,11.6908 C3.473,11.6068 3.459,11.5228 3.586,11.4388 C3.698,11.3548 3.754,11.2428 3.754,11.1028 L3.796,7.6568 C3.796,7.5168 3.767,7.3908 3.712,7.3068 C3.572,7.5028 3.459,7.6568 3.389,7.7408 C3.235,7.9648 3.137,8.2308 3.137,8.4968 C3.081,8.7778 2.857,9.0158 2.493,9.2118 C2.114,9.4078 1.624,9.6318 1.05,9.8558 C0.7,9.9678 0.63,9.8838 0.868,9.5898 C1.246,9.1838 1.737,8.6938 2.367,8.0908" id="Fill-22"></path>
                    </g>
                </g>
            </g>
        </g>
    </g>
</svg>