<?xml version="1.0" encoding="UTF-8"?>
<svg width="255px" height="70px" viewBox="0 0 255 70" version="1.1" xmlns="http://www.w3.org/2000/svg" xmlns:xlink="http://www.w3.org/1999/xlink">
    <!-- Generator: Sketch 41.2 (35397) - http://www.bohemiancoding.com/sketch -->
    <title>nav_award_nor</title>
    <desc>Created with Sketch.</desc>
    <defs>
        <polygon id="path-1" points="0.339571692 34.3533949 30.7207061 34.3533949 30.7207061 0.113019161 0.339571692 0.113019161 0.339571692 34.3533949"></polygon>
    </defs>
    <g id="Page-1" stroke="none" stroke-width="1" fill="none" fill-rule="evenodd">
        <g id="Artboard-2" transform="translate(-607.000000, -378.000000)">
            <g id="nav_award_nor" transform="translate(610.000000, 379.000000)">
                <g id="Page-1" transform="translate(77.000000, 9.000000)">
                    <path d="M102.8139,24.9399434 C102.710109,25.3057705 102.67137,25.3671681 102.680507,25.42016 C103.445052,29.95627 103.44688,29.9686957 107.945713,29.2673748 C108.625471,29.1613909 109.671788,29.0616199 109.872792,28.6380498 C110.704948,26.8849303 111.277626,25.0082847 112.078718,22.8122257 C108.622547,23.6060084 105.697758,24.2777269 102.8139,24.9399434 M95.910695,7.90833423 C96.5118794,7.22053541 97.053859,6.46768442 97.7255775,5.85736347 C99.6033195,4.15211942 101.541363,2.51338939 103.441763,0.833362195 C104.534493,-0.132187478 106.587657,0.447434695 107.254625,1.96775515 C107.466958,2.45162637 107.534568,2.99908792 107.755307,3.85317179 C108.848037,3.4062122 110.048579,3.19899544 110.855153,2.52216047 C112.201513,1.39178759 113.15281,2.12015266 114.038324,2.91978274 C115.13215,3.90726011 115.057962,5.09391408 113.990814,6.10295369 C112.178855,7.81514151 110.24739,9.40636153 108.501214,11.1810433 C106.771119,12.9381829 105.276381,14.9270252 103.546651,16.6845302 C102.384483,17.8657023 100.99317,18.8213845 99.7045524,19.8775687 C99.7352511,20.0581067 99.7659499,20.2382793 99.7970142,20.4188174 C100.612359,20.5251667 101.447804,20.8010902 102.240125,20.7089939 C105.679119,20.3088134 109.102033,19.7745085 112.537373,19.3407055 C115.451929,18.9723202 117.723639,21.8868768 116.591073,24.5072368 C115.988792,25.9003766 115.334616,27.2704923 114.721737,28.6588811 C114.555086,29.0356721 114.325576,29.4468164 114.343119,29.832013 C114.462259,32.4341 114.38734,32.5890557 111.870771,32.8887342 C109.637434,33.1551558 107.396058,33.3671235 105.153951,33.5472961 C101.643326,33.8290671 101.410527,33.8403964 100.036757,30.3378119 C99.0299102,27.7704439 98.550059,24.99659 97.811461,22.2274871 C96.5074939,23.509892 95.0292015,25.0389835 93.4675839,26.4774406 C91.8902514,27.9301506 90.2295937,29.2929571 88.3511208,30.4529324 C91.4491392,24.8237266 96.1646908,20.4893515 100.255303,15.1495913 C99.6577733,14.6905715 98.9001713,14.309395 98.4444406,13.7016323 C98.0004047,13.1095844 97.4470958,12.0194123 97.6959751,11.6283683 C98.0406055,11.0871196 99.1333358,10.6876701 99.8291748,10.7830556 C100.863066,10.9241238 101.830077,11.5519869 103.054008,12.0694806 C104.681044,10.1932005 106.452802,8.15026984 108.242102,6.08687338 C107.339777,5.68925111 106.576693,5.35229547 105.41818,4.84138009 C102.708282,5.98162043 99.5419219,7.31409359 96.3755622,8.64656676 C96.2206065,8.40061107 96.0656507,8.15428992 95.910695,7.90833423" id="Fill-1" fill="#000000"></path>
                    <g id="Group-5" transform="translate(129.738885, 1.532015)">
                        <mask id="mask-2" fill="white">
                            <use xlink:href="#path-1"></use>
                        </mask>
                        <g id="Clip-4"></g>
                        <path d="M10.3767353,3.08752964 C6.99219498,3.06962202 5.8808261,4.29318761 7.04226322,6.75859189 C9.71853887,6.3448893 10.3887955,5.6073877 10.3767353,3.08752964 M13.205043,12.0639986 C8.44636687,11.8681112 8.21137503,15.0618805 10.1041009,19.064051 C13.4502678,18.7983604 13.4502678,18.7983604 13.2152759,17.0883654 C12.9908825,17.0660722 12.7211718,17.1081003 12.5252843,17.0072329 C11.7446582,16.6063214 10.5240163,16.3157794 10.3167996,15.6985147 C9.88299661,14.4088006 11.1102168,14.1964673 12.1071962,14.0513791 C13.3790027,13.8664555 13.3512276,13.013468 13.205043,12.0639986 M16.6973945,12.5734522 C17.7301891,13.1293193 18.3514739,13.4633513 18.9727587,13.7973832 C18.5791565,14.4797001 18.3474538,15.4587719 17.7568678,15.781109 C16.6100492,16.4082412 16.5833705,17.0869035 16.9674706,18.0864411 C20.0823003,17.4012005 22.1555642,13.5024557 21.0854925,10.0663853 C19.894453,11.4730471 17.3314705,10.4004172 16.6973945,12.5734522 M13.2675369,23.576406 C13.2251434,22.8392699 13.1915209,22.2505111 13.1308543,21.1906724 C12.013638,21.8148809 11.0594177,22.209214 10.2755024,22.8213622 C9.33005314,23.5595948 8.65906555,23.3107154 8.19821841,22.418258 C6.33546039,18.8071315 5.11920403,15.0326436 5.49526407,10.883923 C5.53290662,10.4676622 5.46712352,9.95674677 5.25077022,9.61613651 C3.8835782,7.46466379 3.54004425,5.07417916 3.69865461,2.62375881 C3.82218064,0.706181542 4.43981083,0.448896542 6.27333191,0.966390235 C6.87670909,1.13669536 7.60215047,0.987952472 8.24828666,0.86333005 C9.13928216,0.690832153 9.9973861,0.345470896 10.8891125,0.178820384 C12.0797866,-0.0441112209 13.110023,0.271282181 13.4542878,1.55916903 C13.5800066,2.02915271 13.5164163,2.79662217 13.2127177,3.09228064 C11.8524694,4.41378996 13.2616895,7.20408964 10.6058797,7.82354713 C9.55590843,8.06840644 8.57245114,8.59796036 7.53344368,9.46775908 C8.47998934,9.51782733 9.43165147,9.65560637 10.3719843,9.60188351 C13.7506772,9.4085543 17.1271774,9.16479138 20.5011193,8.90312084 C21.0200749,8.86292006 21.5382995,8.66520531 22.0327691,8.47735802 C23.8604428,7.78298089 25.3953817,8.61915714 25.3412934,10.5177304 C25.2331167,14.3276681 23.7683465,17.6760277 20.9067818,20.1703034 C19.9825292,20.9761464 18.3456265,20.9640861 16.8695269,21.3715759 L16.8695269,23.2610126 C19.531915,23.0841292 22.1752991,22.9116313 24.8183178,22.7318241 C25.788253,22.666041 26.8104492,22.3590532 27.7120431,22.5713865 C28.6260627,22.7866434 29.6504517,23.3264302 30.2183791,24.0463897 C31.2738323,25.3847102 30.5933427,26.5527257 28.8606891,26.5125249 C27.284453,26.4759787 25.7144297,26.1788584 24.1378282,26.1328102 C21.7769459,26.0641034 19.4127745,26.1149026 16.8227478,26.1149026 C16.9945148,29.2202302 16.4901777,31.942554 13.7970909,34.3535045 C13.61034,31.685269 13.4440549,29.3181739 13.2649787,26.7676171 C10.4447112,26.8779865 7.92594949,27.864002 5.41632435,28.9154352 C3.985542,29.5151578 2.53100464,30.0308242 1.2135154,28.636588 C-0.183644478,27.1590265 0.0867971413,25.9171878 2.07965951,25.4895977 C4.98654145,24.8657547 7.9372788,24.4454738 10.8708394,23.9447913 C11.6339234,23.814687 12.4017583,23.7087031 13.2675369,23.576406" id="Fill-3" fill="#000000" mask="url(#mask-2)"></path>
                    </g>
                    <path d="M151.273274,3.37701181 C147.805408,3.64416427 147.047806,4.44781444 147.883252,6.829528 C150.358158,6.55945184 151.107354,5.82341208 151.273274,3.37701181 M146.08847,0.456973244 C147.158176,0.519832648 148.234095,0.683194004 149.295761,0.616314523 C150.311744,0.552358734 151.3259,0.0509453537 152.317032,0.113439295 C153.116663,0.163873003 154.13959,0.579037435 154.580336,1.18424192 C154.939951,1.67834607 154.6823,2.71260253 154.523324,3.47056999 C154.322686,4.42405943 153.979517,5.35415932 153.623923,6.26525521 C153.48651,6.61719478 153.208028,7.01810621 152.886056,7.1763511 C151.071905,8.06698113 149.241673,8.93093247 147.372336,9.69511278 C147.071196,9.81827335 146.432369,9.50251449 146.143654,9.20283594 C144.930687,7.9434551 144.236675,2.53900825 145.05604,0.995298251 C145.244984,0.639704068 145.587056,0.365973294 145.859325,0.0542345085 C145.935707,0.188724395 146.012088,0.32284882 146.08847,0.456973244" id="Fill-6" fill="#000000"></path>
                    <path d="M28.796514,22.6097599 C28.796514,25.1935738 28.8878794,27.5058496 28.7705662,29.8075271 C28.6547149,32.0733893 27.8525266,33.9566132 25.3202428,34.5662032 C24.4372875,34.7789019 23.4468864,35.5935159 22.7813807,35.3570622 C22.1473048,35.1323033 21.8695539,33.8966775 21.4415983,33.1017984 C21.220494,32.690654 21.0132773,32.2722004 20.7771891,31.8128151 C24.8835161,31.427984 24.8853434,31.427984 24.9065402,27.2558739 C24.913484,25.9921075 24.9076366,24.7279756 24.9076366,23.3034061 C23.4048583,23.6396309 22.1717907,23.9155544 20.9474942,24.1892852 C21.3491365,27.0150346 20.9222773,28.7385518 19.7115029,28.7246642 C17.5307932,28.7005438 18.5398328,26.4098301 17.4500262,25.249124 C16.6624564,25.5031198 15.7784046,25.9117059 14.854883,26.0436376 C14.2160561,26.135003 13.3312734,26.0670271 12.8879685,25.6854852 C11.2185397,24.2481245 11.443664,23.0545268 13.5655344,22.4686917 C17.1317091,21.4845035 20.7519722,20.6980301 24.4924722,19.7938779 C24.4329019,19.2054847 24.3685807,18.573236 24.2856209,17.7553329 C22.802212,18.1482041 21.4807027,18.6434047 20.120089,18.802746 C19.3164388,18.8970351 18.3340779,18.640481 17.6510301,18.2011961 C17.1580224,17.8839754 17.0260907,17.0061365 16.7329905,16.3782734 C17.256697,16.1399924 17.7606686,15.8322737 18.3077647,15.6758561 C20.7600124,14.9745352 23.2429588,14.3762745 25.6783952,13.6223271 C27.2663261,13.1307812 28.7862811,13.3665039 29.1352969,14.4515596 C29.6568107,16.072382 28.4694258,16.5420002 27.2641333,16.9100201 C27.6215548,17.6932044 27.9464502,18.4054891 28.3521126,19.2942919 C29.2270278,19.1492036 30.1688225,18.8608544 31.1080589,18.8688945 C32.3919257,18.8798584 33.7587522,18.9003242 34.9161693,19.3575167 C35.414659,19.5541351 35.7983937,20.9363111 35.6251649,21.6270336 C35.5078517,22.0929972 34.3442218,22.499756 33.6151258,22.5666355 C32.0732431,22.7084346 30.5094327,22.6097599 28.796514,22.6097599" id="Fill-8" fill="#000000"></path>
                    <path d="M21.7969001,11.339544 C22.8698955,10.6733074 24.2213727,10.3118659 24.6347098,9.48299884 C25.6755446,7.39475098 26.6959135,5.17932247 26.2566286,2.0897097 C24.8269427,4.27443943 21.0849809,2.47234805 21.1039849,6.00270756 C22.3374179,6.10101675 24.1493768,5.8784506 24.3280875,6.31846643 C25.4866009,9.17564559 22.4733696,8.61612381 21.2297037,9.60981403 C21.3890449,10.0955126 21.5334023,10.5362593 21.7969001,11.339544 M17.4533885,5.64455515 C17.6514687,4.22400572 17.6777819,2.91821126 18.0710186,1.73411552 C18.239131,1.2283166 19.1546124,0.695108054 19.7601824,0.657830966 C22.1956188,0.507626229 24.6628504,0.727999602 27.0796483,0.461578061 C29.2552414,0.22183522 30.5263171,1.08322832 30.2767068,3.26247613 C29.9375583,6.22746648 29.6049882,9.32767763 27.0891503,11.3187127 C25.6897976,12.4267924 23.8752805,13.1094748 22.1473779,13.6806913 C19.5935319,14.5252732 18.9517812,14.1302091 18.3268418,11.429813 C17.8791513,9.49505907 17.7220028,7.49306016 17.4533885,5.64455515" id="Fill-10" fill="#000000"></path>
                    <path d="M8.02265064,33.7608354 C7.7390524,32.711595 7.29099642,31.7803987 7.26760687,30.838604 C7.180627,27.3272485 7.23288802,23.8126039 7.23288802,20.5292964 C5.13404177,22.2239421 2.91751688,24.0136078 0.700626525,25.8036389 C0.467096532,25.6304101 0.233566539,25.4575467 3.65461647e-05,25.2846834 C0.559558329,23.9368608 0.959738833,22.4925564 1.70820429,21.2598542 C3.9455605,17.5738081 6.27501304,13.9403884 8.68230891,10.3628843 C9.09637696,9.74744688 10.5834404,9.04283683 10.6992917,9.1707484 C11.4177893,9.96562749 11.9064116,10.9757635 12.4169615,11.9435059 C12.4991904,12.0991926 12.3478892,12.4211643 12.2364234,12.6302084 C9.44246914,17.850828 10.2296735,23.4964795 10.4485851,29.0248179 C10.5271593,31.0125638 10.5227738,32.5972055 8.02265064,33.7608354" id="Fill-12" fill="#000000"></path>
                    <path d="M5.72923261,8.70080127 C4.38871929,8.65731133 3.88036214,8.03383376 4.65440991,7.22506714 C6.5697944,5.22379915 8.60687763,3.32888051 10.7225351,1.54177305 C11.0079607,1.30056837 12.3364137,1.7299858 12.6317068,2.19704579 C13.0647788,2.88155545 13.429875,4.22462701 13.0655097,4.67706853 C12.1584339,5.80378679 10.9213462,6.77116377 9.63163209,7.45348067 C8.37882956,8.11679356 6.89651712,8.34593801 5.72923261,8.70080127" id="Fill-14" fill="#000000"></path>
                    <path d="M66.8120173,11.6776691 C66.6340375,10.7932519 66.4951621,10.1054531 66.3413027,9.34163827 C64.56589,10.2355575 63.089425,10.978541 61.1491891,11.95542 C62.984172,11.95542 64.2504966,11.9711348 65.5160903,11.945187 C65.8662026,11.9378778 66.2133911,11.8059462 66.8120173,11.6776691 M57.148115,6.84845891 C58.3687569,5.69213826 59.6146156,4.55993807 60.7998077,3.36816764 C61.3538476,2.81120409 61.9089838,2.19686306 62.2536142,1.50394777 C62.7312726,0.543880024 63.3105293,-0.361733939 64.4171471,0.14589229 C65.1254118,0.470422233 65.552271,1.40929321 66.1052145,2.07297156 C66.0200619,2.2955377 65.9352748,2.51810385 65.8501223,2.74066999 C67.4665591,2.44647336 69.0745904,2.0696824 70.7041839,1.89974274 C71.3163321,1.83615241 72.2329099,2.07077879 72.542456,2.50385084 C72.822765,2.89635665 72.6776768,3.88895049 72.3520504,4.36478155 C71.2849024,5.92091725 70.0500075,7.36156706 68.8797993,8.8468032 C68.7456749,8.62533344 68.6119159,8.40422914 68.4777915,8.18275938 C69.0614338,9.23126885 69.645076,10.2797783 70.2089833,11.292838 C71.3346052,11.4240387 72.5808294,11.4993238 73.7890456,11.7555125 C74.1303868,11.8278739 74.5985432,12.4451386 74.5744227,12.7817288 C74.5503022,13.1259936 74.0437724,13.6127885 73.6593067,13.7205997 C72.5647491,14.027953 71.4252397,14.1741376 70.1165215,14.4186315 C70.1165215,15.1546712 70.044891,15.9385865 70.1296782,16.7049595 C70.3917142,19.0727856 68.6393256,20.1329898 67.1179087,21.2757884 C66.8335796,21.489218 65.9414877,21.2184109 65.5544638,20.8993629 C64.8414481,20.3117005 64.2954484,19.5215725 63.708517,18.8487576 C64.4741592,18.5827015 65.7540058,18.5194766 66.2590738,17.8616457 C66.8372342,17.1080637 66.7279611,15.8263897 66.9450454,14.6189045 L62.7418709,14.6189045 C62.8061922,14.8264867 62.8109432,14.9584183 62.8774572,15.0391854 C63.4472119,15.7302733 64.0527819,16.3954135 64.5574844,17.1299914 C64.5965888,17.186638 63.8481234,18.0367018 63.6354247,17.9709187 C62.4692366,17.6091117 61.1660003,17.295911 60.2848723,16.5328271 C59.5886678,15.9298154 59.5788004,14.6167117 58.1410743,14.6963823 C57.8662471,14.7113663 57.5450063,13.8930976 57.1839302,13.3712184 C56.7281995,13.4307886 56.2103404,13.4987645 55.7367021,13.560893 C54.9791001,16.4560802 56.7822879,19.8486606 53.5826711,22.265824 C51.7692504,20.0112911 53.0147437,17.3722925 52.3919971,15.0848681 C49.709874,15.3297274 49.662364,15.3914904 49.2113844,18.0593604 C48.9208423,19.7777611 48.6109309,21.5078565 46.2182535,22.1536273 C46.5921207,20.2619978 46.9663535,18.3703683 47.3672649,16.3416907 C47.0935341,16.2982007 46.7759479,16.3325541 46.5669039,16.1980642 C45.9774142,15.8183496 44.9285393,15.2972013 44.9760493,14.962073 C45.0718003,14.2910854 45.6583662,13.3598891 46.2540687,13.1570579 C47.6161443,12.693287 49.1035732,12.5916887 50.5438575,12.3669298 C51.1359054,12.274468 51.7381862,12.2441347 52.4566838,12.1736006 L52.4566838,9.35223666 C51.1114195,9.62012005 49.772368,9.9293006 48.4179671,10.1430957 C47.1944015,10.3360594 46.5840806,9.79005971 46.6721568,8.4999801 C46.7635222,7.1649487 46.651691,5.79446752 46.9287109,4.50365698 C47.0540643,3.91891834 47.9044935,3.4895009 48.4256418,2.98954937 C48.8035292,3.6696735 49.3367377,4.312886 49.510332,5.04161652 C49.6503038,5.62964431 49.3561072,6.32109775 49.2534124,6.97454318 C52.3075754,7.22159525 52.5557239,7.00853111 52.5747279,4.26829968 C52.5754588,4.14660095 52.5729006,4.02453676 52.5754588,3.90283803 C52.6174869,1.90559012 53.497884,0.630859896 54.7283934,0.994128774 C56.433272,1.49736946 56.3265572,2.89160565 56.0268786,4.2862073 C55.9501317,4.64180148 55.8748466,5.0065322 55.8726538,5.36760831 C55.8591317,7.67549862 55.86571,9.98338892 55.86571,12.2349981 C58.2178212,10.9821956 60.763627,9.62560197 63.3244168,8.26133364 C63.313453,8.17654654 63.3251477,8.06434981 63.2831196,7.97810086 C63.0035415,7.405057 62.712634,6.8371296 62.4250157,6.26774035 C63.0967342,6.16870024 63.81779,5.86207792 64.4306692,6.00862804 C66.5945676,6.52539081 66.9169048,6.46326233 68.2501089,4.55153245 C64.4204363,4.65093802 60.7621652,5.22398188 57.5267332,7.64479984 C57.400649,7.37947468 57.2741992,7.11378407 57.148115,6.84845891" id="Fill-16" fill="#000000"></path>
                    <path d="M60.2269466,23.5678542 C63.8545189,23.25977 67.4798985,22.9114851 71.1118563,22.6721077 C72.0489,22.6103447 73.0959476,22.7031719 73.9240837,23.088003 C74.4064931,23.312031 74.8603965,24.3090104 74.7639146,24.8597611 C74.6758383,25.3622709 73.8721882,26.0149854 73.3075499,26.1015998 C72.1205305,26.2835997 70.8816155,26.0869813 69.6675519,26.1348568 C65.9694455,26.2810415 62.2691463,26.414435 58.5801764,26.6921858 C57.9241728,26.7415231 57.1906912,27.3463622 56.7123019,27.8883418 C54.9858611,29.8457544 53.3869664,31.9157291 51.6649111,33.8775273 C51.0936946,34.5287799 50.2966227,34.9815869 49.6029765,35.5253938 L49.0204306,35.1420246 C50.0682092,32.8224395 51.1156223,30.5028544 52.2850995,27.9128277 C51.3151643,28.157687 50.5232089,28.3491889 49.7360046,28.5578675 C48.7996918,28.8063815 47.792845,29.4148751 46.9541105,29.2328752 C46.0660387,29.0410078 45.3402319,28.1028678 44.5435255,27.4907195 C45.1041436,26.8829568 45.5704727,25.9064433 46.2429221,25.7346763 C48.5292502,25.1503031 50.9105983,24.9452791 53.2082557,24.3959903 C54.1694198,24.1661149 55.1638409,23.5908783 55.8713747,22.8965011 C56.9915146,21.796827 57.8773937,20.4596029 58.8740076,19.2327481 C59.5234329,18.433849 60.2876132,18.0102789 61.1987091,18.8190455 C62.1229616,19.6402379 62.5205839,20.6909401 61.6131426,21.687554 C61.1106329,22.2397666 60.2466815,22.4626982 59.5453606,22.8340072 L60.2269466,23.5678542 Z" id="Fill-18" fill="#000000"></path>
                    <path d="M69.2826477,33.7185149 C68.9785836,34.0470649 68.4669373,35.0732812 67.8116646,35.1748796 C67.1611428,35.275747 66.135292,34.6138959 65.6821195,33.9900529 C64.6697908,32.5954513 63.8807591,31.0327373 63.0690688,29.5021839 C62.8450408,29.0800757 62.861852,28.5296904 62.7682938,28.0381445 C63.2203699,27.9756506 63.6921809,27.7969398 64.1212328,27.8693012 C66.8819301,28.3341685 69.3422179,30.8967855 69.2826477,33.7185149" id="Fill-20" fill="#000000"></path>
                    <path d="M74.6653496,21.7826471 C73.5952779,21.1759808 72.5200897,20.7377923 71.6839134,20.0207565 C71.2650944,19.6611423 70.94495,18.4437895 71.1704398,18.2256089 C71.7007247,17.7132317 72.669929,17.2110874 73.3087559,17.3598303 C74.2479924,17.5791073 75.1514136,18.2669061 75.8794132,18.9568977 C76.2774009,19.3336886 76.5609991,20.2298006 76.3844812,20.7005152 C76.214907,21.1536876 75.3867709,21.3605389 74.6653496,21.7826471" id="Fill-22" fill="#000000"></path>
                    <path d="M61.7248277,7.45596581 C60.607246,8.42334279 59.4896643,9.39071977 58.4020504,10.3328799 C56.2966259,8.47048734 57.8604363,8.02608598 61.3418239,7.02252829 C61.46937,7.16688564 61.5972816,7.31124299 61.7248277,7.45596581" id="Fill-24" fill="#000000"></path>
                </g>
                <g id="icon_-money">
                    <path d="M32.3518797,34.9849624 L36.7278195,34.9849624 L36.7278195,30.6090226 L32.3518797,30.6090226 L32.3518797,34.9849624 Z M26.7774436,27.568797 C28.4639098,31.1030075 28.6567669,35.1575188 27.368797,38.8078947 C32.9518797,45.4620301 43.8981203,41.5398496 43.8981203,32.7973684 C43.8981203,23.568797 31.9131579,19.9582707 26.7774436,27.568797 L26.7774436,27.568797 Z" id="Fill-1" fill="#00A158"></path>
                    <path d="M20.8045113,20.1691729 L25.1804511,20.1691729 L25.1804511,15.7932331 L20.8045113,15.7932331 L20.8045113,20.1691729 Z M22.9928571,8.46578947 C16.9860902,8.46578947 12.4421053,14.0048872 13.6766917,19.924812 C17.5883459,19.8740602 21.2917293,21.5003759 23.893985,24.3616541 C25.9917293,21.7003759 29.0116541,19.9191729 32.4037594,19.387218 C33.2650376,13.6090226 28.7650376,8.46578947 22.9928571,8.46578947 L22.9928571,8.46578947 Z" id="Fill-3" fill="#EEA74E"></path>
                    <path d="M11.6718045,35.6902256 L16.0477444,35.6902256 L16.0477444,31.3142857 L11.6718045,31.3142857 L11.6718045,35.6902256 Z M13.8597744,24.225188 C8.73609023,24.225188 4.58270677,28.3785714 4.58270677,33.5022556 C4.58270677,38.6259398 8.73609023,42.7796992 13.8597744,42.7796992 C18.9834586,42.7796992 23.1368421,38.6259398 23.1368421,33.5022556 C23.1368421,28.3785714 18.9834586,24.225188 13.8597744,24.225188 L13.8597744,24.225188 Z" id="Fill-4" fill="#E04444"></path>
                    <polygon id="Fill-5" fill="#C6C29B" points="49.1054887 22.432594 43.6344361 21.5848496 47.0934586 17.3404887"></polygon>
                    <polygon id="Fill-6" fill="#C6C29B" points="9.7175188 4.92221805 4.58255639 6.99289474 5.38368421 1.57635338"></polygon>
                    <path d="M14.6989098,48.4781579 L13.859812,48.4781579 C12.8395113,48.4781579 12.8383835,46.933797 13.859812,46.933797 L14.6989098,46.933797 C15.7188346,46.933797 15.7199624,48.4781579 14.6989098,48.4781579 L14.6989098,48.4781579 Z M11.3143233,48.1954511 C3.15642857,46.7890602 0.203421053,40.640188 0.0816165414,40.3792857 C-0.349210526,39.4548496 1.04815789,38.802594 1.48011278,39.7255263 C1.59139098,39.9597368 4.24364662,45.4093609 11.5767293,46.6740226 C12.5778571,46.846203 12.3252256,48.3766541 11.3143233,48.1954511 L11.3143233,48.1954511 Z M38.3959023,15.1642481 L38.3959023,16.0104887 C38.3959023,16.4371805 38.0500376,16.7826692 37.6237218,16.7826692 C37.197406,16.7826692 36.8519173,16.4371805 36.8519173,16.0104887 L36.8519173,15.1642481 C36.8519173,14.7375564 37.197406,14.3916917 37.6237218,14.3916917 C38.0500376,14.3916917 38.3959023,14.7375564 38.3959023,15.1642481 L38.3959023,15.1642481 Z M29.3327444,4.68868421 C29.4143233,4.27101504 29.8139474,3.99507519 30.2342481,4.07740602 C30.4819925,4.12477444 36.3244737,5.31838346 38.1519173,12.4668797 C38.2575564,12.8800376 38.0079323,13.3007143 37.5951504,13.4059774 C37.5308647,13.4225188 37.4665789,13.4300376 37.4034211,13.4300376 C37.0590602,13.4300376 36.7451504,13.1980827 36.6556767,12.8495865 C35.078609,6.68003759 30.1511654,5.63492481 29.9421429,5.59357143 C29.5248496,5.51086466 29.2515414,5.10597744 29.3327444,4.68868421 L29.3327444,4.68868421 Z M18.2797368,1.54432331 C18.4564286,1.54432331 18.5996617,1.68793233 18.5996617,1.86424812 C18.5996617,2.04093985 18.4564286,2.18417293 18.2797368,2.18417293 C18.1034211,2.18417293 17.959812,2.04093985 17.959812,1.86424812 C17.959812,1.68793233 18.1034211,1.54432331 18.2797368,1.54432331 L18.2797368,1.54432331 Z M18.2797368,3.72853383 C19.3079323,3.72853383 20.1440226,2.89206767 20.1440226,1.86424812 C20.1440226,0.836428571 19.3079323,-3.75939849e-05 18.2797368,-3.75939849e-05 C17.2519173,-3.75939849e-05 16.4158271,0.836428571 16.4158271,1.86424812 C16.4158271,2.89206767 17.2519173,3.72853383 18.2797368,3.72853383 L18.2797368,3.72853383 Z M21.3695865,9.85409774 L22.2504135,9.85409774 C23.2703383,9.85409774 23.2714662,11.3984586 22.2504135,11.3984586 L21.3695865,11.3984586 C20.3496617,11.3984586 20.3485338,9.85409774 21.3695865,9.85409774 L21.3695865,9.85409774 Z M14.6951504,16.227406 C15.4079323,13.4255263 18.7489098,9.9093609 19.6079323,11.4728947 C19.8135714,11.8469549 19.6774812,12.3165038 19.303797,12.5217669 C16.9346241,13.8251504 16.1989098,16.5800376 16.1917669,16.6082331 C16.1019173,16.9559774 15.7880075,17.1879323 15.4443985,17.1879323 C15.3808647,17.1879323 15.3169549,17.1804135 15.2530451,17.1634962 C14.8406391,17.058609 14.591015,16.6405639 14.6951504,16.227406 L14.6951504,16.227406 Z M26.6323684,42.2492105 C26.3759774,42.0465789 26.3263534,41.990188 26.0752256,41.7477068 C25.3316165,41.0439474 26.3959023,39.9259023 27.1361278,40.6251504 C27.3560526,40.8334211 27.3665789,40.8616165 27.5906391,41.0386842 C28.3880075,41.6702632 27.4334962,42.8841729 26.6323684,42.2492105 L26.6323684,42.2492105 Z M12.7199624,21.2368045 C10.5131955,14.2853008 15.7398872,7.20635338 22.9925188,7.20635338 C29.9376316,7.20635338 35.1135714,13.7270301 33.4631955,20.5266541 C29.4714662,20.8702632 25.9669549,23.1142481 23.9680827,26.4721429 C21.4079323,22.7988346 17.1030451,20.8307895 12.7199624,21.2368045 L12.7199624,21.2368045 Z M35.0496617,20.4909398 C36.6530451,12.7796617 30.7259774,5.66199248 22.9925188,5.66199248 C14.810188,5.66199248 8.83349624,13.5623684 11.1823684,21.4796617 C5.67296992,22.7056015 1.5406391,27.6292857 1.5406391,33.502218 C1.5406391,35.8977068 2.22860902,38.2202632 3.53086466,40.2183835 C3.76394737,40.5759023 4.2425188,40.677406 4.59928571,40.4439474 C5.90078947,39.5954511 3.08462406,38.402218 3.08462406,33.502218 C3.08462406,28.0811654 7.10981203,23.5845489 12.3278571,22.8383083 C27.9545489,20.602218 28.691015,44.277406 13.859812,44.277406 C12.9135714,44.277406 11.9748496,44.1552256 11.0703383,43.9127444 C10.0831203,43.6503383 9.68650376,45.1413158 10.6718421,45.4052256 C11.7064286,45.6815414 12.778985,45.8221429 13.859812,45.8221429 C22.9492857,45.8221429 28.9609398,36.2266541 24.8917669,28.0165038 C26.6692105,24.4161278 30.3710902,22.0225188 34.5395113,22.0225188 C40.4812406,22.0225188 45.3146992,26.8556015 45.3146992,32.7969549 C45.3146992,40.9052256 36.660188,46.0849248 29.5372556,42.3431955 C28.6304887,41.8668797 27.9173308,43.2368045 28.8192105,43.7097368 C30.5703383,44.6304135 32.5485338,45.1168797 34.5395113,45.1168797 C41.3327444,45.1168797 46.8590602,39.589812 46.8590602,32.7969549 C46.8590602,26.1755263 41.6068045,20.7597368 35.0496617,20.4909398 L35.0496617,20.4909398 Z M33.1240977,34.2127444 L35.9556767,34.2127444 L35.9556767,31.3815414 L33.1240977,31.3815414 L33.1240977,34.2127444 Z M36.7278571,35.7574812 C37.1541729,35.7574812 37.4996617,35.4116165 37.4996617,34.9849248 L37.4996617,30.6093609 C37.4996617,30.1826692 37.1541729,29.8371805 36.7278571,29.8371805 L32.3519173,29.8371805 C31.9256015,29.8371805 31.5801128,30.1826692 31.5801128,30.6093609 L31.5801128,34.9849248 C31.5801128,35.4116165 31.9256015,35.7574812 32.3519173,35.7574812 L36.7278571,35.7574812 Z M12.4436466,34.9180075 L15.2756015,34.9180075 L15.2756015,32.0868045 L12.4436466,32.0868045 L12.4436466,34.9180075 Z M11.6718421,36.4627444 L16.047782,36.4627444 C16.4740977,36.4627444 16.8195865,36.1168797 16.8195865,35.690188 L16.8195865,31.3146241 C16.8195865,30.8879323 16.4740977,30.5424436 16.047782,30.5424436 L11.6718421,30.5424436 C11.2455263,30.5424436 10.9000376,30.8879323 10.9000376,31.3146241 L10.9000376,35.690188 C10.9000376,36.1168797 11.2455263,36.4627444 11.6718421,36.4627444 L11.6718421,36.4627444 Z M21.5767293,19.3969549 L24.4083083,19.3969549 L24.4083083,16.5653759 L21.5767293,16.5653759 L21.5767293,19.3969549 Z M20.8045489,20.9413158 L25.1804887,20.9413158 C25.6068045,20.9413158 25.9526692,20.5958271 25.9526692,20.1691353 L25.9526692,15.7935714 C25.9526692,15.3668797 25.6068045,15.021015 25.1804887,15.021015 L20.8045489,15.021015 C20.3782331,15.021015 20.0327444,15.3668797 20.0327444,15.7935714 L20.0327444,20.1691353 C20.0327444,20.5958271 20.3782331,20.9413158 20.8045489,20.9413158 L20.8045489,20.9413158 Z M5.99364662,42.983797 C5.21056391,42.3307895 6.1962782,41.1431955 6.98236842,41.7973308 C7.09853383,41.8939474 7.21657895,41.9879323 7.3368797,42.0792857 C7.67597744,42.3379323 7.74176692,42.8221429 7.4831203,43.1612406 C7.3312406,43.3612406 7.10116541,43.4657519 6.86845865,43.4657519 C6.52409774,43.4657519 6.27484962,43.2176316 5.99364662,42.983797 L5.99364662,42.983797 Z M5.95454887,2.99244361 L8.1793609,4.71011278 L5.54327068,5.77289474 L5.95454887,2.99244361 Z M4.58274436,7.765 C4.68011278,7.765 4.77823308,7.74620301 4.87146617,7.70898496 L10.0064286,5.63793233 C10.2631955,5.53492481 10.4447744,5.30184211 10.4827444,5.02778195 C10.5203383,4.7537218 10.4086842,4.48003759 10.1895113,4.3112406 L5.85530075,0.965 C5.63800752,0.797330827 5.34853383,0.757105263 5.09477444,0.860112782 C4.8406391,0.962744361 4.65981203,1.19206767 4.61958647,1.4631203 L3.81921053,6.88003759 C3.77860902,7.1537218 3.88763158,7.42853383 4.10492481,7.59921053 C4.24327068,7.70860902 4.41244361,7.765 4.58274436,7.765 L4.58274436,7.765 Z M45.0838722,21.027782 L46.8594361,18.8495865 L47.8921429,21.4634962 L45.0838722,21.027782 Z M49.8237218,22.1492105 L47.8113158,17.0571053 C47.7105639,16.802218 47.4823684,16.6195113 47.2116917,16.577782 C46.9402632,16.5360526 46.6677068,16.6405639 46.4951504,16.8529699 C42.7872556,21.402218 42.6989098,21.3033459 42.9131955,21.8612406 C43.0124436,22.1198872 43.2425188,22.3052256 43.5158271,22.3477068 C49.3917669,23.258609 49.3075564,23.4172556 49.7086842,22.9146241 C49.8812406,22.6988346 49.9252256,22.4063534 49.8237218,22.1492105 L49.8237218,22.1492105 Z" id="Fill-7" fill="#2D313A"></path>
                </g>
            </g>
        </g>
    </g>
</svg>