<?xml version="1.0" encoding="UTF-8"?>
<svg width="255px" height="70px" viewBox="0 0 255 70" version="1.1" xmlns="http://www.w3.org/2000/svg" xmlns:xlink="http://www.w3.org/1999/xlink">
    <!-- Generator: Sketch 41.2 (35397) - http://www.bohemiancoding.com/sketch -->
    <title>nav_benefit_nor</title>
    <desc>Created with Sketch.</desc>
    <defs>
        <polygon id="path-1" points="0 0.00103628681 0 25.6388696 16.9459336 25.6388696 16.9459336 0.00103628681 2.42143191e-21 0.00103628681"></polygon>
        <polygon id="path-3" points="0.129535851 35.7340278 32.2260183 35.7340278 32.2260183 0.0151114854 0.129535851 0.0151114854 0.129535851 35.7340278"></polygon>
    </defs>
    <g id="Page-1" stroke="none" stroke-width="1" fill="none" fill-rule="evenodd">
        <g id="Artboard-2" transform="translate(-605.000000, -161.000000)">
            <g id="nav_benefit_act" transform="translate(607.000000, 162.000000)">
                <g id="Page-1" transform="translate(82.000000, 9.000000)">
                    <path d="M93.9662709,17.1337159 C93.0714909,17.4689011 92.5933696,17.738693 92.084517,17.8230253 C90.0340985,18.1617839 89.598858,19.7615963 89.1900608,21.4042896 C88.894183,22.5931607 89.8225531,22.7471743 90.5729676,23.0873623 C91.3844874,23.4550654 91.946941,23.2931903 92.2349573,22.42128 C92.7845466,20.7571463 93.3259171,19.0901539 93.9662709,17.1337159 M91.7325368,13.9169387 C94.2181958,13.9605342 94.9064332,12.7545108 94.8235302,10.8656101 C94.8028045,10.3907049 94.7534915,9.90186336 94.8367518,9.4408944 C94.9675384,8.71906704 95.1998096,8.0151067 95.3891999,7.30399954 C96.0449193,7.50875552 96.902536,7.52733722 97.3059731,7.96472172 C97.8301913,8.53396478 98.071396,9.41373654 98.2904456,10.2002425 C98.5023484,10.9613773 98.5663123,11.770753 98.6288469,12.5640484 C98.668869,13.0668262 98.6981709,13.6167729 98.5405838,14.0806006 C98.0599611,15.4978121 97.4274688,16.8642813 96.9632838,18.2864956 C96.2664703,20.4212465 95.6622079,22.5863712 94.9500287,24.9676868 C95.5875238,25.4944064 96.4933814,26.1461951 97.2777433,26.9216235 C97.9030888,27.5398221 98.7796445,28.2823752 98.8268134,29.0159948 C98.893636,30.0597858 98.6109798,31.4569863 97.9202411,32.1402209 C96.902536,33.1464911 96.3658109,31.6953322 95.7754847,31.0746322 C94.7191869,29.9633039 93.7232795,28.7948012 92.6798459,27.6255838 C90.6372889,28.8962858 88.7709006,30.0572844 86.905227,31.2179256 C86.7815873,31.0867817 86.6579476,30.9559952 86.5343078,30.8248513 C87.6170489,29.3350997 88.7001472,27.8449907 89.526318,26.707934 C88.4196351,25.6562815 86.9638308,24.8908587 86.6340058,23.7884639 C86.2948898,22.6553379 87.0553099,21.1934588 87.3933538,19.5968624 C85.6134419,20.5034347 84.2337511,20.517371 83.2042538,18.8782511 C82.5907005,17.9012828 82.7304206,17.2155468 83.7824303,16.7327801 C83.9982639,16.6341542 84.2158841,16.471207 84.4374351,16.4626309 C87.6141901,16.3386338 88.4335714,14.2724923 88.7194436,11.5531328 C88.9234849,9.61420444 89.4523485,7.70886608 89.8450655,5.79030613 C89.9165335,5.44189936 90.00837,5.09420727 90.1295084,4.76045145 C90.5472391,3.60945841 90.7920172,2.12470956 92.3728906,2.2040391 C93.6603876,2.26836035 94.6337826,4.88623522 94.1506585,6.3409675 C93.3337786,8.80054063 92.5715718,11.2776234 91.7325368,13.9169387" id="Fill-1" fill="#000000"></path>
                    <path d="M110.588883,18.1931941 C110.588883,21.4103286 110.768268,24.258688 110.544215,27.0745294 C110.255485,30.6972451 107.776972,32.8545084 104.774957,34.4393125 C104.404037,34.635135 103.517476,34.4185867 103.220526,34.0830442 C102.393998,33.1475274 101.751858,32.048706 100.940338,30.8752006 C105.047965,30.3949352 106.246484,29.2568064 106.628838,25.3210606 C106.828234,23.2699274 106.663857,21.1834175 106.663857,18.7610078 C105.038316,19.131927 103.645761,19.5753863 102.221403,19.7301146 C101.300895,19.8301699 100.192782,19.748339 99.4320049,19.3002343 C98.7877203,18.9207389 98.5215018,17.899103 98.0884054,17.1615527 C98.7058894,16.800639 99.2822793,16.2792796 99.9487189,16.1081136 C101.999852,15.581394 104.08529,15.188677 106.418365,14.6880433 C105.972047,13.9894431 105.54574,13.4498592 105.260225,12.8438101 C104.887162,12.0519441 104.625588,11.2079063 104.315774,10.386381 C105.206981,10.2530931 106.098188,10.1198052 107.489313,9.91183316 C107.950282,8.87197295 108.640664,7.31289732 109.331403,5.75382168 C109.132364,5.5915892 108.933326,5.42971405 108.734287,5.26783891 C107.629033,5.99466903 106.50091,6.68933853 105.426031,7.45833481 C104.498375,8.12227305 103.531413,8.73296758 102.595538,7.68310184 C102.003783,7.01916361 101.69647,6.10151378 101.261587,5.29749815 C101.976268,4.98482541 102.663433,4.52850187 103.410632,4.38663778 C105.565751,3.97712582 107.746598,3.44504615 109.914582,3.45719572 C111.186713,3.46434253 112.524595,4.30659356 113.664511,5.03663975 C113.901427,5.18815203 113.654148,6.76652403 113.181387,7.23035171 C111.715577,8.66864633 110.033934,9.88681934 108.418756,11.2043329 C108.864716,12.2970795 109.260292,13.2651143 109.701964,14.3478554 C111.13204,14.2631657 112.548894,14.1027199 113.963247,14.1255897 C114.746894,14.1380966 115.698849,14.2427973 116.258801,14.6962621 C116.842338,15.1690233 117.518783,16.3296645 117.303307,16.7952789 C116.999568,17.4513557 115.951489,18.016668 115.151046,18.1335183 C113.709178,18.344349 112.214424,18.1931941 110.588883,18.1931941" id="Fill-3" fill="#000000"></path>
                    <path d="M35.5210887,6.50319998 C38.8279156,6.49855456 39.8845708,7.60094931 40.9855362,10.4239375 C42.4895815,14.2799964 44.4410167,17.961316 46.5425349,21.6605025 L46.5425349,5.7785139 C50.1263005,6.14979045 51.9058551,8.84449348 50.8631362,11.9519245 C50.6412279,12.6130041 50.5204469,13.3462663 50.5347405,14.0423652 C50.6230035,18.3193709 50.8191833,22.5953047 50.852416,26.8723105 C50.8624215,28.1515887 50.5947736,29.4741051 50.2156356,30.7029983 C49.857938,31.8629248 49.2418834,32.0094343 48.124123,31.1060781 C45.8278543,29.2496954 44.9334316,26.5875103 43.6373584,24.1500923 C42.4188281,21.8591837 41.2896328,19.5211063 39.7966651,17.2541396 L39.7966651,23.914605 C39.7966651,25.5815974 39.7998812,27.2489471 39.7952358,28.9159395 C39.7916624,30.3531621 39.5944105,31.7578668 37.9113378,32.1219965 C36.8239514,32.3571264 35.0890643,30.1827108 35.1812581,28.6547238 C35.2702358,27.1792658 35.7762297,25.7173867 35.7737283,24.2501475 C35.7644374,19.0172565 35.6154265,13.7847228 35.5225181,8.55218913 C35.5114405,7.91183536 35.5210887,7.27112424 35.5210887,6.50319998" id="Fill-5" fill="#000000"></path>
                    <path d="M61.3195559,20.1749675 L61.3195559,27.094862 C62.2179094,26.8411504 63.0548003,26.716796 63.7930653,26.3769654 C66.7800727,25.002992 69.3457759,26.2136609 71.8721717,27.6287284 C72.2377308,27.8338417 72.7394365,28.4095169 72.6633231,28.652151 C72.5336085,29.063807 72.0419083,29.5404989 71.6181027,29.6444849 C70.6504253,29.8814015 69.6334348,29.9861022 68.6335967,30.0064706 C66.2640734,30.0543542 63.8927633,30.0218362 61.8001786,30.0218362 C61.4406943,30.4066917 61.3174119,30.4788745 61.2906114,30.5775004 C61.0433319,31.4912195 61.1723317,33.0770956 59.8069345,32.649002 C58.8778498,32.358127 57.8487098,31.0127408 57.6721837,29.9982518 C57.3516495,28.1561626 57.7222114,26.2065141 57.6468126,24.3076079 C57.4420566,19.152617 57.173694,14.0001275 56.8903232,8.84835276 C56.8002734,7.20887556 57.3134141,6.49169362 58.3704266,7.18636312 C60.4769476,8.5710567 62.539873,7.89282485 64.4455687,7.22995864 C66.9787539,6.34875751 68.9712833,7.35788646 71.0388541,8.3688021 C71.4269257,8.55890713 71.6116706,9.16388422 71.890396,9.57732692 C71.4465794,9.81781693 71.0166991,10.2309023 70.5564448,10.2687804 C68.2483839,10.4578134 65.9335336,10.6071816 63.6186833,10.6497051 C62.4508953,10.6711455 61.8266218,11.1796407 61.6733228,12.2509469 C61.4314034,13.9372357 61.2727444,15.635674 61.0594122,17.4984889 C62.6327815,17.1415059 63.8941926,16.633368 65.1584625,16.6262212 C66.6542889,16.6176451 68.1683397,16.9753427 69.639867,17.3219628 C70.036872,17.4155859 70.5853893,18.0620145 70.5621622,18.4225708 C70.5364337,18.8145731 69.9829136,19.394179 69.5616094,19.4985224 C68.2501706,19.8240594 66.8987097,20.046325 65.5504648,20.1517404 C64.1957878,20.2575131 62.8264599,20.1749675 61.3195559,20.1749675" id="Fill-7" fill="#000000"></path>
                    <g id="Group-11" transform="translate(0.000000, 6.774386)">
                        <mask id="mask-2" fill="white">
                            <use xlink:href="#path-1"></use>
                        </mask>
                        <g id="Clip-10"></g>
                        <path d="M5.13476539,20.845052 C6.57020128,20.5995593 7.74906686,20.1789698 8.89863053,20.2479364 C11.0469603,20.3772936 13.2217332,20.6274318 15.2921628,21.1773785 C15.9889763,21.3624808 16.4027764,22.6106703 16.9459336,23.3732345 C16.1837268,23.793824 15.4515365,24.4920669 14.652881,24.5785433 C12.8897641,24.7697203 11.0909131,24.6078452 9.31064387,24.6785985 C8.24648453,24.7207647 7.03331428,24.6453659 6.16176135,25.1234872 C4.26964457,26.1612033 2.76845807,25.4454508 1.14827725,24.6114186 C-0.153870724,23.9414055 -0.191034113,23.0805728 0.263860061,21.8148735 C0.732333165,20.5127256 1.11290056,19.111237 1.16257086,17.7401224 C1.28763996,14.2967914 1.27370369,10.8441697 1.17543511,7.3994094 C1.12362077,5.57876068 0.721970297,3.77061888 0.598330561,1.9485408 C0.555092387,1.31176043 0.871695874,0.651038252 1.02392283,0.00103628681 C1.56207729,0.151833884 2.15776353,0.203290884 2.6258793,0.474869495 C3.44347385,0.949417384 4.31073871,1.44897909 4.91428644,2.14793668 C5.39026369,2.69895538 5.75475077,3.57515375 5.72759291,4.29019164 C5.64254592,6.52428306 5.23553535,8.74693959 5.16156591,10.9806737 C5.05615053,14.1788691 5.13476539,17.3831394 5.13476539,20.845052" id="Fill-9" fill="#000000" mask="url(#mask-2)"></path>
                    </g>
                    <path d="M28.3617048,9.83057398 C28.3617048,16.1297684 28.3845746,22.4289628 28.3438378,28.7281572 C28.3349043,30.1053467 28.6172031,32.0267653 26.9048285,32.351945 C25.1795896,32.679626 24.3870089,30.8800604 23.6162259,29.5600454 C23.3961043,29.1834087 23.381096,28.645969 23.3875281,28.183928 C23.4768632,21.5252492 23.5719157,14.8662132 23.7112784,8.20824912 C23.7259293,7.50178739 24.0293112,6.80140044 24.1990479,6.09815478 C24.9680442,6.31899107 25.834237,6.3858137 26.4849536,6.79532566 C27.6002126,7.49642728 28.9856209,8.10533512 28.8469729,9.82056845 L28.3617048,9.83057398 Z" id="Fill-12" fill="#000000"></path>
                    <g id="Group-16" transform="translate(128.285160, 0.342261)">
                        <mask id="mask-4" fill="white">
                            <use xlink:href="#path-3"></use>
                        </mask>
                        <g id="Clip-15"></g>
                        <path d="M19.538473,18.0133447 C21.3919971,18.2191727 22.2392509,17.4766196 22.3671787,15.6506108 C21.388781,15.8239209 20.4943583,15.9822226 19.538473,16.1516019 L19.538473,18.0133447 Z M23.7901077,10.2744263 C22.3167937,10.5799523 20.9253107,10.8683259 19.4205507,11.1806413 C19.4634316,11.8795989 19.4977362,12.4377644 19.5320409,12.9984313 C24.5401649,12.5957088 23.671828,12.4488419 23.7901077,10.2744263 L23.7901077,10.2744263 Z M16.1133665,6.41443666 C14.3627565,6.64849454 12.6528832,6.82680734 10.9676665,7.13840806 C10.547077,7.21630824 10.0046344,7.65047668 9.8606263,8.04533768 C8.99872155,10.4069996 8.23722941,12.8047528 7.34387872,15.4844476 C10.4802543,14.7561881 13.2835888,14.1054715 16.1237293,13.4461786 L16.1237293,11.9260531 C15.0792237,12.0375433 14.062948,12.4070331 13.2307025,12.1586816 C12.4631355,11.9292692 11.8931778,11.0373478 11.2363864,10.4373735 C11.785261,10.0403685 12.2812493,9.4818456 12.8944453,9.28209239 C13.9332334,8.9433338 15.0459911,8.83112895 16.1133665,8.62601564 L16.1133665,6.41443666 Z M18.0812394,6.16179708 C19.055349,7.49288961 19.8089796,8.13431541 21.3408974,7.98351782 C22.8092086,7.83843766 24.4819184,8.0907199 25.8062215,8.71606539 C26.774971,9.17381828 27.3245604,10.5184897 28.061396,11.4679429 C27.9452604,11.6055189 27.8298395,11.7430949 27.7140613,11.8806709 C28.7507054,11.8806709 29.863463,11.6519731 30.7971932,11.9621445 C31.4075304,12.1651137 31.7587959,13.1488715 32.2261969,13.7827932 C31.5869152,14.0561585 30.9687165,14.4210029 30.3019195,14.5760886 C29.6769314,14.7218834 28.9979849,14.6157534 28.3465535,14.6714985 C25.8172991,14.8880467 24.9218043,16.483571 26.0470689,18.7412469 C26.5423425,19.7350102 25.8809056,20.5929842 24.543381,20.6869647 C22.9496433,20.7995269 21.3555484,20.908873 19.4898748,21.0378728 C19.4898748,23.9551989 19.329429,26.7363783 19.5327556,29.4903998 C19.7575226,32.5302935 18.3560341,34.285549 15.7638877,35.4726334 C14.7990689,35.9146633 14.1805129,35.8557021 13.7913694,34.8312076 C13.4826274,34.0182584 13.1931817,33.1978052 12.8336974,32.2119033 C13.4461786,32.2119033 13.8503305,32.1829588 14.2491222,32.2172634 C15.5501982,32.3291109 16.1330202,31.6705328 16.1398097,30.443069 C16.1555326,27.6504547 16.1448124,24.8574831 16.1448124,21.8229494 C15.3668826,22.0470018 14.6686397,22.3829016 13.9561032,22.417921 C13.1774588,22.4557991 12.3116233,22.368608 11.6262446,22.0394976 C11.2081565,21.8386724 10.876902,21.0846844 10.8611791,20.5683277 C10.8529602,20.2981785 11.5747876,19.9018881 12.0300391,19.7435864 C12.9251765,19.4330577 13.8539039,19.1185982 14.787634,19.0421274 C16.2362915,18.9234904 16.4313993,18.18058 16.0801338,16.9609776 C13.0909824,16.9163101 9.94603062,20.3374859 7.10267403,16.4088869 C5.11121666,22.1938686 4.34865251,28.2607919 0.129535851,33.0741654 C0.291053656,32.1093467 0.370025858,31.1223728 0.627310858,30.1836399 C2.72882903,22.5068987 4.86965464,14.8408777 6.98046366,7.16663794 C7.2656212,6.12927911 7.12232775,4.68526705 7.77518843,4.11995473 C8.41411285,3.56643464 9.82203355,3.93914055 10.8836915,3.82586368 C12.1690445,3.68864502 13.4451066,3.46780873 14.3002219,3.34452633 C14.0454383,2.39435853 13.3754253,1.2780275 13.6884554,0.780609837 C14.3849116,-0.326787684 15.6298851,-0.078436191 16.7022633,0.556200142 C16.8044626,0.616590649 16.9402519,0.654826059 17.0020717,0.743803788 C19.0231884,3.64898025 21.612476,2.51335284 24.2425005,1.93660564 C24.9343112,1.78509336 26.2271684,2.48297892 26.5830793,3.1454878 C27.1069401,4.12066941 26.379038,4.91039143 25.2044605,5.08191476 C22.9249869,5.41531324 20.6483719,5.77122416 18.0812394,6.16179708 L18.0812394,6.16179708 Z" id="Fill-14" fill="#000000" mask="url(#mask-4)"></path>
                    </g>
                    <path d="M158.151946,32.585038 C157.882154,32.978827 157.486578,34.0251194 156.738665,34.4474956 C156.372749,34.6543956 155.253559,33.8074991 154.648939,33.2493336 C153.618013,32.2973791 152.735025,31.1874802 151.770921,30.1615563 C150.898653,29.2331862 151.07911,28.1668829 152.201516,27.7545122 C154.001081,27.0930753 158.188037,30.0843708 158.151946,32.585038" id="Fill-17" fill="#000000"></path>
                    <path d="M148.392447,27.4922244 C150.00155,25.6347696 151.535969,23.7012014 153.286937,21.9888268 C153.609615,21.6736527 154.809564,22.2564747 155.604646,22.4244246 C155.45492,23.0615623 155.512809,24.0413893 155.121164,24.2786633 C153.01786,25.5529387 150.802707,26.6424692 148.626505,27.7956063 C148.548605,27.694479 148.470347,27.5933517 148.392447,27.4922244" id="Fill-19" fill="#000000"></path>
                    <path d="M141.698249,25.8456361 C141.337692,26.4406077 141.053607,27.0723853 140.95641,27.0448701 C139.52419,26.6407183 138.108766,26.1690291 136.724072,25.6251572 C136.643313,25.5937112 136.803402,24.4562971 136.942407,24.4348567 C137.931882,24.2844165 138.992825,24.0921674 139.93406,24.3165771 C140.580846,24.4705908 141.072546,25.2735344 141.698249,25.8456361" id="Fill-21" fill="#000000"></path>
                    <path d="M139.533624,28.2404235 C139.154486,29.6147542 138.834667,30.9226196 138.422296,32.2008258 C138.260063,32.7032462 137.890931,33.1392014 137.616494,33.6055304 C137.131226,33.1767221 136.48301,32.8329607 136.204642,32.2969503 C135.900903,31.712699 135.94021,30.9504921 135.867313,30.4959553 C137.237356,29.6533469 138.394423,28.9411678 139.533624,28.2404235" id="Fill-23" fill="#000000"></path>
                </g>
                <g id="Page-1">
                    <path d="M4.60622378,9.13297203 C3.0772028,9.13297203 1.83314685,10.377028 1.83314685,11.906049 L1.83314685,14.6787762 L3.2313986,14.6787762 L3.2313986,11.906049 C3.2313986,11.1476573 3.84818182,10.5308741 4.60622378,10.5308741 L7.51741259,10.5308741 L7.51741259,9.13297203 L4.60622378,9.13297203 Z" id="Fill-1" fill="#2D313A"></path>
                    <path d="M58.5852098,38.0282867 L57.8733217,35.3401748 C57.8327622,35.1873776 57.6764685,35.0968182 57.5236713,35.1366783 L56.6271678,35.3740909 C56.5537413,35.3936713 56.4915035,35.4415734 56.4533916,35.5066084 C56.4152797,35.5723427 56.4051399,35.6503147 56.424021,35.7233916 L57.1366084,38.4118531 C57.2436014,38.816049 57.1866084,39.2384266 56.9757692,39.601014 C56.7649301,39.9636014 56.4264685,40.2223427 56.0222727,40.3293357 L53.1848601,41.0810839 C53.1114336,41.1006643 53.0488462,41.1485664 53.0110839,41.213951 C52.9726224,41.2793357 52.9621329,41.3573077 52.9817133,41.4303846 L53.2187762,42.3268881 C53.253042,42.4548601 53.3687762,42.5394755 53.495,42.5394755 C53.5194755,42.5394755 53.543951,42.5366783 53.5684266,42.530035 L56.4061888,41.7782867 C57.195,41.5691958 57.8568881,41.0632517 58.2698252,40.3527622 C58.6820629,39.6426224 58.7943007,38.8170979 58.5852098,38.0282867" id="Fill-3" fill="#2D313A"></path>
                    <path d="M45.051958,35.9273077 C44.8921678,34.7454895 43.9012587,33.8717133 42.7498601,33.8126224 C42.6016084,33.8052797 42.4509091,33.8091259 42.2984615,33.8297552 L42.0344755,33.8657692 C41.868042,33.8881469 41.7072028,33.926958 41.5540559,33.9811538 C41.4914685,34.0028322 41.4313287,34.0287063 41.3715385,34.0552797 C41.3582517,34.0612238 41.3435664,34.0661189 41.3299301,34.0720629 C41.0393706,34.2080769 40.782028,34.398986 40.5690909,34.6294056 C40.5155944,34.6870979 40.4655944,34.7472378 40.4176923,34.8094755 C40.0376224,35.3084266 39.8467133,35.9517832 39.9369231,36.6189161 C40.0271329,37.286049 40.382028,37.8556294 40.880979,38.2356993 C40.9435664,38.2829021 41.0082517,38.3276573 41.0746853,38.3689161 C41.3414685,38.5346503 41.6400699,38.6503846 41.9561538,38.7038811 C41.9708392,38.7066783 41.9858741,38.707028 42.0005594,38.7094755 C42.0005594,38.7094755 42.3047552,38.7832517 42.780979,38.7189161 C43.2575524,38.6545804 43.4547552,38.5545804 43.4547552,38.5545804 C44.5145455,38.171014 45.2086014,37.0867483 45.051958,35.9273077" id="Fill-5" fill="#00A158"></path>
                    <path d="M49.4861189,18.3918881 L40.8238811,19.5632168 L40.7298252,18.8702098 L39.3438112,19.0572727 L39.4378671,19.7506294 L29.3889161,21.109021 L29.155,19.3761538 L27.768986,19.5639161 L28.0032517,21.2964336 L17.7812238,22.6782517 L17.6875175,21.9848951 L16.3015035,22.1726573 L16.3952098,22.8653147 L8.13716783,23.9817483 L7.13786713,16.5901399 C6.93122378,15.0618182 8.00674825,13.6495804 9.53506993,13.4432867 L15.0214336,12.7016783 L15.2710839,14.5495804 L16.6570979,14.3625175 L16.4074476,12.5139161 L26.6291259,11.1320979 L26.7382168,11.9408392 L28.1242308,11.7534266 L28.0151399,10.945035 L38.0637413,9.58629371 L38.3133916,11.4345455 L39.6994056,11.2471329 L39.4497552,9.39923077 L45.339965,8.60272727 C46.8686364,8.39608392 48.2801748,9.47160839 48.4868182,10.9999301 L49.4861189,18.3918881 Z M51.9532517,36.6408392 C52.1595455,38.1691608 51.084021,39.5813986 49.5556993,39.7876923 L43.6654895,40.5841958 L43.4934615,39.3135664 L42.1074476,39.500979 L42.2794755,40.7716084 L32.2308741,42.13 L32.0522028,40.8058741 C31.8742308,40.8642657 31.689965,40.909021 31.4983566,40.9352448 L31.234021,40.9709091 C31.0424126,40.9967832 30.8529021,41.002028 30.6661888,40.9936364 L30.8452098,42.3174126 L20.6231818,43.6992308 L20.4441608,42.3754545 C20.2665385,42.4334965 20.0822727,42.4786014 19.8903147,42.5044755 L19.6263287,42.5397902 C19.4347203,42.566014 19.2448601,42.5712587 19.0581469,42.5628671 L19.2371678,43.8862937 L13.7508042,44.6282517 C12.2224825,44.8348951 10.8109441,43.7593706 10.6043007,42.231049 L8.32458042,25.3677622 L16.5826224,24.2516783 L16.7147902,25.228951 C16.8927622,25.1709091 17.077028,25.1258042 17.2686364,25.0999301 L17.5326224,25.0639161 C17.7245804,25.038042 17.9140909,25.0327972 18.1008042,25.0415385 L17.9686364,24.0642657 L28.1906643,22.6824476 L28.3228322,23.6593706 C28.5004545,23.6013287 28.6847203,23.5565734 28.8763287,23.5303497 L29.1406643,23.495035 C29.3319231,23.4691608 29.5217832,23.4635664 29.7088462,23.471958 L29.5766783,22.4946853 L39.6249301,21.1366434 L39.7602448,22.1366434 C39.9717832,22.0583217 40.1938112,22.0002797 40.4263287,21.9688112 L40.6903147,21.9334965 C40.8420629,21.9128671 40.9920629,21.9076224 41.1406643,21.909021 L41.0109441,20.9488811 L49.6731818,19.7779021 L51.9532517,36.6408392 Z M45.1525524,7.21671329 L9.34765734,12.0572727 C7.06094406,12.3667133 5.44276224,14.4904895 5.75185315,16.7775524 L9.21828671,42.4184615 C9.52737762,44.7051748 11.6515035,46.3233566 13.9382168,46.0142657 L49.7431119,41.1737063 C52.0298252,40.8642657 53.648007,38.7404895 53.3392657,36.4534266 L49.8724825,10.8125175 C49.5637413,8.5258042 47.4392657,6.90762238 45.1525524,7.21671329 L45.1525524,7.21671329 Z" id="Fill-7" fill="#2D313A"></path>
                    <path d="M15.325035,21.5704895 C14.6432168,21.5704895 13.9662937,21.3411189 13.4194406,20.9246853 C13.3393706,20.8638462 13.2624476,20.7991608 13.1886713,20.730979 C12.9638462,20.5232867 12.7715385,20.2855245 12.6162937,20.023986 C12.5641958,19.9365734 12.5159441,19.8456643 12.4722378,19.751958 C12.3383217,19.4655944 12.2488112,19.1603497 12.2061538,18.844965 C12.1634965,18.5299301 12.1687413,18.2117483 12.2218881,17.8998601 C12.2393706,17.7981119 12.2613986,17.6981119 12.2883217,17.5995105 C12.3690909,17.3054545 12.4914685,17.0253846 12.6526573,16.7662937 C12.7054545,16.6816783 12.7624476,16.5984615 12.823986,16.518042 C13.3341259,15.8481119 14.0725874,15.416993 14.9026573,15.3047552 L17.2127972,14.9928671 C17.3201399,14.9781818 17.4264336,14.9694406 17.532028,14.9659441 L17.6351748,14.9641958 C17.9124476,14.9641958 18.1893706,15.0016084 18.4582517,15.075035 C18.6544056,15.1288811 18.8456643,15.2016084 19.0274825,15.2921678 C19.2977622,15.4260839 19.5477622,15.5984615 19.7704895,15.8044056 C20.3065035,16.2998601 20.6554545,16.9690909 20.753007,17.6893706 C20.8502098,18.41 20.6918182,19.1481119 20.3065035,19.768042 C20.1474126,20.0243357 19.951958,20.2568531 19.7260839,20.458951 C19.5746853,20.5942657 19.41,20.7155944 19.2358741,20.8190909 C18.9673427,20.9788811 18.6767832,21.0970629 18.3718881,21.1704895 C18.2673427,21.1956643 18.1624476,21.2148951 18.0558042,21.2295804 L15.746014,21.5421678 C15.6065035,21.561049 15.4648951,21.5704895 15.325035,21.5704895" id="Fill-9" fill="#EEA74E"></path>
                    <path d="M17.633951,14.265035 C17.5926923,14.265035 17.5514336,14.2657343 17.5101748,14.2671329 C17.3797552,14.2713287 17.2482867,14.2821678 17.1189161,14.3 L16.657028,14.3622378 L15.271014,14.5493007 L14.8091259,14.6118881 C13.7937413,14.7493007 12.8909441,15.2758741 12.2671678,16.0944056 C12.1933916,16.1916084 12.1231119,16.2937063 12.0584266,16.3975524 C11.8615734,16.713986 11.7122727,17.0559441 11.614021,17.4143357 C11.5808042,17.5353147 11.5535315,17.6590909 11.5325524,17.7825175 C11.4675175,18.1643357 11.4608741,18.5534965 11.512972,18.9388112 C11.5650699,19.3241259 11.6748601,19.6975524 11.8388462,20.0482517 C11.891993,20.1622378 11.9514336,20.2744755 12.0154196,20.3818182 C12.2049301,20.701049 12.4402448,20.9909091 12.7136713,21.2440559 C12.8031818,21.3265734 12.8982867,21.4066434 12.9954895,21.4807692 C13.6633217,21.9895105 14.4905944,22.2699301 15.3248601,22.2699301 C15.4961888,22.2699301 15.6692657,22.258042 15.8398951,22.234965 L16.3014336,22.1723776 L17.6877972,21.984965 L18.1496853,21.9227273 C18.2790559,21.9052448 18.4087762,21.8807692 18.5353497,21.8503497 C18.9077273,21.7604895 19.2633217,21.6157343 19.5926923,21.4202797 C19.8052797,21.2940559 20.007028,21.1461538 20.191993,20.9807692 C20.4671678,20.7346154 20.7056294,20.4506993 20.9003846,20.1374126 C21.3713636,19.3797203 21.5650699,18.4772727 21.4458392,17.5958042 C21.326958,16.7146853 20.9003846,15.8961538 20.2451399,15.2909091 C19.9738112,15.0402098 19.6689161,14.8297203 19.3384965,14.6657343 C19.1161189,14.5552448 18.8825524,14.4660839 18.6437413,14.401049 C18.3147203,14.3108392 17.9748601,14.265035 17.633951,14.265035 M17.633951,15.6636364 C17.8535315,15.6636364 18.0685664,15.6937063 18.2741608,15.7496503 C18.4276573,15.7916084 18.5755594,15.8482517 18.7164685,15.9185315 C18.9276573,16.0230769 19.1231119,16.158042 19.2958392,16.3178322 C19.6993357,16.6905594 19.9808042,17.2 20.0598252,17.7835664 C20.1388462,18.3667832 20.0024825,18.9325175 19.7126224,19.3993007 C19.5881469,19.598951 19.4356993,19.7807692 19.2598252,19.9381119 C19.1423427,20.0426573 19.0147203,20.1367133 18.8783566,20.2178322 C18.6731119,20.3398601 18.4482867,20.4328671 18.2077273,20.4909091 C18.1276573,20.5097902 18.0458392,20.5251748 17.9622727,20.5367133 L17.5003846,20.598951 L16.1143706,20.7863636 L15.6524825,20.848951 C15.5423427,20.863986 15.4332517,20.8713287 15.3248601,20.8713287 C14.7773077,20.8713287 14.2598252,20.6853147 13.843042,20.3681818 C13.7804545,20.3202797 13.7206643,20.2702797 13.662972,20.2167832 C13.4898951,20.056993 13.3395455,19.8723776 13.2178671,19.6671329 C13.176958,19.598951 13.1395455,19.5286713 13.1056294,19.4559441 C13.0038811,19.2381119 12.9329021,19.0013986 12.898986,18.7513986 C12.8650699,18.501049 12.8706643,18.2545455 12.9112238,18.0171329 C12.9248601,17.9384615 12.941993,17.8604895 12.962972,17.7835664 C13.0259091,17.5538462 13.1220629,17.3356643 13.2465385,17.1356643 C13.2877972,17.0692308 13.3322028,17.0045455 13.3797552,16.941958 C13.7598252,16.443007 14.3294056,16.0881119 14.9965385,15.9979021 L15.4584266,15.9353147 L16.8444406,15.7482517 L17.3063287,15.6856643 C17.3898951,15.6744755 17.4731119,15.6678322 17.5552797,15.665035 C17.5815035,15.663986 17.6077273,15.6636364 17.633951,15.6636364" id="Fill-11" fill="#2D313A"></path>
                    <path d="M19.9298951,26.7408042 C19.883042,26.6768182 19.8333916,26.615979 19.7809441,26.5572378 C19.623951,26.3813636 19.4417832,26.2285664 19.2421329,26.1044406 C19.0421329,25.979965 18.823951,25.8841608 18.5938811,25.8208741 C18.5173077,25.8002448 18.4393357,25.7827622 18.3603147,25.7694755 C18.3064685,25.760035 18.2515734,25.7554895 18.1963287,25.7498951 C18.1711538,25.7470979 18.145979,25.7425524 18.1204545,25.7408042 C17.9582168,25.7292657 17.7931818,25.7345105 17.6263986,25.7572378 L17.3624126,25.7925524 C17.1690559,25.8187762 16.9851399,25.8694755 16.8106643,25.936958 C16.4578671,26.074021 16.1463287,26.2866084 15.897028,26.5568881 C15.7372378,26.7296154 15.6026224,26.9247203 15.4973776,27.1362587 C15.4274476,27.2771678 15.3708042,27.4250699 15.3288462,27.5785664 C15.2659091,27.8086364 15.2358392,28.0498951 15.2438811,28.2970979 C15.2466783,28.3796154 15.2533217,28.4628322 15.2648601,28.546049 C15.4190559,29.686958 16.3477273,30.5397552 17.4477273,30.6509441 C17.6340909,30.6694755 17.8246503,30.6698252 18.018007,30.6436014 L18.2823427,30.6082867 C18.4491259,30.5855594 18.6096154,30.5463986 18.7627622,30.4925524 C18.7868881,30.4841608 18.809965,30.472972 18.8337413,30.4635315 C18.8851399,30.4436014 18.9368881,30.4243706 18.9865385,30.4012937 C19.2770979,30.2652797 19.5344406,30.0747203 19.7477273,29.843951 C19.9606643,29.6135315 20.1291958,29.3429021 20.2417832,29.0481469 C20.2980769,28.9005944 20.3403846,28.7463986 20.3673077,28.5887063 C20.4078671,28.3512937 20.4134615,28.1044406 20.3798951,27.8547902 C20.3683566,27.7712238 20.352972,27.6894056 20.3337413,27.608986 C20.2564685,27.2883566 20.116958,26.9953497 19.9298951,26.7408042" id="Fill-13" fill="#EEA74E"></path>
                    <path d="M20.6794056,32.2846853 C20.6325524,32.2206993 20.5829021,32.1598601 20.5304545,32.1011189 C20.3734615,31.9252448 20.1912937,31.7724476 19.9916434,31.6483217 C19.7916434,31.5238462 19.5734615,31.428042 19.3433916,31.3651049 C19.2668182,31.3441259 19.1888462,31.326993 19.1098252,31.3133566 C19.055979,31.3039161 19.0010839,31.2993706 18.9458392,31.2937762 C18.9206643,31.290979 18.8954895,31.2864336 18.869965,31.2846853 C18.7077273,31.2734965 18.5426923,31.2783916 18.3759091,31.3011189 L18.3759091,31.3011189 L18.1119231,31.3367832 C17.9185664,31.3626573 17.7346503,31.4137063 17.5601748,31.4811888 C17.2073776,31.6179021 16.8958392,31.8308392 16.6465385,32.1007692 C16.4867483,32.2734965 16.3517832,32.4686014 16.2468881,32.6801399 C16.176958,32.821049 16.1203147,32.9693007 16.0783566,33.1224476 C16.0154196,33.3525175 15.9853497,33.5941259 15.9933916,33.8413287 C15.9961888,33.9234965 16.0028322,34.0067133 16.0143706,34.0899301 C16.1685664,35.2308392 17.0972378,36.0836364 18.1972378,36.1951748 C18.3836014,36.2137063 18.5741608,36.2137063 18.7675175,36.1874825 L19.0318531,36.1521678 C19.1982867,36.1294406 19.3591259,36.0902797 19.5122727,36.0364336 C19.5363986,36.028042 19.5594755,36.0168531 19.5832517,36.0074126 C19.6346503,35.9878322 19.6863986,35.9682517 19.736049,35.9451748 C20.0266084,35.8091608 20.283951,35.6186014 20.4972378,35.3881818 C20.7101748,35.1574126 20.8787063,34.8871329 20.9912937,34.592028 C21.0475874,34.4444755 21.0898951,34.2906294 21.1168182,34.1325874 C21.1573776,33.8951748 21.162972,33.6486713 21.1294056,33.3986713 C21.1178671,33.3151049 21.1024825,33.2332867 21.0832517,33.1532168 C21.005979,32.8325874 20.8664685,32.5395804 20.6794056,32.2846853" id="Fill-15" fill="#EEA74E"></path>
                    <path d="M21.4444406,37.943951 C21.2573776,37.6894056 21.0231119,37.4733217 20.7566783,37.3079371 C20.4902448,37.1422028 20.1912937,37.0264685 19.8748601,36.972972 C19.821014,36.9635315 19.7661189,36.958986 19.7112238,36.953042 C19.6856993,36.9505944 19.6605245,36.946049 19.635,36.9443007 C19.4731119,36.9327622 19.3077273,36.938007 19.1409441,36.9603846 L18.876958,36.996049 C18.6836014,37.0222727 18.500035,37.072972 18.3252098,37.1404545 C17.2940909,37.5401049 16.6252098,38.6086364 16.7794056,39.7495455 C16.9336014,40.8904545 17.8626224,41.7429021 18.9622727,41.8544406 C19.148986,41.872972 19.3395455,41.872972 19.5329021,41.8470979 L19.7968881,41.8114336 C19.9636713,41.7887063 20.1241608,41.7498951 20.2773077,41.696049 C20.3014336,41.6873077 20.3245105,41.6764685 20.3482867,41.6666783 C20.3996853,41.6470979 20.4517832,41.6278671 20.5010839,41.6047902 C20.7916434,41.4687762 21.0493357,41.2778671 21.2622727,41.0474476 C21.4752098,40.817028 21.6437413,40.5463986 21.7563287,40.2516434 C21.8126224,40.1040909 21.8549301,39.9498951 21.8818531,39.7918531 C21.9224126,39.5547902 21.928007,39.3079371 21.8944406,39.0582867 C21.8605245,38.8079371 21.7895455,38.5715734 21.6874476,38.3537413 C21.6196154,38.2082867 21.5381469,38.0712238 21.4444406,37.943951" id="Fill-17" fill="#EEA74E"></path>
                    <path d="M31.5375175,25.1714685 C31.4906643,25.1074825 31.4413636,25.0466434 31.3885664,24.9879021 C31.2315734,24.812028 31.0494056,24.6592308 30.8497552,24.5351049 C30.6497552,24.4106294 30.4315734,24.3148252 30.2018531,24.2518881 C30.1252797,24.2309091 30.046958,24.2137762 29.9682867,24.2001399 C29.9140909,24.1906993 29.8591958,24.1861538 29.8043007,24.1805594 C29.7787762,24.1777622 29.7536014,24.1732168 29.7280769,24.1714685 C29.5658392,24.1602797 29.4008042,24.1651748 29.234021,24.1879021 L28.970035,24.2235664 C28.7766783,24.2494406 28.5931119,24.3001399 28.4182867,24.3676224 C28.0654895,24.5046853 27.7543007,24.7172727 27.5046503,24.9875524 C27.3448601,25.1602797 27.2102448,25.3553846 27.105,25.5669231 C27.0350699,25.7078322 26.9784266,25.8560839 26.9364685,26.0092308 C26.8735315,26.2393007 26.8434615,26.4809091 26.8518531,26.7281119 C26.8543007,26.8102797 26.8612937,26.8934965 26.8724825,26.9767133 C27.0266783,28.1176224 27.9556993,28.9704196 29.0556993,29.081958 C29.2420629,29.1004895 29.4326224,29.1004895 29.6256294,29.0742657 L29.889965,29.038951 C30.0567483,29.0162238 30.2175874,28.9770629 30.3703846,28.9232168 C30.3945105,28.9148252 30.4175874,28.9036364 30.4417133,28.8941958 C30.4931119,28.8742657 30.5448601,28.855035 30.5945105,28.831958 C30.8847203,28.6959441 31.1420629,28.5053846 31.3553497,28.274965 C31.5682867,28.0441958 31.7368182,27.7739161 31.8497552,27.4788112 C31.906049,27.3312587 31.9483566,27.1774126 31.9752797,27.0193706 C32.0154895,26.781958 32.0214336,26.5354545 31.9875175,26.2854545 C31.9763287,26.2018881 31.9609441,26.1200699 31.9413636,26.04 C31.8644406,25.7193706 31.7245804,25.4263636 31.5375175,25.1714685" id="Fill-19" fill="#E04444"></path>
                    <path d="M32.286993,30.7153497 C32.2401399,30.6517133 32.1908392,30.5905245 32.138042,30.5321329 C31.981049,30.3559091 31.7988811,30.2034615 31.5992308,30.0793357 C31.3992308,29.9548601 31.181049,29.8587063 30.9513287,29.7957692 C30.8744056,29.7751399 30.7964336,29.7576573 30.7177622,29.744021 C30.6635664,29.7349301 30.6086713,29.730035 30.5537762,29.7244406 C30.5282517,29.721993 30.5030769,29.7174476 30.4775524,29.7153497 C30.3153147,29.7041608 30.1502797,29.7090559 29.9834965,29.7317832 L29.7195105,29.7674476 C29.5261538,29.7933217 29.3425874,29.8443706 29.1677622,29.9118531 C28.814965,30.0485664 28.5037762,30.2615035 28.2541259,30.5314336 C28.0943357,30.7045105 27.9593706,30.8996154 27.8544755,31.1111538 C27.7845455,31.2517133 27.7279021,31.399965 27.6859441,31.5531119 C27.623007,31.7831818 27.5929371,32.0247902 27.6013287,32.271993 C27.6037762,32.3541608 27.6107692,32.4373776 27.621958,32.5209441 C27.7761538,33.6618531 28.7051748,34.5146503 29.8051748,34.6258392 C29.9915385,34.6443706 30.1820979,34.6443706 30.3751049,34.6184965 L30.6394406,34.5828322 C30.8062238,34.5601049 30.9667133,34.5212937 31.1198601,34.4670979 C31.143986,34.4587063 31.1670629,34.4475175 31.1911888,34.4380769 C31.2425874,34.4184965 31.2943357,34.3989161 31.343986,34.3761888 C31.6341958,34.2401748 31.8915385,34.0492657 32.1048252,33.8188462 C32.3177622,33.5884266 32.4862937,33.3177972 32.5992308,33.023042 C32.6555245,32.8751399 32.6978322,32.7212937 32.7247552,32.5632517 C32.764965,32.3261888 32.7709091,32.0793357 32.736993,31.8293357 C32.7258042,31.7457692 32.7104196,31.6643007 32.6908392,31.5838811 C32.6139161,31.2632517 32.4740559,30.9702448 32.286993,30.7153497" id="Fill-21" fill="#E04444"></path>
                    <path d="M33.0522028,36.374965 C32.8651399,36.1200699 32.6308741,35.9043357 32.3640909,35.7386014 C32.098007,35.5728671 31.7987063,35.4574825 31.4826224,35.4036364 C31.4287762,35.3941958 31.3738811,35.3896503 31.318986,35.3840559 C31.2934615,35.3812587 31.2682867,35.3767133 31.2424126,35.374965 C31.0805245,35.3634266 30.9154895,35.3686713 30.7487063,35.3913986 L30.4847203,35.4267133 C30.2913636,35.4529371 30.1074476,35.5036364 29.932972,35.5711189 C28.9022028,35.9704196 28.232972,37.0393007 28.3868182,38.1802098 C28.5413636,39.3211189 29.4703846,40.1739161 30.570035,40.2851049 C30.7567483,40.303986 30.946958,40.303986 31.1403147,40.2777622 L31.4043007,40.2424476 C31.5714336,40.2197203 31.7319231,40.1805594 31.8850699,40.1267133 C31.9091958,40.1183217 31.9322727,40.1071329 31.956049,40.0976923 C32.0077972,40.0777622 32.0591958,40.0585315 32.1088462,40.0354545 C32.3994056,39.8994406 32.6567483,39.7088811 32.870035,39.4781119 C33.082972,39.2476923 33.2515035,38.9770629 33.3644406,38.6823077 C33.4203846,38.5347552 33.4626923,38.3809091 33.4896154,38.2228671 C33.5301748,37.9854545 33.5357692,37.738951 33.5018531,37.488951 C33.4679371,37.2386014 33.396958,37.0022378 33.2952098,36.7844056 C33.2273776,36.6393007 33.1459091,36.5022378 33.0522028,36.374965" id="Fill-23" fill="#E04444"></path>
                    <path d="M40.7841259,22.6262587 L40.5201399,22.6622727 L40.5197902,22.6622727 C40.3533566,22.6846503 40.1928671,22.7234615 40.0393706,22.7776573 C39.9767832,22.7993357 39.916993,22.8252098 39.8572028,22.8521329 C39.8435664,22.8580769 39.8292308,22.8626224 39.8155944,22.8685664 C39.7428671,22.9028322 39.6722378,22.9398951 39.6040559,22.9808042 C39.3991608,23.1024825 39.2145455,23.2531818 39.0547552,23.4259091 C38.953007,23.536049 38.8620979,23.6556294 38.7816783,23.7822028 C38.6330769,24.0175175 38.5229371,24.278007 38.4603497,24.5535315 C38.3981119,24.8290559 38.3823776,25.119965 38.4222378,25.4154196 C38.4561538,25.6654196 38.5271329,25.9017832 38.6292308,26.1196154 C38.6631469,26.1923427 38.7005594,26.262972 38.7411189,26.3315035 C38.8627972,26.5363986 39.0134965,26.721014 39.1865734,26.8808042 C39.2439161,26.933951 39.3044056,26.9846503 39.3662937,27.0322028 C39.4288811,27.0794056 39.4935664,27.1241608 39.56,27.1654196 C39.8267832,27.3311538 40.1257343,27.4468881 40.4418182,27.5007343 C40.4565035,27.5031818 40.4711888,27.5038811 40.4858741,27.505979 C40.5509091,27.5157692 40.6159441,27.5248601 40.682028,27.5290559 C40.8439161,27.5405944 41.0093007,27.5356993 41.1757343,27.5133217 L41.4397203,27.4773077 C41.5914685,27.4566783 41.8795804,27.3738112 41.8795804,27.3738112 C42.973986,27.0112238 43.6970629,25.9056294 43.5372727,24.7238112 C43.5260839,24.6405944 43.5106993,24.5584266 43.4914685,24.4787063 C43.4334266,24.2381469 43.3407692,24.012972 43.2187413,23.8080769 C43.1372727,23.6713636 43.0435664,23.5437413 42.9386713,23.4262587 C42.7813287,23.2503846 42.5995105,23.0982867 42.3995105,22.9738112 C42.0551049,22.7594755 41.6558042,22.6308042 41.2355245,22.6091259 C41.0869231,22.6017832 40.9365734,22.6056294 40.7841259,22.6262587" id="Fill-25" fill="#00A158"></path>
                    <path d="M43.9681818,29.3519231 C43.8870629,29.2152098 43.793007,29.0875874 43.6881119,28.9704545 C43.5307692,28.7945804 43.348951,28.6421329 43.148951,28.5176573 C42.8041958,28.3033217 42.4048951,28.175 41.984965,28.152972 C41.8363636,28.1456294 41.686014,28.1498252 41.5335664,28.1704545 L41.2692308,28.2061189 C41.1027972,28.2284965 40.9423077,28.2676573 40.7888112,28.3215035 C40.7265734,28.3431818 40.6664336,28.3690559 40.6066434,28.395979 C40.593007,28.4019231 40.5786713,28.4064685 40.5653846,28.4127622 C40.2748252,28.5487762 40.0171329,28.7393357 39.8041958,28.9697552 C39.7024476,29.0802448 39.6115385,29.1994755 39.5314685,29.3263986 C39.2335664,29.7963287 39.091958,30.368007 39.1716783,30.9596154 C39.2618881,31.6263986 39.6171329,32.195979 40.1157343,32.576049 C40.1783217,32.6236014 40.243007,32.668007 40.3094406,32.7096154 C40.5762238,32.8753497 40.8751748,32.9907343 41.1912587,33.0449301 C41.2059441,33.047028 41.220979,33.0477273 41.2356643,33.0498252 C41.3003497,33.0596154 41.3653846,33.0687063 41.4314685,33.0736014 C41.5933566,33.0844406 41.7587413,33.0795455 41.9251748,33.0571678 L42.1891608,33.0211538 C42.3416084,33.0008741 42.4881119,32.9648601 42.629021,32.918007 C43.7234266,32.5550699 44.4465035,31.4494755 44.2867133,30.268007 C44.2755245,30.1844406 44.2601399,30.1026224 44.2409091,30.0225524 C44.1828671,29.781993 44.0902098,29.5571678 43.9681818,29.3519231" id="Fill-27" fill="#00A158"></path>
                    <path d="M26.9647203,18.9382168 C26.2832517,18.9382168 25.6063287,18.7088462 25.0598252,18.2920629 C24.9801049,18.2315734 24.9031818,18.1668881 24.8290559,18.0987063 C24.6042308,17.8906643 24.4119231,17.6532517 24.257028,17.3924126 C24.2045804,17.3046503 24.1563287,17.2133916 24.1126224,17.1196853 C23.9783566,16.832972 23.8888462,16.5277273 23.8465385,16.2126923 C23.8035315,15.8976573 23.8091259,15.5798252 23.8622727,15.2675874 C23.8797552,15.1661888 23.9017832,15.0658392 23.9287063,14.9672378 C24.0091259,14.6735315 24.1318531,14.3934615 24.293042,14.1343706 C24.3458392,14.0494056 24.4031818,13.9654895 24.4643706,13.8857692 C24.9745105,13.2161888 25.712972,12.7850699 26.5433916,12.6728322 L28.8528322,12.3605944 C28.9601748,12.3459091 29.0668182,12.3371678 29.1724126,12.3336713 L29.2738112,12.3319231 C29.5531818,12.3319231 29.8311538,12.3696853 30.100035,12.4434615 C30.2951399,12.496958 30.4867483,12.570035 30.6682168,12.6602448 C30.9377972,12.7941608 31.1877972,12.9665385 31.4108741,13.1721329 C31.9472378,13.6675874 32.2958392,14.3371678 32.3933916,15.0574476 C32.4909441,15.7780769 32.3322028,16.5161888 31.9465385,17.1361189 C31.7874476,17.3931119 31.5916434,17.6256294 31.3661189,17.827028 C31.2150699,17.9626923 31.0496853,18.084021 30.8752098,18.1875175 C30.6063287,18.3473077 30.3150699,18.4654895 30.0108741,18.5385664 C29.9101748,18.5633916 29.8042308,18.582972 29.6961888,18.5976573 L27.386049,18.9098951 C27.2472378,18.9287762 27.1052797,18.9382168 26.9650699,18.9382168 L26.9647203,18.9382168 Z" id="Fill-29" fill="#E04444"></path>
                    <path d="M29.2743357,11.6327622 C29.2330769,11.6327622 29.1918182,11.6334615 29.1505594,11.6348601 C29.0201399,11.6394056 28.8886713,11.6502448 28.7596503,11.6677273 L28.1243357,11.7533916 L26.7383217,11.9408042 L26.4495105,11.979965 C25.4344755,12.1173776 24.5316783,12.643951 23.9075524,13.4621329 C23.8334266,13.5596853 23.7631469,13.6617832 23.6988112,13.7656294 C23.5023077,14.0817133 23.3526573,14.4236713 23.2544056,14.7820629 C23.2211888,14.9033916 23.1939161,15.0268182 23.1729371,15.1502448 C23.1079021,15.5320629 23.1012587,15.9215734 23.1533566,16.3065385 C23.2054545,16.6922028 23.3152448,17.0652797 23.4792308,17.4163287 C23.5323776,17.529965 23.5918182,17.6422028 23.6558042,17.7495455 C23.8453147,18.0687762 24.0802797,18.358986 24.3540559,18.6117832 C24.4439161,18.6946503 24.5386713,18.7743706 24.6358741,18.8484965 C25.3040559,19.3572378 26.1313287,19.6376573 26.9652448,19.6376573 C27.1365734,19.6376573 27.31,19.6257692 27.4799301,19.603042 L27.7687413,19.5638811 L29.1547552,19.3761189 L29.7900699,19.2904545 C29.9197902,19.2733217 30.0491608,19.2484965 30.1757343,19.2180769 C30.5481119,19.1285664 30.9037063,18.9838112 31.2330769,18.7883566 C31.446014,18.6617832 31.6474126,18.5138811 31.8323776,18.3484965 C32.1079021,18.1026923 32.346014,17.8187762 32.5407692,17.5051399 C33.0113986,16.7474476 33.2054545,15.845 33.0862238,14.9635315 C32.9673427,14.0827622 32.5407692,13.2638811 31.8855245,12.6586364 C31.6141958,12.4079371 31.308951,12.1974476 30.9788811,12.0334615 C30.7565035,11.9233217 30.5225874,11.8341608 30.2841259,11.7687762 C29.9547552,11.6785664 29.6152448,11.6327622 29.2743357,11.6327622 M29.2743357,13.0313636 C29.4942657,13.0313636 29.708951,13.0614336 29.9145455,13.1177273 C30.068042,13.1596853 30.2159441,13.2163287 30.3568531,13.2862587 C30.568042,13.3911538 30.7634965,13.5261189 30.9365734,13.6859091 C31.3397203,14.0582867 31.6215385,14.5677273 31.7002098,15.1512937 C31.7792308,15.7345105 31.6428671,16.3002448 31.3526573,16.767028 C31.2288811,16.9666783 31.0760839,17.1484965 30.9002098,17.3061888 C30.7827273,17.4107343 30.6551049,17.5047902 30.5187413,17.5855594 C30.3138462,17.7075874 30.0886713,17.8005944 29.8481119,17.8586364 C29.768042,17.8778671 29.6862238,17.8932517 29.6026573,17.9044406 L28.9676923,17.9904545 L27.5816783,18.1778671 L27.2928671,18.2166783 C27.1830769,18.2317133 27.0736364,18.2390559 26.9652448,18.2390559 C26.4176923,18.2390559 25.9002098,18.0533916 25.4834266,17.7359091 C25.4208392,17.6883566 25.361049,17.638007 25.3033566,17.5845105 C25.1302797,17.4247203 24.9799301,17.2401049 24.8582517,17.0352098 C24.8173427,16.967028 24.7799301,16.8963986 24.746014,16.8236713 C24.6442657,16.6058392 24.5732867,16.3694755 24.5393706,16.1191259 C24.5054545,15.8691259 24.511049,15.6222727 24.5516084,15.3852098 C24.5652448,15.3061888 24.5823776,15.2282168 24.6033566,15.1512937 C24.6662937,14.9215734 24.7624476,14.7033916 24.8869231,14.5037413 C24.9281818,14.4373077 24.9725874,14.3722727 25.0201399,14.310035 C25.4005594,13.8107343 25.9701399,13.4561888 26.6369231,13.365979 L26.9257343,13.3268182 L28.3117483,13.1397552 L28.9467133,13.0533916 C29.0302797,13.0422028 29.1131469,13.0355594 29.1956643,13.0327622 C29.2222378,13.0320629 29.2481119,13.0313636 29.2743357,13.0313636" id="Fill-31" fill="#2D313A"></path>
                    <path d="M38.3092657,18.4632517 C36.7417832,18.4629021 35.4008741,17.2912238 35.1903846,15.7380769 C35.0781469,14.9076573 35.2973776,14.0810839 35.8082168,13.4111538 C36.3187063,12.7408741 37.0571678,12.3097552 37.8875874,12.1975175 L40.1973776,11.8856294 C40.3372378,11.8667483 40.4788462,11.856958 40.6183566,11.856958 C40.6907343,11.856958 40.7624126,11.8594056 40.8333916,11.8646503 C40.9372378,11.8712937 41.0414336,11.8842308 41.1438811,11.9017133 C41.5452797,11.9702448 41.9263986,12.115 42.2753497,12.3317832 C42.361014,12.3849301 42.4445804,12.4422727 42.5246503,12.5034615 C42.6033217,12.5636014 42.6805944,12.6286364 42.7547203,12.6968182 C42.9784965,12.9038112 43.1711538,13.1412238 43.3270979,13.4031119 C43.3788462,13.4905245 43.4267483,13.5810839 43.4708042,13.6747902 C43.6050699,13.9625524 43.6945804,14.2677972 43.7372378,14.5824825 C43.7798951,14.8985664 43.7746503,15.2167483 43.7215035,15.5282867 C43.7043706,15.6282867 43.681993,15.7282867 43.6554196,15.8268881 C43.5743007,16.1223427 43.4515734,16.4020629 43.2910839,16.6611538 C43.2382867,16.7457692 43.1812937,16.8282867 43.1204545,16.9087063 C43.0585664,16.9894755 42.9938811,17.066049 42.926049,17.1398252 C42.6463287,17.4422727 42.3173077,17.6831818 41.9473776,17.8562587 C41.8543706,17.899965 41.7582168,17.9391259 41.659965,17.9737413 C41.4596154,18.044021 41.2522727,18.0936713 41.0414336,18.1223427 L38.7305944,18.4349301 C38.5910839,18.4538112 38.4494755,18.4632517 38.3096154,18.4632517 L38.3092657,18.4632517 Z" id="Fill-33" fill="#00A158"></path>
                    <path d="M40.6181818,11.1577972 C40.4472028,11.1577972 40.2741259,11.1693357 40.1034965,11.1927622 L39.6993007,11.2473077 L38.3132867,11.4343706 L37.7937063,11.5046503 C36.7783217,11.6420629 35.8755245,12.1686364 35.2517483,12.9871678 C34.627972,13.806049 34.3601399,14.8161888 34.4972028,15.8315734 C34.7541958,17.7305245 36.393007,19.1626923 38.3090909,19.1626923 C38.4807692,19.1626923 38.6538462,19.1508042 38.8241259,19.1277273 L39.3437063,19.0574476 L40.7297203,18.8703846 L41.1342657,18.8154895 C41.3916084,18.7808741 41.6458042,18.7196853 41.8905594,18.634021 C42.0101399,18.5917133 42.1286713,18.5431119 42.2433566,18.4896154 C42.6961538,18.2777273 43.0986014,17.9833217 43.4391608,17.6147902 C43.5227273,17.5249301 43.6020979,17.4298252 43.6758741,17.332972 C43.75,17.2357692 43.8202797,17.1336713 43.884965,17.0301748 C44.0814685,16.7137413 44.2311189,16.3714336 44.329021,16.0133916 C44.3622378,15.8924126 44.3898601,15.7686364 44.4108392,15.6448601 C44.4758741,15.263042 44.4825175,14.8738811 44.4300699,14.4885664 C44.3783217,14.1036014 44.2685315,13.7298252 44.1045455,13.3794755 C44.0513986,13.2661888 43.991958,13.153951 43.9283217,13.0459091 C43.7384615,12.7263287 43.5031469,12.4361189 43.2297203,12.1836713 C43.1398601,12.1004545 43.0447552,12.0210839 42.9475524,11.946958 C42.8506993,11.8728322 42.7486014,11.8025524 42.6447552,11.7378671 C42.2185315,11.4728322 41.7524476,11.2962587 41.2597902,11.211993 C41.1353147,11.191014 41.0076923,11.1756294 40.8811189,11.1668881 C40.7940559,11.1609441 40.7062937,11.1577972 40.6181818,11.1577972 M40.6181818,12.5563986 C40.6741259,12.5563986 40.7297203,12.5584965 40.784965,12.5623427 C40.8657343,12.5675874 40.9458042,12.5773776 41.0248252,12.591014 C41.3409091,12.6448601 41.6398601,12.7602448 41.9066434,12.925979 C41.9730769,12.9672378 42.0381119,13.011993 42.1,13.0591958 C42.1625874,13.1067483 42.2227273,13.1574476 42.2804196,13.2105944 C42.4534965,13.3703846 42.6038462,13.555 42.7255245,13.7602448 C42.7664336,13.8287762 42.8034965,13.8990559 42.8377622,13.9717832 C42.9395105,14.1896154 43.0104895,14.425979 43.0440559,14.6763287 C43.077972,14.925979 43.0727273,15.1728322 43.0318182,15.4102448 C43.0185315,15.4892657 43.001049,15.5668881 42.9804196,15.6438112 C42.9171329,15.8735315 42.8213287,16.0917133 42.6968531,16.2920629 C42.6555944,16.3584965 42.6108392,16.4231818 42.5632867,16.4854196 C42.5160839,16.5476573 42.4653846,16.6077972 42.4122378,16.6654895 C42.198951,16.8959091 41.9416084,17.0868182 41.651049,17.2228322 C41.5783217,17.2563986 41.5038462,17.2871678 41.4272727,17.3140909 C41.2741259,17.3679371 41.1136364,17.4067483 40.9465035,17.4294755 L40.5426573,17.4843706 L39.1566434,17.6714336 L38.6367133,17.7417133 C38.5269231,17.7567483 38.4174825,17.7640909 38.3090909,17.7640909 C37.1055944,17.7640909 36.048951,16.8682867 35.8832168,15.6441608 C35.7027972,14.3102448 36.6472028,13.0710839 37.9807692,12.8906643 L38.5006993,12.8207343 L39.8867133,12.6333217 L40.2909091,12.5784266 C40.401049,12.5637413 40.5101399,12.5563986 40.6181818,12.5563986" id="Fill-35" fill="#2D313A"></path>
                    <path d="M56.993007,29.2378671 C56.5108392,29.2378671 56.1188811,29.6298252 56.1188811,30.111993 C56.1188811,30.5941608 56.5108392,30.9861189 56.993007,30.9861189 C57.4751748,30.9861189 57.8671329,30.5941608 57.8671329,30.111993 C57.8671329,29.6298252 57.4751748,29.2378671 56.993007,29.2378671 M56.993007,32.3847203 C55.7398601,32.3847203 54.7202797,31.3651399 54.7202797,30.111993 C54.7202797,28.8588462 55.7398601,27.8392657 56.993007,27.8392657 C58.2461538,27.8392657 59.2657343,28.8588462 59.2657343,30.111993 C59.2657343,31.3651399 58.2461538,32.3847203 56.993007,32.3847203" id="Fill-37" fill="#2D313A"></path>
                    <path d="M56.1188811,25.5665385 C56.1188811,26.0494056 55.7276224,26.4406643 55.2447552,26.4406643 C54.7618881,26.4406643 54.3706294,26.0494056 54.3706294,25.5665385 C54.3706294,25.0836713 54.7618881,24.6924126 55.2447552,24.6924126 C55.7276224,24.6924126 56.1188811,25.0836713 56.1188811,25.5665385" id="Fill-39" fill="#2D313A"></path>
                    <path d="M3.32167832,15.4266783 C3.32167832,16.1990559 2.69545455,16.8252797 1.92307692,16.8252797 C1.1506993,16.8252797 0.524475524,16.1990559 0.524475524,15.4266783 C0.524475524,14.6543007 1.1506993,14.0280769 1.92307692,14.0280769 C2.69545455,14.0280769 3.32167832,14.6543007 3.32167832,15.4266783" id="Fill-41" fill="#E04444"></path>
                    <path d="M1.92307692,14.5525524 C1.44125874,14.5525524 1.04895105,14.9445105 1.04895105,15.4266783 C1.04895105,15.9088462 1.44125874,16.3008042 1.92307692,16.3008042 C2.4048951,16.3008042 2.7972028,15.9088462 2.7972028,15.4266783 C2.7972028,14.9445105 2.4048951,14.5525524 1.92307692,14.5525524 M1.92307692,17.3497552 C0.862587413,17.3497552 0,16.4868182 0,15.4266783 C0,14.3665385 0.862587413,13.5036014 1.92307692,13.5036014 C2.98356643,13.5036014 3.84615385,14.3665385 3.84615385,15.4266783 C3.84615385,16.4868182 2.98356643,17.3497552 1.92307692,17.3497552" id="Fill-43" fill="#2D313A"></path>
                    <path d="M47.6398601,4.23786713 C47.6398601,4.96199301 47.0527972,5.54905594 46.3286713,5.54905594 C45.6045455,5.54905594 45.0174825,4.96199301 45.0174825,4.23786713 C45.0174825,3.51374126 45.6045455,2.92667832 46.3286713,2.92667832 C47.0527972,2.92667832 47.6398601,3.51374126 47.6398601,4.23786713" id="Fill-45" fill="#00A158"></path>
                    <path d="M46.3286713,3.45115385 C45.8951049,3.45115385 45.541958,3.8043007 45.541958,4.23786713 C45.541958,4.67143357 45.8951049,5.02458042 46.3286713,5.02458042 C46.7622378,5.02458042 47.1153846,4.67143357 47.1153846,4.23786713 C47.1153846,3.8043007 46.7622378,3.45115385 46.3286713,3.45115385 M46.3286713,6.07353147 C45.3164336,6.07353147 44.493007,5.2501049 44.493007,4.23786713 C44.493007,3.22562937 45.3164336,2.4022028 46.3286713,2.4022028 C47.3409091,2.4022028 48.1643357,3.22562937 48.1643357,4.23786713 C48.1643357,5.2501049 47.3409091,6.07353147 46.3286713,6.07353147" id="Fill-47" fill="#2D313A"></path>
                    <path d="M13.301049,49.8716783 C6.59965035,49.8716783 5.95384615,44.5765734 5.9479021,44.522028 C5.90699301,44.1384615 6.18461538,43.7933566 6.56888112,43.7524476 C6.9506993,43.7129371 7.2958042,43.9877622 7.33846154,44.3702797 C7.35979021,44.551049 7.8951049,48.4730769 13.3048951,48.4730769 C13.4076923,48.4730769 13.5111888,48.4716783 13.6174825,48.4688811 C14.0104895,48.4475524 14.3248252,48.7629371 14.3353147,49.1493007 C14.3458042,49.534965 14.0412587,49.8566434 13.6552448,49.8667832 C13.5353147,49.8702797 13.4171329,49.8716783 13.301049,49.8716783" id="Fill-49" fill="#2D313A"></path>
                    <path d="M50.0877622,4.46013986 C49.7332168,4.46013986 49.4293706,4.19160839 49.393007,3.83181818 C49.1821678,1.76363636 46.8881119,1.39440559 46.8646853,1.39125874 C46.4825175,1.33391608 46.2195804,0.977272727 46.2776224,0.595454545 C46.334965,0.213286713 46.6937063,-0.0506993007 47.0730769,0.00839160839 C48.2447552,0.184615385 50.5286713,1.18146853 50.7839161,3.68986014 C50.8234266,4.07412587 50.5437063,4.41748252 50.1594406,4.45629371 C50.1353147,4.45909091 50.1111888,4.46013986 50.0877622,4.46013986" id="Fill-51" fill="#2D313A"></path>
                    <path d="M20.1048951,41.6504545 C18.9479021,41.6504545 18.006993,40.7095455 18.006993,39.5525524 C18.006993,38.3955594 18.9479021,37.4546503 20.1048951,37.4546503 C21.2618881,37.4546503 22.2027972,38.3955594 22.2027972,39.5525524 C22.2027972,40.7095455 21.2618881,41.6504545 20.1048951,41.6504545 M17.3076923,33.6084965 C17.3076923,32.4515035 18.2486014,31.5105944 19.4055944,31.5105944 C20.5625874,31.5105944 21.5034965,32.4515035 21.5034965,33.6084965 C21.5034965,34.7654895 20.5625874,35.7063986 19.4055944,35.7063986 C18.2486014,35.7063986 17.3076923,34.7654895 17.3076923,33.6084965 M16.4335664,27.4896154 C16.4335664,26.3326224 17.3744755,25.3917133 18.5314685,25.3917133 C19.6884615,25.3917133 20.6293706,26.3326224 20.6293706,27.4896154 C20.6293706,28.6466084 19.6884615,29.5875175 18.5314685,29.5875175 C17.3744755,29.5875175 16.4335664,28.6466084 16.4335664,27.4896154 M20.7171329,36.4661888 C21.7993007,35.9686364 22.5524476,34.8777273 22.5524476,33.6084965 C22.5524476,31.9158392 21.215035,30.5392657 19.5398601,30.4686364 C20.7825175,30.0476573 21.6783217,28.8745804 21.6783217,27.4896154 C21.6783217,25.7515035 20.2695804,24.3427622 18.5314685,24.3427622 C16.7933566,24.3427622 15.3846154,25.7515035 15.3846154,27.4896154 C15.3846154,29.1822727 16.722028,30.5588462 18.3972028,30.6294755 C17.1545455,31.0504545 16.2587413,32.2235315 16.2587413,33.6084965 C16.2587413,35.1368182 17.3486014,36.4098951 18.7933566,36.6948601 C17.7111888,37.1924126 16.958042,38.2833217 16.958042,39.5525524 C16.958042,41.2906643 18.3667832,42.6994056 20.1048951,42.6994056 C21.843007,42.6994056 23.2517483,41.2906643 23.2517483,39.5525524 C23.2517483,38.0242308 22.1618881,36.7511538 20.7171329,36.4661888" id="Fill-53" fill="#2D313A"></path>
                    <path d="M31.8181818,40.2518531 C30.6611888,40.2518531 29.7202797,39.3109441 29.7202797,38.153951 C29.7202797,36.996958 30.6611888,36.056049 31.8181818,36.056049 C32.9751748,36.056049 33.9160839,36.996958 33.9160839,38.153951 C33.9160839,39.3109441 32.9751748,40.2518531 31.8181818,40.2518531 M29.020979,32.2098951 C29.020979,31.0529021 29.9618881,30.111993 31.1188811,30.111993 C32.2758741,30.111993 33.2167832,31.0529021 33.2167832,32.2098951 C33.2167832,33.3668881 32.2758741,34.3077972 31.1188811,34.3077972 C29.9618881,34.3077972 29.020979,33.3668881 29.020979,32.2098951 M28.1468531,26.091014 C28.1468531,24.934021 29.0877622,23.9931119 30.2447552,23.9931119 C31.4017483,23.9931119 32.3426573,24.934021 32.3426573,26.091014 C32.3426573,27.248007 31.4017483,28.1889161 30.2447552,28.1889161 C29.0877622,28.1889161 28.1468531,27.248007 28.1468531,26.091014 M32.4304196,35.0675874 C33.5129371,34.570035 34.2657343,33.4791259 34.2657343,32.2098951 C34.2657343,30.5172378 32.9283217,29.1406643 31.2531469,29.070035 C32.4958042,28.6490559 33.3916084,27.475979 33.3916084,26.091014 C33.3916084,24.3529021 31.9828671,22.9441608 30.2447552,22.9441608 C28.5066434,22.9441608 27.0979021,24.3529021 27.0979021,26.091014 C27.0979021,27.7836713 28.4353147,29.1602448 30.1104895,29.2308741 C28.8678322,29.6518531 27.972028,30.8249301 27.972028,32.2098951 C27.972028,33.7382168 29.0618881,35.0112937 30.5066434,35.2962587 C29.4241259,35.7938112 28.6713287,36.8847203 28.6713287,38.153951 C28.6713287,39.8920629 30.0800699,41.3008042 31.8181818,41.3008042 C33.5562937,41.3008042 34.965035,39.8920629 34.965035,38.153951 C34.965035,36.6256294 33.8751748,35.3525524 32.4304196,35.0675874" id="Fill-55" fill="#2D313A"></path>
                    <path d="M43.5314685,38.6784266 C42.3744755,38.6784266 41.4335664,37.7375175 41.4335664,36.5805245 C41.4335664,35.4235315 42.3744755,34.4826224 43.5314685,34.4826224 C44.6884615,34.4826224 45.6293706,35.4235315 45.6293706,36.5805245 C45.6293706,37.7375175 44.6884615,38.6784266 43.5314685,38.6784266 M40.7342657,30.6364685 C40.7342657,29.4794755 41.6751748,28.5385664 42.8321678,28.5385664 C43.9891608,28.5385664 44.9300699,29.4794755 44.9300699,30.6364685 C44.9300699,31.7934615 43.9891608,32.7343706 42.8321678,32.7343706 C41.6751748,32.7343706 40.7342657,31.7934615 40.7342657,30.6364685 M39.8601399,24.5175874 C39.8601399,23.3605944 40.801049,22.4196853 41.958042,22.4196853 C43.115035,22.4196853 44.0559441,23.3605944 44.0559441,24.5175874 C44.0559441,25.6745804 43.115035,26.6154895 41.958042,26.6154895 C40.801049,26.6154895 39.8601399,25.6745804 39.8601399,24.5175874 M44.1437063,33.4941608 C45.2262238,32.9966084 45.979021,31.9056993 45.979021,30.6364685 C45.979021,28.9438112 44.6416084,27.5672378 42.9664336,27.4966084 C44.2090909,27.0756294 45.1048951,25.9025524 45.1048951,24.5175874 C45.1048951,22.7794755 43.6961538,21.3707343 41.958042,21.3707343 C40.2199301,21.3707343 38.8111888,22.7794755 38.8111888,24.5175874 C38.8111888,26.2102448 40.1486014,27.5868182 41.8237762,27.6574476 C40.5811189,28.0784266 39.6853147,29.2515035 39.6853147,30.6364685 C39.6853147,32.1647902 40.7751748,33.4378671 42.2199301,33.7228322 C41.1374126,34.2203846 40.3846154,35.3112937 40.3846154,36.5805245 C40.3846154,38.3186364 41.7933566,39.7273776 43.5314685,39.7273776 C45.2695804,39.7273776 46.6783217,38.3186364 46.6783217,36.5805245 C46.6783217,35.0522028 45.5884615,33.7791259 44.1437063,33.4941608" id="Fill-57" fill="#2D313A"></path>
                </g>
            </g>
        </g>
    </g>
</svg>