<?xml version="1.0" encoding="UTF-8"?>
<svg width="220px" height="49px" viewBox="0 0 220 49" version="1.1" xmlns="http://www.w3.org/2000/svg" xmlns:xlink="http://www.w3.org/1999/xlink">
    <!-- Generator: Sketch 41.1 (35376) - http://www.bohemiancoding.com/sketch -->
    <title>share_line_normal</title>
    <desc>Created with Sketch.</desc>
    <defs>
        <polygon id="path-1" points="29.8865376 29.0133507 0 29.0133507 0 0.138033214 29.8865376 0.138033214 29.8865376 29.0133507"></polygon>
    </defs>
    <g id="Page-1" stroke="none" stroke-width="1" fill="none" fill-rule="evenodd">
        <g id="Artboard" transform="translate(-169.000000, -1628.000000)">
            <g id="bottom" transform="translate(52.000000, 1436.000000)">
                <g id="btn_lineshare" transform="translate(0.000000, 192.000000)">
                    <g id="share_line_normal" transform="translate(119.000000, 2.000000)">
                        <rect id="Rectangle-10" fill="#00B900" x="0" y="0" width="216" height="45" rx="8"></rect>
                        <g id="Page-1" transform="translate(8.000000, 8.000000)">
                            <g id="Group-3" transform="translate(0.000000, 0.037805)">
                                <mask id="mask-2" fill="white">
                                    <use xlink:href="#path-1"></use>
                                </mask>
                                <g id="Clip-2"></g>
                                <path d="M29.8865376,12.4345594 C29.8865376,5.65422729 23.183185,0.137998046 14.9432428,0.137998046 C6.70416763,0.137998046 -5.20231214e-05,5.65422729 -5.20231214e-05,12.4345594 C-5.20231214e-05,18.5129443 5.31619075,23.6038203 12.497289,24.5661843 C12.9838786,24.6727424 13.6463064,24.8914855 13.8136474,25.313322 C13.9645145,25.6962983 13.9123179,26.296435 13.8620289,26.6834556 C13.8620289,26.6834556 13.6868844,27.7525536 13.6489075,27.9806161 C13.5837052,28.3635923 13.3485607,29.4789359 14.9432428,28.7975617 C16.5380983,28.1160117 23.5490809,23.6592094 26.6841676,20.0000104 L26.683474,20.0000104 C28.8491965,17.5919023 29.8865376,15.1482748 29.8865376,12.4345594" id="Fill-1" fill="#FFFFFF" mask="url(#mask-2)"></path>
                            </g>
                            <path d="M11.9070694,9.19582546 L10.8588035,9.19582546 C10.698052,9.19582546 10.5676474,9.32788017 10.5676474,9.49053077 L10.5676474,16.0929144 C10.5676474,16.2553891 10.698052,16.387268 10.8588035,16.387268 L11.9070694,16.387268 C12.0676474,16.387268 12.198052,16.2553891 12.198052,16.0929144 L12.198052,9.49053077 C12.198052,9.32788017 12.0676474,9.19582546 11.9070694,9.19582546" id="Fill-4" fill="#00B900"></path>
                            <path d="M19.1216358,9.19582546 L18.0735434,9.19582546 C17.9127919,9.19582546 17.7825607,9.32788017 17.7825607,9.49053077 L17.7825607,13.4129599 L14.7985145,9.32700098 C14.7917514,9.31645067 14.783948,9.30660371 14.7757977,9.2969326 L14.7740636,9.29499837 C14.768341,9.28866819 14.7624451,9.28268968 14.7565491,9.27688701 C14.7546416,9.27530446 14.7530809,9.27354608 14.7511734,9.27196353 C14.7461445,9.26739173 14.7409422,9.26281993 14.7355665,9.25877564 C14.7331387,9.25666558 14.7305376,9.25473136 14.7281098,9.25279713 C14.7230809,9.24928036 14.718052,9.24558776 14.7130231,9.24224683 C14.7100751,9.2403126 14.7073006,9.23873006 14.7041792,9.23697167 C14.6989769,9.23398242 14.6937746,9.23081732 14.6887457,9.22817975 C14.6854509,9.22677304 14.6825029,9.22501465 14.6793815,9.22360795 C14.6740058,9.22132204 14.6686301,9.21868447 14.6627341,9.21639857 C14.6594393,9.2151677 14.6564913,9.21411267 14.6531965,9.21323347 C14.6476474,9.21094757 14.6419249,9.20901335 14.6360289,9.20725497 C14.6327341,9.20655161 14.6294393,9.20567242 14.6259711,9.20479323 C14.6202486,9.20321068 14.6148728,9.20197981 14.6091503,9.20092478 C14.6051618,9.20004559 14.6008266,9.19969391 14.5968382,9.19934223 C14.5918092,9.1982872 14.5867803,9.19775969 14.581578,9.19740801 C14.5765491,9.19688049 14.5716936,9.19652882 14.5664913,9.19635298 C14.5628497,9.19635298 14.5599017,9.19582546 14.5562601,9.19582546 L13.5081676,9.19582546 C13.3475896,9.19582546 13.217185,9.32788017 13.217185,9.49053077 L13.217185,16.0929144 C13.217185,16.2553891 13.3475896,16.387268 13.5081676,16.387268 L14.5562601,16.387268 C14.717185,16.387268 14.8475896,16.2553891 14.8475896,16.0929144 L14.8475896,12.1717161 L17.835104,16.2629502 C17.8555665,16.2923152 17.8810578,16.3165809 17.9089769,16.3355715 C17.9098439,16.3362748 17.9110578,16.3369782 17.9119249,16.3380332 C17.9179942,16.3419017 17.9238902,16.3457701 17.9299595,16.349111 C17.9327341,16.3506936 17.9353353,16.3521003 17.9381098,16.353507 C17.9426185,16.3559687 17.947474,16.3582546 17.9521561,16.3605405 C17.9568382,16.3624748 17.9613468,16.3647607 17.9662023,16.366519 C17.9693237,16.3677499 17.9719249,16.3689808 17.9750462,16.36986 C17.9818092,16.3723217 17.9882254,16.3744318 17.994815,16.376366 C17.9962023,16.3765418 17.9975896,16.3770694 17.9989769,16.3772452 C18.0227341,16.3837512 18.0477052,16.387268 18.0735434,16.387268 L19.1216358,16.387268 C19.2825607,16.387268 19.4127919,16.2553891 19.4127919,16.0929144 L19.4127919,9.49053077 C19.4127919,9.32788017 19.2825607,9.19582546 19.1216358,9.19582546" id="Fill-6" fill="#00B900"></path>
                            <path d="M9.38042775,14.7342279 L6.53233526,14.7342279 L6.53233526,9.49072419 C6.53233526,9.32789775 6.40210405,9.19584305 6.2413526,9.19584305 L5.19326012,9.19584305 C5.03250867,9.19584305 4.90210405,9.32789775 4.90210405,9.49072419 L4.90210405,16.0924044 L4.90210405,16.0929319 C4.90210405,16.1720593 4.93314451,16.2438014 4.98343353,16.2965529 C4.9846474,16.2981355 4.98586127,16.299718 4.98742197,16.3011247 C4.98898266,16.3025314 4.99036994,16.3037623 4.99175723,16.3053448 C5.04412717,16.3561622 5.11453179,16.3874614 5.19273988,16.3874614 L5.19326012,16.3874614 L9.38042775,16.3874614 C9.54100578,16.3874614 9.67106358,16.255055 9.67106358,16.0924044 L9.67106358,15.0294608 C9.67106358,14.8664585 9.54100578,14.7342279 9.38042775,14.7342279" id="Fill-8" fill="#00B900"></path>
                            <path d="M24.9100405,10.8491293 C25.0706185,10.8491293 25.2006763,10.7170746 25.2006763,10.5538965 L25.2006763,9.49112862 C25.2006763,9.32812634 25.0706185,9.1958958 24.9100405,9.1958958 L20.7228728,9.1958958 L20.7223526,9.1958958 C20.6437977,9.1958958 20.5730462,9.22754673 20.5205029,9.2790674 C20.5194624,9.28029827 20.5180751,9.28117747 20.5170347,9.2822325 C20.515474,9.28416672 20.5137399,9.28574927 20.5123526,9.28733181 C20.4625838,9.3402592 20.4317168,9.41182546 20.4317168,9.49060111 L20.4317168,9.49112862 L20.4317168,16.0922813 L20.4317168,16.0928089 C20.4317168,16.1719362 20.4627572,16.2438541 20.5130462,16.2966057 C20.5142601,16.2980124 20.5156474,16.2997708 20.5170347,16.3011775 C20.5182486,16.3024083 20.5199827,16.303815 20.5213699,16.3048701 C20.5735665,16.3558632 20.6441445,16.3875142 20.7223526,16.3875142 L20.7228728,16.3875142 L24.9100405,16.3875142 C25.0706185,16.3875142 25.2006763,16.2552836 25.2006763,16.0922813 L25.2006763,15.0293377 C25.2006763,14.8665112 25.0706185,14.7342807 24.9100405,14.7342807 L22.0621214,14.7342807 L22.0621214,13.6182338 L24.9100405,13.6182338 C25.0706185,13.6182338 25.2006763,13.4861791 25.2006763,13.323001 L25.2006763,12.2602331 C25.2006763,12.0972309 25.0706185,11.9650003 24.9100405,11.9650003 L22.0621214,11.9650003 L22.0621214,10.8491293 L24.9100405,10.8491293 Z" id="Fill-10" fill="#00B900"></path>
                        </g>
                        <text id="share_line_word" font-family="PingFangTC-Semibold, PingFang TC" font-size="18" font-weight="500" letter-spacing="1.79999995" fill="#FFFFFF">
                            <tspan x="62" y="29">用</tspan>
                            <tspan x="81.8" y="29" font-family="Helvetica-Bold, Helvetica" font-weight="bold">LINE</tspan>
                            <tspan x="130.000976" y="29">分享</tspan>
                        </text>
                    </g>
                </g>
            </g>
        </g>
    </g>
</svg>