<?xml version="1.0" encoding="UTF-8"?>
<svg width="215px" height="31px" viewBox="0 0 215 31" version="1.1" xmlns="http://www.w3.org/2000/svg" xmlns:xlink="http://www.w3.org/1999/xlink">
    <!-- Generator: Sketch 41.1 (35376) - http://www.bohemiancoding.com/sketch -->
    <title>tit_info</title>
    <desc>Created with Sketch.</desc>
    <defs>
        <polygon id="path-1" points="14.8119868 0.19797054 0 0.19797054 0 29.6562226 14.8119868 29.6562226"></polygon>
        <polygon id="path-3" points="14.8119868 0.19797054 0 0.19797054 0 29.6562226 14.8119868 29.6562226"></polygon>
    </defs>
    <g id="Page-1" stroke="none" stroke-width="1" fill="none" fill-rule="evenodd">
        <g id="Artboard-3" transform="translate(-75.000000, -455.000000)">
            <g id="Group-7" transform="translate(75.000000, 455.000000)">
                <text id="填資料抽大獎" font-family="DFNMing-W9-WIN-BF, DFNMingXBold-B5" font-size="20" font-weight="bold" letter-spacing="2" fill="#000000">
                    <tspan x="40" y="21">填資料抽大獎</tspan>
                    <tspan x="172" y="21"></tspan>
                </text>
                <g id="Page-1">
                    <path d="M15.0650132,12.1663895 L15.0752763,12.1762095 L15.4700132,12.5690082 L18.6275132,15.7110049 L15.4700132,18.8530016 L15.0752763,19.2458003 L15.0650132,19.2564059 L11.5029079,15.7110049 L15.0650132,12.1663895 Z M15.4700132,0.992445172 C15.3385658,0.988517185 15.2075132,0.982625205 15.0752763,0.982232406 C15.0721184,0.982232406 15.0685658,0.981839607 15.0650132,0.981839607 C6.89001316,0.981839607 0.263171053,7.57614403 0.263171053,15.7110049 C0.263171053,23.8458658 6.89001316,30.4401702 15.0650132,30.4401702 C15.0685658,30.4401702 15.0721184,30.4397774 15.0752763,30.4397774 C15.2075132,30.4397774 15.3385658,30.4338854 15.4700132,30.4303502 C23.4571184,30.2158822 29.8668553,23.710743 29.8668553,15.7110049 C29.8668553,7.71165957 23.4571184,1.20652046 15.4700132,0.992445172 L15.4700132,0.992445172 Z" id="Fill-1" fill="#8E7D38"></path>
                    <g id="Group-5" transform="translate(0.000000, 0.194907)">
                        <mask id="mask-2" fill="white">
                            <use xlink:href="#path-1"></use>
                        </mask>
                        <g id="Clip-4"></g>
                        <path d="M14.8017237,26.7106252 C8.26211842,26.7106252 2.96040789,21.4345532 2.96040789,14.9270573 C2.96040789,8.41956137 8.26211842,3.14388216 14.8017237,3.14388216 L14.8119868,3.14388216 L14.8119868,0.198284779 C14.8088289,0.198284779 14.8052763,0.19789198 14.8017237,0.19789198 C6.62711842,0.19789198 -0.000118421053,6.7921964 -0.000118421053,14.9270573 C-0.000118421053,23.0619182 6.62711842,29.6562226 14.8017237,29.6562226 C14.8052763,29.6562226 14.8088289,29.6558298 14.8119868,29.6558298 L14.8119868,26.7102324 C14.8088289,26.7102324 14.8052763,26.7106252 14.8017237,26.7106252" id="Fill-3" fill="#D1B346" mask="url(#mask-2)"></path>
                    </g>
                    <path d="M14.8017237,20.8889165 L13.6854079,19.7780818 L10.1229079,16.2326809 L9.00619737,15.1218462 L10.1229079,14.0110115 L13.6854079,10.4660033 L14.8017237,9.35516858 L14.8119868,9.36538134 L14.8119868,3.33867103 L14.8017237,3.33867103 C8.26211842,3.33867103 2.96040789,8.61435025 2.96040789,15.1218462 C2.96040789,21.6297349 8.26211842,26.9054141 14.8017237,26.9054141 C14.8052763,26.9054141 14.8088289,26.9050213 14.8119868,26.9050213 L14.8119868,20.8787038 L14.8017237,20.8889165 Z" id="Fill-6" fill="#E2C66A"></path>
                    <polygon id="Fill-8" fill="#A5944A" points="14.8017237 18.6671293 11.2396184 15.1221211 14.8017237 11.5771129 14.8119868 11.5873257 14.8119868 9.3652635 14.8017237 9.35505074 13.6854079 10.4658854 10.1229079 14.0108936 9.00619737 15.1221211 10.1229079 16.2329558 13.6854079 19.777964 14.8017237 20.8887987 14.8119868 20.8785859 14.8119868 18.6569165"></polygon>
                    <path d="M15.2068816,0.403129296 C15.0754342,0.399201309 14.9447763,0.393702128 14.8121447,0.393309329 L14.8121447,3.33890671 C14.9447763,3.33929951 15.0758289,3.34440589 15.2068816,3.34872668 C21.5589868,3.56162357 26.6435921,8.74931588 26.6435921,15.1220818 C26.6435921,21.494455 21.5589868,26.6821473 15.2068816,26.8950442 C15.0758289,26.899365 14.9447763,26.9048642 14.8121447,26.905257 L14.8121447,29.8508543 C14.9447763,29.8508543 15.0754342,29.8445696 15.2068816,29.8410344 C23.1939868,29.6265663 29.6041184,23.1214272 29.6041184,15.1220818 C29.6041184,7.1223437 23.1939868,0.617204583 15.2068816,0.403129296" id="Fill-10" fill="#99883F"></path>
                    <path d="M15.2068816,3.34872668 C15.0758289,3.34440589 14.9447763,3.33929951 14.8121447,3.33890671 L14.8121447,9.36522422 L15.2068816,9.75802291 L15.9185921,10.4658462 L19.4806974,14.0112471 L20.5974079,15.1220818 L19.4806974,16.2329165 L15.9185921,19.7779247 L15.2068816,20.485748 L14.8121447,20.8785466 L14.8121447,26.905257 C14.9447763,26.9048642 15.0758289,26.899365 15.2068816,26.8950442 C21.5589868,26.6821473 26.6435921,21.494455 26.6435921,15.1220818 C26.6435921,8.74931588 21.5589868,3.56162357 15.2068816,3.34872668" id="Fill-12" fill="#D3B45B"></path>
                    <polygon id="Fill-14" fill="#8E7D38" points="19.4807368 14.01109 15.9186316 10.4660818 15.2069211 9.75825859 14.8121842 9.3654599 14.8121842 11.5871293 15.2069211 11.979928 18.3644211 15.1219247 15.2069211 18.2639214 14.8121842 18.6567201 14.8121842 20.8783895 15.2069211 20.4855908 15.9186316 19.7781604 19.4807368 16.2327594 20.5974474 15.1219247"></polygon>
                </g>
                <g id="Page-1-Copy-5" transform="translate(185.000000, 0.000000)">
                    <path d="M15.0650132,12.1663895 L15.0752763,12.1762095 L15.4700132,12.5690082 L18.6275132,15.7110049 L15.4700132,18.8530016 L15.0752763,19.2458003 L15.0650132,19.2564059 L11.5029079,15.7110049 L15.0650132,12.1663895 Z M15.4700132,0.992445172 C15.3385658,0.988517185 15.2075132,0.982625205 15.0752763,0.982232406 C15.0721184,0.982232406 15.0685658,0.981839607 15.0650132,0.981839607 C6.89001316,0.981839607 0.263171053,7.57614403 0.263171053,15.7110049 C0.263171053,23.8458658 6.89001316,30.4401702 15.0650132,30.4401702 C15.0685658,30.4401702 15.0721184,30.4397774 15.0752763,30.4397774 C15.2075132,30.4397774 15.3385658,30.4338854 15.4700132,30.4303502 C23.4571184,30.2158822 29.8668553,23.710743 29.8668553,15.7110049 C29.8668553,7.71165957 23.4571184,1.20652046 15.4700132,0.992445172 L15.4700132,0.992445172 Z" id="Fill-1" fill="#8E7D38"></path>
                    <g id="Group-5" transform="translate(0.000000, 0.194907)">
                        <mask id="mask-4" fill="white">
                            <use xlink:href="#path-3"></use>
                        </mask>
                        <g id="Clip-4"></g>
                        <path d="M14.8017237,26.7106252 C8.26211842,26.7106252 2.96040789,21.4345532 2.96040789,14.9270573 C2.96040789,8.41956137 8.26211842,3.14388216 14.8017237,3.14388216 L14.8119868,3.14388216 L14.8119868,0.198284779 C14.8088289,0.198284779 14.8052763,0.19789198 14.8017237,0.19789198 C6.62711842,0.19789198 -0.000118421053,6.7921964 -0.000118421053,14.9270573 C-0.000118421053,23.0619182 6.62711842,29.6562226 14.8017237,29.6562226 C14.8052763,29.6562226 14.8088289,29.6558298 14.8119868,29.6558298 L14.8119868,26.7102324 C14.8088289,26.7102324 14.8052763,26.7106252 14.8017237,26.7106252" id="Fill-3" fill="#D1B346" mask="url(#mask-4)"></path>
                    </g>
                    <path d="M14.8017237,20.8889165 L13.6854079,19.7780818 L10.1229079,16.2326809 L9.00619737,15.1218462 L10.1229079,14.0110115 L13.6854079,10.4660033 L14.8017237,9.35516858 L14.8119868,9.36538134 L14.8119868,3.33867103 L14.8017237,3.33867103 C8.26211842,3.33867103 2.96040789,8.61435025 2.96040789,15.1218462 C2.96040789,21.6297349 8.26211842,26.9054141 14.8017237,26.9054141 C14.8052763,26.9054141 14.8088289,26.9050213 14.8119868,26.9050213 L14.8119868,20.8787038 L14.8017237,20.8889165 Z" id="Fill-6" fill="#E2C66A"></path>
                    <polygon id="Fill-8" fill="#A5944A" points="14.8017237 18.6671293 11.2396184 15.1221211 14.8017237 11.5771129 14.8119868 11.5873257 14.8119868 9.3652635 14.8017237 9.35505074 13.6854079 10.4658854 10.1229079 14.0108936 9.00619737 15.1221211 10.1229079 16.2329558 13.6854079 19.777964 14.8017237 20.8887987 14.8119868 20.8785859 14.8119868 18.6569165"></polygon>
                    <path d="M15.2068816,0.403129296 C15.0754342,0.399201309 14.9447763,0.393702128 14.8121447,0.393309329 L14.8121447,3.33890671 C14.9447763,3.33929951 15.0758289,3.34440589 15.2068816,3.34872668 C21.5589868,3.56162357 26.6435921,8.74931588 26.6435921,15.1220818 C26.6435921,21.494455 21.5589868,26.6821473 15.2068816,26.8950442 C15.0758289,26.899365 14.9447763,26.9048642 14.8121447,26.905257 L14.8121447,29.8508543 C14.9447763,29.8508543 15.0754342,29.8445696 15.2068816,29.8410344 C23.1939868,29.6265663 29.6041184,23.1214272 29.6041184,15.1220818 C29.6041184,7.1223437 23.1939868,0.617204583 15.2068816,0.403129296" id="Fill-10" fill="#99883F"></path>
                    <path d="M15.2068816,3.34872668 C15.0758289,3.34440589 14.9447763,3.33929951 14.8121447,3.33890671 L14.8121447,9.36522422 L15.2068816,9.75802291 L15.9185921,10.4658462 L19.4806974,14.0112471 L20.5974079,15.1220818 L19.4806974,16.2329165 L15.9185921,19.7779247 L15.2068816,20.485748 L14.8121447,20.8785466 L14.8121447,26.905257 C14.9447763,26.9048642 15.0758289,26.899365 15.2068816,26.8950442 C21.5589868,26.6821473 26.6435921,21.494455 26.6435921,15.1220818 C26.6435921,8.74931588 21.5589868,3.56162357 15.2068816,3.34872668" id="Fill-12" fill="#D3B45B"></path>
                    <polygon id="Fill-14" fill="#8E7D38" points="19.4807368 14.01109 15.9186316 10.4660818 15.2069211 9.75825859 14.8121842 9.3654599 14.8121842 11.5871293 15.2069211 11.979928 18.3644211 15.1219247 15.2069211 18.2639214 14.8121842 18.6567201 14.8121842 20.8783895 15.2069211 20.4855908 15.9186316 19.7781604 19.4807368 16.2327594 20.5974474 15.1219247"></polygon>
                </g>
            </g>
        </g>
    </g>
</svg>